<?xml version="1.0" encoding="utf-8" standalone="no"?>
<!DOCTYPE svg PUBLIC "-//W3C//DTD SVG 1.1//EN"
  "http://www.w3.org/Graphics/SVG/1.1/DTD/svg11.dtd">
<!-- Created with matplotlib (https://matplotlib.org/) -->
<svg height="288pt" version="1.1" viewBox="0 0 432 288" width="432pt" xmlns="http://www.w3.org/2000/svg" xmlns:xlink="http://www.w3.org/1999/xlink">
 <defs>
  <style type="text/css">
*{stroke-linecap:butt;stroke-linejoin:round;}
  </style>
 </defs>
 <g id="figure_1">
  <g id="patch_1">
   <path d="M 0 288 
L 432 288 
L 432 0 
L 0 0 
z
" style="fill:#ffffff;"/>
  </g>
  <g id="axes_1">
   <g id="patch_2">
    <path d="M 54 252 
L 388.8 252 
L 388.8 34.56 
L 54 34.56 
z
" style="fill:#ffffff;"/>
   </g>
   <g id="matplotlib.axis_1">
    <g id="xtick_1">
     <g id="line2d_1">
      <defs>
       <path d="M 0 0 
L 0 3.5 
" id="mc65e9d97ef" style="stroke:#000000;stroke-width:0.8;"/>
      </defs>
      <g>
       <use style="stroke:#000000;stroke-width:0.8;" x="69.218182" xlink:href="#mc65e9d97ef" y="252"/>
      </g>
     </g>
     <g id="text_1">
      <text style="font-family:DejaVu Sans;font-size:10px;font-style:normal;font-weight:normal;text-anchor:middle;" transform="rotate(-0, 69.218182, 266.598437)" x="69.218182" y="266.598437">0</text>
     </g>
    </g>
    <g id="xtick_2">
     <g id="line2d_2">
      <g>
       <use style="stroke:#000000;stroke-width:0.8;" x="119.962369" xlink:href="#mc65e9d97ef" y="252"/>
      </g>
     </g>
     <g id="text_2">
      <text style="font-family:DejaVu Sans;font-size:10px;font-style:normal;font-weight:normal;text-anchor:middle;" transform="rotate(-0, 119.962369, 266.598437)" x="119.962369" y="266.598437">500</text>
     </g>
    </g>
    <g id="xtick_3">
     <g id="line2d_3">
      <g>
       <use style="stroke:#000000;stroke-width:0.8;" x="170.706557" xlink:href="#mc65e9d97ef" y="252"/>
      </g>
     </g>
     <g id="text_3">
      <text style="font-family:DejaVu Sans;font-size:10px;font-style:normal;font-weight:normal;text-anchor:middle;" transform="rotate(-0, 170.706557, 266.598437)" x="170.706557" y="266.598437">1000</text>
     </g>
    </g>
    <g id="xtick_4">
     <g id="line2d_4">
      <g>
       <use style="stroke:#000000;stroke-width:0.8;" x="221.450744" xlink:href="#mc65e9d97ef" y="252"/>
      </g>
     </g>
     <g id="text_4">
      <text style="font-family:DejaVu Sans;font-size:10px;font-style:normal;font-weight:normal;text-anchor:middle;" transform="rotate(-0, 221.450744, 266.598437)" x="221.450744" y="266.598437">1500</text>
     </g>
    </g>
    <g id="xtick_5">
     <g id="line2d_5">
      <g>
       <use style="stroke:#000000;stroke-width:0.8;" x="272.194932" xlink:href="#mc65e9d97ef" y="252"/>
      </g>
     </g>
     <g id="text_5">
      <text style="font-family:DejaVu Sans;font-size:10px;font-style:normal;font-weight:normal;text-anchor:middle;" transform="rotate(-0, 272.194932, 266.598437)" x="272.194932" y="266.598437">2000</text>
     </g>
    </g>
    <g id="xtick_6">
     <g id="line2d_6">
      <g>
       <use style="stroke:#000000;stroke-width:0.8;" x="322.939119" xlink:href="#mc65e9d97ef" y="252"/>
      </g>
     </g>
     <g id="text_6">
      <text style="font-family:DejaVu Sans;font-size:10px;font-style:normal;font-weight:normal;text-anchor:middle;" transform="rotate(-0, 322.939119, 266.598437)" x="322.939119" y="266.598437">2500</text>
     </g>
    </g>
    <g id="xtick_7">
     <g id="line2d_7">
      <g>
       <use style="stroke:#000000;stroke-width:0.8;" x="373.683307" xlink:href="#mc65e9d97ef" y="252"/>
      </g>
     </g>
     <g id="text_7">
      <text style="font-family:DejaVu Sans;font-size:10px;font-style:normal;font-weight:normal;text-anchor:middle;" transform="rotate(-0, 373.683307, 266.598437)" x="373.683307" y="266.598437">3000</text>
     </g>
    </g>
    <g id="text_8">
     <text style="font-family:DejaVu Sans;font-size:10px;font-style:normal;font-weight:normal;text-anchor:middle;" transform="rotate(-0, 221.4, 280.276563)" x="221.4" y="280.276563">Time</text>
    </g>
   </g>
   <g id="matplotlib.axis_2">
    <g id="ytick_1">
     <g id="line2d_8">
      <defs>
       <path d="M 0 0 
L -3.5 0 
" id="ma17917ec5d" style="stroke:#000000;stroke-width:0.8;"/>
      </defs>
      <g>
       <use style="stroke:#000000;stroke-width:0.8;" x="54" xlink:href="#ma17917ec5d" y="236.096991"/>
      </g>
     </g>
     <g id="text_9">
      <text style="font-family:DejaVu Sans;font-size:10px;font-style:normal;font-weight:normal;text-anchor:end;" transform="rotate(-0, 47, 239.89621)" x="47" y="239.89621">47.5</text>
     </g>
    </g>
    <g id="ytick_2">
     <g id="line2d_9">
      <g>
       <use style="stroke:#000000;stroke-width:0.8;" x="54" xlink:href="#ma17917ec5d" y="210.700081"/>
      </g>
     </g>
     <g id="text_10">
      <text style="font-family:DejaVu Sans;font-size:10px;font-style:normal;font-weight:normal;text-anchor:end;" transform="rotate(-0, 47, 214.4993)" x="47" y="214.4993">50.0</text>
     </g>
    </g>
    <g id="ytick_3">
     <g id="line2d_10">
      <g>
       <use style="stroke:#000000;stroke-width:0.8;" x="54" xlink:href="#ma17917ec5d" y="185.303171"/>
      </g>
     </g>
     <g id="text_11">
      <text style="font-family:DejaVu Sans;font-size:10px;font-style:normal;font-weight:normal;text-anchor:end;" transform="rotate(-0, 47, 189.10239)" x="47" y="189.10239">52.5</text>
     </g>
    </g>
    <g id="ytick_4">
     <g id="line2d_11">
      <g>
       <use style="stroke:#000000;stroke-width:0.8;" x="54" xlink:href="#ma17917ec5d" y="159.906261"/>
      </g>
     </g>
     <g id="text_12">
      <text style="font-family:DejaVu Sans;font-size:10px;font-style:normal;font-weight:normal;text-anchor:end;" transform="rotate(-0, 47, 163.70548)" x="47" y="163.70548">55.0</text>
     </g>
    </g>
    <g id="ytick_5">
     <g id="line2d_12">
      <g>
       <use style="stroke:#000000;stroke-width:0.8;" x="54" xlink:href="#ma17917ec5d" y="134.509351"/>
      </g>
     </g>
     <g id="text_13">
      <text style="font-family:DejaVu Sans;font-size:10px;font-style:normal;font-weight:normal;text-anchor:end;" transform="rotate(-0, 47, 138.30857)" x="47" y="138.30857">57.5</text>
     </g>
    </g>
    <g id="ytick_6">
     <g id="line2d_13">
      <g>
       <use style="stroke:#000000;stroke-width:0.8;" x="54" xlink:href="#ma17917ec5d" y="109.112441"/>
      </g>
     </g>
     <g id="text_14">
      <text style="font-family:DejaVu Sans;font-size:10px;font-style:normal;font-weight:normal;text-anchor:end;" transform="rotate(-0, 47, 112.91166)" x="47" y="112.91166">60.0</text>
     </g>
    </g>
    <g id="ytick_7">
     <g id="line2d_14">
      <g>
       <use style="stroke:#000000;stroke-width:0.8;" x="54" xlink:href="#ma17917ec5d" y="83.715531"/>
      </g>
     </g>
     <g id="text_15">
      <text style="font-family:DejaVu Sans;font-size:10px;font-style:normal;font-weight:normal;text-anchor:end;" transform="rotate(-0, 47, 87.514749)" x="47" y="87.514749">62.5</text>
     </g>
    </g>
    <g id="ytick_8">
     <g id="line2d_15">
      <g>
       <use style="stroke:#000000;stroke-width:0.8;" x="54" xlink:href="#ma17917ec5d" y="58.318621"/>
      </g>
     </g>
     <g id="text_16">
      <text style="font-family:DejaVu Sans;font-size:10px;font-style:normal;font-weight:normal;text-anchor:end;" transform="rotate(-0, 47, 62.117839)" x="47" y="62.117839">65.0</text>
     </g>
    </g>
    <g id="text_17">
     <text style="font-family:DejaVu Sans;font-size:10px;font-style:normal;font-weight:normal;text-anchor:middle;" transform="rotate(-90, 18.654688, 143.28)" x="18.654688" y="143.28">weight (\%)</text>
    </g>
   </g>
   <g id="line2d_16">
    <path clip-path="url(#p55ed9c2f60)" d="M 69.218182 186.283492 
L 88.297996 186.584496 
L 93.473903 186.935481 
L 100.375113 187.654519 
L 110.219485 188.607004 
L 126.457625 190.113651 
L 131.735021 190.858796 
L 135.896044 191.666011 
L 139.448137 192.578776 
L 142.086835 193.464722 
L 144.624044 194.539215 
L 146.7553 195.665517 
L 148.683579 196.923172 
L 150.611858 198.459075 
L 152.540138 200.287145 
L 154.671393 202.625388 
L 157.005626 205.518705 
L 159.136882 208.521941 
L 161.065161 211.613964 
L 162.891952 214.958432 
L 164.921719 219.160503 
L 171.011022 232.195112 
L 172.025906 233.687129 
L 172.939301 234.670294 
L 173.852696 235.329192 
L 174.969068 235.849524 
L 176.897348 236.475304 
L 179.84051 237.184588 
L 183.900045 237.925569 
L 189.481906 238.709622 
L 199.021813 239.783302 
L 208.764697 240.638771 
L 217.898651 241.196691 
L 227.235582 241.572768 
L 239.718652 241.886877 
L 258.494001 242.096351 
L 275.950002 242.090256 
L 309.948607 241.91136 
L 373.581818 241.420184 
L 373.581818 241.420184 
" style="fill:none;stroke:#40b5c4;stroke-dasharray:5.55,2.4;stroke-dashoffset:0;stroke-width:1.5;"/>
    <defs>
     <path d="M 0 3 
C 0.795609 3 1.55874 2.683901 2.12132 2.12132 
C 2.683901 1.55874 3 0.795609 3 0 
C 3 -0.795609 2.683901 -1.55874 2.12132 -2.12132 
C 1.55874 -2.683901 0.795609 -3 0 -3 
C -0.795609 -3 -1.55874 -2.683901 -2.12132 -2.12132 
C -2.683901 -1.55874 -3 -0.795609 -3 0 
C -3 0.795609 -2.683901 1.55874 -2.12132 2.12132 
C -1.55874 2.683901 -0.795609 3 0 3 
z
" id="m265127559f" style="stroke:#40b5c4;"/>
    </defs>
    <g clip-path="url(#p55ed9c2f60)">
     <use style="fill:#40b5c4;stroke:#40b5c4;" x="69.218182" xlink:href="#m265127559f" y="186.283492"/>
     <use style="fill:#40b5c4;stroke:#40b5c4;" x="77.337252" xlink:href="#m265127559f" y="186.354197"/>
     <use style="fill:#40b5c4;stroke:#40b5c4;" x="85.456322" xlink:href="#m265127559f" y="186.479657"/>
     <use style="fill:#40b5c4;stroke:#40b5c4;" x="93.575392" xlink:href="#m265127559f" y="186.944421"/>
     <use style="fill:#40b5c4;stroke:#40b5c4;" x="101.694462" xlink:href="#m265127559f" y="187.795319"/>
     <use style="fill:#40b5c4;stroke:#40b5c4;" x="109.813532" xlink:href="#m265127559f" y="188.570839"/>
     <use style="fill:#40b5c4;stroke:#40b5c4;" x="117.932602" xlink:href="#m265127559f" y="189.263464"/>
     <use style="fill:#40b5c4;stroke:#40b5c4;" x="126.051672" xlink:href="#m265127559f" y="190.0656"/>
     <use style="fill:#40b5c4;stroke:#40b5c4;" x="134.170742" xlink:href="#m265127559f" y="191.302937"/>
     <use style="fill:#40b5c4;stroke:#40b5c4;" x="142.289812" xlink:href="#m265127559f" y="193.541725"/>
     <use style="fill:#40b5c4;stroke:#40b5c4;" x="150.408882" xlink:href="#m265127559f" y="198.28343"/>
     <use style="fill:#40b5c4;stroke:#40b5c4;" x="158.527952" xlink:href="#m265127559f" y="207.623906"/>
     <use style="fill:#40b5c4;stroke:#40b5c4;" x="166.647022" xlink:href="#m265127559f" y="223.022052"/>
     <use style="fill:#40b5c4;stroke:#40b5c4;" x="174.766092" xlink:href="#m265127559f" y="235.769269"/>
     <use style="fill:#40b5c4;stroke:#40b5c4;" x="182.885162" xlink:href="#m265127559f" y="237.759371"/>
     <use style="fill:#40b5c4;stroke:#40b5c4;" x="191.004232" xlink:href="#m265127559f" y="238.897153"/>
     <use style="fill:#40b5c4;stroke:#40b5c4;" x="199.123302" xlink:href="#m265127559f" y="239.793359"/>
     <use style="fill:#40b5c4;stroke:#40b5c4;" x="207.242372" xlink:href="#m265127559f" y="240.523571"/>
     <use style="fill:#40b5c4;stroke:#40b5c4;" x="215.361442" xlink:href="#m265127559f" y="241.063611"/>
     <use style="fill:#40b5c4;stroke:#40b5c4;" x="223.480512" xlink:href="#m265127559f" y="241.439892"/>
     <use style="fill:#40b5c4;stroke:#40b5c4;" x="231.599582" xlink:href="#m265127559f" y="241.703308"/>
     <use style="fill:#40b5c4;stroke:#40b5c4;" x="239.718652" xlink:href="#m265127559f" y="241.886877"/>
     <use style="fill:#40b5c4;stroke:#40b5c4;" x="247.837722" xlink:href="#m265127559f" y="242.010408"/>
     <use style="fill:#40b5c4;stroke:#40b5c4;" x="255.956792" xlink:href="#m265127559f" y="242.083144"/>
     <use style="fill:#40b5c4;stroke:#40b5c4;" x="264.075862" xlink:href="#m265127559f" y="242.114027"/>
     <use style="fill:#40b5c4;stroke:#40b5c4;" x="272.194932" xlink:href="#m265127559f" y="242.104478"/>
     <use style="fill:#40b5c4;stroke:#40b5c4;" x="280.314002" xlink:href="#m265127559f" y="242.063335"/>
     <use style="fill:#40b5c4;stroke:#40b5c4;" x="288.433072" xlink:href="#m265127559f" y="242.005938"/>
     <use style="fill:#40b5c4;stroke:#40b5c4;" x="296.552142" xlink:href="#m265127559f" y="241.972922"/>
     <use style="fill:#40b5c4;stroke:#40b5c4;" x="304.671212" xlink:href="#m265127559f" y="241.956058"/>
     <use style="fill:#40b5c4;stroke:#40b5c4;" x="312.790282" xlink:href="#m265127559f" y="241.884744"/>
     <use style="fill:#40b5c4;stroke:#40b5c4;" x="320.909352" xlink:href="#m265127559f" y="241.813632"/>
     <use style="fill:#40b5c4;stroke:#40b5c4;" x="329.028422" xlink:href="#m265127559f" y="241.742115"/>
     <use style="fill:#40b5c4;stroke:#40b5c4;" x="337.147492" xlink:href="#m265127559f" y="241.66501"/>
     <use style="fill:#40b5c4;stroke:#40b5c4;" x="345.266562" xlink:href="#m265127559f" y="241.586178"/>
     <use style="fill:#40b5c4;stroke:#40b5c4;" x="353.385632" xlink:href="#m265127559f" y="241.512425"/>
     <use style="fill:#40b5c4;stroke:#40b5c4;" x="361.504702" xlink:href="#m265127559f" y="241.452082"/>
     <use style="fill:#40b5c4;stroke:#40b5c4;" x="369.623772" xlink:href="#m265127559f" y="241.420184"/>
    </g>
   </g>
   <g id="line2d_17">
    <path clip-path="url(#p55ed9c2f60)" d="M 69.218182 108.617027 
L 69.624135 109.046523 
L 69.725624 108.404198 
L 69.827112 109.229745 
L 69.9286 108.670545 
L 70.131577 109.208198 
L 70.233066 108.613075 
L 70.334554 109.377005 
L 70.537531 108.749755 
L 70.639019 109.174019 
L 70.740507 108.647719 
L 70.841996 109.403744 
L 70.943484 108.752158 
L 71.146461 109.292292 
L 71.247949 108.877096 
L 71.349438 109.567978 
L 71.450926 108.996377 
L 71.552414 109.049739 
L 71.653903 109.128484 
L 71.755391 108.837646 
L 71.85688 109.350537 
L 72.059856 109.04474 
L 72.161345 109.143094 
L 72.262833 108.991223 
L 72.364321 109.294268 
L 72.46581 109.145729 
L 72.668787 109.397389 
L 72.770275 109.063496 
L 72.871763 109.233349 
L 73.07474 108.985526 
L 73.176228 109.390956 
L 73.277717 108.742741 
L 73.480694 109.281596 
L 73.582182 108.924529 
L 73.68367 109.544726 
L 73.785159 108.987347 
L 73.886647 109.291245 
L 73.988135 109.079811 
L 74.089624 108.567695 
L 74.191112 109.425252 
L 74.292601 108.898449 
L 74.394089 109.018543 
L 74.597066 108.619973 
L 74.698554 109.146156 
L 74.800042 108.788818 
L 74.901531 109.158169 
L 75.104508 108.569168 
L 75.205996 109.132088 
L 75.307484 108.478293 
L 75.408973 108.562037 
L 75.510461 108.792887 
L 75.611949 108.388077 
L 75.713438 108.816448 
L 75.814926 108.171721 
L 76.017903 108.525222 
L 76.119391 108.416366 
L 76.22088 108.689262 
L 76.423856 108.058254 
L 76.525345 108.331731 
L 76.626833 107.815468 
L 76.728322 108.314873 
L 76.931298 107.428369 
L 77.032787 108.160948 
L 77.134275 107.520677 
L 77.235763 108.12297 
L 77.337252 107.96393 
L 77.43874 107.360087 
L 77.540229 107.964317 
L 77.641717 107.176864 
L 77.743205 107.66724 
L 77.844694 107.188451 
L 78.04767 107.501262 
L 78.149159 106.929119 
L 78.250647 107.324977 
L 78.453624 107.039215 
L 78.555112 107.317536 
L 78.656601 106.863084 
L 78.758089 107.091453 
L 78.961066 106.502918 
L 79.062554 106.914819 
L 79.164043 106.430373 
L 79.265531 106.527952 
L 79.468508 106.139379 
L 79.569996 106.490052 
L 79.772973 106.385846 
L 79.97595 105.605485 
L 80.077438 106.181968 
L 80.280415 105.651251 
L 80.381903 105.884465 
L 80.483391 105.129874 
L 80.58488 105.705118 
L 80.686368 105.255549 
L 80.787857 105.529413 
L 80.990833 104.999433 
L 81.092322 105.507402 
L 81.295298 104.697666 
L 81.396787 104.834812 
L 81.498275 104.432869 
L 81.599764 104.523357 
L 81.701252 104.123197 
L 81.904229 104.18617 
L 82.005717 103.899789 
L 82.107205 104.14982 
L 82.310182 103.139385 
L 82.411671 103.709591 
L 82.513159 102.948412 
L 82.614647 103.36291 
L 82.817624 102.411417 
L 82.919112 102.863001 
L 83.020601 102.297949 
L 83.122089 102.789643 
L 83.325066 101.919375 
L 83.426554 102.195061 
L 83.528043 101.657873 
L 83.629531 101.76266 
L 83.832508 101.193694 
L 83.933996 101.434968 
L 84.035485 100.861971 
L 84.136973 101.341419 
L 84.238461 100.920643 
L 84.441438 101.134054 
L 84.542926 100.535132 
L 84.644415 100.935098 
L 84.847392 100.224879 
L 85.050368 100.550323 
L 85.253345 100.159852 
L 85.354833 99.886568 
L 85.456322 100.505137 
L 85.55781 99.946519 
L 85.659299 100.019218 
L 85.760787 99.953145 
L 85.862275 99.248545 
L 85.963764 100.050957 
L 86.065252 99.474047 
L 86.16674 99.57182 
L 86.268229 99.437697 
L 86.369717 98.930929 
L 86.471206 99.7054 
L 86.572694 99.003861 
L 86.674182 99.423242 
L 86.877159 98.602811 
L 86.978647 99.186309 
L 87.080136 99.084273 
L 87.384601 98.285892 
L 87.486089 98.723099 
L 87.689066 98.24338 
L 87.790554 98.680471 
L 87.892043 97.549205 
L 87.993531 98.620831 
L 88.196508 98.011756 
L 88.297996 98.510114 
L 88.399485 97.77025 
L 88.500973 98.171417 
L 88.70395 97.482705 
L 88.805438 97.970911 
L 88.906927 97.510646 
L 89.008415 97.982033 
L 89.109903 97.786836 
L 89.211392 97.280765 
L 89.31288 97.799159 
L 89.414368 97.359743 
L 89.515857 97.57048 
L 89.617345 97.192952 
L 89.718834 97.261815 
L 89.820322 97.596212 
L 89.92181 97.273441 
L 90.023299 97.468716 
L 90.226275 96.858362 
L 90.327764 97.274449 
L 90.429252 96.941099 
L 90.530741 97.209151 
L 90.733717 96.550046 
L 90.835206 97.224729 
L 90.936694 96.683278 
L 91.038182 97.330989 
L 91.241159 96.785895 
L 91.342648 96.861578 
L 91.444136 96.577483 
L 91.545624 96.889054 
L 91.748601 96.294589 
L 91.850089 96.717264 
L 91.951578 96.45766 
L 92.053066 96.579614 
L 92.154555 97.096923 
L 92.256043 96.462039 
L 92.357531 97.056 
L 92.45902 96.325552 
L 92.661996 96.800388 
L 92.763485 96.368878 
L 92.864973 97.301537 
L 92.966462 96.280832 
L 93.169438 96.959196 
L 93.270927 96.679402 
L 93.372415 97.377996 
L 93.473903 96.533228 
L 93.67688 96.898316 
L 93.778369 96.48936 
L 93.879857 97.105177 
L 93.981345 97.035384 
L 94.082834 96.475564 
L 94.184322 96.918622 
L 94.28581 96.720945 
L 94.387299 97.402604 
L 94.590276 96.818524 
L 94.691764 97.362688 
L 94.793252 96.432703 
L 94.894741 97.36172 
L 94.996229 96.813564 
L 95.097717 97.158772 
L 95.300694 96.845922 
L 95.503671 97.22593 
L 95.605159 97.103278 
L 95.706648 97.497082 
L 95.808136 96.926295 
L 95.909624 97.328702 
L 96.112601 96.908508 
L 96.21409 97.851475 
L 96.315578 96.774269 
L 96.417066 97.724793 
L 96.620043 97.093396 
L 96.721531 97.774512 
L 96.82302 97.083747 
L 96.924508 97.760445 
L 97.127485 97.198106 
L 97.330462 97.75471 
L 97.43195 97.843376 
L 97.634927 97.298359 
L 97.736415 97.894413 
L 97.939392 97.694372 
L 98.04088 97.92929 
L 98.142369 97.156835 
L 98.243857 98.199706 
L 98.345345 97.519404 
L 98.446834 98.01505 
L 98.548322 97.880578 
L 98.649811 97.295298 
L 98.751299 97.829231 
L 98.954276 97.413648 
L 99.055764 97.571255 
L 99.157252 97.163965 
L 99.258741 97.510723 
L 99.461718 97.142884 
L 99.563206 97.5425 
L 100.070648 97.003142 
L 100.273625 97.06534 
L 100.375113 96.749467 
L 100.476601 96.914631 
L 100.57809 96.856076 
L 100.679578 97.398031 
L 100.781066 96.850418 
L 100.882555 96.98454 
L 101.085532 96.62418 
L 101.288508 96.794653 
L 101.389997 96.44181 
L 101.592973 96.743654 
L 101.694462 96.733424 
L 101.79595 96.936681 
L 101.998927 96.546946 
L 102.100415 96.420186 
L 102.201904 96.542916 
L 102.303392 96.403755 
L 102.40488 96.494049 
L 102.506369 96.217626 
L 102.709346 96.426697 
L 102.810834 96.235801 
L 102.912322 96.380659 
L 103.013811 96.144926 
L 103.115299 96.286567 
L 103.318276 95.911209 
L 103.419764 95.951008 
L 103.521253 96.157095 
L 103.622741 95.810724 
L 103.724229 96.093308 
L 103.927206 95.93326 
L 104.130183 95.817079 
L 104.231671 95.980925 
L 104.33316 95.362821 
L 104.434648 95.827271 
L 104.536136 95.537634 
L 104.637625 96.096796 
L 104.739113 95.381849 
L 104.840601 95.889043 
L 104.94209 95.458153 
L 105.043578 95.740775 
L 105.145067 95.347243 
L 105.55102 95.650598 
L 105.652508 95.675904 
L 105.753997 95.393087 
L 105.855485 95.435521 
L 105.956974 95.252958 
L 106.15995 95.404868 
L 106.261439 95.182544 
L 106.464415 95.337361 
L 106.565904 95.828318 
L 106.768881 95.383515 
L 106.971857 95.175879 
L 107.073346 95.405372 
L 107.276322 95.222382 
L 107.377811 95.096823 
L 107.479299 95.224242 
L 107.580788 95.786348 
L 107.885253 95.537363 
L 108.088229 95.577976 
L 108.189718 95.852305 
L 108.291206 95.783055 
L 108.392695 95.530775 
L 108.595671 96.188756 
L 108.798648 96.2029 
L 109.001625 96.145469 
L 109.204602 96.466496 
L 109.30609 96.224485 
L 109.407578 96.27095 
L 109.610555 96.69347 
L 109.712043 96.55861 
L 109.813532 96.688199 
L 109.91502 96.428828 
L 110.016509 96.562486 
L 110.219485 96.49029 
L 110.828416 96.591318 
L 110.929904 96.525826 
L 111.031392 96.650997 
L 111.132881 96.526911 
L 111.234369 96.710831 
L 111.640323 96.498505 
L 111.843299 96.789964 
L 112.046276 96.610694 
L 112.249253 96.739275 
L 112.350741 96.640572 
L 112.45223 96.728773 
L 112.756695 96.6515 
L 112.858183 96.63817 
L 113.06116 96.787793 
L 113.264137 96.875219 
L 113.365625 96.619956 
L 113.467113 96.762062 
L 113.568602 96.67948 
L 113.67009 96.925326 
L 113.771578 96.764193 
L 113.873067 96.825577 
L 113.974555 96.637782 
L 114.27902 96.983494 
L 114.380509 96.722224 
L 114.684974 97.092428 
L 114.786462 96.950903 
L 114.887951 96.730168 
L 114.989439 96.877816 
L 115.090927 96.800931 
L 115.192416 97.085995 
L 115.598369 96.687657 
L 115.801346 96.858594 
L 116.004323 96.479439 
L 116.207299 96.750242 
L 116.511765 96.250527 
L 116.613253 96.372637 
L 116.714741 96.28742 
L 116.81623 96.626079 
L 116.917718 96.015221 
L 117.019206 96.229485 
L 117.120695 95.981507 
L 117.222183 96.406817 
L 117.323672 96.094587 
L 117.42516 96.210535 
L 117.526648 95.820761 
L 117.831113 95.993946 
L 118.135579 95.64525 
L 118.237067 95.955 
L 118.338555 95.682453 
L 118.440044 95.804795 
L 118.541532 95.440171 
L 118.845997 95.577821 
L 119.048974 95.414168 
L 119.251951 95.505043 
L 119.353439 95.452572 
L 119.759393 94.719722 
L 119.962369 94.466977 
L 120.063858 94.301155 
L 120.165346 94.422024 
L 120.774276 93.477778 
L 120.875765 93.423098 
L 120.977253 92.850257 
L 121.078741 93.396165 
L 121.281718 92.630607 
L 121.383207 92.841848 
L 121.484695 92.317835 
L 121.586183 92.696525 
L 121.687672 92.015991 
L 121.890648 92.227076 
L 121.992137 91.390756 
L 122.093625 92.017425 
L 122.296602 91.293022 
L 122.39809 91.535148 
L 122.499579 90.936614 
L 122.601067 91.3658 
L 122.804044 90.627369 
L 122.905532 90.864147 
L 123.007021 90.129591 
L 123.108509 90.642095 
L 123.311486 89.805775 
L 123.412974 90.310876 
L 123.514462 89.57105 
L 123.615951 89.918312 
L 123.818928 89.253589 
L 123.920416 89.52819 
L 124.021904 88.836572 
L 124.123393 89.270291 
L 124.326369 88.496246 
L 124.427858 88.830139 
L 124.529346 88.368363 
L 124.630835 88.560847 
L 124.833811 87.917864 
L 124.9353 88.182621 
L 125.036788 87.412375 
L 125.138276 88.077563 
L 125.341253 87.308828 
L 125.442742 87.646634 
L 125.54423 87.070344 
L 125.645718 87.37525 
L 125.747207 86.817212 
L 125.848695 86.848137 
L 125.950183 87.107508 
L 126.051672 86.350359 
L 126.15316 86.960054 
L 126.356137 86.227785 
L 126.457625 86.560631 
L 126.559114 86.118774 
L 126.660602 86.19531 
L 126.863579 85.670212 
L 126.965067 86.108117 
L 127.066556 85.417119 
L 127.168044 85.869905 
L 127.371021 85.122599 
L 127.472509 85.647852 
L 127.573997 85.192276 
L 127.675486 85.319307 
L 127.878463 84.861562 
L 127.979951 85.263969 
L 128.081439 84.780414 
L 128.182928 85.147633 
L 128.385904 84.679579 
L 128.487393 84.98123 
L 128.69037 84.650631 
L 128.791858 84.536892 
L 128.893346 84.14491 
L 128.994835 84.626023 
L 129.2993 84.136035 
L 129.603765 84.234622 
L 129.806742 83.939288 
L 129.90823 83.908402 
L 130.111207 83.985094 
L 130.314184 83.595863 
L 130.415672 83.705029 
L 130.923114 83.369354 
L 131.024602 83.558311 
L 131.430556 83.103898 
L 131.633532 83.151796 
L 131.836509 82.868127 
L 131.937998 82.846658 
L 132.039486 83.207755 
L 132.242463 82.775819 
L 132.343951 82.762527 
L 132.445439 82.594766 
L 132.648416 82.752451 
L 132.851393 82.464868 
L 132.952881 82.472114 
L 133.05437 82.711489 
L 133.460323 82.354074 
L 133.561812 82.296371 
L 133.6633 82.37969 
L 133.764788 82.104623 
L 133.866277 82.170232 
L 133.967765 82.058469 
L 134.069253 82.307842 
L 134.373719 82.077225 
L 134.576695 81.987901 
L 134.678184 82.052734 
L 134.779672 81.764453 
L 134.88116 81.920471 
L 134.982649 81.817583 
L 135.084137 82.051455 
L 135.591579 81.713571 
L 135.693067 81.843663 
L 135.794556 81.451952 
L 136.099021 81.957325 
L 136.301998 81.660364 
L 136.606463 81.570225 
L 136.707951 81.703611 
L 136.910928 81.453386 
L 137.012416 81.438582 
L 137.113905 81.672067 
L 137.316881 81.359992 
L 137.621347 81.208934 
L 137.722835 81.556817 
L 137.824323 81.112867 
L 138.128788 81.623084 
L 138.331765 81.418199 
L 138.63623 81.390142 
L 138.737719 81.693575 
L 138.839207 81.205524 
L 139.143672 81.885477 
L 139.448137 81.578169 
L 139.549626 81.805918 
L 139.651114 81.696248 
L 139.752602 81.922796 
L 139.854091 81.726553 
L 139.955579 81.978794 
L 140.057068 81.914503 
L 140.158556 82.326947 
L 140.260044 82.0923 
L 140.361533 82.183795 
L 140.463021 82.102221 
L 140.767486 82.442004 
L 140.868975 82.256301 
L 141.680882 83.569666 
L 141.78237 83.624695 
L 141.883858 83.480031 
L 142.188323 84.498217 
L 142.289812 84.290426 
L 143.101719 85.57275 
L 143.203207 85.907805 
L 143.304696 85.850296 
L 143.812137 86.984158 
L 143.913626 86.842711 
L 144.218091 87.635202 
L 144.319579 87.56754 
L 144.827021 88.429902 
L 144.92851 88.345421 
L 145.232975 89.273004 
L 145.334463 89.216735 
L 145.435951 89.375582 
L 145.53744 89.817904 
L 145.638928 89.590349 
L 145.943393 90.416361 
L 147.059765 92.751244 
L 147.161254 92.814876 
L 147.262742 93.415425 
L 147.364231 93.359311 
L 147.465719 93.770244 
L 147.567207 93.571986 
L 147.871672 94.659965 
L 147.973161 94.480463 
L 148.886556 96.473471 
L 148.988044 96.437974 
L 149.393998 97.466003 
L 149.495486 97.536145 
L 149.90144 98.43788 
L 150.002928 98.487212 
L 150.205905 98.989872 
L 150.307393 99.548026 
L 150.408882 99.514233 
L 150.611858 99.952215 
L 151.728231 102.201378 
L 151.931207 102.4952 
L 152.235672 102.9059 
L 152.438649 103.678085 
L 152.743114 103.940479 
L 152.946091 104.414772 
L 153.047579 104.346529 
L 153.149068 104.40303 
L 153.453533 105.334023 
L 153.65651 105.333596 
L 153.960975 106.086017 
L 154.062463 105.867375 
L 154.26544 106.29873 
L 154.366928 106.871726 
L 154.468417 106.711872 
L 155.178835 107.544084 
L 155.381812 108.071507 
L 155.4833 108.016284 
L 155.584789 108.241321 
L 155.686277 108.036281 
L 155.889254 108.515651 
L 155.990742 108.560255 
L 156.396696 109.390568 
L 156.498184 109.320891 
L 156.599673 109.452921 
L 156.701161 109.323604 
L 156.802649 109.758098 
L 156.904138 109.577705 
L 157.005626 109.657845 
L 157.208603 110.242661 
L 157.310091 110.142369 
L 157.41158 110.200265 
L 157.513068 110.104701 
L 157.716045 110.607129 
L 157.817533 110.270136 
L 158.02051 110.67359 
L 158.121998 111.381019 
L 158.223487 110.998375 
L 158.426463 111.206942 
L 158.527952 111.263211 
L 158.62944 111.764166 
L 158.730928 111.565132 
L 158.933905 112.480236 
L 159.035394 112.376689 
L 159.441347 112.892758 
L 159.542835 113.246337 
L 159.644324 113.20181 
L 159.847301 113.572169 
L 159.948789 114.155163 
L 160.050277 114.117069 
L 160.151766 114.270878 
L 160.253254 114.128346 
L 160.557719 115.10278 
L 160.659208 114.786055 
L 160.963673 116.061597 
L 161.065161 115.781184 
L 161.166649 116.291323 
L 161.268138 115.889575 
L 161.471115 116.562591 
L 161.572603 116.98515 
L 161.674091 116.558328 
L 161.978556 117.776672 
L 162.181533 117.79442 
L 162.485998 118.353659 
L 162.688975 118.611287 
L 162.99344 119.650748 
L 163.094929 119.386029 
L 163.399394 119.999521 
L 163.500882 120.054008 
L 163.60237 120.48079 
L 163.703859 120.375073 
L 163.906836 120.923461 
L 164.008324 121.362722 
L 164.109812 121.026504 
L 164.312789 121.442436 
L 164.414277 121.456891 
L 164.617254 122.184665 
L 164.718743 121.949669 
L 164.921719 122.429 
L 165.023208 122.945068 
L 165.124696 122.775061 
L 165.327673 123.045903 
L 165.936603 124.095827 
L 166.13958 124.694632 
L 166.241068 124.509705 
L 166.647022 125.443527 
L 166.74851 125.086111 
L 167.052975 126.218424 
L 167.154464 125.90011 
L 167.458929 126.510464 
L 167.763394 126.770649 
L 167.864882 126.627651 
L 168.067859 127.10706 
L 168.169347 126.954956 
L 168.473812 127.160345 
L 168.575301 127.049009 
L 168.676789 127.352558 
L 168.778278 127.139573 
L 169.082743 127.762173 
L 169.184231 127.543686 
L 169.387208 127.728884 
L 169.590185 127.734697 
L 169.691673 128.116953 
L 169.793161 127.722916 
L 170.097626 128.584658 
L 170.199115 128.272428 
L 170.402092 128.325287 
L 170.50358 128.274172 
L 170.706557 128.733856 
L 170.808045 128.569002 
L 171.11251 129.25504 
L 171.213999 129.095185 
L 171.416975 129.181991 
L 171.72144 129.48988 
L 171.822929 129.375599 
L 172.025906 129.716467 
L 172.127394 130.139839 
L 172.228882 129.832105 
L 172.330371 129.991029 
L 172.431859 129.887715 
L 172.533347 130.182661 
L 172.634836 130.14011 
L 172.837813 130.281712 
L 172.939301 130.496169 
L 173.040789 130.33926 
L 173.142278 130.937407 
L 173.243766 130.724577 
L 173.64972 130.970424 
L 173.751208 131.177828 
L 173.852696 130.979259 
L 174.25865 131.540281 
L 174.563115 131.633752 
L 174.766092 131.924707 
L 174.86758 131.819842 
L 175.070557 132.145829 
L 175.172045 132.484915 
L 175.273534 132.268132 
L 175.780975 132.880075 
L 175.882464 132.563854 
L 176.186929 133.303447 
L 176.491394 133.227492 
L 177.100324 133.813548 
L 177.201813 134.2804 
L 177.303301 134.019905 
L 177.506278 134.342637 
L 177.607766 134.424328 
L 177.709255 134.346784 
L 177.810743 134.691643 
L 177.912231 134.622353 
L 178.115208 134.836229 
L 178.318185 135.232552 
L 178.419673 135.170587 
L 178.521162 135.330829 
L 178.62265 135.270723 
L 178.825627 135.689794 
L 178.927115 135.248518 
L 179.23158 136.191795 
L 179.434557 136.073096 
L 179.536045 136.172109 
L 179.637534 136.100843 
L 179.84051 136.363159 
L 179.941999 136.209002 
L 180.246464 136.946851 
L 180.550929 136.882987 
L 180.855394 137.060396 
L 180.956883 137.021838 
L 181.058371 137.521785 
L 181.159859 137.442342 
L 181.362836 137.632695 
L 181.565813 137.691405 
L 181.667301 137.573481 
L 181.870278 138.087457 
L 181.971766 137.905552 
L 182.174743 138.02615 
L 182.276231 138.415769 
L 182.37772 138.371165 
L 182.479208 138.230454 
L 182.580697 138.480137 
L 182.682185 138.353958 
L 182.783673 138.718001 
L 182.885162 138.67669 
L 183.088138 138.59221 
L 183.189627 138.747879 
L 183.291115 139.133428 
L 183.392604 138.968962 
L 183.494092 139.035346 
L 183.59558 138.930249 
L 183.697069 139.281502 
L 183.798557 139.182916 
L 183.900045 139.356566 
L 184.001534 139.194851 
L 184.610464 139.833146 
L 184.813441 139.694993 
L 185.016418 139.948667 
L 185.117906 139.837021 
L 185.219394 139.988117 
L 185.422371 140.425595 
L 185.523859 140.175564 
L 185.929813 140.385487 
L 186.031301 140.134525 
L 186.335766 140.859276 
L 186.437255 140.836606 
L 186.640232 140.626334 
L 186.944697 140.768169 
L 187.147673 140.895665 
L 187.35065 141.248042 
L 187.553627 141.090396 
L 187.756604 141.079274 
L 188.162557 141.340235 
L 188.264046 141.266178 
L 188.467022 141.426265 
L 188.568511 141.132869 
L 188.872976 141.754035 
L 188.974464 141.462073 
L 189.075953 141.518807 
L 189.278929 141.222659 
L 189.481906 141.647814 
L 189.583394 141.196114 
L 189.786371 141.730008 
L 189.88786 141.583523 
L 189.989348 141.665485 
L 190.192325 141.56593 
L 190.801255 141.714507 
L 190.902743 141.917222 
L 191.004232 141.651573 
L 191.10572 141.767908 
L 191.207208 141.548142 
L 191.308697 141.732682 
L 191.410185 141.681103 
L 191.511674 141.930669 
L 191.613162 141.642737 
L 191.816139 141.756903 
L 191.917627 142.076108 
L 192.120604 141.732527 
L 192.526557 141.906449 
L 192.628046 141.692496 
L 192.932511 141.879826 
L 193.135488 141.855102 
L 193.338464 141.786393 
L 193.439953 141.90083 
L 193.642929 141.821116 
L 194.150371 142.044912 
L 194.353348 141.884941 
L 194.556325 142.058127 
L 194.657813 141.85266 
L 194.962278 142.353422 
L 195.063767 142.084246 
L 195.165255 142.19783 
L 195.266743 141.97415 
L 195.46972 142.119007 
L 195.672697 142.125207 
L 195.774185 142.304051 
L 195.875674 142.1683 
L 195.977162 142.404032 
L 196.281627 142.197442 
L 196.484604 142.256695 
L 196.890557 142.246774 
L 196.992046 142.637904 
L 197.093534 142.31804 
L 197.195023 142.401165 
L 197.296511 142.310406 
L 197.499488 142.371403 
L 197.702464 142.391903 
L 198.108418 142.551021 
L 198.311395 142.44201 
L 198.920325 142.545673 
L 199.021813 142.779313 
L 199.123302 142.484134 
L 199.22479 142.721106 
L 199.326278 142.494946 
L 199.529255 142.566483 
L 199.630744 142.526839 
L 199.83372 142.635541 
L 200.239674 142.758813 
L 200.442651 142.632828 
L 200.950092 142.765362 
L 201.051581 142.984702 
L 201.153069 142.697002 
L 201.254558 142.779041 
L 201.356046 142.580861 
L 201.457534 142.814229 
L 201.660511 142.710372 
L 201.964976 142.789466 
L 202.066465 142.964473 
L 202.269441 142.721455 
L 202.573906 142.852245 
L 202.776883 142.709636 
L 202.97986 142.889758 
L 203.182837 142.921031 
L 203.385813 142.736142 
L 203.487302 142.924713 
L 203.791767 142.75424 
L 204.096232 142.946259 
L 204.299209 142.802603 
L 204.502186 142.85767 
L 204.705162 142.800045 
L 204.806651 142.720137 
L 205.111116 142.956722 
L 205.212604 142.943353 
L 205.314093 142.768384 
L 205.618558 142.910839 
L 205.821534 142.737537 
L 205.923023 142.847285 
L 206.024511 143.12828 
L 206.328976 142.847711 
L 206.937907 142.875535 
L 207.039395 143.018726 
L 207.34386 142.769663 
L 207.648325 142.929479 
L 207.749814 142.692701 
L 207.851302 142.88782 
L 207.95279 142.793341 
L 208.054279 143.031825 
L 208.155767 142.830001 
L 208.257255 142.950677 
L 208.460232 142.736724 
L 208.663209 142.92417 
L 208.866186 142.717774 
L 208.967674 142.816128 
L 209.069162 143.156221 
L 209.170651 142.78094 
L 209.272139 142.840774 
L 209.475116 142.78156 
L 209.678093 142.971564 
L 209.779581 142.59237 
L 210.084046 143.122661 
L 210.185535 142.767183 
L 210.287023 142.853369 
L 210.388511 142.644144 
L 210.692976 142.926108 
L 210.794465 142.540713 
L 210.997442 142.807912 
L 211.09893 142.957691 
L 211.301907 142.783149 
L 211.403395 142.705993 
L 211.504883 142.805238 
L 211.606372 142.688205 
L 211.809349 142.795356 
L 212.012325 142.699521 
L 212.113814 142.725563 
L 212.215302 142.634959 
L 212.31679 142.88658 
L 212.418279 142.579078 
L 212.722744 142.941647 
L 212.925721 142.748892 
L 213.027209 142.594385 
L 213.331674 142.891385 
L 213.433163 142.477469 
L 213.737628 142.897663 
L 213.839116 142.699172 
L 213.940604 142.802991 
L 214.042093 142.60667 
L 214.346558 142.88751 
L 214.448046 142.351368 
L 214.549535 142.794542 
L 214.651023 142.644609 
L 214.752511 142.966565 
L 215.056977 142.505332 
L 215.158465 142.750365 
L 215.259953 142.599733 
L 215.361442 142.709054 
L 215.46293 142.605585 
L 215.767395 142.817445 
L 215.868884 142.691848 
L 215.970372 142.765246 
L 216.07186 142.544201 
L 216.274837 142.649336 
L 216.782279 142.854144 
L 216.985256 142.561213 
L 217.086744 142.746567 
L 217.188232 142.600121 
L 217.289721 142.679292 
L 217.492698 142.519709 
L 217.797163 142.675688 
L 218.000139 142.633177 
L 218.101628 142.703513 
L 218.203116 142.504247 
L 218.507581 142.604538 
L 218.812046 142.596478 
L 218.913535 142.411279 
L 219.218 142.721959 
L 219.420977 142.574195 
L 220.029907 142.592641 
L 220.232884 142.705644 
L 220.43586 142.488358 
L 220.740326 142.6076 
L 220.841814 142.274134 
L 221.146279 142.835698 
L 221.247767 142.43081 
L 221.349256 142.565941 
L 221.552233 142.416705 
L 221.755209 142.595548 
L 221.958186 142.589657 
L 222.059674 142.613917 
L 222.161163 142.872551 
L 222.465628 142.408567 
L 222.668605 142.437708 
L 222.770093 142.394422 
L 222.871581 142.185545 
L 223.074558 142.222128 
L 223.176047 141.890057 
L 223.277535 142.047663 
L 223.379023 141.924779 
L 223.480512 142.190389 
L 223.582 141.816969 
L 223.683488 141.861108 
L 223.987954 141.56717 
L 224.089442 141.716174 
L 224.19093 141.369454 
L 224.292419 141.476721 
L 224.393907 141.34597 
L 224.495395 141.582748 
L 224.799861 141.012736 
L 224.901349 141.226263 
L 225.104326 140.986811 
L 225.307302 140.897331 
L 225.713256 140.651097 
L 225.814744 140.547434 
L 225.916233 140.623699 
L 226.626651 139.985482 
L 226.829628 140.200443 
L 227.032605 139.900304 
L 227.33707 139.717973 
L 227.438558 139.721616 
L 227.540047 139.284254 
L 227.641535 139.562807 
L 227.743023 139.296887 
L 227.844512 139.555018 
L 228.047489 139.192449 
L 228.250465 138.939743 
L 228.55493 138.692656 
L 228.859396 138.825616 
L 229.062372 138.567912 
L 229.366837 138.54373 
L 229.468326 138.512534 
L 229.569814 138.352718 
L 229.772791 138.577406 
L 230.077256 138.309083 
L 230.280233 138.290133 
L 230.381721 138.370622 
L 230.48321 138.017508 
L 230.787675 138.315206 
L 231.09214 137.98143 
L 231.193628 138.097029 
L 231.295117 137.948994 
L 231.396605 138.116638 
L 231.498093 137.751898 
L 231.802558 138.157793 
L 232.107024 137.632424 
L 232.208512 137.725352 
L 232.512977 137.645367 
L 232.614465 137.661294 
L 232.715954 137.557709 
L 232.817442 137.684197 
L 233.020419 137.372394 
L 233.324884 137.405178 
L 233.527861 137.128058 
L 233.730838 137.360729 
L 234.035303 137.126198 
L 234.339768 137.12802 
L 234.441256 136.847993 
L 234.644233 136.975993 
L 234.745721 137.307599 
L 234.948698 136.896589 
L 235.050186 136.720614 
L 235.354652 136.915268 
L 235.45614 136.592846 
L 235.760605 136.934102 
L 235.963582 136.742741 
L 236.06507 136.563472 
L 236.268047 136.714026 
L 236.471024 136.529253 
L 236.674 136.700307 
L 236.775489 136.741617 
L 237.079954 136.582887 
L 237.587396 136.488253 
L 237.688884 136.84718 
L 237.891861 136.549986 
L 237.993349 136.651208 
L 238.196326 136.527587 
L 238.297814 136.603581 
L 238.399303 136.417142 
L 238.60228 136.5365 
L 238.703768 136.875314 
L 238.805256 136.59986 
L 238.906745 136.688488 
L 239.008233 136.393464 
L 239.21121 136.574632 
L 239.414187 136.50294 
L 239.617163 136.705229 
L 240.124605 136.599047 
L 240.226094 136.700152 
L 240.530559 136.497747 
L 240.632047 136.89314 
L 240.733535 136.676862 
L 240.936512 136.778122 
L 241.038001 136.59366 
L 241.139489 136.659539 
L 241.240977 136.877988 
L 241.443954 136.595714 
L 241.545442 136.718482 
L 241.646931 137.106512 
L 241.849908 136.819626 
L 241.951396 136.667522 
L 242.052884 136.779983 
L 242.154373 136.693913 
L 242.255861 136.863533 
L 242.357349 136.785253 
L 242.560326 136.983899 
L 242.763303 136.88787 
L 242.864791 136.94565 
L 242.96628 136.737277 
L 243.169256 136.946541 
L 243.270745 136.958593 
L 243.372233 136.797925 
L 243.676698 137.050398 
L 243.778187 136.913175 
L 243.879675 137.060048 
L 244.082652 136.994556 
L 244.18414 137.068534 
L 244.285629 136.756382 
L 244.590094 137.305235 
L 244.79307 136.994633 
L 244.894559 136.903022 
L 245.199024 137.240092 
L 245.300512 136.875663 
L 245.402001 137.100234 
L 245.503489 136.942356 
L 245.604977 137.284231 
L 245.706466 137.041446 
L 245.807954 137.110077 
L 245.909443 136.999322 
L 246.112419 137.140188 
L 246.315396 136.994091 
L 246.72135 137.195294 
L 246.924326 136.974288 
L 247.025815 137.163517 
L 247.228791 137.011646 
L 247.736233 137.144683 
L 248.243675 137.037494 
L 248.649629 137.183203 
L 248.954094 137.008158 
L 249.157071 137.115968 
L 249.258559 136.937589 
L 249.461536 137.036951 
L 249.563024 137.204672 
L 249.664512 137.047376 
L 249.766001 137.107055 
L 249.867489 136.981109 
L 250.070466 137.003004 
L 250.171954 136.865199 
L 250.577908 137.196612 
L 250.679396 136.914415 
L 250.882373 136.941852 
L 251.389815 136.796181 
L 251.491303 137.141351 
L 251.795768 136.805792 
L 251.897257 136.96212 
L 251.998745 136.86613 
L 252.100233 136.995796 
L 252.201722 136.696432 
L 252.30321 136.863456 
L 252.404699 136.720846 
L 252.506187 137.117789 
L 252.810652 136.703989 
L 252.91214 136.752391 
L 253.013629 136.948518 
L 253.115117 136.548707 
L 253.318094 136.880236 
L 253.622559 136.810132 
L 253.825536 136.620826 
L 254.028513 136.860394 
L 254.130001 136.543669 
L 254.231489 136.6564 
L 254.332978 136.567618 
L 254.434466 136.918794 
L 254.637443 136.652913 
L 255.043396 136.688023 
L 255.144885 136.383117 
L 255.246373 136.621601 
L 255.347861 136.526695 
L 255.44935 136.737897 
L 255.753815 136.305767 
L 255.855303 136.600674 
L 256.159768 136.381761 
L 256.362745 136.480967 
L 256.565722 136.51631 
L 256.66721 136.261899 
L 256.870187 136.363004 
L 256.971675 136.382536 
L 257.073164 136.200476 
L 257.276141 136.231013 
L 257.377629 136.711313 
L 257.580606 136.229347 
L 258.088048 136.145021 
L 258.189536 136.079684 
L 258.392513 136.248723 
L 258.494001 136.097975 
L 258.595489 136.180325 
L 258.798466 136.123203 
L 259.001443 136.045156 
L 259.102931 135.895842 
L 259.305908 136.230393 
L 259.508885 135.978191 
L 259.81335 135.786559 
L 259.914838 136.018687 
L 260.219303 135.839922 
L 260.320792 136.101502 
L 260.42228 135.812407 
L 260.523769 135.925061 
L 260.625257 135.674177 
L 260.726745 135.879023 
L 261.132699 135.67189 
L 261.437164 135.791713 
L 261.640141 135.59485 
L 261.944606 135.429764 
L 262.046094 135.646507 
L 262.147583 135.548967 
L 262.249071 135.677277 
L 262.655024 135.42833 
L 262.756513 135.599888 
L 262.858001 135.289015 
L 263.060978 135.420851 
L 263.162466 135.482119 
L 263.56842 135.277893 
L 263.771397 135.394267 
L 263.872885 135.081727 
L 264.17735 135.529436 
L 264.380327 135.224181 
L 264.583304 135.130245 
L 264.887769 135.004493 
L 264.989257 135.211393 
L 265.090745 135.069946 
L 265.192234 135.241736 
L 265.496699 134.930514 
L 265.699676 135.191784 
L 265.902652 134.900985 
L 266.308606 135.074558 
L 266.410094 134.805731 
L 266.714559 135.045764 
L 266.816048 134.565271 
L 267.019025 135.014259 
L 267.120513 135.042199 
L 267.222001 134.763994 
L 267.32349 135.058979 
L 267.526466 134.814721 
L 267.627955 134.864286 
L 267.830932 134.680289 
L 267.93242 135.196667 
L 268.033908 134.74954 
L 268.135397 134.855179 
L 268.338373 134.680134 
L 268.54135 134.806545 
L 268.642839 134.778178 
L 268.744327 135.0484 
L 268.947304 134.709857 
L 269.048792 134.760545 
L 269.15028 134.643977 
L 269.251769 134.869634 
L 269.454746 134.660951 
L 269.556234 134.679087 
L 269.657722 134.920632 
L 269.759211 134.70757 
L 269.860699 134.820573 
L 269.962187 134.656495 
L 270.165164 134.739193 
L 270.266653 134.542949 
L 270.368141 134.710864 
L 270.469629 134.601776 
L 270.672606 134.953301 
L 270.875583 134.607472 
L 270.977071 134.542097 
L 271.180048 134.700672 
L 271.383025 134.561667 
L 271.586001 134.80825 
L 271.890467 134.446223 
L 271.991955 134.673623 
L 272.093443 134.621578 
L 272.194932 134.329035 
L 272.29642 134.914703 
L 272.397908 134.513342 
L 272.499397 134.623322 
L 272.600885 134.479008 
L 272.702374 134.602861 
L 273.006839 134.414833 
L 273.311304 134.617897 
L 273.717257 134.406773 
L 273.818746 134.545933 
L 273.920234 134.313573 
L 274.224699 134.626539 
L 274.529164 134.267535 
L 274.630653 134.502492 
L 274.935118 134.325935 
L 275.138095 134.396232 
L 275.239583 134.618749 
L 275.44256 134.322292 
L 275.544048 134.232618 
L 275.645536 134.382242 
L 275.747025 134.333918 
L 275.848513 134.13659 
L 276.152978 134.521209 
L 276.254467 134.214366 
L 276.355955 134.276719 
L 276.457443 134.133916 
L 276.558932 134.31427 
L 276.964885 134.0766 
L 277.066374 134.350891 
L 277.26935 134.146704 
L 277.573816 134.291832 
L 277.675304 134.051373 
L 277.878281 134.161662 
L 277.979769 134.076755 
L 278.081257 134.196734 
L 278.182746 133.900199 
L 278.487211 134.352945 
L 278.690188 134.03591 
L 278.994653 133.903144 
L 279.19763 134.022773 
L 279.299118 133.92066 
L 279.502095 134.116438 
L 279.705071 133.882837 
L 279.908048 133.96414 
L 280.009537 134.006807 
L 280.111025 133.714109 
L 280.41549 134.121747 
L 280.618467 133.808704 
L 280.719955 133.763557 
L 280.821444 133.881752 
L 281.02442 133.693105 
L 281.430374 133.737476 
L 281.633351 133.653228 
L 281.734839 133.816958 
L 282.039304 133.616956 
L 282.242281 133.655786 
L 282.343769 133.844627 
L 282.546746 133.549759 
L 282.851211 133.622342 
L 282.952699 133.30833 
L 283.054188 133.517362 
L 283.155676 133.470742 
L 283.257165 133.660281 
L 283.358653 133.481205 
L 283.460141 133.609515 
L 283.663118 133.369365 
L 283.764606 133.464813 
L 283.967583 133.290388 
L 284.17056 133.523717 
L 284.475025 133.203892 
L 284.77949 133.394826 
L 284.880979 132.989357 
L 285.083955 133.221795 
L 285.286932 133.303215 
L 285.591397 133.098562 
L 285.692886 133.234778 
L 285.794374 132.955642 
L 285.997351 133.193777 
L 286.098839 133.36084 
L 286.200327 132.978623 
L 286.301816 133.148514 
L 286.403304 132.810708 
L 286.606281 133.069846 
L 286.707769 132.890538 
L 286.910746 133.008462 
L 287.519676 132.804314 
L 287.621165 133.043921 
L 287.722653 132.562071 
L 287.824141 132.866473 
L 287.92563 132.734908 
L 288.027118 133.124914 
L 288.128607 132.771335 
L 288.230095 132.852367 
L 288.331583 132.6264 
L 288.53456 132.818846 
L 288.737537 132.567845 
L 288.940514 132.842717 
L 289.14349 132.658836 
L 289.549444 132.611287 
L 289.650932 132.423104 
L 289.853909 132.665192 
L 290.056886 132.553313 
L 290.158374 132.426631 
L 290.361351 132.562846 
L 290.462839 132.507469 
L 290.564328 132.290376 
L 290.868793 132.606288 
L 291.274746 132.307621 
L 291.579211 132.292198 
L 291.6807 132.278131 
L 291.782188 132.476079 
L 292.086653 132.155634 
L 292.28963 132.253484 
L 292.391118 132.238758 
L 292.492607 132.058365 
L 292.797072 132.339515 
L 293.101537 132.042011 
L 293.304514 132.072858 
L 293.406002 131.949315 
L 293.50749 132.101109 
L 293.608979 132.026742 
L 293.710467 132.203299 
L 294.014932 131.842823 
L 294.116421 132.116842 
L 294.319397 131.893046 
L 294.522374 131.83701 
L 294.623862 132.141876 
L 294.725351 132.0958 
L 294.928328 131.817091 
L 295.029816 131.778067 
L 295.232793 131.868709 
L 295.334281 131.6124 
L 295.537258 131.847434 
L 295.638746 131.934783 
L 295.841723 131.674636 
L 295.943211 131.817478 
L 296.450653 131.57481 
L 296.552142 131.977953 
L 296.755118 131.589381 
L 296.856607 131.626118 
L 297.161072 131.427472 
L 297.364049 131.438207 
L 297.465537 131.754428 
L 297.668514 131.497382 
L 297.87149 131.346363 
L 298.074467 131.421427 
L 298.277444 131.3154 
L 298.378932 131.499513 
L 298.581909 131.292148 
L 298.683397 131.416583 
L 298.886374 131.200033 
L 298.987863 131.334311 
L 299.089351 130.976353 
L 299.292328 131.267811 
L 299.393816 131.439989 
L 299.596793 131.139269 
L 299.79977 131.129465 
L 299.901258 131.324003 
L 300.104235 130.96682 
L 300.307211 131.348456 
L 300.4087 131.012819 
L 300.510188 131.118885 
L 300.611677 130.964998 
L 300.814653 130.986312 
L 301.01763 130.755192 
L 301.220607 131.163141 
L 301.423584 130.895825 
L 301.62656 130.829209 
L 301.728049 130.895593 
L 302.032514 130.751743 
L 302.134002 130.919464 
L 302.235491 130.775576 
L 302.336979 130.970385 
L 302.539956 130.651102 
L 302.742932 130.737094 
L 302.844421 130.498805 
L 303.047398 130.734343 
L 303.148886 130.829403 
L 303.351863 130.539107 
L 303.453351 130.672494 
L 303.960793 130.442613 
L 304.062281 130.87486 
L 304.16377 130.528412 
L 304.265258 130.563754 
L 304.366746 130.301438 
L 304.569723 130.460129 
L 304.874188 130.351816 
L 304.975677 130.616302 
L 305.178653 130.293881 
L 305.280142 130.398397 
L 305.686095 130.193899 
L 305.787584 130.171461 
L 305.889072 130.469973 
L 306.295026 130.134995 
L 306.396514 130.128175 
L 306.498002 130.260747 
L 306.599491 130.006646 
L 306.802467 130.116549 
L 307.005444 129.968436 
L 307.106933 130.133639 
L 307.208421 130.072797 
L 307.309909 130.173011 
L 307.512886 129.935419 
L 307.817351 130.133677 
L 307.91884 129.726349 
L 308.020328 129.902828 
L 308.121816 129.831136 
L 308.223305 130.183513 
L 308.426281 129.813658 
L 308.730747 129.912168 
L 308.832235 129.662058 
L 309.1367 130.009514 
L 309.238188 129.638148 
L 309.339677 129.812031 
L 309.542654 129.698563 
L 309.644142 129.693564 
L 309.74563 129.537701 
L 309.948607 129.631986 
L 310.050095 129.935148 
L 310.253072 129.536849 
L 310.659026 129.591528 
L 310.862002 129.427915 
L 310.963491 129.788779 
L 311.064979 129.46225 
L 311.267956 129.524331 
L 311.572421 129.296582 
L 311.775398 129.433418 
L 311.876886 129.568432 
L 312.181351 129.250428 
L 312.587305 129.226866 
L 312.688793 129.211482 
L 312.89177 129.309875 
L 312.993258 129.324329 
L 313.196235 129.08166 
L 313.399212 129.196213 
L 313.5007 128.983461 
L 313.703677 129.16525 
L 314.008142 129.109562 
L 314.211119 129.049069 
L 314.312607 129.063253 
L 314.515584 128.877705 
L 314.718561 129.211869 
L 314.921537 128.824421 
L 315.023026 128.963814 
L 315.124514 128.885301 
L 315.226003 128.954358 
L 315.327491 128.730794 
L 315.631956 128.988577 
L 315.834933 128.828955 
L 316.443863 128.726686 
L 316.545351 128.977571 
L 316.748328 128.727888 
L 316.951305 128.579 
L 317.052793 128.857399 
L 317.25577 128.518352 
L 317.357258 128.603337 
L 317.458747 128.842324 
L 317.763212 128.366714 
L 317.8647 128.566754 
L 318.169165 128.490296 
L 318.270654 128.496884 
L 318.372142 128.697002 
L 318.575119 128.472276 
L 318.778096 128.392058 
L 318.879584 128.46871 
L 319.184049 128.287309 
L 319.285538 128.752612 
L 319.387026 128.347027 
L 319.488514 128.436468 
L 319.691491 128.241698 
L 319.894468 128.374697 
L 320.097445 128.140011 
L 320.198933 128.622636 
L 320.300421 128.201162 
L 320.40191 128.326798 
L 320.604886 128.117108 
L 320.807863 128.230537 
L 320.909352 128.028946 
L 321.112328 128.411783 
L 321.315305 128.152218 
L 321.61977 128.190854 
L 321.822747 128.053515 
L 321.924235 128.230731 
L 322.025724 128.1478 
L 322.127212 127.892149 
L 322.2287 128.095872 
L 322.330189 128.046074 
L 322.431677 128.245495 
L 322.939119 127.991627 
L 323.243584 127.929042 
L 323.345073 128.222283 
L 323.548049 127.906991 
L 323.751026 128.017204 
L 323.954003 127.769768 
L 324.15698 127.962369 
L 324.258468 128.145591 
L 324.461445 127.818868 
L 324.562933 127.776976 
L 324.76591 127.931715 
L 325.171863 127.707532 
L 325.37484 127.899706 
L 325.476328 127.516636 
L 325.679305 127.759499 
L 325.780794 127.920787 
L 326.288235 127.567673 
L 326.389724 127.135388 
L 326.592701 127.379181 
L 326.795677 126.544953 
L 326.897166 126.731935 
L 327.100142 126.231716 
L 327.201631 126.221214 
L 327.810561 125.125949 
L 327.912049 125.339825 
L 328.013538 124.700252 
L 328.216515 124.777408 
L 328.419491 124.246226 
L 328.723956 123.833162 
L 328.825445 123.977632 
L 329.028422 123.239162 
L 329.12991 123.283999 
L 329.332887 122.624429 
L 329.434375 122.723016 
L 329.535863 122.654656 
L 329.637352 122.163816 
L 329.73884 122.471357 
L 330.246282 121.285449 
L 330.34777 121.234373 
L 330.449259 121.467199 
L 330.550747 120.713228 
L 330.652236 120.75915 
L 330.753724 120.715825 
L 331.058189 120.179682 
L 331.159677 120.137829 
L 331.261166 119.593665 
L 331.362654 119.800798 
L 331.464143 119.658072 
L 331.565631 119.137005 
L 331.667119 119.265314 
L 331.768608 119.211177 
L 331.870096 118.644846 
L 332.073073 118.815668 
L 332.27605 118.139241 
L 332.377538 118.085259 
L 332.580515 117.766635 
L 332.682003 117.711064 
L 332.88498 116.95965 
L 332.986468 117.272539 
L 333.189445 116.422811 
L 333.290933 116.581812 
L 333.392422 116.646607 
L 333.49391 116.017187 
L 333.696887 116.083144 
L 333.899864 115.44299 
L 334.001352 115.384241 
L 334.204329 115.098673 
L 334.305817 115.182533 
L 334.508794 114.284054 
L 334.610282 114.603569 
L 334.813259 113.834911 
L 334.914747 113.936172 
L 335.016236 113.844909 
L 335.117724 113.389179 
L 335.320701 113.433822 
L 335.422189 112.826375 
L 335.523678 112.85385 
L 335.625166 112.75941 
L 335.828143 112.296898 
L 335.929631 112.307167 
L 336.132608 111.68387 
L 336.234096 111.777031 
L 336.335585 111.549399 
L 336.437073 111.001514 
L 336.538561 111.194386 
L 336.64005 111.055148 
L 336.741538 110.564695 
L 336.944515 110.625614 
L 337.147492 109.879704 
L 337.24898 109.936244 
L 337.451957 109.553135 
L 337.654933 109.180568 
L 337.756422 108.814317 
L 337.85791 108.89066 
L 337.959399 108.727705 
L 338.060887 108.212799 
L 338.162375 108.25938 
L 338.263864 108.191291 
L 338.46684 107.715758 
L 338.568329 107.814926 
L 338.771306 107.100173 
L 338.872794 107.15245 
L 339.075771 106.575269 
L 339.177259 106.608208 
L 339.380236 106.134884 
L 339.481724 106.152206 
L 339.684701 105.399592 
L 339.786189 105.469424 
L 339.989166 104.882865 
L 340.090654 104.938126 
L 340.192143 104.766142 
L 340.39512 104.319828 
L 340.496608 104.323238 
L 340.699585 103.519548 
L 340.801073 103.688471 
L 341.00405 103.221618 
L 341.105538 103.152406 
L 341.308515 102.440598 
L 341.410003 102.608048 
L 341.917445 101.529563 
L 342.120422 101.386721 
L 342.323399 100.676502 
L 342.424887 100.72657 
L 342.729352 100.107884 
L 342.830841 100.082812 
L 342.932329 99.55907 
L 343.033817 99.5805 
L 343.135306 99.545507 
L 343.338282 98.848231 
L 343.439771 98.871792 
L 343.642748 98.443034 
L 343.744236 98.441871 
L 343.947213 97.700107 
L 344.048701 97.769707 
L 344.657631 96.577638 
L 344.75912 96.534739 
L 344.962096 95.768561 
L 345.063585 95.886718 
L 345.266562 95.147589 
L 345.36805 95.18921 
L 345.469538 95.087561 
L 345.672515 94.60916 
L 345.774003 94.606913 
L 345.97698 93.834535 
L 346.078469 93.929556 
L 346.281445 93.343772 
L 346.382934 93.342803 
L 346.484422 93.12354 
L 346.58591 92.602008 
L 346.687399 92.719816 
L 346.890376 92.16577 
L 346.991864 91.889812 
L 347.093352 91.947631 
L 347.296329 91.522128 
L 347.397817 91.46954 
L 347.600794 90.684684 
L 347.702283 90.829502 
L 347.905259 90.076074 
L 348.006748 90.132188 
L 348.108236 90.015426 
L 348.311213 89.564191 
L 348.412701 89.573569 
L 348.615678 88.775459 
L 348.717166 88.854786 
L 349.326097 87.625591 
L 349.427585 87.633458 
L 349.630562 86.835348 
L 349.73205 86.930486 
L 349.935027 86.359737 
L 350.036515 86.376982 
L 350.34098 85.720513 
L 350.442469 85.665523 
L 350.645445 84.951894 
L 350.746934 84.978905 
L 350.949911 84.527359 
L 351.152887 84.196489 
L 351.254376 83.754632 
L 351.355864 83.869262 
L 351.457352 83.707276 
L 351.660329 83.108432 
L 351.761818 83.106921 
L 351.964794 82.616778 
L 352.066283 82.543226 
L 352.269259 81.884199 
L 352.370748 81.933414 
L 352.472236 81.784449 
L 352.675213 81.182311 
L 352.776701 81.21467 
L 352.979678 80.726232 
L 353.081166 80.733789 
L 353.284143 80.052867 
L 353.385632 80.065655 
L 353.994562 78.799801 
L 354.09605 78.866107 
L 354.299027 78.100975 
L 354.400515 78.187471 
L 354.502004 77.986577 
L 354.603492 77.507789 
L 354.70498 77.557315 
L 356.227306 74.784682 
L 356.328794 74.729459 
L 356.531771 74.039353 
L 356.63326 74.114998 
L 356.937725 73.460544 
L 357.039213 73.324677 
L 357.140701 72.950288 
L 357.24219 72.992374 
L 357.343678 72.930292 
L 357.546655 72.180817 
L 357.648143 72.289828 
L 358.257074 71.099115 
L 358.358562 71.108571 
L 358.561539 70.311042 
L 358.663027 70.475353 
L 359.170469 69.341839 
L 359.373446 69.309054 
L 359.576422 68.488235 
L 359.677911 68.655763 
L 360.083864 67.718841 
L 360.489818 67.089034 
L 360.692795 66.671823 
L 360.794283 66.621832 
L 361.098748 65.915915 
L 361.301725 65.671928 
L 362.21512 64.050519 
L 362.82405 63.002649 
L 362.925539 62.903907 
L 363.331492 62.076229 
L 363.432981 62.054992 
L 363.635957 61.54679 
L 363.940423 61.198482 
L 364.143399 60.679585 
L 364.447864 60.360883 
L 364.650841 59.843071 
L 364.75233 59.812999 
L 365.158283 58.971292 
L 365.259771 59.040737 
L 365.564237 58.211121 
L 365.665725 58.178879 
L 365.97019 57.780889 
L 366.173167 57.365151 
L 366.57912 56.645825 
L 366.782097 56.38378 
L 367.289539 55.468366 
L 367.391027 55.428529 
L 367.594004 54.977913 
L 367.796981 54.70525 
L 368.608888 53.212344 
L 368.913353 52.713443 
L 369.014841 52.343588 
L 369.11633 52.41125 
L 369.72526 51.191938 
L 369.826748 51.141017 
L 370.131213 50.573679 
L 370.33419 50.152361 
L 370.638655 49.618195 
L 370.740144 49.522786 
L 371.044609 48.90941 
L 371.653539 47.76706 
L 371.755027 47.765975 
L 371.958004 47.177633 
L 372.059493 47.178253 
L 373.378841 44.703046 
L 373.581818 44.443636 
L 373.581818 44.443636 
" style="fill:none;stroke:#081d58;stroke-dasharray:5.55,2.4;stroke-dashoffset:0;stroke-width:1.5;"/>
    <defs>
     <path d="M -0 4.242641 
L 4.242641 0 
L 0 -4.242641 
L -4.242641 -0 
z
" id="m6dfc58e668" style="stroke:#081d58;stroke-linejoin:miter;"/>
    </defs>
    <g clip-path="url(#p55ed9c2f60)">
     <use style="fill:#081d58;stroke:#081d58;stroke-linejoin:miter;" x="69.218182" xlink:href="#m6dfc58e668" y="108.617027"/>
     <use style="fill:#081d58;stroke:#081d58;stroke-linejoin:miter;" x="77.337252" xlink:href="#m6dfc58e668" y="107.96393"/>
     <use style="fill:#081d58;stroke:#081d58;stroke-linejoin:miter;" x="85.456322" xlink:href="#m6dfc58e668" y="100.505137"/>
     <use style="fill:#081d58;stroke:#081d58;stroke-linejoin:miter;" x="93.575392" xlink:href="#m6dfc58e668" y="96.893666"/>
     <use style="fill:#081d58;stroke:#081d58;stroke-linejoin:miter;" x="101.694462" xlink:href="#m6dfc58e668" y="96.733424"/>
     <use style="fill:#081d58;stroke:#081d58;stroke-linejoin:miter;" x="109.813532" xlink:href="#m6dfc58e668" y="96.688199"/>
     <use style="fill:#081d58;stroke:#081d58;stroke-linejoin:miter;" x="117.932602" xlink:href="#m6dfc58e668" y="95.899196"/>
     <use style="fill:#081d58;stroke:#081d58;stroke-linejoin:miter;" x="126.051672" xlink:href="#m6dfc58e668" y="86.350359"/>
     <use style="fill:#081d58;stroke:#081d58;stroke-linejoin:miter;" x="134.170742" xlink:href="#m6dfc58e668" y="82.174804"/>
     <use style="fill:#081d58;stroke:#081d58;stroke-linejoin:miter;" x="142.289812" xlink:href="#m6dfc58e668" y="84.290426"/>
     <use style="fill:#081d58;stroke:#081d58;stroke-linejoin:miter;" x="150.408882" xlink:href="#m6dfc58e668" y="99.514233"/>
     <use style="fill:#081d58;stroke:#081d58;stroke-linejoin:miter;" x="158.527952" xlink:href="#m6dfc58e668" y="111.263211"/>
     <use style="fill:#081d58;stroke:#081d58;stroke-linejoin:miter;" x="166.647022" xlink:href="#m6dfc58e668" y="125.443527"/>
     <use style="fill:#081d58;stroke:#081d58;stroke-linejoin:miter;" x="174.766092" xlink:href="#m6dfc58e668" y="131.924707"/>
     <use style="fill:#081d58;stroke:#081d58;stroke-linejoin:miter;" x="182.885162" xlink:href="#m6dfc58e668" y="138.67669"/>
     <use style="fill:#081d58;stroke:#081d58;stroke-linejoin:miter;" x="191.004232" xlink:href="#m6dfc58e668" y="141.651573"/>
     <use style="fill:#081d58;stroke:#081d58;stroke-linejoin:miter;" x="199.123302" xlink:href="#m6dfc58e668" y="142.484134"/>
     <use style="fill:#081d58;stroke:#081d58;stroke-linejoin:miter;" x="207.242372" xlink:href="#m6dfc58e668" y="142.885999"/>
     <use style="fill:#081d58;stroke:#081d58;stroke-linejoin:miter;" x="215.361442" xlink:href="#m6dfc58e668" y="142.709054"/>
     <use style="fill:#081d58;stroke:#081d58;stroke-linejoin:miter;" x="223.480512" xlink:href="#m6dfc58e668" y="142.190389"/>
     <use style="fill:#081d58;stroke:#081d58;stroke-linejoin:miter;" x="231.599582" xlink:href="#m6dfc58e668" y="137.920782"/>
     <use style="fill:#081d58;stroke:#081d58;stroke-linejoin:miter;" x="239.718652" xlink:href="#m6dfc58e668" y="136.669189"/>
     <use style="fill:#081d58;stroke:#081d58;stroke-linejoin:miter;" x="247.837722" xlink:href="#m6dfc58e668" y="137.10066"/>
     <use style="fill:#081d58;stroke:#081d58;stroke-linejoin:miter;" x="255.956792" xlink:href="#m6dfc58e668" y="136.518906"/>
     <use style="fill:#081d58;stroke:#081d58;stroke-linejoin:miter;" x="264.075862" xlink:href="#m6dfc58e668" y="135.257547"/>
     <use style="fill:#081d58;stroke:#081d58;stroke-linejoin:miter;" x="272.194932" xlink:href="#m6dfc58e668" y="134.329035"/>
     <use style="fill:#081d58;stroke:#081d58;stroke-linejoin:miter;" x="280.314002" xlink:href="#m6dfc58e668" y="133.88772"/>
     <use style="fill:#081d58;stroke:#081d58;stroke-linejoin:miter;" x="288.433072" xlink:href="#m6dfc58e668" y="132.774668"/>
     <use style="fill:#081d58;stroke:#081d58;stroke-linejoin:miter;" x="296.552142" xlink:href="#m6dfc58e668" y="131.977953"/>
     <use style="fill:#081d58;stroke:#081d58;stroke-linejoin:miter;" x="304.671212" xlink:href="#m6dfc58e668" y="130.394018"/>
     <use style="fill:#081d58;stroke:#081d58;stroke-linejoin:miter;" x="312.790282" xlink:href="#m6dfc58e668" y="129.337699"/>
     <use style="fill:#081d58;stroke:#081d58;stroke-linejoin:miter;" x="320.909352" xlink:href="#m6dfc58e668" y="128.028946"/>
     <use style="fill:#081d58;stroke:#081d58;stroke-linejoin:miter;" x="329.028422" xlink:href="#m6dfc58e668" y="123.239162"/>
     <use style="fill:#081d58;stroke:#081d58;stroke-linejoin:miter;" x="337.147492" xlink:href="#m6dfc58e668" y="109.879704"/>
     <use style="fill:#081d58;stroke:#081d58;stroke-linejoin:miter;" x="345.266562" xlink:href="#m6dfc58e668" y="95.147589"/>
     <use style="fill:#081d58;stroke:#081d58;stroke-linejoin:miter;" x="353.385632" xlink:href="#m6dfc58e668" y="80.065655"/>
     <use style="fill:#081d58;stroke:#081d58;stroke-linejoin:miter;" x="361.504702" xlink:href="#m6dfc58e668" y="65.291223"/>
     <use style="fill:#081d58;stroke:#081d58;stroke-linejoin:miter;" x="369.623772" xlink:href="#m6dfc58e668" y="51.500254"/>
    </g>
   </g>
   <g id="patch_3">
    <path d="M 54 252 
L 54 34.56 
" style="fill:none;stroke:#000000;stroke-linecap:square;stroke-linejoin:miter;stroke-width:0.8;"/>
   </g>
   <g id="patch_4">
    <path d="M 388.8 252 
L 388.8 34.56 
" style="fill:none;stroke:#000000;stroke-linecap:square;stroke-linejoin:miter;stroke-width:0.8;"/>
   </g>
   <g id="patch_5">
    <path d="M 54 252 
L 388.8 252 
" style="fill:none;stroke:#000000;stroke-linecap:square;stroke-linejoin:miter;stroke-width:0.8;"/>
   </g>
   <g id="patch_6">
    <path d="M 54 34.56 
L 388.8 34.56 
" style="fill:none;stroke:#000000;stroke-linecap:square;stroke-linejoin:miter;stroke-width:0.8;"/>
   </g>
   <g id="legend_1">
    <g id="patch_7">
     <path d="M 61 71.91625 
L 162.714063 71.91625 
Q 164.714063 71.91625 164.714063 69.91625 
L 164.714063 41.56 
Q 164.714063 39.56 162.714063 39.56 
L 61 39.56 
Q 59 39.56 59 41.56 
L 59 69.91625 
Q 59 71.91625 61 71.91625 
z
" style="fill:#ffffff;opacity:0.8;stroke:#cccccc;stroke-linejoin:miter;"/>
    </g>
    <g id="line2d_18">
     <path d="M 63 47.658437 
L 83 47.658437 
" style="fill:none;stroke:#40b5c4;stroke-dasharray:5.55,2.4;stroke-dashoffset:0;stroke-width:1.5;"/>
    </g>
    <g id="line2d_19">
     <g>
      <use style="fill:#40b5c4;stroke:#40b5c4;" x="73" xlink:href="#m265127559f" y="47.658437"/>
     </g>
    </g>
    <g id="text_18">
     <text style="font-family:DejaVu Sans;font-size:10px;font-style:normal;font-weight:normal;text-anchor:start;" transform="rotate(-0, 91, 51.158437)" x="91" y="51.158437">original</text>
    </g>
    <g id="line2d_20">
     <path d="M 63 62.336562 
L 83 62.336562 
" style="fill:none;stroke:#081d58;stroke-dasharray:5.55,2.4;stroke-dashoffset:0;stroke-width:1.5;"/>
    </g>
    <g id="line2d_21">
     <g>
      <use style="fill:#081d58;stroke:#081d58;stroke-linejoin:miter;" x="73" xlink:href="#m6dfc58e668" y="62.336562"/>
     </g>
    </g>
    <g id="text_19">
     <text style="font-family:DejaVu Sans;font-size:10px;font-style:normal;font-weight:normal;text-anchor:start;" transform="rotate(-0, 91, 65.836562)" x="91" y="65.836562">reconstructed</text>
    </g>
   </g>
  </g>
  <g id="text_20">
   <text style="font-family:DejaVu Sans;font-size:12px;font-style:normal;font-weight:normal;text-anchor:middle;" transform="rotate(-0, 216, 14.878125)" x="216" y="14.878125">Reconstruction of the weight curve</text>
  </g>
 </g>
 <defs>
  <clipPath id="p55ed9c2f60">
   <rect height="217.44" width="334.8" x="54" y="34.56"/>
  </clipPath>
 </defs>
</svg>
