<?xml version="1.0" encoding="utf-8" standalone="no"?>
<!DOCTYPE svg PUBLIC "-//W3C//DTD SVG 1.1//EN"
  "http://www.w3.org/Graphics/SVG/1.1/DTD/svg11.dtd">
<!-- Created with matplotlib (https://matplotlib.org/) -->
<svg height="288pt" version="1.1" viewBox="0 0 432 288" width="432pt" xmlns="http://www.w3.org/2000/svg" xmlns:xlink="http://www.w3.org/1999/xlink">
 <defs>
  <style type="text/css">
*{stroke-linecap:butt;stroke-linejoin:round;}
  </style>
 </defs>
 <g id="figure_1">
  <g id="patch_1">
   <path d="M 0 288 
L 432 288 
L 432 0 
L 0 0 
z
" style="fill:#ffffff;"/>
  </g>
  <g id="axes_1">
   <g id="patch_2">
    <path d="M 54 252 
L 388.8 252 
L 388.8 34.56 
L 54 34.56 
z
" style="fill:#ffffff;"/>
   </g>
   <g id="matplotlib.axis_1">
    <g id="xtick_1">
     <g id="line2d_1">
      <defs>
       <path d="M 0 0 
L 0 3.5 
" id="m4bce58aa8e" style="stroke:#000000;stroke-width:0.8;"/>
      </defs>
      <g>
       <use style="stroke:#000000;stroke-width:0.8;" x="69.218182" xlink:href="#m4bce58aa8e" y="252"/>
      </g>
     </g>
     <g id="text_1">
      <text style="font-family:DejaVu Sans;font-size:10px;font-style:normal;font-weight:normal;text-anchor:middle;" transform="rotate(-0, 69.218182, 266.598437)" x="69.218182" y="266.598437">0</text>
     </g>
    </g>
    <g id="xtick_2">
     <g id="line2d_2">
      <g>
       <use style="stroke:#000000;stroke-width:0.8;" x="119.962369" xlink:href="#m4bce58aa8e" y="252"/>
      </g>
     </g>
     <g id="text_2">
      <text style="font-family:DejaVu Sans;font-size:10px;font-style:normal;font-weight:normal;text-anchor:middle;" transform="rotate(-0, 119.962369, 266.598437)" x="119.962369" y="266.598437">500</text>
     </g>
    </g>
    <g id="xtick_3">
     <g id="line2d_3">
      <g>
       <use style="stroke:#000000;stroke-width:0.8;" x="170.706557" xlink:href="#m4bce58aa8e" y="252"/>
      </g>
     </g>
     <g id="text_3">
      <text style="font-family:DejaVu Sans;font-size:10px;font-style:normal;font-weight:normal;text-anchor:middle;" transform="rotate(-0, 170.706557, 266.598437)" x="170.706557" y="266.598437">1000</text>
     </g>
    </g>
    <g id="xtick_4">
     <g id="line2d_4">
      <g>
       <use style="stroke:#000000;stroke-width:0.8;" x="221.450744" xlink:href="#m4bce58aa8e" y="252"/>
      </g>
     </g>
     <g id="text_4">
      <text style="font-family:DejaVu Sans;font-size:10px;font-style:normal;font-weight:normal;text-anchor:middle;" transform="rotate(-0, 221.450744, 266.598437)" x="221.450744" y="266.598437">1500</text>
     </g>
    </g>
    <g id="xtick_5">
     <g id="line2d_5">
      <g>
       <use style="stroke:#000000;stroke-width:0.8;" x="272.194932" xlink:href="#m4bce58aa8e" y="252"/>
      </g>
     </g>
     <g id="text_5">
      <text style="font-family:DejaVu Sans;font-size:10px;font-style:normal;font-weight:normal;text-anchor:middle;" transform="rotate(-0, 272.194932, 266.598437)" x="272.194932" y="266.598437">2000</text>
     </g>
    </g>
    <g id="xtick_6">
     <g id="line2d_6">
      <g>
       <use style="stroke:#000000;stroke-width:0.8;" x="322.939119" xlink:href="#m4bce58aa8e" y="252"/>
      </g>
     </g>
     <g id="text_6">
      <text style="font-family:DejaVu Sans;font-size:10px;font-style:normal;font-weight:normal;text-anchor:middle;" transform="rotate(-0, 322.939119, 266.598437)" x="322.939119" y="266.598437">2500</text>
     </g>
    </g>
    <g id="xtick_7">
     <g id="line2d_7">
      <g>
       <use style="stroke:#000000;stroke-width:0.8;" x="373.683307" xlink:href="#m4bce58aa8e" y="252"/>
      </g>
     </g>
     <g id="text_7">
      <text style="font-family:DejaVu Sans;font-size:10px;font-style:normal;font-weight:normal;text-anchor:middle;" transform="rotate(-0, 373.683307, 266.598437)" x="373.683307" y="266.598437">3000</text>
     </g>
    </g>
    <g id="text_8">
     <text style="font-family:DejaVu Sans;font-size:10px;font-style:normal;font-weight:normal;text-anchor:middle;" transform="rotate(-0, 221.4, 280.276563)" x="221.4" y="280.276563">Time</text>
    </g>
   </g>
   <g id="matplotlib.axis_2">
    <g id="ytick_1">
     <g id="line2d_8">
      <defs>
       <path d="M 0 0 
L -3.5 0 
" id="m133dbe7900" style="stroke:#000000;stroke-width:0.8;"/>
      </defs>
      <g>
       <use style="stroke:#000000;stroke-width:0.8;" x="54" xlink:href="#m133dbe7900" y="227.589411"/>
      </g>
     </g>
     <g id="text_9">
      <text style="font-family:DejaVu Sans;font-size:10px;font-style:normal;font-weight:normal;text-anchor:end;" transform="rotate(-0, 47, 231.388629)" x="47" y="231.388629">−8</text>
     </g>
    </g>
    <g id="ytick_2">
     <g id="line2d_9">
      <g>
       <use style="stroke:#000000;stroke-width:0.8;" x="54" xlink:href="#m133dbe7900" y="188.316974"/>
      </g>
     </g>
     <g id="text_10">
      <text style="font-family:DejaVu Sans;font-size:10px;font-style:normal;font-weight:normal;text-anchor:end;" transform="rotate(-0, 47, 192.116192)" x="47" y="192.116192">−6</text>
     </g>
    </g>
    <g id="ytick_3">
     <g id="line2d_10">
      <g>
       <use style="stroke:#000000;stroke-width:0.8;" x="54" xlink:href="#m133dbe7900" y="149.044537"/>
      </g>
     </g>
     <g id="text_11">
      <text style="font-family:DejaVu Sans;font-size:10px;font-style:normal;font-weight:normal;text-anchor:end;" transform="rotate(-0, 47, 152.843755)" x="47" y="152.843755">−4</text>
     </g>
    </g>
    <g id="ytick_4">
     <g id="line2d_11">
      <g>
       <use style="stroke:#000000;stroke-width:0.8;" x="54" xlink:href="#m133dbe7900" y="109.7721"/>
      </g>
     </g>
     <g id="text_12">
      <text style="font-family:DejaVu Sans;font-size:10px;font-style:normal;font-weight:normal;text-anchor:end;" transform="rotate(-0, 47, 113.571318)" x="47" y="113.571318">−2</text>
     </g>
    </g>
    <g id="ytick_5">
     <g id="line2d_12">
      <g>
       <use style="stroke:#000000;stroke-width:0.8;" x="54" xlink:href="#m133dbe7900" y="70.499663"/>
      </g>
     </g>
     <g id="text_13">
      <text style="font-family:DejaVu Sans;font-size:10px;font-style:normal;font-weight:normal;text-anchor:end;" transform="rotate(-0, 47, 74.298882)" x="47" y="74.298882">0</text>
     </g>
    </g>
    <g id="text_14">
     <text style="font-family:DejaVu Sans;font-size:10px;font-style:normal;font-weight:normal;text-anchor:middle;" transform="rotate(-90, 26.178125, 143.28)" x="26.178125" y="143.28">temperature (°C)</text>
    </g>
   </g>
   <g id="line2d_13">
    <path clip-path="url(#pd1d51aa205)" d="M 69.218182 66.911185 
L 71.958368 66.276757 
L 72.973252 66.274428 
L 73.785159 66.472141 
L 74.597066 66.900181 
L 75.408973 67.595093 
L 76.22088 68.585763 
L 77.134275 70.068175 
L 78.149159 72.175581 
L 79.265531 75.037542 
L 80.58488 79.076468 
L 82.107205 84.503917 
L 84.035485 92.229181 
L 87.993531 109.329126 
L 91.038182 122.041143 
L 93.270927 130.417698 
L 95.097717 136.452065 
L 96.620043 140.808046 
L 98.142369 144.47833 
L 99.461718 147.128317 
L 100.679578 149.091271 
L 101.79595 150.495614 
L 102.912322 151.541969 
L 104.028694 152.275402 
L 105.043578 152.70461 
L 106.058462 152.918704 
L 107.174834 152.906863 
L 108.392695 152.664179 
L 109.813532 152.136456 
L 111.640323 151.215556 
L 113.771578 149.876995 
L 119.759393 145.936241 
L 122.39809 144.545604 
L 124.326369 143.775963 
L 126.457625 143.152081 
L 128.487393 142.795624 
L 130.111207 142.727604 
L 131.836509 142.867925 
L 133.561812 143.22389 
L 135.287114 143.794087 
L 137.316881 144.727121 
L 139.042184 145.759712 
L 140.564509 146.94837 
L 141.985347 148.356405 
L 143.507672 150.188445 
L 145.029998 152.367299 
L 146.450835 154.782161 
L 147.770184 157.468317 
L 149.089533 160.671554 
L 150.51037 164.737704 
L 152.134184 170.076949 
L 154.772882 179.672894 
L 160.862184 201.604528 
L 162.587487 208.992046 
L 164.312789 217.615409 
L 167.864882 235.831949 
L 168.778278 239.266952 
L 169.488696 241.125854 
L 169.996138 241.892393 
L 170.402092 242.116364 
L 170.706557 242.034284 
L 171.011022 241.722422 
L 171.416975 240.92798 
L 171.924417 239.303947 
L 172.533347 236.418267 
L 173.243766 231.784649 
L 174.157161 224.072996 
L 175.47651 210.587784 
L 178.521162 179.040058 
L 180.144976 164.71255 
L 181.667301 153.102597 
L 183.189627 143.111061 
L 184.711952 134.539871 
L 186.234278 127.199126 
L 187.756604 120.907465 
L 189.278929 115.516617 
L 190.902743 110.583606 
L 192.526557 106.388131 
L 194.25186 102.580237 
L 195.977162 99.322509 
L 197.803953 96.36337 
L 199.630744 93.811605 
L 201.559023 91.480118 
L 203.690279 89.255374 
L 205.923023 87.251829 
L 208.257255 85.455807 
L 210.692976 83.848953 
L 213.534651 82.258249 
L 216.274837 80.965897 
L 219.420977 79.707993 
L 222.97307 78.529309 
L 227.438558 77.316651 
L 254.535954 70.641095 
L 263.872885 68.585216 
L 272.90535 66.823555 
L 277.979769 65.995379 
L 284.678002 65.143052 
L 291.071769 64.634065 
L 295.537258 64.493415 
L 301.01763 64.554652 
L 312.790282 65.009351 
L 321.721259 65.351207 
L 329.434375 65.625341 
L 333.290933 66.03408 
L 337.350468 66.735156 
L 340.902561 67.544239 
L 353.893073 70.73068 
L 357.445167 71.263564 
L 361.707678 71.672811 
L 368.304423 71.964089 
L 373.581818 71.997399 
L 373.581818 71.997399 
" style="fill:none;stroke:#40b5c4;stroke-dasharray:5.55,2.4;stroke-dashoffset:0;stroke-width:1.5;"/>
    <defs>
     <path d="M 0 3 
C 0.795609 3 1.55874 2.683901 2.12132 2.12132 
C 2.683901 1.55874 3 0.795609 3 0 
C 3 -0.795609 2.683901 -1.55874 2.12132 -2.12132 
C 1.55874 -2.683901 0.795609 -3 0 -3 
C -0.795609 -3 -1.55874 -2.683901 -2.12132 -2.12132 
C -2.683901 -1.55874 -3 -0.795609 -3 0 
C -3 0.795609 -2.683901 1.55874 -2.12132 2.12132 
C -1.55874 2.683901 -0.795609 3 0 3 
z
" id="mc1e656b742" style="stroke:#40b5c4;"/>
    </defs>
    <g clip-path="url(#pd1d51aa205)">
     <use style="fill:#40b5c4;stroke:#40b5c4;" x="69.218182" xlink:href="#mc1e656b742" y="66.911185"/>
     <use style="fill:#40b5c4;stroke:#40b5c4;" x="77.337252" xlink:href="#mc1e656b742" y="70.451606"/>
     <use style="fill:#40b5c4;stroke:#40b5c4;" x="85.456322" xlink:href="#mc1e656b742" y="98.294318"/>
     <use style="fill:#40b5c4;stroke:#40b5c4;" x="93.575392" xlink:href="#mc1e656b742" y="131.47935"/>
     <use style="fill:#40b5c4;stroke:#40b5c4;" x="101.694462" xlink:href="#mc1e656b742" y="150.38355"/>
     <use style="fill:#40b5c4;stroke:#40b5c4;" x="109.813532" xlink:href="#mc1e656b742" y="152.136456"/>
     <use style="fill:#40b5c4;stroke:#40b5c4;" x="117.932602" xlink:href="#mc1e656b742" y="147.057548"/>
     <use style="fill:#40b5c4;stroke:#40b5c4;" x="126.051672" xlink:href="#mc1e656b742" y="143.251813"/>
     <use style="fill:#40b5c4;stroke:#40b5c4;" x="134.170742" xlink:href="#mc1e656b742" y="143.399065"/>
     <use style="fill:#40b5c4;stroke:#40b5c4;" x="142.289812" xlink:href="#mc1e656b742" y="148.696229"/>
     <use style="fill:#40b5c4;stroke:#40b5c4;" x="150.408882" xlink:href="#mc1e656b742" y="164.427982"/>
     <use style="fill:#40b5c4;stroke:#40b5c4;" x="158.527952" xlink:href="#mc1e656b742" y="192.825332"/>
     <use style="fill:#40b5c4;stroke:#40b5c4;" x="166.647022" xlink:href="#mc1e656b742" y="230.035848"/>
     <use style="fill:#40b5c4;stroke:#40b5c4;" x="174.766092" xlink:href="#mc1e656b742" y="218.075957"/>
     <use style="fill:#40b5c4;stroke:#40b5c4;" x="182.885162" xlink:href="#mc1e656b742" y="144.988637"/>
     <use style="fill:#40b5c4;stroke:#40b5c4;" x="191.004232" xlink:href="#mc1e656b742" y="110.302003"/>
     <use style="fill:#40b5c4;stroke:#40b5c4;" x="199.123302" xlink:href="#mc1e656b742" y="94.485696"/>
     <use style="fill:#40b5c4;stroke:#40b5c4;" x="207.242372" xlink:href="#mc1e656b742" y="86.203681"/>
     <use style="fill:#40b5c4;stroke:#40b5c4;" x="215.361442" xlink:href="#mc1e656b742" y="81.374008"/>
     <use style="fill:#40b5c4;stroke:#40b5c4;" x="223.480512" xlink:href="#mc1e656b742" y="78.37804"/>
     <use style="fill:#40b5c4;stroke:#40b5c4;" x="231.599582" xlink:href="#mc1e656b742" y="76.321589"/>
     <use style="fill:#40b5c4;stroke:#40b5c4;" x="239.718652" xlink:href="#mc1e656b742" y="74.325152"/>
     <use style="fill:#40b5c4;stroke:#40b5c4;" x="247.837722" xlink:href="#mc1e656b742" y="72.270285"/>
     <use style="fill:#40b5c4;stroke:#40b5c4;" x="255.956792" xlink:href="#mc1e656b742" y="70.315358"/>
     <use style="fill:#40b5c4;stroke:#40b5c4;" x="264.075862" xlink:href="#mc1e656b742" y="68.542814"/>
     <use style="fill:#40b5c4;stroke:#40b5c4;" x="272.194932" xlink:href="#mc1e656b742" y="66.956857"/>
     <use style="fill:#40b5c4;stroke:#40b5c4;" x="280.314002" xlink:href="#mc1e656b742" y="65.667496"/>
     <use style="fill:#40b5c4;stroke:#40b5c4;" x="288.433072" xlink:href="#mc1e656b742" y="64.822858"/>
     <use style="fill:#40b5c4;stroke:#40b5c4;" x="296.552142" xlink:href="#mc1e656b742" y="64.488298"/>
     <use style="fill:#40b5c4;stroke:#40b5c4;" x="304.671212" xlink:href="#mc1e656b742" y="64.661244"/>
     <use style="fill:#40b5c4;stroke:#40b5c4;" x="312.790282" xlink:href="#mc1e656b742" y="65.009351"/>
     <use style="fill:#40b5c4;stroke:#40b5c4;" x="320.909352" xlink:href="#mc1e656b742" y="65.331057"/>
     <use style="fill:#40b5c4;stroke:#40b5c4;" x="329.028422" xlink:href="#mc1e656b742" y="65.596362"/>
     <use style="fill:#40b5c4;stroke:#40b5c4;" x="337.147492" xlink:href="#mc1e656b742" y="66.695462"/>
     <use style="fill:#40b5c4;stroke:#40b5c4;" x="345.266562" xlink:href="#mc1e656b742" y="68.697757"/>
     <use style="fill:#40b5c4;stroke:#40b5c4;" x="353.385632" xlink:href="#mc1e656b742" y="70.638787"/>
     <use style="fill:#40b5c4;stroke:#40b5c4;" x="361.504702" xlink:href="#mc1e656b742" y="71.659344"/>
     <use style="fill:#40b5c4;stroke:#40b5c4;" x="369.623772" xlink:href="#mc1e656b742" y="71.990808"/>
    </g>
   </g>
   <g id="line2d_14">
    <path clip-path="url(#pd1d51aa205)" d="M 69.218182 98.586495 
L 73.785159 98.71496 
L 73.886647 98.616121 
L 74.089624 98.753143 
L 74.191112 98.573068 
L 74.394089 98.656139 
L 75.003019 98.587919 
L 75.104508 98.654679 
L 75.205996 98.513481 
L 75.408973 98.596533 
L 75.510461 98.528237 
L 75.611949 98.625765 
L 75.713438 98.466926 
L 75.916415 98.519342 
L 76.017903 98.470466 
L 76.119391 98.557188 
L 76.22088 98.396814 
L 76.423856 98.480016 
L 76.525345 98.402095 
L 76.626833 98.488106 
L 76.728322 98.339211 
L 76.931298 98.424136 
L 77.032787 98.309455 
L 77.134275 98.43217 
L 77.235763 98.332488 
L 77.43874 98.451327 
L 77.743205 98.402994 
L 77.946182 98.511121 
L 78.04767 98.437863 
L 78.149159 98.560634 
L 78.250647 98.474642 
L 78.453624 98.603256 
L 78.555112 98.546327 
L 78.859577 98.642544 
L 78.961066 98.692825 
L 79.062554 98.590316 
L 79.265531 98.678911 
L 79.569996 98.743162 
L 79.772973 98.893929 
L 80.280415 99.679621 
L 80.686368 100.483327 
L 81.295298 101.630422 
L 81.396787 101.472595 
L 81.498275 101.8181 
L 81.599764 101.454411 
L 81.701252 101.799036 
L 81.904229 101.734299 
L 82.005717 102.139635 
L 82.107205 101.724411 
L 82.310182 102.029972 
L 82.411671 101.907182 
L 82.513159 102.247537 
L 82.614647 101.956227 
L 82.716136 102.334372 
L 82.919112 102.10853 
L 83.020601 102.547424 
L 83.122089 102.168062 
L 83.325066 102.581544 
L 83.426554 102.398043 
L 83.528043 102.621825 
L 83.629531 102.532218 
L 83.832508 102.791225 
L 83.933996 102.645889 
L 84.035485 103.094315 
L 84.136973 103.015701 
L 84.33995 103.609894 
L 84.441438 103.459445 
L 84.644415 103.751317 
L 84.847392 104.268695 
L 84.94888 104.088302 
L 85.050368 104.492589 
L 85.151857 104.400623 
L 85.862275 105.669947 
L 85.963764 105.601595 
L 86.16674 106.128953 
L 86.268229 106.133804 
L 86.572694 106.773016 
L 86.674182 106.999776 
L 86.775671 106.854364 
L 86.877159 107.35206 
L 86.978647 107.159588 
L 87.181624 107.744831 
L 87.283113 107.81528 
L 87.384601 108.120673 
L 87.486089 107.967864 
L 87.689066 108.527451 
L 87.790554 108.592863 
L 87.892043 108.83333 
L 87.993531 108.753368 
L 88.196508 109.361382 
L 88.297996 109.316906 
L 89.820322 114.236113 
L 90.124787 115.362684 
L 90.327764 115.962627 
L 91.748601 120.730614 
L 91.951578 121.370501 
L 92.661996 124.047818 
L 95.402183 134.13514 
L 95.706648 135.313808 
L 96.315578 137.225565 
L 96.518555 138.070489 
L 97.228973 140.44599 
L 97.43195 141.205689 
L 97.736415 142.130481 
L 98.243857 143.694373 
L 99.461718 144.606488 
L 102.303392 146.377084 
L 106.362927 148.035428 
L 107.377811 148.322141 
L 109.91502 144.001845 
L 110.219485 143.716171 
L 110.726927 143.169449 
L 110.828416 143.154281 
L 111.437346 142.477522 
L 116.004323 138.409402 
L 116.410276 138.172511 
L 116.714741 137.994309 
L 117.42516 137.512606 
L 117.729625 137.258805 
L 117.831113 137.317681 
L 118.135579 136.969217 
L 118.440044 136.833056 
L 118.64302 136.640473 
L 119.353439 136.265417 
L 121.687672 130.536738 
L 123.615951 126.100679 
L 124.630835 123.806657 
L 125.442742 122.123739 
L 127.371021 118.515581 
L 128.182928 116.53051 
L 128.893346 114.957366 
L 129.400788 113.788698 
L 130.51716 111.335912 
L 131.735021 108.3032 
L 133.460323 104.40759 
L 133.967765 103.384127 
L 134.373719 102.599522 
L 136.504974 99.166607 
L 136.80944 98.79318 
L 137.41837 99.116869 
L 138.0273 99.746662 
L 138.737719 100.663196 
L 138.940695 100.899824 
L 140.868975 104.336241 
L 141.17344 105.275622 
L 141.579393 106.782623 
L 143.609161 115.591672 
L 144.624044 118.621124 
L 145.841905 123.075703 
L 146.450835 125.519781 
L 146.7553 126.733862 
L 147.262742 128.864738 
L 147.770184 130.83024 
L 148.074649 132.105724 
L 148.886556 135.414904 
L 151.525254 145.018669 
L 151.829719 145.796879 
L 152.946091 149.115342 
L 154.975859 154.354911 
L 155.178835 154.859938 
L 155.889254 156.730833 
L 156.092231 157.302452 
L 156.701161 158.792599 
L 157.107114 159.877419 
L 157.41158 160.596678 
L 157.513068 160.682362 
L 158.121998 162.939829 
L 158.223487 163.070354 
L 159.136882 166.163878 
L 159.441347 167.08809 
L 160.151766 169.685987 
L 160.456231 170.530827 
L 160.963673 172.25029 
L 161.065161 172.201002 
L 161.369626 173.116019 
L 162.38451 175.970789 
L 162.99344 178.239324 
L 163.399394 179.485295 
L 164.312789 182.452219 
L 164.414277 182.580627 
L 164.820231 183.862141 
L 165.835115 186.562033 
L 166.444045 187.897976 
L 166.647022 188.391121 
L 166.74851 188.447788 
L 167.052975 189.194978 
L 167.154464 189.160998 
L 167.560417 189.91242 
L 168.879766 190.787503 
L 169.184231 190.847456 
L 169.387208 190.931257 
L 169.996138 190.893486 
L 170.199115 190.965087 
L 170.402092 190.849825 
L 170.605068 190.056072 
L 172.330371 179.865379 
L 174.461627 164.667673 
L 177.404789 141.240726 
L 179.536045 126.825959 
L 180.652417 118.308933 
L 181.261348 113.954971 
L 182.276231 106.651275 
L 183.59558 97.4394 
L 184.914929 88.882919 
L 185.219394 87.300937 
L 185.523859 86.39092 
L 187.95958 79.701456 
L 188.162557 79.370315 
L 188.771487 78.343069 
L 188.872976 78.405204 
L 189.278929 77.484569 
L 189.380418 77.521442 
L 189.481906 77.387397 
L 189.583394 77.009664 
L 189.684883 77.038971 
L 189.786371 77.000469 
L 190.090836 76.401743 
L 190.293813 76.144122 
L 190.598278 75.737569 
L 191.816139 74.085511 
L 191.917627 74.10053 
L 192.323581 73.478134 
L 193.338464 72.140646 
L 193.642929 71.848905 
L 197.905441 68.434436 
L 198.311395 68.142657 
L 198.920325 67.720579 
L 199.021813 67.743931 
L 199.22479 67.569868 
L 199.529255 67.301198 
L 199.935209 67.107172 
L 200.239674 67.060955 
L 200.442651 66.901386 
L 200.950092 66.74487 
L 201.051581 66.829888 
L 201.254558 66.623971 
L 201.559023 66.455881 
L 202.066465 66.402511 
L 202.269441 66.227792 
L 202.573906 66.145751 
L 202.97986 65.958953 
L 203.182837 65.905939 
L 203.385813 65.724403 
L 203.487302 65.772306 
L 203.893255 65.554778 
L 204.19772 65.430003 
L 204.908139 65.102775 
L 205.111116 65.093656 
L 208.967674 63.548715 
L 209.069162 63.672216 
L 209.272139 63.452498 
L 209.576604 63.326187 
L 209.678093 63.357797 
L 209.779581 63.176524 
L 209.881069 63.240813 
L 209.982558 63.167311 
L 210.084046 63.270569 
L 210.388511 62.966019 
L 210.692976 63.01351 
L 210.794465 62.796918 
L 210.997442 62.832349 
L 211.09893 62.852105 
L 211.403395 62.647199 
L 211.504883 62.673829 
L 211.70786 62.576113 
L 214.346558 61.621377 
L 214.448046 61.34752 
L 214.549535 61.489468 
L 214.651023 61.399337 
L 214.752511 61.489748 
L 215.056977 61.176771 
L 215.158465 61.225367 
L 215.46293 61.048719 
L 215.767395 60.987914 
L 216.173349 60.77121 
L 218.812046 59.572261 
L 219.015023 59.452655 
L 219.218 59.417617 
L 219.522465 59.229678 
L 221.044791 58.506552 
L 221.146279 58.549866 
L 221.349256 58.331664 
L 221.552233 58.158275 
L 221.755209 58.099867 
L 222.059674 57.817545 
L 222.161163 57.826871 
L 223.379023 56.317998 
L 223.480512 56.366144 
L 223.784977 55.915377 
L 225.408791 54.031916 
L 225.510279 53.957759 
L 225.814744 53.50113 
L 226.017721 53.304033 
L 226.626651 52.498304 
L 227.032605 52.056601 
L 227.33707 51.66531 
L 227.438558 51.636134 
L 227.540047 51.428306 
L 227.641535 51.556115 
L 227.743023 51.474392 
L 227.844512 51.626077 
L 228.047489 51.531771 
L 228.250465 51.496115 
L 228.757907 51.402295 
L 228.960884 51.259131 
L 232.512977 49.625425 
L 232.817442 49.652503 
L 233.020419 49.536267 
L 234.644233 49.143478 
L 234.745721 49.254601 
L 234.948698 49.114602 
L 235.151675 49.018441 
L 235.354652 49.083553 
L 235.45614 48.878909 
L 235.760605 49.095163 
L 236.06507 48.939489 
L 236.876977 48.968235 
L 237.587396 48.93846 
L 237.688884 49.072916 
L 238.094838 48.94977 
L 245.199024 49.589788 
L 245.300512 49.424245 
L 245.604977 49.643983 
L 245.909443 49.521099 
L 246.619861 49.627878 
L 247.025815 49.59475 
L 247.634745 49.624881 
L 247.93921 49.556136 
L 248.243675 49.577297 
L 248.54814 49.594395 
L 248.751117 49.579844 
L 249.461536 49.522822 
L 249.563024 49.632297 
L 249.766001 49.53093 
L 250.476419 49.498028 
L 250.577908 49.552972 
L 250.780885 49.449114 
L 253.013629 49.321605 
L 253.216606 49.235163 
L 253.622559 49.256343 
L 253.724047 49.137879 
L 254.028513 49.176249 
L 254.231489 49.134695 
L 254.332978 49.101137 
L 254.434466 49.226455 
L 254.84042 49.046193 
L 255.44935 49.092373 
L 255.753815 48.898535 
L 256.464234 48.916737 
L 256.66721 48.780239 
L 256.971675 48.799452 
L 257.276141 48.645951 
L 257.377629 48.890688 
L 257.580606 48.684509 
L 258.189536 48.563629 
L 258.392513 48.586588 
L 258.696978 48.469247 
L 258.899955 48.472299 
L 259.20442 48.413929 
L 259.508885 48.360876 
L 260.219303 48.203648 
L 260.320792 48.316569 
L 260.625257 48.069847 
L 260.929722 48.052113 
L 261.741629 47.866252 
L 261.843117 47.942076 
L 262.046094 47.81599 
L 262.756513 47.696477 
L 262.858001 47.592432 
L 263.060978 47.644398 
L 263.771397 47.504249 
L 263.974373 47.41526 
L 264.075862 47.371215 
L 264.17735 47.52702 
L 264.380327 47.389137 
L 264.583304 47.297189 
L 265.090745 47.194006 
L 265.192234 47.263013 
L 265.496699 47.103276 
L 265.699676 47.095317 
L 265.902652 47.020148 
L 266.308606 46.983407 
L 266.511583 46.917096 
L 266.714559 46.954044 
L 266.816048 46.768389 
L 267.120513 46.936591 
L 267.32349 46.810879 
L 267.526466 46.775467 
L 267.830932 46.680318 
L 267.93242 46.860804 
L 268.033908 46.64279 
L 268.236885 46.667228 
L 268.439862 46.655018 
L 269.251769 46.600898 
L 269.454746 46.434756 
L 269.657722 46.550898 
L 269.962187 46.368127 
L 270.165164 46.403445 
L 270.469629 46.35382 
L 270.875583 46.29397 
L 271.07856 46.266142 
L 271.180048 46.291386 
L 271.383025 46.187903 
L 271.586001 46.28427 
L 271.890467 46.081199 
L 272.093443 46.103184 
L 272.194932 46.018015 
L 272.29642 46.229026 
L 272.397908 46.037341 
L 272.499397 46.094382 
L 272.600885 45.955806 
L 272.803862 46.001274 
L 273.108327 45.975881 
L 273.209815 46.008165 
L 273.412792 45.906218 
L 273.615769 45.884046 
L 273.920234 45.725507 
L 274.224699 45.883446 
L 274.529164 45.7012 
L 276.05149 45.502211 
L 276.152978 45.637042 
L 276.254467 45.445507 
L 276.355955 45.495058 
L 276.558932 45.428429 
L 277.167862 45.293373 
L 277.979769 45.194496 
L 278.081257 45.26371 
L 278.182746 45.106819 
L 278.487211 45.226781 
L 278.791676 45.05959 
L 279.19763 45.016107 
L 279.299118 44.968467 
L 279.502095 45.057343 
L 279.80656 44.886107 
L 280.009537 44.974047 
L 280.111025 44.817943 
L 280.41549 44.918954 
L 280.618467 44.831014 
L 282.749723 44.618018 
L 282.851211 44.708018 
L 282.952699 44.544947 
L 283.257165 44.762025 
L 283.460141 44.659104 
L 283.663118 44.602175 
L 283.866095 44.587868 
L 284.069072 44.563187 
L 284.272048 44.629666 
L 285.083955 44.581239 
L 285.185444 44.663261 
L 285.38842 44.543224 
L 286.301816 44.581464 
L 286.504793 44.534161 
L 287.519676 44.509554 
L 287.621165 44.604011 
L 287.722653 44.443636 
L 288.027118 44.68416 
L 288.128607 44.526707 
L 288.230095 44.587868 
L 288.433072 44.504198 
L 288.636048 44.523299 
L 288.839025 44.526707 
L 288.940514 44.661988 
L 289.244979 44.497868 
L 289.447955 44.51079 
L 289.549444 44.578992 
L 289.752421 44.515696 
L 289.955397 44.624947 
L 290.158374 44.549404 
L 290.462839 44.567719 
L 290.767304 44.572175 
L 290.868793 44.692512 
L 291.071769 44.597868 
L 291.6807 44.580677 
L 291.782188 44.741089 
L 291.985165 44.647793 
L 292.594095 44.6321 
L 292.797072 44.759741 
L 293.000049 44.719741 
L 293.203025 44.701464 
L 293.304514 44.759553 
L 293.50749 44.684273 
L 293.913444 44.794235 
L 294.014932 44.705621 
L 294.319397 44.794909 
L 294.522374 44.771538 
L 294.725351 44.866107 
L 295.029816 44.804085 
L 295.232793 44.879029 
L 295.334281 44.730265 
L 295.537258 44.936931 
L 295.638746 44.984909 
L 295.841723 44.897343 
L 296.755118 45.019141 
L 296.958095 45.004684 
L 297.059583 45.068729 
L 297.161072 44.989291 
L 297.465537 45.148953 
L 297.87149 45.134384 
L 298.987863 45.332474 
L 299.089351 45.2212 
L 299.190839 45.376519 
L 299.292328 45.312511 
L 299.495304 45.407904 
L 299.79977 45.432548 
L 299.901258 45.495245 
L 300.002746 45.37974 
L 300.510188 45.53517 
L 301.01763 45.570451 
L 301.423584 45.708278 
L 302.032514 45.805432 
L 302.235491 45.878128 
L 303.047398 46.056817 
L 303.148886 46.099776 
L 303.351863 46.073259 
L 303.960793 46.190937 
L 304.062281 46.336255 
L 304.16377 46.204495 
L 304.468235 46.285393 
L 306.498002 46.679288 
L 306.599491 46.649512 
L 306.802467 46.754568 
L 307.309909 46.961647 
L 307.512886 46.902808 
L 308.121816 47.042208 
L 308.223305 47.159137 
L 308.426281 47.069025 
L 308.730747 47.201122 
L 308.832235 47.068912 
L 309.1367 47.35614 
L 309.238188 47.232208 
L 309.339677 47.33277 
L 309.441165 47.249324 
L 309.644142 47.363331 
L 309.74563 47.2988 
L 310.050095 47.505316 
L 310.354561 47.450784 
L 310.557537 47.520447 
L 310.862002 47.556627 
L 310.963491 47.71026 
L 311.267956 47.628836 
L 311.673909 47.714042 
L 311.775398 47.722881 
L 311.978375 47.824417 
L 312.587305 47.884566 
L 314.617072 48.302243 
L 314.820049 48.32082 
L 315.023026 48.33936 
L 315.226003 48.411045 
L 315.327491 48.29715 
L 315.631956 48.573704 
L 315.834933 48.453067 
L 316.139398 48.578985 
L 316.342375 48.59243 
L 316.443863 48.547824 
L 316.545351 48.755913 
L 316.748328 48.695913 
L 316.951305 48.647336 
L 317.052793 48.792729 
L 317.25577 48.727224 
L 317.458747 48.933179 
L 317.560235 48.801082 
L 317.661724 48.889883 
L 317.763212 48.782355 
L 317.966189 48.944265 
L 318.270654 48.952205 
L 318.372142 49.126287 
L 318.473631 49.008347 
L 318.575119 49.089845 
L 318.778096 49.02359 
L 318.981072 49.102017 
L 319.184049 49.141043 
L 319.285538 49.283553 
L 319.488514 49.256212 
L 319.590003 49.188122 
L 319.792979 49.285163 
L 320.097445 49.320331 
L 320.198933 49.482316 
L 320.503398 49.398197 
L 321.01084 49.512915 
L 321.112328 49.66872 
L 321.416793 49.592878 
L 321.61977 49.721866 
L 321.822747 49.714301 
L 322.939119 50.006061 
L 323.040607 49.906922 
L 323.345073 50.191453 
L 323.548049 50.067933 
L 323.852514 50.186959 
L 323.954003 50.121716 
L 324.258468 50.368831 
L 324.461445 50.29209 
L 325.37484 50.577071 
L 325.476328 50.441753 
L 325.780794 50.692801 
L 326.085259 50.687895 
L 326.491212 50.739879 
L 326.592701 50.816097 
L 326.795677 50.625011 
L 326.897166 50.720778 
L 327.100142 50.658644 
L 327.201631 50.726321 
L 327.404608 50.631265 
L 327.607584 50.767333 
L 327.810561 50.58576 
L 327.912049 50.820628 
L 328.013538 50.574824 
L 328.216515 50.674748 
L 328.419491 50.640179 
L 328.622468 50.572539 
L 328.825445 50.810816 
L 329.028422 50.616546 
L 329.231398 50.633999 
L 329.434375 50.601865 
L 329.535863 50.656322 
L 329.637352 50.544299 
L 329.73884 50.776321 
L 329.941817 50.508269 
L 330.043305 50.679056 
L 330.34777 50.576883 
L 330.449259 50.729243 
L 330.550747 50.532839 
L 330.753724 50.642014 
L 331.058189 50.613812 
L 331.159677 50.66737 
L 331.261166 50.497895 
L 331.464143 50.657445 
L 331.565631 50.579243 
L 331.768608 50.703363 
L 331.870096 50.567033 
L 332.073073 50.793437 
L 332.174561 50.601191 
L 332.479026 50.766808 
L 332.783491 50.796396 
L 332.88498 50.744711 
L 332.986468 50.927371 
L 333.189445 50.766059 
L 333.392422 51.04797 
L 333.49391 50.854598 
L 333.696887 51.014674 
L 333.899864 50.965573 
L 334.204329 51.065535 
L 334.305817 51.201678 
L 334.508794 50.984337 
L 334.711771 51.15415 
L 334.813259 51.080067 
L 335.016236 51.274486 
L 335.117724 51.139393 
L 335.320701 51.449954 
L 335.422189 51.196359 
L 335.625166 51.473737 
L 335.726654 51.358868 
L 335.828143 51.412052 
L 335.929631 51.618418 
L 336.132608 51.540778 
L 336.234096 51.710066 
L 336.437073 51.520853 
L 336.64005 51.837369 
L 336.741538 51.669579 
L 336.944515 52.078829 
L 337.147492 51.803287 
L 337.24898 52.047069 
L 337.350468 51.99089 
L 337.553445 52.257031 
L 337.654933 52.211825 
L 337.756422 52.031788 
L 337.959399 52.504709 
L 338.060887 52.091788 
L 338.263864 52.675008 
L 338.365352 52.525533 
L 338.46684 52.613061 
L 338.568329 53.026468 
L 338.669817 52.553136 
L 338.771306 52.676881 
L 338.872794 53.021337 
L 338.974282 52.646356 
L 339.177259 53.212947 
L 339.278747 52.964446 
L 339.481724 53.449838 
L 339.684701 53.080663 
L 339.786189 53.452685 
L 339.887678 53.423546 
L 339.989166 53.30437 
L 340.192143 53.753545 
L 340.293631 53.501111 
L 340.496608 54.05171 
L 340.699585 53.603134 
L 340.801073 54.112721 
L 340.902561 53.952946 
L 341.105538 54.337552 
L 341.308515 53.957028 
L 341.410003 54.476391 
L 341.511492 54.445117 
L 341.61298 54.180099 
L 342.120422 54.996577 
L 342.22191 54.559499 
L 342.323399 54.67624 
L 342.424887 55.041933 
L 342.627864 54.855828 
L 342.830841 55.462082 
L 342.932329 55.025303 
L 343.135306 55.588299 
L 343.236794 55.187138 
L 343.338282 55.31137 
L 343.439771 55.620134 
L 343.541259 55.427999 
L 343.744236 56.008111 
L 343.947213 55.627512 
L 344.150189 56.002493 
L 344.251678 55.716426 
L 344.454655 56.240769 
L 344.556143 55.987287 
L 344.75912 56.518372 
L 344.962096 56.119047 
L 345.063585 56.594327 
L 345.165073 56.500245 
L 345.266562 56.197773 
L 345.469538 56.767173 
L 345.571027 56.543166 
L 345.774003 57.059382 
L 345.875492 56.608484 
L 345.97698 56.649495 
L 346.078469 57.106311 
L 346.179957 56.798933 
L 346.281445 56.929719 
L 346.484422 57.312677 
L 346.58591 56.89294 
L 346.788887 57.396835 
L 346.991864 57.201217 
L 347.093352 57.537097 
L 347.194841 57.275599 
L 347.397817 57.885635 
L 347.600794 57.427996 
L 347.702283 57.942377 
L 347.905259 57.541778 
L 348.108236 58.09953 
L 348.209724 57.836572 
L 348.412701 58.448593 
L 348.51419 57.961216 
L 348.615678 57.987208 
L 348.717166 58.400241 
L 348.818655 58.365185 
L 348.920143 58.090092 
L 349.12312 58.664623 
L 349.224608 58.327282 
L 349.427585 58.907019 
L 349.630562 58.45908 
L 349.73205 58.925334 
L 349.935027 58.735334 
L 350.036515 59.137243 
L 350.138004 59.051363 
L 350.239492 58.785034 
L 350.442469 59.347692 
L 350.543957 58.951101 
L 350.645445 59.003798 
L 350.746934 59.326906 
L 350.848422 59.237356 
L 351.152887 59.533422 
L 351.254376 59.191625 
L 351.457352 59.771737 
L 351.558841 59.312674 
L 351.761818 59.867916 
L 351.964794 59.815369 
L 352.066283 60.005594 
L 352.269259 59.736793 
L 352.472236 60.183609 
L 352.573725 59.957766 
L 352.675213 60.0208 
L 352.776701 60.373795 
L 352.87819 60.147391 
L 352.979678 60.272485 
L 353.081166 60.597653 
L 353.182655 60.259339 
L 353.284143 60.303121 
L 353.48712 60.596679 
L 353.588608 60.316005 
L 353.791585 60.769038 
L 353.893073 60.593009 
L 353.994562 60.697615 
L 354.09605 61.086041 
L 354.299027 60.659638 
L 354.502004 61.094356 
L 354.603492 60.740461 
L 354.806469 61.116566 
L 354.907957 60.99342 
L 355.110934 61.39649 
L 355.313911 60.961734 
L 355.415399 61.594168 
L 355.516887 61.469187 
L 355.618376 61.109899 
L 355.821353 61.467314 
L 355.922841 61.428288 
L 356.125818 61.538737 
L 356.328794 61.887613 
L 356.531771 61.51679 
L 356.63326 61.900647 
L 356.836236 61.615553 
L 357.039213 61.974354 
L 357.140701 61.752445 
L 357.343678 62.297575 
L 357.546655 61.85971 
L 357.648143 62.286638 
L 357.749632 62.258623 
L 357.85112 61.899148 
L 358.054097 62.364129 
L 358.155585 62.142444 
L 358.358562 62.675027 
L 358.561539 62.160346 
L 358.663027 62.670158 
L 358.764515 62.595327 
L 358.866004 62.250496 
L 359.068981 62.638585 
L 359.170469 62.545889 
L 359.373446 63.073678 
L 359.576422 62.509634 
L 359.677911 63.02057 
L 359.880888 62.876188 
L 360.185353 62.925476 
L 360.388329 63.124202 
L 360.489818 63.116936 
L 360.591306 62.873229 
L 360.794283 63.309071 
L 360.895771 63.165176 
L 360.99726 63.36967 
L 361.098748 63.179184 
L 361.301725 63.381131 
L 361.707678 63.409932 
L 362.012143 63.648696 
L 362.113632 63.448397 
L 362.418097 63.780269 
L 362.519585 63.7654 
L 362.621074 63.510831 
L 362.82405 63.833152 
L 362.925539 63.975736 
L 363.128516 63.734838 
L 363.230004 63.985624 
L 363.331492 63.898471 
L 363.432981 64.140081 
L 363.534469 63.845549 
L 363.737446 64.08435 
L 363.838934 64.04435 
L 363.940423 64.280942 
L 364.041911 63.943639 
L 364.447864 64.437533 
L 364.549353 64.094126 
L 364.75233 64.463076 
L 364.853818 64.361691 
L 364.955306 64.359856 
L 365.056795 64.143751 
L 365.259771 64.69742 
L 365.36126 64.43993 
L 365.462748 64.592739 
L 365.564237 64.310754 
L 365.767213 64.570267 
L 365.868702 64.569256 
L 365.97019 64.754836 
L 366.071678 64.402814 
L 366.173167 64.683376 
L 366.274655 64.595997 
L 366.376144 64.816671 
L 366.477632 64.624499 
L 366.782097 64.849106 
L 366.985074 64.693787 
L 367.086562 64.875473 
L 367.289539 64.850341 
L 367.391027 65.03551 
L 367.492516 64.808094 
L 367.796981 65.042326 
L 367.898469 64.999105 
L 367.999958 64.781765 
L 368.304423 65.106483 
L 368.405911 65.160154 
L 368.507399 64.929892 
L 368.811865 65.286558 
L 369.014841 64.846671 
L 369.11633 65.274685 
L 369.217818 65.165884 
L 369.319306 65.26682 
L 369.522283 65.070379 
L 369.623772 65.29712 
L 369.72526 65.099667 
L 369.826748 65.292962 
L 370.029725 65.092663 
L 370.232702 65.344123 
L 370.435679 65.15903 
L 370.740144 65.371839 
L 370.94312 65.19888 
L 371.247586 65.456108 
L 371.349074 65.140528 
L 371.552051 65.305696 
L 371.653539 65.187981 
L 371.755027 65.51682 
L 371.856516 65.122101 
L 371.958004 65.162476 
L 372.059493 65.444273 
L 372.262469 65.430902 
L 372.363958 65.064349 
L 372.566934 65.494348 
L 372.668423 65.301801 
L 372.769911 65.405696 
L 372.8714 65.133075 
L 373.074376 65.466932 
L 373.48033 65.332213 
L 373.581818 65.453898 
L 373.581818 65.453898 
" style="fill:none;stroke:#081d58;stroke-dasharray:5.55,2.4;stroke-dashoffset:0;stroke-width:1.5;"/>
    <defs>
     <path d="M -0 4.242641 
L 4.242641 0 
L 0 -4.242641 
L -4.242641 -0 
z
" id="m34232f14b1" style="stroke:#081d58;stroke-linejoin:miter;"/>
    </defs>
    <g clip-path="url(#pd1d51aa205)">
     <use style="fill:#081d58;stroke:#081d58;stroke-linejoin:miter;" x="69.218182" xlink:href="#m34232f14b1" y="98.586495"/>
     <use style="fill:#081d58;stroke:#081d58;stroke-linejoin:miter;" x="77.337252" xlink:href="#m34232f14b1" y="98.430615"/>
     <use style="fill:#081d58;stroke:#081d58;stroke-linejoin:miter;" x="85.456322" xlink:href="#m34232f14b1" y="104.941821"/>
     <use style="fill:#081d58;stroke:#081d58;stroke-linejoin:miter;" x="93.575392" xlink:href="#m34232f14b1" y="127.44871"/>
     <use style="fill:#081d58;stroke:#081d58;stroke-linejoin:miter;" x="101.694462" xlink:href="#m34232f14b1" y="146.107552"/>
     <use style="fill:#081d58;stroke:#081d58;stroke-linejoin:miter;" x="109.813532" xlink:href="#m34232f14b1" y="144.169934"/>
     <use style="fill:#081d58;stroke:#081d58;stroke-linejoin:miter;" x="117.932602" xlink:href="#m34232f14b1" y="137.128243"/>
     <use style="fill:#081d58;stroke:#081d58;stroke-linejoin:miter;" x="126.051672" xlink:href="#m34232f14b1" y="120.973947"/>
     <use style="fill:#081d58;stroke:#081d58;stroke-linejoin:miter;" x="134.170742" xlink:href="#m34232f14b1" y="102.964896"/>
     <use style="fill:#081d58;stroke:#081d58;stroke-linejoin:miter;" x="142.289812" xlink:href="#m34232f14b1" y="109.790859"/>
     <use style="fill:#081d58;stroke:#081d58;stroke-linejoin:miter;" x="150.408882" xlink:href="#m34232f14b1" y="141.215239"/>
     <use style="fill:#081d58;stroke:#081d58;stroke-linejoin:miter;" x="158.527952" xlink:href="#m34232f14b1" y="164.056644"/>
     <use style="fill:#081d58;stroke:#081d58;stroke-linejoin:miter;" x="166.647022" xlink:href="#m34232f14b1" y="188.391121"/>
     <use style="fill:#081d58;stroke:#081d58;stroke-linejoin:miter;" x="174.766092" xlink:href="#m34232f14b1" y="162.119747"/>
     <use style="fill:#081d58;stroke:#081d58;stroke-linejoin:miter;" x="182.885162" xlink:href="#m34232f14b1" y="102.322687"/>
     <use style="fill:#081d58;stroke:#081d58;stroke-linejoin:miter;" x="191.004232" xlink:href="#m34232f14b1" y="75.154817"/>
     <use style="fill:#081d58;stroke:#081d58;stroke-linejoin:miter;" x="199.123302" xlink:href="#m34232f14b1" y="67.540561"/>
     <use style="fill:#081d58;stroke:#081d58;stroke-linejoin:miter;" x="207.242372" xlink:href="#m34232f14b1" y="64.220155"/>
     <use style="fill:#081d58;stroke:#081d58;stroke-linejoin:miter;" x="215.361442" xlink:href="#m34232f14b1" y="61.126566"/>
     <use style="fill:#081d58;stroke:#081d58;stroke-linejoin:miter;" x="223.480512" xlink:href="#m34232f14b1" y="56.366144"/>
     <use style="fill:#081d58;stroke:#081d58;stroke-linejoin:miter;" x="231.599582" xlink:href="#m34232f14b1" y="49.908888"/>
     <use style="fill:#081d58;stroke:#081d58;stroke-linejoin:miter;" x="239.718652" xlink:href="#m34232f14b1" y="49.110688"/>
     <use style="fill:#081d58;stroke:#081d58;stroke-linejoin:miter;" x="247.837722" xlink:href="#m34232f14b1" y="49.599395"/>
     <use style="fill:#081d58;stroke:#081d58;stroke-linejoin:miter;" x="255.956792" xlink:href="#m34232f14b1" y="48.944003"/>
     <use style="fill:#081d58;stroke:#081d58;stroke-linejoin:miter;" x="264.075862" xlink:href="#m34232f14b1" y="47.371215"/>
     <use style="fill:#081d58;stroke:#081d58;stroke-linejoin:miter;" x="272.194932" xlink:href="#m34232f14b1" y="46.018015"/>
     <use style="fill:#081d58;stroke:#081d58;stroke-linejoin:miter;" x="280.314002" xlink:href="#m34232f14b1" y="44.93034"/>
     <use style="fill:#081d58;stroke:#081d58;stroke-linejoin:miter;" x="288.433072" xlink:href="#m34232f14b1" y="44.504198"/>
     <use style="fill:#081d58;stroke:#081d58;stroke-linejoin:miter;" x="296.552142" xlink:href="#m34232f14b1" y="45.098055"/>
     <use style="fill:#081d58;stroke:#081d58;stroke-linejoin:miter;" x="304.671212" xlink:href="#m34232f14b1" y="46.258914"/>
     <use style="fill:#081d58;stroke:#081d58;stroke-linejoin:miter;" x="312.790282" xlink:href="#m34232f14b1" y="48.004304"/>
     <use style="fill:#081d58;stroke:#081d58;stroke-linejoin:miter;" x="320.909352" xlink:href="#m34232f14b1" y="49.463852"/>
     <use style="fill:#081d58;stroke:#081d58;stroke-linejoin:miter;" x="329.028422" xlink:href="#m34232f14b1" y="50.616546"/>
     <use style="fill:#081d58;stroke:#081d58;stroke-linejoin:miter;" x="337.147492" xlink:href="#m34232f14b1" y="51.803287"/>
     <use style="fill:#081d58;stroke:#081d58;stroke-linejoin:miter;" x="345.266562" xlink:href="#m34232f14b1" y="56.197773"/>
     <use style="fill:#081d58;stroke:#081d58;stroke-linejoin:miter;" x="353.385632" xlink:href="#m34232f14b1" y="60.580724"/>
     <use style="fill:#081d58;stroke:#081d58;stroke-linejoin:miter;" x="361.504702" xlink:href="#m34232f14b1" y="63.402928"/>
     <use style="fill:#081d58;stroke:#081d58;stroke-linejoin:miter;" x="369.623772" xlink:href="#m34232f14b1" y="65.29712"/>
    </g>
   </g>
   <g id="patch_3">
    <path d="M 54 252 
L 54 34.56 
" style="fill:none;stroke:#000000;stroke-linecap:square;stroke-linejoin:miter;stroke-width:0.8;"/>
   </g>
   <g id="patch_4">
    <path d="M 388.8 252 
L 388.8 34.56 
" style="fill:none;stroke:#000000;stroke-linecap:square;stroke-linejoin:miter;stroke-width:0.8;"/>
   </g>
   <g id="patch_5">
    <path d="M 54 252 
L 388.8 252 
" style="fill:none;stroke:#000000;stroke-linecap:square;stroke-linejoin:miter;stroke-width:0.8;"/>
   </g>
   <g id="patch_6">
    <path d="M 54 34.56 
L 388.8 34.56 
" style="fill:none;stroke:#000000;stroke-linecap:square;stroke-linejoin:miter;stroke-width:0.8;"/>
   </g>
   <g id="legend_1">
    <g id="patch_7">
     <path d="M 280.085938 247 
L 381.8 247 
Q 383.8 247 383.8 245 
L 383.8 216.64375 
Q 383.8 214.64375 381.8 214.64375 
L 280.085938 214.64375 
Q 278.085938 214.64375 278.085938 216.64375 
L 278.085938 245 
Q 278.085938 247 280.085938 247 
z
" style="fill:#ffffff;opacity:0.8;stroke:#cccccc;stroke-linejoin:miter;"/>
    </g>
    <g id="line2d_15">
     <path d="M 282.085938 222.742188 
L 302.085938 222.742188 
" style="fill:none;stroke:#40b5c4;stroke-dasharray:5.55,2.4;stroke-dashoffset:0;stroke-width:1.5;"/>
    </g>
    <g id="line2d_16">
     <g>
      <use style="fill:#40b5c4;stroke:#40b5c4;" x="292.085938" xlink:href="#mc1e656b742" y="222.742188"/>
     </g>
    </g>
    <g id="text_15">
     <text style="font-family:DejaVu Sans;font-size:10px;font-style:normal;font-weight:normal;text-anchor:start;" transform="rotate(-0, 310.085938, 226.242188)" x="310.085938" y="226.242188">original</text>
    </g>
    <g id="line2d_17">
     <path d="M 282.085938 237.420312 
L 302.085938 237.420312 
" style="fill:none;stroke:#081d58;stroke-dasharray:5.55,2.4;stroke-dashoffset:0;stroke-width:1.5;"/>
    </g>
    <g id="line2d_18">
     <g>
      <use style="fill:#081d58;stroke:#081d58;stroke-linejoin:miter;" x="292.085938" xlink:href="#m34232f14b1" y="237.420312"/>
     </g>
    </g>
    <g id="text_16">
     <text style="font-family:DejaVu Sans;font-size:10px;font-style:normal;font-weight:normal;text-anchor:start;" transform="rotate(-0, 310.085938, 240.920312)" x="310.085938" y="240.920312">reconstructed</text>
    </g>
   </g>
  </g>
  <g id="text_17">
   <text style="font-family:DejaVu Sans;font-size:12px;font-style:normal;font-weight:normal;text-anchor:middle;" transform="rotate(-0, 216, 14.878125)" x="216" y="14.878125">Reconstruction of the temperature curve</text>
  </g>
 </g>
 <defs>
  <clipPath id="pd1d51aa205">
   <rect height="217.44" width="334.8" x="54" y="34.56"/>
  </clipPath>
 </defs>
</svg>
