<?xml version="1.0" encoding="utf-8" standalone="no"?>
<!DOCTYPE svg PUBLIC "-//W3C//DTD SVG 1.1//EN"
  "http://www.w3.org/Graphics/SVG/1.1/DTD/svg11.dtd">
<!-- Created with matplotlib (https://matplotlib.org/) -->
<svg height="288pt" version="1.1" viewBox="0 0 432 288" width="432pt" xmlns="http://www.w3.org/2000/svg" xmlns:xlink="http://www.w3.org/1999/xlink">
 <defs>
  <style type="text/css">
*{stroke-linecap:butt;stroke-linejoin:round;}
  </style>
 </defs>
 <g id="figure_1">
  <g id="patch_1">
   <path d="M 0 288 
L 432 288 
L 432 0 
L 0 0 
z
" style="fill:#ffffff;"/>
  </g>
  <g id="axes_1">
   <g id="patch_2">
    <path d="M 54 252 
L 388.8 252 
L 388.8 34.56 
L 54 34.56 
z
" style="fill:#ffffff;"/>
   </g>
   <g id="matplotlib.axis_1">
    <g id="xtick_1">
     <g id="line2d_1">
      <defs>
       <path d="M 0 0 
L 0 3.5 
" id="mb2dbdad62e" style="stroke:#000000;stroke-width:0.8;"/>
      </defs>
      <g>
       <use style="stroke:#000000;stroke-width:0.8;" x="69.218182" xlink:href="#mb2dbdad62e" y="252"/>
      </g>
     </g>
     <g id="text_1">
      <text style="font-family:DejaVu Sans;font-size:10px;font-style:normal;font-weight:normal;text-anchor:middle;" transform="rotate(-0, 69.218182, 266.598437)" x="69.218182" y="266.598437">0</text>
     </g>
    </g>
    <g id="xtick_2">
     <g id="line2d_2">
      <g>
       <use style="stroke:#000000;stroke-width:0.8;" x="119.962369" xlink:href="#mb2dbdad62e" y="252"/>
      </g>
     </g>
     <g id="text_2">
      <text style="font-family:DejaVu Sans;font-size:10px;font-style:normal;font-weight:normal;text-anchor:middle;" transform="rotate(-0, 119.962369, 266.598437)" x="119.962369" y="266.598437">500</text>
     </g>
    </g>
    <g id="xtick_3">
     <g id="line2d_3">
      <g>
       <use style="stroke:#000000;stroke-width:0.8;" x="170.706557" xlink:href="#mb2dbdad62e" y="252"/>
      </g>
     </g>
     <g id="text_3">
      <text style="font-family:DejaVu Sans;font-size:10px;font-style:normal;font-weight:normal;text-anchor:middle;" transform="rotate(-0, 170.706557, 266.598437)" x="170.706557" y="266.598437">1000</text>
     </g>
    </g>
    <g id="xtick_4">
     <g id="line2d_4">
      <g>
       <use style="stroke:#000000;stroke-width:0.8;" x="221.450744" xlink:href="#mb2dbdad62e" y="252"/>
      </g>
     </g>
     <g id="text_4">
      <text style="font-family:DejaVu Sans;font-size:10px;font-style:normal;font-weight:normal;text-anchor:middle;" transform="rotate(-0, 221.450744, 266.598437)" x="221.450744" y="266.598437">1500</text>
     </g>
    </g>
    <g id="xtick_5">
     <g id="line2d_5">
      <g>
       <use style="stroke:#000000;stroke-width:0.8;" x="272.194932" xlink:href="#mb2dbdad62e" y="252"/>
      </g>
     </g>
     <g id="text_5">
      <text style="font-family:DejaVu Sans;font-size:10px;font-style:normal;font-weight:normal;text-anchor:middle;" transform="rotate(-0, 272.194932, 266.598437)" x="272.194932" y="266.598437">2000</text>
     </g>
    </g>
    <g id="xtick_6">
     <g id="line2d_6">
      <g>
       <use style="stroke:#000000;stroke-width:0.8;" x="322.939119" xlink:href="#mb2dbdad62e" y="252"/>
      </g>
     </g>
     <g id="text_6">
      <text style="font-family:DejaVu Sans;font-size:10px;font-style:normal;font-weight:normal;text-anchor:middle;" transform="rotate(-0, 322.939119, 266.598437)" x="322.939119" y="266.598437">2500</text>
     </g>
    </g>
    <g id="xtick_7">
     <g id="line2d_7">
      <g>
       <use style="stroke:#000000;stroke-width:0.8;" x="373.683307" xlink:href="#mb2dbdad62e" y="252"/>
      </g>
     </g>
     <g id="text_7">
      <text style="font-family:DejaVu Sans;font-size:10px;font-style:normal;font-weight:normal;text-anchor:middle;" transform="rotate(-0, 373.683307, 266.598437)" x="373.683307" y="266.598437">3000</text>
     </g>
    </g>
    <g id="text_8">
     <text style="font-family:DejaVu Sans;font-size:10px;font-style:normal;font-weight:normal;text-anchor:middle;" transform="rotate(-0, 221.4, 280.276563)" x="221.4" y="280.276563">Time</text>
    </g>
   </g>
   <g id="matplotlib.axis_2">
    <g id="ytick_1">
     <g id="line2d_8">
      <defs>
       <path d="M 0 0 
L -3.5 0 
" id="mf5b61087c9" style="stroke:#000000;stroke-width:0.8;"/>
      </defs>
      <g>
       <use style="stroke:#000000;stroke-width:0.8;" x="54" xlink:href="#mf5b61087c9" y="231.508367"/>
      </g>
     </g>
     <g id="text_9">
      <text style="font-family:DejaVu Sans;font-size:10px;font-style:normal;font-weight:normal;text-anchor:end;" transform="rotate(-0, 47, 235.307586)" x="47" y="235.307586">60</text>
     </g>
    </g>
    <g id="ytick_2">
     <g id="line2d_9">
      <g>
       <use style="stroke:#000000;stroke-width:0.8;" x="54" xlink:href="#mf5b61087c9" y="183.872618"/>
      </g>
     </g>
     <g id="text_10">
      <text style="font-family:DejaVu Sans;font-size:10px;font-style:normal;font-weight:normal;text-anchor:end;" transform="rotate(-0, 47, 187.671836)" x="47" y="187.671836">65</text>
     </g>
    </g>
    <g id="ytick_3">
     <g id="line2d_10">
      <g>
       <use style="stroke:#000000;stroke-width:0.8;" x="54" xlink:href="#mf5b61087c9" y="136.236868"/>
      </g>
     </g>
     <g id="text_11">
      <text style="font-family:DejaVu Sans;font-size:10px;font-style:normal;font-weight:normal;text-anchor:end;" transform="rotate(-0, 47, 140.036087)" x="47" y="140.036087">70</text>
     </g>
    </g>
    <g id="ytick_4">
     <g id="line2d_11">
      <g>
       <use style="stroke:#000000;stroke-width:0.8;" x="54" xlink:href="#mf5b61087c9" y="88.601119"/>
      </g>
     </g>
     <g id="text_12">
      <text style="font-family:DejaVu Sans;font-size:10px;font-style:normal;font-weight:normal;text-anchor:end;" transform="rotate(-0, 47, 92.400337)" x="47" y="92.400337">75</text>
     </g>
    </g>
    <g id="ytick_5">
     <g id="line2d_12">
      <g>
       <use style="stroke:#000000;stroke-width:0.8;" x="54" xlink:href="#mf5b61087c9" y="40.965369"/>
      </g>
     </g>
     <g id="text_13">
      <text style="font-family:DejaVu Sans;font-size:10px;font-style:normal;font-weight:normal;text-anchor:end;" transform="rotate(-0, 47, 44.764588)" x="47" y="44.764588">80</text>
     </g>
    </g>
    <g id="text_14">
     <text style="font-family:DejaVu Sans;font-size:10px;font-style:normal;font-weight:normal;text-anchor:middle;" transform="rotate(-90, 28.195312, 143.28)" x="28.195312" y="143.28">weight (\%)</text>
    </g>
   </g>
   <g id="line2d_13">
    <path clip-path="url(#p0501b2e5dc)" d="M 69.218182 44.443636 
L 87.283113 44.910848 
L 91.850089 45.281168 
L 96.82302 45.884808 
L 112.147764 48.003646 
L 129.603765 50.229189 
L 133.866277 51.070627 
L 137.41837 51.987329 
L 140.564509 53.023121 
L 143.203207 54.12665 
L 145.638928 55.396905 
L 147.973161 56.876758 
L 149.799951 58.319359 
L 151.728231 60.14457 
L 153.65651 62.289894 
L 155.584789 64.839264 
L 157.614556 67.894716 
L 159.847301 71.669658 
L 161.877068 75.537491 
L 163.906836 79.891017 
L 166.038091 85.019577 
L 168.879766 92.494484 
L 172.533347 102.024873 
L 174.25865 105.920143 
L 175.679487 108.634619 
L 176.694371 110.16506 
L 177.709255 111.351381 
L 178.724138 112.18615 
L 179.941999 112.871533 
L 182.174743 113.804622 
L 185.016418 114.74257 
L 188.568511 115.656319 
L 190.699767 116.024734 
L 196.07865 117.040233 
L 202.97986 118.148336 
L 209.881069 119.049699 
L 216.985256 119.753375 
L 224.901349 120.319383 
L 236.06507 120.869575 
L 247.837722 121.245612 
L 260.320792 121.474645 
L 276.964885 121.552196 
L 294.319397 121.565057 
L 310.050095 121.558769 
L 373.581818 121.065263 
L 373.581818 121.065263 
" style="fill:none;stroke:#40b5c4;stroke-dasharray:5.55,2.4;stroke-dashoffset:0;stroke-width:1.5;"/>
    <defs>
     <path d="M 0 3 
C 0.795609 3 1.55874 2.683901 2.12132 2.12132 
C 2.683901 1.55874 3 0.795609 3 0 
C 3 -0.795609 2.683901 -1.55874 2.12132 -2.12132 
C 1.55874 -2.683901 0.795609 -3 0 -3 
C -0.795609 -3 -1.55874 -2.683901 -2.12132 -2.12132 
C -2.683901 -1.55874 -3 -0.795609 -3 0 
C -3 0.795609 -2.683901 1.55874 -2.12132 2.12132 
C -1.55874 2.683901 -0.795609 3 0 3 
z
" id="md89414b074" style="stroke:#40b5c4;"/>
    </defs>
    <g clip-path="url(#p0501b2e5dc)">
     <use style="fill:#40b5c4;stroke:#40b5c4;" x="69.218182" xlink:href="#md89414b074" y="44.443636"/>
     <use style="fill:#40b5c4;stroke:#40b5c4;" x="77.337252" xlink:href="#md89414b074" y="44.599786"/>
     <use style="fill:#40b5c4;stroke:#40b5c4;" x="85.456322" xlink:href="#md89414b074" y="44.821864"/>
     <use style="fill:#40b5c4;stroke:#40b5c4;" x="93.575392" xlink:href="#md89414b074" y="45.470758"/>
     <use style="fill:#40b5c4;stroke:#40b5c4;" x="101.694462" xlink:href="#md89414b074" y="46.621829"/>
     <use style="fill:#40b5c4;stroke:#40b5c4;" x="109.813532" xlink:href="#md89414b074" y="47.727359"/>
     <use style="fill:#40b5c4;stroke:#40b5c4;" x="117.932602" xlink:href="#md89414b074" y="48.67874"/>
     <use style="fill:#40b5c4;stroke:#40b5c4;" x="126.051672" xlink:href="#md89414b074" y="49.674709"/>
     <use style="fill:#40b5c4;stroke:#40b5c4;" x="134.170742" xlink:href="#md89414b074" y="51.140365"/>
     <use style="fill:#40b5c4;stroke:#40b5c4;" x="142.289812" xlink:href="#md89414b074" y="53.715554"/>
     <use style="fill:#40b5c4;stroke:#40b5c4;" x="150.408882" xlink:href="#md89414b074" y="58.863835"/>
     <use style="fill:#40b5c4;stroke:#40b5c4;" x="158.527952" xlink:href="#md89414b074" y="69.386001"/>
     <use style="fill:#40b5c4;stroke:#40b5c4;" x="166.647022" xlink:href="#md89414b074" y="86.574313"/>
     <use style="fill:#40b5c4;stroke:#40b5c4;" x="174.766092" xlink:href="#md89414b074" y="106.950505"/>
     <use style="fill:#40b5c4;stroke:#40b5c4;" x="182.885162" xlink:href="#md89414b074" y="114.06195"/>
     <use style="fill:#40b5c4;stroke:#40b5c4;" x="191.004232" xlink:href="#md89414b074" y="116.087804"/>
     <use style="fill:#40b5c4;stroke:#40b5c4;" x="199.123302" xlink:href="#md89414b074" y="117.551841"/>
     <use style="fill:#40b5c4;stroke:#40b5c4;" x="207.242372" xlink:href="#md89414b074" y="118.731397"/>
     <use style="fill:#40b5c4;stroke:#40b5c4;" x="215.361442" xlink:href="#md89414b074" y="119.610181"/>
     <use style="fill:#40b5c4;stroke:#40b5c4;" x="223.480512" xlink:href="#md89414b074" y="120.230685"/>
     <use style="fill:#40b5c4;stroke:#40b5c4;" x="231.599582" xlink:href="#md89414b074" y="120.675031"/>
     <use style="fill:#40b5c4;stroke:#40b5c4;" x="239.718652" xlink:href="#md89414b074" y="121.006004"/>
     <use style="fill:#40b5c4;stroke:#40b5c4;" x="247.837722" xlink:href="#md89414b074" y="121.245612"/>
     <use style="fill:#40b5c4;stroke:#40b5c4;" x="255.956792" xlink:href="#md89414b074" y="121.412337"/>
     <use style="fill:#40b5c4;stroke:#40b5c4;" x="264.075862" xlink:href="#md89414b074" y="121.513992"/>
     <use style="fill:#40b5c4;stroke:#40b5c4;" x="272.194932" xlink:href="#md89414b074" y="121.55191"/>
     <use style="fill:#40b5c4;stroke:#40b5c4;" x="280.314002" xlink:href="#md89414b074" y="121.548385"/>
     <use style="fill:#40b5c4;stroke:#40b5c4;" x="288.433072" xlink:href="#md89414b074" y="121.541525"/>
     <use style="fill:#40b5c4;stroke:#40b5c4;" x="296.552142" xlink:href="#md89414b074" y="121.579158"/>
     <use style="fill:#40b5c4;stroke:#40b5c4;" x="304.671212" xlink:href="#md89414b074" y="121.59421"/>
     <use style="fill:#40b5c4;stroke:#40b5c4;" x="312.790282" xlink:href="#md89414b074" y="121.538572"/>
     <use style="fill:#40b5c4;stroke:#40b5c4;" x="320.909352" xlink:href="#md89414b074" y="121.4816"/>
     <use style="fill:#40b5c4;stroke:#40b5c4;" x="329.028422" xlink:href="#md89414b074" y="121.417387"/>
     <use style="fill:#40b5c4;stroke:#40b5c4;" x="337.147492" xlink:href="#md89414b074" y="121.34479"/>
     <use style="fill:#40b5c4;stroke:#40b5c4;" x="345.266562" xlink:href="#md89414b074" y="121.26762"/>
     <use style="fill:#40b5c4;stroke:#40b5c4;" x="353.385632" xlink:href="#md89414b074" y="121.185686"/>
     <use style="fill:#40b5c4;stroke:#40b5c4;" x="361.504702" xlink:href="#md89414b074" y="121.108516"/>
     <use style="fill:#40b5c4;stroke:#40b5c4;" x="369.623772" xlink:href="#md89414b074" y="121.066406"/>
    </g>
   </g>
   <g id="line2d_14">
    <path clip-path="url(#p0501b2e5dc)" d="M 69.218182 205.021194 
L 69.421159 205.442739 
L 69.522647 205.309468 
L 69.624135 205.435652 
L 69.725624 204.824868 
L 69.827112 205.576554 
L 69.9286 205.089156 
L 70.131577 205.578408 
L 70.233066 205.054666 
L 70.334554 205.701757 
L 70.537531 205.136402 
L 70.639019 205.52949 
L 70.740507 205.063207 
L 70.841996 205.744642 
L 70.943484 205.12946 
L 71.146461 205.610244 
L 71.247949 205.318845 
L 71.349438 205.876713 
L 71.450926 205.367908 
L 71.653903 205.452442 
L 71.755391 205.245977 
L 71.85688 205.6564 
L 72.059856 205.42086 
L 72.668787 205.716839 
L 72.770275 205.467161 
L 72.871763 205.561726 
L 73.07474 205.4145 
L 73.176228 205.721963 
L 73.277717 205.144397 
L 73.480694 205.657999 
L 73.582182 205.352862 
L 73.68367 205.922541 
L 73.785159 205.441503 
L 73.886647 205.666249 
L 73.988135 205.523602 
L 74.089624 205.060081 
L 74.191112 205.804244 
L 74.292601 205.355806 
L 74.394089 205.489585 
L 74.597066 205.121792 
L 74.698554 205.578844 
L 74.800042 205.283737 
L 74.901531 205.66276 
L 75.104508 205.105183 
L 75.205996 205.667194 
L 75.307484 205.041292 
L 75.510461 205.388333 
L 75.611949 205.023011 
L 75.713438 205.443029 
L 75.814926 204.832573 
L 76.017903 205.226133 
L 76.119391 205.173763 
L 76.22088 205.435942 
L 76.423856 204.871133 
L 76.525345 205.164895 
L 76.626833 204.690689 
L 76.728322 205.199857 
L 76.931298 204.380245 
L 77.032787 205.119757 
L 77.134275 204.513698 
L 77.235763 205.090064 
L 77.337252 204.939567 
L 77.43874 204.372686 
L 77.540229 204.949162 
L 77.641717 204.206852 
L 77.743205 204.676806 
L 77.844694 204.224588 
L 78.04767 204.531615 
L 78.149159 203.990828 
L 78.250647 204.372868 
L 78.453624 204.107163 
L 78.555112 204.378138 
L 78.656601 203.953504 
L 78.758089 204.180721 
L 78.961066 203.636518 
L 79.062554 204.038256 
L 79.164043 203.584257 
L 79.265531 203.686454 
L 79.468508 203.332544 
L 79.569996 203.67148 
L 79.772973 203.579714 
L 79.97595 202.848125 
L 80.077438 203.400978 
L 80.280415 202.899733 
L 80.381903 203.107798 
L 80.483391 202.399614 
L 80.58488 202.929171 
L 80.686368 202.499776 
L 80.787857 202.747346 
L 80.990833 202.236833 
L 81.092322 202.691813 
L 81.295298 201.924027 
L 81.396787 202.048248 
L 81.498275 201.678747 
L 81.599764 201.753977 
L 81.701252 201.386221 
L 81.904229 201.442334 
L 82.005717 201.182553 
L 82.107205 201.406246 
L 82.310182 200.464012 
L 82.411671 200.995131 
L 82.513159 200.288511 
L 82.614647 200.669496 
L 82.817624 199.79944 
L 82.919112 200.32827 
L 83.020601 199.846141 
L 83.122089 200.405863 
L 83.325066 199.69241 
L 83.426554 200.042068 
L 83.528043 199.584688 
L 83.629531 199.776435 
L 83.832508 199.378368 
L 83.933996 199.609765 
L 84.035485 199.082644 
L 84.136973 199.540459 
L 84.238461 199.153949 
L 84.441438 199.371499 
L 84.542926 198.817193 
L 84.644415 199.201559 
L 84.847392 198.553051 
L 85.050368 198.877704 
L 85.253345 198.52354 
L 85.354833 198.277606 
L 85.456322 198.867092 
L 85.55781 198.348947 
L 85.760787 198.351528 
L 85.862275 197.696987 
L 85.963764 198.443003 
L 86.065252 197.908431 
L 86.16674 198.002051 
L 86.268229 197.872888 
L 86.369717 197.403843 
L 86.471206 198.124419 
L 86.572694 197.474021 
L 86.674182 197.86929 
L 86.877159 197.102666 
L 86.978647 197.62063 
L 87.080136 197.530462 
L 87.384601 196.762131 
L 87.486089 197.145879 
L 87.689066 196.680504 
L 87.790554 197.067813 
L 87.892043 196.008409 
L 87.993531 196.993382 
L 88.196508 196.41171 
L 88.297996 196.8648 
L 88.399485 196.169591 
L 88.500973 196.536658 
L 88.70395 195.889531 
L 88.805438 196.347927 
L 88.906927 195.916679 
L 89.008415 196.361701 
L 89.109903 196.18282 
L 89.211392 195.710286 
L 89.31288 196.200665 
L 89.414368 195.793003 
L 89.515857 196.039337 
L 89.617345 195.690007 
L 89.718834 195.787697 
L 89.820322 196.170609 
L 89.92181 195.866198 
L 90.023299 196.123145 
L 90.226275 195.585229 
L 90.327764 196.028325 
L 90.429252 195.72555 
L 90.530741 196.029706 
L 90.733717 195.436585 
L 90.835206 196.144914 
L 90.936694 195.636001 
L 91.038182 196.296175 
L 91.241159 195.828365 
L 91.342648 195.950878 
L 91.444136 195.696585 
L 91.545624 196.034903 
L 91.748601 195.506473 
L 91.850089 195.965742 
L 91.951578 195.724242 
L 92.053066 195.833162 
L 92.154555 196.308531 
L 92.256043 195.713157 
L 92.357531 196.245912 
L 92.45902 195.56942 
L 92.661996 195.989584 
L 92.763485 195.588791 
L 92.864973 196.436859 
L 92.966462 195.481942 
L 93.169438 196.106318 
L 93.270927 195.843011 
L 93.372415 196.497625 
L 93.473903 195.705452 
L 93.67688 196.047951 
L 93.778369 195.664421 
L 93.879857 196.241951 
L 93.981345 196.176351 
L 94.082834 195.651374 
L 94.184322 196.066885 
L 94.28581 195.881644 
L 94.387299 196.520848 
L 94.590276 195.973084 
L 94.691764 196.483233 
L 94.793252 195.611324 
L 94.894741 196.482579 
L 94.996229 195.968432 
L 95.097717 196.292213 
L 95.300694 195.998633 
L 95.503671 196.35516 
L 95.605159 196.24017 
L 95.706648 196.609489 
L 95.808136 196.074227 
L 95.909624 196.451651 
L 96.112601 196.057436 
L 96.21409 196.941811 
L 96.315578 195.93158 
L 96.417066 196.823078 
L 96.620043 196.230939 
L 96.721531 196.869598 
L 96.82302 196.221744 
L 96.924508 196.856405 
L 97.127485 196.329029 
L 97.330462 196.851063 
L 97.43195 196.934216 
L 97.634927 196.422976 
L 97.736415 196.982152 
L 97.939392 196.794476 
L 98.04088 197.014789 
L 98.142369 196.290214 
L 98.243857 197.297502 
L 98.345345 196.721717 
L 98.446834 197.320653 
L 98.548322 197.23332 
L 98.649811 196.740906 
L 98.751299 197.314329 
L 98.954276 197.017442 
L 99.055764 197.165395 
L 99.157252 196.783392 
L 99.258741 197.108627 
L 99.461718 196.763657 
L 99.563206 197.138428 
L 100.070648 196.632531 
L 100.273625 196.690753 
L 100.375113 196.394701 
L 100.476601 196.549559 
L 100.57809 196.494645 
L 100.679578 196.98884 
L 100.781066 196.474801 
L 100.882555 196.590518 
L 101.085532 196.241696 
L 101.288508 196.384016 
L 101.389997 196.050168 
L 101.592973 196.313692 
L 101.694462 196.296574 
L 101.79595 196.483415 
L 101.998927 196.117802 
L 102.100415 196.001577 
L 102.201904 196.136846 
L 102.303392 196.026944 
L 102.40488 196.137537 
L 102.506369 195.883352 
L 102.709346 196.125907 
L 102.810834 195.961418 
L 102.912322 196.127688 
L 103.013811 195.914135 
L 103.115299 196.066558 
L 103.318276 195.744085 
L 103.419764 195.799327 
L 103.521253 196.018803 
L 103.622741 195.687572 
L 103.724229 195.960654 
L 103.927206 195.810666 
L 104.130183 195.701745 
L 104.231671 195.855368 
L 104.33316 195.275658 
L 104.434648 195.711267 
L 104.536136 195.439602 
L 104.637625 195.964034 
L 104.739113 195.293539 
L 104.840601 195.769089 
L 104.94209 195.365098 
L 105.043578 195.630186 
L 105.145067 195.260866 
L 105.55102 195.54547 
L 105.652508 195.569274 
L 105.753997 195.304151 
L 105.855485 195.343729 
L 105.956974 195.172698 
L 106.15995 195.315163 
L 106.362927 195.150783 
L 106.464415 195.243312 
L 106.565904 195.685464 
L 106.768881 195.267263 
L 106.971857 195.068175 
L 107.073346 195.273913 
L 107.276322 195.091616 
L 107.377811 194.967395 
L 107.479299 195.054073 
L 107.580788 195.526898 
L 107.885253 195.118946 
L 108.088229 195.035393 
L 108.189718 195.240623 
L 108.291206 195.175605 
L 108.392695 194.938902 
L 108.595671 195.556082 
L 108.798648 195.569274 
L 109.001625 195.51545 
L 109.204602 195.816626 
L 109.407578 195.633202 
L 109.610555 196.120928 
L 109.712043 196.047987 
L 109.813532 196.257796 
L 109.91502 196.013715 
L 110.016509 196.179186 
L 110.219485 196.11166 
L 111.031392 196.262266 
L 111.132881 196.145932 
L 111.234369 196.318453 
L 111.640323 196.119329 
L 111.843299 196.392593 
L 112.046276 196.224397 
L 112.249253 196.345129 
L 112.350741 196.252454 
L 112.553718 196.275314 
L 112.655206 196.126416 
L 112.959671 196.397936 
L 113.264137 196.472476 
L 113.365625 196.233228 
L 113.467113 196.366353 
L 113.568602 196.289015 
L 113.67009 196.519467 
L 113.771578 196.368389 
L 113.873067 196.426065 
L 113.974555 196.249873 
L 114.27902 196.574091 
L 114.380509 196.329102 
L 114.684974 196.688354 
L 114.786462 196.558645 
L 114.887951 196.3645 
L 114.989439 196.505293 
L 115.090927 196.44122 
L 115.192416 196.707652 
L 115.598369 196.512562 
L 115.801346 196.77009 
L 116.004323 196.500714 
L 116.207299 196.846156 
L 116.308788 196.691371 
L 116.410276 196.696822 
L 116.511765 196.522447 
L 116.81623 197.029798 
L 116.917718 196.500787 
L 117.019206 196.754462 
L 117.120695 196.556646 
L 117.222183 196.997271 
L 117.323672 196.760604 
L 117.42516 196.923349 
L 117.526648 196.593971 
L 117.831113 196.933271 
L 118.135579 196.642525 
L 118.237067 196.933089 
L 118.338555 196.685955 
L 118.440044 196.807087 
L 118.541532 196.468151 
L 118.845997 196.618866 
L 119.048974 196.456812 
L 119.150462 196.557846 
L 120.063858 196.050168 
L 120.165346 196.271243 
L 120.672788 195.927909 
L 120.875765 195.963017 
L 120.977253 195.578869 
L 121.078741 196.088946 
L 121.281718 195.686445 
L 121.383207 196.040101 
L 121.484695 195.62557 
L 121.586183 196.112169 
L 121.687672 195.565131 
L 121.890648 196.016986 
L 121.992137 195.41438 
L 122.093625 196.011607 
L 122.296602 195.556736 
L 122.39809 195.794057 
L 122.499579 195.236298 
L 122.601067 195.625679 
L 122.804044 194.946061 
L 122.905532 195.170662 
L 123.007021 194.508489 
L 123.108509 194.955729 
L 123.311486 194.199536 
L 123.412974 194.685408 
L 123.514462 194.001756 
L 123.615951 194.313799 
L 123.818928 193.708358 
L 123.920416 193.953274 
L 124.021904 193.336821 
L 124.123393 193.713627 
L 124.326369 193.010532 
L 124.427858 193.337911 
L 124.529346 192.91146 
L 124.630835 193.075732 
L 124.833811 192.481375 
L 124.9353 192.732579 
L 125.036788 191.991614 
L 125.138276 192.628129 
L 125.341253 191.839118 
L 125.442742 192.179654 
L 125.54423 191.586388 
L 125.645718 191.868629 
L 125.848695 191.320065 
L 125.950183 191.569597 
L 126.051672 190.802974 
L 126.15316 191.393333 
L 126.356137 190.636885 
L 126.457625 190.952272 
L 126.559114 190.496383 
L 126.660602 190.553732 
L 126.863579 189.999717 
L 126.965067 190.418899 
L 127.066556 189.715513 
L 127.168044 190.149741 
L 127.371021 189.373741 
L 127.472509 189.816256 
L 127.573997 189.316537 
L 127.675486 189.371779 
L 127.878463 188.810058 
L 127.979951 189.14398 
L 128.081439 188.618893 
L 128.182928 188.915163 
L 128.385904 188.3485 
L 128.487393 188.586693 
L 128.69037 188.154137 
L 128.791858 187.986667 
L 128.893346 187.552003 
L 128.994835 187.964934 
L 129.2993 187.40881 
L 129.603765 187.496979 
L 129.806742 187.187989 
L 129.90823 187.154989 
L 130.111207 187.22942 
L 130.314184 186.829645 
L 130.415672 186.947179 
L 130.923114 186.604608 
L 131.024602 186.801152 
L 131.430556 186.348243 
L 131.633532 186.406683 
L 131.836509 186.125532 
L 131.937998 186.109032 
L 132.039486 186.48642 
L 132.242463 186.054081 
L 132.343951 186.054808 
L 132.445439 185.890682 
L 132.648416 186.069709 
L 132.851393 185.79321 
L 132.952881 185.817778 
L 133.05437 186.070654 
L 133.460323 185.758611 
L 133.561812 185.719361 
L 133.6633 185.812109 
L 133.764788 185.5524 
L 133.866277 185.626758 
L 133.967765 185.530376 
L 134.069253 185.803459 
L 134.27223 185.643694 
L 134.678184 185.650672 
L 134.779672 185.377371 
L 134.88116 185.555162 
L 134.982649 185.469974 
L 135.084137 185.729537 
L 135.591579 185.498976 
L 135.693067 185.655324 
L 135.794556 185.281789 
L 136.099021 185.874619 
L 136.301998 185.629448 
L 136.403486 185.615274 
L 136.504974 185.488073 
L 136.707951 185.794228 
L 136.80944 185.555671 
L 137.012416 185.697264 
L 137.113905 186.015485 
L 137.316881 185.829408 
L 137.621347 185.789794 
L 137.722835 186.166237 
L 137.824323 185.761373 
L 138.128788 186.263564 
L 138.331765 186.071381 
L 138.63623 186.045068 
L 138.737719 186.329563 
L 138.839207 185.871857 
L 139.143672 186.509534 
L 139.448137 186.221333 
L 139.549626 186.435031 
L 139.651114 186.332107 
L 139.752602 186.544569 
L 139.854091 186.3606 
L 139.955579 186.597049 
L 140.057068 186.536792 
L 140.158556 186.923411 
L 140.260044 186.695248 
L 140.970463 187.350807 
L 141.17344 187.846673 
L 141.274928 187.753271 
L 141.680882 188.332291 
L 141.78237 188.383898 
L 141.883858 188.248265 
L 142.188323 189.203219 
L 142.289812 189.008274 
L 143.101719 190.082506 
L 143.203207 190.391496 
L 143.304696 190.298385 
L 143.609161 190.727307 
L 143.710649 190.661599 
L 143.812137 191.051198 
L 143.913626 190.918618 
L 144.218091 191.661763 
L 144.319579 191.598454 
L 144.827021 192.378669 
L 144.92851 192.300241 
L 145.029998 192.669706 
L 145.131486 192.595856 
L 145.232975 193.059159 
L 145.334463 192.955654 
L 145.435951 193.045349 
L 145.53744 193.389155 
L 145.638928 193.156486 
L 145.841905 193.72602 
L 145.943393 193.710538 
L 146.7553 195.258613 
L 146.856789 195.646613 
L 146.958277 195.543398 
L 147.465719 196.761876 
L 147.567207 196.569366 
L 147.871672 197.58912 
L 147.973161 197.41689 
L 148.886556 199.598535 
L 148.988044 199.59312 
L 149.596975 201.113065 
L 149.799951 201.489726 
L 150.916324 203.733409 
L 151.220789 204.168583 
L 151.423765 204.689926 
L 151.626742 205.017741 
L 152.032696 205.655274 
L 152.235672 205.904152 
L 152.438649 206.628326 
L 152.743114 206.874551 
L 152.946091 207.319283 
L 153.047579 207.255319 
L 153.149068 207.30838 
L 153.453533 208.181453 
L 153.65651 208.180944 
L 153.960975 208.886583 
L 154.062463 208.681535 
L 154.26544 209.049219 
L 154.366928 209.552718 
L 154.468417 209.351703 
L 154.975859 209.862362 
L 155.077347 209.695946 
L 155.381812 210.485102 
L 155.4833 210.399114 
L 155.584789 210.57636 
L 155.686277 210.35881 
L 155.889254 210.774757 
L 155.990742 210.769524 
L 156.396696 211.523282 
L 156.498184 211.443072 
L 156.599673 211.567911 
L 156.701161 211.44071 
L 156.802649 211.865235 
L 156.904138 211.646849 
L 157.005626 211.74523 
L 157.208603 212.349544 
L 157.310091 212.203154 
L 157.41158 212.303025 
L 157.513068 212.163758 
L 157.716045 212.690698 
L 157.817533 212.398135 
L 158.121998 213.443111 
L 158.223487 213.055947 
L 158.324975 213.194669 
L 158.426463 213.075173 
L 158.527952 213.149167 
L 158.62944 213.511436 
L 158.730928 213.278585 
L 158.933905 214.108373 
L 159.035394 214.076428 
L 159.441347 214.592537 
L 159.542835 214.944158 
L 159.644324 214.858061 
L 159.847301 215.141501 
L 159.948789 215.666987 
L 160.050277 215.57046 
L 160.151766 215.690647 
L 160.253254 215.516636 
L 160.557719 216.255783 
L 160.659208 215.913503 
L 160.963673 216.997693 
L 161.065161 216.73326 
L 161.166649 217.212264 
L 161.268138 216.834367 
L 161.471115 217.46583 
L 161.572603 217.861317 
L 161.674091 217.461251 
L 161.978556 218.603408 
L 162.181533 218.617837 
L 162.485998 219.122862 
L 162.688975 219.349788 
L 162.99344 220.29184 
L 163.094929 220.041654 
L 163.399394 220.604174 
L 163.500882 220.653237 
L 163.60237 221.047597 
L 163.703859 220.947544 
L 163.906836 221.452969 
L 164.008324 221.858014 
L 164.109812 221.540592 
L 164.312789 221.925867 
L 164.414277 221.947236 
L 164.617254 222.687765 
L 164.718743 222.477883 
L 165.226184 223.551243 
L 165.327673 223.555495 
L 166.13958 225.099718 
L 166.241068 224.925125 
L 166.647022 225.800778 
L 166.74851 225.465403 
L 167.052975 226.526842 
L 167.154464 226.228028 
L 167.458929 226.801996 
L 167.966371 227.354377 
L 168.067859 227.606308 
L 168.169347 227.47529 
L 168.473812 227.667837 
L 168.575301 227.563386 
L 168.676789 227.848208 
L 168.778278 227.648393 
L 169.082743 228.23221 
L 169.184231 228.027344 
L 169.387208 228.201028 
L 169.590185 228.206443 
L 169.691673 228.564932 
L 169.793161 228.195322 
L 170.097626 229.003594 
L 170.199115 228.710814 
L 170.402092 228.760386 
L 170.50358 228.705362 
L 170.706557 229.107899 
L 170.808045 228.940539 
L 171.11251 229.536713 
L 171.213999 229.374331 
L 171.416975 229.454068 
L 171.72144 229.743614 
L 171.822929 229.638037 
L 172.025906 229.959202 
L 172.127394 230.355379 
L 172.228882 230.068159 
L 172.330371 230.218111 
L 172.431859 230.122311 
L 172.634836 230.362757 
L 172.837813 230.503987 
L 172.939301 230.709944 
L 173.040789 230.567042 
L 173.142278 231.127527 
L 173.243766 230.934763 
L 173.64972 231.183568 
L 173.751208 231.381529 
L 173.852696 231.203411 
L 174.25865 231.743362 
L 174.664603 231.975741 
L 174.766092 232.102724 
L 174.86758 231.991223 
L 175.070557 232.275863 
L 175.172045 232.586234 
L 175.273534 232.35749 
L 175.780975 232.87131 
L 175.882464 232.571042 
L 176.186929 233.264579 
L 176.491394 233.19331 
L 176.998836 233.550528 
L 177.100324 233.582473 
L 177.201813 234.002673 
L 177.303301 233.711201 
L 177.506278 233.950375 
L 177.607766 233.996059 
L 177.709255 233.74838 
L 177.810743 234.143539 
L 177.912231 234.01463 
L 178.318185 234.802042 
L 178.419673 234.716017 
L 178.521162 234.842419 
L 178.62265 234.756649 
L 178.825627 235.197347 
L 178.927115 234.751161 
L 179.23158 235.663012 
L 179.434557 235.524472 
L 179.536045 235.617292 
L 179.637534 235.550493 
L 179.84051 235.797373 
L 179.941999 235.653599 
L 180.246464 236.345755 
L 180.550929 236.285825 
L 180.855394 236.452241 
L 180.956883 236.416079 
L 181.058371 236.884906 
L 181.159859 236.810439 
L 181.362836 236.988848 
L 181.565813 237.043944 
L 181.667301 236.933461 
L 181.870278 237.415263 
L 181.971766 237.244777 
L 182.174743 237.358022 
L 182.276231 237.723235 
L 182.37772 237.68144 
L 182.479208 237.549478 
L 182.580697 237.78371 
L 182.682185 237.665376 
L 182.783673 238.006748 
L 182.885162 237.968152 
L 183.088138 237.888778 
L 183.189627 238.034805 
L 183.291115 238.396238 
L 183.392604 238.242034 
L 183.494092 238.304363 
L 183.59558 238.205836 
L 183.697069 238.535214 
L 183.798557 238.442648 
L 183.900045 238.605611 
L 184.001534 238.453079 
L 184.610464 239.048635 
L 184.813441 238.917181 
L 185.016418 239.153848 
L 185.117906 239.051651 
L 185.219394 239.201894 
L 185.422371 239.638812 
L 185.523859 239.413448 
L 185.929813 239.655166 
L 186.031301 239.425768 
L 186.335766 240.105313 
L 186.437255 240.084016 
L 186.640232 239.886963 
L 186.944697 240.020052 
L 187.147673 240.091394 
L 187.35065 240.370473 
L 187.553627 240.185123 
L 187.756604 240.125593 
L 188.162557 240.308762 
L 188.264046 240.239419 
L 188.467022 240.38959 
L 188.568511 240.114399 
L 188.872976 240.696908 
L 188.974464 240.423025 
L 189.075953 240.476377 
L 189.278929 240.19857 
L 189.481906 240.597109 
L 189.583394 240.173711 
L 189.786371 240.67452 
L 189.88786 240.537034 
L 189.989348 240.6139 
L 190.192325 240.520534 
L 190.801255 240.660019 
L 190.902743 240.850021 
L 191.004232 240.600962 
L 191.10572 240.709955 
L 191.207208 240.503962 
L 191.308697 240.677028 
L 191.410185 240.628582 
L 191.511674 240.887382 
L 191.613162 240.592421 
L 191.816139 240.699742 
L 191.917627 241.022179 
L 192.120604 240.67681 
L 192.526557 240.921145 
L 192.628046 240.662563 
L 192.831022 240.991433 
L 192.932511 240.909079 
L 193.033999 240.979076 
L 193.338464 240.883166 
L 193.439953 241.006915 
L 193.642929 240.898467 
L 194.150371 241.068589 
L 194.353348 240.918528 
L 194.556325 241.080982 
L 194.657813 240.888218 
L 194.962278 241.357845 
L 195.063767 241.105332 
L 195.165255 241.212 
L 195.266743 241.002154 
L 195.46972 241.138005 
L 195.672697 241.143929 
L 195.774185 241.311471 
L 195.875674 241.184233 
L 195.977162 241.405345 
L 196.281627 241.2116 
L 196.484604 241.26706 
L 196.890557 241.257792 
L 196.992046 241.624677 
L 197.093534 241.324773 
L 197.195023 241.402583 
L 197.296511 241.317504 
L 197.499488 241.374817 
L 197.702464 241.393934 
L 198.108418 241.543086 
L 198.311395 241.441071 
L 199.021813 241.757257 
L 199.123302 241.480467 
L 199.22479 241.702705 
L 199.326278 241.49057 
L 199.529255 241.557696 
L 199.630744 241.520517 
L 199.83372 241.623586 
L 200.239674 241.736505 
L 200.442651 241.618171 
L 200.950092 241.740321 
L 201.051581 241.944315 
L 201.153069 241.674539 
L 201.254558 241.75195 
L 201.356046 241.564274 
L 201.457534 241.78346 
L 201.660511 241.684607 
L 201.964976 241.757765 
L 202.066465 241.921746 
L 202.269441 241.693111 
L 202.573906 241.818131 
L 202.776883 241.686024 
L 202.97986 241.856255 
L 203.182837 241.887402 
L 203.385813 241.715389 
L 203.487302 241.89318 
L 203.791767 241.735414 
L 204.096232 241.91753 
L 204.299209 241.784768 
L 204.502186 241.836339 
L 204.705162 241.782224 
L 204.806651 241.70743 
L 205.111116 241.929196 
L 205.212604 241.916767 
L 205.314093 241.752568 
L 205.618558 241.886239 
L 205.821534 241.723748 
L 205.923023 241.826672 
L 206.024511 242.090051 
L 206.328976 241.826999 
L 206.937907 241.853094 
L 207.039395 241.987382 
L 207.34386 241.753731 
L 207.648325 241.90372 
L 207.749814 241.681735 
L 207.851302 241.864651 
L 207.95279 241.775973 
L 208.054279 241.999775 
L 208.155767 241.810427 
L 208.257255 241.923599 
L 208.460232 241.722949 
L 208.663209 241.898777 
L 208.866186 241.705249 
L 208.967674 241.797416 
L 209.069162 242.116364 
L 209.170651 241.764307 
L 209.272139 241.820421 
L 209.475116 241.765034 
L 209.678093 241.943043 
L 209.779581 241.587534 
L 210.084046 242.084709 
L 210.185535 241.751514 
L 210.287023 241.832305 
L 210.388511 241.636161 
L 210.692976 241.900558 
L 210.794465 241.539197 
L 210.997442 241.789675 
L 211.09893 241.930214 
L 211.301907 241.76656 
L 211.403395 241.694019 
L 211.504883 241.78724 
L 211.606372 241.677374 
L 211.809349 241.777863 
L 212.215302 241.627439 
L 212.31679 241.863451 
L 212.418279 241.575141 
L 212.722744 241.91524 
L 212.925721 241.730835 
L 213.027209 241.585862 
L 213.331674 241.864324 
L 213.433163 241.476215 
L 213.737628 241.870393 
L 213.839116 241.68417 
L 213.940604 241.78157 
L 214.042093 241.597528 
L 214.346558 241.860726 
L 214.448046 241.35799 
L 214.549535 241.773538 
L 214.651023 241.632963 
L 214.752511 241.935047 
L 215.056977 241.502345 
L 215.158465 241.732107 
L 215.259953 241.590877 
L 215.361442 241.693511 
L 215.46293 241.596438 
L 215.767395 241.795126 
L 215.868884 241.677338 
L 215.970372 241.746063 
L 216.07186 241.538761 
L 216.274837 241.637433 
L 216.782279 241.829398 
L 216.985256 241.554643 
L 217.086744 241.728691 
L 217.188232 241.591132 
L 217.289721 241.665526 
L 217.492698 241.515829 
L 217.797163 241.662255 
L 218.000139 241.622314 
L 218.101628 241.68835 
L 218.203116 241.501328 
L 218.507581 241.595275 
L 218.812046 241.587788 
L 218.913535 241.414177 
L 219.218 241.705577 
L 219.420977 241.566891 
L 220.029907 241.584299 
L 220.232884 241.690349 
L 220.43586 241.486536 
L 220.740326 241.598291 
L 220.841814 241.285486 
L 221.146279 241.81228 
L 221.247767 241.432421 
L 221.349256 241.55915 
L 221.552233 241.419192 
L 221.755209 241.538507 
L 221.958186 241.425043 
L 222.059674 241.396405 
L 222.161163 241.67483 
L 222.465628 241.341745 
L 222.668605 241.496058 
L 222.770093 241.508887 
L 222.871581 241.337238 
L 223.074558 241.495295 
L 223.176047 241.192883 
L 223.277535 241.40629 
L 223.379023 241.325972 
L 223.480512 241.682062 
L 223.582 241.344725 
L 223.784977 241.401566 
L 223.987954 241.303003 
L 224.089442 241.491588 
L 224.19093 241.198117 
L 224.292419 241.363078 
L 224.393907 241.299042 
L 224.495395 241.598473 
L 224.799861 241.163809 
L 224.901349 241.420101 
L 225.104326 241.296389 
L 225.205814 241.249142 
L 225.713256 241.544394 
L 225.814744 241.447213 
L 225.916233 241.518736 
L 226.626651 240.920055 
L 226.829628 241.121796 
L 227.032605 240.840209 
L 227.33707 240.66925 
L 227.438558 240.681498 
L 227.540047 240.290445 
L 227.641535 240.574758 
L 227.743023 240.338745 
L 227.844512 240.614009 
L 228.047489 240.321628 
L 228.250465 240.134279 
L 228.656419 239.987525 
L 228.859396 239.957542 
L 229.062372 239.676391 
L 229.366837 239.556349 
L 230.381721 239.071386 
L 230.48321 238.727979 
L 230.787675 238.830975 
L 231.09214 238.399945 
L 231.193628 238.444684 
L 231.295117 238.270127 
L 231.396605 238.348592 
L 231.498093 237.994282 
L 231.802558 238.351863 
L 232.107024 237.899209 
L 232.31 237.964263 
L 232.512977 237.964554 
L 232.614465 238.01249 
L 232.715954 237.931845 
L 232.817442 238.072856 
L 233.020419 237.81184 
L 233.324884 237.877548 
L 233.527861 237.645606 
L 233.730838 237.90844 
L 234.238279 237.654692 
L 234.339768 237.775823 
L 234.441256 237.51626 
L 234.644233 237.666176 
L 234.745721 238.005076 
L 234.948698 237.649713 
L 235.050186 237.48784 
L 235.354652 237.712841 
L 235.45614 237.377066 
L 235.760605 237.727487 
L 235.963582 237.547806 
L 236.06507 237.364346 
L 236.268047 237.50016 
L 236.471024 237.331201 
L 236.674 237.48784 
L 236.775489 237.538902 
L 237.079954 237.366345 
L 237.587396 237.27207 
L 237.688884 237.61148 
L 237.891861 237.31779 
L 237.993349 237.400362 
L 238.196326 237.293622 
L 238.297814 237.360275 
L 238.500791 237.208506 
L 238.60228 237.254517 
L 238.703768 237.552749 
L 238.805256 237.284391 
L 238.906745 237.351153 
L 239.008233 237.064042 
L 239.21121 237.202619 
L 239.414187 237.112088 
L 239.617163 237.301799 
L 240.124605 237.202219 
L 240.226094 237.296857 
L 240.530559 237.107072 
L 240.632047 237.477918 
L 240.733535 237.275196 
L 240.936512 237.370088 
L 241.038001 237.197203 
L 241.139489 237.258842 
L 241.240977 237.463817 
L 241.443954 237.199202 
L 241.545442 237.314301 
L 241.646931 237.678097 
L 241.849908 237.408939 
L 241.951396 237.266437 
L 242.052884 237.371869 
L 242.154373 237.291042 
L 242.255861 237.450225 
L 242.357349 237.376812 
L 242.560326 237.563107 
L 242.763303 237.473048 
L 242.864791 237.527236 
L 242.96628 237.331855 
L 243.169256 237.528072 
L 243.270745 237.539375 
L 243.372233 237.388768 
L 243.676698 237.625399 
L 243.778187 237.49678 
L 243.879675 237.634594 
L 244.082652 237.572992 
L 244.18414 237.642408 
L 244.285629 237.349772 
L 244.590094 237.864392 
L 244.79307 237.57321 
L 244.894559 237.487149 
L 245.199024 237.803335 
L 245.300512 237.4616 
L 245.402001 237.672282 
L 245.503489 237.524074 
L 245.604977 237.844657 
L 245.706466 237.617185 
L 245.807954 237.681404 
L 245.909443 237.577789 
L 246.112419 237.709642 
L 246.315396 237.572665 
L 246.72135 237.761395 
L 246.924326 237.554021 
L 247.025815 237.731485 
L 247.228791 237.589128 
L 247.736233 237.713822 
L 248.243675 237.613333 
L 248.649629 237.750056 
L 248.954094 237.586003 
L 249.157071 237.686855 
L 249.360047 237.563688 
L 249.766001 237.678714 
L 249.867489 237.560454 
L 250.070466 237.581133 
L 250.171954 237.451788 
L 250.577908 237.762522 
L 250.679396 237.498052 
L 250.882373 237.523674 
L 251.389815 237.387097 
L 251.491303 237.710842 
L 251.795768 237.396146 
L 251.897257 237.542791 
L 251.998745 237.452478 
L 252.100233 237.574228 
L 252.201722 237.293549 
L 252.30321 237.450043 
L 252.404699 237.3163 
L 252.506187 237.688672 
L 252.810652 237.3006 
L 252.91214 237.345993 
L 253.013629 237.529962 
L 253.115117 237.154936 
L 253.318094 237.465961 
L 253.622559 237.400144 
L 253.825536 237.222789 
L 254.028513 237.447099 
L 254.130001 237.150212 
L 254.231489 237.256007 
L 254.332978 237.172781 
L 254.434466 237.502087 
L 254.637443 237.252772 
L 255.043396 237.285699 
L 255.144885 236.999751 
L 255.246373 237.223371 
L 255.347861 237.13433 
L 255.44935 237.332364 
L 255.753815 236.927174 
L 255.855303 237.203673 
L 256.159768 236.998479 
L 256.362745 237.09159 
L 256.565722 237.12459 
L 256.66721 236.886106 
L 256.870187 236.980816 
L 256.971675 236.99906 
L 257.073164 236.828502 
L 257.276141 236.857068 
L 257.377629 237.307469 
L 257.580606 236.85565 
L 258.088048 236.779184 
L 258.189536 236.71929 
L 258.392513 236.878074 
L 258.494001 236.739279 
L 258.595489 236.817344 
L 258.798466 236.765301 
L 259.001443 236.695885 
L 259.102931 236.55829 
L 259.305908 236.87106 
L 259.508885 236.638899 
L 259.81335 236.464416 
L 259.914838 236.680403 
L 260.219303 236.518749 
L 260.320792 236.761485 
L 260.42228 236.495126 
L 260.523769 236.600993 
L 260.625257 236.369851 
L 260.726745 236.561198 
L 261.132699 236.373049 
L 261.437164 236.487748 
L 261.640141 236.307449 
L 261.944606 236.158624 
L 262.046094 236.36091 
L 262.147583 236.270997 
L 262.249071 236.390457 
L 262.655024 236.165239 
L 262.756513 236.325948 
L 262.858001 236.038801 
L 263.060978 236.162731 
L 263.162466 236.220989 
L 263.56842 236.036293 
L 263.771397 236.146558 
L 263.872885 235.85792 
L 264.17735 236.275976 
L 264.380327 235.995588 
L 264.583304 235.911381 
L 264.887769 235.798717 
L 264.989257 235.9917 
L 265.090745 235.86101 
L 265.192234 236.020847 
L 265.496699 235.735916 
L 265.699676 235.981197 
L 265.902652 235.712802 
L 266.308606 235.877982 
L 266.410094 235.62954 
L 266.714559 235.853995 
L 266.816048 235.409991 
L 267.019025 235.827756 
L 267.120513 235.853378 
L 267.222001 235.59654 
L 267.32349 235.872094 
L 267.526466 235.646112 
L 267.627955 235.692959 
L 267.830932 235.520692 
L 267.93242 236.002748 
L 268.033908 235.585601 
L 268.135397 235.684854 
L 268.338373 235.520547 
L 268.744327 235.866025 
L 268.947304 235.548349 
L 269.048792 235.59585 
L 269.15028 235.486711 
L 269.251769 235.698192 
L 269.454746 235.502411 
L 269.556234 235.519674 
L 269.657722 235.746165 
L 269.759211 235.546241 
L 269.860699 235.652182 
L 270.063676 235.54297 
L 270.165164 235.575788 
L 270.266653 235.391819 
L 270.368141 235.549403 
L 270.469629 235.447024 
L 270.672606 235.77673 
L 270.875583 235.452294 
L 270.977071 235.391056 
L 271.180048 235.539809 
L 271.383025 235.409518 
L 271.586001 235.640625 
L 271.890467 235.301324 
L 271.991955 235.51455 
L 272.093443 235.465559 
L 272.194932 235.191205 
L 272.29642 235.740568 
L 272.397908 235.364198 
L 272.499397 235.467231 
L 272.600885 235.331925 
L 272.702374 235.448042 
L 273.006839 235.271596 
L 273.311304 235.462216 
L 273.717257 235.264182 
L 273.818746 235.394581 
L 273.920234 235.176813 
L 274.224699 235.470211 
L 274.529164 235.133455 
L 274.630653 235.353949 
L 274.935118 235.18837 
L 275.138095 235.254187 
L 275.239583 235.463015 
L 275.44256 235.184917 
L 275.544048 235.100783 
L 275.747025 235.195748 
L 275.848513 235.01087 
L 276.152978 235.371612 
L 276.254467 235.083701 
L 276.355955 235.142214 
L 276.457443 235.008253 
L 276.66042 235.133492 
L 276.964885 234.954392 
L 277.066374 235.211884 
L 277.26935 235.020392 
L 277.573816 235.156388 
L 277.675304 234.930806 
L 277.878281 235.034202 
L 277.979769 234.954719 
L 278.081257 235.067202 
L 278.182746 234.788995 
L 278.487211 235.213483 
L 278.690188 234.916268 
L 278.994653 234.791829 
L 279.19763 234.903984 
L 279.299118 234.808256 
L 279.502095 234.991753 
L 279.705071 234.772749 
L 279.908048 234.849142 
L 280.009537 234.88912 
L 280.111025 234.614474 
L 280.41549 234.997023 
L 280.618467 234.703225 
L 280.719955 234.66103 
L 280.821444 234.771841 
L 281.02442 234.595031 
L 281.430374 234.636607 
L 281.633351 234.561959 
L 281.734839 234.719434 
L 282.039304 234.539026 
L 282.242281 234.581148 
L 282.343769 234.762028 
L 282.546746 234.489599 
L 282.851211 234.566356 
L 282.952699 234.272958 
L 283.155676 234.431705 
L 283.257165 234.613384 
L 283.358653 234.447187 
L 283.460141 234.571044 
L 283.663118 234.350041 
L 283.764606 234.442717 
L 283.967583 234.283715 
L 284.17056 234.509624 
L 284.475025 234.216117 
L 284.77949 234.404447 
L 284.880979 234.025024 
L 285.083955 234.249698 
L 285.286932 234.332233 
L 285.591397 234.147355 
L 285.692886 234.2787 
L 285.794374 234.018119 
L 285.997351 234.248426 
L 286.098839 234.408554 
L 286.200327 234.050973 
L 286.301816 234.213863 
L 286.403304 233.898041 
L 286.606281 234.148191 
L 286.707769 233.98174 
L 286.910746 234.098437 
L 287.519676 233.922536 
L 287.621165 234.151062 
L 287.722653 233.699498 
L 287.824141 233.98919 
L 287.92563 233.867731 
L 288.027118 234.233416 
L 288.128607 233.901894 
L 288.230095 233.977814 
L 288.331583 233.765934 
L 288.53456 233.94645 
L 288.737537 233.710874 
L 288.940514 233.968729 
L 289.14349 233.796317 
L 289.549444 233.75176 
L 289.650932 233.575096 
L 289.853909 233.80235 
L 290.056886 233.697318 
L 290.158374 233.578584 
L 290.462839 233.65436 
L 290.564328 233.450802 
L 290.868793 233.746999 
L 291.274746 233.466793 
L 291.883676 233.502264 
L 292.188142 233.424271 
L 292.391118 233.402465 
L 292.492607 233.233251 
L 292.797072 233.496921 
L 293.101537 233.217842 
L 293.304514 233.24688 
L 293.406002 233.130982 
L 293.50749 233.273229 
L 293.608979 233.203377 
L 293.710467 233.369102 
L 294.014932 233.031074 
L 294.116421 233.288093 
L 294.319397 233.078211 
L 294.522374 233.025441 
L 294.623862 233.311571 
L 294.725351 233.268141 
L 294.928328 233.006833 
L 295.029816 232.970308 
L 295.232793 233.055315 
L 295.334281 232.815014 
L 295.537258 233.035472 
L 295.638746 233.11728 
L 295.841723 232.873418 
L 295.943211 233.007269 
L 296.450653 232.779688 
L 296.552142 233.157658 
L 296.755118 232.793426 
L 296.856607 232.827843 
L 297.161072 232.641366 
L 297.364049 232.651651 
L 297.465537 232.948284 
L 297.668514 232.707038 
L 297.87149 232.565554 
L 298.074467 232.635987 
L 298.277444 232.53648 
L 298.378932 232.709037 
L 298.581909 232.514565 
L 298.683397 232.631263 
L 298.886374 232.428286 
L 298.987863 232.554252 
L 299.089351 232.218404 
L 299.292328 232.491705 
L 299.393816 232.653178 
L 299.596793 232.371227 
L 299.79977 232.362032 
L 299.901258 232.544512 
L 300.104235 232.2095 
L 300.307211 232.56759 
L 300.4087 232.252639 
L 300.510188 232.35222 
L 300.611677 232.207865 
L 300.814653 232.227853 
L 301.01763 232.010957 
L 301.220607 232.393615 
L 301.423584 232.143065 
L 301.62656 232.080591 
L 301.728049 232.142738 
L 302.032514 232.007832 
L 302.134002 232.165016 
L 302.235491 232.030183 
L 302.336979 232.21288 
L 302.539956 231.913412 
L 302.742932 231.994094 
L 302.844421 231.770511 
L 303.047398 231.991477 
L 303.148886 232.080772 
L 303.351863 231.808417 
L 303.453351 231.933619 
L 303.960793 231.717922 
L 304.062281 232.123367 
L 304.16377 231.79824 
L 304.265258 231.831495 
L 304.366746 231.585487 
L 304.569723 231.734386 
L 304.874188 231.632806 
L 304.975677 231.880776 
L 305.178653 231.578364 
L 305.280142 231.676418 
L 305.686095 231.484671 
L 305.787584 231.463556 
L 305.889072 231.743471 
L 306.295026 231.429466 
L 306.396514 231.423142 
L 306.498002 231.547509 
L 306.599491 231.309061 
L 306.802467 231.412094 
L 307.005444 231.273336 
L 307.106933 231.428158 
L 307.208421 231.371026 
L 307.309909 231.465119 
L 307.512886 231.242226 
L 307.817351 231.428121 
L 307.91884 231.046118 
L 308.020328 231.211734 
L 308.121816 231.144608 
L 308.223305 231.47475 
L 308.426281 231.128145 
L 308.730747 231.22042 
L 308.832235 230.985825 
L 309.1367 231.311751 
L 309.238188 230.963437 
L 309.339677 231.126509 
L 309.542654 231.020024 
L 309.644142 231.015517 
L 309.847119 230.91521 
L 309.948607 230.957586 
L 310.050095 231.241935 
L 310.253072 230.8684 
L 310.659026 230.919789 
L 310.862002 230.766203 
L 310.963491 231.104776 
L 311.064979 230.798367 
L 311.267956 230.85677 
L 311.572421 230.643217 
L 311.775398 230.771255 
L 311.876886 230.898165 
L 312.181351 230.599715 
L 312.993258 230.669021 
L 313.196235 230.441549 
L 313.399212 230.548834 
L 313.5007 230.349419 
L 313.703677 230.519869 
L 314.008142 230.467571 
L 314.211119 230.411021 
L 314.312607 230.424141 
L 314.515584 230.250239 
L 314.718561 230.563553 
L 314.921537 230.200303 
L 315.023026 230.331102 
L 315.124514 230.257434 
L 315.226003 230.322125 
L 315.327491 230.112498 
L 315.631956 230.354216 
L 315.834933 230.204628 
L 316.443863 230.108536 
L 316.545351 230.343931 
L 316.748328 230.109954 
L 316.951305 229.970214 
L 317.052793 230.231304 
L 317.25577 229.91341 
L 317.357258 229.99311 
L 317.458747 230.217094 
L 317.763212 229.770981 
L 317.8647 229.958693 
L 318.169165 229.886988 
L 318.270654 229.893276 
L 318.372142 230.080916 
L 318.575119 229.870052 
L 318.778096 229.795004 
L 318.879584 229.866854 
L 319.184049 229.696623 
L 319.285538 230.133032 
L 319.387026 229.752664 
L 319.488514 229.836471 
L 319.691491 229.654137 
L 319.894468 229.778613 
L 320.097445 229.558519 
L 320.198933 230.011173 
L 320.300421 229.615759 
L 320.40191 229.733693 
L 320.604886 229.53704 
L 320.807863 229.643271 
L 320.909352 229.454286 
L 321.112328 229.813284 
L 321.315305 229.570003 
L 321.61977 229.606274 
L 321.822747 229.477364 
L 321.924235 229.643416 
L 322.025724 229.565787 
L 322.127212 229.326104 
L 322.2287 229.517087 
L 322.330189 229.470423 
L 322.431677 229.657263 
L 322.939119 229.419179 
L 323.243584 229.360666 
L 323.345073 229.635675 
L 323.548049 229.339987 
L 323.751026 229.443383 
L 324.055491 229.264902 
L 324.258468 229.563679 
L 324.461445 229.257343 
L 324.562933 229.218128 
L 324.76591 229.363065 
L 325.171863 229.152856 
L 325.37484 229.333118 
L 325.476328 228.973829 
L 325.679305 229.201701 
L 325.780794 229.352852 
L 326.186747 229.158889 
L 326.288235 229.265374 
L 326.389724 229.006829 
L 326.491212 229.147586 
L 326.592701 229.015042 
L 326.694189 229.337915 
L 326.897166 228.965071 
L 326.998654 229.195159 
L 327.303119 228.839541 
L 327.404608 229.170083 
L 327.506096 228.962963 
L 327.607584 229.225288 
L 327.810561 228.836961 
L 327.912049 229.202355 
L 328.216515 228.733964 
L 328.419491 229.036921 
L 328.52098 228.841177 
L 328.825445 229.063197 
L 328.926933 228.971794 
L 329.028422 229.032451 
L 329.12991 228.761912 
L 329.231398 228.834562 
L 329.332887 229.103829 
L 329.434375 228.706053 
L 329.637352 228.935669 
L 329.73884 229.043899 
L 329.840329 228.779975 
L 330.043305 228.889586 
L 330.144794 228.77456 
L 330.246282 228.925602 
L 330.449259 228.569802 
L 330.652236 229.008101 
L 330.753724 228.722952 
L 330.855212 228.849027 
L 331.058189 228.701582 
L 331.464143 228.639799 
L 331.565631 229.021039 
L 331.768608 228.654445 
L 332.073073 228.624644 
L 332.174561 228.54498 
L 332.27605 228.679231 
L 332.377538 228.577761 
L 332.479026 228.902015 
L 332.783491 228.514379 
L 332.88498 228.697766 
L 333.087957 228.359775 
L 333.189445 228.592298 
L 333.290933 228.507837 
L 333.392422 228.713648 
L 333.696887 228.342693 
L 333.899864 228.553847 
L 334.001352 228.260194 
L 334.204329 228.449615 
L 334.305817 228.555337 
L 334.610282 228.322087 
L 334.711771 228.333826 
L 334.813259 228.484723 
L 334.914747 228.135065 
L 335.219212 228.509254 
L 335.320701 228.206552 
L 335.422189 228.322305 
L 335.523678 228.244494 
L 335.726654 228.303297 
L 335.828143 228.060089 
L 335.929631 228.217891 
L 336.132608 227.720134 
L 336.234096 227.854822 
L 336.335585 227.648429 
L 336.437073 227.105171 
L 336.538561 227.346708 
L 336.64005 227.234808 
L 336.741538 226.750898 
L 336.944515 226.894999 
L 337.147492 226.17017 
L 337.24898 226.269859 
L 337.451957 225.938337 
L 337.553445 225.85671 
L 337.756422 225.259555 
L 337.85791 225.391263 
L 337.959399 225.257701 
L 338.060887 224.731416 
L 338.263864 224.803448 
L 338.46684 224.36911 
L 338.568329 224.527022 
L 338.771306 223.82578 
L 338.872794 223.931429 
L 339.075771 223.383519 
L 339.177259 223.467908 
L 339.380236 223.0295 
L 339.481724 223.090193 
L 339.684701 222.334146 
L 339.786189 222.457095 
L 339.989166 221.889305 
L 340.090654 221.99779 
L 340.192143 221.843149 
L 340.39512 221.424476 
L 340.496608 221.437741 
L 340.699585 220.666466 
L 340.801073 220.843021 
L 341.00405 220.402542 
L 341.105538 220.344756 
L 341.308515 219.664302 
L 341.410003 219.839113 
L 341.917445 218.826301 
L 342.120422 218.707095 
L 342.323399 218.02835 
L 342.424887 218.087553 
L 342.729352 217.508751 
L 342.830841 217.493087 
L 342.932329 216.988717 
L 343.033817 217.019754 
L 343.135306 216.995949 
L 343.338282 216.329015 
L 343.439771 216.362596 
L 343.642748 215.960277 
L 343.744236 215.972961 
L 343.947213 215.258708 
L 344.048701 215.358397 
L 344.150189 215.156002 
L 344.251678 214.670057 
L 344.454655 214.70084 
L 344.556143 214.281403 
L 344.657631 214.308115 
L 344.75912 214.298085 
L 344.962096 213.539093 
L 345.063585 213.718411 
L 345.266562 212.984714 
L 345.36805 213.079934 
L 345.469538 213.015061 
L 345.672515 212.576653 
L 345.774003 212.620337 
L 345.97698 211.853896 
L 346.078469 212.008827 
L 346.281445 211.447942 
L 346.382934 211.495189 
L 346.484422 211.303842 
L 346.58591 210.765199 
L 346.687399 210.940119 
L 346.890376 210.419139 
L 346.991864 210.161575 
L 347.093352 210.26479 
L 347.194841 209.818314 
L 347.397817 209.880606 
L 347.600794 209.095993 
L 347.702283 209.305366 
L 347.905259 208.55775 
L 348.006748 208.667506 
L 348.108236 208.585916 
L 348.209724 208.153505 
L 348.311213 208.179926 
L 348.412701 208.235168 
L 348.615678 207.43798 
L 348.717166 207.572159 
L 348.920143 206.888216 
L 349.021631 206.967227 
L 349.12312 206.92794 
L 349.224608 206.450027 
L 349.326097 206.484371 
L 349.427585 206.526529 
L 349.630562 205.739554 
L 349.73205 205.891032 
L 349.935027 205.347374 
L 350.036515 205.413482 
L 350.239492 204.742442 
L 350.34098 204.808514 
L 350.442469 204.784927 
L 350.645445 204.099531 
L 350.746934 204.144378 
L 350.949911 203.732937 
L 351.152887 203.422893 
L 351.254376 203.003965 
L 351.355864 203.118919 
L 351.457352 202.967077 
L 351.660329 202.41019 
L 351.761818 202.409027 
L 351.964794 201.953356 
L 352.066283 201.883832 
L 352.269259 201.271122 
L 352.370748 201.318986 
L 352.472236 201.177356 
L 352.675213 200.621741 
L 352.776701 200.654378 
L 352.979678 200.1946 
L 353.081166 200.204267 
L 353.284143 199.572732 
L 353.385632 199.580073 
L 353.994562 198.405206 
L 354.09605 198.468008 
L 354.299027 197.754336 
L 354.400515 197.835563 
L 354.502004 197.647087 
L 354.603492 197.19814 
L 354.70498 197.244587 
L 356.227306 194.644377 
L 356.328794 194.592478 
L 356.531771 193.945352 
L 356.63326 194.01633 
L 356.937725 193.402566 
L 357.039213 193.275183 
L 357.140701 192.924035 
L 357.24219 192.963431 
L 357.343678 192.905064 
L 357.546655 192.202259 
L 357.648143 192.304602 
L 358.257074 191.187848 
L 358.358562 191.196643 
L 358.561539 190.448846 
L 358.663027 190.602795 
L 359.170469 189.53983 
L 359.373446 189.509229 
L 359.576422 188.739407 
L 359.677911 188.896483 
L 360.083864 188.017777 
L 360.489818 187.427273 
L 360.692795 187.035856 
L 360.794283 186.988901 
L 361.098748 186.326946 
L 361.301725 186.098275 
L 362.21512 184.577603 
L 362.82405 183.59481 
L 362.925539 183.502208 
L 363.331492 182.72599 
L 363.432981 182.706147 
L 363.635957 182.229397 
L 363.940423 181.902889 
L 364.143399 181.416327 
L 364.447864 181.117295 
L 364.650841 180.631823 
L 364.75233 180.603693 
L 365.158283 179.814246 
L 365.259771 179.879228 
L 365.564237 179.101265 
L 365.767213 178.925873 
L 367.289539 176.534636 
L 367.391027 176.501927 
L 367.594004 176.078311 
L 367.796981 175.834448 
L 368.304423 175.048491 
L 368.405911 174.92645 
L 368.608888 174.509085 
L 368.913353 174.081544 
L 369.014841 173.698123 
L 369.11633 173.844513 
L 369.522283 173.042564 
L 369.623772 173.060373 
L 369.826748 172.737572 
L 370.131213 172.275287 
L 370.33419 171.874349 
L 370.638655 171.430162 
L 370.740144 171.358493 
L 371.044609 170.795319 
L 371.653539 169.759684 
L 371.755027 169.77095 
L 371.958004 169.213591 
L 372.059493 169.219915 
L 373.378841 166.902891 
L 373.581818 166.664407 
L 373.581818 166.664407 
" style="fill:none;stroke:#081d58;stroke-dasharray:5.55,2.4;stroke-dashoffset:0;stroke-width:1.5;"/>
    <defs>
     <path d="M -0 4.242641 
L 4.242641 0 
L 0 -4.242641 
L -4.242641 -0 
z
" id="m9a997c740b" style="stroke:#081d58;stroke-linejoin:miter;"/>
    </defs>
    <g clip-path="url(#p0501b2e5dc)">
     <use style="fill:#081d58;stroke:#081d58;stroke-linejoin:miter;" x="69.218182" xlink:href="#m9a997c740b" y="205.021194"/>
     <use style="fill:#081d58;stroke:#081d58;stroke-linejoin:miter;" x="77.337252" xlink:href="#m9a997c740b" y="204.939567"/>
     <use style="fill:#081d58;stroke:#081d58;stroke-linejoin:miter;" x="85.456322" xlink:href="#m9a997c740b" y="198.867092"/>
     <use style="fill:#081d58;stroke:#081d58;stroke-linejoin:miter;" x="93.575392" xlink:href="#m9a997c740b" y="196.043553"/>
     <use style="fill:#081d58;stroke:#081d58;stroke-linejoin:miter;" x="101.694462" xlink:href="#m9a997c740b" y="196.296574"/>
     <use style="fill:#081d58;stroke:#081d58;stroke-linejoin:miter;" x="109.813532" xlink:href="#m9a997c740b" y="196.257796"/>
     <use style="fill:#081d58;stroke:#081d58;stroke-linejoin:miter;" x="117.932602" xlink:href="#m9a997c740b" y="196.858549"/>
     <use style="fill:#081d58;stroke:#081d58;stroke-linejoin:miter;" x="126.051672" xlink:href="#m9a997c740b" y="190.802974"/>
     <use style="fill:#081d58;stroke:#081d58;stroke-linejoin:miter;" x="134.170742" xlink:href="#m9a997c740b" y="185.686506"/>
     <use style="fill:#081d58;stroke:#081d58;stroke-linejoin:miter;" x="142.289812" xlink:href="#m9a997c740b" y="189.008274"/>
     <use style="fill:#081d58;stroke:#081d58;stroke-linejoin:miter;" x="150.408882" xlink:href="#m9a997c740b" y="202.723323"/>
     <use style="fill:#081d58;stroke:#081d58;stroke-linejoin:miter;" x="158.527952" xlink:href="#m9a997c740b" y="213.149167"/>
     <use style="fill:#081d58;stroke:#081d58;stroke-linejoin:miter;" x="166.647022" xlink:href="#m9a997c740b" y="225.800778"/>
     <use style="fill:#081d58;stroke:#081d58;stroke-linejoin:miter;" x="174.766092" xlink:href="#m9a997c740b" y="232.102724"/>
     <use style="fill:#081d58;stroke:#081d58;stroke-linejoin:miter;" x="182.885162" xlink:href="#m9a997c740b" y="237.968152"/>
     <use style="fill:#081d58;stroke:#081d58;stroke-linejoin:miter;" x="191.004232" xlink:href="#m9a997c740b" y="240.600962"/>
     <use style="fill:#081d58;stroke:#081d58;stroke-linejoin:miter;" x="199.123302" xlink:href="#m9a997c740b" y="241.480467"/>
     <use style="fill:#081d58;stroke:#081d58;stroke-linejoin:miter;" x="207.242372" xlink:href="#m9a997c740b" y="241.862943"/>
     <use style="fill:#081d58;stroke:#081d58;stroke-linejoin:miter;" x="215.361442" xlink:href="#m9a997c740b" y="241.693511"/>
     <use style="fill:#081d58;stroke:#081d58;stroke-linejoin:miter;" x="223.480512" xlink:href="#m9a997c740b" y="241.682062"/>
     <use style="fill:#081d58;stroke:#081d58;stroke-linejoin:miter;" x="231.599582" xlink:href="#m9a997c740b" y="238.092918"/>
     <use style="fill:#081d58;stroke:#081d58;stroke-linejoin:miter;" x="239.718652" xlink:href="#m9a997c740b" y="237.267927"/>
     <use style="fill:#081d58;stroke:#081d58;stroke-linejoin:miter;" x="247.837722" xlink:href="#m9a997c740b" y="237.6725"/>
     <use style="fill:#081d58;stroke:#081d58;stroke-linejoin:miter;" x="255.956792" xlink:href="#m9a997c740b" y="237.126988"/>
     <use style="fill:#081d58;stroke:#081d58;stroke-linejoin:miter;" x="264.075862" xlink:href="#m9a997c740b" y="236.024045"/>
     <use style="fill:#081d58;stroke:#081d58;stroke-linejoin:miter;" x="272.194932" xlink:href="#m9a997c740b" y="235.191205"/>
     <use style="fill:#081d58;stroke:#081d58;stroke-linejoin:miter;" x="280.314002" xlink:href="#m9a997c740b" y="234.777256"/>
     <use style="fill:#081d58;stroke:#081d58;stroke-linejoin:miter;" x="288.433072" xlink:href="#m9a997c740b" y="233.905055"/>
     <use style="fill:#081d58;stroke:#081d58;stroke-linejoin:miter;" x="296.552142" xlink:href="#m9a997c740b" y="233.157658"/>
     <use style="fill:#081d58;stroke:#081d58;stroke-linejoin:miter;" x="304.671212" xlink:href="#m9a997c740b" y="231.672493"/>
     <use style="fill:#081d58;stroke:#081d58;stroke-linejoin:miter;" x="312.790282" xlink:href="#m9a997c740b" y="230.681596"/>
     <use style="fill:#081d58;stroke:#081d58;stroke-linejoin:miter;" x="320.909352" xlink:href="#m9a997c740b" y="229.454286"/>
     <use style="fill:#081d58;stroke:#081d58;stroke-linejoin:miter;" x="329.028422" xlink:href="#m9a997c740b" y="229.032451"/>
     <use style="fill:#081d58;stroke:#081d58;stroke-linejoin:miter;" x="337.147492" xlink:href="#m9a997c740b" y="226.17017"/>
     <use style="fill:#081d58;stroke:#081d58;stroke-linejoin:miter;" x="345.266562" xlink:href="#m9a997c740b" y="212.984714"/>
     <use style="fill:#081d58;stroke:#081d58;stroke-linejoin:miter;" x="353.385632" xlink:href="#m9a997c740b" y="199.580073"/>
     <use style="fill:#081d58;stroke:#081d58;stroke-linejoin:miter;" x="361.504702" xlink:href="#m9a997c740b" y="185.741167"/>
     <use style="fill:#081d58;stroke:#081d58;stroke-linejoin:miter;" x="369.623772" xlink:href="#m9a997c740b" y="173.060373"/>
    </g>
   </g>
   <g id="patch_3">
    <path d="M 54 252 
L 54 34.56 
" style="fill:none;stroke:#000000;stroke-linecap:square;stroke-linejoin:miter;stroke-width:0.8;"/>
   </g>
   <g id="patch_4">
    <path d="M 388.8 252 
L 388.8 34.56 
" style="fill:none;stroke:#000000;stroke-linecap:square;stroke-linejoin:miter;stroke-width:0.8;"/>
   </g>
   <g id="patch_5">
    <path d="M 54 252 
L 388.8 252 
" style="fill:none;stroke:#000000;stroke-linecap:square;stroke-linejoin:miter;stroke-width:0.8;"/>
   </g>
   <g id="patch_6">
    <path d="M 54 34.56 
L 388.8 34.56 
" style="fill:none;stroke:#000000;stroke-linecap:square;stroke-linejoin:miter;stroke-width:0.8;"/>
   </g>
   <g id="legend_1">
    <g id="patch_7">
     <path d="M 280.085938 71.91625 
L 381.8 71.91625 
Q 383.8 71.91625 383.8 69.91625 
L 383.8 41.56 
Q 383.8 39.56 381.8 39.56 
L 280.085938 39.56 
Q 278.085938 39.56 278.085938 41.56 
L 278.085938 69.91625 
Q 278.085938 71.91625 280.085938 71.91625 
z
" style="fill:#ffffff;opacity:0.8;stroke:#cccccc;stroke-linejoin:miter;"/>
    </g>
    <g id="line2d_15">
     <path d="M 282.085938 47.658437 
L 302.085938 47.658437 
" style="fill:none;stroke:#40b5c4;stroke-dasharray:5.55,2.4;stroke-dashoffset:0;stroke-width:1.5;"/>
    </g>
    <g id="line2d_16">
     <g>
      <use style="fill:#40b5c4;stroke:#40b5c4;" x="292.085938" xlink:href="#md89414b074" y="47.658437"/>
     </g>
    </g>
    <g id="text_15">
     <text style="font-family:DejaVu Sans;font-size:10px;font-style:normal;font-weight:normal;text-anchor:start;" transform="rotate(-0, 310.085938, 51.158437)" x="310.085938" y="51.158437">original</text>
    </g>
    <g id="line2d_17">
     <path d="M 282.085938 62.336562 
L 302.085938 62.336562 
" style="fill:none;stroke:#081d58;stroke-dasharray:5.55,2.4;stroke-dashoffset:0;stroke-width:1.5;"/>
    </g>
    <g id="line2d_18">
     <g>
      <use style="fill:#081d58;stroke:#081d58;stroke-linejoin:miter;" x="292.085938" xlink:href="#m9a997c740b" y="62.336562"/>
     </g>
    </g>
    <g id="text_16">
     <text style="font-family:DejaVu Sans;font-size:10px;font-style:normal;font-weight:normal;text-anchor:start;" transform="rotate(-0, 310.085938, 65.836562)" x="310.085938" y="65.836562">reconstructed</text>
    </g>
   </g>
  </g>
  <g id="text_17">
   <text style="font-family:DejaVu Sans;font-size:12px;font-style:normal;font-weight:normal;text-anchor:middle;" transform="rotate(-0, 216, 14.878125)" x="216" y="14.878125">Reconstruction of the weight curve</text>
  </g>
 </g>
 <defs>
  <clipPath id="p0501b2e5dc">
   <rect height="217.44" width="334.8" x="54" y="34.56"/>
  </clipPath>
 </defs>
</svg>
