<?xml version="1.0" encoding="utf-8" standalone="no"?>
<!DOCTYPE svg PUBLIC "-//W3C//DTD SVG 1.1//EN"
  "http://www.w3.org/Graphics/SVG/1.1/DTD/svg11.dtd">
<!-- Created with matplotlib (https://matplotlib.org/) -->
<svg height="288pt" version="1.1" viewBox="0 0 432 288" width="432pt" xmlns="http://www.w3.org/2000/svg" xmlns:xlink="http://www.w3.org/1999/xlink">
 <defs>
  <style type="text/css">
*{stroke-linecap:butt;stroke-linejoin:round;}
  </style>
 </defs>
 <g id="figure_1">
  <g id="patch_1">
   <path d="M 0 288 
L 432 288 
L 432 0 
L 0 0 
z
" style="fill:#ffffff;"/>
  </g>
  <g id="axes_1">
   <g id="patch_2">
    <path d="M 54 252 
L 388.8 252 
L 388.8 34.56 
L 54 34.56 
z
" style="fill:#ffffff;"/>
   </g>
   <g id="matplotlib.axis_1">
    <g id="xtick_1">
     <g id="line2d_1">
      <defs>
       <path d="M 0 0 
L 0 3.5 
" id="mf8b548197c" style="stroke:#000000;stroke-width:0.8;"/>
      </defs>
      <g>
       <use style="stroke:#000000;stroke-width:0.8;" x="69.218182" xlink:href="#mf8b548197c" y="252"/>
      </g>
     </g>
     <g id="text_1">
      <text style="font-family:DejaVu Sans;font-size:10px;font-style:normal;font-weight:normal;text-anchor:middle;" transform="rotate(-0, 69.218182, 266.598437)" x="69.218182" y="266.598437">0</text>
     </g>
    </g>
    <g id="xtick_2">
     <g id="line2d_2">
      <g>
       <use style="stroke:#000000;stroke-width:0.8;" x="119.962369" xlink:href="#mf8b548197c" y="252"/>
      </g>
     </g>
     <g id="text_2">
      <text style="font-family:DejaVu Sans;font-size:10px;font-style:normal;font-weight:normal;text-anchor:middle;" transform="rotate(-0, 119.962369, 266.598437)" x="119.962369" y="266.598437">500</text>
     </g>
    </g>
    <g id="xtick_3">
     <g id="line2d_3">
      <g>
       <use style="stroke:#000000;stroke-width:0.8;" x="170.706557" xlink:href="#mf8b548197c" y="252"/>
      </g>
     </g>
     <g id="text_3">
      <text style="font-family:DejaVu Sans;font-size:10px;font-style:normal;font-weight:normal;text-anchor:middle;" transform="rotate(-0, 170.706557, 266.598437)" x="170.706557" y="266.598437">1000</text>
     </g>
    </g>
    <g id="xtick_4">
     <g id="line2d_4">
      <g>
       <use style="stroke:#000000;stroke-width:0.8;" x="221.450744" xlink:href="#mf8b548197c" y="252"/>
      </g>
     </g>
     <g id="text_4">
      <text style="font-family:DejaVu Sans;font-size:10px;font-style:normal;font-weight:normal;text-anchor:middle;" transform="rotate(-0, 221.450744, 266.598437)" x="221.450744" y="266.598437">1500</text>
     </g>
    </g>
    <g id="xtick_5">
     <g id="line2d_5">
      <g>
       <use style="stroke:#000000;stroke-width:0.8;" x="272.194932" xlink:href="#mf8b548197c" y="252"/>
      </g>
     </g>
     <g id="text_5">
      <text style="font-family:DejaVu Sans;font-size:10px;font-style:normal;font-weight:normal;text-anchor:middle;" transform="rotate(-0, 272.194932, 266.598437)" x="272.194932" y="266.598437">2000</text>
     </g>
    </g>
    <g id="xtick_6">
     <g id="line2d_6">
      <g>
       <use style="stroke:#000000;stroke-width:0.8;" x="322.939119" xlink:href="#mf8b548197c" y="252"/>
      </g>
     </g>
     <g id="text_6">
      <text style="font-family:DejaVu Sans;font-size:10px;font-style:normal;font-weight:normal;text-anchor:middle;" transform="rotate(-0, 322.939119, 266.598437)" x="322.939119" y="266.598437">2500</text>
     </g>
    </g>
    <g id="xtick_7">
     <g id="line2d_7">
      <g>
       <use style="stroke:#000000;stroke-width:0.8;" x="373.683307" xlink:href="#mf8b548197c" y="252"/>
      </g>
     </g>
     <g id="text_7">
      <text style="font-family:DejaVu Sans;font-size:10px;font-style:normal;font-weight:normal;text-anchor:middle;" transform="rotate(-0, 373.683307, 266.598437)" x="373.683307" y="266.598437">3000</text>
     </g>
    </g>
    <g id="text_8">
     <text style="font-family:DejaVu Sans;font-size:10px;font-style:normal;font-weight:normal;text-anchor:middle;" transform="rotate(-0, 221.4, 280.276563)" x="221.4" y="280.276563">Time</text>
    </g>
   </g>
   <g id="matplotlib.axis_2">
    <g id="ytick_1">
     <g id="line2d_8">
      <defs>
       <path d="M 0 0 
L -3.5 0 
" id="m7003ff95d4" style="stroke:#000000;stroke-width:0.8;"/>
      </defs>
      <g>
       <use style="stroke:#000000;stroke-width:0.8;" x="54" xlink:href="#m7003ff95d4" y="251.93938"/>
      </g>
     </g>
     <g id="text_9">
      <text style="font-family:DejaVu Sans;font-size:10px;font-style:normal;font-weight:normal;text-anchor:end;" transform="rotate(-0, 47, 255.738599)" x="47" y="255.738599">−12</text>
     </g>
    </g>
    <g id="ytick_2">
     <g id="line2d_9">
      <g>
       <use style="stroke:#000000;stroke-width:0.8;" x="54" xlink:href="#m7003ff95d4" y="221.12014"/>
      </g>
     </g>
     <g id="text_10">
      <text style="font-family:DejaVu Sans;font-size:10px;font-style:normal;font-weight:normal;text-anchor:end;" transform="rotate(-0, 47, 224.919359)" x="47" y="224.919359">−10</text>
     </g>
    </g>
    <g id="ytick_3">
     <g id="line2d_10">
      <g>
       <use style="stroke:#000000;stroke-width:0.8;" x="54" xlink:href="#m7003ff95d4" y="190.3009"/>
      </g>
     </g>
     <g id="text_11">
      <text style="font-family:DejaVu Sans;font-size:10px;font-style:normal;font-weight:normal;text-anchor:end;" transform="rotate(-0, 47, 194.100119)" x="47" y="194.100119">−8</text>
     </g>
    </g>
    <g id="ytick_4">
     <g id="line2d_11">
      <g>
       <use style="stroke:#000000;stroke-width:0.8;" x="54" xlink:href="#m7003ff95d4" y="159.48166"/>
      </g>
     </g>
     <g id="text_12">
      <text style="font-family:DejaVu Sans;font-size:10px;font-style:normal;font-weight:normal;text-anchor:end;" transform="rotate(-0, 47, 163.280879)" x="47" y="163.280879">−6</text>
     </g>
    </g>
    <g id="ytick_5">
     <g id="line2d_12">
      <g>
       <use style="stroke:#000000;stroke-width:0.8;" x="54" xlink:href="#m7003ff95d4" y="128.66242"/>
      </g>
     </g>
     <g id="text_13">
      <text style="font-family:DejaVu Sans;font-size:10px;font-style:normal;font-weight:normal;text-anchor:end;" transform="rotate(-0, 47, 132.461639)" x="47" y="132.461639">−4</text>
     </g>
    </g>
    <g id="ytick_6">
     <g id="line2d_13">
      <g>
       <use style="stroke:#000000;stroke-width:0.8;" x="54" xlink:href="#m7003ff95d4" y="97.84318"/>
      </g>
     </g>
     <g id="text_14">
      <text style="font-family:DejaVu Sans;font-size:10px;font-style:normal;font-weight:normal;text-anchor:end;" transform="rotate(-0, 47, 101.642399)" x="47" y="101.642399">−2</text>
     </g>
    </g>
    <g id="ytick_7">
     <g id="line2d_14">
      <g>
       <use style="stroke:#000000;stroke-width:0.8;" x="54" xlink:href="#m7003ff95d4" y="67.02394"/>
      </g>
     </g>
     <g id="text_15">
      <text style="font-family:DejaVu Sans;font-size:10px;font-style:normal;font-weight:normal;text-anchor:end;" transform="rotate(-0, 47, 70.823159)" x="47" y="70.823159">0</text>
     </g>
    </g>
    <g id="ytick_8">
     <g id="line2d_15">
      <g>
       <use style="stroke:#000000;stroke-width:0.8;" x="54" xlink:href="#m7003ff95d4" y="36.2047"/>
      </g>
     </g>
     <g id="text_16">
      <text style="font-family:DejaVu Sans;font-size:10px;font-style:normal;font-weight:normal;text-anchor:end;" transform="rotate(-0, 47, 40.003919)" x="47" y="40.003919">2</text>
     </g>
    </g>
    <g id="text_17">
     <text style="font-family:DejaVu Sans;font-size:10px;font-style:normal;font-weight:normal;text-anchor:middle;" transform="rotate(-90, 19.815625, 143.28)" x="19.815625" y="143.28">temperature (°C)</text>
    </g>
   </g>
   <g id="line2d_16">
    <path clip-path="url(#pd45d048103)" d="M 69.218182 62.938148 
L 71.85688 62.554093 
L 72.871763 62.59142 
L 73.785159 62.839815 
L 74.597066 63.296157 
L 75.408973 64.017911 
L 76.22088 65.038527 
L 77.134275 66.56619 
L 78.149159 68.75019 
L 79.265531 71.72269 
L 80.483391 75.601019 
L 82.005717 81.265381 
L 83.933996 89.426091 
L 87.080136 103.931151 
L 90.936694 121.445663 
L 93.06795 130.125163 
L 94.996229 137.141902 
L 96.620043 142.272458 
L 98.142369 146.37624 
L 99.563206 149.627639 
L 100.882555 152.085643 
L 102.100415 153.88091 
L 103.216787 155.136656 
L 104.33316 156.058382 
L 105.348043 156.645119 
L 106.362927 156.989632 
L 107.377811 157.109965 
L 108.494183 157.022377 
L 109.712043 156.696571 
L 111.437346 155.959576 
L 113.264137 154.907314 
L 115.801346 153.158153 
L 119.860881 150.347823 
L 122.601067 148.694587 
L 124.630835 147.711885 
L 126.863579 146.866929 
L 128.994835 146.280685 
L 130.923114 145.986685 
L 132.851393 145.905107 
L 134.678184 146.039078 
L 136.403486 146.384793 
L 138.433254 147.038623 
L 140.158556 147.805452 
L 141.680882 148.718703 
L 143.203207 149.914597 
L 144.624044 151.310015 
L 146.044882 153.012208 
L 147.465719 155.083677 
L 148.785068 157.424923 
L 150.002928 160.01286 
L 151.322277 163.342509 
L 152.844603 167.237214 
L 154.569905 171.482302 
L 155.889254 175.05077 
L 157.310091 179.64373 
L 159.339859 187.057606 
L 161.674091 196.407208 
L 164.211301 207.471146 
L 166.241068 217.297722 
L 168.169347 227.776017 
L 169.488696 234.181642 
L 170.50358 238.148078 
L 171.315487 240.448272 
L 171.924417 241.578568 
L 172.431859 242.052876 
L 172.837813 242.099413 
L 173.142278 241.930678 
L 173.548231 241.423701 
L 174.055673 240.317136 
L 174.664603 238.28584 
L 175.375022 234.954897 
L 176.186929 229.967573 
L 177.201813 222.170614 
L 178.521162 210.019296 
L 182.682185 170.115515 
L 184.407487 156.340594 
L 186.031301 145.160514 
L 187.655115 135.54938 
L 189.177441 127.796538 
L 190.801255 120.686585 
L 192.425069 114.602652 
L 194.048883 109.385725 
L 195.672697 104.896656 
L 197.296511 101.0269 
L 198.920325 97.650621 
L 200.747116 94.362794 
L 202.573906 91.523417 
L 204.502186 88.926342 
L 206.531953 86.571644 
L 208.663209 84.449847 
L 210.895953 82.556652 
L 213.230186 80.877657 
L 215.767395 79.337411 
L 218.507581 77.945277 
L 221.552233 76.652536 
L 224.901349 75.482083 
L 229.468326 74.14753 
L 238.703768 71.527318 
L 245.503489 69.535162 
L 258.494001 66.073786 
L 262.655024 65.376508 
L 268.439862 64.674845 
L 287.215211 62.609814 
L 291.782188 62.502406 
L 295.943211 62.649334 
L 300.611677 63.056835 
L 305.99056 63.756959 
L 317.25577 65.505092 
L 324.359956 66.326585 
L 331.362654 67.167205 
L 336.234096 67.946068 
L 342.424887 69.183643 
L 349.630562 70.588871 
L 354.806469 71.342185 
L 360.99726 71.927467 
L 368.304423 72.28623 
L 373.581818 72.386472 
L 373.581818 72.386472 
" style="fill:none;stroke:#40b5c4;stroke-dasharray:5.55,2.4;stroke-dashoffset:0;stroke-width:1.5;"/>
    <defs>
     <path d="M 0 3 
C 0.795609 3 1.55874 2.683901 2.12132 2.12132 
C 2.683901 1.55874 3 0.795609 3 0 
C 3 -0.795609 2.683901 -1.55874 2.12132 -2.12132 
C 1.55874 -2.683901 0.795609 -3 0 -3 
C -0.795609 -3 -1.55874 -2.683901 -2.12132 -2.12132 
C -2.683901 -1.55874 -3 -0.795609 -3 0 
C -3 0.795609 -2.683901 1.55874 -2.12132 2.12132 
C -1.55874 2.683901 -0.795609 3 0 3 
z
" id="md1afb57445" style="stroke:#40b5c4;"/>
    </defs>
    <g clip-path="url(#pd45d048103)">
     <use style="fill:#40b5c4;stroke:#40b5c4;" x="69.218182" xlink:href="#md1afb57445" y="62.938148"/>
     <use style="fill:#40b5c4;stroke:#40b5c4;" x="77.337252" xlink:href="#md1afb57445" y="66.961687"/>
     <use style="fill:#40b5c4;stroke:#40b5c4;" x="85.456322" xlink:href="#md1afb57445" y="96.356059"/>
     <use style="fill:#40b5c4;stroke:#40b5c4;" x="93.575392" xlink:href="#md1afb57445" y="132.059008"/>
     <use style="fill:#40b5c4;stroke:#40b5c4;" x="101.694462" xlink:href="#md1afb57445" y="153.332205"/>
     <use style="fill:#40b5c4;stroke:#40b5c4;" x="109.813532" xlink:href="#md1afb57445" y="156.660081"/>
     <use style="fill:#40b5c4;stroke:#40b5c4;" x="117.932602" xlink:href="#md1afb57445" y="151.646839"/>
     <use style="fill:#40b5c4;stroke:#40b5c4;" x="126.051672" xlink:href="#md1afb57445" y="147.147091"/>
     <use style="fill:#40b5c4;stroke:#40b5c4;" x="134.170742" xlink:href="#md1afb57445" y="145.980213"/>
     <use style="fill:#40b5c4;stroke:#40b5c4;" x="142.289812" xlink:href="#md1afb57445" y="149.162361"/>
     <use style="fill:#40b5c4;stroke:#40b5c4;" x="150.408882" xlink:href="#md1afb57445" y="160.978088"/>
     <use style="fill:#40b5c4;stroke:#40b5c4;" x="158.527952" xlink:href="#md1afb57445" y="184.010061"/>
     <use style="fill:#40b5c4;stroke:#40b5c4;" x="166.647022" xlink:href="#md1afb57445" y="219.414819"/>
     <use style="fill:#40b5c4;stroke:#40b5c4;" x="174.766092" xlink:href="#md1afb57445" y="237.872554"/>
     <use style="fill:#40b5c4;stroke:#40b5c4;" x="182.885162" xlink:href="#md1afb57445" y="168.390716"/>
     <use style="fill:#40b5c4;stroke:#40b5c4;" x="191.004232" xlink:href="#md1afb57445" y="119.873389"/>
     <use style="fill:#40b5c4;stroke:#40b5c4;" x="199.123302" xlink:href="#md1afb57445" y="97.261467"/>
     <use style="fill:#40b5c4;stroke:#40b5c4;" x="207.242372" xlink:href="#md1afb57445" y="85.828469"/>
     <use style="fill:#40b5c4;stroke:#40b5c4;" x="215.361442" xlink:href="#md1afb57445" y="79.564691"/>
     <use style="fill:#40b5c4;stroke:#40b5c4;" x="223.480512" xlink:href="#md1afb57445" y="75.951089"/>
     <use style="fill:#40b5c4;stroke:#40b5c4;" x="231.599582" xlink:href="#md1afb57445" y="73.582182"/>
     <use style="fill:#40b5c4;stroke:#40b5c4;" x="239.718652" xlink:href="#md1afb57445" y="71.214481"/>
     <use style="fill:#40b5c4;stroke:#40b5c4;" x="247.837722" xlink:href="#md1afb57445" y="68.891632"/>
     <use style="fill:#40b5c4;stroke:#40b5c4;" x="255.956792" xlink:href="#md1afb57445" y="66.637764"/>
     <use style="fill:#40b5c4;stroke:#40b5c4;" x="264.075862" xlink:href="#md1afb57445" y="65.187355"/>
     <use style="fill:#40b5c4;stroke:#40b5c4;" x="272.194932" xlink:href="#md1afb57445" y="64.228508"/>
     <use style="fill:#40b5c4;stroke:#40b5c4;" x="280.314002" xlink:href="#md1afb57445" y="63.227601"/>
     <use style="fill:#40b5c4;stroke:#40b5c4;" x="288.433072" xlink:href="#md1afb57445" y="62.561468"/>
     <use style="fill:#40b5c4;stroke:#40b5c4;" x="296.552142" xlink:href="#md1afb57445" y="62.688708"/>
     <use style="fill:#40b5c4;stroke:#40b5c4;" x="304.671212" xlink:href="#md1afb57445" y="63.562277"/>
     <use style="fill:#40b5c4;stroke:#40b5c4;" x="312.790282" xlink:href="#md1afb57445" y="64.872956"/>
     <use style="fill:#40b5c4;stroke:#40b5c4;" x="320.909352" xlink:href="#md1afb57445" y="65.944973"/>
     <use style="fill:#40b5c4;stroke:#40b5c4;" x="329.028422" xlink:href="#md1afb57445" y="66.860149"/>
     <use style="fill:#40b5c4;stroke:#40b5c4;" x="337.147492" xlink:href="#md1afb57445" y="68.113047"/>
     <use style="fill:#40b5c4;stroke:#40b5c4;" x="345.266562" xlink:href="#md1afb57445" y="69.773452"/>
     <use style="fill:#40b5c4;stroke:#40b5c4;" x="353.385632" xlink:href="#md1afb57445" y="71.163007"/>
     <use style="fill:#40b5c4;stroke:#40b5c4;" x="361.504702" xlink:href="#md1afb57445" y="71.960936"/>
     <use style="fill:#40b5c4;stroke:#40b5c4;" x="369.623772" xlink:href="#md1afb57445" y="72.331518"/>
    </g>
   </g>
   <g id="line2d_17">
    <path clip-path="url(#pd45d048103)" d="M 69.218182 82.678562 
L 69.31967 82.702119 
L 69.421159 82.502654 
L 69.725624 82.938912 
L 69.827112 82.566698 
L 69.9286 82.924598 
L 70.131577 82.727572 
L 70.233066 83.090925 
L 70.334554 82.623071 
L 70.537531 83.005895 
L 70.639019 82.842537 
L 70.740507 83.159848 
L 70.841996 82.798465 
L 70.943484 83.086854 
L 71.044973 83.044354 
L 71.146461 82.84048 
L 71.247949 83.285717 
L 71.349438 82.789985 
L 71.552414 83.170018 
L 71.653903 82.999106 
L 71.755391 83.305674 
L 71.85688 82.923467 
L 72.059856 83.203612 
L 72.161345 83.038711 
L 72.262833 83.285188 
L 72.364321 82.949464 
L 72.46581 83.287216 
L 72.567298 83.241336 
L 72.668787 82.981809 
L 72.770275 83.281999 
L 72.871763 83.038461 
L 73.07474 83.333258 
L 73.176228 82.959236 
L 73.277717 83.287584 
L 73.480694 83.03417 
L 73.582182 83.23318 
L 73.68367 82.908536 
L 73.785159 83.208506 
L 73.886647 82.891989 
L 74.089624 83.29136 
L 74.191112 82.732672 
L 74.292601 83.017373 
L 74.495577 82.868314 
L 74.597066 83.020268 
L 74.698554 82.642513 
L 74.800042 82.931285 
L 75.003019 82.678327 
L 75.104508 82.890093 
L 75.205996 82.455804 
L 75.307484 82.75013 
L 75.408973 82.705205 
L 75.510461 82.498539 
L 75.611949 82.829502 
L 75.713438 82.293519 
L 75.814926 82.606068 
L 76.017903 82.314946 
L 76.119391 82.740461 
L 76.22088 82.128016 
L 76.423856 82.425737 
L 76.525345 82.215485 
L 76.626833 82.51103 
L 76.728322 82.047086 
L 76.82981 82.389218 
L 76.931298 82.283497 
L 77.032787 81.945259 
L 77.134275 82.363662 
L 77.235763 81.868004 
L 77.43874 82.164917 
L 77.540229 81.850971 
L 77.641717 82.063619 
L 77.743205 81.797229 
L 77.946182 82.219056 
L 78.04767 81.911724 
L 78.149159 82.358504 
L 78.250647 82.037078 
L 78.453624 82.552649 
L 78.555112 82.341339 
L 78.656601 82.576838 
L 78.758089 82.363721 
L 78.961066 82.836071 
L 79.062554 82.443092 
L 79.164043 82.96003 
L 79.367019 82.770969 
L 79.468508 83.099728 
L 79.569996 82.788045 
L 79.671484 83.317989 
L 79.772973 83.022031 
L 79.97595 83.462199 
L 80.077438 83.149179 
L 80.280415 83.461552 
L 80.483391 83.689454 
L 80.58488 83.431749 
L 80.686368 83.927599 
L 80.889345 83.821686 
L 80.990833 84.089355 
L 81.092322 83.740228 
L 81.295298 84.07629 
L 81.396787 83.966087 
L 81.498275 84.245042 
L 81.599764 83.995934 
L 81.80274 84.3398 
L 81.904229 84.425432 
L 82.005717 84.804789 
L 82.107205 84.574477 
L 82.310182 84.894697 
L 82.411671 84.929526 
L 82.513159 85.218298 
L 82.614647 85.105537 
L 82.716136 85.453827 
L 82.817624 85.411532 
L 82.919112 85.442687 
L 83.020601 85.831052 
L 83.122089 85.657701 
L 83.325066 86.090711 
L 83.426554 86.057455 
L 83.731019 86.564238 
L 83.832508 86.648989 
L 83.933996 86.552085 
L 84.035485 86.911822 
L 84.136973 86.870851 
L 84.542926 87.486441 
L 84.644415 87.518155 
L 85.050368 88.157229 
L 85.151857 88.094728 
L 86.978647 93.87554 
L 87.283113 95.000603 
L 88.196508 98.236611 
L 88.906927 100.547181 
L 95.808136 121.271802 
L 96.112601 122.067415 
L 96.417066 123.040921 
L 96.620043 123.444334 
L 97.127485 124.781854 
L 98.649811 128.672905 
L 99.664694 130.84125 
L 100.57809 131.14773 
L 100.882555 131.228865 
L 101.694462 131.46967 
L 103.115299 131.853141 
L 103.927206 132.061894 
L 109.001625 133.386908 
L 109.407578 132.84221 
L 110.726927 131.185219 
L 110.929904 131.063215 
L 112.147764 130.134252 
L 112.45223 129.90125 
L 112.959671 129.57568 
L 113.365625 129.218882 
L 113.974555 128.787885 
L 118.03409 126.016268 
L 118.541532 125.628021 
L 119.353439 125.165913 
L 120.063858 124.619584 
L 120.5713 124.349461 
L 120.875765 124.129245 
L 120.977253 124.139605 
L 121.18023 123.988136 
L 121.586183 123.818988 
L 121.890648 123.646651 
L 121.992137 123.651897 
L 122.195114 123.521267 
L 123.311486 123.029003 
L 123.514462 123.118118 
L 123.920416 123.110932 
L 124.021904 123.189466 
L 124.224881 123.146055 
L 125.239765 123.246956 
L 127.371021 119.548401 
L 130.51716 114.636696 
L 133.6633 108.98963 
L 134.27223 108.103784 
L 135.693067 106.358766 
L 135.997533 106.069833 
L 136.403486 105.695443 
L 137.519858 104.919566 
L 138.839207 104.457561 
L 139.042184 104.523207 
L 139.854091 105.895438 
L 140.767486 108.645676 
L 141.477905 110.859504 
L 142.188323 112.966126 
L 143.913626 116.782688 
L 144.421068 118.004508 
L 146.958277 124.303933 
L 148.480603 128.657067 
L 149.089533 130.438277 
L 149.495486 131.349738 
L 149.698463 131.602916 
L 150.408882 132.202599 
L 150.814835 132.562954 
L 151.423765 133.137381 
L 151.525254 133.426638 
L 151.626742 133.38197 
L 152.032696 133.798316 
L 152.337161 134.084354 
L 152.540138 134.3763 
L 152.844603 134.644644 
L 153.65651 135.592183 
L 153.960975 136.226738 
L 154.062463 136.262141 
L 154.772882 137.557968 
L 155.077347 137.988833 
L 155.4833 138.782889 
L 157.107114 141.729617 
L 157.41158 142.344215 
L 157.513068 142.373533 
L 157.716045 142.874923 
L 158.02051 143.4703 
L 158.324975 144.140882 
L 158.426463 144.199048 
L 158.933905 145.381469 
L 159.948789 148.034854 
L 160.253254 148.802179 
L 161.166649 151.716531 
L 161.268138 151.783941 
L 161.572603 152.812482 
L 161.77558 153.428668 
L 161.978556 154.137826 
L 163.906836 161.319681 
L 164.312789 162.894985 
L 164.515766 163.41185 
L 165.023208 164.734688 
L 165.53065 165.881509 
L 165.835115 166.527887 
L 167.052975 168.715887 
L 167.154464 168.69244 
L 167.560417 169.282166 
L 167.864882 169.566624 
L 168.169347 169.855058 
L 168.270836 169.902709 
L 168.473812 170.058271 
L 169.488696 170.310597 
L 169.996138 170.300876 
L 170.199115 170.356911 
L 171.011022 169.980479 
L 171.11251 170.056868 
L 171.416975 169.76925 
L 171.619952 169.66801 
L 172.025906 169.086661 
L 172.228882 168.109797 
L 173.751208 159.398746 
L 174.360138 155.570825 
L 175.780975 146.345415 
L 176.389906 142.211241 
L 180.449441 112.327977 
L 182.174743 102.440259 
L 182.580697 100.240598 
L 184.001534 92.736486 
L 186.031301 82.766163 
L 187.147673 79.07866 
L 187.553627 78.533007 
L 188.771487 76.967894 
L 188.872976 77.016743 
L 189.278929 76.294167 
L 189.380418 76.323191 
L 189.481906 76.217881 
L 189.684883 75.944584 
L 189.786371 75.914414 
L 190.090836 75.444399 
L 190.598278 74.923244 
L 191.816139 73.626784 
L 191.917627 73.651899 
L 192.425069 73.072313 
L 192.526557 72.999951 
L 192.729534 72.75293 
L 192.932511 72.581327 
L 193.439953 72.149419 
L 193.744418 71.825863 
L 194.25186 71.421141 
L 194.454836 71.262251 
L 194.556325 71.216238 
L 194.759302 71.042035 
L 195.46972 70.582337 
L 195.875674 70.321046 
L 196.07865 70.217764 
L 196.890557 69.681369 
L 196.992046 69.742783 
L 197.296511 69.458537 
L 198.00693 69.084222 
L 199.935209 67.932853 
L 200.239674 67.795315 
L 200.544139 67.576172 
L 203.081348 66.261842 
L 204.19772 65.663475 
L 204.908139 65.285206 
L 205.111116 65.233066 
L 208.967674 63.31693 
L 209.069162 63.386544 
L 209.272139 63.211223 
L 209.576604 63.112012 
L 209.678093 63.136878 
L 209.779581 62.994726 
L 210.084046 63.068498 
L 210.388511 62.829457 
L 210.692976 62.866637 
L 210.794465 62.696696 
L 211.09893 62.740136 
L 211.403395 62.579262 
L 211.606372 62.522551 
L 211.910837 62.441915 
L 212.621256 62.230223 
L 212.722744 62.287698 
L 213.027209 62.088717 
L 213.331674 62.086322 
L 213.534651 61.949064 
L 214.346558 61.777064 
L 214.448046 61.56211 
L 214.549535 61.673621 
L 214.651023 61.602802 
L 214.752511 61.673768 
L 215.056977 61.428114 
L 215.158465 61.466293 
L 215.46293 61.327697 
L 215.767395 61.280039 
L 216.274837 61.076856 
L 218.812046 60.168922 
L 219.015023 60.075281 
L 219.218 60.047638 
L 219.522465 59.900181 
L 224.698372 57.737612 
L 224.799861 57.622941 
L 224.901349 57.685912 
L 225.205814 57.475395 
L 225.713256 57.261998 
L 226.322186 56.977944 
L 227.438558 56.43013 
L 227.540047 56.258748 
L 227.641535 56.337179 
L 227.743023 56.203463 
L 227.844512 56.284333 
L 228.148977 56.003512 
L 228.757907 55.753229 
L 228.960884 55.568297 
L 229.772791 54.92959 
L 230.584698 54.051754 
L 232.411489 52.2379 
L 233.324884 51.409999 
L 233.629349 51.354273 
L 233.933814 51.293609 
L 234.441256 51.141111 
L 234.745721 51.171546 
L 235.050186 50.93249 
L 235.354652 50.904348 
L 235.557628 50.798523 
L 237.282931 50.272856 
L 237.587396 50.15407 
L 237.688884 50.214499 
L 238.094838 50.02441 
L 241.545442 49.376532 
L 241.646931 49.454523 
L 241.951396 49.302877 
L 242.560326 49.273148 
L 242.96628 49.13924 
L 243.270745 49.12597 
L 243.57521 49.109643 
L 244.488605 48.975867 
L 244.691582 48.979218 
L 247.736233 48.713283 
L 248.243675 48.717295 
L 248.54814 48.730492 
L 248.751117 48.719103 
L 249.461536 48.674472 
L 249.563024 48.760324 
L 249.867489 48.667256 
L 251.389815 48.548867 
L 251.491303 48.672561 
L 251.795768 48.538801 
L 253.622559 48.465234 
L 253.825536 48.413446 
L 254.637443 48.34805 
L 254.84042 48.30045 
L 255.652327 48.261624 
L 255.855303 48.188307 
L 256.05828 48.174772 
L 257.276141 47.986078 
L 257.377629 48.178372 
L 257.580606 48.016396 
L 258.189536 47.926575 
L 258.392513 47.944783 
L 258.899955 47.863046 
L 259.305908 47.830715 
L 262.147583 47.392414 
L 262.350559 47.390768 
L 264.075862 47.079497 
L 264.17735 47.198033 
L 264.380327 47.096574 
L 264.583304 47.029061 
L 265.090745 46.955553 
L 265.192234 47.008134 
L 265.496699 46.890715 
L 265.699676 46.884514 
L 265.902652 46.830815 
L 266.308606 46.804804 
L 266.511583 46.756866 
L 266.714559 46.785464 
L 266.816048 46.647177 
L 267.120513 46.77506 
L 267.424978 46.635803 
L 267.729443 46.615376 
L 267.830932 46.585249 
L 267.93242 46.720509 
L 268.135397 46.597182 
L 268.642839 46.498926 
L 268.744327 46.621078 
L 268.947304 46.499338 
L 270.571118 46.351822 
L 270.875583 46.306912 
L 271.07856 46.286426 
L 271.180048 46.306265 
L 271.383025 46.228965 
L 271.788978 46.238429 
L 271.991955 46.165627 
L 272.499397 46.163393 
L 272.702374 46.112369 
L 274.123211 45.952832 
L 274.224699 46.012173 
L 274.529164 45.877031 
L 276.05149 45.734159 
L 276.152978 45.83653 
L 276.355955 45.730926 
L 276.558932 45.680784 
L 277.776792 45.569949 
L 277.979769 45.512753 
L 278.081257 45.565599 
L 278.284234 45.49018 
L 279.603583 45.365913 
L 279.908048 45.34143 
L 280.009537 45.357948 
L 280.212513 45.28344 
L 280.41549 45.31774 
L 280.719955 45.246407 
L 281.227397 45.205553 
L 281.328885 45.2646 
L 281.531862 45.172311 
L 282.242281 45.126225 
L 282.648234 45.078258 
L 282.952699 44.959017 
L 283.257165 45.107091 
L 283.460141 45.014684 
L 283.663118 44.96081 
L 284.373537 44.932799 
L 284.678002 44.853677 
L 284.77949 44.930331 
L 284.880979 44.789163 
L 285.185444 44.918603 
L 285.38842 44.813852 
L 286.301816 44.790162 
L 286.504793 44.742901 
L 287.519676 44.665777 
L 287.621165 44.731321 
L 287.824141 44.642764 
L 287.92563 44.61637 
L 288.027118 44.769265 
L 288.230095 44.684941 
L 288.433072 44.608082 
L 288.636048 44.612373 
L 288.839025 44.602968 
L 288.940514 44.701459 
L 289.244979 44.556911 
L 289.549444 44.603115 
L 289.752421 44.541451 
L 289.955397 44.615077 
L 290.259862 44.564259 
L 290.665816 44.526756 
L 293.304514 44.531693 
L 293.50749 44.460301 
L 294.319397 44.502449 
L 294.522374 44.476232 
L 294.725351 44.550298 
L 295.029816 44.501743 
L 295.232793 44.560585 
L 295.334281 44.443636 
L 295.638746 44.643616 
L 295.841723 44.574987 
L 297.059583 44.709277 
L 297.26256 44.704398 
L 298.074467 44.751248 
L 298.581909 44.825873 
L 299.901258 45.043988 
L 300.104235 44.995168 
L 300.307211 45.172693 
L 300.510188 45.075407 
L 301.119118 45.149356 
L 301.220607 45.273535 
L 301.525072 45.218367 
L 303.960793 45.590053 
L 304.062281 45.704092 
L 304.265258 45.648659 
L 304.468235 45.664031 
L 306.498002 45.9732 
L 306.599491 45.949863 
L 306.802467 46.032219 
L 307.309909 46.194724 
L 307.512886 46.148462 
L 315.226003 47.332294 
L 315.327491 47.24262 
L 315.631956 47.460088 
L 315.834933 47.365241 
L 316.342375 47.474637 
L 316.443863 47.439602 
L 316.545351 47.602931 
L 316.748328 47.556198 
L 316.951305 47.517636 
L 317.052793 47.631764 
L 317.25577 47.580417 
L 317.661724 47.708035 
L 317.763212 47.623769 
L 317.966189 47.750476 
L 318.270654 47.75703 
L 318.372142 47.893525 
L 318.473631 47.800941 
L 318.575119 47.864897 
L 318.778096 47.812904 
L 319.082561 47.888087 
L 323.243584 48.601889 
L 323.345073 48.729272 
L 323.548049 48.632486 
L 323.852514 48.725834 
L 323.954003 48.674604 
L 324.258468 48.868529 
L 324.562933 48.829468 
L 324.968887 48.948621 
L 325.171863 48.954911 
L 325.679305 49.070861 
L 325.882282 49.097695 
L 326.186747 49.130996 
L 326.288235 49.210794 
L 326.389724 49.095138 
L 326.592701 49.246651 
L 326.795677 49.251236 
L 327.506096 49.384086 
L 327.607584 49.496949 
L 327.810561 49.372035 
L 327.912049 49.582214 
L 328.013538 49.458652 
L 328.115026 49.538744 
L 328.318003 49.532748 
L 328.825445 49.74713 
L 329.028422 49.699457 
L 329.231398 49.706188 
L 329.535863 49.768615 
L 329.637352 49.780019 
L 329.73884 49.929005 
L 329.941817 49.818845 
L 330.144794 49.889943 
L 330.855212 50.060649 
L 331.261166 50.067938 
L 331.565631 50.237704 
L 331.870096 50.203492 
L 332.073073 50.3282 
L 332.174561 50.234765 
L 332.479026 50.436479 
L 332.88498 50.442034 
L 333.087957 50.449235 
L 333.290933 50.536057 
L 333.392422 50.667966 
L 333.595398 50.594723 
L 339.075771 51.852269 
L 339.380236 51.967572 
L 339.583213 51.964603 
L 340.902561 52.306015 
L 341.105538 52.437278 
L 341.410003 52.454942 
L 341.61298 52.50479 
L 341.815957 52.575359 
L 342.018934 52.651601 
L 345.774003 53.680186 
L 345.97698 53.538137 
L 346.078469 53.675983 
L 346.281445 53.592276 
L 346.484422 53.718189 
L 346.58591 53.56309 
L 346.788887 53.68533 
L 346.991864 53.627605 
L 347.093352 53.687152 
L 347.194841 53.615672 
L 347.397817 53.80413 
L 347.600794 53.626135 
L 347.702283 53.80319 
L 347.905259 53.631367 
L 348.108236 53.851304 
L 348.209724 53.718748 
L 348.412701 54.000054 
L 348.615678 53.759249 
L 348.818655 53.92346 
L 348.920143 53.788494 
L 349.12312 54.06063 
L 349.224608 53.884839 
L 349.427585 54.136666 
L 349.630562 53.910175 
L 349.73205 54.138488 
L 349.935027 54.019541 
L 350.036515 54.232864 
L 350.239492 54.033531 
L 350.442469 54.281537 
L 350.645445 54.122 
L 350.848422 54.235127 
L 351.152887 54.380204 
L 351.254376 54.221196 
L 351.457352 54.496477 
L 351.558841 54.28571 
L 351.863306 54.50744 
L 352.979678 54.765027 
L 353.081166 54.917981 
L 353.284143 54.790421 
L 353.48712 54.929149 
L 353.588608 54.803207 
L 353.791585 55.015796 
L 353.994562 54.987903 
L 354.09605 55.168573 
L 354.299027 54.983759 
L 354.502004 55.198611 
L 354.603492 55.04651 
L 354.806469 55.216481 
L 354.907957 55.171629 
L 355.110934 55.360058 
L 355.313911 55.175803 
L 355.415399 55.486795 
L 355.719864 55.410083 
L 356.328794 55.677105 
L 356.531771 55.513717 
L 356.734748 55.646831 
L 356.836236 55.573764 
L 357.039213 55.740767 
L 357.140701 55.645773 
L 357.343678 55.896689 
L 357.546655 55.724454 
L 357.749632 55.89375 
L 357.85112 55.747174 
L 358.054097 55.931812 
L 358.155585 55.857304 
L 358.358562 56.049319 
L 358.561539 55.861125 
L 358.764515 56.017723 
L 358.866004 55.8981 
L 359.068981 56.031596 
L 359.271957 56.071304 
L 359.373446 56.225697 
L 359.576422 55.999677 
L 359.677911 56.195806 
L 359.880888 56.146282 
L 360.185353 56.160713 
L 360.388329 56.240511 
L 360.895771 56.247124 
L 361.098748 56.278279 
L 361.504702 56.345703 
L 361.707678 56.347613 
L 362.012143 56.460271 
L 362.113632 56.370803 
L 362.418097 56.498451 
L 363.331492 56.544537 
L 363.432981 56.644056 
L 363.635957 56.577279 
L 363.940423 56.739285 
L 364.143399 56.612255 
L 364.447864 56.862083 
L 364.549353 56.631095 
L 364.853818 56.802653 
L 364.955306 56.801418 
L 365.056795 56.638707 
L 365.259771 57.066118 
L 365.36126 56.864346 
L 365.462748 56.983881 
L 365.564237 56.762651 
L 365.767213 56.966187 
L 365.868702 56.96557 
L 365.97019 57.111087 
L 366.071678 56.834895 
L 366.173167 57.055126 
L 366.274655 56.986526 
L 366.376144 57.159936 
L 366.477632 57.008776 
L 366.782097 57.191532 
L 366.985074 57.064531 
L 367.086562 57.221335 
L 367.289539 57.203406 
L 367.391027 57.36215 
L 367.492516 57.172633 
L 367.796981 57.378168 
L 367.898469 57.343486 
L 367.999958 57.159613 
L 368.304423 57.452734 
L 368.405911 57.500643 
L 368.507399 57.307482 
L 368.811865 57.626174 
L 369.014841 57.248669 
L 369.11633 57.628672 
L 369.217818 57.533943 
L 369.319306 57.622882 
L 369.522283 57.472221 
L 369.623772 57.691688 
L 369.72526 57.521658 
L 369.826748 57.69833 
L 370.029725 57.54088 
L 370.232702 57.796174 
L 370.435679 57.673112 
L 370.740144 57.874179 
L 370.841632 57.702886 
L 371.247586 58.012349 
L 371.349074 57.72972 
L 371.552051 57.90266 
L 371.653539 57.796968 
L 371.755027 58.099025 
L 371.856516 57.764549 
L 371.958004 57.801582 
L 372.160981 58.005354 
L 372.262469 58.039272 
L 372.363958 57.728398 
L 372.566934 58.100465 
L 372.668423 57.935931 
L 372.769911 58.031013 
L 372.8714 57.801671 
L 373.074376 58.091324 
L 373.48033 57.983369 
L 373.581818 58.094057 
L 373.581818 58.094057 
" style="fill:none;stroke:#081d58;stroke-dasharray:5.55,2.4;stroke-dashoffset:0;stroke-width:1.5;"/>
    <defs>
     <path d="M -0 4.242641 
L 4.242641 0 
L 0 -4.242641 
L -4.242641 -0 
z
" id="mf845a574ff" style="stroke:#081d58;stroke-linejoin:miter;"/>
    </defs>
    <g clip-path="url(#pd45d048103)">
     <use style="fill:#081d58;stroke:#081d58;stroke-linejoin:miter;" x="69.218182" xlink:href="#mf845a574ff" y="82.678562"/>
     <use style="fill:#081d58;stroke:#081d58;stroke-linejoin:miter;" x="77.337252" xlink:href="#mf845a574ff" y="82.148178"/>
     <use style="fill:#081d58;stroke:#081d58;stroke-linejoin:miter;" x="85.456322" xlink:href="#mf845a574ff" y="89.186946"/>
     <use style="fill:#081d58;stroke:#081d58;stroke-linejoin:miter;" x="93.575392" xlink:href="#mf845a574ff" y="114.861629"/>
     <use style="fill:#081d58;stroke:#081d58;stroke-linejoin:miter;" x="101.694462" xlink:href="#mf845a574ff" y="131.46967"/>
     <use style="fill:#081d58;stroke:#081d58;stroke-linejoin:miter;" x="109.813532" xlink:href="#mf845a574ff" y="132.287019"/>
     <use style="fill:#081d58;stroke:#081d58;stroke-linejoin:miter;" x="117.932602" xlink:href="#mf845a574ff" y="126.065925"/>
     <use style="fill:#081d58;stroke:#081d58;stroke-linejoin:miter;" x="126.051672" xlink:href="#mf845a574ff" y="121.793178"/>
     <use style="fill:#081d58;stroke:#081d58;stroke-linejoin:miter;" x="134.170742" xlink:href="#mf845a574ff" y="108.244276"/>
     <use style="fill:#081d58;stroke:#081d58;stroke-linejoin:miter;" x="142.289812" xlink:href="#mf845a574ff" y="113.176452"/>
     <use style="fill:#081d58;stroke:#081d58;stroke-linejoin:miter;" x="150.408882" xlink:href="#mf845a574ff" y="132.202599"/>
     <use style="fill:#081d58;stroke:#081d58;stroke-linejoin:miter;" x="158.527952" xlink:href="#mf845a574ff" y="144.497394"/>
     <use style="fill:#081d58;stroke:#081d58;stroke-linejoin:miter;" x="166.647022" xlink:href="#mf845a574ff" y="168.078671"/>
     <use style="fill:#081d58;stroke:#081d58;stroke-linejoin:miter;" x="174.766092" xlink:href="#mf845a574ff" y="152.908284"/>
     <use style="fill:#081d58;stroke:#081d58;stroke-linejoin:miter;" x="182.885162" xlink:href="#mf845a574ff" y="98.626886"/>
     <use style="fill:#081d58;stroke:#081d58;stroke-linejoin:miter;" x="191.004232" xlink:href="#mf845a574ff" y="74.465882"/>
     <use style="fill:#081d58;stroke:#081d58;stroke-linejoin:miter;" x="199.123302" xlink:href="#mf845a574ff" y="68.359971"/>
     <use style="fill:#081d58;stroke:#081d58;stroke-linejoin:miter;" x="207.242372" xlink:href="#mf845a574ff" y="64.159717"/>
     <use style="fill:#081d58;stroke:#081d58;stroke-linejoin:miter;" x="215.361442" xlink:href="#mf845a574ff" y="61.388847"/>
     <use style="fill:#081d58;stroke:#081d58;stroke-linejoin:miter;" x="223.480512" xlink:href="#mf845a574ff" y="58.367825"/>
     <use style="fill:#081d58;stroke:#081d58;stroke-linejoin:miter;" x="231.599582" xlink:href="#mf845a574ff" y="53.041758"/>
     <use style="fill:#081d58;stroke:#081d58;stroke-linejoin:miter;" x="239.718652" xlink:href="#mf845a574ff" y="49.715563"/>
     <use style="fill:#081d58;stroke:#081d58;stroke-linejoin:miter;" x="247.837722" xlink:href="#mf845a574ff" y="48.734342"/>
     <use style="fill:#081d58;stroke:#081d58;stroke-linejoin:miter;" x="255.956792" xlink:href="#mf845a574ff" y="48.220167"/>
     <use style="fill:#081d58;stroke:#081d58;stroke-linejoin:miter;" x="264.075862" xlink:href="#mf845a574ff" y="47.079497"/>
     <use style="fill:#081d58;stroke:#081d58;stroke-linejoin:miter;" x="272.194932" xlink:href="#mf845a574ff" y="46.105286"/>
     <use style="fill:#081d58;stroke:#081d58;stroke-linejoin:miter;" x="280.314002" xlink:href="#mf845a574ff" y="45.327263"/>
     <use style="fill:#081d58;stroke:#081d58;stroke-linejoin:miter;" x="288.433072" xlink:href="#mf845a574ff" y="44.608082"/>
     <use style="fill:#081d58;stroke:#081d58;stroke-linejoin:miter;" x="296.552142" xlink:href="#mf845a574ff" y="44.732349"/>
     <use style="fill:#081d58;stroke:#081d58;stroke-linejoin:miter;" x="304.671212" xlink:href="#mf845a574ff" y="45.643281"/>
     <use style="fill:#081d58;stroke:#081d58;stroke-linejoin:miter;" x="312.790282" xlink:href="#mf845a574ff" y="47.013102"/>
     <use style="fill:#081d58;stroke:#081d58;stroke-linejoin:miter;" x="320.909352" xlink:href="#mf845a574ff" y="48.158518"/>
     <use style="fill:#081d58;stroke:#081d58;stroke-linejoin:miter;" x="329.028422" xlink:href="#mf845a574ff" y="49.699457"/>
     <use style="fill:#081d58;stroke:#081d58;stroke-linejoin:miter;" x="337.147492" xlink:href="#mf845a574ff" y="51.319576"/>
     <use style="fill:#081d58;stroke:#081d58;stroke-linejoin:miter;" x="345.266562" xlink:href="#mf845a574ff" y="53.454371"/>
     <use style="fill:#081d58;stroke:#081d58;stroke-linejoin:miter;" x="353.385632" xlink:href="#mf845a574ff" y="54.916482"/>
     <use style="fill:#081d58;stroke:#081d58;stroke-linejoin:miter;" x="361.504702" xlink:href="#mf845a574ff" y="56.345703"/>
     <use style="fill:#081d58;stroke:#081d58;stroke-linejoin:miter;" x="369.623772" xlink:href="#mf845a574ff" y="57.691688"/>
    </g>
   </g>
   <g id="patch_3">
    <path d="M 54 252 
L 54 34.56 
" style="fill:none;stroke:#000000;stroke-linecap:square;stroke-linejoin:miter;stroke-width:0.8;"/>
   </g>
   <g id="patch_4">
    <path d="M 388.8 252 
L 388.8 34.56 
" style="fill:none;stroke:#000000;stroke-linecap:square;stroke-linejoin:miter;stroke-width:0.8;"/>
   </g>
   <g id="patch_5">
    <path d="M 54 252 
L 388.8 252 
" style="fill:none;stroke:#000000;stroke-linecap:square;stroke-linejoin:miter;stroke-width:0.8;"/>
   </g>
   <g id="patch_6">
    <path d="M 54 34.56 
L 388.8 34.56 
" style="fill:none;stroke:#000000;stroke-linecap:square;stroke-linejoin:miter;stroke-width:0.8;"/>
   </g>
   <g id="legend_1">
    <g id="patch_7">
     <path d="M 61 247 
L 162.714063 247 
Q 164.714063 247 164.714063 245 
L 164.714063 216.64375 
Q 164.714063 214.64375 162.714063 214.64375 
L 61 214.64375 
Q 59 214.64375 59 216.64375 
L 59 245 
Q 59 247 61 247 
z
" style="fill:#ffffff;opacity:0.8;stroke:#cccccc;stroke-linejoin:miter;"/>
    </g>
    <g id="line2d_18">
     <path d="M 63 222.742188 
L 83 222.742188 
" style="fill:none;stroke:#40b5c4;stroke-dasharray:5.55,2.4;stroke-dashoffset:0;stroke-width:1.5;"/>
    </g>
    <g id="line2d_19">
     <g>
      <use style="fill:#40b5c4;stroke:#40b5c4;" x="73" xlink:href="#md1afb57445" y="222.742188"/>
     </g>
    </g>
    <g id="text_18">
     <text style="font-family:DejaVu Sans;font-size:10px;font-style:normal;font-weight:normal;text-anchor:start;" transform="rotate(-0, 91, 226.242188)" x="91" y="226.242188">original</text>
    </g>
    <g id="line2d_20">
     <path d="M 63 237.420312 
L 83 237.420312 
" style="fill:none;stroke:#081d58;stroke-dasharray:5.55,2.4;stroke-dashoffset:0;stroke-width:1.5;"/>
    </g>
    <g id="line2d_21">
     <g>
      <use style="fill:#081d58;stroke:#081d58;stroke-linejoin:miter;" x="73" xlink:href="#mf845a574ff" y="237.420312"/>
     </g>
    </g>
    <g id="text_19">
     <text style="font-family:DejaVu Sans;font-size:10px;font-style:normal;font-weight:normal;text-anchor:start;" transform="rotate(-0, 91, 240.920312)" x="91" y="240.920312">reconstructed</text>
    </g>
   </g>
  </g>
  <g id="text_20">
   <text style="font-family:DejaVu Sans;font-size:12px;font-style:normal;font-weight:normal;text-anchor:middle;" transform="rotate(-0, 216, 14.878125)" x="216" y="14.878125">Reconstruction of the temperature curve</text>
  </g>
 </g>
 <defs>
  <clipPath id="pd45d048103">
   <rect height="217.44" width="334.8" x="54" y="34.56"/>
  </clipPath>
 </defs>
</svg>
