<?xml version="1.0" encoding="utf-8" standalone="no"?>
<!DOCTYPE svg PUBLIC "-//W3C//DTD SVG 1.1//EN"
  "http://www.w3.org/Graphics/SVG/1.1/DTD/svg11.dtd">
<!-- Created with matplotlib (https://matplotlib.org/) -->
<svg height="288pt" version="1.1" viewBox="0 0 432 288" width="432pt" xmlns="http://www.w3.org/2000/svg" xmlns:xlink="http://www.w3.org/1999/xlink">
 <defs>
  <style type="text/css">
*{stroke-linecap:butt;stroke-linejoin:round;}
  </style>
 </defs>
 <g id="figure_1">
  <g id="patch_1">
   <path d="M 0 288 
L 432 288 
L 432 0 
L 0 0 
z
" style="fill:#ffffff;"/>
  </g>
  <g id="axes_1">
   <g id="patch_2">
    <path d="M 54 252 
L 388.8 252 
L 388.8 34.56 
L 54 34.56 
z
" style="fill:#ffffff;"/>
   </g>
   <g id="matplotlib.axis_1">
    <g id="xtick_1">
     <g id="line2d_1">
      <defs>
       <path d="M 0 0 
L 0 3.5 
" id="m66e0003a77" style="stroke:#000000;stroke-width:0.8;"/>
      </defs>
      <g>
       <use style="stroke:#000000;stroke-width:0.8;" x="69.218182" xlink:href="#m66e0003a77" y="252"/>
      </g>
     </g>
     <g id="text_1">
      <text style="font-family:DejaVu Sans;font-size:10px;font-style:normal;font-weight:normal;text-anchor:middle;" transform="rotate(-0, 69.218182, 266.598437)" x="69.218182" y="266.598437">0</text>
     </g>
    </g>
    <g id="xtick_2">
     <g id="line2d_2">
      <g>
       <use style="stroke:#000000;stroke-width:0.8;" x="119.962369" xlink:href="#m66e0003a77" y="252"/>
      </g>
     </g>
     <g id="text_2">
      <text style="font-family:DejaVu Sans;font-size:10px;font-style:normal;font-weight:normal;text-anchor:middle;" transform="rotate(-0, 119.962369, 266.598437)" x="119.962369" y="266.598437">500</text>
     </g>
    </g>
    <g id="xtick_3">
     <g id="line2d_3">
      <g>
       <use style="stroke:#000000;stroke-width:0.8;" x="170.706557" xlink:href="#m66e0003a77" y="252"/>
      </g>
     </g>
     <g id="text_3">
      <text style="font-family:DejaVu Sans;font-size:10px;font-style:normal;font-weight:normal;text-anchor:middle;" transform="rotate(-0, 170.706557, 266.598437)" x="170.706557" y="266.598437">1000</text>
     </g>
    </g>
    <g id="xtick_4">
     <g id="line2d_4">
      <g>
       <use style="stroke:#000000;stroke-width:0.8;" x="221.450744" xlink:href="#m66e0003a77" y="252"/>
      </g>
     </g>
     <g id="text_4">
      <text style="font-family:DejaVu Sans;font-size:10px;font-style:normal;font-weight:normal;text-anchor:middle;" transform="rotate(-0, 221.450744, 266.598437)" x="221.450744" y="266.598437">1500</text>
     </g>
    </g>
    <g id="xtick_5">
     <g id="line2d_5">
      <g>
       <use style="stroke:#000000;stroke-width:0.8;" x="272.194932" xlink:href="#m66e0003a77" y="252"/>
      </g>
     </g>
     <g id="text_5">
      <text style="font-family:DejaVu Sans;font-size:10px;font-style:normal;font-weight:normal;text-anchor:middle;" transform="rotate(-0, 272.194932, 266.598437)" x="272.194932" y="266.598437">2000</text>
     </g>
    </g>
    <g id="xtick_6">
     <g id="line2d_6">
      <g>
       <use style="stroke:#000000;stroke-width:0.8;" x="322.939119" xlink:href="#m66e0003a77" y="252"/>
      </g>
     </g>
     <g id="text_6">
      <text style="font-family:DejaVu Sans;font-size:10px;font-style:normal;font-weight:normal;text-anchor:middle;" transform="rotate(-0, 322.939119, 266.598437)" x="322.939119" y="266.598437">2500</text>
     </g>
    </g>
    <g id="xtick_7">
     <g id="line2d_7">
      <g>
       <use style="stroke:#000000;stroke-width:0.8;" x="373.683307" xlink:href="#m66e0003a77" y="252"/>
      </g>
     </g>
     <g id="text_7">
      <text style="font-family:DejaVu Sans;font-size:10px;font-style:normal;font-weight:normal;text-anchor:middle;" transform="rotate(-0, 373.683307, 266.598437)" x="373.683307" y="266.598437">3000</text>
     </g>
    </g>
    <g id="text_8">
     <text style="font-family:DejaVu Sans;font-size:10px;font-style:normal;font-weight:normal;text-anchor:middle;" transform="rotate(-0, 221.4, 280.276563)" x="221.4" y="280.276563">Time</text>
    </g>
   </g>
   <g id="matplotlib.axis_2">
    <g id="ytick_1">
     <g id="line2d_8">
      <defs>
       <path d="M 0 0 
L -3.5 0 
" id="m113eca75a4" style="stroke:#000000;stroke-width:0.8;"/>
      </defs>
      <g>
       <use style="stroke:#000000;stroke-width:0.8;" x="54" xlink:href="#m113eca75a4" y="228.463916"/>
      </g>
     </g>
     <g id="text_9">
      <text style="font-family:DejaVu Sans;font-size:10px;font-style:normal;font-weight:normal;text-anchor:end;" transform="rotate(-0, 47, 232.263134)" x="47" y="232.263134">62.5</text>
     </g>
    </g>
    <g id="ytick_2">
     <g id="line2d_9">
      <g>
       <use style="stroke:#000000;stroke-width:0.8;" x="54" xlink:href="#m113eca75a4" y="203.654017"/>
      </g>
     </g>
     <g id="text_10">
      <text style="font-family:DejaVu Sans;font-size:10px;font-style:normal;font-weight:normal;text-anchor:end;" transform="rotate(-0, 47, 207.453236)" x="47" y="207.453236">65.0</text>
     </g>
    </g>
    <g id="ytick_3">
     <g id="line2d_10">
      <g>
       <use style="stroke:#000000;stroke-width:0.8;" x="54" xlink:href="#m113eca75a4" y="178.844118"/>
      </g>
     </g>
     <g id="text_11">
      <text style="font-family:DejaVu Sans;font-size:10px;font-style:normal;font-weight:normal;text-anchor:end;" transform="rotate(-0, 47, 182.643337)" x="47" y="182.643337">67.5</text>
     </g>
    </g>
    <g id="ytick_4">
     <g id="line2d_11">
      <g>
       <use style="stroke:#000000;stroke-width:0.8;" x="54" xlink:href="#m113eca75a4" y="154.034219"/>
      </g>
     </g>
     <g id="text_12">
      <text style="font-family:DejaVu Sans;font-size:10px;font-style:normal;font-weight:normal;text-anchor:end;" transform="rotate(-0, 47, 157.833438)" x="47" y="157.833438">70.0</text>
     </g>
    </g>
    <g id="ytick_5">
     <g id="line2d_12">
      <g>
       <use style="stroke:#000000;stroke-width:0.8;" x="54" xlink:href="#m113eca75a4" y="129.22432"/>
      </g>
     </g>
     <g id="text_13">
      <text style="font-family:DejaVu Sans;font-size:10px;font-style:normal;font-weight:normal;text-anchor:end;" transform="rotate(-0, 47, 133.023539)" x="47" y="133.023539">72.5</text>
     </g>
    </g>
    <g id="ytick_6">
     <g id="line2d_13">
      <g>
       <use style="stroke:#000000;stroke-width:0.8;" x="54" xlink:href="#m113eca75a4" y="104.414422"/>
      </g>
     </g>
     <g id="text_14">
      <text style="font-family:DejaVu Sans;font-size:10px;font-style:normal;font-weight:normal;text-anchor:end;" transform="rotate(-0, 47, 108.21364)" x="47" y="108.21364">75.0</text>
     </g>
    </g>
    <g id="ytick_7">
     <g id="line2d_14">
      <g>
       <use style="stroke:#000000;stroke-width:0.8;" x="54" xlink:href="#m113eca75a4" y="79.604523"/>
      </g>
     </g>
     <g id="text_15">
      <text style="font-family:DejaVu Sans;font-size:10px;font-style:normal;font-weight:normal;text-anchor:end;" transform="rotate(-0, 47, 83.403741)" x="47" y="83.403741">77.5</text>
     </g>
    </g>
    <g id="ytick_8">
     <g id="line2d_15">
      <g>
       <use style="stroke:#000000;stroke-width:0.8;" x="54" xlink:href="#m113eca75a4" y="54.794624"/>
      </g>
     </g>
     <g id="text_16">
      <text style="font-family:DejaVu Sans;font-size:10px;font-style:normal;font-weight:normal;text-anchor:end;" transform="rotate(-0, 47, 58.593843)" x="47" y="58.593843">80.0</text>
     </g>
    </g>
    <g id="text_17">
     <text style="font-family:DejaVu Sans;font-size:10px;font-style:normal;font-weight:normal;text-anchor:middle;" transform="rotate(-90, 18.654688, 143.28)" x="18.654688" y="143.28">weight (\%)</text>
    </g>
   </g>
   <g id="line2d_16">
    <path clip-path="url(#p8c3d5053ff)" d="M 69.218182 44.443636 
L 79.569996 44.58416 
L 88.602461 44.854191 
L 93.270927 45.218995 
L 98.345345 45.863556 
L 112.756695 47.810637 
L 126.76209 49.563308 
L 131.633532 50.417562 
L 135.490091 51.31191 
L 138.737719 52.2789 
L 141.477905 53.302259 
L 143.913626 54.44014 
L 146.14637 55.724102 
L 148.176138 57.151763 
L 150.002928 58.714191 
L 151.728231 60.488396 
L 153.555021 62.69747 
L 155.584789 65.508928 
L 157.614556 68.689557 
L 159.644324 72.270121 
L 161.572603 76.111686 
L 163.500882 80.455998 
L 165.53065 85.608617 
L 167.966371 92.43779 
L 172.431859 105.296463 
L 173.852696 108.598661 
L 174.969068 110.642004 
L 175.882464 111.895499 
L 176.795859 112.783396 
L 177.810743 113.464179 
L 179.536045 114.301067 
L 182.174743 115.302196 
L 185.219394 116.226514 
L 189.278929 117.215039 
L 195.266743 118.410182 
L 203.58879 119.846179 
L 210.388511 120.780122 
L 217.289721 121.487403 
L 225.713256 122.093856 
L 237.485907 122.6624 
L 248.751117 123.013907 
L 263.974373 123.261112 
L 279.19763 123.28493 
L 329.73884 123.025915 
L 373.581818 122.606627 
L 373.581818 122.606627 
" style="fill:none;stroke:#40b5c4;stroke-dasharray:5.55,2.4;stroke-dashoffset:0;stroke-width:1.5;"/>
    <defs>
     <path d="M 0 3 
C 0.795609 3 1.55874 2.683901 2.12132 2.12132 
C 2.683901 1.55874 3 0.795609 3 0 
C 3 -0.795609 2.683901 -1.55874 2.12132 -2.12132 
C 1.55874 -2.683901 0.795609 -3 0 -3 
C -0.795609 -3 -1.55874 -2.683901 -2.12132 -2.12132 
C -2.683901 -1.55874 -3 -0.795609 -3 0 
C -3 0.795609 -2.683901 1.55874 -2.12132 2.12132 
C -1.55874 2.683901 -0.795609 3 0 3 
z
" id="m3e5e42e1d0" style="stroke:#40b5c4;"/>
    </defs>
    <g clip-path="url(#p8c3d5053ff)">
     <use style="fill:#40b5c4;stroke:#40b5c4;" x="69.218182" xlink:href="#m3e5e42e1d0" y="44.443636"/>
     <use style="fill:#40b5c4;stroke:#40b5c4;" x="77.337252" xlink:href="#m3e5e42e1d0" y="44.551311"/>
     <use style="fill:#40b5c4;stroke:#40b5c4;" x="85.456322" xlink:href="#m3e5e42e1d0" y="44.718729"/>
     <use style="fill:#40b5c4;stroke:#40b5c4;" x="93.575392" xlink:href="#m3e5e42e1d0" y="45.251248"/>
     <use style="fill:#40b5c4;stroke:#40b5c4;" x="101.694462" xlink:href="#m3e5e42e1d0" y="46.357075"/>
     <use style="fill:#40b5c4;stroke:#40b5c4;" x="109.813532" xlink:href="#m3e5e42e1d0" y="47.457047"/>
     <use style="fill:#40b5c4;stroke:#40b5c4;" x="117.932602" xlink:href="#m3e5e42e1d0" y="48.410441"/>
     <use style="fill:#40b5c4;stroke:#40b5c4;" x="126.051672" xlink:href="#m3e5e42e1d0" y="49.455434"/>
     <use style="fill:#40b5c4;stroke:#40b5c4;" x="134.170742" xlink:href="#m3e5e42e1d0" y="50.978167"/>
     <use style="fill:#40b5c4;stroke:#40b5c4;" x="142.289812" xlink:href="#m3e5e42e1d0" y="53.654758"/>
     <use style="fill:#40b5c4;stroke:#40b5c4;" x="150.408882" xlink:href="#m3e5e42e1d0" y="59.103706"/>
     <use style="fill:#40b5c4;stroke:#40b5c4;" x="158.527952" xlink:href="#m3e5e42e1d0" y="70.248015"/>
     <use style="fill:#40b5c4;stroke:#40b5c4;" x="166.647022" xlink:href="#m3e5e42e1d0" y="88.661327"/>
     <use style="fill:#40b5c4;stroke:#40b5c4;" x="174.766092" xlink:href="#m3e5e42e1d0" y="110.311635"/>
     <use style="fill:#40b5c4;stroke:#40b5c4;" x="182.885162" xlink:href="#m3e5e42e1d0" y="115.537195"/>
     <use style="fill:#40b5c4;stroke:#40b5c4;" x="191.004232" xlink:href="#m3e5e42e1d0" y="117.58173"/>
     <use style="fill:#40b5c4;stroke:#40b5c4;" x="199.123302" xlink:href="#m3e5e42e1d0" y="119.10466"/>
     <use style="fill:#40b5c4;stroke:#40b5c4;" x="207.242372" xlink:href="#m3e5e42e1d0" y="120.378401"/>
     <use style="fill:#40b5c4;stroke:#40b5c4;" x="215.361442" xlink:href="#m3e5e42e1d0" y="121.31155"/>
     <use style="fill:#40b5c4;stroke:#40b5c4;" x="223.480512" xlink:href="#m3e5e42e1d0" y="121.954921"/>
     <use style="fill:#40b5c4;stroke:#40b5c4;" x="231.599582" xlink:href="#m3e5e42e1d0" y="122.408347"/>
     <use style="fill:#40b5c4;stroke:#40b5c4;" x="239.718652" xlink:href="#m3e5e42e1d0" y="122.746158"/>
     <use style="fill:#40b5c4;stroke:#40b5c4;" x="247.837722" xlink:href="#m3e5e42e1d0" y="122.990684"/>
     <use style="fill:#40b5c4;stroke:#40b5c4;" x="255.956792" xlink:href="#m3e5e42e1d0" y="123.160285"/>
     <use style="fill:#40b5c4;stroke:#40b5c4;" x="264.075862" xlink:href="#m3e5e42e1d0" y="123.262006"/>
     <use style="fill:#40b5c4;stroke:#40b5c4;" x="272.194932" xlink:href="#m3e5e42e1d0" y="123.294159"/>
     <use style="fill:#40b5c4;stroke:#40b5c4;" x="280.314002" xlink:href="#m3e5e42e1d0" y="123.282647"/>
     <use style="fill:#40b5c4;stroke:#40b5c4;" x="288.433072" xlink:href="#m3e5e42e1d0" y="123.26925"/>
     <use style="fill:#40b5c4;stroke:#40b5c4;" x="296.552142" xlink:href="#m3e5e42e1d0" y="123.290785"/>
     <use style="fill:#40b5c4;stroke:#40b5c4;" x="304.671212" xlink:href="#m3e5e42e1d0" y="123.26399"/>
     <use style="fill:#40b5c4;stroke:#40b5c4;" x="312.790282" xlink:href="#m3e5e42e1d0" y="123.182217"/>
     <use style="fill:#40b5c4;stroke:#40b5c4;" x="320.909352" xlink:href="#m3e5e42e1d0" y="123.103222"/>
     <use style="fill:#40b5c4;stroke:#40b5c4;" x="329.028422" xlink:href="#m3e5e42e1d0" y="123.032961"/>
     <use style="fill:#40b5c4;stroke:#40b5c4;" x="337.147492" xlink:href="#m3e5e42e1d0" y="122.952775"/>
     <use style="fill:#40b5c4;stroke:#40b5c4;" x="345.266562" xlink:href="#m3e5e42e1d0" y="122.866536"/>
     <use style="fill:#40b5c4;stroke:#40b5c4;" x="353.385632" xlink:href="#m3e5e42e1d0" y="122.762731"/>
     <use style="fill:#40b5c4;stroke:#40b5c4;" x="361.504702" xlink:href="#m3e5e42e1d0" y="122.669545"/>
     <use style="fill:#40b5c4;stroke:#40b5c4;" x="369.623772" xlink:href="#m3e5e42e1d0" y="122.615162"/>
    </g>
   </g>
   <g id="line2d_17">
    <path clip-path="url(#p8c3d5053ff)" d="M 69.218182 197.555497 
L 69.421159 197.99812 
L 69.522647 197.855475 
L 69.624135 197.987369 
L 69.725624 197.344483 
L 69.827112 198.135919 
L 69.9286 197.620308 
L 70.131577 198.134102 
L 70.233066 197.580483 
L 70.334554 198.264557 
L 70.537531 197.666797 
L 70.639019 198.079967 
L 70.740507 197.587297 
L 70.841996 198.30514 
L 70.943484 197.657408 
L 71.146461 198.163328 
L 71.247949 197.850933 
L 71.349438 198.441954 
L 71.450926 197.904992 
L 71.653903 197.994864 
L 71.755391 197.77378 
L 71.85688 198.209059 
L 72.059856 197.958068 
L 72.161345 198.002512 
L 72.262833 197.922028 
L 72.46581 198.098441 
L 72.668787 198.270917 
L 72.770275 198.004859 
L 72.871763 198.107981 
L 73.07474 197.949209 
L 73.176228 198.276974 
L 73.277717 197.668235 
L 73.480694 198.209437 
L 73.582182 197.887502 
L 73.68367 198.488291 
L 73.785159 197.980857 
L 73.886647 198.221552 
L 73.988135 198.069443 
L 74.089624 197.582224 
L 74.191112 198.369572 
L 74.292601 197.896739 
L 74.394089 198.038703 
L 74.597066 197.654834 
L 74.698554 198.139781 
L 74.800042 197.871224 
L 74.901531 198.280987 
L 75.104508 197.723582 
L 75.205996 198.247597 
L 75.307484 197.650821 
L 75.510461 198.028481 
L 75.611949 197.759016 
L 75.713438 198.08027 
L 75.814926 197.515672 
L 76.017903 197.94724 
L 76.22088 198.194749 
L 76.423856 197.708666 
L 76.525345 198.01137 
L 76.626833 197.598881 
L 76.728322 198.068383 
L 76.931298 197.280353 
L 77.032787 198.055284 
L 77.134275 197.55262 
L 77.235763 198.084585 
L 77.337252 198.060887 
L 77.43874 197.456691 
L 77.540229 198.047637 
L 77.641717 197.320406 
L 77.743205 197.762423 
L 77.844694 197.416941 
L 78.04767 197.677245 
L 78.149159 197.253248 
L 78.250647 197.570867 
L 78.453624 197.478269 
L 78.555112 197.711998 
L 78.656601 197.343044 
L 78.758089 197.526196 
L 78.859577 197.048896 
L 78.961066 197.115827 
L 79.062554 197.429585 
L 79.164043 197.120673 
L 79.265531 197.17708 
L 79.468508 196.929268 
L 79.671484 197.293679 
L 79.772973 197.202898 
L 79.97595 196.585906 
L 80.077438 197.08857 
L 80.280415 196.685697 
L 80.381903 196.992414 
L 80.483391 196.267605 
L 80.58488 196.787078 
L 80.686368 196.493611 
L 80.787857 196.751417 
L 80.990833 196.196132 
L 81.092322 196.668586 
L 81.295298 195.872001 
L 81.396787 196.011541 
L 81.498275 195.627142 
L 81.599764 195.742682 
L 81.701252 195.40356 
L 81.904229 195.625552 
L 82.005717 195.411661 
L 82.107205 195.745862 
L 82.310182 194.842066 
L 82.411671 195.528184 
L 82.513159 194.810039 
L 82.614647 195.326937 
L 82.817624 194.492117 
L 82.919112 195.056487 
L 83.020601 194.553596 
L 83.122089 195.153174 
L 83.325066 194.415797 
L 83.426554 194.793003 
L 83.528043 194.317369 
L 83.629531 194.517178 
L 83.832508 194.100525 
L 83.933996 194.341825 
L 84.035485 193.79078 
L 84.136973 194.267323 
L 84.238461 193.863465 
L 84.441438 194.088487 
L 84.542926 193.509882 
L 84.644415 193.909499 
L 84.847392 193.231482 
L 85.050368 193.567651 
L 85.253345 193.190672 
L 85.354833 192.92734 
L 85.456322 193.523889 
L 85.55781 192.980036 
L 85.659299 193.036595 
L 85.760787 192.960654 
L 85.862275 192.277639 
L 85.963764 193.036443 
L 86.065252 192.478205 
L 86.16674 192.572393 
L 86.268229 192.435048 
L 86.369717 191.944726 
L 86.471206 192.690204 
L 86.572694 192.01143 
L 86.674182 192.419073 
L 86.877159 191.617491 
L 86.978647 192.207831 
L 87.080136 192.119019 
L 87.181624 191.829792 
L 87.283113 191.906188 
L 87.384601 191.417531 
L 87.486089 191.915879 
L 87.689066 191.472802 
L 87.790554 191.949193 
L 87.892043 190.826357 
L 87.993531 191.954342 
L 88.196508 191.364607 
L 88.297996 191.910125 
L 88.399485 191.174868 
L 88.500973 191.626198 
L 88.70395 190.987855 
L 88.805438 191.529663 
L 88.906927 191.064402 
L 89.008415 191.610752 
L 89.109903 191.428888 
L 89.211392 190.946742 
L 89.31288 191.525347 
L 89.414368 191.080907 
L 89.515857 191.368241 
L 89.617345 190.998228 
L 89.718834 191.094384 
L 89.820322 191.491352 
L 89.92181 191.166388 
L 90.023299 191.434415 
L 90.226275 190.865426 
L 90.327764 191.322813 
L 90.429252 191.006178 
L 90.530741 191.323116 
L 90.733717 190.705367 
L 90.835206 191.443122 
L 90.936694 190.91305 
L 91.038182 191.600607 
L 91.241159 191.113388 
L 91.342648 191.240966 
L 91.444136 190.976119 
L 91.545624 191.328491 
L 91.748601 190.777522 
L 91.850089 191.25361 
L 91.951578 191.000953 
L 92.053066 191.11301 
L 92.154555 191.605907 
L 92.256043 190.985432 
L 92.357531 191.537991 
L 92.45902 190.83302 
L 92.661996 191.269964 
L 92.763485 190.85263 
L 92.864973 191.735907 
L 92.966462 190.741179 
L 93.169438 191.391637 
L 93.270927 191.117477 
L 93.372415 191.79928 
L 93.473903 190.974151 
L 93.67688 191.330687 
L 93.778369 190.931372 
L 93.879857 191.532919 
L 93.981345 191.4647 
L 94.082834 190.91782 
L 94.184322 191.3506 
L 94.28581 191.157605 
L 94.387299 191.823432 
L 94.590276 191.252853 
L 94.691764 191.784516 
L 94.793252 190.876026 
L 94.894741 191.783607 
L 94.996229 191.247932 
L 95.097717 191.585237 
L 95.300694 191.279504 
L 95.503671 191.650805 
L 95.605159 191.531026 
L 95.706648 191.915728 
L 95.808136 191.358171 
L 95.909624 191.751353 
L 96.112601 191.340833 
L 96.21409 192.261967 
L 96.315578 191.209621 
L 96.417066 192.13825 
L 96.620043 191.52141 
L 96.721531 192.186707 
L 96.82302 191.51187 
L 96.924508 192.172927 
L 97.127485 191.623624 
L 97.330462 192.1674 
L 97.43195 192.254017 
L 97.634927 191.721522 
L 97.736415 192.303912 
L 97.939392 192.108268 
L 98.04088 192.337983 
L 98.142369 191.583344 
L 98.243857 192.632359 
L 98.345345 192.032705 
L 98.446834 192.656663 
L 98.548322 192.565655 
L 98.649811 192.052618 
L 98.751299 192.649924 
L 98.954276 192.394239 
L 99.055764 192.62668 
L 99.157252 192.320418 
L 99.258741 192.683768 
L 99.360229 192.416499 
L 99.461718 192.493348 
L 99.563206 192.961335 
L 100.070648 192.397722 
L 100.273625 192.439667 
L 100.375113 192.127953 
L 100.476601 192.278397 
L 100.57809 192.213813 
L 100.679578 192.727152 
L 100.781066 192.191553 
L 100.882555 192.312165 
L 101.085532 191.948814 
L 101.288508 192.097138 
L 101.389997 191.749309 
L 101.592973 192.023771 
L 101.694462 192.005978 
L 101.79595 192.200563 
L 101.998927 191.819798 
L 102.100415 191.698656 
L 102.201904 191.839408 
L 102.303392 191.725156 
L 102.40488 191.840317 
L 102.506369 191.575545 
L 102.709346 191.828202 
L 102.810834 191.656938 
L 102.912322 191.829868 
L 103.013811 191.607572 
L 103.115299 191.76642 
L 103.318276 191.430478 
L 103.419764 191.48802 
L 103.521253 191.716676 
L 103.622741 191.371497 
L 103.724229 191.684952 
L 103.927206 191.567595 
L 104.130183 191.485067 
L 104.231671 191.667992 
L 104.33316 191.062584 
L 104.434648 191.549121 
L 104.536136 191.277687 
L 104.637625 191.854475 
L 104.739113 191.147384 
L 104.840601 191.687753 
L 104.94209 191.266633 
L 105.043578 191.57653 
L 105.145067 191.182364 
L 105.449532 191.505889 
L 105.652508 191.527694 
L 105.753997 191.25149 
L 105.855485 191.292981 
L 105.956974 191.114675 
L 106.15995 191.262999 
L 106.261439 191.045852 
L 106.464415 191.188269 
L 106.565904 191.648912 
L 106.768881 191.213179 
L 106.971857 191.00595 
L 107.073346 191.220069 
L 107.276322 191.030255 
L 107.377811 190.90086 
L 107.479299 190.991186 
L 107.580788 191.483629 
L 107.885253 191.058723 
L 108.088229 190.971728 
L 108.189718 191.175625 
L 108.291206 191.051303 
L 108.392695 190.738529 
L 108.595671 191.249749 
L 108.69716 191.269889 
L 109.001625 190.971198 
L 109.204602 191.270646 
L 109.30609 191.034267 
L 109.407578 191.079544 
L 109.610555 191.587508 
L 109.712043 191.511567 
L 109.813532 191.730229 
L 109.91502 191.475906 
L 110.016509 191.699035 
L 110.117997 191.617415 
L 110.422462 191.917393 
L 110.52395 191.887335 
L 110.625439 192.038232 
L 110.726927 191.861062 
L 110.828416 191.960626 
L 110.929904 191.896648 
L 111.031392 192.019001 
L 111.132881 191.897708 
L 111.234369 192.077528 
L 111.640323 191.870072 
L 111.843299 192.15468 
L 112.046276 191.979479 
L 112.249253 192.105163 
L 112.350741 192.008704 
L 112.45223 192.094942 
L 112.756695 192.019304 
L 112.858183 192.006433 
L 113.06116 192.152787 
L 113.264137 192.23789 
L 113.365625 191.98864 
L 113.467113 192.127348 
L 113.568602 192.046864 
L 113.67009 192.287028 
L 113.771578 192.129619 
L 113.873067 192.189509 
L 113.974555 192.005978 
L 114.27902 192.343889 
L 114.380509 192.088582 
L 114.684974 192.46276 
L 114.786462 192.327762 
L 114.887951 192.125455 
L 114.989439 192.272264 
L 115.090927 192.205409 
L 115.192416 192.4829 
L 115.598369 192.279759 
L 115.801346 192.547862 
L 115.902834 192.233801 
L 116.004323 192.267418 
L 116.207299 192.62721 
L 116.511765 192.289905 
L 116.81623 192.818539 
L 116.917718 192.267494 
L 117.019206 192.531735 
L 117.120695 192.325642 
L 117.222183 192.784468 
L 117.323672 192.538095 
L 117.42516 192.707542 
L 117.526648 192.364559 
L 117.831113 192.717991 
L 118.135579 192.487291 
L 118.237067 192.83777 
L 118.338555 192.62297 
L 118.440044 192.80226 
L 118.541532 192.478584 
L 118.845997 192.791812 
L 118.947486 192.6341 
L 119.353439 192.918708 
L 119.556416 192.742674 
L 119.962369 192.754561 
L 120.063858 192.704514 
L 120.165346 192.985866 
L 120.266834 192.940665 
L 120.368323 193.060823 
L 120.469811 192.813996 
L 120.5713 192.960805 
L 120.774276 192.866087 
L 120.875765 192.890921 
L 120.977253 192.490774 
L 121.078741 193.022133 
L 121.281718 192.552481 
L 121.383207 192.886076 
L 121.484695 192.434291 
L 121.586183 192.905307 
L 121.687672 192.316859 
L 121.890648 192.724048 
L 121.992137 192.073818 
L 122.093625 192.664386 
L 122.296602 192.237511 
L 122.39809 192.607676 
L 122.499579 192.103801 
L 122.601067 192.579738 
L 122.804044 192.057691 
L 122.905532 192.394769 
L 123.007021 191.831761 
L 123.108509 192.323825 
L 123.311486 191.780957 
L 123.412974 192.467075 
L 123.514462 191.862122 
L 123.615951 192.287179 
L 123.717439 191.763846 
L 123.818928 191.907172 
L 123.920416 192.260755 
L 124.021904 191.787241 
L 124.123393 192.238268 
L 124.326369 191.765587 
L 124.427858 192.279759 
L 124.529346 191.949799 
L 124.630835 192.204349 
L 124.732323 191.760741 
L 124.833811 191.810637 
L 124.9353 192.211617 
L 125.036788 191.581451 
L 125.138276 192.320494 
L 125.341253 191.615219 
L 125.442742 191.970014 
L 125.54423 191.352114 
L 125.645718 191.645959 
L 125.747207 191.055922 
L 125.848695 191.074699 
L 125.950183 191.334473 
L 126.051672 190.535995 
L 126.15316 191.151018 
L 126.356137 190.372226 
L 126.457625 190.710515 
L 126.559114 190.246465 
L 126.660602 190.300071 
L 126.863579 189.739561 
L 126.965067 190.180519 
L 127.066556 189.454499 
L 127.168044 189.908555 
L 127.371021 189.113938 
L 127.472509 189.58662 
L 127.573997 189.074946 
L 127.675486 189.129005 
L 127.878463 188.553505 
L 127.979951 188.907997 
L 128.081439 188.370277 
L 128.182928 188.676464 
L 128.385904 188.105355 
L 128.487393 188.365583 
L 128.69037 187.91872 
L 128.791858 187.747228 
L 128.893346 187.299608 
L 128.994835 187.732918 
L 129.400788 187.109037 
L 129.603765 187.054599 
L 129.806742 186.658615 
L 129.90823 186.585249 
L 130.009718 186.65748 
L 130.111207 186.586687 
L 130.314184 186.117792 
L 130.415672 186.220157 
L 130.923114 185.720067 
L 131.024602 185.895345 
L 131.430556 185.411912 
L 131.633532 185.477177 
L 131.836509 185.185528 
L 131.937998 185.170309 
L 132.039486 185.567352 
L 132.242463 185.108224 
L 132.343951 185.125108 
L 132.445439 184.953389 
L 132.648416 185.141159 
L 132.851393 184.844134 
L 132.952881 184.889411 
L 133.05437 185.147216 
L 133.460323 184.831868 
L 133.967765 184.587313 
L 134.069253 184.87866 
L 134.27223 184.716405 
L 134.678184 184.738059 
L 134.779672 184.448757 
L 134.88116 184.640237 
L 134.982649 184.556573 
L 135.185626 184.795147 
L 135.388602 184.579514 
L 135.591579 184.596701 
L 135.693067 184.770843 
L 135.794556 184.385157 
L 136.099021 185.013279 
L 136.301998 184.761227 
L 136.403486 184.74775 
L 136.504974 184.59655 
L 136.707951 184.937489 
L 136.80944 184.687558 
L 137.012416 184.83732 
L 137.113905 185.185603 
L 137.316881 184.97898 
L 137.621347 184.941275 
L 137.722835 185.339757 
L 137.824323 184.900011 
L 138.128788 185.548878 
L 138.331765 185.390863 
L 138.63623 185.449769 
L 138.737719 185.794115 
L 138.839207 185.312424 
L 139.143672 186.025421 
L 139.448137 185.690387 
L 139.549626 185.906853 
L 139.651114 185.815466 
L 139.752602 186.082433 
L 139.854091 185.955083 
L 140.158556 186.732815 
L 140.260044 186.54512 
L 140.767486 187.125315 
L 140.868975 186.993573 
L 141.17344 187.73519 
L 141.274928 187.631916 
L 141.376416 187.823699 
L 141.477905 187.775394 
L 141.78237 188.249514 
L 141.883858 188.029187 
L 142.086835 188.412223 
L 142.188323 188.729388 
L 142.289812 188.457802 
L 142.492789 188.603173 
L 142.594277 188.846669 
L 142.695765 188.690622 
L 142.797254 189.086606 
L 142.898742 189.011043 
L 143.203207 189.735851 
L 143.304696 189.631291 
L 143.609161 190.062178 
L 143.710649 189.975637 
L 143.812137 190.378283 
L 143.913626 190.235335 
L 144.116603 190.712787 
L 144.218091 190.991716 
L 144.319579 190.912974 
L 144.827021 191.724777 
L 144.92851 191.643082 
L 145.029998 192.02786 
L 145.131486 191.950859 
L 145.232975 192.433534 
L 145.334463 192.325491 
L 145.435951 192.419073 
L 145.53744 192.777275 
L 145.638928 192.534915 
L 145.841905 193.128208 
L 145.943393 193.112157 
L 147.161254 195.253646 
L 147.262742 195.886159 
L 147.364231 195.85807 
L 147.465719 196.299481 
L 147.567207 196.128368 
L 147.871672 197.307383 
L 147.973161 197.15482 
L 148.886556 199.42737 
L 148.988044 199.421842 
L 149.393998 200.575494 
L 149.495486 200.54059 
L 149.698463 200.753194 
L 149.90144 200.992828 
L 150.104417 200.991844 
L 150.205905 201.156749 
L 150.307393 201.587106 
L 150.408882 201.430605 
L 150.611858 201.6342 
L 151.1193 202.035256 
L 151.220789 202.022233 
L 151.322277 202.463569 
L 151.423765 202.380511 
L 151.525254 202.659516 
L 151.626742 202.545794 
L 151.829719 202.658153 
L 152.134184 202.928679 
L 152.235672 202.914823 
L 152.438649 203.545443 
L 152.743114 203.530301 
L 152.946091 203.844664 
L 153.047579 203.719282 
L 153.149068 203.664541 
L 153.453533 204.426298 
L 153.65651 204.286076 
L 153.960975 204.944407 
L 154.062463 204.658133 
L 154.26544 205.047529 
L 154.366928 205.605086 
L 154.468417 205.385819 
L 154.975859 205.907033 
L 155.077347 205.728878 
L 155.381812 206.553098 
L 155.4833 206.458759 
L 155.584789 206.640094 
L 155.686277 206.409015 
L 155.889254 206.841265 
L 155.990742 206.825441 
L 156.396696 207.60923 
L 156.498184 207.520797 
L 156.599673 207.650116 
L 156.701161 207.512998 
L 156.802649 207.958877 
L 156.904138 207.727495 
L 157.005626 207.830012 
L 157.208603 208.459572 
L 157.310091 208.307009 
L 157.41158 208.411039 
L 157.513068 208.265972 
L 157.716045 208.814821 
L 157.817533 208.510149 
L 158.121998 209.59861 
L 158.223487 209.195434 
L 158.324975 209.339896 
L 158.426463 209.215423 
L 158.527952 209.2925 
L 158.62944 209.67334 
L 158.730928 209.438173 
L 158.933905 210.154728 
L 159.136882 210.129667 
L 159.23837 210.074699 
L 159.847301 210.969712 
L 160.050277 211.595411 
L 160.151766 211.810513 
L 160.253254 211.719733 
L 160.557719 212.746942 
L 160.659208 212.458396 
L 160.963673 213.805951 
L 161.065161 213.547161 
L 161.166649 214.086962 
L 161.268138 213.717328 
L 161.471115 214.454856 
L 161.572603 214.898955 
L 161.674091 214.523036 
L 161.978556 215.838904 
L 162.283022 216.223303 
L 162.485998 216.612699 
L 162.688975 217.052975 
L 162.99344 218.336362 
L 163.094929 218.189288 
L 163.60237 219.76122 
L 163.703859 219.789726 
L 164.211301 221.363437 
L 164.414277 221.46656 
L 164.617254 222.231799 
L 164.718743 222.012759 
L 165.226184 223.113941 
L 165.327673 223.114319 
L 166.13958 224.703325 
L 166.241068 224.518356 
L 166.647022 225.428549 
L 166.74851 225.079244 
L 167.052975 226.184855 
L 167.154464 225.873671 
L 167.458929 226.471431 
L 167.966371 227.053443 
L 168.169347 227.287399 
L 168.473812 227.641967 
L 168.575301 227.533317 
L 168.676789 227.829888 
L 168.778278 227.621789 
L 169.082743 228.229884 
L 169.184231 228.016523 
L 169.387208 228.197517 
L 169.590185 228.20312 
L 169.691673 228.57654 
L 169.793161 228.19146 
L 170.097626 229.033435 
L 170.199115 228.72846 
L 170.402092 228.782784 
L 170.50358 228.727892 
L 170.706557 229.150261 
L 170.808045 228.97858 
L 171.11251 229.605831 
L 171.213999 229.439564 
L 171.416975 229.500703 
L 171.72144 229.765133 
L 171.822929 229.640243 
L 172.025906 229.957219 
L 172.127394 230.369254 
L 172.228882 230.075181 
L 172.330371 230.234559 
L 172.431859 230.138554 
L 172.533347 230.4285 
L 172.634836 230.392308 
L 172.837813 230.539345 
L 172.939301 230.753728 
L 173.040789 230.605026 
L 173.142278 231.188818 
L 173.243766 230.987911 
L 173.64972 231.247231 
L 173.751208 231.453475 
L 173.852696 231.267901 
L 174.25865 231.830227 
L 174.563115 231.924983 
L 174.766092 232.204632 
L 174.86758 232.088525 
L 175.070557 232.384982 
L 175.172045 232.708394 
L 175.273534 232.469895 
L 175.780975 233.009697 
L 175.882464 232.674057 
L 176.186929 233.372404 
L 176.491394 233.245318 
L 176.795859 233.321638 
L 177.100324 233.409617 
L 177.201813 233.90028 
L 177.303301 233.492334 
L 177.404789 233.924509 
L 177.506278 233.803518 
L 177.607766 233.929733 
L 177.709255 233.649213 
L 177.810743 234.098272 
L 177.912231 233.956119 
L 178.01372 234.14264 
L 178.115208 234.043417 
L 178.318185 234.566259 
L 178.419673 234.443754 
L 178.521162 234.556908 
L 178.62265 234.441028 
L 178.825627 234.887929 
L 178.927115 234.365655 
L 179.23158 235.319195 
L 179.434557 235.115865 
L 179.84051 235.571511 
L 179.941999 235.439504 
L 180.246464 236.160451 
L 180.550929 236.098063 
L 180.855394 236.271296 
L 180.956883 236.233628 
L 181.058371 236.72202 
L 181.159859 236.644376 
L 181.362836 236.830253 
L 181.565813 236.88772 
L 181.667301 236.771726 
L 181.870278 237.273822 
L 181.971766 237.095744 
L 182.174743 237.211359 
L 182.276231 237.59148 
L 182.37772 237.547339 
L 182.479208 237.408479 
L 182.580697 237.652808 
L 182.682185 237.528599 
L 182.783673 237.884757 
L 182.885162 237.842963 
L 183.088138 237.758504 
L 183.189627 237.910462 
L 183.291115 238.286078 
L 183.392604 238.124656 
L 183.494092 238.189089 
L 183.59558 238.085626 
L 183.697069 238.429518 
L 183.798557 238.331317 
L 183.900045 238.500575 
L 184.001534 238.341538 
L 184.610464 238.961899 
L 184.813441 238.824933 
L 185.016418 239.071419 
L 185.117906 238.965042 
L 185.219394 239.121428 
L 185.422371 239.576582 
L 185.523859 239.341869 
L 185.929813 239.593618 
L 186.031301 239.358337 
L 186.335766 239.994484 
L 186.437255 239.967038 
L 186.640232 239.748112 
L 186.944697 239.85165 
L 187.147673 239.898479 
L 187.35065 240.189182 
L 187.553627 239.996074 
L 187.756604 239.934065 
L 188.162557 240.124977 
L 188.264046 240.05267 
L 188.467022 240.209057 
L 188.568511 239.922518 
L 188.872976 240.529289 
L 188.974464 240.244037 
L 189.075953 240.299497 
L 189.278929 240.010044 
L 189.481906 240.425372 
L 189.583394 239.984263 
L 189.786371 240.505742 
L 189.88786 240.362681 
L 189.989348 240.44271 
L 190.192325 240.345531 
L 190.801255 240.490675 
L 190.902743 240.688666 
L 191.004232 240.429119 
L 191.10572 240.542804 
L 191.207208 240.328269 
L 191.308697 240.508467 
L 191.410185 240.458042 
L 191.511674 240.727545 
L 191.613162 240.42045 
L 191.816139 240.53209 
L 191.917627 240.867957 
L 192.120604 240.508202 
L 192.526557 240.762828 
L 192.628046 240.493438 
L 192.831022 240.835968 
L 192.932511 240.750146 
L 193.033999 240.823058 
L 193.338464 240.723154 
L 193.439953 240.864739 
L 193.642929 240.750752 
L 193.845906 240.881812 
L 193.947395 241.04471 
L 194.048883 240.930383 
L 194.150371 240.999055 
L 194.353348 240.752872 
L 194.556325 241.032104 
L 194.657813 240.724403 
L 194.962278 241.320574 
L 195.063767 241.057695 
L 195.165255 241.16854 
L 195.266743 240.95003 
L 195.46972 241.091577 
L 195.672697 241.097672 
L 195.774185 241.272268 
L 195.875674 241.139807 
L 195.977162 241.370053 
L 196.281627 241.168238 
L 196.484604 241.226083 
L 196.890557 241.216316 
L 196.992046 241.598557 
L 197.093534 241.286048 
L 197.195023 241.367289 
L 197.296511 241.27859 
L 197.499488 241.338177 
L 197.702464 241.357181 
L 198.108418 241.506754 
L 198.311395 241.394205 
L 199.021813 241.715459 
L 199.123302 241.426611 
L 199.22479 241.656251 
L 199.326278 241.431608 
L 199.529255 241.499902 
L 199.630744 241.459357 
L 199.83372 241.564183 
L 200.239674 241.681312 
L 200.442651 241.558277 
L 200.950092 241.685401 
L 201.051581 241.89774 
L 201.153069 241.616728 
L 201.254558 241.697401 
L 201.356046 241.50206 
L 201.457534 241.730261 
L 201.660511 241.627177 
L 201.964976 241.703534 
L 202.066465 241.874458 
L 202.269441 241.636225 
L 202.573906 241.766301 
L 202.776883 241.628805 
L 202.97986 241.806088 
L 203.182837 241.838645 
L 203.385813 241.659317 
L 203.487302 241.844627 
L 203.791767 241.68029 
L 204.096232 241.869915 
L 204.299209 241.731927 
L 204.502186 241.787084 
L 204.705162 241.732495 
L 204.806651 241.655418 
L 205.111116 241.888882 
L 205.212604 241.876805 
L 205.314093 241.706601 
L 205.618558 241.848034 
L 205.821534 241.68029 
L 205.923023 241.788674 
L 206.024511 242.063932 
L 206.328976 241.792157 
L 206.937907 241.824335 
L 207.039395 241.965012 
L 207.34386 241.724242 
L 207.648325 241.883241 
L 207.749814 241.652427 
L 207.851302 241.843718 
L 207.95279 241.752294 
L 208.054279 241.98606 
L 208.155767 241.789772 
L 208.257255 241.908908 
L 208.460232 241.70096 
L 208.663209 241.886004 
L 208.866186 241.685855 
L 208.967674 241.78292 
L 209.069162 242.116364 
L 209.170651 241.749795 
L 209.272139 241.808208 
L 209.475116 241.750515 
L 209.678093 241.935862 
L 209.779581 241.565735 
L 210.084046 242.083693 
L 210.185535 241.736394 
L 210.287023 241.820663 
L 210.388511 241.616312 
L 210.692976 241.891721 
L 210.794465 241.515158 
L 210.997442 241.776144 
L 211.09893 241.92265 
L 211.301907 241.752105 
L 211.403395 241.676618 
L 211.504883 241.773607 
L 211.606372 241.659204 
L 211.809349 241.763916 
L 212.215302 241.60715 
L 212.31679 241.852955 
L 212.418279 241.552712 
L 212.722744 241.906977 
L 212.925721 241.713566 
L 213.027209 241.560284 
L 213.331674 241.850305 
L 213.433163 241.446031 
L 213.737628 241.856627 
L 213.839116 241.662687 
L 213.940604 241.764067 
L 214.042093 241.572284 
L 214.346558 241.846558 
L 214.448046 241.322921 
L 214.549535 241.755852 
L 214.651023 241.609233 
L 214.752511 241.923975 
L 215.056977 241.473251 
L 215.158465 241.712582 
L 215.259953 241.565432 
L 215.361442 241.672226 
L 215.46293 241.571186 
L 215.767395 241.778226 
L 215.868884 241.655418 
L 215.970372 241.727119 
L 216.07186 241.511183 
L 216.274837 241.613889 
L 216.782279 241.814001 
L 216.985256 241.527765 
L 217.086744 241.708872 
L 217.188232 241.565735 
L 217.289721 241.643115 
L 217.492698 241.487296 
L 217.797163 241.639707 
L 218.000139 241.598178 
L 218.101628 241.667002 
L 218.203116 241.472228 
L 218.507581 241.57024 
L 218.812046 241.562214 
L 218.913535 241.381296 
L 219.218 241.684871 
L 219.420977 241.540522 
L 220.029907 241.558618 
L 220.232884 241.669046 
L 220.43586 241.456669 
L 220.740326 241.573231 
L 220.841814 241.247358 
L 221.146279 241.796019 
L 221.247767 241.40049 
L 221.349256 241.532345 
L 221.552233 241.386823 
L 221.755209 241.510918 
L 221.958186 241.392653 
L 222.059674 241.362822 
L 222.161163 241.65273 
L 222.465628 241.306112 
L 222.668605 241.466739 
L 222.770093 241.479951 
L 222.871581 241.301305 
L 223.074558 241.466096 
L 223.176047 241.150937 
L 223.277535 241.373157 
L 223.379023 241.289417 
L 223.480512 241.660339 
L 223.582 241.309027 
L 223.784977 241.368273 
L 223.987954 241.265568 
L 224.089442 241.461894 
L 224.19093 241.156313 
L 224.292419 241.328221 
L 224.393907 241.261555 
L 224.495395 241.57342 
L 224.799861 241.1205 
L 224.901349 241.387618 
L 225.104326 241.258753 
L 225.205814 241.209539 
L 225.510279 241.430094 
L 225.713256 241.235282 
L 225.814744 241.188415 
L 226.017721 241.298125 
L 226.220698 241.124854 
L 226.423675 241.243118 
L 226.626651 241.049708 
L 226.829628 241.402307 
L 227.032605 241.190005 
L 227.235582 241.158433 
L 227.438558 241.244103 
L 227.540047 240.824497 
L 227.641535 241.216846 
L 227.743023 241.026426 
L 227.844512 241.393638 
L 227.946 241.092751 
L 228.047489 241.163013 
L 228.148977 241.006854 
L 228.453442 241.045505 
L 228.55493 241.018854 
L 228.859396 241.230815 
L 228.960884 241.00992 
L 229.163861 241.238349 
L 229.265349 241.200302 
L 229.366837 241.301305 
L 229.671303 241.124437 
L 229.772791 241.191595 
L 230.077256 240.855237 
L 230.280233 240.778236 
L 230.381721 240.821582 
L 230.48321 240.475116 
L 230.787675 240.65433 
L 231.09214 240.267281 
L 231.193628 240.335689 
L 231.295117 240.173093 
L 231.396605 240.285339 
L 231.498093 239.933913 
L 231.802558 240.221171 
L 232.107024 239.699352 
L 232.208512 239.763065 
L 232.512977 239.627613 
L 232.614465 239.637304 
L 232.715954 239.528655 
L 232.817442 239.626099 
L 233.020419 239.316278 
L 233.324884 239.278118 
L 233.527861 238.960461 
L 233.730838 239.096708 
L 234.238279 238.599155 
L 234.339768 238.656735 
L 234.542745 238.399232 
L 234.644233 238.395939 
L 234.745721 238.753119 
L 234.84721 238.360315 
L 234.948698 238.386967 
L 235.050186 238.218693 
L 235.354652 238.452989 
L 235.45614 238.103343 
L 235.760605 238.468094 
L 235.963582 238.280967 
L 236.06507 238.089941 
L 236.268047 238.231526 
L 236.471024 238.055454 
L 236.674 238.218504 
L 236.775489 238.271844 
L 237.079954 238.092061 
L 237.587396 237.993747 
L 237.688884 238.347406 
L 237.891861 238.041409 
L 237.993349 238.12742 
L 238.196326 238.016348 
L 238.297814 238.094749 
L 238.399303 237.898045 
L 238.60228 238.013622 
L 238.703768 238.341576 
L 238.805256 238.064842 
L 238.906745 238.152973 
L 239.008233 237.870371 
L 239.21121 238.038153 
L 239.414187 237.948962 
L 239.617163 238.151345 
L 240.124605 238.035087 
L 240.226094 238.108416 
L 240.530559 237.910992 
L 240.632047 238.305234 
L 240.835024 238.141919 
L 240.936512 238.15975 
L 241.038001 237.98928 
L 241.139489 238.051365 
L 241.240977 238.269724 
L 241.443954 237.992725 
L 241.545442 238.090736 
L 241.646931 238.47222 
L 241.849908 238.182615 
L 241.951396 238.031642 
L 242.052884 238.136316 
L 242.154373 238.053826 
L 242.255861 238.213241 
L 242.357349 238.114132 
L 242.560326 238.321891 
L 242.763303 238.221116 
L 242.864791 238.272033 
L 242.96628 238.060186 
L 243.169256 238.251666 
L 243.270745 238.258367 
L 243.372233 238.108718 
L 243.676698 238.348693 
L 243.778187 238.196925 
L 243.879675 238.332604 
L 243.981163 238.226302 
L 244.18414 238.378297 
L 244.285629 238.068401 
L 244.590094 238.649769 
L 244.79307 238.377881 
L 244.894559 238.289409 
L 245.199024 238.656886 
L 245.300512 238.288122 
L 245.402001 238.536047 
L 245.503489 238.399649 
L 245.604977 238.756223 
L 245.706466 238.523706 
L 245.807954 238.603054 
L 245.909443 238.494329 
L 246.112419 238.665404 
L 246.315396 238.530937 
L 246.619861 238.812668 
L 246.72135 238.782155 
L 246.924326 238.59446 
L 247.025815 238.790181 
L 247.33028 238.718063 
L 247.533257 238.82092 
L 247.634745 238.931614 
L 247.93921 238.64481 
L 248.040698 238.803317 
L 248.243675 238.712763 
L 248.649629 238.855257 
L 248.954094 238.684143 
L 249.157071 238.789386 
L 249.360047 238.661164 
L 249.766001 238.780754 
L 249.867489 238.657568 
L 250.070466 238.679108 
L 250.171954 238.544414 
L 250.577908 238.86809 
L 250.679396 238.592568 
L 250.882373 238.61937 
L 251.389815 238.477104 
L 251.491303 238.814371 
L 251.795768 238.486493 
L 251.897257 238.639207 
L 251.998745 238.54536 
L 252.100233 238.672067 
L 252.201722 238.37966 
L 252.30321 238.542596 
L 252.404699 238.403397 
L 252.506187 238.791241 
L 252.810652 238.387005 
L 252.91214 238.43425 
L 253.013629 238.625919 
L 253.115117 238.235198 
L 253.318094 238.559253 
L 253.622559 238.490732 
L 253.825536 238.305877 
L 254.028513 238.539795 
L 254.130001 238.230353 
L 254.231489 238.340478 
L 254.332978 238.253824 
L 254.434466 238.596883 
L 254.637443 238.337109 
L 255.043396 238.371408 
L 255.144885 238.073587 
L 255.246373 238.306407 
L 255.347861 238.213809 
L 255.44935 238.420129 
L 255.753815 237.997873 
L 255.855303 238.285965 
L 256.159768 238.072224 
L 256.362745 238.1691 
L 256.565722 238.203626 
L 256.66721 237.955133 
L 256.870187 238.053788 
L 256.971675 238.072906 
L 257.073164 237.89513 
L 257.276141 237.924885 
L 257.377629 238.394122 
L 257.580606 237.923371 
L 258.088048 237.843872 
L 258.189536 237.781483 
L 258.392513 237.94688 
L 258.494001 237.802267 
L 258.595489 237.883773 
L 258.798466 237.829448 
L 259.001443 237.757066 
L 259.102931 237.613664 
L 259.305908 237.939309 
L 259.508885 237.697706 
L 259.81335 237.515955 
L 259.914838 237.740939 
L 260.219303 237.5724 
L 260.320792 237.82536 
L 260.42228 237.548133 
L 260.523769 237.658184 
L 260.625257 237.417527 
L 260.726745 237.616768 
L 261.132699 237.420669 
L 261.437164 237.540221 
L 261.640141 237.352565 
L 261.944606 237.197351 
L 262.046094 237.408177 
L 262.147583 237.314481 
L 262.249071 237.438878 
L 262.655024 237.204204 
L 262.756513 237.371758 
L 262.858001 237.072727 
L 263.060978 237.201856 
L 263.162466 237.262314 
L 263.56842 237.069963 
L 263.771397 237.185048 
L 263.872885 236.884199 
L 264.17735 237.319591 
L 264.380327 237.027488 
L 264.583304 236.939849 
L 264.887769 236.82253 
L 264.989257 237.023475 
L 265.090745 236.887493 
L 265.192234 237.053912 
L 265.496699 236.757076 
L 265.699676 237.012496 
L 265.902652 236.733074 
L 266.308606 236.905058 
L 266.410094 236.646344 
L 266.714559 236.880111 
L 266.816048 236.417537 
L 267.019025 236.852854 
L 267.120513 236.879391 
L 267.222001 236.611857 
L 267.32349 236.898888 
L 267.526466 236.663493 
L 267.627955 236.712329 
L 267.830932 236.536181 
L 267.93242 237.034983 
L 268.033908 236.604929 
L 268.135397 236.707407 
L 268.338373 236.539966 
L 268.744327 236.897184 
L 268.947304 236.572372 
L 269.048792 236.622457 
L 269.15028 236.509908 
L 269.251769 236.728304 
L 269.454746 236.529556 
L 269.556234 236.546591 
L 269.657722 236.780774 
L 269.759211 236.575817 
L 269.860699 236.685678 
L 270.063676 236.57487 
L 270.165164 236.609472 
L 270.266653 236.420414 
L 270.368141 236.583956 
L 270.469629 236.478562 
L 270.672606 236.820448 
L 270.875583 236.486967 
L 270.977071 236.425184 
L 271.180048 236.579186 
L 271.383025 236.447141 
L 271.586001 236.685867 
L 271.890467 236.339552 
L 271.991955 236.560409 
L 272.093443 236.510438 
L 272.194932 236.228253 
L 272.29642 236.793948 
L 272.397908 236.407997 
L 272.499397 236.514299 
L 272.600885 236.377144 
L 272.702374 236.496696 
L 273.006839 236.317633 
L 273.311304 236.516571 
L 273.717257 236.314983 
L 273.818746 236.449451 
L 273.920234 236.22742 
L 274.224699 236.530161 
L 274.529164 236.186307 
L 274.630653 236.415341 
L 274.935118 236.24597 
L 275.138095 236.315021 
L 275.239583 236.531714 
L 275.44256 236.246462 
L 275.544048 236.160564 
L 275.747025 236.259106 
L 275.848513 236.071184 
L 276.152978 236.443128 
L 276.254467 236.148905 
L 276.355955 236.209248 
L 276.457443 236.073001 
L 276.66042 236.203343 
L 276.964885 236.02091 
L 277.066374 236.286666 
L 277.26935 236.092309 
L 277.573816 236.233969 
L 277.675304 236.002323 
L 277.878281 236.111691 
L 277.979769 236.029807 
L 278.081257 236.145762 
L 278.182746 235.861003 
L 278.487211 236.300219 
L 278.690188 235.995281 
L 278.994653 235.869369 
L 279.19763 235.987596 
L 279.299118 235.889888 
L 279.502095 236.079589 
L 279.705071 235.856195 
L 279.908048 235.935922 
L 280.009537 235.977602 
L 280.111025 235.696704 
L 280.41549 236.092725 
L 280.618467 235.791498 
L 280.719955 235.74853 
L 280.821444 235.864107 
L 281.02442 235.683605 
L 281.430374 235.729072 
L 281.633351 235.653585 
L 281.734839 235.817089 
L 282.039304 235.633066 
L 282.242281 235.677056 
L 282.343769 235.865205 
L 282.546746 235.581657 
L 282.851211 235.661686 
L 282.952699 235.356105 
L 283.155676 235.521426 
L 283.257165 235.710635 
L 283.358653 235.53744 
L 283.460141 235.666456 
L 283.56163 235.397294 
L 283.663118 235.436362 
L 283.764606 235.532821 
L 283.967583 235.36716 
L 284.17056 235.602478 
L 284.475025 235.296859 
L 284.77949 235.49292 
L 284.880979 235.09777 
L 285.083955 235.331763 
L 285.286932 235.417736 
L 285.591397 235.225196 
L 285.692886 235.361973 
L 285.794374 235.090577 
L 285.997351 235.330287 
L 286.098839 235.497349 
L 286.200327 235.1248 
L 286.301816 235.294361 
L 286.403304 234.965498 
L 286.606281 235.225953 
L 286.707769 235.052607 
L 286.910746 235.174165 
L 287.519676 234.990862 
L 287.621165 235.229209 
L 287.722653 234.758686 
L 287.824141 235.060481 
L 287.92563 234.934228 
L 288.027118 235.320066 
L 288.128607 234.975757 
L 288.230095 235.058134 
L 288.331583 234.83898 
L 288.53456 235.033792 
L 288.737537 234.792795 
L 288.940514 235.068582 
L 289.14349 234.893608 
L 289.549444 234.858363 
L 289.650932 234.676347 
L 289.853909 234.919956 
L 290.056886 234.815736 
L 290.158374 234.694291 
L 290.462839 234.782005 
L 290.564328 234.57171 
L 290.868793 234.890503 
L 291.274746 234.608469 
L 291.883676 234.662643 
L 292.188142 234.589541 
L 292.391118 234.572165 
L 292.492607 234.397796 
L 292.797072 234.68248 
L 293.101537 234.398704 
L 293.304514 234.434782 
L 293.406002 234.316138 
L 293.50749 234.468172 
L 293.608979 234.39772 
L 293.710467 234.574057 
L 294.014932 234.228462 
L 294.116421 234.500388 
L 294.319397 234.286231 
L 294.522374 234.235314 
L 294.623862 234.533096 
L 294.725351 234.487971 
L 294.928328 234.215666 
L 295.029816 234.177582 
L 295.232793 234.266319 
L 295.334281 234.015857 
L 295.537258 234.245611 
L 295.638746 234.330827 
L 295.841723 234.076769 
L 295.943211 234.216234 
L 296.450653 233.979136 
L 296.552142 234.372886 
L 296.755118 233.993333 
L 296.856607 234.029259 
L 297.161072 233.835091 
L 297.364049 233.845729 
L 297.465537 234.154717 
L 297.668514 233.903498 
L 297.87149 233.756083 
L 298.074467 233.829602 
L 298.277444 233.725722 
L 298.378932 233.905353 
L 298.581909 233.702932 
L 298.683397 233.824604 
L 298.886374 233.613022 
L 298.987863 233.744272 
L 299.089351 233.394512 
L 299.292328 233.679272 
L 299.393816 233.847432 
L 299.596793 233.553625 
L 299.79977 233.54416 
L 299.901258 233.734089 
L 300.104235 233.385199 
L 300.307211 233.758128 
L 300.4087 233.430135 
L 300.510188 233.533901 
L 300.611677 233.383458 
L 300.814653 233.404241 
L 301.01763 233.178311 
L 301.220607 233.576907 
L 301.423584 233.315846 
L 301.62656 233.250807 
L 301.728049 233.315694 
L 302.032514 233.175169 
L 302.134002 233.338863 
L 302.235491 233.198527 
L 302.336979 233.388644 
L 302.539956 233.076741 
L 302.742932 233.160897 
L 302.844421 232.927926 
L 303.047398 233.158172 
L 303.148886 233.250997 
L 303.351863 232.967259 
L 303.453351 233.097752 
L 303.960793 232.873071 
L 304.062281 233.295478 
L 304.16377 232.956962 
L 304.265258 232.99145 
L 304.366746 232.735121 
L 304.569723 232.890258 
L 304.874188 232.784637 
L 304.975677 233.042746 
L 305.178653 232.727852 
L 305.280142 232.829876 
L 305.686095 232.630219 
L 305.787584 232.608149 
L 305.889072 232.899836 
L 306.295026 232.572601 
L 306.396514 232.566052 
L 306.498002 232.695522 
L 306.599491 232.447257 
L 306.802467 232.554392 
L 307.005444 232.410043 
L 307.106933 232.571276 
L 307.208421 232.511727 
L 307.309909 232.609663 
L 307.512886 232.377638 
L 307.817351 232.571352 
L 307.91884 232.1734 
L 308.020328 232.3458 
L 308.121816 232.275689 
L 308.223305 232.61996 
L 308.426281 232.258616 
L 308.730747 232.354924 
L 308.832235 232.110557 
L 309.1367 232.450096 
L 309.238188 232.087313 
L 309.339677 232.257139 
L 309.542654 232.146219 
L 309.644142 232.141373 
L 309.847119 232.036926 
L 309.948607 232.081143 
L 310.050095 232.377221 
L 310.253072 231.988318 
L 310.659026 232.041696 
L 310.862002 231.881826 
L 310.963491 232.234312 
L 311.064979 231.915443 
L 311.267956 231.975976 
L 311.572421 231.753605 
L 311.775398 231.88705 
L 311.876886 232.019247 
L 312.181351 231.708404 
L 312.993258 231.780559 
L 313.196235 231.543613 
L 313.399212 231.655366 
L 313.5007 231.447683 
L 313.703677 231.62527 
L 314.008142 231.570756 
L 314.211119 231.511851 
L 314.312607 231.525555 
L 314.515584 231.34441 
L 314.718561 231.67066 
L 314.921537 231.292318 
L 315.023026 231.428528 
L 315.124514 231.351754 
L 315.226003 231.419177 
L 315.327491 231.200856 
L 315.631956 231.452529 
L 315.834933 231.296937 
L 316.443863 231.196843 
L 316.545351 231.441891 
L 316.748328 231.198055 
L 316.951305 231.052609 
L 317.052793 231.324648 
L 317.25577 230.9934 
L 317.357258 231.07661 
L 317.458747 231.309695 
L 317.763212 230.845115 
L 317.8647 231.040646 
L 318.169165 230.965916 
L 318.270654 230.972428 
L 318.372142 231.167958 
L 318.575119 230.948237 
L 318.778096 230.870138 
L 318.879584 230.944868 
L 319.184049 230.76766 
L 319.285538 231.222132 
L 319.387026 230.826035 
L 319.488514 230.913333 
L 319.691491 230.723291 
L 319.894468 230.852876 
L 320.097445 230.623841 
L 320.198933 231.095387 
L 320.300421 230.683542 
L 320.40191 230.80616 
L 320.604886 230.601354 
L 320.807863 230.712048 
L 320.909352 230.515192 
L 321.112328 230.889218 
L 321.315305 230.635577 
L 321.61977 230.673547 
L 321.822747 230.539118 
L 321.924235 230.712313 
L 322.025724 230.631261 
L 322.127212 230.381595 
L 322.2287 230.580571 
L 322.330189 230.532 
L 322.431677 230.726736 
L 322.939119 230.478774 
L 323.243584 230.417748 
L 323.345073 230.704136 
L 323.548049 230.396132 
L 323.751026 230.503835 
L 324.055491 230.318033 
L 324.258468 230.629217 
L 324.461445 230.309894 
L 324.562933 230.269122 
L 324.76591 230.420133 
L 325.171863 230.201131 
L 325.37484 230.388977 
L 325.476328 230.014724 
L 325.679305 230.252086 
L 325.780794 230.409495 
L 326.186747 230.207491 
L 326.288235 230.318298 
L 326.389724 230.049022 
L 326.491212 230.195718 
L 326.592701 230.057653 
L 326.694189 230.394088 
L 326.897166 230.005562 
L 326.998654 230.245234 
L 327.303119 229.87488 
L 327.404608 230.219 
L 327.506096 230.00348 
L 327.607584 230.276618 
L 327.810561 229.872079 
L 327.912049 230.252692 
L 328.216515 229.764906 
L 328.419491 230.08033 
L 328.52098 229.876395 
L 328.825445 230.107852 
L 328.926933 230.012642 
L 329.028422 230.075749 
L 329.12991 229.794018 
L 329.231398 229.86977 
L 329.332887 230.150062 
L 329.434375 229.735643 
L 329.637352 229.974936 
L 329.73884 230.08756 
L 329.840329 229.812909 
L 330.043305 229.926858 
L 330.144794 229.807116 
L 330.246282 229.96445 
L 330.449259 229.593906 
L 330.652236 230.050233 
L 330.753724 229.753435 
L 330.855212 229.88461 
L 331.058189 229.731251 
L 331.464143 229.666402 
L 331.565631 230.059887 
L 331.768608 229.679501 
L 332.073073 229.6463 
L 332.174561 229.565438 
L 332.27605 229.702556 
L 332.377538 229.597011 
L 332.479026 229.934467 
L 332.783491 229.54386 
L 332.88498 229.734545 
L 333.087957 229.395196 
L 333.189445 229.63517 
L 333.290933 229.555368 
L 333.392422 229.775922 
L 333.696887 229.40042 
L 333.899864 229.62245 
L 334.001352 229.322472 
L 334.305817 229.643613 
L 334.610282 229.410717 
L 334.711771 229.424497 
L 334.813259 229.580467 
L 334.914747 229.224574 
L 335.219212 229.624457 
L 335.320701 229.315999 
L 335.422189 229.432863 
L 335.523678 229.358436 
L 335.726654 229.445848 
L 335.828143 229.177026 
L 336.132608 229.576227 
L 336.335585 229.058913 
L 336.437073 229.492261 
L 336.944515 229.094271 
L 337.046003 229.398262 
L 337.24898 229.157303 
L 337.350468 229.357793 
L 337.85791 229.034306 
L 337.959399 229.152873 
L 338.162375 229.0775 
L 338.365352 229.245396 
L 338.568329 228.87296 
L 338.771306 229.035744 
L 338.872794 228.864707 
L 339.075771 229.052288 
L 339.380236 229.062698 
L 339.481724 228.690111 
L 339.684701 228.966996 
L 339.887678 228.785321 
L 339.989166 228.950642 
L 340.192143 228.867584 
L 340.293631 228.929215 
L 340.496608 228.642373 
L 340.699585 228.815834 
L 340.801073 228.615381 
L 340.902561 228.672091 
L 341.00405 228.887118 
L 341.410003 228.501432 
L 341.61298 228.715021 
L 341.714468 228.463424 
L 341.815957 228.513016 
L 341.917445 228.903851 
L 342.120422 228.436469 
L 342.323399 228.552577 
L 342.526375 228.444949 
L 342.729352 228.446767 
L 342.830841 228.695259 
L 343.135306 228.174689 
L 343.338282 228.454262 
L 343.439771 228.227689 
L 343.744236 228.42481 
L 343.845724 228.239614 
L 343.947213 228.474781 
L 344.150189 228.117033 
L 344.251678 228.489545 
L 344.353166 228.053206 
L 344.657631 228.465316 
L 344.75912 228.018832 
L 344.962096 228.185251 
L 345.063585 228.065055 
L 345.165073 228.175673 
L 345.266562 227.825951 
L 345.469538 227.930285 
L 345.571027 227.455862 
L 345.672515 227.483611 
L 345.774003 227.573408 
L 345.97698 226.740253 
L 346.078469 226.956719 
L 346.281445 226.370505 
L 346.382934 226.460907 
L 346.484422 226.263786 
L 346.58591 225.669736 
L 346.687399 225.917055 
L 346.788887 225.752907 
L 346.991864 225.098399 
L 347.093352 225.267998 
L 347.194841 224.770521 
L 347.397817 224.907146 
L 347.600794 224.060893 
L 347.702283 224.324453 
L 347.905259 223.533698 
L 348.006748 223.676078 
L 348.108236 223.592603 
L 348.209724 223.149602 
L 348.311213 223.176783 
L 348.412701 223.237278 
L 348.615678 222.423506 
L 348.717166 222.563993 
L 348.920143 221.864209 
L 349.021631 221.947721 
L 349.12312 221.904791 
L 349.224608 221.41833 
L 349.326097 221.45543 
L 349.427585 221.5146 
L 349.630562 220.70026 
L 349.73205 220.858616 
L 349.935027 220.304088 
L 350.036515 220.373177 
L 350.239492 219.683916 
L 350.34098 219.770873 
L 350.442469 219.757623 
L 350.645445 219.030165 
L 350.746934 219.106485 
L 350.949911 218.688317 
L 351.152887 218.396176 
L 351.254376 217.923457 
L 351.355864 218.11153 
L 351.457352 217.969528 
L 351.660329 217.370557 
L 351.761818 217.41519 
L 351.964794 216.941789 
L 352.066283 216.902153 
L 352.269259 216.234433 
L 352.370748 216.339827 
L 352.472236 216.210167 
L 352.675213 215.61305 
L 352.776701 215.699136 
L 352.979678 215.22055 
L 353.081166 215.278546 
L 353.284143 214.586371 
L 353.385632 214.642626 
L 353.994562 213.460317 
L 354.09605 213.584564 
L 354.299027 212.791083 
L 354.400515 212.937589 
L 354.502004 212.749592 
L 354.603492 212.238751 
L 354.70498 212.342554 
L 355.212422 211.396056 
L 355.313911 211.013399 
L 355.415399 211.342224 
L 355.821353 210.433734 
L 356.125818 209.89609 
L 356.328794 209.779491 
L 356.531771 209.066797 
L 356.63326 209.200734 
L 356.937725 208.574884 
L 357.039213 208.462071 
L 357.140701 208.071842 
L 357.343678 208.126507 
L 357.546655 207.357103 
L 357.648143 207.500127 
L 358.257074 206.34004 
L 358.358562 206.361164 
L 358.561539 205.560566 
L 358.663027 205.740992 
L 359.170469 204.628681 
L 359.271957 204.551225 
L 359.373446 204.617021 
L 359.576422 203.793482 
L 359.677911 203.977542 
L 360.083864 203.055272 
L 360.489818 202.451152 
L 360.692795 202.042146 
L 360.794283 202.001639 
L 361.098748 201.304996 
L 361.301725 201.07634 
L 361.910655 200.071997 
L 362.519585 199.015108 
L 362.722562 198.644565 
L 363.432981 197.572306 
L 363.635957 197.069187 
L 363.940423 196.737107 
L 364.143399 196.228007 
L 364.447864 195.918792 
L 364.650841 195.412948 
L 364.75233 195.383571 
L 365.158283 194.561319 
L 365.259771 194.62931 
L 365.564237 193.818794 
L 365.665725 193.787373 
L 365.97019 193.398355 
L 366.173167 192.992302 
L 366.57912 192.289602 
L 366.782097 192.035961 
L 367.289539 191.145264 
L 367.391027 191.110966 
L 367.594004 190.669705 
L 367.796981 190.415989 
L 368.304423 189.597219 
L 368.405911 189.469945 
L 368.608888 189.035347 
L 368.913353 188.589847 
L 369.014841 188.190608 
L 369.11633 188.343096 
L 369.522283 187.50767 
L 369.623772 187.52622 
L 369.826748 187.189899 
L 370.131213 186.708359 
L 370.33419 186.290873 
L 371.146097 185.036977 
L 371.247586 185.053256 
L 371.450562 184.585496 
L 371.653539 184.18497 
L 371.755027 184.268103 
L 371.958004 183.662469 
L 372.059493 183.705853 
L 372.8714 182.1039 
L 372.972888 182.12669 
L 373.175865 181.821336 
L 373.48033 181.274758 
L 373.581818 181.184962 
L 373.581818 181.184962 
" style="fill:none;stroke:#081d58;stroke-dasharray:5.55,2.4;stroke-dashoffset:0;stroke-width:1.5;"/>
    <defs>
     <path d="M -0 4.242641 
L 4.242641 0 
L 0 -4.242641 
L -4.242641 -0 
z
" id="m8222f24187" style="stroke:#081d58;stroke-linejoin:miter;"/>
    </defs>
    <g clip-path="url(#p8c3d5053ff)">
     <use style="fill:#081d58;stroke:#081d58;stroke-linejoin:miter;" x="69.218182" xlink:href="#m8222f24187" y="197.555497"/>
     <use style="fill:#081d58;stroke:#081d58;stroke-linejoin:miter;" x="77.337252" xlink:href="#m8222f24187" y="198.060887"/>
     <use style="fill:#081d58;stroke:#081d58;stroke-linejoin:miter;" x="85.456322" xlink:href="#m8222f24187" y="193.523889"/>
     <use style="fill:#081d58;stroke:#081d58;stroke-linejoin:miter;" x="93.575392" xlink:href="#m8222f24187" y="191.326144"/>
     <use style="fill:#081d58;stroke:#081d58;stroke-linejoin:miter;" x="101.694462" xlink:href="#m8222f24187" y="192.005978"/>
     <use style="fill:#081d58;stroke:#081d58;stroke-linejoin:miter;" x="109.813532" xlink:href="#m8222f24187" y="191.730229"/>
     <use style="fill:#081d58;stroke:#081d58;stroke-linejoin:miter;" x="117.932602" xlink:href="#m8222f24187" y="192.640081"/>
     <use style="fill:#081d58;stroke:#081d58;stroke-linejoin:miter;" x="126.051672" xlink:href="#m8222f24187" y="190.535995"/>
     <use style="fill:#081d58;stroke:#081d58;stroke-linejoin:miter;" x="134.170742" xlink:href="#m8222f24187" y="184.761606"/>
     <use style="fill:#081d58;stroke:#081d58;stroke-linejoin:miter;" x="142.289812" xlink:href="#m8222f24187" y="188.457802"/>
     <use style="fill:#081d58;stroke:#081d58;stroke-linejoin:miter;" x="150.408882" xlink:href="#m8222f24187" y="201.430605"/>
     <use style="fill:#081d58;stroke:#081d58;stroke-linejoin:miter;" x="158.527952" xlink:href="#m8222f24187" y="209.2925"/>
     <use style="fill:#081d58;stroke:#081d58;stroke-linejoin:miter;" x="166.647022" xlink:href="#m8222f24187" y="225.428549"/>
     <use style="fill:#081d58;stroke:#081d58;stroke-linejoin:miter;" x="174.766092" xlink:href="#m8222f24187" y="232.204632"/>
     <use style="fill:#081d58;stroke:#081d58;stroke-linejoin:miter;" x="182.885162" xlink:href="#m8222f24187" y="237.842963"/>
     <use style="fill:#081d58;stroke:#081d58;stroke-linejoin:miter;" x="191.004232" xlink:href="#m8222f24187" y="240.429119"/>
     <use style="fill:#081d58;stroke:#081d58;stroke-linejoin:miter;" x="199.123302" xlink:href="#m8222f24187" y="241.426611"/>
     <use style="fill:#081d58;stroke:#081d58;stroke-linejoin:miter;" x="207.242372" xlink:href="#m8222f24187" y="241.837169"/>
     <use style="fill:#081d58;stroke:#081d58;stroke-linejoin:miter;" x="215.361442" xlink:href="#m8222f24187" y="241.672226"/>
     <use style="fill:#081d58;stroke:#081d58;stroke-linejoin:miter;" x="223.480512" xlink:href="#m8222f24187" y="241.660339"/>
     <use style="fill:#081d58;stroke:#081d58;stroke-linejoin:miter;" x="231.599582" xlink:href="#m8222f24187" y="240.04737"/>
     <use style="fill:#081d58;stroke:#081d58;stroke-linejoin:miter;" x="239.718652" xlink:href="#m8222f24187" y="238.124921"/>
     <use style="fill:#081d58;stroke:#081d58;stroke-linejoin:miter;" x="247.837722" xlink:href="#m8222f24187" y="238.774394"/>
     <use style="fill:#081d58;stroke:#081d58;stroke-linejoin:miter;" x="255.956792" xlink:href="#m8222f24187" y="238.2062"/>
     <use style="fill:#081d58;stroke:#081d58;stroke-linejoin:miter;" x="264.075862" xlink:href="#m8222f24187" y="237.057167"/>
     <use style="fill:#081d58;stroke:#081d58;stroke-linejoin:miter;" x="272.194932" xlink:href="#m8222f24187" y="236.228253"/>
     <use style="fill:#081d58;stroke:#081d58;stroke-linejoin:miter;" x="280.314002" xlink:href="#m8222f24187" y="235.864599"/>
     <use style="fill:#081d58;stroke:#081d58;stroke-linejoin:miter;" x="288.433072" xlink:href="#m8222f24187" y="234.987493"/>
     <use style="fill:#081d58;stroke:#081d58;stroke-linejoin:miter;" x="296.552142" xlink:href="#m8222f24187" y="234.372886"/>
     <use style="fill:#081d58;stroke:#081d58;stroke-linejoin:miter;" x="304.671212" xlink:href="#m8222f24187" y="232.82575"/>
     <use style="fill:#081d58;stroke:#081d58;stroke-linejoin:miter;" x="312.790282" xlink:href="#m8222f24187" y="231.793657"/>
     <use style="fill:#081d58;stroke:#081d58;stroke-linejoin:miter;" x="320.909352" xlink:href="#m8222f24187" y="230.515192"/>
     <use style="fill:#081d58;stroke:#081d58;stroke-linejoin:miter;" x="329.028422" xlink:href="#m8222f24187" y="230.075749"/>
     <use style="fill:#081d58;stroke:#081d58;stroke-linejoin:miter;" x="337.147492" xlink:href="#m8222f24187" y="229.150943"/>
     <use style="fill:#081d58;stroke:#081d58;stroke-linejoin:miter;" x="345.266562" xlink:href="#m8222f24187" y="227.825951"/>
     <use style="fill:#081d58;stroke:#081d58;stroke-linejoin:miter;" x="353.385632" xlink:href="#m8222f24187" y="214.642626"/>
     <use style="fill:#081d58;stroke:#081d58;stroke-linejoin:miter;" x="361.504702" xlink:href="#m8222f24187" y="200.705721"/>
     <use style="fill:#081d58;stroke:#081d58;stroke-linejoin:miter;" x="369.623772" xlink:href="#m8222f24187" y="187.52622"/>
    </g>
   </g>
   <g id="patch_3">
    <path d="M 54 252 
L 54 34.56 
" style="fill:none;stroke:#000000;stroke-linecap:square;stroke-linejoin:miter;stroke-width:0.8;"/>
   </g>
   <g id="patch_4">
    <path d="M 388.8 252 
L 388.8 34.56 
" style="fill:none;stroke:#000000;stroke-linecap:square;stroke-linejoin:miter;stroke-width:0.8;"/>
   </g>
   <g id="patch_5">
    <path d="M 54 252 
L 388.8 252 
" style="fill:none;stroke:#000000;stroke-linecap:square;stroke-linejoin:miter;stroke-width:0.8;"/>
   </g>
   <g id="patch_6">
    <path d="M 54 34.56 
L 388.8 34.56 
" style="fill:none;stroke:#000000;stroke-linecap:square;stroke-linejoin:miter;stroke-width:0.8;"/>
   </g>
   <g id="legend_1">
    <g id="patch_7">
     <path d="M 280.085938 71.91625 
L 381.8 71.91625 
Q 383.8 71.91625 383.8 69.91625 
L 383.8 41.56 
Q 383.8 39.56 381.8 39.56 
L 280.085938 39.56 
Q 278.085938 39.56 278.085938 41.56 
L 278.085938 69.91625 
Q 278.085938 71.91625 280.085938 71.91625 
z
" style="fill:#ffffff;opacity:0.8;stroke:#cccccc;stroke-linejoin:miter;"/>
    </g>
    <g id="line2d_18">
     <path d="M 282.085938 47.658437 
L 302.085938 47.658437 
" style="fill:none;stroke:#40b5c4;stroke-dasharray:5.55,2.4;stroke-dashoffset:0;stroke-width:1.5;"/>
    </g>
    <g id="line2d_19">
     <g>
      <use style="fill:#40b5c4;stroke:#40b5c4;" x="292.085938" xlink:href="#m3e5e42e1d0" y="47.658437"/>
     </g>
    </g>
    <g id="text_18">
     <text style="font-family:DejaVu Sans;font-size:10px;font-style:normal;font-weight:normal;text-anchor:start;" transform="rotate(-0, 310.085938, 51.158437)" x="310.085938" y="51.158437">original</text>
    </g>
    <g id="line2d_20">
     <path d="M 282.085938 62.336562 
L 302.085938 62.336562 
" style="fill:none;stroke:#081d58;stroke-dasharray:5.55,2.4;stroke-dashoffset:0;stroke-width:1.5;"/>
    </g>
    <g id="line2d_21">
     <g>
      <use style="fill:#081d58;stroke:#081d58;stroke-linejoin:miter;" x="292.085938" xlink:href="#m8222f24187" y="62.336562"/>
     </g>
    </g>
    <g id="text_19">
     <text style="font-family:DejaVu Sans;font-size:10px;font-style:normal;font-weight:normal;text-anchor:start;" transform="rotate(-0, 310.085938, 65.836562)" x="310.085938" y="65.836562">reconstructed</text>
    </g>
   </g>
  </g>
  <g id="text_20">
   <text style="font-family:DejaVu Sans;font-size:12px;font-style:normal;font-weight:normal;text-anchor:middle;" transform="rotate(-0, 216, 14.878125)" x="216" y="14.878125">Reconstruction of the weight curve</text>
  </g>
 </g>
 <defs>
  <clipPath id="p8c3d5053ff">
   <rect height="217.44" width="334.8" x="54" y="34.56"/>
  </clipPath>
 </defs>
</svg>
