<?xml version="1.0" encoding="utf-8" standalone="no"?>
<!DOCTYPE svg PUBLIC "-//W3C//DTD SVG 1.1//EN"
  "http://www.w3.org/Graphics/SVG/1.1/DTD/svg11.dtd">
<!-- Created with matplotlib (https://matplotlib.org/) -->
<svg height="288pt" version="1.1" viewBox="0 0 432 288" width="432pt" xmlns="http://www.w3.org/2000/svg" xmlns:xlink="http://www.w3.org/1999/xlink">
 <defs>
  <style type="text/css">
*{stroke-linecap:butt;stroke-linejoin:round;}
  </style>
 </defs>
 <g id="figure_1">
  <g id="patch_1">
   <path d="M 0 288 
L 432 288 
L 432 0 
L 0 0 
z
" style="fill:#ffffff;"/>
  </g>
  <g id="axes_1">
   <g id="patch_2">
    <path d="M 54 252 
L 388.8 252 
L 388.8 34.56 
L 54 34.56 
z
" style="fill:#ffffff;"/>
   </g>
   <g id="matplotlib.axis_1">
    <g id="xtick_1">
     <g id="line2d_1">
      <defs>
       <path d="M 0 0 
L 0 3.5 
" id="m82599edcf9" style="stroke:#000000;stroke-width:0.8;"/>
      </defs>
      <g>
       <use style="stroke:#000000;stroke-width:0.8;" x="69.218182" xlink:href="#m82599edcf9" y="252"/>
      </g>
     </g>
     <g id="text_1">
      <text style="font-family:DejaVu Sans;font-size:10px;font-style:normal;font-weight:normal;text-anchor:middle;" transform="rotate(-0, 69.218182, 266.598437)" x="69.218182" y="266.598437">0</text>
     </g>
    </g>
    <g id="xtick_2">
     <g id="line2d_2">
      <g>
       <use style="stroke:#000000;stroke-width:0.8;" x="119.962369" xlink:href="#m82599edcf9" y="252"/>
      </g>
     </g>
     <g id="text_2">
      <text style="font-family:DejaVu Sans;font-size:10px;font-style:normal;font-weight:normal;text-anchor:middle;" transform="rotate(-0, 119.962369, 266.598437)" x="119.962369" y="266.598437">500</text>
     </g>
    </g>
    <g id="xtick_3">
     <g id="line2d_3">
      <g>
       <use style="stroke:#000000;stroke-width:0.8;" x="170.706557" xlink:href="#m82599edcf9" y="252"/>
      </g>
     </g>
     <g id="text_3">
      <text style="font-family:DejaVu Sans;font-size:10px;font-style:normal;font-weight:normal;text-anchor:middle;" transform="rotate(-0, 170.706557, 266.598437)" x="170.706557" y="266.598437">1000</text>
     </g>
    </g>
    <g id="xtick_4">
     <g id="line2d_4">
      <g>
       <use style="stroke:#000000;stroke-width:0.8;" x="221.450744" xlink:href="#m82599edcf9" y="252"/>
      </g>
     </g>
     <g id="text_4">
      <text style="font-family:DejaVu Sans;font-size:10px;font-style:normal;font-weight:normal;text-anchor:middle;" transform="rotate(-0, 221.450744, 266.598437)" x="221.450744" y="266.598437">1500</text>
     </g>
    </g>
    <g id="xtick_5">
     <g id="line2d_5">
      <g>
       <use style="stroke:#000000;stroke-width:0.8;" x="272.194932" xlink:href="#m82599edcf9" y="252"/>
      </g>
     </g>
     <g id="text_5">
      <text style="font-family:DejaVu Sans;font-size:10px;font-style:normal;font-weight:normal;text-anchor:middle;" transform="rotate(-0, 272.194932, 266.598437)" x="272.194932" y="266.598437">2000</text>
     </g>
    </g>
    <g id="xtick_6">
     <g id="line2d_6">
      <g>
       <use style="stroke:#000000;stroke-width:0.8;" x="322.939119" xlink:href="#m82599edcf9" y="252"/>
      </g>
     </g>
     <g id="text_6">
      <text style="font-family:DejaVu Sans;font-size:10px;font-style:normal;font-weight:normal;text-anchor:middle;" transform="rotate(-0, 322.939119, 266.598437)" x="322.939119" y="266.598437">2500</text>
     </g>
    </g>
    <g id="xtick_7">
     <g id="line2d_7">
      <g>
       <use style="stroke:#000000;stroke-width:0.8;" x="373.683307" xlink:href="#m82599edcf9" y="252"/>
      </g>
     </g>
     <g id="text_7">
      <text style="font-family:DejaVu Sans;font-size:10px;font-style:normal;font-weight:normal;text-anchor:middle;" transform="rotate(-0, 373.683307, 266.598437)" x="373.683307" y="266.598437">3000</text>
     </g>
    </g>
    <g id="text_8">
     <text style="font-family:DejaVu Sans;font-size:10px;font-style:normal;font-weight:normal;text-anchor:middle;" transform="rotate(-0, 221.4, 280.276563)" x="221.4" y="280.276563">Time</text>
    </g>
   </g>
   <g id="matplotlib.axis_2">
    <g id="ytick_1">
     <g id="line2d_8">
      <defs>
       <path d="M 0 0 
L -3.5 0 
" id="m6391de5f57" style="stroke:#000000;stroke-width:0.8;"/>
      </defs>
      <g>
       <use style="stroke:#000000;stroke-width:0.8;" x="54" xlink:href="#m6391de5f57" y="232.291826"/>
      </g>
     </g>
     <g id="text_9">
      <text style="font-family:DejaVu Sans;font-size:10px;font-style:normal;font-weight:normal;text-anchor:end;" transform="rotate(-0, 47, 236.091045)" x="47" y="236.091045">63</text>
     </g>
    </g>
    <g id="ytick_2">
     <g id="line2d_9">
      <g>
       <use style="stroke:#000000;stroke-width:0.8;" x="54" xlink:href="#m6391de5f57" y="203.257789"/>
      </g>
     </g>
     <g id="text_10">
      <text style="font-family:DejaVu Sans;font-size:10px;font-style:normal;font-weight:normal;text-anchor:end;" transform="rotate(-0, 47, 207.057007)" x="47" y="207.057007">64</text>
     </g>
    </g>
    <g id="ytick_3">
     <g id="line2d_10">
      <g>
       <use style="stroke:#000000;stroke-width:0.8;" x="54" xlink:href="#m6391de5f57" y="174.223751"/>
      </g>
     </g>
     <g id="text_11">
      <text style="font-family:DejaVu Sans;font-size:10px;font-style:normal;font-weight:normal;text-anchor:end;" transform="rotate(-0, 47, 178.02297)" x="47" y="178.02297">65</text>
     </g>
    </g>
    <g id="ytick_4">
     <g id="line2d_11">
      <g>
       <use style="stroke:#000000;stroke-width:0.8;" x="54" xlink:href="#m6391de5f57" y="145.189714"/>
      </g>
     </g>
     <g id="text_12">
      <text style="font-family:DejaVu Sans;font-size:10px;font-style:normal;font-weight:normal;text-anchor:end;" transform="rotate(-0, 47, 148.988933)" x="47" y="148.988933">66</text>
     </g>
    </g>
    <g id="ytick_5">
     <g id="line2d_12">
      <g>
       <use style="stroke:#000000;stroke-width:0.8;" x="54" xlink:href="#m6391de5f57" y="116.155676"/>
      </g>
     </g>
     <g id="text_13">
      <text style="font-family:DejaVu Sans;font-size:10px;font-style:normal;font-weight:normal;text-anchor:end;" transform="rotate(-0, 47, 119.954895)" x="47" y="119.954895">67</text>
     </g>
    </g>
    <g id="ytick_6">
     <g id="line2d_13">
      <g>
       <use style="stroke:#000000;stroke-width:0.8;" x="54" xlink:href="#m6391de5f57" y="87.121639"/>
      </g>
     </g>
     <g id="text_14">
      <text style="font-family:DejaVu Sans;font-size:10px;font-style:normal;font-weight:normal;text-anchor:end;" transform="rotate(-0, 47, 90.920858)" x="47" y="90.920858">68</text>
     </g>
    </g>
    <g id="ytick_7">
     <g id="line2d_14">
      <g>
       <use style="stroke:#000000;stroke-width:0.8;" x="54" xlink:href="#m6391de5f57" y="58.087602"/>
      </g>
     </g>
     <g id="text_15">
      <text style="font-family:DejaVu Sans;font-size:10px;font-style:normal;font-weight:normal;text-anchor:end;" transform="rotate(-0, 47, 61.88682)" x="47" y="61.88682">69</text>
     </g>
    </g>
    <g id="text_16">
     <text style="font-family:DejaVu Sans;font-size:10px;font-style:normal;font-weight:normal;text-anchor:middle;" transform="rotate(-90, 28.195312, 143.28)" x="28.195312" y="143.28">weight (\%)</text>
    </g>
   </g>
   <g id="line2d_15">
    <path clip-path="url(#p859dab9afb)" d="M 69.218182 44.443636 
L 79.164043 44.810336 
L 84.238461 45.092837 
L 88.297996 45.535897 
L 91.038182 46.039347 
L 93.473903 46.659514 
L 96.315578 47.572054 
L 109.407578 52.216339 
L 125.442742 57.189579 
L 128.69037 58.499595 
L 131.532044 59.863904 
L 133.967765 61.262474 
L 136.403486 62.924672 
L 138.534742 64.6371 
L 140.361533 66.360851 
L 142.594277 68.884779 
L 144.319579 71.170339 
L 146.044882 73.84118 
L 147.668696 76.77565 
L 149.089533 79.789093 
L 150.713347 83.808855 
L 152.438649 88.801839 
L 154.163952 94.556095 
L 155.990742 101.458647 
L 158.02051 110.117468 
L 160.050277 119.866807 
L 161.877068 129.724443 
L 163.703859 140.866255 
L 165.733626 154.746558 
L 168.473812 175.397307 
L 171.315487 196.514633 
L 172.634836 204.77743 
L 173.64972 209.879001 
L 174.461627 212.996385 
L 175.273534 215.257847 
L 176.085441 216.849493 
L 177.100324 218.32268 
L 178.419673 219.854225 
L 180.144976 221.55591 
L 182.174743 223.278499 
L 184.508976 224.96828 
L 187.249162 226.65661 
L 190.192325 228.231416 
L 194.556325 230.296607 
L 200.036697 232.621943 
L 204.400697 234.289949 
L 209.272139 235.904531 
L 213.737628 237.133542 
L 218.60907 238.219996 
L 226.017721 239.464975 
L 235.557628 240.581334 
L 243.981163 241.265086 
L 254.941908 241.844024 
L 265.598187 242.099524 
L 273.412792 242.103008 
L 299.089351 241.846057 
L 305.077165 241.7035 
L 315.124514 241.383254 
L 327.912049 241.016845 
L 334.914747 240.826091 
L 373.581818 239.813674 
L 373.581818 239.813674 
" style="fill:none;stroke:#40b5c4;stroke-dasharray:5.55,2.4;stroke-dashoffset:0;stroke-width:1.5;"/>
    <defs>
     <path d="M 0 3 
C 0.795609 3 1.55874 2.683901 2.12132 2.12132 
C 2.683901 1.55874 3 0.795609 3 0 
C 3 -0.795609 2.683901 -1.55874 2.12132 -2.12132 
C 1.55874 -2.683901 0.795609 -3 0 -3 
C -0.795609 -3 -1.55874 -2.683901 -2.12132 -2.12132 
C -2.683901 -1.55874 -3 -0.795609 -3 0 
C -3 0.795609 -2.683901 1.55874 -2.12132 2.12132 
C -1.55874 2.683901 -0.795609 3 0 3 
z
" id="m03bf6d8a96" style="stroke:#40b5c4;"/>
    </defs>
    <g clip-path="url(#p859dab9afb)">
     <use style="fill:#40b5c4;stroke:#40b5c4;" x="69.218182" xlink:href="#m03bf6d8a96" y="44.443636"/>
     <use style="fill:#40b5c4;stroke:#40b5c4;" x="77.337252" xlink:href="#m03bf6d8a96" y="44.742977"/>
     <use style="fill:#40b5c4;stroke:#40b5c4;" x="85.456322" xlink:href="#m03bf6d8a96" y="45.19736"/>
     <use style="fill:#40b5c4;stroke:#40b5c4;" x="93.575392" xlink:href="#m03bf6d8a96" y="46.688258"/>
     <use style="fill:#40b5c4;stroke:#40b5c4;" x="101.694462" xlink:href="#m03bf6d8a96" y="49.580629"/>
     <use style="fill:#40b5c4;stroke:#40b5c4;" x="109.813532" xlink:href="#m03bf6d8a96" y="52.341766"/>
     <use style="fill:#40b5c4;stroke:#40b5c4;" x="117.932602" xlink:href="#m03bf6d8a96" y="54.743461"/>
     <use style="fill:#40b5c4;stroke:#40b5c4;" x="126.051672" xlink:href="#m03bf6d8a96" y="57.421561"/>
     <use style="fill:#40b5c4;stroke:#40b5c4;" x="134.170742" xlink:href="#m03bf6d8a96" y="61.391094"/>
     <use style="fill:#40b5c4;stroke:#40b5c4;" x="142.289812" xlink:href="#m03bf6d8a96" y="68.516337"/>
     <use style="fill:#40b5c4;stroke:#40b5c4;" x="150.408882" xlink:href="#m03bf6d8a96" y="83.00229"/>
     <use style="fill:#40b5c4;stroke:#40b5c4;" x="158.527952" xlink:href="#m03bf6d8a96" y="112.452095"/>
     <use style="fill:#40b5c4;stroke:#40b5c4;" x="166.647022" xlink:href="#m03bf6d8a96" y="161.466776"/>
     <use style="fill:#40b5c4;stroke:#40b5c4;" x="174.766092" xlink:href="#m03bf6d8a96" y="213.939411"/>
     <use style="fill:#40b5c4;stroke:#40b5c4;" x="182.885162" xlink:href="#m03bf6d8a96" y="223.82463"/>
     <use style="fill:#40b5c4;stroke:#40b5c4;" x="191.004232" xlink:href="#m03bf6d8a96" y="228.634699"/>
     <use style="fill:#40b5c4;stroke:#40b5c4;" x="199.123302" xlink:href="#m03bf6d8a96" y="232.251469"/>
     <use style="fill:#40b5c4;stroke:#40b5c4;" x="207.242372" xlink:href="#m03bf6d8a96" y="235.265492"/>
     <use style="fill:#40b5c4;stroke:#40b5c4;" x="215.361442" xlink:href="#m03bf6d8a96" y="237.520566"/>
     <use style="fill:#40b5c4;stroke:#40b5c4;" x="223.480512" xlink:href="#m03bf6d8a96" y="239.084049"/>
     <use style="fill:#40b5c4;stroke:#40b5c4;" x="231.599582" xlink:href="#m03bf6d8a96" y="240.163534"/>
     <use style="fill:#40b5c4;stroke:#40b5c4;" x="239.718652" xlink:href="#m03bf6d8a96" y="240.946873"/>
     <use style="fill:#40b5c4;stroke:#40b5c4;" x="247.837722" xlink:href="#m03bf6d8a96" y="241.498519"/>
     <use style="fill:#40b5c4;stroke:#40b5c4;" x="255.956792" xlink:href="#m03bf6d8a96" y="241.885833"/>
     <use style="fill:#40b5c4;stroke:#40b5c4;" x="264.075862" xlink:href="#m03bf6d8a96" y="242.084426"/>
     <use style="fill:#40b5c4;stroke:#40b5c4;" x="272.194932" xlink:href="#m03bf6d8a96" y="242.112299"/>
     <use style="fill:#40b5c4;stroke:#40b5c4;" x="280.314002" xlink:href="#m03bf6d8a96" y="242.031004"/>
     <use style="fill:#40b5c4;stroke:#40b5c4;" x="288.433072" xlink:href="#m03bf6d8a96" y="241.910512"/>
     <use style="fill:#40b5c4;stroke:#40b5c4;" x="296.552142" xlink:href="#m03bf6d8a96" y="241.862316"/>
     <use style="fill:#40b5c4;stroke:#40b5c4;" x="304.671212" xlink:href="#m03bf6d8a96" y="241.716565"/>
     <use style="fill:#40b5c4;stroke:#40b5c4;" x="312.790282" xlink:href="#m03bf6d8a96" y="241.454388"/>
     <use style="fill:#40b5c4;stroke:#40b5c4;" x="320.909352" xlink:href="#m03bf6d8a96" y="241.207598"/>
     <use style="fill:#40b5c4;stroke:#40b5c4;" x="329.028422" xlink:href="#m03bf6d8a96" y="240.989262"/>
     <use style="fill:#40b5c4;stroke:#40b5c4;" x="337.147492" xlink:href="#m03bf6d8a96" y="240.758732"/>
     <use style="fill:#40b5c4;stroke:#40b5c4;" x="345.266562" xlink:href="#m03bf6d8a96" y="240.62082"/>
     <use style="fill:#40b5c4;stroke:#40b5c4;" x="353.385632" xlink:href="#m03bf6d8a96" y="240.321479"/>
     <use style="fill:#40b5c4;stroke:#40b5c4;" x="361.504702" xlink:href="#m03bf6d8a96" y="240.051463"/>
     <use style="fill:#40b5c4;stroke:#40b5c4;" x="369.623772" xlink:href="#m03bf6d8a96" y="239.863903"/>
    </g>
   </g>
   <g id="line2d_16">
    <path clip-path="url(#p859dab9afb)" d="M 69.218182 74.129731 
L 69.421159 75.42159 
L 69.522647 75.004483 
L 69.624135 75.390578 
L 69.725624 73.524782 
L 69.827112 75.828508 
L 69.9286 74.327542 
L 70.131577 75.826071 
L 70.233066 74.215013 
L 70.334554 76.211059 
L 70.537531 74.475512 
L 70.639019 75.677658 
L 70.740507 74.244696 
L 70.841996 76.33422 
L 70.943484 74.454025 
L 71.146461 75.929517 
L 71.247949 75.012014 
L 71.349438 76.741138 
L 71.450926 75.178148 
L 71.653903 75.446178 
L 71.755391 74.797147 
L 71.85688 76.070177 
L 72.059856 75.336086 
L 72.161345 75.471209 
L 72.262833 75.230204 
L 72.364321 75.870817 
L 72.46581 75.740789 
L 72.668787 76.249824 
L 72.770275 75.46988 
L 72.871763 75.776009 
L 73.07474 75.303967 
L 73.176228 76.263115 
L 73.277717 74.490353 
L 73.480694 76.059323 
L 73.582182 75.119226 
L 73.68367 76.86452 
L 73.785159 75.383711 
L 73.886647 76.087677 
L 73.988135 75.637786 
L 74.089624 74.21745 
L 74.191112 76.509879 
L 74.292601 75.127865 
L 74.394089 75.535004 
L 74.597066 74.412159 
L 74.698554 75.822084 
L 74.800042 75.028849 
L 74.901531 76.180048 
L 75.104508 74.549497 
L 75.205996 76.073722 
L 75.307484 74.330421 
L 75.510461 75.418046 
L 75.611949 74.62171 
L 75.713438 75.559149 
L 75.814926 73.907112 
L 76.017903 75.135396 
L 76.22088 75.829615 
L 76.423856 74.415703 
L 76.525345 75.299094 
L 76.626833 74.099384 
L 76.728322 75.458583 
L 76.931298 73.147546 
L 77.032787 75.383268 
L 77.134275 73.911099 
L 77.235763 75.461905 
L 77.337252 75.391464 
L 77.43874 73.626234 
L 77.540229 75.36156 
L 77.641717 73.225297 
L 77.743205 74.536649 
L 77.844694 73.50396 
L 78.04767 74.297416 
L 78.149159 73.03236 
L 78.250647 73.990622 
L 78.352136 73.588134 
L 78.453624 73.700884 
L 78.555112 74.407507 
L 78.656601 73.317003 
L 78.758089 73.874549 
L 78.859577 72.465068 
L 78.961066 72.656011 
L 79.062554 73.608956 
L 79.164043 72.678162 
L 79.265531 72.863568 
L 79.468508 72.132135 
L 79.671484 73.205361 
L 79.772973 73.053182 
L 79.97595 71.349976 
L 80.077438 73.174349 
L 80.280415 72.188842 
L 80.381903 73.302162 
L 80.483391 71.183398 
L 80.58488 73.062929 
L 80.686368 72.275453 
L 80.787857 73.356875 
L 80.990833 72.340135 
L 81.092322 73.77797 
L 81.19381 71.879833 
L 81.295298 72.152514 
L 81.396787 72.748603 
L 81.498275 72.13435 
L 81.599764 72.358742 
L 81.701252 71.757779 
L 81.904229 72.563198 
L 82.005717 72.410354 
L 82.107205 73.115206 
L 82.310182 70.846922 
L 82.411671 72.928693 
L 82.513159 71.167228 
L 82.614647 72.561425 
L 82.817624 70.48054 
L 82.919112 72.196595 
L 83.020601 71.19824 
L 83.122089 72.762115 
L 83.325066 71.12935 
L 83.426554 72.176216 
L 83.528043 71.048498 
L 83.629531 71.646802 
L 83.731019 70.807714 
L 83.832508 70.82034 
L 83.933996 71.374563 
L 84.035485 70.030649 
L 84.136973 71.404911 
L 84.238461 70.218492 
L 84.441438 70.952583 
L 84.542926 69.246496 
L 84.644415 70.581993 
L 84.847392 68.639332 
L 85.050368 69.858313 
L 85.151857 68.891413 
L 85.253345 68.96872 
L 85.354833 68.238173 
L 85.456322 70.216277 
L 85.55781 68.629142 
L 85.659299 68.957645 
L 85.760787 68.873249 
L 85.862275 66.849514 
L 85.963764 69.369214 
L 86.065252 67.722493 
L 86.16674 68.101279 
L 86.268229 67.829262 
L 86.369717 66.394749 
L 86.471206 68.824073 
L 86.572694 66.80654 
L 86.674182 68.137385 
L 86.877159 65.896347 
L 86.978647 67.793155 
L 87.080136 67.526233 
L 87.181624 66.678506 
L 87.283113 66.899132 
L 87.384601 65.468829 
L 87.486089 66.927264 
L 87.689066 65.630754 
L 87.790554 67.024508 
L 87.892043 63.739262 
L 87.993531 67.03935 
L 88.196508 65.314435 
L 88.297996 66.91043 
L 88.399485 64.759325 
L 88.500973 66.079759 
L 88.70395 64.211969 
L 88.805438 65.797331 
L 88.906927 64.435918 
L 89.008415 66.034571 
L 89.109903 65.502277 
L 89.211392 64.091688 
L 89.31288 65.784926 
L 89.414368 64.484429 
L 89.515857 65.324403 
L 89.617345 64.242538 
L 89.718834 64.523636 
L 89.820322 65.685246 
L 89.92181 64.734516 
L 90.023299 65.518669 
L 90.226275 63.854005 
L 90.327764 65.192603 
L 90.429252 64.253835 
L 90.530741 65.174218 
L 90.733717 63.33899 
L 90.835206 65.491423 
L 90.936694 63.922896 
L 91.038182 65.907644 
L 91.241159 64.457404 
L 91.342648 64.824671 
L 91.444136 64.031879 
L 91.545624 65.043968 
L 91.748601 63.402564 
L 91.850089 64.795875 
L 91.951578 64.047828 
L 92.053066 64.375666 
L 92.154555 65.817489 
L 92.256043 64.001975 
L 92.357531 65.619457 
L 92.45902 63.556293 
L 92.661996 64.835082 
L 92.763485 63.613886 
L 92.864973 66.198047 
L 92.966462 63.28782 
L 93.169438 65.190609 
L 93.270927 64.388514 
L 93.372415 66.383009 
L 93.473903 63.969192 
L 93.67688 65.012514 
L 93.778369 63.843816 
L 93.879857 65.604173 
L 93.981345 65.404369 
L 94.082834 63.804165 
L 94.184322 65.07055 
L 94.28581 64.505694 
L 94.387299 66.454115 
L 94.590276 64.784799 
L 94.691764 66.339593 
L 94.793252 63.682112 
L 94.894741 66.337156 
L 94.996229 64.770622 
L 95.097717 65.757237 
L 95.300694 64.862771 
L 95.503671 65.948845 
L 95.605159 65.598635 
L 95.706648 66.723916 
L 95.808136 65.092701 
L 95.909624 66.243014 
L 96.112601 65.041975 
L 96.21409 67.736891 
L 96.315578 64.658759 
L 96.417066 67.37494 
L 96.620043 65.570724 
L 96.721531 67.51693 
L 96.82302 65.542592 
L 96.924508 67.476615 
L 97.127485 65.869766 
L 97.330462 67.460666 
L 97.43195 67.713854 
L 97.634927 66.155738 
L 97.736415 67.859388 
L 97.837904 67.205705 
L 97.939392 67.287443 
L 98.04088 67.959511 
L 98.142369 65.751921 
L 98.243857 68.820529 
L 98.345345 67.066153 
L 98.446834 68.864831 
L 98.548322 68.574207 
L 98.649811 67.074127 
L 98.751299 68.766258 
L 98.852787 67.93448 
L 98.954276 67.984542 
L 99.055764 68.63025 
L 99.157252 67.728917 
L 99.258741 68.743442 
L 99.360229 67.957296 
L 99.461718 68.153999 
L 99.563206 69.713001 
L 99.766183 68.918658 
L 99.867671 69.169189 
L 99.969159 68.724835 
L 100.273625 69.448515 
L 100.375113 68.562245 
L 100.476601 69.00239 
L 100.57809 68.81344 
L 100.679578 70.314849 
L 100.781066 68.748537 
L 100.882555 69.101406 
L 101.085532 68.038148 
L 101.288508 68.47209 
L 101.389997 67.454463 
L 101.592973 68.257666 
L 101.694462 68.205168 
L 101.79595 68.774676 
L 101.998927 67.660248 
L 102.100415 67.306272 
L 102.201904 67.718949 
L 102.303392 67.383801 
L 102.40488 67.721164 
L 102.506369 66.946093 
L 102.709346 67.684836 
L 102.810834 67.184219 
L 102.912322 67.690595 
L 103.013811 67.040014 
L 103.115299 67.504747 
L 103.318276 66.521676 
L 103.419764 66.690025 
L 103.521253 67.359435 
L 103.622741 66.349782 
L 103.724229 67.2664 
L 103.825718 66.845305 
L 103.927206 66.922834 
L 104.130183 66.681165 
L 104.231671 67.217002 
L 104.33316 65.445348 
L 104.434648 66.869007 
L 104.536136 66.074886 
L 104.637625 67.762587 
L 104.739113 65.69322 
L 104.840601 67.274817 
L 104.94209 66.042545 
L 105.043578 66.948973 
L 105.145067 65.796002 
L 105.55102 66.927929 
L 105.652508 67.015205 
L 105.753997 66.260291 
L 105.855485 66.416679 
L 105.956974 65.945301 
L 106.15995 66.487341 
L 106.261439 65.869544 
L 106.464415 66.394749 
L 106.565904 67.867805 
L 106.768881 66.624014 
L 106.971857 66.073557 
L 107.073346 66.723916 
L 107.174834 66.55889 
L 107.377811 65.789578 
L 107.479299 66.053842 
L 107.580788 67.494779 
L 107.885253 66.251874 
L 108.088229 65.997357 
L 108.189718 66.593889 
L 108.291206 66.230387 
L 108.392695 65.314435 
L 108.595671 66.810749 
L 108.69716 66.869893 
L 109.001625 65.995584 
L 109.204602 66.546485 
L 109.407578 65.635627 
L 109.610555 66.763567 
L 109.712043 66.387882 
L 109.813532 66.855052 
L 109.91502 65.966345 
L 110.016509 66.619141 
L 110.117997 66.380351 
L 110.422462 67.257761 
L 110.52395 67.219439 
L 110.625439 67.948878 
L 110.726927 67.512943 
L 110.828416 68.108589 
L 110.929904 68.018655 
L 111.031392 68.386365 
L 111.132881 68.031724 
L 111.234369 68.557372 
L 111.640323 67.950429 
L 111.843299 68.783536 
L 112.046276 68.270736 
L 112.249253 68.638667 
L 112.350741 68.356239 
L 112.45223 68.608542 
L 112.553718 68.425794 
L 112.655206 67.972137 
L 112.959671 68.799928 
L 113.06116 68.777334 
L 113.264137 69.026978 
L 113.365625 68.297538 
L 113.467113 68.70357 
L 113.568602 68.46766 
L 113.67009 69.170296 
L 113.771578 68.709994 
L 113.873067 68.88521 
L 113.974555 68.348486 
L 114.177532 69.37741 
L 114.27902 69.33643 
L 114.380509 68.589713 
L 114.583485 68.904482 
L 114.684974 69.684647 
L 114.887951 68.697589 
L 114.989439 69.12688 
L 115.090927 68.931506 
L 115.192416 69.74357 
L 115.293904 69.551962 
L 115.395392 68.997074 
L 115.496881 69.211719 
L 115.598369 69.149031 
L 115.801346 69.933406 
L 115.902834 69.014573 
L 116.004323 69.112925 
L 116.207299 70.165993 
L 116.511765 69.178935 
L 116.613253 69.713001 
L 116.714741 69.628826 
L 116.81623 70.725311 
L 116.917718 69.113146 
L 117.019206 69.886002 
L 117.120695 69.283046 
L 117.222183 70.626074 
L 117.323672 69.905274 
L 117.42516 70.400353 
L 117.526648 69.397125 
L 117.831113 70.431808 
L 117.932602 70.203429 
L 118.03409 70.379531 
L 118.135579 69.756417 
L 118.237067 70.782018 
L 118.338555 70.153146 
L 118.440044 70.678129 
L 118.541532 69.730279 
L 118.845997 70.647339 
L 118.947486 70.185708 
L 119.048974 70.365797 
L 119.150462 70.795974 
L 119.251951 70.733729 
L 119.353439 71.018593 
L 119.556416 70.504021 
L 119.657904 70.59617 
L 119.759393 70.442219 
L 119.860881 70.638479 
L 120.063858 70.391714 
L 120.165346 71.215075 
L 120.266834 71.08261 
L 120.368323 71.433929 
L 120.469811 70.712464 
L 120.5713 71.141754 
L 120.672788 70.79398 
L 120.875765 71.157039 
L 120.977253 70.155804 
L 121.078741 71.771292 
L 121.281718 70.701388 
L 121.383207 71.829771 
L 121.484695 70.59772 
L 121.586183 72.11242 
L 121.687672 70.490066 
L 121.890648 71.943407 
L 121.992137 70.204979 
L 122.093625 71.982614 
L 122.296602 71.038308 
L 122.39809 72.279219 
L 122.499579 70.909831 
L 122.601067 72.405038 
L 122.702555 71.029448 
L 122.804044 71.12359 
L 122.905532 72.245992 
L 123.007021 70.754329 
L 123.108509 72.25153 
L 123.311486 70.859548 
L 123.412974 72.922047 
L 123.514462 71.1309 
L 123.615951 72.28077 
L 123.717439 70.690312 
L 123.818928 71.0166 
L 123.920416 71.96002 
L 124.021904 70.50092 
L 124.123393 71.733856 
L 124.326369 70.199885 
L 124.427858 71.592974 
L 124.529346 70.556962 
L 124.630835 71.218619 
L 124.732323 69.851225 
L 124.833811 69.919229 
L 124.9353 70.991569 
L 125.036788 69.085014 
L 125.138276 71.146849 
L 125.341253 69.363898 
L 125.442742 70.896983 
L 125.54423 69.384498 
L 125.645718 70.511331 
L 125.747207 69.131753 
L 125.848695 69.521836 
L 125.950183 70.675028 
L 126.051672 68.655724 
L 126.15316 70.716451 
L 126.356137 69.164537 
L 126.457625 70.544114 
L 126.559114 69.603795 
L 126.660602 69.890432 
L 126.863579 68.978688 
L 126.965067 70.571803 
L 127.066556 68.786194 
L 127.168044 70.372886 
L 127.371021 68.730816 
L 127.472509 70.52883 
L 127.573997 69.400004 
L 127.675486 69.728064 
L 127.878463 68.649743 
L 127.979951 70.016473 
L 128.081439 68.811668 
L 128.182928 69.889768 
L 128.284416 68.956537 
L 128.385904 68.978024 
L 128.487393 69.842143 
L 128.69037 68.481394 
L 128.791858 67.957074 
L 128.893346 66.636419 
L 128.994835 67.892836 
L 129.2993 65.961693 
L 129.400788 66.050076 
L 129.502277 66.117416 
L 129.603765 65.890145 
L 129.806742 64.706162 
L 129.90823 64.488637 
L 130.009718 64.750908 
L 130.111207 64.541357 
L 130.314184 63.137192 
L 130.415672 63.482529 
L 130.923114 61.956089 
L 131.024602 62.479966 
L 131.126091 62.04403 
L 131.227579 61.069155 
L 131.329067 61.099945 
L 131.430556 60.775208 
L 131.532044 61.080009 
L 131.633532 60.788277 
L 131.836509 59.746949 
L 131.937998 59.614042 
L 132.039486 60.695464 
L 132.242463 59.145543 
L 132.343951 59.16548 
L 132.445439 58.569612 
L 132.546928 59.232819 
L 132.648416 58.93998 
L 132.851393 57.906405 
L 132.952881 58.001876 
L 133.05437 58.633629 
L 133.155858 58.312658 
L 133.257346 57.385851 
L 133.358835 57.398699 
L 133.460323 57.436577 
L 133.561812 57.339112 
L 133.6633 57.434584 
L 133.866277 56.69717 
L 133.967765 56.40566 
L 134.069253 57.25826 
L 134.27223 56.782895 
L 134.373719 56.767168 
L 134.475207 56.458823 
L 134.678184 56.846469 
L 134.779672 56.000071 
L 134.88116 56.560054 
L 134.982649 56.315505 
L 135.185626 57.078171 
L 135.388602 56.41585 
L 135.591579 56.432906 
L 135.693067 56.949029 
L 135.794556 55.821311 
L 136.099021 57.680019 
L 136.301998 56.942605 
L 136.403486 56.902733 
L 136.504974 56.432463 
L 136.707951 57.460944 
L 136.80944 56.723751 
L 137.012416 57.165004 
L 137.113905 58.231584 
L 137.316881 57.596509 
L 137.519858 57.651666 
L 137.621347 57.509676 
L 137.722835 58.70119 
L 137.824323 57.37101 
L 138.128788 59.377688 
L 138.331765 58.895456 
L 138.433254 58.943081 
L 138.534742 59.162378 
L 138.63623 59.108994 
L 138.737719 60.23494 
L 138.839207 58.62056 
L 139.143672 61.746317 
L 139.245161 61.438416 
L 139.346649 61.652839 
L 139.448137 61.408511 
L 139.549626 62.517623 
L 139.651114 62.412404 
L 139.752602 63.344527 
L 139.854091 63.036404 
L 140.158556 65.303581 
L 140.260044 64.709042 
L 140.361533 65.028684 
L 140.463021 64.956028 
L 140.767486 66.299278 
L 140.868975 65.719137 
L 141.17344 67.121531 
L 141.274928 66.61604 
L 141.376416 66.926821 
L 141.477905 66.572845 
L 141.680882 67.378263 
L 141.78237 67.222097 
L 141.883858 66.631103 
L 142.188323 69.053559 
L 142.289812 68.382599 
L 142.594277 69.775467 
L 142.695765 69.246275 
L 142.797254 70.436238 
L 142.898742 70.237099 
L 143.203207 72.350103 
L 143.304696 72.041979 
L 143.609161 73.321212 
L 143.710649 73.021285 
L 143.812137 74.212577 
L 143.913626 73.805216 
L 144.116603 75.215362 
L 144.218091 76.026983 
L 144.319579 75.773351 
L 144.827021 78.506589 
L 144.92851 78.383429 
L 145.029998 79.632979 
L 145.131486 79.463079 
L 145.232975 81.005911 
L 145.334463 80.77731 
L 145.435951 81.160748 
L 145.53744 82.338306 
L 145.638928 81.649182 
L 145.841905 83.65874 
L 145.943393 83.756648 
L 146.247858 85.375902 
L 146.349347 85.453874 
L 146.552324 85.117619 
L 146.7553 85.805857 
L 146.856789 86.584694 
L 146.958277 85.873197 
L 147.059765 86.221192 
L 147.161254 85.936771 
L 147.262742 87.219769 
L 147.364231 86.61194 
L 147.465719 87.374163 
L 147.567207 86.337929 
L 147.668696 87.215782 
L 147.770184 86.9431 
L 147.871672 88.32002 
L 147.973161 87.371283 
L 148.176138 88.325114 
L 148.277626 89.251478 
L 148.379114 88.68197 
L 148.480603 88.912786 
L 148.683579 89.899844 
L 148.785068 89.909369 
L 148.886556 90.439891 
L 148.988044 90.077054 
L 149.393998 91.955698 
L 149.495486 91.823898 
L 149.596975 92.573274 
L 149.698463 92.460303 
L 149.90144 93.141453 
L 150.002928 92.983514 
L 150.104417 93.134586 
L 150.205905 93.619033 
L 150.307393 94.889626 
L 150.408882 94.42733 
L 150.51037 95.136612 
L 150.611858 95.032059 
L 151.1193 96.192118 
L 151.220789 96.128987 
L 151.322277 97.427712 
L 151.423765 97.180062 
L 151.525254 98.034212 
L 151.626742 97.668717 
L 151.728231 98.124811 
L 151.829719 97.977284 
L 152.134184 98.770076 
L 152.235672 98.724666 
L 152.438649 100.588026 
L 152.540138 100.48901 
L 152.641626 100.179557 
L 152.946091 101.753401 
L 153.149068 101.344047 
L 153.453533 103.75875 
L 153.65651 103.34851 
L 153.960975 105.274558 
L 154.062463 104.437463 
L 154.26544 105.576036 
L 154.366928 107.207473 
L 154.468417 106.566416 
L 154.569905 106.856819 
L 154.671393 106.794574 
L 154.975859 108.091084 
L 155.077347 107.570088 
L 155.381812 109.981247 
L 155.4833 109.705022 
L 155.584789 110.235765 
L 155.686277 109.559488 
L 155.889254 110.824323 
L 155.990742 110.777805 
L 156.092231 111.484429 
L 156.193719 111.399811 
L 156.396696 113.07112 
L 156.498184 112.812172 
L 156.599673 113.190737 
L 156.701161 112.789357 
L 156.802649 114.094063 
L 156.904138 113.417122 
L 157.005626 113.717049 
L 157.208603 115.559144 
L 157.310091 115.112797 
L 157.41158 115.417155 
L 157.513068 114.992516 
L 157.716045 116.598258 
L 157.817533 115.706893 
L 158.121998 118.891573 
L 158.223487 117.711578 
L 158.324975 118.134444 
L 158.426463 117.770057 
L 158.527952 117.995556 
L 158.62944 119.109762 
L 158.730928 118.421524 
L 158.933905 120.518136 
L 159.035394 120.275137 
L 159.441347 121.164287 
L 159.542835 122.033944 
L 159.644324 121.856734 
L 159.847301 122.704461 
L 159.948789 124.188814 
L 160.050277 124.046603 
L 160.151766 124.389282 
L 160.253254 123.934518 
L 160.557719 126.93645 
L 160.659208 126.091381 
L 160.963673 130.033854 
L 161.065161 129.276726 
L 161.166649 130.855886 
L 161.268138 129.774463 
L 161.471115 131.932213 
L 161.572603 133.231603 
L 161.674091 132.131795 
L 161.978556 135.981455 
L 162.181533 136.279389 
L 162.485998 138.245752 
L 162.688975 139.225057 
L 162.99344 142.541536 
L 163.094929 141.919752 
L 163.399394 144.052692 
L 163.500882 144.361701 
L 163.60237 145.703843 
L 163.703859 145.567835 
L 163.906836 147.402841 
L 164.008324 148.874347 
L 164.109812 148.25522 
L 164.312789 150.182154 
L 164.414277 150.506448 
L 164.617254 153.551132 
L 164.718743 153.374365 
L 165.632138 162.298646 
L 165.733626 161.957074 
L 166.13958 166.441809 
L 166.241068 166.192165 
L 166.647022 170.368333 
L 166.74851 169.718859 
L 167.052975 174.004454 
L 167.154464 173.37536 
L 167.458929 176.346502 
L 167.763394 178.156921 
L 167.864882 177.844367 
L 168.067859 179.464285 
L 168.169347 179.408021 
L 168.473812 180.457102 
L 168.575301 180.277235 
L 168.676789 181.410269 
L 168.778278 180.83035 
L 169.082743 182.957753 
L 169.184231 182.340842 
L 169.387208 182.876458 
L 169.590185 182.898831 
L 169.691673 183.991328 
L 169.793161 182.876015 
L 170.097626 185.342109 
L 170.199115 184.464478 
L 170.402092 184.623967 
L 170.50358 184.463149 
L 170.706557 185.698744 
L 170.808045 185.196576 
L 171.011022 185.747034 
L 171.11251 187.031804 
L 171.315487 186.563527 
L 171.619952 187.021171 
L 171.72144 187.497644 
L 171.822929 187.132592 
L 172.025906 188.023292 
L 172.127394 189.201072 
L 172.228882 188.290657 
L 172.330371 188.704663 
L 172.431859 188.375939 
L 172.533347 189.181358 
L 172.634836 189.022755 
L 172.837813 189.428565 
L 172.939301 190.055666 
L 173.040789 189.620616 
L 173.142278 191.328696 
L 173.243766 190.740803 
L 173.345254 190.919785 
L 173.446743 190.87216 
L 173.64972 191.49926 
L 173.751208 192.102659 
L 173.852696 191.559733 
L 174.25865 193.205125 
L 174.360138 193.294838 
L 174.461627 193.224175 
L 175.070557 194.828145 
L 175.172045 195.77378 
L 175.375022 194.884852 
L 175.780975 196.331326 
L 175.882464 195.172375 
L 175.983952 195.739446 
L 176.085441 195.579292 
L 176.186929 197.11858 
L 176.389906 196.709447 
L 176.491394 196.612425 
L 176.592882 196.711662 
L 176.694371 197.030197 
L 176.795859 196.93694 
L 176.897348 197.012476 
L 177.100324 197.350725 
L 177.201813 198.847925 
L 177.303301 197.68698 
L 177.404789 198.932764 
L 177.506278 198.533378 
L 177.607766 198.860108 
L 177.709255 197.98292 
L 177.810743 199.284969 
L 177.912231 198.84416 
L 178.01372 199.389522 
L 178.115208 199.099341 
L 178.318185 200.629547 
L 178.419673 200.270476 
L 178.521162 200.601637 
L 178.62265 200.262945 
L 178.825627 201.572524 
L 178.927115 200.043426 
L 179.23158 202.865048 
L 179.434557 202.287566 
L 179.536045 202.525248 
L 179.637534 202.277376 
L 179.84051 202.961627 
L 179.941999 202.427561 
L 180.246464 204.483858 
L 180.449441 204.04316 
L 180.550929 204.118363 
L 180.652417 204.333341 
L 180.753906 204.855666 
L 180.956883 204.316174 
L 181.058371 205.774831 
L 181.159859 205.577242 
L 181.362836 206.360841 
L 181.565813 206.605944 
L 181.667301 206.26393 
L 181.870278 207.732666 
L 181.971766 207.211448 
L 182.174743 207.550361 
L 182.276231 208.662463 
L 182.37772 208.532989 
L 182.479208 208.127179 
L 182.580697 208.841999 
L 182.682185 208.478165 
L 182.783673 209.520379 
L 183.088138 209.151008 
L 183.189627 209.59514 
L 183.291115 210.694615 
L 183.392604 210.222019 
L 183.494092 210.410858 
L 183.59558 210.10783 
L 183.697069 211.113938 
L 183.798557 210.826415 
L 183.900045 211.321938 
L 184.001534 210.856762 
L 184.610464 212.6715 
L 184.813441 212.270896 
L 185.016418 212.992028 
L 185.117906 212.631628 
L 185.219394 213.023483 
L 185.422371 214.078878 
L 185.523859 213.397728 
L 185.625348 213.529306 
L 185.726836 213.390639 
L 185.828325 214.047755 
L 185.929813 213.811734 
L 186.031301 213.14465 
L 186.335766 214.941003 
L 186.437255 214.873331 
L 186.538743 214.296735 
L 186.640232 214.360198 
L 186.843208 214.657689 
L 187.046185 214.760803 
L 187.249162 215.311703 
L 187.35065 215.820517 
L 187.553627 215.411605 
L 187.756604 215.360879 
L 188.061069 216.13739 
L 188.162557 215.969705 
L 188.264046 215.785185 
L 188.467022 216.222229 
L 188.568511 215.535874 
L 188.872976 217.102407 
L 188.974464 216.409185 
L 189.075953 216.520163 
L 189.278929 215.71851 
L 189.481906 216.84357 
L 189.583394 215.676866 
L 189.786371 217.132201 
L 189.88786 216.675553 
L 189.989348 216.916005 
L 190.090836 216.551174 
L 190.293813 216.678212 
L 190.395301 216.437428 
L 190.699767 216.843681 
L 190.801255 217.00616 
L 190.902743 217.489057 
L 191.004232 216.824077 
L 191.10572 217.102518 
L 191.207208 216.544307 
L 191.308697 216.970718 
L 191.410185 216.885436 
L 191.511674 217.614543 
L 191.613162 216.759174 
L 191.816139 216.991762 
L 191.917627 217.862858 
L 192.120604 216.838254 
L 192.323581 217.431131 
L 192.425069 217.304094 
L 192.526557 217.518629 
L 192.628046 216.778335 
L 192.831022 217.716771 
L 192.932511 217.465687 
L 193.033999 217.679557 
L 193.236976 217.430578 
L 193.338464 217.386829 
L 193.439953 217.800835 
L 193.541441 217.402224 
L 193.744418 217.582867 
L 193.947395 218.327812 
L 194.048883 217.992886 
L 194.150371 218.193798 
L 194.353348 217.473329 
L 194.556325 218.244081 
L 194.657813 217.298889 
L 194.962278 219.303906 
L 195.063767 218.241423 
L 195.165255 218.562061 
L 195.266743 217.927761 
L 195.46972 218.543565 
L 195.571209 218.420404 
L 195.672697 218.535591 
L 195.774185 219.273891 
L 195.875674 218.864204 
L 195.977162 219.563296 
L 196.180139 219.116728 
L 196.383116 218.885469 
L 196.586092 219.154496 
L 196.789069 219.299032 
L 196.890557 219.068549 
L 196.992046 220.182755 
L 197.093534 219.259492 
L 197.195023 219.497839 
L 197.296511 219.228481 
L 197.499488 219.389409 
L 197.600976 219.34112 
L 198.108418 219.881941 
L 198.311395 219.552774 
L 198.514371 219.796549 
L 198.61586 219.492855 
L 198.818837 219.874521 
L 198.920325 219.828779 
L 199.021813 220.49265 
L 199.123302 219.64736 
L 199.22479 220.319428 
L 199.326278 219.662091 
L 199.427767 219.96224 
L 199.630744 219.743164 
L 199.83372 220.050069 
L 199.935209 220.124719 
L 200.036697 220.45455 
L 200.138185 220.18497 
L 200.239674 220.392859 
L 200.341162 219.906972 
L 200.544139 220.054278 
L 200.747116 220.09559 
L 200.950092 220.404489 
L 201.051581 221.025941 
L 201.153069 220.204242 
L 201.254558 220.440041 
L 201.356046 219.867986 
L 201.457534 220.536067 
L 201.559023 220.109324 
L 201.863488 220.612045 
L 201.964976 220.457651 
L 202.066465 220.957494 
L 202.269441 220.260949 
L 202.37093 220.512033 
L 202.472418 220.402495 
L 202.573906 220.641507 
L 202.776883 220.23913 
L 202.878372 220.780173 
L 202.97986 220.757579 
L 203.182837 220.852829 
L 203.284325 220.283321 
L 203.385813 220.32851 
L 203.487302 220.87055 
L 203.791767 220.389647 
L 204.096232 220.944535 
L 204.299209 220.541051 
L 204.400697 220.850725 
L 204.806651 220.316991 
L 205.009627 221.215666 
L 205.111116 221.000135 
L 205.212604 220.964693 
L 205.314093 220.466623 
L 205.517069 220.770427 
L 205.618558 220.880518 
L 205.821534 220.389647 
L 205.923023 220.706963 
L 206.024511 221.512271 
L 206.227488 220.510593 
L 206.328976 220.71671 
L 206.531953 220.674401 
L 206.633441 220.871547 
L 206.73493 220.536953 
L 206.937907 220.811296 
L 207.039395 221.222644 
L 207.34386 220.518235 
L 207.648325 220.983521 
L 207.749814 220.30802 
L 207.851302 220.867892 
L 207.95279 220.599862 
L 208.054279 221.284002 
L 208.155767 220.710397 
L 208.257255 221.058503 
L 208.460232 220.450563 
L 208.663209 220.991274 
L 208.764697 220.380676 
L 208.866186 220.40615 
L 208.967674 220.689575 
L 209.069162 221.665446 
L 209.170651 220.594103 
L 209.272139 220.767436 
L 209.373628 220.478141 
L 209.576604 220.708182 
L 209.678093 221.150984 
L 209.779581 220.070227 
L 209.881069 220.66986 
L 209.982558 220.544706 
L 210.084046 221.592347 
L 210.185535 220.57904 
L 210.287023 220.82813 
L 210.388511 220.231931 
L 210.49 220.644829 
L 210.591488 220.557775 
L 210.692976 221.047428 
L 210.794465 219.947398 
L 210.895953 220.753924 
L 210.997442 220.715492 
L 211.09893 221.146111 
L 211.200418 220.573502 
L 211.301907 220.652471 
L 211.403395 220.43395 
L 211.504883 220.721805 
L 211.606372 220.388207 
L 211.70786 220.741408 
L 211.809349 220.699432 
L 212.012325 220.430073 
L 212.113814 220.507713 
L 212.215302 220.250427 
L 212.31679 220.973775 
L 212.418279 220.096476 
L 212.519767 220.438491 
L 212.621256 220.364616 
L 212.722744 221.14013 
L 212.824232 220.503948 
L 212.925721 220.579262 
L 213.027209 220.12494 
L 213.331674 220.978316 
L 213.433163 219.798542 
L 213.737628 221.00678 
L 213.839116 220.442256 
L 213.940604 220.739193 
L 214.042093 220.178325 
L 214.24507 220.328621 
L 214.346558 220.980863 
L 214.448046 219.448442 
L 214.549535 220.715159 
L 214.651023 220.286312 
L 214.752511 221.207027 
L 215.056977 219.888365 
L 215.158465 220.58923 
L 215.259953 220.15861 
L 215.361442 220.471053 
L 215.46293 220.175002 
L 215.767395 220.780505 
L 215.868884 220.421988 
L 215.970372 220.631538 
L 216.07186 219.999564 
L 216.274837 220.299713 
L 216.376325 220.372923 
L 216.477814 220.131475 
L 216.782279 220.885391 
L 216.985256 220.048297 
L 217.086744 220.578376 
L 217.188232 220.158942 
L 217.289721 220.38566 
L 217.492698 219.929567 
L 217.594186 220.095811 
L 217.695674 220.593438 
L 217.898651 220.15274 
L 218.101628 220.455215 
L 218.203116 219.885264 
L 218.304605 220.063249 
L 218.406093 220.473822 
L 218.60907 220.201473 
L 218.710558 220.352212 
L 218.812046 220.148753 
L 218.913535 219.61945 
L 219.218 220.507824 
L 219.319488 219.996685 
L 219.522465 220.060591 
L 219.623953 220.04575 
L 219.725442 220.144433 
L 219.928419 219.681473 
L 220.131395 220.286755 
L 220.232884 220.461196 
L 220.43586 219.840076 
L 220.638837 219.88903 
L 220.740326 220.180983 
L 220.841814 219.227705 
L 221.146279 220.832671 
L 221.247767 219.675492 
L 221.349256 220.061477 
L 221.450744 219.532728 
L 221.552233 219.635398 
L 221.755209 219.998678 
L 221.856698 219.544689 
L 221.958186 219.652676 
L 222.059674 219.565401 
L 222.161163 220.413681 
L 222.465628 219.399267 
L 222.668605 219.878176 
L 222.770093 219.925912 
L 222.871581 219.391181 
L 223.074558 219.902431 
L 223.176047 218.956907 
L 223.277535 219.627535 
L 223.379023 219.37933 
L 223.480512 220.509818 
L 223.582 219.459186 
L 223.683488 219.762214 
L 223.987954 219.351309 
L 224.089442 219.936655 
L 224.19093 219.030227 
L 224.292419 219.551002 
L 224.393907 219.364046 
L 224.495395 220.304919 
L 224.799861 218.9589 
L 224.901349 219.756344 
L 225.002837 219.270568 
L 225.104326 219.38653 
L 225.205814 219.245869 
L 225.510279 219.928237 
L 225.713256 219.344664 
L 225.814744 219.212421 
L 225.916233 219.679147 
L 226.017721 219.553217 
L 226.220698 219.044736 
L 226.423675 219.398602 
L 226.626651 218.836404 
L 226.829628 219.905865 
L 226.931116 219.239889 
L 227.032605 219.275995 
L 227.134093 219.042078 
L 227.438558 219.458078 
L 227.540047 218.191915 
L 227.641535 219.37634 
L 227.743023 218.819016 
L 227.844512 219.921592 
L 227.946 219.008076 
L 228.047489 219.233354 
L 228.148977 218.771833 
L 228.351954 218.878602 
L 228.55493 218.820012 
L 228.757907 219.184067 
L 228.859396 219.397937 
L 228.960884 218.675033 
L 229.062372 218.746692 
L 229.163861 218.888681 
L 229.265349 218.764967 
L 229.366837 218.876276 
L 229.468326 218.796089 
L 229.569814 218.442888 
L 229.772791 219.243987 
L 229.874279 218.861435 
L 229.975768 218.914487 
L 230.178744 218.495054 
L 230.381721 218.991573 
L 230.48321 218.035638 
L 230.787675 219.152059 
L 230.889163 218.666172 
L 230.990651 218.697959 
L 231.09214 218.305107 
L 231.193628 218.6819 
L 231.295117 218.309427 
L 231.396605 218.823113 
L 231.498093 217.862083 
L 231.802558 219.228702 
L 232.005535 218.522079 
L 232.107024 218.011493 
L 232.208512 218.355723 
L 232.411489 218.341325 
L 232.614465 219.059024 
L 232.715954 218.996779 
L 232.817442 219.655445 
L 233.527861 218.125129 
L 233.730838 218.644132 
L 234.035303 217.830739 
L 234.136791 217.777687 
L 234.238279 217.467127 
L 234.339768 217.699382 
L 234.441256 216.897952 
L 234.644233 217.110049 
L 234.745721 217.933078 
L 234.948698 216.771911 
L 235.050186 216.234855 
L 235.151675 216.41716 
L 235.253163 216.286578 
L 235.354652 216.554165 
L 235.45614 215.551269 
L 235.557628 215.952538 
L 235.659117 215.868696 
L 235.760605 216.207277 
L 236.06507 214.93181 
L 236.166559 215.159414 
L 236.268047 215.107801 
L 236.471024 214.450686 
L 236.572512 214.766562 
L 237.587396 212.621771 
L 237.688884 213.382333 
L 237.891861 212.442678 
L 237.993349 212.715581 
L 238.094838 212.331368 
L 238.196326 212.41654 
L 238.297814 212.663194 
L 238.399303 212.099445 
L 238.60228 212.472804 
L 238.703768 213.43904 
L 238.805256 212.628748 
L 238.906745 212.88681 
L 239.008233 212.060016 
L 239.21121 212.551219 
L 239.414187 212.289724 
L 239.617163 212.881826 
L 239.718652 212.804408 
L 239.921628 212.444783 
L 240.124605 212.541583 
L 240.226094 212.75645 
L 240.530559 212.178636 
L 240.632047 213.33216 
L 240.733535 212.73153 
L 240.936512 212.906635 
L 241.038001 212.407236 
L 241.139489 212.589319 
L 241.240977 213.227939 
L 241.342466 212.323948 
L 241.443954 212.417869 
L 241.545442 212.704727 
L 241.646931 213.820151 
L 241.849908 212.97331 
L 241.951396 212.531615 
L 242.052884 212.83841 
L 242.154373 212.596629 
L 242.255861 213.063023 
L 242.357349 212.773285 
L 242.560326 213.380671 
L 242.661815 212.964007 
L 242.864791 213.235027 
L 242.96628 212.615236 
L 243.169256 213.175994 
L 243.270745 213.194933 
L 243.372233 212.757115 
L 243.676698 213.45953 
L 243.778187 213.015509 
L 243.879675 213.412126 
L 243.981163 213.086946 
L 244.18414 213.439815 
L 244.285629 212.50736 
L 244.590094 214.055619 
L 244.79307 213.185851 
L 244.894559 212.890133 
L 245.199024 213.820927 
L 245.300512 212.720122 
L 245.402001 213.388646 
L 245.503489 212.951713 
L 245.604977 213.934452 
L 245.706466 213.222069 
L 245.807954 213.408139 
L 245.909443 213.05383 
L 246.112419 213.458533 
L 246.315396 212.98649 
L 246.619861 213.664761 
L 246.72135 213.534179 
L 246.924326 212.904309 
L 247.025815 213.424863 
L 247.228791 212.968548 
L 247.533257 213.373583 
L 247.634745 213.650805 
L 247.93921 212.8136 
L 248.040698 213.252637 
L 248.142187 212.91616 
L 248.446652 213.077753 
L 248.649629 213.558103 
L 248.852605 213.179095 
L 248.954094 213.141549 
L 249.157071 213.531964 
L 249.258559 213.020271 
L 249.461536 213.397617 
L 249.563024 213.986396 
L 249.664512 213.524543 
L 249.766001 213.713383 
L 249.867489 213.417221 
L 249.968978 213.629983 
L 250.070466 213.549242 
L 250.171954 213.189396 
L 250.476419 214.058277 
L 250.577908 214.318775 
L 250.679396 213.550571 
L 250.780885 213.738413 
L 250.983861 213.70275 
L 251.08535 213.827351 
L 251.389815 213.459308 
L 251.491303 214.557011 
L 251.795768 213.659112 
L 251.897257 214.102469 
L 251.998745 213.919057 
L 252.100233 214.3458 
L 252.201722 213.510367 
L 252.30321 214.023499 
L 252.404699 213.68658 
L 252.506187 214.882745 
L 252.709164 214.12019 
L 252.810652 213.785374 
L 252.91214 213.973105 
L 253.013629 214.572407 
L 253.115117 213.479023 
L 253.318094 214.463976 
L 253.521071 214.5363 
L 253.622559 214.451572 
L 253.724047 213.914626 
L 253.825536 213.999687 
L 254.028513 214.697672 
L 254.130001 213.842192 
L 254.231489 214.235708 
L 254.332978 214.024386 
L 254.434466 215.106251 
L 254.637443 214.40295 
L 254.941908 214.200931 
L 255.043396 214.589352 
L 255.144885 213.717924 
L 255.246373 214.399184 
L 255.347861 214.127721 
L 255.44935 214.731674 
L 255.753815 213.496301 
L 255.855303 214.339154 
L 256.05828 213.660995 
L 256.159768 213.714047 
L 256.261257 214.056616 
L 256.362745 213.997029 
L 256.464234 214.153306 
L 256.565722 214.098038 
L 256.66721 213.371368 
L 256.768699 213.758239 
L 256.971675 213.716041 
L 257.073164 213.195709 
L 257.174652 213.38632 
L 257.276141 213.283095 
L 257.377629 214.655584 
L 257.580606 213.278554 
L 257.986559 213.419768 
L 258.189536 212.86333 
L 258.291024 213.374912 
L 258.392513 213.347112 
L 258.494001 212.923692 
L 258.595489 213.161928 
L 258.696978 212.871304 
L 258.899955 212.953817 
L 259.001443 212.791781 
L 259.102931 212.372237 
L 259.305908 213.325183 
L 259.508885 212.617894 
L 259.711862 212.600284 
L 259.81335 212.086376 
L 259.914838 212.744267 
L 260.117815 212.077183 
L 260.219303 212.251624 
L 260.320792 212.991807 
L 260.42228 212.180186 
L 260.523769 212.502265 
L 260.625257 211.798078 
L 260.726745 212.381652 
L 261.132699 211.807714 
L 261.335676 212.405575 
L 261.741629 211.532374 
L 261.843117 211.751228 
L 261.944606 211.154696 
L 262.046094 211.771053 
L 262.147583 211.497043 
L 262.249071 211.860877 
L 262.553536 211.003514 
L 262.655024 211.1743 
L 262.756513 211.664395 
L 262.858001 210.78909 
L 262.95949 211.213286 
L 263.060978 211.166879 
L 263.162466 211.344532 
L 263.263955 211.121358 
L 263.365443 211.242526 
L 263.56842 210.781559 
L 263.669908 210.829073 
L 263.771397 211.117703 
L 263.872885 210.2383 
L 264.17735 211.512217 
L 264.278838 210.637354 
L 264.380327 210.657512 
L 264.481815 210.356255 
L 264.583304 210.400779 
L 264.78628 210.419608 
L 264.887769 210.057546 
L 264.989257 210.64544 
L 265.090745 210.247493 
L 265.192234 210.734487 
L 265.496699 209.866271 
L 265.699676 210.613431 
L 265.801164 209.731148 
L 265.902652 209.79583 
L 266.004141 209.929623 
L 266.105629 210.32026 
L 266.308606 210.299327 
L 266.410094 209.542309 
L 266.714559 210.226006 
L 266.816048 208.872567 
L 267.019025 210.14604 
L 267.120513 210.224013 
L 267.222001 209.44141 
L 267.32349 210.281163 
L 267.424978 209.519383 
L 267.526466 209.592482 
L 267.627955 209.735468 
L 267.830932 209.22012 
L 267.93242 210.679442 
L 268.033908 209.421364 
L 268.135397 209.720848 
L 268.338373 209.231085 
L 268.54135 209.590488 
L 268.642839 209.516171 
L 268.744327 210.276511 
L 268.947304 209.326003 
L 269.048792 209.472422 
L 269.15028 209.143034 
L 269.251769 209.781985 
L 269.454746 209.200405 
L 269.556234 209.250578 
L 269.657722 209.935493 
L 269.759211 209.335528 
L 269.860699 209.657606 
L 269.962187 209.198301 
L 270.165164 209.434322 
L 270.266653 208.881539 
L 270.368141 209.359229 
L 270.469629 209.051106 
L 270.571118 209.334088 
L 270.672606 210.051676 
L 270.875583 209.076026 
L 270.977071 208.895494 
L 271.180048 209.345606 
L 271.383025 208.959068 
L 271.586001 209.657828 
L 271.890467 208.64441 
L 271.991955 209.291004 
L 272.093443 209.144584 
L 272.194932 208.31923 
L 272.29642 209.973704 
L 272.397908 208.844878 
L 272.499397 209.156103 
L 272.600885 208.754723 
L 272.702374 209.10438 
L 273.006839 208.580504 
L 273.311304 209.16297 
L 273.717257 208.572972 
L 273.818746 208.966045 
L 273.920234 208.316572 
L 274.224699 209.202399 
L 274.529164 208.196623 
L 274.630653 208.866586 
L 274.833629 208.438403 
L 275.036606 208.407613 
L 275.138095 208.57264 
L 275.239583 209.206718 
L 275.44256 208.372725 
L 275.544048 208.121087 
L 275.645536 208.548717 
L 275.747025 208.409385 
L 275.848513 207.859482 
L 275.950002 208.390446 
L 276.05149 208.32654 
L 276.152978 208.947549 
L 276.254467 208.086975 
L 276.355955 208.26352 
L 276.457443 207.864909 
L 276.558932 208.376602 
L 276.964885 207.712508 
L 277.066374 208.489905 
L 277.26935 207.921394 
L 277.370839 207.985854 
L 277.573816 208.335843 
L 277.675304 207.658016 
L 277.878281 207.978101 
L 277.979769 207.738425 
L 278.081257 208.077671 
L 278.182746 207.244675 
L 278.487211 208.529888 
L 278.690188 207.637305 
L 278.791676 207.491882 
L 278.893164 207.624568 
L 278.994653 207.268819 
L 279.19763 207.6146 
L 279.299118 207.329071 
L 279.502095 207.884402 
L 279.705071 207.230941 
L 279.80656 207.222634 
L 280.009537 207.586025 
L 280.111025 206.764547 
L 280.41549 207.92228 
L 280.618467 207.040994 
L 280.719955 206.915508 
L 280.821444 207.253757 
L 281.02442 206.725118 
L 281.125909 206.831665 
L 281.328885 207.354877 
L 281.531862 206.759231 
L 281.633351 206.637953 
L 281.734839 207.116419 
L 281.937816 206.4222 
L 282.039304 206.578034 
L 282.242281 206.707951 
L 282.343769 207.257079 
L 282.546746 206.439589 
L 282.648234 206.645706 
L 282.749723 206.504824 
L 282.851211 206.675832 
L 282.952699 205.797425 
L 283.054188 206.40016 
L 283.155676 206.279214 
L 283.257165 206.823248 
L 283.358653 206.329054 
L 283.460141 206.703742 
L 283.56163 205.928228 
L 283.663118 206.041975 
L 283.764606 206.323516 
L 283.967583 205.849813 
L 284.17056 206.531959 
L 284.272048 206.092258 
L 284.373537 206.167904 
L 284.475025 205.655214 
L 284.678002 206.120611 
L 284.77949 206.225387 
L 284.880979 205.086704 
L 285.083955 205.766081 
L 285.185444 206.121719 
L 285.286932 206.020266 
L 285.591397 205.466929 
L 285.692886 205.86399 
L 285.794374 205.080169 
L 285.895862 205.265242 
L 286.098839 206.261382 
L 286.200327 205.186605 
L 286.301816 205.679248 
L 286.403304 204.729847 
L 286.606281 205.488416 
L 286.707769 204.988795 
L 286.910746 205.340556 
L 287.012234 205.288944 
L 287.215211 205.34842 
L 287.519676 204.821 
L 287.621165 205.510788 
L 287.722653 204.152255 
L 287.824141 205.028557 
L 287.92563 204.664391 
L 288.027118 205.778264 
L 288.128607 204.786112 
L 288.230095 205.023905 
L 288.331583 204.393592 
L 288.53456 204.959888 
L 288.737537 204.266887 
L 288.940514 205.062559 
L 289.14349 204.564267 
L 289.346467 204.483304 
L 289.447955 204.299117 
L 289.549444 204.464919 
L 289.650932 203.9406 
L 289.853909 204.647556 
L 290.056886 204.349068 
L 290.158374 203.997085 
L 290.361351 204.405997 
L 290.462839 204.256476 
L 290.564328 203.647982 
L 290.665816 204.048476 
L 290.767304 203.927974 
L 290.868793 204.571245 
L 291.173258 203.724625 
L 291.477723 203.730163 
L 291.6807 203.716208 
L 291.782188 204.283501 
L 292.086653 203.401993 
L 292.28963 203.700702 
L 292.391118 203.665371 
L 292.492607 203.16276 
L 292.797072 203.987007 
L 292.89856 203.515961 
L 293.000049 203.551735 
L 293.101537 203.168962 
L 293.203025 203.38549 
L 293.304514 203.272741 
L 293.406002 202.933716 
L 293.50749 203.375633 
L 293.608979 203.170734 
L 293.710467 203.678329 
L 293.811956 203.139058 
L 293.913444 203.192443 
L 294.014932 202.683186 
L 294.116421 203.472434 
L 294.319397 202.849985 
L 294.522374 202.709768 
L 294.623862 203.583301 
L 294.725351 203.462798 
L 294.928328 202.68673 
L 295.029816 202.586164 
L 295.232793 202.860174 
L 295.334281 202.144469 
L 295.537258 202.824511 
L 295.638746 203.0808 
L 295.841723 202.361108 
L 295.943211 202.777107 
L 296.146188 202.346931 
L 296.247676 201.958399 
L 296.349165 202.342944 
L 296.450653 202.12852 
L 296.552142 203.282598 
L 296.65363 202.175037 
L 296.755118 202.195195 
L 296.856607 202.311932 
L 296.958095 202.013777 
L 297.059583 202.171715 
L 297.161072 201.770778 
L 297.364049 201.816852 
L 297.465537 202.72483 
L 297.668514 202.008682 
L 297.87149 201.596005 
L 298.074467 201.829257 
L 298.277444 201.539962 
L 298.378932 202.070705 
L 298.581909 201.499204 
L 298.683397 201.862262 
L 298.886374 201.260192 
L 298.987863 201.650054 
L 299.089351 200.64173 
L 299.190839 201.536418 
L 299.292328 201.488128 
L 299.393816 201.981657 
L 299.596793 201.143012 
L 299.698281 201.059945 
L 299.79977 201.130829 
L 299.901258 201.692141 
L 300.002746 200.613598 
L 300.104235 200.6929 
L 300.307211 201.789385 
L 300.4087 200.845522 
L 300.510188 201.157189 
L 300.611677 200.726348 
L 300.713165 200.911311 
L 300.916142 200.603187 
L 301.01763 200.160606 
L 301.220607 201.332848 
L 301.423584 200.580593 
L 301.525072 200.28709 
L 301.728049 200.58015 
L 301.931025 200.342911 
L 302.032514 200.168581 
L 302.134002 200.641952 
L 302.235491 200.235034 
L 302.336979 200.788371 
L 302.539956 199.881058 
L 302.742932 200.122063 
L 302.844421 199.450881 
L 303.047398 200.112759 
L 303.148886 200.381897 
L 303.351863 199.557872 
L 303.453351 199.937543 
L 303.554839 199.73929 
L 303.656328 199.907639 
L 303.757816 199.0464 
L 303.859305 199.420313 
L 303.960793 199.28076 
L 304.062281 200.504393 
L 304.16377 199.524866 
L 304.265258 199.622553 
L 304.366746 198.880266 
L 304.569723 199.327056 
L 304.7727 199.112189 
L 304.874188 199.017604 
L 304.975677 199.765207 
L 305.178653 198.851026 
L 305.280142 199.149625 
L 305.584607 198.687107 
L 305.787584 198.500816 
L 305.889072 199.346328 
L 306.193537 198.374332 
L 306.396514 198.373668 
L 306.498002 198.75046 
L 306.599491 198.028995 
L 306.700979 198.454741 
L 306.903956 198.199559 
L 307.005444 197.916688 
L 307.106933 198.384743 
L 307.208421 198.20997 
L 307.309909 198.490848 
L 307.512886 197.817894 
L 307.715863 197.891436 
L 307.817351 198.376769 
L 307.91884 197.223577 
L 308.020328 197.723308 
L 308.121816 197.51708 
L 308.223305 198.514771 
L 308.426281 197.467019 
L 308.52777 197.502682 
L 308.629258 197.3999 
L 308.730747 197.742358 
L 308.832235 197.036842 
L 309.035212 197.263892 
L 309.1367 198.013711 
L 309.238188 196.962857 
L 309.339677 197.453285 
L 309.441165 197.075828 
L 309.644142 197.116143 
L 309.74563 196.675556 
L 309.948607 196.939598 
L 310.050095 197.797958 
L 310.253072 196.667138 
L 310.557537 196.613089 
L 310.659026 196.822861 
L 310.862002 196.354806 
L 310.963491 197.375534 
L 311.064979 196.44917 
L 311.267956 196.627266 
L 311.470933 196.214589 
L 311.673909 196.013899 
L 311.876886 196.745997 
L 312.079863 196.243164 
L 312.181351 195.843335 
L 312.28284 195.885201 
L 312.384328 196.100067 
L 312.587305 195.775109 
L 312.688793 195.73125 
L 312.790282 196.086334 
L 312.993258 196.049563 
L 313.196235 195.360438 
L 313.399212 195.681188 
L 313.5007 195.082441 
L 313.602189 195.657929 
L 313.805165 195.578628 
L 313.906654 195.270283 
L 314.008142 195.43243 
L 314.10963 195.196962 
L 314.312607 195.300187 
L 314.414096 194.661568 
L 314.515584 194.774539 
L 314.718561 195.718845 
L 314.921537 194.620809 
L 315.023026 195.015765 
L 315.124514 194.790709 
L 315.226003 194.986526 
L 315.327491 194.355438 
L 315.631956 195.078232 
L 315.834933 194.630113 
L 316.03791 194.313572 
L 316.139398 194.537964 
L 316.240886 194.025385 
L 316.545351 195.041461 
L 316.64684 194.296516 
L 316.748328 194.334616 
L 316.849817 193.852605 
L 316.951305 193.9133 
L 317.052793 194.699003 
L 317.154282 193.668307 
L 317.25577 193.737419 
L 317.357258 193.976431 
L 317.458747 194.65027 
L 317.763212 193.304363 
L 317.8647 193.868554 
L 318.067677 193.672737 
L 318.270654 193.668086 
L 318.372142 194.22984 
L 318.575119 193.592329 
L 318.778096 193.367272 
L 318.879584 193.581474 
L 319.082561 193.278889 
L 319.184049 193.064244 
L 319.285538 194.381576 
L 319.387026 193.231707 
L 319.488514 193.483566 
L 319.691491 192.929564 
L 319.894468 193.306135 
L 319.995956 193.117185 
L 320.097445 192.63739 
L 320.198933 194.003677 
L 320.300421 192.80729 
L 320.40191 193.165032 
L 320.604886 192.568278 
L 320.706375 192.986714 
L 320.807863 192.886369 
L 320.909352 192.315311 
L 321.112328 193.394961 
L 321.213817 192.584891 
L 321.315305 192.659319 
L 321.518282 192.731089 
L 321.61977 192.763873 
L 321.721259 192.257053 
L 321.822747 192.372904 
L 321.924235 192.875072 
L 322.025724 192.63739 
L 322.127212 191.913045 
L 322.2287 192.487648 
L 322.330189 192.345437 
L 322.431677 192.907192 
L 322.533166 192.692103 
L 322.634654 192.082723 
L 322.736142 192.12769 
L 322.837631 192.363379 
L 323.040607 192.036649 
L 323.142096 192.218289 
L 323.243584 192.002536 
L 323.345073 192.828998 
L 323.548049 191.936747 
L 323.649538 192.280091 
L 323.751026 192.246199 
L 323.954003 191.543784 
L 324.055491 191.701501 
L 324.258468 192.601283 
L 324.461445 191.674698 
L 324.562933 191.554195 
L 324.76591 191.991239 
L 325.171863 191.348189 
L 325.37484 191.889565 
L 325.476328 190.805484 
L 325.679305 191.488185 
L 325.780794 191.943835 
L 325.98377 191.477109 
L 326.085259 191.178068 
L 326.288235 191.671154 
L 326.389724 190.893425 
L 326.491212 191.31319 
L 326.592701 190.909817 
L 326.694189 191.886685 
L 326.897166 190.756309 
L 326.998654 191.451857 
L 327.100142 191.10076 
L 327.201631 191.192245 
L 327.303119 190.373093 
L 327.404608 191.369897 
L 327.506096 190.741467 
L 327.607584 191.530494 
L 327.709073 191.176296 
L 327.810561 190.359138 
L 327.912049 191.455844 
L 328.013538 190.973169 
L 328.115026 191.04649 
L 328.216515 190.04016 
L 328.318003 191.010826 
L 328.419491 190.952569 
L 328.52098 190.361131 
L 328.825445 191.021902 
L 328.926933 190.748999 
L 329.028422 190.930196 
L 329.12991 190.110822 
L 329.231398 190.329012 
L 329.332887 191.142404 
L 329.434375 189.938264 
L 329.535863 190.126328 
L 329.73884 190.94991 
L 329.840329 190.15446 
L 330.043305 190.481412 
L 330.144794 190.13386 
L 330.246282 190.58951 
L 330.449259 189.508088 
L 330.652236 190.830072 
L 330.753724 189.967947 
L 330.855212 190.347397 
L 331.058189 189.899057 
L 331.261166 189.911462 
L 331.464143 189.704569 
L 331.565631 190.855989 
L 331.768608 189.742669 
L 331.971584 189.769694 
L 332.174561 189.409294 
L 332.27605 189.810452 
L 332.377538 189.501886 
L 332.479026 190.488722 
L 332.682003 189.288791 
L 332.783491 189.346163 
L 332.88498 189.90393 
L 333.087957 188.911113 
L 333.189445 189.613085 
L 333.290933 189.380054 
L 333.392422 190.025097 
L 333.696887 188.926397 
L 333.798375 189.604003 
L 333.899864 189.576092 
L 334.001352 188.69824 
L 334.204329 189.296322 
L 334.305817 189.638116 
L 334.508794 189.09386 
L 334.711771 188.997059 
L 334.813259 189.453374 
L 334.914747 188.412267 
L 335.219212 189.58163 
L 335.320701 188.679411 
L 335.422189 189.020983 
L 335.523678 188.803901 
L 335.726654 189.059526 
L 335.828143 188.272936 
L 335.929631 188.77156 
L 336.031119 188.669443 
L 336.132608 189.440527 
L 336.335585 187.927599 
L 336.437073 189.195091 
L 336.944515 188.101707 
L 337.046003 188.990414 
L 337.147492 188.270057 
L 337.24898 188.315245 
L 337.350468 188.91067 
L 337.451957 188.715075 
L 337.553445 188.190312 
L 337.654933 188.244361 
L 337.756422 188.315688 
L 337.85791 188.028165 
L 337.959399 188.391888 
L 338.162375 188.187433 
L 338.263864 188.326321 
L 338.365352 188.703334 
L 338.568329 187.650709 
L 338.669817 188.185439 
L 338.771306 188.133605 
L 338.872794 187.655582 
L 339.075771 188.219773 
L 339.278747 188.089746 
L 339.380236 188.29398 
L 339.481724 187.220532 
L 339.684701 188.037247 
L 339.786189 187.467075 
L 339.887678 187.537959 
L 339.989166 188.028165 
L 340.192143 187.823267 
L 340.293631 188.003135 
L 340.496608 187.188856 
L 340.699585 187.69634 
L 340.801073 187.109555 
L 340.902561 187.275467 
L 341.00405 187.905005 
L 341.410003 186.775957 
L 341.61298 187.4004 
L 341.714468 186.66498 
L 341.815957 186.81007 
L 341.917445 187.953294 
L 342.120422 186.586121 
L 342.323399 186.925921 
L 342.526375 186.610931 
L 342.627864 186.472707 
L 342.729352 186.616247 
L 342.830841 187.343693 
L 343.135306 185.820576 
L 343.236794 186.684916 
L 343.338282 186.638398 
L 343.439771 185.975634 
L 343.744236 186.552452 
L 343.845724 186.010633 
L 343.947213 186.697764 
L 344.048701 185.600836 
L 344.150189 185.652005 
L 344.251678 186.741623 
L 344.353166 185.465492 
L 344.657631 186.670518 
L 344.75912 185.364261 
L 344.962096 185.851144 
L 345.063585 185.499383 
L 345.165073 185.823234 
L 345.36805 185.259042 
L 345.469538 185.279643 
L 345.571027 186.270467 
L 345.774003 184.964874 
L 345.875492 185.45353 
L 346.078469 185.23667 
L 346.179957 184.820227 
L 346.281445 185.042846 
L 346.382934 184.931869 
L 346.484422 185.596405 
L 346.58591 185.394829 
L 346.788887 184.553969 
L 346.991864 185.373121 
L 347.093352 184.021454 
L 347.296329 184.938957 
L 347.499306 184.67425 
L 347.600794 184.717667 
L 347.803771 184.20398 
L 347.905259 184.578557 
L 348.108236 184.281288 
L 348.311213 184.56283 
L 348.412701 184.052023 
L 348.615678 184.305876 
L 348.818655 183.764057 
L 348.920143 184.258251 
L 349.021631 183.865731 
L 349.224608 184.251384 
L 349.326097 183.990221 
L 349.427585 183.059648 
L 349.529073 184.044713 
L 349.630562 183.66349 
L 349.73205 183.776019 
L 349.935027 183.332551 
L 350.036515 184.306762 
L 350.138004 183.414289 
L 350.239492 183.915793 
L 350.34098 182.97193 
L 350.442469 183.01734 
L 350.543957 183.897407 
L 350.746934 182.74643 
L 350.949911 183.897186 
L 351.051399 183.104394 
L 351.152887 183.341412 
L 351.254376 182.688173 
L 351.355864 183.178822 
L 351.558841 182.703678 
L 351.660329 183.19167 
L 351.761818 182.787632 
L 351.863306 183.657288 
L 352.066283 182.423909 
L 352.269259 182.890413 
L 352.370748 182.640326 
L 352.472236 182.067496 
L 352.675213 182.982562 
L 352.87819 182.732032 
L 353.081166 182.078571 
L 353.284143 182.782537 
L 353.385632 181.718836 
L 353.690097 182.823738 
L 353.791585 181.977562 
L 353.893073 182.220782 
L 354.09605 181.554252 
L 354.299027 182.22632 
L 354.400515 181.747189 
L 354.502004 182.04756 
L 354.603492 181.126955 
L 354.70498 181.588808 
L 354.907957 180.160276 
L 355.009446 180.204357 
L 355.110934 180.195718 
L 355.313911 177.815349 
L 355.415399 178.982939 
L 355.821353 176.402323 
L 356.125818 174.942558 
L 356.328794 174.706426 
L 356.531771 172.583897 
L 356.63326 173.083628 
L 356.836236 171.19125 
L 356.937725 171.313082 
L 357.039213 170.985244 
L 357.140701 169.867715 
L 357.24219 170.120682 
L 357.343678 170.075051 
L 357.546655 167.832019 
L 357.648143 168.342826 
L 357.749632 167.680726 
L 357.85112 166.261055 
L 357.952608 166.484339 
L 358.054097 166.254631 
L 358.155585 165.12071 
L 358.257074 165.174316 
L 358.358562 165.34776 
L 358.561539 162.941917 
L 358.663027 163.623067 
L 359.170469 160.515695 
L 359.271957 160.371712 
L 359.373446 160.670532 
L 359.576422 158.209754 
L 359.677911 158.907295 
L 359.982376 156.933179 
L 360.185353 155.927957 
L 360.286841 155.886313 
L 360.895771 152.726221 
L 360.99726 152.669957 
L 361.200236 151.475342 
L 361.504702 150.006273 
L 361.707678 148.923079 
L 362.012143 147.812196 
L 362.21512 146.67606 
L 362.82405 143.871717 
L 362.925539 143.660173 
L 363.331492 141.343377 
L 363.432981 141.395876 
L 363.635957 139.915289 
L 363.737446 139.670518 
L 364.143399 137.582544 
L 364.244888 137.396253 
L 364.650841 135.333753 
L 364.75233 135.270844 
L 365.158283 132.850602 
L 365.259771 133.085848 
L 365.564237 130.676904 
L 365.665725 130.6089 
L 365.97019 129.493143 
L 366.071678 128.218562 
L 366.173167 128.301186 
L 366.477632 126.586461 
L 366.883585 124.851799 
L 367.188051 123.366561 
L 367.898469 120.199823 
L 368.101446 119.072105 
L 368.304423 118.428834 
L 368.405911 118.06644 
L 368.608888 116.78167 
L 368.913353 115.491583 
L 369.014841 114.29143 
L 369.11633 114.783187 
L 369.522283 112.324403 
L 369.623772 112.407027 
L 369.826748 111.429494 
L 370.029725 109.981912 
L 370.131213 110.023999 
L 370.232702 109.655403 
L 370.435679 108.264528 
L 370.537167 108.064503 
L 371.146097 105.146302 
L 371.247586 105.219623 
L 371.450562 103.830963 
L 371.653539 102.658721 
L 371.755027 103.00871 
L 371.958004 101.188324 
L 372.059493 101.406956 
L 372.363958 99.047187 
L 372.465446 99.155728 
L 372.566934 99.162817 
L 372.8714 96.874375 
L 372.972888 96.980258 
L 373.074376 96.777574 
L 373.581818 94.362427 
L 373.581818 94.362427 
" style="fill:none;stroke:#081d58;stroke-dasharray:5.55,2.4;stroke-dashoffset:0;stroke-width:1.5;"/>
    <defs>
     <path d="M -0 4.242641 
L 4.242641 0 
L 0 -4.242641 
L -4.242641 -0 
z
" id="mfdcc978a5b" style="stroke:#081d58;stroke-linejoin:miter;"/>
    </defs>
    <g clip-path="url(#p859dab9afb)">
     <use style="fill:#081d58;stroke:#081d58;stroke-linejoin:miter;" x="69.218182" xlink:href="#mfdcc978a5b" y="74.129731"/>
     <use style="fill:#081d58;stroke:#081d58;stroke-linejoin:miter;" x="77.337252" xlink:href="#mfdcc978a5b" y="75.391464"/>
     <use style="fill:#081d58;stroke:#081d58;stroke-linejoin:miter;" x="85.456322" xlink:href="#mfdcc978a5b" y="70.216277"/>
     <use style="fill:#081d58;stroke:#081d58;stroke-linejoin:miter;" x="93.575392" xlink:href="#mfdcc978a5b" y="64.999444"/>
     <use style="fill:#081d58;stroke:#081d58;stroke-linejoin:miter;" x="101.694462" xlink:href="#mfdcc978a5b" y="68.205168"/>
     <use style="fill:#081d58;stroke:#081d58;stroke-linejoin:miter;" x="109.813532" xlink:href="#mfdcc978a5b" y="66.855052"/>
     <use style="fill:#081d58;stroke:#081d58;stroke-linejoin:miter;" x="117.932602" xlink:href="#mfdcc978a5b" y="70.203429"/>
     <use style="fill:#081d58;stroke:#081d58;stroke-linejoin:miter;" x="126.051672" xlink:href="#mfdcc978a5b" y="68.655724"/>
     <use style="fill:#081d58;stroke:#081d58;stroke-linejoin:miter;" x="134.170742" xlink:href="#mfdcc978a5b" y="56.915138"/>
     <use style="fill:#081d58;stroke:#081d58;stroke-linejoin:miter;" x="142.289812" xlink:href="#mfdcc978a5b" y="68.382599"/>
     <use style="fill:#081d58;stroke:#081d58;stroke-linejoin:miter;" x="150.408882" xlink:href="#mfdcc978a5b" y="94.42733"/>
     <use style="fill:#081d58;stroke:#081d58;stroke-linejoin:miter;" x="158.527952" xlink:href="#mfdcc978a5b" y="117.995556"/>
     <use style="fill:#081d58;stroke:#081d58;stroke-linejoin:miter;" x="166.647022" xlink:href="#mfdcc978a5b" y="170.368333"/>
     <use style="fill:#081d58;stroke:#081d58;stroke-linejoin:miter;" x="174.766092" xlink:href="#mfdcc978a5b" y="194.300503"/>
     <use style="fill:#081d58;stroke:#081d58;stroke-linejoin:miter;" x="182.885162" xlink:href="#mfdcc978a5b" y="209.397773"/>
     <use style="fill:#081d58;stroke:#081d58;stroke-linejoin:miter;" x="191.004232" xlink:href="#mfdcc978a5b" y="216.824077"/>
     <use style="fill:#081d58;stroke:#081d58;stroke-linejoin:miter;" x="199.123302" xlink:href="#mfdcc978a5b" y="219.64736"/>
     <use style="fill:#081d58;stroke:#081d58;stroke-linejoin:miter;" x="207.242372" xlink:href="#mfdcc978a5b" y="220.848731"/>
     <use style="fill:#081d58;stroke:#081d58;stroke-linejoin:miter;" x="215.361442" xlink:href="#mfdcc978a5b" y="220.471053"/>
     <use style="fill:#081d58;stroke:#081d58;stroke-linejoin:miter;" x="223.480512" xlink:href="#mfdcc978a5b" y="220.509818"/>
     <use style="fill:#081d58;stroke:#081d58;stroke-linejoin:miter;" x="231.599582" xlink:href="#mfdcc978a5b" y="218.37289"/>
     <use style="fill:#081d58;stroke:#081d58;stroke-linejoin:miter;" x="239.718652" xlink:href="#mfdcc978a5b" y="212.804408"/>
     <use style="fill:#081d58;stroke:#081d58;stroke-linejoin:miter;" x="247.837722" xlink:href="#mfdcc978a5b" y="213.200582"/>
     <use style="fill:#081d58;stroke:#081d58;stroke-linejoin:miter;" x="255.956792" xlink:href="#mfdcc978a5b" y="214.105459"/>
     <use style="fill:#081d58;stroke:#081d58;stroke-linejoin:miter;" x="264.075862" xlink:href="#mfdcc978a5b" y="210.744345"/>
     <use style="fill:#081d58;stroke:#081d58;stroke-linejoin:miter;" x="272.194932" xlink:href="#mfdcc978a5b" y="208.31923"/>
     <use style="fill:#081d58;stroke:#081d58;stroke-linejoin:miter;" x="280.314002" xlink:href="#mfdcc978a5b" y="207.255418"/>
     <use style="fill:#081d58;stroke:#081d58;stroke-linejoin:miter;" x="288.433072" xlink:href="#mfdcc978a5b" y="204.826648"/>
     <use style="fill:#081d58;stroke:#081d58;stroke-linejoin:miter;" x="296.552142" xlink:href="#mfdcc978a5b" y="203.282598"/>
     <use style="fill:#081d58;stroke:#081d58;stroke-linejoin:miter;" x="304.671212" xlink:href="#mfdcc978a5b" y="199.141429"/>
     <use style="fill:#081d58;stroke:#081d58;stroke-linejoin:miter;" x="312.790282" xlink:href="#mfdcc978a5b" y="196.086334"/>
     <use style="fill:#081d58;stroke:#081d58;stroke-linejoin:miter;" x="320.909352" xlink:href="#mfdcc978a5b" y="192.315311"/>
     <use style="fill:#081d58;stroke:#081d58;stroke-linejoin:miter;" x="329.028422" xlink:href="#mfdcc978a5b" y="190.930196"/>
     <use style="fill:#081d58;stroke:#081d58;stroke-linejoin:miter;" x="337.147492" xlink:href="#mfdcc978a5b" y="188.270057"/>
     <use style="fill:#081d58;stroke:#081d58;stroke-linejoin:miter;" x="345.266562" xlink:href="#mfdcc978a5b" y="185.385969"/>
     <use style="fill:#081d58;stroke:#081d58;stroke-linejoin:miter;" x="353.385632" xlink:href="#mfdcc978a5b" y="181.718836"/>
     <use style="fill:#081d58;stroke:#081d58;stroke-linejoin:miter;" x="361.504702" xlink:href="#mfdcc978a5b" y="150.006273"/>
     <use style="fill:#081d58;stroke:#081d58;stroke-linejoin:miter;" x="369.623772" xlink:href="#mfdcc978a5b" y="112.407027"/>
    </g>
   </g>
   <g id="patch_3">
    <path d="M 54 252 
L 54 34.56 
" style="fill:none;stroke:#000000;stroke-linecap:square;stroke-linejoin:miter;stroke-width:0.8;"/>
   </g>
   <g id="patch_4">
    <path d="M 388.8 252 
L 388.8 34.56 
" style="fill:none;stroke:#000000;stroke-linecap:square;stroke-linejoin:miter;stroke-width:0.8;"/>
   </g>
   <g id="patch_5">
    <path d="M 54 252 
L 388.8 252 
" style="fill:none;stroke:#000000;stroke-linecap:square;stroke-linejoin:miter;stroke-width:0.8;"/>
   </g>
   <g id="patch_6">
    <path d="M 54 34.56 
L 388.8 34.56 
" style="fill:none;stroke:#000000;stroke-linecap:square;stroke-linejoin:miter;stroke-width:0.8;"/>
   </g>
   <g id="legend_1">
    <g id="patch_7">
     <path d="M 280.085938 71.91625 
L 381.8 71.91625 
Q 383.8 71.91625 383.8 69.91625 
L 383.8 41.56 
Q 383.8 39.56 381.8 39.56 
L 280.085938 39.56 
Q 278.085938 39.56 278.085938 41.56 
L 278.085938 69.91625 
Q 278.085938 71.91625 280.085938 71.91625 
z
" style="fill:#ffffff;opacity:0.8;stroke:#cccccc;stroke-linejoin:miter;"/>
    </g>
    <g id="line2d_17">
     <path d="M 282.085938 47.658437 
L 302.085938 47.658437 
" style="fill:none;stroke:#40b5c4;stroke-dasharray:5.55,2.4;stroke-dashoffset:0;stroke-width:1.5;"/>
    </g>
    <g id="line2d_18">
     <g>
      <use style="fill:#40b5c4;stroke:#40b5c4;" x="292.085938" xlink:href="#m03bf6d8a96" y="47.658437"/>
     </g>
    </g>
    <g id="text_17">
     <text style="font-family:DejaVu Sans;font-size:10px;font-style:normal;font-weight:normal;text-anchor:start;" transform="rotate(-0, 310.085938, 51.158437)" x="310.085938" y="51.158437">original</text>
    </g>
    <g id="line2d_19">
     <path d="M 282.085938 62.336562 
L 302.085938 62.336562 
" style="fill:none;stroke:#081d58;stroke-dasharray:5.55,2.4;stroke-dashoffset:0;stroke-width:1.5;"/>
    </g>
    <g id="line2d_20">
     <g>
      <use style="fill:#081d58;stroke:#081d58;stroke-linejoin:miter;" x="292.085938" xlink:href="#mfdcc978a5b" y="62.336562"/>
     </g>
    </g>
    <g id="text_18">
     <text style="font-family:DejaVu Sans;font-size:10px;font-style:normal;font-weight:normal;text-anchor:start;" transform="rotate(-0, 310.085938, 65.836562)" x="310.085938" y="65.836562">reconstructed</text>
    </g>
   </g>
  </g>
  <g id="text_19">
   <text style="font-family:DejaVu Sans;font-size:12px;font-style:normal;font-weight:normal;text-anchor:middle;" transform="rotate(-0, 216, 14.878125)" x="216" y="14.878125">Reconstruction of the weight curve</text>
  </g>
 </g>
 <defs>
  <clipPath id="p859dab9afb">
   <rect height="217.44" width="334.8" x="54" y="34.56"/>
  </clipPath>
 </defs>
</svg>
