<?xml version="1.0" encoding="utf-8" standalone="no"?>
<!DOCTYPE svg PUBLIC "-//W3C//DTD SVG 1.1//EN"
  "http://www.w3.org/Graphics/SVG/1.1/DTD/svg11.dtd">
<!-- Created with matplotlib (https://matplotlib.org/) -->
<svg height="288pt" version="1.1" viewBox="0 0 432 288" width="432pt" xmlns="http://www.w3.org/2000/svg" xmlns:xlink="http://www.w3.org/1999/xlink">
 <defs>
  <style type="text/css">
*{stroke-linecap:butt;stroke-linejoin:round;}
  </style>
 </defs>
 <g id="figure_1">
  <g id="patch_1">
   <path d="M 0 288 
L 432 288 
L 432 0 
L 0 0 
z
" style="fill:#ffffff;"/>
  </g>
  <g id="axes_1">
   <g id="patch_2">
    <path d="M 54 252 
L 388.8 252 
L 388.8 34.56 
L 54 34.56 
z
" style="fill:#ffffff;"/>
   </g>
   <g id="matplotlib.axis_1">
    <g id="xtick_1">
     <g id="line2d_1">
      <defs>
       <path d="M 0 0 
L 0 3.5 
" id="me27c5391d3" style="stroke:#000000;stroke-width:0.8;"/>
      </defs>
      <g>
       <use style="stroke:#000000;stroke-width:0.8;" x="69.218182" xlink:href="#me27c5391d3" y="252"/>
      </g>
     </g>
     <g id="text_1">
      <text style="font-family:DejaVu Sans;font-size:10px;font-style:normal;font-weight:normal;text-anchor:middle;" transform="rotate(-0, 69.218182, 266.598437)" x="69.218182" y="266.598437">0</text>
     </g>
    </g>
    <g id="xtick_2">
     <g id="line2d_2">
      <g>
       <use style="stroke:#000000;stroke-width:0.8;" x="119.962369" xlink:href="#me27c5391d3" y="252"/>
      </g>
     </g>
     <g id="text_2">
      <text style="font-family:DejaVu Sans;font-size:10px;font-style:normal;font-weight:normal;text-anchor:middle;" transform="rotate(-0, 119.962369, 266.598437)" x="119.962369" y="266.598437">500</text>
     </g>
    </g>
    <g id="xtick_3">
     <g id="line2d_3">
      <g>
       <use style="stroke:#000000;stroke-width:0.8;" x="170.706557" xlink:href="#me27c5391d3" y="252"/>
      </g>
     </g>
     <g id="text_3">
      <text style="font-family:DejaVu Sans;font-size:10px;font-style:normal;font-weight:normal;text-anchor:middle;" transform="rotate(-0, 170.706557, 266.598437)" x="170.706557" y="266.598437">1000</text>
     </g>
    </g>
    <g id="xtick_4">
     <g id="line2d_4">
      <g>
       <use style="stroke:#000000;stroke-width:0.8;" x="221.450744" xlink:href="#me27c5391d3" y="252"/>
      </g>
     </g>
     <g id="text_4">
      <text style="font-family:DejaVu Sans;font-size:10px;font-style:normal;font-weight:normal;text-anchor:middle;" transform="rotate(-0, 221.450744, 266.598437)" x="221.450744" y="266.598437">1500</text>
     </g>
    </g>
    <g id="xtick_5">
     <g id="line2d_5">
      <g>
       <use style="stroke:#000000;stroke-width:0.8;" x="272.194932" xlink:href="#me27c5391d3" y="252"/>
      </g>
     </g>
     <g id="text_5">
      <text style="font-family:DejaVu Sans;font-size:10px;font-style:normal;font-weight:normal;text-anchor:middle;" transform="rotate(-0, 272.194932, 266.598437)" x="272.194932" y="266.598437">2000</text>
     </g>
    </g>
    <g id="xtick_6">
     <g id="line2d_6">
      <g>
       <use style="stroke:#000000;stroke-width:0.8;" x="322.939119" xlink:href="#me27c5391d3" y="252"/>
      </g>
     </g>
     <g id="text_6">
      <text style="font-family:DejaVu Sans;font-size:10px;font-style:normal;font-weight:normal;text-anchor:middle;" transform="rotate(-0, 322.939119, 266.598437)" x="322.939119" y="266.598437">2500</text>
     </g>
    </g>
    <g id="xtick_7">
     <g id="line2d_7">
      <g>
       <use style="stroke:#000000;stroke-width:0.8;" x="373.683307" xlink:href="#me27c5391d3" y="252"/>
      </g>
     </g>
     <g id="text_7">
      <text style="font-family:DejaVu Sans;font-size:10px;font-style:normal;font-weight:normal;text-anchor:middle;" transform="rotate(-0, 373.683307, 266.598437)" x="373.683307" y="266.598437">3000</text>
     </g>
    </g>
    <g id="text_8">
     <text style="font-family:DejaVu Sans;font-size:10px;font-style:normal;font-weight:normal;text-anchor:middle;" transform="rotate(-0, 221.4, 280.276563)" x="221.4" y="280.276563">Time</text>
    </g>
   </g>
   <g id="matplotlib.axis_2">
    <g id="ytick_1">
     <g id="line2d_8">
      <defs>
       <path d="M 0 0 
L -3.5 0 
" id="m6065ec7992" style="stroke:#000000;stroke-width:0.8;"/>
      </defs>
      <g>
       <use style="stroke:#000000;stroke-width:0.8;" x="54" xlink:href="#m6065ec7992" y="241.389349"/>
      </g>
     </g>
     <g id="text_9">
      <text style="font-family:DejaVu Sans;font-size:10px;font-style:normal;font-weight:normal;text-anchor:end;" transform="rotate(-0, 47, 245.188568)" x="47" y="245.188568">−10</text>
     </g>
    </g>
    <g id="ytick_2">
     <g id="line2d_9">
      <g>
       <use style="stroke:#000000;stroke-width:0.8;" x="54" xlink:href="#m6065ec7992" y="207.209085"/>
      </g>
     </g>
     <g id="text_10">
      <text style="font-family:DejaVu Sans;font-size:10px;font-style:normal;font-weight:normal;text-anchor:end;" transform="rotate(-0, 47, 211.008304)" x="47" y="211.008304">−8</text>
     </g>
    </g>
    <g id="ytick_3">
     <g id="line2d_10">
      <g>
       <use style="stroke:#000000;stroke-width:0.8;" x="54" xlink:href="#m6065ec7992" y="173.028821"/>
      </g>
     </g>
     <g id="text_11">
      <text style="font-family:DejaVu Sans;font-size:10px;font-style:normal;font-weight:normal;text-anchor:end;" transform="rotate(-0, 47, 176.82804)" x="47" y="176.82804">−6</text>
     </g>
    </g>
    <g id="ytick_4">
     <g id="line2d_11">
      <g>
       <use style="stroke:#000000;stroke-width:0.8;" x="54" xlink:href="#m6065ec7992" y="138.848557"/>
      </g>
     </g>
     <g id="text_12">
      <text style="font-family:DejaVu Sans;font-size:10px;font-style:normal;font-weight:normal;text-anchor:end;" transform="rotate(-0, 47, 142.647776)" x="47" y="142.647776">−4</text>
     </g>
    </g>
    <g id="ytick_5">
     <g id="line2d_12">
      <g>
       <use style="stroke:#000000;stroke-width:0.8;" x="54" xlink:href="#m6065ec7992" y="104.668293"/>
      </g>
     </g>
     <g id="text_13">
      <text style="font-family:DejaVu Sans;font-size:10px;font-style:normal;font-weight:normal;text-anchor:end;" transform="rotate(-0, 47, 108.467512)" x="47" y="108.467512">−2</text>
     </g>
    </g>
    <g id="ytick_6">
     <g id="line2d_13">
      <g>
       <use style="stroke:#000000;stroke-width:0.8;" x="54" xlink:href="#m6065ec7992" y="70.488029"/>
      </g>
     </g>
     <g id="text_14">
      <text style="font-family:DejaVu Sans;font-size:10px;font-style:normal;font-weight:normal;text-anchor:end;" transform="rotate(-0, 47, 74.287247)" x="47" y="74.287247">0</text>
     </g>
    </g>
    <g id="ytick_7">
     <g id="line2d_14">
      <g>
       <use style="stroke:#000000;stroke-width:0.8;" x="54" xlink:href="#m6065ec7992" y="36.307765"/>
      </g>
     </g>
     <g id="text_15">
      <text style="font-family:DejaVu Sans;font-size:10px;font-style:normal;font-weight:normal;text-anchor:end;" transform="rotate(-0, 47, 40.106983)" x="47" y="40.106983">2</text>
     </g>
    </g>
    <g id="text_16">
     <text style="font-family:DejaVu Sans;font-size:10px;font-style:normal;font-weight:normal;text-anchor:middle;" transform="rotate(-90, 19.815625, 143.28)" x="19.815625" y="143.28">temperature (°C)</text>
    </g>
   </g>
   <g id="line2d_15">
    <path clip-path="url(#p187579a08f)" d="M 69.218182 67.040951 
L 71.85688 66.422008 
L 72.973252 66.370378 
L 73.886647 66.558469 
L 74.698554 66.970408 
L 75.510461 67.648377 
L 76.322368 68.631167 
L 77.235763 70.126611 
L 78.250647 72.264126 
L 79.367019 75.186185 
L 80.58488 78.987592 
L 82.107205 84.534824 
L 84.035485 92.501127 
L 87.283113 107.065765 
L 90.936694 123.160944 
L 93.169438 131.97371 
L 95.097717 138.740906 
L 96.721531 143.660506 
L 98.243857 147.578299 
L 99.664694 150.643893 
L 100.882555 152.772896 
L 101.998927 154.318681 
L 103.115299 155.498362 
L 104.231671 156.344887 
L 105.246555 156.868837 
L 106.261439 157.15913 
L 107.377811 157.229165 
L 108.595671 157.050881 
L 109.91502 156.614809 
L 111.640323 155.790415 
L 113.771578 154.472527 
L 122.499579 148.69425 
L 124.529346 147.730145 
L 126.965067 146.83816 
L 128.994835 146.322772 
L 130.720137 146.092688 
L 132.648416 146.05391 
L 134.475207 146.243782 
L 136.099021 146.622243 
L 138.0273 147.294329 
L 139.854091 148.168985 
L 141.071951 148.964787 
L 142.695765 150.271003 
L 144.218091 151.799733 
L 145.638928 153.53192 
L 147.465719 156.150231 
L 148.582091 157.989266 
L 150.51037 161.624029 
L 151.829719 164.699108 
L 153.250556 168.628813 
L 154.87437 173.844687 
L 157.310091 182.487372 
L 160.862184 196.054698 
L 163.094929 205.456356 
L 165.023208 214.519013 
L 169.691673 237.038475 
L 170.50358 239.779151 
L 171.11251 241.218038 
L 171.619952 241.922049 
L 172.025906 242.116364 
L 172.330371 242.026982 
L 172.634836 241.72705 
L 173.040789 240.983647 
L 173.548231 239.486534 
L 174.157161 236.840093 
L 174.86758 232.614558 
L 175.780975 225.571902 
L 176.998836 214.070397 
L 181.362836 170.804916 
L 182.98665 157.600944 
L 184.508976 146.897667 
L 186.031301 137.647223 
L 187.553627 129.677941 
L 189.075953 122.815159 
L 190.598278 116.910553 
L 192.222092 111.51125 
L 193.845906 106.898589 
L 195.368232 103.178666 
L 197.093534 99.539134 
L 198.818837 96.409897 
L 200.645627 93.54935 
L 202.573906 90.943481 
L 204.603674 88.581369 
L 206.836418 86.338996 
L 209.170651 84.337178 
L 211.504883 82.625423 
L 214.143581 80.983889 
L 216.883767 79.564126 
L 219.82693 78.305913 
L 222.871581 77.252296 
L 226.322186 76.302198 
L 241.139489 72.540605 
L 250.171954 70.179899 
L 257.885071 68.278483 
L 261.640141 67.659089 
L 266.511583 67.113703 
L 274.630653 66.216853 
L 287.012234 64.944267 
L 292.086653 64.762689 
L 296.349165 64.842799 
L 300.611677 65.165931 
L 305.787584 65.757278 
L 315.530468 66.955293 
L 322.533166 67.578374 
L 332.479026 68.518355 
L 337.553445 69.265942 
L 345.165073 70.669593 
L 351.355864 71.694595 
L 355.313911 72.16368 
L 360.083864 72.54991 
L 365.36126 72.782835 
L 371.146097 72.832007 
L 373.581818 72.801356 
L 373.581818 72.801356 
" style="fill:none;stroke:#40b5c4;stroke-dasharray:5.55,2.4;stroke-dashoffset:0;stroke-width:1.5;"/>
    <defs>
     <path d="M 0 3 
C 0.795609 3 1.55874 2.683901 2.12132 2.12132 
C 2.683901 1.55874 3 0.795609 3 0 
C 3 -0.795609 2.683901 -1.55874 2.12132 -2.12132 
C 1.55874 -2.683901 0.795609 -3 0 -3 
C -0.795609 -3 -1.55874 -2.683901 -2.12132 -2.12132 
C -2.683901 -1.55874 -3 -0.795609 -3 0 
C -3 0.795609 -2.683901 1.55874 -2.12132 2.12132 
C -1.55874 2.683901 -0.795609 3 0 3 
z
" id="mbef852aacf" style="stroke:#40b5c4;"/>
    </defs>
    <g clip-path="url(#p187579a08f)">
     <use style="fill:#40b5c4;stroke:#40b5c4;" x="69.218182" xlink:href="#mbef852aacf" y="67.040951"/>
     <use style="fill:#40b5c4;stroke:#40b5c4;" x="77.337252" xlink:href="#mbef852aacf" y="70.316988"/>
     <use style="fill:#40b5c4;stroke:#40b5c4;" x="85.456322" xlink:href="#mbef852aacf" y="98.79262"/>
     <use style="fill:#40b5c4;stroke:#40b5c4;" x="93.575392" xlink:href="#mbef852aacf" y="133.474155"/>
     <use style="fill:#40b5c4;stroke:#40b5c4;" x="101.694462" xlink:href="#mbef852aacf" y="153.933436"/>
     <use style="fill:#40b5c4;stroke:#40b5c4;" x="109.813532" xlink:href="#mbef852aacf" y="156.655432"/>
     <use style="fill:#40b5c4;stroke:#40b5c4;" x="117.932602" xlink:href="#mbef852aacf" y="151.537536"/>
     <use style="fill:#40b5c4;stroke:#40b5c4;" x="126.051672" xlink:href="#mbef852aacf" y="147.138843"/>
     <use style="fill:#40b5c4;stroke:#40b5c4;" x="134.170742" xlink:href="#mbef852aacf" y="146.195707"/>
     <use style="fill:#40b5c4;stroke:#40b5c4;" x="142.289812" xlink:href="#mbef852aacf" y="149.915751"/>
     <use style="fill:#40b5c4;stroke:#40b5c4;" x="150.408882" xlink:href="#mbef852aacf" y="161.409685"/>
     <use style="fill:#40b5c4;stroke:#40b5c4;" x="158.527952" xlink:href="#mbef852aacf" y="187.059751"/>
     <use style="fill:#40b5c4;stroke:#40b5c4;" x="166.647022" xlink:href="#mbef852aacf" y="222.652754"/>
     <use style="fill:#40b5c4;stroke:#40b5c4;" x="174.766092" xlink:href="#mbef852aacf" y="233.290062"/>
     <use style="fill:#40b5c4;stroke:#40b5c4;" x="182.885162" xlink:href="#mbef852aacf" y="158.371367"/>
     <use style="fill:#40b5c4;stroke:#40b5c4;" x="191.004232" xlink:href="#mbef852aacf" y="115.480467"/>
     <use style="fill:#40b5c4;stroke:#40b5c4;" x="199.123302" xlink:href="#mbef852aacf" y="95.903567"/>
     <use style="fill:#40b5c4;stroke:#40b5c4;" x="207.242372" xlink:href="#mbef852aacf" y="85.968887"/>
     <use style="fill:#40b5c4;stroke:#40b5c4;" x="215.361442" xlink:href="#mbef852aacf" y="80.321486"/>
     <use style="fill:#40b5c4;stroke:#40b5c4;" x="223.480512" xlink:href="#mbef852aacf" y="77.06875"/>
     <use style="fill:#40b5c4;stroke:#40b5c4;" x="231.599582" xlink:href="#mbef852aacf" y="75.068957"/>
     <use style="fill:#40b5c4;stroke:#40b5c4;" x="239.718652" xlink:href="#mbef852aacf" y="72.93633"/>
     <use style="fill:#40b5c4;stroke:#40b5c4;" x="247.837722" xlink:href="#mbef852aacf" y="70.782287"/>
     <use style="fill:#40b5c4;stroke:#40b5c4;" x="255.956792" xlink:href="#mbef852aacf" y="68.695123"/>
     <use style="fill:#40b5c4;stroke:#40b5c4;" x="264.075862" xlink:href="#mbef852aacf" y="67.363413"/>
     <use style="fill:#40b5c4;stroke:#40b5c4;" x="272.194932" xlink:href="#mbef852aacf" y="66.487449"/>
     <use style="fill:#40b5c4;stroke:#40b5c4;" x="280.314002" xlink:href="#mbef852aacf" y="65.555418"/>
     <use style="fill:#40b5c4;stroke:#40b5c4;" x="288.433072" xlink:href="#mbef852aacf" y="64.873907"/>
     <use style="fill:#40b5c4;stroke:#40b5c4;" x="296.552142" xlink:href="#mbef852aacf" y="64.853351"/>
     <use style="fill:#40b5c4;stroke:#40b5c4;" x="304.671212" xlink:href="#mbef852aacf" y="65.613246"/>
     <use style="fill:#40b5c4;stroke:#40b5c4;" x="312.790282" xlink:href="#mbef852aacf" y="66.653167"/>
     <use style="fill:#40b5c4;stroke:#40b5c4;" x="320.909352" xlink:href="#mbef852aacf" y="67.452544"/>
     <use style="fill:#40b5c4;stroke:#40b5c4;" x="329.028422" xlink:href="#mbef852aacf" y="68.134196"/>
     <use style="fill:#40b5c4;stroke:#40b5c4;" x="337.147492" xlink:href="#mbef852aacf" y="69.198779"/>
     <use style="fill:#40b5c4;stroke:#40b5c4;" x="345.266562" xlink:href="#mbef852aacf" y="70.688195"/>
     <use style="fill:#40b5c4;stroke:#40b5c4;" x="353.385632" xlink:href="#mbef852aacf" y="71.960682"/>
     <use style="fill:#40b5c4;stroke:#40b5c4;" x="361.504702" xlink:href="#mbef852aacf" y="72.635954"/>
     <use style="fill:#40b5c4;stroke:#40b5c4;" x="369.623772" xlink:href="#mbef852aacf" y="72.836885"/>
    </g>
   </g>
   <g id="line2d_16">
    <path clip-path="url(#p187579a08f)" d="M 69.218182 80.472534 
L 69.31967 80.496737 
L 69.421159 80.283227 
L 69.725624 80.753437 
L 69.827112 80.352398 
L 69.9286 80.737236 
L 70.131577 80.524917 
L 70.233066 80.915899 
L 70.334554 80.413876 
L 70.537531 80.826291 
L 70.639019 80.650023 
L 70.740507 80.991443 
L 70.841996 80.602236 
L 70.943484 80.914188 
L 71.044973 80.867754 
L 71.146461 80.649274 
L 71.247949 81.125302 
L 71.349438 80.594234 
L 71.552414 81.002297 
L 71.653903 80.820619 
L 71.755391 81.148478 
L 71.85688 80.739225 
L 72.059856 81.039213 
L 72.161345 80.86381 
L 72.262833 81.126442 
L 72.364321 80.767812 
L 72.46581 81.12742 
L 72.567298 81.077792 
L 72.668787 80.801224 
L 72.770275 81.122417 
L 72.871763 80.862669 
L 73.07474 81.176805 
L 73.176228 80.77645 
L 73.277717 81.129686 
L 73.480694 80.855546 
L 73.582182 81.068958 
L 73.68367 80.718852 
L 73.785159 81.040941 
L 73.886647 80.701983 
L 74.089624 81.129881 
L 74.191112 80.529431 
L 74.292601 80.834684 
L 74.495577 80.674422 
L 74.597066 80.836428 
L 74.698554 80.43019 
L 74.800042 80.738149 
L 75.003019 80.451688 
L 75.104508 80.678627 
L 75.205996 80.212623 
L 75.307484 80.528682 
L 75.408973 80.48034 
L 75.510461 80.258372 
L 75.611949 80.613091 
L 75.713438 80.038393 
L 75.814926 80.373798 
L 76.017903 80.108965 
L 76.119391 80.592131 
L 76.22088 80.004052 
L 76.423856 80.334633 
L 76.525345 80.185567 
L 76.626833 80.488522 
L 76.728322 80.118532 
L 76.82981 80.54009 
L 77.032787 80.268852 
L 77.134275 80.751383 
L 77.235763 80.39466 
L 77.43874 80.824384 
L 77.540229 80.689547 
L 77.641717 80.891468 
L 77.743205 80.647481 
L 77.946182 81.106575 
L 78.04767 80.780671 
L 78.149159 81.261361 
L 78.250647 80.922191 
L 78.453624 81.483182 
L 78.555112 81.261556 
L 78.656601 81.516464 
L 78.758089 81.292963 
L 78.961066 81.806298 
L 79.062554 81.390835 
L 79.164043 81.948323 
L 79.367019 81.754502 
L 79.468508 82.111209 
L 79.569996 81.783155 
L 79.671484 82.357592 
L 79.772973 82.074799 
L 79.97595 82.594474 
L 80.077438 82.378014 
L 80.381903 83.054937 
L 80.483391 83.118778 
L 80.58488 82.964692 
L 80.787857 83.593583 
L 80.889345 83.632243 
L 80.990833 84.156042 
L 81.092322 83.765189 
L 81.295298 84.439765 
L 81.396787 84.378352 
L 81.498275 84.910691 
L 81.599764 84.565458 
L 81.80274 85.148648 
L 81.904229 85.296263 
L 82.005717 85.936888 
L 82.107205 85.554462 
L 82.310182 86.084438 
L 82.411671 86.157569 
L 82.513159 86.635732 
L 82.614647 86.455895 
L 82.716136 87.041058 
L 82.817624 86.963233 
L 82.919112 87.027823 
L 83.020601 87.678667 
L 83.122089 87.397846 
L 83.426554 88.342795 
L 84.441438 91.917723 
L 84.94888 93.685189 
L 85.253345 94.805966 
L 87.790554 104.82979 
L 87.892043 104.972173 
L 88.297996 106.773963 
L 88.70395 108.042828 
L 89.414368 110.747616 
L 89.617345 111.357666 
L 90.327764 113.941666 
L 93.981345 126.700118 
L 94.082834 126.825502 
L 94.894741 129.547762 
L 95.909624 132.63879 
L 96.518555 134.531965 
L 97.228973 136.599583 
L 97.43195 137.26081 
L 97.736415 138.065707 
L 98.649811 140.551196 
L 99.258741 141.881147 
L 99.664694 142.943527 
L 100.273625 144.295546 
L 100.57809 144.433643 
L 100.882555 144.523626 
L 101.694462 144.790627 
L 103.115299 145.215983 
L 103.825718 145.421734 
L 109.91502 146.985845 
L 111.132881 145.261733 
L 111.843299 144.705305 
L 112.147764 144.436544 
L 112.45223 144.178034 
L 112.959671 143.816976 
L 113.365625 143.421119 
L 113.873067 143.053883 
L 114.380509 142.599337 
L 114.684974 142.460491 
L 115.192416 141.981953 
L 115.293904 141.959885 
L 115.598369 141.691042 
L 115.801346 141.557591 
L 118.03409 139.869368 
L 118.338555 139.616954 
L 118.541532 139.438845 
L 119.353439 138.926325 
L 120.063858 138.32024 
L 120.5713 138.020838 
L 120.875765 137.745362 
L 120.977253 137.732796 
L 121.18023 137.533776 
L 121.586183 137.271453 
L 121.890648 137.028965 
L 121.992137 137.011525 
L 122.195114 136.833726 
L 123.920416 135.690392 
L 124.021904 135.720202 
L 124.224881 135.545483 
L 125.341253 135.021977 
L 125.54423 135.112499 
L 125.848695 135.117763 
L 126.254649 135.175003 
L 126.965067 135.329202 
L 128.487393 135.496245 
L 130.720137 131.529454 
L 133.05437 127.329987 
L 134.576695 125.049414 
L 135.287114 124.045692 
L 135.997533 123.233134 
L 136.403486 122.817981 
L 137.722835 121.755422 
L 138.230277 121.500449 
L 138.940695 121.335298 
L 139.143672 121.546509 
L 139.752602 122.126847 
L 139.955579 122.723841 
L 142.3913 129.607658 
L 146.349347 138.836932 
L 147.465719 139.23619 
L 147.567207 139.17261 
L 148.379114 139.794281 
L 148.480603 139.840128 
L 148.683579 140.168118 
L 148.988044 140.376232 
L 149.191021 140.624522 
L 149.29251 140.566728 
L 149.596975 141.105978 
L 149.90144 141.248622 
L 150.611858 142.052574 
L 151.220789 142.563415 
L 151.728231 143.265372 
L 151.829719 143.265225 
L 153.352045 145.713623 
L 153.960975 146.828907 
L 154.062463 146.868366 
L 154.772882 148.305381 
L 155.077347 148.783186 
L 155.4833 149.663781 
L 157.107114 152.931916 
L 157.41158 153.61354 
L 157.513068 153.646064 
L 157.716045 154.202215 
L 158.02051 154.862407 
L 158.324975 155.606193 
L 158.426463 155.670588 
L 158.933905 156.982122 
L 159.339859 157.793669 
L 159.542835 158.115539 
L 159.644324 158.438655 
L 159.745812 158.298285 
L 160.050277 159.188993 
L 160.253254 159.349614 
L 160.862184 161.466861 
L 161.166649 162.621938 
L 161.268138 162.696845 
L 161.572603 163.837482 
L 161.77558 164.520964 
L 161.978556 165.307331 
L 162.99344 168.917545 
L 163.500882 170.686257 
L 164.515766 174.633132 
L 165.327673 178.588269 
L 166.13958 182.530441 
L 166.241068 182.770085 
L 166.647022 184.649318 
L 166.951487 185.802113 
L 167.458929 187.833149 
L 168.169347 188.952377 
L 168.270836 189.011573 
L 168.372324 189.231692 
L 168.575301 189.228839 
L 168.879766 189.456488 
L 169.184231 189.507005 
L 169.387208 189.56127 
L 169.996138 189.468809 
L 170.199115 189.493404 
L 170.605068 189.300316 
L 170.808045 189.165194 
L 171.315487 188.914158 
L 172.533347 187.929758 
L 172.634836 187.812621 
L 172.837813 186.794043 
L 175.47651 168.54176 
L 177.303301 153.939199 
L 178.419673 144.120085 
L 179.536045 134.542282 
L 180.246464 128.44814 
L 181.971766 114.690481 
L 182.682185 110.474242 
L 184.813441 98.270603 
L 186.335766 91.452648 
L 187.95958 84.868511 
L 188.061069 84.803138 
L 188.568511 83.99278 
L 189.684883 82.587726 
L 189.786371 82.547681 
L 190.090836 82.014397 
L 190.293813 81.800561 
L 190.598278 81.450455 
L 191.410185 80.448118 
L 191.511674 80.442186 
L 191.816139 79.95439 
L 191.917627 79.953461 
L 192.729534 78.943351 
L 192.831022 78.907787 
L 193.338464 78.3186 
L 193.439953 78.2736 
L 193.744418 77.914611 
L 194.25186 77.465801 
L 194.454836 77.288735 
L 194.556325 77.209688 
L 194.759302 76.964429 
L 194.86079 76.894329 
L 194.962278 76.972432 
L 195.165255 76.664196 
L 195.368232 76.509019 
L 196.07865 76.06844 
L 196.890557 75.421213 
L 196.992046 75.483995 
L 197.296511 75.143292 
L 198.108418 74.635124 
L 198.717348 74.192866 
L 199.529255 73.667552 
L 200.138185 73.316239 
L 200.442651 73.09758 
L 204.299209 70.843166 
L 204.603674 70.68028 
L 205.111116 70.43714 
L 207.95279 68.833538 
L 208.054279 68.862011 
L 208.460232 68.54623 
L 208.663209 68.507423 
L 208.866186 68.326641 
L 209.272139 68.164863 
L 209.576604 67.995522 
L 209.678093 67.999711 
L 209.881069 67.846473 
L 209.982558 67.769822 
L 210.084046 67.84235 
L 210.388511 67.51661 
L 210.692976 67.478455 
L 210.895953 67.322658 
L 214.651023 65.429711 
L 214.752511 65.508351 
L 215.056977 65.23607 
L 215.158465 65.27825 
L 215.46293 65.124686 
L 215.767395 65.071733 
L 216.173349 64.883144 
L 218.812046 63.839572 
L 219.015023 63.735588 
L 219.218 63.704931 
L 219.522465 63.541507 
L 221.044791 62.912062 
L 221.146279 62.949792 
L 221.349256 62.759818 
L 221.552233 62.608944 
L 221.755209 62.575271 
L 222.059674 62.386063 
L 222.161163 62.443906 
L 222.567116 62.201141 
L 223.379023 61.772199 
L 223.480512 61.841076 
L 223.683488 61.659675 
L 224.393907 61.257104 
L 224.495395 61.326323 
L 224.799861 61.014502 
L 224.901349 61.083998 
L 225.205814 60.850523 
L 225.713256 60.613463 
L 226.220698 60.292335 
L 226.423675 60.25273 
L 226.72814 60.065298 
L 226.829628 60.076951 
L 227.134093 59.821881 
L 227.438558 59.689897 
L 227.540047 59.500297 
L 227.641535 59.586776 
L 227.743023 59.438428 
L 227.844512 59.527744 
L 228.148977 59.21659 
L 228.757907 58.944782 
L 229.163861 58.668849 
L 229.671303 58.368959 
L 229.874279 58.250273 
L 230.381721 57.984283 
L 230.584698 57.805913 
L 231.396605 57.377901 
L 231.599582 57.205512 
L 231.802558 57.200313 
L 232.107024 56.878713 
L 232.31 56.802648 
L 233.426372 55.846648 
L 234.035303 55.238358 
L 235.354652 54.011315 
L 235.557628 53.761493 
L 236.674 52.877824 
L 236.876977 52.825751 
L 237.993349 52.574266 
L 238.60228 52.242381 
L 238.703768 52.291277 
L 239.008233 52.104725 
L 239.312698 52.060882 
L 239.617163 52.035701 
L 241.240977 51.756102 
L 241.443954 51.654807 
L 243.270745 51.365706 
L 243.473722 51.319157 
L 243.676698 51.325237 
L 243.981163 51.218531 
L 244.18414 51.214326 
L 244.387117 51.145384 
L 251.389815 49.500841 
L 251.491303 49.595877 
L 251.795768 49.423945 
L 252.30321 49.331239 
L 252.404699 49.286973 
L 252.506187 49.372588 
L 252.810652 49.187878 
L 253.622559 49.044224 
L 253.825536 48.952985 
L 254.231489 48.853141 
L 254.332978 48.807669 
L 254.434466 48.886732 
L 254.84042 48.683654 
L 255.652327 48.632689 
L 255.855303 48.551343 
L 256.05828 48.536121 
L 257.276141 48.32711 
L 257.377629 48.540228 
L 257.580606 48.360733 
L 258.189536 48.26102 
L 258.392513 48.28136 
L 258.696978 48.186096 
L 258.899955 48.19079 
L 259.20442 48.144877 
L 259.610373 48.07719 
L 264.78628 47.270337 
L 264.989257 47.204556 
L 266.613071 46.975987 
L 266.714559 46.995415 
L 266.816048 46.842307 
L 267.120513 46.983843 
L 267.424978 46.829627 
L 267.729443 46.806842 
L 267.830932 46.773561 
L 267.93242 46.923441 
L 268.135397 46.786665 
L 268.642839 46.677791 
L 268.744327 46.813492 
L 268.947304 46.678215 
L 270.571118 46.514579 
L 270.875583 46.464738 
L 271.07856 46.442083 
L 271.180048 46.463858 
L 271.383025 46.378324 
L 271.788978 46.388788 
L 271.991955 46.308208 
L 272.499397 46.305763 
L 272.600885 46.189816 
L 272.803862 46.229259 
L 273.108327 46.210092 
L 273.209815 46.237571 
L 273.412792 46.152461 
L 273.818746 46.150896 
L 273.920234 46.004145 
L 274.224699 46.13789 
L 274.529164 45.987944 
L 276.05149 45.829426 
L 276.152978 45.943026 
L 276.355955 45.826068 
L 276.558932 45.770295 
L 277.776792 45.647275 
L 277.979769 45.583972 
L 278.081257 45.642483 
L 278.284234 45.5591 
L 279.19763 45.441882 
L 279.299118 45.402961 
L 279.502095 45.478488 
L 279.80656 45.337051 
L 280.009537 45.412382 
L 280.212513 45.329651 
L 280.41549 45.367692 
L 280.719955 45.288579 
L 281.227397 45.2434 
L 281.328885 45.308691 
L 281.531862 45.206533 
L 282.140792 45.16018 
L 282.851211 45.120705 
L 282.952699 44.982527 
L 283.257165 45.142056 
L 283.460141 45.04394 
L 283.663118 44.988753 
L 284.373537 44.962904 
L 284.576513 44.936664 
L 284.678002 44.879163 
L 284.77949 44.962806 
L 284.880979 44.813448 
L 285.185444 44.952603 
L 285.38842 44.84197 
L 286.301816 44.821988 
L 286.504793 44.772962 
L 287.519676 44.696523 
L 287.621165 44.766182 
L 287.824141 44.67289 
L 287.92563 44.645802 
L 288.027118 44.808819 
L 288.230095 44.720677 
L 288.433072 44.639348 
L 288.636048 44.645639 
L 288.839025 44.636218 
L 288.940514 44.741897 
L 289.244979 44.588855 
L 289.549444 44.640456 
L 289.752421 44.574773 
L 289.955397 44.654896 
L 290.259862 44.602285 
L 290.665816 44.564179 
L 293.304514 44.581358 
L 293.50749 44.504592 
L 294.116421 44.542535 
L 294.522374 44.523238 
L 294.725351 44.586117 
L 295.029816 44.521575 
L 295.232793 44.571188 
L 295.334281 44.443636 
L 295.638746 44.635306 
L 295.841723 44.553781 
L 298.987863 44.737497 
L 299.089351 44.643879 
L 299.190839 44.763248 
L 299.292328 44.702879 
L 299.495304 44.773353 
L 299.79977 44.776418 
L 299.901258 44.819217 
L 300.104235 44.761064 
L 300.307211 44.932948 
L 300.510188 44.819641 
L 301.119118 44.862669 
L 301.220607 44.988949 
L 301.525072 44.931024 
L 303.960793 45.339072 
L 304.062281 45.457724 
L 304.265258 45.401299 
L 304.366746 45.34709 
L 304.569723 45.440871 
L 304.7727 45.424084 
L 305.077165 45.524254 
L 307.614374 45.966528 
L 307.715863 45.950751 
L 307.817351 46.067578 
L 307.91884 45.96454 
L 308.324793 46.076868 
L 309.035212 46.235126 
L 309.1367 46.333699 
L 309.238188 46.232877 
L 309.339677 46.315836 
L 309.441165 46.24735 
L 309.644142 46.343511 
L 309.74563 46.290639 
L 310.050095 46.461348 
L 310.354561 46.419787 
L 310.557537 46.478722 
L 310.862002 46.510732 
L 311.064979 46.597016 
L 311.775398 46.652398 
L 311.978375 46.738747 
L 312.688793 46.806158 
L 312.89177 46.896353 
L 313.196235 46.883771 
L 314.008142 47.068432 
L 314.10963 46.997892 
L 314.312607 47.11335 
L 314.515584 47.078439 
L 314.820049 47.166842 
L 315.023026 47.183075 
L 315.226003 47.244096 
L 315.327491 47.150348 
L 315.631956 47.381524 
L 315.834933 47.281811 
L 316.342375 47.400952 
L 316.443863 47.363368 
L 316.545351 47.53662 
L 316.748328 47.488833 
L 316.951305 47.449228 
L 317.052793 47.568989 
L 317.25577 47.517225 
L 317.458747 47.687772 
L 317.560235 47.578409 
L 317.661724 47.653349 
L 317.763212 47.565436 
L 317.966189 47.700256 
L 318.270654 47.707525 
L 318.372142 47.852092 
L 318.473631 47.754465 
L 318.575119 47.8237 
L 318.778096 47.768579 
L 318.981072 47.835175 
L 320.097445 48.020977 
L 320.300421 48.106706 
L 320.604886 48.097253 
L 320.807863 48.182429 
L 321.01084 48.181223 
L 321.213817 48.268452 
L 321.518282 48.311284 
L 321.924235 48.374098 
L 322.533166 48.465695 
L 323.852514 48.747886 
L 323.954003 48.694036 
L 324.258468 48.897962 
L 324.562933 48.859074 
L 324.968887 48.98555 
L 325.171863 48.993373 
L 325.679305 49.115807 
L 325.882282 49.143058 
L 326.186747 49.179403 
L 326.288235 49.263927 
L 326.389724 49.14234 
L 326.592701 49.304184 
L 326.897166 49.318331 
L 327.201631 49.426976 
L 327.303119 49.350211 
L 327.607584 49.568707 
L 327.810561 49.437863 
L 327.912049 49.659815 
L 328.013538 49.52858 
L 328.115026 49.613984 
L 328.318003 49.607171 
L 328.825445 49.836164 
L 329.028422 49.784694 
L 329.231398 49.793462 
L 329.535863 49.860351 
L 329.637352 49.870358 
L 329.73884 50.02917 
L 329.941817 49.911561 
L 330.144794 49.988685 
L 330.855212 50.169076 
L 331.261166 50.177355 
L 331.565631 50.362734 
L 331.870096 50.324758 
L 332.073073 50.463034 
L 332.174561 50.359409 
L 332.479026 50.583153 
L 332.88498 50.589216 
L 332.986468 50.665786 
L 333.189445 50.625627 
L 333.49391 50.715073 
L 333.899864 50.842592 
L 334.10284 50.852892 
L 334.407305 50.964373 
L 334.508794 50.912544 
L 334.711771 51.026796 
L 335.117724 51.097075 
L 335.320701 51.195778 
L 335.523678 51.2081 
L 335.726654 51.259799 
L 335.828143 51.222606 
L 336.031119 51.330827 
L 336.234096 51.40919 
L 336.335585 51.351982 
L 336.64005 51.503786 
L 336.944515 51.576542 
L 337.451957 51.743927 
L 337.85791 51.797353 
L 337.959399 51.87125 
L 338.060887 51.795039 
L 338.365352 51.983514 
L 338.669817 51.993651 
L 340.293631 52.477551 
L 340.598096 52.544277 
L 340.902561 52.625671 
L 341.105538 52.771249 
L 341.410003 52.790807 
L 341.61298 52.846156 
L 341.815957 52.924258 
L 341.917445 53.063382 
L 342.22191 53.005979 
L 342.830841 53.380353 
L 342.932329 53.250129 
L 343.135306 53.322135 
L 345.165073 54.015602 
L 345.266562 53.933425 
L 345.571027 54.174446 
L 345.97698 54.210335 
L 346.078469 54.318231 
L 346.179957 54.237554 
L 346.58591 54.421465 
L 349.529073 55.35807 
L 349.630562 55.347802 
L 349.833538 55.43715 
L 349.935027 55.446538 
L 350.036515 55.655223 
L 350.239492 55.589996 
L 350.442469 55.664774 
L 351.152887 55.906088 
L 351.254376 55.791901 
L 351.457352 55.98005 
L 351.558841 55.889072 
L 351.863306 56.150988 
L 352.066283 56.123574 
L 353.893073 56.640169 
L 354.400515 56.806739 
L 354.502004 56.869227 
L 354.603492 56.787865 
L 354.806469 56.862773 
L 355.009446 56.871672 
L 355.212422 56.859709 
L 355.313911 56.758984 
L 355.415399 57.000951 
L 355.719864 56.867858 
L 356.328794 57.025366 
L 356.531771 56.851918 
L 356.63326 56.977709 
L 356.937725 56.92588 
L 357.039213 56.995377 
L 357.140701 56.871737 
L 357.343678 57.150766 
L 357.546655 56.91747 
L 357.749632 57.120874 
L 357.85112 56.8999 
L 358.054097 57.149429 
L 358.155585 57.04098 
L 358.358562 57.289824 
L 358.561539 57.012262 
L 358.663027 57.288618 
L 358.866004 57.040686 
L 359.068981 57.204648 
L 359.271957 57.251816 
L 359.373446 57.470899 
L 359.576422 57.128078 
L 359.677911 57.39785 
L 359.880888 57.313848 
L 360.185353 57.305992 
L 360.388329 57.404076 
L 360.692795 57.366524 
L 360.794283 57.469791 
L 360.895771 57.365155 
L 360.99726 57.485666 
L 361.098748 57.406814 
L 361.403213 57.498346 
L 364.955306 58.185324 
L 365.056795 58.090761 
L 365.462748 58.286081 
L 365.564237 58.159312 
L 365.767213 58.277443 
L 365.868702 58.25782 
L 365.97019 58.371289 
L 366.071678 58.196244 
L 366.274655 58.278486 
L 366.376144 58.374386 
L 366.477632 58.290645 
L 366.782097 58.387294 
L 367.188051 58.360826 
L 367.796981 58.488149 
L 368.202934 58.509728 
L 368.405911 58.550376 
L 368.608888 58.50021 
L 368.913353 58.550246 
L 369.014841 58.392314 
L 369.11633 58.640148 
L 369.319306 58.600575 
L 370.029725 58.548192 
L 370.232702 58.7072 
L 370.435679 58.663292 
L 371.146097 58.686892 
L 371.247586 58.832013 
L 371.349074 58.649731 
L 371.552051 58.753226 
L 371.653539 58.67369 
L 371.755027 58.892773 
L 371.958004 58.707167 
L 372.160981 58.819463 
L 372.262469 58.875399 
L 372.363958 58.672223 
L 372.566934 58.915461 
L 372.668423 58.779206 
L 372.769911 58.889383 
L 372.8714 58.751531 
L 373.175865 58.877714 
L 373.48033 58.840195 
L 373.581818 58.928108 
L 373.581818 58.928108 
" style="fill:none;stroke:#081d58;stroke-dasharray:5.55,2.4;stroke-dashoffset:0;stroke-width:1.5;"/>
    <defs>
     <path d="M -0 4.242641 
L 4.242641 0 
L 0 -4.242641 
L -4.242641 -0 
z
" id="mf11e941b98" style="stroke:#081d58;stroke-linejoin:miter;"/>
    </defs>
    <g clip-path="url(#p187579a08f)">
     <use style="fill:#081d58;stroke:#081d58;stroke-linejoin:miter;" x="69.218182" xlink:href="#mf11e941b98" y="80.472534"/>
     <use style="fill:#081d58;stroke:#081d58;stroke-linejoin:miter;" x="77.337252" xlink:href="#mf11e941b98" y="80.839281"/>
     <use style="fill:#081d58;stroke:#081d58;stroke-linejoin:miter;" x="85.456322" xlink:href="#mf11e941b98" y="95.753817"/>
     <use style="fill:#081d58;stroke:#081d58;stroke-linejoin:miter;" x="93.575392" xlink:href="#mf11e941b98" y="125.28755"/>
     <use style="fill:#081d58;stroke:#081d58;stroke-linejoin:miter;" x="101.694462" xlink:href="#mf11e941b98" y="144.790627"/>
     <use style="fill:#081d58;stroke:#081d58;stroke-linejoin:miter;" x="109.813532" xlink:href="#mf11e941b98" y="146.978934"/>
     <use style="fill:#081d58;stroke:#081d58;stroke-linejoin:miter;" x="117.932602" xlink:href="#mf11e941b98" y="139.924408"/>
     <use style="fill:#081d58;stroke:#081d58;stroke-linejoin:miter;" x="126.051672" xlink:href="#mf11e941b98" y="135.161508"/>
     <use style="fill:#081d58;stroke:#081d58;stroke-linejoin:miter;" x="134.170742" xlink:href="#mf11e941b98" y="125.644306"/>
     <use style="fill:#081d58;stroke:#081d58;stroke-linejoin:miter;" x="142.289812" xlink:href="#mf11e941b98" y="129.386407"/>
     <use style="fill:#081d58;stroke:#081d58;stroke-linejoin:miter;" x="150.408882" xlink:href="#mf11e941b98" y="141.792516"/>
     <use style="fill:#081d58;stroke:#081d58;stroke-linejoin:miter;" x="158.527952" xlink:href="#mf11e941b98" y="156.001617"/>
     <use style="fill:#081d58;stroke:#081d58;stroke-linejoin:miter;" x="166.647022" xlink:href="#mf11e941b98" y="184.649318"/>
     <use style="fill:#081d58;stroke:#081d58;stroke-linejoin:miter;" x="174.766092" xlink:href="#mf11e941b98" y="173.662007"/>
     <use style="fill:#081d58;stroke:#081d58;stroke-linejoin:miter;" x="182.885162" xlink:href="#mf11e941b98" y="109.329376"/>
     <use style="fill:#081d58;stroke:#081d58;stroke-linejoin:miter;" x="191.004232" xlink:href="#mf11e941b98" y="80.919534"/>
     <use style="fill:#081d58;stroke:#081d58;stroke-linejoin:miter;" x="199.123302" xlink:href="#mf11e941b98" y="73.905101"/>
     <use style="fill:#081d58;stroke:#081d58;stroke-linejoin:miter;" x="207.242372" xlink:href="#mf11e941b98" y="69.246833"/>
     <use style="fill:#081d58;stroke:#081d58;stroke-linejoin:miter;" x="215.361442" xlink:href="#mf11e941b98" y="65.192422"/>
     <use style="fill:#081d58;stroke:#081d58;stroke-linejoin:miter;" x="223.480512" xlink:href="#mf11e941b98" y="61.841076"/>
     <use style="fill:#081d58;stroke:#081d58;stroke-linejoin:miter;" x="231.599582" xlink:href="#mf11e941b98" y="57.205512"/>
     <use style="fill:#081d58;stroke:#081d58;stroke-linejoin:miter;" x="239.718652" xlink:href="#mf11e941b98" y="52.019533"/>
     <use style="fill:#081d58;stroke:#081d58;stroke-linejoin:miter;" x="247.837722" xlink:href="#mf11e941b98" y="50.283996"/>
     <use style="fill:#081d58;stroke:#081d58;stroke-linejoin:miter;" x="255.956792" xlink:href="#mf11e941b98" y="48.586613"/>
     <use style="fill:#081d58;stroke:#081d58;stroke-linejoin:miter;" x="264.075862" xlink:href="#mf11e941b98" y="47.321416"/>
     <use style="fill:#081d58;stroke:#081d58;stroke-linejoin:miter;" x="272.194932" xlink:href="#mf11e941b98" y="46.241157"/>
     <use style="fill:#081d58;stroke:#081d58;stroke-linejoin:miter;" x="280.314002" xlink:href="#mf11e941b98" y="45.378416"/>
     <use style="fill:#081d58;stroke:#081d58;stroke-linejoin:miter;" x="288.433072" xlink:href="#mf11e941b98" y="44.639348"/>
     <use style="fill:#081d58;stroke:#081d58;stroke-linejoin:miter;" x="296.552142" xlink:href="#mf11e941b98" y="44.675074"/>
     <use style="fill:#081d58;stroke:#081d58;stroke-linejoin:miter;" x="304.671212" xlink:href="#mf11e941b98" y="45.39817"/>
     <use style="fill:#081d58;stroke:#081d58;stroke-linejoin:miter;" x="312.790282" xlink:href="#mf11e941b98" y="46.892996"/>
     <use style="fill:#081d58;stroke:#081d58;stroke-linejoin:miter;" x="320.909352" xlink:href="#mf11e941b98" y="48.14253"/>
     <use style="fill:#081d58;stroke:#081d58;stroke-linejoin:miter;" x="329.028422" xlink:href="#mf11e941b98" y="49.784694"/>
     <use style="fill:#081d58;stroke:#081d58;stroke-linejoin:miter;" x="337.147492" xlink:href="#mf11e941b98" y="51.557929"/>
     <use style="fill:#081d58;stroke:#081d58;stroke-linejoin:miter;" x="345.266562" xlink:href="#mf11e941b98" y="53.933425"/>
     <use style="fill:#081d58;stroke:#081d58;stroke-linejoin:miter;" x="353.385632" xlink:href="#mf11e941b98" y="56.473664"/>
     <use style="fill:#081d58;stroke:#081d58;stroke-linejoin:miter;" x="361.504702" xlink:href="#mf11e941b98" y="57.519892"/>
     <use style="fill:#081d58;stroke:#081d58;stroke-linejoin:miter;" x="369.623772" xlink:href="#mf11e941b98" y="58.657815"/>
    </g>
   </g>
   <g id="patch_3">
    <path d="M 54 252 
L 54 34.56 
" style="fill:none;stroke:#000000;stroke-linecap:square;stroke-linejoin:miter;stroke-width:0.8;"/>
   </g>
   <g id="patch_4">
    <path d="M 388.8 252 
L 388.8 34.56 
" style="fill:none;stroke:#000000;stroke-linecap:square;stroke-linejoin:miter;stroke-width:0.8;"/>
   </g>
   <g id="patch_5">
    <path d="M 54 252 
L 388.8 252 
" style="fill:none;stroke:#000000;stroke-linecap:square;stroke-linejoin:miter;stroke-width:0.8;"/>
   </g>
   <g id="patch_6">
    <path d="M 54 34.56 
L 388.8 34.56 
" style="fill:none;stroke:#000000;stroke-linecap:square;stroke-linejoin:miter;stroke-width:0.8;"/>
   </g>
   <g id="legend_1">
    <g id="patch_7">
     <path d="M 61 247 
L 162.714063 247 
Q 164.714063 247 164.714063 245 
L 164.714063 216.64375 
Q 164.714063 214.64375 162.714063 214.64375 
L 61 214.64375 
Q 59 214.64375 59 216.64375 
L 59 245 
Q 59 247 61 247 
z
" style="fill:#ffffff;opacity:0.8;stroke:#cccccc;stroke-linejoin:miter;"/>
    </g>
    <g id="line2d_17">
     <path d="M 63 222.742188 
L 83 222.742188 
" style="fill:none;stroke:#40b5c4;stroke-dasharray:5.55,2.4;stroke-dashoffset:0;stroke-width:1.5;"/>
    </g>
    <g id="line2d_18">
     <g>
      <use style="fill:#40b5c4;stroke:#40b5c4;" x="73" xlink:href="#mbef852aacf" y="222.742188"/>
     </g>
    </g>
    <g id="text_17">
     <text style="font-family:DejaVu Sans;font-size:10px;font-style:normal;font-weight:normal;text-anchor:start;" transform="rotate(-0, 91, 226.242188)" x="91" y="226.242188">original</text>
    </g>
    <g id="line2d_19">
     <path d="M 63 237.420312 
L 83 237.420312 
" style="fill:none;stroke:#081d58;stroke-dasharray:5.55,2.4;stroke-dashoffset:0;stroke-width:1.5;"/>
    </g>
    <g id="line2d_20">
     <g>
      <use style="fill:#081d58;stroke:#081d58;stroke-linejoin:miter;" x="73" xlink:href="#mf11e941b98" y="237.420312"/>
     </g>
    </g>
    <g id="text_18">
     <text style="font-family:DejaVu Sans;font-size:10px;font-style:normal;font-weight:normal;text-anchor:start;" transform="rotate(-0, 91, 240.920312)" x="91" y="240.920312">reconstructed</text>
    </g>
   </g>
  </g>
  <g id="text_19">
   <text style="font-family:DejaVu Sans;font-size:12px;font-style:normal;font-weight:normal;text-anchor:middle;" transform="rotate(-0, 216, 14.878125)" x="216" y="14.878125">Reconstruction of the temperature curve</text>
  </g>
 </g>
 <defs>
  <clipPath id="p187579a08f">
   <rect height="217.44" width="334.8" x="54" y="34.56"/>
  </clipPath>
 </defs>
</svg>
