<?xml version="1.0" encoding="utf-8" standalone="no"?>
<!DOCTYPE svg PUBLIC "-//W3C//DTD SVG 1.1//EN"
  "http://www.w3.org/Graphics/SVG/1.1/DTD/svg11.dtd">
<!-- Created with matplotlib (https://matplotlib.org/) -->
<svg height="288pt" version="1.1" viewBox="0 0 432 288" width="432pt" xmlns="http://www.w3.org/2000/svg" xmlns:xlink="http://www.w3.org/1999/xlink">
 <defs>
  <style type="text/css">
*{stroke-linecap:butt;stroke-linejoin:round;}
  </style>
 </defs>
 <g id="figure_1">
  <g id="patch_1">
   <path d="M 0 288 
L 432 288 
L 432 0 
L 0 0 
z
" style="fill:#ffffff;"/>
  </g>
  <g id="axes_1">
   <g id="patch_2">
    <path d="M 54 252 
L 388.8 252 
L 388.8 34.56 
L 54 34.56 
z
" style="fill:#ffffff;"/>
   </g>
   <g id="matplotlib.axis_1">
    <g id="xtick_1">
     <g id="line2d_1">
      <defs>
       <path d="M 0 0 
L 0 3.5 
" id="m953642e10e" style="stroke:#000000;stroke-width:0.8;"/>
      </defs>
      <g>
       <use style="stroke:#000000;stroke-width:0.8;" x="69.218182" xlink:href="#m953642e10e" y="252"/>
      </g>
     </g>
     <g id="text_1">
      <text style="font-family:DejaVu Sans;font-size:10px;font-style:normal;font-weight:normal;text-anchor:middle;" transform="rotate(-0, 69.218182, 266.598437)" x="69.218182" y="266.598437">0</text>
     </g>
    </g>
    <g id="xtick_2">
     <g id="line2d_2">
      <g>
       <use style="stroke:#000000;stroke-width:0.8;" x="119.962369" xlink:href="#m953642e10e" y="252"/>
      </g>
     </g>
     <g id="text_2">
      <text style="font-family:DejaVu Sans;font-size:10px;font-style:normal;font-weight:normal;text-anchor:middle;" transform="rotate(-0, 119.962369, 266.598437)" x="119.962369" y="266.598437">500</text>
     </g>
    </g>
    <g id="xtick_3">
     <g id="line2d_3">
      <g>
       <use style="stroke:#000000;stroke-width:0.8;" x="170.706557" xlink:href="#m953642e10e" y="252"/>
      </g>
     </g>
     <g id="text_3">
      <text style="font-family:DejaVu Sans;font-size:10px;font-style:normal;font-weight:normal;text-anchor:middle;" transform="rotate(-0, 170.706557, 266.598437)" x="170.706557" y="266.598437">1000</text>
     </g>
    </g>
    <g id="xtick_4">
     <g id="line2d_4">
      <g>
       <use style="stroke:#000000;stroke-width:0.8;" x="221.450744" xlink:href="#m953642e10e" y="252"/>
      </g>
     </g>
     <g id="text_4">
      <text style="font-family:DejaVu Sans;font-size:10px;font-style:normal;font-weight:normal;text-anchor:middle;" transform="rotate(-0, 221.450744, 266.598437)" x="221.450744" y="266.598437">1500</text>
     </g>
    </g>
    <g id="xtick_5">
     <g id="line2d_5">
      <g>
       <use style="stroke:#000000;stroke-width:0.8;" x="272.194932" xlink:href="#m953642e10e" y="252"/>
      </g>
     </g>
     <g id="text_5">
      <text style="font-family:DejaVu Sans;font-size:10px;font-style:normal;font-weight:normal;text-anchor:middle;" transform="rotate(-0, 272.194932, 266.598437)" x="272.194932" y="266.598437">2000</text>
     </g>
    </g>
    <g id="xtick_6">
     <g id="line2d_6">
      <g>
       <use style="stroke:#000000;stroke-width:0.8;" x="322.939119" xlink:href="#m953642e10e" y="252"/>
      </g>
     </g>
     <g id="text_6">
      <text style="font-family:DejaVu Sans;font-size:10px;font-style:normal;font-weight:normal;text-anchor:middle;" transform="rotate(-0, 322.939119, 266.598437)" x="322.939119" y="266.598437">2500</text>
     </g>
    </g>
    <g id="xtick_7">
     <g id="line2d_7">
      <g>
       <use style="stroke:#000000;stroke-width:0.8;" x="373.683307" xlink:href="#m953642e10e" y="252"/>
      </g>
     </g>
     <g id="text_7">
      <text style="font-family:DejaVu Sans;font-size:10px;font-style:normal;font-weight:normal;text-anchor:middle;" transform="rotate(-0, 373.683307, 266.598437)" x="373.683307" y="266.598437">3000</text>
     </g>
    </g>
    <g id="text_8">
     <text style="font-family:DejaVu Sans;font-size:10px;font-style:normal;font-weight:normal;text-anchor:middle;" transform="rotate(-0, 221.4, 280.276563)" x="221.4" y="280.276563">Time</text>
    </g>
   </g>
   <g id="matplotlib.axis_2">
    <g id="ytick_1">
     <g id="line2d_8">
      <defs>
       <path d="M 0 0 
L -3.5 0 
" id="m42600aa5f2" style="stroke:#000000;stroke-width:0.8;"/>
      </defs>
      <g>
       <use style="stroke:#000000;stroke-width:0.8;" x="54" xlink:href="#m42600aa5f2" y="231.598035"/>
      </g>
     </g>
     <g id="text_9">
      <text style="font-family:DejaVu Sans;font-size:10px;font-style:normal;font-weight:normal;text-anchor:end;" transform="rotate(-0, 47, 235.397254)" x="47" y="235.397254">68</text>
     </g>
    </g>
    <g id="ytick_2">
     <g id="line2d_9">
      <g>
       <use style="stroke:#000000;stroke-width:0.8;" x="54" xlink:href="#m42600aa5f2" y="200.149345"/>
      </g>
     </g>
     <g id="text_10">
      <text style="font-family:DejaVu Sans;font-size:10px;font-style:normal;font-weight:normal;text-anchor:end;" transform="rotate(-0, 47, 203.948564)" x="47" y="203.948564">69</text>
     </g>
    </g>
    <g id="ytick_3">
     <g id="line2d_10">
      <g>
       <use style="stroke:#000000;stroke-width:0.8;" x="54" xlink:href="#m42600aa5f2" y="168.700655"/>
      </g>
     </g>
     <g id="text_11">
      <text style="font-family:DejaVu Sans;font-size:10px;font-style:normal;font-weight:normal;text-anchor:end;" transform="rotate(-0, 47, 172.499874)" x="47" y="172.499874">70</text>
     </g>
    </g>
    <g id="ytick_4">
     <g id="line2d_11">
      <g>
       <use style="stroke:#000000;stroke-width:0.8;" x="54" xlink:href="#m42600aa5f2" y="137.251966"/>
      </g>
     </g>
     <g id="text_12">
      <text style="font-family:DejaVu Sans;font-size:10px;font-style:normal;font-weight:normal;text-anchor:end;" transform="rotate(-0, 47, 141.051184)" x="47" y="141.051184">71</text>
     </g>
    </g>
    <g id="ytick_5">
     <g id="line2d_12">
      <g>
       <use style="stroke:#000000;stroke-width:0.8;" x="54" xlink:href="#m42600aa5f2" y="105.803276"/>
      </g>
     </g>
     <g id="text_13">
      <text style="font-family:DejaVu Sans;font-size:10px;font-style:normal;font-weight:normal;text-anchor:end;" transform="rotate(-0, 47, 109.602495)" x="47" y="109.602495">72</text>
     </g>
    </g>
    <g id="ytick_6">
     <g id="line2d_13">
      <g>
       <use style="stroke:#000000;stroke-width:0.8;" x="54" xlink:href="#m42600aa5f2" y="74.354586"/>
      </g>
     </g>
     <g id="text_14">
      <text style="font-family:DejaVu Sans;font-size:10px;font-style:normal;font-weight:normal;text-anchor:end;" transform="rotate(-0, 47, 78.153805)" x="47" y="78.153805">73</text>
     </g>
    </g>
    <g id="ytick_7">
     <g id="line2d_14">
      <g>
       <use style="stroke:#000000;stroke-width:0.8;" x="54" xlink:href="#m42600aa5f2" y="42.905896"/>
      </g>
     </g>
     <g id="text_15">
      <text style="font-family:DejaVu Sans;font-size:10px;font-style:normal;font-weight:normal;text-anchor:end;" transform="rotate(-0, 47, 46.705115)" x="47" y="46.705115">74</text>
     </g>
    </g>
    <g id="text_16">
     <text style="font-family:DejaVu Sans;font-size:10px;font-style:normal;font-weight:normal;text-anchor:middle;" transform="rotate(-90, 28.195312, 143.28)" x="28.195312" y="143.28">weight (\%)</text>
    </g>
   </g>
   <g id="line2d_15">
    <path clip-path="url(#pf022e402b1)" d="M 69.218182 53.463222 
L 83.832508 53.979609 
L 86.978647 54.330891 
L 89.414368 54.755763 
L 92.256043 55.470277 
L 95.300694 56.48607 
L 99.766183 58.249712 
L 105.449532 60.405205 
L 109.204602 61.652146 
L 116.105811 63.740653 
L 122.499579 65.715631 
L 126.76209 67.270454 
L 130.212695 68.799175 
L 132.749905 70.156815 
L 135.185626 71.706921 
L 137.41837 73.374016 
L 139.448137 75.155899 
L 141.274928 77.045022 
L 143.00023 79.147681 
L 144.725533 81.614202 
L 146.349347 84.343319 
L 147.871672 87.423404 
L 149.393998 90.977106 
L 150.916324 95.123301 
L 152.540138 100.224593 
L 154.366928 106.734786 
L 156.396696 114.855467 
L 158.426463 123.944138 
L 160.354742 133.580646 
L 162.181533 143.879463 
L 163.906836 154.875811 
L 165.835115 168.683673 
L 168.981254 193.243842 
L 171.11251 209.068194 
L 172.228882 215.9347 
L 173.243766 220.873717 
L 174.055673 223.724226 
L 174.766092 225.417109 
L 175.577999 226.734809 
L 176.592882 227.935206 
L 178.01372 229.257938 
L 179.941999 230.742631 
L 182.174743 232.199648 
L 184.813441 233.684341 
L 187.452139 234.94732 
L 190.699767 236.25936 
L 193.947395 237.312891 
L 197.296511 238.197857 
L 201.964976 239.21365 
L 210.084046 240.562169 
L 217.086744 241.362539 
L 225.611768 241.941509 
L 234.644233 242.111017 
L 239.921628 241.985852 
L 245.604977 241.683001 
L 254.535954 240.909048 
L 263.263955 239.851115 
L 274.630653 238.119864 
L 285.591397 236.175706 
L 293.101537 234.775296 
L 302.641444 233.144052 
L 312.181351 231.672568 
L 320.807863 230.260208 
L 339.481724 227.478257 
L 357.546655 225.349809 
L 366.477632 224.518306 
L 373.581818 223.994056 
L 373.581818 223.994056 
" style="fill:none;stroke:#40b5c4;stroke-dasharray:5.55,2.4;stroke-dashoffset:0;stroke-width:1.5;"/>
    <defs>
     <path d="M 0 3 
C 0.795609 3 1.55874 2.683901 2.12132 2.12132 
C 2.683901 1.55874 3 0.795609 3 0 
C 3 -0.795609 2.683901 -1.55874 2.12132 -2.12132 
C 1.55874 -2.683901 0.795609 -3 0 -3 
C -0.795609 -3 -1.55874 -2.683901 -2.12132 -2.12132 
C -2.683901 -1.55874 -3 -0.795609 -3 0 
C -3 0.795609 -2.683901 1.55874 -2.12132 2.12132 
C -1.55874 2.683901 -0.795609 3 0 3 
z
" id="m3a3d5d5198" style="stroke:#40b5c4;"/>
    </defs>
    <g clip-path="url(#pf022e402b1)">
     <use style="fill:#40b5c4;stroke:#40b5c4;" x="69.218182" xlink:href="#m3a3d5d5198" y="53.463222"/>
     <use style="fill:#40b5c4;stroke:#40b5c4;" x="77.337252" xlink:href="#m3a3d5d5198" y="53.675186"/>
     <use style="fill:#40b5c4;stroke:#40b5c4;" x="85.456322" xlink:href="#m3a3d5d5198" y="54.138739"/>
     <use style="fill:#40b5c4;stroke:#40b5c4;" x="93.575392" xlink:href="#m3a3d5d5198" y="55.882255"/>
     <use style="fill:#40b5c4;stroke:#40b5c4;" x="101.694462" xlink:href="#m3a3d5d5198" y="59.014544"/>
     <use style="fill:#40b5c4;stroke:#40b5c4;" x="109.813532" xlink:href="#m3a3d5d5198" y="61.843983"/>
     <use style="fill:#40b5c4;stroke:#40b5c4;" x="117.932602" xlink:href="#m3a3d5d5198" y="64.278426"/>
     <use style="fill:#40b5c4;stroke:#40b5c4;" x="126.051672" xlink:href="#m3a3d5d5198" y="66.989932"/>
     <use style="fill:#40b5c4;stroke:#40b5c4;" x="134.170742" xlink:href="#m3a3d5d5198" y="71.029831"/>
     <use style="fill:#40b5c4;stroke:#40b5c4;" x="142.289812" xlink:href="#m3a3d5d5198" y="78.241959"/>
     <use style="fill:#40b5c4;stroke:#40b5c4;" x="150.408882" xlink:href="#m3a3d5d5198" y="93.673202"/>
     <use style="fill:#40b5c4;stroke:#40b5c4;" x="158.527952" xlink:href="#m3a3d5d5198" y="124.424674"/>
     <use style="fill:#40b5c4;stroke:#40b5c4;" x="166.647022" xlink:href="#m3a3d5d5198" y="174.889129"/>
     <use style="fill:#40b5c4;stroke:#40b5c4;" x="174.766092" xlink:href="#m3a3d5d5198" y="225.417109"/>
     <use style="fill:#40b5c4;stroke:#40b5c4;" x="182.885162" xlink:href="#m3a3d5d5198" y="232.617287"/>
     <use style="fill:#40b5c4;stroke:#40b5c4;" x="191.004232" xlink:href="#m3a3d5d5198" y="236.367229"/>
     <use style="fill:#40b5c4;stroke:#40b5c4;" x="199.123302" xlink:href="#m3a3d5d5198" y="238.617382"/>
     <use style="fill:#40b5c4;stroke:#40b5c4;" x="207.242372" xlink:href="#m3a3d5d5198" y="240.141386"/>
     <use style="fill:#40b5c4;stroke:#40b5c4;" x="215.361442" xlink:href="#m3a3d5d5198" y="241.191772"/>
     <use style="fill:#40b5c4;stroke:#40b5c4;" x="223.480512" xlink:href="#m3a3d5d5198" y="241.828294"/>
     <use style="fill:#40b5c4;stroke:#40b5c4;" x="231.599582" xlink:href="#m3a3d5d5198" y="242.101268"/>
     <use style="fill:#40b5c4;stroke:#40b5c4;" x="239.718652" xlink:href="#m3a3d5d5198" y="241.991827"/>
     <use style="fill:#40b5c4;stroke:#40b5c4;" x="247.837722" xlink:href="#m3a3d5d5198" y="241.513807"/>
     <use style="fill:#40b5c4;stroke:#40b5c4;" x="255.956792" xlink:href="#m3a3d5d5198" y="240.753692"/>
     <use style="fill:#40b5c4;stroke:#40b5c4;" x="264.075862" xlink:href="#m3a3d5d5198" y="239.740415"/>
     <use style="fill:#40b5c4;stroke:#40b5c4;" x="272.194932" xlink:href="#m3a3d5d5198" y="238.518319"/>
     <use style="fill:#40b5c4;stroke:#40b5c4;" x="280.314002" xlink:href="#m3a3d5d5198" y="237.131432"/>
     <use style="fill:#40b5c4;stroke:#40b5c4;" x="288.433072" xlink:href="#m3a3d5d5198" y="235.647368"/>
     <use style="fill:#40b5c4;stroke:#40b5c4;" x="296.552142" xlink:href="#m3a3d5d5198" y="234.148524"/>
     <use style="fill:#40b5c4;stroke:#40b5c4;" x="304.671212" xlink:href="#m3a3d5d5198" y="232.845919"/>
     <use style="fill:#40b5c4;stroke:#40b5c4;" x="312.790282" xlink:href="#m3a3d5d5198" y="231.571618"/>
     <use style="fill:#40b5c4;stroke:#40b5c4;" x="320.909352" xlink:href="#m3a3d5d5198" y="230.244483"/>
     <use style="fill:#40b5c4;stroke:#40b5c4;" x="329.028422" xlink:href="#m3a3d5d5198" y="229.001946"/>
     <use style="fill:#40b5c4;stroke:#40b5c4;" x="337.147492" xlink:href="#m3a3d5d5198" y="227.80092"/>
     <use style="fill:#40b5c4;stroke:#40b5c4;" x="345.266562" xlink:href="#m3a3d5d5198" y="226.730407"/>
     <use style="fill:#40b5c4;stroke:#40b5c4;" x="353.385632" xlink:href="#m3a3d5d5198" y="225.788204"/>
     <use style="fill:#40b5c4;stroke:#40b5c4;" x="361.504702" xlink:href="#m3a3d5d5198" y="224.962361"/>
     <use style="fill:#40b5c4;stroke:#40b5c4;" x="369.623772" xlink:href="#m3a3d5d5198" y="224.272377"/>
    </g>
   </g>
   <g id="line2d_16">
    <path clip-path="url(#pf022e402b1)" d="M 69.218182 48.980797 
L 69.31967 49.437632 
L 69.421159 50.589798 
L 69.522647 49.869514 
L 69.624135 50.332828 
L 69.725624 48.086321 
L 69.827112 50.980891 
L 69.9286 48.929211 
L 70.131577 50.773827 
L 70.233066 48.60458 
L 70.334554 51.3859 
L 70.537531 49.096685 
L 70.639019 50.561485 
L 70.740507 48.645369 
L 70.841996 51.3144 
L 70.943484 49.029504 
L 71.146461 50.924746 
L 71.247949 49.252643 
L 71.349438 51.82714 
L 71.450926 49.762504 
L 71.552414 49.88487 
L 71.653903 50.272124 
L 71.755391 49.104843 
L 71.85688 51.028878 
L 72.059856 49.836883 
L 72.161345 50.280522 
L 72.262833 49.599828 
L 72.364321 50.828532 
L 72.46581 50.083056 
L 72.668787 51.125091 
L 72.770275 49.829445 
L 72.871763 50.564364 
L 73.07474 49.545363 
L 73.176228 51.127731 
L 73.277717 48.82412 
L 73.480694 50.728 
L 73.582182 49.44531 
L 73.68367 51.661585 
L 73.785159 49.668209 
L 73.886647 50.885397 
L 73.988135 50.06698 
L 74.089624 48.292665 
L 74.191112 51.448043 
L 74.292601 49.563598 
L 74.394089 49.987322 
L 74.495577 49.631259 
L 74.597066 48.701513 
L 74.698554 50.669216 
L 74.800042 49.315026 
L 74.901531 50.657459 
L 75.104508 48.71279 
L 75.205996 50.841009 
L 75.307484 48.574348 
L 75.408973 48.908097 
L 75.510461 49.81121 
L 75.611949 48.336093 
L 75.713438 50.089774 
L 75.814926 47.840389 
L 76.017903 49.273757 
L 76.119391 48.866348 
L 76.22088 50.190547 
L 76.423856 48.150144 
L 76.525345 49.4098 
L 76.626833 47.609572 
L 76.728322 49.808331 
L 76.931298 46.914002 
L 77.032787 49.841442 
L 77.134275 47.581259 
L 77.235763 49.992601 
L 77.337252 49.521609 
L 77.43874 47.581979 
L 77.540229 49.95829 
L 77.641717 47.327169 
L 77.743205 49.331341 
L 77.844694 47.749933 
L 78.04767 49.37165 
L 78.149159 47.459133 
L 78.250647 49.175864 
L 78.352136 48.468057 
L 78.453624 48.520123 
L 78.555112 49.809051 
L 78.656601 48.392958 
L 78.758089 49.513452 
L 78.859577 47.697628 
L 78.961066 47.842068 
L 79.062554 49.672048 
L 79.164043 48.102397 
L 79.265531 48.774933 
L 79.367019 48.595942 
L 79.468508 47.885736 
L 79.569996 49.48178 
L 79.671484 49.304709 
L 79.772973 49.616623 
L 79.97595 47.333647 
L 80.077438 49.746188 
L 80.280415 48.402315 
L 80.381903 49.488258 
L 80.483391 47.135221 
L 80.58488 49.548962 
L 80.686368 47.90709 
L 80.787857 48.974319 
L 80.990833 47.280142 
L 81.092322 49.393484 
L 81.295298 46.896726 
L 81.396787 47.685391 
L 81.498275 46.525068 
L 81.599764 47.144579 
L 81.701252 46.120298 
L 81.904229 47.026051 
L 82.005717 46.483799 
L 82.107205 47.608852 
L 82.310182 44.876958 
L 82.411671 47.21344 
L 82.513159 45.002684 
L 82.614647 46.754685 
L 82.817624 44.443636 
L 82.919112 46.491717 
L 83.020601 45.34435 
L 83.122089 47.299576 
L 83.325066 45.553813 
L 83.426554 46.913762 
L 83.528043 45.693215 
L 83.629531 46.526987 
L 83.731019 45.622194 
L 83.832508 45.765915 
L 83.933996 46.611444 
L 84.035485 45.284127 
L 84.136973 46.974225 
L 84.238461 45.987615 
L 84.441438 47.21152 
L 84.542926 45.656265 
L 84.644415 47.168812 
L 84.847392 45.641149 
L 85.050368 47.280621 
L 85.151857 46.135654 
L 85.253345 46.44277 
L 85.354833 45.990254 
L 85.456322 48.259794 
L 85.55781 46.84778 
L 85.760787 47.263826 
L 85.862275 45.393537 
L 85.963764 48.084402 
L 86.065252 46.646235 
L 86.16674 47.289979 
L 86.268229 47.000138 
L 86.369717 45.782231 
L 86.471206 48.426548 
L 86.572694 46.603286 
L 86.674182 48.321217 
L 86.877159 46.263299 
L 87.080136 48.405434 
L 87.181624 47.570462 
L 87.283113 47.894374 
L 87.384601 46.666869 
L 87.486089 48.097598 
L 87.689066 47.313013 
L 87.790554 48.923453 
L 87.892043 45.592922 
L 87.993531 49.131716 
L 88.09502 47.879018 
L 88.196508 47.936842 
L 88.297996 49.644456 
L 88.399485 47.632845 
L 88.500973 49.034302 
L 88.70395 47.365318 
L 88.805438 49.144432 
L 88.906927 48.146785 
L 89.008415 49.705399 
L 89.109903 49.464745 
L 89.211392 48.078643 
L 89.31288 49.905744 
L 89.414368 48.976958 
L 89.515857 49.625501 
L 89.617345 48.78621 
L 89.718834 49.08085 
L 89.820322 50.331868 
L 89.92181 49.293192 
L 90.023299 50.138241 
L 90.226275 48.321697 
L 90.327764 49.762504 
L 90.429252 48.738463 
L 90.530741 49.728433 
L 90.733717 47.729539 
L 90.835206 50.053064 
L 90.936694 48.354328 
L 91.038182 50.503901 
L 91.241159 48.93305 
L 91.342648 49.331341 
L 91.444136 48.471896 
L 91.545624 49.568876 
L 91.748601 47.790242 
L 91.850089 49.29967 
L 91.951578 48.480774 
L 92.053066 48.819081 
L 92.154555 50.36234 
L 92.256043 48.387919 
L 92.357531 50.13968 
L 92.45902 47.888135 
L 92.661996 49.251683 
L 92.763485 47.910209 
L 92.864973 50.701847 
L 92.966462 47.547908 
L 93.169438 49.580393 
L 93.270927 48.686158 
L 93.372415 50.846527 
L 93.473903 48.217086 
L 93.67688 49.332061 
L 93.778369 48.046012 
L 93.879857 49.952532 
L 93.981345 49.712117 
L 94.082834 47.978831 
L 94.184322 49.342138 
L 94.28581 48.705832 
L 94.387299 50.811497 
L 94.590276 48.981517 
L 94.691764 50.656499 
L 94.793252 47.765289 
L 94.894741 50.638744 
L 94.996229 48.924172 
L 95.097717 49.977245 
L 95.300694 49.00479 
L 95.503671 50.180949 
L 95.605159 49.801613 
L 95.706648 51.02048 
L 95.808136 49.253603 
L 95.909624 50.499102 
L 96.112601 49.198178 
L 96.21409 52.11722 
L 96.315578 48.782851 
L 96.417066 51.694696 
L 96.620043 49.708758 
L 96.721531 51.755399 
L 96.82302 49.621902 
L 96.924508 51.663024 
L 97.127485 49.887029 
L 97.330462 51.537059 
L 97.43195 51.773394 
L 97.634927 50.055943 
L 97.736415 51.843455 
L 97.837904 51.122932 
L 97.939392 51.181956 
L 98.04088 51.874647 
L 98.142369 49.484899 
L 98.243857 52.735531 
L 98.345345 50.840289 
L 98.446834 52.766963 
L 98.548322 52.451209 
L 98.649811 50.826133 
L 98.751299 52.658992 
L 98.852787 51.757798 
L 98.954276 51.812743 
L 99.055764 52.511913 
L 99.157252 51.535859 
L 99.258741 52.634279 
L 99.360229 51.782992 
L 99.461718 51.995813 
L 99.563206 53.684472 
L 99.766183 52.824067 
L 99.867671 53.095193 
L 99.969159 52.613645 
L 100.273625 53.39823 
L 100.375113 52.628041 
L 100.679578 55.408161 
L 100.781066 53.775887 
L 100.882555 54.402356 
L 101.085532 53.569064 
L 101.288508 54.565272 
L 101.389997 53.572663 
L 101.592973 54.967642 
L 101.694462 55.096726 
L 101.79595 55.878913 
L 101.998927 54.672042 
L 102.100415 54.288387 
L 102.201904 54.735385 
L 102.303392 54.372124 
L 102.40488 54.737785 
L 102.506369 53.898254 
L 102.709346 54.698675 
L 102.810834 54.155943 
L 102.912322 54.704434 
L 103.013811 53.999746 
L 103.115299 54.503129 
L 103.318276 53.438299 
L 103.419764 53.62065 
L 103.521253 54.346211 
L 103.622741 53.25187 
L 103.724229 54.244959 
L 103.825718 53.788844 
L 103.927206 53.872581 
L 104.130183 53.611772 
L 104.231671 54.191694 
L 104.33316 52.273178 
L 104.434648 53.814517 
L 104.536136 52.954592 
L 104.637625 54.783132 
L 104.739113 52.541424 
L 104.840601 54.254077 
L 104.94209 52.919801 
L 105.043578 53.900893 
L 105.145067 52.652274 
L 105.55102 53.878819 
L 105.652508 53.960157 
L 105.753997 53.155417 
L 105.855485 53.312574 
L 105.956974 52.811111 
L 106.15995 53.381195 
L 106.261439 52.707459 
L 106.464415 53.260748 
L 106.565904 54.855832 
L 106.768881 53.498523 
L 106.971857 52.88789 
L 107.073346 53.642724 
L 107.174834 53.519157 
L 107.377811 52.738171 
L 107.479299 53.087035 
L 107.580788 54.694596 
L 107.885253 53.478369 
L 108.088229 53.270825 
L 108.189718 53.981751 
L 108.291206 53.659519 
L 108.392695 52.615324 
L 108.595671 54.35077 
L 108.69716 54.53576 
L 109.001625 53.644403 
L 109.204602 54.320059 
L 109.407578 53.365839 
L 109.610555 54.710672 
L 109.712043 54.378603 
L 109.813532 54.956845 
L 109.91502 53.94936 
L 110.016509 54.543678 
L 110.117997 54.069327 
L 110.422462 54.662445 
L 110.52395 54.362527 
L 110.625439 55.052099 
L 110.726927 54.442425 
L 110.828416 55.019228 
L 110.929904 54.722189 
L 111.031392 55.161269 
L 111.132881 54.652848 
L 111.234369 55.240927 
L 111.335857 55.118081 
L 111.437346 54.602461 
L 111.538834 54.651168 
L 111.640323 54.542478 
L 111.741811 54.905259 
L 111.843299 55.848201 
L 112.046276 55.41416 
L 112.249253 55.827807 
L 112.350741 55.554281 
L 112.45223 55.847721 
L 112.553718 55.678568 
L 112.655206 55.1939 
L 112.959671 56.160836 
L 113.06116 56.1438 
L 113.264137 56.446118 
L 113.365625 55.67065 
L 113.467113 56.110929 
L 113.568602 55.855639 
L 113.67009 56.616471 
L 113.771578 56.117648 
L 113.873067 56.307916 
L 113.974555 55.726314 
L 114.177532 56.84057 
L 114.27902 56.796662 
L 114.380509 55.987603 
L 114.583485 56.32879 
L 114.684974 57.173359 
L 114.887951 56.104691 
L 114.989439 56.569204 
L 115.090927 56.357582 
L 115.192416 57.237182 
L 115.293904 57.029399 
L 115.395392 56.420205 
L 115.496881 56.661099 
L 115.598369 56.593438 
L 115.801346 57.443525 
L 115.902834 56.447797 
L 116.004323 56.507301 
L 116.207299 57.64747 
L 116.511765 56.532734 
L 116.613253 57.149846 
L 116.714741 57.058431 
L 116.81623 58.251385 
L 116.917718 56.448517 
L 117.019206 57.309402 
L 117.120695 56.598716 
L 117.222183 58.063756 
L 117.323672 57.27941 
L 117.42516 57.836538 
L 117.526648 56.688212 
L 117.831113 57.893882 
L 117.932602 57.549576 
L 118.03409 57.750402 
L 118.135579 57.028679 
L 118.237067 58.156131 
L 118.338555 57.456242 
L 118.440044 58.054399 
L 118.541532 56.954539 
L 118.845997 58.020568 
L 118.947486 57.436087 
L 119.353439 58.366313 
L 119.556416 57.761199 
L 119.657904 57.818303 
L 119.759393 57.659946 
L 119.860881 57.869409 
L 120.063858 57.551736 
L 120.165346 58.468286 
L 120.266834 58.309449 
L 120.368323 58.755967 
L 120.469811 57.890283 
L 120.5713 58.386708 
L 120.672788 57.948108 
L 120.875765 58.329843 
L 120.977253 57.283009 
L 121.078741 58.951274 
L 121.281718 57.83054 
L 121.383207 59.088756 
L 121.484695 57.687779 
L 121.586183 59.343087 
L 121.687672 57.529422 
L 121.890648 59.10987 
L 121.992137 57.253257 
L 122.093625 59.082758 
L 122.296602 58.106224 
L 122.39809 59.492326 
L 122.499579 57.961784 
L 122.601067 59.557588 
L 122.702555 58.074073 
L 122.804044 58.130458 
L 122.905532 59.364201 
L 123.007021 57.771036 
L 123.108509 59.304697 
L 123.311486 57.804147 
L 123.412974 60.112556 
L 123.514462 58.222113 
L 123.615951 59.545111 
L 123.717439 57.889084 
L 123.920416 59.541032 
L 124.021904 58.19476 
L 124.123393 59.51464 
L 124.326369 58.141975 
L 124.427858 59.902854 
L 124.529346 58.886491 
L 124.630835 59.644444 
L 124.732323 58.321206 
L 124.833811 58.45101 
L 124.9353 59.785046 
L 125.036788 57.890523 
L 125.138276 60.153345 
L 125.341253 58.469245 
L 125.442742 60.259156 
L 125.54423 58.63384 
L 125.645718 59.815997 
L 125.747207 58.389347 
L 125.848695 58.848582 
L 125.950183 60.128392 
L 126.051672 58.018648 
L 126.15316 60.2462 
L 126.356137 58.687826 
L 126.457625 60.20805 
L 126.559114 59.261269 
L 126.660602 59.579902 
L 126.863579 58.703181 
L 126.965067 60.437908 
L 127.066556 58.579135 
L 127.168044 60.300905 
L 127.371021 58.638159 
L 127.472509 60.605622 
L 127.573997 59.450097 
L 127.675486 59.817917 
L 127.878463 58.74397 
L 127.979951 60.239482 
L 128.081439 59.002859 
L 128.182928 60.17134 
L 128.284416 59.222879 
L 128.385904 59.29486 
L 128.487393 60.598424 
L 128.588881 59.703228 
L 128.69037 59.786006 
L 128.791858 59.565986 
L 128.893346 58.52419 
L 128.994835 60.187896 
L 129.197811 59.73202 
L 129.2993 59.177772 
L 129.502277 60.191015 
L 129.603765 60.081605 
L 129.705253 59.226238 
L 129.90823 59.36708 
L 130.111207 60.002666 
L 130.314184 59.058524 
L 130.51716 59.853667 
L 130.821625 59.473371 
L 130.923114 59.589019 
L 131.024602 60.46478 
L 131.126091 60.305704 
L 131.227579 59.421305 
L 131.532044 60.50101 
L 131.633532 60.325858 
L 131.836509 59.69771 
L 131.937998 59.824635 
L 132.039486 61.296633 
L 132.242463 60.012024 
L 132.343951 60.414154 
L 132.445439 59.984911 
L 132.546928 61.147634 
L 132.851393 60.166782 
L 133.155858 61.498658 
L 133.257346 60.470299 
L 133.561812 61.363815 
L 133.6633 61.541606 
L 133.764788 61.077333 
L 133.866277 61.110204 
L 133.967765 60.965044 
L 134.069253 62.026754 
L 134.27223 61.787059 
L 134.373719 61.950934 
L 134.475207 61.717238 
L 134.678184 62.347786 
L 134.779672 61.533208 
L 134.88116 62.248933 
L 134.982649 62.107851 
L 135.185626 63.298886 
L 135.287114 62.550291 
L 135.388602 62.702169 
L 135.490091 62.559168 
L 135.591579 62.780868 
L 135.693067 63.451724 
L 135.794556 62.347546 
L 136.099021 64.578936 
L 136.200509 63.877848 
L 136.301998 63.925355 
L 136.403486 63.94455 
L 136.504974 63.3951 
L 136.707951 64.695545 
L 136.80944 63.941191 
L 136.910928 64.065717 
L 137.012416 64.495199 
L 137.113905 65.77477 
L 137.316881 65.060005 
L 137.519858 65.15142 
L 137.621347 65.032173 
L 137.722835 66.348213 
L 137.824323 64.810233 
L 138.128788 67.166869 
L 138.331765 66.533682 
L 138.433254 66.533922 
L 138.534742 66.754902 
L 138.63623 66.680282 
L 138.737719 67.776543 
L 138.839207 65.644725 
L 139.143672 67.965851 
L 139.448137 66.394041 
L 139.549626 67.143116 
L 139.651114 66.625577 
L 139.752602 67.125361 
L 139.854091 66.465061 
L 139.955579 67.184625 
L 140.057068 66.841518 
L 140.158556 68.038072 
L 140.260044 67.094169 
L 140.361533 67.112884 
L 140.463021 66.734028 
L 140.767486 67.23765 
L 140.868975 66.499132 
L 141.17344 67.833167 
L 141.274928 67.109525 
L 141.376416 67.382571 
L 141.477905 66.975882 
L 141.680882 67.943537 
L 141.78237 67.755909 
L 141.883858 67.074735 
L 141.985347 68.469714 
L 142.086835 68.459396 
L 142.188323 69.47096 
L 142.289812 68.503544 
L 142.492789 68.824817 
L 142.594277 69.457524 
L 142.695765 68.514341 
L 142.797254 69.648752 
L 142.898742 69.260058 
L 143.203207 70.858741 
L 143.304696 70.282179 
L 143.507672 70.495 
L 143.609161 70.992385 
L 143.710649 70.317929 
L 143.812137 71.390916 
L 143.913626 70.719579 
L 144.015114 71.985953 
L 144.116603 71.770492 
L 144.218091 72.389283 
L 144.319579 71.799524 
L 144.421068 72.163025 
L 144.522556 72.103761 
L 144.827021 73.104288 
L 144.92851 72.695919 
L 145.029998 73.647739 
L 145.131486 73.031348 
L 145.232975 74.284045 
L 145.334463 73.690927 
L 145.435951 73.738434 
L 145.53744 74.620913 
L 145.638928 73.390769 
L 145.841905 74.85341 
L 145.943393 74.700092 
L 146.14637 75.057594 
L 146.349347 75.765641 
L 146.552324 75.40166 
L 146.7553 76.146657 
L 146.856789 77.053609 
L 146.958277 76.361878 
L 147.059765 76.817753 
L 147.161254 76.590056 
L 147.262742 78.053416 
L 147.364231 77.475174 
L 147.465719 78.373968 
L 147.567207 77.333612 
L 147.668696 78.357893 
L 147.770184 78.139072 
L 147.871672 79.596434 
L 147.973161 78.601186 
L 148.176138 79.492063 
L 148.277626 80.364225 
L 148.379114 79.720241 
L 148.480603 79.919386 
L 148.683579 80.755558 
L 148.785068 80.715249 
L 148.886556 81.214792 
L 148.988044 80.760356 
L 149.393998 82.402948 
L 149.495486 82.218678 
L 149.596975 82.853785 
L 149.698463 82.690389 
L 149.90144 83.266712 
L 150.002928 83.005903 
L 150.104417 83.110994 
L 150.205905 83.531359 
L 150.307393 84.739669 
L 150.408882 84.190939 
L 150.51037 84.829405 
L 150.611858 84.625701 
L 151.220789 85.772827 
L 151.322277 87.272897 
L 151.423765 87.088148 
L 151.525254 88.090114 
L 151.626742 87.786357 
L 151.728231 88.3634 
L 151.829719 88.294059 
L 152.134184 89.395598 
L 152.235672 89.428949 
L 152.438649 91.603475 
L 152.540138 91.535813 
L 152.641626 91.212141 
L 152.946091 92.915436 
L 153.149068 92.487153 
L 153.453533 95.082044 
L 153.65651 94.643684 
L 153.960975 96.704481 
L 154.062463 95.804727 
L 154.26544 97.017596 
L 154.366928 98.75952 
L 154.468417 98.066349 
L 154.569905 98.372746 
L 154.671393 98.297406 
L 154.975859 99.659514 
L 155.077347 99.093029 
L 155.381812 101.637534 
L 155.4833 101.328498 
L 155.584789 101.881307 
L 155.686277 101.143749 
L 155.889254 102.463148 
L 155.990742 102.392847 
L 156.092231 103.131366 
L 156.193719 103.020276 
L 156.396696 104.76388 
L 156.498184 104.463722 
L 156.599673 104.843778 
L 156.701161 104.485076 
L 156.802649 105.987546 
L 156.904138 105.380511 
L 157.005626 105.768245 
L 157.208603 107.906781 
L 157.310091 107.552638 
L 157.41158 107.919498 
L 157.513068 107.587429 
L 157.716045 109.471154 
L 157.817533 108.544767 
L 158.121998 112.206407 
L 158.223487 110.971464 
L 158.324975 111.483244 
L 158.426463 111.258666 
L 158.527952 111.506758 
L 158.62944 112.989553 
L 158.730928 112.41347 
L 158.933905 115.138406 
L 159.035394 114.901591 
L 159.441347 116.176362 
L 159.542835 117.152416 
L 159.644324 116.932636 
L 159.847301 117.919966 
L 159.948789 119.600227 
L 160.050277 119.403481 
L 160.151766 119.821447 
L 160.253254 119.340618 
L 160.557719 121.746681 
L 160.659208 120.670335 
L 160.963673 123.991268 
L 161.065161 122.963629 
L 161.166649 124.335574 
L 161.268138 122.982823 
L 161.471115 124.816402 
L 161.572603 126.10557 
L 161.674091 124.924373 
L 161.978556 129.488886 
L 162.181533 129.847828 
L 162.587487 132.525737 
L 162.688975 133.132291 
L 162.99344 136.824162 
L 163.094929 136.132431 
L 163.399394 138.499145 
L 163.500882 138.821857 
L 163.60237 140.314489 
L 163.703859 140.136938 
L 164.312789 144.41161 
L 164.414277 144.59564 
L 164.617254 147.204207 
L 164.718743 146.625965 
L 165.226184 150.662862 
L 165.327673 150.841614 
L 166.13958 157.384626 
L 166.241068 156.948186 
L 166.545533 159.856191 
L 166.647022 160.799374 
L 166.74851 160.095646 
L 167.052975 164.820915 
L 167.154464 164.1455 
L 167.560417 168.014683 
L 167.661905 168.529102 
L 168.067859 172.100287 
L 168.270836 173.238536 
L 168.473812 174.740766 
L 168.575301 174.94279 
L 168.676789 176.508363 
L 168.778278 176.264829 
L 169.082743 179.792106 
L 169.184231 179.515701 
L 169.387208 181.292656 
L 169.590185 181.838027 
L 169.691673 183.800451 
L 169.793161 182.714747 
L 170.097626 187.09931 
L 170.199115 186.749005 
L 170.50358 187.357239 
L 170.706557 189.77194 
L 170.808045 189.29327 
L 171.11251 192.595009 
L 171.213999 192.391784 
L 171.416975 193.24811 
L 171.72144 195.046659 
L 171.822929 195.11768 
L 172.330371 198.622162 
L 172.431859 198.649755 
L 172.634836 200.062489 
L 172.837813 201.171946 
L 172.939301 202.285962 
L 173.040789 201.907825 
L 173.142278 204.249345 
L 173.243766 203.751001 
L 173.446743 204.726335 
L 173.548231 204.555742 
L 173.751208 206.842797 
L 173.852696 206.714192 
L 174.360138 210.19852 
L 174.461627 210.105905 
L 175.172045 216.01933 
L 175.273534 215.919038 
L 175.375022 215.633276 
L 175.577999 217.121589 
L 175.780975 217.910014 
L 175.882464 216.724977 
L 175.983952 217.370641 
L 176.085441 217.252833 
L 176.186929 218.959007 
L 176.389906 218.61974 
L 176.491394 218.580391 
L 176.694371 219.003635 
L 176.795859 218.842639 
L 176.897348 218.855835 
L 177.100324 219.086652 
L 177.201813 220.672139 
L 177.303301 219.318669 
L 177.404789 220.586723 
L 177.506278 220.104454 
L 177.607766 220.370782 
L 177.709255 219.367856 
L 177.810743 220.715807 
L 177.912231 220.134686 
L 178.01372 220.614795 
L 178.115208 220.226341 
L 178.216696 221.771279 
L 178.318185 221.691141 
L 178.419673 221.171443 
L 178.521162 221.446648 
L 178.62265 220.951903 
L 178.724138 221.334358 
L 178.825627 222.195723 
L 178.927115 220.382298 
L 179.23158 223.172016 
L 179.434557 222.302734 
L 179.536045 222.460611 
L 179.637534 222.041205 
L 179.739022 222.621367 
L 179.84051 222.580818 
L 179.941999 221.865093 
L 180.246464 223.935008 
L 180.449441 223.530239 
L 180.652417 223.915573 
L 180.753906 224.446548 
L 180.956883 224.033861 
L 181.058371 225.525774 
L 181.159859 225.237612 
L 181.362836 225.737876 
L 181.565813 225.885675 
L 181.667301 225.406526 
L 181.870278 227.000891 
L 181.971766 226.431766 
L 182.174743 226.633791 
L 182.276231 227.782117 
L 182.37772 227.610564 
L 182.479208 227.088947 
L 182.580697 227.88289 
L 182.682185 227.426054 
L 182.783673 228.573661 
L 183.088138 227.931836 
L 183.189627 228.386032 
L 183.291115 229.471256 
L 183.392604 228.90765 
L 183.494092 229.074164 
L 183.59558 228.681392 
L 183.697069 229.805485 
L 183.798557 229.348889 
L 183.900045 229.825399 
L 184.001534 229.179735 
L 184.103022 229.333533 
L 184.204511 229.805724 
L 184.305999 229.52956 
L 184.407487 229.945126 
L 184.508976 229.678799 
L 184.610464 229.877945 
L 184.813441 229.205408 
L 184.914929 229.833077 
L 185.016418 229.773333 
L 185.117906 229.428308 
L 185.219394 229.793248 
L 185.422371 230.938215 
L 185.523859 230.22345 
L 185.625348 230.346537 
L 185.726836 230.214093 
L 185.828325 230.908703 
L 185.929813 230.741709 
L 186.031301 230.055496 
L 186.335766 232.001125 
L 186.437255 231.928425 
L 186.538743 231.303635 
L 186.640232 231.372257 
L 186.843208 231.694968 
L 187.046185 231.806058 
L 187.249162 232.403015 
L 187.35065 232.954384 
L 187.553627 232.510985 
L 187.756604 232.45604 
L 188.061069 233.362753 
L 188.162557 233.208715 
L 188.264046 233.04436 
L 188.467022 233.586852 
L 188.568511 232.890562 
L 188.872976 234.679033 
L 188.974464 233.972906 
L 189.075953 234.121426 
L 189.278929 233.319325 
L 189.481906 234.606813 
L 189.583394 233.380988 
L 189.786371 235.031737 
L 189.88786 234.562425 
L 189.989348 234.859704 
L 190.090836 234.493084 
L 190.293813 234.671835 
L 190.395301 234.410787 
L 190.699767 234.851066 
L 190.801255 235.026938 
L 190.902743 235.549995 
L 191.004232 234.829472 
L 191.10572 235.13107 
L 191.207208 234.526195 
L 191.308697 234.988309 
L 191.410185 234.896414 
L 191.511674 235.686038 
L 191.613162 234.759651 
L 191.816139 235.007743 
L 191.917627 235.944688 
L 192.120604 234.828752 
L 192.323581 235.445384 
L 192.425069 235.303103 
L 192.526557 235.531041 
L 192.628046 234.724621 
L 192.831022 235.650768 
L 192.932511 235.364046 
L 193.033999 235.545677 
L 193.236976 235.327816 
L 193.338464 235.199451 
L 193.439953 235.574709 
L 193.541441 235.134669 
L 193.744418 235.252237 
L 193.845906 235.461699 
L 193.947395 235.926932 
L 194.048883 235.595823 
L 194.150371 235.733065 
L 194.353348 234.934324 
L 194.556325 235.661565 
L 194.657813 234.65384 
L 194.962278 236.555321 
L 195.063767 235.445144 
L 195.165255 235.64285 
L 195.266743 234.966715 
L 195.46972 235.393318 
L 195.672697 235.190813 
L 195.774185 236.208615 
L 195.875674 235.363806 
L 195.977162 235.966522 
L 196.180139 235.525762 
L 196.281627 235.436506 
L 196.383116 234.905531 
L 196.586092 235.549995 
L 196.687581 235.526002 
L 196.789069 235.622935 
L 196.890557 235.09388 
L 196.992046 236.481661 
L 197.093534 235.530321 
L 197.195023 235.602061 
L 197.296511 235.512086 
L 197.499488 235.943008 
L 197.600976 235.691077 
L 198.108418 236.238367 
L 198.311395 235.892142 
L 198.514371 236.00803 
L 198.61586 235.684119 
L 198.818837 235.941328 
L 198.920325 235.867669 
L 199.021813 236.461027 
L 199.123302 235.588865 
L 199.22479 236.195419 
L 199.326278 235.554314 
L 199.427767 235.799287 
L 199.630744 235.481614 
L 199.732232 235.725867 
L 199.935209 235.685798 
L 200.036697 235.957644 
L 200.138185 235.681959 
L 200.239674 235.842236 
L 200.341162 235.31486 
L 200.544139 235.352769 
L 200.848604 235.341492 
L 200.950092 235.488812 
L 201.051581 236.068254 
L 201.153069 235.212648 
L 201.254558 235.367165 
L 201.356046 234.797081 
L 201.457534 235.372444 
L 201.559023 234.895694 
L 201.863488 235.286787 
L 201.964976 235.042294 
L 202.066465 235.567031 
L 202.269441 234.812917 
L 202.37093 235.084523 
L 202.472418 234.966475 
L 202.573906 235.224884 
L 202.776883 234.788923 
L 202.878372 235.375323 
L 202.97986 235.35109 
L 203.182837 235.454022 
L 203.284325 234.83715 
L 203.385813 234.885857 
L 203.487302 235.472736 
L 203.791767 234.952319 
L 203.994744 235.471777 
L 204.096232 235.553115 
L 204.299209 235.116194 
L 204.400697 235.451862 
L 204.806651 234.87338 
L 205.009627 235.846794 
L 205.111116 235.613098 
L 205.212604 235.574949 
L 205.314093 235.035816 
L 205.517069 235.364286 
L 205.618558 235.483773 
L 205.720046 234.932884 
L 205.821534 234.952079 
L 205.923023 235.295665 
L 206.024511 236.168067 
L 206.227488 235.083083 
L 206.328976 235.306462 
L 206.531953 235.260394 
L 206.633441 235.474416 
L 206.73493 235.111875 
L 206.937907 235.408674 
L 207.039395 235.854232 
L 207.34386 235.091241 
L 207.648325 235.595343 
L 207.749814 234.863783 
L 207.851302 235.470097 
L 207.95279 235.180016 
L 208.054279 235.920934 
L 208.155767 235.299264 
L 208.257255 235.676681 
L 208.460232 235.017581 
L 208.663209 235.603981 
L 208.764697 234.942241 
L 208.866186 234.970074 
L 208.967674 235.27719 
L 209.069162 236.334101 
L 209.170651 235.173778 
L 209.272139 235.361647 
L 209.373628 235.048052 
L 209.576604 235.297104 
L 209.678093 235.776733 
L 209.779581 234.606333 
L 209.881069 235.255836 
L 209.982558 235.119793 
L 210.084046 236.255163 
L 210.185535 235.157703 
L 210.287023 235.427389 
L 210.388511 234.781485 
L 210.49 235.228723 
L 210.591488 235.134429 
L 210.692976 235.664684 
L 210.794465 234.47269 
L 210.895953 235.347011 
L 210.997442 235.305022 
L 211.09893 235.771935 
L 211.200418 235.151464 
L 211.301907 235.236881 
L 211.403395 235.000545 
L 211.504883 235.31198 
L 211.606372 234.950879 
L 211.70786 235.333335 
L 211.809349 235.287747 
L 212.012325 235.008223 
L 212.113814 235.100598 
L 212.215302 234.826833 
L 212.31679 235.630613 
L 212.418279 234.674235 
L 212.519767 235.065568 
L 212.621256 234.993587 
L 212.722744 235.867669 
L 212.824232 235.169939 
L 212.925721 235.265433 
L 213.027209 234.767329 
L 213.331674 235.725867 
L 213.433163 234.417505 
L 213.737628 235.796648 
L 213.839116 235.174978 
L 213.940604 235.507767 
L 214.042093 234.901213 
L 214.346558 235.831199 
L 214.448046 234.14278 
L 214.549535 235.564391 
L 214.651023 235.09388 
L 214.752511 236.130877 
L 215.056977 234.699428 
L 215.158465 235.49481 
L 215.259953 235.030297 
L 215.361442 235.38636 
L 215.46293 235.066288 
L 215.767395 235.784891 
L 215.868884 235.392838 
L 215.970372 235.637092 
L 216.07186 234.949679 
L 216.274837 235.299024 
L 216.376325 235.394998 
L 216.477814 235.135869 
L 216.782279 236.017868 
L 216.985256 235.106836 
L 217.086744 235.696115 
L 217.188232 235.249597 
L 217.289721 235.518324 
L 217.492698 235.026218 
L 217.594186 235.231602 
L 217.695674 235.792329 
L 217.898651 235.321578 
L 218.101628 235.684599 
L 218.203116 235.059329 
L 218.304605 235.267353 
L 218.406093 235.741223 
L 218.507581 235.413713 
L 218.60907 235.451622 
L 218.710558 235.632293 
L 218.812046 235.418991 
L 218.913535 234.842429 
L 219.218 235.869108 
L 219.319488 235.305742 
L 219.522465 235.395718 
L 219.623953 235.390679 
L 219.725442 235.515445 
L 219.928419 235.015421 
L 220.131395 235.719149 
L 220.232884 235.909177 
L 220.43586 235.250557 
L 220.638837 235.325657 
L 220.740326 235.659405 
L 220.841814 234.610172 
L 221.146279 236.425756 
L 221.247767 235.150744 
L 221.349256 235.589585 
L 221.450744 235.006784 
L 221.552233 235.138988 
L 221.755209 235.559353 
L 221.856698 235.05693 
L 221.958186 235.193933 
L 222.059674 235.106836 
L 222.161163 236.062255 
L 222.465628 234.957837 
L 222.668605 235.504888 
L 222.770093 235.556474 
L 222.871581 234.977032 
L 223.074558 235.530801 
L 223.176047 234.50676 
L 223.277535 235.233282 
L 223.379023 234.964315 
L 223.480512 236.189181 
L 223.582 235.050452 
L 223.683488 235.379162 
L 223.987954 234.933604 
L 224.089442 235.56823 
L 224.19093 234.585699 
L 224.292419 235.150025 
L 224.393907 234.94752 
L 224.495395 235.966522 
L 224.799861 234.50868 
L 224.901349 235.372684 
L 225.002837 234.846508 
L 225.104326 234.972473 
L 225.205814 234.819395 
L 225.510279 235.558633 
L 225.713256 234.926646 
L 225.814744 234.783405 
L 225.916233 235.288947 
L 226.017721 235.152664 
L 226.220698 234.602494 
L 226.423675 234.98543 
L 226.626651 234.375996 
L 226.829628 235.53392 
L 226.931116 234.813397 
L 227.032605 234.852266 
L 227.134093 234.598895 
L 227.438558 235.049732 
L 227.540047 233.677787 
L 227.641535 234.960956 
L 227.743023 234.357521 
L 227.844512 235.551435 
L 227.946 234.561945 
L 228.047489 234.806199 
L 228.148977 234.306175 
L 228.250465 234.469331 
L 228.55493 234.358241 
L 228.757907 234.752933 
L 228.859396 234.98471 
L 228.960884 234.201324 
L 229.062372 234.278823 
L 229.163861 234.432381 
L 229.265349 234.298977 
L 229.366837 234.419424 
L 229.468326 234.332568 
L 229.569814 233.949872 
L 229.772791 234.817475 
L 229.874279 234.402869 
L 229.975768 234.460213 
L 230.178744 234.006017 
L 230.381721 234.54443 
L 230.48321 233.508633 
L 230.787675 234.717663 
L 230.889163 234.191486 
L 230.990651 234.226517 
L 231.09214 233.800633 
L 231.193628 234.208762 
L 231.295117 233.805432 
L 231.396605 234.36208 
L 231.498093 233.321004 
L 231.802558 234.80116 
L 232.005535 234.035769 
L 232.107024 233.48248 
L 232.208512 233.855578 
L 232.411489 233.692903 
L 232.614465 234.078237 
L 232.715954 233.871414 
L 232.817442 234.381035 
L 233.020419 233.648755 
L 233.223396 233.88413 
L 233.324884 233.930678 
L 233.527861 233.275177 
L 233.730838 234.234195 
L 234.035303 233.680426 
L 234.136791 233.778559 
L 234.238279 233.621162 
L 234.339768 234.036489 
L 234.441256 233.217113 
L 234.644233 233.761764 
L 234.745721 234.91177 
L 234.84721 233.719535 
L 234.948698 233.879572 
L 235.050186 233.366352 
L 235.354652 234.245232 
L 235.45614 233.074592 
L 235.659117 233.877412 
L 235.760605 234.455894 
L 235.862093 233.794395 
L 235.963582 233.970027 
L 236.06507 233.362753 
L 236.268047 233.861097 
L 236.471024 233.426575 
L 236.572512 234.017054 
L 236.674 233.9969 
L 236.775489 234.256749 
L 236.876977 233.865655 
L 236.978466 233.952032 
L 237.181442 233.759364 
L 237.282931 233.9969 
L 237.485907 233.553981 
L 237.587396 233.615404 
L 237.688884 234.751733 
L 237.891861 233.833024 
L 237.993349 234.082556 
L 238.094838 233.766323 
L 238.196326 233.862776 
L 238.297814 234.160775 
L 238.399303 233.537185 
L 238.60228 233.965948 
L 238.703768 234.996227 
L 238.805256 234.155736 
L 238.906745 234.47053 
L 239.008233 233.66483 
L 239.21121 234.21668 
L 239.414187 233.937636 
L 239.617163 234.813876 
L 239.921628 234.848907 
L 240.226094 236.051698 
L 240.327582 235.829999 
L 240.42907 235.93533 
L 240.530559 235.82688 
L 240.632047 237.104771 
L 240.733535 236.418558 
L 240.835024 236.437753 
L 240.936512 236.388806 
L 241.038001 235.802406 
L 241.139489 235.875347 
L 241.240977 236.387847 
L 241.443954 235.398597 
L 241.545442 235.577588 
L 241.646931 236.551722 
L 241.849908 235.529121 
L 241.951396 234.999586 
L 242.052884 235.194413 
L 242.154373 234.857305 
L 242.255861 235.206649 
L 242.357349 234.827793 
L 242.560326 235.207129 
L 242.763303 234.718383 
L 242.864791 234.760851 
L 242.96628 234.060002 
L 243.067768 234.493804 
L 243.270745 234.316012 
L 243.372233 233.756485 
L 243.57521 234.134622 
L 243.676698 233.95851 
L 243.778187 233.37235 
L 243.879675 233.590211 
L 244.082652 233.130496 
L 244.18414 233.15281 
L 244.285629 232.133809 
L 244.590094 233.881011 
L 244.79307 232.957983 
L 244.894559 232.652547 
L 245.199024 233.723854 
L 245.300512 232.537138 
L 245.402001 233.284534 
L 245.503489 232.820261 
L 245.604977 233.913882 
L 245.706466 233.150891 
L 245.807954 233.37139 
L 245.909443 233.001651 
L 246.112419 233.478401 
L 246.315396 232.997813 
L 246.619861 233.770162 
L 246.72135 233.62908 
L 246.924326 232.946706 
L 247.025815 233.510313 
L 247.228791 233.015808 
L 247.533257 233.455128 
L 247.634745 233.755286 
L 247.93921 232.848093 
L 248.040698 233.323883 
L 248.142187 232.959183 
L 248.649629 233.471203 
L 248.852605 232.96974 
L 248.954094 232.880964 
L 249.157071 233.197438 
L 249.258559 232.6048 
L 249.461536 232.906637 
L 249.563024 233.480321 
L 249.664512 232.940468 
L 249.766001 233.093786 
L 249.867489 232.725967 
L 249.968978 232.904238 
L 250.070466 232.766996 
L 250.171954 232.333194 
L 250.374931 232.719249 
L 250.577908 233.33492 
L 250.679396 232.464918 
L 250.780885 232.617037 
L 250.983861 232.473316 
L 251.08535 232.558253 
L 251.389815 232.014321 
L 251.491303 233.129537 
L 251.795768 232.021039 
L 251.897257 232.445723 
L 251.998745 232.195712 
L 252.100233 232.598322 
L 252.201722 231.657779 
L 252.30321 232.153723 
L 252.404699 231.740556 
L 252.506187 232.964462 
L 252.709164 232.049112 
L 252.810652 231.640263 
L 252.91214 231.788783 
L 253.013629 232.376382 
L 253.115117 231.157275 
L 253.318094 232.107896 
L 253.521071 232.077424 
L 253.622559 231.934183 
L 253.724047 231.313233 
L 253.825536 231.347063 
L 254.028513 231.992007 
L 254.130001 231.026031 
L 254.231489 231.391691 
L 254.332978 231.113847 
L 254.434466 232.214426 
L 254.637443 231.36002 
L 254.941908 231.038748 
L 255.043396 231.463192 
L 255.144885 230.493617 
L 255.246373 231.161594 
L 255.347861 230.924299 
L 255.44935 231.601634 
L 255.753815 230.220091 
L 255.855303 231.038748 
L 255.956792 230.861676 
L 256.05828 230.377008 
L 256.159768 230.413238 
L 256.362745 230.784177 
L 256.464234 230.980444 
L 256.565722 230.878231 
L 256.66721 230.183381 
L 256.768699 230.66565 
L 256.870187 230.59031 
L 256.971675 230.719395 
L 257.073164 230.180502 
L 257.174652 230.431953 
L 257.276141 230.301429 
L 257.377629 231.974492 
L 257.580606 230.523848 
L 257.783582 230.529367 
L 257.986559 230.823047 
L 258.189536 230.355654 
L 258.291024 230.995319 
L 258.392513 230.973246 
L 258.494001 230.566317 
L 258.595489 230.823047 
L 258.696978 230.569436 
L 258.899955 230.778419 
L 259.001443 230.630619 
L 259.102931 230.249843 
L 259.305908 231.338426 
L 259.508885 230.711237 
L 259.610373 230.668769 
L 259.711862 230.766182 
L 259.81335 230.276236 
L 259.914838 231.06802 
L 260.117815 230.379648 
L 260.219303 230.635178 
L 260.320792 231.54141 
L 260.42228 230.666609 
L 260.523769 231.060342 
L 260.625257 230.307427 
L 260.726745 230.967727 
L 260.828234 230.863595 
L 260.929722 230.534885 
L 261.132699 230.598948 
L 261.335676 231.309634 
L 261.741629 230.544243 
L 261.843117 230.908703 
L 261.944606 230.217692 
L 262.046094 230.916861 
L 262.147583 230.711237 
L 262.249071 231.211021 
L 262.553536 230.380128 
L 262.655024 230.600387 
L 262.756513 231.144559 
L 262.858001 230.250563 
L 263.060978 230.806491 
L 263.162466 231.036588 
L 263.263955 230.886149 
L 263.365443 231.002278 
L 263.56842 230.614783 
L 263.669908 230.723954 
L 263.771397 231.06754 
L 263.872885 230.168745 
L 264.17735 231.740556 
L 264.278838 230.757305 
L 264.380327 230.893347 
L 264.481815 230.545922 
L 264.78628 230.825926 
L 264.887769 230.396683 
L 264.989257 231.084095 
L 265.090745 230.735231 
L 265.192234 231.347783 
L 265.395211 230.579273 
L 265.496699 230.521689 
L 265.699676 231.35882 
L 265.801164 230.455947 
L 266.004141 230.805531 
L 266.207118 231.272444 
L 266.308606 231.295478 
L 266.410094 230.519529 
L 266.714559 231.426002 
L 266.816048 229.96888 
L 267.019025 231.43416 
L 267.120513 231.631626 
L 267.222001 230.796174 
L 267.32349 231.657059 
L 267.424978 230.910143 
L 267.627955 231.24797 
L 267.830932 230.762583 
L 267.93242 232.428688 
L 268.033908 231.022912 
L 268.135397 231.426482 
L 268.338373 230.953571 
L 268.54135 231.463912 
L 268.642839 231.350423 
L 268.744327 232.321917 
L 268.947304 231.330508 
L 269.048792 231.503741 
L 269.15028 231.17575 
L 269.251769 231.867961 
L 269.454746 231.237653 
L 269.556234 231.291639 
L 269.657722 232.033516 
L 269.759211 231.384253 
L 269.860699 231.732638 
L 269.962187 231.235494 
L 270.165164 231.491264 
L 270.266653 230.892388 
L 270.368141 231.410166 
L 270.469629 231.076177 
L 270.571118 231.382814 
L 270.672606 232.159961 
L 270.875583 231.10281 
L 270.977071 230.907024 
L 271.180048 231.39553 
L 271.383025 230.976365 
L 271.586001 231.733598 
L 271.890467 230.635658 
L 271.991955 231.335547 
L 272.093443 231.17719 
L 272.194932 230.283434 
L 272.29642 232.075984 
L 272.397908 230.852558 
L 272.499397 231.189666 
L 272.600885 230.754905 
L 272.702374 231.134242 
L 273.006839 230.566317 
L 273.311304 231.196864 
L 273.717257 230.557919 
L 273.818746 230.984043 
L 273.920234 230.280315 
L 274.224699 231.239813 
L 274.529164 230.15051 
L 274.630653 230.876312 
L 274.833629 230.412759 
L 275.036606 230.378928 
L 275.138095 230.557679 
L 275.239583 231.244851 
L 275.44256 230.341018 
L 275.544048 230.068693 
L 275.645536 230.531526 
L 275.747025 230.380847 
L 275.848513 229.78581 
L 275.950002 230.359733 
L 276.05149 230.291592 
L 276.152978 230.964128 
L 276.254467 230.031983 
L 276.355955 230.22297 
L 276.457443 229.791088 
L 276.558932 230.345577 
L 276.964885 229.626493 
L 277.066374 230.468183 
L 277.26935 229.852272 
L 277.370839 229.921853 
L 277.573816 230.300949 
L 277.675304 229.56723 
L 277.878281 229.913695 
L 277.979769 229.654326 
L 278.081257 230.021905 
L 278.182746 229.119512 
L 278.487211 230.510892 
L 278.690188 229.544676 
L 278.791676 229.386799 
L 278.893164 229.53076 
L 278.994653 229.145665 
L 279.19763 229.520442 
L 279.299118 229.210687 
L 279.502095 229.812203 
L 279.705071 229.103916 
L 279.80656 229.095518 
L 280.009537 229.488771 
L 280.111025 228.598614 
L 280.41549 229.853711 
L 280.618467 228.899012 
L 280.719955 228.762729 
L 280.821444 229.129589 
L 281.02442 228.557105 
L 281.125909 228.672034 
L 281.328885 229.239239 
L 281.531862 228.594295 
L 281.633351 228.461852 
L 281.734839 228.98059 
L 281.937816 228.229115 
L 282.039304 228.397309 
L 282.242281 228.538151 
L 282.343769 229.132708 
L 282.546746 228.24759 
L 282.648234 228.470729 
L 282.749723 228.317891 
L 282.851211 228.50336 
L 282.952699 227.55178 
L 283.054188 228.204642 
L 283.155676 228.073877 
L 283.257165 228.662917 
L 283.358653 228.127863 
L 283.460141 228.534312 
L 283.56163 227.693341 
L 283.663118 227.816428 
L 283.764606 228.121864 
L 283.967583 227.608405 
L 284.17056 228.347883 
L 284.272048 227.871133 
L 284.373537 227.95319 
L 284.475025 227.397502 
L 284.678002 227.901605 
L 284.77949 228.015573 
L 284.880979 226.78231 
L 285.083955 227.517709 
L 285.185444 227.902804 
L 285.286932 227.793874 
L 285.591397 227.194278 
L 285.692886 227.62424 
L 285.794374 226.774872 
L 285.895862 226.975218 
L 286.098839 228.054443 
L 286.200327 226.890041 
L 286.301816 227.424135 
L 286.403304 226.394816 
L 286.606281 227.217311 
L 286.707769 226.676019 
L 286.910746 227.056315 
L 287.012234 227.000891 
L 287.215211 227.065673 
L 287.519676 226.494389 
L 287.621165 227.241545 
L 287.722653 225.769787 
L 287.824141 226.718968 
L 287.92563 226.324515 
L 288.027118 227.530906 
L 288.128607 226.456479 
L 288.230095 226.714649 
L 288.331583 226.031555 
L 288.53456 226.645308 
L 288.737537 225.893593 
L 288.940514 226.755917 
L 289.14349 226.216545 
L 289.346467 226.128249 
L 289.447955 225.928863 
L 289.549444 226.108334 
L 289.650932 225.540649 
L 289.853909 226.30628 
L 290.056886 225.982369 
L 290.158374 225.602073 
L 290.361351 226.044512 
L 290.462839 225.882556 
L 290.564328 225.223216 
L 290.665816 225.657737 
L 290.767304 225.526973 
L 290.868793 226.223743 
L 291.173258 225.306233 
L 291.477723 225.312712 
L 291.6807 225.297596 
L 291.782188 225.912308 
L 292.086653 224.957369 
L 292.28963 225.2808 
L 292.391118 225.242411 
L 292.492607 224.698 
L 292.797072 225.591036 
L 292.89856 225.080695 
L 293.000049 225.119564 
L 293.101537 224.704958 
L 293.203025 224.939134 
L 293.304514 224.816767 
L 293.406002 224.450147 
L 293.50749 224.928577 
L 293.608979 224.706877 
L 293.710467 225.256327 
L 293.811956 224.672567 
L 293.913444 224.730391 
L 294.014932 224.179021 
L 294.116421 225.033188 
L 294.319397 224.359692 
L 294.522374 224.207574 
L 294.623862 225.154115 
L 294.725351 225.022871 
L 294.928328 224.181901 
L 295.029816 224.07345 
L 295.232793 224.370489 
L 295.334281 223.594781 
L 295.537258 224.3321 
L 295.638746 224.608984 
L 295.841723 223.829197 
L 295.943211 224.280754 
L 296.146188 223.814321 
L 296.247676 223.392996 
L 296.349165 223.810002 
L 296.450653 223.577746 
L 296.552142 224.827324 
L 296.65363 223.628372 
L 296.755118 223.649486 
L 296.856607 223.776411 
L 296.958095 223.453939 
L 297.059583 223.624293 
L 297.161072 223.190491 
L 297.26256 223.298222 
L 297.364049 223.240158 
L 297.465537 224.223889 
L 297.668514 223.448181 
L 297.87149 223.000703 
L 298.074467 223.253354 
L 298.277444 222.94048 
L 298.378932 223.514643 
L 298.581909 222.896092 
L 298.683397 223.289824 
L 298.886374 222.637922 
L 298.987863 223.059487 
L 299.089351 221.967066 
L 299.190839 222.936881 
L 299.292328 222.883855 
L 299.393816 223.418909 
L 299.596793 222.510997 
L 299.698281 222.420542 
L 299.79977 222.496841 
L 299.901258 223.105555 
L 300.002746 221.937074 
L 300.104235 222.02249 
L 300.307211 223.210646 
L 300.4087 222.188285 
L 300.510188 222.525873 
L 300.611677 222.05944 
L 300.713165 222.259306 
L 300.916142 221.925557 
L 301.01763 221.445928 
L 301.220607 222.715421 
L 301.423584 221.911641 
L 301.525072 221.601166 
L 301.728049 221.938513 
L 301.829537 221.651792 
L 301.931025 221.696899 
L 302.032514 221.517188 
L 302.134002 222.039286 
L 302.235491 221.606444 
L 302.336979 222.217077 
L 302.539956 221.247502 
L 302.742932 221.527506 
L 302.844421 220.806743 
L 303.047398 221.543821 
L 303.148886 221.845179 
L 303.351863 220.966539 
L 303.453351 221.389063 
L 303.554839 221.18176 
L 303.656328 221.373468 
L 303.757816 220.446121 
L 303.859305 220.861688 
L 303.960793 220.717727 
L 304.062281 222.057761 
L 304.16377 221.001329 
L 304.265258 221.116738 
L 304.366746 220.317996 
L 304.569723 220.821379 
L 304.7727 220.605438 
L 304.874188 220.510903 
L 304.975677 221.331959 
L 305.178653 220.356146 
L 305.280142 220.689894 
L 305.584607 220.213385 
L 305.787584 220.028155 
L 305.889072 220.955982 
L 306.193537 219.926183 
L 306.396514 219.942978 
L 306.498002 220.361184 
L 306.599491 219.585716 
L 306.700979 220.056467 
L 306.903956 219.796379 
L 307.005444 219.49862 
L 307.106933 220.016398 
L 307.208421 219.834288 
L 307.309909 220.147643 
L 307.512886 219.434557 
L 307.715863 219.532451 
L 307.817351 220.067984 
L 307.91884 218.823924 
L 308.020328 219.375533 
L 308.121816 219.160072 
L 308.223305 220.252734 
L 308.426281 219.13176 
L 308.52777 219.179027 
L 308.629258 219.075855 
L 308.730747 219.456391 
L 308.832235 218.699638 
L 309.035212 218.962366 
L 309.1367 219.786781 
L 309.238188 218.653571 
L 309.339677 219.195103 
L 309.441165 218.793452 
L 309.644142 218.854876 
L 309.74563 218.384844 
L 309.948607 218.688841 
L 310.050095 219.631064 
L 310.253072 218.419155 
L 310.557537 218.385804 
L 310.659026 218.623339 
L 310.760514 218.111559 
L 310.862002 218.131713 
L 310.963491 219.249328 
L 311.064979 218.250961 
L 311.267956 218.462823 
L 311.470933 218.030701 
L 311.572421 217.782849 
L 311.673909 217.830356 
L 311.876886 218.643253 
L 312.079863 218.114918 
L 312.181351 217.688554 
L 312.28284 217.742779 
L 312.384328 217.985833 
L 312.587305 217.650405 
L 312.688793 217.610815 
L 312.790282 218.005508 
L 312.993258 217.983914 
L 313.196235 217.251154 
L 313.399212 217.617294 
L 313.5007 216.975709 
L 313.602189 217.609616 
L 313.703677 217.547713 
L 313.805165 217.541474 
L 313.906654 217.214204 
L 314.008142 217.399433 
L 314.10963 217.15326 
L 314.312607 217.281146 
L 314.414096 216.597092 
L 314.515584 216.728097 
L 314.718561 217.772051 
L 314.921537 216.595893 
L 315.023026 217.034253 
L 315.124514 216.797918 
L 315.226003 217.019377 
L 315.327491 216.343242 
L 315.631956 217.1535 
L 315.834933 216.685148 
L 316.03791 216.357638 
L 316.139398 216.610529 
L 316.240886 216.061559 
L 316.545351 217.165257 
L 316.64684 216.358118 
L 316.748328 216.398907 
L 316.849817 215.877049 
L 316.951305 215.943031 
L 317.052793 216.794319 
L 317.154282 215.677664 
L 317.25577 215.753003 
L 317.357258 216.011412 
L 317.458747 216.741293 
L 317.763212 215.283211 
L 317.8647 215.894804 
L 318.067677 215.682702 
L 318.270654 215.677184 
L 318.372142 216.286377 
L 318.575119 215.595126 
L 318.778096 215.351593 
L 318.879584 215.583369 
L 319.082561 215.256099 
L 319.184049 215.023362 
L 319.285538 216.450013 
L 319.387026 215.205233 
L 319.488514 215.477558 
L 319.691491 214.877242 
L 319.894468 215.285851 
L 319.995956 215.080947 
L 320.097445 214.561009 
L 320.198933 216.040924 
L 320.300421 214.744798 
L 320.40191 215.132532 
L 320.604886 214.485669 
L 320.706375 214.939865 
L 320.807863 214.830455 
L 320.909352 214.211904 
L 321.112328 215.382064 
L 321.213817 214.504384 
L 321.315305 214.585242 
L 321.518282 214.662981 
L 321.61977 214.698011 
L 321.721259 214.149041 
L 321.822747 214.274047 
L 321.924235 214.818458 
L 322.025724 214.561009 
L 322.127212 213.775943 
L 322.2287 214.398813 
L 322.330189 214.245015 
L 322.431677 214.852769 
L 322.533166 214.620272 
L 322.634654 213.959973 
L 322.736142 214.009159 
L 322.837631 214.26397 
L 323.040607 213.910066 
L 323.142096 214.107053 
L 323.243584 213.873356 
L 323.345073 214.768792 
L 323.548049 213.802096 
L 323.649538 214.173754 
L 323.751026 214.137284 
L 323.954003 213.376452 
L 324.055491 213.547525 
L 324.258468 214.521419 
L 324.461445 213.518253 
L 324.562933 213.387969 
L 324.76591 213.86088 
L 325.171863 213.16483 
L 325.37484 213.75099 
L 325.476328 212.576751 
L 325.679305 213.315989 
L 325.780794 213.809534 
L 325.98377 213.304232 
L 326.085259 212.98008 
L 326.288235 213.514894 
L 326.389724 212.672005 
L 326.491212 213.12644 
L 326.592701 212.68952 
L 326.694189 213.747631 
L 326.897166 212.523005 
L 326.998654 213.276399 
L 327.100142 212.897303 
L 327.201631 212.995436 
L 327.303119 212.108638 
L 327.404608 213.188583 
L 327.506096 212.507409 
L 327.607584 213.362536 
L 327.709073 212.978881 
L 327.810561 212.093283 
L 327.912049 213.281438 
L 328.013538 212.758381 
L 328.115026 212.838039 
L 328.216515 211.748257 
L 328.318003 212.79941 
L 328.419491 212.735587 
L 328.52098 212.095442 
L 328.825445 212.810927 
L 328.926933 212.516047 
L 329.028422 212.711594 
L 329.12991 211.824316 
L 329.231398 212.060891 
L 329.332887 212.941211 
L 329.434375 211.637407 
L 329.535863 211.841111 
L 329.73884 212.732948 
L 329.840329 211.871583 
L 330.043305 212.225487 
L 330.144794 211.849029 
L 330.246282 212.342575 
L 330.449259 211.171694 
L 330.652236 212.603383 
L 330.753724 211.669078 
L 330.855212 212.080566 
L 331.058189 211.595179 
L 331.261166 211.608135 
L 331.464143 211.384276 
L 331.565631 212.631216 
L 331.768608 211.425785 
L 331.971584 211.454817 
L 332.174561 211.064444 
L 332.27605 211.498965 
L 332.377538 211.164976 
L 332.479026 212.233404 
L 332.682003 210.933679 
L 332.783491 210.996302 
L 332.88498 211.600457 
L 333.087957 210.524831 
L 333.189445 211.284943 
L 333.290933 211.032292 
L 333.392422 211.731222 
L 333.696887 210.541387 
L 333.798375 211.275106 
L 333.899864 211.245114 
L 334.001352 210.294254 
L 334.204329 210.942077 
L 334.305817 211.312056 
L 334.508794 210.722777 
L 334.711771 210.618166 
L 334.813259 211.111711 
L 334.914747 209.984499 
L 335.219212 211.251113 
L 335.320701 210.2741 
L 335.422189 210.644078 
L 335.523678 210.408703 
L 335.726654 210.685827 
L 335.828143 209.83382 
L 335.929631 210.373192 
L 336.031119 210.263302 
L 336.132608 211.098754 
L 336.335585 209.459282 
L 336.437073 210.832427 
L 336.944515 209.647631 
L 337.046003 210.610728 
L 337.147492 209.830461 
L 337.24898 209.879407 
L 337.350468 210.524111 
L 337.451957 210.312249 
L 337.553445 209.744084 
L 337.654933 209.802628 
L 337.756422 209.879647 
L 337.85791 209.568932 
L 337.959399 209.962185 
L 338.162375 209.740725 
L 338.263864 209.891644 
L 338.365352 210.300012 
L 338.568329 209.159604 
L 338.669817 209.738806 
L 338.771306 209.682421 
L 338.872794 209.165362 
L 339.075771 209.776236 
L 339.278747 209.635154 
L 339.380236 209.856374 
L 339.481724 208.693891 
L 339.684701 209.57829 
L 339.786189 208.960458 
L 339.887678 209.037237 
L 339.989166 209.568452 
L 340.192143 209.346993 
L 340.293631 209.54158 
L 340.496608 208.675416 
L 340.699585 209.226786 
L 340.801073 208.62407 
L 340.902561 208.80714 
L 341.00405 209.512308 
L 341.410003 208.341427 
L 341.61298 209.02812 
L 341.714468 208.247853 
L 341.815957 208.428764 
L 341.917445 209.683381 
L 342.120422 208.232977 
L 342.323399 208.608235 
L 342.526375 208.299679 
L 342.627864 208.154518 
L 342.729352 208.336149 
L 342.830841 209.153846 
L 343.135306 207.532368 
L 343.236794 208.464514 
L 343.338282 208.430443 
L 343.439771 207.734393 
L 343.744236 208.412448 
L 343.845724 207.822209 
L 343.947213 208.573204 
L 344.048701 207.407842 
L 344.150189 207.475264 
L 344.251678 208.656461 
L 344.353166 207.292434 
L 344.657631 208.654542 
L 344.75912 207.253565 
L 344.962096 207.78334 
L 345.063585 207.436875 
L 345.165073 207.795097 
L 345.36805 207.206058 
L 345.469538 207.249246 
L 345.571027 208.326312 
L 345.774003 206.954606 
L 345.875492 207.472145 
L 346.078469 207.284036 
L 346.179957 206.824802 
L 346.281445 207.084891 
L 346.382934 206.992036 
L 346.484422 207.728875 
L 346.58591 207.497578 
L 346.788887 206.630695 
L 346.991864 207.533808 
L 347.093352 206.090602 
L 347.296329 207.115602 
L 347.803771 206.378284 
L 347.905259 206.782333 
L 348.108236 206.509528 
L 348.311213 206.839678 
L 348.412701 206.301745 
L 348.615678 206.57623 
L 348.818655 205.98863 
L 348.920143 206.524884 
L 349.021631 206.09948 
L 349.224608 206.517446 
L 349.326097 206.233843 
L 349.427585 205.226598 
L 349.529073 206.293107 
L 349.630562 205.88066 
L 349.73205 206.002066 
L 349.935027 205.521958 
L 350.036515 206.577429 
L 350.138004 205.610493 
L 350.239492 206.153225 
L 350.34098 205.131584 
L 350.442469 205.180291 
L 350.543957 206.13403 
L 350.746934 204.887091 
L 350.949911 206.13403 
L 351.051399 205.275305 
L 351.152887 205.531555 
L 351.254376 204.823508 
L 351.355864 205.355203 
L 351.558841 204.840784 
L 351.660329 205.369359 
L 351.761818 204.931479 
L 351.863306 205.874421 
L 352.066283 204.538226 
L 352.269259 205.042569 
L 352.370748 204.772162 
L 352.472236 204.151452 
L 352.675213 205.143581 
L 352.87819 204.871975 
L 353.081166 204.163689 
L 353.284143 204.92644 
L 353.385632 203.774515 
L 353.690097 204.971068 
L 353.791585 204.054518 
L 353.893073 204.317966 
L 354.09605 203.595524 
L 354.299027 204.324685 
L 354.400515 203.804987 
L 354.603492 204.648596 
L 354.806469 203.558814 
L 354.907957 203.959984 
L 355.110934 203.165561 
L 355.212422 203.899761 
L 355.313911 203.68118 
L 355.415399 204.005572 
L 355.516887 203.494991 
L 355.618376 204.152172 
L 355.719864 203.076546 
L 355.821353 203.53794 
L 356.024329 203.300164 
L 356.227306 203.072947 
L 356.328794 203.856093 
L 356.430283 203.164362 
L 356.531771 203.86473 
L 356.63326 202.832532 
L 356.734748 202.976973 
L 356.836236 203.602002 
L 356.937725 202.447197 
L 357.24219 203.796349 
L 357.343678 202.520857 
L 357.546655 203.258176 
L 357.648143 202.517258 
L 357.749632 202.940263 
L 357.952608 202.642024 
L 358.054097 202.578682 
L 358.155585 203.224105 
L 358.358562 202.116808 
L 358.561539 202.84213 
L 358.663027 202.666737 
L 358.764515 201.902546 
L 358.866004 202.753354 
L 358.967492 202.559487 
L 359.068981 201.572876 
L 359.170469 202.629308 
L 359.271957 202.150878 
L 359.373446 202.626429 
L 359.474934 202.25357 
L 359.576422 202.380976 
L 359.779399 201.756666 
L 359.880888 202.337547 
L 359.982376 201.472584 
L 360.083864 202.332989 
L 360.185353 201.952932 
L 360.286841 202.375217 
L 360.489818 201.644857 
L 360.692795 201.884791 
L 360.895771 201.286874 
L 360.99726 201.619664 
L 361.098748 202.62019 
L 361.301725 201.652055 
L 361.504702 201.349977 
L 361.60619 201.727394 
L 361.707678 201.243926 
L 361.809167 201.454829 
L 361.910655 201.075732 
L 362.012143 202.10841 
L 362.113632 201.516972 
L 362.21512 201.658293 
L 362.316609 201.087489 
L 362.519585 201.314707 
L 362.621074 201.256643 
L 362.82405 201.038782 
L 362.925539 201.734112 
L 363.027027 201.357655 
L 363.128516 201.498017 
L 363.230004 200.79045 
L 363.534469 201.402523 
L 363.737446 200.765017 
L 363.838934 201.104284 
L 363.940423 200.700475 
L 364.041911 201.480022 
L 364.143399 200.467258 
L 364.244888 200.724708 
L 364.346376 201.353576 
L 364.447864 200.882345 
L 364.549353 201.407082 
L 364.650841 200.524363 
L 364.75233 200.833398 
L 364.853818 200.393598 
L 365.056795 200.762858 
L 365.158283 200.747262 
L 365.259771 201.639578 
L 365.36126 200.575229 
L 365.462748 200.700954 
L 365.564237 200.560353 
L 365.767213 200.808925 
L 365.868702 199.868382 
L 365.97019 201.443312 
L 366.071678 200.449983 
L 366.173167 200.667843 
L 366.376144 200.312501 
L 366.477632 200.380882 
L 366.57912 201.403003 
L 366.782097 200.159662 
L 366.985074 200.674802 
L 367.086562 201.022707 
L 367.188051 199.672835 
L 367.289539 200.493411 
L 367.391027 200.446864 
L 367.492516 200.933211 
L 367.695492 200.219406 
L 367.796981 200.257795 
L 367.898469 200.114555 
L 368.101446 200.268593 
L 368.202934 200.27771 
L 368.304423 200.704793 
L 368.405911 200.153424 
L 368.507399 200.90034 
L 368.710376 199.670916 
L 368.811865 200.595143 
L 368.913353 200.258995 
L 369.014841 199.442738 
L 369.11633 201.196419 
L 369.319306 199.464092 
L 369.420795 201.092527 
L 369.522283 199.788724 
L 369.623772 200.449503 
L 369.826748 199.591258 
L 369.928237 200.849714 
L 370.029725 199.340286 
L 370.131213 200.358328 
L 370.232702 200.207649 
L 370.33419 199.265427 
L 370.435679 201.462027 
L 370.537167 199.32757 
L 370.638655 200.475656 
L 370.740144 200.070407 
L 370.841632 199.045647 
L 370.94312 201.349737 
L 371.146097 199.54567 
L 371.247586 200.677681 
L 371.349074 199.513039 
L 371.450562 200.759019 
L 371.653539 198.914402 
L 371.755027 200.75398 
L 371.856516 199.780086 
L 372.059493 200.082643 
L 372.160981 199.444178 
L 372.262469 200.652728 
L 372.363958 199.639964 
L 372.465446 199.697069 
L 372.566934 200.403196 
L 372.668423 198.758685 
L 372.769911 200.660885 
L 372.8714 200.319459 
L 372.972888 199.090994 
L 373.074376 200.763817 
L 373.175865 199.455455 
L 373.277353 200.524363 
L 373.48033 198.830185 
L 373.581818 200.980958 
L 373.581818 200.980958 
" style="fill:none;stroke:#081d58;stroke-dasharray:5.55,2.4;stroke-dashoffset:0;stroke-width:1.5;"/>
    <defs>
     <path d="M -0 4.242641 
L 4.242641 0 
L 0 -4.242641 
L -4.242641 -0 
z
" id="m31ff6ed58a" style="stroke:#081d58;stroke-linejoin:miter;"/>
    </defs>
    <g clip-path="url(#pf022e402b1)">
     <use style="fill:#081d58;stroke:#081d58;stroke-linejoin:miter;" x="69.218182" xlink:href="#m31ff6ed58a" y="48.980797"/>
     <use style="fill:#081d58;stroke:#081d58;stroke-linejoin:miter;" x="77.337252" xlink:href="#m31ff6ed58a" y="49.521609"/>
     <use style="fill:#081d58;stroke:#081d58;stroke-linejoin:miter;" x="85.456322" xlink:href="#m31ff6ed58a" y="48.259794"/>
     <use style="fill:#081d58;stroke:#081d58;stroke-linejoin:miter;" x="93.575392" xlink:href="#m31ff6ed58a" y="49.324623"/>
     <use style="fill:#081d58;stroke:#081d58;stroke-linejoin:miter;" x="101.694462" xlink:href="#m31ff6ed58a" y="55.096726"/>
     <use style="fill:#081d58;stroke:#081d58;stroke-linejoin:miter;" x="109.813532" xlink:href="#m31ff6ed58a" y="54.956845"/>
     <use style="fill:#081d58;stroke:#081d58;stroke-linejoin:miter;" x="117.932602" xlink:href="#m31ff6ed58a" y="57.549576"/>
     <use style="fill:#081d58;stroke:#081d58;stroke-linejoin:miter;" x="126.051672" xlink:href="#m31ff6ed58a" y="58.018648"/>
     <use style="fill:#081d58;stroke:#081d58;stroke-linejoin:miter;" x="134.170742" xlink:href="#m31ff6ed58a" y="61.806974"/>
     <use style="fill:#081d58;stroke:#081d58;stroke-linejoin:miter;" x="142.289812" xlink:href="#m31ff6ed58a" y="68.503544"/>
     <use style="fill:#081d58;stroke:#081d58;stroke-linejoin:miter;" x="150.408882" xlink:href="#m31ff6ed58a" y="84.190939"/>
     <use style="fill:#081d58;stroke:#081d58;stroke-linejoin:miter;" x="158.527952" xlink:href="#m31ff6ed58a" y="111.506758"/>
     <use style="fill:#081d58;stroke:#081d58;stroke-linejoin:miter;" x="166.647022" xlink:href="#m31ff6ed58a" y="160.799374"/>
     <use style="fill:#081d58;stroke:#081d58;stroke-linejoin:miter;" x="174.766092" xlink:href="#m31ff6ed58a" y="213.227213"/>
     <use style="fill:#081d58;stroke:#081d58;stroke-linejoin:miter;" x="182.885162" xlink:href="#m31ff6ed58a" y="228.317171"/>
     <use style="fill:#081d58;stroke:#081d58;stroke-linejoin:miter;" x="191.004232" xlink:href="#m31ff6ed58a" y="234.829472"/>
     <use style="fill:#081d58;stroke:#081d58;stroke-linejoin:miter;" x="199.123302" xlink:href="#m31ff6ed58a" y="235.588865"/>
     <use style="fill:#081d58;stroke:#081d58;stroke-linejoin:miter;" x="207.242372" xlink:href="#m31ff6ed58a" y="235.449223"/>
     <use style="fill:#081d58;stroke:#081d58;stroke-linejoin:miter;" x="215.361442" xlink:href="#m31ff6ed58a" y="235.38636"/>
     <use style="fill:#081d58;stroke:#081d58;stroke-linejoin:miter;" x="223.480512" xlink:href="#m31ff6ed58a" y="236.189181"/>
     <use style="fill:#081d58;stroke:#081d58;stroke-linejoin:miter;" x="231.599582" xlink:href="#m31ff6ed58a" y="233.874053"/>
     <use style="fill:#081d58;stroke:#081d58;stroke-linejoin:miter;" x="239.718652" xlink:href="#m31ff6ed58a" y="234.788443"/>
     <use style="fill:#081d58;stroke:#081d58;stroke-linejoin:miter;" x="247.837722" xlink:href="#m31ff6ed58a" y="233.267259"/>
     <use style="fill:#081d58;stroke:#081d58;stroke-linejoin:miter;" x="255.956792" xlink:href="#m31ff6ed58a" y="230.861676"/>
     <use style="fill:#081d58;stroke:#081d58;stroke-linejoin:miter;" x="264.075862" xlink:href="#m31ff6ed58a" y="230.757065"/>
     <use style="fill:#081d58;stroke:#081d58;stroke-linejoin:miter;" x="272.194932" xlink:href="#m31ff6ed58a" y="230.283434"/>
     <use style="fill:#081d58;stroke:#081d58;stroke-linejoin:miter;" x="280.314002" xlink:href="#m31ff6ed58a" y="229.130789"/>
     <use style="fill:#081d58;stroke:#081d58;stroke-linejoin:miter;" x="288.433072" xlink:href="#m31ff6ed58a" y="226.500147"/>
     <use style="fill:#081d58;stroke:#081d58;stroke-linejoin:miter;" x="296.552142" xlink:href="#m31ff6ed58a" y="224.827324"/>
     <use style="fill:#081d58;stroke:#081d58;stroke-linejoin:miter;" x="304.671212" xlink:href="#m31ff6ed58a" y="220.628951"/>
     <use style="fill:#081d58;stroke:#081d58;stroke-linejoin:miter;" x="312.790282" xlink:href="#m31ff6ed58a" y="218.005508"/>
     <use style="fill:#081d58;stroke:#081d58;stroke-linejoin:miter;" x="320.909352" xlink:href="#m31ff6ed58a" y="214.211904"/>
     <use style="fill:#081d58;stroke:#081d58;stroke-linejoin:miter;" x="329.028422" xlink:href="#m31ff6ed58a" y="212.711594"/>
     <use style="fill:#081d58;stroke:#081d58;stroke-linejoin:miter;" x="337.147492" xlink:href="#m31ff6ed58a" y="209.830461"/>
     <use style="fill:#081d58;stroke:#081d58;stroke-linejoin:miter;" x="345.266562" xlink:href="#m31ff6ed58a" y="207.313068"/>
     <use style="fill:#081d58;stroke:#081d58;stroke-linejoin:miter;" x="353.385632" xlink:href="#m31ff6ed58a" y="203.774515"/>
     <use style="fill:#081d58;stroke:#081d58;stroke-linejoin:miter;" x="361.504702" xlink:href="#m31ff6ed58a" y="201.349977"/>
     <use style="fill:#081d58;stroke:#081d58;stroke-linejoin:miter;" x="369.623772" xlink:href="#m31ff6ed58a" y="200.449503"/>
    </g>
   </g>
   <g id="patch_3">
    <path d="M 54 252 
L 54 34.56 
" style="fill:none;stroke:#000000;stroke-linecap:square;stroke-linejoin:miter;stroke-width:0.8;"/>
   </g>
   <g id="patch_4">
    <path d="M 388.8 252 
L 388.8 34.56 
" style="fill:none;stroke:#000000;stroke-linecap:square;stroke-linejoin:miter;stroke-width:0.8;"/>
   </g>
   <g id="patch_5">
    <path d="M 54 252 
L 388.8 252 
" style="fill:none;stroke:#000000;stroke-linecap:square;stroke-linejoin:miter;stroke-width:0.8;"/>
   </g>
   <g id="patch_6">
    <path d="M 54 34.56 
L 388.8 34.56 
" style="fill:none;stroke:#000000;stroke-linecap:square;stroke-linejoin:miter;stroke-width:0.8;"/>
   </g>
   <g id="legend_1">
    <g id="patch_7">
     <path d="M 280.085938 71.91625 
L 381.8 71.91625 
Q 383.8 71.91625 383.8 69.91625 
L 383.8 41.56 
Q 383.8 39.56 381.8 39.56 
L 280.085938 39.56 
Q 278.085938 39.56 278.085938 41.56 
L 278.085938 69.91625 
Q 278.085938 71.91625 280.085938 71.91625 
z
" style="fill:#ffffff;opacity:0.8;stroke:#cccccc;stroke-linejoin:miter;"/>
    </g>
    <g id="line2d_17">
     <path d="M 282.085938 47.658437 
L 302.085938 47.658437 
" style="fill:none;stroke:#40b5c4;stroke-dasharray:5.55,2.4;stroke-dashoffset:0;stroke-width:1.5;"/>
    </g>
    <g id="line2d_18">
     <g>
      <use style="fill:#40b5c4;stroke:#40b5c4;" x="292.085938" xlink:href="#m3a3d5d5198" y="47.658437"/>
     </g>
    </g>
    <g id="text_17">
     <text style="font-family:DejaVu Sans;font-size:10px;font-style:normal;font-weight:normal;text-anchor:start;" transform="rotate(-0, 310.085938, 51.158437)" x="310.085938" y="51.158437">original</text>
    </g>
    <g id="line2d_19">
     <path d="M 282.085938 62.336562 
L 302.085938 62.336562 
" style="fill:none;stroke:#081d58;stroke-dasharray:5.55,2.4;stroke-dashoffset:0;stroke-width:1.5;"/>
    </g>
    <g id="line2d_20">
     <g>
      <use style="fill:#081d58;stroke:#081d58;stroke-linejoin:miter;" x="292.085938" xlink:href="#m31ff6ed58a" y="62.336562"/>
     </g>
    </g>
    <g id="text_18">
     <text style="font-family:DejaVu Sans;font-size:10px;font-style:normal;font-weight:normal;text-anchor:start;" transform="rotate(-0, 310.085938, 65.836562)" x="310.085938" y="65.836562">reconstructed</text>
    </g>
   </g>
  </g>
  <g id="text_19">
   <text style="font-family:DejaVu Sans;font-size:12px;font-style:normal;font-weight:normal;text-anchor:middle;" transform="rotate(-0, 216, 14.878125)" x="216" y="14.878125">Reconstruction of the weight curve</text>
  </g>
 </g>
 <defs>
  <clipPath id="pf022e402b1">
   <rect height="217.44" width="334.8" x="54" y="34.56"/>
  </clipPath>
 </defs>
</svg>
