<?xml version="1.0" encoding="utf-8" standalone="no"?>
<!DOCTYPE svg PUBLIC "-//W3C//DTD SVG 1.1//EN"
  "http://www.w3.org/Graphics/SVG/1.1/DTD/svg11.dtd">
<!-- Created with matplotlib (https://matplotlib.org/) -->
<svg height="288pt" version="1.1" viewBox="0 0 432 288" width="432pt" xmlns="http://www.w3.org/2000/svg" xmlns:xlink="http://www.w3.org/1999/xlink">
 <defs>
  <style type="text/css">
*{stroke-linecap:butt;stroke-linejoin:round;}
  </style>
 </defs>
 <g id="figure_1">
  <g id="patch_1">
   <path d="M 0 288 
L 432 288 
L 432 0 
L 0 0 
z
" style="fill:#ffffff;"/>
  </g>
  <g id="axes_1">
   <g id="patch_2">
    <path d="M 54 252 
L 388.8 252 
L 388.8 34.56 
L 54 34.56 
z
" style="fill:#ffffff;"/>
   </g>
   <g id="matplotlib.axis_1">
    <g id="xtick_1">
     <g id="line2d_1">
      <defs>
       <path d="M 0 0 
L 0 3.5 
" id="m889a290206" style="stroke:#000000;stroke-width:0.8;"/>
      </defs>
      <g>
       <use style="stroke:#000000;stroke-width:0.8;" x="69.218182" xlink:href="#m889a290206" y="252"/>
      </g>
     </g>
     <g id="text_1">
      <text style="font-family:DejaVu Sans;font-size:10px;font-style:normal;font-weight:normal;text-anchor:middle;" transform="rotate(-0, 69.218182, 266.598437)" x="69.218182" y="266.598437">0</text>
     </g>
    </g>
    <g id="xtick_2">
     <g id="line2d_2">
      <g>
       <use style="stroke:#000000;stroke-width:0.8;" x="119.962369" xlink:href="#m889a290206" y="252"/>
      </g>
     </g>
     <g id="text_2">
      <text style="font-family:DejaVu Sans;font-size:10px;font-style:normal;font-weight:normal;text-anchor:middle;" transform="rotate(-0, 119.962369, 266.598437)" x="119.962369" y="266.598437">500</text>
     </g>
    </g>
    <g id="xtick_3">
     <g id="line2d_3">
      <g>
       <use style="stroke:#000000;stroke-width:0.8;" x="170.706557" xlink:href="#m889a290206" y="252"/>
      </g>
     </g>
     <g id="text_3">
      <text style="font-family:DejaVu Sans;font-size:10px;font-style:normal;font-weight:normal;text-anchor:middle;" transform="rotate(-0, 170.706557, 266.598437)" x="170.706557" y="266.598437">1000</text>
     </g>
    </g>
    <g id="xtick_4">
     <g id="line2d_4">
      <g>
       <use style="stroke:#000000;stroke-width:0.8;" x="221.450744" xlink:href="#m889a290206" y="252"/>
      </g>
     </g>
     <g id="text_4">
      <text style="font-family:DejaVu Sans;font-size:10px;font-style:normal;font-weight:normal;text-anchor:middle;" transform="rotate(-0, 221.450744, 266.598437)" x="221.450744" y="266.598437">1500</text>
     </g>
    </g>
    <g id="xtick_5">
     <g id="line2d_5">
      <g>
       <use style="stroke:#000000;stroke-width:0.8;" x="272.194932" xlink:href="#m889a290206" y="252"/>
      </g>
     </g>
     <g id="text_5">
      <text style="font-family:DejaVu Sans;font-size:10px;font-style:normal;font-weight:normal;text-anchor:middle;" transform="rotate(-0, 272.194932, 266.598437)" x="272.194932" y="266.598437">2000</text>
     </g>
    </g>
    <g id="xtick_6">
     <g id="line2d_6">
      <g>
       <use style="stroke:#000000;stroke-width:0.8;" x="322.939119" xlink:href="#m889a290206" y="252"/>
      </g>
     </g>
     <g id="text_6">
      <text style="font-family:DejaVu Sans;font-size:10px;font-style:normal;font-weight:normal;text-anchor:middle;" transform="rotate(-0, 322.939119, 266.598437)" x="322.939119" y="266.598437">2500</text>
     </g>
    </g>
    <g id="xtick_7">
     <g id="line2d_7">
      <g>
       <use style="stroke:#000000;stroke-width:0.8;" x="373.683307" xlink:href="#m889a290206" y="252"/>
      </g>
     </g>
     <g id="text_7">
      <text style="font-family:DejaVu Sans;font-size:10px;font-style:normal;font-weight:normal;text-anchor:middle;" transform="rotate(-0, 373.683307, 266.598437)" x="373.683307" y="266.598437">3000</text>
     </g>
    </g>
    <g id="text_8">
     <text style="font-family:DejaVu Sans;font-size:10px;font-style:normal;font-weight:normal;text-anchor:middle;" transform="rotate(-0, 221.4, 280.276563)" x="221.4" y="280.276563">Time</text>
    </g>
   </g>
   <g id="matplotlib.axis_2">
    <g id="ytick_1">
     <g id="line2d_8">
      <defs>
       <path d="M 0 0 
L -3.5 0 
" id="macf94d9fca" style="stroke:#000000;stroke-width:0.8;"/>
      </defs>
      <g>
       <use style="stroke:#000000;stroke-width:0.8;" x="54" xlink:href="#macf94d9fca" y="250.046069"/>
      </g>
     </g>
     <g id="text_9">
      <text style="font-family:DejaVu Sans;font-size:10px;font-style:normal;font-weight:normal;text-anchor:end;" transform="rotate(-0, 47, 253.845287)" x="47" y="253.845287">−10</text>
     </g>
    </g>
    <g id="ytick_2">
     <g id="line2d_9">
      <g>
       <use style="stroke:#000000;stroke-width:0.8;" x="54" xlink:href="#macf94d9fca" y="210.147037"/>
      </g>
     </g>
     <g id="text_10">
      <text style="font-family:DejaVu Sans;font-size:10px;font-style:normal;font-weight:normal;text-anchor:end;" transform="rotate(-0, 47, 213.946256)" x="47" y="213.946256">−8</text>
     </g>
    </g>
    <g id="ytick_3">
     <g id="line2d_10">
      <g>
       <use style="stroke:#000000;stroke-width:0.8;" x="54" xlink:href="#macf94d9fca" y="170.248006"/>
      </g>
     </g>
     <g id="text_11">
      <text style="font-family:DejaVu Sans;font-size:10px;font-style:normal;font-weight:normal;text-anchor:end;" transform="rotate(-0, 47, 174.047225)" x="47" y="174.047225">−6</text>
     </g>
    </g>
    <g id="ytick_4">
     <g id="line2d_11">
      <g>
       <use style="stroke:#000000;stroke-width:0.8;" x="54" xlink:href="#macf94d9fca" y="130.348975"/>
      </g>
     </g>
     <g id="text_12">
      <text style="font-family:DejaVu Sans;font-size:10px;font-style:normal;font-weight:normal;text-anchor:end;" transform="rotate(-0, 47, 134.148194)" x="47" y="134.148194">−4</text>
     </g>
    </g>
    <g id="ytick_5">
     <g id="line2d_12">
      <g>
       <use style="stroke:#000000;stroke-width:0.8;" x="54" xlink:href="#macf94d9fca" y="90.449944"/>
      </g>
     </g>
     <g id="text_13">
      <text style="font-family:DejaVu Sans;font-size:10px;font-style:normal;font-weight:normal;text-anchor:end;" transform="rotate(-0, 47, 94.249163)" x="47" y="94.249163">−2</text>
     </g>
    </g>
    <g id="ytick_6">
     <g id="line2d_13">
      <g>
       <use style="stroke:#000000;stroke-width:0.8;" x="54" xlink:href="#macf94d9fca" y="50.550913"/>
      </g>
     </g>
     <g id="text_14">
      <text style="font-family:DejaVu Sans;font-size:10px;font-style:normal;font-weight:normal;text-anchor:end;" transform="rotate(-0, 47, 54.350132)" x="47" y="54.350132">0</text>
     </g>
    </g>
    <g id="text_15">
     <text style="font-family:DejaVu Sans;font-size:10px;font-style:normal;font-weight:normal;text-anchor:middle;" transform="rotate(-90, 19.815625, 143.28)" x="19.815625" y="143.28">temperature (°C)</text>
    </g>
   </g>
   <g id="line2d_14">
    <path clip-path="url(#pc10b13a0b7)" d="M 69.218182 46.905181 
L 71.85688 46.272261 
L 72.871763 46.247595 
L 73.68367 46.422058 
L 74.495577 46.825345 
L 75.307484 47.494925 
L 76.119391 48.462777 
L 77.032787 49.926082 
L 78.04767 52.017776 
L 79.164043 54.874221 
L 80.483391 58.92501 
L 82.005717 64.388194 
L 84.035485 72.627127 
L 87.993531 89.999903 
L 91.038182 102.914741 
L 93.270927 111.424945 
L 95.097717 117.55559 
L 96.620043 121.981071 
L 98.04088 125.481333 
L 99.360229 128.214816 
L 100.57809 130.24853 
L 101.694462 131.709353 
L 102.810834 132.803943 
L 103.927206 133.574553 
L 104.94209 134.033751 
L 105.956974 134.273524 
L 106.971857 134.29102 
L 108.189718 134.082846 
L 109.509067 133.621055 
L 111.234369 132.785689 
L 113.264137 131.53667 
L 121.18023 126.389834 
L 123.311486 125.380229 
L 125.54423 124.601699 
L 127.675486 124.115071 
L 129.400788 123.935525 
L 131.024602 123.981489 
L 132.851393 124.260044 
L 134.576695 124.746832 
L 136.403486 125.503398 
L 138.230277 126.484754 
L 139.752602 127.538807 
L 141.17344 128.795586 
L 142.695765 130.477091 
L 144.218091 132.497438 
L 145.740417 134.900098 
L 147.161254 137.585722 
L 148.480603 140.590777 
L 149.799951 144.148534 
L 151.322277 148.9196 
L 153.250556 155.762663 
L 157.513068 171.158023 
L 160.557719 182.516559 
L 162.38451 190.295554 
L 164.008324 198.396553 
L 168.169347 219.795421 
L 168.981254 222.635454 
L 169.590185 224.096976 
L 170.097626 224.769593 
L 170.402092 224.905769 
L 170.706557 224.82238 
L 171.011022 224.505542 
L 171.416975 223.698424 
L 171.924417 222.04848 
L 172.533347 219.116759 
L 173.243766 214.409212 
L 174.157161 206.574518 
L 175.47651 192.874148 
L 178.521162 160.823077 
L 180.144976 146.266973 
L 181.667301 134.471782 
L 183.189627 124.32083 
L 184.711952 115.612887 
L 186.234278 108.15502 
L 187.756604 101.762975 
L 189.278929 96.286115 
L 190.902743 91.274398 
L 192.526557 87.011984 
L 194.150371 83.354121 
L 195.875674 80.014393 
L 197.702464 76.982824 
L 199.529255 74.370336 
L 201.356046 72.10022 
L 203.385813 69.908575 
L 205.618558 67.830489 
L 207.851302 66.043448 
L 210.287023 64.36717 
L 212.925721 62.821946 
L 215.868884 61.365933 
L 219.116512 60.020278 
L 222.770093 58.771055 
L 226.72814 57.656855 
L 254.028513 50.813709 
L 264.278838 48.520041 
L 273.006839 46.797085 
L 277.370839 46.069025 
L 283.054188 45.292488 
L 287.215211 44.883631 
L 293.710467 44.480902 
L 299.393816 44.472172 
L 309.847119 44.815288 
L 321.112328 45.305396 
L 329.332887 45.590931 
L 333.189445 46.000012 
L 336.741538 46.60436 
L 340.699585 47.496471 
L 347.600794 49.358755 
L 352.066283 50.43356 
L 355.922841 51.116328 
L 359.779399 51.581512 
L 364.041911 51.874358 
L 369.928237 52.069753 
L 373.581818 52.072546 
L 373.581818 52.072546 
" style="fill:none;stroke:#40b5c4;stroke-dasharray:5.55,2.4;stroke-dashoffset:0;stroke-width:1.5;"/>
    <defs>
     <path d="M 0 3 
C 0.795609 3 1.55874 2.683901 2.12132 2.12132 
C 2.683901 1.55874 3 0.795609 3 0 
C 3 -0.795609 2.683901 -1.55874 2.12132 -2.12132 
C 1.55874 -2.683901 0.795609 -3 0 -3 
C -0.795609 -3 -1.55874 -2.683901 -2.12132 -2.12132 
C -2.683901 -1.55874 -3 -0.795609 -3 0 
C -3 0.795609 -2.683901 1.55874 -2.12132 2.12132 
C -1.55874 2.683901 -0.795609 3 0 3 
z
" id="m180e9ff35a" style="stroke:#40b5c4;"/>
    </defs>
    <g clip-path="url(#pc10b13a0b7)">
     <use style="fill:#40b5c4;stroke:#40b5c4;" x="69.218182" xlink:href="#m180e9ff35a" y="46.905181"/>
     <use style="fill:#40b5c4;stroke:#40b5c4;" x="77.337252" xlink:href="#m180e9ff35a" y="50.50209"/>
     <use style="fill:#40b5c4;stroke:#40b5c4;" x="85.456322" xlink:href="#m180e9ff35a" y="78.789034"/>
     <use style="fill:#40b5c4;stroke:#40b5c4;" x="93.575392" xlink:href="#m180e9ff35a" y="112.503535"/>
     <use style="fill:#40b5c4;stroke:#40b5c4;" x="101.694462" xlink:href="#m180e9ff35a" y="131.709353"/>
     <use style="fill:#40b5c4;stroke:#40b5c4;" x="109.813532" xlink:href="#m180e9ff35a" y="133.490226"/>
     <use style="fill:#40b5c4;stroke:#40b5c4;" x="117.932602" xlink:href="#m180e9ff35a" y="128.330284"/>
     <use style="fill:#40b5c4;stroke:#40b5c4;" x="126.051672" xlink:href="#m180e9ff35a" y="124.463828"/>
     <use style="fill:#40b5c4;stroke:#40b5c4;" x="134.170742" xlink:href="#m180e9ff35a" y="124.61343"/>
     <use style="fill:#40b5c4;stroke:#40b5c4;" x="142.289812" xlink:href="#m180e9ff35a" y="129.995111"/>
     <use style="fill:#40b5c4;stroke:#40b5c4;" x="150.408882" xlink:href="#m180e9ff35a" y="145.977865"/>
     <use style="fill:#40b5c4;stroke:#40b5c4;" x="158.527952" xlink:href="#m180e9ff35a" y="174.828295"/>
     <use style="fill:#40b5c4;stroke:#40b5c4;" x="166.647022" xlink:href="#m180e9ff35a" y="212.632508"/>
     <use style="fill:#40b5c4;stroke:#40b5c4;" x="174.766092" xlink:href="#m180e9ff35a" y="200.481796"/>
     <use style="fill:#40b5c4;stroke:#40b5c4;" x="182.885162" xlink:href="#m180e9ff35a" y="126.228363"/>
     <use style="fill:#40b5c4;stroke:#40b5c4;" x="191.004232" xlink:href="#m180e9ff35a" y="90.988302"/>
     <use style="fill:#40b5c4;stroke:#40b5c4;" x="199.123302" xlink:href="#m180e9ff35a" y="74.919645"/>
     <use style="fill:#40b5c4;stroke:#40b5c4;" x="207.242372" xlink:href="#m180e9ff35a" y="66.50549"/>
     <use style="fill:#40b5c4;stroke:#40b5c4;" x="215.361442" xlink:href="#m180e9ff35a" y="61.598759"/>
     <use style="fill:#40b5c4;stroke:#40b5c4;" x="223.480512" xlink:href="#m180e9ff35a" y="58.55499"/>
     <use style="fill:#40b5c4;stroke:#40b5c4;" x="231.599582" xlink:href="#m180e9ff35a" y="56.465729"/>
     <use style="fill:#40b5c4;stroke:#40b5c4;" x="239.718652" xlink:href="#m180e9ff35a" y="54.437438"/>
     <use style="fill:#40b5c4;stroke:#40b5c4;" x="247.837722" xlink:href="#m180e9ff35a" y="52.349786"/>
     <use style="fill:#40b5c4;stroke:#40b5c4;" x="255.956792" xlink:href="#m180e9ff35a" y="50.363668"/>
     <use style="fill:#40b5c4;stroke:#40b5c4;" x="264.075862" xlink:href="#m180e9ff35a" y="48.562842"/>
     <use style="fill:#40b5c4;stroke:#40b5c4;" x="272.194932" xlink:href="#m180e9ff35a" y="46.951582"/>
     <use style="fill:#40b5c4;stroke:#40b5c4;" x="280.314002" xlink:href="#m180e9ff35a" y="45.641649"/>
     <use style="fill:#40b5c4;stroke:#40b5c4;" x="288.433072" xlink:href="#m180e9ff35a" y="44.783534"/>
     <use style="fill:#40b5c4;stroke:#40b5c4;" x="296.552142" xlink:href="#m180e9ff35a" y="44.443636"/>
     <use style="fill:#40b5c4;stroke:#40b5c4;" x="304.671212" xlink:href="#m180e9ff35a" y="44.619342"/>
     <use style="fill:#40b5c4;stroke:#40b5c4;" x="312.790282" xlink:href="#m180e9ff35a" y="44.973003"/>
     <use style="fill:#40b5c4;stroke:#40b5c4;" x="320.909352" xlink:href="#m180e9ff35a" y="45.299842"/>
     <use style="fill:#40b5c4;stroke:#40b5c4;" x="329.028422" xlink:href="#m180e9ff35a" y="45.56938"/>
     <use style="fill:#40b5c4;stroke:#40b5c4;" x="337.147492" xlink:href="#m180e9ff35a" y="46.686016"/>
     <use style="fill:#40b5c4;stroke:#40b5c4;" x="345.266562" xlink:href="#m180e9ff35a" y="48.720258"/>
     <use style="fill:#40b5c4;stroke:#40b5c4;" x="353.385632" xlink:href="#m180e9ff35a" y="50.692258"/>
     <use style="fill:#40b5c4;stroke:#40b5c4;" x="361.504702" xlink:href="#m180e9ff35a" y="51.729097"/>
     <use style="fill:#40b5c4;stroke:#40b5c4;" x="369.623772" xlink:href="#m180e9ff35a" y="52.06585"/>
    </g>
   </g>
   <g id="line2d_15">
    <path clip-path="url(#pc10b13a0b7)" d="M 69.218182 69.046246 
L 69.31967 69.12444 
L 69.421159 68.96398 
L 69.624135 69.077714 
L 70.131577 69.034983 
L 70.233066 69.181421 
L 70.334554 68.889325 
L 70.436042 69.057338 
L 70.639019 68.96301 
L 70.740507 69.082299 
L 70.943484 68.952204 
L 71.044973 68.966282 
L 71.146461 68.835179 
L 71.247949 69.229669 
L 71.349438 68.858542 
L 71.552414 69.056976 
L 71.653903 68.818455 
L 71.755391 69.086199 
L 71.85688 68.793589 
L 71.958368 69.114471 
L 72.161345 68.791592 
L 72.262833 69.068448 
L 72.364321 68.735885 
L 72.567298 69.161045 
L 72.668787 68.849162 
L 72.770275 69.108097 
L 72.871763 68.847697 
L 73.07474 69.186976 
L 73.176228 68.889743 
L 73.379205 69.038902 
L 73.480694 69.042441 
L 73.582182 69.170044 
L 73.68367 69.105358 
L 73.785159 69.281285 
L 73.886647 69.036866 
L 74.089624 69.337771 
L 74.191112 69.082851 
L 74.394089 69.357881 
L 74.495577 69.216237 
L 74.597066 69.389178 
L 74.698554 69.234026 
L 74.901531 69.583445 
L 75.003019 69.472718 
L 75.104508 69.672446 
L 75.205996 69.460504 
L 75.408973 69.724138 
L 75.510461 69.666662 
L 75.611949 70.006968 
L 75.713438 69.641149 
L 75.916415 69.967453 
L 76.017903 69.907238 
L 76.119391 70.432699 
L 76.22088 69.978849 
L 76.626833 70.598238 
L 76.728322 70.388978 
L 76.82981 70.766175 
L 77.032787 70.669754 
L 77.134275 71.082395 
L 77.235763 70.895167 
L 77.337252 71.357596 
L 77.43874 71.323674 
L 77.743205 71.454512 
L 77.946182 72.011193 
L 78.04767 71.88671 
L 78.149159 72.384185 
L 78.250647 72.337592 
L 78.555112 73.253966 
L 78.961066 74.36771 
L 79.062554 74.27576 
L 79.265531 74.949162 
L 79.367019 75.143354 
L 79.671484 76.45283 
L 79.772973 76.356847 
L 80.178926 77.632078 
L 80.280415 77.893162 
L 80.483391 78.566051 
L 80.58488 78.844334 
L 80.787857 79.951191 
L 80.889345 80.172817 
L 81.092322 80.874281 
L 81.904229 83.915387 
L 82.005717 84.836632 
L 82.107205 84.32036 
L 82.310182 85.083143 
L 82.411671 85.222237 
L 82.513159 85.901404 
L 82.614647 85.677209 
L 82.716136 86.517692 
L 82.817624 86.413281 
L 82.919112 86.53706 
L 83.020601 87.441372 
L 83.122089 87.058791 
L 83.325066 88.049917 
L 83.426554 87.985934 
L 83.731019 89.155194 
L 83.832508 89.35515 
L 83.933996 89.140468 
L 84.035485 89.964722 
L 84.136973 89.888012 
L 84.33995 90.793009 
L 84.441438 90.672179 
L 84.847392 91.575826 
L 84.94888 91.429616 
L 85.050368 91.858029 
L 85.151857 91.792734 
L 85.760787 93.234798 
L 86.572694 96.42451 
L 86.877159 97.658265 
L 86.978647 97.939916 
L 87.283113 99.249507 
L 92.357531 119.973886 
L 93.169438 123.117805 
L 93.473903 124.17685 
L 94.691764 127.382449 
L 94.996229 128.113602 
L 95.503671 129.398878 
L 96.112601 130.489106 
L 96.620043 131.428749 
L 98.04088 133.991282 
L 98.142369 134.07662 
L 98.649811 135.004819 
L 99.461718 136.307988 
L 99.766183 136.812045 
L 102.506369 140.779732 
L 103.419764 141.951028 
L 104.231671 142.962776 
L 104.536136 143.301313 
L 105.043578 143.919903 
L 105.246555 144.099426 
L 105.956974 144.81866 
L 107.377811 143.072048 
L 109.30609 140.942656 
L 109.610555 140.564565 
L 110.016509 140.167516 
L 110.52395 139.555204 
L 111.132881 138.954156 
L 111.741811 138.313554 
L 112.147764 137.935406 
L 112.45223 137.625122 
L 112.959671 137.168361 
L 113.467113 136.637668 
L 114.177532 135.936176 
L 116.511765 134.110894 
L 117.019206 133.819978 
L 117.628137 133.404559 
L 120.977253 131.366955 
L 121.18023 131.187841 
L 121.586183 130.946314 
L 126.457625 128.110359 
L 126.559114 128.107486 
L 126.76209 127.944467 
L 127.066556 127.807161 
L 127.269532 127.668153 
L 127.878463 127.368523 
L 128.284416 127.158977 
L 128.994835 127.052807 
L 129.197811 127.041791 
L 129.400788 127.067646 
L 129.502277 127.193708 
L 129.705253 127.112213 
L 130.009718 127.127139 
L 130.923114 127.221114 
L 132.140974 127.463706 
L 132.242463 127.337055 
L 132.546928 127.643524 
L 132.648416 127.471212 
L 132.749905 127.609402 
L 132.851393 127.459996 
L 132.952881 127.59012 
L 133.05437 127.530771 
L 133.155858 127.67854 
L 133.257346 127.478565 
L 133.460323 127.658678 
L 133.561812 127.787974 
L 133.6633 127.670873 
L 133.764788 127.82359 
L 133.967765 127.715849 
L 134.982649 128.134254 
L 135.084137 128.12692 
L 135.185626 128.381479 
L 135.287114 128.221762 
L 135.388602 128.404414 
L 135.490091 128.302182 
L 135.794556 128.543451 
L 135.896044 128.518281 
L 136.200509 128.804203 
L 137.621347 129.727817 
L 138.128788 130.25207 
L 138.331765 130.330939 
L 138.737719 130.507323 
L 138.839207 130.23275 
L 138.940695 130.415745 
L 139.042184 130.328732 
L 139.245161 130.403835 
L 139.854091 130.381004 
L 140.260044 130.424934 
L 140.463021 130.407507 
L 140.665998 130.471394 
L 140.767486 130.385713 
L 141.071951 130.657709 
L 141.17344 130.506305 
L 141.680882 130.72971 
L 141.78237 130.47556 
L 141.985347 130.757335 
L 142.086835 130.874056 
L 142.289812 130.765678 
L 142.492789 130.868006 
L 142.594277 131.065308 
L 142.695765 130.995085 
L 143.101719 132.313285 
L 143.507672 132.871716 
L 143.609161 133.046426 
L 143.710649 132.985593 
L 143.913626 133.291311 
L 144.015114 133.598589 
L 144.116603 133.515563 
L 144.421068 133.790755 
L 144.827021 134.951652 
L 145.334463 136.489946 
L 147.059765 141.788713 
L 147.161254 141.998791 
L 147.465719 143.121552 
L 147.567207 143.219124 
L 148.074649 144.952979 
L 148.176138 145.171789 
L 148.582091 146.739221 
L 149.191021 148.31547 
L 149.29251 148.34866 
L 149.596975 149.498989 
L 149.90144 150.052056 
L 150.713347 152.261754 
L 151.220789 153.381338 
L 151.728231 154.808629 
L 151.829719 154.905449 
L 152.641626 156.863461 
L 153.250556 158.264125 
L 153.859486 160.272868 
L 154.366928 162.642198 
L 154.468417 162.805588 
L 154.975859 164.85769 
L 155.077347 165.13449 
L 155.4833 166.989489 
L 158.832417 180.834828 
L 159.644324 184.58615 
L 159.745812 184.707037 
L 160.151766 186.884868 
L 160.354742 187.730049 
L 161.674091 194.190865 
L 162.485998 200.617967 
L 163.196417 206.053926 
L 163.60237 209.711443 
L 165.835115 227.475089 
L 167.763394 239.463451 
L 168.067859 240.126674 
L 168.676789 240.99482 
L 168.778278 241.037399 
L 169.082743 241.432098 
L 169.184231 241.446596 
L 169.387208 241.651156 
L 169.590185 241.683042 
L 169.691673 241.852254 
L 169.793161 241.758402 
L 170.199115 242.040852 
L 170.605068 242.018174 
L 170.706557 242.059668 
L 170.909533 241.963419 
L 171.011022 241.940474 
L 171.11251 242.116364 
L 171.416975 241.740099 
L 171.619952 241.611583 
L 172.330371 240.716669 
L 173.548231 229.636368 
L 174.360138 221.422348 
L 175.780975 207.155617 
L 176.288417 201.996353 
L 181.971766 142.824348 
L 182.479208 138.520568 
L 183.088138 132.906333 
L 184.103022 124.007506 
L 185.117906 116.198688 
L 185.726836 113.071426 
L 187.756604 103.014279 
L 189.177441 97.147359 
L 189.278929 96.908933 
L 189.481906 96.236863 
L 191.207208 91.044391 
L 191.308697 90.881972 
L 191.613162 89.973112 
L 192.222092 88.479832 
L 192.628046 87.497478 
L 195.063767 81.823931 
L 195.165255 81.691134 
L 195.46972 80.925326 
L 195.672697 80.551725 
L 195.875674 80.058208 
L 195.977162 79.957621 
L 196.586092 78.482586 
L 196.992046 77.805399 
L 197.296511 77.063658 
L 200.848604 70.201598 
L 203.182837 66.40336 
L 203.385813 66.14433 
L 203.994744 65.234367 
L 204.096232 65.235166 
L 204.400697 64.621199 
L 204.705162 64.212059 
L 205.212604 63.467693 
L 205.720046 62.758618 
L 206.126 62.241833 
L 206.937907 61.121107 
L 207.749814 60.452328 
L 208.054279 60.424456 
L 208.257255 60.195353 
L 208.460232 60.14583 
L 209.373628 59.685417 
L 209.678093 59.598091 
L 209.881069 59.380193 
L 210.185535 59.30881 
L 210.692976 59.009561 
L 210.997442 58.92836 
L 211.200418 58.860478 
L 211.809349 58.563055 
L 212.621256 58.148778 
L 212.722744 58.174405 
L 213.128697 57.838532 
L 213.331674 57.892374 
L 213.534651 57.695385 
L 213.839116 57.592915 
L 214.042093 57.440122 
L 214.24507 57.375893 
L 214.346558 57.360558 
L 214.448046 57.226277 
L 214.549535 57.281508 
L 214.752511 57.1825 
L 215.259953 56.910571 
L 216.173349 56.507291 
L 216.680791 56.531434 
L 216.782279 56.607973 
L 217.086744 56.501869 
L 217.797163 56.543496 
L 218.304605 56.52662 
L 218.507581 56.55162 
L 218.913535 56.509479 
L 219.319488 56.544714 
L 219.623953 56.536495 
L 219.82693 56.533089 
L 219.928419 56.496789 
L 220.131395 56.602817 
L 220.334372 56.540756 
L 221.755209 56.550155 
L 221.958186 56.518668 
L 222.567116 56.466919 
L 222.770093 56.63008 
L 222.97307 56.622584 
L 223.074558 56.697982 
L 223.176047 56.602798 
L 223.683488 56.789988 
L 227.032605 57.286264 
L 227.235582 57.162371 
L 227.438558 57.219942 
L 227.540047 57.049608 
L 227.844512 57.131075 
L 227.946 56.952921 
L 228.148977 56.993578 
L 228.55493 56.872939 
L 229.265349 56.726729 
L 229.671303 56.595682 
L 229.975768 56.518116 
L 230.889163 56.270235 
L 231.09214 56.192916 
L 231.599582 56.066321 
L 231.802558 56.045127 
L 232.208512 55.883126 
L 233.121907 55.642893 
L 233.324884 55.571929 
L 234.644233 55.17447 
L 234.745721 55.210733 
L 235.050186 55.058853 
L 235.151675 55.015361 
L 235.354652 55.039733 
L 235.45614 54.838711 
L 235.659117 54.919417 
L 235.963582 54.86919 
L 236.268047 54.708406 
L 237.790373 54.368405 
L 237.993349 54.180605 
L 238.297814 54.185856 
L 238.500791 54.128914 
L 238.906745 53.99585 
L 240.124605 53.686955 
L 240.327582 53.586026 
L 240.733535 53.569721 
L 241.139489 53.382207 
L 241.240977 53.412838 
L 241.342466 53.277834 
L 241.443954 53.355096 
L 241.646931 53.296726 
L 242.052884 53.143268 
L 242.255861 53.105883 
L 242.458838 53.016007 
L 242.661815 52.97653 
L 242.96628 52.877103 
L 243.57521 52.771246 
L 244.894559 52.468344 
L 245.199024 52.487141 
L 245.300512 52.367757 
L 245.604977 52.507498 
L 246.010931 52.378506 
L 246.213908 52.422169 
L 246.315396 52.360166 
L 246.518373 52.436952 
L 247.33028 52.349797 
L 247.634745 52.34194 
L 247.93921 52.331799 
L 249.461536 52.222308 
L 249.563024 52.318862 
L 249.766001 52.207088 
L 250.273443 52.195254 
L 257.276141 51.603091 
L 257.377629 51.792944 
L 257.682094 51.650825 
L 258.392513 51.622896 
L 261.741629 51.268967 
L 261.843117 51.360403 
L 262.046094 51.211454 
L 262.452048 51.263127 
L 262.858001 51.136323 
L 263.060978 51.188566 
L 264.075862 51.002822 
L 264.17735 51.136285 
L 264.278838 51.007769 
L 264.380327 51.080274 
L 264.583304 51.012239 
L 264.989257 50.926644 
L 265.293722 50.920823 
L 267.019025 50.701575 
L 267.120513 50.776763 
L 267.424978 50.626501 
L 267.729443 50.6269 
L 268.135397 50.557952 
L 268.54135 50.525077 
L 268.642839 50.424433 
L 268.744327 50.554376 
L 269.048792 50.417165 
L 269.251769 50.469846 
L 269.454746 50.323389 
L 269.657722 50.399186 
L 270.368141 50.232828 
L 270.571118 50.246203 
L 270.774094 50.218331 
L 271.180048 50.185189 
L 271.281536 50.041567 
L 271.586001 50.15648 
L 271.68749 50.054333 
L 271.788978 50.121302 
L 271.991955 49.974769 
L 272.499397 50.005209 
L 272.600885 49.871956 
L 272.803862 49.92028 
L 273.717257 49.777666 
L 273.818746 49.830747 
L 273.920234 49.677593 
L 274.224699 49.799013 
L 274.427676 49.748101 
L 274.732141 49.65442 
L 275.138095 49.663819 
L 275.341071 49.5865 
L 276.05149 49.487492 
L 276.152978 49.60016 
L 276.254467 49.451344 
L 276.355955 49.50294 
L 276.558932 49.410401 
L 277.066374 49.426306 
L 277.26935 49.301081 
L 277.472327 49.363104 
L 278.385723 49.237499 
L 281.02442 48.917949 
L 281.227397 48.929745 
L 281.328885 49.007558 
L 281.531862 48.92183 
L 282.546746 48.813196 
L 283.054188 48.772063 
L 283.155676 48.729408 
L 283.257165 48.874191 
L 283.460141 48.739111 
L 284.069072 48.637706 
L 284.272048 48.72663 
L 284.678002 48.578156 
L 284.77949 48.700756 
L 284.982467 48.616854 
L 285.185444 48.705208 
L 285.38842 48.57926 
L 285.794374 48.608331 
L 285.997351 48.536605 
L 286.200327 48.573286 
L 293.203025 48.326413 
L 293.304514 48.405597 
L 293.50749 48.265798 
L 293.913444 48.384669 
L 294.116421 48.292662 
L 294.725351 48.338323 
L 295.435769 48.346009 
L 295.638746 48.420817 
L 296.0447 48.353201 
L 296.349165 48.392279 
L 297.567025 48.449317 
L 297.972979 48.464157 
L 298.175956 48.464004 
L 298.581909 48.485465 
L 298.784886 48.507649 
L 299.190839 48.591208 
L 299.292328 48.493418 
L 299.495304 48.620202 
L 300.002746 48.568682 
L 300.4087 48.670962 
L 300.611677 48.649844 
L 300.916142 48.741394 
L 301.119118 48.64212 
L 301.322095 48.773052 
L 301.829537 48.751668 
L 302.134002 48.893178 
L 302.641444 48.865744 
L 302.742932 48.946944 
L 302.945909 48.844549 
L 303.148886 48.963305 
L 303.250374 48.912241 
L 303.453351 48.933512 
L 304.874188 49.145682 
L 305.178653 49.18613 
L 305.280142 49.092488 
L 305.584607 49.181298 
L 306.396514 49.304886 
L 306.599491 49.284187 
L 306.802467 49.34191 
L 307.005444 49.352488 
L 307.208421 49.397426 
L 307.309909 49.491487 
L 307.512886 49.45454 
L 308.020328 49.473299 
L 308.223305 49.559712 
L 308.426281 49.528282 
L 308.730747 49.604992 
L 308.832235 49.495026 
L 309.1367 49.692775 
L 309.441165 49.603432 
L 309.644142 49.70849 
L 309.74563 49.656323 
L 309.948607 49.726983 
L 310.862002 49.809553 
L 311.064979 49.89334 
L 311.267956 49.787635 
L 311.470933 49.878615 
L 312.688793 49.982683 
L 312.89177 50.051136 
L 313.094747 49.999311 
L 313.399212 50.127162 
L 313.5007 49.998893 
L 313.805165 50.129977 
L 314.211119 50.138006 
L 314.414096 50.118867 
L 314.921537 50.206383 
L 315.428979 50.236633 
L 315.733444 50.28355 
L 315.936421 50.287774 
L 316.342375 50.365511 
L 316.443863 50.3017 
L 316.64684 50.43054 
L 318.067677 50.704809 
L 318.270654 50.73544 
L 318.372142 50.861464 
L 318.473631 50.779579 
L 318.575119 50.884332 
L 318.778096 50.820787 
L 319.184049 50.965076 
L 319.590003 50.999245 
L 319.792979 51.071389 
L 319.995956 51.069335 
L 320.300421 51.240144 
L 320.503398 51.189537 
L 320.909352 51.300264 
L 321.01084 51.257305 
L 321.213817 51.416547 
L 321.416793 51.349273 
L 321.61977 51.481462 
L 321.924235 51.463121 
L 322.330189 51.600218 
L 322.431677 51.659348 
L 322.533166 51.55528 
L 322.736142 51.685109 
L 323.142096 51.732748 
L 323.548049 51.803865 
L 324.664421 52.067975 
L 324.867398 52.087837 
L 325.171863 52.197081 
L 325.273352 52.134069 
L 325.476328 52.188519 
L 325.780794 52.307846 
L 325.98377 52.301606 
L 326.288235 52.416938 
L 326.389724 52.330829 
L 326.592701 52.532916 
L 326.795677 52.446655 
L 326.998654 52.504226 
L 327.607584 52.723207 
L 327.810561 52.661109 
L 327.912049 52.82758 
L 328.013538 52.692843 
L 328.216515 52.813768 
L 328.419491 52.827771 
L 328.723956 52.901399 
L 328.825445 53.026509 
L 329.028422 52.945385 
L 329.535863 53.089483 
L 329.637352 53.033435 
L 329.840329 53.159801 
L 329.941817 53.077535 
L 330.144794 53.19983 
L 330.34777 53.216915 
L 330.449259 53.34214 
L 330.550747 53.226237 
L 330.753724 53.345983 
L 331.261166 53.360937 
L 331.464143 53.510742 
L 331.667119 53.540422 
L 331.768608 53.592551 
L 331.870096 53.504159 
L 332.073073 53.689352 
L 332.174561 53.561806 
L 332.580515 53.7505 
L 332.783491 53.764312 
L 332.88498 53.7341 
L 333.087957 53.838511 
L 333.189445 53.781891 
L 333.392422 54.002852 
L 333.49391 53.876029 
L 333.696887 54.01518 
L 333.899864 53.995242 
L 334.204329 54.09737 
L 334.305817 54.203721 
L 334.508794 54.069212 
L 334.711771 54.211446 
L 334.914747 54.229976 
L 335.320701 54.399796 
L 335.422189 54.292417 
L 335.625166 54.432634 
L 335.828143 54.414788 
L 336.031119 54.488759 
L 336.538561 54.648686 
L 338.46684 55.061764 
L 338.568329 55.168382 
L 338.771306 55.112219 
L 338.872794 55.199393 
L 338.974282 55.125918 
L 339.481724 55.36674 
L 339.684701 55.31541 
L 339.887678 55.416206 
L 340.090654 55.513692 
L 340.598096 55.574954 
L 340.699585 55.570312 
L 340.902561 55.67575 
L 341.207027 55.784918 
L 341.308515 55.724417 
L 341.511492 55.878104 
L 341.714468 55.878408 
L 342.120422 56.093128 
L 342.323399 55.99842 
L 342.526375 56.082246 
L 342.627864 56.048533 
L 342.830841 56.228893 
L 342.932329 56.087763 
L 343.135306 56.288404 
L 343.338282 56.162114 
L 343.439771 56.270368 
L 343.541259 56.196322 
L 343.845724 56.301988 
L 343.947213 56.235818 
L 344.150189 56.371849 
L 344.251678 56.249783 
L 344.454655 56.446961 
L 344.556143 56.349894 
L 344.75912 56.548138 
L 344.962096 56.384901 
L 345.165073 56.51686 
L 345.266562 56.409976 
L 345.469538 56.578236 
L 345.672515 56.55434 
L 345.774003 56.623479 
L 345.97698 56.499015 
L 346.078469 56.600762 
L 346.281445 56.540109 
L 346.484422 56.608601 
L 346.58591 56.498102 
L 346.788887 56.641781 
L 346.991864 56.560619 
L 347.093352 56.68885 
L 347.194841 56.587254 
L 347.397817 56.795163 
L 347.600794 56.631355 
L 347.702283 56.811373 
L 347.905259 56.664763 
L 348.108236 56.857566 
L 348.209724 56.760918 
L 348.412701 56.974572 
L 348.615678 56.805893 
L 348.818655 56.938196 
L 348.920143 56.834812 
L 349.12312 57.030088 
L 349.224608 56.909239 
L 349.427585 57.117795 
L 349.630562 56.949383 
L 349.73205 57.107902 
L 349.935027 57.039981 
L 350.138004 57.143061 
L 350.239492 57.041846 
L 350.442469 57.240927 
L 350.645445 57.110946 
L 350.848422 57.186705 
L 351.152887 57.27951 
L 351.254376 57.163418 
L 351.457352 57.356601 
L 351.558841 57.194657 
L 351.863306 57.330612 
L 352.776701 57.51961 
L 352.979678 57.483119 
L 353.081166 57.59301 
L 353.284143 57.475662 
L 353.48712 57.575735 
L 353.588608 57.470981 
L 353.791585 57.626114 
L 353.994562 57.594266 
L 354.09605 57.772533 
L 354.299027 57.569266 
L 354.502004 57.760357 
L 354.603492 57.59457 
L 354.806469 57.769527 
L 354.907957 57.704841 
L 355.110934 57.904036 
L 355.313911 57.682505 
L 355.415399 57.991553 
L 355.719864 57.908031 
L 356.227306 58.009893 
L 356.328794 58.116511 
L 356.531771 57.928046 
L 356.63326 58.120392 
L 356.836236 57.96994 
L 357.039213 58.146115 
L 357.140701 58.032762 
L 357.343678 58.299383 
L 357.546655 58.074541 
L 357.749632 58.267953 
L 357.85112 58.089039 
L 358.054097 58.313043 
L 358.155585 58.197635 
L 358.358562 58.459424 
L 358.561539 58.19501 
L 358.764515 58.407675 
L 358.866004 58.230397 
L 359.068981 58.421183 
L 359.170469 58.366847 
L 359.373446 58.621215 
L 359.576422 58.335987 
L 359.677911 58.586551 
L 359.880888 58.505846 
L 360.185353 58.519316 
L 360.388329 58.608354 
L 360.489818 58.601924 
L 360.591306 58.475557 
L 360.794283 58.68183 
L 360.895771 58.607669 
L 360.99726 58.702263 
L 361.098748 58.598233 
L 361.301725 58.691609 
L 361.707678 58.686701 
L 362.012143 58.844535 
L 362.113632 58.735405 
L 362.418097 58.945826 
L 362.519585 58.94457 
L 362.621074 58.805228 
L 362.925539 59.091978 
L 363.128516 58.965346 
L 363.432981 59.213474 
L 363.534469 59.051454 
L 363.940423 59.320321 
L 364.041911 59.134709 
L 364.447864 59.435081 
L 364.549353 59.245323 
L 364.853818 59.409169 
L 364.955306 59.413507 
L 365.056795 59.29418 
L 365.259771 59.623014 
L 365.36126 59.476709 
L 365.462748 59.568601 
L 365.564237 59.410995 
L 365.767213 59.568715 
L 365.868702 59.569743 
L 365.97019 59.68477 
L 366.071678 59.484547 
L 366.173167 59.650372 
L 366.274655 59.603265 
L 366.376144 59.733665 
L 366.477632 59.62739 
L 366.782097 59.771982 
L 366.985074 59.688651 
L 367.188051 59.766579 
L 367.898469 59.921635 
L 367.999958 59.791578 
L 368.304423 60.016077 
L 368.405911 60.052263 
L 368.507399 59.916917 
L 368.811865 60.145754 
L 369.014841 59.885716 
L 369.11633 60.147923 
L 369.319306 60.14427 
L 369.522283 60.047431 
L 369.623772 60.188713 
L 369.72526 60.079203 
L 369.928237 60.146705 
L 370.029725 60.090314 
L 370.232702 60.253704 
L 370.435679 60.173531 
L 370.740144 60.300544 
L 370.94312 60.227981 
L 371.247586 60.38475 
L 371.349074 60.203705 
L 371.552051 60.301267 
L 371.653539 60.241946 
L 371.755027 60.398487 
L 371.958004 60.215006 
L 372.160981 60.329463 
L 372.262469 60.338252 
L 372.363958 60.153098 
L 372.566934 60.361501 
L 372.8714 60.166111 
L 373.074376 60.325543 
L 373.48033 60.247045 
L 373.581818 60.296016 
L 373.581818 60.296016 
" style="fill:none;stroke:#081d58;stroke-dasharray:5.55,2.4;stroke-dashoffset:0;stroke-width:1.5;"/>
    <defs>
     <path d="M -0 4.242641 
L 4.242641 0 
L 0 -4.242641 
L -4.242641 -0 
z
" id="m24eecb3ebd" style="stroke:#081d58;stroke-linejoin:miter;"/>
    </defs>
    <g clip-path="url(#pc10b13a0b7)">
     <use style="fill:#081d58;stroke:#081d58;stroke-linejoin:miter;" x="69.218182" xlink:href="#m24eecb3ebd" y="69.046246"/>
     <use style="fill:#081d58;stroke:#081d58;stroke-linejoin:miter;" x="77.337252" xlink:href="#m24eecb3ebd" y="71.357596"/>
     <use style="fill:#081d58;stroke:#081d58;stroke-linejoin:miter;" x="85.456322" xlink:href="#m24eecb3ebd" y="92.414387"/>
     <use style="fill:#081d58;stroke:#081d58;stroke-linejoin:miter;" x="93.575392" xlink:href="#m24eecb3ebd" y="124.472181"/>
     <use style="fill:#081d58;stroke:#081d58;stroke-linejoin:miter;" x="101.694462" xlink:href="#m24eecb3ebd" y="139.684843"/>
     <use style="fill:#081d58;stroke:#081d58;stroke-linejoin:miter;" x="109.813532" xlink:href="#m24eecb3ebd" y="140.401718"/>
     <use style="fill:#081d58;stroke:#081d58;stroke-linejoin:miter;" x="117.932602" xlink:href="#m24eecb3ebd" y="133.211461"/>
     <use style="fill:#081d58;stroke:#081d58;stroke-linejoin:miter;" x="126.051672" xlink:href="#m24eecb3ebd" y="128.367458"/>
     <use style="fill:#081d58;stroke:#081d58;stroke-linejoin:miter;" x="134.170742" xlink:href="#m24eecb3ebd" y="127.812745"/>
     <use style="fill:#081d58;stroke:#081d58;stroke-linejoin:miter;" x="142.289812" xlink:href="#m24eecb3ebd" y="130.765678"/>
     <use style="fill:#081d58;stroke:#081d58;stroke-linejoin:miter;" x="150.408882" xlink:href="#m24eecb3ebd" y="151.43458"/>
     <use style="fill:#081d58;stroke:#081d58;stroke-linejoin:miter;" x="158.527952" xlink:href="#m24eecb3ebd" y="179.373064"/>
     <use style="fill:#081d58;stroke:#081d58;stroke-linejoin:miter;" x="166.647022" xlink:href="#m24eecb3ebd" y="233.058171"/>
     <use style="fill:#081d58;stroke:#081d58;stroke-linejoin:miter;" x="174.766092" xlink:href="#m24eecb3ebd" y="217.205762"/>
     <use style="fill:#081d58;stroke:#081d58;stroke-linejoin:miter;" x="182.885162" xlink:href="#m24eecb3ebd" y="134.694506"/>
     <use style="fill:#081d58;stroke:#081d58;stroke-linejoin:miter;" x="191.004232" xlink:href="#m24eecb3ebd" y="91.608264"/>
     <use style="fill:#081d58;stroke:#081d58;stroke-linejoin:miter;" x="199.123302" xlink:href="#m24eecb3ebd" y="73.505272"/>
     <use style="fill:#081d58;stroke:#081d58;stroke-linejoin:miter;" x="207.242372" xlink:href="#m24eecb3ebd" y="60.759492"/>
     <use style="fill:#081d58;stroke:#081d58;stroke-linejoin:miter;" x="215.361442" xlink:href="#m24eecb3ebd" y="56.853152"/>
     <use style="fill:#081d58;stroke:#081d58;stroke-linejoin:miter;" x="223.480512" xlink:href="#m24eecb3ebd" y="56.835934"/>
     <use style="fill:#081d58;stroke:#081d58;stroke-linejoin:miter;" x="231.599582" xlink:href="#m24eecb3ebd" y="56.066321"/>
     <use style="fill:#081d58;stroke:#081d58;stroke-linejoin:miter;" x="239.718652" xlink:href="#m24eecb3ebd" y="53.840166"/>
     <use style="fill:#081d58;stroke:#081d58;stroke-linejoin:miter;" x="247.837722" xlink:href="#m24eecb3ebd" y="52.3517"/>
     <use style="fill:#081d58;stroke:#081d58;stroke-linejoin:miter;" x="255.956792" xlink:href="#m24eecb3ebd" y="51.81918"/>
     <use style="fill:#081d58;stroke:#081d58;stroke-linejoin:miter;" x="264.075862" xlink:href="#m24eecb3ebd" y="51.002822"/>
     <use style="fill:#081d58;stroke:#081d58;stroke-linejoin:miter;" x="272.194932" xlink:href="#m24eecb3ebd" y="49.988695"/>
     <use style="fill:#081d58;stroke:#081d58;stroke-linejoin:miter;" x="280.314002" xlink:href="#m24eecb3ebd" y="49.086247"/>
     <use style="fill:#081d58;stroke:#081d58;stroke-linejoin:miter;" x="288.433072" xlink:href="#m24eecb3ebd" y="48.396084"/>
     <use style="fill:#081d58;stroke:#081d58;stroke-linejoin:miter;" x="296.552142" xlink:href="#m24eecb3ebd" y="48.420208"/>
     <use style="fill:#081d58;stroke:#081d58;stroke-linejoin:miter;" x="304.671212" xlink:href="#m24eecb3ebd" y="49.022855"/>
     <use style="fill:#081d58;stroke:#081d58;stroke-linejoin:miter;" x="312.790282" xlink:href="#m24eecb3ebd" y="50.05673"/>
     <use style="fill:#081d58;stroke:#081d58;stroke-linejoin:miter;" x="320.909352" xlink:href="#m24eecb3ebd" y="51.300264"/>
     <use style="fill:#081d58;stroke:#081d58;stroke-linejoin:miter;" x="329.028422" xlink:href="#m24eecb3ebd" y="52.945385"/>
     <use style="fill:#081d58;stroke:#081d58;stroke-linejoin:miter;" x="337.147492" xlink:href="#m24eecb3ebd" y="54.688525"/>
     <use style="fill:#081d58;stroke:#081d58;stroke-linejoin:miter;" x="345.266562" xlink:href="#m24eecb3ebd" y="56.409976"/>
     <use style="fill:#081d58;stroke:#081d58;stroke-linejoin:miter;" x="353.385632" xlink:href="#m24eecb3ebd" y="57.579312"/>
     <use style="fill:#081d58;stroke:#081d58;stroke-linejoin:miter;" x="361.504702" xlink:href="#m24eecb3ebd" y="58.693207"/>
     <use style="fill:#081d58;stroke:#081d58;stroke-linejoin:miter;" x="369.623772" xlink:href="#m24eecb3ebd" y="60.188713"/>
    </g>
   </g>
   <g id="patch_3">
    <path d="M 54 252 
L 54 34.56 
" style="fill:none;stroke:#000000;stroke-linecap:square;stroke-linejoin:miter;stroke-width:0.8;"/>
   </g>
   <g id="patch_4">
    <path d="M 388.8 252 
L 388.8 34.56 
" style="fill:none;stroke:#000000;stroke-linecap:square;stroke-linejoin:miter;stroke-width:0.8;"/>
   </g>
   <g id="patch_5">
    <path d="M 54 252 
L 388.8 252 
" style="fill:none;stroke:#000000;stroke-linecap:square;stroke-linejoin:miter;stroke-width:0.8;"/>
   </g>
   <g id="patch_6">
    <path d="M 54 34.56 
L 388.8 34.56 
" style="fill:none;stroke:#000000;stroke-linecap:square;stroke-linejoin:miter;stroke-width:0.8;"/>
   </g>
   <g id="legend_1">
    <g id="patch_7">
     <path d="M 280.085938 247 
L 381.8 247 
Q 383.8 247 383.8 245 
L 383.8 216.64375 
Q 383.8 214.64375 381.8 214.64375 
L 280.085938 214.64375 
Q 278.085938 214.64375 278.085938 216.64375 
L 278.085938 245 
Q 278.085938 247 280.085938 247 
z
" style="fill:#ffffff;opacity:0.8;stroke:#cccccc;stroke-linejoin:miter;"/>
    </g>
    <g id="line2d_16">
     <path d="M 282.085938 222.742188 
L 302.085938 222.742188 
" style="fill:none;stroke:#40b5c4;stroke-dasharray:5.55,2.4;stroke-dashoffset:0;stroke-width:1.5;"/>
    </g>
    <g id="line2d_17">
     <g>
      <use style="fill:#40b5c4;stroke:#40b5c4;" x="292.085938" xlink:href="#m180e9ff35a" y="222.742188"/>
     </g>
    </g>
    <g id="text_16">
     <text style="font-family:DejaVu Sans;font-size:10px;font-style:normal;font-weight:normal;text-anchor:start;" transform="rotate(-0, 310.085938, 226.242188)" x="310.085938" y="226.242188">original</text>
    </g>
    <g id="line2d_18">
     <path d="M 282.085938 237.420312 
L 302.085938 237.420312 
" style="fill:none;stroke:#081d58;stroke-dasharray:5.55,2.4;stroke-dashoffset:0;stroke-width:1.5;"/>
    </g>
    <g id="line2d_19">
     <g>
      <use style="fill:#081d58;stroke:#081d58;stroke-linejoin:miter;" x="292.085938" xlink:href="#m24eecb3ebd" y="237.420312"/>
     </g>
    </g>
    <g id="text_17">
     <text style="font-family:DejaVu Sans;font-size:10px;font-style:normal;font-weight:normal;text-anchor:start;" transform="rotate(-0, 310.085938, 240.920312)" x="310.085938" y="240.920312">reconstructed</text>
    </g>
   </g>
  </g>
  <g id="text_18">
   <text style="font-family:DejaVu Sans;font-size:12px;font-style:normal;font-weight:normal;text-anchor:middle;" transform="rotate(-0, 216, 14.878125)" x="216" y="14.878125">Reconstruction of the temperature curve</text>
  </g>
 </g>
 <defs>
  <clipPath id="pc10b13a0b7">
   <rect height="217.44" width="334.8" x="54" y="34.56"/>
  </clipPath>
 </defs>
</svg>
