<?xml version="1.0" encoding="utf-8" standalone="no"?>
<!DOCTYPE svg PUBLIC "-//W3C//DTD SVG 1.1//EN"
  "http://www.w3.org/Graphics/SVG/1.1/DTD/svg11.dtd">
<!-- Created with matplotlib (https://matplotlib.org/) -->
<svg height="288pt" version="1.1" viewBox="0 0 432 288" width="432pt" xmlns="http://www.w3.org/2000/svg" xmlns:xlink="http://www.w3.org/1999/xlink">
 <defs>
  <style type="text/css">
*{stroke-linecap:butt;stroke-linejoin:round;}
  </style>
 </defs>
 <g id="figure_1">
  <g id="patch_1">
   <path d="M 0 288 
L 432 288 
L 432 0 
L 0 0 
z
" style="fill:#ffffff;"/>
  </g>
  <g id="axes_1">
   <g id="patch_2">
    <path d="M 54 252 
L 388.8 252 
L 388.8 34.56 
L 54 34.56 
z
" style="fill:#ffffff;"/>
   </g>
   <g id="matplotlib.axis_1">
    <g id="xtick_1">
     <g id="line2d_1">
      <defs>
       <path d="M 0 0 
L 0 3.5 
" id="md4ec75fd52" style="stroke:#000000;stroke-width:0.8;"/>
      </defs>
      <g>
       <use style="stroke:#000000;stroke-width:0.8;" x="69.218182" xlink:href="#md4ec75fd52" y="252"/>
      </g>
     </g>
     <g id="text_1">
      <text style="font-family:DejaVu Sans;font-size:10px;font-style:normal;font-weight:normal;text-anchor:middle;" transform="rotate(-0, 69.218182, 266.598437)" x="69.218182" y="266.598437">0</text>
     </g>
    </g>
    <g id="xtick_2">
     <g id="line2d_2">
      <g>
       <use style="stroke:#000000;stroke-width:0.8;" x="119.962369" xlink:href="#md4ec75fd52" y="252"/>
      </g>
     </g>
     <g id="text_2">
      <text style="font-family:DejaVu Sans;font-size:10px;font-style:normal;font-weight:normal;text-anchor:middle;" transform="rotate(-0, 119.962369, 266.598437)" x="119.962369" y="266.598437">500</text>
     </g>
    </g>
    <g id="xtick_3">
     <g id="line2d_3">
      <g>
       <use style="stroke:#000000;stroke-width:0.8;" x="170.706557" xlink:href="#md4ec75fd52" y="252"/>
      </g>
     </g>
     <g id="text_3">
      <text style="font-family:DejaVu Sans;font-size:10px;font-style:normal;font-weight:normal;text-anchor:middle;" transform="rotate(-0, 170.706557, 266.598437)" x="170.706557" y="266.598437">1000</text>
     </g>
    </g>
    <g id="xtick_4">
     <g id="line2d_4">
      <g>
       <use style="stroke:#000000;stroke-width:0.8;" x="221.450744" xlink:href="#md4ec75fd52" y="252"/>
      </g>
     </g>
     <g id="text_4">
      <text style="font-family:DejaVu Sans;font-size:10px;font-style:normal;font-weight:normal;text-anchor:middle;" transform="rotate(-0, 221.450744, 266.598437)" x="221.450744" y="266.598437">1500</text>
     </g>
    </g>
    <g id="xtick_5">
     <g id="line2d_5">
      <g>
       <use style="stroke:#000000;stroke-width:0.8;" x="272.194932" xlink:href="#md4ec75fd52" y="252"/>
      </g>
     </g>
     <g id="text_5">
      <text style="font-family:DejaVu Sans;font-size:10px;font-style:normal;font-weight:normal;text-anchor:middle;" transform="rotate(-0, 272.194932, 266.598437)" x="272.194932" y="266.598437">2000</text>
     </g>
    </g>
    <g id="xtick_6">
     <g id="line2d_6">
      <g>
       <use style="stroke:#000000;stroke-width:0.8;" x="322.939119" xlink:href="#md4ec75fd52" y="252"/>
      </g>
     </g>
     <g id="text_6">
      <text style="font-family:DejaVu Sans;font-size:10px;font-style:normal;font-weight:normal;text-anchor:middle;" transform="rotate(-0, 322.939119, 266.598437)" x="322.939119" y="266.598437">2500</text>
     </g>
    </g>
    <g id="xtick_7">
     <g id="line2d_7">
      <g>
       <use style="stroke:#000000;stroke-width:0.8;" x="373.683307" xlink:href="#md4ec75fd52" y="252"/>
      </g>
     </g>
     <g id="text_7">
      <text style="font-family:DejaVu Sans;font-size:10px;font-style:normal;font-weight:normal;text-anchor:middle;" transform="rotate(-0, 373.683307, 266.598437)" x="373.683307" y="266.598437">3000</text>
     </g>
    </g>
    <g id="text_8">
     <text style="font-family:DejaVu Sans;font-size:10px;font-style:normal;font-weight:normal;text-anchor:middle;" transform="rotate(-0, 221.4, 280.276563)" x="221.4" y="280.276563">Time</text>
    </g>
   </g>
   <g id="matplotlib.axis_2">
    <g id="ytick_1">
     <g id="line2d_8">
      <defs>
       <path d="M 0 0 
L -3.5 0 
" id="m0d4d7ac425" style="stroke:#000000;stroke-width:0.8;"/>
      </defs>
      <g>
       <use style="stroke:#000000;stroke-width:0.8;" x="54" xlink:href="#m0d4d7ac425" y="241.306064"/>
      </g>
     </g>
     <g id="text_9">
      <text style="font-family:DejaVu Sans;font-size:10px;font-style:normal;font-weight:normal;text-anchor:end;" transform="rotate(-0, 47, 245.105283)" x="47" y="245.105283">−10</text>
     </g>
    </g>
    <g id="ytick_2">
     <g id="line2d_9">
      <g>
       <use style="stroke:#000000;stroke-width:0.8;" x="54" xlink:href="#m0d4d7ac425" y="203.210184"/>
      </g>
     </g>
     <g id="text_10">
      <text style="font-family:DejaVu Sans;font-size:10px;font-style:normal;font-weight:normal;text-anchor:end;" transform="rotate(-0, 47, 207.009403)" x="47" y="207.009403">−8</text>
     </g>
    </g>
    <g id="ytick_3">
     <g id="line2d_10">
      <g>
       <use style="stroke:#000000;stroke-width:0.8;" x="54" xlink:href="#m0d4d7ac425" y="165.114304"/>
      </g>
     </g>
     <g id="text_11">
      <text style="font-family:DejaVu Sans;font-size:10px;font-style:normal;font-weight:normal;text-anchor:end;" transform="rotate(-0, 47, 168.913523)" x="47" y="168.913523">−6</text>
     </g>
    </g>
    <g id="ytick_4">
     <g id="line2d_11">
      <g>
       <use style="stroke:#000000;stroke-width:0.8;" x="54" xlink:href="#m0d4d7ac425" y="127.018424"/>
      </g>
     </g>
     <g id="text_12">
      <text style="font-family:DejaVu Sans;font-size:10px;font-style:normal;font-weight:normal;text-anchor:end;" transform="rotate(-0, 47, 130.817643)" x="47" y="130.817643">−4</text>
     </g>
    </g>
    <g id="ytick_5">
     <g id="line2d_12">
      <g>
       <use style="stroke:#000000;stroke-width:0.8;" x="54" xlink:href="#m0d4d7ac425" y="88.922544"/>
      </g>
     </g>
     <g id="text_13">
      <text style="font-family:DejaVu Sans;font-size:10px;font-style:normal;font-weight:normal;text-anchor:end;" transform="rotate(-0, 47, 92.721763)" x="47" y="92.721763">−2</text>
     </g>
    </g>
    <g id="ytick_6">
     <g id="line2d_13">
      <g>
       <use style="stroke:#000000;stroke-width:0.8;" x="54" xlink:href="#m0d4d7ac425" y="50.826664"/>
      </g>
     </g>
     <g id="text_14">
      <text style="font-family:DejaVu Sans;font-size:10px;font-style:normal;font-weight:normal;text-anchor:end;" transform="rotate(-0, 47, 54.625883)" x="47" y="54.625883">0</text>
     </g>
    </g>
    <g id="text_15">
     <text style="font-family:DejaVu Sans;font-size:10px;font-style:normal;font-weight:normal;text-anchor:middle;" transform="rotate(-90, 19.815625, 143.28)" x="19.815625" y="143.28">temperature (°C)</text>
    </g>
   </g>
   <g id="line2d_14">
    <path clip-path="url(#pb42997af9c)" d="M 69.218182 46.984696 
L 71.85688 46.294849 
L 72.871763 46.230011 
L 73.68367 46.37465 
L 74.394089 46.701829 
L 75.104508 47.243129 
L 75.916415 48.164712 
L 76.728322 49.441719 
L 77.641717 51.307497 
L 78.656601 53.918474 
L 79.874461 57.744504 
L 81.19381 62.665366 
L 82.817624 69.641326 
L 85.050368 80.343771 
L 91.748601 113.223068 
L 93.981345 122.65696 
L 95.706648 129.05522 
L 97.330462 134.21885 
L 98.852787 138.295605 
L 100.172136 141.215159 
L 101.389997 143.373233 
L 102.506369 144.90884 
L 103.521253 145.955505 
L 104.637625 146.786986 
L 105.652508 147.262118 
L 106.667392 147.486921 
L 107.682276 147.480674 
L 108.798648 147.247622 
L 110.117997 146.72607 
L 111.741811 145.837655 
L 113.771578 144.432241 
L 122.39809 138.053658 
L 124.224881 137.064517 
L 126.457625 136.10353 
L 128.588881 135.442795 
L 130.314184 135.133742 
L 132.140974 135.034426 
L 133.866277 135.16199 
L 135.490091 135.496586 
L 137.41837 136.166159 
L 139.143672 136.994154 
L 140.564509 137.893598 
L 142.188323 139.258668 
L 143.609161 140.730541 
L 145.029998 142.514152 
L 146.450835 144.653083 
L 148.683579 148.553149 
L 150.611858 152.644951 
L 151.829719 155.830357 
L 153.250556 160.210241 
L 154.87437 166.023634 
L 157.310091 175.656406 
L 160.862184 190.777975 
L 163.094929 201.256666 
L 165.023208 211.357521 
L 169.691673 236.456764 
L 170.50358 239.511405 
L 171.11251 241.115128 
L 171.619952 241.899789 
L 172.025906 242.116364 
L 172.330371 242.016743 
L 172.634836 241.682452 
L 173.040789 240.853885 
L 173.548231 239.185267 
L 174.157161 236.235655 
L 174.86758 231.526052 
L 175.780975 223.676605 
L 176.998836 210.857513 
L 181.362836 162.635634 
L 182.98665 147.919043 
L 184.508976 135.989623 
L 186.031301 125.679468 
L 187.553627 116.797242 
L 189.075953 109.148275 
L 190.598278 102.56725 
L 192.222092 96.549415 
L 193.845906 91.408338 
L 195.368232 87.262268 
L 196.992046 83.427689 
L 198.717348 79.909287 
L 200.544139 76.694795 
L 202.472418 73.76766 
L 204.400697 71.239579 
L 206.531953 68.812045 
L 208.663209 66.718086 
L 210.997442 64.743413 
L 213.433163 62.984598 
L 215.868884 61.496055 
L 218.60907 60.0833 
L 221.552233 58.842338 
L 224.596884 57.805745 
L 228.960884 56.59878 
L 236.876977 54.453308 
L 247.228791 51.325576 
L 258.595489 48.212858 
L 262.249071 47.585364 
L 267.120513 47.00026 
L 276.254467 45.85518 
L 285.286932 44.779048 
L 289.752421 44.502908 
L 293.710467 44.455021 
L 297.567025 44.616891 
L 302.742932 45.138587 
L 308.121816 45.900752 
L 316.03791 46.949719 
L 321.213817 47.469874 
L 330.449259 48.365769 
L 335.117724 49.034052 
L 340.598096 50.075519 
L 350.543957 52.038379 
L 354.70498 52.625206 
L 360.794283 53.176481 
L 365.665725 53.393157 
L 371.653539 53.433816 
L 373.581818 53.405001 
L 373.581818 53.405001 
" style="fill:none;stroke:#40b5c4;stroke-dasharray:5.55,2.4;stroke-dashoffset:0;stroke-width:1.5;"/>
    <defs>
     <path d="M 0 3 
C 0.795609 3 1.55874 2.683901 2.12132 2.12132 
C 2.683901 1.55874 3 0.795609 3 0 
C 3 -0.795609 2.683901 -1.55874 2.12132 -2.12132 
C 1.55874 -2.683901 0.795609 -3 0 -3 
C -0.795609 -3 -1.55874 -2.683901 -2.12132 -2.12132 
C -2.683901 -1.55874 -3 -0.795609 -3 0 
C -3 0.795609 -2.683901 1.55874 -2.12132 2.12132 
C -1.55874 2.683901 -0.795609 3 0 3 
z
" id="m0fbb925dd8" style="stroke:#40b5c4;"/>
    </defs>
    <g clip-path="url(#pb42997af9c)">
     <use style="fill:#40b5c4;stroke:#40b5c4;" x="69.218182" xlink:href="#m0fbb925dd8" y="46.984696"/>
     <use style="fill:#40b5c4;stroke:#40b5c4;" x="77.337252" xlink:href="#m0fbb925dd8" y="50.63603"/>
     <use style="fill:#40b5c4;stroke:#40b5c4;" x="85.456322" xlink:href="#m0fbb925dd8" y="82.373767"/>
     <use style="fill:#40b5c4;stroke:#40b5c4;" x="93.575392" xlink:href="#m0fbb925dd8" y="121.028342"/>
     <use style="fill:#40b5c4;stroke:#40b5c4;" x="101.694462" xlink:href="#m0fbb925dd8" y="143.831393"/>
     <use style="fill:#40b5c4;stroke:#40b5c4;" x="109.813532" xlink:href="#m0fbb925dd8" y="146.865216"/>
     <use style="fill:#40b5c4;stroke:#40b5c4;" x="117.932602" xlink:href="#m0fbb925dd8" y="141.161024"/>
     <use style="fill:#40b5c4;stroke:#40b5c4;" x="126.051672" xlink:href="#m0fbb925dd8" y="136.258427"/>
     <use style="fill:#40b5c4;stroke:#40b5c4;" x="134.170742" xlink:href="#m0fbb925dd8" y="135.207248"/>
     <use style="fill:#40b5c4;stroke:#40b5c4;" x="142.289812" xlink:href="#m0fbb925dd8" y="139.353451"/>
     <use style="fill:#40b5c4;stroke:#40b5c4;" x="150.408882" xlink:href="#m0fbb925dd8" y="152.164105"/>
     <use style="fill:#40b5c4;stroke:#40b5c4;" x="158.527952" xlink:href="#m0fbb925dd8" y="180.752587"/>
     <use style="fill:#40b5c4;stroke:#40b5c4;" x="166.647022" xlink:href="#m0fbb925dd8" y="220.423046"/>
     <use style="fill:#40b5c4;stroke:#40b5c4;" x="174.766092" xlink:href="#m0fbb925dd8" y="232.278941"/>
     <use style="fill:#40b5c4;stroke:#40b5c4;" x="182.885162" xlink:href="#m0fbb925dd8" y="148.777724"/>
     <use style="fill:#40b5c4;stroke:#40b5c4;" x="191.004232" xlink:href="#m0fbb925dd8" y="100.973338"/>
     <use style="fill:#40b5c4;stroke:#40b5c4;" x="199.123302" xlink:href="#m0fbb925dd8" y="79.153751"/>
     <use style="fill:#40b5c4;stroke:#40b5c4;" x="207.242372" xlink:href="#m0fbb925dd8" y="68.080976"/>
     <use style="fill:#40b5c4;stroke:#40b5c4;" x="215.361442" xlink:href="#m0fbb925dd8" y="61.78662"/>
     <use style="fill:#40b5c4;stroke:#40b5c4;" x="223.480512" xlink:href="#m0fbb925dd8" y="58.161258"/>
     <use style="fill:#40b5c4;stroke:#40b5c4;" x="231.599582" xlink:href="#m0fbb925dd8" y="55.932373"/>
     <use style="fill:#40b5c4;stroke:#40b5c4;" x="239.718652" xlink:href="#m0fbb925dd8" y="53.555438"/>
     <use style="fill:#40b5c4;stroke:#40b5c4;" x="247.837722" xlink:href="#m0fbb925dd8" y="51.154632"/>
     <use style="fill:#40b5c4;stroke:#40b5c4;" x="255.956792" xlink:href="#m0fbb925dd8" y="48.828367"/>
     <use style="fill:#40b5c4;stroke:#40b5c4;" x="264.075862" xlink:href="#m0fbb925dd8" y="47.344099"/>
     <use style="fill:#40b5c4;stroke:#40b5c4;" x="272.194932" xlink:href="#m0fbb925dd8" y="46.367787"/>
     <use style="fill:#40b5c4;stroke:#40b5c4;" x="280.314002" xlink:href="#m0fbb925dd8" y="45.328985"/>
     <use style="fill:#40b5c4;stroke:#40b5c4;" x="288.433072" xlink:href="#m0fbb925dd8" y="44.5694"/>
     <use style="fill:#40b5c4;stroke:#40b5c4;" x="296.552142" xlink:href="#m0fbb925dd8" y="44.54649"/>
     <use style="fill:#40b5c4;stroke:#40b5c4;" x="304.671212" xlink:href="#m0fbb925dd8" y="45.393437"/>
     <use style="fill:#40b5c4;stroke:#40b5c4;" x="312.790282" xlink:href="#m0fbb925dd8" y="46.552489"/>
     <use style="fill:#40b5c4;stroke:#40b5c4;" x="320.909352" xlink:href="#m0fbb925dd8" y="47.443441"/>
     <use style="fill:#40b5c4;stroke:#40b5c4;" x="329.028422" xlink:href="#m0fbb925dd8" y="48.203182"/>
     <use style="fill:#40b5c4;stroke:#40b5c4;" x="337.147492" xlink:href="#m0fbb925dd8" y="49.389721"/>
     <use style="fill:#40b5c4;stroke:#40b5c4;" x="345.266562" xlink:href="#m0fbb925dd8" y="51.049761"/>
     <use style="fill:#40b5c4;stroke:#40b5c4;" x="353.385632" xlink:href="#m0fbb925dd8" y="52.468021"/>
     <use style="fill:#40b5c4;stroke:#40b5c4;" x="361.504702" xlink:href="#m0fbb925dd8" y="53.220651"/>
     <use style="fill:#40b5c4;stroke:#40b5c4;" x="369.623772" xlink:href="#m0fbb925dd8" y="53.444599"/>
    </g>
   </g>
   <g id="line2d_15">
    <path clip-path="url(#pb42997af9c)" d="M 69.218182 48.785494 
L 69.31967 48.879864 
L 69.421159 48.717046 
L 69.624135 48.832415 
L 70.131577 48.773287 
L 70.233066 48.993526 
L 70.334554 48.612758 
L 70.436042 48.822261 
L 70.639019 48.697191 
L 70.740507 48.883224 
L 70.943484 48.726747 
L 71.044973 48.728672 
L 71.146461 48.550432 
L 71.247949 49.085752 
L 71.349438 48.567181 
L 71.552414 48.85861 
L 71.653903 48.599987 
L 71.755391 48.912416 
L 71.85688 48.554919 
L 71.958368 48.940119 
L 72.161345 48.59719 
L 72.262833 48.891072 
L 72.364321 48.524873 
L 72.567298 49.000501 
L 72.668787 48.619152 
L 72.770275 48.939011 
L 72.871763 48.638335 
L 73.07474 49.042336 
L 73.176228 48.638898 
L 73.379205 48.830036 
L 73.480694 48.825313 
L 73.582182 49.005297 
L 73.68367 48.886894 
L 73.785159 49.13954 
L 73.886647 48.797483 
L 74.089624 49.215109 
L 74.191112 48.833178 
L 74.394089 49.19687 
L 74.495577 49.007368 
L 74.597066 49.238397 
L 74.698554 49.025697 
L 74.901531 49.441942 
L 75.003019 49.31204 
L 75.104508 49.557365 
L 75.205996 49.338507 
L 75.408973 49.622089 
L 75.510461 49.587974 
L 75.611949 49.95708 
L 75.713438 49.695532 
L 76.017903 50.09601 
L 76.119391 50.602465 
L 76.22088 50.407748 
L 76.423856 50.697979 
L 76.82981 51.436935 
L 76.931298 51.322855 
L 77.337252 52.622345 
L 77.43874 52.548248 
L 77.641717 52.925655 
L 78.352136 54.776377 
L 78.656601 55.639422 
L 78.859577 56.065058 
L 79.164043 57.154627 
L 79.367019 57.570763 
L 79.874461 59.358142 
L 80.280415 60.668476 
L 80.483391 61.309447 
L 81.904229 67.081363 
L 82.107205 67.974035 
L 82.716136 71.069442 
L 82.817624 71.163884 
L 83.832508 76.445531 
L 83.933996 76.682246 
L 84.33995 79.126854 
L 84.441438 79.28226 
L 86.572694 90.18701 
L 86.877159 91.862399 
L 86.978647 92.142421 
L 87.181624 93.482928 
L 87.993531 97.574569 
L 88.602461 100.784999 
L 88.805438 101.563828 
L 89.109903 103.203921 
L 89.31288 103.979008 
L 89.515857 104.803124 
L 89.92181 107.183481 
L 90.023299 107.265225 
L 90.327764 108.748932 
L 91.038182 112.447307 
L 91.139671 112.597118 
L 91.545624 114.556107 
L 93.981345 125.065302 
L 94.082834 125.151807 
L 94.184322 125.427578 
L 94.488787 126.88538 
L 94.691764 127.363424 
L 95.097717 128.921263 
L 95.199206 128.96586 
L 95.605159 130.59044 
L 95.706648 130.796092 
L 95.808136 131.321784 
L 95.909624 131.242401 
L 96.112601 132.195419 
L 96.82302 134.146034 
L 96.924508 134.566566 
L 97.025997 134.408634 
L 97.330462 135.824256 
L 97.43195 135.758025 
L 98.243857 137.695687 
L 98.446834 138.580712 
L 98.548322 138.634064 
L 98.649811 139.074923 
L 98.751299 138.981044 
L 99.157252 140.368164 
L 99.258741 140.056988 
L 99.461718 140.841812 
L 99.563206 141.301727 
L 99.664694 141.257022 
L 100.070648 142.16072 
L 101.18702 143.86125 
L 104.637625 147.93151 
L 104.739113 147.979213 
L 105.043578 148.370226 
L 105.246555 148.52714 
L 105.956974 149.236749 
L 108.291206 151.417821 
L 108.595671 151.100287 
L 108.69716 151.102803 
L 109.103113 150.688502 
L 109.610555 150.164045 
L 109.813532 150.063335 
L 110.320974 149.54896 
L 110.422462 149.511875 
L 110.625439 149.269937 
L 112.147764 148.007506 
L 112.350741 147.814706 
L 113.467113 146.920126 
L 113.974555 146.50439 
L 115.598369 145.21154 
L 115.699858 145.19233 
L 116.105811 144.810054 
L 116.511765 144.466835 
L 116.81623 144.260438 
L 118.03409 143.308691 
L 118.64302 142.810937 
L 119.353439 142.318597 
L 119.759393 141.992925 
L 120.977253 141.306995 
L 121.18023 141.082178 
L 121.484695 140.915582 
L 121.890648 140.59932 
L 121.992137 140.648821 
L 122.093625 140.388655 
L 122.296602 140.38395 
L 122.499579 140.274938 
L 122.804044 140.01815 
L 123.920416 139.270403 
L 124.021904 139.333292 
L 124.224881 139.108493 
L 125.036788 138.678988 
L 125.239765 138.48329 
L 126.457625 137.744207 
L 126.559114 137.748095 
L 126.76209 137.561462 
L 127.066556 137.413758 
L 127.269532 137.256245 
L 127.776974 136.98042 
L 129.806742 135.974903 
L 131.430556 136.042824 
L 131.532044 136.176704 
L 131.735021 136.084187 
L 131.937998 136.065676 
L 132.140974 136.173579 
L 132.242463 136.043187 
L 132.546928 136.345298 
L 132.648416 136.188348 
L 132.749905 136.301119 
L 132.851393 136.164914 
L 133.155858 136.40766 
L 133.257346 136.209547 
L 133.460323 136.40063 
L 133.561812 136.528407 
L 133.6633 136.440649 
L 133.764788 136.569969 
L 133.967765 136.4952 
L 134.576695 136.838692 
L 134.779672 136.813932 
L 135.388602 137.173919 
L 135.490091 137.076243 
L 135.794556 137.306473 
L 135.896044 137.282476 
L 136.200509 137.555649 
L 137.621347 138.43744 
L 138.128788 138.93801 
L 138.433254 139.029691 
L 138.737719 139.339777 
L 138.839207 139.054905 
L 138.940695 139.21171 
L 139.042184 139.096649 
L 139.245161 139.125751 
L 139.854091 138.958882 
L 140.767486 138.899844 
L 141.274928 139.4159 
L 141.579393 139.682679 
L 141.680882 139.873735 
L 141.78237 139.621788 
L 142.086835 140.281542 
L 142.188323 140.186173 
L 142.492789 140.499128 
L 142.594277 140.666142 
L 142.695765 140.521181 
L 143.101719 141.09553 
L 143.304696 141.245078 
L 143.507672 141.44102 
L 143.609161 141.608352 
L 143.710649 141.55312 
L 143.913626 141.846702 
L 144.015114 142.138922 
L 144.218091 142.123944 
L 144.319579 142.163536 
L 145.638928 144.376779 
L 145.943393 145.30739 
L 146.044882 145.263239 
L 146.349347 145.858223 
L 146.450835 145.952294 
L 146.552324 145.85539 
L 146.653812 146.092904 
L 146.7553 146.029107 
L 146.958277 146.287902 
L 147.161254 146.180126 
L 147.567207 146.451437 
L 147.973161 147.596747 
L 148.785068 149.64273 
L 149.495486 151.360654 
L 149.698463 151.969353 
L 151.423765 156.103247 
L 151.626742 156.644989 
L 152.134184 157.803659 
L 152.337161 158.275136 
L 152.540138 158.859594 
L 152.844603 159.465741 
L 153.960975 162.023911 
L 154.062463 162.064675 
L 154.26544 162.863767 
L 154.569905 164.156227 
L 154.671393 164.339417 
L 155.280324 167.042739 
L 155.990742 169.421797 
L 156.295207 170.921788 
L 157.005626 173.438223 
L 157.41158 175.198118 
L 157.513068 175.266983 
L 157.716045 176.272418 
L 157.919021 177.011319 
L 159.644324 183.925865 
L 159.745812 183.981388 
L 160.050277 185.616976 
L 160.354742 186.646072 
L 161.77558 192.984298 
L 161.978556 194.02472 
L 163.196417 199.469938 
L 163.500882 200.841399 
L 165.632138 213.90356 
L 165.733626 214.125252 
L 167.763394 225.92064 
L 168.270836 228.148716 
L 168.473812 229.048091 
L 169.691673 233.686823 
L 169.793161 233.74933 
L 170.199115 235.380286 
L 170.50358 235.791063 
L 170.706557 236.557831 
L 170.808045 236.524751 
L 171.011022 237.03453 
L 171.11251 237.792614 
L 171.315487 237.757864 
L 171.924417 238.844308 
L 172.127394 239.466059 
L 172.228882 239.359428 
L 172.431859 239.642992 
L 172.939301 240.697301 
L 173.040789 240.48718 
L 173.142278 240.867276 
L 173.243766 240.839701 
L 173.446743 241.205573 
L 173.64972 240.482621 
L 174.360138 235.980639 
L 175.172045 229.680379 
L 175.679487 224.503438 
L 176.085441 220.611637 
L 176.389906 217.158478 
L 177.100324 208.875414 
L 177.506278 204.3381 
L 178.216696 196.576768 
L 179.130092 186.648851 
L 181.159859 166.557056 
L 181.667301 162.040996 
L 182.37772 155.599644 
L 183.59558 145.380397 
L 184.001534 142.135216 
L 185.117906 133.566253 
L 185.625348 129.905953 
L 188.162557 112.540387 
L 189.786371 106.846655 
L 189.88786 106.687162 
L 190.598278 104.253816 
L 190.902743 103.315494 
L 192.019115 99.012207 
L 192.120604 98.829534 
L 192.628046 96.861026 
L 194.353348 90.82146 
L 194.962278 89.300569 
L 195.368232 88.464464 
L 196.281627 86.376899 
L 196.383116 86.373284 
L 196.687581 85.627353 
L 197.093534 84.803691 
L 197.195023 84.726561 
L 197.499488 83.931038 
L 197.702464 83.650762 
L 198.209906 82.707389 
L 198.412883 82.289073 
L 199.83372 79.667569 
L 200.036697 79.364168 
L 200.341162 78.712153 
L 200.950092 77.696482 
L 201.356046 76.884573 
L 201.559023 76.648022 
L 201.964976 75.887377 
L 202.269441 75.358033 
L 202.878372 74.304796 
L 202.97986 74.245049 
L 203.690279 72.922308 
L 203.893255 72.651351 
L 204.502186 71.641892 
L 206.937907 67.784678 
L 207.140883 67.493993 
L 207.749814 66.477813 
L 208.460232 66.019951 
L 209.069162 65.663271 
L 209.982558 65.114653 
L 210.084046 65.177997 
L 210.287023 64.983262 
L 211.606372 64.343836 
L 211.809349 64.308685 
L 212.621256 63.913312 
L 212.722744 63.937691 
L 213.128697 63.616978 
L 213.331674 63.66835 
L 213.534651 63.480246 
L 213.839116 63.382661 
L 214.042093 63.236628 
L 214.24507 63.175156 
L 214.346558 63.160515 
L 214.448046 63.032375 
L 214.549535 63.08511 
L 214.752511 62.990612 
L 215.259953 62.731063 
L 216.477814 62.107204 
L 216.579302 62.153981 
L 216.883767 61.963715 
L 220.740326 60.109069 
L 221.044791 59.88229 
L 221.146279 59.951119 
L 221.450744 59.678491 
L 221.653721 59.613459 
L 221.755209 59.589807 
L 221.958186 59.455491 
L 223.379023 58.650613 
L 223.480512 58.754792 
L 223.784977 58.511083 
L 225.510279 57.614996 
L 225.713256 57.398499 
L 226.322186 57.080984 
L 226.626651 56.900019 
L 227.134093 56.58194 
L 227.33707 56.538724 
L 227.438558 56.581904 
L 227.540047 56.440576 
L 227.844512 56.583375 
L 227.946 56.448914 
L 228.148977 56.489623 
L 228.757907 56.442901 
L 228.960884 56.43767 
L 229.569814 56.36528 
L 229.975768 56.379485 
L 234.644233 56.014812 
L 234.745721 56.085749 
L 235.050186 55.978354 
L 235.963582 55.63152 
L 236.268047 55.442997 
L 237.181442 55.182649 
L 239.312698 54.599445 
L 239.515675 54.505256 
L 239.82014 54.444692 
L 240.124605 54.380441 
L 240.327582 54.285381 
L 240.733535 54.257242 
L 241.139489 54.079856 
L 241.240977 54.104343 
L 241.342466 53.98149 
L 241.443954 54.045323 
L 241.748419 53.923669 
L 243.676698 53.436869 
L 243.981163 53.293724 
L 244.18414 53.270454 
L 244.387117 53.212143 
L 244.996047 53.026946 
L 245.199024 52.983693 
L 245.402001 52.894755 
L 245.909443 52.73864 
L 246.315396 52.60031 
L 246.518373 52.616695 
L 247.431768 52.331351 
L 247.93921 52.164937 
L 249.461536 51.669944 
L 249.563024 51.727402 
L 249.867489 51.566328 
L 250.171954 51.448688 
L 250.983861 51.236333 
L 251.389815 51.0392 
L 251.491303 51.10218 
L 251.795768 50.918145 
L 251.998745 50.861651 
L 252.506187 50.751985 
L 252.709164 50.631475 
L 254.332978 50.077481 
L 254.535954 50.082222 
L 254.84042 49.913846 
L 255.144885 49.830012 
L 255.347861 49.783599 
L 255.550838 49.726487 
L 255.753815 49.649501 
L 255.855303 49.542888 
L 256.05828 49.562633 
L 256.870187 49.298325 
L 257.174652 49.195726 
L 257.276141 49.0928 
L 257.377629 49.23044 
L 257.682094 49.09142 
L 258.494001 49.049839 
L 258.696978 48.994688 
L 258.899955 49.009566 
L 259.305908 48.94862 
L 259.610373 48.944987 
L 260.219303 48.886476 
L 260.320792 48.957994 
L 260.726745 48.793596 
L 261.132699 48.816975 
L 261.640141 48.747837 
L 261.741629 48.70998 
L 261.843117 48.79474 
L 262.046094 48.655447 
L 262.452048 48.699916 
L 262.858001 48.578716 
L 263.060978 48.6268 
L 264.075862 48.447306 
L 264.17735 48.572194 
L 264.278838 48.450376 
L 264.380327 48.517098 
L 264.583304 48.452084 
L 264.989257 48.370884 
L 265.395211 48.34607 
L 265.699676 48.286196 
L 266.105629 48.308867 
L 266.714559 48.225777 
L 266.917536 48.160091 
L 267.93242 48.112243 
L 268.135397 48.01731 
L 268.54135 47.985774 
L 268.642839 47.889715 
L 268.744327 48.014004 
L 269.048792 47.882921 
L 269.251769 47.932949 
L 269.454746 47.793183 
L 269.657722 47.865773 
L 270.368141 47.706788 
L 270.571118 47.719613 
L 270.774094 47.692801 
L 271.180048 47.661193 
L 271.281536 47.524225 
L 271.586001 47.634053 
L 271.68749 47.536468 
L 271.788978 47.600374 
L 271.991955 47.460173 
L 272.499397 47.489347 
L 272.600885 47.362115 
L 272.803862 47.408401 
L 273.717257 47.272123 
L 273.818746 47.323023 
L 273.920234 47.1765 
L 274.224699 47.292541 
L 274.427676 47.243967 
L 274.732141 47.15452 
L 275.138095 47.163602 
L 275.341071 47.089596 
L 276.05149 46.995135 
L 276.152978 47.102603 
L 276.254467 46.960693 
L 276.355955 47.009922 
L 276.558932 46.921565 
L 277.066374 46.936788 
L 277.26935 46.817113 
L 277.573816 46.8521 
L 280.212513 46.547864 
L 280.314002 46.612097 
L 280.516978 46.512913 
L 280.922932 46.547573 
L 281.125909 46.406935 
L 281.328885 46.536964 
L 281.531862 46.454965 
L 282.546746 46.351276 
L 283.054188 46.312111 
L 283.155676 46.271239 
L 283.257165 46.40966 
L 283.460141 46.280576 
L 284.069072 46.183645 
L 284.272048 46.268587 
L 284.982467 46.163953 
L 285.185444 46.24835 
L 285.38842 46.128022 
L 285.794374 46.155742 
L 285.997351 46.087149 
L 286.200327 46.122064 
L 293.608979 45.879009 
L 293.710467 45.978374 
L 293.913444 45.941934 
L 294.217909 45.878464 
L 294.420886 45.868001 
L 294.928328 45.933978 
L 295.131304 45.93841 
L 295.537258 45.959737 
L 295.841723 45.925004 
L 296.0447 45.911998 
L 296.349165 45.949419 
L 297.770002 46.009292 
L 297.972979 46.018084 
L 298.175956 46.017975 
L 298.581909 46.038393 
L 298.784886 46.059611 
L 299.190839 46.139502 
L 299.292328 46.046023 
L 299.495304 46.167296 
L 300.002746 46.118031 
L 300.4087 46.215543 
L 300.611677 46.195198 
L 300.916142 46.282502 
L 301.119118 46.188041 
L 301.322095 46.312947 
L 301.829537 46.292638 
L 302.134002 46.427826 
L 302.641444 46.401449 
L 302.742932 46.479089 
L 302.945909 46.381177 
L 303.148886 46.494784 
L 303.250374 46.445846 
L 303.453351 46.466228 
L 306.599491 46.800946 
L 306.802467 46.856169 
L 307.005444 46.866487 
L 307.208421 46.909031 
L 307.309909 46.999204 
L 307.512886 46.9636 
L 308.020328 46.981402 
L 308.223305 47.064092 
L 308.426281 47.034082 
L 308.730747 47.107362 
L 308.832235 47.002147 
L 309.1367 47.191214 
L 309.441165 47.105727 
L 309.644142 47.206146 
L 309.74563 47.156445 
L 309.948607 47.223767 
L 310.862002 47.302678 
L 311.064979 47.382788 
L 311.369444 47.362842 
L 313.297723 47.517794 
L 313.399212 47.60586 
L 313.5007 47.483497 
L 313.805165 47.608731 
L 314.211119 47.616251 
L 314.414096 47.597831 
L 314.921537 47.68172 
L 315.428979 47.710312 
L 315.733444 47.755326 
L 315.936421 47.759359 
L 316.342375 47.820105 
L 316.443863 47.736398 
L 316.545351 47.897781 
L 316.748328 47.865628 
L 317.458747 47.984176 
L 317.560235 47.861813 
L 317.661724 47.956092 
L 317.8647 47.949661 
L 318.067677 47.951006 
L 318.270654 47.956928 
L 318.372142 48.090226 
L 318.473631 47.978726 
L 318.575119 48.078964 
L 318.778096 47.977891 
L 319.082561 48.04652 
L 319.488514 48.109627 
L 319.590003 48.061198 
L 319.792979 48.116639 
L 319.995956 48.086193 
L 320.300421 48.229665 
L 320.503398 48.147339 
L 320.909352 48.20852 
L 321.01084 48.158093 
L 321.213817 48.301201 
L 321.416793 48.203143 
L 321.61977 48.323145 
L 321.924235 48.265742 
L 322.2287 48.337859 
L 322.939119 48.453065 
L 323.040607 48.319548 
L 323.345073 48.517952 
L 323.649538 48.447579 
L 325.577817 48.647545 
L 325.780794 48.69572 
L 325.98377 48.657136 
L 326.288235 48.749453 
L 326.389724 48.630615 
L 326.592701 48.828401 
L 326.795677 48.71592 
L 326.998654 48.753559 
L 327.607584 48.920682 
L 327.810561 48.810344 
L 327.912049 48.996795 
L 328.013538 48.828619 
L 328.216515 48.923843 
L 328.419491 48.926713 
L 328.723956 48.966713 
L 328.825445 49.098123 
L 329.028422 48.981754 
L 329.535863 49.067605 
L 329.637352 49.000174 
L 329.73884 49.180776 
L 329.941817 49.009402 
L 330.144794 49.115126 
L 330.34777 49.105462 
L 330.449259 49.22648 
L 330.550747 49.09983 
L 330.753724 49.200322 
L 331.261166 49.154944 
L 331.464143 49.293656 
L 331.667119 49.304011 
L 331.768608 49.348335 
L 331.870096 49.239741 
L 332.073073 49.418199 
L 332.174561 49.262048 
L 332.479026 49.400869 
L 332.783491 49.413367 
L 332.88498 49.375728 
L 332.986468 49.517819 
L 333.189445 49.388771 
L 333.392422 49.615295 
L 333.49391 49.456165 
L 333.696887 49.577911 
L 333.899864 49.541471 
L 334.204329 49.615695 
L 334.305817 49.726359 
L 334.508794 49.546666 
L 334.711771 49.67942 
L 334.914747 49.668339 
L 335.016236 49.740964 
L 335.117724 49.666813 
L 335.320701 49.814099 
L 335.422189 49.688648 
L 335.625166 49.821111 
L 335.828143 49.768067 
L 336.031119 49.832882 
L 337.85791 50.124838 
L 337.959399 50.167636 
L 338.060887 50.045455 
L 338.263864 50.216974 
L 338.46684 50.191615 
L 338.568329 50.293269 
L 338.771306 50.216138 
L 338.872794 50.29534 
L 338.974282 50.210071 
L 339.380236 50.373815 
L 339.583213 50.351508 
L 339.989166 50.416831 
L 340.192143 50.5429 
L 340.39512 50.523972 
L 340.496608 50.615417 
L 340.699585 50.51696 
L 340.902561 50.607787 
L 341.105538 50.734219 
L 341.308515 50.61865 
L 341.511492 50.770587 
L 341.714468 50.742321 
L 342.018934 50.877618 
L 342.120422 50.930552 
L 342.323399 50.864939 
L 342.526375 50.93989 
L 342.627864 50.913586 
L 342.830841 51.1307 
L 342.932329 50.985267 
L 343.135306 51.122489 
L 343.338282 51.087139 
L 343.744236 51.303091 
L 343.947213 51.21052 
L 344.150189 51.293863 
L 344.353166 51.298005 
L 344.454655 51.391666 
L 344.556143 51.324708 
L 344.75912 51.483802 
L 344.962096 51.392429 
L 345.165073 51.52333 
L 345.266562 51.420513 
L 345.469538 51.607436 
L 345.672515 51.62364 
L 345.774003 51.707928 
L 345.97698 51.611796 
L 346.078469 51.755449 
L 346.179957 51.651978 
L 346.484422 51.864152 
L 346.58591 51.733941 
L 346.788887 51.872581 
L 346.991864 51.857794 
L 347.397817 52.076398 
L 347.600794 51.94517 
L 347.803771 52.055689 
L 347.905259 51.996288 
L 348.108236 52.172276 
L 348.209724 52.109859 
L 348.412701 52.293076 
L 348.615678 52.17322 
L 348.818655 52.283485 
L 348.920143 52.223829 
L 349.12312 52.413114 
L 349.224608 52.315674 
L 349.427585 52.462197 
L 349.630562 52.358509 
L 349.73205 52.513751 
L 349.935027 52.448864 
L 350.036515 52.616277 
L 350.34098 52.569955 
L 350.442469 52.654098 
L 350.645445 52.573152 
L 350.949911 52.728831 
L 351.964794 52.926908 
L 352.167771 52.974247 
L 352.269259 52.944165 
L 352.472236 53.071251 
L 352.675213 53.072341 
L 352.87819 53.125239 
L 354.09605 53.49756 
L 354.299027 53.424135 
L 354.502004 53.566117 
L 354.603492 53.497851 
L 354.806469 53.598415 
L 355.009446 53.646772 
L 355.212422 53.67798 
L 355.313911 53.626099 
L 355.516887 53.785992 
L 355.618376 53.718998 
L 356.024329 53.875766 
L 356.227306 53.91722 
L 356.328794 54.013824 
L 356.531771 53.93811 
L 356.734748 54.018911 
L 356.937725 54.044996 
L 357.343678 54.215789 
L 357.546655 54.141528 
L 357.749632 54.267233 
L 357.85112 54.173536 
L 358.054097 54.322965 
L 358.257074 54.352938 
L 358.358562 54.431304 
L 358.561539 54.333756 
L 358.764515 54.450923 
L 358.866004 54.391631 
L 359.068981 54.489398 
L 359.271957 54.547128 
L 359.373446 54.671961 
L 359.576422 54.533649 
L 359.779399 54.635449 
L 360.489818 54.776159 
L 360.692795 54.798575 
L 360.99726 54.893872 
L 361.403213 54.927805 
L 364.853818 55.304631 
L 367.289539 55.649267 
L 367.594004 55.695807 
L 368.405911 55.825509 
L 368.710376 55.817662 
L 368.913353 55.876155 
L 369.014841 55.778969 
L 369.11633 55.969707 
L 369.319306 55.916809 
L 369.623772 56.004113 
L 369.826748 55.988999 
L 370.232702 56.075939 
L 370.33419 56.005421 
L 370.537167 56.051888 
L 370.740144 56.132398 
L 370.841632 56.049236 
L 371.044609 56.124732 
L 371.146097 56.119319 
L 371.247586 56.237068 
L 371.349074 56.115613 
L 371.552051 56.197539 
L 371.653539 56.135486 
L 371.755027 56.313072 
L 371.958004 56.208657 
L 372.262469 56.342573 
L 372.363958 56.215124 
L 372.566934 56.381338 
L 372.668423 56.269293 
L 372.769911 56.390312 
L 372.972888 56.33171 
L 373.074376 56.441648 
L 373.378841 56.356706 
L 373.581818 56.424645 
L 373.581818 56.424645 
" style="fill:none;stroke:#081d58;stroke-dasharray:5.55,2.4;stroke-dashoffset:0;stroke-width:1.5;"/>
    <defs>
     <path d="M -0 4.242641 
L 4.242641 0 
L 0 -4.242641 
L -4.242641 -0 
z
" id="mbc6d8a3556" style="stroke:#081d58;stroke-linejoin:miter;"/>
    </defs>
    <g clip-path="url(#pb42997af9c)">
     <use style="fill:#081d58;stroke:#081d58;stroke-linejoin:miter;" x="69.218182" xlink:href="#mbc6d8a3556" y="48.785494"/>
     <use style="fill:#081d58;stroke:#081d58;stroke-linejoin:miter;" x="77.337252" xlink:href="#mbc6d8a3556" y="52.622345"/>
     <use style="fill:#081d58;stroke:#081d58;stroke-linejoin:miter;" x="85.456322" xlink:href="#mbc6d8a3556" y="84.493951"/>
     <use style="fill:#081d58;stroke:#081d58;stroke-linejoin:miter;" x="93.575392" xlink:href="#mbc6d8a3556" y="123.421431"/>
     <use style="fill:#081d58;stroke:#081d58;stroke-linejoin:miter;" x="101.694462" xlink:href="#mbc6d8a3556" y="144.533575"/>
     <use style="fill:#081d58;stroke:#081d58;stroke-linejoin:miter;" x="109.813532" xlink:href="#mbc6d8a3556" y="150.063335"/>
     <use style="fill:#081d58;stroke:#081d58;stroke-linejoin:miter;" x="117.932602" xlink:href="#mbc6d8a3556" y="143.365531"/>
     <use style="fill:#081d58;stroke:#081d58;stroke-linejoin:miter;" x="126.051672" xlink:href="#mbc6d8a3556" y="138.029116"/>
     <use style="fill:#081d58;stroke:#081d58;stroke-linejoin:miter;" x="134.170742" xlink:href="#mbc6d8a3556" y="136.608771"/>
     <use style="fill:#081d58;stroke:#081d58;stroke-linejoin:miter;" x="142.289812" xlink:href="#mbc6d8a3556" y="140.263467"/>
     <use style="fill:#081d58;stroke:#081d58;stroke-linejoin:miter;" x="150.408882" xlink:href="#mbc6d8a3556" y="153.687331"/>
     <use style="fill:#081d58;stroke:#081d58;stroke-linejoin:miter;" x="158.527952" xlink:href="#mbc6d8a3556" y="179.384682"/>
     <use style="fill:#081d58;stroke:#081d58;stroke-linejoin:miter;" x="166.647022" xlink:href="#mbc6d8a3556" y="219.420487"/>
     <use style="fill:#081d58;stroke:#081d58;stroke-linejoin:miter;" x="174.766092" xlink:href="#mbc6d8a3556" y="233.305946"/>
     <use style="fill:#081d58;stroke:#081d58;stroke-linejoin:miter;" x="182.885162" xlink:href="#mbc6d8a3556" y="151.151087"/>
     <use style="fill:#081d58;stroke:#081d58;stroke-linejoin:miter;" x="191.004232" xlink:href="#mbc6d8a3556" y="102.89627"/>
     <use style="fill:#081d58;stroke:#081d58;stroke-linejoin:miter;" x="199.123302" xlink:href="#mbc6d8a3556" y="81.014507"/>
     <use style="fill:#081d58;stroke:#081d58;stroke-linejoin:miter;" x="207.242372" xlink:href="#mbc6d8a3556" y="67.294608"/>
     <use style="fill:#081d58;stroke:#081d58;stroke-linejoin:miter;" x="215.361442" xlink:href="#mbc6d8a3556" y="62.676149"/>
     <use style="fill:#081d58;stroke:#081d58;stroke-linejoin:miter;" x="223.480512" xlink:href="#mbc6d8a3556" y="58.754792"/>
     <use style="fill:#081d58;stroke:#081d58;stroke-linejoin:miter;" x="231.599582" xlink:href="#mbc6d8a3556" y="56.239266"/>
     <use style="fill:#081d58;stroke:#081d58;stroke-linejoin:miter;" x="239.718652" xlink:href="#mbc6d8a3556" y="54.52918"/>
     <use style="fill:#081d58;stroke:#081d58;stroke-linejoin:miter;" x="247.837722" xlink:href="#mbc6d8a3556" y="52.207208"/>
     <use style="fill:#081d58;stroke:#081d58;stroke-linejoin:miter;" x="255.956792" xlink:href="#mbc6d8a3556" y="49.603161"/>
     <use style="fill:#081d58;stroke:#081d58;stroke-linejoin:miter;" x="264.075862" xlink:href="#mbc6d8a3556" y="48.447306"/>
     <use style="fill:#081d58;stroke:#081d58;stroke-linejoin:miter;" x="272.194932" xlink:href="#mbc6d8a3556" y="47.473724"/>
     <use style="fill:#081d58;stroke:#081d58;stroke-linejoin:miter;" x="280.314002" xlink:href="#mbc6d8a3556" y="46.612097"/>
     <use style="fill:#081d58;stroke:#081d58;stroke-linejoin:miter;" x="288.433072" xlink:href="#mbc6d8a3556" y="45.952943"/>
     <use style="fill:#081d58;stroke:#081d58;stroke-linejoin:miter;" x="296.552142" xlink:href="#mbc6d8a3556" y="45.976122"/>
     <use style="fill:#081d58;stroke:#081d58;stroke-linejoin:miter;" x="304.671212" xlink:href="#mbc6d8a3556" y="46.551424"/>
     <use style="fill:#081d58;stroke:#081d58;stroke-linejoin:miter;" x="312.790282" xlink:href="#mbc6d8a3556" y="47.538793"/>
     <use style="fill:#081d58;stroke:#081d58;stroke-linejoin:miter;" x="320.909352" xlink:href="#mbc6d8a3556" y="48.20852"/>
     <use style="fill:#081d58;stroke:#081d58;stroke-linejoin:miter;" x="329.028422" xlink:href="#mbc6d8a3556" y="48.981754"/>
     <use style="fill:#081d58;stroke:#081d58;stroke-linejoin:miter;" x="337.147492" xlink:href="#mbc6d8a3556" y="49.925018"/>
     <use style="fill:#081d58;stroke:#081d58;stroke-linejoin:miter;" x="345.266562" xlink:href="#mbc6d8a3556" y="51.420513"/>
     <use style="fill:#081d58;stroke:#081d58;stroke-linejoin:miter;" x="353.385632" xlink:href="#mbc6d8a3556" y="53.280845"/>
     <use style="fill:#081d58;stroke:#081d58;stroke-linejoin:miter;" x="361.504702" xlink:href="#mbc6d8a3556" y="54.942156"/>
     <use style="fill:#081d58;stroke:#081d58;stroke-linejoin:miter;" x="369.623772" xlink:href="#mbc6d8a3556" y="56.004113"/>
    </g>
   </g>
   <g id="patch_3">
    <path d="M 54 252 
L 54 34.56 
" style="fill:none;stroke:#000000;stroke-linecap:square;stroke-linejoin:miter;stroke-width:0.8;"/>
   </g>
   <g id="patch_4">
    <path d="M 388.8 252 
L 388.8 34.56 
" style="fill:none;stroke:#000000;stroke-linecap:square;stroke-linejoin:miter;stroke-width:0.8;"/>
   </g>
   <g id="patch_5">
    <path d="M 54 252 
L 388.8 252 
" style="fill:none;stroke:#000000;stroke-linecap:square;stroke-linejoin:miter;stroke-width:0.8;"/>
   </g>
   <g id="patch_6">
    <path d="M 54 34.56 
L 388.8 34.56 
" style="fill:none;stroke:#000000;stroke-linecap:square;stroke-linejoin:miter;stroke-width:0.8;"/>
   </g>
   <g id="legend_1">
    <g id="patch_7">
     <path d="M 61 247 
L 162.714063 247 
Q 164.714063 247 164.714063 245 
L 164.714063 216.64375 
Q 164.714063 214.64375 162.714063 214.64375 
L 61 214.64375 
Q 59 214.64375 59 216.64375 
L 59 245 
Q 59 247 61 247 
z
" style="fill:#ffffff;opacity:0.8;stroke:#cccccc;stroke-linejoin:miter;"/>
    </g>
    <g id="line2d_16">
     <path d="M 63 222.742188 
L 83 222.742188 
" style="fill:none;stroke:#40b5c4;stroke-dasharray:5.55,2.4;stroke-dashoffset:0;stroke-width:1.5;"/>
    </g>
    <g id="line2d_17">
     <g>
      <use style="fill:#40b5c4;stroke:#40b5c4;" x="73" xlink:href="#m0fbb925dd8" y="222.742188"/>
     </g>
    </g>
    <g id="text_16">
     <text style="font-family:DejaVu Sans;font-size:10px;font-style:normal;font-weight:normal;text-anchor:start;" transform="rotate(-0, 91, 226.242188)" x="91" y="226.242188">original</text>
    </g>
    <g id="line2d_18">
     <path d="M 63 237.420312 
L 83 237.420312 
" style="fill:none;stroke:#081d58;stroke-dasharray:5.55,2.4;stroke-dashoffset:0;stroke-width:1.5;"/>
    </g>
    <g id="line2d_19">
     <g>
      <use style="fill:#081d58;stroke:#081d58;stroke-linejoin:miter;" x="73" xlink:href="#mbc6d8a3556" y="237.420312"/>
     </g>
    </g>
    <g id="text_17">
     <text style="font-family:DejaVu Sans;font-size:10px;font-style:normal;font-weight:normal;text-anchor:start;" transform="rotate(-0, 91, 240.920312)" x="91" y="240.920312">reconstructed</text>
    </g>
   </g>
  </g>
  <g id="text_18">
   <text style="font-family:DejaVu Sans;font-size:12px;font-style:normal;font-weight:normal;text-anchor:middle;" transform="rotate(-0, 216, 14.878125)" x="216" y="14.878125">Reconstruction of the temperature curve</text>
  </g>
 </g>
 <defs>
  <clipPath id="pb42997af9c">
   <rect height="217.44" width="334.8" x="54" y="34.56"/>
  </clipPath>
 </defs>
</svg>
