<?xml version="1.0" encoding="utf-8" standalone="no"?>
<!DOCTYPE svg PUBLIC "-//W3C//DTD SVG 1.1//EN"
  "http://www.w3.org/Graphics/SVG/1.1/DTD/svg11.dtd">
<!-- Created with matplotlib (https://matplotlib.org/) -->
<svg height="288pt" version="1.1" viewBox="0 0 432 288" width="432pt" xmlns="http://www.w3.org/2000/svg" xmlns:xlink="http://www.w3.org/1999/xlink">
 <defs>
  <style type="text/css">
*{stroke-linecap:butt;stroke-linejoin:round;}
  </style>
 </defs>
 <g id="figure_1">
  <g id="patch_1">
   <path d="M 0 288 
L 432 288 
L 432 0 
L 0 0 
z
" style="fill:#ffffff;"/>
  </g>
  <g id="axes_1">
   <g id="patch_2">
    <path d="M 54 252 
L 388.8 252 
L 388.8 34.56 
L 54 34.56 
z
" style="fill:#ffffff;"/>
   </g>
   <g id="matplotlib.axis_1">
    <g id="xtick_1">
     <g id="line2d_1">
      <defs>
       <path d="M 0 0 
L 0 3.5 
" id="m87dd1dc7b5" style="stroke:#000000;stroke-width:0.8;"/>
      </defs>
      <g>
       <use style="stroke:#000000;stroke-width:0.8;" x="69.218182" xlink:href="#m87dd1dc7b5" y="252"/>
      </g>
     </g>
     <g id="text_1">
      <text style="font-family:DejaVu Sans;font-size:10px;font-style:normal;font-weight:normal;text-anchor:middle;" transform="rotate(-0, 69.218182, 266.598437)" x="69.218182" y="266.598437">0</text>
     </g>
    </g>
    <g id="xtick_2">
     <g id="line2d_2">
      <g>
       <use style="stroke:#000000;stroke-width:0.8;" x="119.962369" xlink:href="#m87dd1dc7b5" y="252"/>
      </g>
     </g>
     <g id="text_2">
      <text style="font-family:DejaVu Sans;font-size:10px;font-style:normal;font-weight:normal;text-anchor:middle;" transform="rotate(-0, 119.962369, 266.598437)" x="119.962369" y="266.598437">500</text>
     </g>
    </g>
    <g id="xtick_3">
     <g id="line2d_3">
      <g>
       <use style="stroke:#000000;stroke-width:0.8;" x="170.706557" xlink:href="#m87dd1dc7b5" y="252"/>
      </g>
     </g>
     <g id="text_3">
      <text style="font-family:DejaVu Sans;font-size:10px;font-style:normal;font-weight:normal;text-anchor:middle;" transform="rotate(-0, 170.706557, 266.598437)" x="170.706557" y="266.598437">1000</text>
     </g>
    </g>
    <g id="xtick_4">
     <g id="line2d_4">
      <g>
       <use style="stroke:#000000;stroke-width:0.8;" x="221.450744" xlink:href="#m87dd1dc7b5" y="252"/>
      </g>
     </g>
     <g id="text_4">
      <text style="font-family:DejaVu Sans;font-size:10px;font-style:normal;font-weight:normal;text-anchor:middle;" transform="rotate(-0, 221.450744, 266.598437)" x="221.450744" y="266.598437">1500</text>
     </g>
    </g>
    <g id="xtick_5">
     <g id="line2d_5">
      <g>
       <use style="stroke:#000000;stroke-width:0.8;" x="272.194932" xlink:href="#m87dd1dc7b5" y="252"/>
      </g>
     </g>
     <g id="text_5">
      <text style="font-family:DejaVu Sans;font-size:10px;font-style:normal;font-weight:normal;text-anchor:middle;" transform="rotate(-0, 272.194932, 266.598437)" x="272.194932" y="266.598437">2000</text>
     </g>
    </g>
    <g id="xtick_6">
     <g id="line2d_6">
      <g>
       <use style="stroke:#000000;stroke-width:0.8;" x="322.939119" xlink:href="#m87dd1dc7b5" y="252"/>
      </g>
     </g>
     <g id="text_6">
      <text style="font-family:DejaVu Sans;font-size:10px;font-style:normal;font-weight:normal;text-anchor:middle;" transform="rotate(-0, 322.939119, 266.598437)" x="322.939119" y="266.598437">2500</text>
     </g>
    </g>
    <g id="xtick_7">
     <g id="line2d_7">
      <g>
       <use style="stroke:#000000;stroke-width:0.8;" x="373.683307" xlink:href="#m87dd1dc7b5" y="252"/>
      </g>
     </g>
     <g id="text_7">
      <text style="font-family:DejaVu Sans;font-size:10px;font-style:normal;font-weight:normal;text-anchor:middle;" transform="rotate(-0, 373.683307, 266.598437)" x="373.683307" y="266.598437">3000</text>
     </g>
    </g>
    <g id="text_8">
     <text style="font-family:DejaVu Sans;font-size:10px;font-style:normal;font-weight:normal;text-anchor:middle;" transform="rotate(-0, 221.4, 280.276563)" x="221.4" y="280.276563">Time</text>
    </g>
   </g>
   <g id="matplotlib.axis_2">
    <g id="ytick_1">
     <g id="line2d_8">
      <defs>
       <path d="M 0 0 
L -3.5 0 
" id="m863925b6b3" style="stroke:#000000;stroke-width:0.8;"/>
      </defs>
      <g>
       <use style="stroke:#000000;stroke-width:0.8;" x="54" xlink:href="#m863925b6b3" y="232.512275"/>
      </g>
     </g>
     <g id="text_9">
      <text style="font-family:DejaVu Sans;font-size:10px;font-style:normal;font-weight:normal;text-anchor:end;" transform="rotate(-0, 47, 236.311494)" x="47" y="236.311494">63</text>
     </g>
    </g>
    <g id="ytick_2">
     <g id="line2d_9">
      <g>
       <use style="stroke:#000000;stroke-width:0.8;" x="54" xlink:href="#m863925b6b3" y="204.12972"/>
      </g>
     </g>
     <g id="text_10">
      <text style="font-family:DejaVu Sans;font-size:10px;font-style:normal;font-weight:normal;text-anchor:end;" transform="rotate(-0, 47, 207.928939)" x="47" y="207.928939">64</text>
     </g>
    </g>
    <g id="ytick_3">
     <g id="line2d_10">
      <g>
       <use style="stroke:#000000;stroke-width:0.8;" x="54" xlink:href="#m863925b6b3" y="175.747165"/>
      </g>
     </g>
     <g id="text_11">
      <text style="font-family:DejaVu Sans;font-size:10px;font-style:normal;font-weight:normal;text-anchor:end;" transform="rotate(-0, 47, 179.546384)" x="47" y="179.546384">65</text>
     </g>
    </g>
    <g id="ytick_4">
     <g id="line2d_11">
      <g>
       <use style="stroke:#000000;stroke-width:0.8;" x="54" xlink:href="#m863925b6b3" y="147.364611"/>
      </g>
     </g>
     <g id="text_12">
      <text style="font-family:DejaVu Sans;font-size:10px;font-style:normal;font-weight:normal;text-anchor:end;" transform="rotate(-0, 47, 151.163829)" x="47" y="151.163829">66</text>
     </g>
    </g>
    <g id="ytick_5">
     <g id="line2d_12">
      <g>
       <use style="stroke:#000000;stroke-width:0.8;" x="54" xlink:href="#m863925b6b3" y="118.982056"/>
      </g>
     </g>
     <g id="text_13">
      <text style="font-family:DejaVu Sans;font-size:10px;font-style:normal;font-weight:normal;text-anchor:end;" transform="rotate(-0, 47, 122.781275)" x="47" y="122.781275">67</text>
     </g>
    </g>
    <g id="ytick_6">
     <g id="line2d_13">
      <g>
       <use style="stroke:#000000;stroke-width:0.8;" x="54" xlink:href="#m863925b6b3" y="90.599501"/>
      </g>
     </g>
     <g id="text_14">
      <text style="font-family:DejaVu Sans;font-size:10px;font-style:normal;font-weight:normal;text-anchor:end;" transform="rotate(-0, 47, 94.39872)" x="47" y="94.39872">68</text>
     </g>
    </g>
    <g id="ytick_7">
     <g id="line2d_14">
      <g>
       <use style="stroke:#000000;stroke-width:0.8;" x="54" xlink:href="#m863925b6b3" y="62.216947"/>
      </g>
     </g>
     <g id="text_15">
      <text style="font-family:DejaVu Sans;font-size:10px;font-style:normal;font-weight:normal;text-anchor:end;" transform="rotate(-0, 47, 66.016165)" x="47" y="66.016165">69</text>
     </g>
    </g>
    <g id="text_16">
     <text style="font-family:DejaVu Sans;font-size:10px;font-style:normal;font-weight:normal;text-anchor:middle;" transform="rotate(-90, 28.195312, 143.28)" x="28.195312" y="143.28">weight (\%)</text>
    </g>
   </g>
   <g id="line2d_15">
    <path clip-path="url(#pb098422dd7)" d="M 69.218182 48.879133 
L 79.468508 49.247822 
L 85.253345 49.598063 
L 88.805438 50.022666 
L 91.951578 50.645379 
L 95.300694 51.599033 
L 99.766183 53.188456 
L 106.667392 55.61857 
L 112.45223 57.378856 
L 125.54423 61.375688 
L 129.197811 62.83966 
L 132.039486 64.222174 
L 134.576695 65.701757 
L 136.910928 67.321265 
L 139.245161 69.241345 
L 140.868975 70.840134 
L 143.00023 73.266559 
L 144.725533 75.583711 
L 146.450835 78.297367 
L 148.074649 81.284347 
L 149.596975 84.592617 
L 151.1193 88.448671 
L 152.743114 93.179192 
L 154.468417 98.935458 
L 156.295207 105.823904 
L 158.324975 114.440563 
L 160.253254 123.623455 
L 162.080045 133.392447 
L 163.906836 144.428719 
L 165.835115 157.425943 
L 168.575301 177.65873 
L 171.416975 198.209403 
L 172.736324 206.166452 
L 173.751208 211.031222 
L 174.563115 213.969668 
L 175.375022 216.08502 
L 176.186929 217.579645 
L 177.201813 218.984014 
L 178.724138 220.667667 
L 180.652417 222.463431 
L 182.98665 224.309149 
L 185.422371 225.932915 
L 188.162557 227.501902 
L 191.410185 229.131345 
L 196.383116 231.349158 
L 201.153069 233.270657 
L 205.821534 234.955445 
L 210.997442 236.534083 
L 215.056977 237.554719 
L 219.725442 238.515185 
L 225.104326 239.396747 
L 232.817442 240.343022 
L 240.632047 241.040949 
L 247.736233 241.509545 
L 252.810652 241.761582 
L 260.726745 242.028378 
L 280.516978 242.030081 
L 291.985165 241.883627 
L 303.047398 241.77407 
L 373.581818 239.865343 
L 373.581818 239.865343 
" style="fill:none;stroke:#40b5c4;stroke-dasharray:5.55,2.4;stroke-dashoffset:0;stroke-width:1.5;"/>
    <defs>
     <path d="M 0 3 
C 0.795609 3 1.55874 2.683901 2.12132 2.12132 
C 2.683901 1.55874 3 0.795609 3 0 
C 3 -0.795609 2.683901 -1.55874 2.12132 -2.12132 
C 1.55874 -2.683901 0.795609 -3 0 -3 
C -0.795609 -3 -1.55874 -2.683901 -2.12132 -2.12132 
C -2.683901 -1.55874 -3 -0.795609 -3 0 
C -3 0.795609 -2.683901 1.55874 -2.12132 2.12132 
C -1.55874 2.683901 -0.795609 3 0 3 
z
" id="m15fd7dfd5e" style="stroke:#40b5c4;"/>
    </defs>
    <g clip-path="url(#pb098422dd7)">
     <use style="fill:#40b5c4;stroke:#40b5c4;" x="69.218182" xlink:href="#m15fd7dfd5e" y="48.879133"/>
     <use style="fill:#40b5c4;stroke:#40b5c4;" x="77.337252" xlink:href="#m15fd7dfd5e" y="49.171757"/>
     <use style="fill:#40b5c4;stroke:#40b5c4;" x="85.456322" xlink:href="#m15fd7dfd5e" y="49.615944"/>
     <use style="fill:#40b5c4;stroke:#40b5c4;" x="93.575392" xlink:href="#m15fd7dfd5e" y="51.073388"/>
     <use style="fill:#40b5c4;stroke:#40b5c4;" x="101.694462" xlink:href="#m15fd7dfd5e" y="53.900858"/>
     <use style="fill:#40b5c4;stroke:#40b5c4;" x="109.813532" xlink:href="#m15fd7dfd5e" y="56.600039"/>
     <use style="fill:#40b5c4;stroke:#40b5c4;" x="117.932602" xlink:href="#m15fd7dfd5e" y="58.947844"/>
     <use style="fill:#40b5c4;stroke:#40b5c4;" x="126.051672" xlink:href="#m15fd7dfd5e" y="61.565851"/>
     <use style="fill:#40b5c4;stroke:#40b5c4;" x="134.170742" xlink:href="#m15fd7dfd5e" y="65.446314"/>
     <use style="fill:#40b5c4;stroke:#40b5c4;" x="142.289812" xlink:href="#m15fd7dfd5e" y="72.411676"/>
     <use style="fill:#40b5c4;stroke:#40b5c4;" x="150.408882" xlink:href="#m15fd7dfd5e" y="86.572584"/>
     <use style="fill:#40b5c4;stroke:#40b5c4;" x="158.527952" xlink:href="#m15fd7dfd5e" y="115.361577"/>
     <use style="fill:#40b5c4;stroke:#40b5c4;" x="166.647022" xlink:href="#m15fd7dfd5e" y="163.276439"/>
     <use style="fill:#40b5c4;stroke:#40b5c4;" x="174.766092" xlink:href="#m15fd7dfd5e" y="214.571662"/>
     <use style="fill:#40b5c4;stroke:#40b5c4;" x="182.885162" xlink:href="#m15fd7dfd5e" y="224.23507"/>
     <use style="fill:#40b5c4;stroke:#40b5c4;" x="191.004232" xlink:href="#m15fd7dfd5e" y="228.937208"/>
     <use style="fill:#40b5c4;stroke:#40b5c4;" x="199.123302" xlink:href="#m15fd7dfd5e" y="232.472823"/>
     <use style="fill:#40b5c4;stroke:#40b5c4;" x="207.242372" xlink:href="#m15fd7dfd5e" y="235.419216"/>
     <use style="fill:#40b5c4;stroke:#40b5c4;" x="215.361442" xlink:href="#m15fd7dfd5e" y="237.623689"/>
     <use style="fill:#40b5c4;stroke:#40b5c4;" x="223.480512" xlink:href="#m15fd7dfd5e" y="239.15209"/>
     <use style="fill:#40b5c4;stroke:#40b5c4;" x="231.599582" xlink:href="#m15fd7dfd5e" y="240.207353"/>
     <use style="fill:#40b5c4;stroke:#40b5c4;" x="239.718652" xlink:href="#m15fd7dfd5e" y="240.973114"/>
     <use style="fill:#40b5c4;stroke:#40b5c4;" x="247.837722" xlink:href="#m15fd7dfd5e" y="241.512383"/>
     <use style="fill:#40b5c4;stroke:#40b5c4;" x="255.956792" xlink:href="#m15fd7dfd5e" y="241.891006"/>
     <use style="fill:#40b5c4;stroke:#40b5c4;" x="264.075862" xlink:href="#m15fd7dfd5e" y="242.085143"/>
     <use style="fill:#40b5c4;stroke:#40b5c4;" x="272.194932" xlink:href="#m15fd7dfd5e" y="242.11239"/>
     <use style="fill:#40b5c4;stroke:#40b5c4;" x="280.314002" xlink:href="#m15fd7dfd5e" y="242.032919"/>
     <use style="fill:#40b5c4;stroke:#40b5c4;" x="288.433072" xlink:href="#m15fd7dfd5e" y="241.915131"/>
     <use style="fill:#40b5c4;stroke:#40b5c4;" x="296.552142" xlink:href="#m15fd7dfd5e" y="241.868016"/>
     <use style="fill:#40b5c4;stroke:#40b5c4;" x="304.671212" xlink:href="#m15fd7dfd5e" y="241.725536"/>
     <use style="fill:#40b5c4;stroke:#40b5c4;" x="312.790282" xlink:href="#m15fd7dfd5e" y="241.469241"/>
     <use style="fill:#40b5c4;stroke:#40b5c4;" x="320.909352" xlink:href="#m15fd7dfd5e" y="241.22799"/>
     <use style="fill:#40b5c4;stroke:#40b5c4;" x="329.028422" xlink:href="#m15fd7dfd5e" y="241.014553"/>
     <use style="fill:#40b5c4;stroke:#40b5c4;" x="337.147492" xlink:href="#m15fd7dfd5e" y="240.789195"/>
     <use style="fill:#40b5c4;stroke:#40b5c4;" x="345.266562" xlink:href="#m15fd7dfd5e" y="240.654378"/>
     <use style="fill:#40b5c4;stroke:#40b5c4;" x="353.385632" xlink:href="#m15fd7dfd5e" y="240.361754"/>
     <use style="fill:#40b5c4;stroke:#40b5c4;" x="361.504702" xlink:href="#m15fd7dfd5e" y="240.097796"/>
     <use style="fill:#40b5c4;stroke:#40b5c4;" x="369.623772" xlink:href="#m15fd7dfd5e" y="239.914445"/>
    </g>
   </g>
   <g id="line2d_16">
    <path clip-path="url(#pb098422dd7)" d="M 69.218182 47.1935 
L 69.31967 47.605362 
L 69.421159 48.813881 
L 69.522647 48.005747 
L 69.624135 48.459186 
L 69.725624 46.221011 
L 69.827112 49.122453 
L 69.9286 47.010089 
L 70.131577 48.81085 
L 70.233066 46.636121 
L 70.334554 49.443151 
L 70.537531 47.116627 
L 70.639019 48.542771 
L 70.740507 46.630708 
L 70.841996 49.258874 
L 70.943484 47.029144 
L 71.044973 47.597783 
L 71.146461 48.880359 
L 71.247949 47.14088 
L 71.349438 49.726171 
L 71.450926 47.679636 
L 71.552414 47.769284 
L 71.653903 48.281622 
L 71.755391 46.981289 
L 71.85688 49.00119 
L 72.059856 47.721428 
L 72.161345 48.305225 
L 72.262833 47.443172 
L 72.364321 48.856107 
L 72.46581 47.893146 
L 72.668787 49.035836 
L 72.770275 47.65495 
L 72.871763 48.517219 
L 73.07474 47.372363 
L 73.176228 49.003788 
L 73.277717 46.756302 
L 73.480694 48.592792 
L 73.582182 47.32559 
L 73.68367 49.521106 
L 73.785159 47.547762 
L 73.886647 48.803271 
L 73.988135 47.97803 
L 74.089624 46.240933 
L 74.191112 49.406989 
L 74.292601 47.542132 
L 74.394089 47.96612 
L 74.495577 47.670974 
L 74.597066 46.751538 
L 74.698554 48.765376 
L 74.800042 47.379725 
L 74.901531 48.727914 
L 75.003019 48.134373 
L 75.104508 46.875183 
L 75.205996 49.169226 
L 75.307484 46.836422 
L 75.408973 47.225115 
L 75.510461 48.255203 
L 75.611949 46.679863 
L 75.713438 48.702579 
L 75.814926 46.414599 
L 76.017903 48.005098 
L 76.119391 47.364134 
L 76.22088 48.923018 
L 76.423856 46.860458 
L 76.525345 48.060533 
L 76.626833 46.260205 
L 76.728322 48.438181 
L 76.931298 45.670778 
L 77.032787 48.494915 
L 77.134275 46.208451 
L 77.235763 48.64801 
L 77.337252 47.973916 
L 77.43874 46.197191 
L 77.540229 48.473478 
L 77.641717 45.93366 
L 77.743205 47.937104 
L 77.844694 46.243531 
L 78.04767 47.932123 
L 78.149159 45.907675 
L 78.250647 47.699341 
L 78.453624 46.800909 
L 78.555112 48.12831 
L 78.656601 46.688308 
L 78.758089 47.863263 
L 78.859577 46.040198 
L 78.961066 46.053624 
L 79.062554 47.993188 
L 79.164043 46.246779 
L 79.265531 46.999262 
L 79.367019 46.837505 
L 79.468508 45.99689 
L 79.569996 47.670974 
L 79.671484 47.206059 
L 79.772973 47.685915 
L 79.97595 45.33319 
L 80.077438 47.767768 
L 80.280415 46.365444 
L 80.381903 47.280333 
L 80.483391 45.080486 
L 80.58488 47.481067 
L 80.686368 45.891867 
L 80.787857 47.136332 
L 80.889345 46.755652 
L 80.990833 45.704126 
L 81.092322 48.107306 
L 81.19381 45.766706 
L 81.295298 45.860036 
L 81.396787 46.867821 
L 81.498275 45.690917 
L 81.599764 46.705848 
L 81.701252 45.545834 
L 81.904229 46.702599 
L 82.005717 46.147603 
L 82.107205 47.526108 
L 82.310182 45.047355 
L 82.411671 47.496874 
L 82.513159 45.376281 
L 82.614647 47.322125 
L 82.817624 45.093911 
L 82.919112 47.163617 
L 83.020601 45.719284 
L 83.122089 47.960707 
L 83.325066 46.029155 
L 83.426554 47.524159 
L 83.528043 46.216463 
L 83.629531 47.136766 
L 83.731019 46.096932 
L 83.832508 46.291387 
L 83.933996 47.386438 
L 84.035485 45.827987 
L 84.136973 47.673572 
L 84.238461 46.623995 
L 84.441438 47.833164 
L 84.542926 46.102129 
L 84.644415 47.673356 
L 84.847392 45.780998 
L 85.050368 47.32559 
L 85.151857 46.507062 
L 85.253345 46.703682 
L 85.354833 45.999055 
L 85.456322 48.233766 
L 85.55781 46.63309 
L 85.760787 47.212339 
L 85.862275 45.148696 
L 85.963764 48.017874 
L 86.065252 46.346821 
L 86.16674 46.856777 
L 86.268229 46.754353 
L 86.369717 45.311536 
L 86.471206 48.067895 
L 86.572694 46.005768 
L 86.674182 47.514847 
L 86.877159 45.391873 
L 86.978647 47.652351 
L 87.080136 47.381025 
L 87.181624 46.64435 
L 87.283113 47.039755 
L 87.384601 45.608847 
L 87.486089 47.374312 
L 87.689066 46.188313 
L 87.790554 47.7996 
L 87.892043 44.443636 
L 87.993531 48.077206 
L 88.196508 46.416764 
L 88.297996 48.243077 
L 88.399485 46.059254 
L 88.500973 47.594535 
L 88.70395 45.836 
L 88.805438 47.629181 
L 88.906927 46.230539 
L 89.008415 48.08262 
L 89.109903 47.589338 
L 89.211392 46.212132 
L 89.31288 48.129609 
L 89.414368 46.796145 
L 89.515857 47.869326 
L 89.617345 46.792464 
L 89.718834 47.170763 
L 89.820322 48.539739 
L 89.92181 47.571581 
L 90.023299 48.581532 
L 90.226275 47.005758 
L 90.327764 48.532377 
L 90.429252 47.615106 
L 90.530741 48.724882 
L 90.733717 46.948807 
L 90.835206 49.368011 
L 90.936694 47.776646 
L 91.038182 49.950942 
L 91.241159 48.638266 
L 91.342648 49.187632 
L 91.444136 48.424539 
L 91.545624 49.596463 
L 91.748601 48.040178 
L 91.850089 49.685461 
L 91.951578 48.953334 
L 92.053066 49.365629 
L 92.154555 50.953963 
L 92.256043 49.134579 
L 92.357531 51.015677 
L 92.45902 48.873214 
L 92.661996 50.424951 
L 92.763485 49.172258 
L 92.864973 52.036671 
L 92.966462 49.083042 
L 93.169438 51.248243 
L 93.270927 50.257998 
L 93.372415 52.359318 
L 93.473903 49.812355 
L 93.67688 50.857385 
L 93.778369 49.539296 
L 93.879857 51.39809 
L 93.981345 51.035166 
L 94.082834 49.446399 
L 94.184322 50.726811 
L 94.28581 49.986021 
L 94.387299 51.999426 
L 94.590276 50.198882 
L 94.691764 51.767077 
L 94.793252 48.978236 
L 94.894741 51.732647 
L 94.996229 50.020235 
L 95.097717 50.949415 
L 95.300694 49.993384 
L 95.402183 50.93599 
L 95.503671 50.918233 
L 95.605159 50.588873 
L 95.706648 51.74369 
L 95.808136 49.972163 
L 95.909624 51.240664 
L 96.112601 49.760385 
L 96.21409 52.350007 
L 96.315578 49.216649 
L 96.417066 51.710343 
L 96.620043 49.698237 
L 96.721531 51.610734 
L 96.82302 49.445533 
L 96.924508 51.184363 
L 97.127485 49.410237 
L 97.228973 50.801951 
L 97.330462 50.618107 
L 97.43195 50.930576 
L 97.634927 49.087373 
L 97.736415 50.809096 
L 97.939392 49.924957 
L 98.04088 50.43881 
L 98.142369 48.232467 
L 98.243857 51.21836 
L 98.345345 49.213401 
L 98.446834 50.869945 
L 98.548322 50.596669 
L 98.649811 48.892486 
L 98.751299 50.704507 
L 98.954276 49.647567 
L 99.055764 50.267309 
L 99.157252 49.09885 
L 99.258741 50.344398 
L 99.360229 49.236787 
L 99.461718 49.415217 
L 99.563206 50.73439 
L 99.664694 50.539069 
L 99.766183 49.900271 
L 99.867671 50.096241 
L 99.969159 49.544493 
L 100.172136 49.875802 
L 100.273625 50.10447 
L 100.375113 49.226177 
L 100.679578 51.644298 
L 100.781066 50.055098 
L 100.882555 50.605331 
L 101.085532 49.729419 
L 101.288508 50.497926 
L 101.389997 49.514177 
L 101.592973 50.698227 
L 101.694462 50.789175 
L 101.79595 51.530397 
L 101.998927 50.575881 
L 102.100415 50.323177 
L 102.201904 50.92408 
L 102.303392 50.671159 
L 102.40488 51.169855 
L 102.506369 50.458515 
L 102.709346 51.541224 
L 102.810834 51.110956 
L 102.912322 51.785266 
L 103.013811 51.200387 
L 103.115299 51.853044 
L 103.318276 51.002035 
L 103.419764 51.317536 
L 103.521253 52.180888 
L 103.622741 51.216195 
L 103.724229 52.333117 
L 103.825718 51.975607 
L 103.927206 52.175475 
L 104.130183 52.146458 
L 104.231671 52.858664 
L 104.33316 51.006149 
L 104.434648 52.70362 
L 104.536136 51.926235 
L 104.637625 53.926647 
L 104.739113 51.745856 
L 104.840601 53.587543 
L 104.94209 52.336149 
L 105.043578 53.435314 
L 105.145067 52.294356 
L 105.55102 53.943105 
L 105.652508 54.173721 
L 105.753997 53.412144 
L 105.855485 53.701444 
L 105.956974 53.261864 
L 106.15995 54.064801 
L 106.261439 53.484036 
L 106.464415 54.260122 
L 106.565904 55.966903 
L 106.768881 54.788483 
L 106.971857 54.377704 
L 107.073346 55.242355 
L 107.174834 55.198613 
L 107.377811 54.447214 
L 107.479299 54.526035 
L 107.580788 55.840443 
L 107.885253 54.192127 
L 108.088229 53.722015 
L 108.189718 54.133012 
L 108.392695 52.968017 
L 108.595671 54.636904 
L 108.798648 54.418847 
L 108.900136 54.053757 
L 109.001625 54.11244 
L 109.204602 54.849981 
L 109.30609 53.988145 
L 109.407578 54.244747 
L 109.610555 55.427714 
L 109.712043 55.016718 
L 109.813532 55.472755 
L 109.91502 54.796062 
L 110.016509 55.26271 
L 110.117997 55.094673 
L 110.52395 55.643173 
L 110.625439 56.159625 
L 110.726927 55.656383 
L 110.828416 55.947415 
L 110.929904 55.866428 
L 111.031392 56.340221 
L 111.132881 56.075607 
L 111.234369 56.781317 
L 111.437346 56.279156 
L 111.538834 56.384829 
L 111.640323 56.357978 
L 111.843299 57.397811 
L 111.944788 56.882009 
L 112.046276 56.958231 
L 112.249253 57.646834 
L 112.350741 57.302533 
L 112.45223 57.514527 
L 112.655206 56.821593 
L 112.756695 57.141426 
L 112.858183 57.053943 
L 113.06116 57.473601 
L 113.264137 57.706166 
L 113.365625 56.834802 
L 113.467113 57.213967 
L 113.568602 56.970141 
L 113.67009 57.548524 
L 113.771578 57.168926 
L 113.873067 57.235405 
L 113.974555 56.64273 
L 114.177532 57.733234 
L 114.27902 57.624097 
L 114.380509 56.820511 
L 114.583485 57.055458 
L 114.684974 57.752723 
L 114.887951 56.631037 
L 114.989439 57.127134 
L 115.090927 56.871182 
L 115.192416 57.82115 
L 115.395392 56.923801 
L 115.496881 57.074298 
L 115.598369 56.936794 
L 115.801346 57.728687 
L 115.902834 56.610682 
L 116.105811 57.133414 
L 116.207299 57.935484 
L 116.511765 56.719386 
L 116.613253 57.194045 
L 116.714741 57.039651 
L 116.81623 58.26571 
L 116.917718 56.452173 
L 117.019206 57.249263 
L 117.120695 56.632553 
L 117.222183 58.134702 
L 117.323672 57.238003 
L 117.42516 57.71656 
L 117.526648 56.638616 
L 117.831113 57.481179 
L 117.932602 57.408205 
L 118.03409 57.53748 
L 118.135579 56.870748 
L 118.237067 57.986588 
L 118.338555 57.244283 
L 118.440044 57.733451 
L 118.541532 56.755115 
L 118.744509 57.18062 
L 118.845997 57.498286 
L 118.947486 57.124535 
L 119.048974 57.26572 
L 119.150462 57.76983 
L 119.251951 57.642503 
L 119.353439 57.836958 
L 119.556416 57.255543 
L 119.657904 57.460391 
L 119.759393 57.239735 
L 119.860881 57.464939 
L 120.063858 57.277197 
L 120.165346 58.167833 
L 120.266834 58.042456 
L 120.368323 58.249903 
L 120.469811 57.60201 
L 120.5713 57.994816 
L 120.672788 57.733451 
L 120.875765 58.145529 
L 120.977253 56.802754 
L 121.078741 58.960809 
L 121.281718 57.510846 
L 121.383207 58.736472 
L 121.484695 57.428127 
L 121.586183 59.182548 
L 121.687672 57.377456 
L 121.890648 59.064749 
L 121.992137 56.873563 
L 122.093625 59.275877 
L 122.296602 57.966883 
L 122.39809 59.31204 
L 122.499579 57.792566 
L 122.601067 59.644648 
L 122.702555 57.955622 
L 122.804044 58.188188 
L 122.905532 59.470548 
L 123.007021 57.595514 
L 123.108509 59.643565 
L 123.311486 57.919027 
L 123.412974 60.170194 
L 123.514462 58.207244 
L 123.615951 59.791246 
L 123.717439 58.136868 
L 123.818928 58.60005 
L 123.920416 59.942176 
L 124.021904 58.250985 
L 124.123393 60.038321 
L 124.326369 58.510186 
L 124.427858 60.184486 
L 124.529346 59.152665 
L 124.630835 60.199211 
L 124.732323 58.709188 
L 124.833811 59.036165 
L 124.9353 60.424847 
L 125.036788 58.281301 
L 125.138276 61.00453 
L 125.341253 59.174103 
L 125.442742 60.887597 
L 125.54423 59.252274 
L 125.645718 60.731254 
L 125.747207 59.18428 
L 125.848695 59.731914 
L 125.950183 61.1128 
L 126.051672 58.859901 
L 126.15316 61.429601 
L 126.356137 59.730831 
L 126.457625 61.369402 
L 126.559114 60.277816 
L 126.660602 60.9112 
L 126.863579 59.948672 
L 126.965067 61.933494 
L 127.066556 59.924853 
L 127.168044 61.94497 
L 127.371021 60.186002 
L 127.472509 62.278661 
L 127.573997 61.00388 
L 127.675486 61.642895 
L 127.878463 60.613888 
L 127.979951 62.290787 
L 128.081439 60.921378 
L 128.182928 62.42461 
L 128.284416 61.372001 
L 128.385904 61.426786 
L 128.487393 62.793381 
L 128.588881 61.993259 
L 128.69037 62.169524 
L 128.791858 62.049127 
L 128.893346 60.976163 
L 128.994835 62.911396 
L 129.2993 62.060387 
L 129.603765 63.281466 
L 129.705253 62.444099 
L 130.111207 63.271938 
L 130.314184 62.36138 
L 130.415672 62.846866 
L 130.51716 62.79403 
L 130.720137 62.640286 
L 130.821625 62.427425 
L 130.923114 62.523786 
L 131.024602 63.254181 
L 131.126091 63.01382 
L 131.227579 62.369392 
L 131.329067 62.567528 
L 131.430556 62.415948 
L 131.633532 62.8473 
L 131.836509 62.25116 
L 131.937998 62.32695 
L 132.039486 63.590904 
L 132.242463 62.531798 
L 132.343951 62.625128 
L 132.445439 62.241416 
L 132.648416 63.011005 
L 132.749905 62.363112 
L 132.851393 62.397109 
L 132.952881 62.550204 
L 133.05437 63.433911 
L 133.358835 62.621013 
L 133.460323 62.865706 
L 133.561812 62.816334 
L 133.6633 63.222783 
L 133.764788 62.494986 
L 133.866277 62.842969 
L 133.967765 62.62621 
L 134.069253 63.533304 
L 134.27223 63.196365 
L 134.373719 63.208491 
L 134.475207 62.982422 
L 134.678184 63.525725 
L 134.779672 62.753754 
L 134.88116 63.370897 
L 134.982649 63.177309 
L 135.084137 64.038495 
L 135.185626 63.912468 
L 135.388602 63.41334 
L 135.591579 63.612558 
L 135.693067 64.140487 
L 135.794556 63.048034 
L 136.099021 64.986082 
L 136.301998 64.303326 
L 136.403486 64.29055 
L 136.504974 63.934339 
L 136.707951 64.920253 
L 136.80944 64.205666 
L 137.012416 64.671014 
L 137.113905 65.653897 
L 137.316881 65.103448 
L 137.519858 65.150221 
L 137.621347 64.982401 
L 137.722835 66.132021 
L 137.824323 64.883658 
L 138.128788 66.641976 
L 138.331765 66.151943 
L 138.433254 66.158439 
L 138.534742 66.305038 
L 138.63623 66.169482 
L 138.737719 67.107974 
L 138.839207 65.701969 
L 139.143672 67.844216 
L 139.346649 67.365875 
L 139.448137 66.999487 
L 139.549626 67.699999 
L 139.651114 67.376269 
L 139.752602 68.084361 
L 139.854091 67.488221 
L 139.955579 68.251314 
L 140.057068 68.052313 
L 140.158556 69.286817 
L 140.260044 68.575477 
L 140.361533 68.839442 
L 140.463021 68.577643 
L 140.767486 69.499677 
L 140.868975 68.882967 
L 141.17344 70.453544 
L 141.274928 69.928646 
L 141.376416 70.316256 
L 141.477905 69.966758 
L 141.78237 70.877965 
L 141.883858 70.057705 
L 141.985347 71.277485 
L 142.086835 71.185021 
L 142.188323 72.285486 
L 142.289812 71.444872 
L 142.492789 71.722911 
L 142.594277 72.239796 
L 142.695765 71.638243 
L 142.797254 72.60272 
L 142.898742 72.161408 
L 143.203207 73.742162 
L 143.304696 73.222246 
L 143.609161 73.875119 
L 143.710649 73.44117 
L 143.812137 74.423619 
L 143.913626 73.768364 
L 144.116603 74.757527 
L 144.218091 75.377485 
L 144.319579 74.938988 
L 144.624044 75.512174 
L 144.725533 75.382682 
L 144.827021 75.626292 
L 144.92851 74.930543 
L 145.029998 75.538376 
L 145.131486 74.868396 
L 145.232975 75.744091 
L 145.435951 74.764239 
L 145.53744 75.290436 
L 145.638928 74.159222 
L 145.841905 74.863849 
L 145.943393 74.329207 
L 146.044882 74.39915 
L 146.14637 74.300624 
L 146.247858 74.753196 
L 146.450835 74.566537 
L 146.653812 75.014995 
L 146.856789 76.681716 
L 146.958277 76.106365 
L 147.262742 78.273514 
L 147.364231 77.922933 
L 147.465719 78.810971 
L 147.567207 78.040948 
L 147.668696 78.91621 
L 147.770184 78.750123 
L 147.871672 79.870509 
L 147.973161 79.172379 
L 148.074649 79.477486 
L 148.277626 80.916839 
L 148.379114 80.369421 
L 148.886556 81.897123 
L 148.988044 81.471186 
L 149.393998 83.080091 
L 149.495486 83.044145 
L 149.90144 84.17211 
L 150.002928 83.867869 
L 150.205905 84.506884 
L 150.307393 85.585695 
L 150.408882 85.121862 
L 150.51037 85.698513 
L 150.611858 85.501893 
L 150.916324 86.245064 
L 151.017812 86.176637 
L 151.220789 86.520072 
L 151.322277 87.622269 
L 151.423765 87.331887 
L 151.525254 87.694811 
L 151.626742 87.574847 
L 151.829719 87.890131 
L 152.134184 88.332526 
L 152.235672 88.327762 
L 152.438649 89.65408 
L 152.540138 89.530868 
L 152.641626 89.183535 
L 152.946091 90.299375 
L 153.149068 89.782489 
L 153.352045 91.363894 
L 153.453533 91.306943 
L 153.65651 90.941204 
L 153.859486 91.345488 
L 153.960975 92.093423 
L 154.062463 91.363027 
L 154.26544 92.382939 
L 154.366928 94.117438 
L 154.468417 93.732427 
L 154.87437 95.114612 
L 154.975859 96.043576 
L 155.077347 95.687365 
L 155.381812 98.451737 
L 155.4833 98.343466 
L 155.584789 99.046144 
L 155.686277 98.50414 
L 155.889254 100.013869 
L 155.990742 100.236473 
L 156.396696 102.943678 
L 156.498184 102.834757 
L 156.599673 103.312015 
L 156.701161 103.038307 
L 156.802649 104.391043 
L 156.904138 104.007331 
L 157.005626 104.341671 
L 157.208603 106.24334 
L 157.310091 106.118829 
L 157.41158 106.396002 
L 157.513068 106.289464 
L 157.716045 108.049515 
L 157.817533 107.234019 
L 158.121998 110.65213 
L 158.223487 109.6058 
L 158.324975 110.106445 
L 158.426463 110.027623 
L 158.527952 110.193278 
L 158.62944 111.452035 
L 158.730928 110.897904 
L 158.933905 113.197144 
L 159.035394 112.93318 
L 159.441347 113.855864 
L 159.542835 114.662482 
L 159.644324 114.415408 
L 159.847301 115.181316 
L 159.948789 116.608759 
L 160.050277 116.377709 
L 160.151766 116.696675 
L 160.253254 116.218984 
L 160.557719 119.189286 
L 160.659208 118.3857 
L 160.963673 122.407096 
L 161.065161 121.745345 
L 161.166649 123.330647 
L 161.268138 122.312034 
L 161.471115 124.5095 
L 161.572603 125.892985 
L 161.674091 124.775846 
L 161.978556 128.750902 
L 162.181533 129.091089 
L 162.587487 131.580669 
L 162.688975 132.137181 
L 162.99344 135.544898 
L 163.094929 134.914545 
L 163.399394 137.110062 
L 163.500882 137.404558 
L 163.60237 138.775267 
L 163.703859 138.600085 
L 163.906836 140.452166 
L 164.008324 141.852758 
L 164.109812 141.027951 
L 164.312789 142.493072 
L 164.414277 142.691208 
L 164.617254 145.059091 
L 164.718743 144.524233 
L 165.632138 151.729442 
L 165.733626 151.243306 
L 166.13958 155.359764 
L 166.241068 154.982115 
L 166.647022 158.692341 
L 166.74851 157.971473 
L 167.052975 162.404082 
L 167.154464 161.727606 
L 167.458929 164.775863 
L 167.966371 168.203069 
L 168.372324 171.255224 
L 168.575301 171.892506 
L 168.676789 173.405916 
L 168.778278 173.165772 
L 169.082743 176.606186 
L 169.184231 176.336808 
L 169.387208 178.090796 
L 169.590185 178.648608 
L 169.691673 180.569766 
L 169.793161 179.536862 
L 170.097626 183.844743 
L 170.199115 183.524044 
L 170.50358 184.222824 
L 170.706557 186.688585 
L 170.808045 186.213492 
L 171.011022 187.670818 
L 171.11251 190.184434 
L 171.213999 189.647627 
L 171.315487 189.824109 
L 171.924417 193.257811 
L 172.127394 196.045569 
L 172.228882 195.201922 
L 172.330371 196.224215 
L 172.431859 196.08866 
L 172.634836 197.558545 
L 172.837813 198.739564 
L 172.939301 200.168956 
L 173.040789 199.563505 
L 173.142278 201.890029 
L 173.243766 201.464958 
L 173.64972 203.930069 
L 173.852696 205.393674 
L 174.360138 209.632478 
L 174.461627 209.861579 
L 174.766092 211.863615 
L 174.86758 211.726111 
L 174.969068 211.924788 
L 175.172045 213.143269 
L 175.273534 212.349427 
L 175.375022 213.051996 
L 175.47651 212.805572 
L 175.679487 213.015942 
L 175.780975 213.755216 
L 175.882464 212.828092 
L 175.983952 213.50446 
L 176.085441 213.38926 
L 176.186929 214.602218 
L 176.491394 214.290507 
L 176.897348 215.208319 
L 177.100324 215.519814 
L 177.201813 216.588231 
L 177.303301 215.903418 
L 177.506278 216.510925 
L 177.709255 216.526625 
L 177.810743 217.120274 
L 177.912231 216.912394 
L 178.01372 216.986234 
L 178.216696 218.12297 
L 178.318185 217.998567 
L 178.419673 217.788088 
L 178.521162 218.186958 
L 178.62265 218.021195 
L 178.825627 218.758412 
L 178.927115 218.179921 
L 179.130092 218.939441 
L 179.333069 219.473865 
L 179.434557 219.469318 
L 179.536045 219.725379 
L 179.637534 219.429583 
L 179.84051 219.930119 
L 179.941999 219.72971 
L 180.043487 220.159545 
L 180.144976 220.041854 
L 180.347952 220.939636 
L 180.449441 220.591437 
L 180.652417 220.704689 
L 180.753906 221.317826 
L 180.956883 220.642 
L 181.058371 221.490194 
L 181.159859 221.451541 
L 181.261348 221.994736 
L 181.464324 221.823776 
L 181.565813 221.744414 
L 181.870278 222.253503 
L 181.971766 221.808402 
L 182.276231 222.95499 
L 182.479208 222.787278 
L 182.580697 222.791068 
L 182.682185 222.66948 
L 182.885162 223.107544 
L 182.98665 222.783272 
L 183.291115 223.904525 
L 183.392604 223.758793 
L 183.697069 223.850823 
L 183.900045 224.362836 
L 184.001534 224.225657 
L 184.103022 224.336959 
L 184.305999 225.13903 
L 184.407487 225.03195 
L 184.508976 224.932232 
L 184.711952 225.18472 
L 184.813441 225.112828 
L 185.016418 225.529779 
L 185.117906 225.278049 
L 185.320883 226.153744 
L 185.523859 225.832288 
L 185.828325 226.323405 
L 186.031301 226.08326 
L 186.437255 226.873096 
L 186.640232 226.580006 
L 186.944697 227.011899 
L 187.147673 226.731044 
L 187.249162 226.918461 
L 187.35065 227.414233 
L 187.655115 226.99176 
L 187.95958 227.287881 
L 188.061069 227.165102 
L 188.162557 227.359557 
L 188.264046 227.245114 
L 188.467022 227.375905 
L 188.568511 226.630785 
L 188.669999 227.377205 
L 188.771487 227.140416 
L 188.872976 227.790366 
L 188.974464 227.117896 
L 189.075953 227.393445 
L 189.278929 227.184374 
L 189.380418 227.120928 
L 189.481906 227.649831 
L 189.583394 227.019694 
L 189.88786 227.520014 
L 190.090836 227.505722 
L 190.192325 227.16586 
L 190.49679 227.357933 
L 190.598278 227.015147 
L 190.801255 227.458624 
L 190.902743 228.045344 
L 191.004232 227.5303 
L 191.10572 227.866264 
L 191.207208 227.483094 
L 191.308697 228.077501 
L 191.410185 227.725296 
L 191.511674 228.071329 
L 191.613162 227.84147 
L 191.917627 229.052588 
L 192.019115 228.514482 
L 192.120604 228.905881 
L 192.222092 228.730266 
L 192.425069 228.925153 
L 192.526557 229.256137 
L 192.628046 228.964997 
L 193.033999 229.913341 
L 193.135488 229.859855 
L 193.236976 229.45882 
L 193.439953 230.13573 
L 193.642929 230.095236 
L 193.947395 230.827147 
L 194.048883 230.547808 
L 194.150371 230.876519 
L 194.353348 230.71303 
L 194.556325 230.884422 
L 194.657813 230.624464 
L 194.759302 230.969848 
L 194.86079 230.917445 
L 194.962278 231.427834 
L 195.063767 230.930762 
L 195.165255 231.286757 
L 195.266743 230.659544 
L 195.46972 230.931196 
L 195.774185 231.027015 
L 195.875674 230.982516 
L 195.977162 231.619906 
L 196.281627 230.84328 
L 196.383116 231.188988 
L 196.586092 231.063394 
L 196.789069 231.248537 
L 196.890557 231.255358 
L 196.992046 232.252316 
L 197.093534 231.31848 
L 197.195023 231.751131 
L 197.296511 231.343816 
L 197.397999 231.525169 
L 197.499488 231.356375 
L 198.108418 232.135925 
L 198.311395 231.565338 
L 198.514371 232.040214 
L 198.61586 231.742036 
L 198.818837 232.261303 
L 198.920325 232.152491 
L 199.021813 232.750471 
L 199.123302 232.152816 
L 199.22479 232.705971 
L 199.326278 231.94277 
L 199.529255 232.287613 
L 199.630744 232.16321 
L 199.732232 232.549628 
L 199.83372 232.515956 
L 200.036697 232.992564 
L 200.138185 232.583625 
L 200.239674 232.727192 
L 200.341162 232.420569 
L 200.544139 232.641875 
L 200.747116 232.716798 
L 200.950092 233.055037 
L 201.051581 233.394141 
L 201.153069 232.818573 
L 201.254558 233.182471 
L 201.356046 232.523535 
L 201.457534 233.210622 
L 201.660511 232.927927 
L 201.761999 233.152372 
L 201.863488 233.051897 
L 201.964976 233.21701 
L 202.066465 233.708884 
L 202.269441 233.102567 
L 202.573906 233.4512 
L 202.675395 233.060558 
L 202.776883 233.104083 
L 202.97986 233.812175 
L 203.182837 233.662653 
L 203.385813 233.406917 
L 203.487302 233.750677 
L 203.690279 233.474586 
L 203.791767 233.562935 
L 204.096232 234.321589 
L 204.299209 233.571922 
L 204.502186 233.912325 
L 204.603674 233.92077 
L 204.806651 233.518869 
L 205.009627 234.530119 
L 205.314093 233.700872 
L 205.517069 234.173908 
L 205.618558 234.292897 
L 205.720046 233.801023 
L 205.923023 234.071592 
L 206.024511 234.814546 
L 206.227488 234.078088 
L 206.328976 234.295496 
L 206.531953 234.294196 
L 206.633441 234.559027 
L 206.836418 233.989955 
L 207.039395 234.920002 
L 207.34386 234.286942 
L 207.546837 234.64586 
L 207.648325 234.491683 
L 207.749814 234.133739 
L 207.851302 234.714829 
L 207.95279 234.460609 
L 208.054279 235.059996 
L 208.257255 234.353204 
L 208.460232 234.068993 
L 208.663209 234.412537 
L 208.764697 233.676403 
L 208.967674 233.958449 
L 209.069162 234.512254 
L 209.170651 233.732487 
L 209.272139 233.827549 
L 209.373628 233.528397 
L 209.576604 233.700223 
L 209.678093 233.972416 
L 209.779581 232.848564 
L 209.982558 233.214086 
L 210.084046 234.207255 
L 210.185535 233.192865 
L 210.287023 233.449467 
L 210.388511 233.023746 
L 210.49 233.408757 
L 210.591488 233.378009 
L 210.692976 233.727074 
L 210.794465 232.906056 
L 210.895953 233.740066 
L 210.997442 233.720253 
L 211.09893 234.191664 
L 211.200418 233.758689 
L 211.301907 233.838268 
L 211.403395 233.68225 
L 211.504883 233.886232 
L 211.606372 233.718845 
L 211.809349 234.158317 
L 212.012325 234.038677 
L 212.113814 234.118365 
L 212.215302 233.959206 
L 212.31679 234.541271 
L 212.418279 233.911676 
L 212.722744 235.03975 
L 212.824232 234.525463 
L 212.925721 234.666215 
L 213.027209 234.276873 
L 213.230186 234.622582 
L 213.331674 235.220778 
L 213.433163 234.131141 
L 213.737628 235.44295 
L 213.839116 234.935268 
L 213.940604 235.116947 
L 214.042093 234.736375 
L 214.346558 235.605032 
L 214.448046 234.323971 
L 214.549535 235.521122 
L 214.651023 235.105795 
L 214.752511 235.99708 
L 215.056977 234.931262 
L 215.158465 235.67649 
L 215.259953 235.373657 
L 215.361442 235.651913 
L 215.46293 235.390547 
L 215.767395 236.206368 
L 215.868884 235.86813 
L 215.970372 236.093008 
L 216.07186 235.621489 
L 216.274837 235.869213 
L 216.376325 236.036058 
L 216.477814 235.824064 
L 216.782279 236.782044 
L 216.985256 236.089327 
L 217.086744 236.434495 
L 217.188232 236.222933 
L 217.289721 236.556083 
L 217.492698 236.128846 
L 217.695674 236.903091 
L 217.898651 236.551102 
L 218.000139 236.671608 
L 218.101628 236.993281 
L 218.203116 236.482892 
L 218.304605 236.681677 
L 218.406093 237.197588 
L 218.60907 236.905906 
L 218.710558 237.119849 
L 218.812046 237.016992 
L 218.913535 236.601124 
L 219.218 237.656548 
L 219.319488 237.155579 
L 219.420977 237.186436 
L 219.725442 237.527164 
L 219.928419 237.106207 
L 220.131395 237.909144 
L 220.232884 237.882293 
L 220.43586 237.594725 
L 220.638837 237.738509 
L 220.740326 238.035496 
L 220.841814 237.235374 
L 221.146279 238.82544 
L 221.247767 237.870708 
L 221.349256 238.257776 
L 221.450744 237.756807 
L 221.755209 238.397554 
L 221.856698 237.924302 
L 222.059674 238.153619 
L 222.161163 239.005819 
L 222.262651 238.816454 
L 222.465628 238.154919 
L 222.770093 238.886613 
L 222.871581 238.406324 
L 223.074558 239.015239 
L 223.176047 238.160657 
L 223.277535 238.761885 
L 223.379023 238.547076 
L 223.480512 239.737297 
L 223.582 238.844496 
L 223.683488 239.126541 
L 223.784977 239.085073 
L 223.987954 238.936418 
L 224.089442 239.358999 
L 224.19093 238.694324 
L 224.495395 240.040347 
L 224.596884 239.449838 
L 224.698372 239.531366 
L 224.799861 238.971714 
L 224.901349 239.588641 
L 225.002837 239.358133 
L 225.408791 239.811896 
L 225.510279 240.220835 
L 225.611768 239.647649 
L 225.713256 239.69269 
L 225.814744 239.67764 
L 225.916233 240.209466 
L 226.017721 240.116353 
L 226.220698 239.810705 
L 226.322186 240.112564 
L 226.423675 240.077592 
L 226.626651 239.817201 
L 226.829628 240.879988 
L 226.931116 240.319253 
L 227.032605 240.419187 
L 227.134093 240.184997 
L 227.438558 240.69701 
L 227.540047 239.353369 
L 227.641535 240.405003 
L 227.743023 240.069472 
L 227.844512 240.931849 
L 227.946 239.839288 
L 228.047489 240.193226 
L 228.250465 239.814927 
L 228.55493 239.652305 
L 228.656419 239.890717 
L 228.757907 239.805833 
L 228.859396 240.074777 
L 229.062372 239.35954 
L 229.265349 239.438361 
L 229.366837 239.402415 
L 229.569814 238.936634 
L 229.772791 239.637255 
L 229.975768 239.241417 
L 230.178744 238.671912 
L 230.280233 238.870481 
L 230.381721 239.144839 
L 230.48321 238.277265 
L 230.787675 239.322403 
L 230.990651 238.509289 
L 231.09214 238.314943 
L 231.193628 238.617885 
L 231.295117 238.24565 
L 231.396605 238.657837 
L 231.498093 237.814948 
L 231.802558 238.867557 
L 231.904047 238.187725 
L 232.005535 238.214792 
L 232.107024 237.696067 
L 232.208512 237.936103 
L 232.512977 237.676686 
L 232.614465 237.986882 
L 232.715954 237.800223 
L 232.817442 238.194979 
L 233.020419 237.580433 
L 233.121907 237.601438 
L 233.223396 237.446286 
L 233.324884 237.559645 
L 233.527861 236.972384 
L 233.730838 237.728115 
L 233.832326 237.603928 
L 234.035303 237.036372 
L 234.339768 237.294707 
L 234.441256 236.546014 
L 234.745721 237.779435 
L 234.84721 236.755626 
L 234.948698 236.947915 
L 235.050186 236.421286 
L 235.253163 237.096679 
L 235.354652 237.450508 
L 235.45614 236.213622 
L 235.659117 237.340072 
L 235.760605 237.985583 
L 235.862093 237.412181 
L 235.963582 237.75659 
L 236.06507 237.181131 
L 236.268047 237.754533 
L 236.369535 237.746954 
L 236.471024 237.59191 
L 236.572512 238.060939 
L 236.674 238.032356 
L 236.775489 238.302817 
L 236.978466 237.891171 
L 237.181442 237.780735 
L 237.282931 237.959273 
L 237.485907 237.551958 
L 237.587396 237.599814 
L 237.688884 238.55184 
L 237.891861 237.71902 
L 237.993349 237.86432 
L 238.094838 237.669107 
L 238.196326 237.734395 
L 238.297814 238.003556 
L 238.399303 237.423224 
L 238.703768 238.625139 
L 238.805256 237.900266 
L 238.906745 238.175598 
L 239.008233 237.545137 
L 239.21121 237.972699 
L 239.414187 237.668782 
L 239.617163 238.303033 
L 239.718652 238.350889 
L 239.921628 238.002473 
L 240.023117 237.998034 
L 240.226094 238.143009 
L 240.327582 238.03777 
L 240.42907 238.162606 
L 240.530559 237.778244 
L 240.632047 238.88618 
L 240.835024 238.484712 
L 240.936512 238.380555 
L 241.038001 238.073174 
L 241.139489 238.257992 
L 241.240977 238.897224 
L 241.342466 237.981252 
L 241.545442 238.390516 
L 241.646931 239.42028 
L 241.748419 238.671479 
L 241.849908 238.70396 
L 241.951396 238.349914 
L 242.052884 238.618751 
L 242.154373 238.470095 
L 242.255861 238.867557 
L 242.357349 238.478757 
L 242.560326 239.210235 
L 242.661815 238.822517 
L 242.864791 239.121561 
L 242.96628 238.563749 
L 243.169256 239.037543 
L 243.270745 239.055949 
L 243.372233 238.783431 
L 243.676698 239.474415 
L 243.778187 238.989037 
L 243.879675 239.312009 
L 243.981163 239.095576 
L 244.18414 239.481237 
L 244.285629 238.604459 
L 244.590094 240.016961 
L 244.79307 239.401982 
L 244.894559 239.095143 
L 245.199024 239.938573 
L 245.300512 238.86301 
L 245.402001 239.558325 
L 245.503489 239.263937 
L 245.604977 240.172979 
L 245.706466 239.546849 
L 245.807954 239.721814 
L 245.909443 239.350554 
L 246.112419 239.791757 
L 246.315396 239.313742 
L 246.518373 239.887685 
L 246.619861 240.033959 
L 246.72135 239.874585 
L 246.924326 239.417682 
L 247.025815 239.851631 
L 247.127303 239.806049 
L 247.228791 239.473658 
L 247.634745 240.134326 
L 247.736233 239.802043 
L 247.837722 239.851956 
L 247.93921 239.534506 
L 248.040698 239.882921 
L 248.142187 239.673309 
L 248.345164 239.726578 
L 248.446652 239.71705 
L 248.649629 240.193009 
L 248.852605 239.781796 
L 248.954094 239.715643 
L 249.055582 239.787427 
L 249.157071 240.004293 
L 249.258559 239.464888 
L 249.563024 240.407385 
L 249.664512 239.877941 
L 249.766001 239.957303 
L 249.867489 239.758193 
L 250.070466 239.799228 
L 250.171954 239.474091 
L 250.577908 240.363211 
L 250.679396 239.713911 
L 250.780885 239.761658 
L 250.882373 239.725929 
L 251.08535 239.814927 
L 251.186838 239.548689 
L 251.288326 239.669303 
L 251.389815 239.39711 
L 251.491303 240.445822 
L 251.69428 239.884112 
L 251.795768 239.493363 
L 252.100233 240.037099 
L 252.201722 239.283534 
L 252.30321 239.664106 
L 252.404699 239.444749 
L 252.506187 240.443548 
L 252.709164 239.685652 
L 252.810652 239.3852 
L 252.91214 239.533531 
L 253.013629 239.989893 
L 253.115117 239.100773 
L 253.419582 239.876967 
L 253.622559 239.820124 
L 253.724047 239.199083 
L 254.028513 239.757869 
L 254.130001 239.061579 
L 254.231489 239.430241 
L 254.332978 239.232863 
L 254.434466 240.175469 
L 254.637443 239.474957 
L 254.738931 239.167576 
L 254.941908 239.284833 
L 255.043396 239.664323 
L 255.144885 238.855323 
L 255.44935 239.85672 
L 255.753815 238.735034 
L 255.956792 239.260797 
L 256.159768 238.902204 
L 256.464234 239.412268 
L 256.66721 238.654372 
L 256.768699 239.0239 
L 256.870187 238.905236 
L 256.971675 239.021302 
L 257.073164 238.537656 
L 257.174652 238.693674 
L 257.276141 238.411521 
L 257.377629 239.96629 
L 257.580606 238.720959 
L 257.783582 238.683389 
L 257.986559 238.792201 
L 258.189536 238.515027 
L 258.291024 239.075762 
L 258.392513 238.949627 
L 258.494001 238.640946 
L 258.595489 238.702336 
L 258.696978 238.531485 
L 258.798466 238.848177 
L 259.102931 238.31765 
L 259.305908 239.013831 
L 259.610373 238.557037 
L 259.711862 238.593632 
L 259.81335 238.262215 
L 259.914838 238.920935 
L 260.117815 238.231791 
L 260.219303 238.458185 
L 260.320792 239.26751 
L 260.42228 238.492074 
L 260.523769 238.769031 
L 260.625257 238.10035 
L 260.828234 238.541554 
L 261.03121 238.295671 
L 261.132699 238.361932 
L 261.335676 238.793284 
L 261.741629 238.143658 
L 261.843117 238.596231 
L 261.944606 237.844398 
L 262.046094 238.319923 
L 262.147583 238.258859 
L 262.249071 238.76221 
L 262.553536 237.990022 
L 262.655024 238.113234 
L 262.756513 238.425596 
L 262.858001 237.756049 
L 263.060978 238.274341 
L 263.263955 238.393006 
L 263.365443 238.318949 
L 263.56842 238.042533 
L 263.771397 238.347099 
L 263.872885 237.676578 
L 263.974373 238.018281 
L 264.075862 237.96447 
L 264.17735 238.944646 
L 264.278838 237.994894 
L 264.380327 238.249547 
L 264.481815 237.810726 
L 264.583304 237.976488 
L 264.684792 237.908927 
L 264.78628 238.162281 
L 264.887769 237.625149 
L 264.989257 238.139869 
L 265.090745 237.954509 
L 265.192234 238.498679 
L 265.395211 237.782359 
L 265.496699 237.791886 
L 265.699676 238.250847 
L 265.801164 237.582382 
L 266.207118 238.309313 
L 266.308606 238.179713 
L 266.410094 237.591477 
L 266.714559 238.333999 
L 266.816048 237.150273 
L 267.120513 238.556062 
L 267.222001 237.847646 
L 267.32349 238.267953 
L 267.424978 237.790046 
L 267.627955 238.080103 
L 267.830932 237.678527 
L 267.93242 239.029314 
L 268.033908 237.76471 
L 268.135397 238.151887 
L 268.338373 237.725408 
L 268.54135 238.190865 
L 268.642839 237.922678 
L 268.744327 238.904803 
L 268.947304 238.041667 
L 269.048792 238.102082 
L 269.15028 238.011893 
L 269.251769 238.591791 
L 269.454746 237.87558 
L 269.657722 238.752899 
L 269.759211 238.269577 
L 269.860699 238.514919 
L 269.962187 237.97887 
L 270.165164 238.347316 
L 270.266653 237.97573 
L 270.368141 238.276182 
L 270.469629 238.210028 
L 270.571118 238.407623 
L 270.672606 238.849909 
L 270.875583 238.279214 
L 270.977071 238.058124 
L 271.180048 238.599046 
L 271.281536 237.983309 
L 271.484513 238.50983 
L 271.586001 238.991852 
L 271.68749 238.405349 
L 271.788978 238.560176 
L 271.890467 238.035171 
L 272.093443 238.476916 
L 272.194932 237.884025 
L 272.29642 239.433814 
L 272.397908 238.320898 
L 272.499397 238.732544 
L 272.600885 238.128501 
L 272.702374 238.605217 
L 272.90535 238.33519 
L 273.006839 238.189565 
L 273.209815 238.870805 
L 273.412792 238.602943 
L 273.514281 238.672778 
L 273.717257 238.364964 
L 273.818746 238.860736 
L 273.920234 238.014708 
L 274.224699 239.178511 
L 274.326188 238.638781 
L 274.427676 238.751274 
L 274.529164 238.293289 
L 274.732141 238.602835 
L 275.036606 238.494889 
L 275.239583 239.145922 
L 275.44256 238.595581 
L 275.544048 238.444651 
L 275.747025 238.907401 
L 275.848513 238.112476 
L 276.152978 239.474199 
L 276.254467 238.478215 
L 276.355955 238.803244 
L 276.457443 238.30574 
L 276.66042 238.738282 
L 276.964885 238.451364 
L 277.066374 239.133904 
L 277.26935 238.473776 
L 277.573816 239.038842 
L 277.675304 238.540471 
L 277.776792 238.76156 
L 277.979769 238.559419 
L 278.081257 239.022385 
L 278.182746 238.159899 
L 278.487211 239.348172 
L 278.690188 238.752032 
L 278.791676 238.494889 
L 278.893164 238.673319 
L 279.096141 238.526396 
L 279.19763 238.654697 
L 279.299118 238.421698 
L 279.400606 239.125567 
L 279.502095 239.107269 
L 279.705071 238.468254 
L 279.80656 238.388026 
L 280.009537 238.983191 
L 280.111025 238.127201 
L 280.41549 239.178186 
L 280.516978 238.577067 
L 280.618467 238.601319 
L 280.719955 238.566456 
L 280.922932 238.68458 
L 281.125909 238.334215 
L 281.328885 239.1836 
L 281.430374 238.565698 
L 281.531862 238.589518 
L 281.633351 238.484279 
L 281.734839 238.735575 
L 281.836327 238.644411 
L 281.937816 238.349481 
L 282.242281 238.728754 
L 282.343769 239.061254 
L 282.445258 238.422131 
L 282.546746 238.484495 
L 282.648234 238.699521 
L 282.749723 238.447466 
L 282.851211 238.867124 
L 282.952699 237.937836 
L 283.054188 238.543178 
L 283.155676 238.375575 
L 283.257165 239.215973 
L 283.358653 238.506907 
L 283.460141 238.844496 
L 283.56163 238.217716 
L 283.764606 238.619834 
L 283.967583 238.195953 
L 284.069072 238.42094 
L 284.17056 238.934902 
L 284.475025 238.176356 
L 284.576513 238.581289 
L 284.678002 238.430468 
L 284.77949 238.87427 
L 284.880979 237.772073 
L 285.185444 238.942806 
L 285.38842 238.375358 
L 285.591397 238.28885 
L 285.692886 238.630336 
L 285.895862 238.097968 
L 286.098839 239.147221 
L 286.200327 238.222588 
L 286.301816 238.61691 
L 286.403304 237.878503 
L 286.606281 238.370811 
L 286.707769 237.999442 
L 286.910746 238.528561 
L 287.012234 238.475509 
L 287.113723 238.569488 
L 287.519676 238.12915 
L 287.621165 238.762426 
L 287.722653 237.627315 
L 287.824141 238.216958 
L 287.92563 237.971291 
L 288.027118 239.191395 
L 288.128607 238.219123 
L 288.230095 238.54556 
L 288.331583 237.91001 
L 288.53456 238.419533 
L 288.737537 237.833138 
L 288.940514 238.859545 
L 289.14349 238.123953 
L 289.244979 238.049355 
L 289.346467 238.298377 
L 289.447955 238.005072 
L 289.549444 238.321872 
L 289.650932 237.799141 
L 289.955397 238.514811 
L 290.158374 238.000524 
L 290.259862 238.200825 
L 290.462839 238.1586 
L 290.564328 237.771098 
L 290.868793 238.722474 
L 291.071769 238.165313 
L 291.274746 237.906762 
L 291.376235 238.089523 
L 291.6807 237.887057 
L 291.782188 238.688586 
L 291.985165 238.099484 
L 292.086653 237.885541 
L 292.391118 238.146257 
L 292.492607 237.663802 
L 292.695583 238.071983 
L 292.797072 238.480273 
L 292.89856 237.927442 
L 293.000049 238.123845 
L 293.101537 237.812458 
L 293.304514 238.099376 
L 293.406002 237.580975 
L 293.710467 238.520008 
L 293.811956 237.89312 
L 293.913444 238.082702 
L 294.014932 237.528463 
L 294.116421 238.07469 
L 294.217909 237.807477 
L 294.319397 237.856199 
L 294.420886 237.60317 
L 294.522374 237.665751 
L 294.623862 238.493373 
L 294.725351 238.27066 
L 294.826839 237.73093 
L 294.928328 237.809968 
L 295.029816 237.606852 
L 295.232793 237.937511 
L 295.334281 237.074809 
L 295.537258 238.046215 
L 295.638746 238.293289 
L 295.841723 237.620927 
L 295.943211 237.831622 
L 296.146188 237.729847 
L 296.247676 237.290484 
L 296.349165 237.708193 
L 296.450653 237.542972 
L 296.552142 238.500303 
L 296.755118 237.689462 
L 296.958095 237.486887 
L 297.059583 237.744464 
L 297.161072 237.252914 
L 297.26256 237.519477 
L 297.364049 237.436433 
L 297.465537 238.099159 
L 297.668514 237.683616 
L 297.87149 237.394965 
L 297.972979 237.481366 
L 298.074467 237.350899 
L 298.277444 237.374069 
L 298.378932 237.869408 
L 298.480421 237.789721 
L 298.581909 237.304992 
L 298.683397 237.501937 
L 298.886374 237.261359 
L 298.987863 237.572313 
L 299.089351 236.698676 
L 299.190839 237.576427 
L 299.292328 237.269046 
L 299.393816 237.919538 
L 299.596793 237.236024 
L 299.79977 237.272403 
L 299.901258 237.672464 
L 300.002746 236.74913 
L 300.104235 236.914676 
L 300.307211 238.067003 
L 300.4087 237.155362 
L 300.510188 237.236349 
L 300.611677 236.985485 
L 300.713165 237.281173 
L 301.01763 236.637178 
L 301.220607 237.780951 
L 301.423584 237.055645 
L 301.525072 236.906989 
L 301.728049 236.952679 
L 301.829537 236.821996 
L 301.931025 237.025437 
L 302.032514 236.883819 
L 302.134002 237.437516 
L 302.235491 237.053371 
L 302.336979 237.265798 
L 302.539956 236.78107 
L 302.742932 237.148758 
L 302.844421 236.280209 
L 303.148886 237.354472 
L 303.250374 236.75541 
L 303.351863 236.790164 
L 303.453351 236.910778 
L 303.554839 236.775764 
L 303.656328 237.039837 
L 303.757816 236.243938 
L 303.960793 236.702357 
L 304.062281 237.672247 
L 304.16377 236.723794 
L 304.265258 236.920306 
L 304.366746 236.296016 
L 304.569723 236.750862 
L 304.7727 236.447812 
L 304.874188 236.629382 
L 304.975677 237.315711 
L 305.178653 236.573948 
L 305.787584 236.353075 
L 305.889072 236.970111 
L 306.396514 236.363253 
L 306.498002 236.495993 
L 306.599491 236.016353 
L 306.700979 236.584342 
L 307.005444 236.051866 
L 307.309909 236.813443 
L 307.512886 236.174428 
L 307.614374 236.208858 
L 307.715863 236.064317 
L 307.817351 236.704631 
L 307.91884 235.694139 
L 308.223305 236.892264 
L 308.426281 235.987336 
L 308.730747 236.356756 
L 308.832235 235.513651 
L 309.1367 236.745449 
L 309.238188 235.788659 
L 309.339677 236.282699 
L 309.441165 235.756827 
L 309.644142 236.048617 
L 309.74563 235.563889 
L 310.050095 236.573839 
L 310.253072 235.854704 
L 310.354561 235.710921 
L 310.456049 235.868671 
L 310.862002 235.636755 
L 310.963491 236.550778 
L 311.166468 235.896172 
L 311.369444 235.70659 
L 311.470933 235.67465 
L 311.572421 235.490265 
L 311.775398 235.684069 
L 311.876886 236.261911 
L 312.079863 235.796238 
L 312.181351 235.579372 
L 312.28284 235.632099 
L 312.485816 235.543967 
L 312.688793 235.511486 
L 312.790282 235.971529 
L 312.993258 235.725429 
L 313.196235 235.367594 
L 313.399212 235.811721 
L 313.5007 235.006835 
L 313.703677 235.699444 
L 313.805165 235.713519 
L 313.906654 235.410686 
L 314.008142 235.68591 
L 314.10963 235.214932 
L 314.312607 235.625062 
L 314.414096 234.942955 
L 314.515584 235.124959 
L 314.718561 235.936882 
L 314.921537 235.12052 
L 315.124514 235.412959 
L 315.226003 235.497086 
L 315.327491 234.760844 
L 315.631956 235.870404 
L 315.834933 235.119653 
L 315.936421 235.204105 
L 316.03791 235.113915 
L 316.139398 235.345073 
L 316.240886 234.874745 
L 316.342375 235.164478 
L 316.443863 234.960928 
L 316.545351 235.941862 
L 316.64684 235.238102 
L 316.748328 235.305121 
L 316.951305 234.82494 
L 317.052793 235.610878 
L 317.154282 234.745794 
L 317.25577 234.841073 
L 317.357258 235.153434 
L 317.458747 235.828178 
L 317.560235 235.046029 
L 317.661724 235.294836 
L 317.763212 234.520266 
L 317.966189 235.128748 
L 318.169165 234.805451 
L 318.270654 234.950751 
L 318.372142 235.744809 
L 318.473631 235.047004 
L 318.575119 235.221861 
L 318.676607 234.73042 
L 318.778096 234.756946 
L 318.879584 235.101031 
L 319.082561 234.866949 
L 319.184049 234.78802 
L 319.285538 235.78357 
L 319.387026 234.931479 
L 319.488514 235.173464 
L 319.590003 234.648134 
L 319.792979 234.949668 
L 319.894468 234.93516 
L 320.097445 234.642829 
L 320.198933 235.725645 
L 320.40191 234.950967 
L 320.604886 234.599304 
L 320.807863 234.963094 
L 320.909352 234.473926 
L 321.112328 235.519606 
L 321.315305 234.821259 
L 321.416793 234.768856 
L 321.61977 235.084465 
L 321.721259 234.539322 
L 322.025724 234.96396 
L 322.127212 234.324945 
L 322.431677 235.408953 
L 322.634654 234.642829 
L 322.939119 234.921301 
L 323.040607 234.427586 
L 323.142096 234.777734 
L 323.243584 234.705193 
L 323.345073 235.559883 
L 323.548049 234.599304 
L 323.751026 234.912423 
L 323.852514 234.791593 
L 323.954003 234.337721 
L 324.258468 235.448364 
L 324.461445 234.639256 
L 324.562933 234.61078 
L 324.664421 234.9527 
L 324.867398 234.85439 
L 324.968887 234.930288 
L 325.171863 234.648892 
L 325.37484 235.074938 
L 325.476328 234.055784 
L 325.679305 234.845295 
L 325.780794 235.193927 
L 326.085259 234.62085 
L 326.186747 234.668164 
L 326.288235 235.088688 
L 326.389724 234.15561 
L 326.491212 234.833277 
L 326.592701 234.706059 
L 326.694189 235.244598 
L 326.897166 234.467863 
L 326.998654 234.865542 
L 327.100142 234.655821 
L 327.201631 234.888603 
L 327.303119 234.131141 
L 327.404608 234.880808 
L 327.506096 234.561842 
L 327.607584 235.331215 
L 327.810561 234.113168 
L 327.912049 235.458758 
L 328.013538 234.609914 
L 328.115026 234.930396 
L 328.216515 234.148789 
L 328.419491 234.82494 
L 328.52098 234.29896 
L 328.723956 234.661993 
L 328.825445 235.306962 
L 328.926933 234.679208 
L 329.028422 234.887304 
L 329.12991 234.346816 
L 329.231398 234.503592 
L 329.332887 235.020044 
L 329.434375 234.178347 
L 329.637352 234.634059 
L 329.73884 235.370301 
L 329.941817 234.48995 
L 330.043305 234.876044 
L 330.144794 234.514203 
L 330.246282 234.796898 
L 330.34777 234.24515 
L 330.449259 234.309571 
L 330.652236 235.203347 
L 330.753724 234.544519 
L 330.855212 234.797006 
L 331.058189 234.492765 
L 331.159677 234.621391 
L 331.261166 234.30524 
L 331.464143 234.505974 
L 331.565631 235.248712 
L 331.667119 234.603093 
L 331.768608 234.64088 
L 331.870096 234.365006 
L 332.073073 234.709632 
L 332.174561 234.073865 
L 332.27605 234.594865 
L 332.377538 234.435598 
L 332.479026 235.229224 
L 332.783491 234.345084 
L 332.986468 234.699238 
L 333.087957 234.077763 
L 333.392422 235.321687 
L 333.595398 234.442419 
L 333.696887 234.329926 
L 333.899864 234.686029 
L 334.001352 234.004788 
L 334.305817 235.181801 
L 334.508794 234.22761 
L 334.610282 234.554696 
L 334.711771 234.490816 
L 334.813259 234.65777 
L 334.914747 233.973823 
L 335.016236 234.532717 
L 335.117724 234.465481 
L 335.219212 235.139359 
L 335.422189 234.392398 
L 335.523678 234.422064 
L 335.625166 234.717752 
L 335.726654 234.561842 
L 335.828143 233.967435 
L 335.929631 234.634167 
L 336.031119 234.409505 
L 336.132608 235.00467 
L 336.335585 233.886665 
L 336.538561 234.868898 
L 336.741538 234.443285 
L 336.843026 234.442528 
L 336.944515 234.318124 
L 337.046003 234.801879 
L 337.147492 234.106238 
L 337.350468 234.825373 
L 337.451957 234.786396 
L 337.654933 234.382979 
L 337.85791 234.301018 
L 337.959399 234.669463 
L 338.060887 234.159508 
L 338.365352 234.860128 
L 338.568329 234.292031 
L 338.771306 234.387851 
L 338.872794 234.22133 
L 339.075771 234.539538 
L 339.177259 234.768423 
L 339.278747 234.452272 
L 339.380236 234.774486 
L 339.481724 234.030665 
L 339.684701 234.396296 
L 339.887678 234.179971 
L 340.090654 234.600386 
L 340.293631 234.535099 
L 340.39512 234.03911 
L 340.598096 234.322672 
L 340.902561 234.138286 
L 341.00405 234.826239 
L 341.207027 234.413186 
L 341.308515 233.933113 
L 341.410003 234.041601 
L 341.511492 234.424338 
L 341.61298 234.302209 
L 341.714468 233.816072 
L 341.815957 234.138286 
L 341.917445 235.101897 
L 342.120422 234.164705 
L 342.22191 233.989739 
L 342.424887 234.166653 
L 342.627864 233.846821 
L 342.729352 234.188632 
L 342.830841 235.066168 
L 342.932329 234.079604 
L 343.033817 234.349198 
L 343.135306 233.779693 
L 343.338282 234.221655 
L 343.541259 233.875188 
L 343.744236 234.645644 
L 343.845724 233.964945 
L 343.947213 234.412753 
L 344.048701 233.748187 
L 344.150189 233.791278 
L 344.251678 234.463099 
L 344.353166 233.592168 
L 344.454655 234.051345 
L 344.556143 233.903988 
L 344.657631 234.887196 
L 344.860608 233.890563 
L 345.063585 234.045282 
L 345.165073 234.224903 
L 345.266562 233.552866 
L 345.469538 233.942424 
L 345.571027 234.583496 
L 345.774003 233.881143 
L 345.97698 233.831988 
L 346.078469 234.107646 
L 346.179957 233.449034 
L 346.484422 234.536723 
L 346.687399 233.628331 
L 346.788887 233.654532 
L 346.991864 234.154744 
L 347.093352 233.266814 
L 347.397817 234.208446 
L 347.600794 233.687447 
L 347.702283 233.860572 
L 347.803771 233.547777 
L 348.209724 233.835345 
L 348.311213 234.076139 
L 348.51419 233.54074 
L 348.615678 233.666226 
L 348.818655 233.504361 
L 349.12312 234.124211 
L 349.427585 233.288793 
L 349.529073 233.70791 
L 349.630562 233.376384 
L 349.73205 233.880494 
L 349.935027 233.291933 
L 350.036515 234.489301 
L 350.138004 233.621293 
L 350.239492 233.800048 
L 350.34098 233.250899 
L 350.543957 233.891321 
L 350.746934 233.201635 
L 350.949911 234.235405 
L 351.051399 233.634827 
L 351.152887 233.84877 
L 351.254376 232.906164 
L 351.355864 233.811633 
L 351.457352 233.583398 
L 351.558841 232.962465 
L 351.660329 233.629955 
L 351.761818 233.525907 
L 351.863306 234.178563 
L 352.066283 233.258044 
L 352.167771 233.414929 
L 352.269259 233.363067 
L 352.370748 233.47686 
L 352.472236 233.010429 
L 352.573725 233.193407 
L 352.776701 233.789654 
L 352.979678 233.036955 
L 353.284143 233.566833 
L 353.385632 232.859608 
L 353.48712 233.292475 
L 353.588608 233.227079 
L 353.690097 233.854617 
L 353.791585 233.175975 
L 353.893073 233.197304 
L 354.09605 233.029809 
L 354.299027 233.177599 
L 354.400515 233.12184 
L 354.603492 233.482815 
L 354.806469 232.89014 
L 354.907957 233.094447 
L 355.110934 232.782194 
L 355.212422 233.174676 
L 355.313911 232.757725 
L 355.415399 233.644463 
L 355.516887 233.068679 
L 355.618376 233.258802 
L 355.719864 232.640251 
L 355.821353 233.054603 
L 356.125818 232.693953 
L 356.227306 232.784576 
L 356.328794 233.663194 
L 356.430283 232.693304 
L 356.531771 233.270929 
L 356.734748 232.767902 
L 356.836236 233.096829 
L 356.937725 232.340449 
L 357.24219 233.69037 
L 357.445167 232.608528 
L 357.546655 232.932149 
L 357.648143 232.707379 
L 357.749632 233.025695 
L 357.85112 232.400106 
L 358.155585 233.090225 
L 358.358562 232.64155 
L 358.46005 232.570308 
L 358.663027 233.061425 
L 358.764515 232.31912 
L 358.967492 232.835355 
L 359.068981 232.034909 
L 359.170469 232.829617 
L 359.271957 232.565652 
L 359.373446 233.321275 
L 359.576422 232.522019 
L 359.677911 232.70608 
L 359.779399 232.310891 
L 359.880888 232.805364 
L 359.982376 232.051691 
L 360.083864 232.761514 
L 360.185353 232.482933 
L 360.286841 233.048865 
L 360.489818 232.366759 
L 360.591306 232.32345 
L 360.794283 232.564678 
L 360.895771 232.05548 
L 361.098748 233.182688 
L 361.200236 232.500148 
L 361.301725 232.530139 
L 361.504702 232.269315 
L 361.60619 232.485315 
L 361.707678 232.159204 
L 361.809167 232.436052 
L 361.910655 232.176419 
L 362.012143 233.094989 
L 362.113632 232.377911 
L 362.21512 232.671 
L 362.316609 232.164292 
L 362.519585 232.467451 
L 362.621074 232.152274 
L 362.82405 232.262169 
L 362.925539 232.985635 
L 363.230004 232.154331 
L 363.331492 232.196774 
L 363.534469 232.504912 
L 363.737446 232.065008 
L 363.838934 232.310999 
L 363.940423 232.064467 
L 364.041911 232.526567 
L 364.143399 231.697212 
L 364.346376 232.485857 
L 364.447864 232.175119 
L 364.549353 232.411475 
L 364.650841 231.69732 
L 364.75233 232.065333 
L 364.853818 231.596953 
L 364.955306 231.873585 
L 365.056795 231.741819 
L 365.158283 231.807648 
L 365.259771 232.629857 
L 365.36126 231.581254 
L 365.462748 231.679131 
L 365.564237 231.410402 
L 365.767213 231.588508 
L 365.868702 230.728729 
L 365.97019 232.072803 
L 366.071678 231.054624 
L 366.173167 231.271924 
L 366.376144 230.894708 
L 366.477632 230.83386 
L 366.57912 231.680755 
L 366.782097 230.545102 
L 366.985074 230.816645 
L 367.086562 231.117746 
L 367.188051 229.885949 
L 367.289539 230.543044 
L 367.391027 230.510996 
L 367.492516 230.789902 
L 367.695492 230.139844 
L 367.796981 230.123495 
L 367.999958 229.956216 
L 368.202934 229.926767 
L 368.304423 230.246815 
L 368.405911 229.739242 
L 368.507399 230.239886 
L 368.710376 229.131301 
L 368.811865 229.936186 
L 368.913353 229.540889 
L 369.014841 228.684142 
L 369.11633 230.277348 
L 369.319306 228.681977 
L 369.420795 229.984367 
L 369.522283 228.782344 
L 369.623772 229.37805 
L 369.826748 228.534079 
L 369.928237 229.522483 
L 370.029725 228.14203 
L 370.131213 229.03808 
L 370.232702 228.872209 
L 370.33419 227.95483 
L 370.435679 229.777461 
L 370.537167 227.934367 
L 370.638655 228.859 
L 370.740144 228.501489 
L 370.841632 227.501175 
L 370.94312 229.434134 
L 371.146097 227.794697 
L 371.247586 228.792954 
L 371.349074 227.627743 
L 371.450562 228.69302 
L 371.653539 226.974437 
L 371.755027 228.619071 
L 371.856516 227.589849 
L 372.059493 227.859876 
L 372.160981 227.241866 
L 372.262469 228.239907 
L 372.363958 227.18654 
L 372.465446 227.267959 
L 372.566934 227.889326 
L 372.668423 226.355994 
L 372.769911 227.974318 
L 372.8714 227.531816 
L 372.972888 226.508439 
L 373.074376 227.929603 
L 373.175865 226.73191 
L 373.277353 226.765474 
L 373.48033 226.014941 
L 373.581818 226.289299 
L 373.581818 226.289299 
" style="fill:none;stroke:#081d58;stroke-dasharray:5.55,2.4;stroke-dashoffset:0;stroke-width:1.5;"/>
    <defs>
     <path d="M -0 4.242641 
L 4.242641 0 
L 0 -4.242641 
L -4.242641 -0 
z
" id="m3e119fc1eb" style="stroke:#081d58;stroke-linejoin:miter;"/>
    </defs>
    <g clip-path="url(#pb098422dd7)">
     <use style="fill:#081d58;stroke:#081d58;stroke-linejoin:miter;" x="69.218182" xlink:href="#m3e119fc1eb" y="47.1935"/>
     <use style="fill:#081d58;stroke:#081d58;stroke-linejoin:miter;" x="77.337252" xlink:href="#m3e119fc1eb" y="47.973916"/>
     <use style="fill:#081d58;stroke:#081d58;stroke-linejoin:miter;" x="85.456322" xlink:href="#m3e119fc1eb" y="48.233766"/>
     <use style="fill:#081d58;stroke:#081d58;stroke-linejoin:miter;" x="93.575392" xlink:href="#m3e119fc1eb" y="50.84959"/>
     <use style="fill:#081d58;stroke:#081d58;stroke-linejoin:miter;" x="101.694462" xlink:href="#m3e119fc1eb" y="50.789175"/>
     <use style="fill:#081d58;stroke:#081d58;stroke-linejoin:miter;" x="109.813532" xlink:href="#m3e119fc1eb" y="55.472755"/>
     <use style="fill:#081d58;stroke:#081d58;stroke-linejoin:miter;" x="117.932602" xlink:href="#m3e119fc1eb" y="57.408205"/>
     <use style="fill:#081d58;stroke:#081d58;stroke-linejoin:miter;" x="126.051672" xlink:href="#m3e119fc1eb" y="58.859901"/>
     <use style="fill:#081d58;stroke:#081d58;stroke-linejoin:miter;" x="134.170742" xlink:href="#m3e119fc1eb" y="63.249851"/>
     <use style="fill:#081d58;stroke:#081d58;stroke-linejoin:miter;" x="142.289812" xlink:href="#m3e119fc1eb" y="71.444872"/>
     <use style="fill:#081d58;stroke:#081d58;stroke-linejoin:miter;" x="150.408882" xlink:href="#m3e119fc1eb" y="85.121862"/>
     <use style="fill:#081d58;stroke:#081d58;stroke-linejoin:miter;" x="158.527952" xlink:href="#m3e119fc1eb" y="110.193278"/>
     <use style="fill:#081d58;stroke:#081d58;stroke-linejoin:miter;" x="166.647022" xlink:href="#m3e119fc1eb" y="158.692341"/>
     <use style="fill:#081d58;stroke:#081d58;stroke-linejoin:miter;" x="174.766092" xlink:href="#m3e119fc1eb" y="211.863615"/>
     <use style="fill:#081d58;stroke:#081d58;stroke-linejoin:miter;" x="182.885162" xlink:href="#m3e119fc1eb" y="223.107544"/>
     <use style="fill:#081d58;stroke:#081d58;stroke-linejoin:miter;" x="191.004232" xlink:href="#m3e119fc1eb" y="227.5303"/>
     <use style="fill:#081d58;stroke:#081d58;stroke-linejoin:miter;" x="199.123302" xlink:href="#m3e119fc1eb" y="232.152816"/>
     <use style="fill:#081d58;stroke:#081d58;stroke-linejoin:miter;" x="207.242372" xlink:href="#m3e119fc1eb" y="234.536831"/>
     <use style="fill:#081d58;stroke:#081d58;stroke-linejoin:miter;" x="215.361442" xlink:href="#m3e119fc1eb" y="235.651913"/>
     <use style="fill:#081d58;stroke:#081d58;stroke-linejoin:miter;" x="223.480512" xlink:href="#m3e119fc1eb" y="239.737297"/>
     <use style="fill:#081d58;stroke:#081d58;stroke-linejoin:miter;" x="231.599582" xlink:href="#m3e119fc1eb" y="238.209054"/>
     <use style="fill:#081d58;stroke:#081d58;stroke-linejoin:miter;" x="239.718652" xlink:href="#m3e119fc1eb" y="238.350889"/>
     <use style="fill:#081d58;stroke:#081d58;stroke-linejoin:miter;" x="247.837722" xlink:href="#m3e119fc1eb" y="239.851956"/>
     <use style="fill:#081d58;stroke:#081d58;stroke-linejoin:miter;" x="255.956792" xlink:href="#m3e119fc1eb" y="239.260797"/>
     <use style="fill:#081d58;stroke:#081d58;stroke-linejoin:miter;" x="264.075862" xlink:href="#m3e119fc1eb" y="237.96447"/>
     <use style="fill:#081d58;stroke:#081d58;stroke-linejoin:miter;" x="272.194932" xlink:href="#m3e119fc1eb" y="237.884025"/>
     <use style="fill:#081d58;stroke:#081d58;stroke-linejoin:miter;" x="280.314002" xlink:href="#m3e119fc1eb" y="238.86799"/>
     <use style="fill:#081d58;stroke:#081d58;stroke-linejoin:miter;" x="288.433072" xlink:href="#m3e119fc1eb" y="238.172675"/>
     <use style="fill:#081d58;stroke:#081d58;stroke-linejoin:miter;" x="296.552142" xlink:href="#m3e119fc1eb" y="238.500303"/>
     <use style="fill:#081d58;stroke:#081d58;stroke-linejoin:miter;" x="304.671212" xlink:href="#m3e119fc1eb" y="236.417821"/>
     <use style="fill:#081d58;stroke:#081d58;stroke-linejoin:miter;" x="312.790282" xlink:href="#m3e119fc1eb" y="235.971529"/>
     <use style="fill:#081d58;stroke:#081d58;stroke-linejoin:miter;" x="320.909352" xlink:href="#m3e119fc1eb" y="234.473926"/>
     <use style="fill:#081d58;stroke:#081d58;stroke-linejoin:miter;" x="329.028422" xlink:href="#m3e119fc1eb" y="234.887304"/>
     <use style="fill:#081d58;stroke:#081d58;stroke-linejoin:miter;" x="337.147492" xlink:href="#m3e119fc1eb" y="234.106238"/>
     <use style="fill:#081d58;stroke:#081d58;stroke-linejoin:miter;" x="345.266562" xlink:href="#m3e119fc1eb" y="233.552866"/>
     <use style="fill:#081d58;stroke:#081d58;stroke-linejoin:miter;" x="353.385632" xlink:href="#m3e119fc1eb" y="232.859608"/>
     <use style="fill:#081d58;stroke:#081d58;stroke-linejoin:miter;" x="361.504702" xlink:href="#m3e119fc1eb" y="232.269315"/>
     <use style="fill:#081d58;stroke:#081d58;stroke-linejoin:miter;" x="369.623772" xlink:href="#m3e119fc1eb" y="229.37805"/>
    </g>
   </g>
   <g id="patch_3">
    <path d="M 54 252 
L 54 34.56 
" style="fill:none;stroke:#000000;stroke-linecap:square;stroke-linejoin:miter;stroke-width:0.8;"/>
   </g>
   <g id="patch_4">
    <path d="M 388.8 252 
L 388.8 34.56 
" style="fill:none;stroke:#000000;stroke-linecap:square;stroke-linejoin:miter;stroke-width:0.8;"/>
   </g>
   <g id="patch_5">
    <path d="M 54 252 
L 388.8 252 
" style="fill:none;stroke:#000000;stroke-linecap:square;stroke-linejoin:miter;stroke-width:0.8;"/>
   </g>
   <g id="patch_6">
    <path d="M 54 34.56 
L 388.8 34.56 
" style="fill:none;stroke:#000000;stroke-linecap:square;stroke-linejoin:miter;stroke-width:0.8;"/>
   </g>
   <g id="legend_1">
    <g id="patch_7">
     <path d="M 280.085938 71.91625 
L 381.8 71.91625 
Q 383.8 71.91625 383.8 69.91625 
L 383.8 41.56 
Q 383.8 39.56 381.8 39.56 
L 280.085938 39.56 
Q 278.085938 39.56 278.085938 41.56 
L 278.085938 69.91625 
Q 278.085938 71.91625 280.085938 71.91625 
z
" style="fill:#ffffff;opacity:0.8;stroke:#cccccc;stroke-linejoin:miter;"/>
    </g>
    <g id="line2d_17">
     <path d="M 282.085938 47.658437 
L 302.085938 47.658437 
" style="fill:none;stroke:#40b5c4;stroke-dasharray:5.55,2.4;stroke-dashoffset:0;stroke-width:1.5;"/>
    </g>
    <g id="line2d_18">
     <g>
      <use style="fill:#40b5c4;stroke:#40b5c4;" x="292.085938" xlink:href="#m15fd7dfd5e" y="47.658437"/>
     </g>
    </g>
    <g id="text_17">
     <text style="font-family:DejaVu Sans;font-size:10px;font-style:normal;font-weight:normal;text-anchor:start;" transform="rotate(-0, 310.085938, 51.158437)" x="310.085938" y="51.158437">original</text>
    </g>
    <g id="line2d_19">
     <path d="M 282.085938 62.336562 
L 302.085938 62.336562 
" style="fill:none;stroke:#081d58;stroke-dasharray:5.55,2.4;stroke-dashoffset:0;stroke-width:1.5;"/>
    </g>
    <g id="line2d_20">
     <g>
      <use style="fill:#081d58;stroke:#081d58;stroke-linejoin:miter;" x="292.085938" xlink:href="#m3e119fc1eb" y="62.336562"/>
     </g>
    </g>
    <g id="text_18">
     <text style="font-family:DejaVu Sans;font-size:10px;font-style:normal;font-weight:normal;text-anchor:start;" transform="rotate(-0, 310.085938, 65.836562)" x="310.085938" y="65.836562">reconstructed</text>
    </g>
   </g>
  </g>
  <g id="text_19">
   <text style="font-family:DejaVu Sans;font-size:12px;font-style:normal;font-weight:normal;text-anchor:middle;" transform="rotate(-0, 216, 14.878125)" x="216" y="14.878125">Reconstruction of the weight curve</text>
  </g>
 </g>
 <defs>
  <clipPath id="pb098422dd7">
   <rect height="217.44" width="334.8" x="54" y="34.56"/>
  </clipPath>
 </defs>
</svg>
