<?xml version="1.0" encoding="utf-8" standalone="no"?>
<!DOCTYPE svg PUBLIC "-//W3C//DTD SVG 1.1//EN"
  "http://www.w3.org/Graphics/SVG/1.1/DTD/svg11.dtd">
<!-- Created with matplotlib (https://matplotlib.org/) -->
<svg height="288pt" version="1.1" viewBox="0 0 432 288" width="432pt" xmlns="http://www.w3.org/2000/svg" xmlns:xlink="http://www.w3.org/1999/xlink">
 <defs>
  <style type="text/css">
*{stroke-linecap:butt;stroke-linejoin:round;}
  </style>
 </defs>
 <g id="figure_1">
  <g id="patch_1">
   <path d="M 0 288 
L 432 288 
L 432 0 
L 0 0 
z
" style="fill:#ffffff;"/>
  </g>
  <g id="axes_1">
   <g id="patch_2">
    <path d="M 54 252 
L 388.8 252 
L 388.8 34.56 
L 54 34.56 
z
" style="fill:#ffffff;"/>
   </g>
   <g id="matplotlib.axis_1">
    <g id="xtick_1">
     <g id="line2d_1">
      <defs>
       <path d="M 0 0 
L 0 3.5 
" id="ma9755793fc" style="stroke:#000000;stroke-width:0.8;"/>
      </defs>
      <g>
       <use style="stroke:#000000;stroke-width:0.8;" x="69.218182" xlink:href="#ma9755793fc" y="252"/>
      </g>
     </g>
     <g id="text_1">
      <text style="font-family:DejaVu Sans;font-size:10px;font-style:normal;font-weight:normal;text-anchor:middle;" transform="rotate(-0, 69.218182, 266.598437)" x="69.218182" y="266.598437">0</text>
     </g>
    </g>
    <g id="xtick_2">
     <g id="line2d_2">
      <g>
       <use style="stroke:#000000;stroke-width:0.8;" x="119.962369" xlink:href="#ma9755793fc" y="252"/>
      </g>
     </g>
     <g id="text_2">
      <text style="font-family:DejaVu Sans;font-size:10px;font-style:normal;font-weight:normal;text-anchor:middle;" transform="rotate(-0, 119.962369, 266.598437)" x="119.962369" y="266.598437">500</text>
     </g>
    </g>
    <g id="xtick_3">
     <g id="line2d_3">
      <g>
       <use style="stroke:#000000;stroke-width:0.8;" x="170.706557" xlink:href="#ma9755793fc" y="252"/>
      </g>
     </g>
     <g id="text_3">
      <text style="font-family:DejaVu Sans;font-size:10px;font-style:normal;font-weight:normal;text-anchor:middle;" transform="rotate(-0, 170.706557, 266.598437)" x="170.706557" y="266.598437">1000</text>
     </g>
    </g>
    <g id="xtick_4">
     <g id="line2d_4">
      <g>
       <use style="stroke:#000000;stroke-width:0.8;" x="221.450744" xlink:href="#ma9755793fc" y="252"/>
      </g>
     </g>
     <g id="text_4">
      <text style="font-family:DejaVu Sans;font-size:10px;font-style:normal;font-weight:normal;text-anchor:middle;" transform="rotate(-0, 221.450744, 266.598437)" x="221.450744" y="266.598437">1500</text>
     </g>
    </g>
    <g id="xtick_5">
     <g id="line2d_5">
      <g>
       <use style="stroke:#000000;stroke-width:0.8;" x="272.194932" xlink:href="#ma9755793fc" y="252"/>
      </g>
     </g>
     <g id="text_5">
      <text style="font-family:DejaVu Sans;font-size:10px;font-style:normal;font-weight:normal;text-anchor:middle;" transform="rotate(-0, 272.194932, 266.598437)" x="272.194932" y="266.598437">2000</text>
     </g>
    </g>
    <g id="xtick_6">
     <g id="line2d_6">
      <g>
       <use style="stroke:#000000;stroke-width:0.8;" x="322.939119" xlink:href="#ma9755793fc" y="252"/>
      </g>
     </g>
     <g id="text_6">
      <text style="font-family:DejaVu Sans;font-size:10px;font-style:normal;font-weight:normal;text-anchor:middle;" transform="rotate(-0, 322.939119, 266.598437)" x="322.939119" y="266.598437">2500</text>
     </g>
    </g>
    <g id="xtick_7">
     <g id="line2d_7">
      <g>
       <use style="stroke:#000000;stroke-width:0.8;" x="373.683307" xlink:href="#ma9755793fc" y="252"/>
      </g>
     </g>
     <g id="text_7">
      <text style="font-family:DejaVu Sans;font-size:10px;font-style:normal;font-weight:normal;text-anchor:middle;" transform="rotate(-0, 373.683307, 266.598437)" x="373.683307" y="266.598437">3000</text>
     </g>
    </g>
    <g id="text_8">
     <text style="font-family:DejaVu Sans;font-size:10px;font-style:normal;font-weight:normal;text-anchor:middle;" transform="rotate(-0, 221.4, 280.276563)" x="221.4" y="280.276563">Time</text>
    </g>
   </g>
   <g id="matplotlib.axis_2">
    <g id="ytick_1">
     <g id="line2d_8">
      <defs>
       <path d="M 0 0 
L -3.5 0 
" id="mae4955c9e4" style="stroke:#000000;stroke-width:0.8;"/>
      </defs>
      <g>
       <use style="stroke:#000000;stroke-width:0.8;" x="54" xlink:href="#mae4955c9e4" y="243.129444"/>
      </g>
     </g>
     <g id="text_9">
      <text style="font-family:DejaVu Sans;font-size:10px;font-style:normal;font-weight:normal;text-anchor:end;" transform="rotate(-0, 47, 246.928662)" x="47" y="246.928662">−10</text>
     </g>
    </g>
    <g id="ytick_2">
     <g id="line2d_9">
      <g>
       <use style="stroke:#000000;stroke-width:0.8;" x="54" xlink:href="#mae4955c9e4" y="208.531625"/>
      </g>
     </g>
     <g id="text_10">
      <text style="font-family:DejaVu Sans;font-size:10px;font-style:normal;font-weight:normal;text-anchor:end;" transform="rotate(-0, 47, 212.330844)" x="47" y="212.330844">−8</text>
     </g>
    </g>
    <g id="ytick_3">
     <g id="line2d_10">
      <g>
       <use style="stroke:#000000;stroke-width:0.8;" x="54" xlink:href="#mae4955c9e4" y="173.933807"/>
      </g>
     </g>
     <g id="text_11">
      <text style="font-family:DejaVu Sans;font-size:10px;font-style:normal;font-weight:normal;text-anchor:end;" transform="rotate(-0, 47, 177.733026)" x="47" y="177.733026">−6</text>
     </g>
    </g>
    <g id="ytick_4">
     <g id="line2d_11">
      <g>
       <use style="stroke:#000000;stroke-width:0.8;" x="54" xlink:href="#mae4955c9e4" y="139.335989"/>
      </g>
     </g>
     <g id="text_12">
      <text style="font-family:DejaVu Sans;font-size:10px;font-style:normal;font-weight:normal;text-anchor:end;" transform="rotate(-0, 47, 143.135208)" x="47" y="143.135208">−4</text>
     </g>
    </g>
    <g id="ytick_5">
     <g id="line2d_12">
      <g>
       <use style="stroke:#000000;stroke-width:0.8;" x="54" xlink:href="#mae4955c9e4" y="104.738171"/>
      </g>
     </g>
     <g id="text_13">
      <text style="font-family:DejaVu Sans;font-size:10px;font-style:normal;font-weight:normal;text-anchor:end;" transform="rotate(-0, 47, 108.53739)" x="47" y="108.53739">−2</text>
     </g>
    </g>
    <g id="ytick_6">
     <g id="line2d_13">
      <g>
       <use style="stroke:#000000;stroke-width:0.8;" x="54" xlink:href="#mae4955c9e4" y="70.140353"/>
      </g>
     </g>
     <g id="text_14">
      <text style="font-family:DejaVu Sans;font-size:10px;font-style:normal;font-weight:normal;text-anchor:end;" transform="rotate(-0, 47, 73.939572)" x="47" y="73.939572">0</text>
     </g>
    </g>
    <g id="ytick_7">
     <g id="line2d_14">
      <g>
       <use style="stroke:#000000;stroke-width:0.8;" x="54" xlink:href="#mae4955c9e4" y="35.542535"/>
      </g>
     </g>
     <g id="text_15">
      <text style="font-family:DejaVu Sans;font-size:10px;font-style:normal;font-weight:normal;text-anchor:end;" transform="rotate(-0, 47, 39.341753)" x="47" y="39.341753">2</text>
     </g>
    </g>
    <g id="text_16">
     <text style="font-family:DejaVu Sans;font-size:10px;font-style:normal;font-weight:normal;text-anchor:middle;" transform="rotate(-90, 19.815625, 143.28)" x="19.815625" y="143.28">temperature (°C)</text>
    </g>
   </g>
   <g id="line2d_15">
    <path clip-path="url(#p517b1e7f7f)" d="M 69.218182 66.787736 
L 72.161345 65.946523 
L 73.277717 65.859316 
L 74.191112 66.009619 
L 75.003019 66.392274 
L 75.814926 67.034446 
L 76.626833 67.96807 
L 77.540229 69.390751 
L 78.555112 71.424684 
L 79.671484 74.198474 
L 80.990833 78.138171 
L 82.513159 83.437709 
L 84.441438 91.035636 
L 87.486089 104.053203 
L 91.444136 120.79789 
L 93.67688 129.311219 
L 95.503671 135.515958 
L 97.127485 140.300403 
L 98.649811 144.134049 
L 100.070648 147.127695 
L 101.288508 149.208096 
L 102.506369 150.852876 
L 103.622741 151.993082 
L 104.739113 152.842822 
L 105.753997 153.355198 
L 106.768881 153.631531 
L 107.885253 153.698132 
L 109.001625 153.546697 
L 110.422462 153.096856 
L 112.046276 152.336707 
L 113.974555 151.119937 
L 116.511765 149.239649 
L 123.615951 143.959797 
L 126.356137 142.289224 
L 128.893346 140.963436 
L 131.126091 140.037287 
L 133.460323 139.29935 
L 135.591579 138.839545 
L 138.331765 138.497044 
L 140.564509 138.417573 
L 142.289812 138.575287 
L 143.913626 138.942318 
L 145.435951 139.509151 
L 147.059765 140.374598 
L 148.176138 141.154468 
L 149.29251 142.207262 
L 150.408882 143.583321 
L 151.626742 145.471462 
L 154.163952 150.042059 
L 155.889254 153.793483 
L 161.877068 167.987584 
L 163.297905 171.995724 
L 164.718743 176.618598 
L 166.444045 183.09742 
L 169.691673 195.59256 
L 170.605068 198.175841 
L 171.213999 199.372009 
L 171.72144 199.950917 
L 172.127394 200.117713 
L 172.431859 200.01949 
L 172.736324 199.701674 
L 173.142278 198.88181 
L 173.64972 197.245281 
L 174.25865 194.400026 
L 174.969068 189.954171 
L 175.882464 182.751649 
L 177.303301 169.507639 
L 180.550929 138.880267 
L 182.174743 125.905255 
L 183.59558 116.214371 
L 185.016418 108.01839 
L 186.335766 101.621426 
L 187.655115 96.266307 
L 188.974464 91.831472 
L 190.192325 88.460122 
L 191.410185 85.691195 
L 192.628046 83.437168 
L 193.845906 81.619253 
L 195.165255 80.043188 
L 196.586092 78.702334 
L 198.209906 77.488483 
L 200.341162 76.194014 
L 204.19772 74.174218 
L 212.113814 70.000838 
L 233.121907 58.666997 
L 238.297814 55.810471 
L 242.661815 53.616487 
L 246.619861 51.873276 
L 250.273443 50.463345 
L 254.84042 48.944207 
L 258.595489 47.89937 
L 262.95949 46.925667 
L 268.947304 45.893717 
L 274.427676 45.101185 
L 278.994653 44.672484 
L 283.56163 44.475017 
L 288.433072 44.460935 
L 294.319397 44.674006 
L 298.683397 45.015902 
L 304.468235 45.782416 
L 328.216515 49.454559 
L 332.479026 50.347131 
L 336.234096 51.382263 
L 340.39512 52.749413 
L 347.194841 55.345834 
L 352.167771 57.168295 
L 356.125818 58.359351 
L 359.880888 59.250859 
L 363.838934 59.970919 
L 370.740144 60.921352 
L 373.581818 61.264753 
L 373.581818 61.264753 
" style="fill:none;stroke:#40b5c4;stroke-dasharray:5.55,2.4;stroke-dashoffset:0;stroke-width:1.5;"/>
    <defs>
     <path d="M 0 3 
C 0.795609 3 1.55874 2.683901 2.12132 2.12132 
C 2.683901 1.55874 3 0.795609 3 0 
C 3 -0.795609 2.683901 -1.55874 2.12132 -2.12132 
C 1.55874 -2.683901 0.795609 -3 0 -3 
C -0.795609 -3 -1.55874 -2.683901 -2.12132 -2.12132 
C -2.683901 -1.55874 -3 -0.795609 -3 0 
C -3 0.795609 -2.683901 1.55874 -2.12132 2.12132 
C -1.55874 2.683901 -0.795609 3 0 3 
z
" id="m6fafeeb38a" style="stroke:#40b5c4;"/>
    </defs>
    <g clip-path="url(#p517b1e7f7f)">
     <use style="fill:#40b5c4;stroke:#40b5c4;" x="69.218182" xlink:href="#m6fafeeb38a" y="66.787736"/>
     <use style="fill:#40b5c4;stroke:#40b5c4;" x="77.337252" xlink:href="#m6fafeeb38a" y="69.04123"/>
     <use style="fill:#40b5c4;stroke:#40b5c4;" x="85.456322" xlink:href="#m6fafeeb38a" y="95.294039"/>
     <use style="fill:#40b5c4;stroke:#40b5c4;" x="93.575392" xlink:href="#m6fafeeb38a" y="128.942459"/>
     <use style="fill:#40b5c4;stroke:#40b5c4;" x="101.694462" xlink:href="#m6fafeeb38a" y="149.804424"/>
     <use style="fill:#40b5c4;stroke:#40b5c4;" x="109.813532" xlink:href="#m6fafeeb38a" y="153.316206"/>
     <use style="fill:#40b5c4;stroke:#40b5c4;" x="117.932602" xlink:href="#m6fafeeb38a" y="148.153139"/>
     <use style="fill:#40b5c4;stroke:#40b5c4;" x="126.051672" xlink:href="#m6fafeeb38a" y="142.464601"/>
     <use style="fill:#40b5c4;stroke:#40b5c4;" x="134.170742" xlink:href="#m6fafeeb38a" y="139.121327"/>
     <use style="fill:#40b5c4;stroke:#40b5c4;" x="142.289812" xlink:href="#m6fafeeb38a" y="138.575287"/>
     <use style="fill:#40b5c4;stroke:#40b5c4;" x="150.408882" xlink:href="#m6fafeeb38a" y="143.583321"/>
     <use style="fill:#40b5c4;stroke:#40b5c4;" x="158.527952" xlink:href="#m6fafeeb38a" y="159.990887"/>
     <use style="fill:#40b5c4;stroke:#40b5c4;" x="166.647022" xlink:href="#m6fafeeb38a" y="183.907718"/>
     <use style="fill:#40b5c4;stroke:#40b5c4;" x="174.766092" xlink:href="#m6fafeeb38a" y="191.339278"/>
     <use style="fill:#40b5c4;stroke:#40b5c4;" x="182.885162" xlink:href="#m6fafeeb38a" y="120.86712"/>
     <use style="fill:#40b5c4;stroke:#40b5c4;" x="191.004232" xlink:href="#m6fafeeb38a" y="86.551843"/>
     <use style="fill:#40b5c4;stroke:#40b5c4;" x="199.123302" xlink:href="#m6fafeeb38a" y="76.901777"/>
     <use style="fill:#40b5c4;stroke:#40b5c4;" x="207.242372" xlink:href="#m6fafeeb38a" y="72.606075"/>
     <use style="fill:#40b5c4;stroke:#40b5c4;" x="215.361442" xlink:href="#m6fafeeb38a" y="68.212808"/>
     <use style="fill:#40b5c4;stroke:#40b5c4;" x="223.480512" xlink:href="#m6fafeeb38a" y="63.738763"/>
     <use style="fill:#40b5c4;stroke:#40b5c4;" x="231.599582" xlink:href="#m6fafeeb38a" y="59.456536"/>
     <use style="fill:#40b5c4;stroke:#40b5c4;" x="239.718652" xlink:href="#m6fafeeb38a" y="55.061772"/>
     <use style="fill:#40b5c4;stroke:#40b5c4;" x="247.837722" xlink:href="#m6fafeeb38a" y="51.379634"/>
     <use style="fill:#40b5c4;stroke:#40b5c4;" x="255.956792" xlink:href="#m6fafeeb38a" y="48.614161"/>
     <use style="fill:#40b5c4;stroke:#40b5c4;" x="264.075862" xlink:href="#m6fafeeb38a" y="46.719637"/>
     <use style="fill:#40b5c4;stroke:#40b5c4;" x="272.194932" xlink:href="#m6fafeeb38a" y="45.391219"/>
     <use style="fill:#40b5c4;stroke:#40b5c4;" x="280.314002" xlink:href="#m6fafeeb38a" y="44.59412"/>
     <use style="fill:#40b5c4;stroke:#40b5c4;" x="288.433072" xlink:href="#m6fafeeb38a" y="44.460935"/>
     <use style="fill:#40b5c4;stroke:#40b5c4;" x="296.552142" xlink:href="#m6fafeeb38a" y="44.81987"/>
     <use style="fill:#40b5c4;stroke:#40b5c4;" x="304.671212" xlink:href="#m6fafeeb38a" y="45.812568"/>
     <use style="fill:#40b5c4;stroke:#40b5c4;" x="312.790282" xlink:href="#m6fafeeb38a" y="47.097514"/>
     <use style="fill:#40b5c4;stroke:#40b5c4;" x="320.909352" xlink:href="#m6fafeeb38a" y="48.324197"/>
     <use style="fill:#40b5c4;stroke:#40b5c4;" x="329.028422" xlink:href="#m6fafeeb38a" y="49.603347"/>
     <use style="fill:#40b5c4;stroke:#40b5c4;" x="337.147492" xlink:href="#m6fafeeb38a" y="51.665862"/>
     <use style="fill:#40b5c4;stroke:#40b5c4;" x="345.266562" xlink:href="#m6fafeeb38a" y="54.587153"/>
     <use style="fill:#40b5c4;stroke:#40b5c4;" x="353.385632" xlink:href="#m6fafeeb38a" y="57.56297"/>
     <use style="fill:#40b5c4;stroke:#40b5c4;" x="361.504702" xlink:href="#m6fafeeb38a" y="59.570794"/>
     <use style="fill:#40b5c4;stroke:#40b5c4;" x="369.623772" xlink:href="#m6fafeeb38a" y="60.77505"/>
    </g>
   </g>
   <g id="line2d_16">
    <path clip-path="url(#p517b1e7f7f)" d="M 69.218182 65.684421 
L 69.31967 65.754453 
L 69.522647 65.73459 
L 69.624135 65.729079 
L 69.725624 65.575735 
L 70.030089 65.680049 
L 71.146461 65.407279 
L 71.247949 65.591936 
L 71.450926 65.420526 
L 71.552414 65.477756 
L 71.653903 65.316014 
L 71.755391 65.439845 
L 71.85688 65.327728 
L 71.958368 65.505555 
L 72.161345 65.271009 
L 72.262833 65.432734 
L 72.364321 65.256128 
L 72.567298 65.548234 
L 72.668787 65.355889 
L 72.770275 65.474143 
L 72.871763 65.32753 
L 73.07474 65.528057 
L 73.277717 65.383522 
L 73.68367 65.647483 
L 73.785159 65.678003 
L 73.886647 65.582565 
L 74.089624 65.690937 
L 74.292601 65.757571 
L 74.394089 65.866388 
L 74.495577 65.767519 
L 75.104508 66.262164 
L 75.307484 66.320829 
L 75.611949 66.746944 
L 75.713438 66.630438 
L 76.017903 66.967202 
L 76.119391 67.421758 
L 76.22088 67.209947 
L 76.525345 67.601895 
L 76.82981 68.170334 
L 76.931298 68.03451 
L 77.337252 69.37137 
L 77.43874 69.296455 
L 77.641717 69.676195 
L 77.844694 70.273339 
L 78.149159 71.007727 
L 78.250647 71.096186 
L 78.656601 72.434069 
L 78.859577 72.85832 
L 79.164043 73.98944 
L 79.367019 74.358258 
L 79.671484 75.796496 
L 79.772973 75.803904 
L 80.483391 78.190997 
L 80.686368 79.195795 
L 81.295298 81.379391 
L 81.599764 82.27877 
L 82.005717 84.298842 
L 82.107205 84.398883 
L 82.716136 87.004899 
L 82.817624 87.108239 
L 83.731019 91.266704 
L 93.473903 131.555459 
L 93.879857 132.650367 
L 94.082834 133.386206 
L 94.184322 133.636639 
L 94.488787 134.960614 
L 94.691764 135.394747 
L 95.097717 136.809311 
L 95.199206 136.849977 
L 95.605159 138.3254 
L 95.706648 138.51235 
L 95.808136 138.989541 
L 95.909624 138.917579 
L 96.21409 140.094677 
L 96.315578 140.25571 
L 96.620043 141.27011 
L 96.721531 141.40925 
L 96.924508 142.272565 
L 97.025997 142.117934 
L 97.330462 143.560263 
L 97.43195 143.510886 
L 99.157252 147.764723 
L 99.258741 147.482286 
L 99.563206 148.682431 
L 99.664694 148.572112 
L 100.070648 149.547297 
L 102.506369 154.197719 
L 102.607857 154.224263 
L 102.912322 155.093567 
L 103.216787 155.429012 
L 103.521253 156.069264 
L 103.622741 155.974502 
L 104.028694 156.994297 
L 104.231671 157.16338 
L 104.739113 157.713704 
L 105.043578 158.292784 
L 105.145067 158.213216 
L 105.55102 158.868317 
L 105.652508 158.822239 
L 105.956974 159.294233 
L 106.261439 159.575978 
L 106.565904 160.088243 
L 106.667392 160.005656 
L 106.870369 160.280719 
L 107.073346 160.490139 
L 107.479299 160.947252 
L 107.580788 160.977393 
L 107.783764 161.236157 
L 108.291206 161.882563 
L 108.392695 161.774257 
L 108.900136 162.396939 
L 109.204602 162.621141 
L 109.30609 162.84785 
L 109.407578 162.732714 
L 109.712043 163.197779 
L 110.016509 163.51336 
L 110.117997 163.444516 
L 110.422462 163.779003 
L 110.52395 163.6054 
L 110.929904 164.05758 
L 111.132881 164.083019 
L 111.234369 164.053555 
L 111.437346 164.250139 
L 111.843299 164.555839 
L 112.046276 164.711196 
L 112.350741 164.755607 
L 112.553718 164.993303 
L 112.655206 164.846574 
L 112.858183 165.093212 
L 112.959671 165.157536 
L 113.264137 164.821152 
L 113.974555 164.29752 
L 115.598369 163.049318 
L 115.699858 163.042323 
L 116.004323 162.710046 
L 116.410276 162.42713 
L 116.917718 162.060951 
L 117.526648 161.565316 
L 122.905532 157.542906 
L 123.007021 157.609622 
L 123.108509 157.367042 
L 123.209997 157.438427 
L 123.920416 157.003568 
L 124.021904 157.097027 
L 124.224881 156.890676 
L 124.833811 156.578658 
L 125.341253 156.344525 
L 125.54423 156.303281 
L 125.747207 156.166616 
L 126.457625 155.790208 
L 126.559114 155.816143 
L 126.76209 155.652619 
L 126.863579 155.637111 
L 127.168044 155.394482 
L 127.573997 155.322009 
L 127.776974 155.173085 
L 130.618649 154.023934 
L 131.126091 154.075984 
L 131.329067 154.031407 
L 131.735021 154.107015 
L 132.039486 154.12866 
L 132.140974 154.176107 
L 132.242463 154.050165 
L 132.546928 154.327241 
L 132.648416 154.16898 
L 132.749905 154.282368 
L 132.851393 154.144514 
L 133.155858 154.354627 
L 133.257346 154.162662 
L 133.460323 154.332916 
L 133.561812 154.451253 
L 133.6633 154.35334 
L 133.764788 154.48174 
L 133.967765 154.391532 
L 134.678184 154.615288 
L 135.084137 154.669433 
L 135.185626 154.896603 
L 135.287114 154.740438 
L 135.388602 154.900183 
L 135.490091 154.790788 
L 135.794556 154.982622 
L 135.896044 154.934894 
L 136.099021 155.113249 
L 137.925812 155.914781 
L 138.737719 156.504436 
L 138.839207 156.286124 
L 138.940695 156.505525 
L 139.042184 156.401095 
L 139.346649 156.544789 
L 139.448137 156.515126 
L 139.651114 156.717221 
L 139.752602 156.693497 
L 140.057068 157.02975 
L 141.680882 158.145643 
L 141.78237 158.003153 
L 142.188323 158.555771 
L 142.492789 158.976788 
L 143.00023 159.826114 
L 143.406184 160.347435 
L 144.522556 162.181564 
L 144.827021 162.683485 
L 145.029998 163.101169 
L 145.232975 163.079706 
L 145.53744 163.260758 
L 145.638928 163.181108 
L 145.943393 163.542734 
L 146.044882 163.416313 
L 146.14637 163.528859 
L 146.247858 163.448574 
L 146.450835 163.630303 
L 146.552324 163.581833 
L 146.7553 163.72108 
L 146.958277 163.899163 
L 147.161254 163.862761 
L 147.465719 164.064922 
L 147.567207 164.017054 
L 147.973161 164.261531 
L 148.379114 164.393717 
L 148.480603 164.382631 
L 148.683579 164.591275 
L 148.988044 164.646954 
L 149.191021 164.748092 
L 149.29251 164.61928 
L 150.916324 168.461133 
L 151.423765 169.906035 
L 151.728231 170.903468 
L 151.931207 171.403021 
L 152.641626 173.422763 
L 154.26544 177.729145 
L 154.569905 178.643975 
L 154.671393 178.854128 
L 155.280324 181.629961 
L 158.02051 191.463558 
L 158.223487 192.286908 
L 159.136882 195.850341 
L 159.339859 196.4899 
L 159.542835 197.254569 
L 159.948789 198.879237 
L 160.253254 199.835442 
L 160.963673 202.726963 
L 161.065161 202.743502 
L 161.369626 203.899541 
L 161.77558 205.349674 
L 161.978556 206.275564 
L 163.906836 213.707345 
L 165.429161 219.536712 
L 166.13958 222.832588 
L 166.241068 222.95655 
L 166.647022 224.819418 
L 166.74851 224.93952 
L 167.052975 226.38764 
L 167.154464 226.392209 
L 167.560417 227.874941 
L 167.864882 228.665271 
L 168.169347 229.510456 
L 168.270836 229.705457 
L 168.473812 230.195846 
L 168.981254 231.191521 
L 169.387208 232.188367 
L 169.590185 232.531648 
L 169.793161 233.087219 
L 170.199115 234.546507 
L 170.50358 234.935997 
L 170.808045 235.65298 
L 171.011022 236.158612 
L 171.11251 236.881979 
L 171.213999 236.807048 
L 171.416975 237.037485 
L 171.619952 237.583553 
L 171.72144 237.557124 
L 172.127394 238.659934 
L 172.228882 238.618426 
L 172.533347 239.190725 
L 172.837813 239.713681 
L 172.939301 240.164178 
L 173.040789 240.004235 
L 173.243766 240.398328 
L 173.446743 240.850888 
L 173.548231 240.621605 
L 173.852696 241.527781 
L 174.055673 241.658805 
L 174.25865 242.116364 
L 174.360138 242.095478 
L 175.577999 233.793115 
L 176.795859 224.489764 
L 178.115208 215.539857 
L 178.521162 212.781833 
L 179.84051 201.307623 
L 184.103022 168.584402 
L 185.523859 158.651267 
L 187.95958 142.673257 
L 188.365534 140.229198 
L 190.598278 127.47351 
L 191.308697 125.427272 
L 191.71465 124.116263 
L 192.628046 121.383201 
L 194.048883 117.172669 
L 194.454836 116.219162 
L 195.672697 112.603927 
L 195.977162 111.685114 
L 197.093534 108.209696 
L 197.397999 107.3006 
L 197.905441 105.801502 
L 198.61586 104.189744 
L 199.123302 103.32689 
L 200.239674 101.156377 
L 200.747116 100.313469 
L 203.994744 94.82979 
L 204.096232 94.847393 
L 204.400697 94.204089 
L 204.705162 93.79853 
L 205.212604 93.026809 
L 205.720046 92.317465 
L 206.024511 91.903014 
L 206.73493 90.890247 
L 206.937907 90.638429 
L 207.242372 90.197269 
L 208.967674 87.920247 
L 209.982558 87.370286 
L 210.084046 87.424794 
L 210.388511 87.186883 
L 214.955488 84.892077 
L 215.158465 84.773971 
L 216.680791 83.99966 
L 216.782279 84.033562 
L 217.086744 83.78148 
L 217.391209 83.691437 
L 217.594186 83.637011 
L 218.812046 83.075089 
L 219.116512 82.963813 
L 219.218 82.974124 
L 219.522465 82.748141 
L 221.349256 81.957349 
L 221.552233 81.861795 
L 222.059674 81.587012 
L 222.262651 81.559362 
L 222.567116 81.295534 
L 222.770093 81.303634 
L 222.97307 81.162201 
L 223.074558 81.159776 
L 223.379023 80.90771 
L 223.480512 81.002653 
L 223.784977 80.781207 
L 226.017721 79.668977 
L 226.525163 79.353264 
L 227.134093 79.029087 
L 227.641535 78.785732 
L 227.844512 78.755476 
L 228.047489 78.580239 
L 229.671303 77.675927 
L 229.975768 77.510507 
L 231.599582 76.584253 
L 231.904047 76.409841 
L 232.31 76.19214 
L 232.918931 75.844752 
L 233.121907 75.763716 
L 233.426372 75.584751 
L 233.730838 75.486244 
L 234.035303 75.253909 
L 234.644233 75.079266 
L 234.745721 75.143722 
L 235.050186 75.046172 
L 241.240977 74.706406 
L 241.545442 74.551428 
L 241.849908 74.454488 
L 243.473722 73.8356 
L 243.676698 73.794274 
L 243.981163 73.638224 
L 244.387117 73.503588 
L 245.402001 73.085441 
L 246.213908 72.773951 
L 246.518373 72.667047 
L 248.040698 72.009291 
L 248.954094 71.619669 
L 249.461536 71.382682 
L 249.563024 71.40728 
L 249.867489 71.261145 
L 250.273443 71.138733 
L 261.843117 67.471102 
L 262.046094 67.299396 
L 262.452048 67.230964 
L 262.95949 67.045235 
L 265.801164 66.10976 
L 266.207118 66.144074 
L 266.511583 66.063072 
L 266.917536 66.013777 
L 268.54135 65.855302 
L 268.642839 65.768096 
L 268.744327 65.880807 
L 269.048792 65.761596 
L 269.251769 65.80736 
L 269.454746 65.680461 
L 269.657722 65.746286 
L 270.368141 65.602065 
L 270.571118 65.613448 
L 270.977071 65.533171 
L 271.180048 65.560623 
L 271.281536 65.436199 
L 271.586001 65.535745 
L 271.890467 65.417293 
L 272.194932 65.390105 
L 272.29642 65.4686 
L 272.600885 65.288975 
L 272.803862 65.330912 
L 273.717257 65.206949 
L 273.818746 65.253307 
L 274.021722 65.167751 
L 274.529164 65.131193 
L 274.732141 65.100375 
L 275.138095 65.108525 
L 275.44256 65.029865 
L 277.066374 64.902537 
L 277.26935 64.793851 
L 277.573816 64.825626 
L 280.821444 64.479672 
L 280.922932 64.54916 
L 281.125909 64.421403 
L 281.328885 64.539459 
L 281.531862 64.465056 
L 282.546746 64.370822 
L 283.257165 64.423911 
L 283.460141 64.306646 
L 284.069072 64.218616 
L 284.272048 64.295725 
L 284.982467 64.200567 
L 285.185444 64.277215 
L 285.38842 64.167869 
L 285.794374 64.193275 
L 285.997351 64.131047 
L 286.200327 64.162755 
L 293.608979 63.94215 
L 293.710467 64.032161 
L 294.014932 63.940071 
L 294.217909 63.941457 
L 294.420886 63.931889 
L 294.928328 63.991808 
L 295.131304 63.995965 
L 295.537258 64.015399 
L 295.841723 63.983526 
L 296.0447 63.972308 
L 296.349165 64.005929 
L 298.175956 64.06829 
L 298.581909 64.086866 
L 298.784886 64.105871 
L 299.190839 64.178659 
L 299.292328 64.093663 
L 299.495304 64.203603 
L 300.002746 64.158928 
L 300.4087 64.247651 
L 300.611677 64.229075 
L 300.916142 64.308626 
L 301.119118 64.222641 
L 301.322095 64.336177 
L 301.829537 64.317667 
L 302.134002 64.440375 
L 302.641444 64.416487 
L 302.742932 64.486964 
L 302.945909 64.398076 
L 303.148886 64.501218 
L 303.453351 64.475218 
L 306.599491 64.779168 
L 306.802467 64.829486 
L 307.005444 64.838626 
L 307.208421 64.877395 
L 307.309909 64.959222 
L 307.512886 64.92692 
L 308.020328 64.943154 
L 308.223305 65.018251 
L 308.426281 64.990832 
L 308.730747 65.057251 
L 308.832235 64.962027 
L 309.1367 65.133766 
L 309.441165 65.056096 
L 309.644142 65.147228 
L 309.847119 65.175802 
L 310.354561 65.168477 
L 310.557537 65.219289 
L 310.659026 65.149208 
L 310.963491 65.283168 
L 311.166468 65.264757 
L 311.369444 65.28947 
L 313.297723 65.43026 
L 313.399212 65.51024 
L 313.5007 65.399178 
L 313.805165 65.512879 
L 314.211119 65.519643 
L 314.515584 65.535712 
L 314.921537 65.579001 
L 315.428979 65.605233 
L 315.733444 65.646113 
L 315.936421 65.649578 
L 316.342375 65.704977 
L 316.443863 65.628791 
L 316.64684 65.732132 
L 317.458747 65.853751 
L 317.560235 65.742756 
L 317.661724 65.828312 
L 317.8647 65.822274 
L 318.067677 65.823594 
L 318.270654 65.829005 
L 318.372142 65.950361 
L 318.473631 65.849099 
L 318.575119 65.939637 
L 318.778096 65.848043 
L 319.082561 65.9107 
L 319.488514 65.96765 
L 319.590003 65.923503 
L 319.792979 65.973952 
L 319.995956 65.946368 
L 320.300421 66.076699 
L 320.503398 66.002196 
L 320.909352 66.057561 
L 321.01084 66.011863 
L 321.213817 66.141666 
L 321.518282 66.122727 
L 321.822747 66.152719 
L 322.127212 66.134077 
L 322.431677 66.247349 
L 322.533166 66.128732 
L 322.736142 66.228179 
L 323.142096 66.229961 
L 323.649538 66.274801 
L 326.186747 66.487553 
L 326.288235 66.548726 
L 326.389724 66.44103 
L 326.592701 66.620523 
L 326.795677 66.518502 
L 326.998654 66.552619 
L 327.607584 66.704165 
L 327.810561 66.603729 
L 327.912049 66.773422 
L 328.013538 66.620622 
L 328.216515 66.707333 
L 328.52098 66.688559 
L 328.723956 66.746069 
L 328.825445 66.86528 
L 329.028422 66.759663 
L 329.535863 66.837597 
L 329.637352 66.776623 
L 329.73884 66.940377 
L 329.941817 66.784904 
L 330.144794 66.881085 
L 330.34777 66.872044 
L 330.449259 66.982017 
L 330.550747 66.866897 
L 330.753724 66.958359 
L 331.362654 67.025669 
L 331.768608 67.092781 
L 331.870096 66.994192 
L 332.073073 67.156231 
L 332.174561 67.014121 
L 332.479026 67.140261 
L 332.783491 67.151842 
L 332.88498 67.117626 
L 332.986468 67.246472 
L 333.189445 67.129637 
L 333.392422 67.335229 
L 333.49391 67.190611 
L 333.696887 67.301277 
L 333.899864 67.268282 
L 334.204329 67.33579 
L 334.305817 67.435897 
L 334.508794 67.272934 
L 334.711771 67.393498 
L 334.914747 67.383534 
L 335.016236 67.449359 
L 335.117724 67.382115 
L 335.320701 67.515745 
L 335.422189 67.401912 
L 335.625166 67.521981 
L 335.828143 67.474072 
L 336.031119 67.53277 
L 338.162375 67.819365 
L 338.365352 67.858068 
L 339.075771 67.936597 
L 339.177259 68.025518 
L 339.380236 68.023869 
L 339.583213 68.00394 
L 339.989166 68.062968 
L 340.192143 68.177197 
L 340.39512 68.160336 
L 340.496608 68.243451 
L 340.699585 68.153869 
L 340.902561 68.236258 
L 341.105538 68.351377 
L 341.410003 68.370812 
L 342.729352 68.598246 
L 342.830841 68.711255 
L 342.932329 68.579274 
L 343.135306 68.704095 
L 343.338282 68.671825 
L 343.744236 68.867915 
L 343.947213 68.783844 
L 344.150189 68.859633 
L 344.353166 68.863428 
L 344.454655 68.948621 
L 344.556143 68.887613 
L 344.75912 69.0319 
L 344.962096 68.949116 
L 345.165073 69.067964 
L 345.266562 68.974555 
L 345.469538 69.144216 
L 345.672515 69.159096 
L 345.774003 69.235612 
L 345.97698 69.148307 
L 346.078469 69.278703 
L 346.281445 69.236404 
L 346.484422 69.377458 
L 346.58591 69.25917 
L 346.788887 69.385244 
L 347.194841 69.38597 
L 347.397817 69.570347 
L 347.600794 69.451268 
L 347.803771 69.551671 
L 347.905259 69.497461 
L 348.108236 69.657289 
L 348.209724 69.600768 
L 348.412701 69.76703 
L 348.615678 69.658014 
L 348.818655 69.758451 
L 348.920143 69.704142 
L 349.12312 69.87598 
L 349.224608 69.787355 
L 349.427585 69.920655 
L 349.630562 69.82652 
L 349.73205 69.967376 
L 349.935027 69.908843 
L 350.036515 70.060686 
L 350.34098 70.018551 
L 350.442469 70.094902 
L 350.645445 70.021356 
L 350.949911 70.16274 
L 351.152887 70.190951 
L 351.254376 70.076623 
L 351.457352 70.254598 
L 351.558841 70.123047 
L 351.863306 70.294588 
L 352.269259 70.276771 
L 352.472236 70.381992 
L 352.675213 70.376482 
L 352.776701 70.47352 
L 352.979678 70.428152 
L 353.081166 70.520736 
L 353.284143 70.469429 
L 353.48712 70.538553 
L 353.588608 70.47121 
L 353.791585 70.588244 
L 353.994562 70.574782 
L 354.09605 70.67347 
L 354.299027 70.585571 
L 354.502004 70.713493 
L 354.603492 70.638099 
L 354.806469 70.712041 
L 355.009446 70.742298 
L 355.212422 70.760577 
L 355.313911 70.69396 
L 355.415399 70.893019 
L 355.719864 70.820034 
L 356.328794 71.005433 
L 356.531771 70.906217 
L 356.734748 70.960791 
L 356.937725 70.962474 
L 357.343678 71.103858 
L 357.546655 71.014045 
L 357.749632 71.122929 
L 357.85112 71.01101 
L 358.054097 71.147873 
L 358.257074 71.158893 
L 358.358562 71.225774 
L 358.561539 71.111677 
L 358.663027 71.253523 
L 358.866004 71.140911 
L 359.068981 71.20964 
L 359.271957 71.256856 
L 359.373446 71.383557 
L 359.576422 71.214523 
L 359.677911 71.348351 
L 359.982376 71.288003 
L 360.489818 71.366498 
L 360.692795 71.371876 
L 360.99726 71.436976 
L 361.707678 71.427605 
L 362.012143 71.530748 
L 362.21512 71.508971 
L 362.621074 71.454298 
L 362.925539 71.602248 
L 363.331492 71.537611 
L 363.432981 71.612047 
L 363.635957 71.555197 
L 364.447864 71.64491 
L 364.650841 71.563842 
L 364.853818 71.582682 
L 365.97019 71.672395 
L 366.071678 71.524907 
L 366.274655 71.563842 
L 366.57912 71.624553 
L 368.202934 71.577073 
L 368.507399 71.534773 
L 368.913353 71.547212 
L 369.014841 71.413714 
L 369.11633 71.616106 
L 369.319306 71.527514 
L 369.420795 71.558628 
L 369.522283 71.469047 
L 369.623772 71.567966 
L 369.826748 71.51811 
L 369.928237 71.533816 
L 370.029725 71.431597 
L 370.232702 71.541933 
L 370.33419 71.443575 
L 370.435679 71.527679 
L 370.638655 71.500557 
L 370.740144 71.516362 
L 370.841632 71.402859 
L 370.94312 71.508278 
L 371.146097 71.427407 
L 371.247586 71.543649 
L 371.349074 71.383854 
L 371.552051 71.443641 
L 371.653539 71.380422 
L 371.755027 71.540976 
L 371.958004 71.420709 
L 372.160981 71.483103 
L 372.262469 71.533288 
L 372.363958 71.407676 
L 372.566934 71.560608 
L 372.668423 71.464428 
L 372.769911 71.553514 
L 372.972888 71.507387 
L 373.175865 71.53827 
L 373.581818 71.613466 
L 373.581818 71.613466 
" style="fill:none;stroke:#081d58;stroke-dasharray:5.55,2.4;stroke-dashoffset:0;stroke-width:1.5;"/>
    <defs>
     <path d="M -0 4.242641 
L 4.242641 0 
L 0 -4.242641 
L -4.242641 -0 
z
" id="md054817919" style="stroke:#081d58;stroke-linejoin:miter;"/>
    </defs>
    <g clip-path="url(#p517b1e7f7f)">
     <use style="fill:#081d58;stroke:#081d58;stroke-linejoin:miter;" x="69.218182" xlink:href="#md054817919" y="65.684421"/>
     <use style="fill:#081d58;stroke:#081d58;stroke-linejoin:miter;" x="77.337252" xlink:href="#md054817919" y="69.37137"/>
     <use style="fill:#081d58;stroke:#081d58;stroke-linejoin:miter;" x="85.456322" xlink:href="#md054817919" y="98.544324"/>
     <use style="fill:#081d58;stroke:#081d58;stroke-linejoin:miter;" x="93.575392" xlink:href="#md054817919" y="131.814602"/>
     <use style="fill:#081d58;stroke:#081d58;stroke-linejoin:miter;" x="101.694462" xlink:href="#md054817919" y="152.655052"/>
     <use style="fill:#081d58;stroke:#081d58;stroke-linejoin:miter;" x="109.813532" xlink:href="#md054817919" y="163.357722"/>
     <use style="fill:#081d58;stroke:#081d58;stroke-linejoin:miter;" x="117.932602" xlink:href="#md054817919" y="161.253974"/>
     <use style="fill:#081d58;stroke:#081d58;stroke-linejoin:miter;" x="126.051672" xlink:href="#md054817919" y="156.048527"/>
     <use style="fill:#081d58;stroke:#081d58;stroke-linejoin:miter;" x="134.170742" xlink:href="#md054817919" y="154.477335"/>
     <use style="fill:#081d58;stroke:#081d58;stroke-linejoin:miter;" x="142.289812" xlink:href="#md054817919" y="158.649774"/>
     <use style="fill:#081d58;stroke:#081d58;stroke-linejoin:miter;" x="150.408882" xlink:href="#md054817919" y="167.269805"/>
     <use style="fill:#081d58;stroke:#081d58;stroke-linejoin:miter;" x="158.527952" xlink:href="#md054817919" y="193.359049"/>
     <use style="fill:#081d58;stroke:#081d58;stroke-linejoin:miter;" x="166.647022" xlink:href="#md054817919" y="224.819418"/>
     <use style="fill:#081d58;stroke:#081d58;stroke-linejoin:miter;" x="174.766092" xlink:href="#md054817919" y="239.783168"/>
     <use style="fill:#081d58;stroke:#081d58;stroke-linejoin:miter;" x="182.885162" xlink:href="#md054817919" y="177.532297"/>
     <use style="fill:#081d58;stroke:#081d58;stroke-linejoin:miter;" x="191.004232" xlink:href="#md054817919" y="126.304693"/>
     <use style="fill:#081d58;stroke:#081d58;stroke-linejoin:miter;" x="199.123302" xlink:href="#md054817919" y="103.32689"/>
     <use style="fill:#081d58;stroke:#081d58;stroke-linejoin:miter;" x="207.242372" xlink:href="#md054817919" y="90.197269"/>
     <use style="fill:#081d58;stroke:#081d58;stroke-linejoin:miter;" x="215.361442" xlink:href="#md054817919" y="84.652599"/>
     <use style="fill:#081d58;stroke:#081d58;stroke-linejoin:miter;" x="223.480512" xlink:href="#md054817919" y="81.002653"/>
     <use style="fill:#081d58;stroke:#081d58;stroke-linejoin:miter;" x="231.599582" xlink:href="#md054817919" y="76.584253"/>
     <use style="fill:#081d58;stroke:#081d58;stroke-linejoin:miter;" x="239.718652" xlink:href="#md054817919" y="74.892399"/>
     <use style="fill:#081d58;stroke:#081d58;stroke-linejoin:miter;" x="247.837722" xlink:href="#md054817919" y="72.107303"/>
     <use style="fill:#081d58;stroke:#081d58;stroke-linejoin:miter;" x="255.956792" xlink:href="#md054817919" y="69.394615"/>
     <use style="fill:#081d58;stroke:#081d58;stroke-linejoin:miter;" x="264.075862" xlink:href="#md054817919" y="66.611482"/>
     <use style="fill:#081d58;stroke:#081d58;stroke-linejoin:miter;" x="272.194932" xlink:href="#md054817919" y="65.390105"/>
     <use style="fill:#081d58;stroke:#081d58;stroke-linejoin:miter;" x="280.314002" xlink:href="#md054817919" y="64.60766"/>
     <use style="fill:#081d58;stroke:#081d58;stroke-linejoin:miter;" x="288.433072" xlink:href="#md054817919" y="64.009031"/>
     <use style="fill:#081d58;stroke:#081d58;stroke-linejoin:miter;" x="296.552142" xlink:href="#md054817919" y="64.030214"/>
     <use style="fill:#081d58;stroke:#081d58;stroke-linejoin:miter;" x="304.671212" xlink:href="#md054817919" y="64.552591"/>
     <use style="fill:#081d58;stroke:#081d58;stroke-linejoin:miter;" x="312.790282" xlink:href="#md054817919" y="65.44943"/>
     <use style="fill:#081d58;stroke:#081d58;stroke-linejoin:miter;" x="320.909352" xlink:href="#md054817919" y="66.057561"/>
     <use style="fill:#081d58;stroke:#081d58;stroke-linejoin:miter;" x="329.028422" xlink:href="#md054817919" y="66.759663"/>
     <use style="fill:#081d58;stroke:#081d58;stroke-linejoin:miter;" x="337.147492" xlink:href="#md054817919" y="67.616512"/>
     <use style="fill:#081d58;stroke:#081d58;stroke-linejoin:miter;" x="345.266562" xlink:href="#md054817919" y="68.974555"/>
     <use style="fill:#081d58;stroke:#081d58;stroke-linejoin:miter;" x="353.385632" xlink:href="#md054817919" y="70.513675"/>
     <use style="fill:#081d58;stroke:#081d58;stroke-linejoin:miter;" x="361.504702" xlink:href="#md054817919" y="71.431366"/>
     <use style="fill:#081d58;stroke:#081d58;stroke-linejoin:miter;" x="369.623772" xlink:href="#md054817919" y="71.567966"/>
    </g>
   </g>
   <g id="patch_3">
    <path d="M 54 252 
L 54 34.56 
" style="fill:none;stroke:#000000;stroke-linecap:square;stroke-linejoin:miter;stroke-width:0.8;"/>
   </g>
   <g id="patch_4">
    <path d="M 388.8 252 
L 388.8 34.56 
" style="fill:none;stroke:#000000;stroke-linecap:square;stroke-linejoin:miter;stroke-width:0.8;"/>
   </g>
   <g id="patch_5">
    <path d="M 54 252 
L 388.8 252 
" style="fill:none;stroke:#000000;stroke-linecap:square;stroke-linejoin:miter;stroke-width:0.8;"/>
   </g>
   <g id="patch_6">
    <path d="M 54 34.56 
L 388.8 34.56 
" style="fill:none;stroke:#000000;stroke-linecap:square;stroke-linejoin:miter;stroke-width:0.8;"/>
   </g>
   <g id="legend_1">
    <g id="patch_7">
     <path d="M 280.085938 247 
L 381.8 247 
Q 383.8 247 383.8 245 
L 383.8 216.64375 
Q 383.8 214.64375 381.8 214.64375 
L 280.085938 214.64375 
Q 278.085938 214.64375 278.085938 216.64375 
L 278.085938 245 
Q 278.085938 247 280.085938 247 
z
" style="fill:#ffffff;opacity:0.8;stroke:#cccccc;stroke-linejoin:miter;"/>
    </g>
    <g id="line2d_17">
     <path d="M 282.085938 222.742188 
L 302.085938 222.742188 
" style="fill:none;stroke:#40b5c4;stroke-dasharray:5.55,2.4;stroke-dashoffset:0;stroke-width:1.5;"/>
    </g>
    <g id="line2d_18">
     <g>
      <use style="fill:#40b5c4;stroke:#40b5c4;" x="292.085938" xlink:href="#m6fafeeb38a" y="222.742188"/>
     </g>
    </g>
    <g id="text_17">
     <text style="font-family:DejaVu Sans;font-size:10px;font-style:normal;font-weight:normal;text-anchor:start;" transform="rotate(-0, 310.085938, 226.242188)" x="310.085938" y="226.242188">original</text>
    </g>
    <g id="line2d_19">
     <path d="M 282.085938 237.420312 
L 302.085938 237.420312 
" style="fill:none;stroke:#081d58;stroke-dasharray:5.55,2.4;stroke-dashoffset:0;stroke-width:1.5;"/>
    </g>
    <g id="line2d_20">
     <g>
      <use style="fill:#081d58;stroke:#081d58;stroke-linejoin:miter;" x="292.085938" xlink:href="#md054817919" y="237.420312"/>
     </g>
    </g>
    <g id="text_18">
     <text style="font-family:DejaVu Sans;font-size:10px;font-style:normal;font-weight:normal;text-anchor:start;" transform="rotate(-0, 310.085938, 240.920312)" x="310.085938" y="240.920312">reconstructed</text>
    </g>
   </g>
  </g>
  <g id="text_19">
   <text style="font-family:DejaVu Sans;font-size:12px;font-style:normal;font-weight:normal;text-anchor:middle;" transform="rotate(-0, 216, 14.878125)" x="216" y="14.878125">Reconstruction of the temperature curve</text>
  </g>
 </g>
 <defs>
  <clipPath id="p517b1e7f7f">
   <rect height="217.44" width="334.8" x="54" y="34.56"/>
  </clipPath>
 </defs>
</svg>
