<?xml version="1.0" encoding="utf-8" standalone="no"?>
<!DOCTYPE svg PUBLIC "-//W3C//DTD SVG 1.1//EN"
  "http://www.w3.org/Graphics/SVG/1.1/DTD/svg11.dtd">
<!-- Created with matplotlib (https://matplotlib.org/) -->
<svg height="288pt" version="1.1" viewBox="0 0 432 288" width="432pt" xmlns="http://www.w3.org/2000/svg" xmlns:xlink="http://www.w3.org/1999/xlink">
 <defs>
  <style type="text/css">
*{stroke-linecap:butt;stroke-linejoin:round;}
  </style>
 </defs>
 <g id="figure_1">
  <g id="patch_1">
   <path d="M 0 288 
L 432 288 
L 432 0 
L 0 0 
z
" style="fill:#ffffff;"/>
  </g>
  <g id="axes_1">
   <g id="patch_2">
    <path d="M 54 252 
L 388.8 252 
L 388.8 34.56 
L 54 34.56 
z
" style="fill:#ffffff;"/>
   </g>
   <g id="matplotlib.axis_1">
    <g id="xtick_1">
     <g id="line2d_1">
      <defs>
       <path d="M 0 0 
L 0 3.5 
" id="m785e5d949b" style="stroke:#000000;stroke-width:0.8;"/>
      </defs>
      <g>
       <use style="stroke:#000000;stroke-width:0.8;" x="69.218182" xlink:href="#m785e5d949b" y="252"/>
      </g>
     </g>
     <g id="text_1">
      <text style="font-family:DejaVu Sans;font-size:10px;font-style:normal;font-weight:normal;text-anchor:middle;" transform="rotate(-0, 69.218182, 266.598437)" x="69.218182" y="266.598437">0</text>
     </g>
    </g>
    <g id="xtick_2">
     <g id="line2d_2">
      <g>
       <use style="stroke:#000000;stroke-width:0.8;" x="119.962369" xlink:href="#m785e5d949b" y="252"/>
      </g>
     </g>
     <g id="text_2">
      <text style="font-family:DejaVu Sans;font-size:10px;font-style:normal;font-weight:normal;text-anchor:middle;" transform="rotate(-0, 119.962369, 266.598437)" x="119.962369" y="266.598437">500</text>
     </g>
    </g>
    <g id="xtick_3">
     <g id="line2d_3">
      <g>
       <use style="stroke:#000000;stroke-width:0.8;" x="170.706557" xlink:href="#m785e5d949b" y="252"/>
      </g>
     </g>
     <g id="text_3">
      <text style="font-family:DejaVu Sans;font-size:10px;font-style:normal;font-weight:normal;text-anchor:middle;" transform="rotate(-0, 170.706557, 266.598437)" x="170.706557" y="266.598437">1000</text>
     </g>
    </g>
    <g id="xtick_4">
     <g id="line2d_4">
      <g>
       <use style="stroke:#000000;stroke-width:0.8;" x="221.450744" xlink:href="#m785e5d949b" y="252"/>
      </g>
     </g>
     <g id="text_4">
      <text style="font-family:DejaVu Sans;font-size:10px;font-style:normal;font-weight:normal;text-anchor:middle;" transform="rotate(-0, 221.450744, 266.598437)" x="221.450744" y="266.598437">1500</text>
     </g>
    </g>
    <g id="xtick_5">
     <g id="line2d_5">
      <g>
       <use style="stroke:#000000;stroke-width:0.8;" x="272.194932" xlink:href="#m785e5d949b" y="252"/>
      </g>
     </g>
     <g id="text_5">
      <text style="font-family:DejaVu Sans;font-size:10px;font-style:normal;font-weight:normal;text-anchor:middle;" transform="rotate(-0, 272.194932, 266.598437)" x="272.194932" y="266.598437">2000</text>
     </g>
    </g>
    <g id="xtick_6">
     <g id="line2d_6">
      <g>
       <use style="stroke:#000000;stroke-width:0.8;" x="322.939119" xlink:href="#m785e5d949b" y="252"/>
      </g>
     </g>
     <g id="text_6">
      <text style="font-family:DejaVu Sans;font-size:10px;font-style:normal;font-weight:normal;text-anchor:middle;" transform="rotate(-0, 322.939119, 266.598437)" x="322.939119" y="266.598437">2500</text>
     </g>
    </g>
    <g id="xtick_7">
     <g id="line2d_7">
      <g>
       <use style="stroke:#000000;stroke-width:0.8;" x="373.683307" xlink:href="#m785e5d949b" y="252"/>
      </g>
     </g>
     <g id="text_7">
      <text style="font-family:DejaVu Sans;font-size:10px;font-style:normal;font-weight:normal;text-anchor:middle;" transform="rotate(-0, 373.683307, 266.598437)" x="373.683307" y="266.598437">3000</text>
     </g>
    </g>
    <g id="text_8">
     <text style="font-family:DejaVu Sans;font-size:10px;font-style:normal;font-weight:normal;text-anchor:middle;" transform="rotate(-0, 221.4, 280.276563)" x="221.4" y="280.276563">Time</text>
    </g>
   </g>
   <g id="matplotlib.axis_2">
    <g id="ytick_1">
     <g id="line2d_8">
      <defs>
       <path d="M 0 0 
L -3.5 0 
" id="mcfcd40d311" style="stroke:#000000;stroke-width:0.8;"/>
      </defs>
      <g>
       <use style="stroke:#000000;stroke-width:0.8;" x="54" xlink:href="#mcfcd40d311" y="214.084592"/>
      </g>
     </g>
     <g id="text_9">
      <text style="font-family:DejaVu Sans;font-size:10px;font-style:normal;font-weight:normal;text-anchor:end;" transform="rotate(-0, 47, 217.883811)" x="47" y="217.883811">−8</text>
     </g>
    </g>
    <g id="ytick_2">
     <g id="line2d_9">
      <g>
       <use style="stroke:#000000;stroke-width:0.8;" x="54" xlink:href="#mcfcd40d311" y="172.114914"/>
      </g>
     </g>
     <g id="text_10">
      <text style="font-family:DejaVu Sans;font-size:10px;font-style:normal;font-weight:normal;text-anchor:end;" transform="rotate(-0, 47, 175.914133)" x="47" y="175.914133">−6</text>
     </g>
    </g>
    <g id="ytick_3">
     <g id="line2d_10">
      <g>
       <use style="stroke:#000000;stroke-width:0.8;" x="54" xlink:href="#mcfcd40d311" y="130.145236"/>
      </g>
     </g>
     <g id="text_11">
      <text style="font-family:DejaVu Sans;font-size:10px;font-style:normal;font-weight:normal;text-anchor:end;" transform="rotate(-0, 47, 133.944455)" x="47" y="133.944455">−4</text>
     </g>
    </g>
    <g id="ytick_4">
     <g id="line2d_11">
      <g>
       <use style="stroke:#000000;stroke-width:0.8;" x="54" xlink:href="#mcfcd40d311" y="88.175558"/>
      </g>
     </g>
     <g id="text_12">
      <text style="font-family:DejaVu Sans;font-size:10px;font-style:normal;font-weight:normal;text-anchor:end;" transform="rotate(-0, 47, 91.974777)" x="47" y="91.974777">−2</text>
     </g>
    </g>
    <g id="ytick_5">
     <g id="line2d_12">
      <g>
       <use style="stroke:#000000;stroke-width:0.8;" x="54" xlink:href="#mcfcd40d311" y="46.20588"/>
      </g>
     </g>
     <g id="text_13">
      <text style="font-family:DejaVu Sans;font-size:10px;font-style:normal;font-weight:normal;text-anchor:end;" transform="rotate(-0, 47, 50.005099)" x="47" y="50.005099">0</text>
     </g>
    </g>
    <g id="text_14">
     <text style="font-family:DejaVu Sans;font-size:10px;font-style:normal;font-weight:normal;text-anchor:middle;" transform="rotate(-90, 26.178125, 143.28)" x="26.178125" y="143.28">temperature (°C)</text>
    </g>
   </g>
   <g id="line2d_13">
    <path clip-path="url(#pa7b3f756e3)" d="M 69.218182 47.860329 
L 71.552414 46.429313 
L 72.567298 46.03832 
L 73.379205 45.959486 
L 74.089624 46.128396 
L 74.698554 46.491834 
L 75.408973 47.202363 
L 76.119391 48.249286 
L 76.931298 49.879186 
L 77.844694 52.282683 
L 78.859577 55.64727 
L 79.97595 60.142013 
L 81.295298 66.422693 
L 82.919112 75.349751 
L 85.050368 88.418374 
L 92.154555 133.006057 
L 94.28581 144.316403 
L 95.909624 151.823498 
L 97.43195 157.831898 
L 98.852787 162.531516 
L 100.070648 165.867308 
L 101.18702 168.319554 
L 102.201904 170.055483 
L 103.216787 171.343616 
L 104.130183 172.151701 
L 105.043578 172.683477 
L 105.956974 172.937814 
L 106.870369 172.927384 
L 107.783764 172.681966 
L 108.798648 172.172811 
L 110.016509 171.283663 
L 111.843299 169.596859 
L 113.771578 167.468703 
L 121.281718 158.838856 
L 123.412974 156.865462 
L 125.442742 155.342488 
L 127.269532 154.22983 
L 129.096323 153.369514 
L 130.720137 152.868627 
L 132.343951 152.593999 
L 133.866277 152.558219 
L 135.287114 152.74339 
L 136.80944 153.198782 
L 138.433254 153.935706 
L 139.955579 154.872218 
L 141.376416 156.000111 
L 142.797254 157.450457 
L 144.522556 159.602284 
L 145.841905 161.336513 
L 147.567207 162.453914 
L 148.785068 163.812116 
L 149.596975 165.099179 
L 150.814835 167.481084 
L 151.728231 169.609954 
L 152.844603 172.89683 
L 156.498184 184.965778 
L 160.253254 198.876229 
L 163.196417 209.77418 
L 165.226184 218.26601 
L 168.473812 232.007554 
L 169.590185 235.662421 
L 170.402092 237.634513 
L 171.011022 238.652131 
L 171.518464 239.157781 
L 172.025906 239.344567 
L 172.736324 239.435998 
L 173.243766 240.549685 
L 173.64972 241.418226 
L 174.969068 241.938629 
L 175.375022 241.492848 
L 175.882464 240.703839 
L 176.288417 239.761914 
L 176.694371 238.192793 
L 177.303301 234.789074 
L 178.01372 229.458673 
L 178.927115 220.853504 
L 180.246464 206.100448 
L 183.494092 169.026366 
L 185.117906 153.414233 
L 186.640232 140.962039 
L 188.061069 131.097906 
L 189.481906 122.74573 
L 190.902743 115.702211 
L 192.323581 109.777687 
L 193.744418 104.793914 
L 195.165255 100.596443 
L 196.687581 96.798376 
L 198.209906 93.607694 
L 199.935209 90.511213 
L 201.660511 87.890206 
L 203.58879 85.366612 
L 205.618558 83.054985 
L 207.95279 80.733075 
L 210.591488 78.420756 
L 213.737628 75.996105 
L 217.188232 73.645362 
L 221.044791 71.292878 
L 226.220698 68.421459 
L 241.849908 60.146033 
L 246.518373 57.908892 
L 251.288326 55.810507 
L 257.479117 53.313926 
L 263.669908 51.028509 
L 271.07856 48.460731 
L 275.138095 47.230043 
L 278.791676 46.331913 
L 281.836327 45.776435 
L 286.301816 45.193276 
L 292.594095 44.625759 
L 297.87149 44.446361 
L 302.336979 44.534026 
L 307.005444 44.896629 
L 316.139398 45.779231 
L 320.503398 45.764682 
L 333.189445 45.696112 
L 336.132608 46.032007 
L 339.684701 46.677803 
L 342.729352 47.462916 
L 345.469538 48.402575 
L 348.615678 49.731262 
L 355.821353 52.923274 
L 358.866004 53.987334 
L 361.707678 54.766568 
L 364.955306 55.395288 
L 368.608888 55.891397 
L 373.581818 56.312557 
L 373.581818 56.312557 
" style="fill:none;stroke:#40b5c4;stroke-dasharray:5.55,2.4;stroke-dashoffset:0;stroke-width:1.5;"/>
    <defs>
     <path d="M 0 3 
C 0.795609 3 1.55874 2.683901 2.12132 2.12132 
C 2.683901 1.55874 3 0.795609 3 0 
C 3 -0.795609 2.683901 -1.55874 2.12132 -2.12132 
C 1.55874 -2.683901 0.795609 -3 0 -3 
C -0.795609 -3 -1.55874 -2.683901 -2.12132 -2.12132 
C -2.683901 -1.55874 -3 -0.795609 -3 0 
C -3 0.795609 -2.683901 1.55874 -2.12132 2.12132 
C -1.55874 2.683901 -0.795609 3 0 3 
z
" id="mc95a324295" style="stroke:#40b5c4;"/>
    </defs>
    <g clip-path="url(#pa7b3f756e3)">
     <use style="fill:#40b5c4;stroke:#40b5c4;" x="69.218182" xlink:href="#mc95a324295" y="47.860329"/>
     <use style="fill:#40b5c4;stroke:#40b5c4;" x="77.337252" xlink:href="#mc95a324295" y="50.873551"/>
     <use style="fill:#40b5c4;stroke:#40b5c4;" x="85.456322" xlink:href="#mc95a324295" y="91.013548"/>
     <use style="fill:#40b5c4;stroke:#40b5c4;" x="93.575392" xlink:href="#mc95a324295" y="140.702289"/>
     <use style="fill:#40b5c4;stroke:#40b5c4;" x="101.694462" xlink:href="#mc95a324295" y="169.244608"/>
     <use style="fill:#40b5c4;stroke:#40b5c4;" x="109.813532" xlink:href="#mc95a324295" y="171.450723"/>
     <use style="fill:#40b5c4;stroke:#40b5c4;" x="117.932602" xlink:href="#mc95a324295" y="162.478235"/>
     <use style="fill:#40b5c4;stroke:#40b5c4;" x="126.051672" xlink:href="#mc95a324295" y="154.944028"/>
     <use style="fill:#40b5c4;stroke:#40b5c4;" x="134.170742" xlink:href="#mc95a324295" y="152.578764"/>
     <use style="fill:#40b5c4;stroke:#40b5c4;" x="142.289812" xlink:href="#mc95a324295" y="156.895597"/>
     <use style="fill:#40b5c4;stroke:#40b5c4;" x="150.408882" xlink:href="#mc95a324295" y="166.65894"/>
     <use style="fill:#40b5c4;stroke:#40b5c4;" x="158.527952" xlink:href="#mc95a324295" y="192.662219"/>
     <use style="fill:#40b5c4;stroke:#40b5c4;" x="166.647022" xlink:href="#mc95a324295" y="224.516051"/>
     <use style="fill:#40b5c4;stroke:#40b5c4;" x="174.766092" xlink:href="#mc95a324295" y="241.941966"/>
     <use style="fill:#40b5c4;stroke:#40b5c4;" x="182.885162" xlink:href="#mc95a324295" y="175.499727"/>
     <use style="fill:#40b5c4;stroke:#40b5c4;" x="191.004232" xlink:href="#mc95a324295" y="115.244322"/>
     <use style="fill:#40b5c4;stroke:#40b5c4;" x="199.123302" xlink:href="#mc95a324295" y="91.908216"/>
     <use style="fill:#40b5c4;stroke:#40b5c4;" x="207.242372" xlink:href="#mc95a324295" y="81.408116"/>
     <use style="fill:#40b5c4;stroke:#40b5c4;" x="215.361442" xlink:href="#mc95a324295" y="74.855348"/>
     <use style="fill:#40b5c4;stroke:#40b5c4;" x="223.480512" xlink:href="#mc95a324295" y="69.916146"/>
     <use style="fill:#40b5c4;stroke:#40b5c4;" x="231.599582" xlink:href="#mc95a324295" y="65.55157"/>
     <use style="fill:#40b5c4;stroke:#40b5c4;" x="239.718652" xlink:href="#mc95a324295" y="61.237839"/>
     <use style="fill:#40b5c4;stroke:#40b5c4;" x="247.837722" xlink:href="#mc95a324295" y="57.309286"/>
     <use style="fill:#40b5c4;stroke:#40b5c4;" x="255.956792" xlink:href="#mc95a324295" y="53.904725"/>
     <use style="fill:#40b5c4;stroke:#40b5c4;" x="264.075862" xlink:href="#mc95a324295" y="50.882669"/>
     <use style="fill:#40b5c4;stroke:#40b5c4;" x="272.194932" xlink:href="#mc95a324295" y="48.103581"/>
     <use style="fill:#40b5c4;stroke:#40b5c4;" x="280.314002" xlink:href="#mc95a324295" y="46.029298"/>
     <use style="fill:#40b5c4;stroke:#40b5c4;" x="288.433072" xlink:href="#mc95a324295" y="44.977826"/>
     <use style="fill:#40b5c4;stroke:#40b5c4;" x="296.552142" xlink:href="#mc95a324295" y="44.467414"/>
     <use style="fill:#40b5c4;stroke:#40b5c4;" x="304.671212" xlink:href="#mc95a324295" y="44.677948"/>
     <use style="fill:#40b5c4;stroke:#40b5c4;" x="312.790282" xlink:href="#mc95a324295" y="45.577715"/>
     <use style="fill:#40b5c4;stroke:#40b5c4;" x="320.909352" xlink:href="#mc95a324295" y="45.756684"/>
     <use style="fill:#40b5c4;stroke:#40b5c4;" x="329.028422" xlink:href="#mc95a324295" y="45.559979"/>
     <use style="fill:#40b5c4;stroke:#40b5c4;" x="337.147492" xlink:href="#mc95a324295" y="46.19115"/>
     <use style="fill:#40b5c4;stroke:#40b5c4;" x="345.266562" xlink:href="#mc95a324295" y="48.325303"/>
     <use style="fill:#40b5c4;stroke:#40b5c4;" x="353.385632" xlink:href="#mc95a324295" y="51.911343"/>
     <use style="fill:#40b5c4;stroke:#40b5c4;" x="361.504702" xlink:href="#mc95a324295" y="54.719132"/>
     <use style="fill:#40b5c4;stroke:#40b5c4;" x="369.623772" xlink:href="#mc95a324295" y="55.97912"/>
    </g>
   </g>
   <g id="line2d_14">
    <path clip-path="url(#pa7b3f756e3)" d="M 69.218182 70.265411 
L 69.31967 70.355668 
L 69.421159 70.178796 
L 69.624135 70.302114 
L 70.131577 70.253443 
L 70.233066 70.407641 
L 70.334554 70.100326 
L 70.436042 70.277078 
L 70.639019 70.177755 
L 70.740507 70.303355 
L 70.943484 70.166428 
L 71.044973 70.181357 
L 71.146461 70.04341 
L 71.247949 70.458413 
L 71.349438 70.067946 
L 71.552414 70.276698 
L 71.653903 70.025739 
L 71.755391 70.307357 
L 71.85688 69.999502 
L 71.958368 70.337176 
L 72.161345 69.997641 
L 72.262833 70.288846 
L 72.364321 69.938904 
L 72.567298 70.386047 
L 72.668787 70.058099 
L 72.770275 70.330432 
L 72.871763 70.056458 
L 73.07474 70.413365 
L 73.176228 70.100806 
L 73.379205 70.257646 
L 73.480694 70.261508 
L 73.582182 70.395493 
L 73.68367 70.32759 
L 73.785159 70.512688 
L 73.886647 70.255605 
L 74.089624 70.572085 
L 74.191112 70.303915 
L 74.394089 70.622037 
L 74.495577 70.455231 
L 74.597066 70.654758 
L 74.698554 70.494937 
L 74.901531 70.918245 
L 75.003019 70.786241 
L 75.104508 71.015747 
L 75.205996 70.792085 
L 75.408973 71.098039 
L 75.510461 71.045506 
L 75.611949 71.440517 
L 75.713438 71.032998 
L 75.916415 71.423766 
L 76.017903 71.363908 
L 76.119391 71.989085 
L 76.22088 71.474138 
L 76.626833 72.167638 
L 76.728322 71.947558 
L 76.82981 72.34425 
L 77.032787 72.242826 
L 77.134275 72.676801 
L 77.235763 72.474533 
L 77.337252 72.960061 
L 77.43874 72.9261 
L 77.540229 72.957079 
L 77.641717 73.113058 
L 77.743205 73.025122 
L 77.946182 73.598066 
L 78.04767 73.378727 
L 78.149159 73.855429 
L 78.250647 73.66781 
L 78.453624 74.363572 
L 78.555112 74.279158 
L 78.656601 74.558155 
L 78.758089 74.468679 
L 78.961066 75.087351 
L 79.062554 74.840435 
L 79.265531 75.434832 
L 79.367019 75.632337 
L 79.671484 76.855974 
L 79.772973 76.879048 
L 80.381903 78.318582 
L 80.483391 78.387546 
L 81.396787 80.644358 
L 81.80274 81.748119 
L 82.919112 85.19989 
L 83.832508 88.566286 
L 84.238461 90.101941 
L 84.542926 91.274925 
L 85.050368 93.306615 
L 85.151857 93.238272 
L 85.862275 94.71705 
L 85.963764 94.651368 
L 86.16674 95.234238 
L 86.268229 95.25271 
L 86.572694 95.966663 
L 86.674182 96.214641 
L 86.775671 96.074031 
L 86.877159 96.614514 
L 86.978647 96.419491 
L 87.181624 97.06506 
L 87.283113 97.150455 
L 87.993531 99.980691 
L 88.906927 103.664509 
L 89.211392 104.677712 
L 90.936694 111.471144 
L 91.241159 112.853441 
L 91.444136 113.574819 
L 92.154555 116.697261 
L 92.45902 117.652767 
L 93.06795 120.119073 
L 93.981345 122.710477 
L 94.184322 123.03021 
L 94.691764 124.032126 
L 95.402183 125.334613 
L 95.808136 126.172355 
L 96.315578 127.113632 
L 96.721531 127.953335 
L 97.837904 130.044022 
L 100.679578 134.840806 
L 101.085532 135.373214 
L 101.79595 136.455912 
L 102.506369 137.369461 
L 105.246555 140.595099 
L 106.15995 139.36828 
L 106.971857 138.294819 
L 107.885253 137.19455 
L 108.595671 136.323207 
L 108.798648 136.116116 
L 114.076044 130.504965 
L 115.598369 129.450115 
L 115.902834 129.268775 
L 116.308788 128.962295 
L 121.890648 125.314065 
L 121.992137 125.434621 
L 122.093625 125.20403 
L 122.296602 125.282945 
L 122.905532 125.063046 
L 123.007021 125.163374 
L 123.108509 124.95894 
L 123.311486 125.022365 
L 123.717439 124.908157 
L 124.021904 124.901108 
L 124.224881 124.760063 
L 124.529346 124.737069 
L 124.630835 124.619249 
L 124.732323 124.682849 
L 124.9353 124.54159 
L 125.036788 124.64465 
L 125.138276 124.440646 
L 125.341253 124.493404 
L 125.950183 124.285392 
L 126.051672 124.365568 
L 126.15316 124.199012 
L 126.356137 124.252066 
L 126.660602 124.110546 
L 126.863579 124.13236 
L 126.965067 124.00678 
L 127.066556 124.084625 
L 127.269532 123.992961 
L 127.573997 123.953737 
L 127.776974 123.870834 
L 128.385904 123.868622 
L 128.588881 123.914321 
L 129.400788 124.073447 
L 129.502277 124.205651 
L 129.705253 124.186319 
L 130.009718 124.238537 
L 130.923114 124.475618 
L 131.735021 124.743698 
L 132.039486 124.827426 
L 132.140974 124.894729 
L 132.242463 124.813532 
L 132.546928 125.116214 
L 132.648416 125.004293 
L 132.749905 125.126631 
L 132.851393 125.032156 
L 133.155858 125.273084 
L 133.257346 125.134996 
L 133.460323 125.321204 
L 133.561812 125.443647 
L 133.6633 125.359063 
L 133.764788 125.504141 
L 133.967765 125.430719 
L 134.982649 125.797482 
L 135.084137 125.76259 
L 135.185626 125.995758 
L 135.287114 125.837762 
L 135.388602 126.012693 
L 135.490091 125.873195 
L 135.794556 126.068749 
L 135.896044 125.982594 
L 136.099021 126.138933 
L 136.403486 126.237026 
L 136.504974 126.172775 
L 136.707951 126.302557 
L 136.80944 126.333267 
L 136.910928 126.240058 
L 137.215393 126.489836 
L 137.519858 126.52759 
L 138.230277 126.76299 
L 138.433254 126.688352 
L 139.854091 125.729313 
L 140.158556 125.673088 
L 140.665998 125.731865 
L 140.767486 125.646881 
L 141.071951 125.905065 
L 141.17344 125.759743 
L 141.680882 125.990289 
L 141.78237 125.753659 
L 141.985347 126.027243 
L 142.086835 126.146168 
L 142.289812 126.05439 
L 142.492789 126.16456 
L 142.594277 126.248023 
L 142.695765 126.119141 
L 143.101719 126.410636 
L 143.203207 126.382118 
L 143.406184 126.790777 
L 144.421068 131.09612 
L 145.841905 135.592554 
L 146.14637 136.59509 
L 146.552324 137.758478 
L 147.059765 139.516604 
L 147.364231 140.462324 
L 147.871672 142.352994 
L 147.973161 142.471049 
L 148.988044 145.741015 
L 150.51037 150.259363 
L 151.1193 151.842047 
L 151.220789 151.950186 
L 151.728231 153.383776 
L 151.829719 153.48566 
L 152.641626 155.545317 
L 153.250556 157.018513 
L 154.26544 161.328348 
L 154.569905 162.752112 
L 154.671393 162.95399 
L 155.280324 165.93217 
L 155.990742 168.553123 
L 156.295207 170.205912 
L 157.005626 172.977912 
L 157.41158 174.916802 
L 157.513068 175.004238 
L 157.716045 176.202959 
L 157.919021 177.081426 
L 160.760696 191.735307 
L 162.587487 206.492253 
L 164.008324 219.618624 
L 164.211301 221.215878 
L 165.226184 229.690037 
L 165.429161 231.088524 
L 165.936603 234.812108 
L 166.342557 236.145814 
L 167.458929 239.236196 
L 169.082743 241.708485 
L 169.184231 241.7006 
L 169.387208 241.8589 
L 169.590185 241.844011 
L 169.691673 242.007174 
L 169.793161 241.853557 
L 170.097626 242.116364 
L 170.50358 241.830602 
L 170.706557 241.894563 
L 170.909533 241.718791 
L 171.011022 241.655111 
L 171.11251 241.812511 
L 171.416975 241.4166 
L 171.619952 241.281374 
L 171.924417 240.909237 
L 175.47651 205.464101 
L 177.100324 188.295964 
L 177.506278 184.165182 
L 179.434557 163.09651 
L 184.001534 116.373906 
L 185.219394 109.486114 
L 187.046185 99.955385 
L 187.655115 97.7256 
L 188.467022 94.938911 
L 188.771487 93.884782 
L 192.526557 82.277975 
L 196.890557 72.005435 
L 197.195023 71.403573 
L 197.499488 70.527197 
L 197.702464 70.218321 
L 198.209906 69.179061 
L 198.412883 68.718149 
L 199.123302 67.400813 
L 200.138185 65.597128 
L 201.153069 63.919303 
L 201.254558 63.825704 
L 201.559023 63.318842 
L 201.964976 62.623541 
L 202.269441 62.125645 
L 203.690279 59.862808 
L 204.096232 59.421548 
L 204.400697 58.775738 
L 204.705162 58.345325 
L 205.212604 57.562308 
L 205.720046 56.816515 
L 206.126 56.27291 
L 206.937907 55.093922 
L 207.648325 54.515334 
L 208.663209 54.092906 
L 208.866186 53.95694 
L 212.113814 52.363889 
L 212.621256 52.370653 
L 212.824232 52.39671 
L 213.027209 52.363909 
L 213.230186 52.383761 
L 213.331674 52.453666 
L 213.534651 52.367891 
L 213.839116 52.407396 
L 214.042093 52.364329 
L 214.346558 52.434254 
L 214.448046 52.340354 
L 214.549535 52.445 
L 214.651023 52.377778 
L 214.854 52.423046 
L 215.361442 52.426308 
L 215.564418 52.400132 
L 216.07186 52.42857 
L 216.477814 52.39697 
L 216.782279 52.518947 
L 217.086744 52.407456 
L 217.797163 52.451124 
L 218.000139 52.456968 
L 218.203116 52.499135 
L 219.319488 52.802367 
L 219.522465 52.833887 
L 220.943302 53.184149 
L 221.044791 53.163576 
L 221.146279 53.32688 
L 221.450744 53.255955 
L 221.653721 53.351396 
L 221.755209 53.40633 
L 221.856698 53.32706 
L 222.262651 53.568674 
L 222.567116 53.493406 
L 222.770093 53.665115 
L 222.97307 53.65723 
L 223.074558 53.73656 
L 223.176047 53.636417 
L 223.683488 53.833161 
L 223.987954 53.820293 
L 224.292419 53.72039 
L 224.596884 53.691952 
L 225.510279 53.512338 
L 225.713256 53.364544 
L 226.322186 53.242947 
L 226.626651 53.171561 
L 227.438558 53.02815 
L 227.540047 52.848837 
L 227.844512 52.934691 
L 227.946 52.747372 
L 228.148977 52.790179 
L 228.55493 52.663039 
L 229.265349 52.509381 
L 229.671303 52.371654 
L 229.975768 52.290022 
L 230.889163 52.029176 
L 231.09214 51.947945 
L 231.599582 51.8144 
L 231.802558 51.792486 
L 232.107024 51.654439 
L 233.121907 51.427394 
L 233.324884 51.361752 
L 234.644233 51.001984 
L 234.745721 51.045732 
L 235.050186 50.898278 
L 235.151675 50.856432 
L 235.354652 50.892995 
L 235.45614 50.682261 
L 235.659117 50.778903 
L 235.963582 50.740138 
L 236.166559 50.574613 
L 236.775489 50.549437 
L 236.978466 50.36446 
L 237.485907 50.25421 
L 238.297814 50.071914 
L 238.500791 50.011876 
L 238.906745 49.871947 
L 240.327582 49.653788 
L 240.733535 49.731538 
L 241.139489 49.616685 
L 241.240977 49.677283 
L 241.342466 49.54632 
L 241.443954 49.65587 
L 241.545442 49.575619 
L 241.748419 49.585065 
L 242.255861 49.569355 
L 242.357349 49.461126 
L 242.661815 49.518803 
L 242.864791 49.533692 
L 243.169256 49.459925 
L 243.981163 49.398326 
L 244.18414 49.426924 
L 244.285629 49.331304 
L 244.488605 49.375652 
L 245.097536 49.37239 
L 245.199024 49.353898 
L 245.300512 49.219833 
L 245.604977 49.370008 
L 246.010931 49.217251 
L 246.213908 49.265542 
L 246.315396 49.193016 
L 246.518373 49.275869 
L 247.025815 49.186792 
L 247.127303 49.24627 
L 247.33028 49.164038 
L 247.634745 49.148208 
L 247.93921 49.135039 
L 249.461536 48.986725 
L 249.563024 49.093833 
L 249.766001 48.969354 
L 250.171954 48.944358 
L 250.679396 48.945699 
L 250.882373 48.905453 
L 251.08535 48.904353 
L 251.288326 48.86907 
L 251.389815 48.847136 
L 251.491303 48.958647 
L 251.69428 48.907075 
L 251.897257 48.775391 
L 252.100233 48.855862 
L 252.30321 48.800307 
L 252.506187 48.871892 
L 252.709164 48.791661 
L 253.521071 48.75788 
L 253.622559 48.766085 
L 253.724047 48.660638 
L 253.927024 48.723898 
L 254.130001 48.635482 
L 254.535954 48.72644 
L 254.84042 48.612428 
L 255.144885 48.597058 
L 255.246373 48.531296 
L 255.44935 48.662519 
L 255.855303 48.462893 
L 256.05828 48.540082 
L 256.261257 48.497795 
L 256.464234 48.556812 
L 256.66721 48.469617 
L 256.971675 48.481064 
L 257.276141 48.333851 
L 257.377629 48.533658 
L 257.682094 48.384123 
L 258.392513 48.354664 
L 260.219303 48.170467 
L 260.320792 48.250278 
L 260.625257 48.089776 
L 261.03121 48.072765 
L 261.335676 48.051892 
L 261.843117 48.078649 
L 262.046094 47.921849 
L 262.452048 47.976144 
L 262.858001 47.843019 
L 263.060978 47.897834 
L 264.075862 47.70243 
L 264.17735 47.842719 
L 264.278838 47.707773 
L 264.380327 47.783982 
L 264.583304 47.712236 
L 264.989257 47.622359 
L 265.293722 47.617496 
L 267.019025 47.393274 
L 267.120513 47.475506 
L 267.424978 47.317066 
L 267.729443 47.320027 
L 268.135397 47.247461 
L 268.54135 47.212899 
L 268.642839 47.107172 
L 268.744327 47.243779 
L 269.048792 47.099487 
L 269.251769 47.154582 
L 269.454746 47.000725 
L 269.657722 47.080555 
L 270.368141 46.905544 
L 270.571118 46.919453 
L 270.774094 46.890115 
L 271.180048 46.855352 
L 271.281536 46.704377 
L 271.586001 46.825113 
L 271.68749 46.717725 
L 271.788978 46.78825 
L 271.991955 46.633972 
L 272.29642 46.743481 
L 272.600885 46.525943 
L 272.803862 46.576756 
L 273.108327 46.56783 
L 273.209815 46.591485 
L 273.412792 46.468567 
L 273.615769 46.474851 
L 274.021722 46.37895 
L 274.427676 46.395701 
L 274.732141 46.297118 
L 275.138095 46.306964 
L 275.341071 46.225553 
L 276.05149 46.121287 
L 276.152978 46.239922 
L 276.254467 46.083463 
L 276.355955 46.137777 
L 276.558932 46.040235 
L 277.066374 46.057286 
L 277.26935 45.925282 
L 277.472327 45.990684 
L 278.385723 45.85844 
L 279.705071 45.657752 
L 279.908048 45.680927 
L 280.009537 45.70098 
L 280.212513 45.628654 
L 280.314002 45.699339 
L 280.516978 45.59035 
L 280.922932 45.628254 
L 281.125909 45.473355 
L 281.328885 45.616806 
L 281.531862 45.526309 
L 282.546746 45.412196 
L 282.851211 45.445858 
L 283.054188 45.369089 
L 283.155676 45.32386 
L 283.257165 45.476397 
L 283.460141 45.334227 
L 284.069072 45.227519 
L 284.272048 45.320859 
L 284.678002 45.16492 
L 284.77949 45.293761 
L 284.982467 45.205505 
L 285.185444 45.298805 
L 285.38842 45.16612 
L 285.794374 45.19662 
L 285.997351 45.121172 
L 286.098839 45.217153 
L 286.403304 45.135021 
L 287.92563 45.002216 
L 288.027118 45.138543 
L 288.230095 45.084468 
L 288.433072 44.973358 
L 288.636048 45.022309 
L 288.839025 44.993131 
L 288.940514 45.117409 
L 289.244979 44.926128 
L 289.346467 45.025751 
L 289.549444 45.018467 
L 289.752421 44.902553 
L 289.955397 45.026592 
L 290.158374 44.972437 
L 290.868793 45.020908 
L 291.071769 44.92877 
L 291.782188 45.019307 
L 291.985165 44.933813 
L 292.797072 44.954786 
L 293.000049 44.93005 
L 293.608979 44.892026 
L 293.710467 45.001256 
L 293.913444 44.96127 
L 294.116421 44.864409 
L 294.725351 44.91276 
L 295.435769 44.920685 
L 295.638746 44.999495 
L 296.0447 44.928369 
L 296.349165 44.969435 
L 297.567025 45.029273 
L 297.972979 45.045003 
L 298.175956 45.044803 
L 298.581909 45.067298 
L 298.784886 45.090672 
L 299.190839 45.178808 
L 299.292328 45.075943 
L 299.495304 45.209268 
L 299.79977 45.199582 
L 300.205723 45.241088 
L 300.307211 45.336468 
L 300.611677 45.240207 
L 300.916142 45.336388 
L 301.119118 45.232242 
L 301.322095 45.37017 
L 301.829537 45.347676 
L 302.134002 45.49633 
L 302.641444 45.467512 
L 302.742932 45.552926 
L 302.945909 45.445338 
L 303.148886 45.570377 
L 303.250374 45.516503 
L 303.351863 45.600356 
L 303.554839 45.549163 
L 303.757816 45.554087 
L 303.960793 45.672562 
L 304.569723 45.703141 
L 304.7727 45.657472 
L 304.975677 45.813771 
L 305.280142 45.706023 
L 305.584607 45.799242 
L 306.396514 45.929245 
L 306.599491 45.907351 
L 306.802467 45.968349 
L 307.005444 45.979637 
L 307.208421 46.026706 
L 307.309909 46.125889 
L 307.512886 46.086584 
L 308.020328 46.151866 
L 308.223305 46.246766 
L 308.426281 46.258614 
L 308.730747 46.364121 
L 308.832235 46.287272 
L 309.1367 46.493963 
L 309.441165 46.465105 
L 309.644142 46.586982 
L 309.74563 46.558884 
L 309.948607 46.64646 
L 310.354561 46.708899 
L 310.557537 46.790111 
L 310.659026 46.727391 
L 310.963491 46.900781 
L 311.166468 46.925477 
L 311.267956 46.884611 
L 311.470933 47.016255 
L 313.297723 47.471423 
L 313.399212 47.577371 
L 313.5007 47.48107 
L 314.008142 47.716979 
L 314.10963 47.633286 
L 314.312607 47.790546 
L 314.515584 47.800993 
L 315.226003 47.998838 
L 315.327491 47.937759 
L 315.631956 48.182635 
L 315.834933 48.078129 
L 316.139398 48.242193 
L 316.443863 48.213615 
L 316.64684 48.363149 
L 317.458747 48.612188 
L 317.560235 48.514325 
L 317.763212 48.592095 
L 318.067677 48.690197 
L 318.270654 48.72578 
L 318.372142 48.865068 
L 318.473631 48.776532 
L 318.575119 48.898529 
L 318.778096 48.828085 
L 319.082561 48.945119 
L 319.488514 49.062633 
L 319.590003 49.038898 
L 319.792979 49.11999 
L 319.995956 49.118709 
L 320.300421 49.318396 
L 320.503398 49.259918 
L 320.909352 49.393363 
L 321.01084 49.336207 
L 321.213817 49.524046 
L 321.416793 49.444476 
L 321.61977 49.596132 
L 321.924235 49.573077 
L 322.2287 49.698237 
L 322.431677 49.797179 
L 322.533166 49.681866 
L 322.736142 49.834523 
L 322.837631 49.815271 
L 322.939119 49.918857 
L 323.040607 49.801622 
L 323.345073 50.023483 
L 323.649538 50.009714 
L 325.577817 50.495423 
L 325.780794 50.560744 
L 325.98377 50.560384 
L 326.288235 50.689146 
L 326.389724 50.603211 
L 326.592701 50.827914 
L 326.795677 50.730372 
L 326.998654 50.796854 
L 327.607584 51.045252 
L 327.810561 50.990497 
L 327.912049 51.164447 
L 328.013538 51.022117 
L 328.216515 51.166889 
L 328.318003 51.106811 
L 328.825445 51.399276 
L 329.028422 51.313462 
L 329.231398 51.38907 
L 329.434375 51.424332 
L 329.840329 51.566143 
L 329.941817 51.474644 
L 330.144794 51.614293 
L 330.34777 51.638268 
L 330.449259 51.780358 
L 330.550747 51.645313 
L 330.753724 51.783921 
L 331.058189 51.840036 
L 331.159677 51.903677 
L 331.261166 51.806615 
L 331.464143 51.975522 
L 331.565631 51.916365 
L 331.768608 52.068381 
L 331.870096 51.958912 
L 332.073073 52.179172 
L 332.174561 51.994614 
L 332.377538 52.126738 
L 332.479026 52.064139 
L 332.682003 52.212793 
L 332.88498 52.041965 
L 332.986468 52.263625 
L 333.290933 52.209431 
L 333.392422 52.311215 
L 333.49391 52.125778 
L 333.696887 52.323743 
L 333.899864 52.199104 
L 334.305817 52.407116 
L 334.508794 52.187297 
L 334.610282 52.407917 
L 334.914747 52.369773 
L 335.016236 52.416642 
L 335.117724 52.28676 
L 335.320701 52.504178 
L 335.422189 52.293644 
L 335.625166 52.453706 
L 335.726654 52.355924 
L 336.031119 52.456428 
L 336.132608 52.395709 
L 336.335585 52.537159 
L 336.437073 52.34932 
L 336.64005 52.580466 
L 336.741538 52.431452 
L 336.944515 52.669603 
L 337.147492 52.490729 
L 337.24898 52.61809 
L 337.350468 52.551888 
L 337.654933 52.640304 
L 337.756422 52.552849 
L 337.959399 52.716072 
L 338.060887 52.552649 
L 338.263864 52.751975 
L 338.46684 52.715472 
L 338.568329 52.876014 
L 338.771306 52.704585 
L 338.872794 52.830505 
L 338.974282 52.670684 
L 339.177259 52.813814 
L 339.380236 52.767065 
L 339.481724 52.851919 
L 339.684701 52.69646 
L 339.887678 52.769026 
L 339.989166 52.708267 
L 340.192143 52.804769 
L 340.293631 52.715912 
L 340.496608 52.855681 
L 340.699585 52.688095 
L 340.801073 52.825542 
L 341.00405 52.789919 
L 341.207027 52.813094 
L 341.308515 52.713551 
L 341.511492 52.876134 
L 341.61298 52.765344 
L 341.917445 52.899309 
L 342.120422 53.051966 
L 342.323399 52.908394 
L 342.526375 53.002134 
L 342.627864 52.963429 
L 342.830841 53.15303 
L 342.932329 52.998732 
L 343.135306 53.214829 
L 343.338282 53.0741 
L 343.439771 53.198579 
L 343.541259 53.113485 
L 343.845724 53.227797 
L 343.947213 53.143384 
L 344.150189 53.308168 
L 344.251678 53.151589 
L 344.454655 53.415236 
L 344.556143 53.268023 
L 344.75912 53.56285 
L 344.962096 53.309969 
L 345.063585 53.5791 
L 345.266562 53.350795 
L 345.469538 53.655989 
L 345.571027 53.488843 
L 345.774003 53.809967 
L 345.97698 53.555445 
L 346.078469 53.806845 
L 346.179957 53.645702 
L 346.484422 53.882172 
L 346.58591 53.651426 
L 346.788887 53.947974 
L 346.991864 53.795838 
L 347.093352 54.025183 
L 347.194841 53.844188 
L 347.397817 54.168034 
L 347.600794 53.904106 
L 347.702283 54.19321 
L 347.905259 53.950976 
L 348.108236 54.257251 
L 348.209724 54.094067 
L 348.412701 54.438446 
L 348.615678 54.159869 
L 348.818655 54.375806 
L 348.920143 54.198533 
L 349.12312 54.503207 
L 349.224608 54.307843 
L 349.427585 54.657865 
L 349.630562 54.372284 
L 349.73205 54.61848 
L 349.935027 54.514494 
L 350.138004 54.670633 
L 350.239492 54.496883 
L 350.442469 54.826692 
L 350.543957 54.567087 
L 350.645445 54.606792 
L 350.746934 54.801756 
L 350.949911 54.780863 
L 351.152887 54.861514 
L 351.254376 54.688684 
L 351.457352 54.985713 
L 351.558841 54.729911 
L 351.761818 55.016693 
L 351.863306 54.91847 
L 352.167771 55.008007 
L 352.269259 54.898618 
L 352.472236 55.159143 
L 352.675213 55.018654 
L 352.776701 55.211656 
L 352.87819 55.080413 
L 353.081166 55.336175 
L 353.284143 55.130325 
L 353.48712 55.29651 
L 353.588608 55.12244 
L 353.791585 55.373879 
L 353.893073 55.258926 
L 353.994562 55.318604 
L 354.09605 55.539785 
L 354.299027 55.266771 
L 354.502004 55.506764 
L 354.603492 55.293588 
L 354.806469 55.51609 
L 354.907957 55.433997 
L 355.110934 55.666265 
L 355.313911 55.400296 
L 355.415399 55.746556 
L 355.516887 55.679673 
L 355.618376 55.459133 
L 355.821353 55.661862 
L 356.125818 55.692842 
L 356.328794 55.864871 
L 356.531771 55.64333 
L 356.63326 55.873556 
L 356.836236 55.686197 
L 357.039213 55.905497 
L 357.140701 55.766969 
L 357.343678 56.119633 
L 357.546655 55.842577 
L 357.749632 56.101821 
L 357.85112 55.883763 
L 358.054097 56.179871 
L 358.155585 56.0361 
L 358.358562 56.387002 
L 358.561539 56.060755 
L 358.663027 56.38416 
L 358.764515 56.348618 
L 358.866004 56.125356 
L 359.068981 56.386842 
L 359.170469 56.318279 
L 359.373446 56.652411 
L 359.576422 56.306631 
L 359.677911 56.632158 
L 359.880888 56.54134 
L 360.185353 56.580925 
L 360.388329 56.707686 
L 360.489818 56.707886 
L 360.591306 56.553948 
L 360.794283 56.830124 
L 360.895771 56.74595 
L 360.99726 56.870149 
L 361.098748 56.739586 
L 361.301725 56.877754 
L 361.707678 56.902449 
L 362.012143 57.042658 
L 362.113632 56.925424 
L 362.418097 57.127792 
L 362.519585 57.115064 
L 362.621074 56.970573 
L 362.82405 57.146684 
L 363.027027 57.160573 
L 363.128516 57.073478 
L 363.230004 57.21861 
L 363.331492 57.163535 
L 363.432981 57.289775 
L 363.534469 57.128913 
L 363.940423 57.369506 
L 364.041911 57.192353 
L 364.447864 57.462165 
L 364.549353 57.28209 
L 364.853818 57.428503 
L 364.955306 57.429264 
L 365.056795 57.315632 
L 365.259771 57.61262 
L 365.36126 57.477014 
L 365.462748 57.559026 
L 365.564237 57.410892 
L 365.767213 57.550781 
L 366.274655 57.570233 
L 366.376144 57.688348 
L 366.477632 57.587004 
L 366.782097 57.713084 
L 366.985074 57.628951 
L 367.188051 57.697994 
L 367.898469 57.820872 
L 367.999958 57.696954 
L 368.304423 57.8954 
L 368.405911 57.92766 
L 368.507399 57.797177 
L 368.811865 58.012714 
L 369.014841 57.757712 
L 369.11633 58.015356 
L 369.420795 57.945592 
L 369.522283 57.905766 
L 369.623772 58.02144 
L 369.72526 57.914932 
L 369.826748 58.016356 
L 370.029725 57.903365 
L 370.232702 58.027764 
L 370.435679 57.916053 
L 370.740144 58.055301 
L 370.94312 57.920095 
L 371.247586 58.136553 
L 371.349074 57.881911 
L 371.552051 57.983656 
L 371.653539 57.899122 
L 371.755027 58.202675 
L 371.958004 57.870384 
L 372.059493 58.134031 
L 372.160981 58.093605 
L 372.262469 58.109055 
L 372.363958 57.805262 
L 372.566934 58.184343 
L 372.668423 57.999946 
L 372.769911 58.079316 
L 372.8714 57.819471 
L 373.074376 58.142076 
L 373.175865 58.097408 
L 373.378841 57.940268 
L 373.581818 58.114219 
L 373.581818 58.114219 
" style="fill:none;stroke:#081d58;stroke-dasharray:5.55,2.4;stroke-dashoffset:0;stroke-width:1.5;"/>
    <defs>
     <path d="M -0 4.242641 
L 4.242641 0 
L 0 -4.242641 
L -4.242641 -0 
z
" id="m4d6eae729e" style="stroke:#081d58;stroke-linejoin:miter;"/>
    </defs>
    <g clip-path="url(#pa7b3f756e3)">
     <use style="fill:#081d58;stroke:#081d58;stroke-linejoin:miter;" x="69.218182" xlink:href="#m4d6eae729e" y="70.265411"/>
     <use style="fill:#081d58;stroke:#081d58;stroke-linejoin:miter;" x="77.337252" xlink:href="#m4d6eae729e" y="72.960061"/>
     <use style="fill:#081d58;stroke:#081d58;stroke-linejoin:miter;" x="85.456322" xlink:href="#m4d6eae729e" y="93.892887"/>
     <use style="fill:#081d58;stroke:#081d58;stroke-linejoin:miter;" x="93.575392" xlink:href="#m4d6eae729e" y="121.67514"/>
     <use style="fill:#081d58;stroke:#081d58;stroke-linejoin:miter;" x="101.694462" xlink:href="#m4d6eae729e" y="136.266852"/>
     <use style="fill:#081d58;stroke:#081d58;stroke-linejoin:miter;" x="109.813532" xlink:href="#m4d6eae729e" y="135.00413"/>
     <use style="fill:#081d58;stroke:#081d58;stroke-linejoin:miter;" x="117.932602" xlink:href="#m4d6eae729e" y="127.863558"/>
     <use style="fill:#081d58;stroke:#081d58;stroke-linejoin:miter;" x="126.051672" xlink:href="#m4d6eae729e" y="124.365568"/>
     <use style="fill:#081d58;stroke:#081d58;stroke-linejoin:miter;" x="134.170742" xlink:href="#m4d6eae729e" y="125.524413"/>
     <use style="fill:#081d58;stroke:#081d58;stroke-linejoin:miter;" x="142.289812" xlink:href="#m4d6eae729e" y="126.05439"/>
     <use style="fill:#081d58;stroke:#081d58;stroke-linejoin:miter;" x="150.408882" xlink:href="#m4d6eae729e" y="149.878521"/>
     <use style="fill:#081d58;stroke:#081d58;stroke-linejoin:miter;" x="158.527952" xlink:href="#m4d6eae729e" y="179.936258"/>
     <use style="fill:#081d58;stroke:#081d58;stroke-linejoin:miter;" x="166.647022" xlink:href="#m4d6eae729e" y="237.132901"/>
     <use style="fill:#081d58;stroke:#081d58;stroke-linejoin:miter;" x="174.766092" xlink:href="#m4d6eae729e" y="212.922374"/>
     <use style="fill:#081d58;stroke:#081d58;stroke-linejoin:miter;" x="182.885162" xlink:href="#m4d6eae729e" y="126.630005"/>
     <use style="fill:#081d58;stroke:#081d58;stroke-linejoin:miter;" x="191.004232" xlink:href="#m4d6eae729e" y="86.686933"/>
     <use style="fill:#081d58;stroke:#081d58;stroke-linejoin:miter;" x="199.123302" xlink:href="#m4d6eae729e" y="67.400813"/>
     <use style="fill:#081d58;stroke:#081d58;stroke-linejoin:miter;" x="207.242372" xlink:href="#m4d6eae729e" y="54.802537"/>
     <use style="fill:#081d58;stroke:#081d58;stroke-linejoin:miter;" x="215.361442" xlink:href="#m4d6eae729e" y="52.426308"/>
     <use style="fill:#081d58;stroke:#081d58;stroke-linejoin:miter;" x="223.480512" xlink:href="#m4d6eae729e" y="53.881632"/>
     <use style="fill:#081d58;stroke:#081d58;stroke-linejoin:miter;" x="231.599582" xlink:href="#m4d6eae729e" y="51.8144"/>
     <use style="fill:#081d58;stroke:#081d58;stroke-linejoin:miter;" x="239.718652" xlink:href="#m4d6eae729e" y="49.792977"/>
     <use style="fill:#081d58;stroke:#081d58;stroke-linejoin:miter;" x="247.837722" xlink:href="#m4d6eae729e" y="49.157974"/>
     <use style="fill:#081d58;stroke:#081d58;stroke-linejoin:miter;" x="255.956792" xlink:href="#m4d6eae729e" y="48.561235"/>
     <use style="fill:#081d58;stroke:#081d58;stroke-linejoin:miter;" x="264.075862" xlink:href="#m4d6eae729e" y="47.70243"/>
     <use style="fill:#081d58;stroke:#081d58;stroke-linejoin:miter;" x="272.194932" xlink:href="#m4d6eae729e" y="46.648601"/>
     <use style="fill:#081d58;stroke:#081d58;stroke-linejoin:miter;" x="280.314002" xlink:href="#m4d6eae729e" y="45.699339"/>
     <use style="fill:#081d58;stroke:#081d58;stroke-linejoin:miter;" x="288.433072" xlink:href="#m4d6eae729e" y="44.973358"/>
     <use style="fill:#081d58;stroke:#081d58;stroke-linejoin:miter;" x="296.552142" xlink:href="#m4d6eae729e" y="44.998934"/>
     <use style="fill:#081d58;stroke:#081d58;stroke-linejoin:miter;" x="304.671212" xlink:href="#m4d6eae729e" y="45.632736"/>
     <use style="fill:#081d58;stroke:#081d58;stroke-linejoin:miter;" x="312.790282" xlink:href="#m4d6eae729e" y="47.40294"/>
     <use style="fill:#081d58;stroke:#081d58;stroke-linejoin:miter;" x="320.909352" xlink:href="#m4d6eae729e" y="49.393363"/>
     <use style="fill:#081d58;stroke:#081d58;stroke-linejoin:miter;" x="329.028422" xlink:href="#m4d6eae729e" y="51.313462"/>
     <use style="fill:#081d58;stroke:#081d58;stroke-linejoin:miter;" x="337.147492" xlink:href="#m4d6eae729e" y="52.490729"/>
     <use style="fill:#081d58;stroke:#081d58;stroke-linejoin:miter;" x="345.266562" xlink:href="#m4d6eae729e" y="53.350795"/>
     <use style="fill:#081d58;stroke:#081d58;stroke-linejoin:miter;" x="353.385632" xlink:href="#m4d6eae729e" y="55.314682"/>
     <use style="fill:#081d58;stroke:#081d58;stroke-linejoin:miter;" x="361.504702" xlink:href="#m4d6eae729e" y="56.895805"/>
     <use style="fill:#081d58;stroke:#081d58;stroke-linejoin:miter;" x="369.623772" xlink:href="#m4d6eae729e" y="58.02144"/>
    </g>
   </g>
   <g id="patch_3">
    <path d="M 54 252 
L 54 34.56 
" style="fill:none;stroke:#000000;stroke-linecap:square;stroke-linejoin:miter;stroke-width:0.8;"/>
   </g>
   <g id="patch_4">
    <path d="M 388.8 252 
L 388.8 34.56 
" style="fill:none;stroke:#000000;stroke-linecap:square;stroke-linejoin:miter;stroke-width:0.8;"/>
   </g>
   <g id="patch_5">
    <path d="M 54 252 
L 388.8 252 
" style="fill:none;stroke:#000000;stroke-linecap:square;stroke-linejoin:miter;stroke-width:0.8;"/>
   </g>
   <g id="patch_6">
    <path d="M 54 34.56 
L 388.8 34.56 
" style="fill:none;stroke:#000000;stroke-linecap:square;stroke-linejoin:miter;stroke-width:0.8;"/>
   </g>
   <g id="legend_1">
    <g id="patch_7">
     <path d="M 280.085938 247 
L 381.8 247 
Q 383.8 247 383.8 245 
L 383.8 216.64375 
Q 383.8 214.64375 381.8 214.64375 
L 280.085938 214.64375 
Q 278.085938 214.64375 278.085938 216.64375 
L 278.085938 245 
Q 278.085938 247 280.085938 247 
z
" style="fill:#ffffff;opacity:0.8;stroke:#cccccc;stroke-linejoin:miter;"/>
    </g>
    <g id="line2d_15">
     <path d="M 282.085938 222.742188 
L 302.085938 222.742188 
" style="fill:none;stroke:#40b5c4;stroke-dasharray:5.55,2.4;stroke-dashoffset:0;stroke-width:1.5;"/>
    </g>
    <g id="line2d_16">
     <g>
      <use style="fill:#40b5c4;stroke:#40b5c4;" x="292.085938" xlink:href="#mc95a324295" y="222.742188"/>
     </g>
    </g>
    <g id="text_15">
     <text style="font-family:DejaVu Sans;font-size:10px;font-style:normal;font-weight:normal;text-anchor:start;" transform="rotate(-0, 310.085938, 226.242188)" x="310.085938" y="226.242188">original</text>
    </g>
    <g id="line2d_17">
     <path d="M 282.085938 237.420312 
L 302.085938 237.420312 
" style="fill:none;stroke:#081d58;stroke-dasharray:5.55,2.4;stroke-dashoffset:0;stroke-width:1.5;"/>
    </g>
    <g id="line2d_18">
     <g>
      <use style="fill:#081d58;stroke:#081d58;stroke-linejoin:miter;" x="292.085938" xlink:href="#m4d6eae729e" y="237.420312"/>
     </g>
    </g>
    <g id="text_16">
     <text style="font-family:DejaVu Sans;font-size:10px;font-style:normal;font-weight:normal;text-anchor:start;" transform="rotate(-0, 310.085938, 240.920312)" x="310.085938" y="240.920312">reconstructed</text>
    </g>
   </g>
  </g>
  <g id="text_17">
   <text style="font-family:DejaVu Sans;font-size:12px;font-style:normal;font-weight:normal;text-anchor:middle;" transform="rotate(-0, 216, 14.878125)" x="216" y="14.878125">Reconstruction of the temperature curve</text>
  </g>
 </g>
 <defs>
  <clipPath id="pa7b3f756e3">
   <rect height="217.44" width="334.8" x="54" y="34.56"/>
  </clipPath>
 </defs>
</svg>
