<?xml version="1.0" encoding="utf-8" standalone="no"?>
<!DOCTYPE svg PUBLIC "-//W3C//DTD SVG 1.1//EN"
  "http://www.w3.org/Graphics/SVG/1.1/DTD/svg11.dtd">
<!-- Created with matplotlib (https://matplotlib.org/) -->
<svg height="288pt" version="1.1" viewBox="0 0 432 288" width="432pt" xmlns="http://www.w3.org/2000/svg" xmlns:xlink="http://www.w3.org/1999/xlink">
 <defs>
  <style type="text/css">
*{stroke-linecap:butt;stroke-linejoin:round;}
  </style>
 </defs>
 <g id="figure_1">
  <g id="patch_1">
   <path d="M 0 288 
L 432 288 
L 432 0 
L 0 0 
z
" style="fill:#ffffff;"/>
  </g>
  <g id="axes_1">
   <g id="patch_2">
    <path d="M 54 252 
L 388.8 252 
L 388.8 34.56 
L 54 34.56 
z
" style="fill:#ffffff;"/>
   </g>
   <g id="matplotlib.axis_1">
    <g id="xtick_1">
     <g id="line2d_1">
      <defs>
       <path d="M 0 0 
L 0 3.5 
" id="mf25be5c671" style="stroke:#000000;stroke-width:0.8;"/>
      </defs>
      <g>
       <use style="stroke:#000000;stroke-width:0.8;" x="69.218182" xlink:href="#mf25be5c671" y="252"/>
      </g>
     </g>
     <g id="text_1">
      <text style="font-family:DejaVu Sans;font-size:10px;font-style:normal;font-weight:normal;text-anchor:middle;" transform="rotate(-0, 69.218182, 266.598437)" x="69.218182" y="266.598437">0</text>
     </g>
    </g>
    <g id="xtick_2">
     <g id="line2d_2">
      <g>
       <use style="stroke:#000000;stroke-width:0.8;" x="119.962369" xlink:href="#mf25be5c671" y="252"/>
      </g>
     </g>
     <g id="text_2">
      <text style="font-family:DejaVu Sans;font-size:10px;font-style:normal;font-weight:normal;text-anchor:middle;" transform="rotate(-0, 119.962369, 266.598437)" x="119.962369" y="266.598437">500</text>
     </g>
    </g>
    <g id="xtick_3">
     <g id="line2d_3">
      <g>
       <use style="stroke:#000000;stroke-width:0.8;" x="170.706557" xlink:href="#mf25be5c671" y="252"/>
      </g>
     </g>
     <g id="text_3">
      <text style="font-family:DejaVu Sans;font-size:10px;font-style:normal;font-weight:normal;text-anchor:middle;" transform="rotate(-0, 170.706557, 266.598437)" x="170.706557" y="266.598437">1000</text>
     </g>
    </g>
    <g id="xtick_4">
     <g id="line2d_4">
      <g>
       <use style="stroke:#000000;stroke-width:0.8;" x="221.450744" xlink:href="#mf25be5c671" y="252"/>
      </g>
     </g>
     <g id="text_4">
      <text style="font-family:DejaVu Sans;font-size:10px;font-style:normal;font-weight:normal;text-anchor:middle;" transform="rotate(-0, 221.450744, 266.598437)" x="221.450744" y="266.598437">1500</text>
     </g>
    </g>
    <g id="xtick_5">
     <g id="line2d_5">
      <g>
       <use style="stroke:#000000;stroke-width:0.8;" x="272.194932" xlink:href="#mf25be5c671" y="252"/>
      </g>
     </g>
     <g id="text_5">
      <text style="font-family:DejaVu Sans;font-size:10px;font-style:normal;font-weight:normal;text-anchor:middle;" transform="rotate(-0, 272.194932, 266.598437)" x="272.194932" y="266.598437">2000</text>
     </g>
    </g>
    <g id="xtick_6">
     <g id="line2d_6">
      <g>
       <use style="stroke:#000000;stroke-width:0.8;" x="322.939119" xlink:href="#mf25be5c671" y="252"/>
      </g>
     </g>
     <g id="text_6">
      <text style="font-family:DejaVu Sans;font-size:10px;font-style:normal;font-weight:normal;text-anchor:middle;" transform="rotate(-0, 322.939119, 266.598437)" x="322.939119" y="266.598437">2500</text>
     </g>
    </g>
    <g id="xtick_7">
     <g id="line2d_7">
      <g>
       <use style="stroke:#000000;stroke-width:0.8;" x="373.683307" xlink:href="#mf25be5c671" y="252"/>
      </g>
     </g>
     <g id="text_7">
      <text style="font-family:DejaVu Sans;font-size:10px;font-style:normal;font-weight:normal;text-anchor:middle;" transform="rotate(-0, 373.683307, 266.598437)" x="373.683307" y="266.598437">3000</text>
     </g>
    </g>
    <g id="text_8">
     <text style="font-family:DejaVu Sans;font-size:10px;font-style:normal;font-weight:normal;text-anchor:middle;" transform="rotate(-0, 221.4, 280.276563)" x="221.4" y="280.276563">Time</text>
    </g>
   </g>
   <g id="matplotlib.axis_2">
    <g id="ytick_1">
     <g id="line2d_8">
      <defs>
       <path d="M 0 0 
L -3.5 0 
" id="md92eba321b" style="stroke:#000000;stroke-width:0.8;"/>
      </defs>
      <g>
       <use style="stroke:#000000;stroke-width:0.8;" x="54" xlink:href="#md92eba321b" y="236.028946"/>
      </g>
     </g>
     <g id="text_9">
      <text style="font-family:DejaVu Sans;font-size:10px;font-style:normal;font-weight:normal;text-anchor:end;" transform="rotate(-0, 47, 239.828165)" x="47" y="239.828165">55</text>
     </g>
    </g>
    <g id="ytick_2">
     <g id="line2d_9">
      <g>
       <use style="stroke:#000000;stroke-width:0.8;" x="54" xlink:href="#md92eba321b" y="194.933645"/>
      </g>
     </g>
     <g id="text_10">
      <text style="font-family:DejaVu Sans;font-size:10px;font-style:normal;font-weight:normal;text-anchor:end;" transform="rotate(-0, 47, 198.732864)" x="47" y="198.732864">60</text>
     </g>
    </g>
    <g id="ytick_3">
     <g id="line2d_10">
      <g>
       <use style="stroke:#000000;stroke-width:0.8;" x="54" xlink:href="#md92eba321b" y="153.838343"/>
      </g>
     </g>
     <g id="text_11">
      <text style="font-family:DejaVu Sans;font-size:10px;font-style:normal;font-weight:normal;text-anchor:end;" transform="rotate(-0, 47, 157.637562)" x="47" y="157.637562">65</text>
     </g>
    </g>
    <g id="ytick_4">
     <g id="line2d_11">
      <g>
       <use style="stroke:#000000;stroke-width:0.8;" x="54" xlink:href="#md92eba321b" y="112.743041"/>
      </g>
     </g>
     <g id="text_12">
      <text style="font-family:DejaVu Sans;font-size:10px;font-style:normal;font-weight:normal;text-anchor:end;" transform="rotate(-0, 47, 116.54226)" x="47" y="116.54226">70</text>
     </g>
    </g>
    <g id="ytick_5">
     <g id="line2d_12">
      <g>
       <use style="stroke:#000000;stroke-width:0.8;" x="54" xlink:href="#md92eba321b" y="71.64774"/>
      </g>
     </g>
     <g id="text_13">
      <text style="font-family:DejaVu Sans;font-size:10px;font-style:normal;font-weight:normal;text-anchor:end;" transform="rotate(-0, 47, 75.446959)" x="47" y="75.446959">75</text>
     </g>
    </g>
    <g id="text_14">
     <text style="font-family:DejaVu Sans;font-size:10px;font-style:normal;font-weight:normal;text-anchor:middle;" transform="rotate(-90, 28.195312, 143.28)" x="28.195312" y="143.28">weight (\%)</text>
    </g>
   </g>
   <g id="line2d_13">
    <path clip-path="url(#p5abbabf266)" d="M 69.218182 44.443636 
L 86.471206 44.889438 
L 91.241159 45.274419 
L 96.112601 45.896109 
L 109.91502 47.819698 
L 130.51716 50.297826 
L 134.88116 51.151129 
L 138.433254 52.064513 
L 141.579393 53.104718 
L 144.218091 54.219633 
L 146.7553 55.554162 
L 148.785068 56.850801 
L 150.713347 58.339848 
L 152.540138 60.030098 
L 154.468417 62.114123 
L 156.295207 64.387433 
L 157.919021 67.107202 
L 160.354742 71.667383 
L 162.688975 76.49452 
L 165.226184 82.274492 
L 172.837813 100.110839 
L 174.157161 102.473408 
L 175.780975 104.899263 
L 176.897348 106.173218 
L 177.810743 106.910139 
L 178.927115 107.495171 
L 180.753906 108.142998 
L 183.59558 108.897672 
L 187.452139 109.678565 
L 192.526557 110.460608 
L 198.920325 111.229912 
L 207.851302 112.096201 
L 219.420977 112.989367 
L 234.84721 113.890504 
L 251.897257 114.607782 
L 266.105629 115.02679 
L 286.301816 115.34158 
L 340.801073 115.672315 
L 361.60619 115.714478 
L 373.581818 115.862093 
L 373.581818 115.862093 
" style="fill:none;stroke:#40b5c4;stroke-dasharray:5.55,2.4;stroke-dashoffset:0;stroke-width:1.5;"/>
    <defs>
     <path d="M 0 3 
C 0.795609 3 1.55874 2.683901 2.12132 2.12132 
C 2.683901 1.55874 3 0.795609 3 0 
C 3 -0.795609 2.683901 -1.55874 2.12132 -2.12132 
C 1.55874 -2.683901 0.795609 -3 0 -3 
C -0.795609 -3 -1.55874 -2.683901 -2.12132 -2.12132 
C -2.683901 -1.55874 -3 -0.795609 -3 0 
C -3 0.795609 -2.683901 1.55874 -2.12132 2.12132 
C -1.55874 2.683901 -0.795609 3 0 3 
z
" id="m373f2d2053" style="stroke:#40b5c4;"/>
    </defs>
    <g clip-path="url(#p5abbabf266)">
     <use style="fill:#40b5c4;stroke:#40b5c4;" x="69.218182" xlink:href="#m373f2d2053" y="44.443636"/>
     <use style="fill:#40b5c4;stroke:#40b5c4;" x="77.337252" xlink:href="#m373f2d2053" y="44.58936"/>
     <use style="fill:#40b5c4;stroke:#40b5c4;" x="85.456322" xlink:href="#m373f2d2053" y="44.834617"/>
     <use style="fill:#40b5c4;stroke:#40b5c4;" x="93.575392" xlink:href="#m373f2d2053" y="45.547621"/>
     <use style="fill:#40b5c4;stroke:#40b5c4;" x="101.694462" xlink:href="#m373f2d2053" y="46.741521"/>
     <use style="fill:#40b5c4;stroke:#40b5c4;" x="109.813532" xlink:href="#m373f2d2053" y="47.807862"/>
     <use style="fill:#40b5c4;stroke:#40b5c4;" x="117.932602" xlink:href="#m373f2d2053" y="48.686891"/>
     <use style="fill:#40b5c4;stroke:#40b5c4;" x="126.051672" xlink:href="#m373f2d2053" y="49.630192"/>
     <use style="fill:#40b5c4;stroke:#40b5c4;" x="134.170742" xlink:href="#m373f2d2053" y="50.994721"/>
     <use style="fill:#40b5c4;stroke:#40b5c4;" x="142.289812" xlink:href="#m373f2d2053" y="53.380632"/>
     <use style="fill:#40b5c4;stroke:#40b5c4;" x="150.408882" xlink:href="#m373f2d2053" y="58.085468"/>
     <use style="fill:#40b5c4;stroke:#40b5c4;" x="158.527952" xlink:href="#m373f2d2053" y="68.204858"/>
     <use style="fill:#40b5c4;stroke:#40b5c4;" x="166.647022" xlink:href="#m373f2d2053" y="85.703648"/>
     <use style="fill:#40b5c4;stroke:#40b5c4;" x="174.766092" xlink:href="#m373f2d2053" y="103.441367"/>
     <use style="fill:#40b5c4;stroke:#40b5c4;" x="182.885162" xlink:href="#m373f2d2053" y="108.728195"/>
     <use style="fill:#40b5c4;stroke:#40b5c4;" x="191.004232" xlink:href="#m373f2d2053" y="110.24757"/>
     <use style="fill:#40b5c4;stroke:#40b5c4;" x="199.123302" xlink:href="#m373f2d2053" y="111.252104"/>
     <use style="fill:#40b5c4;stroke:#40b5c4;" x="207.242372" xlink:href="#m373f2d2053" y="112.043353"/>
     <use style="fill:#40b5c4;stroke:#40b5c4;" x="215.361442" xlink:href="#m373f2d2053" y="112.701946"/>
     <use style="fill:#40b5c4;stroke:#40b5c4;" x="223.480512" xlink:href="#m373f2d2053" y="113.2555"/>
     <use style="fill:#40b5c4;stroke:#40b5c4;" x="231.599582" xlink:href="#m373f2d2053" y="113.724315"/>
     <use style="fill:#40b5c4;stroke:#40b5c4;" x="239.718652" xlink:href="#m373f2d2053" y="114.121542"/>
     <use style="fill:#40b5c4;stroke:#40b5c4;" x="247.837722" xlink:href="#m373f2d2053" y="114.459346"/>
     <use style="fill:#40b5c4;stroke:#40b5c4;" x="255.956792" xlink:href="#m373f2d2053" y="114.743396"/>
     <use style="fill:#40b5c4;stroke:#40b5c4;" x="264.075862" xlink:href="#m373f2d2053" y="114.977311"/>
     <use style="fill:#40b5c4;stroke:#40b5c4;" x="272.194932" xlink:href="#m373f2d2053" y="115.156322"/>
     <use style="fill:#40b5c4;stroke:#40b5c4;" x="280.314002" xlink:href="#m373f2d2053" y="115.283389"/>
     <use style="fill:#40b5c4;stroke:#40b5c4;" x="288.433072" xlink:href="#m373f2d2053" y="115.355388"/>
     <use style="fill:#40b5c4;stroke:#40b5c4;" x="296.552142" xlink:href="#m373f2d2053" y="115.38999"/>
     <use style="fill:#40b5c4;stroke:#40b5c4;" x="304.671212" xlink:href="#m373f2d2053" y="115.431907"/>
     <use style="fill:#40b5c4;stroke:#40b5c4;" x="312.790282" xlink:href="#m373f2d2053" y="115.557576"/>
     <use style="fill:#40b5c4;stroke:#40b5c4;" x="320.909352" xlink:href="#m373f2d2053" y="115.620699"/>
     <use style="fill:#40b5c4;stroke:#40b5c4;" x="329.028422" xlink:href="#m373f2d2053" y="115.653082"/>
     <use style="fill:#40b5c4;stroke:#40b5c4;" x="337.147492" xlink:href="#m373f2d2053" y="115.671164"/>
     <use style="fill:#40b5c4;stroke:#40b5c4;" x="345.266562" xlink:href="#m373f2d2053" y="115.667054"/>
     <use style="fill:#40b5c4;stroke:#40b5c4;" x="353.385632" xlink:href="#m373f2d2053" y="115.670506"/>
     <use style="fill:#40b5c4;stroke:#40b5c4;" x="361.504702" xlink:href="#m373f2d2053" y="115.713574"/>
     <use style="fill:#40b5c4;stroke:#40b5c4;" x="369.623772" xlink:href="#m373f2d2053" y="115.798888"/>
    </g>
   </g>
   <g id="line2d_14">
    <path clip-path="url(#p5abbabf266)" d="M 69.218182 201.646026 
L 69.624135 202.00919 
L 69.725624 201.428309 
L 69.827112 202.173042 
L 69.9286 201.653613 
L 70.131577 202.131531 
L 70.233066 201.580999 
L 70.334554 202.285914 
L 70.537531 201.705033 
L 70.639019 202.08378 
L 70.740507 201.597334 
L 70.841996 202.282026 
L 70.943484 201.693589 
L 71.146461 202.180473 
L 71.247949 201.771345 
L 71.349438 202.418413 
L 71.450926 201.892556 
L 71.552414 201.930149 
L 71.653903 202.018283 
L 71.755391 201.732341 
L 71.85688 202.214491 
L 72.059856 201.918956 
L 72.161345 202.022986 
L 72.262833 201.862394 
L 72.364321 202.161598 
L 72.46581 201.992134 
L 72.668787 202.244057 
L 72.770275 201.922938 
L 72.871763 202.098171 
L 73.07474 201.850888 
L 73.176228 202.242019 
L 73.277717 201.652171 
L 73.480694 202.141281 
L 73.582182 201.814267 
L 73.68367 202.381008 
L 73.785159 201.871989 
L 73.886647 202.170659 
L 73.988135 201.969497 
L 74.089624 201.509733 
L 74.191112 202.307485 
L 74.292601 201.830884 
L 74.394089 201.94802 
L 74.597066 201.607461 
L 74.698554 202.103846 
L 74.800042 201.780813 
L 74.901531 202.130684 
L 75.104508 201.621852 
L 75.205996 202.15793 
L 75.307484 201.573694 
L 75.510461 201.896193 
L 75.611949 201.535506 
L 75.713438 201.958712 
L 75.814926 201.385261 
L 76.017903 201.75131 
L 76.119391 201.658693 
L 76.22088 201.947236 
L 76.423856 201.413636 
L 76.525345 201.690422 
L 76.626833 201.239719 
L 76.728322 201.730774 
L 76.931298 200.977136 
L 77.032787 201.655338 
L 77.134275 201.087562 
L 77.235763 201.634143 
L 77.337252 201.480763 
L 77.43874 200.974126 
L 77.540229 201.508981 
L 77.641717 200.832472 
L 77.743205 201.277343 
L 77.844694 200.85188 
L 78.04767 201.158922 
L 78.149159 200.651094 
L 78.250647 201.022003 
L 78.453624 200.766599 
L 78.555112 201.030374 
L 78.656601 200.638145 
L 78.758089 200.859467 
L 78.961066 200.350197 
L 79.062554 200.741046 
L 79.164043 200.306177 
L 79.265531 200.416446 
L 79.468508 200.089714 
L 79.569996 200.420303 
L 79.874461 200.001392 
L 79.97595 199.640579 
L 80.077438 200.174525 
L 80.280415 199.703317 
L 80.381903 199.88642 
L 80.483391 199.25089 
L 80.58488 199.77706 
L 80.686368 199.340623 
L 80.787857 199.585272 
L 80.990833 199.103593 
L 81.092322 199.603583 
L 81.295298 198.916351 
L 81.396787 199.083966 
L 81.498275 198.740397 
L 81.599764 198.890171 
L 81.701252 198.550584 
L 81.904229 198.695719 
L 82.005717 198.452292 
L 82.107205 198.750304 
L 82.310182 197.922956 
L 82.411671 198.47935 
L 82.513159 197.825165 
L 82.614647 198.315529 
L 82.817624 197.604125 
L 82.919112 198.142742 
L 83.020601 197.67539 
L 83.122089 198.278219 
L 83.325066 197.637045 
L 83.426554 198.020558 
L 83.528043 197.603999 
L 83.629531 197.821371 
L 83.832508 197.483227 
L 83.933996 197.757034 
L 84.035485 197.253533 
L 84.136973 197.729318 
L 84.238461 197.3802 
L 84.441438 197.64225 
L 84.542926 197.135676 
L 84.644415 197.532702 
L 84.847392 196.952479 
L 85.050368 197.320785 
L 85.253345 197.107301 
L 85.354833 196.892908 
L 85.456322 197.50856 
L 85.55781 197.039422 
L 85.760787 197.165932 
L 85.862275 196.565737 
L 85.963764 197.358127 
L 86.065252 196.869268 
L 86.268229 196.947745 
L 86.369717 196.523253 
L 86.471206 197.28429 
L 86.572694 196.684284 
L 86.674182 197.09545 
L 86.877159 196.457882 
L 86.978647 197.077234 
L 87.283113 196.855504 
L 87.384601 196.432235 
L 87.486089 196.901123 
L 87.689066 196.513785 
L 87.790554 196.944265 
L 87.892043 195.970935 
L 87.993531 196.978251 
L 88.196508 196.45506 
L 88.297996 196.953138 
L 88.399485 196.308515 
L 88.500973 196.724667 
L 88.70395 196.180845 
L 88.805438 196.66867 
L 88.906927 196.244805 
L 89.008415 196.753606 
L 89.109903 196.588499 
L 89.211392 196.176581 
L 89.31288 196.700713 
L 89.414368 196.295002 
L 89.515857 196.584392 
L 89.617345 196.253553 
L 89.718834 196.337141 
L 89.820322 196.707171 
L 89.92181 196.404989 
L 90.023299 196.675787 
L 90.226275 196.182789 
L 90.327764 196.612673 
L 90.429252 196.33319 
L 90.530741 196.667165 
L 90.733717 196.132059 
L 90.835206 196.855817 
L 90.936694 196.377273 
L 91.038182 197.006595 
L 91.241159 196.622236 
L 91.342648 196.799538 
L 91.444136 196.563072 
L 91.545624 196.902283 
L 91.748601 196.425933 
L 91.850089 196.93072 
L 91.951578 196.698236 
L 92.053066 196.807878 
L 92.154555 197.261559 
L 92.256043 196.72614 
L 92.357531 197.299434 
L 92.45902 196.651708 
L 92.661996 197.1068 
L 92.763485 196.710119 
L 92.864973 197.570389 
L 92.966462 196.707422 
L 93.169438 197.285168 
L 93.270927 196.933887 
L 93.372415 197.593872 
L 93.473903 196.794051 
L 93.67688 197.063532 
L 93.778369 196.602734 
L 93.879857 197.165587 
L 93.981345 196.977374 
L 94.082834 196.52548 
L 94.184322 196.892594 
L 94.28581 196.600633 
L 94.387299 197.196909 
L 94.590276 196.619194 
L 94.691764 197.067138 
L 94.793252 196.211101 
L 94.894741 197.036537 
L 94.996229 196.481428 
L 95.097717 196.717236 
L 95.300694 196.413141 
L 95.402183 196.687043 
L 95.605159 196.510148 
L 95.706648 196.847634 
L 95.808136 196.278071 
L 95.909624 196.689018 
L 96.112601 196.186018 
L 96.21409 196.96872 
L 96.315578 196.046089 
L 96.417066 196.777434 
L 96.620043 196.188276 
L 96.721531 196.782074 
L 96.82302 196.122402 
L 96.924508 196.632269 
L 97.127485 196.122246 
L 97.228973 196.563386 
L 97.330462 196.46224 
L 97.43195 196.593924 
L 97.634927 196.039473 
L 97.736415 196.584768 
L 97.939392 196.311556 
L 98.04088 196.460798 
L 98.142369 195.826271 
L 98.243857 196.73031 
L 98.345345 196.106757 
L 98.446834 196.596056 
L 98.548322 196.538711 
L 98.649811 196.013701 
L 98.751299 196.59499 
L 98.954276 196.26923 
L 99.055764 196.468197 
L 99.157252 196.090234 
L 99.258741 196.523724 
L 99.360229 196.153662 
L 99.461718 196.222795 
L 99.664694 196.573293 
L 99.766183 196.376081 
L 99.867671 196.447692 
L 100.070648 196.342941 
L 100.273625 196.504441 
L 100.375113 196.248254 
L 100.679578 196.988817 
L 100.781066 196.527016 
L 100.882555 196.699114 
L 101.085532 196.4576 
L 101.288508 196.699114 
L 101.389997 196.416245 
L 101.592973 196.782827 
L 101.694462 196.819291 
L 101.79595 197.042965 
L 101.998927 196.779221 
L 102.100415 196.713787 
L 102.201904 196.901467 
L 102.303392 196.833274 
L 102.40488 196.9891 
L 102.506369 196.789442 
L 102.709346 196.928996 
L 102.810834 196.736048 
L 102.912322 196.789819 
L 103.013811 196.583953 
L 103.115299 196.677668 
L 103.318276 196.293246 
L 103.419764 196.299454 
L 103.521253 196.42308 
L 103.622741 196.173195 
L 103.724229 196.327139 
L 104.028694 195.98865 
L 104.130183 195.958801 
L 104.231671 196.059571 
L 104.33316 195.532711 
L 104.434648 195.872768 
L 104.536136 195.596828 
L 104.637625 196.032481 
L 104.739113 195.444828 
L 104.840601 195.773253 
L 104.94209 195.41429 
L 105.043578 195.579835 
L 105.145067 195.290382 
L 105.246555 195.331047 
L 105.348043 195.289786 
L 105.55102 195.452039 
L 105.652508 195.522929 
L 105.753997 195.249779 
L 105.855485 195.305839 
L 105.956974 195.126843 
L 106.15995 195.247428 
L 106.362927 195.085802 
L 106.464415 195.189299 
L 106.565904 195.516345 
L 106.768881 195.180395 
L 106.971857 195.027391 
L 107.073346 195.186226 
L 107.479299 194.969795 
L 107.580788 195.403097 
L 107.783764 195.085269 
L 108.088229 194.938881 
L 108.189718 195.096337 
L 108.392695 194.755966 
L 108.595671 195.175221 
L 109.103113 194.971551 
L 109.204602 195.057584 
L 109.30609 194.771016 
L 109.407578 194.815569 
L 109.610555 195.111794 
L 109.712043 194.957317 
L 109.813532 195.049589 
L 109.91502 194.80657 
L 110.016509 194.902448 
L 110.219485 194.802839 
L 110.625439 194.911886 
L 110.726927 194.724331 
L 111.031392 194.803874 
L 111.132881 194.683948 
L 111.234369 194.848239 
L 111.640323 194.56584 
L 111.843299 194.791207 
L 112.046276 194.584715 
L 112.249253 194.702697 
L 112.350741 194.577786 
L 112.45223 194.637075 
L 112.756695 194.511568 
L 112.858183 194.48081 
L 113.06116 194.589982 
L 113.264137 194.643314 
L 113.365625 194.384807 
L 113.467113 194.493477 
L 113.568602 194.410548 
L 113.67009 194.591205 
L 113.974555 194.313635 
L 114.27902 194.612149 
L 114.380509 194.375275 
L 114.786462 194.558002 
L 114.887951 194.348092 
L 114.989439 194.492474 
L 115.090927 194.421208 
L 115.192416 194.696301 
L 115.496881 194.492474 
L 115.598369 194.458455 
L 115.801346 194.698496 
L 115.902834 194.379727 
L 116.105811 194.533985 
L 116.207299 194.766375 
L 116.511765 194.422744 
L 116.81623 194.892321 
L 116.917718 194.363894 
L 117.019206 194.603276 
L 117.120695 194.419358 
L 117.222183 194.859588 
L 117.323672 194.60569 
L 117.42516 194.752737 
L 117.526648 194.435097 
L 117.831113 194.710034 
L 118.135579 194.523513 
L 118.237067 194.853318 
L 118.338555 194.640774 
L 118.440044 194.7929 
L 118.541532 194.501503 
L 118.845997 194.745337 
L 119.048974 194.673382 
L 119.251951 194.788981 
L 119.353439 194.857237 
L 119.556416 194.691253 
L 119.860881 194.732827 
L 120.063858 194.660245 
L 120.165346 194.918407 
L 120.266834 194.875046 
L 120.368323 194.95092 
L 120.469811 194.744334 
L 120.5713 194.865326 
L 120.774276 194.819017 
L 120.875765 194.889625 
L 120.977253 194.522385 
L 121.078741 195.109035 
L 121.281718 194.712511 
L 121.383207 195.070219 
L 121.484695 194.681847 
L 121.586183 195.182684 
L 121.687672 194.660997 
L 121.890648 195.154967 
L 121.992137 194.594466 
L 122.093625 195.226829 
L 122.296602 194.928158 
L 122.39809 195.32371 
L 122.499579 194.916934 
L 122.601067 195.425044 
L 122.702555 194.991429 
L 122.804044 195.057051 
L 122.905532 195.426141 
L 123.007021 194.948005 
L 123.108509 195.486967 
L 123.311486 195.061974 
L 123.412974 195.710139 
L 123.514462 195.187951 
L 123.615951 195.620625 
L 123.717439 195.177792 
L 123.818928 195.331925 
L 123.920416 195.69904 
L 124.021904 195.277527 
L 124.123393 195.747763 
L 124.326369 195.370207 
L 124.427858 195.860728 
L 124.529346 195.59131 
L 124.630835 195.871577 
L 124.732323 195.489475 
L 124.833811 195.577985 
L 124.9353 195.975356 
L 125.036788 195.418334 
L 125.138276 196.14877 
L 125.341253 195.685527 
L 125.442742 196.184889 
L 125.54423 195.746916 
L 125.645718 196.146231 
L 125.747207 195.742746 
L 125.848695 195.902052 
L 125.950183 196.292149 
L 126.051672 195.69418 
L 126.15316 196.391977 
L 126.356137 195.96272 
L 126.457625 196.422171 
L 126.559114 196.146952 
L 126.660602 196.308703 
L 126.863579 196.078382 
L 126.965067 196.621326 
L 127.066556 196.091175 
L 127.168044 196.639198 
L 127.371021 196.187084 
L 127.472509 196.771069 
L 127.573997 196.441484 
L 127.675486 196.607782 
L 127.878463 196.344007 
L 127.979951 196.806843 
L 128.081439 196.451298 
L 128.182928 196.808787 
L 128.385904 196.516293 
L 128.487393 196.81882 
L 128.69037 196.626939 
L 128.791858 196.576303 
L 128.893346 196.292713 
L 128.994835 196.737741 
L 129.2993 196.457662 
L 129.603765 196.679173 
L 129.705253 196.460672 
L 130.111207 196.686071 
L 130.314184 196.438976 
L 130.51716 196.571788 
L 130.923114 196.486946 
L 131.024602 196.685224 
L 131.430556 196.452803 
L 131.633532 196.564201 
L 131.836509 196.391413 
L 131.937998 196.408062 
L 132.039486 196.748934 
L 132.242463 196.438129 
L 132.343951 196.474092 
L 132.445439 196.360969 
L 132.648416 196.553603 
L 132.851393 196.365954 
L 132.952881 196.415806 
L 133.05437 196.636909 
L 133.460323 196.454026 
L 133.967765 196.314943 
L 134.069253 196.547333 
L 134.373719 196.424679 
L 134.576695 196.393953 
L 134.678184 196.452207 
L 134.779672 196.225429 
L 134.88116 196.372758 
L 134.982649 196.30168 
L 135.185626 196.465125 
L 135.388602 196.279921 
L 135.693067 196.443365 
L 135.794556 196.12952 
L 136.099021 196.615934 
L 136.301998 196.398405 
L 136.606463 196.37326 
L 136.707951 196.50372 
L 136.80944 196.292023 
L 137.113905 196.626813 
L 137.215393 196.480362 
L 137.621347 196.35219 
L 137.722835 196.643838 
L 137.824323 196.290644 
L 138.128788 196.700399 
L 138.331765 196.552537 
L 138.63623 196.53128 
L 138.737719 196.779033 
L 138.839207 196.379217 
L 139.143672 196.916078 
L 139.448137 196.625841 
L 139.549626 196.79819 
L 139.651114 196.687074 
L 139.752602 196.866634 
L 139.854091 196.67331 
L 139.955579 196.875601 
L 140.057068 196.824213 
L 140.158556 197.196219 
L 140.260044 196.994273 
L 140.361533 197.08341 
L 140.463021 197.012019 
L 140.767486 197.318998 
L 140.868975 197.146493 
L 141.17344 197.646922 
L 141.274928 197.502509 
L 141.376416 197.629709 
L 141.477905 197.537875 
L 141.78237 197.847833 
L 141.883858 197.609172 
L 142.188323 198.303145 
L 142.289812 198.065864 
L 142.594277 198.330171 
L 142.695765 198.169768 
L 142.797254 198.463548 
L 142.898742 198.34033 
L 143.203207 198.842546 
L 143.304696 198.764445 
L 143.609161 199.203923 
L 143.710649 199.113218 
L 143.812137 199.471899 
L 143.913626 199.359278 
L 144.116603 199.786685 
L 144.218091 200.011802 
L 144.319579 199.871151 
L 144.827021 200.159977 
L 144.92851 200.024217 
L 145.029998 200.260527 
L 145.131486 200.117744 
L 145.232975 200.431935 
L 145.435951 200.268522 
L 145.53744 200.482508 
L 145.638928 200.199984 
L 145.841905 200.532359 
L 145.943393 200.448019 
L 146.450835 200.663384 
L 146.653812 200.667178 
L 146.856789 200.983187 
L 146.958277 200.780144 
L 147.059765 200.885428 
L 147.161254 200.815353 
L 147.262742 201.141866 
L 147.364231 200.981055 
L 147.465719 201.165161 
L 147.567207 200.900697 
L 147.668696 201.118539 
L 147.770184 201.038714 
L 147.871672 201.343248 
L 147.973161 201.094178 
L 148.176138 201.28515 
L 148.277626 201.463801 
L 148.480603 201.313776 
L 148.683579 201.439377 
L 148.785068 201.412099 
L 148.886556 201.513245 
L 148.988044 201.37598 
L 149.393998 201.954792 
L 149.495486 201.913218 
L 149.799951 202.081177 
L 149.90144 202.144323 
L 150.104417 202.080738 
L 150.205905 202.175362 
L 150.307393 202.46516 
L 150.408882 202.312062 
L 150.51037 202.458231 
L 150.611858 202.392891 
L 151.1193 202.659017 
L 151.220789 202.688771 
L 151.322277 203.009546 
L 151.423765 202.926084 
L 151.626742 202.998855 
L 151.931207 203.155652 
L 152.235672 203.220334 
L 152.438649 203.608393 
L 152.743114 203.59419 
L 153.047579 203.650877 
L 153.149068 203.647835 
L 153.960975 204.936861 
L 154.062463 204.770469 
L 154.26544 205.161883 
L 154.366928 205.664067 
L 154.468417 205.552575 
L 155.178835 206.413911 
L 155.381812 206.919325 
L 155.4833 206.887878 
L 155.584789 207.09136 
L 155.686277 206.934406 
L 155.889254 207.371627 
L 156.193719 207.645466 
L 156.498184 208.188535 
L 156.599673 208.326803 
L 156.701161 208.247479 
L 156.802649 208.639206 
L 156.904138 208.528091 
L 157.005626 208.624909 
L 157.208603 209.175535 
L 157.41158 209.219805 
L 157.513068 209.213472 
L 157.716045 209.915816 
L 157.817533 209.714497 
L 158.121998 211.032367 
L 158.223487 210.767652 
L 158.426463 211.075948 
L 158.527952 211.181953 
L 158.62944 211.675296 
L 158.730928 211.575593 
L 159.035394 212.460005 
L 159.441347 213.147926 
L 159.644324 213.530843 
L 159.847301 213.999793 
L 160.050277 214.605569 
L 160.557719 215.764478 
L 160.659208 215.55554 
L 160.963673 216.796062 
L 161.065161 216.61136 
L 161.166649 217.095987 
L 161.268138 216.816285 
L 161.572603 217.905935 
L 161.674091 217.616356 
L 161.978556 218.820853 
L 162.283022 219.228947 
L 162.688975 219.956561 
L 162.99344 220.9915 
L 163.094929 220.837524 
L 163.60237 222.062024 
L 163.703859 222.049389 
L 164.312789 223.417707 
L 164.414277 223.520294 
L 164.617254 224.417624 
L 164.718743 224.340589 
L 165.632138 226.929456 
L 165.733626 226.812258 
L 166.038091 227.687828 
L 166.444045 227.573389 
L 166.647022 227.90498 
L 166.74851 227.587121 
L 166.849998 227.92141 
L 166.951487 227.866071 
L 167.052975 228.252813 
L 167.154464 228.006784 
L 167.255952 228.140725 
L 167.35744 228.069115 
L 167.661905 228.316868 
L 167.763394 228.41864 
L 167.864882 228.287584 
L 168.067859 228.696618 
L 168.169347 228.578354 
L 168.473812 228.747661 
L 168.575301 228.6457 
L 168.676789 228.914711 
L 168.778278 228.715399 
L 169.082743 229.250724 
L 169.184231 229.059344 
L 169.387208 229.254517 
L 169.590185 229.248498 
L 169.691673 229.601598 
L 169.793161 229.259847 
L 170.097626 230.036749 
L 170.300603 229.838126 
L 170.50358 229.777019 
L 170.706557 230.178121 
L 170.808045 230.008312 
L 171.011022 230.185928 
L 171.11251 230.628823 
L 171.315487 230.44757 
L 171.924417 230.777626 
L 172.127394 231.388199 
L 172.228882 231.155965 
L 172.330371 231.355717 
L 172.431859 231.300504 
L 172.634836 231.604661 
L 172.837813 231.826485 
L 172.939301 232.10092 
L 173.040789 231.96861 
L 173.142278 232.524408 
L 173.243766 232.387332 
L 173.751208 232.802072 
L 173.852696 232.616869 
L 174.157161 233.037723 
L 174.563115 233.081837 
L 174.766092 233.177527 
L 174.969068 233.215057 
L 175.172045 233.568032 
L 175.273534 233.338024 
L 175.375022 233.541476 
L 175.577999 233.513289 
L 175.679487 233.530972 
L 175.780975 233.745021 
L 175.882464 233.476606 
L 176.186929 233.975937 
L 176.491394 233.81174 
L 176.998836 234.041716 
L 177.100324 234.050527 
L 177.201813 234.346156 
L 177.303301 234.122796 
L 177.506278 234.260656 
L 177.709255 234.228017 
L 177.810743 234.379924 
L 178.01372 234.297308 
L 178.318185 234.54017 
L 178.419673 234.470284 
L 178.62265 234.537756 
L 178.825627 234.75124 
L 178.927115 234.583782 
L 179.23158 234.961056 
L 179.637534 234.945724 
L 179.84051 235.090607 
L 179.941999 235.032541 
L 180.347952 235.382976 
L 180.550929 235.302868 
L 180.652417 235.314908 
L 180.753906 235.49243 
L 180.956883 235.296943 
L 181.159859 235.531151 
L 181.362836 235.65136 
L 181.76879 235.782103 
L 181.870278 235.857664 
L 181.971766 235.732251 
L 182.276231 236.148496 
L 182.682185 236.129026 
L 183.494092 236.553392 
L 183.697069 236.542387 
L 183.900045 236.719909 
L 184.103022 236.665542 
L 184.407487 236.878211 
L 184.610464 236.856923 
L 185.016418 236.981207 
L 185.117906 236.867833 
L 185.320883 237.190364 
L 185.523859 237.042847 
L 185.828325 237.213377 
L 186.031301 237.11358 
L 186.437255 237.404287 
L 186.640232 237.288468 
L 186.944697 237.43749 
L 187.147673 237.283703 
L 187.553627 237.407924 
L 187.756604 237.334589 
L 187.95958 237.383876 
L 188.061069 237.319383 
L 188.264046 237.363904 
L 188.467022 237.42915 
L 188.568511 237.148288 
L 188.669999 237.429997 
L 188.771487 237.32998 
L 188.872976 237.568453 
L 188.974464 237.303267 
L 189.075953 237.403315 
L 189.380418 237.280285 
L 189.481906 237.480664 
L 189.583394 237.238115 
L 189.88786 237.41965 
L 190.699767 237.303267 
L 190.902743 237.512581 
L 191.004232 237.307343 
L 191.10572 237.38513 
L 191.207208 237.224257 
L 191.308697 237.388234 
L 191.410185 237.239463 
L 191.511674 237.32302 
L 191.613162 237.208424 
L 191.917627 237.495839 
L 192.019115 237.2716 
L 192.120604 237.366601 
L 192.323581 237.276899 
L 192.729534 237.353495 
L 192.932511 237.457807 
L 193.135488 237.469126 
L 193.236976 237.321264 
L 193.541441 237.482012 
L 193.744418 237.523586 
L 193.947395 237.653765 
L 194.048883 237.545408 
L 194.150371 237.637367 
L 194.353348 237.568327 
L 194.556325 237.641004 
L 194.657813 237.562339 
L 194.962278 237.852983 
L 195.063767 237.696625 
L 195.165255 237.823292 
L 195.266743 237.624387 
L 195.46972 237.731897 
L 195.875674 237.786577 
L 195.977162 238.007805 
L 196.281627 237.78062 
L 196.484604 237.85267 
L 196.890557 237.907569 
L 196.992046 238.19627 
L 197.093534 237.925817 
L 197.195023 238.051073 
L 197.296511 237.933216 
L 197.803953 238.072487 
L 198.209906 238.110989 
L 198.311395 237.997239 
L 198.514371 238.134692 
L 198.61586 238.048471 
L 199.021813 238.428252 
L 199.123302 238.257346 
L 199.22479 238.464841 
L 199.326278 238.304501 
L 199.529255 238.446092 
L 199.630744 238.446845 
L 200.036697 238.796245 
L 200.138185 238.739151 
L 200.239674 238.823271 
L 200.341162 238.743666 
L 201.051581 239.276388 
L 201.153069 239.110718 
L 201.254558 239.225408 
L 201.356046 239.089805 
L 201.457534 239.311473 
L 201.660511 239.297458 
L 202.167953 239.532074 
L 202.37093 239.618452 
L 203.994744 240.27897 
L 204.096232 240.374378 
L 204.299209 240.287248 
L 204.502186 240.418649 
L 204.908139 240.553437 
L 205.111116 240.697034 
L 205.212604 240.716662 
L 205.314093 240.61699 
L 205.618558 240.850634 
L 205.821534 240.797239 
L 206.126 241.082366 
L 206.227488 240.960182 
L 206.633441 241.203953 
L 206.836418 241.16332 
L 207.140883 241.368777 
L 207.749814 241.288482 
L 207.851302 241.458981 
L 207.95279 241.408721 
L 208.054279 241.609664 
L 208.155767 241.455688 
L 208.358744 241.473466 
L 208.460232 241.448446 
L 208.663209 241.617597 
L 208.866186 241.502844 
L 208.967674 241.581917 
L 209.069162 241.822051 
L 209.170651 241.583641 
L 209.475116 241.636126 
L 209.678093 241.808788 
L 209.779581 241.526672 
L 210.084046 241.993428 
L 210.185535 241.735265 
L 210.287023 241.810387 
L 210.388511 241.687013 
L 210.692976 241.890683 
L 210.794465 241.652932 
L 210.997442 241.888739 
L 211.09893 242.02522 
L 211.301907 241.922914 
L 211.606372 241.888332 
L 211.809349 242.015532 
L 212.215302 241.911878 
L 212.31679 242.04839 
L 212.418279 241.852119 
L 212.722744 242.116364 
L 212.925721 241.964457 
L 213.128697 241.851868 
L 213.230186 241.879929 
L 213.331674 242.036507 
L 213.433163 241.690273 
L 213.737628 242.012553 
L 213.940604 241.856916 
L 214.042093 241.730061 
L 214.346558 241.915672 
L 214.448046 241.524227 
L 214.549535 241.851053 
L 214.651023 241.7004 
L 214.752511 241.938497 
L 215.056977 241.55768 
L 215.158465 241.757526 
L 215.361442 241.703191 
L 215.46293 241.599882 
L 215.767395 241.7801 
L 216.07186 241.538273 
L 216.376325 241.583453 
L 216.477814 241.496887 
L 216.782279 241.715513 
L 216.985256 241.46453 
L 217.086744 241.532567 
L 217.188232 241.454027 
L 217.289721 241.532065 
L 217.492698 241.356299 
L 217.797163 241.458792 
L 218.000139 241.363008 
L 218.101628 241.386366 
L 218.304605 241.198373 
L 218.406093 241.273495 
L 218.60907 241.099328 
L 218.812046 241.013514 
L 218.913535 240.844834 
L 219.218 240.954194 
L 219.420977 240.735379 
L 220.740326 240.231 
L 220.841814 239.958509 
L 221.146279 240.220183 
L 221.247767 239.90223 
L 221.349256 239.95158 
L 221.552233 239.772396 
L 221.755209 239.764464 
L 221.958186 239.593432 
L 222.059674 239.530255 
L 222.161163 239.700347 
L 222.567116 239.337464 
L 222.770093 239.325958 
L 222.97307 239.183112 
L 223.074558 239.188881 
L 223.176047 238.908772 
L 223.277535 239.017756 
L 223.379023 238.907612 
L 223.480512 239.155929 
L 223.683488 238.881651 
L 223.987954 238.703847 
L 224.089442 238.829229 
L 224.19093 238.595992 
L 224.495395 238.924605 
L 224.799861 238.542911 
L 224.901349 238.725136 
L 225.104326 238.628254 
L 225.307302 238.649763 
L 225.713256 238.569624 
L 225.814744 238.535512 
L 226.017721 238.616842 
L 226.220698 238.474341 
L 226.423675 238.529711 
L 226.626651 238.387524 
L 226.829628 238.658259 
L 227.032605 238.47569 
L 227.235582 238.415836 
L 227.438558 238.50165 
L 227.540047 238.136699 
L 227.641535 238.44744 
L 227.743023 238.316635 
L 227.844512 238.591258 
L 227.946 238.31212 
L 228.047489 238.387681 
L 228.250465 238.287413 
L 228.757907 238.312339 
L 228.859396 238.375673 
L 229.062372 238.18053 
L 229.366837 238.19721 
L 229.671303 238.166704 
L 229.772791 238.271737 
L 230.077256 238.098354 
L 230.280233 238.076093 
L 230.381721 238.155385 
L 230.48321 237.897379 
L 230.787675 238.191629 
L 231.09214 237.928889 
L 231.193628 238.022385 
L 231.295117 237.916568 
L 231.396605 238.044959 
L 231.498093 237.789681 
L 231.802558 238.125882 
L 232.005535 237.93052 
L 232.107024 237.784633 
L 232.31 237.846493 
L 232.512977 237.819874 
L 232.817442 237.956856 
L 233.020419 237.772813 
L 233.324884 237.806298 
L 233.527861 237.637555 
L 233.730838 237.865713 
L 234.238279 237.688253 
L 234.339768 237.778551 
L 234.441256 237.56839 
L 234.745721 237.960337 
L 234.84721 237.663233 
L 234.948698 237.708884 
L 235.050186 237.570208 
L 235.354652 237.775666 
L 235.45614 237.453167 
L 235.760605 237.8068 
L 235.862093 237.633166 
L 235.963582 237.68308 
L 236.06507 237.516657 
L 236.268047 237.622725 
L 236.471024 237.517033 
L 236.674 237.643669 
L 236.775489 237.717694 
L 236.978466 237.605199 
L 237.181442 237.568547 
L 237.282931 237.620154 
L 237.485907 237.502768 
L 237.587396 237.515936 
L 237.688884 237.789806 
L 237.891861 237.551522 
L 238.094838 237.535469 
L 238.297814 237.630783 
L 238.399303 237.466084 
L 238.703768 237.813039 
L 238.805256 237.604415 
L 238.906745 237.683174 
L 239.008233 237.498629 
L 239.21121 237.623509 
L 239.414187 237.540925 
L 239.617163 237.73127 
L 239.82014 237.670852 
L 240.327582 237.68609 
L 240.42907 237.724059 
L 240.530559 237.619182 
L 240.632047 237.943124 
L 240.835024 237.835551 
L 241.139489 237.784131 
L 241.240977 237.972251 
L 241.342466 237.714465 
L 241.545442 237.840693 
L 241.646931 238.143126 
L 241.849908 237.944127 
L 241.951396 237.845145 
L 242.255861 238.008464 
L 242.357349 237.904214 
L 242.560326 238.120708 
L 242.763303 238.066028 
L 242.864791 238.108387 
L 242.96628 237.951746 
L 243.169256 238.099451 
L 244.18414 238.270671 
L 244.285629 238.022385 
L 244.590094 238.445591 
L 244.79307 238.272646 
L 244.894559 238.189623 
L 245.199024 238.448161 
L 245.300512 238.143753 
L 245.402001 238.347486 
L 245.503489 238.264369 
L 245.604977 238.531781 
L 245.706466 238.354886 
L 245.807954 238.410067 
L 245.909443 238.308828 
L 246.112419 238.444274 
L 246.315396 238.316854 
L 246.619861 238.537017 
L 246.924326 238.371189 
L 247.127303 238.489893 
L 247.33028 238.449698 
L 247.837722 238.535856 
L 247.93921 238.448005 
L 248.040698 238.555013 
L 248.243675 238.519333 
L 248.54814 238.601197 
L 248.649629 238.668888 
L 248.954094 238.54498 
L 249.157071 238.637723 
L 249.258559 238.487667 
L 249.563024 238.769563 
L 249.766001 238.648916 
L 249.968978 238.616058 
L 250.476419 238.699614 
L 250.577908 238.791887 
L 250.780885 238.622893 
L 251.389815 238.535731 
L 251.491303 238.844215 
L 251.795768 238.576239 
L 252.100233 238.743791 
L 252.201722 238.52783 
L 252.30321 238.64158 
L 252.404699 238.581193 
L 252.506187 238.874753 
L 252.709164 238.660391 
L 252.91214 238.622674 
L 253.013629 238.758652 
L 253.115117 238.503249 
L 253.419582 238.738367 
L 253.622559 238.728271 
L 253.724047 238.550342 
L 254.028513 238.722408 
L 254.130001 238.52319 
L 254.434466 238.859704 
L 254.738931 238.5795 
L 255.043396 238.738931 
L 255.144885 238.507827 
L 255.44935 238.813615 
L 255.753815 238.50096 
L 255.956792 238.663401 
L 256.159768 238.568244 
L 256.464234 238.731124 
L 256.66721 238.519615 
L 256.870187 238.602074 
L 256.971675 238.640733 
L 257.073164 238.504535 
L 257.174652 238.55448 
L 257.276141 238.476568 
L 257.377629 238.93467 
L 257.580606 238.574578 
L 258.189536 238.514787 
L 258.392513 238.640733 
L 258.696978 238.519521 
L 258.899955 238.575205 
L 259.102931 238.45763 
L 259.305908 238.6592 
L 259.610373 238.526795 
L 259.914838 238.631954 
L 260.117815 238.432422 
L 260.219303 238.498076 
L 260.320792 238.732441 
L 260.42228 238.507983 
L 260.523769 238.588122 
L 260.625257 238.394422 
L 260.828234 238.522092 
L 261.03121 238.450795 
L 261.538652 238.467475 
L 261.741629 238.406713 
L 261.843117 238.537455 
L 261.944606 238.319927 
L 262.249071 238.585583 
L 262.655024 238.397683 
L 262.756513 238.488356 
L 262.858001 238.294186 
L 263.060978 238.444211 
L 263.365443 238.457317 
L 263.56842 238.377084 
L 263.771397 238.465343 
L 263.872885 238.270984 
L 264.17735 238.638193 
L 264.278838 238.363163 
L 264.380327 238.436749 
L 264.583304 238.35777 
L 264.887769 238.255935 
L 264.989257 238.405082 
L 265.090745 238.351405 
L 265.192234 238.508799 
L 265.395211 238.301522 
L 265.598187 238.385549 
L 265.699676 238.437219 
L 265.801164 238.243456 
L 266.308606 238.416432 
L 266.410094 238.246059 
L 266.714559 238.460922 
L 266.816048 238.117981 
L 267.120513 238.525228 
L 267.222001 238.319927 
L 267.32349 238.441828 
L 267.424978 238.303404 
L 267.627955 238.387274 
L 267.830932 238.271016 
L 267.93242 238.662147 
L 268.033908 238.296067 
L 268.135397 238.408061 
L 268.338373 238.284498 
L 268.54135 238.419348 
L 268.642839 238.341561 
L 268.744327 238.626091 
L 268.947304 238.376112 
L 269.353257 238.34733 
L 269.454746 238.328079 
L 269.657722 238.58204 
L 269.759211 238.442173 
L 269.860699 238.513251 
L 269.962187 238.357927 
L 270.165164 238.464622 
L 270.266653 238.357018 
L 270.672606 238.610195 
L 270.977071 238.380909 
L 271.180048 238.537393 
L 271.281536 238.359275 
L 271.586001 238.651268 
L 271.68749 238.481333 
L 271.788978 238.526168 
L 271.890467 238.374137 
L 272.093443 238.501995 
L 272.194932 238.330524 
L 272.29642 238.779283 
L 272.397908 238.456909 
L 272.499397 238.576145 
L 272.600885 238.401226 
L 272.803862 238.514536 
L 273.006839 238.418878 
L 273.209815 238.616246 
L 273.412792 238.538647 
L 273.615769 238.528175 
L 273.717257 238.46967 
L 273.818746 238.613236 
L 273.920234 238.368305 
L 274.224699 238.705195 
L 274.427676 238.581569 
L 274.529164 238.448977 
L 274.732141 238.538521 
L 275.138095 238.604677 
L 275.239583 238.695915 
L 275.44256 238.536515 
L 275.645536 238.554135 
L 275.747025 238.626687 
L 275.848513 238.396742 
L 276.152978 238.790915 
L 276.254467 238.502403 
L 276.355955 238.596525 
L 276.457443 238.452614 
L 276.66042 238.577713 
L 276.964885 238.494721 
L 277.066374 238.692309 
L 277.26935 238.501148 
L 277.573816 238.664875 
L 277.675304 238.520462 
L 277.878281 238.525917 
L 277.979769 238.526012 
L 278.081257 238.660203 
L 278.182746 238.410318 
L 278.487211 238.754577 
L 278.690188 238.581758 
L 278.893164 238.558964 
L 279.299118 238.486068 
L 279.502095 238.684753 
L 279.80656 238.476348 
L 280.009537 238.648822 
L 280.111025 238.400912 
L 280.41549 238.705258 
L 280.618467 238.538114 
L 281.227397 238.577901 
L 281.328885 238.706763 
L 281.531862 238.534853 
L 282.039304 238.496163 
L 282.343769 238.671365 
L 282.546746 238.504346 
L 282.648234 238.566677 
L 282.749723 238.493686 
L 282.851211 238.615211 
L 282.952699 238.34595 
L 283.054188 238.521371 
L 283.155676 238.472774 
L 283.257165 238.716138 
L 283.358653 238.510837 
L 283.460141 238.608533 
L 283.56163 238.427092 
L 283.764606 238.543569 
L 283.967583 238.42079 
L 284.373537 238.560688 
L 284.475025 238.415115 
L 284.77949 238.617187 
L 284.880979 238.29798 
L 285.185444 238.637065 
L 285.38842 238.472554 
L 285.997351 238.510053 
L 286.098839 238.69626 
L 286.200327 238.428503 
L 286.301816 238.542691 
L 286.403304 238.3288 
L 286.606281 238.471394 
L 286.707769 238.363821 
L 286.910746 238.517076 
L 287.519676 238.401382 
L 287.621165 238.58483 
L 287.722653 238.25606 
L 287.824141 238.426935 
L 287.92563 238.355764 
L 288.027118 238.709083 
L 288.128607 238.4275 
L 288.230095 238.52203 
L 288.331583 238.337829 
L 288.53456 238.485503 
L 288.737537 238.31582 
L 288.940514 238.613079 
L 289.14349 238.39994 
L 289.447955 238.365514 
L 289.549444 238.457254 
L 289.650932 238.305881 
L 289.955397 238.513031 
L 290.158374 238.364135 
L 290.361351 238.408343 
L 290.462839 238.409911 
L 290.564328 238.29776 
L 290.868793 238.573292 
L 291.071769 238.411792 
L 291.274746 238.336983 
L 291.477723 238.366706 
L 291.6807 238.331371 
L 291.782188 238.563479 
L 291.985165 238.392792 
L 292.188142 238.360122 
L 292.695583 238.384797 
L 292.797072 238.503249 
L 292.89856 238.34294 
L 293.000049 238.399909 
L 293.203025 238.350684 
L 293.304514 238.39276 
L 293.406002 238.24261 
L 293.710467 238.514693 
L 293.811956 238.333032 
L 293.913444 238.387995 
L 294.014932 238.227623 
L 294.116421 238.385706 
L 294.420886 238.249131 
L 294.522374 238.267253 
L 294.623862 238.506823 
L 295.029816 238.250229 
L 295.232793 238.345919 
L 295.334281 238.096159 
L 295.537258 238.377366 
L 295.638746 238.448977 
L 295.841723 238.254242 
L 296.0447 238.29845 
L 296.146188 238.285814 
L 296.247676 238.158458 
L 296.552142 238.508987 
L 296.755118 238.274088 
L 296.958095 238.215458 
L 297.059583 238.289984 
L 297.161072 238.147609 
L 297.465537 238.392666 
L 297.770002 238.193228 
L 298.277444 238.182788 
L 298.480421 238.30309 
L 298.581909 238.162722 
L 298.784886 238.175075 
L 298.886374 238.150055 
L 298.987863 238.240133 
L 299.089351 237.987269 
L 299.190839 238.241418 
L 299.292328 238.152344 
L 299.393816 238.340808 
L 299.596793 238.142844 
L 299.79977 238.153378 
L 299.901258 238.269072 
L 300.002746 238.001754 
L 300.205723 238.189591 
L 300.307211 238.383448 
L 300.510188 238.142906 
L 300.611677 238.070324 
L 300.814653 238.112431 
L 300.916142 238.103057 
L 301.01763 237.969335 
L 301.220607 238.300739 
L 301.423584 238.090641 
L 301.829537 238.022886 
L 302.134002 238.201161 
L 302.235491 238.089888 
L 302.336979 238.15134 
L 302.539956 238.011003 
L 302.742932 238.117479 
L 302.844421 237.865995 
L 303.148886 238.177113 
L 303.351863 238.0137 
L 303.656328 238.086032 
L 303.757816 237.855397 
L 303.960793 237.98821 
L 304.062281 238.269135 
L 304.16377 237.994512 
L 304.265258 238.051449 
L 304.366746 237.870572 
L 304.569723 238.002413 
L 304.7727 237.914592 
L 304.874188 237.96714 
L 304.975677 238.16592 
L 305.178653 237.951213 
L 305.787584 237.887095 
L 305.889072 238.065809 
L 306.396514 237.890011 
L 306.498002 237.928482 
L 306.599491 237.789618 
L 306.700979 237.954066 
L 307.005444 237.799965 
L 307.309909 238.020378 
L 307.512886 237.835457 
L 307.715863 237.798523 
L 307.817351 237.987112 
L 307.91884 237.680885 
L 308.223305 238.024517 
L 308.426281 237.745222 
L 308.730747 237.842574 
L 308.832235 237.58369 
L 309.1367 237.941086 
L 309.238188 237.650535 
L 309.339677 237.793663 
L 309.441165 237.629717 
L 309.644142 237.709856 
L 309.74563 237.55936 
L 310.050095 237.845991 
L 310.253072 237.624951 
L 310.557537 237.595197 
L 310.862002 237.530515 
L 310.963491 237.79846 
L 311.166468 237.593222 
L 311.673909 237.471226 
L 311.775398 237.498723 
L 311.876886 237.66872 
L 312.181351 237.450251 
L 312.993258 237.452258 
L 313.196235 237.337567 
L 313.399212 237.461475 
L 313.5007 237.213158 
L 313.703677 237.412251 
L 314.008142 237.394035 
L 314.10963 237.245514 
L 314.312607 237.361114 
L 314.414096 237.151141 
L 314.617072 237.327064 
L 314.718561 237.432913 
L 314.921537 237.180174 
L 315.226003 237.277746 
L 315.327491 237.050811 
L 315.631956 237.371711 
L 315.834933 237.133709 
L 316.139398 237.189079 
L 316.240886 237.043255 
L 316.342375 237.125306 
L 316.443863 237.056799 
L 316.545351 237.348447 
L 316.748328 237.148131 
L 316.951305 236.993654 
L 317.052793 237.224257 
L 317.25577 236.985283 
L 317.458747 237.272071 
L 317.560235 237.030776 
L 317.661724 237.102951 
L 317.763212 236.865764 
L 317.966189 237.040402 
L 318.270654 236.970672 
L 318.372142 237.206135 
L 318.473631 236.990048 
L 318.575119 237.040402 
L 318.778096 236.888903 
L 318.879584 236.988293 
L 319.184049 236.881817 
L 319.285538 237.172336 
L 319.387026 236.914738 
L 319.488514 236.982461 
L 319.590003 236.819957 
L 319.894468 236.891035 
L 320.097445 236.797351 
L 320.198933 237.114583 
L 320.40191 236.873038 
L 320.604886 236.760166 
L 320.807863 236.860183 
L 320.909352 236.709562 
L 321.112328 237.01325 
L 321.315305 236.794906 
L 321.518282 236.823249 
L 321.61977 236.861343 
L 321.721259 236.693071 
L 322.025724 236.80682 
L 322.127212 236.611364 
L 322.431677 236.923485 
L 322.634654 236.684981 
L 322.939119 236.75631 
L 323.040607 236.575433 
L 323.345073 236.926715 
L 323.548049 236.603463 
L 323.751026 236.681627 
L 323.852514 236.65366 
L 323.954003 236.494855 
L 324.258468 236.815599 
L 324.461445 236.555242 
L 324.867398 236.586658 
L 324.968887 236.618262 
L 325.171863 236.520691 
L 325.37484 236.624909 
L 325.476328 236.304792 
L 325.679305 236.540537 
L 325.780794 236.630991 
L 326.085259 236.441837 
L 326.186747 236.436977 
L 326.288235 236.566654 
L 326.389724 236.254941 
L 326.592701 236.451588 
L 326.694189 236.572768 
L 326.897166 236.343074 
L 326.998654 236.432024 
L 327.100142 236.369474 
L 327.201631 236.444408 
L 327.303119 236.205089 
L 327.404608 236.408164 
L 327.506096 236.325799 
L 327.607584 236.553768 
L 327.810561 236.153043 
L 327.912049 236.582425 
L 328.013538 236.279239 
L 328.115026 236.390386 
L 328.216515 236.157213 
L 328.419491 236.329122 
L 328.622468 236.198975 
L 328.723956 236.264347 
L 328.825445 236.47758 
L 328.926933 236.243904 
L 329.028422 236.301626 
L 329.231398 236.182891 
L 329.332887 236.309621 
L 329.434375 236.069768 
L 329.73884 236.427854 
L 329.941817 236.104539 
L 330.043305 236.245723 
L 330.144794 236.123571 
L 330.246282 236.18797 
L 330.449259 236.06864 
L 330.652236 236.29269 
L 330.753724 236.096419 
L 330.855212 236.155425 
L 331.058189 236.055785 
L 331.159677 236.097673 
L 331.261166 235.963356 
L 331.565631 236.203396 
L 331.870096 235.871835 
L 332.073073 236.077544 
L 332.174561 235.566173 
L 332.377538 235.642957 
L 332.580515 235.471643 
L 332.682003 235.466689 
L 332.88498 234.857966 
L 332.986468 235.234644 
L 333.189445 234.507312 
L 333.392422 234.897032 
L 333.49391 234.306181 
L 333.696887 234.493015 
L 333.899864 233.999264 
L 334.001352 233.978383 
L 334.10284 233.772141 
L 334.305817 234.018515 
L 334.508794 233.219885 
L 334.610282 233.614434 
L 334.813259 232.982447 
L 334.914747 233.12338 
L 335.016236 233.14238 
L 335.117724 232.727389 
L 335.320701 232.972728 
L 335.422189 232.374289 
L 335.625166 232.512212 
L 335.828143 232.150897 
L 335.929631 232.294464 
L 336.132608 231.799522 
L 336.234096 231.983753 
L 336.335585 231.79623 
L 336.437073 231.308091 
L 336.538561 231.638711 
L 336.64005 231.561457 
L 336.741538 231.102602 
L 336.944515 231.376002 
L 337.147492 230.712254 
L 337.24898 230.892724 
L 337.451957 230.67648 
L 337.553445 230.633683 
L 337.756422 230.112091 
L 337.85791 230.317737 
L 337.959399 230.251707 
L 338.060887 229.726666 
L 338.263864 229.950747 
L 338.46684 229.594386 
L 338.568329 229.823955 
L 338.771306 229.198646 
L 338.872794 229.357795 
L 338.974282 228.868967 
L 339.075771 228.912611 
L 339.177259 229.035421 
L 339.380236 228.690755 
L 339.481724 228.75876 
L 339.684701 228.13041 
L 339.786189 228.274917 
L 339.989166 227.817348 
L 340.090654 227.948436 
L 340.192143 227.841866 
L 340.293631 227.473027 
L 340.39512 227.507516 
L 340.496608 227.589975 
L 340.699585 226.895438 
L 340.801073 227.14294 
L 341.00405 226.809844 
L 341.105538 226.785263 
L 341.308515 226.185037 
L 341.410003 226.390745 
L 341.714468 225.815194 
L 341.815957 225.823722 
L 342.018934 225.566688 
L 342.120422 225.552642 
L 342.323399 224.967779 
L 342.424887 225.060584 
L 342.729352 224.612484 
L 342.830841 224.64669 
L 342.932329 224.179371 
L 343.135306 224.251546 
L 343.338282 223.689508 
L 343.439771 223.750208 
L 343.642748 223.438713 
L 343.744236 223.495369 
L 343.947213 222.873195 
L 344.048701 222.990613 
L 344.150189 222.832749 
L 344.251678 222.414936 
L 344.454655 222.490748 
L 344.556143 222.136677 
L 344.75912 222.184584 
L 344.962096 221.552096 
L 345.063585 221.72642 
L 345.266562 221.106942 
L 345.36805 221.210408 
L 345.469538 221.17153 
L 345.672515 220.819402 
L 345.774003 220.871198 
L 345.97698 220.230494 
L 346.078469 220.385379 
L 346.281445 219.920003 
L 346.382934 219.977975 
L 346.484422 219.835318 
L 346.58591 219.371479 
L 346.687399 219.534892 
L 346.890376 219.111999 
L 346.991864 218.906573 
L 347.093352 219.000789 
L 347.194841 218.63032 
L 347.397817 218.722812 
L 347.600794 218.060005 
L 347.702283 218.261543 
L 347.905259 217.634761 
L 348.006748 217.747099 
L 348.108236 217.693705 
L 348.209724 217.330697 
L 348.311213 217.373651 
L 348.412701 217.433943 
L 348.615678 216.763204 
L 348.717166 216.89564 
L 348.920143 216.328303 
L 349.021631 216.412424 
L 349.12312 216.399224 
L 349.224608 215.991475 
L 349.326097 216.037188 
L 349.427585 216.089486 
L 349.630562 215.4258 
L 349.73205 215.584824 
L 349.935027 215.126628 
L 350.036515 215.224607 
L 350.239492 214.651313 
L 350.34098 214.726185 
L 350.442469 214.732612 
L 350.645445 214.14916 
L 350.746934 214.226383 
L 350.949911 213.918463 
L 351.152887 213.699868 
L 351.254376 213.305915 
L 351.355864 213.490585 
L 351.457352 213.38389 
L 351.660329 212.912494 
L 351.761818 212.964948 
L 351.964794 212.598178 
L 352.066283 212.576106 
L 352.269259 212.048588 
L 352.370748 212.154467 
L 352.472236 212.054701 
L 352.675213 211.591959 
L 352.776701 211.681661 
L 352.979678 211.300813 
L 353.081166 211.368975 
L 353.284143 210.822018 
L 353.385632 210.877639 
L 353.994562 209.980811 
L 354.09605 210.100737 
L 354.299027 209.467559 
L 354.400515 209.605011 
L 354.502004 209.467245 
L 354.603492 209.054386 
L 354.70498 209.153274 
L 355.313911 208.125766 
L 355.415399 208.429265 
L 355.821353 207.720024 
L 356.125818 207.31146 
L 356.328794 207.25747 
L 356.531771 206.684521 
L 356.63326 206.806422 
L 356.937725 206.323018 
L 357.039213 206.240277 
L 357.140701 205.929284 
L 357.343678 205.983274 
L 357.546655 205.365302 
L 357.648143 205.499714 
L 358.257074 204.617528 
L 358.358562 204.660231 
L 358.561539 203.994947 
L 358.663027 204.185292 
L 359.170469 203.31615 
L 359.271957 203.271691 
L 359.373446 203.363179 
L 359.576422 202.669176 
L 359.677911 202.862625 
L 359.982376 202.303064 
L 360.185353 202.028472 
L 360.286841 202.023644 
L 360.895771 201.127726 
L 360.99726 201.116438 
L 361.200236 200.789738 
L 362.012143 199.804933 
L 362.21512 199.493909 
L 362.82405 198.725379 
L 362.925539 198.670072 
L 363.331492 198.035953 
L 363.432981 198.048086 
L 363.635957 197.646389 
L 363.940423 197.41657 
L 364.143399 197.005905 
L 364.447864 196.806185 
L 364.650841 196.395175 
L 364.75233 196.398217 
L 365.158283 195.750051 
L 365.259771 195.847717 
L 365.564237 195.178294 
L 365.665725 195.180457 
L 365.97019 194.910569 
L 366.071678 194.54267 
L 366.173167 194.587035 
L 366.477632 194.133855 
L 366.782097 193.87447 
L 367.289539 193.195297 
L 367.391027 193.192569 
L 367.594004 192.841475 
L 367.796981 192.66179 
L 368.304423 192.049367 
L 368.405911 191.957941 
L 368.608888 191.612429 
L 368.913353 191.283565 
L 369.014841 190.939933 
L 369.11633 191.116389 
L 369.522283 190.449694 
L 369.623772 190.477724 
L 369.826748 190.214169 
L 370.131213 189.8326 
L 370.33419 189.498343 
L 370.638655 189.157565 
L 370.740144 189.117715 
L 370.94312 188.735676 
L 371.247586 188.543857 
L 371.450562 188.151409 
L 371.653539 187.834804 
L 371.755027 187.950466 
L 371.958004 187.432197 
L 372.059493 187.512681 
L 372.465446 186.893423 
L 372.566934 186.910668 
L 372.8714 186.26222 
L 373.074376 186.261844 
L 373.581818 185.634121 
L 373.581818 185.634121 
" style="fill:none;stroke:#081d58;stroke-dasharray:5.55,2.4;stroke-dashoffset:0;stroke-width:1.5;"/>
    <defs>
     <path d="M -0 4.242641 
L 4.242641 0 
L 0 -4.242641 
L -4.242641 -0 
z
" id="me10ef37975" style="stroke:#081d58;stroke-linejoin:miter;"/>
    </defs>
    <g clip-path="url(#p5abbabf266)">
     <use style="fill:#081d58;stroke:#081d58;stroke-linejoin:miter;" x="69.218182" xlink:href="#me10ef37975" y="201.646026"/>
     <use style="fill:#081d58;stroke:#081d58;stroke-linejoin:miter;" x="77.337252" xlink:href="#me10ef37975" y="201.480763"/>
     <use style="fill:#081d58;stroke:#081d58;stroke-linejoin:miter;" x="85.456322" xlink:href="#me10ef37975" y="197.50856"/>
     <use style="fill:#081d58;stroke:#081d58;stroke-linejoin:miter;" x="93.575392" xlink:href="#me10ef37975" y="197.077547"/>
     <use style="fill:#081d58;stroke:#081d58;stroke-linejoin:miter;" x="101.694462" xlink:href="#me10ef37975" y="196.819291"/>
     <use style="fill:#081d58;stroke:#081d58;stroke-linejoin:miter;" x="109.813532" xlink:href="#me10ef37975" y="195.049589"/>
     <use style="fill:#081d58;stroke:#081d58;stroke-linejoin:miter;" x="117.932602" xlink:href="#me10ef37975" y="194.6752"/>
     <use style="fill:#081d58;stroke:#081d58;stroke-linejoin:miter;" x="126.051672" xlink:href="#me10ef37975" y="195.69418"/>
     <use style="fill:#081d58;stroke:#081d58;stroke-linejoin:miter;" x="134.170742" xlink:href="#me10ef37975" y="196.459387"/>
     <use style="fill:#081d58;stroke:#081d58;stroke-linejoin:miter;" x="142.289812" xlink:href="#me10ef37975" y="198.065864"/>
     <use style="fill:#081d58;stroke:#081d58;stroke-linejoin:miter;" x="150.408882" xlink:href="#me10ef37975" y="202.312062"/>
     <use style="fill:#081d58;stroke:#081d58;stroke-linejoin:miter;" x="158.527952" xlink:href="#me10ef37975" y="211.181953"/>
     <use style="fill:#081d58;stroke:#081d58;stroke-linejoin:miter;" x="166.647022" xlink:href="#me10ef37975" y="227.90498"/>
     <use style="fill:#081d58;stroke:#081d58;stroke-linejoin:miter;" x="174.766092" xlink:href="#me10ef37975" y="233.177527"/>
     <use style="fill:#081d58;stroke:#081d58;stroke-linejoin:miter;" x="182.885162" xlink:href="#me10ef37975" y="236.303726"/>
     <use style="fill:#081d58;stroke:#081d58;stroke-linejoin:miter;" x="191.004232" xlink:href="#me10ef37975" y="237.307343"/>
     <use style="fill:#081d58;stroke:#081d58;stroke-linejoin:miter;" x="199.123302" xlink:href="#me10ef37975" y="238.257346"/>
     <use style="fill:#081d58;stroke:#081d58;stroke-linejoin:miter;" x="207.242372" xlink:href="#me10ef37975" y="241.356706"/>
     <use style="fill:#081d58;stroke:#081d58;stroke-linejoin:miter;" x="215.361442" xlink:href="#me10ef37975" y="241.703191"/>
     <use style="fill:#081d58;stroke:#081d58;stroke-linejoin:miter;" x="223.480512" xlink:href="#me10ef37975" y="239.155929"/>
     <use style="fill:#081d58;stroke:#081d58;stroke-linejoin:miter;" x="231.599582" xlink:href="#me10ef37975" y="237.915752"/>
     <use style="fill:#081d58;stroke:#081d58;stroke-linejoin:miter;" x="239.718652" xlink:href="#me10ef37975" y="237.746696"/>
     <use style="fill:#081d58;stroke:#081d58;stroke-linejoin:miter;" x="247.837722" xlink:href="#me10ef37975" y="238.535856"/>
     <use style="fill:#081d58;stroke:#081d58;stroke-linejoin:miter;" x="255.956792" xlink:href="#me10ef37975" y="238.663401"/>
     <use style="fill:#081d58;stroke:#081d58;stroke-linejoin:miter;" x="264.075862" xlink:href="#me10ef37975" y="238.354478"/>
     <use style="fill:#081d58;stroke:#081d58;stroke-linejoin:miter;" x="272.194932" xlink:href="#me10ef37975" y="238.330524"/>
     <use style="fill:#081d58;stroke:#081d58;stroke-linejoin:miter;" x="280.314002" xlink:href="#me10ef37975" y="238.615306"/>
     <use style="fill:#081d58;stroke:#081d58;stroke-linejoin:miter;" x="288.433072" xlink:href="#me10ef37975" y="238.414143"/>
     <use style="fill:#081d58;stroke:#081d58;stroke-linejoin:miter;" x="296.552142" xlink:href="#me10ef37975" y="238.508987"/>
     <use style="fill:#081d58;stroke:#081d58;stroke-linejoin:miter;" x="304.671212" xlink:href="#me10ef37975" y="237.905876"/>
     <use style="fill:#081d58;stroke:#081d58;stroke-linejoin:miter;" x="312.790282" xlink:href="#me10ef37975" y="237.538165"/>
     <use style="fill:#081d58;stroke:#081d58;stroke-linejoin:miter;" x="320.909352" xlink:href="#me10ef37975" y="236.709562"/>
     <use style="fill:#081d58;stroke:#081d58;stroke-linejoin:miter;" x="329.028422" xlink:href="#me10ef37975" y="236.301626"/>
     <use style="fill:#081d58;stroke:#081d58;stroke-linejoin:miter;" x="337.147492" xlink:href="#me10ef37975" y="230.712254"/>
     <use style="fill:#081d58;stroke:#081d58;stroke-linejoin:miter;" x="345.266562" xlink:href="#me10ef37975" y="221.106942"/>
     <use style="fill:#081d58;stroke:#081d58;stroke-linejoin:miter;" x="353.385632" xlink:href="#me10ef37975" y="210.877639"/>
     <use style="fill:#081d58;stroke:#081d58;stroke-linejoin:miter;" x="361.504702" xlink:href="#me10ef37975" y="200.391301"/>
     <use style="fill:#081d58;stroke:#081d58;stroke-linejoin:miter;" x="369.623772" xlink:href="#me10ef37975" y="190.477724"/>
    </g>
   </g>
   <g id="patch_3">
    <path d="M 54 252 
L 54 34.56 
" style="fill:none;stroke:#000000;stroke-linecap:square;stroke-linejoin:miter;stroke-width:0.8;"/>
   </g>
   <g id="patch_4">
    <path d="M 388.8 252 
L 388.8 34.56 
" style="fill:none;stroke:#000000;stroke-linecap:square;stroke-linejoin:miter;stroke-width:0.8;"/>
   </g>
   <g id="patch_5">
    <path d="M 54 252 
L 388.8 252 
" style="fill:none;stroke:#000000;stroke-linecap:square;stroke-linejoin:miter;stroke-width:0.8;"/>
   </g>
   <g id="patch_6">
    <path d="M 54 34.56 
L 388.8 34.56 
" style="fill:none;stroke:#000000;stroke-linecap:square;stroke-linejoin:miter;stroke-width:0.8;"/>
   </g>
   <g id="legend_1">
    <g id="patch_7">
     <path d="M 280.085938 71.91625 
L 381.8 71.91625 
Q 383.8 71.91625 383.8 69.91625 
L 383.8 41.56 
Q 383.8 39.56 381.8 39.56 
L 280.085938 39.56 
Q 278.085938 39.56 278.085938 41.56 
L 278.085938 69.91625 
Q 278.085938 71.91625 280.085938 71.91625 
z
" style="fill:#ffffff;opacity:0.8;stroke:#cccccc;stroke-linejoin:miter;"/>
    </g>
    <g id="line2d_15">
     <path d="M 282.085938 47.658437 
L 302.085938 47.658437 
" style="fill:none;stroke:#40b5c4;stroke-dasharray:5.55,2.4;stroke-dashoffset:0;stroke-width:1.5;"/>
    </g>
    <g id="line2d_16">
     <g>
      <use style="fill:#40b5c4;stroke:#40b5c4;" x="292.085938" xlink:href="#m373f2d2053" y="47.658437"/>
     </g>
    </g>
    <g id="text_15">
     <text style="font-family:DejaVu Sans;font-size:10px;font-style:normal;font-weight:normal;text-anchor:start;" transform="rotate(-0, 310.085938, 51.158437)" x="310.085938" y="51.158437">original</text>
    </g>
    <g id="line2d_17">
     <path d="M 282.085938 62.336562 
L 302.085938 62.336562 
" style="fill:none;stroke:#081d58;stroke-dasharray:5.55,2.4;stroke-dashoffset:0;stroke-width:1.5;"/>
    </g>
    <g id="line2d_18">
     <g>
      <use style="fill:#081d58;stroke:#081d58;stroke-linejoin:miter;" x="292.085938" xlink:href="#me10ef37975" y="62.336562"/>
     </g>
    </g>
    <g id="text_16">
     <text style="font-family:DejaVu Sans;font-size:10px;font-style:normal;font-weight:normal;text-anchor:start;" transform="rotate(-0, 310.085938, 65.836562)" x="310.085938" y="65.836562">reconstructed</text>
    </g>
   </g>
  </g>
  <g id="text_17">
   <text style="font-family:DejaVu Sans;font-size:12px;font-style:normal;font-weight:normal;text-anchor:middle;" transform="rotate(-0, 216, 14.878125)" x="216" y="14.878125">Reconstruction of the weight curve</text>
  </g>
 </g>
 <defs>
  <clipPath id="p5abbabf266">
   <rect height="217.44" width="334.8" x="54" y="34.56"/>
  </clipPath>
 </defs>
</svg>
