<?xml version="1.0" encoding="utf-8" standalone="no"?>
<!DOCTYPE svg PUBLIC "-//W3C//DTD SVG 1.1//EN"
  "http://www.w3.org/Graphics/SVG/1.1/DTD/svg11.dtd">
<!-- Created with matplotlib (https://matplotlib.org/) -->
<svg height="288pt" version="1.1" viewBox="0 0 432 288" width="432pt" xmlns="http://www.w3.org/2000/svg" xmlns:xlink="http://www.w3.org/1999/xlink">
 <defs>
  <style type="text/css">
*{stroke-linecap:butt;stroke-linejoin:round;}
  </style>
 </defs>
 <g id="figure_1">
  <g id="patch_1">
   <path d="M 0 288 
L 432 288 
L 432 0 
L 0 0 
z
" style="fill:#ffffff;"/>
  </g>
  <g id="axes_1">
   <g id="patch_2">
    <path d="M 54 252 
L 388.8 252 
L 388.8 34.56 
L 54 34.56 
z
" style="fill:#ffffff;"/>
   </g>
   <g id="PathCollection_1">
    <path clip-path="url(#p053aa24e81)" d="M 69.346638 48.696374 
L 73.589279 44.453734 
L 69.346638 40.211093 
L 65.103997 44.453734 
z
" style="fill:#40b5c4;stroke:#40b5c4;stroke-dasharray:3.7,1.6;stroke-dashoffset:0;"/>
    <path clip-path="url(#p053aa24e81)" d="M 120.031092 124.164331 
L 124.273733 119.92169 
L 120.031092 115.67905 
L 115.788451 119.92169 
z
" style="fill:#40b5c4;stroke:#40b5c4;stroke-dasharray:3.7,1.6;stroke-dashoffset:0;"/>
    <path clip-path="url(#p053aa24e81)" d="M 170.715546 84.609214 
L 174.958187 80.366574 
L 170.715546 76.123933 
L 166.472905 80.366574 
z
" style="fill:#40b5c4;stroke:#40b5c4;stroke-dasharray:3.7,1.6;stroke-dashoffset:0;"/>
    <path clip-path="url(#p053aa24e81)" d="M 221.4 92.431937 
L 225.642641 88.189296 
L 221.4 83.946656 
L 217.157359 88.189296 
z
" style="fill:#40b5c4;stroke:#40b5c4;stroke-dasharray:3.7,1.6;stroke-dashoffset:0;"/>
    <path clip-path="url(#p053aa24e81)" d="M 272.084454 177.485152 
L 276.327095 173.242511 
L 272.084454 168.99987 
L 267.841813 173.242511 
z
" style="fill:#40b5c4;stroke:#40b5c4;stroke-dasharray:3.7,1.6;stroke-dashoffset:0;"/>
    <path clip-path="url(#p053aa24e81)" d="M 373.453362 177.144507 
L 377.696003 172.901866 
L 373.453362 168.659226 
L 369.210721 172.901866 
z
" style="fill:#40b5c4;stroke:#40b5c4;stroke-dasharray:3.7,1.6;stroke-dashoffset:0;"/>
   </g>
   <g id="matplotlib.axis_1">
    <g id="xtick_1">
     <g id="line2d_1">
      <defs>
       <path d="M 0 0 
L 0 3.5 
" id="m3546a47fb3" style="stroke:#000000;stroke-width:0.8;"/>
      </defs>
      <g>
       <use style="stroke:#000000;stroke-width:0.8;" x="69.346638" xlink:href="#m3546a47fb3" y="252"/>
      </g>
     </g>
     <g id="text_1">
      <text style="font-family:DejaVu Sans;font-size:10px;font-style:normal;font-weight:normal;text-anchor:middle;" transform="rotate(-0, 69.346638, 266.598437)" x="69.346638" y="266.598437">5</text>
     </g>
    </g>
    <g id="xtick_2">
     <g id="line2d_2">
      <g>
       <use style="stroke:#000000;stroke-width:0.8;" x="120.031092" xlink:href="#m3546a47fb3" y="252"/>
      </g>
     </g>
     <g id="text_2">
      <text style="font-family:DejaVu Sans;font-size:10px;font-style:normal;font-weight:normal;text-anchor:middle;" transform="rotate(-0, 120.031092, 266.598437)" x="120.031092" y="266.598437">10</text>
     </g>
    </g>
    <g id="xtick_3">
     <g id="line2d_3">
      <g>
       <use style="stroke:#000000;stroke-width:0.8;" x="170.715546" xlink:href="#m3546a47fb3" y="252"/>
      </g>
     </g>
     <g id="text_3">
      <text style="font-family:DejaVu Sans;font-size:10px;font-style:normal;font-weight:normal;text-anchor:middle;" transform="rotate(-0, 170.715546, 266.598437)" x="170.715546" y="266.598437">15</text>
     </g>
    </g>
    <g id="xtick_4">
     <g id="line2d_4">
      <g>
       <use style="stroke:#000000;stroke-width:0.8;" x="221.4" xlink:href="#m3546a47fb3" y="252"/>
      </g>
     </g>
     <g id="text_4">
      <text style="font-family:DejaVu Sans;font-size:10px;font-style:normal;font-weight:normal;text-anchor:middle;" transform="rotate(-0, 221.4, 266.598437)" x="221.4" y="266.598437">20</text>
     </g>
    </g>
    <g id="xtick_5">
     <g id="line2d_5">
      <g>
       <use style="stroke:#000000;stroke-width:0.8;" x="272.084454" xlink:href="#m3546a47fb3" y="252"/>
      </g>
     </g>
     <g id="text_5">
      <text style="font-family:DejaVu Sans;font-size:10px;font-style:normal;font-weight:normal;text-anchor:middle;" transform="rotate(-0, 272.084454, 266.598437)" x="272.084454" y="266.598437">25</text>
     </g>
    </g>
    <g id="xtick_6">
     <g id="line2d_6">
      <g>
       <use style="stroke:#000000;stroke-width:0.8;" x="322.768908" xlink:href="#m3546a47fb3" y="252"/>
      </g>
     </g>
     <g id="text_6">
      <text style="font-family:DejaVu Sans;font-size:10px;font-style:normal;font-weight:normal;text-anchor:middle;" transform="rotate(-0, 322.768908, 266.598437)" x="322.768908" y="266.598437">30</text>
     </g>
    </g>
    <g id="xtick_7">
     <g id="line2d_7">
      <g>
       <use style="stroke:#000000;stroke-width:0.8;" x="373.453362" xlink:href="#m3546a47fb3" y="252"/>
      </g>
     </g>
     <g id="text_7">
      <text style="font-family:DejaVu Sans;font-size:10px;font-style:normal;font-weight:normal;text-anchor:middle;" transform="rotate(-0, 373.453362, 266.598437)" x="373.453362" y="266.598437">35</text>
     </g>
    </g>
    <g id="text_8">
     <text style="font-family:DejaVu Sans;font-size:10px;font-style:normal;font-weight:normal;text-anchor:middle;" transform="rotate(-0, 221.4, 280.276563)" x="221.4" y="280.276563">Additional calamine oxide (\%)</text>
    </g>
   </g>
   <g id="matplotlib.axis_2">
    <g id="ytick_1">
     <g id="line2d_8">
      <defs>
       <path d="M 0 0 
L -3.5 0 
" id="mcc3851ef13" style="stroke:#000000;stroke-width:0.8;"/>
      </defs>
      <g>
       <use style="stroke:#000000;stroke-width:0.8;" x="54" xlink:href="#mcc3851ef13" y="250.877743"/>
      </g>
     </g>
     <g id="text_9">
      <text style="font-family:DejaVu Sans;font-size:10px;font-style:normal;font-weight:normal;text-anchor:end;" transform="rotate(-0, 47, 254.676961)" x="47" y="254.676961">−150</text>
     </g>
    </g>
    <g id="ytick_2">
     <g id="line2d_9">
      <g>
       <use style="stroke:#000000;stroke-width:0.8;" x="54" xlink:href="#mcc3851ef13" y="225.00326"/>
      </g>
     </g>
     <g id="text_10">
      <text style="font-family:DejaVu Sans;font-size:10px;font-style:normal;font-weight:normal;text-anchor:end;" transform="rotate(-0, 47, 228.802479)" x="47" y="228.802479">−100</text>
     </g>
    </g>
    <g id="ytick_3">
     <g id="line2d_10">
      <g>
       <use style="stroke:#000000;stroke-width:0.8;" x="54" xlink:href="#mcc3851ef13" y="199.128778"/>
      </g>
     </g>
     <g id="text_11">
      <text style="font-family:DejaVu Sans;font-size:10px;font-style:normal;font-weight:normal;text-anchor:end;" transform="rotate(-0, 47, 202.927996)" x="47" y="202.927996">−50</text>
     </g>
    </g>
    <g id="ytick_4">
     <g id="line2d_11">
      <g>
       <use style="stroke:#000000;stroke-width:0.8;" x="54" xlink:href="#mcc3851ef13" y="173.254295"/>
      </g>
     </g>
     <g id="text_12">
      <text style="font-family:DejaVu Sans;font-size:10px;font-style:normal;font-weight:normal;text-anchor:end;" transform="rotate(-0, 47, 177.053514)" x="47" y="177.053514">0</text>
     </g>
    </g>
    <g id="ytick_5">
     <g id="line2d_12">
      <g>
       <use style="stroke:#000000;stroke-width:0.8;" x="54" xlink:href="#mcc3851ef13" y="147.379813"/>
      </g>
     </g>
     <g id="text_13">
      <text style="font-family:DejaVu Sans;font-size:10px;font-style:normal;font-weight:normal;text-anchor:end;" transform="rotate(-0, 47, 151.179031)" x="47" y="151.179031">50</text>
     </g>
    </g>
    <g id="ytick_6">
     <g id="line2d_13">
      <g>
       <use style="stroke:#000000;stroke-width:0.8;" x="54" xlink:href="#mcc3851ef13" y="121.50533"/>
      </g>
     </g>
     <g id="text_14">
      <text style="font-family:DejaVu Sans;font-size:10px;font-style:normal;font-weight:normal;text-anchor:end;" transform="rotate(-0, 47, 125.304549)" x="47" y="125.304549">100</text>
     </g>
    </g>
    <g id="ytick_7">
     <g id="line2d_14">
      <g>
       <use style="stroke:#000000;stroke-width:0.8;" x="54" xlink:href="#mcc3851ef13" y="95.630848"/>
      </g>
     </g>
     <g id="text_15">
      <text style="font-family:DejaVu Sans;font-size:10px;font-style:normal;font-weight:normal;text-anchor:end;" transform="rotate(-0, 47, 99.430066)" x="47" y="99.430066">150</text>
     </g>
    </g>
    <g id="ytick_8">
     <g id="line2d_15">
      <g>
       <use style="stroke:#000000;stroke-width:0.8;" x="54" xlink:href="#mcc3851ef13" y="69.756365"/>
      </g>
     </g>
     <g id="text_16">
      <text style="font-family:DejaVu Sans;font-size:10px;font-style:normal;font-weight:normal;text-anchor:end;" transform="rotate(-0, 47, 73.555584)" x="47" y="73.555584">200</text>
     </g>
    </g>
    <g id="ytick_9">
     <g id="line2d_16">
      <g>
       <use style="stroke:#000000;stroke-width:0.8;" x="54" xlink:href="#mcc3851ef13" y="43.881883"/>
      </g>
     </g>
     <g id="text_17">
      <text style="font-family:DejaVu Sans;font-size:10px;font-style:normal;font-weight:normal;text-anchor:end;" transform="rotate(-0, 47, 47.681102)" x="47" y="47.681102">250</text>
     </g>
    </g>
    <g id="text_18">
     <text style="font-family:DejaVu Sans;font-size:10px;font-style:normal;font-weight:normal;text-anchor:middle;" transform="rotate(-90, 13.453125, 143.28)" x="13.453125" y="143.28">Mean squared error</text>
    </g>
   </g>
   <g id="line2d_17">
    <path clip-path="url(#p053aa24e81)" d="M 69.346638 44.453734 
L 79.483529 77.843243 
L 89.62042 100.569115 
L 99.757311 114.147027 
L 109.894201 120.09266 
L 120.031092 119.92169 
L 130.167983 115.149798 
L 140.304874 107.292662 
L 150.441764 97.86596 
L 160.578655 88.385371 
L 170.715546 80.366574 
L 180.852437 75.108776 
L 190.989328 73.045299 
L 201.126218 74.392993 
L 211.263109 79.368709 
L 221.4 88.189296 
L 231.536891 100.877105 
L 241.673782 116.676483 
L 251.810672 134.637279 
L 261.947563 153.809339 
L 272.084454 173.242511 
L 282.221345 191.986643 
L 292.358236 209.091582 
L 302.495126 223.607177 
L 312.632017 234.583273 
L 322.768908 241.06972 
L 332.905799 242.116364 
L 343.042689 236.773053 
L 353.17958 224.089635 
L 363.316471 203.115957 
L 373.453362 172.901866 
" style="fill:none;stroke:#40b5c4;stroke-linecap:square;stroke-width:1.5;"/>
   </g>
   <g id="patch_3">
    <path d="M 54 252 
L 54 34.56 
" style="fill:none;stroke:#000000;stroke-linecap:square;stroke-linejoin:miter;stroke-width:0.8;"/>
   </g>
   <g id="patch_4">
    <path d="M 388.8 252 
L 388.8 34.56 
" style="fill:none;stroke:#000000;stroke-linecap:square;stroke-linejoin:miter;stroke-width:0.8;"/>
   </g>
   <g id="patch_5">
    <path d="M 54 252 
L 388.8 252 
" style="fill:none;stroke:#000000;stroke-linecap:square;stroke-linejoin:miter;stroke-width:0.8;"/>
   </g>
   <g id="patch_6">
    <path d="M 54 34.56 
L 388.8 34.56 
" style="fill:none;stroke:#000000;stroke-linecap:square;stroke-linejoin:miter;stroke-width:0.8;"/>
   </g>
   <g id="legend_1">
    <g id="patch_7">
     <path d="M 249.575 57.238125 
L 381.8 57.238125 
Q 383.8 57.238125 383.8 55.238125 
L 383.8 41.56 
Q 383.8 39.56 381.8 39.56 
L 249.575 39.56 
Q 247.575 39.56 247.575 41.56 
L 247.575 55.238125 
Q 247.575 57.238125 249.575 57.238125 
z
" style="fill:#ffffff;opacity:0.8;stroke:#cccccc;stroke-linejoin:miter;"/>
    </g>
    <g id="PathCollection_2">
     <path d="M 261.575 52.776078 
L 265.817641 48.533437 
L 261.575 44.290797 
L 257.332359 48.533437 
z
" style="fill:#40b5c4;stroke:#40b5c4;stroke-dasharray:3.7,1.6;stroke-dashoffset:0;"/>
    </g>
    <g id="text_19">
     <text style="font-family:DejaVu Sans;font-size:10px;font-style:normal;font-weight:normal;text-anchor:start;" transform="rotate(-0, 279.575, 51.158437)" x="279.575" y="51.158437">reconstruction error</text>
    </g>
   </g>
  </g>
  <g id="text_20">
   <text style="font-family:DejaVu Sans;font-size:12px;font-style:normal;font-weight:normal;text-anchor:middle;" transform="rotate(-0, 216, 14.878125)" x="216" y="14.878125">Evolution of the weight reconstruction error</text>
  </g>
 </g>
 <defs>
  <clipPath id="p053aa24e81">
   <rect height="217.44" width="334.8" x="54" y="34.56"/>
  </clipPath>
 </defs>
</svg>
