<?xml version="1.0" encoding="utf-8" standalone="no"?>
<!DOCTYPE svg PUBLIC "-//W3C//DTD SVG 1.1//EN"
  "http://www.w3.org/Graphics/SVG/1.1/DTD/svg11.dtd">
<!-- Created with matplotlib (https://matplotlib.org/) -->
<svg height="288pt" version="1.1" viewBox="0 0 432 288" width="432pt" xmlns="http://www.w3.org/2000/svg" xmlns:xlink="http://www.w3.org/1999/xlink">
 <defs>
  <style type="text/css">
*{stroke-linecap:butt;stroke-linejoin:round;}
  </style>
 </defs>
 <g id="figure_1">
  <g id="patch_1">
   <path d="M 0 288 
L 432 288 
L 432 0 
L 0 0 
z
" style="fill:#ffffff;"/>
  </g>
  <g id="axes_1">
   <g id="patch_2">
    <path d="M 54 252 
L 388.8 252 
L 388.8 34.56 
L 54 34.56 
z
" style="fill:#ffffff;"/>
   </g>
   <g id="matplotlib.axis_1">
    <g id="xtick_1">
     <g id="line2d_1">
      <defs>
       <path d="M 0 0 
L 0 3.5 
" id="md35264c80b" style="stroke:#000000;stroke-width:0.8;"/>
      </defs>
      <g>
       <use style="stroke:#000000;stroke-width:0.8;" x="69.218182" xlink:href="#md35264c80b" y="252"/>
      </g>
     </g>
     <g id="text_1">
      <text style="font-family:DejaVu Sans;font-size:10px;font-style:normal;font-weight:normal;text-anchor:middle;" transform="rotate(-0, 69.218182, 266.598437)" x="69.218182" y="266.598437">0</text>
     </g>
    </g>
    <g id="xtick_2">
     <g id="line2d_2">
      <g>
       <use style="stroke:#000000;stroke-width:0.8;" x="119.962369" xlink:href="#md35264c80b" y="252"/>
      </g>
     </g>
     <g id="text_2">
      <text style="font-family:DejaVu Sans;font-size:10px;font-style:normal;font-weight:normal;text-anchor:middle;" transform="rotate(-0, 119.962369, 266.598437)" x="119.962369" y="266.598437">500</text>
     </g>
    </g>
    <g id="xtick_3">
     <g id="line2d_3">
      <g>
       <use style="stroke:#000000;stroke-width:0.8;" x="170.706557" xlink:href="#md35264c80b" y="252"/>
      </g>
     </g>
     <g id="text_3">
      <text style="font-family:DejaVu Sans;font-size:10px;font-style:normal;font-weight:normal;text-anchor:middle;" transform="rotate(-0, 170.706557, 266.598437)" x="170.706557" y="266.598437">1000</text>
     </g>
    </g>
    <g id="xtick_4">
     <g id="line2d_4">
      <g>
       <use style="stroke:#000000;stroke-width:0.8;" x="221.450744" xlink:href="#md35264c80b" y="252"/>
      </g>
     </g>
     <g id="text_4">
      <text style="font-family:DejaVu Sans;font-size:10px;font-style:normal;font-weight:normal;text-anchor:middle;" transform="rotate(-0, 221.450744, 266.598437)" x="221.450744" y="266.598437">1500</text>
     </g>
    </g>
    <g id="xtick_5">
     <g id="line2d_5">
      <g>
       <use style="stroke:#000000;stroke-width:0.8;" x="272.194932" xlink:href="#md35264c80b" y="252"/>
      </g>
     </g>
     <g id="text_5">
      <text style="font-family:DejaVu Sans;font-size:10px;font-style:normal;font-weight:normal;text-anchor:middle;" transform="rotate(-0, 272.194932, 266.598437)" x="272.194932" y="266.598437">2000</text>
     </g>
    </g>
    <g id="xtick_6">
     <g id="line2d_6">
      <g>
       <use style="stroke:#000000;stroke-width:0.8;" x="322.939119" xlink:href="#md35264c80b" y="252"/>
      </g>
     </g>
     <g id="text_6">
      <text style="font-family:DejaVu Sans;font-size:10px;font-style:normal;font-weight:normal;text-anchor:middle;" transform="rotate(-0, 322.939119, 266.598437)" x="322.939119" y="266.598437">2500</text>
     </g>
    </g>
    <g id="xtick_7">
     <g id="line2d_7">
      <g>
       <use style="stroke:#000000;stroke-width:0.8;" x="373.683307" xlink:href="#md35264c80b" y="252"/>
      </g>
     </g>
     <g id="text_7">
      <text style="font-family:DejaVu Sans;font-size:10px;font-style:normal;font-weight:normal;text-anchor:middle;" transform="rotate(-0, 373.683307, 266.598437)" x="373.683307" y="266.598437">3000</text>
     </g>
    </g>
    <g id="text_8">
     <text style="font-family:DejaVu Sans;font-size:10px;font-style:normal;font-weight:normal;text-anchor:middle;" transform="rotate(-0, 221.4, 280.276563)" x="221.4" y="280.276563">Time</text>
    </g>
   </g>
   <g id="matplotlib.axis_2">
    <g id="ytick_1">
     <g id="line2d_8">
      <defs>
       <path d="M 0 0 
L -3.5 0 
" id="ma7a34c4fb1" style="stroke:#000000;stroke-width:0.8;"/>
      </defs>
      <g>
       <use style="stroke:#000000;stroke-width:0.8;" x="54" xlink:href="#ma7a34c4fb1" y="247.882781"/>
      </g>
     </g>
     <g id="text_9">
      <text style="font-family:DejaVu Sans;font-size:10px;font-style:normal;font-weight:normal;text-anchor:end;" transform="rotate(-0, 47, 251.682)" x="47" y="251.682">70</text>
     </g>
    </g>
    <g id="ytick_2">
     <g id="line2d_9">
      <g>
       <use style="stroke:#000000;stroke-width:0.8;" x="54" xlink:href="#ma7a34c4fb1" y="211.037976"/>
      </g>
     </g>
     <g id="text_10">
      <text style="font-family:DejaVu Sans;font-size:10px;font-style:normal;font-weight:normal;text-anchor:end;" transform="rotate(-0, 47, 214.837195)" x="47" y="214.837195">72</text>
     </g>
    </g>
    <g id="ytick_3">
     <g id="line2d_10">
      <g>
       <use style="stroke:#000000;stroke-width:0.8;" x="54" xlink:href="#ma7a34c4fb1" y="174.193171"/>
      </g>
     </g>
     <g id="text_11">
      <text style="font-family:DejaVu Sans;font-size:10px;font-style:normal;font-weight:normal;text-anchor:end;" transform="rotate(-0, 47, 177.99239)" x="47" y="177.99239">74</text>
     </g>
    </g>
    <g id="ytick_4">
     <g id="line2d_11">
      <g>
       <use style="stroke:#000000;stroke-width:0.8;" x="54" xlink:href="#ma7a34c4fb1" y="137.348366"/>
      </g>
     </g>
     <g id="text_12">
      <text style="font-family:DejaVu Sans;font-size:10px;font-style:normal;font-weight:normal;text-anchor:end;" transform="rotate(-0, 47, 141.147584)" x="47" y="141.147584">76</text>
     </g>
    </g>
    <g id="ytick_5">
     <g id="line2d_12">
      <g>
       <use style="stroke:#000000;stroke-width:0.8;" x="54" xlink:href="#ma7a34c4fb1" y="100.50356"/>
      </g>
     </g>
     <g id="text_13">
      <text style="font-family:DejaVu Sans;font-size:10px;font-style:normal;font-weight:normal;text-anchor:end;" transform="rotate(-0, 47, 104.302779)" x="47" y="104.302779">78</text>
     </g>
    </g>
    <g id="ytick_6">
     <g id="line2d_13">
      <g>
       <use style="stroke:#000000;stroke-width:0.8;" x="54" xlink:href="#ma7a34c4fb1" y="63.658755"/>
      </g>
     </g>
     <g id="text_14">
      <text style="font-family:DejaVu Sans;font-size:10px;font-style:normal;font-weight:normal;text-anchor:end;" transform="rotate(-0, 47, 67.457974)" x="47" y="67.457974">80</text>
     </g>
    </g>
    <g id="text_15">
     <text style="font-family:DejaVu Sans;font-size:10px;font-style:normal;font-weight:normal;text-anchor:middle;" transform="rotate(-90, 28.195312, 143.28)" x="28.195312" y="143.28">weight (\%)</text>
    </g>
   </g>
   <g id="line2d_14">
    <path clip-path="url(#p5e76b61616)" d="M 69.218182 44.443636 
L 75.104508 44.585673 
L 84.542926 44.899222 
L 89.008415 45.248511 
L 92.45902 45.735231 
L 95.503671 46.361777 
L 99.969159 47.521283 
L 108.595671 49.75721 
L 116.004323 51.393488 
L 124.224881 53.265572 
L 128.588881 54.492504 
L 131.937998 55.649431 
L 134.678184 56.806358 
L 137.41837 58.211435 
L 139.854091 59.711755 
L 141.883858 61.20876 
L 143.812137 62.903436 
L 145.638928 64.799102 
L 147.364231 66.909204 
L 148.886556 69.095943 
L 150.408882 71.657946 
L 151.931207 74.655087 
L 153.859486 79.067805 
L 155.787766 84.107438 
L 157.716045 89.766063 
L 159.644324 96.099501 
L 161.471115 102.833073 
L 163.297905 110.400443 
L 165.226184 119.358889 
L 167.560417 131.330504 
L 172.939301 159.742454 
L 174.157161 164.671736 
L 175.172045 167.910763 
L 176.085441 170.079448 
L 176.897348 171.455418 
L 177.810743 172.570341 
L 179.130092 173.793589 
L 181.058371 175.249143 
L 183.291115 176.655878 
L 186.031301 178.099826 
L 189.075953 179.450925 
L 193.845906 181.255215 
L 199.83372 183.270257 
L 204.705162 184.732075 
L 209.475116 185.946111 
L 214.24507 186.935026 
L 219.420977 187.790009 
L 225.002837 188.511431 
L 232.715954 189.26896 
L 239.921628 189.814079 
L 252.201722 190.439519 
L 262.147583 190.726356 
L 270.672606 190.817179 
L 307.715863 190.707749 
L 373.581818 189.54198 
L 373.581818 189.54198 
" style="fill:none;stroke:#c6e9b4;stroke-dasharray:5.55,2.4;stroke-dashoffset:0;stroke-width:1.5;"/>
    <defs>
     <path d="M 0 3 
C 0.795609 3 1.55874 2.683901 2.12132 2.12132 
C 2.683901 1.55874 3 0.795609 3 0 
C 3 -0.795609 2.683901 -1.55874 2.12132 -2.12132 
C 1.55874 -2.683901 0.795609 -3 0 -3 
C -0.795609 -3 -1.55874 -2.683901 -2.12132 -2.12132 
C -2.683901 -1.55874 -3 -0.795609 -3 0 
C -3 0.795609 -2.683901 1.55874 -2.12132 2.12132 
C -1.55874 2.683901 -0.795609 3 0 3 
z
" id="m156bedd19c" style="stroke:#c6e9b4;"/>
    </defs>
    <g clip-path="url(#p5e76b61616)">
     <use style="fill:#c6e9b4;stroke:#c6e9b4;" x="69.218182" xlink:href="#m156bedd19c" y="44.443636"/>
     <use style="fill:#c6e9b4;stroke:#c6e9b4;" x="77.337252" xlink:href="#m156bedd19c" y="44.643519"/>
     <use style="fill:#c6e9b4;stroke:#c6e9b4;" x="85.456322" xlink:href="#m156bedd19c" y="44.954305"/>
     <use style="fill:#c6e9b4;stroke:#c6e9b4;" x="93.575392" xlink:href="#m156bedd19c" y="45.942851"/>
     <use style="fill:#c6e9b4;stroke:#c6e9b4;" x="101.694462" xlink:href="#m156bedd19c" y="47.99566"/>
     <use style="fill:#c6e9b4;stroke:#c6e9b4;" x="109.813532" xlink:href="#m156bedd19c" y="50.037599"/>
     <use style="fill:#c6e9b4;stroke:#c6e9b4;" x="117.932602" xlink:href="#m156bedd19c" y="51.807439"/>
     <use style="fill:#c6e9b4;stroke:#c6e9b4;" x="126.051672" xlink:href="#m156bedd19c" y="53.747318"/>
     <use style="fill:#c6e9b4;stroke:#c6e9b4;" x="134.170742" xlink:href="#m156bedd19c" y="56.574052"/>
     <use style="fill:#c6e9b4;stroke:#c6e9b4;" x="142.289812" xlink:href="#m156bedd19c" y="61.542758"/>
     <use style="fill:#c6e9b4;stroke:#c6e9b4;" x="150.408882" xlink:href="#m156bedd19c" y="71.657946"/>
     <use style="fill:#c6e9b4;stroke:#c6e9b4;" x="158.527952" xlink:href="#m156bedd19c" y="92.345752"/>
     <use style="fill:#c6e9b4;stroke:#c6e9b4;" x="166.647022" xlink:href="#m156bedd19c" y="126.527415"/>
     <use style="fill:#c6e9b4;stroke:#c6e9b4;" x="174.766092" xlink:href="#m156bedd19c" y="166.718097"/>
     <use style="fill:#c6e9b4;stroke:#c6e9b4;" x="182.885162" xlink:href="#m156bedd19c" y="176.418597"/>
     <use style="fill:#c6e9b4;stroke:#c6e9b4;" x="191.004232" xlink:href="#m156bedd19c" y="180.21398"/>
     <use style="fill:#c6e9b4;stroke:#c6e9b4;" x="199.123302" xlink:href="#m156bedd19c" y="183.041082"/>
     <use style="fill:#c6e9b4;stroke:#c6e9b4;" x="207.242372" xlink:href="#m156bedd19c" y="185.405598"/>
     <use style="fill:#c6e9b4;stroke:#c6e9b4;" x="215.361442" xlink:href="#m156bedd19c" y="187.137856"/>
     <use style="fill:#c6e9b4;stroke:#c6e9b4;" x="223.480512" xlink:href="#m156bedd19c" y="188.332181"/>
     <use style="fill:#c6e9b4;stroke:#c6e9b4;" x="231.599582" xlink:href="#m156bedd19c" y="189.1739"/>
     <use style="fill:#c6e9b4;stroke:#c6e9b4;" x="239.718652" xlink:href="#m156bedd19c" y="189.800999"/>
     <use style="fill:#c6e9b4;stroke:#c6e9b4;" x="247.837722" xlink:href="#m156bedd19c" y="190.254927"/>
     <use style="fill:#c6e9b4;stroke:#c6e9b4;" x="255.956792" xlink:href="#m156bedd19c" y="190.569766"/>
     <use style="fill:#c6e9b4;stroke:#c6e9b4;" x="264.075862" xlink:href="#m156bedd19c" y="190.758595"/>
     <use style="fill:#c6e9b4;stroke:#c6e9b4;" x="272.194932" xlink:href="#m156bedd19c" y="190.818284"/>
     <use style="fill:#c6e9b4;stroke:#c6e9b4;" x="280.314002" xlink:href="#m156bedd19c" y="190.796914"/>
     <use style="fill:#c6e9b4;stroke:#c6e9b4;" x="288.433072" xlink:href="#m156bedd19c" y="190.772044"/>
     <use style="fill:#c6e9b4;stroke:#c6e9b4;" x="296.552142" xlink:href="#m156bedd19c" y="190.81202"/>
     <use style="fill:#c6e9b4;stroke:#c6e9b4;" x="304.671212" xlink:href="#m156bedd19c" y="190.76228"/>
     <use style="fill:#c6e9b4;stroke:#c6e9b4;" x="312.790282" xlink:href="#m156bedd19c" y="190.610479"/>
     <use style="fill:#c6e9b4;stroke:#c6e9b4;" x="320.909352" xlink:href="#m156bedd19c" y="190.463837"/>
     <use style="fill:#c6e9b4;stroke:#c6e9b4;" x="329.028422" xlink:href="#m156bedd19c" y="190.333406"/>
     <use style="fill:#c6e9b4;stroke:#c6e9b4;" x="337.147492" xlink:href="#m156bedd19c" y="190.184553"/>
     <use style="fill:#c6e9b4;stroke:#c6e9b4;" x="345.266562" xlink:href="#m156bedd19c" y="190.024463"/>
     <use style="fill:#c6e9b4;stroke:#c6e9b4;" x="353.385632" xlink:href="#m156bedd19c" y="189.831764"/>
     <use style="fill:#c6e9b4;stroke:#c6e9b4;" x="361.504702" xlink:href="#m156bedd19c" y="189.658778"/>
     <use style="fill:#c6e9b4;stroke:#c6e9b4;" x="369.623772" xlink:href="#m156bedd19c" y="189.557823"/>
    </g>
   </g>
   <g id="line2d_15">
    <path clip-path="url(#p5e76b61616)" d="M 69.218182 77.075125 
L 69.31967 77.19347 
L 69.421159 78.427655 
L 69.522647 77.529669 
L 69.624135 77.905927 
L 69.725624 76.287051 
L 69.827112 78.673901 
L 69.9286 76.744266 
L 70.131577 78.245359 
L 70.233066 76.26133 
L 70.334554 79.037509 
L 70.537531 77.047577 
L 70.639019 78.188014 
L 70.740507 76.458524 
L 70.841996 78.738977 
L 70.943484 77.049685 
L 71.044973 77.452366 
L 71.146461 78.723376 
L 71.247949 76.472439 
L 71.349438 79.312709 
L 71.552414 77.363116 
L 71.653903 78.258711 
L 71.755391 76.70716 
L 71.85688 78.879388 
L 71.958368 77.361569 
L 72.059856 77.474151 
L 72.161345 78.350211 
L 72.262833 77.144558 
L 72.364321 78.919024 
L 72.46581 77.2979 
L 72.567298 77.613719 
L 72.668787 78.905531 
L 72.770275 77.310128 
L 72.871763 78.552886 
L 73.07474 76.995292 
L 73.176228 78.966249 
L 73.277717 76.962543 
L 73.480694 78.4136 
L 73.582182 77.2012 
L 73.68367 79.05564 
L 73.785159 77.202465 
L 73.886647 78.787327 
L 74.089624 76.263298 
L 74.191112 79.318331 
L 74.292601 77.526858 
L 74.495577 77.917452 
L 74.597066 76.890862 
L 74.698554 78.827665 
L 74.800042 77.098738 
L 74.901531 78.162855 
L 75.003019 78.066858 
L 75.104508 76.762538 
L 75.205996 79.006166 
L 75.307484 76.994729 
L 75.408973 77.193329 
L 75.510461 78.157936 
L 75.611949 76.352408 
L 75.713438 78.755281 
L 75.814926 76.67132 
L 76.017903 77.988712 
L 76.119391 76.44714 
L 76.22088 78.746004 
L 76.423856 76.753261 
L 76.525345 77.82525 
L 76.626833 76.045724 
L 76.728322 78.253371 
L 76.931298 76.012975 
L 77.032787 78.185625 
L 77.134275 75.804537 
L 77.235763 78.172272 
L 77.43874 75.82562 
L 77.540229 77.617093 
L 77.641717 75.632783 
L 77.743205 77.473308 
L 77.844694 75.562226 
L 77.946182 76.035463 
L 78.04767 77.370565 
L 78.149159 75.138462 
L 78.250647 77.044766 
L 78.453624 75.430248 
L 78.555112 76.802736 
L 78.656601 75.418019 
L 78.758089 76.698727 
L 78.961066 74.614344 
L 79.062554 76.785026 
L 79.164043 74.58272 
L 79.265531 75.568269 
L 79.367019 75.513173 
L 79.468508 74.314266 
L 79.569996 76.142142 
L 79.671484 74.72791 
L 79.772973 75.76448 
L 79.97595 73.437504 
L 80.077438 75.754641 
L 80.178926 74.263387 
L 80.280415 74.320872 
L 80.381903 74.598322 
L 80.483391 73.154574 
L 80.58488 75.335235 
L 80.686368 73.245932 
L 80.787857 74.205479 
L 80.889345 74.102455 
L 80.990833 72.548233 
L 81.092322 75.267207 
L 81.295298 72.831164 
L 81.396787 73.913834 
L 81.498275 72.370295 
L 81.599764 73.998025 
L 81.701252 72.48372 
L 81.904229 73.501596 
L 82.005717 72.036484 
L 82.107205 74.16233 
L 82.310182 71.91828 
L 82.411671 73.801112 
L 82.513159 71.598384 
L 82.614647 73.69359 
L 82.817624 71.640409 
L 82.919112 73.279665 
L 83.020601 71.108983 
L 83.122089 73.657608 
L 83.325066 71.329649 
L 83.426554 72.828072 
L 83.528043 71.409764 
L 83.629531 72.270644 
L 83.731019 70.916146 
L 83.832508 71.066255 
L 83.933996 72.53966 
L 84.035485 70.418171 
L 84.136973 72.194043 
L 84.33995 70.875386 
L 84.441438 71.903522 
L 84.542926 70.280993 
L 84.644415 71.608082 
L 84.847392 69.526932 
L 84.94888 71.353965 
L 85.050368 70.582054 
L 85.151857 70.600467 
L 85.253345 70.55043 
L 85.354833 69.569238 
L 85.456322 71.26359 
L 85.55781 69.742539 
L 85.760787 70.58599 
L 85.862275 68.698098 
L 85.963764 71.270337 
L 86.065252 69.610701 
L 86.268229 70.13004 
L 86.369717 68.663382 
L 86.471206 71.035193 
L 86.572694 69.052289 
L 86.775671 70.022237 
L 86.877159 68.248614 
L 86.978647 70.756198 
L 87.181624 69.255246 
L 87.283113 69.743241 
L 87.384601 68.313689 
L 87.486089 70.379238 
L 87.587578 68.749962 
L 87.689066 68.784257 
L 87.790554 70.138754 
L 87.892043 67.521399 
L 87.993531 70.619722 
L 88.196508 68.359369 
L 88.297996 70.104319 
L 88.399485 68.005459 
L 88.500973 69.541971 
L 88.70395 67.963434 
L 88.805438 69.420816 
L 88.906927 67.440863 
L 89.008415 69.55195 
L 89.211392 67.504252 
L 89.31288 69.205209 
L 89.414368 67.245636 
L 89.515857 68.989041 
L 89.718834 67.435522 
L 89.820322 68.913283 
L 89.92181 67.207828 
L 90.023299 68.800701 
L 90.226275 67.020472 
L 90.327764 68.217411 
L 90.429252 67.012039 
L 90.530741 68.165407 
L 90.733717 66.042091 
L 90.835206 68.426974 
L 90.936694 66.618916 
L 91.038182 67.87306 
L 91.241159 66.70409 
L 91.342648 67.707349 
L 91.444136 66.643934 
L 91.545624 67.443955 
L 91.748601 65.560702 
L 91.850089 67.64396 
L 92.053066 66.452362 
L 92.154555 67.334325 
L 92.256043 65.849395 
L 92.357531 68.095553 
L 92.45902 65.75382 
L 92.661996 67.018505 
L 92.763485 65.309957 
L 92.864973 67.867297 
L 93.06795 65.367162 
L 93.169438 66.655741 
L 93.270927 64.731165 
L 93.372415 67.204314 
L 93.473903 64.517948 
L 93.67688 65.617203 
L 93.778369 63.75166 
L 93.879857 65.991493 
L 94.082834 63.753206 
L 94.184322 64.970665 
L 94.28581 63.340265 
L 94.387299 65.424929 
L 94.488787 63.328739 
L 94.590276 63.471259 
L 94.691764 64.876777 
L 94.793252 62.018937 
L 94.894741 64.93876 
L 94.996229 62.791832 
L 95.097717 63.232602 
L 95.199206 63.182706 
L 95.300694 62.418104 
L 95.402183 63.419817 
L 95.503671 62.288656 
L 95.605159 62.327167 
L 95.706648 63.541675 
L 95.808136 61.370572 
L 95.909624 63.32115 
L 96.112601 61.037886 
L 96.21409 63.399296 
L 96.315578 60.767464 
L 96.417066 62.531389 
L 96.620043 60.714195 
L 96.721531 62.788318 
L 96.82302 60.422129 
L 96.924508 61.607402 
L 97.025997 61.399526 
L 97.127485 60.197527 
L 97.228973 61.873466 
L 97.330462 60.426345 
L 97.43195 61.474018 
L 97.634927 59.251473 
L 97.736415 61.403461 
L 97.939392 59.927808 
L 98.04088 60.073701 
L 98.142369 58.459323 
L 98.243857 61.290176 
L 98.345345 58.610697 
L 98.548322 59.929776 
L 98.649811 57.751645 
L 98.751299 60.224372 
L 98.954276 58.5757 
L 99.055764 59.293217 
L 99.157252 57.278126 
L 99.258741 59.777558 
L 99.360229 57.560354 
L 99.664694 58.926377 
L 99.766183 57.933519 
L 99.867671 58.152077 
L 100.070648 57.372015 
L 100.172136 57.516361 
L 100.273625 57.957553 
L 100.375113 56.653654 
L 100.476601 57.237647 
L 100.57809 56.97861 
L 100.679578 58.438521 
L 100.781066 56.976783 
L 100.882555 57.467449 
L 101.085532 56.630744 
L 101.18702 56.58633 
L 101.288508 56.905945 
L 101.389997 55.993061 
L 101.592973 56.841291 
L 101.79595 56.96582 
L 101.998927 56.139094 
L 102.100415 55.921801 
L 102.201904 56.500312 
L 102.303392 55.960453 
L 102.40488 56.144295 
L 102.506369 55.732619 
L 102.607857 56.680219 
L 103.013811 55.689891 
L 103.115299 56.30621 
L 103.318276 55.264441 
L 103.724229 56.284144 
L 103.927206 55.718845 
L 104.028694 55.328954 
L 104.231671 56.176622 
L 104.33316 54.56885 
L 104.434648 55.909995 
L 104.536136 55.058813 
L 104.637625 56.867574 
L 104.739113 55.151296 
L 104.840601 56.120823 
L 104.94209 55.192197 
L 105.043578 55.719266 
L 105.145067 55.315601 
L 105.246555 55.41722 
L 105.348043 55.201333 
L 105.652508 56.536575 
L 105.753997 55.399511 
L 105.855485 55.829037 
L 105.956974 55.106601 
L 106.058462 55.775487 
L 106.15995 55.686236 
L 106.362927 55.185029 
L 106.565904 56.639459 
L 106.870369 55.698183 
L 106.971857 55.630297 
L 107.073346 56.142468 
L 107.377811 55.415393 
L 107.479299 55.60809 
L 107.580788 57.346996 
L 107.682276 56.246898 
L 107.783764 56.273462 
L 107.885253 56.023139 
L 107.986741 56.135862 
L 108.088229 55.976195 
L 108.189718 56.534466 
L 108.392695 55.709287 
L 108.595671 57.303566 
L 108.69716 56.695539 
L 108.798648 56.799266 
L 108.900136 56.327855 
L 109.103113 56.622311 
L 109.204602 57.197871 
L 109.30609 55.987439 
L 109.610555 57.706809 
L 109.712043 56.986059 
L 109.813532 57.288386 
L 109.91502 56.754852 
L 110.117997 57.137152 
L 110.219485 56.982124 
L 110.320974 57.319589 
L 110.422462 57.167793 
L 110.625439 58.044695 
L 110.828416 57.32507 
L 110.929904 57.378761 
L 111.031392 57.843144 
L 111.132881 57.714258 
L 111.234369 58.59355 
L 111.437346 57.841598 
L 111.538834 57.890229 
L 111.640323 57.81166 
L 111.843299 58.719203 
L 111.944788 57.85495 
L 112.147764 58.63164 
L 112.249253 59.248662 
L 112.350741 58.662701 
L 112.45223 58.905856 
L 112.553718 58.499661 
L 112.655206 58.552649 
L 113.162648 59.59976 
L 113.264137 59.893795 
L 113.365625 58.983862 
L 113.467113 59.396663 
L 113.568602 59.360541 
L 113.771578 59.755913 
L 113.873067 59.696038 
L 113.974555 59.239526 
L 114.177532 60.644341 
L 114.27902 60.548625 
L 114.380509 59.916564 
L 114.481997 59.940458 
L 114.684974 60.704778 
L 114.786462 60.601613 
L 114.887951 59.73975 
L 114.989439 60.482144 
L 115.090927 60.270895 
L 115.192416 61.581119 
L 115.395392 60.740619 
L 115.496881 60.840551 
L 115.598369 60.668235 
L 115.801346 61.600655 
L 115.902834 60.199635 
L 116.207299 62.195892 
L 116.410276 61.331639 
L 116.511765 60.868099 
L 116.613253 61.172675 
L 116.714741 60.946949 
L 116.81623 62.449166 
L 116.917718 60.49128 
L 117.019206 61.312243 
L 117.120695 60.897194 
L 117.222183 62.720712 
L 117.323672 61.55849 
L 117.42516 61.995887 
L 117.526648 61.0161 
L 117.729625 61.481327 
L 117.831113 61.395169 
L 118.03409 62.012472 
L 118.135579 61.4542 
L 118.237067 62.735611 
L 118.338555 61.890333 
L 118.440044 62.268557 
L 118.541532 61.49988 
L 118.64302 61.905372 
L 118.845997 61.827787 
L 119.048974 62.003336 
L 119.150462 62.736595 
L 119.556416 62.002071 
L 119.657904 62.494846 
L 119.759393 62.079375 
L 119.860881 62.313112 
L 119.962369 62.205871 
L 120.063858 62.267573 
L 120.165346 63.157407 
L 120.368323 62.777917 
L 120.469811 62.461113 
L 120.672788 62.71762 
L 120.774276 62.739827 
L 120.875765 63.19381 
L 120.977253 61.198958 
L 121.078741 64.390046 
L 121.281718 62.193222 
L 121.383207 63.437948 
L 121.484695 62.168906 
L 121.586183 64.217729 
L 121.687672 62.256329 
L 121.890648 64.207047 
L 121.992137 61.215403 
L 122.093625 64.807063 
L 122.296602 62.724086 
L 122.39809 64.064669 
L 122.499579 62.40433 
L 122.601067 64.819572 
L 122.702555 62.581426 
L 122.804044 63.105965 
L 122.905532 64.531863 
L 123.007021 61.958922 
L 123.108509 65.044174 
L 123.311486 62.67925 
L 123.412974 64.946631 
L 123.514462 62.645096 
L 123.615951 64.764054 
L 123.717439 62.927042 
L 123.818928 63.203648 
L 123.920416 65.028432 
L 124.021904 62.518318 
L 124.123393 65.22155 
L 124.326369 63.156142 
L 124.427858 64.738193 
L 124.529346 63.520733 
L 124.630835 65.090415 
L 124.732323 63.107933 
L 124.833811 63.733669 
L 124.9353 65.251066 
L 125.036788 62.404049 
L 125.138276 66.085803 
L 125.341253 63.668453 
L 125.442742 65.28775 
L 125.54423 63.410119 
L 125.645718 65.438281 
L 125.747207 63.456782 
L 125.848695 64.101774 
L 125.950183 65.666397 
L 126.051672 62.867448 
L 126.15316 66.14371 
L 126.356137 63.829104 
L 126.457625 65.688323 
L 126.559114 64.252165 
L 126.660602 65.322185 
L 126.863579 64.304309 
L 126.965067 66.72686 
L 127.066556 64.473955 
L 127.168044 66.980415 
L 127.371021 65.07636 
L 127.472509 67.464616 
L 127.573997 66.010467 
L 127.675486 67.013304 
L 127.878463 66.011732 
L 127.979951 68.007568 
L 128.081439 66.424673 
L 128.182928 68.39802 
L 128.284416 67.176907 
L 128.385904 67.2261 
L 128.487393 68.748275 
L 128.588881 68.00827 
L 128.791858 68.270399 
L 128.893346 67.088921 
L 128.994835 69.427422 
L 129.2993 68.645251 
L 129.603765 70.133273 
L 129.705253 69.222919 
L 130.111207 71.048265 
L 130.314184 70.260472 
L 130.51716 71.081294 
L 130.720137 71.249113 
L 130.821625 71.161971 
L 130.923114 71.46472 
L 131.126091 72.740086 
L 131.227579 72.30283 
L 131.633532 74.726364 
L 131.735021 74.698816 
L 131.836509 74.887296 
L 131.937998 75.384849 
L 132.039486 77.16297 
L 132.242463 76.667384 
L 132.648416 78.906655 
L 132.851393 78.919726 
L 133.155858 81.201725 
L 133.257346 80.538321 
L 133.6633 82.829596 
L 133.764788 82.700569 
L 133.967765 83.183786 
L 134.170742 84.56794 
L 134.475207 85.341818 
L 134.678184 86.50896 
L 134.779672 86.011969 
L 135.185626 88.804592 
L 135.287114 88.275274 
L 135.693067 90.103291 
L 135.794556 89.291323 
L 136.099021 92.046841 
L 136.200509 91.586534 
L 136.403486 92.035878 
L 136.504974 91.658075 
L 136.707951 93.279199 
L 136.80944 92.728236 
L 136.910928 92.966752 
L 137.012416 93.569719 
L 137.113905 94.956403 
L 137.316881 94.529969 
L 137.519858 94.87404 
L 137.621347 94.895966 
L 137.722835 96.256367 
L 137.824323 94.871088 
L 138.128788 97.442905 
L 138.331765 96.971072 
L 138.433254 97.024482 
L 138.63623 97.302353 
L 138.737719 98.670765 
L 138.839207 96.594675 
L 139.143672 99.604451 
L 139.448137 98.482004 
L 139.549626 99.427636 
L 139.651114 99.058688 
L 139.752602 99.664185 
L 139.854091 99.195867 
L 139.955579 100.052249 
L 140.057068 99.853508 
L 140.158556 101.166121 
L 140.260044 100.342488 
L 140.361533 100.427943 
L 140.463021 100.178183 
L 140.767486 100.937303 
L 140.868975 100.303274 
L 140.970463 100.776793 
L 141.17344 101.85356 
L 141.274928 101.251155 
L 141.376416 101.526074 
L 141.477905 101.045809 
L 141.680882 101.931285 
L 141.883858 100.809542 
L 141.985347 102.111051 
L 142.086835 102.064388 
L 142.188323 102.809593 
L 142.3913 101.719193 
L 142.492789 101.837537 
L 142.594277 102.372477 
L 142.695765 101.133232 
L 142.797254 102.16418 
L 142.898742 101.71863 
L 143.00023 102.326517 
L 143.101719 102.25863 
L 143.203207 102.756886 
L 143.406184 101.989895 
L 143.507672 101.904018 
L 143.609161 102.258911 
L 143.710649 101.294445 
L 143.812137 102.169521 
L 143.913626 101.37709 
L 144.015114 102.54901 
L 144.116603 102.010697 
L 144.218091 102.382316 
L 144.319579 101.548844 
L 144.421068 101.733669 
L 144.624044 101.497121 
L 144.725533 101.5428 
L 144.827021 101.744211 
L 144.92851 101.24216 
L 145.029998 101.919619 
L 145.131486 101.023321 
L 145.232975 101.974856 
L 145.435951 101.062254 
L 145.53744 101.694737 
L 145.638928 100.137704 
L 145.841905 101.173711 
L 146.044882 100.653529 
L 146.14637 100.719307 
L 146.247858 100.934633 
L 146.349347 100.851426 
L 146.552324 99.92027 
L 146.653812 100.038334 
L 146.7553 100.195611 
L 146.856789 100.840603 
L 146.958277 99.850978 
L 147.059765 99.887522 
L 147.161254 99.275981 
L 147.262742 100.416699 
L 147.364231 99.476689 
L 147.465719 100.093571 
L 147.567207 98.650245 
L 147.668696 99.361718 
L 147.770184 98.813285 
L 147.871672 100.042832 
L 147.973161 98.636049 
L 148.074649 98.65924 
L 148.176138 98.743571 
L 148.277626 99.314633 
L 148.480603 98.161687 
L 148.582091 98.546236 
L 148.683579 98.457126 
L 148.785068 98.035331 
L 148.886556 98.157048 
L 148.988044 97.415076 
L 149.191021 97.874118 
L 149.29251 97.496033 
L 149.393998 97.756476 
L 149.495486 97.196939 
L 149.596975 97.669615 
L 149.698463 97.125679 
L 149.799951 97.152384 
L 149.90144 96.980771 
L 150.104417 96.197897 
L 150.205905 96.294597 
L 150.307393 97.193847 
L 150.408882 96.359532 
L 150.51037 96.713863 
L 150.814835 95.743353 
L 150.916324 95.776945 
L 151.220789 95.114243 
L 151.322277 96.097121 
L 151.423765 95.523811 
L 151.525254 96.155872 
L 151.626742 95.377637 
L 151.728231 95.53126 
L 151.829719 95.013608 
L 151.931207 95.082057 
L 152.134184 94.871932 
L 152.235672 94.48682 
L 152.438649 95.797325 
L 152.641626 94.650563 
L 152.743114 94.760193 
L 152.844603 94.781979 
L 152.946091 95.09302 
L 153.149068 93.958064 
L 153.352045 95.465763 
L 153.453533 95.366674 
L 153.65651 94.210776 
L 153.960975 95.188173 
L 154.062463 93.992499 
L 154.26544 94.541916 
L 154.366928 95.864087 
L 154.468417 94.892593 
L 154.569905 94.912832 
L 154.671393 94.498767 
L 154.772882 94.722525 
L 154.87437 94.419777 
L 154.975859 94.919298 
L 155.077347 94.117309 
L 155.381812 95.719599 
L 155.4833 95.16709 
L 155.584789 95.407293 
L 155.686277 94.480635 
L 155.787766 95.37581 
L 155.889254 95.249173 
L 155.990742 94.874883 
L 156.092231 95.454238 
L 156.193719 95.108199 
L 156.396696 96.250463 
L 156.498184 95.754035 
L 156.599673 95.916794 
L 156.701161 95.312843 
L 156.802649 96.423623 
L 156.904138 95.436669 
L 157.005626 95.571036 
L 157.208603 97.112186 
L 157.310091 96.341822 
L 157.41158 96.528194 
L 157.513068 95.792124 
L 157.614556 97.119917 
L 157.716045 97.05695 
L 157.817533 96.008574 
L 158.02051 97.007897 
L 158.121998 98.702951 
L 158.223487 97.358011 
L 158.324975 97.630401 
L 158.426463 96.999042 
L 158.527952 97.158287 
L 158.62944 98.087756 
L 158.730928 97.235029 
L 158.933905 99.01076 
L 159.035394 98.70506 
L 159.136882 98.768449 
L 159.23837 98.414399 
L 159.339859 98.704216 
L 159.441347 98.600911 
L 159.542835 99.216247 
L 159.745812 98.715601 
L 159.948789 100.310864 
L 160.050277 100.183524 
L 160.151766 100.142623 
L 160.253254 99.425106 
L 160.557719 100.931962 
L 160.659208 99.762431 
L 160.862184 100.889515 
L 160.963673 102.242467 
L 161.065161 100.876163 
L 161.166649 102.013367 
L 161.268138 100.504544 
L 161.369626 101.820952 
L 161.471115 101.712868 
L 161.572603 102.247105 
L 161.674091 101.069703 
L 161.877068 103.205949 
L 161.978556 103.153102 
L 162.080045 103.115575 
L 162.181533 102.653862 
L 162.283022 103.154788 
L 162.38451 102.949864 
L 162.485998 103.329494 
L 162.587487 103.245866 
L 162.688975 103.476793 
L 162.891952 104.395298 
L 162.99344 105.148656 
L 163.094929 104.339921 
L 163.196417 104.733466 
L 163.297905 104.464028 
L 163.60237 105.915647 
L 163.703859 105.657594 
L 164.008324 107.267333 
L 164.109812 106.301181 
L 164.312789 107.29193 
L 164.414277 106.848911 
L 164.617254 108.62675 
L 164.718743 108.163913 
L 164.820231 108.330608 
L 165.226184 110.066282 
L 165.327673 109.714762 
L 165.53065 110.742757 
L 165.632138 111.847916 
L 165.733626 111.058296 
L 166.13958 113.54044 
L 166.241068 112.857218 
L 166.647022 115.56031 
L 166.74851 114.80625 
L 167.052975 117.914693 
L 167.154464 117.103569 
L 167.458929 119.723032 
L 167.661905 120.10969 
L 167.966371 122.159497 
L 168.270836 123.788352 
L 168.473812 125.116425 
L 168.575301 125.465978 
L 168.879766 127.944749 
L 168.981254 128.494869 
L 169.285719 131.629735 
L 169.488696 132.184072 
L 169.590185 132.585909 
L 169.691673 134.398887 
L 169.793161 133.891916 
L 170.199115 138.455773 
L 170.50358 139.795091 
L 170.706557 142.532758 
L 170.808045 142.439994 
L 171.518464 149.505251 
L 171.924417 152.852913 
L 172.127394 156.021934 
L 172.228882 155.735209 
L 172.533347 157.844188 
L 172.736324 158.563532 
L 172.939301 160.561616 
L 173.040789 160.19576 
L 173.142278 162.356884 
L 173.243766 162.274099 
L 174.25865 172.125654 
L 175.983952 187.147266 
L 176.085441 187.700478 
L 176.288417 190.017614 
L 177.100324 195.38599 
L 177.201813 197.130378 
L 177.303301 196.569154 
L 177.506278 198.184797 
L 177.607766 198.503287 
L 177.709255 198.114381 
L 177.810743 199.328748 
L 177.912231 198.98018 
L 178.115208 199.607181 
L 178.216696 200.964911 
L 178.318185 200.938628 
L 178.419673 200.626041 
L 178.521162 201.143131 
L 178.62265 200.871304 
L 178.825627 202.230861 
L 178.927115 200.987962 
L 179.23158 203.642985 
L 179.434557 203.382683 
L 179.536045 203.740387 
L 179.637534 203.419508 
L 179.84051 204.243844 
L 179.941999 203.834135 
L 180.246464 205.995259 
L 180.347952 205.877758 
L 180.449441 205.560111 
L 180.652417 205.880007 
L 180.753906 206.661053 
L 180.956883 205.93426 
L 181.058371 207.413708 
L 181.159859 207.247716 
L 181.261348 207.964249 
L 181.362836 207.858695 
L 181.565813 207.905358 
L 181.667301 207.831006 
L 181.870278 208.97313 
L 181.971766 208.342896 
L 182.276231 210.04807 
L 182.37772 209.876456 
L 182.479208 209.605894 
L 182.580697 210.056784 
L 182.682185 209.748695 
L 182.885162 210.631219 
L 182.98665 210.24428 
L 183.189627 210.74338 
L 183.291115 211.95845 
L 183.392604 211.472703 
L 183.494092 211.570948 
L 183.59558 211.286472 
L 183.798557 211.913192 
L 183.900045 212.361412 
L 184.001534 211.89745 
L 184.103022 212.142151 
L 184.407487 213.297065 
L 184.508976 213.109147 
L 184.610464 213.430027 
L 184.711952 213.376898 
L 184.813441 213.115331 
L 185.016418 213.826523 
L 185.117906 213.376336 
L 185.320883 214.986497 
L 185.422371 214.877289 
L 185.523859 214.370318 
L 185.625348 214.602931 
L 185.726836 214.521974 
L 185.828325 215.234431 
L 186.031301 214.435815 
L 186.335766 216.27367 
L 186.437255 216.31682 
L 186.640232 215.686726 
L 186.944697 216.284071 
L 187.046185 216.103322 
L 187.249162 216.672837 
L 187.35065 217.481854 
L 187.553627 217.030401 
L 187.655115 216.820136 
L 187.756604 216.924706 
L 188.061069 217.637725 
L 188.162557 217.757335 
L 188.264046 217.611583 
L 188.467022 218.207101 
L 188.568511 217.175451 
L 188.669999 218.149615 
L 188.771487 217.968303 
L 188.872976 219.424139 
L 188.974464 218.419053 
L 189.075953 218.781817 
L 189.278929 218.142166 
L 189.481906 219.45773 
L 189.583394 218.152707 
L 189.786371 219.613181 
L 189.88786 219.475159 
L 189.989348 219.672775 
L 190.192325 219.382535 
L 190.293813 219.509313 
L 190.395301 219.436788 
L 190.49679 219.70721 
L 190.598278 219.595612 
L 190.801255 220.141093 
L 190.902743 220.88419 
L 191.004232 220.03329 
L 191.10572 220.455367 
L 191.207208 219.772285 
L 191.308697 220.479261 
L 191.410185 220.169625 
L 191.511674 220.93507 
L 191.613162 220.129006 
L 191.816139 220.640895 
L 191.917627 221.702061 
L 192.120604 220.797611 
L 192.222092 220.849896 
L 192.526557 221.440635 
L 192.628046 220.670411 
L 192.831022 221.767277 
L 192.932511 221.570083 
L 193.033999 221.812816 
L 193.236976 221.319198 
L 193.338464 221.475211 
L 193.439953 221.923711 
L 193.642929 221.603394 
L 193.845906 222.163914 
L 193.947395 222.569687 
L 194.048883 222.139037 
L 194.150371 222.446986 
L 194.353348 221.802977 
L 194.556325 222.485637 
L 194.657813 221.661442 
L 194.962278 223.618063 
L 195.063767 222.558162 
L 195.165255 222.978834 
L 195.266743 222.122592 
L 195.46972 222.678756 
L 195.571209 222.605106 
L 195.672697 222.681848 
L 195.774185 223.41356 
L 195.875674 222.851634 
L 195.977162 223.743576 
L 196.180139 223.168016 
L 196.383116 222.852337 
L 196.586092 223.246022 
L 196.789069 223.443076 
L 196.890557 223.105049 
L 196.992046 224.616543 
L 197.093534 223.388964 
L 197.195023 223.684966 
L 197.296511 223.350452 
L 197.499488 223.596418 
L 197.600976 223.507449 
L 197.905441 223.953138 
L 198.108418 224.244643 
L 198.311395 223.850255 
L 198.514371 224.153846 
L 198.61586 223.753133 
L 198.818837 224.255606 
L 198.920325 224.208802 
L 199.021813 225.111566 
L 199.123302 223.952998 
L 199.22479 224.875018 
L 199.326278 224.018354 
L 199.427767 224.431015 
L 199.630744 224.126579 
L 199.83372 224.54458 
L 199.935209 224.634955 
L 200.036697 225.088516 
L 200.138185 224.75583 
L 200.239674 225.050567 
L 200.341162 224.383227 
L 200.544139 224.584638 
L 200.747116 224.65154 
L 200.950092 225.077693 
L 201.051581 225.957126 
L 201.153069 224.831587 
L 201.254558 225.136725 
L 201.356046 224.39419 
L 201.457534 225.2933 
L 201.559023 224.705372 
L 201.863488 225.468006 
L 201.964976 225.225132 
L 202.066465 225.904278 
L 202.269441 224.981415 
L 202.37093 225.337995 
L 202.472418 225.162165 
L 202.573906 225.526194 
L 202.776883 225.002639 
L 202.878372 225.742222 
L 202.97986 225.690921 
L 203.182837 225.877573 
L 203.284325 225.079239 
L 203.385813 225.163149 
L 203.487302 225.928453 
L 203.791767 225.283742 
L 203.994744 225.974132 
L 204.096232 226.037521 
L 204.299209 225.576371 
L 204.400697 226.003367 
L 204.806651 225.327313 
L 205.009627 226.542805 
L 205.111116 226.28672 
L 205.212604 226.259031 
L 205.314093 225.603076 
L 205.517069 226.015876 
L 205.618558 226.178776 
L 205.720046 225.512982 
L 205.821534 225.534346 
L 205.923023 226.005194 
L 206.024511 227.10698 
L 206.227488 225.764851 
L 206.328976 226.057339 
L 206.531953 226.030353 
L 206.633441 226.303586 
L 206.73493 225.885444 
L 206.937907 226.281519 
L 207.039395 226.846256 
L 207.34386 225.952488 
L 207.648325 226.670567 
L 207.749814 225.7418 
L 207.851302 226.50584 
L 207.95279 226.156569 
L 208.054279 227.091379 
L 208.155767 226.352638 
L 208.257255 226.871556 
L 208.460232 226.03977 
L 208.663209 226.809432 
L 208.764697 226.020936 
L 208.866186 226.047079 
L 208.967674 226.460161 
L 209.069162 227.82787 
L 209.170651 226.371613 
L 209.272139 226.623903 
L 209.373628 226.250317 
L 209.576604 226.589047 
L 209.678093 227.214361 
L 209.779581 225.788745 
L 209.881069 226.640488 
L 209.982558 226.460442 
L 210.084046 227.880858 
L 210.185535 226.540416 
L 210.287023 226.902618 
L 210.388511 226.099786 
L 210.49 226.688838 
L 210.591488 226.593123 
L 210.692976 227.318932 
L 210.794465 225.817839 
L 210.895953 226.91344 
L 210.997442 226.893903 
L 211.09893 227.488016 
L 211.200418 226.726787 
L 211.301907 226.868745 
L 211.403395 226.598885 
L 211.504883 227.041061 
L 211.606372 226.588765 
L 211.70786 227.067906 
L 211.809349 227.037828 
L 212.012325 226.714559 
L 212.113814 226.854549 
L 212.215302 226.525236 
L 212.31679 227.561805 
L 212.418279 226.367396 
L 212.519767 226.849911 
L 212.621256 226.772467 
L 212.722744 227.839957 
L 212.824232 227.002128 
L 212.925721 227.121738 
L 213.027209 226.542102 
L 213.331674 227.724283 
L 213.433163 226.145465 
L 213.737628 227.798073 
L 213.839116 227.049775 
L 213.940604 227.499822 
L 214.042093 226.731707 
L 214.24507 226.956871 
L 214.346558 227.865116 
L 214.448046 225.783685 
L 214.549535 227.519078 
L 214.651023 226.970082 
L 214.752511 228.234346 
L 215.056977 226.495439 
L 215.158465 227.447818 
L 215.259953 226.870993 
L 215.361442 227.3261 
L 215.46293 226.951811 
L 215.767395 227.796667 
L 215.868884 227.341561 
L 215.970372 227.647823 
L 216.07186 226.795377 
L 216.274837 227.27016 
L 216.376325 227.376558 
L 216.477814 227.076621 
L 216.782279 228.13104 
L 216.985256 227.042185 
L 217.086744 227.823653 
L 217.188232 227.248234 
L 217.289721 227.559416 
L 217.492698 227.005642 
L 217.594186 227.222935 
L 217.695674 227.933565 
L 217.898651 227.389067 
L 218.101628 227.828713 
L 218.203116 227.085756 
L 218.406093 227.913325 
L 218.507581 227.538755 
L 218.710558 227.844314 
L 218.812046 227.584294 
L 218.913535 226.885189 
L 219.218 228.144674 
L 219.319488 227.493638 
L 219.522465 227.639812 
L 219.623953 227.642623 
L 219.725442 227.787672 
L 219.928419 227.233055 
L 220.131395 228.075803 
L 220.232884 228.390499 
L 220.43586 227.561946 
L 220.638837 227.683804 
L 220.740326 228.112066 
L 220.841814 226.841337 
L 221.146279 229.112232 
L 221.247767 227.558573 
L 221.349256 228.11572 
L 221.450744 227.442477 
L 221.552233 227.583029 
L 221.755209 228.150577 
L 221.856698 227.588791 
L 221.958186 227.742414 
L 222.059674 227.652602 
L 222.161163 228.829442 
L 222.465628 227.560962 
L 222.668605 228.242498 
L 222.770093 228.322893 
L 222.871581 227.656116 
L 223.074558 228.362248 
L 223.176047 227.156735 
L 223.277535 228.08255 
L 223.379023 227.793013 
L 223.480512 229.267963 
L 223.582 227.905876 
L 223.683488 228.343835 
L 223.987954 227.86877 
L 224.089442 228.716157 
L 224.19093 227.514158 
L 224.292419 228.236032 
L 224.393907 227.979385 
L 224.495395 229.259952 
L 224.596884 228.361264 
L 224.698372 228.404975 
L 224.799861 227.571785 
L 224.901349 228.700415 
L 225.002837 228.037151 
L 225.104326 228.238562 
L 225.205814 228.072711 
L 225.510279 229.047859 
L 225.611768 228.335121 
L 225.713256 228.373351 
L 225.814744 228.213825 
L 225.916233 228.842092 
L 226.017721 228.718687 
L 226.220698 228.098573 
L 226.423675 228.682144 
L 226.626651 227.961394 
L 226.829628 229.439718 
L 226.931116 228.600905 
L 227.032605 228.677224 
L 227.134093 228.428869 
L 227.438558 229.044486 
L 227.540047 227.450488 
L 227.641535 229.041253 
L 227.743023 228.288599 
L 227.844512 229.793908 
L 227.946 228.692123 
L 228.047489 228.970977 
L 228.148977 228.382347 
L 228.351954 228.608213 
L 228.55493 228.595283 
L 228.859396 229.458271 
L 228.960884 228.532175 
L 229.163861 228.900702 
L 229.265349 228.747922 
L 229.468326 228.92066 
L 229.569814 228.461196 
L 229.772791 229.57029 
L 229.874279 229.095085 
L 229.975768 229.216662 
L 230.178744 228.772237 
L 230.381721 229.470217 
L 230.48321 228.245028 
L 230.787675 229.778869 
L 230.889163 229.212305 
L 230.990651 229.343721 
L 231.09214 228.81117 
L 231.193628 229.339504 
L 231.295117 228.885944 
L 231.396605 229.599103 
L 231.498093 228.354658 
L 231.802558 230.264616 
L 231.904047 229.372815 
L 232.005535 229.386449 
L 232.107024 228.752279 
L 232.208512 229.243367 
L 232.31 229.186162 
L 232.411489 229.101691 
L 232.614465 229.62117 
L 232.715954 229.389681 
L 232.817442 230.029895 
L 233.020419 229.170842 
L 233.223396 229.566917 
L 233.324884 229.614002 
L 233.527861 228.850946 
L 233.730838 230.041701 
L 234.035303 229.457708 
L 234.136791 229.593341 
L 234.238279 229.387854 
L 234.339768 229.920967 
L 234.441256 228.955376 
L 234.644233 229.66699 
L 234.745721 231.076303 
L 234.84721 229.647453 
L 234.948698 229.832841 
L 235.050186 229.243929 
L 235.354652 230.348525 
L 235.45614 229.016657 
L 235.760605 230.670248 
L 235.862093 229.899181 
L 235.963582 230.101154 
L 236.06507 229.40964 
L 236.268047 230.055897 
L 236.471024 229.531639 
L 236.674 230.257026 
L 236.775489 230.550498 
L 236.876977 230.133341 
L 236.978466 230.269254 
L 237.181442 230.009796 
L 237.282931 230.311841 
L 237.485907 229.790254 
L 237.587396 229.866855 
L 237.688884 231.250446 
L 237.891861 230.15611 
L 237.993349 230.491186 
L 238.094838 230.063908 
L 238.196326 230.184502 
L 238.297814 230.530118 
L 238.399303 229.793908 
L 238.60228 230.299473 
L 238.703768 231.556568 
L 238.805256 230.532508 
L 238.906745 230.898083 
L 239.008233 229.880488 
L 239.21121 230.543752 
L 239.414187 230.20952 
L 239.617163 231.025985 
L 239.718652 230.970467 
L 239.921628 230.509738 
L 240.124605 230.652398 
L 240.226094 230.878406 
L 240.327582 230.59688 
L 240.42907 230.659004 
L 240.530559 230.179442 
L 240.632047 231.690654 
L 240.733535 230.946292 
L 240.936512 231.090077 
L 241.038001 230.483736 
L 241.139489 230.719723 
L 241.240977 231.560925 
L 241.342466 230.354429 
L 241.545442 230.853528 
L 241.646931 232.298541 
L 241.748419 231.193523 
L 241.849908 231.204486 
L 241.951396 230.639327 
L 242.052884 231.026266 
L 242.154373 230.728437 
L 242.255861 231.317349 
L 242.357349 230.896115 
L 242.560326 231.728182 
L 242.661815 231.179186 
L 242.864791 231.535345 
L 242.96628 230.72914 
L 243.169256 231.437099 
L 243.270745 231.46029 
L 243.372233 230.929567 
L 243.676698 231.851586 
L 243.778187 231.250868 
L 243.879675 231.754887 
L 243.981163 231.358812 
L 244.18414 231.843434 
L 244.285629 230.629348 
L 244.590094 232.656386 
L 244.79307 231.599296 
L 244.894559 231.214043 
L 245.199024 232.45104 
L 245.300512 231.012211 
L 245.402001 231.918348 
L 245.503489 231.395917 
L 245.604977 232.690399 
L 245.706466 231.787635 
L 245.807954 232.045548 
L 245.909443 231.586927 
L 246.112419 232.17092 
L 246.315396 231.582992 
L 246.619861 232.558843 
L 246.72135 232.400581 
L 246.924326 231.670837 
L 247.025815 232.359119 
L 247.228791 231.833314 
L 247.533257 232.493205 
L 247.634745 232.850347 
L 247.93921 231.910337 
L 248.040698 232.497141 
L 248.142187 232.123976 
L 248.54814 232.68295 
L 248.649629 232.941425 
L 248.852605 232.418432 
L 248.954094 232.353497 
L 249.157071 232.819707 
L 249.258559 232.13775 
L 249.461536 232.599041 
L 249.563024 233.377135 
L 249.664512 232.750134 
L 249.766001 232.962929 
L 249.867489 232.600446 
L 249.968978 232.8332 
L 250.070466 232.741279 
L 250.171954 232.279707 
L 250.476419 233.330894 
L 250.577908 233.683819 
L 250.679396 232.715699 
L 250.780885 232.922731 
L 250.983861 232.906568 
L 251.08535 233.03714 
L 251.186838 232.842898 
L 251.288326 232.921326 
L 251.389815 232.555751 
L 251.491303 233.978556 
L 251.795768 232.807338 
L 251.897257 233.329348 
L 251.998745 233.138478 
L 252.100233 233.683538 
L 252.201722 232.624902 
L 252.30321 233.263569 
L 252.404699 232.865386 
L 252.506187 234.37941 
L 252.709164 233.403981 
L 252.810652 232.988369 
L 252.91214 233.231945 
L 253.013629 233.984319 
L 253.115117 232.626448 
L 253.318094 233.836177 
L 253.521071 233.976167 
L 253.622559 233.886635 
L 253.724047 233.175443 
L 253.825536 233.339046 
L 254.028513 234.176031 
L 254.130001 233.120066 
L 254.231489 233.643059 
L 254.332978 233.388098 
L 254.434466 234.777734 
L 254.637443 233.896333 
L 254.84042 233.682414 
L 254.941908 233.743694 
L 255.043396 234.328671 
L 255.144885 233.238692 
L 255.246373 234.053189 
L 255.347861 233.899004 
L 255.44935 234.800925 
L 255.753815 233.376151 
L 255.855303 234.35144 
L 255.956792 234.285381 
L 256.05828 233.792606 
L 256.159768 233.902377 
L 256.362745 234.510123 
L 256.464234 234.740909 
L 256.565722 234.576604 
L 256.66721 233.822122 
L 256.768699 234.405271 
L 256.870187 234.326984 
L 256.971675 234.504642 
L 257.073164 233.884808 
L 257.174652 234.191492 
L 257.276141 234.013273 
L 257.377629 236.059285 
L 257.580606 234.383205 
L 257.783582 234.423403 
L 257.986559 234.777453 
L 258.189536 234.305339 
L 258.291024 235.08498 
L 258.392513 235.051529 
L 258.494001 234.604855 
L 258.595489 234.885396 
L 258.696978 234.619332 
L 258.798466 234.960592 
L 259.001443 234.745828 
L 259.102931 234.344413 
L 259.305908 235.604459 
L 259.508885 234.949066 
L 259.610373 234.912804 
L 259.711862 235.037052 
L 259.81335 234.50689 
L 259.914838 235.455053 
L 260.117815 234.665995 
L 260.219303 234.992497 
L 260.320792 236.08852 
L 260.42228 235.076406 
L 260.523769 235.548098 
L 260.625257 234.680472 
L 260.726745 235.44662 
L 260.828234 235.371987 
L 260.929722 235.020607 
L 261.132699 235.145839 
L 261.335676 235.984511 
L 261.741629 235.186177 
L 261.843117 235.676422 
L 261.944606 234.84801 
L 262.046094 235.664334 
L 262.147583 235.477541 
L 262.249071 236.108618 
L 262.553536 235.195735 
L 262.655024 235.463767 
L 262.756513 236.090066 
L 262.858001 235.091024 
L 263.060978 235.807697 
L 263.162466 236.089925 
L 263.263955 235.966521 
L 263.365443 236.084303 
L 263.56842 235.693007 
L 263.669908 235.849019 
L 263.771397 236.256198 
L 263.872885 235.249144 
L 264.17735 237.150388 
L 264.278838 235.99196 
L 264.380327 236.212065 
L 264.481815 235.791253 
L 264.78628 236.218952 
L 264.887769 235.692726 
L 264.989257 236.502304 
L 265.090745 236.143335 
L 265.192234 236.889946 
L 265.395211 236.00967 
L 265.496699 235.976359 
L 265.699676 236.926911 
L 265.801164 235.906927 
L 266.004141 236.361893 
L 266.207118 236.924943 
L 266.308606 236.923678 
L 266.410094 236.039608 
L 266.714559 237.116796 
L 266.816048 235.42638 
L 267.019025 237.112439 
L 267.120513 237.385953 
L 267.222001 236.407994 
L 267.32349 237.339571 
L 267.424978 236.505818 
L 267.627955 236.901893 
L 267.830932 236.334766 
L 267.93242 238.270867 
L 268.033908 236.602517 
L 268.135397 237.085734 
L 268.338373 236.520576 
L 268.54135 237.126073 
L 268.642839 236.946588 
L 268.744327 238.125536 
L 268.947304 236.953054 
L 269.048792 237.132398 
L 269.15028 236.852137 
L 269.251769 237.710487 
L 269.454746 236.909904 
L 269.556234 237.167536 
L 269.657722 238.035724 
L 269.759211 237.32158 
L 269.860699 237.742955 
L 269.962187 237.111034 
L 270.165164 237.562627 
L 270.266653 236.947572 
L 270.368141 237.523132 
L 270.469629 237.274355 
L 270.571118 237.639508 
L 270.672606 238.483381 
L 270.875583 237.455948 
L 270.977071 237.221086 
L 271.180048 237.942538 
L 271.281536 237.32917 
L 271.383025 237.478155 
L 271.586001 238.533558 
L 271.68749 237.85132 
L 271.788978 237.881257 
L 271.890467 237.297124 
L 271.991955 238.077046 
L 272.093443 238.002132 
L 272.194932 237.052002 
L 272.29642 239.256416 
L 272.397908 237.775563 
L 272.499397 238.284782 
L 272.600885 237.665089 
L 272.702374 238.241211 
L 273.006839 237.694042 
L 273.209815 238.521471 
L 273.514281 238.349295 
L 273.717257 238.023777 
L 273.818746 238.64614 
L 273.920234 237.697697 
L 274.224699 239.152548 
L 274.529164 237.973459 
L 274.630653 238.714167 
L 274.935118 238.389212 
L 275.036606 238.440091 
L 275.239583 239.512501 
L 275.44256 238.625479 
L 275.544048 238.382184 
L 275.747025 238.94664 
L 275.848513 238.109232 
L 276.152978 239.848139 
L 276.254467 238.653589 
L 276.355955 239.014667 
L 276.457443 238.46272 
L 276.558932 239.152548 
L 276.66042 239.087613 
L 276.964885 238.630258 
L 277.066374 239.665562 
L 277.167862 238.907426 
L 277.26935 238.930758 
L 277.573816 239.699716 
L 277.675304 238.928087 
L 277.878281 239.275812 
L 277.979769 239.130201 
L 278.081257 239.698592 
L 278.182746 238.601585 
L 278.487211 240.405989 
L 278.690188 239.455859 
L 278.791676 239.240815 
L 278.893164 239.488326 
L 278.994653 239.190357 
L 279.19763 239.603017 
L 279.299118 239.29296 
L 279.502095 240.206968 
L 279.705071 239.424516 
L 279.80656 239.418894 
L 280.009537 240.134021 
L 280.111025 239.054021 
L 280.41549 240.698618 
L 280.618467 239.776458 
L 280.719955 239.70576 
L 280.821444 240.093964 
L 281.02442 239.567035 
L 281.125909 239.696062 
L 281.328885 240.677254 
L 281.531862 239.967608 
L 281.633351 239.858821 
L 281.734839 240.423558 
L 281.937816 239.755656 
L 282.039304 239.987004 
L 282.242281 240.339649 
L 282.343769 241.006848 
L 282.445258 240.06501 
L 282.546746 240.134584 
L 282.648234 240.466005 
L 282.749723 240.262486 
L 282.851211 240.680206 
L 282.952699 239.513626 
L 283.054188 240.376333 
L 283.155676 240.234235 
L 283.257165 241.181694 
L 283.358653 240.441268 
L 283.460141 240.972975 
L 283.56163 240.057842 
L 283.764606 240.687936 
L 283.967583 240.170143 
L 284.17056 241.214162 
L 284.272048 240.76285 
L 284.373537 240.880492 
L 284.475025 240.242246 
L 284.678002 240.844651 
L 284.77949 241.224422 
L 284.880979 239.756359 
L 285.185444 241.373829 
L 285.489909 240.70171 
L 285.591397 240.680487 
L 285.692886 241.23398 
L 285.794374 240.36551 
L 285.895862 240.558207 
L 286.098839 242.024724 
L 286.200327 240.707051 
L 286.301816 241.363147 
L 286.403304 240.247447 
L 286.606281 241.214865 
L 286.707769 240.657717 
L 286.910746 241.211772 
L 287.012234 241.161455 
L 287.113723 241.284438 
L 287.215211 241.218519 
L 287.418188 240.749076 
L 287.519676 240.701148 
L 287.621165 241.579034 
L 287.722653 239.972106 
L 287.824141 240.991528 
L 287.92563 240.608805 
L 288.027118 242.116364 
L 288.128607 240.88007 
L 288.230095 241.255203 
L 288.331583 240.472751 
L 288.53456 241.232574 
L 288.737537 240.44956 
L 288.940514 241.636239 
L 289.14349 240.94627 
L 289.244979 240.909446 
L 289.346467 241.016124 
L 289.447955 240.75765 
L 289.549444 241.068128 
L 289.650932 240.423839 
L 289.853909 241.360617 
L 289.955397 241.34867 
L 290.158374 240.70438 
L 290.361351 241.168904 
L 290.462839 241.07628 
L 290.564328 240.424542 
L 290.665816 240.910148 
L 290.767304 240.830315 
L 290.868793 241.708904 
L 291.173258 240.737129 
L 291.274746 240.781684 
L 291.376235 240.949503 
L 291.579211 240.840435 
L 291.6807 240.842824 
L 291.782188 241.706093 
L 292.086653 240.689763 
L 292.28963 241.03805 
L 292.391118 241.105094 
L 292.492607 240.496223 
L 292.797072 241.633428 
L 292.89856 241.018092 
L 293.000049 241.165671 
L 293.101537 240.73488 
L 293.304514 241.004599 
L 293.406002 240.51309 
L 293.50749 241.021044 
L 293.608979 240.87993 
L 293.710467 241.63652 
L 293.811956 240.930669 
L 293.913444 241.087665 
L 294.014932 240.439019 
L 294.116421 241.366239 
L 294.319397 240.806702 
L 294.522374 240.654625 
L 294.623862 241.78185 
L 294.725351 241.606582 
L 294.928328 240.807827 
L 295.029816 240.658842 
L 295.232793 241.091741 
L 295.334281 240.132897 
L 295.537258 241.198701 
L 295.638746 241.552329 
L 295.841723 240.708597 
L 295.943211 241.178321 
L 296.146188 240.837905 
L 296.247676 240.345411 
L 296.349165 240.884287 
L 296.450653 240.661934 
L 296.552142 242.084599 
L 296.65363 240.853225 
L 296.755118 240.876135 
L 296.856607 240.914646 
L 296.958095 240.693136 
L 297.059583 240.971991 
L 297.161072 240.446046 
L 297.26256 240.681752 
L 297.364049 240.629607 
L 297.465537 241.711575 
L 297.668514 240.987592 
L 297.87149 240.573386 
L 298.074467 240.801221 
L 298.277444 240.629045 
L 298.378932 241.321403 
L 298.581909 240.649987 
L 298.683397 241.070377 
L 298.886374 240.521382 
L 298.987863 241.015562 
L 299.089351 239.811314 
L 299.190839 240.981267 
L 299.292328 240.828628 
L 299.393816 241.56512 
L 299.596793 240.616395 
L 299.698281 240.559612 
L 299.79977 240.678519 
L 299.901258 241.35387 
L 300.002746 240.068243 
L 300.104235 240.238873 
L 300.307211 241.731111 
L 300.4087 240.562423 
L 300.510188 240.88499 
L 300.611677 240.445203 
L 300.713165 240.761585 
L 300.916142 240.482871 
L 301.01763 239.934578 
L 301.220607 241.484443 
L 301.423584 240.595593 
L 301.525072 240.319971 
L 301.728049 240.652798 
L 301.829537 240.402756 
L 301.931025 240.557504 
L 302.032514 240.382657 
L 302.134002 241.062506 
L 302.235491 240.584911 
L 302.336979 241.174526 
L 302.539956 240.268389 
L 302.742932 240.70691 
L 302.844421 239.786156 
L 303.047398 240.804313 
L 303.148886 241.153303 
L 303.351863 240.279914 
L 303.453351 240.686109 
L 303.554839 240.494537 
L 303.656328 240.789977 
L 303.757816 239.744693 
L 304.062281 241.712699 
L 304.16377 240.501143 
L 304.265258 240.707613 
L 304.366746 239.841111 
L 304.569723 240.488493 
L 304.7727 240.240279 
L 304.874188 240.280336 
L 304.975677 241.248738 
L 305.178653 240.222288 
L 305.280142 240.488493 
L 305.584607 240.144844 
L 305.787584 240.046036 
L 305.889072 241.066161 
L 306.193537 240.061918 
L 306.396514 240.159883 
L 306.498002 240.566921 
L 306.599491 239.78461 
L 306.700979 240.432272 
L 307.005444 239.84842 
L 307.106933 240.401351 
L 307.208421 240.304089 
L 307.309909 240.778451 
L 307.512886 239.999373 
L 307.715863 240.079909 
L 307.817351 240.80881 
L 307.91884 239.424938 
L 308.020328 240.053626 
L 308.121816 239.935562 
L 308.223305 241.148665 
L 308.426281 239.932048 
L 308.730747 240.433397 
L 308.832235 239.497743 
L 309.1367 240.974943 
L 309.238188 239.699716 
L 309.339677 240.366916 
L 309.441165 239.846452 
L 309.644142 240.078785 
L 309.74563 239.525573 
L 309.948607 239.979274 
L 310.050095 241.016687 
L 310.253072 239.816796 
L 310.557537 239.844906 
L 310.659026 240.021018 
L 310.760514 239.611028 
L 310.862002 239.648837 
L 310.963491 240.944724 
L 311.064979 239.918415 
L 311.267956 240.056437 
L 311.572421 239.494511 
L 311.673909 239.5936 
L 311.876886 240.585755 
L 312.079863 240.023548 
L 312.181351 239.627894 
L 312.384328 239.889883 
L 312.587305 239.694094 
L 312.688793 239.681164 
L 312.790282 240.221163 
L 312.993258 240.147374 
L 313.196235 239.480174 
L 313.399212 240.017082 
L 313.5007 239.186983 
L 313.703677 239.993329 
L 313.805165 240.023126 
L 313.906654 239.664297 
L 314.008142 239.958332 
L 314.10963 239.582637 
L 314.312607 239.92235 
L 314.414096 239.113053 
L 314.515584 239.320789 
L 314.718561 240.54134 
L 314.921537 239.325005 
L 315.023026 239.802881 
L 315.124514 239.67006 
L 315.226003 239.904219 
L 315.327491 239.079461 
L 315.631956 240.289753 
L 315.834933 239.638717 
L 315.936421 239.628035 
L 316.03791 239.435198 
L 316.139398 239.756921 
L 316.240886 239.147629 
L 316.545351 240.568607 
L 316.64684 239.657972 
L 316.748328 239.750877 
L 316.951305 239.239409 
L 317.052793 240.280898 
L 317.154282 239.0588 
L 317.25577 239.187686 
L 317.357258 239.555791 
L 317.458747 240.451809 
L 317.560235 239.653194 
L 317.661724 239.784891 
L 317.763212 238.820284 
L 317.8647 239.585026 
L 318.169165 239.346229 
L 318.270654 239.454313 
L 318.372142 240.309992 
L 318.575119 239.592616 
L 318.676607 239.207785 
L 318.778096 239.244329 
L 318.879584 239.600065 
L 319.082561 239.286494 
L 319.184049 239.090424 
L 319.285538 240.633964 
L 319.387026 239.330206 
L 319.488514 239.661486 
L 319.590003 239.036874 
L 319.691491 239.096609 
L 319.894468 239.485937 
L 319.995956 239.288602 
L 320.097445 238.839118 
L 320.198933 240.460383 
L 320.300421 239.145802 
L 320.40191 239.467665 
L 320.604886 238.853735 
L 320.706375 239.383194 
L 320.807863 239.309545 
L 320.909352 238.641643 
L 321.112328 240.019331 
L 321.213817 239.101528 
L 321.315305 239.138071 
L 321.61977 239.377572 
L 321.721259 238.735672 
L 321.822747 238.929493 
L 321.924235 239.465135 
L 322.025724 239.266255 
L 322.127212 238.402283 
L 322.2287 239.131325 
L 322.330189 239.00005 
L 322.431677 239.730919 
L 322.634654 238.741997 
L 322.736142 238.833215 
L 322.837631 239.085786 
L 322.939119 238.983886 
L 323.040607 238.669612 
L 323.142096 238.9822 
L 323.243584 238.7836 
L 323.345073 239.849545 
L 323.548049 238.724146 
L 323.751026 239.142007 
L 323.954003 238.335942 
L 324.15698 239.019305 
L 324.258468 239.714755 
L 324.461445 238.627025 
L 324.562933 238.523298 
L 324.76591 239.007639 
L 325.070375 238.622528 
L 325.171863 238.419571 
L 325.37484 239.065266 
L 325.476328 237.748858 
L 325.679305 238.658649 
L 325.780794 239.192324 
L 326.085259 238.338894 
L 326.186747 238.514865 
L 326.288235 238.959852 
L 326.389724 237.940851 
L 326.491212 238.574599 
L 326.592701 238.191315 
L 326.694189 239.243907 
L 326.897166 237.997494 
L 326.998654 238.756473 
L 327.100142 238.385276 
L 327.201631 238.564761 
L 327.303119 237.578931 
L 327.404608 238.731455 
L 327.506096 238.0807 
L 327.607584 239.065547 
L 327.810561 237.608446 
L 327.912049 239.080726 
L 328.013538 238.343673 
L 328.115026 238.541851 
L 328.216515 237.389045 
L 328.419491 238.451757 
L 328.52098 237.750825 
L 328.825445 238.737077 
L 328.926933 238.267634 
L 329.028422 238.51374 
L 329.12991 237.612944 
L 329.231398 237.868889 
L 329.332887 238.772215 
L 329.434375 237.425589 
L 329.637352 238.211554 
L 329.73884 238.78374 
L 329.840329 237.793553 
L 330.043305 238.218301 
L 330.144794 237.787931 
L 330.246282 238.296447 
L 330.449259 237.203938 
L 330.652236 238.697863 
L 330.753724 237.711893 
L 330.855212 238.14184 
L 331.058189 237.655812 
L 331.159677 237.716109 
L 331.464143 237.527348 
L 331.565631 238.80651 
L 331.768608 237.635292 
L 332.073073 237.603949 
L 332.174561 237.159665 
L 332.27605 237.71386 
L 332.377538 237.396354 
L 332.479026 238.555906 
L 332.682003 237.232049 
L 332.783491 237.260721 
L 332.88498 237.86144 
L 333.087957 236.807301 
L 333.189445 237.544074 
L 333.290933 237.392137 
L 333.392422 238.267353 
L 333.595398 237.24498 
L 333.696887 236.961908 
L 333.899864 237.663402 
L 334.001352 236.652975 
L 334.305817 237.931434 
L 334.508794 237.103866 
L 334.711771 237.134084 
L 334.813259 237.593548 
L 334.914747 236.445099 
L 335.219212 237.915552 
L 335.320701 236.90119 
L 335.422189 237.151091 
L 335.523678 236.981867 
L 335.726654 237.261565 
L 335.828143 236.361331 
L 335.929631 237.052002 
L 336.031119 236.880248 
L 336.132608 237.773314 
L 336.335585 236.054506 
L 336.437073 237.451028 
L 336.538561 237.328748 
L 336.64005 236.741804 
L 336.741538 237.001684 
L 336.944515 236.406167 
L 337.046003 237.35714 
L 337.147492 236.476724 
L 337.24898 236.63892 
L 337.350468 237.31399 
L 337.451957 237.137739 
L 337.553445 236.542783 
L 337.654933 236.589024 
L 337.756422 236.610107 
L 337.85791 236.384803 
L 337.959399 236.844829 
L 338.060887 236.490076 
L 338.263864 236.809691 
L 338.365352 237.21701 
L 338.568329 236.108056 
L 338.771306 236.577359 
L 338.872794 236.115646 
L 339.075771 236.756703 
L 339.177259 236.858743 
L 339.278747 236.635688 
L 339.380236 236.967952 
L 339.481724 235.74993 
L 339.684701 236.628801 
L 339.786189 236.067437 
L 339.887678 236.149378 
L 339.989166 236.71524 
L 340.192143 236.639623 
L 340.293631 236.77652 
L 340.39512 235.942486 
L 340.496608 236.006297 
L 340.699585 236.478832 
L 340.801073 235.983668 
L 340.902561 236.138415 
L 341.00405 237.012929 
L 341.410003 235.815427 
L 341.61298 236.496963 
L 341.714468 235.692726 
L 341.815957 235.997442 
L 341.917445 237.420669 
L 342.120422 235.91283 
L 342.323399 236.23385 
L 342.627864 235.797156 
L 342.729352 236.110867 
L 342.830841 237.159665 
L 342.932329 236.136026 
L 343.033817 236.303142 
L 343.135306 235.375219 
L 343.338282 236.299066 
L 343.439771 235.624839 
L 343.642748 236.058863 
L 343.744236 236.547421 
L 343.845724 235.799826 
L 343.947213 236.598722 
L 344.048701 235.41626 
L 344.150189 235.506776 
L 344.251678 236.737447 
L 344.353166 235.3093 
L 344.657631 237.001544 
L 344.75912 235.494407 
L 344.962096 235.946141 
L 345.063585 235.748384 
L 345.165073 236.120987 
L 345.266562 235.460675 
L 345.36805 235.49764 
L 345.469538 235.627088 
L 345.571027 236.765979 
L 345.774003 235.429472 
L 345.875492 235.844662 
L 346.078469 235.842976 
L 346.179957 235.2074 
L 346.484422 236.459295 
L 346.687399 235.232559 
L 346.788887 235.266151 
L 346.991864 236.222887 
L 347.093352 234.725308 
L 347.296329 235.937989 
L 347.397817 235.895401 
L 347.600794 235.617812 
L 347.803771 235.189691 
L 347.905259 235.548238 
L 348.006748 235.364537 
L 348.209724 235.741076 
L 348.311213 235.875302 
L 348.51419 235.345001 
L 348.615678 235.542195 
L 348.818655 235.08259 
L 348.920143 235.584782 
L 349.021631 235.275709 
L 349.12312 235.834402 
L 349.326097 235.564683 
L 349.427585 234.562127 
L 349.529073 235.581268 
L 349.630562 235.13333 
L 349.73205 235.502559 
L 349.935027 234.899451 
L 350.036515 236.303142 
L 350.138004 235.178166 
L 350.239492 235.691742 
L 350.34098 234.690029 
L 350.442469 234.876963 
L 350.543957 235.798561 
L 350.746934 234.581383 
L 350.949911 236.066031 
L 351.051399 235.155677 
L 351.152887 235.474027 
L 351.254376 234.524178 
L 351.355864 235.377749 
L 351.558841 234.645756 
L 351.660329 235.38562 
L 351.761818 235.035506 
L 351.863306 236.077556 
L 352.066283 234.696214 
L 352.269259 235.179571 
L 352.370748 235.057713 
L 352.472236 234.398947 
L 352.675213 235.484709 
L 352.776701 235.458004 
L 352.87819 235.263059 
L 352.979678 234.605698 
L 353.081166 234.694246 
L 353.284143 235.459129 
L 353.385632 234.291143 
L 353.690097 235.739811 
L 353.791585 234.759884 
L 353.893073 234.995448 
L 354.09605 234.433241 
L 354.299027 235.105782 
L 354.400515 234.71828 
L 354.603492 235.578317 
L 354.806469 234.538796 
L 354.907957 234.963262 
L 355.110934 234.274839 
L 355.212422 235.038457 
L 355.313911 234.704506 
L 355.415399 235.395178 
L 355.516887 234.766911 
L 355.618376 235.374376 
L 355.719864 234.303231 
L 355.821353 234.873168 
L 356.227306 234.498457 
L 356.328794 235.528421 
L 356.430283 234.574917 
L 356.531771 235.399394 
L 356.63326 234.408223 
L 356.734748 234.548915 
L 356.836236 235.196297 
L 356.937725 233.99978 
L 357.24219 235.727301 
L 357.343678 234.3617 
L 357.445167 234.525443 
L 357.546655 235.043939 
L 357.648143 234.40738 
L 357.749632 234.900716 
L 357.85112 234.409066 
L 358.054097 234.585599 
L 358.155585 235.244928 
L 358.358562 234.253194 
L 358.663027 234.938244 
L 358.764515 234.038853 
L 358.866004 234.876682 
L 358.967492 234.826505 
L 359.068981 233.734137 
L 359.170469 234.926719 
L 359.271957 234.467536 
L 359.373446 235.207822 
L 359.474934 234.607666 
L 359.576422 234.694386 
L 359.779399 234.176594 
L 359.880888 234.86853 
L 359.982376 233.888463 
L 360.083864 234.892705 
L 360.185353 234.499441 
L 360.286841 235.108733 
L 360.489818 234.284397 
L 360.692795 234.586724 
L 360.794283 234.48637 
L 360.895771 233.958879 
L 360.99726 234.454043 
L 361.098748 235.533902 
L 361.200236 234.513356 
L 361.301725 234.538796 
L 361.504702 234.22916 
L 361.60619 234.634511 
L 361.707678 234.139207 
L 361.809167 234.447578 
L 361.910655 234.060638 
L 362.012143 235.289342 
L 362.113632 234.526849 
L 362.21512 234.792773 
L 362.316609 234.147359 
L 362.519585 234.499582 
L 362.722562 234.233517 
L 362.82405 234.254319 
L 362.925539 235.133049 
L 363.027027 234.665714 
L 363.128516 234.772112 
L 363.230004 234.085797 
L 363.534469 234.761992 
L 363.737446 234.163101 
L 363.838934 234.54765 
L 363.940423 234.20611 
L 364.041911 234.958343 
L 364.143399 233.870191 
L 364.346376 234.969868 
L 364.447864 234.542731 
L 364.549353 234.996994 
L 364.650841 234.058249 
L 364.75233 234.526989 
L 364.853818 233.980102 
L 364.955306 234.391919 
L 365.056795 234.322627 
L 365.158283 234.401758 
L 365.259771 235.613033 
L 365.36126 234.273012 
L 365.462748 234.499582 
L 365.564237 234.213137 
L 365.767213 234.640133 
L 365.868702 233.564631 
L 365.97019 235.476838 
L 366.071678 234.174064 
L 366.173167 234.566906 
L 366.274655 234.16535 
L 366.477632 234.236328 
L 366.57912 235.473043 
L 366.782097 234.117562 
L 366.985074 234.65461 
L 367.086562 235.159894 
L 367.188051 233.577703 
L 367.391027 234.609072 
L 367.492516 235.064881 
L 367.695492 234.369571 
L 367.796981 234.435209 
L 367.898469 234.259238 
L 368.202934 234.519962 
L 368.304423 235.040003 
L 368.405911 234.439144 
L 368.507399 235.191799 
L 368.710376 233.869769 
L 368.811865 235.049701 
L 368.913353 234.59347 
L 369.014841 233.507146 
L 369.11633 235.763985 
L 369.319306 233.774335 
L 369.420795 235.618514 
L 369.522283 234.073148 
L 369.623772 234.974084 
L 369.826748 234.000904 
L 369.928237 235.414855 
L 370.029725 233.627739 
L 370.131213 234.933606 
L 370.232702 234.793054 
L 370.33419 233.627177 
L 370.435679 236.173413 
L 370.537167 233.767026 
L 370.638655 235.099176 
L 370.740144 234.702117 
L 370.841632 233.422393 
L 370.94312 236.120706 
L 371.146097 234.062325 
L 371.247586 235.503543 
L 371.349074 233.994298 
L 371.450562 235.522096 
L 371.653539 233.353804 
L 371.755027 235.674876 
L 371.856516 234.346942 
L 372.059493 234.891721 
L 372.160981 234.138364 
L 372.262469 235.571289 
L 372.363958 234.215105 
L 372.465446 234.420732 
L 372.566934 235.354277 
L 372.668423 233.354928 
L 372.769911 235.631164 
L 372.8714 235.103392 
L 372.972888 233.808067 
L 373.074376 235.812897 
L 373.175865 234.268655 
L 373.277353 235.438468 
L 373.48033 233.52598 
L 373.581818 236.096953 
L 373.581818 236.096953 
" style="fill:none;stroke:#081d58;stroke-dasharray:5.55,2.4;stroke-dashoffset:0;stroke-width:1.5;"/>
    <defs>
     <path d="M -0 4.242641 
L 4.242641 0 
L 0 -4.242641 
L -4.242641 -0 
z
" id="me7998018aa" style="stroke:#081d58;stroke-linejoin:miter;"/>
    </defs>
    <g clip-path="url(#p5e76b61616)">
     <use style="fill:#081d58;stroke:#081d58;stroke-linejoin:miter;" x="69.218182" xlink:href="#me7998018aa" y="77.075125"/>
     <use style="fill:#081d58;stroke:#081d58;stroke-linejoin:miter;" x="77.337252" xlink:href="#me7998018aa" y="76.879477"/>
     <use style="fill:#081d58;stroke:#081d58;stroke-linejoin:miter;" x="85.456322" xlink:href="#me7998018aa" y="71.26359"/>
     <use style="fill:#081d58;stroke:#081d58;stroke-linejoin:miter;" x="93.575392" xlink:href="#me7998018aa" y="65.5042"/>
     <use style="fill:#081d58;stroke:#081d58;stroke-linejoin:miter;" x="101.694462" xlink:href="#me7998018aa" y="56.960198"/>
     <use style="fill:#081d58;stroke:#081d58;stroke-linejoin:miter;" x="109.813532" xlink:href="#me7998018aa" y="57.288386"/>
     <use style="fill:#081d58;stroke:#081d58;stroke-linejoin:miter;" x="117.932602" xlink:href="#me7998018aa" y="61.957095"/>
     <use style="fill:#081d58;stroke:#081d58;stroke-linejoin:miter;" x="126.051672" xlink:href="#me7998018aa" y="62.867448"/>
     <use style="fill:#081d58;stroke:#081d58;stroke-linejoin:miter;" x="134.170742" xlink:href="#me7998018aa" y="84.56794"/>
     <use style="fill:#081d58;stroke:#081d58;stroke-linejoin:miter;" x="142.289812" xlink:href="#me7998018aa" y="101.736762"/>
     <use style="fill:#081d58;stroke:#081d58;stroke-linejoin:miter;" x="150.408882" xlink:href="#me7998018aa" y="96.359532"/>
     <use style="fill:#081d58;stroke:#081d58;stroke-linejoin:miter;" x="158.527952" xlink:href="#me7998018aa" y="97.158287"/>
     <use style="fill:#081d58;stroke:#081d58;stroke-linejoin:miter;" x="166.647022" xlink:href="#me7998018aa" y="115.56031"/>
     <use style="fill:#081d58;stroke:#081d58;stroke-linejoin:miter;" x="174.766092" xlink:href="#me7998018aa" y="177.592697"/>
     <use style="fill:#081d58;stroke:#081d58;stroke-linejoin:miter;" x="182.885162" xlink:href="#me7998018aa" y="210.631219"/>
     <use style="fill:#081d58;stroke:#081d58;stroke-linejoin:miter;" x="191.004232" xlink:href="#me7998018aa" y="220.03329"/>
     <use style="fill:#081d58;stroke:#081d58;stroke-linejoin:miter;" x="199.123302" xlink:href="#me7998018aa" y="223.952998"/>
     <use style="fill:#081d58;stroke:#081d58;stroke-linejoin:miter;" x="207.242372" xlink:href="#me7998018aa" y="226.386371"/>
     <use style="fill:#081d58;stroke:#081d58;stroke-linejoin:miter;" x="215.361442" xlink:href="#me7998018aa" y="227.3261"/>
     <use style="fill:#081d58;stroke:#081d58;stroke-linejoin:miter;" x="223.480512" xlink:href="#me7998018aa" y="229.267963"/>
     <use style="fill:#081d58;stroke:#081d58;stroke-linejoin:miter;" x="231.599582" xlink:href="#me7998018aa" y="229.065709"/>
     <use style="fill:#081d58;stroke:#081d58;stroke-linejoin:miter;" x="239.718652" xlink:href="#me7998018aa" y="230.970467"/>
     <use style="fill:#081d58;stroke:#081d58;stroke-linejoin:miter;" x="247.837722" xlink:href="#me7998018aa" y="232.369098"/>
     <use style="fill:#081d58;stroke:#081d58;stroke-linejoin:miter;" x="255.956792" xlink:href="#me7998018aa" y="234.285381"/>
     <use style="fill:#081d58;stroke:#081d58;stroke-linejoin:miter;" x="264.075862" xlink:href="#me7998018aa" y="235.934615"/>
     <use style="fill:#081d58;stroke:#081d58;stroke-linejoin:miter;" x="272.194932" xlink:href="#me7998018aa" y="237.052002"/>
     <use style="fill:#081d58;stroke:#081d58;stroke-linejoin:miter;" x="280.314002" xlink:href="#me7998018aa" y="239.951163"/>
     <use style="fill:#081d58;stroke:#081d58;stroke-linejoin:miter;" x="288.433072" xlink:href="#me7998018aa" y="240.979159"/>
     <use style="fill:#081d58;stroke:#081d58;stroke-linejoin:miter;" x="296.552142" xlink:href="#me7998018aa" y="242.084599"/>
     <use style="fill:#081d58;stroke:#081d58;stroke-linejoin:miter;" x="304.671212" xlink:href="#me7998018aa" y="240.216947"/>
     <use style="fill:#081d58;stroke:#081d58;stroke-linejoin:miter;" x="312.790282" xlink:href="#me7998018aa" y="240.221163"/>
     <use style="fill:#081d58;stroke:#081d58;stroke-linejoin:miter;" x="320.909352" xlink:href="#me7998018aa" y="238.641643"/>
     <use style="fill:#081d58;stroke:#081d58;stroke-linejoin:miter;" x="329.028422" xlink:href="#me7998018aa" y="238.51374"/>
     <use style="fill:#081d58;stroke:#081d58;stroke-linejoin:miter;" x="337.147492" xlink:href="#me7998018aa" y="236.476724"/>
     <use style="fill:#081d58;stroke:#081d58;stroke-linejoin:miter;" x="345.266562" xlink:href="#me7998018aa" y="235.460675"/>
     <use style="fill:#081d58;stroke:#081d58;stroke-linejoin:miter;" x="353.385632" xlink:href="#me7998018aa" y="234.291143"/>
     <use style="fill:#081d58;stroke:#081d58;stroke-linejoin:miter;" x="361.504702" xlink:href="#me7998018aa" y="234.22916"/>
     <use style="fill:#081d58;stroke:#081d58;stroke-linejoin:miter;" x="369.623772" xlink:href="#me7998018aa" y="234.974084"/>
    </g>
   </g>
   <g id="patch_3">
    <path d="M 54 252 
L 54 34.56 
" style="fill:none;stroke:#000000;stroke-linecap:square;stroke-linejoin:miter;stroke-width:0.8;"/>
   </g>
   <g id="patch_4">
    <path d="M 388.8 252 
L 388.8 34.56 
" style="fill:none;stroke:#000000;stroke-linecap:square;stroke-linejoin:miter;stroke-width:0.8;"/>
   </g>
   <g id="patch_5">
    <path d="M 54 252 
L 388.8 252 
" style="fill:none;stroke:#000000;stroke-linecap:square;stroke-linejoin:miter;stroke-width:0.8;"/>
   </g>
   <g id="patch_6">
    <path d="M 54 34.56 
L 388.8 34.56 
" style="fill:none;stroke:#000000;stroke-linecap:square;stroke-linejoin:miter;stroke-width:0.8;"/>
   </g>
   <g id="legend_1">
    <g id="patch_7">
     <path d="M 280.085938 71.91625 
L 381.8 71.91625 
Q 383.8 71.91625 383.8 69.91625 
L 383.8 41.56 
Q 383.8 39.56 381.8 39.56 
L 280.085938 39.56 
Q 278.085938 39.56 278.085938 41.56 
L 278.085938 69.91625 
Q 278.085938 71.91625 280.085938 71.91625 
z
" style="fill:#ffffff;opacity:0.8;stroke:#cccccc;stroke-linejoin:miter;"/>
    </g>
    <g id="line2d_16">
     <path d="M 282.085938 47.658437 
L 302.085938 47.658437 
" style="fill:none;stroke:#c6e9b4;stroke-dasharray:5.55,2.4;stroke-dashoffset:0;stroke-width:1.5;"/>
    </g>
    <g id="line2d_17">
     <g>
      <use style="fill:#c6e9b4;stroke:#c6e9b4;" x="292.085938" xlink:href="#m156bedd19c" y="47.658437"/>
     </g>
    </g>
    <g id="text_16">
     <text style="font-family:DejaVu Sans;font-size:10px;font-style:normal;font-weight:normal;text-anchor:start;" transform="rotate(-0, 310.085938, 51.158437)" x="310.085938" y="51.158437">original</text>
    </g>
    <g id="line2d_18">
     <path d="M 282.085938 62.336562 
L 302.085938 62.336562 
" style="fill:none;stroke:#081d58;stroke-dasharray:5.55,2.4;stroke-dashoffset:0;stroke-width:1.5;"/>
    </g>
    <g id="line2d_19">
     <g>
      <use style="fill:#081d58;stroke:#081d58;stroke-linejoin:miter;" x="292.085938" xlink:href="#me7998018aa" y="62.336562"/>
     </g>
    </g>
    <g id="text_17">
     <text style="font-family:DejaVu Sans;font-size:10px;font-style:normal;font-weight:normal;text-anchor:start;" transform="rotate(-0, 310.085938, 65.836562)" x="310.085938" y="65.836562">reconstructed</text>
    </g>
   </g>
  </g>
  <g id="text_18">
   <text style="font-family:DejaVu Sans;font-size:12px;font-style:normal;font-weight:normal;text-anchor:middle;" transform="rotate(-0, 216, 14.878125)" x="216" y="14.878125">Reconstruction of the weight curve</text>
  </g>
 </g>
 <defs>
  <clipPath id="p5e76b61616">
   <rect height="217.44" width="334.8" x="54" y="34.56"/>
  </clipPath>
 </defs>
</svg>
