<?xml version="1.0" encoding="utf-8" standalone="no"?>
<!DOCTYPE svg PUBLIC "-//W3C//DTD SVG 1.1//EN"
  "http://www.w3.org/Graphics/SVG/1.1/DTD/svg11.dtd">
<!-- Created with matplotlib (https://matplotlib.org/) -->
<svg height="288pt" version="1.1" viewBox="0 0 432 288" width="432pt" xmlns="http://www.w3.org/2000/svg" xmlns:xlink="http://www.w3.org/1999/xlink">
 <defs>
  <style type="text/css">
*{stroke-linecap:butt;stroke-linejoin:round;}
  </style>
 </defs>
 <g id="figure_1">
  <g id="patch_1">
   <path d="M 0 288 
L 432 288 
L 432 0 
L 0 0 
z
" style="fill:#ffffff;"/>
  </g>
  <g id="axes_1">
   <g id="patch_2">
    <path d="M 54 252 
L 388.8 252 
L 388.8 34.56 
L 54 34.56 
z
" style="fill:#ffffff;"/>
   </g>
   <g id="matplotlib.axis_1">
    <g id="xtick_1">
     <g id="line2d_1">
      <defs>
       <path d="M 0 0 
L 0 3.5 
" id="mc9a83119c4" style="stroke:#000000;stroke-width:0.8;"/>
      </defs>
      <g>
       <use style="stroke:#000000;stroke-width:0.8;" x="69.218182" xlink:href="#mc9a83119c4" y="252"/>
      </g>
     </g>
     <g id="text_1">
      <text style="font-family:DejaVu Sans;font-size:10px;font-style:normal;font-weight:normal;text-anchor:middle;" transform="rotate(-0, 69.218182, 266.598437)" x="69.218182" y="266.598437">0</text>
     </g>
    </g>
    <g id="xtick_2">
     <g id="line2d_2">
      <g>
       <use style="stroke:#000000;stroke-width:0.8;" x="119.962369" xlink:href="#mc9a83119c4" y="252"/>
      </g>
     </g>
     <g id="text_2">
      <text style="font-family:DejaVu Sans;font-size:10px;font-style:normal;font-weight:normal;text-anchor:middle;" transform="rotate(-0, 119.962369, 266.598437)" x="119.962369" y="266.598437">500</text>
     </g>
    </g>
    <g id="xtick_3">
     <g id="line2d_3">
      <g>
       <use style="stroke:#000000;stroke-width:0.8;" x="170.706557" xlink:href="#mc9a83119c4" y="252"/>
      </g>
     </g>
     <g id="text_3">
      <text style="font-family:DejaVu Sans;font-size:10px;font-style:normal;font-weight:normal;text-anchor:middle;" transform="rotate(-0, 170.706557, 266.598437)" x="170.706557" y="266.598437">1000</text>
     </g>
    </g>
    <g id="xtick_4">
     <g id="line2d_4">
      <g>
       <use style="stroke:#000000;stroke-width:0.8;" x="221.450744" xlink:href="#mc9a83119c4" y="252"/>
      </g>
     </g>
     <g id="text_4">
      <text style="font-family:DejaVu Sans;font-size:10px;font-style:normal;font-weight:normal;text-anchor:middle;" transform="rotate(-0, 221.450744, 266.598437)" x="221.450744" y="266.598437">1500</text>
     </g>
    </g>
    <g id="xtick_5">
     <g id="line2d_5">
      <g>
       <use style="stroke:#000000;stroke-width:0.8;" x="272.194932" xlink:href="#mc9a83119c4" y="252"/>
      </g>
     </g>
     <g id="text_5">
      <text style="font-family:DejaVu Sans;font-size:10px;font-style:normal;font-weight:normal;text-anchor:middle;" transform="rotate(-0, 272.194932, 266.598437)" x="272.194932" y="266.598437">2000</text>
     </g>
    </g>
    <g id="xtick_6">
     <g id="line2d_6">
      <g>
       <use style="stroke:#000000;stroke-width:0.8;" x="322.939119" xlink:href="#mc9a83119c4" y="252"/>
      </g>
     </g>
     <g id="text_6">
      <text style="font-family:DejaVu Sans;font-size:10px;font-style:normal;font-weight:normal;text-anchor:middle;" transform="rotate(-0, 322.939119, 266.598437)" x="322.939119" y="266.598437">2500</text>
     </g>
    </g>
    <g id="xtick_7">
     <g id="line2d_7">
      <g>
       <use style="stroke:#000000;stroke-width:0.8;" x="373.683307" xlink:href="#mc9a83119c4" y="252"/>
      </g>
     </g>
     <g id="text_7">
      <text style="font-family:DejaVu Sans;font-size:10px;font-style:normal;font-weight:normal;text-anchor:middle;" transform="rotate(-0, 373.683307, 266.598437)" x="373.683307" y="266.598437">3000</text>
     </g>
    </g>
    <g id="text_8">
     <text style="font-family:DejaVu Sans;font-size:10px;font-style:normal;font-weight:normal;text-anchor:middle;" transform="rotate(-0, 221.4, 280.276563)" x="221.4" y="280.276563">Time</text>
    </g>
   </g>
   <g id="matplotlib.axis_2">
    <g id="ytick_1">
     <g id="line2d_8">
      <defs>
       <path d="M 0 0 
L -3.5 0 
" id="mb52532f97d" style="stroke:#000000;stroke-width:0.8;"/>
      </defs>
      <g>
       <use style="stroke:#000000;stroke-width:0.8;" x="54" xlink:href="#mb52532f97d" y="219.00951"/>
      </g>
     </g>
     <g id="text_9">
      <text style="font-family:DejaVu Sans;font-size:10px;font-style:normal;font-weight:normal;text-anchor:end;" transform="rotate(-0, 47, 222.808729)" x="47" y="222.808729">−10</text>
     </g>
    </g>
    <g id="ytick_2">
     <g id="line2d_9">
      <g>
       <use style="stroke:#000000;stroke-width:0.8;" x="54" xlink:href="#mb52532f97d" y="185.092189"/>
      </g>
     </g>
     <g id="text_10">
      <text style="font-family:DejaVu Sans;font-size:10px;font-style:normal;font-weight:normal;text-anchor:end;" transform="rotate(-0, 47, 188.891407)" x="47" y="188.891407">−8</text>
     </g>
    </g>
    <g id="ytick_3">
     <g id="line2d_10">
      <g>
       <use style="stroke:#000000;stroke-width:0.8;" x="54" xlink:href="#mb52532f97d" y="151.174867"/>
      </g>
     </g>
     <g id="text_11">
      <text style="font-family:DejaVu Sans;font-size:10px;font-style:normal;font-weight:normal;text-anchor:end;" transform="rotate(-0, 47, 154.974086)" x="47" y="154.974086">−6</text>
     </g>
    </g>
    <g id="ytick_4">
     <g id="line2d_11">
      <g>
       <use style="stroke:#000000;stroke-width:0.8;" x="54" xlink:href="#mb52532f97d" y="117.257546"/>
      </g>
     </g>
     <g id="text_12">
      <text style="font-family:DejaVu Sans;font-size:10px;font-style:normal;font-weight:normal;text-anchor:end;" transform="rotate(-0, 47, 121.056764)" x="47" y="121.056764">−4</text>
     </g>
    </g>
    <g id="ytick_5">
     <g id="line2d_12">
      <g>
       <use style="stroke:#000000;stroke-width:0.8;" x="54" xlink:href="#mb52532f97d" y="83.340224"/>
      </g>
     </g>
     <g id="text_13">
      <text style="font-family:DejaVu Sans;font-size:10px;font-style:normal;font-weight:normal;text-anchor:end;" transform="rotate(-0, 47, 87.139443)" x="47" y="87.139443">−2</text>
     </g>
    </g>
    <g id="ytick_6">
     <g id="line2d_13">
      <g>
       <use style="stroke:#000000;stroke-width:0.8;" x="54" xlink:href="#mb52532f97d" y="49.422903"/>
      </g>
     </g>
     <g id="text_14">
      <text style="font-family:DejaVu Sans;font-size:10px;font-style:normal;font-weight:normal;text-anchor:end;" transform="rotate(-0, 47, 53.222121)" x="47" y="53.222121">0</text>
     </g>
    </g>
    <g id="text_15">
     <text style="font-family:DejaVu Sans;font-size:10px;font-style:normal;font-weight:normal;text-anchor:middle;" transform="rotate(-90, 19.815625, 143.28)" x="19.815625" y="143.28">temperature (°C)</text>
    </g>
   </g>
   <g id="line2d_14">
    <path clip-path="url(#p8c0822dcc7)" d="M 69.218182 44.92639 
L 71.755391 44.510698 
L 72.871763 44.544807 
L 73.785159 44.818172 
L 74.597066 45.320387 
L 75.408973 46.114695 
L 76.22088 47.237908 
L 77.134275 48.919138 
L 78.149159 51.322683 
L 79.265531 54.593992 
L 80.483391 58.862186 
L 82.005717 65.095954 
L 83.933996 74.077014 
L 87.080136 90.040184 
L 90.936694 109.31533 
L 93.06795 118.86733 
L 94.996229 126.589422 
L 96.620043 132.235723 
L 98.142369 136.752035 
L 99.563206 140.330278 
L 100.781066 142.848843 
L 101.998927 144.865346 
L 103.115299 146.283345 
L 104.231671 147.328371 
L 105.246555 148.001206 
L 106.261439 148.405721 
L 107.276322 148.561198 
L 108.291206 148.5042 
L 109.509067 148.186073 
L 111.031392 147.515985 
L 112.655206 146.555158 
L 114.684974 145.089455 
L 121.281718 140.140867 
L 123.615951 138.732196 
L 125.848695 137.682675 
L 127.979951 136.921265 
L 129.806742 136.482053 
L 131.735021 136.255926 
L 133.561812 136.261675 
L 135.388602 136.506355 
L 137.113905 136.983114 
L 138.940695 137.703568 
L 140.564509 138.563254 
L 141.883858 139.488043 
L 143.304696 140.745545 
L 144.725533 142.303741 
L 146.14637 144.203603 
L 147.465719 146.334781 
L 148.785068 148.911378 
L 150.002928 151.759466 
L 151.322277 155.423826 
L 152.844603 159.710042 
L 154.569905 164.381865 
L 155.889254 168.30905 
L 157.310091 173.363714 
L 159.339859 181.522865 
L 161.674091 191.812329 
L 164.211301 203.988461 
L 166.241068 214.802846 
L 168.169347 226.334464 
L 169.488696 233.38401 
L 170.50358 237.749169 
L 171.315487 240.280589 
L 171.924417 241.524506 
L 172.330371 241.982221 
L 172.736324 242.116364 
L 173.040789 241.995957 
L 173.446743 241.527389 
L 173.852696 240.693871 
L 174.360138 239.124347 
L 174.969068 236.466247 
L 175.679487 232.331895 
L 176.592882 225.527402 
L 177.709255 215.263562 
L 179.434557 196.775587 
L 182.073255 168.754062 
L 183.798557 152.815261 
L 185.422371 139.815142 
L 187.046185 128.613845 
L 188.669999 119.010478 
L 190.293813 110.795821 
L 191.917627 103.766354 
L 193.541441 97.744554 
L 195.165255 92.571824 
L 196.789069 88.114274 
L 198.514371 84.00424 
L 200.341162 80.269486 
L 202.167953 77.04054 
L 204.096232 74.092565 
L 206.024511 71.546544 
L 208.054279 69.230788 
L 210.185535 67.145229 
L 212.418279 65.277592 
L 214.752511 63.614841 
L 217.188232 62.146104 
L 220.029907 60.697609 
L 223.074558 59.403402 
L 226.322186 58.248397 
L 231.802558 56.581789 
L 236.471024 55.139703 
L 247.127303 51.693087 
L 258.494001 48.377236 
L 262.452048 47.642058 
L 267.424978 46.966951 
L 280.111025 45.271263 
L 285.38842 44.68867 
L 289.14349 44.4848 
L 292.797072 44.461604 
L 296.450653 44.644385 
L 300.713165 45.069245 
L 305.686095 45.774281 
L 319.792979 48.095116 
L 333.290933 49.891135 
L 338.568329 50.9244 
L 351.964794 53.753629 
L 356.125818 54.334643 
L 361.200236 54.833775 
L 367.796981 55.194508 
L 373.581818 55.3245 
L 373.581818 55.3245 
" style="fill:none;stroke:#c6e9b4;stroke-dasharray:5.55,2.4;stroke-dashoffset:0;stroke-width:1.5;"/>
    <defs>
     <path d="M 0 3 
C 0.795609 3 1.55874 2.683901 2.12132 2.12132 
C 2.683901 1.55874 3 0.795609 3 0 
C 3 -0.795609 2.683901 -1.55874 2.12132 -2.12132 
C 1.55874 -2.683901 0.795609 -3 0 -3 
C -0.795609 -3 -1.55874 -2.683901 -2.12132 -2.12132 
C -2.683901 -1.55874 -3 -0.795609 -3 0 
C -3 0.795609 -2.683901 1.55874 -2.12132 2.12132 
C -1.55874 2.683901 -0.795609 3 0 3 
z
" id="me11e733535" style="stroke:#c6e9b4;"/>
    </defs>
    <g clip-path="url(#p8c0822dcc7)">
     <use style="fill:#c6e9b4;stroke:#c6e9b4;" x="69.218182" xlink:href="#me11e733535" y="44.92639"/>
     <use style="fill:#c6e9b4;stroke:#c6e9b4;" x="77.337252" xlink:href="#me11e733535" y="49.354392"/>
     <use style="fill:#c6e9b4;stroke:#c6e9b4;" x="85.456322" xlink:href="#me11e733535" y="81.703612"/>
     <use style="fill:#c6e9b4;stroke:#c6e9b4;" x="93.575392" xlink:href="#me11e733535" y="120.995574"/>
     <use style="fill:#c6e9b4;stroke:#c6e9b4;" x="101.694462" xlink:href="#me11e733535" y="144.407242"/>
     <use style="fill:#c6e9b4;stroke:#c6e9b4;" x="109.813532" xlink:href="#me11e733535" y="148.069652"/>
     <use style="fill:#c6e9b4;stroke:#c6e9b4;" x="117.932602" xlink:href="#me11e733535" y="142.552456"/>
     <use style="fill:#c6e9b4;stroke:#c6e9b4;" x="126.051672" xlink:href="#me11e733535" y="137.600375"/>
     <use style="fill:#c6e9b4;stroke:#c6e9b4;" x="134.170742" xlink:href="#me11e733535" y="136.316197"/>
     <use style="fill:#c6e9b4;stroke:#c6e9b4;" x="142.289812" xlink:href="#me11e733535" y="139.818229"/>
     <use style="fill:#c6e9b4;stroke:#c6e9b4;" x="150.408882" xlink:href="#me11e733535" y="152.821723"/>
     <use style="fill:#c6e9b4;stroke:#c6e9b4;" x="158.527952" xlink:href="#me11e733535" y="178.168968"/>
     <use style="fill:#c6e9b4;stroke:#c6e9b4;" x="166.647022" xlink:href="#me11e733535" y="217.132763"/>
     <use style="fill:#c6e9b4;stroke:#c6e9b4;" x="174.766092" xlink:href="#me11e733535" y="237.445948"/>
     <use style="fill:#c6e9b4;stroke:#c6e9b4;" x="182.885162" xlink:href="#me11e733535" y="160.9795"/>
     <use style="fill:#c6e9b4;stroke:#c6e9b4;" x="191.004232" xlink:href="#me11e733535" y="107.585004"/>
     <use style="fill:#c6e9b4;stroke:#c6e9b4;" x="199.123302" xlink:href="#me11e733535" y="82.700035"/>
     <use style="fill:#c6e9b4;stroke:#c6e9b4;" x="207.242372" xlink:href="#me11e733535" y="70.117743"/>
     <use style="fill:#c6e9b4;stroke:#c6e9b4;" x="215.361442" xlink:href="#me11e733535" y="63.224303"/>
     <use style="fill:#c6e9b4;stroke:#c6e9b4;" x="223.480512" xlink:href="#me11e733535" y="59.247447"/>
     <use style="fill:#c6e9b4;stroke:#c6e9b4;" x="231.599582" xlink:href="#me11e733535" y="56.640407"/>
     <use style="fill:#c6e9b4;stroke:#c6e9b4;" x="239.718652" xlink:href="#me11e733535" y="54.034695"/>
     <use style="fill:#c6e9b4;stroke:#c6e9b4;" x="247.837722" xlink:href="#me11e733535" y="51.478343"/>
     <use style="fill:#c6e9b4;stroke:#c6e9b4;" x="255.956792" xlink:href="#me11e733535" y="48.997907"/>
     <use style="fill:#c6e9b4;stroke:#c6e9b4;" x="264.075862" xlink:href="#me11e733535" y="47.401697"/>
     <use style="fill:#c6e9b4;stroke:#c6e9b4;" x="272.194932" xlink:href="#me11e733535" y="46.346463"/>
     <use style="fill:#c6e9b4;stroke:#c6e9b4;" x="280.314002" xlink:href="#me11e733535" y="45.24494"/>
     <use style="fill:#c6e9b4;stroke:#c6e9b4;" x="288.433072" xlink:href="#me11e733535" y="44.511844"/>
     <use style="fill:#c6e9b4;stroke:#c6e9b4;" x="296.552142" xlink:href="#me11e733535" y="44.651875"/>
     <use style="fill:#c6e9b4;stroke:#c6e9b4;" x="304.671212" xlink:href="#me11e733535" y="45.613258"/>
     <use style="fill:#c6e9b4;stroke:#c6e9b4;" x="312.790282" xlink:href="#me11e733535" y="47.055692"/>
     <use style="fill:#c6e9b4;stroke:#c6e9b4;" x="320.909352" xlink:href="#me11e733535" y="48.235474"/>
     <use style="fill:#c6e9b4;stroke:#c6e9b4;" x="329.028422" xlink:href="#me11e733535" y="49.242647"/>
     <use style="fill:#c6e9b4;stroke:#c6e9b4;" x="337.147492" xlink:href="#me11e733535" y="50.621492"/>
     <use style="fill:#c6e9b4;stroke:#c6e9b4;" x="345.266562" xlink:href="#me11e733535" y="52.448808"/>
     <use style="fill:#c6e9b4;stroke:#c6e9b4;" x="353.385632" xlink:href="#me11e733535" y="53.978046"/>
     <use style="fill:#c6e9b4;stroke:#c6e9b4;" x="361.504702" xlink:href="#me11e733535" y="54.856186"/>
     <use style="fill:#c6e9b4;stroke:#c6e9b4;" x="369.623772" xlink:href="#me11e733535" y="55.264022"/>
    </g>
   </g>
   <g id="line2d_15">
    <path clip-path="url(#p8c0822dcc7)" d="M 69.218182 57.802815 
L 69.31967 57.880462 
L 69.421159 57.46378 
L 69.522647 57.75656 
L 69.624135 57.659813 
L 69.725624 57.839981 
L 69.827112 57.335851 
L 69.9286 57.804934 
L 70.131577 57.458863 
L 70.233066 57.927752 
L 70.334554 57.118615 
L 70.436042 57.545066 
L 70.537531 57.500363 
L 70.639019 57.282092 
L 70.740507 57.674401 
L 70.841996 57.173053 
L 70.943484 57.386796 
L 71.044973 57.335512 
L 71.146461 56.957903 
L 71.247949 57.812471 
L 71.349438 56.885141 
L 71.552414 57.410263 
L 71.653903 56.954038 
L 71.755391 57.528003 
L 71.85688 56.821694 
L 71.958368 57.466578 
L 72.059856 57.287963 
L 72.161345 56.88189 
L 72.262833 57.426048 
L 72.364321 56.724721 
L 72.46581 57.534116 
L 72.567298 57.496546 
L 72.668787 56.896818 
L 72.770275 57.481732 
L 72.871763 56.958809 
L 73.07474 57.66211 
L 73.176228 56.99439 
L 73.277717 57.470055 
L 73.480694 57.332956 
L 73.582182 57.696591 
L 73.68367 57.375799 
L 73.785159 57.896425 
L 73.886647 57.367696 
L 74.089624 58.197179 
L 74.191112 57.454723 
L 74.394089 58.131225 
L 74.495577 57.943488 
L 74.597066 58.374079 
L 74.698554 57.931116 
L 74.800042 58.691475 
L 74.901531 58.612664 
L 75.003019 58.52313 
L 75.104508 59.038452 
L 75.205996 58.481582 
L 75.408973 59.217034 
L 75.510461 59.069342 
L 75.611949 59.861384 
L 75.713438 59.082588 
L 75.916415 59.876474 
L 76.017903 59.791404 
L 76.119391 60.824489 
L 76.22088 59.940665 
L 76.423856 60.858921 
L 76.525345 60.770487 
L 76.626833 61.488764 
L 76.728322 60.972278 
L 76.931298 61.806985 
L 77.032787 61.604595 
L 77.134275 62.572681 
L 77.235763 62.069473 
L 77.43874 63.159374 
L 77.540229 63.033176 
L 77.641717 63.626161 
L 77.743205 63.352206 
L 77.946182 64.466253 
L 78.04767 64.130258 
L 78.149159 65.146734 
L 78.250647 64.754812 
L 78.453624 66.065734 
L 78.555112 65.894235 
L 78.656601 66.55843 
L 78.758089 66.39437 
L 78.961066 67.717551 
L 79.062554 67.236889 
L 79.164043 68.403434 
L 79.265531 68.301059 
L 79.367019 68.578798 
L 79.468508 69.410497 
L 79.569996 69.096643 
L 79.671484 70.250767 
L 79.772973 70.020479 
L 79.97595 71.391387 
L 80.077438 71.069996 
L 80.381903 72.754547 
L 80.483391 73.237943 
L 80.58488 73.023133 
L 80.787857 74.441541 
L 80.889345 74.735648 
L 80.990833 75.809392 
L 81.092322 75.222893 
L 81.295298 76.840391 
L 81.396787 76.869163 
L 81.498275 77.887822 
L 81.599764 77.526904 
L 81.80274 78.716383 
L 81.904229 79.087457 
L 82.005717 80.205709 
L 82.107205 79.765107 
L 82.310182 81.101518 
L 82.411671 81.200141 
L 82.513159 82.238127 
L 82.614647 82.037209 
L 82.817624 83.357638 
L 82.919112 83.489805 
L 83.020601 84.734417 
L 83.122089 84.378998 
L 83.325066 85.996836 
L 83.426554 86.030071 
L 83.731019 88.025129 
L 83.832508 88.446324 
L 83.933996 88.36782 
L 84.136973 89.583094 
L 84.542926 92.112477 
L 84.644415 92.3132 
L 85.050368 94.828933 
L 85.151857 94.998652 
L 85.659299 97.531771 
L 85.760787 97.774463 
L 85.862275 98.590976 
L 85.963764 98.366413 
L 86.16674 99.600772 
L 86.268229 99.745359 
L 86.369717 100.521939 
L 86.471206 100.388884 
L 86.674182 101.665842 
L 86.775671 101.618908 
L 86.877159 102.69034 
L 86.978647 102.311179 
L 87.181624 103.654301 
L 87.283113 103.872556 
L 87.384601 104.641908 
L 87.486089 104.368276 
L 87.689066 105.713081 
L 87.790554 105.833618 
L 87.892043 106.662147 
L 87.993531 106.373943 
L 88.196508 107.9005 
L 88.297996 107.793791 
L 88.399485 108.703508 
L 88.500973 108.619295 
L 88.70395 109.66692 
L 88.805438 109.709228 
L 88.906927 110.801426 
L 89.008415 110.442627 
L 89.211392 111.7355 
L 89.31288 111.662592 
L 89.414368 112.759819 
L 89.515857 112.352987 
L 89.718834 113.740488 
L 89.820322 113.614888 
L 89.92181 114.678136 
L 90.023299 114.338615 
L 90.226275 115.557044 
L 90.327764 115.657252 
L 90.429252 116.42311 
L 90.530741 116.399125 
L 90.733717 117.757648 
L 90.835206 117.414845 
L 91.038182 118.612701 
L 91.139671 118.828449 
L 91.241159 119.517598 
L 91.342648 119.387276 
L 91.748601 121.594055 
L 91.850089 121.166521 
L 92.154555 122.629647 
L 92.256043 123.197013 
L 92.357531 122.715817 
L 92.560508 123.861693 
L 92.661996 123.979934 
L 92.763485 124.719729 
L 92.864973 124.170226 
L 93.06795 124.851814 
L 93.169438 124.525677 
L 93.270927 125.212037 
L 93.372415 124.570541 
L 93.473903 125.243986 
L 93.67688 125.014297 
L 93.778369 125.596567 
L 93.879857 125.009849 
L 94.082834 125.632156 
L 94.184322 125.388161 
L 94.28581 125.996494 
L 94.387299 125.517764 
L 94.488787 126.125013 
L 94.590276 126.045724 
L 94.691764 125.78309 
L 94.793252 126.4779 
L 94.894741 125.78601 
L 95.097717 126.443533 
L 95.199206 126.331583 
L 95.300694 126.641895 
L 95.402183 126.418812 
L 95.503671 126.969326 
L 95.605159 126.893531 
L 95.706648 126.62273 
L 95.808136 127.241939 
L 95.909624 126.650661 
L 96.112601 127.433606 
L 96.21409 126.992607 
L 96.315578 127.508843 
L 96.417066 127.338702 
L 96.620043 127.791426 
L 96.721531 127.325473 
L 96.82302 127.965804 
L 97.025997 127.701455 
L 97.127485 128.215313 
L 97.228973 127.805561 
L 97.330462 128.263703 
L 97.43195 127.956876 
L 97.634927 128.178843 
L 97.736415 127.738443 
L 97.837904 127.944738 
L 98.04088 127.813955 
L 98.142369 127.92436 
L 98.243857 127.443617 
L 98.345345 127.842315 
L 98.548322 127.510217 
L 98.649811 127.815467 
L 98.751299 127.308895 
L 98.954276 127.479683 
L 99.055764 127.29531 
L 99.157252 127.61421 
L 99.258741 127.048655 
L 99.360229 127.425277 
L 99.664694 127.020837 
L 99.766183 127.142265 
L 99.969159 127.090543 
L 100.172136 126.997095 
L 100.273625 126.847123 
L 100.375113 127.024444 
L 100.679578 126.635466 
L 100.781066 126.78421 
L 100.882555 126.656831 
L 100.984043 126.732699 
L 101.288508 126.556412 
L 101.389997 126.631116 
L 101.694462 126.349883 
L 102.100415 126.351565 
L 102.201904 126.214692 
L 102.40488 126.226596 
L 102.506369 126.208644 
L 102.607857 125.987413 
L 102.912322 126.059269 
L 103.013811 126.048951 
L 103.216787 125.950489 
L 103.318276 125.994787 
L 103.724229 125.689651 
L 104.028694 125.77422 
L 104.231671 125.552034 
L 104.33316 125.728757 
L 104.434648 125.519963 
L 104.536136 125.615109 
L 104.637625 125.320178 
L 104.739113 125.493585 
L 104.840601 125.394137 
L 105.043578 125.401399 
L 105.652508 125.046417 
L 105.753997 125.220018 
L 105.855485 125.105804 
L 105.956974 125.208115 
L 106.15995 125.074008 
L 106.362927 125.105125 
L 106.667392 124.85378 
L 106.870369 124.895005 
L 107.479299 124.777912 
L 107.580788 124.49042 
L 107.682276 124.686566 
L 107.986741 124.568827 
L 108.291206 124.611071 
L 108.798648 124.346609 
L 109.001625 124.355116 
L 109.509067 124.18965 
L 109.610555 124.047845 
L 109.813532 124.140565 
L 110.016509 124.123405 
L 110.320974 124.000684 
L 110.422462 124.049268 
L 110.625439 123.845391 
L 110.929904 123.936073 
L 111.335857 123.760304 
L 111.640323 123.745829 
L 111.843299 123.614828 
L 111.944788 123.772806 
L 112.350741 123.527105 
L 112.858183 123.48043 
L 112.959671 123.474219 
L 113.264137 123.241198 
L 113.365625 123.369159 
L 113.771578 123.201461 
L 113.974555 123.276116 
L 114.27902 123.059543 
L 114.583485 123.097177 
L 115.090927 123.137254 
L 115.192416 122.899591 
L 115.293904 123.092924 
L 115.496881 123.058912 
L 115.699858 123.044194 
L 115.801346 122.933878 
L 115.902834 123.019611 
L 116.308788 122.678587 
L 117.120695 122.277285 
L 117.222183 122.036646 
L 117.323672 122.098217 
L 117.628137 121.936875 
L 118.135579 121.663453 
L 118.338555 121.508386 
L 118.64302 121.340009 
L 119.048974 121.108039 
L 119.353439 120.893649 
L 119.962369 120.591893 
L 120.875765 119.995754 
L 120.977253 120.144951 
L 121.078741 119.765984 
L 121.281718 119.87968 
L 121.383207 119.6994 
L 121.484695 119.77344 
L 121.586183 119.510757 
L 121.687672 119.656864 
L 121.890648 119.348946 
L 121.992137 119.600032 
L 122.093625 119.180649 
L 122.296602 119.28448 
L 122.39809 119.094318 
L 122.499579 119.20989 
L 122.601067 118.90946 
L 122.702555 119.083676 
L 122.905532 118.778232 
L 123.007021 118.986411 
L 123.108509 118.618604 
L 123.311486 118.752598 
L 123.412974 118.46813 
L 123.514462 118.64854 
L 123.615951 118.379728 
L 123.717439 118.513948 
L 123.818928 118.431919 
L 123.920416 118.194013 
L 124.021904 118.395723 
L 124.123393 118.067977 
L 124.326369 118.170983 
L 124.427858 117.956383 
L 124.529346 118.027932 
L 124.630835 117.815386 
L 124.732323 117.965294 
L 124.9353 117.64172 
L 125.036788 117.878898 
L 125.138276 117.452431 
L 125.341253 117.594608 
L 125.442742 117.377954 
L 125.54423 117.517333 
L 125.645718 117.258985 
L 125.747207 117.409734 
L 125.950183 117.082582 
L 126.051672 117.316399 
L 126.15316 116.933304 
L 126.356137 117.067088 
L 126.457625 116.828212 
L 126.559114 116.928291 
L 126.660602 116.767013 
L 126.863579 116.784868 
L 126.965067 116.488125 
L 127.066556 116.678595 
L 127.168044 116.373248 
L 127.371021 116.483565 
L 127.472509 116.193679 
L 127.573997 116.302055 
L 127.776974 116.192304 
L 127.878463 116.167964 
L 127.979951 115.91898 
L 128.081439 116.041572 
L 128.182928 115.792183 
L 128.385904 115.831306 
L 128.588881 115.66681 
L 128.791858 115.554973 
L 128.893346 115.636825 
L 129.096323 115.348379 
L 130.923114 114.419852 
L 131.126091 114.293525 
L 131.430556 114.313482 
L 131.937998 114.214487 
L 132.039486 114.008119 
L 132.242463 114.097265 
L 132.546928 114.093869 
L 132.648416 113.985396 
L 132.749905 114.120069 
L 133.05437 113.858858 
L 133.358835 113.984377 
L 133.6633 113.832658 
L 133.764788 113.988695 
L 134.069253 113.746828 
L 134.27223 113.793131 
L 134.576695 113.589124 
L 135.185626 113.05239 
L 135.388602 113.009191 
L 135.591579 112.890384 
L 135.693067 112.75238 
L 135.794556 112.839844 
L 136.200509 112.45554 
L 137.012416 112.073985 
L 137.215393 111.925711 
L 137.621347 111.847029 
L 137.722835 111.662479 
L 137.824323 111.839525 
L 138.128788 111.498144 
L 138.433254 111.552211 
L 138.737719 111.349482 
L 138.839207 111.620736 
L 139.143672 111.25377 
L 139.448137 111.428115 
L 139.549626 111.318316 
L 139.854091 111.390545 
L 140.158556 111.18277 
L 140.361533 111.316861 
L 140.564509 111.351083 
L 140.767486 111.337708 
L 140.970463 111.410729 
L 141.17344 111.322942 
L 141.477905 111.515644 
L 141.680882 111.464569 
L 141.883858 111.676501 
L 142.086835 111.583134 
L 142.188323 111.515644 
L 142.3913 111.731473 
L 142.594277 111.725327 
L 142.695765 111.923851 
L 142.797254 111.828721 
L 143.00023 111.894254 
L 144.827021 112.829218 
L 145.131486 113.082326 
L 145.232975 113.007267 
L 145.435951 113.233657 
L 145.53744 113.201085 
L 145.638928 113.456004 
L 145.841905 113.4272 
L 146.653812 114.012777 
L 147.059765 114.251895 
L 147.161254 114.385517 
L 147.262742 114.292053 
L 147.567207 114.685818 
L 147.668696 114.64841 
L 147.770184 114.77519 
L 147.871672 114.671828 
L 148.074649 114.959547 
L 148.379114 115.155952 
L 149.089533 115.624226 
L 149.393998 115.753465 
L 149.698463 115.984222 
L 150.002928 116.208866 
L 150.205905 116.334482 
L 150.307393 116.265762 
L 150.611858 116.534526 
L 151.220789 116.882214 
L 151.322277 116.781892 
L 151.626742 116.980384 
L 154.26544 117.603196 
L 154.366928 117.47889 
L 154.671393 117.623218 
L 154.87437 117.686972 
L 154.975859 117.648238 
L 155.178835 117.719189 
L 155.381812 117.608678 
L 155.686277 117.767967 
L 155.889254 117.6593 
L 156.193719 117.658766 
L 156.396696 117.488092 
L 156.701161 117.574844 
L 156.802649 117.416721 
L 157.005626 117.495872 
L 157.208603 117.259147 
L 157.513068 117.363188 
L 157.716045 117.149085 
L 157.817533 117.26374 
L 158.121998 116.822665 
L 158.223487 116.967818 
L 158.62944 116.733972 
L 158.730928 116.809209 
L 159.035394 116.499058 
L 159.847301 116.05506 
L 160.050277 115.832341 
L 160.456231 115.622916 
L 160.557719 115.450285 
L 160.659208 115.545318 
L 161.166649 114.936646 
L 161.268138 115.065496 
L 161.572603 114.631072 
L 161.674091 114.718666 
L 162.080045 114.161634 
L 162.181533 114.147191 
L 162.587487 113.763356 
L 163.906836 112.264698 
L 164.109812 112.128812 
L 164.312789 111.937016 
L 164.515766 111.714556 
L 164.617254 111.544545 
L 164.718743 111.655896 
L 165.226184 111.071451 
L 165.53065 110.831686 
L 165.632138 110.643254 
L 165.733626 110.702027 
L 166.13958 110.131684 
L 166.241068 110.159971 
L 166.545533 109.785646 
L 166.647022 109.633344 
L 166.74851 109.754885 
L 167.052975 109.136751 
L 167.154464 109.213331 
L 167.560417 108.733493 
L 167.966371 108.317377 
L 168.169347 108.094334 
L 169.488696 106.606172 
L 169.590185 106.522347 
L 169.691673 106.220461 
L 169.793161 106.351916 
L 170.097626 105.61436 
L 170.199115 105.680492 
L 171.011022 104.716094 
L 171.213999 104.357117 
L 171.619952 103.867171 
L 172.330371 102.439544 
L 172.837813 100.696851 
L 173.142278 99.453742 
L 173.345254 98.370003 
L 173.64972 96.322917 
L 175.780975 83.524593 
L 176.186929 82.217635 
L 177.201813 79.045326 
L 177.303301 79.181665 
L 177.607766 78.978774 
L 177.709255 78.939748 
L 177.912231 78.807097 
L 178.115208 78.623889 
L 178.318185 78.45197 
L 178.419673 78.475081 
L 178.825627 78.127587 
L 178.927115 78.228992 
L 179.23158 77.827351 
L 179.739022 77.553298 
L 180.144976 77.359173 
L 180.347952 77.055007 
L 180.550929 77.039319 
L 180.652417 76.987824 
L 180.855394 76.810616 
L 180.956883 76.872252 
L 181.261348 76.410981 
L 181.565813 76.331442 
L 181.870278 76.065557 
L 181.971766 76.122082 
L 182.37772 75.675528 
L 183.189627 75.19066 
L 183.392604 74.964076 
L 184.103022 74.556531 
L 184.508976 74.228332 
L 185.828325 73.235938 
L 186.031301 73.200907 
L 186.538743 72.782414 
L 186.843208 72.611545 
L 187.046185 72.482048 
L 187.249162 72.315029 
L 187.452139 72.10017 
L 188.264046 71.587647 
L 188.467022 71.398487 
L 188.568511 71.536265 
L 188.872976 71.01221 
L 188.974464 71.139961 
L 189.177441 70.986026 
L 190.902743 69.888103 
L 191.10572 69.867094 
L 191.207208 69.898518 
L 191.410185 69.815211 
L 191.917627 69.514797 
L 192.019115 69.572292 
L 192.323581 69.465566 
L 201.254558 66.354666 
L 201.356046 66.409169 
L 201.559023 66.292238 
L 201.964976 66.140195 
L 202.167953 66.073433 
L 202.776883 65.912802 
L 203.081348 65.733637 
L 203.791767 65.547307 
L 204.19772 65.399211 
L 204.502186 65.28532 
L 207.95279 64.120409 
L 208.155767 64.048924 
L 209.069162 63.640005 
L 209.272139 63.648059 
L 209.576604 63.537759 
L 209.678093 63.458899 
L 209.779581 63.560126 
L 210.185535 63.346011 
L 210.692976 63.152469 
L 210.794465 63.210837 
L 211.09893 62.953362 
L 211.403395 62.933631 
L 213.331674 62.165121 
L 213.433163 62.28147 
L 213.839116 62.052605 
L 219.116512 60.092885 
L 219.319488 60.06607 
L 219.928419 59.882264 
L 220.131395 59.699217 
L 220.537349 59.614002 
L 221.349256 59.263176 
L 221.450744 59.300245 
L 221.755209 59.112427 
L 221.958186 59.073903 
L 222.668605 58.758868 
L 223.074558 58.589569 
L 223.176047 58.670289 
L 223.480512 58.362888 
L 223.582 58.442411 
L 224.089442 58.223039 
L 224.19093 58.262777 
L 224.596884 58.02327 
L 226.017721 57.451602 
L 226.322186 57.350795 
L 226.72814 57.188612 
L 226.931116 57.106194 
L 227.438558 56.860445 
L 227.540047 56.988745 
L 227.743023 56.822972 
L 227.844512 56.731368 
L 228.047489 56.733276 
L 228.55493 56.633246 
L 229.163861 56.476157 
L 232.005535 55.780005 
L 232.31 55.723545 
L 233.527861 55.474318 
L 233.832326 55.344416 
L 234.238279 55.286096 
L 234.745721 55.104004 
L 234.948698 55.11298 
L 235.151675 55.094058 
L 235.354652 55.000011 
L 235.45614 55.079971 
L 235.760605 54.895954 
L 236.06507 54.905043 
L 237.282931 54.603918 
L 237.587396 54.566137 
L 237.790373 54.481698 
L 238.094838 54.457762 
L 240.42907 53.995844 
L 240.530559 54.013715 
L 240.733535 53.918019 
L 241.545442 53.806732 
L 241.748419 53.752892 
L 254.332978 51.224723 
L 254.535954 51.138197 
L 255.246373 51.019147 
L 256.05828 50.831556 
L 257.276141 50.584464 
L 257.377629 50.42668 
L 257.580606 50.472401 
L 260.523769 50.076356 
L 261.03121 50.038559 
L 263.365443 49.790675 
L 264.481815 49.688769 
L 265.902652 49.54064 
L 267.93242 49.310223 
L 268.236885 49.314654 
L 269.15028 49.228759 
L 269.860699 49.151533 
L 270.368141 49.115127 
L 274.427676 48.720457 
L 275.036606 48.675334 
L 275.747025 48.588307 
L 276.05149 48.57401 
L 276.355955 48.536585 
L 276.964885 48.489231 
L 277.573816 48.415401 
L 278.385723 48.348639 
L 279.096141 48.305667 
L 284.77949 47.98295 
L 285.38842 47.960874 
L 287.519676 47.912678 
L 288.53456 47.961213 
L 290.767304 48.051249 
L 291.477723 48.081703 
L 294.522374 48.205216 
L 295.232793 48.240861 
L 295.841723 48.261288 
L 299.901258 48.437332 
L 300.611677 48.455187 
L 302.336979 48.533529 
L 304.468235 48.61606 
L 313.399212 48.981813 
L 314.10963 48.997808 
L 315.936421 49.07628 
L 319.184049 49.237088 
L 319.387026 49.28158 
L 319.894468 49.363448 
L 321.01084 49.552673 
L 321.213817 49.606642 
L 321.924235 49.718414 
L 323.852514 50.042473 
L 324.055491 50.074092 
L 324.15698 50.087726 
L 324.258468 50.25007 
L 324.461445 50.183987 
L 326.288235 51.010931 
L 326.389724 50.85677 
L 326.592701 51.089484 
L 326.795677 51.145636 
L 327.100142 51.254287 
L 327.201631 51.351018 
L 327.303119 51.250082 
L 327.607584 51.601199 
L 327.810561 51.441846 
L 327.912049 51.761538 
L 328.013538 51.603705 
L 328.115026 51.726976 
L 328.216515 51.637054 
L 328.419491 51.823675 
L 328.622468 51.83202 
L 329.028422 52.077559 
L 329.231398 52.101964 
L 329.332887 52.212442 
L 329.434375 52.122973 
L 329.73884 52.484926 
L 329.941817 52.35842 
L 330.144794 52.472602 
L 330.449259 52.589177 
L 331.159677 52.911668 
L 331.261166 52.859558 
L 331.565631 53.156317 
L 331.870096 53.117793 
L 332.073073 53.307001 
L 332.174561 53.187434 
L 332.479026 53.531661 
L 332.783491 53.501854 
L 332.986468 53.668048 
L 333.087957 53.58183 
L 333.290933 53.738676 
L 333.392422 53.947745 
L 333.49391 53.794036 
L 333.899864 54.000146 
L 334.001352 53.924941 
L 334.407305 54.19799 
L 334.508794 54.141433 
L 334.711771 54.300447 
L 335.726654 54.692966 
L 335.828143 54.633919 
L 336.031119 54.798285 
L 336.234096 54.909863 
L 336.335585 54.831149 
L 336.538561 55.09071 
L 336.741538 55.064639 
L 337.046003 55.259249 
L 337.147492 55.166076 
L 337.451957 55.431799 
L 337.756422 55.435519 
L 338.365352 55.776123 
L 338.669817 55.784776 
L 341.207027 56.172007 
L 341.410003 56.18336 
L 342.018934 56.288582 
L 344.556143 56.633246 
L 344.75912 56.679193 
L 345.469538 56.783024 
L 345.774003 56.829781 
L 346.382934 56.919557 
L 346.58591 56.935795 
L 348.209724 57.173183 
L 348.615678 57.220764 
L 349.529073 57.358299 
L 349.935027 57.395109 
L 350.138004 57.453235 
L 368.913353 60.142957 
L 369.014841 60.08213 
L 369.11633 60.234238 
L 369.319306 60.167556 
L 369.420795 60.258222 
L 369.522283 60.192673 
L 369.72526 60.23131 
L 372.566934 60.700636 
L 372.668423 60.604552 
L 372.8714 60.700846 
L 372.972888 60.672883 
L 373.074376 60.789167 
L 373.277353 60.781695 
L 373.48033 60.725558 
L 373.581818 60.870453 
L 373.581818 60.870453 
" style="fill:none;stroke:#081d58;stroke-dasharray:5.55,2.4;stroke-dashoffset:0;stroke-width:1.5;"/>
    <defs>
     <path d="M -0 4.242641 
L 4.242641 0 
L 0 -4.242641 
L -4.242641 -0 
z
" id="m07dada5f37" style="stroke:#081d58;stroke-linejoin:miter;"/>
    </defs>
    <g clip-path="url(#p8c0822dcc7)">
     <use style="fill:#081d58;stroke:#081d58;stroke-linejoin:miter;" x="69.218182" xlink:href="#m07dada5f37" y="57.802815"/>
     <use style="fill:#081d58;stroke:#081d58;stroke-linejoin:miter;" x="77.337252" xlink:href="#m07dada5f37" y="62.937755"/>
     <use style="fill:#081d58;stroke:#081d58;stroke-linejoin:miter;" x="85.456322" xlink:href="#m07dada5f37" y="96.619514"/>
     <use style="fill:#081d58;stroke:#081d58;stroke-linejoin:miter;" x="93.575392" xlink:href="#m07dada5f37" y="125.0464"/>
     <use style="fill:#081d58;stroke:#081d58;stroke-linejoin:miter;" x="101.694462" xlink:href="#m07dada5f37" y="126.349883"/>
     <use style="fill:#081d58;stroke:#081d58;stroke-linejoin:miter;" x="109.813532" xlink:href="#m07dada5f37" y="124.140565"/>
     <use style="fill:#081d58;stroke:#081d58;stroke-linejoin:miter;" x="117.932602" xlink:href="#m07dada5f37" y="121.723358"/>
     <use style="fill:#081d58;stroke:#081d58;stroke-linejoin:miter;" x="126.051672" xlink:href="#m07dada5f37" y="117.316399"/>
     <use style="fill:#081d58;stroke:#081d58;stroke-linejoin:miter;" x="134.170742" xlink:href="#m07dada5f37" y="113.792727"/>
     <use style="fill:#081d58;stroke:#081d58;stroke-linejoin:miter;" x="142.289812" xlink:href="#m07dada5f37" y="111.692835"/>
     <use style="fill:#081d58;stroke:#081d58;stroke-linejoin:miter;" x="150.408882" xlink:href="#m07dada5f37" y="116.422786"/>
     <use style="fill:#081d58;stroke:#081d58;stroke-linejoin:miter;" x="158.527952" xlink:href="#m07dada5f37" y="116.894667"/>
     <use style="fill:#081d58;stroke:#081d58;stroke-linejoin:miter;" x="166.647022" xlink:href="#m07dada5f37" y="109.633344"/>
     <use style="fill:#081d58;stroke:#081d58;stroke-linejoin:miter;" x="174.766092" xlink:href="#m07dada5f37" y="88.764124"/>
     <use style="fill:#081d58;stroke:#081d58;stroke-linejoin:miter;" x="182.885162" xlink:href="#m07dada5f37" y="75.344918"/>
     <use style="fill:#081d58;stroke:#081d58;stroke-linejoin:miter;" x="191.004232" xlink:href="#m07dada5f37" y="69.938336"/>
     <use style="fill:#081d58;stroke:#081d58;stroke-linejoin:miter;" x="199.123302" xlink:href="#m07dada5f37" y="67.107229"/>
     <use style="fill:#081d58;stroke:#081d58;stroke-linejoin:miter;" x="207.242372" xlink:href="#m07dada5f37" y="64.346556"/>
     <use style="fill:#081d58;stroke:#081d58;stroke-linejoin:miter;" x="215.361442" xlink:href="#m07dada5f37" y="61.504032"/>
     <use style="fill:#081d58;stroke:#081d58;stroke-linejoin:miter;" x="223.480512" xlink:href="#m07dada5f37" y="58.362888"/>
     <use style="fill:#081d58;stroke:#081d58;stroke-linejoin:miter;" x="231.599582" xlink:href="#m07dada5f37" y="55.892456"/>
     <use style="fill:#081d58;stroke:#081d58;stroke-linejoin:miter;" x="239.718652" xlink:href="#m07dada5f37" y="54.097896"/>
     <use style="fill:#081d58;stroke:#081d58;stroke-linejoin:miter;" x="247.837722" xlink:href="#m07dada5f37" y="52.597183"/>
     <use style="fill:#081d58;stroke:#081d58;stroke-linejoin:miter;" x="255.956792" xlink:href="#m07dada5f37" y="50.831491"/>
     <use style="fill:#081d58;stroke:#081d58;stroke-linejoin:miter;" x="264.075862" xlink:href="#m07dada5f37" y="49.728975"/>
     <use style="fill:#081d58;stroke:#081d58;stroke-linejoin:miter;" x="272.194932" xlink:href="#m07dada5f37" y="48.956308"/>
     <use style="fill:#081d58;stroke:#081d58;stroke-linejoin:miter;" x="280.314002" xlink:href="#m07dada5f37" y="48.223961"/>
     <use style="fill:#081d58;stroke:#081d58;stroke-linejoin:miter;" x="288.433072" xlink:href="#m07dada5f37" y="47.951251"/>
     <use style="fill:#081d58;stroke:#081d58;stroke-linejoin:miter;" x="296.552142" xlink:href="#m07dada5f37" y="48.308643"/>
     <use style="fill:#081d58;stroke:#081d58;stroke-linejoin:miter;" x="304.671212" xlink:href="#m07dada5f37" y="48.617661"/>
     <use style="fill:#081d58;stroke:#081d58;stroke-linejoin:miter;" x="312.790282" xlink:href="#m07dada5f37" y="48.958492"/>
     <use style="fill:#081d58;stroke:#081d58;stroke-linejoin:miter;" x="320.909352" xlink:href="#m07dada5f37" y="49.514294"/>
     <use style="fill:#081d58;stroke:#081d58;stroke-linejoin:miter;" x="329.028422" xlink:href="#m07dada5f37" y="52.077559"/>
     <use style="fill:#081d58;stroke:#081d58;stroke-linejoin:miter;" x="337.147492" xlink:href="#m07dada5f37" y="55.166076"/>
     <use style="fill:#081d58;stroke:#081d58;stroke-linejoin:miter;" x="345.266562" xlink:href="#m07dada5f37" y="56.711345"/>
     <use style="fill:#081d58;stroke:#081d58;stroke-linejoin:miter;" x="353.385632" xlink:href="#m07dada5f37" y="57.893481"/>
     <use style="fill:#081d58;stroke:#081d58;stroke-linejoin:miter;" x="361.504702" xlink:href="#m07dada5f37" y="59.071671"/>
     <use style="fill:#081d58;stroke:#081d58;stroke-linejoin:miter;" x="369.623772" xlink:href="#m07dada5f37" y="60.267392"/>
    </g>
   </g>
   <g id="patch_3">
    <path d="M 54 252 
L 54 34.56 
" style="fill:none;stroke:#000000;stroke-linecap:square;stroke-linejoin:miter;stroke-width:0.8;"/>
   </g>
   <g id="patch_4">
    <path d="M 388.8 252 
L 388.8 34.56 
" style="fill:none;stroke:#000000;stroke-linecap:square;stroke-linejoin:miter;stroke-width:0.8;"/>
   </g>
   <g id="patch_5">
    <path d="M 54 252 
L 388.8 252 
" style="fill:none;stroke:#000000;stroke-linecap:square;stroke-linejoin:miter;stroke-width:0.8;"/>
   </g>
   <g id="patch_6">
    <path d="M 54 34.56 
L 388.8 34.56 
" style="fill:none;stroke:#000000;stroke-linecap:square;stroke-linejoin:miter;stroke-width:0.8;"/>
   </g>
   <g id="legend_1">
    <g id="patch_7">
     <path d="M 61 247 
L 162.714063 247 
Q 164.714063 247 164.714063 245 
L 164.714063 216.64375 
Q 164.714063 214.64375 162.714063 214.64375 
L 61 214.64375 
Q 59 214.64375 59 216.64375 
L 59 245 
Q 59 247 61 247 
z
" style="fill:#ffffff;opacity:0.8;stroke:#cccccc;stroke-linejoin:miter;"/>
    </g>
    <g id="line2d_16">
     <path d="M 63 222.742188 
L 83 222.742188 
" style="fill:none;stroke:#c6e9b4;stroke-dasharray:5.55,2.4;stroke-dashoffset:0;stroke-width:1.5;"/>
    </g>
    <g id="line2d_17">
     <g>
      <use style="fill:#c6e9b4;stroke:#c6e9b4;" x="73" xlink:href="#me11e733535" y="222.742188"/>
     </g>
    </g>
    <g id="text_16">
     <text style="font-family:DejaVu Sans;font-size:10px;font-style:normal;font-weight:normal;text-anchor:start;" transform="rotate(-0, 91, 226.242188)" x="91" y="226.242188">original</text>
    </g>
    <g id="line2d_18">
     <path d="M 63 237.420312 
L 83 237.420312 
" style="fill:none;stroke:#081d58;stroke-dasharray:5.55,2.4;stroke-dashoffset:0;stroke-width:1.5;"/>
    </g>
    <g id="line2d_19">
     <g>
      <use style="fill:#081d58;stroke:#081d58;stroke-linejoin:miter;" x="73" xlink:href="#m07dada5f37" y="237.420312"/>
     </g>
    </g>
    <g id="text_17">
     <text style="font-family:DejaVu Sans;font-size:10px;font-style:normal;font-weight:normal;text-anchor:start;" transform="rotate(-0, 91, 240.920312)" x="91" y="240.920312">reconstructed</text>
    </g>
   </g>
  </g>
  <g id="text_18">
   <text style="font-family:DejaVu Sans;font-size:12px;font-style:normal;font-weight:normal;text-anchor:middle;" transform="rotate(-0, 216, 14.878125)" x="216" y="14.878125">Reconstruction of the temperature curve</text>
  </g>
 </g>
 <defs>
  <clipPath id="p8c0822dcc7">
   <rect height="217.44" width="334.8" x="54" y="34.56"/>
  </clipPath>
 </defs>
</svg>
