<?xml version="1.0" encoding="utf-8" standalone="no"?>
<!DOCTYPE svg PUBLIC "-//W3C//DTD SVG 1.1//EN"
  "http://www.w3.org/Graphics/SVG/1.1/DTD/svg11.dtd">
<!-- Created with matplotlib (https://matplotlib.org/) -->
<svg height="288pt" version="1.1" viewBox="0 0 432 288" width="432pt" xmlns="http://www.w3.org/2000/svg" xmlns:xlink="http://www.w3.org/1999/xlink">
 <defs>
  <style type="text/css">
*{stroke-linecap:butt;stroke-linejoin:round;}
  </style>
 </defs>
 <g id="figure_1">
  <g id="patch_1">
   <path d="M 0 288 
L 432 288 
L 432 0 
L 0 0 
z
" style="fill:#ffffff;"/>
  </g>
  <g id="axes_1">
   <g id="patch_2">
    <path d="M 54 252 
L 388.8 252 
L 388.8 34.56 
L 54 34.56 
z
" style="fill:#ffffff;"/>
   </g>
   <g id="matplotlib.axis_1">
    <g id="xtick_1">
     <g id="line2d_1">
      <defs>
       <path d="M 0 0 
L 0 3.5 
" id="ma78a007d13" style="stroke:#000000;stroke-width:0.8;"/>
      </defs>
      <g>
       <use style="stroke:#000000;stroke-width:0.8;" x="69.218182" xlink:href="#ma78a007d13" y="252"/>
      </g>
     </g>
     <g id="text_1">
      <text style="font-family:DejaVu Sans;font-size:10px;font-style:normal;font-weight:normal;text-anchor:middle;" transform="rotate(-0, 69.218182, 266.598437)" x="69.218182" y="266.598437">0</text>
     </g>
    </g>
    <g id="xtick_2">
     <g id="line2d_2">
      <g>
       <use style="stroke:#000000;stroke-width:0.8;" x="119.962369" xlink:href="#ma78a007d13" y="252"/>
      </g>
     </g>
     <g id="text_2">
      <text style="font-family:DejaVu Sans;font-size:10px;font-style:normal;font-weight:normal;text-anchor:middle;" transform="rotate(-0, 119.962369, 266.598437)" x="119.962369" y="266.598437">500</text>
     </g>
    </g>
    <g id="xtick_3">
     <g id="line2d_3">
      <g>
       <use style="stroke:#000000;stroke-width:0.8;" x="170.706557" xlink:href="#ma78a007d13" y="252"/>
      </g>
     </g>
     <g id="text_3">
      <text style="font-family:DejaVu Sans;font-size:10px;font-style:normal;font-weight:normal;text-anchor:middle;" transform="rotate(-0, 170.706557, 266.598437)" x="170.706557" y="266.598437">1000</text>
     </g>
    </g>
    <g id="xtick_4">
     <g id="line2d_4">
      <g>
       <use style="stroke:#000000;stroke-width:0.8;" x="221.450744" xlink:href="#ma78a007d13" y="252"/>
      </g>
     </g>
     <g id="text_4">
      <text style="font-family:DejaVu Sans;font-size:10px;font-style:normal;font-weight:normal;text-anchor:middle;" transform="rotate(-0, 221.450744, 266.598437)" x="221.450744" y="266.598437">1500</text>
     </g>
    </g>
    <g id="xtick_5">
     <g id="line2d_5">
      <g>
       <use style="stroke:#000000;stroke-width:0.8;" x="272.194932" xlink:href="#ma78a007d13" y="252"/>
      </g>
     </g>
     <g id="text_5">
      <text style="font-family:DejaVu Sans;font-size:10px;font-style:normal;font-weight:normal;text-anchor:middle;" transform="rotate(-0, 272.194932, 266.598437)" x="272.194932" y="266.598437">2000</text>
     </g>
    </g>
    <g id="xtick_6">
     <g id="line2d_6">
      <g>
       <use style="stroke:#000000;stroke-width:0.8;" x="322.939119" xlink:href="#ma78a007d13" y="252"/>
      </g>
     </g>
     <g id="text_6">
      <text style="font-family:DejaVu Sans;font-size:10px;font-style:normal;font-weight:normal;text-anchor:middle;" transform="rotate(-0, 322.939119, 266.598437)" x="322.939119" y="266.598437">2500</text>
     </g>
    </g>
    <g id="xtick_7">
     <g id="line2d_7">
      <g>
       <use style="stroke:#000000;stroke-width:0.8;" x="373.683307" xlink:href="#ma78a007d13" y="252"/>
      </g>
     </g>
     <g id="text_7">
      <text style="font-family:DejaVu Sans;font-size:10px;font-style:normal;font-weight:normal;text-anchor:middle;" transform="rotate(-0, 373.683307, 266.598437)" x="373.683307" y="266.598437">3000</text>
     </g>
    </g>
    <g id="text_8">
     <text style="font-family:DejaVu Sans;font-size:10px;font-style:normal;font-weight:normal;text-anchor:middle;" transform="rotate(-0, 221.4, 280.276563)" x="221.4" y="280.276563">Time</text>
    </g>
   </g>
   <g id="matplotlib.axis_2">
    <g id="ytick_1">
     <g id="line2d_8">
      <defs>
       <path d="M 0 0 
L -3.5 0 
" id="m458c1a8c8c" style="stroke:#000000;stroke-width:0.8;"/>
      </defs>
      <g>
       <use style="stroke:#000000;stroke-width:0.8;" x="54" xlink:href="#m458c1a8c8c" y="243.879522"/>
      </g>
     </g>
     <g id="text_9">
      <text style="font-family:DejaVu Sans;font-size:10px;font-style:normal;font-weight:normal;text-anchor:end;" transform="rotate(-0, 47, 247.67874)" x="47" y="247.67874">62.5</text>
     </g>
    </g>
    <g id="ytick_2">
     <g id="line2d_9">
      <g>
       <use style="stroke:#000000;stroke-width:0.8;" x="54" xlink:href="#m458c1a8c8c" y="216.606318"/>
      </g>
     </g>
     <g id="text_10">
      <text style="font-family:DejaVu Sans;font-size:10px;font-style:normal;font-weight:normal;text-anchor:end;" transform="rotate(-0, 47, 220.405537)" x="47" y="220.405537">65.0</text>
     </g>
    </g>
    <g id="ytick_3">
     <g id="line2d_10">
      <g>
       <use style="stroke:#000000;stroke-width:0.8;" x="54" xlink:href="#m458c1a8c8c" y="189.333114"/>
      </g>
     </g>
     <g id="text_11">
      <text style="font-family:DejaVu Sans;font-size:10px;font-style:normal;font-weight:normal;text-anchor:end;" transform="rotate(-0, 47, 193.132333)" x="47" y="193.132333">67.5</text>
     </g>
    </g>
    <g id="ytick_4">
     <g id="line2d_11">
      <g>
       <use style="stroke:#000000;stroke-width:0.8;" x="54" xlink:href="#m458c1a8c8c" y="162.05991"/>
      </g>
     </g>
     <g id="text_12">
      <text style="font-family:DejaVu Sans;font-size:10px;font-style:normal;font-weight:normal;text-anchor:end;" transform="rotate(-0, 47, 165.859129)" x="47" y="165.859129">70.0</text>
     </g>
    </g>
    <g id="ytick_5">
     <g id="line2d_12">
      <g>
       <use style="stroke:#000000;stroke-width:0.8;" x="54" xlink:href="#m458c1a8c8c" y="134.786707"/>
      </g>
     </g>
     <g id="text_13">
      <text style="font-family:DejaVu Sans;font-size:10px;font-style:normal;font-weight:normal;text-anchor:end;" transform="rotate(-0, 47, 138.585925)" x="47" y="138.585925">72.5</text>
     </g>
    </g>
    <g id="ytick_6">
     <g id="line2d_13">
      <g>
       <use style="stroke:#000000;stroke-width:0.8;" x="54" xlink:href="#m458c1a8c8c" y="107.513503"/>
      </g>
     </g>
     <g id="text_14">
      <text style="font-family:DejaVu Sans;font-size:10px;font-style:normal;font-weight:normal;text-anchor:end;" transform="rotate(-0, 47, 111.312722)" x="47" y="111.312722">75.0</text>
     </g>
    </g>
    <g id="ytick_7">
     <g id="line2d_14">
      <g>
       <use style="stroke:#000000;stroke-width:0.8;" x="54" xlink:href="#m458c1a8c8c" y="80.240299"/>
      </g>
     </g>
     <g id="text_15">
      <text style="font-family:DejaVu Sans;font-size:10px;font-style:normal;font-weight:normal;text-anchor:end;" transform="rotate(-0, 47, 84.039518)" x="47" y="84.039518">77.5</text>
     </g>
    </g>
    <g id="ytick_8">
     <g id="line2d_15">
      <g>
       <use style="stroke:#000000;stroke-width:0.8;" x="54" xlink:href="#m458c1a8c8c" y="52.967095"/>
      </g>
     </g>
     <g id="text_16">
      <text style="font-family:DejaVu Sans;font-size:10px;font-style:normal;font-weight:normal;text-anchor:end;" transform="rotate(-0, 47, 56.766314)" x="47" y="56.766314">80.0</text>
     </g>
    </g>
    <g id="text_17">
     <text style="font-family:DejaVu Sans;font-size:10px;font-style:normal;font-weight:normal;text-anchor:middle;" transform="rotate(-90, 18.654688, 143.28)" x="18.654688" y="143.28">weight (\%)</text>
    </g>
   </g>
   <g id="line2d_16">
    <path clip-path="url(#paa20279645)" d="M 69.218182 167.842593 
L 84.745903 168.102452 
L 90.733717 168.417949 
L 95.300694 168.88803 
L 130.821625 173.499819 
L 134.576695 174.308633 
L 138.0273 175.266905 
L 140.665998 176.200085 
L 143.710649 177.566581 
L 145.943393 178.824858 
L 147.973161 180.219609 
L 149.90144 181.848256 
L 151.626742 183.593741 
L 153.453533 185.746797 
L 155.381812 188.365461 
L 157.310091 191.337367 
L 159.339859 194.852665 
L 161.369626 198.812189 
L 163.196417 202.860514 
L 165.226184 207.927439 
L 167.661905 214.702103 
L 171.619952 225.748296 
L 172.939301 228.710493 
L 173.954185 230.482051 
L 174.86758 231.637126 
L 175.780975 232.421285 
L 176.897348 233.075951 
L 178.724138 233.87222 
L 181.565813 234.854273 
L 185.016418 235.799453 
L 189.786371 236.821435 
L 196.586092 238.010874 
L 204.096232 239.134421 
L 211.403395 240.013491 
L 219.319488 240.703175 
L 228.148977 241.229003 
L 242.864791 241.766394 
L 253.013629 241.983489 
L 271.788978 242.115709 
L 307.817351 241.928069 
L 341.207027 241.608427 
L 356.734748 241.39766 
L 373.581818 241.251149 
L 373.581818 241.251149 
" style="fill:none;stroke:#c6e9b4;stroke-dasharray:5.55,2.4;stroke-dashoffset:0;stroke-width:1.5;"/>
    <defs>
     <path d="M 0 3 
C 0.795609 3 1.55874 2.683901 2.12132 2.12132 
C 2.683901 1.55874 3 0.795609 3 0 
C 3 -0.795609 2.683901 -1.55874 2.12132 -2.12132 
C 1.55874 -2.683901 0.795609 -3 0 -3 
C -0.795609 -3 -1.55874 -2.683901 -2.12132 -2.12132 
C -2.683901 -1.55874 -3 -0.795609 -3 0 
C -3 0.795609 -2.683901 1.55874 -2.12132 2.12132 
C -1.55874 2.683901 -0.795609 3 0 3 
z
" id="m2b8e909461" style="stroke:#c6e9b4;"/>
    </defs>
    <g clip-path="url(#paa20279645)">
     <use style="fill:#c6e9b4;stroke:#c6e9b4;" x="69.218182" xlink:href="#m2b8e909461" y="167.842593"/>
     <use style="fill:#c6e9b4;stroke:#c6e9b4;" x="77.337252" xlink:href="#m2b8e909461" y="167.955068"/>
     <use style="fill:#c6e9b4;stroke:#c6e9b4;" x="85.456322" xlink:href="#m2b8e909461" y="168.125798"/>
     <use style="fill:#c6e9b4;stroke:#c6e9b4;" x="93.575392" xlink:href="#m2b8e909461" y="168.68599"/>
     <use style="fill:#c6e9b4;stroke:#c6e9b4;" x="101.694462" xlink:href="#m2b8e909461" y="169.772772"/>
     <use style="fill:#c6e9b4;stroke:#c6e9b4;" x="109.813532" xlink:href="#m2b8e909461" y="170.810245"/>
     <use style="fill:#c6e9b4;stroke:#c6e9b4;" x="117.932602" xlink:href="#m2b8e909461" y="171.712661"/>
     <use style="fill:#c6e9b4;stroke:#c6e9b4;" x="126.051672" xlink:href="#m2b8e909461" y="172.718933"/>
     <use style="fill:#c6e9b4;stroke:#c6e9b4;" x="134.170742" xlink:href="#m2b8e909461" y="174.21045"/>
     <use style="fill:#c6e9b4;stroke:#c6e9b4;" x="142.289812" xlink:href="#m2b8e909461" y="176.887697"/>
     <use style="fill:#c6e9b4;stroke:#c6e9b4;" x="150.408882" xlink:href="#m2b8e909461" y="182.330665"/>
     <use style="fill:#c6e9b4;stroke:#c6e9b4;" x="158.527952" xlink:href="#m2b8e909461" y="193.396167"/>
     <use style="fill:#c6e9b4;stroke:#c6e9b4;" x="166.647022" xlink:href="#m2b8e909461" y="211.812998"/>
     <use style="fill:#c6e9b4;stroke:#c6e9b4;" x="174.766092" xlink:href="#m2b8e909461" y="231.529124"/>
     <use style="fill:#c6e9b4;stroke:#c6e9b4;" x="182.885162" xlink:href="#m2b8e909461" y="235.243407"/>
     <use style="fill:#c6e9b4;stroke:#c6e9b4;" x="191.004232" xlink:href="#m2b8e909461" y="237.050748"/>
     <use style="fill:#c6e9b4;stroke:#c6e9b4;" x="199.123302" xlink:href="#m2b8e909461" y="238.409717"/>
     <use style="fill:#c6e9b4;stroke:#c6e9b4;" x="207.242372" xlink:href="#m2b8e909461" y="239.54221"/>
     <use style="fill:#c6e9b4;stroke:#c6e9b4;" x="215.361442" xlink:href="#m2b8e909461" y="240.389533"/>
     <use style="fill:#c6e9b4;stroke:#c6e9b4;" x="223.480512" xlink:href="#m2b8e909461" y="240.976998"/>
     <use style="fill:#c6e9b4;stroke:#c6e9b4;" x="231.599582" xlink:href="#m2b8e909461" y="241.382605"/>
     <use style="fill:#c6e9b4;stroke:#c6e9b4;" x="239.718652" xlink:href="#m2b8e909461" y="241.676938"/>
     <use style="fill:#c6e9b4;stroke:#c6e9b4;" x="247.837722" xlink:href="#m2b8e909461" y="241.884214"/>
     <use style="fill:#c6e9b4;stroke:#c6e9b4;" x="255.956792" xlink:href="#m2b8e909461" y="242.029744"/>
     <use style="fill:#c6e9b4;stroke:#c6e9b4;" x="264.075862" xlink:href="#m2b8e909461" y="242.104363"/>
     <use style="fill:#c6e9b4;stroke:#c6e9b4;" x="272.194932" xlink:href="#m2b8e909461" y="242.114836"/>
     <use style="fill:#c6e9b4;stroke:#c6e9b4;" x="280.314002" xlink:href="#m2b8e909461" y="242.08429"/>
     <use style="fill:#c6e9b4;stroke:#c6e9b4;" x="288.433072" xlink:href="#m2b8e909461" y="242.039017"/>
     <use style="fill:#c6e9b4;stroke:#c6e9b4;" x="296.552142" xlink:href="#m2b8e909461" y="242.020907"/>
     <use style="fill:#c6e9b4;stroke:#c6e9b4;" x="304.671212" xlink:href="#m2b8e909461" y="241.966143"/>
     <use style="fill:#c6e9b4;stroke:#c6e9b4;" x="312.790282" xlink:href="#m2b8e909461" y="241.867632"/>
     <use style="fill:#c6e9b4;stroke:#c6e9b4;" x="320.909352" xlink:href="#m2b8e909461" y="241.774903"/>
     <use style="fill:#c6e9b4;stroke:#c6e9b4;" x="329.028422" xlink:href="#m2b8e909461" y="241.692865"/>
     <use style="fill:#c6e9b4;stroke:#c6e9b4;" x="337.147492" xlink:href="#m2b8e909461" y="241.606246"/>
     <use style="fill:#c6e9b4;stroke:#c6e9b4;" x="345.266562" xlink:href="#m2b8e909461" y="241.554427"/>
     <use style="fill:#c6e9b4;stroke:#c6e9b4;" x="353.385632" xlink:href="#m2b8e909461" y="241.441952"/>
     <use style="fill:#c6e9b4;stroke:#c6e9b4;" x="361.504702" xlink:href="#m2b8e909461" y="241.340496"/>
     <use style="fill:#c6e9b4;stroke:#c6e9b4;" x="369.623772" xlink:href="#m2b8e909461" y="241.270022"/>
    </g>
   </g>
   <g id="line2d_17">
    <path clip-path="url(#paa20279645)" d="M 69.218182 58.017565 
L 69.31967 58.087563 
L 69.421159 58.816002 
L 69.522647 58.286485 
L 69.624135 58.509878 
L 69.725624 57.550721 
L 69.827112 58.96199 
L 69.9286 57.821639 
L 70.131577 58.708967 
L 70.233066 57.535656 
L 70.334554 59.177392 
L 70.537531 58.000836 
L 70.639019 58.674093 
L 70.740507 57.652347 
L 70.841996 59.000526 
L 70.943484 58.000503 
L 71.044973 58.238461 
L 71.146461 58.991454 
L 71.247949 57.660337 
L 71.349438 59.340359 
L 71.552414 58.187107 
L 71.653903 58.715875 
L 71.755391 57.799832 
L 71.85688 59.083757 
L 71.958368 58.18719 
L 72.059856 58.251445 
L 72.161345 58.770475 
L 72.262833 58.057766 
L 72.364321 59.107561 
L 72.46581 58.14957 
L 72.567298 58.33659 
L 72.668787 59.098988 
L 72.770275 58.156561 
L 72.871763 58.890494 
L 73.07474 57.970123 
L 73.176228 59.135194 
L 73.277717 57.950564 
L 73.480694 58.807679 
L 73.582182 58.092224 
L 73.68367 59.188046 
L 73.785159 58.092889 
L 73.886647 59.029241 
L 74.089624 57.536655 
L 74.191112 59.343605 
L 74.292601 58.28507 
L 74.495577 58.51637 
L 74.597066 57.908449 
L 74.698554 59.055625 
L 74.800042 58.030882 
L 74.901531 58.661608 
L 75.003019 58.604761 
L 75.104508 57.832209 
L 75.205996 59.161245 
L 75.307484 57.969541 
L 75.408973 58.087063 
L 75.510461 58.658695 
L 75.611949 57.588924 
L 75.713438 59.012345 
L 75.814926 57.778109 
L 76.017903 58.558152 
L 76.119391 57.644939 
L 76.22088 59.006685 
L 76.423856 57.826217 
L 76.525345 58.461271 
L 76.626833 57.407147 
L 76.728322 58.714876 
L 76.931298 57.387588 
L 77.032787 58.674426 
L 77.134275 57.263823 
L 77.235763 58.666519 
L 77.43874 57.276308 
L 77.540229 58.337339 
L 77.641717 57.162115 
L 77.743205 58.252277 
L 77.844694 57.120333 
L 77.946182 57.400655 
L 78.04767 58.191185 
L 78.149159 56.869557 
L 78.250647 57.998422 
L 78.453624 57.042095 
L 78.555112 57.855015 
L 78.656601 57.034937 
L 78.758089 57.793424 
L 78.961066 56.558938 
L 79.062554 57.844278 
L 79.164043 56.540294 
L 79.265531 57.124078 
L 79.367019 57.091202 
L 79.468508 56.38124 
L 79.569996 57.463578 
L 79.671484 56.626023 
L 79.772973 57.239437 
L 79.97595 55.858464 
L 80.077438 57.229615 
L 80.178926 56.344867 
L 80.280415 56.377744 
L 80.381903 56.540294 
L 80.483391 55.684345 
L 80.58488 56.974428 
L 80.686368 55.759253 
L 80.787857 56.342121 
L 80.889345 56.300588 
L 80.990833 55.445887 
L 81.092322 57.024534 
L 81.295298 55.681099 
L 81.396787 56.32689 
L 81.498275 55.421667 
L 81.599764 56.3859 
L 81.701252 55.489001 
L 81.904229 56.091845 
L 82.005717 55.19919 
L 82.107205 56.469298 
L 82.310182 55.092071 
L 82.411671 56.199962 
L 82.513159 54.85944 
L 82.614647 56.103414 
L 82.817624 54.875171 
L 82.919112 55.845813 
L 83.020601 54.560474 
L 83.122089 56.070121 
L 83.325066 54.691812 
L 83.426554 55.579473 
L 83.528043 54.73967 
L 83.629531 55.249461 
L 83.731019 54.447446 
L 83.832508 54.536586 
L 83.933996 55.409598 
L 84.035485 54.153223 
L 84.136973 55.204766 
L 84.33995 54.455852 
L 84.441438 55.076257 
L 84.542926 54.132249 
L 84.644415 54.932434 
L 84.847392 53.734154 
L 84.94888 54.828145 
L 85.151857 54.413404 
L 85.253345 54.400753 
L 85.354833 53.83786 
L 85.456322 54.84554 
L 85.55781 53.944729 
L 85.760787 54.444199 
L 85.862275 53.326238 
L 85.963764 54.849452 
L 86.065252 53.866741 
L 86.268229 54.174364 
L 86.369717 53.30568 
L 86.471206 54.710373 
L 86.572694 53.535814 
L 86.775671 54.110442 
L 86.877159 53.060148 
L 86.978647 54.544992 
L 87.181624 53.656583 
L 87.283113 53.945228 
L 87.384601 53.098517 
L 87.486089 54.321683 
L 87.587578 53.357117 
L 87.689066 53.377175 
L 87.790554 54.179358 
L 87.892043 52.631257 
L 87.993531 54.464092 
L 88.196508 53.135472 
L 88.297996 54.160298 
L 88.399485 52.930557 
L 88.500973 53.832783 
L 88.70395 52.908584 
L 88.805438 53.766697 
L 88.906927 52.610949 
L 89.008415 53.848014 
L 89.211392 52.650983 
L 89.31288 53.651089 
L 89.414368 52.507576 
L 89.515857 53.526159 
L 89.718834 52.62385 
L 89.820322 53.490786 
L 89.92181 52.496922 
L 90.023299 53.427946 
L 90.226275 52.387806 
L 90.327764 53.093024 
L 90.429252 52.38972 
L 90.530741 53.06664 
L 90.733717 51.826578 
L 90.835206 53.226194 
L 90.936694 52.18647 
L 91.038182 52.943458 
L 91.241159 52.284849 
L 91.342648 52.877205 
L 91.444136 52.27328 
L 91.545624 52.757769 
L 91.647113 52.398709 
L 91.748601 51.604018 
L 91.850089 52.79206 
L 92.053066 51.910641 
L 92.154555 52.341113 
L 92.256043 51.379793 
L 92.357531 52.670376 
L 92.45902 51.174877 
L 92.661996 51.775391 
L 92.763485 50.696548 
L 92.864973 52.21094 
L 93.06795 50.730672 
L 93.169438 51.493986 
L 93.270927 50.353885 
L 93.372415 51.818421 
L 93.473903 50.227789 
L 93.67688 50.878408 
L 93.778369 49.77393 
L 93.879857 51.100219 
L 94.082834 49.774762 
L 94.184322 50.495628 
L 94.28581 49.530312 
L 94.387299 50.764714 
L 94.488787 49.523404 
L 94.590276 49.611379 
L 94.691764 50.449018 
L 94.793252 48.75776 
L 94.894741 50.49338 
L 94.996229 49.223771 
L 95.199206 49.463394 
L 95.300694 49.013529 
L 95.402183 49.611546 
L 95.503671 48.944198 
L 95.605159 48.971165 
L 95.706648 49.69486 
L 95.808136 48.411019 
L 95.909624 49.571428 
L 96.112601 48.22533 
L 96.21409 49.628691 
L 96.315578 48.072684 
L 96.417066 49.122313 
L 96.620043 48.051709 
L 96.721531 49.278621 
L 96.82302 47.879587 
L 96.924508 48.579978 
L 97.025997 48.457378 
L 97.127485 47.729854 
L 97.228973 48.723052 
L 97.330462 47.896067 
L 97.43195 48.495082 
L 97.634927 47.213904 
L 97.736415 48.487092 
L 97.939392 47.614413 
L 98.04088 47.701056 
L 98.142369 46.745479 
L 98.243857 48.42084 
L 98.345345 46.835701 
L 98.548322 47.616577 
L 98.649811 46.328074 
L 98.751299 47.791196 
L 98.954276 46.816059 
L 99.055764 47.240455 
L 99.157252 46.048001 
L 99.258741 47.52677 
L 99.360229 46.215213 
L 99.664694 47.023804 
L 99.766183 46.436108 
L 99.867671 46.565616 
L 100.070648 46.1036 
L 100.172136 46.189245 
L 100.273625 46.450174 
L 100.375113 45.677955 
L 100.476601 46.024031 
L 100.57809 45.870719 
L 100.679578 46.735158 
L 100.781066 45.869387 
L 100.882555 46.160197 
L 101.085532 45.664222 
L 101.18702 45.63842 
L 101.288508 45.827522 
L 101.389997 45.287018 
L 101.592973 45.789319 
L 101.79595 45.863061 
L 101.998927 45.373745 
L 102.100415 45.244737 
L 102.201904 45.587566 
L 102.303392 45.267625 
L 102.40488 45.376492 
L 102.506369 45.132874 
L 102.607857 45.693852 
L 103.013811 45.107405 
L 103.115299 45.472291 
L 103.318276 44.855464 
L 103.724229 45.459473 
L 103.927206 45.124551 
L 104.028694 44.893834 
L 104.231671 45.395718 
L 104.33316 44.443636 
L 104.434648 45.237995 
L 104.536136 44.733947 
L 104.637625 45.8048 
L 104.739113 44.788547 
L 104.840601 45.362842 
L 104.94209 44.812684 
L 105.043578 45.12505 
L 105.145067 44.885677 
L 105.246555 44.94602 
L 105.348043 44.818177 
L 105.652508 45.60879 
L 105.753997 44.935616 
L 105.855485 45.189971 
L 105.956974 44.761913 
L 106.058462 45.158426 
L 106.15995 45.105408 
L 106.362927 44.808522 
L 106.565904 45.669882 
L 106.870369 45.112316 
L 106.971857 45.072198 
L 107.073346 45.37541 
L 107.377811 44.944938 
L 107.479299 45.058881 
L 107.580788 46.088785 
L 107.783764 45.453065 
L 107.885253 45.30483 
L 107.986741 45.371498 
L 108.088229 45.277114 
L 108.189718 45.607625 
L 108.392695 45.118974 
L 108.595671 46.062983 
L 108.69716 45.703008 
L 108.798648 45.764516 
L 108.900136 45.485358 
L 109.103113 45.659728 
L 109.204602 46.000393 
L 109.30609 45.283772 
L 109.610555 46.301856 
L 109.712043 45.875047 
L 109.813532 46.053994 
L 109.91502 45.738215 
L 110.117997 45.964354 
L 110.219485 45.872716 
L 110.320974 46.072471 
L 110.422462 45.982581 
L 110.625439 46.501944 
L 110.828416 46.075967 
L 110.929904 46.107428 
L 111.031392 46.382674 
L 111.132881 46.306351 
L 111.234369 46.827129 
L 111.437346 46.381425 
L 111.640323 46.36378 
L 111.843299 46.900788 
L 111.944788 46.388999 
L 112.147764 46.848852 
L 112.249253 47.214154 
L 112.350741 46.867163 
L 112.45223 47.011319 
L 112.655206 46.80191 
L 113.264137 47.596268 
L 113.365625 47.057513 
L 113.568602 47.280655 
L 113.771578 47.514369 
L 113.873067 47.468675 
L 113.974555 47.18985 
L 114.177532 48.010011 
L 114.27902 47.941844 
L 114.481997 47.571881 
L 114.786462 47.963651 
L 114.887951 47.453194 
L 114.989439 47.893071 
L 115.090927 47.767808 
L 115.192416 48.543606 
L 115.395392 48.046133 
L 115.496881 48.105144 
L 115.598369 48.002936 
L 115.801346 48.573819 
L 115.902834 47.796689 
L 116.207299 48.981319 
L 116.410276 48.516473 
L 116.511765 48.242059 
L 116.613253 48.422504 
L 116.714741 48.288585 
L 116.81623 49.178327 
L 116.917718 48.018916 
L 117.019206 48.50507 
L 117.120695 48.259371 
L 117.222183 49.338963 
L 117.323672 48.650724 
L 117.42516 48.909657 
L 117.526648 48.329702 
L 117.729625 48.605114 
L 117.831113 48.554259 
L 118.03409 48.919977 
L 118.135579 48.589133 
L 118.237067 49.347952 
L 118.338555 48.8474 
L 118.440044 49.071375 
L 118.541532 48.6161 
L 118.64302 48.856306 
L 118.744509 48.813358 
L 119.048974 48.914318 
L 119.150462 49.348368 
L 119.556416 48.913319 
L 119.657904 49.205294 
L 119.759393 48.959263 
L 119.860881 49.097843 
L 120.063858 49.070709 
L 120.165346 49.597729 
L 120.368323 49.373005 
L 120.469811 49.185568 
L 120.672788 49.337216 
L 120.774276 49.350366 
L 120.875765 49.619203 
L 120.977253 48.437985 
L 121.078741 50.327667 
L 121.281718 49.02668 
L 121.383207 49.763775 
L 121.484695 49.012364 
L 121.586183 50.225376 
L 121.687672 49.064134 
L 121.890648 50.2193 
L 121.992137 48.447557 
L 122.093625 50.574531 
L 122.296602 49.341127 
L 122.39809 50.135153 
L 122.499579 49.151443 
L 122.601067 50.581855 
L 122.702555 49.256648 
L 122.804044 49.56735 
L 122.905532 50.41173 
L 123.007021 48.888017 
L 123.108509 50.714942 
L 123.311486 49.314493 
L 123.412974 50.657346 
L 123.514462 49.294268 
L 123.615951 50.549145 
L 123.717439 49.461313 
L 123.818928 49.625112 
L 123.920416 50.705537 
L 124.021904 49.219277 
L 124.123393 50.820063 
L 124.326369 49.59673 
L 124.427858 50.533997 
L 124.529346 49.812632 
L 124.630835 50.742408 
L 124.732323 49.568265 
L 124.833811 49.93906 
L 124.9353 50.837625 
L 125.036788 49.151443 
L 125.138276 51.331852 
L 125.341253 49.900275 
L 125.442742 50.930011 
L 125.54423 49.940392 
L 125.645718 51.105463 
L 125.747207 50.098115 
L 125.848695 50.539823 
L 125.950183 51.512713 
L 126.051672 50.040686 
L 126.15316 51.913305 
L 126.356137 50.824807 
L 126.457625 51.962328 
L 126.559114 51.213497 
L 126.660602 51.84697 
L 126.863579 51.244292 
L 126.965067 52.679032 
L 127.066556 51.344669 
L 127.168044 52.828848 
L 127.371021 51.701398 
L 127.472509 53.115496 
L 127.573997 52.25447 
L 127.675486 52.848324 
L 127.878463 52.255302 
L 127.979951 53.437352 
L 128.081439 52.499752 
L 128.182928 53.668401 
L 128.284416 52.945372 
L 128.385904 52.974253 
L 128.487393 53.87573 
L 128.588881 53.437601 
L 128.791858 53.592827 
L 128.893346 52.893436 
L 128.994835 54.278153 
L 129.2993 53.814722 
L 129.603765 54.696057 
L 129.705253 54.156885 
L 130.111207 55.237892 
L 130.212695 54.934098 
L 130.314184 55.003763 
L 130.51716 55.948271 
L 130.923114 56.772676 
L 131.126091 57.651764 
L 131.227579 57.392582 
L 131.633532 58.828071 
L 131.735021 58.811674 
L 131.836509 58.928614 
L 131.937998 59.242562 
L 132.039486 60.313831 
L 132.140974 60.20871 
L 132.242463 60.048656 
L 132.648416 61.460341 
L 132.851393 61.499626 
L 133.155858 62.929289 
L 133.257346 62.521622 
L 133.6633 63.965018 
L 133.764788 63.928979 
L 133.967765 64.224949 
L 134.170742 65.081232 
L 134.475207 65.567885 
L 134.678184 66.258953 
L 134.779672 65.964731 
L 135.185626 67.618202 
L 135.287114 67.305003 
L 135.693067 68.387425 
L 135.794556 67.906515 
L 136.099021 69.53818 
L 136.200509 69.265681 
L 136.403486 69.531605 
L 136.504974 69.308129 
L 136.707951 70.268034 
L 136.80944 69.941851 
L 136.910928 70.082845 
L 137.012416 70.440157 
L 137.113905 71.261149 
L 137.316881 71.008709 
L 137.519858 71.212459 
L 137.621347 71.225443 
L 137.722835 72.031121 
L 137.824323 71.210794 
L 138.128788 72.733676 
L 138.331765 72.454269 
L 138.433254 72.485897 
L 138.63623 72.650445 
L 138.737719 73.460784 
L 138.839207 72.231459 
L 139.143672 74.013772 
L 139.448137 73.349004 
L 139.549626 73.90915 
L 139.651114 73.690502 
L 139.752602 74.049145 
L 139.854091 73.771902 
L 139.955579 74.27903 
L 140.057068 74.161174 
L 140.158556 74.938554 
L 140.260044 74.450902 
L 140.361533 74.501424 
L 140.463021 74.353605 
L 140.767486 74.80297 
L 140.868975 74.427514 
L 141.17344 75.345638 
L 141.274928 74.988826 
L 141.376416 75.151709 
L 141.477905 74.867391 
L 141.680882 75.391581 
L 141.883858 74.727313 
L 141.985347 75.497868 
L 142.086835 75.470401 
L 142.188323 75.911777 
L 142.3913 75.265986 
L 142.492789 75.336316 
L 142.594277 75.652844 
L 142.695765 74.918995 
L 142.797254 75.529329 
L 142.898742 75.265736 
L 143.00023 75.625711 
L 143.101719 75.585427 
L 143.203207 75.880565 
L 143.406184 75.426206 
L 143.507672 75.375351 
L 143.609161 75.58576 
L 143.710649 75.014544 
L 143.812137 75.532742 
L 143.913626 75.063484 
L 144.015114 75.757549 
L 144.116603 75.438607 
L 144.218091 75.658754 
L 144.319579 75.165109 
L 144.421068 75.274642 
L 144.624044 75.134397 
L 144.827021 75.280884 
L 144.92851 74.983499 
L 145.029998 75.384507 
L 145.131486 74.853991 
L 145.232975 75.41755 
L 145.435951 74.876963 
L 145.53744 75.25167 
L 145.638928 74.329551 
L 145.841905 74.943215 
L 146.14637 74.673879 
L 146.349347 74.752199 
L 146.552324 74.200792 
L 146.653812 74.27079 
L 146.7553 74.363759 
L 146.856789 74.745707 
L 146.958277 74.159843 
L 147.059765 74.1814 
L 147.161254 73.819177 
L 147.262742 74.494599 
L 147.364231 73.938198 
L 147.465719 74.303583 
L 147.567207 73.448715 
L 147.668696 73.869865 
L 147.770184 73.54518 
L 147.871672 74.27312 
L 147.973161 73.440309 
L 148.074649 73.453792 
L 148.176138 73.504064 
L 148.277626 73.842232 
L 148.480603 73.15932 
L 148.582091 73.387207 
L 148.683579 73.334356 
L 148.785068 73.084495 
L 148.886556 73.15649 
L 148.988044 72.717113 
L 149.191021 72.989029 
L 149.29251 72.765221 
L 149.393998 72.919448 
L 149.495486 72.588021 
L 149.596975 72.868094 
L 149.799951 72.561803 
L 149.90144 72.460095 
L 150.104417 71.996247 
L 150.205905 72.053927 
L 150.307393 72.586273 
L 150.408882 72.09213 
L 150.51037 72.302122 
L 150.814835 71.727327 
L 150.916324 71.746887 
L 151.220789 71.346045 
L 151.322277 71.926749 
L 151.423765 71.585751 
L 151.525254 71.971528 
L 151.626742 71.500772 
L 151.728231 71.59499 
L 151.829719 71.268307 
L 151.931207 71.311504 
L 152.134184 71.185908 
L 152.235672 70.94795 
L 152.438649 71.740644 
L 152.641626 71.049159 
L 152.743114 71.105008 
L 152.844603 71.120405 
L 152.946091 71.300851 
L 153.149068 70.620019 
L 153.352045 71.522828 
L 153.453533 71.474804 
L 153.65651 70.76892 
L 153.960975 71.366686 
L 154.062463 70.646653 
L 154.26544 70.990398 
L 154.366928 71.782177 
L 154.468417 71.197061 
L 154.569905 71.223362 
L 154.671393 70.96185 
L 154.772882 71.111167 
L 154.87437 70.924729 
L 154.975859 71.225443 
L 155.077347 70.752856 
L 155.381812 71.713344 
L 155.4833 71.385996 
L 155.584789 71.528405 
L 155.686277 70.979578 
L 155.787766 71.509594 
L 155.889254 71.434686 
L 155.990742 71.213125 
L 156.092231 71.555954 
L 156.193719 71.351289 
L 156.396696 72.027626 
L 156.498184 71.73332 
L 156.599673 71.829951 
L 156.701161 71.472224 
L 156.802649 72.130083 
L 156.904138 71.545717 
L 157.005626 71.625203 
L 157.208603 72.537916 
L 157.310091 72.081559 
L 157.41158 72.192007 
L 157.513068 71.756375 
L 157.614556 72.542494 
L 157.716045 72.505123 
L 157.817533 71.884218 
L 158.02051 72.476075 
L 158.121998 73.479927 
L 158.223487 72.683404 
L 158.324975 72.844706 
L 158.426463 72.470915 
L 158.527952 72.565216 
L 158.62944 73.115624 
L 158.730928 72.61066 
L 158.933905 73.66237 
L 159.23837 73.309053 
L 159.339859 73.480676 
L 159.441347 73.419501 
L 159.542835 73.783971 
L 159.745812 73.487418 
L 159.948789 74.432009 
L 160.050277 74.356768 
L 160.151766 74.332215 
L 160.253254 73.907486 
L 160.557719 74.799808 
L 160.659208 74.10749 
L 160.862184 74.774755 
L 160.963673 75.575855 
L 161.065161 74.766765 
L 161.166649 75.440272 
L 161.268138 74.546951 
L 161.369626 75.326245 
L 161.471115 75.262323 
L 161.572603 75.578602 
L 161.674091 74.881624 
L 161.877068 76.146489 
L 161.978556 76.11511 
L 162.080045 76.092721 
L 162.181533 75.819556 
L 162.283022 76.116109 
L 162.38451 75.994841 
L 162.485998 76.219566 
L 162.587487 76.170043 
L 162.688975 76.306625 
L 162.891952 76.850625 
L 162.99344 77.29691 
L 163.094929 76.817915 
L 163.196417 77.050962 
L 163.297905 76.891491 
L 163.60237 77.751186 
L 163.703859 77.598291 
L 164.008324 78.551621 
L 164.109812 77.979406 
L 164.312789 78.568101 
L 164.414277 78.305506 
L 164.617254 79.359796 
L 164.718743 79.088213 
L 164.820231 79.185926 
L 165.226184 80.216745 
L 165.327673 80.0085 
L 165.53065 80.619334 
L 165.632138 81.274696 
L 165.733626 80.807853 
L 166.13958 82.278715 
L 166.241068 81.874044 
L 166.647022 83.474914 
L 166.74851 83.028378 
L 167.052975 84.869036 
L 167.154464 84.388709 
L 167.458929 85.939723 
L 167.661905 86.168941 
L 167.966371 87.382785 
L 168.270836 88.347269 
L 168.473812 89.133637 
L 168.575301 89.340717 
L 168.879766 90.808582 
L 168.981254 91.134599 
L 169.285719 92.990738 
L 169.488696 93.319002 
L 169.590185 93.556794 
L 169.691673 94.630393 
L 169.793161 94.330345 
L 170.199115 97.033028 
L 170.50358 97.826139 
L 170.706557 99.447233 
L 170.808045 99.392384 
L 171.518464 103.439585 
L 171.924417 104.585512 
L 172.127394 106.093162 
L 172.228882 105.707552 
L 172.533347 106.956603 
L 172.736324 107.382747 
L 172.939301 108.565878 
L 173.040789 108.349144 
L 173.142278 109.62899 
L 173.243766 109.479341 
L 173.548231 110.60446 
L 173.852696 112.804012 
L 174.664603 117.378149 
L 174.766092 118.439181 
L 174.86758 118.384082 
L 175.273534 120.799535 
L 175.375022 120.782805 
L 175.780975 123.097132 
L 175.882464 122.963546 
L 176.491394 126.02787 
L 177.201813 129.145378 
L 177.303301 128.813036 
L 177.506278 129.769779 
L 177.607766 130.194008 
L 177.709255 130.02122 
L 177.810743 130.945503 
L 177.912231 130.896064 
L 178.115208 131.267441 
L 178.216696 132.071371 
L 178.318185 132.055807 
L 178.419673 131.870784 
L 178.521162 132.176909 
L 178.62265 132.016023 
L 178.825627 132.821118 
L 178.927115 132.085105 
L 179.23158 133.657259 
L 179.434557 133.503115 
L 179.536045 133.714938 
L 179.637534 133.524921 
L 179.84051 134.013072 
L 179.941999 133.770287 
L 180.246464 135.0503 
L 180.550929 134.870271 
L 180.652417 134.981967 
L 180.753906 135.4444 
L 180.956883 135.014094 
L 181.058371 135.890269 
L 181.159859 135.79189 
L 181.261348 136.216369 
L 181.464324 136.208462 
L 181.667301 136.137299 
L 181.870278 136.813636 
L 181.971766 136.440344 
L 182.276231 137.450189 
L 182.37772 137.348563 
L 182.479208 137.188426 
L 182.580697 137.455349 
L 182.682185 137.273073 
L 182.885162 137.795432 
L 182.98665 137.566463 
L 183.189627 137.861933 
L 183.291115 138.581467 
L 183.392604 138.293903 
L 183.494092 138.352082 
L 183.59558 138.183456 
L 183.798557 138.554584 
L 183.900045 138.820091 
L 184.001534 138.545345 
L 184.103022 138.690334 
L 184.407487 139.366338 
L 184.508976 139.254142 
L 184.711952 139.403126 
L 184.813441 139.246651 
L 185.016418 139.655483 
L 185.117906 139.390308 
L 185.320883 140.323663 
L 185.422371 140.261406 
L 185.523859 139.958195 
L 185.625348 140.08995 
L 185.726836 140.038763 
L 185.828325 140.452671 
L 186.031301 139.976755 
L 186.335766 141.045111 
L 186.437255 141.06517 
L 186.640232 140.690047 
L 186.944697 141.025801 
L 187.046185 140.92068 
L 187.249162 141.248029 
L 187.35065 141.714873 
L 187.553627 141.443372 
L 187.655115 141.319108 
L 187.858092 141.556567 
L 188.162557 141.848292 
L 188.264046 141.759068 
L 188.467022 142.100566 
L 188.568511 141.497223 
L 188.669999 142.057536 
L 188.771487 141.950084 
L 188.872976 142.798127 
L 188.974464 142.210015 
L 189.075953 142.416012 
L 189.278929 142.031734 
L 189.481906 142.79563 
L 189.583394 142.028488 
L 189.786371 142.880276 
L 189.88786 142.791052 
L 189.989348 142.904996 
L 190.192325 142.729544 
L 190.49679 142.914484 
L 190.598278 142.848149 
L 190.801255 143.171336 
L 190.902743 143.611462 
L 191.004232 143.107331 
L 191.10572 143.357441 
L 191.207208 142.95302 
L 191.308697 143.37159 
L 191.410185 143.188315 
L 191.511674 143.641509 
L 191.613162 143.164095 
L 191.816139 143.467223 
L 191.917627 144.095868 
L 192.120604 143.560109 
L 192.222092 143.591154 
L 192.526557 143.940891 
L 192.628046 143.484868 
L 192.831022 144.134321 
L 192.932511 144.017547 
L 193.033999 144.161454 
L 193.236976 143.869063 
L 193.338464 143.961366 
L 193.439953 144.226957 
L 193.642929 144.037356 
L 193.845906 144.369116 
L 193.947395 144.609405 
L 194.048883 144.354551 
L 194.150371 144.536827 
L 194.353348 144.155462 
L 194.556325 144.559716 
L 194.657813 144.071648 
L 194.962278 145.230309 
L 195.063767 144.602746 
L 195.165255 144.851607 
L 195.266743 144.344729 
L 195.46972 144.673992 
L 195.672697 144.67599 
L 195.774185 145.109125 
L 195.875674 144.77645 
L 195.977162 145.304718 
L 196.180139 144.96372 
L 196.383116 144.776949 
L 196.586092 145.01008 
L 196.789069 145.126603 
L 196.890557 144.926349 
L 196.992046 145.821584 
L 197.093534 145.094726 
L 197.195023 145.270011 
L 197.296511 145.071754 
L 197.499488 145.217658 
L 197.600976 145.164723 
L 198.108418 145.601354 
L 198.311395 145.367891 
L 198.514371 145.547504 
L 198.61586 145.310295 
L 198.818837 145.607929 
L 198.920325 145.580213 
L 199.021813 146.114724 
L 199.123302 145.428733 
L 199.22479 145.974729 
L 199.326278 145.467518 
L 199.427767 145.711802 
L 199.630744 145.531357 
L 199.83372 145.778886 
L 199.935209 145.83257 
L 200.036697 146.101158 
L 200.138185 145.904066 
L 200.239674 146.078602 
L 200.341162 145.683337 
L 200.544139 145.80269 
L 200.848604 145.926289 
L 200.950092 146.094499 
L 201.051581 146.615443 
L 201.153069 145.948928 
L 201.254558 146.129539 
L 201.356046 145.689995 
L 201.457534 146.222176 
L 201.559023 145.874186 
L 202.066465 146.584065 
L 202.269441 146.037652 
L 202.37093 146.248893 
L 202.472418 146.144688 
L 202.573906 146.36034 
L 202.776883 146.05022 
L 202.878372 146.4881 
L 202.97986 146.457887 
L 203.182837 146.568418 
L 203.284325 146.095581 
L 203.385813 146.145187 
L 203.487302 146.598464 
L 203.791767 146.216766 
L 203.994744 146.625514 
L 204.096232 146.663052 
L 204.299209 146.38997 
L 204.400697 146.64291 
L 204.806651 146.242401 
L 205.009627 146.962434 
L 205.111116 146.810787 
L 205.212604 146.79439 
L 205.314093 146.405701 
L 205.517069 146.650234 
L 205.618558 146.746616 
L 205.821534 146.365167 
L 205.923023 146.643825 
L 206.024511 147.296358 
L 206.227488 146.501583 
L 206.328976 146.67487 
L 206.531953 146.65889 
L 206.633441 146.820608 
L 206.73493 146.572912 
L 206.937907 146.807624 
L 207.039395 147.142047 
L 207.34386 146.612697 
L 207.648325 147.037925 
L 207.749814 146.488016 
L 207.851302 146.940461 
L 207.95279 146.733548 
L 208.054279 147.286953 
L 208.155767 146.849739 
L 208.257255 147.156946 
L 208.460232 146.66455 
L 208.663209 147.120157 
L 208.866186 146.668711 
L 208.967674 146.913411 
L 209.069162 147.723251 
L 209.170651 146.860809 
L 209.272139 147.010292 
L 209.373628 146.78923 
L 209.576604 146.989734 
L 209.678093 147.359946 
L 209.779581 146.515649 
L 209.881069 147.020113 
L 209.982558 146.913577 
L 210.084046 147.754629 
L 210.185535 146.96077 
L 210.287023 147.175423 
L 210.388511 146.699923 
L 210.49 147.048745 
L 210.591488 146.991981 
L 210.692976 147.421787 
L 210.794465 146.533044 
L 210.997442 147.170179 
L 211.09893 147.521914 
L 211.200418 147.071384 
L 211.301907 147.155114 
L 211.403395 146.995477 
L 211.504883 147.257322 
L 211.606372 146.989484 
L 211.809349 147.255325 
L 212.012325 147.06381 
L 212.113814 147.147041 
L 212.215302 146.951781 
L 212.31679 147.565694 
L 212.418279 146.858478 
L 212.722744 147.730575 
L 212.824232 147.234267 
L 212.925721 147.305014 
L 213.027209 146.961935 
L 213.331674 147.661826 
L 213.433163 146.726973 
L 213.737628 147.705522 
L 213.839116 147.262566 
L 213.940604 147.528989 
L 214.042093 147.074297 
L 214.24507 147.207384 
L 214.346558 147.74539 
L 214.448046 146.512736 
L 214.549535 147.540475 
L 214.651023 147.215291 
L 214.752511 147.964122 
L 215.056977 146.934136 
L 215.158465 147.498194 
L 215.259953 147.156446 
L 215.361442 147.426199 
L 215.46293 147.204387 
L 215.767395 147.704773 
L 215.868884 147.435437 
L 215.970372 147.616798 
L 216.07186 147.111917 
L 216.274837 147.393156 
L 216.376325 147.455912 
L 216.477814 147.27838 
L 216.782279 147.902864 
L 216.985256 147.257905 
L 217.086744 147.720837 
L 217.188232 147.380005 
L 217.289721 147.564362 
L 217.492698 147.236515 
L 217.594186 147.365024 
L 217.695674 147.785841 
L 217.898651 147.463403 
L 218.101628 147.72375 
L 218.203116 147.28379 
L 218.406093 147.773939 
L 218.507581 147.552127 
L 218.812046 147.578928 
L 218.913535 147.165102 
L 219.218 147.910937 
L 219.319488 147.525244 
L 219.522465 147.611804 
L 219.725442 147.699447 
L 219.928419 147.371016 
L 220.232884 148.056425 
L 220.43586 147.565944 
L 220.638837 147.637772 
L 220.740326 147.891544 
L 220.841814 147.139134 
L 221.146279 148.483818 
L 221.247767 147.56378 
L 221.349256 147.893791 
L 221.450744 147.495031 
L 221.552233 147.578345 
L 221.755209 147.91435 
L 221.856698 147.581674 
L 222.059674 147.619461 
L 222.161163 148.310364 
L 222.465628 147.559701 
L 222.668605 147.955383 
L 222.770093 148.000494 
L 222.871581 147.607393 
L 223.074558 148.017806 
L 223.176047 147.307927 
L 223.277535 147.851094 
L 223.379023 147.679305 
L 223.480512 148.542745 
L 223.582 147.739897 
L 223.683488 147.996083 
L 223.987954 147.710433 
L 224.089442 148.208988 
L 224.19093 147.498776 
L 224.292419 147.921591 
L 224.393907 147.767197 
L 224.495395 148.518691 
L 224.596884 147.988509 
L 224.698372 148.012063 
L 224.799861 147.520333 
L 224.901349 148.184185 
L 225.002837 147.790002 
L 225.104326 147.907358 
L 225.205814 147.807564 
L 225.510279 148.374202 
L 225.713256 147.975192 
L 225.814744 147.878643 
L 225.916233 148.245194 
L 226.017721 148.170951 
L 226.220698 147.801904 
L 226.423675 148.143152 
L 226.626651 147.713429 
L 226.829628 148.578868 
L 226.931116 148.083808 
L 227.032605 148.126339 
L 227.134093 147.979603 
L 227.438558 148.334334 
L 227.540047 147.396319 
L 227.641535 148.33242 
L 227.743023 147.886717 
L 227.844512 148.777957 
L 227.946 148.12559 
L 228.047489 148.290804 
L 228.148977 147.942232 
L 228.351954 148.075985 
L 228.55493 148.068411 
L 228.859396 148.579284 
L 228.960884 148.030873 
L 229.366837 148.282564 
L 229.468326 148.260924 
L 229.569814 147.988758 
L 229.772791 148.645536 
L 229.874279 148.364131 
L 229.975768 148.436209 
L 230.178744 148.173115 
L 230.381721 148.586275 
L 230.48321 147.860915 
L 230.787675 148.769134 
L 230.889163 148.433629 
L 230.990651 148.51145 
L 231.09214 148.196004 
L 231.193628 148.508953 
L 231.295117 148.240283 
L 231.396605 148.662598 
L 231.498093 147.925669 
L 231.802558 149.056948 
L 232.005535 148.536669 
L 232.107024 148.16138 
L 232.31 148.418231 
L 232.411489 148.368209 
L 232.614465 148.675582 
L 232.715954 148.538667 
L 232.817442 148.917868 
L 233.020419 148.409159 
L 233.223396 148.643621 
L 233.324884 148.671421 
L 233.527861 148.219642 
L 233.730838 148.92486 
L 234.035303 148.578868 
L 234.136791 148.659186 
L 234.238279 148.537502 
L 234.339768 148.853364 
L 234.441256 148.281399 
L 234.644233 148.702882 
L 234.745721 149.537358 
L 234.84721 148.691313 
L 234.948698 148.801095 
L 235.050186 148.452273 
L 235.354652 149.106553 
L 235.45614 148.317771 
L 235.760605 149.29707 
L 235.862093 148.840297 
L 235.963582 148.9599 
L 236.06507 148.550569 
L 236.268047 148.9331 
L 236.471024 148.62273 
L 236.674 149.052287 
L 236.775489 149.22599 
L 236.876977 148.97896 
L 236.978466 149.059694 
L 237.181442 148.905966 
L 237.282931 149.084913 
L 237.485907 148.776042 
L 237.587396 148.821237 
L 237.688884 149.640648 
L 237.891861 148.992527 
L 237.993349 149.19095 
L 238.094838 148.937927 
L 238.297814 149.213922 
L 238.399303 148.778123 
L 238.60228 149.077506 
L 238.703768 149.821926 
L 238.805256 149.215503 
L 238.906745 149.431821 
L 239.008233 148.829227 
L 239.21121 149.222162 
L 239.414187 149.024155 
L 239.617163 149.507645 
L 239.718652 149.474685 
L 239.921628 149.202103 
L 240.124605 149.286416 
L 240.226094 149.420335 
L 240.530559 149.006343 
L 240.632047 149.901245 
L 240.733535 149.460286 
L 240.936512 149.545432 
L 241.038001 149.186622 
L 241.139489 149.32645 
L 241.240977 149.824423 
L 241.342466 149.109883 
L 241.545442 149.405603 
L 241.646931 150.261137 
L 241.849908 149.613432 
L 241.951396 149.278759 
L 242.052884 149.507728 
L 242.154373 149.331361 
L 242.255861 149.680183 
L 242.357349 149.430656 
L 242.560326 149.923468 
L 242.661815 149.59845 
L 242.864791 149.809441 
L 242.96628 149.33186 
L 243.169256 149.751013 
L 243.270745 149.764829 
L 243.372233 149.450631 
L 243.676698 149.996711 
L 243.778187 149.640898 
L 243.879675 149.939365 
L 243.981163 149.704819 
L 244.18414 149.991717 
L 244.285629 149.272683 
L 244.590094 150.47321 
L 244.79307 149.847311 
L 244.894559 149.619175 
L 245.199024 150.351526 
L 245.300512 149.499405 
L 245.402001 150.03608 
L 245.503489 149.726876 
L 245.604977 150.493269 
L 245.706466 149.958591 
L 245.807954 150.111404 
L 245.909443 149.839737 
L 246.112419 150.185813 
L 246.315396 149.83749 
L 246.619861 150.415281 
L 246.72135 150.321563 
L 246.924326 149.889426 
L 247.025815 150.297176 
L 247.228791 149.985725 
L 247.634745 150.587819 
L 247.93921 150.031502 
L 248.040698 150.378826 
L 248.142187 150.158013 
L 248.649629 150.641836 
L 248.852605 150.3323 
L 248.954094 150.293847 
L 249.157071 150.569758 
L 249.258559 150.166087 
L 249.461536 150.439168 
L 249.563024 150.899687 
L 249.664512 150.528642 
L 249.766001 150.654571 
L 249.867489 150.440084 
L 249.968978 150.577748 
L 250.070466 150.523398 
L 250.171954 150.25015 
L 250.577908 151.081547 
L 250.679396 150.50825 
L 250.882373 150.595144 
L 251.288326 150.630101 
L 251.389815 150.413533 
L 251.491303 151.256166 
L 251.795768 150.562434 
L 251.897257 150.871721 
L 251.998745 150.758776 
L 252.100233 151.081297 
L 252.201722 150.454483 
L 252.30321 150.832769 
L 252.404699 150.596892 
L 252.506187 151.491294 
L 252.709164 150.914835 
L 252.810652 150.668221 
L 252.91214 150.809714 
L 253.013629 151.250756 
L 253.115117 150.449572 
L 253.318094 151.159368 
L 253.521071 151.236607 
L 253.622559 151.181674 
L 253.724047 150.763104 
L 253.927024 151.09503 
L 254.028513 151.346638 
L 254.130001 150.723153 
L 254.231489 151.028196 
L 254.332978 150.876382 
L 254.434466 151.691382 
L 254.637443 151.169689 
L 254.84042 151.04068 
L 254.941908 151.074056 
L 255.043396 151.416053 
L 255.144885 150.773758 
L 255.246373 151.252754 
L 255.347861 151.158286 
L 255.44935 151.686055 
L 255.753815 150.843422 
L 255.855303 151.417718 
L 255.956792 151.374521 
L 256.05828 151.082546 
L 256.159768 151.145801 
L 256.362745 151.497953 
L 256.464234 151.632454 
L 256.565722 151.536655 
L 256.66721 151.089287 
L 256.768699 151.430119 
L 256.870187 151.382594 
L 256.971675 151.484802 
L 257.073164 151.118585 
L 257.174652 151.297449 
L 257.276141 151.192494 
L 257.377629 152.390857 
L 257.580606 151.402154 
L 257.885071 151.577189 
L 257.986559 151.627793 
L 258.189536 151.344807 
L 258.392513 151.784767 
L 258.494001 151.520259 
L 258.595489 151.686305 
L 258.696978 151.528748 
L 258.899955 151.701703 
L 259.102931 151.365865 
L 259.305908 152.112116 
L 259.508885 151.724175 
L 259.711862 151.776195 
L 259.81335 151.462246 
L 259.914838 152.023807 
L 260.117815 151.556381 
L 260.219303 151.749644 
L 260.320792 152.398764 
L 260.42228 151.799499 
L 260.523769 152.07874 
L 260.625257 151.565037 
L 260.726745 152.018814 
L 260.828234 151.974618 
L 261.03121 151.808322 
L 261.132699 151.840699 
L 261.335676 152.337173 
L 261.741629 151.864586 
L 261.843117 152.154897 
L 261.944606 151.664082 
L 262.046094 152.147572 
L 262.147583 152.036792 
L 262.249071 152.410833 
L 262.553536 151.870079 
L 262.655024 152.028885 
L 262.756513 152.39968 
L 262.858001 151.808072 
L 263.060978 152.232551 
L 263.162466 152.39968 
L 263.263955 152.326603 
L 263.365443 152.396184 
L 263.56842 152.164385 
L 263.771397 152.498142 
L 263.872885 151.901791 
L 264.17735 153.027659 
L 264.278838 152.341667 
L 264.380327 152.472174 
L 264.481815 152.22273 
L 264.78628 152.476003 
L 264.887769 152.164468 
L 264.989257 152.643714 
L 265.090745 152.431307 
L 265.192234 152.873348 
L 265.395211 152.352155 
L 265.496699 152.332429 
L 265.699676 152.895322 
L 265.801164 152.291313 
L 266.004141 152.560732 
L 266.207118 152.894073 
L 266.308606 152.893324 
L 266.410094 152.369883 
L 266.714559 153.007767 
L 266.816048 152.006745 
L 267.019025 153.00527 
L 267.120513 153.167071 
L 267.222001 152.587865 
L 267.32349 153.139605 
L 267.424978 152.645961 
L 267.627955 152.880423 
L 267.830932 152.544835 
L 267.93242 153.691178 
L 268.033908 152.703141 
L 268.135397 152.98929 
L 268.338373 152.654617 
L 268.54135 153.01326 
L 268.642839 152.907057 
L 268.744327 153.604868 
L 268.947304 152.910803 
L 269.048792 153.016922 
L 269.15028 152.850959 
L 269.251769 153.359336 
L 269.454746 152.885084 
L 269.556234 153.037813 
L 269.657722 153.551933 
L 269.759211 153.129118 
L 269.860699 153.378562 
L 269.962187 153.004438 
L 270.165164 153.27161 
L 270.266653 152.90764 
L 270.368141 153.248305 
L 270.469629 153.100903 
L 270.571118 153.317221 
L 270.672606 153.816941 
L 270.875583 153.208604 
L 270.977071 153.069691 
L 271.180048 153.496584 
L 271.281536 153.133363 
L 271.383025 153.221671 
L 271.586001 153.846821 
L 271.788978 153.460378 
L 271.890467 153.114386 
L 271.991955 153.576319 
L 272.093443 153.532207 
L 272.194932 152.969481 
L 272.29642 154.274629 
L 272.397908 153.397955 
L 272.499397 153.699501 
L 272.600885 153.332369 
L 272.702374 153.673617 
L 273.006839 153.349681 
L 273.209815 153.840662 
L 273.615769 153.677945 
L 273.717257 153.546356 
L 273.818746 153.915653 
L 273.920234 153.35326 
L 274.224699 154.216534 
L 274.529164 153.518224 
L 274.630653 153.957102 
L 274.935118 153.765337 
L 275.036606 153.7958 
L 275.239583 154.431437 
L 275.44256 153.906165 
L 275.544048 153.762175 
L 275.747025 154.097097 
L 275.848513 153.600872 
L 276.152978 154.631858 
L 276.254467 153.923976 
L 276.355955 154.138213 
L 276.457443 153.811115 
L 276.558932 154.219946 
L 276.66042 154.181743 
L 276.964885 153.911408 
L 277.066374 154.524822 
L 277.26935 154.089689 
L 277.573816 154.545796 
L 277.675304 154.088857 
L 277.878281 154.294854 
L 277.979769 154.208877 
L 278.081257 154.545963 
L 278.182746 153.89601 
L 278.487211 154.965115 
L 278.690188 154.402722 
L 278.791676 154.275212 
L 278.893164 154.421782 
L 278.994653 154.245249 
L 279.19763 154.489615 
L 279.299118 154.306091 
L 279.502095 154.84701 
L 279.705071 154.383662 
L 279.80656 154.38025 
L 280.009537 154.80348 
L 280.111025 154.164015 
L 280.41549 155.137654 
L 280.618467 154.59174 
L 280.719955 154.549708 
L 280.821444 154.779593 
L 281.02442 154.467559 
L 281.125909 154.543882 
L 281.328885 155.023377 
L 281.531862 154.61055 
L 281.633351 154.534477 
L 281.734839 154.839769 
L 281.937816 154.421615 
L 282.039304 154.540303 
L 282.242281 154.716337 
L 282.343769 155.093874 
L 282.445258 154.547295 
L 282.546746 154.574844 
L 282.648234 154.752876 
L 282.749723 154.634854 
L 282.851211 154.851089 
L 282.952699 154.18732 
L 283.054188 154.6654 
L 283.155676 154.579006 
L 283.257165 155.091876 
L 283.358653 154.67572 
L 283.460141 154.968861 
L 283.56163 154.438012 
L 283.764606 154.776513 
L 283.967583 154.465978 
L 284.17056 155.035695 
L 284.272048 154.765527 
L 284.373537 154.826036 
L 284.475025 154.457655 
L 284.678002 154.790247 
L 284.77949 154.981012 
L 284.880979 154.14354 
L 285.185444 155.024542 
L 285.591397 154.600563 
L 285.692886 154.906937 
L 285.794374 154.397895 
L 285.895862 154.506345 
L 286.098839 155.314686 
L 286.200327 154.556533 
L 286.301816 154.922667 
L 286.403304 154.276127 
L 286.606281 154.816964 
L 286.707769 154.48895 
L 286.910746 154.83902 
L 287.3167 154.702687 
L 287.519676 154.582252 
L 287.621165 155.108356 
L 287.722653 154.154027 
L 287.824141 154.76045 
L 287.92563 154.533728 
L 288.027118 155.426549 
L 288.128607 154.694531 
L 288.230095 154.916675 
L 288.331583 154.453077 
L 288.53456 154.903275 
L 288.737537 154.439677 
L 288.940514 155.142148 
L 289.14349 154.733566 
L 289.447955 154.62187 
L 289.549444 154.805811 
L 289.650932 154.424196 
L 289.853909 154.979015 
L 289.955397 154.971857 
L 290.158374 154.590408 
L 290.361351 154.865488 
L 290.462839 154.810638 
L 290.564328 154.424695 
L 290.665816 154.712259 
L 290.767304 154.66515 
L 290.868793 155.185262 
L 291.173258 154.609718 
L 291.6807 154.672308 
L 291.782188 155.183514 
L 292.086653 154.581503 
L 292.28963 154.787999 
L 292.391118 154.827701 
L 292.492607 154.46706 
L 292.797072 155.140483 
L 292.89856 154.77618 
L 293.000049 154.863573 
L 293.101537 154.608386 
L 293.304514 154.768107 
L 293.406002 154.477047 
L 293.50749 154.777928 
L 293.608979 154.694531 
L 293.710467 155.142398 
L 293.811956 154.724244 
L 293.913444 154.817213 
L 294.014932 154.433185 
L 294.116421 154.982261 
L 294.319397 154.651001 
L 294.522374 154.560861 
L 294.623862 155.228459 
L 294.725351 155.12467 
L 294.928328 154.651667 
L 295.029816 154.563525 
L 295.232793 154.819794 
L 295.334281 154.251907 
L 295.537258 154.883049 
L 295.638746 155.092459 
L 295.841723 154.592822 
L 295.943211 154.871147 
L 296.146188 154.669312 
L 296.247676 154.377836 
L 296.349165 154.696861 
L 296.450653 154.565189 
L 296.552142 155.407656 
L 296.755118 154.692034 
L 296.856607 154.714922 
L 296.958095 154.583667 
L 297.059583 154.748881 
L 297.161072 154.437513 
L 297.364049 154.546129 
L 297.465537 155.18676 
L 297.668514 154.758036 
L 297.87149 154.512754 
L 298.074467 154.647838 
L 298.277444 154.54563 
L 298.378932 154.95571 
L 298.581909 154.558115 
L 298.683397 154.807226 
L 298.886374 154.481958 
L 298.987863 154.774682 
L 299.089351 154.061474 
L 299.190839 154.754291 
L 299.292328 154.663902 
L 299.393816 155.100033 
L 299.596793 154.538222 
L 299.79977 154.575094 
L 299.901258 154.97502 
L 300.002746 154.213621 
L 300.104235 154.314663 
L 300.307211 155.198246 
L 300.4087 154.506345 
L 300.510188 154.69736 
L 300.611677 154.436764 
L 300.713165 154.624283 
L 300.916142 154.459236 
L 301.01763 154.134551 
L 301.220607 155.052342 
L 301.423584 154.525987 
L 301.525072 154.362688 
L 301.728049 154.559946 
L 301.829537 154.411794 
L 301.931025 154.503349 
L 302.032514 154.399892 
L 302.134002 154.802482 
L 302.235491 154.519412 
L 302.336979 154.868734 
L 302.539956 154.332059 
L 302.742932 154.59199 
L 302.844421 154.046659 
L 303.047398 154.649586 
L 303.148886 154.856166 
L 303.351863 154.33905 
L 303.453351 154.579588 
L 303.554839 154.465978 
L 303.656328 154.641096 
L 303.757816 154.022106 
L 304.062281 155.187592 
L 304.16377 154.470139 
L 304.265258 154.592156 
L 304.366746 154.079036 
L 304.569723 154.462399 
L 304.7727 154.315662 
L 304.874188 154.339383 
L 304.975677 154.91268 
L 305.178653 154.304842 
L 305.280142 154.462482 
L 305.686095 154.208294 
L 305.787584 154.200553 
L 305.889072 154.804646 
L 306.295026 154.257567 
L 306.396514 154.267887 
L 306.498002 154.508925 
L 306.599491 154.04566 
L 306.700979 154.42919 
L 307.005444 154.083364 
L 307.106933 154.410962 
L 307.208421 154.353283 
L 307.309909 154.634271 
L 307.512886 154.172921 
L 307.715863 154.220612 
L 307.817351 154.652249 
L 307.91884 153.832671 
L 308.020328 154.204965 
L 308.121816 154.135134 
L 308.223305 154.853502 
L 308.426281 154.133053 
L 308.730747 154.429855 
L 308.832235 153.875702 
L 309.1367 154.750628 
L 309.238188 153.995305 
L 309.339677 154.390487 
L 309.441165 154.082365 
L 309.644142 154.219863 
L 309.74563 153.892348 
L 309.948607 154.160852 
L 310.050095 154.775431 
L 310.253072 154.06497 
L 310.557537 154.081533 
L 310.659026 154.185655 
L 310.862002 153.965342 
L 310.963491 154.7329 
L 311.064979 154.124979 
L 311.267956 154.206712 
L 311.572421 153.874037 
L 311.673909 153.932466 
L 311.876886 154.520078 
L 312.079863 154.187236 
L 312.181351 153.952857 
L 312.384328 154.108084 
L 312.587305 153.992059 
L 312.688793 153.984568 
L 312.790282 154.304176 
L 312.89177 154.261312 
L 312.993258 154.259065 
L 313.196235 153.859722 
L 313.399212 154.162433 
L 313.5007 153.681773 
L 313.703677 154.139711 
L 313.805165 154.153195 
L 313.906654 153.941871 
L 314.008142 154.107001 
L 314.10963 153.890434 
L 314.312607 154.075374 
L 314.414096 153.603869 
L 314.515584 153.719893 
L 314.718561 154.423363 
L 314.921537 153.707076 
L 315.023026 153.98332 
L 315.124514 153.898091 
L 315.226003 154.032926 
L 315.327491 153.553597 
L 315.631956 154.238424 
L 315.834933 153.860221 
L 316.139398 153.913572 
L 316.240886 153.556427 
L 316.545351 154.369513 
L 316.64684 153.837915 
L 316.748328 153.888103 
L 316.951305 153.58639 
L 317.052793 154.18682 
L 317.154282 153.47228 
L 317.25577 153.543526 
L 317.357258 153.752353 
L 317.458747 154.26847 
L 317.560235 153.806287 
L 317.661724 153.874786 
L 317.763212 153.312726 
L 317.8647 153.752353 
L 318.169165 153.60595 
L 318.270654 153.661215 
L 318.372142 154.139711 
L 318.575119 153.715981 
L 318.778096 153.513563 
L 318.879584 153.710987 
L 319.082561 153.523301 
L 319.184049 153.405446 
L 319.285538 154.310169 
L 319.387026 153.542278 
L 319.488514 153.734708 
L 319.590003 153.367575 
L 319.691491 153.398204 
L 319.894468 153.625592 
L 320.097445 153.239732 
L 320.198933 154.18965 
L 320.300421 153.414351 
L 320.40191 153.604618 
L 320.604886 153.239233 
L 320.706375 153.547854 
L 320.807863 153.50216 
L 320.909352 153.10856 
L 321.112328 153.911824 
L 321.213817 153.370738 
L 321.315305 153.392295 
L 321.61977 153.525465 
L 321.721259 153.148677 
L 321.822747 153.259375 
L 321.924235 153.573822 
L 322.025724 153.453553 
L 322.127212 152.945343 
L 322.2287 153.370405 
L 322.330189 153.291003 
L 322.431677 153.71673 
L 322.634654 153.134029 
L 322.736142 153.185216 
L 322.837631 153.332535 
L 323.243584 153.14643 
L 323.345073 153.768334 
L 323.548049 153.106978 
L 323.751026 153.347933 
L 323.954003 152.871351 
L 324.15698 153.268697 
L 324.258468 153.679776 
L 324.461445 153.035733 
L 324.562933 152.974225 
L 324.76591 153.260873 
L 325.171863 152.912883 
L 325.37484 153.295247 
L 325.476328 152.515787 
L 325.679305 153.054376 
L 325.780794 153.370405 
L 326.085259 152.865109 
L 326.186747 152.969231 
L 326.288235 153.232824 
L 326.389724 152.629315 
L 326.491212 153.004604 
L 326.592701 152.777799 
L 326.694189 153.401118 
L 326.897166 152.66294 
L 326.998654 153.112389 
L 327.100142 152.892658 
L 327.201631 152.998695 
L 327.303119 152.415077 
L 327.404608 153.097573 
L 327.506096 152.712296 
L 327.607584 153.295247 
L 327.810561 152.432473 
L 327.912049 153.304403 
L 328.013538 152.867772 
L 328.115026 152.985211 
L 328.216515 152.302632 
L 328.419491 152.931943 
L 328.52098 152.516703 
L 328.825445 153.100819 
L 328.926933 152.822827 
L 329.028422 152.968648 
L 329.12991 152.435303 
L 329.231398 152.5867 
L 329.332887 153.121544 
L 329.434375 152.324272 
L 329.637352 152.789701 
L 329.73884 153.128535 
L 329.840329 152.542171 
L 330.043305 152.793779 
L 330.144794 152.538842 
L 330.246282 152.83989 
L 330.449259 152.1931 
L 330.652236 153.077598 
L 330.753724 152.493648 
L 330.855212 152.748418 
L 331.058189 152.460522 
L 331.261166 152.431973 
L 331.464143 152.384532 
L 331.565631 153.141936 
L 331.768608 152.44837 
L 332.073073 152.429809 
L 332.174561 152.166715 
L 332.27605 152.49706 
L 332.377538 152.311787 
L 332.479026 153.023081 
L 332.682003 152.232468 
L 332.783491 152.251195 
L 332.88498 152.617329 
L 332.986468 152.428311 
L 333.087957 151.993511 
L 333.189445 152.439797 
L 333.290933 152.361809 
L 333.392422 152.909554 
L 333.595398 152.289981 
L 333.696887 152.127014 
L 333.899864 152.558818 
L 334.001352 151.949482 
L 334.305817 152.757324 
L 334.508794 152.246784 
L 334.711771 152.286652 
L 334.813259 152.564977 
L 334.914747 151.876155 
L 335.219212 152.794279 
L 335.320701 152.184777 
L 335.422189 152.329266 
L 335.523678 152.238045 
L 335.726654 152.416492 
L 335.828143 151.874657 
L 335.929631 152.309207 
L 336.031119 152.205002 
L 336.132608 152.753163 
L 336.335585 151.72018 
L 336.437073 152.568473 
L 336.538561 152.511459 
L 336.64005 152.159474 
L 336.741538 152.313951 
L 336.944515 151.974951 
L 337.046003 152.55166 
L 337.147492 152.016733 
L 337.24898 152.129511 
L 337.350468 152.54367 
L 337.451957 152.44529 
L 337.553445 152.089394 
L 337.654933 152.120772 
L 337.756422 152.133173 
L 337.85791 152.009991 
L 337.959399 152.297472 
L 338.060887 152.075078 
L 338.263864 152.293643 
L 338.365352 152.53826 
L 338.568329 151.881732 
L 338.771306 152.159474 
L 338.872794 151.886226 
L 339.075771 152.265844 
L 339.177259 152.326353 
L 339.278747 152.194099 
L 339.380236 152.39094 
L 339.481724 151.669659 
L 339.684701 152.19002 
L 339.786189 151.857678 
L 339.887678 151.906202 
L 339.989166 152.241124 
L 340.090654 152.198094 
L 340.293631 152.277579 
L 340.39512 151.783769 
L 340.496608 151.821389 
L 340.699585 152.101296 
L 340.801073 151.808072 
L 340.902561 151.899543 
L 341.00405 152.417574 
L 341.410003 151.708444 
L 341.61298 152.111866 
L 341.714468 151.635617 
L 341.815957 151.816146 
L 341.917445 152.659028 
L 342.120422 151.766124 
L 342.323399 151.95614 
L 342.627864 151.697541 
L 342.729352 151.88323 
L 342.830841 152.504384 
L 342.932329 151.898212 
L 343.033817 151.997257 
L 343.135306 151.447681 
L 343.338282 151.99476 
L 343.439771 151.5955 
L 343.642748 151.852601 
L 343.744236 152.141913 
L 343.845724 151.699206 
L 343.947213 152.172292 
L 344.048701 151.471985 
L 344.150189 151.525585 
L 344.251678 152.254524 
L 344.353166 151.408729 
L 344.657631 152.410749 
L 344.75912 151.518344 
L 344.962096 151.785933 
L 345.063585 151.668826 
L 345.165073 151.889389 
L 345.36805 151.520259 
L 345.469538 151.596998 
L 345.571027 152.271504 
L 345.774003 151.479891 
L 345.97698 151.690883 
L 346.078469 151.724758 
L 346.179957 151.348303 
L 346.484422 152.089727 
L 346.788887 151.383177 
L 346.991864 151.949898 
L 347.093352 151.062903 
L 347.296329 151.780939 
L 347.397817 151.75572 
L 347.600794 151.591338 
L 347.803771 151.337816 
L 347.905259 151.550222 
L 348.006748 151.441272 
L 348.311213 151.743818 
L 348.51419 151.429703 
L 348.615678 151.546643 
L 348.818655 151.274394 
L 348.920143 151.571945 
L 349.021631 151.388837 
L 349.12312 151.719597 
L 349.326097 151.55996 
L 349.427585 150.966355 
L 349.529073 151.569698 
L 349.630562 151.304607 
L 349.73205 151.523172 
L 349.935027 151.165943 
L 350.036515 151.997257 
L 350.138004 151.330991 
L 350.239492 151.635034 
L 350.34098 151.041929 
L 350.442469 151.15271 
L 350.543957 151.698457 
L 350.746934 150.977674 
L 350.949911 151.856762 
L 351.051399 151.317674 
L 351.152887 151.506359 
L 351.254376 150.943799 
L 351.355864 151.449262 
L 351.558841 151.015794 
L 351.660329 151.454007 
L 351.761818 151.246594 
L 351.863306 151.863754 
L 352.066283 151.045757 
L 352.269259 151.331906 
L 352.370748 151.259745 
L 352.472236 150.86964 
L 352.776701 151.496787 
L 352.87819 151.381263 
L 352.979678 150.99199 
L 353.081166 151.044509 
L 353.284143 151.49737 
L 353.385632 150.805802 
L 353.690097 151.663583 
L 353.791585 151.083378 
L 353.893073 151.22279 
L 354.09605 150.889865 
L 354.299027 151.288044 
L 354.400515 151.058742 
L 354.603492 151.568033 
L 354.806469 150.952455 
L 354.907957 151.203897 
L 355.110934 150.796147 
L 355.212422 151.248342 
L 355.313911 151.050668 
L 355.415399 151.4595 
L 355.516887 151.08754 
L 355.618376 151.447182 
L 355.719864 150.81296 
L 355.821353 151.150296 
L 356.227306 150.928568 
L 356.328794 151.538403 
L 356.430283 150.973929 
L 356.531771 151.461997 
L 356.63326 150.87505 
L 356.734748 150.958531 
L 356.836236 151.341811 
L 356.937725 150.633347 
L 357.24219 151.656175 
L 357.343678 150.847501 
L 357.445167 150.944548 
L 357.546655 151.251422 
L 357.648143 150.874634 
L 357.749632 151.166776 
L 357.85112 150.875466 
L 358.054097 150.980088 
L 358.155585 151.370609 
L 358.358562 150.783496 
L 358.663027 151.188998 
L 358.764515 150.656319 
L 358.866004 151.152626 
L 358.967492 151.12283 
L 359.068981 150.475873 
L 359.170469 151.18209 
L 359.271957 150.910257 
L 359.373446 151.348553 
L 359.474934 150.993072 
L 359.576422 151.044509 
L 359.779399 150.737885 
L 359.880888 151.147716 
L 359.982376 150.567261 
L 360.083864 151.161948 
L 360.185353 150.929234 
L 360.286841 151.289958 
L 360.489818 150.801724 
L 360.692795 150.980754 
L 360.794283 150.921327 
L 360.895771 150.609043 
L 360.99726 150.902267 
L 361.098748 151.541732 
L 361.301725 150.952372 
L 361.504702 150.769097 
L 361.60619 151.008969 
L 361.707678 150.715829 
L 361.809167 150.898438 
L 361.910655 150.669303 
L 362.012143 151.396827 
L 362.113632 150.945297 
L 362.21512 151.102854 
L 362.316609 150.720906 
L 362.519585 150.929234 
L 362.722562 150.771594 
L 362.82405 150.783829 
L 362.925539 151.304357 
L 363.027027 151.027613 
L 363.128516 151.090619 
L 363.230004 150.684118 
L 363.534469 151.084626 
L 363.635957 150.920078 
L 363.737446 150.729978 
L 363.838934 150.957616 
L 363.940423 150.755281 
L 364.041911 151.200734 
L 364.143399 150.556441 
L 364.549353 151.223706 
L 364.650841 150.667805 
L 364.75233 150.945214 
L 364.853818 150.621528 
L 365.056795 150.824362 
L 365.158283 150.871388 
L 365.259771 151.588675 
L 365.36126 150.795148 
L 365.462748 150.928984 
L 365.564237 150.759692 
L 365.767213 151.012465 
L 365.868702 150.37558 
L 365.97019 151.507774 
L 366.071678 150.736554 
L 366.173167 150.968935 
L 366.376144 150.774424 
L 366.477632 150.773259 
L 366.57912 151.50561 
L 366.782097 150.702928 
L 366.985074 151.021038 
L 367.086562 151.320171 
L 367.188051 150.38332 
L 367.391027 150.993988 
L 367.492516 151.263823 
L 367.695492 150.852162 
L 367.796981 150.891114 
L 367.898469 150.786992 
L 368.202934 150.941386 
L 368.304423 151.249175 
L 368.405911 150.893361 
L 368.507399 151.339148 
L 368.710376 150.556358 
L 368.811865 151.254918 
L 368.913353 150.984749 
L 369.014841 150.341538 
L 369.11633 151.677982 
L 369.319306 150.499678 
L 369.420795 151.591671 
L 369.522283 150.676544 
L 369.623772 151.209973 
L 369.826748 150.633846 
L 369.928237 151.471152 
L 370.029725 150.412951 
L 370.131213 151.186335 
L 370.232702 151.102937 
L 370.33419 150.412618 
L 370.435679 151.920434 
L 370.537167 150.495433 
L 370.638655 151.284215 
L 370.740144 151.04917 
L 370.841632 150.291183 
L 370.94312 151.889223 
L 371.146097 150.670301 
L 371.247586 151.523754 
L 371.349074 150.630018 
L 371.450562 151.534658 
L 371.653539 150.25065 
L 371.755027 151.625047 
L 371.856516 150.838845 
L 372.059493 151.161366 
L 372.160981 150.715246 
L 372.262469 151.563872 
L 372.363958 150.760774 
L 372.465446 150.882624 
L 372.566934 151.435113 
L 372.668423 150.251482 
L 372.769911 151.599328 
L 372.8714 151.286795 
L 372.972888 150.519736 
L 373.074376 151.706863 
L 373.175865 150.792485 
L 373.277353 151.485218 
L 373.48033 150.352608 
L 373.581818 151.875073 
L 373.581818 151.875073 
" style="fill:none;stroke:#081d58;stroke-dasharray:5.55,2.4;stroke-dashoffset:0;stroke-width:1.5;"/>
    <defs>
     <path d="M -0 4.242641 
L 4.242641 0 
L 0 -4.242641 
L -4.242641 -0 
z
" id="m5fabe8df0e" style="stroke:#081d58;stroke-linejoin:miter;"/>
    </defs>
    <g clip-path="url(#paa20279645)">
     <use style="fill:#081d58;stroke:#081d58;stroke-linejoin:miter;" x="69.218182" xlink:href="#m5fabe8df0e" y="58.017565"/>
     <use style="fill:#081d58;stroke:#081d58;stroke-linejoin:miter;" x="77.337252" xlink:href="#m5fabe8df0e" y="57.900459"/>
     <use style="fill:#081d58;stroke:#081d58;stroke-linejoin:miter;" x="85.456322" xlink:href="#m5fabe8df0e" y="54.84554"/>
     <use style="fill:#081d58;stroke:#081d58;stroke-linejoin:miter;" x="93.575392" xlink:href="#m5fabe8df0e" y="50.811573"/>
     <use style="fill:#081d58;stroke:#081d58;stroke-linejoin:miter;" x="101.694462" xlink:href="#m5fabe8df0e" y="45.859899"/>
     <use style="fill:#081d58;stroke:#081d58;stroke-linejoin:miter;" x="109.813532" xlink:href="#m5fabe8df0e" y="46.053994"/>
     <use style="fill:#081d58;stroke:#081d58;stroke-linejoin:miter;" x="117.932602" xlink:href="#m5fabe8df0e" y="48.886851"/>
     <use style="fill:#081d58;stroke:#081d58;stroke-linejoin:miter;" x="126.051672" xlink:href="#m5fabe8df0e" y="50.040686"/>
     <use style="fill:#081d58;stroke:#081d58;stroke-linejoin:miter;" x="134.170742" xlink:href="#m5fabe8df0e" y="65.081232"/>
     <use style="fill:#081d58;stroke:#081d58;stroke-linejoin:miter;" x="142.289812" xlink:href="#m5fabe8df0e" y="75.276306"/>
     <use style="fill:#081d58;stroke:#081d58;stroke-linejoin:miter;" x="150.408882" xlink:href="#m5fabe8df0e" y="72.09213"/>
     <use style="fill:#081d58;stroke:#081d58;stroke-linejoin:miter;" x="158.527952" xlink:href="#m5fabe8df0e" y="72.565216"/>
     <use style="fill:#081d58;stroke:#081d58;stroke-linejoin:miter;" x="166.647022" xlink:href="#m5fabe8df0e" y="83.474914"/>
     <use style="fill:#081d58;stroke:#081d58;stroke-linejoin:miter;" x="174.766092" xlink:href="#m5fabe8df0e" y="118.439181"/>
     <use style="fill:#081d58;stroke:#081d58;stroke-linejoin:miter;" x="182.885162" xlink:href="#m5fabe8df0e" y="137.795432"/>
     <use style="fill:#081d58;stroke:#081d58;stroke-linejoin:miter;" x="191.004232" xlink:href="#m5fabe8df0e" y="143.107331"/>
     <use style="fill:#081d58;stroke:#081d58;stroke-linejoin:miter;" x="199.123302" xlink:href="#m5fabe8df0e" y="145.428733"/>
     <use style="fill:#081d58;stroke:#081d58;stroke-linejoin:miter;" x="207.242372" xlink:href="#m5fabe8df0e" y="146.869631"/>
     <use style="fill:#081d58;stroke:#081d58;stroke-linejoin:miter;" x="215.361442" xlink:href="#m5fabe8df0e" y="147.426199"/>
     <use style="fill:#081d58;stroke:#081d58;stroke-linejoin:miter;" x="223.480512" xlink:href="#m5fabe8df0e" y="148.542745"/>
     <use style="fill:#081d58;stroke:#081d58;stroke-linejoin:miter;" x="231.599582" xlink:href="#m5fabe8df0e" y="148.346819"/>
     <use style="fill:#081d58;stroke:#081d58;stroke-linejoin:miter;" x="239.718652" xlink:href="#m5fabe8df0e" y="149.474685"/>
     <use style="fill:#081d58;stroke:#081d58;stroke-linejoin:miter;" x="247.837722" xlink:href="#m5fabe8df0e" y="150.303002"/>
     <use style="fill:#081d58;stroke:#081d58;stroke-linejoin:miter;" x="255.956792" xlink:href="#m5fabe8df0e" y="151.374521"/>
     <use style="fill:#081d58;stroke:#081d58;stroke-linejoin:miter;" x="264.075862" xlink:href="#m5fabe8df0e" y="152.307626"/>
     <use style="fill:#081d58;stroke:#081d58;stroke-linejoin:miter;" x="272.194932" xlink:href="#m5fabe8df0e" y="152.969481"/>
     <use style="fill:#081d58;stroke:#081d58;stroke-linejoin:miter;" x="280.314002" xlink:href="#m5fabe8df0e" y="154.69503"/>
     <use style="fill:#081d58;stroke:#081d58;stroke-linejoin:miter;" x="288.433072" xlink:href="#m5fabe8df0e" y="154.753125"/>
     <use style="fill:#081d58;stroke:#081d58;stroke-linejoin:miter;" x="296.552142" xlink:href="#m5fabe8df0e" y="155.407656"/>
     <use style="fill:#081d58;stroke:#081d58;stroke-linejoin:miter;" x="304.671212" xlink:href="#m5fabe8df0e" y="154.301679"/>
     <use style="fill:#081d58;stroke:#081d58;stroke-linejoin:miter;" x="312.790282" xlink:href="#m5fabe8df0e" y="154.304176"/>
     <use style="fill:#081d58;stroke:#081d58;stroke-linejoin:miter;" x="320.909352" xlink:href="#m5fabe8df0e" y="153.10856"/>
     <use style="fill:#081d58;stroke:#081d58;stroke-linejoin:miter;" x="329.028422" xlink:href="#m5fabe8df0e" y="152.968648"/>
     <use style="fill:#081d58;stroke:#081d58;stroke-linejoin:miter;" x="337.147492" xlink:href="#m5fabe8df0e" y="152.016733"/>
     <use style="fill:#081d58;stroke:#081d58;stroke-linejoin:miter;" x="345.266562" xlink:href="#m5fabe8df0e" y="151.498369"/>
     <use style="fill:#081d58;stroke:#081d58;stroke-linejoin:miter;" x="353.385632" xlink:href="#m5fabe8df0e" y="150.805802"/>
     <use style="fill:#081d58;stroke:#081d58;stroke-linejoin:miter;" x="361.504702" xlink:href="#m5fabe8df0e" y="150.769097"/>
     <use style="fill:#081d58;stroke:#081d58;stroke-linejoin:miter;" x="369.623772" xlink:href="#m5fabe8df0e" y="151.209973"/>
    </g>
   </g>
   <g id="patch_3">
    <path d="M 54 252 
L 54 34.56 
" style="fill:none;stroke:#000000;stroke-linecap:square;stroke-linejoin:miter;stroke-width:0.8;"/>
   </g>
   <g id="patch_4">
    <path d="M 388.8 252 
L 388.8 34.56 
" style="fill:none;stroke:#000000;stroke-linecap:square;stroke-linejoin:miter;stroke-width:0.8;"/>
   </g>
   <g id="patch_5">
    <path d="M 54 252 
L 388.8 252 
" style="fill:none;stroke:#000000;stroke-linecap:square;stroke-linejoin:miter;stroke-width:0.8;"/>
   </g>
   <g id="patch_6">
    <path d="M 54 34.56 
L 388.8 34.56 
" style="fill:none;stroke:#000000;stroke-linecap:square;stroke-linejoin:miter;stroke-width:0.8;"/>
   </g>
   <g id="legend_1">
    <g id="patch_7">
     <path d="M 280.085938 71.91625 
L 381.8 71.91625 
Q 383.8 71.91625 383.8 69.91625 
L 383.8 41.56 
Q 383.8 39.56 381.8 39.56 
L 280.085938 39.56 
Q 278.085938 39.56 278.085938 41.56 
L 278.085938 69.91625 
Q 278.085938 71.91625 280.085938 71.91625 
z
" style="fill:#ffffff;opacity:0.8;stroke:#cccccc;stroke-linejoin:miter;"/>
    </g>
    <g id="line2d_18">
     <path d="M 282.085938 47.658437 
L 302.085938 47.658437 
" style="fill:none;stroke:#c6e9b4;stroke-dasharray:5.55,2.4;stroke-dashoffset:0;stroke-width:1.5;"/>
    </g>
    <g id="line2d_19">
     <g>
      <use style="fill:#c6e9b4;stroke:#c6e9b4;" x="292.085938" xlink:href="#m2b8e909461" y="47.658437"/>
     </g>
    </g>
    <g id="text_18">
     <text style="font-family:DejaVu Sans;font-size:10px;font-style:normal;font-weight:normal;text-anchor:start;" transform="rotate(-0, 310.085938, 51.158437)" x="310.085938" y="51.158437">original</text>
    </g>
    <g id="line2d_20">
     <path d="M 282.085938 62.336562 
L 302.085938 62.336562 
" style="fill:none;stroke:#081d58;stroke-dasharray:5.55,2.4;stroke-dashoffset:0;stroke-width:1.5;"/>
    </g>
    <g id="line2d_21">
     <g>
      <use style="fill:#081d58;stroke:#081d58;stroke-linejoin:miter;" x="292.085938" xlink:href="#m5fabe8df0e" y="62.336562"/>
     </g>
    </g>
    <g id="text_19">
     <text style="font-family:DejaVu Sans;font-size:10px;font-style:normal;font-weight:normal;text-anchor:start;" transform="rotate(-0, 310.085938, 65.836562)" x="310.085938" y="65.836562">reconstructed</text>
    </g>
   </g>
  </g>
  <g id="text_20">
   <text style="font-family:DejaVu Sans;font-size:12px;font-style:normal;font-weight:normal;text-anchor:middle;" transform="rotate(-0, 216, 14.878125)" x="216" y="14.878125">Reconstruction of the weight curve</text>
  </g>
 </g>
 <defs>
  <clipPath id="paa20279645">
   <rect height="217.44" width="334.8" x="54" y="34.56"/>
  </clipPath>
 </defs>
</svg>
