<?xml version="1.0" encoding="utf-8" standalone="no"?>
<!DOCTYPE svg PUBLIC "-//W3C//DTD SVG 1.1//EN"
  "http://www.w3.org/Graphics/SVG/1.1/DTD/svg11.dtd">
<!-- Created with matplotlib (https://matplotlib.org/) -->
<svg height="288pt" version="1.1" viewBox="0 0 432 288" width="432pt" xmlns="http://www.w3.org/2000/svg" xmlns:xlink="http://www.w3.org/1999/xlink">
 <defs>
  <style type="text/css">
*{stroke-linecap:butt;stroke-linejoin:round;}
  </style>
 </defs>
 <g id="figure_1">
  <g id="patch_1">
   <path d="M 0 288 
L 432 288 
L 432 0 
L 0 0 
z
" style="fill:#ffffff;"/>
  </g>
  <g id="axes_1">
   <g id="patch_2">
    <path d="M 54 252 
L 388.8 252 
L 388.8 34.56 
L 54 34.56 
z
" style="fill:#ffffff;"/>
   </g>
   <g id="matplotlib.axis_1">
    <g id="xtick_1">
     <g id="line2d_1">
      <defs>
       <path d="M 0 0 
L 0 3.5 
" id="mf6775c4ff8" style="stroke:#000000;stroke-width:0.8;"/>
      </defs>
      <g>
       <use style="stroke:#000000;stroke-width:0.8;" x="69.218182" xlink:href="#mf6775c4ff8" y="252"/>
      </g>
     </g>
     <g id="text_1">
      <text style="font-family:DejaVu Sans;font-size:10px;font-style:normal;font-weight:normal;text-anchor:middle;" transform="rotate(-0, 69.218182, 266.598437)" x="69.218182" y="266.598437">0</text>
     </g>
    </g>
    <g id="xtick_2">
     <g id="line2d_2">
      <g>
       <use style="stroke:#000000;stroke-width:0.8;" x="119.962369" xlink:href="#mf6775c4ff8" y="252"/>
      </g>
     </g>
     <g id="text_2">
      <text style="font-family:DejaVu Sans;font-size:10px;font-style:normal;font-weight:normal;text-anchor:middle;" transform="rotate(-0, 119.962369, 266.598437)" x="119.962369" y="266.598437">500</text>
     </g>
    </g>
    <g id="xtick_3">
     <g id="line2d_3">
      <g>
       <use style="stroke:#000000;stroke-width:0.8;" x="170.706557" xlink:href="#mf6775c4ff8" y="252"/>
      </g>
     </g>
     <g id="text_3">
      <text style="font-family:DejaVu Sans;font-size:10px;font-style:normal;font-weight:normal;text-anchor:middle;" transform="rotate(-0, 170.706557, 266.598437)" x="170.706557" y="266.598437">1000</text>
     </g>
    </g>
    <g id="xtick_4">
     <g id="line2d_4">
      <g>
       <use style="stroke:#000000;stroke-width:0.8;" x="221.450744" xlink:href="#mf6775c4ff8" y="252"/>
      </g>
     </g>
     <g id="text_4">
      <text style="font-family:DejaVu Sans;font-size:10px;font-style:normal;font-weight:normal;text-anchor:middle;" transform="rotate(-0, 221.450744, 266.598437)" x="221.450744" y="266.598437">1500</text>
     </g>
    </g>
    <g id="xtick_5">
     <g id="line2d_5">
      <g>
       <use style="stroke:#000000;stroke-width:0.8;" x="272.194932" xlink:href="#mf6775c4ff8" y="252"/>
      </g>
     </g>
     <g id="text_5">
      <text style="font-family:DejaVu Sans;font-size:10px;font-style:normal;font-weight:normal;text-anchor:middle;" transform="rotate(-0, 272.194932, 266.598437)" x="272.194932" y="266.598437">2000</text>
     </g>
    </g>
    <g id="xtick_6">
     <g id="line2d_6">
      <g>
       <use style="stroke:#000000;stroke-width:0.8;" x="322.939119" xlink:href="#mf6775c4ff8" y="252"/>
      </g>
     </g>
     <g id="text_6">
      <text style="font-family:DejaVu Sans;font-size:10px;font-style:normal;font-weight:normal;text-anchor:middle;" transform="rotate(-0, 322.939119, 266.598437)" x="322.939119" y="266.598437">2500</text>
     </g>
    </g>
    <g id="xtick_7">
     <g id="line2d_7">
      <g>
       <use style="stroke:#000000;stroke-width:0.8;" x="373.683307" xlink:href="#mf6775c4ff8" y="252"/>
      </g>
     </g>
     <g id="text_7">
      <text style="font-family:DejaVu Sans;font-size:10px;font-style:normal;font-weight:normal;text-anchor:middle;" transform="rotate(-0, 373.683307, 266.598437)" x="373.683307" y="266.598437">3000</text>
     </g>
    </g>
    <g id="text_8">
     <text style="font-family:DejaVu Sans;font-size:10px;font-style:normal;font-weight:normal;text-anchor:middle;" transform="rotate(-0, 221.4, 280.276563)" x="221.4" y="280.276563">Time</text>
    </g>
   </g>
   <g id="matplotlib.axis_2">
    <g id="ytick_1">
     <g id="line2d_8">
      <defs>
       <path d="M 0 0 
L -3.5 0 
" id="mf769be5337" style="stroke:#000000;stroke-width:0.8;"/>
      </defs>
      <g>
       <use style="stroke:#000000;stroke-width:0.8;" x="54" xlink:href="#mf769be5337" y="241.306064"/>
      </g>
     </g>
     <g id="text_9">
      <text style="font-family:DejaVu Sans;font-size:10px;font-style:normal;font-weight:normal;text-anchor:end;" transform="rotate(-0, 47, 245.105283)" x="47" y="245.105283">−10</text>
     </g>
    </g>
    <g id="ytick_2">
     <g id="line2d_9">
      <g>
       <use style="stroke:#000000;stroke-width:0.8;" x="54" xlink:href="#mf769be5337" y="203.210184"/>
      </g>
     </g>
     <g id="text_10">
      <text style="font-family:DejaVu Sans;font-size:10px;font-style:normal;font-weight:normal;text-anchor:end;" transform="rotate(-0, 47, 207.009403)" x="47" y="207.009403">−8</text>
     </g>
    </g>
    <g id="ytick_3">
     <g id="line2d_10">
      <g>
       <use style="stroke:#000000;stroke-width:0.8;" x="54" xlink:href="#mf769be5337" y="165.114304"/>
      </g>
     </g>
     <g id="text_11">
      <text style="font-family:DejaVu Sans;font-size:10px;font-style:normal;font-weight:normal;text-anchor:end;" transform="rotate(-0, 47, 168.913523)" x="47" y="168.913523">−6</text>
     </g>
    </g>
    <g id="ytick_4">
     <g id="line2d_11">
      <g>
       <use style="stroke:#000000;stroke-width:0.8;" x="54" xlink:href="#mf769be5337" y="127.018424"/>
      </g>
     </g>
     <g id="text_12">
      <text style="font-family:DejaVu Sans;font-size:10px;font-style:normal;font-weight:normal;text-anchor:end;" transform="rotate(-0, 47, 130.817643)" x="47" y="130.817643">−4</text>
     </g>
    </g>
    <g id="ytick_5">
     <g id="line2d_12">
      <g>
       <use style="stroke:#000000;stroke-width:0.8;" x="54" xlink:href="#mf769be5337" y="88.922544"/>
      </g>
     </g>
     <g id="text_13">
      <text style="font-family:DejaVu Sans;font-size:10px;font-style:normal;font-weight:normal;text-anchor:end;" transform="rotate(-0, 47, 92.721763)" x="47" y="92.721763">−2</text>
     </g>
    </g>
    <g id="ytick_6">
     <g id="line2d_13">
      <g>
       <use style="stroke:#000000;stroke-width:0.8;" x="54" xlink:href="#mf769be5337" y="50.826664"/>
      </g>
     </g>
     <g id="text_14">
      <text style="font-family:DejaVu Sans;font-size:10px;font-style:normal;font-weight:normal;text-anchor:end;" transform="rotate(-0, 47, 54.625883)" x="47" y="54.625883">0</text>
     </g>
    </g>
    <g id="text_15">
     <text style="font-family:DejaVu Sans;font-size:10px;font-style:normal;font-weight:normal;text-anchor:middle;" transform="rotate(-90, 19.815625, 143.28)" x="19.815625" y="143.28">temperature (°C)</text>
    </g>
   </g>
   <g id="line2d_14">
    <path clip-path="url(#pb7c9ef0e42)" d="M 69.218182 46.984696 
L 71.85688 46.294849 
L 72.871763 46.230011 
L 73.68367 46.37465 
L 74.394089 46.701829 
L 75.104508 47.243129 
L 75.916415 48.164712 
L 76.728322 49.441719 
L 77.641717 51.307497 
L 78.656601 53.918474 
L 79.874461 57.744504 
L 81.19381 62.665366 
L 82.817624 69.641326 
L 85.050368 80.343771 
L 91.748601 113.223068 
L 93.981345 122.65696 
L 95.706648 129.05522 
L 97.330462 134.21885 
L 98.852787 138.295605 
L 100.172136 141.215159 
L 101.389997 143.373233 
L 102.506369 144.90884 
L 103.521253 145.955505 
L 104.637625 146.786986 
L 105.652508 147.262118 
L 106.667392 147.486921 
L 107.682276 147.480674 
L 108.798648 147.247622 
L 110.117997 146.72607 
L 111.741811 145.837655 
L 113.771578 144.432241 
L 122.39809 138.053658 
L 124.224881 137.064517 
L 126.457625 136.10353 
L 128.588881 135.442795 
L 130.314184 135.133742 
L 132.140974 135.034426 
L 133.866277 135.16199 
L 135.490091 135.496586 
L 137.41837 136.166159 
L 139.143672 136.994154 
L 140.564509 137.893598 
L 142.188323 139.258668 
L 143.609161 140.730541 
L 145.029998 142.514152 
L 146.450835 144.653083 
L 148.683579 148.553149 
L 150.611858 152.644951 
L 151.829719 155.830357 
L 153.250556 160.210241 
L 154.87437 166.023634 
L 157.310091 175.656406 
L 160.862184 190.777975 
L 163.094929 201.256666 
L 165.023208 211.357521 
L 169.691673 236.456764 
L 170.50358 239.511405 
L 171.11251 241.115128 
L 171.619952 241.899789 
L 172.025906 242.116364 
L 172.330371 242.016743 
L 172.634836 241.682452 
L 173.040789 240.853885 
L 173.548231 239.185267 
L 174.157161 236.235655 
L 174.86758 231.526052 
L 175.780975 223.676605 
L 176.998836 210.857513 
L 181.362836 162.635634 
L 182.98665 147.919043 
L 184.508976 135.989623 
L 186.031301 125.679468 
L 187.553627 116.797242 
L 189.075953 109.148275 
L 190.598278 102.56725 
L 192.222092 96.549415 
L 193.845906 91.408338 
L 195.368232 87.262268 
L 196.992046 83.427689 
L 198.717348 79.909287 
L 200.544139 76.694795 
L 202.472418 73.76766 
L 204.400697 71.239579 
L 206.531953 68.812045 
L 208.663209 66.718086 
L 210.997442 64.743413 
L 213.433163 62.984598 
L 215.868884 61.496055 
L 218.60907 60.0833 
L 221.552233 58.842338 
L 224.596884 57.805745 
L 228.960884 56.59878 
L 236.876977 54.453308 
L 247.228791 51.325576 
L 258.595489 48.212858 
L 262.249071 47.585364 
L 267.120513 47.00026 
L 276.254467 45.85518 
L 285.286932 44.779048 
L 289.752421 44.502908 
L 293.710467 44.455021 
L 297.567025 44.616891 
L 302.742932 45.138587 
L 308.121816 45.900752 
L 316.03791 46.949719 
L 321.213817 47.469874 
L 330.449259 48.365769 
L 335.117724 49.034052 
L 340.598096 50.075519 
L 350.543957 52.038379 
L 354.70498 52.625206 
L 360.794283 53.176481 
L 365.665725 53.393157 
L 371.653539 53.433816 
L 373.581818 53.405001 
L 373.581818 53.405001 
" style="fill:none;stroke:#c6e9b4;stroke-dasharray:5.55,2.4;stroke-dashoffset:0;stroke-width:1.5;"/>
    <defs>
     <path d="M 0 3 
C 0.795609 3 1.55874 2.683901 2.12132 2.12132 
C 2.683901 1.55874 3 0.795609 3 0 
C 3 -0.795609 2.683901 -1.55874 2.12132 -2.12132 
C 1.55874 -2.683901 0.795609 -3 0 -3 
C -0.795609 -3 -1.55874 -2.683901 -2.12132 -2.12132 
C -2.683901 -1.55874 -3 -0.795609 -3 0 
C -3 0.795609 -2.683901 1.55874 -2.12132 2.12132 
C -1.55874 2.683901 -0.795609 3 0 3 
z
" id="m34df19c68d" style="stroke:#c6e9b4;"/>
    </defs>
    <g clip-path="url(#pb7c9ef0e42)">
     <use style="fill:#c6e9b4;stroke:#c6e9b4;" x="69.218182" xlink:href="#m34df19c68d" y="46.984696"/>
     <use style="fill:#c6e9b4;stroke:#c6e9b4;" x="77.337252" xlink:href="#m34df19c68d" y="50.63603"/>
     <use style="fill:#c6e9b4;stroke:#c6e9b4;" x="85.456322" xlink:href="#m34df19c68d" y="82.373767"/>
     <use style="fill:#c6e9b4;stroke:#c6e9b4;" x="93.575392" xlink:href="#m34df19c68d" y="121.028342"/>
     <use style="fill:#c6e9b4;stroke:#c6e9b4;" x="101.694462" xlink:href="#m34df19c68d" y="143.831393"/>
     <use style="fill:#c6e9b4;stroke:#c6e9b4;" x="109.813532" xlink:href="#m34df19c68d" y="146.865216"/>
     <use style="fill:#c6e9b4;stroke:#c6e9b4;" x="117.932602" xlink:href="#m34df19c68d" y="141.161024"/>
     <use style="fill:#c6e9b4;stroke:#c6e9b4;" x="126.051672" xlink:href="#m34df19c68d" y="136.258427"/>
     <use style="fill:#c6e9b4;stroke:#c6e9b4;" x="134.170742" xlink:href="#m34df19c68d" y="135.207248"/>
     <use style="fill:#c6e9b4;stroke:#c6e9b4;" x="142.289812" xlink:href="#m34df19c68d" y="139.353451"/>
     <use style="fill:#c6e9b4;stroke:#c6e9b4;" x="150.408882" xlink:href="#m34df19c68d" y="152.164105"/>
     <use style="fill:#c6e9b4;stroke:#c6e9b4;" x="158.527952" xlink:href="#m34df19c68d" y="180.752587"/>
     <use style="fill:#c6e9b4;stroke:#c6e9b4;" x="166.647022" xlink:href="#m34df19c68d" y="220.423046"/>
     <use style="fill:#c6e9b4;stroke:#c6e9b4;" x="174.766092" xlink:href="#m34df19c68d" y="232.278941"/>
     <use style="fill:#c6e9b4;stroke:#c6e9b4;" x="182.885162" xlink:href="#m34df19c68d" y="148.777724"/>
     <use style="fill:#c6e9b4;stroke:#c6e9b4;" x="191.004232" xlink:href="#m34df19c68d" y="100.973338"/>
     <use style="fill:#c6e9b4;stroke:#c6e9b4;" x="199.123302" xlink:href="#m34df19c68d" y="79.153751"/>
     <use style="fill:#c6e9b4;stroke:#c6e9b4;" x="207.242372" xlink:href="#m34df19c68d" y="68.080976"/>
     <use style="fill:#c6e9b4;stroke:#c6e9b4;" x="215.361442" xlink:href="#m34df19c68d" y="61.78662"/>
     <use style="fill:#c6e9b4;stroke:#c6e9b4;" x="223.480512" xlink:href="#m34df19c68d" y="58.161258"/>
     <use style="fill:#c6e9b4;stroke:#c6e9b4;" x="231.599582" xlink:href="#m34df19c68d" y="55.932373"/>
     <use style="fill:#c6e9b4;stroke:#c6e9b4;" x="239.718652" xlink:href="#m34df19c68d" y="53.555438"/>
     <use style="fill:#c6e9b4;stroke:#c6e9b4;" x="247.837722" xlink:href="#m34df19c68d" y="51.154632"/>
     <use style="fill:#c6e9b4;stroke:#c6e9b4;" x="255.956792" xlink:href="#m34df19c68d" y="48.828367"/>
     <use style="fill:#c6e9b4;stroke:#c6e9b4;" x="264.075862" xlink:href="#m34df19c68d" y="47.344099"/>
     <use style="fill:#c6e9b4;stroke:#c6e9b4;" x="272.194932" xlink:href="#m34df19c68d" y="46.367787"/>
     <use style="fill:#c6e9b4;stroke:#c6e9b4;" x="280.314002" xlink:href="#m34df19c68d" y="45.328985"/>
     <use style="fill:#c6e9b4;stroke:#c6e9b4;" x="288.433072" xlink:href="#m34df19c68d" y="44.5694"/>
     <use style="fill:#c6e9b4;stroke:#c6e9b4;" x="296.552142" xlink:href="#m34df19c68d" y="44.54649"/>
     <use style="fill:#c6e9b4;stroke:#c6e9b4;" x="304.671212" xlink:href="#m34df19c68d" y="45.393437"/>
     <use style="fill:#c6e9b4;stroke:#c6e9b4;" x="312.790282" xlink:href="#m34df19c68d" y="46.552489"/>
     <use style="fill:#c6e9b4;stroke:#c6e9b4;" x="320.909352" xlink:href="#m34df19c68d" y="47.443441"/>
     <use style="fill:#c6e9b4;stroke:#c6e9b4;" x="329.028422" xlink:href="#m34df19c68d" y="48.203182"/>
     <use style="fill:#c6e9b4;stroke:#c6e9b4;" x="337.147492" xlink:href="#m34df19c68d" y="49.389721"/>
     <use style="fill:#c6e9b4;stroke:#c6e9b4;" x="345.266562" xlink:href="#m34df19c68d" y="51.049761"/>
     <use style="fill:#c6e9b4;stroke:#c6e9b4;" x="353.385632" xlink:href="#m34df19c68d" y="52.468021"/>
     <use style="fill:#c6e9b4;stroke:#c6e9b4;" x="361.504702" xlink:href="#m34df19c68d" y="53.220651"/>
     <use style="fill:#c6e9b4;stroke:#c6e9b4;" x="369.623772" xlink:href="#m34df19c68d" y="53.444599"/>
    </g>
   </g>
   <g id="line2d_15">
    <path clip-path="url(#pb7c9ef0e42)" d="M 69.218182 63.273974 
L 69.31967 63.361332 
L 69.421159 62.888811 
L 69.522647 63.222057 
L 69.624135 63.113082 
L 69.725624 63.316046 
L 69.827112 62.745067 
L 69.9286 63.276626 
L 70.131577 62.884651 
L 70.233066 63.41512 
L 70.334554 62.50074 
L 70.436042 62.984325 
L 70.537531 62.933389 
L 70.639019 62.684848 
L 70.740507 63.130067 
L 70.841996 62.562303 
L 70.943484 62.803669 
L 71.044973 62.745303 
L 71.146461 62.320266 
L 71.247949 63.285709 
L 71.349438 62.238321 
L 71.552414 62.831462 
L 71.653903 62.315942 
L 71.755391 62.965687 
L 71.85688 62.166876 
L 71.958368 62.896367 
L 72.059856 62.691969 
L 72.161345 62.234815 
L 72.262833 62.850009 
L 72.364321 62.05781 
L 72.46581 62.972445 
L 72.567298 62.930137 
L 72.668787 62.251509 
L 72.770275 62.913443 
L 72.871763 62.321374 
L 73.07474 63.116479 
L 73.176228 62.361102 
L 73.277717 62.899292 
L 73.480694 62.74216 
L 73.582182 63.15499 
L 73.68367 62.790226 
L 73.785159 63.379698 
L 73.886647 62.780925 
L 74.089624 63.718013 
L 74.191112 62.878547 
L 74.394089 63.64328 
L 74.495577 63.431833 
L 74.597066 63.916507 
L 74.698554 63.417591 
L 74.800042 64.273405 
L 75.003019 64.083485 
L 75.104508 64.663438 
L 75.205996 64.036309 
L 75.408973 64.863894 
L 75.510461 64.697371 
L 75.611949 65.588899 
L 75.713438 64.711758 
L 75.916415 65.604975 
L 76.017903 65.508843 
L 76.119391 66.671564 
L 76.22088 65.676257 
L 76.423856 66.709512 
L 76.525345 66.609511 
L 76.626833 67.417859 
L 76.728322 66.836035 
L 76.931298 67.775139 
L 77.032787 67.546689 
L 77.134275 68.636221 
L 77.235763 68.069148 
L 77.43874 69.295521 
L 77.540229 69.152849 
L 77.641717 69.819905 
L 77.743205 69.511291 
L 77.946182 70.763314 
L 78.04767 70.385616 
L 78.149159 71.527538 
L 78.250647 71.087514 
L 78.453624 72.559849 
L 78.555112 72.367221 
L 78.656601 73.113153 
L 78.758089 72.9289 
L 78.961066 74.415276 
L 79.062554 73.875197 
L 79.164043 75.185549 
L 79.265531 75.070579 
L 79.367019 75.382518 
L 79.468508 76.31668 
L 79.569996 75.964178 
L 79.671484 77.260035 
L 79.772973 77.000431 
L 79.97595 78.535963 
L 80.077438 78.173525 
L 80.381903 80.059252 
L 80.483391 80.60044 
L 80.58488 80.357585 
L 80.787857 81.873371 
L 80.889345 82.164655 
L 80.990833 83.245632 
L 81.092322 82.641373 
L 81.295298 84.267025 
L 81.396787 84.287298 
L 81.498275 85.411544 
L 81.599764 85.006108 
L 81.80274 86.342146 
L 81.904229 86.758972 
L 82.005717 88.028071 
L 82.107205 87.527247 
L 82.310182 89.05364 
L 82.411671 89.168174 
L 82.513159 90.352966 
L 82.614647 90.125497 
L 82.817624 91.614708 
L 82.919112 91.762666 
L 83.020601 93.160522 
L 83.122089 92.760753 
L 83.325066 94.577397 
L 83.426554 94.614255 
L 83.731019 96.854174 
L 83.832508 97.326786 
L 83.933996 97.238211 
L 84.136973 98.602533 
L 84.33995 100.109055 
L 84.441438 99.945402 
L 84.644415 100.822525 
L 84.847392 102.27406 
L 84.94888 101.975981 
L 85.151857 102.951489 
L 85.862275 106.539453 
L 85.963764 106.287207 
L 86.16674 107.6736 
L 86.268229 107.836091 
L 86.369717 108.708145 
L 86.471206 108.558788 
L 86.674182 109.993102 
L 86.775671 109.940332 
L 86.877159 111.143743 
L 86.978647 110.717889 
L 87.181624 112.226518 
L 87.283113 112.471553 
L 87.384601 113.335742 
L 87.486089 113.028417 
L 87.689066 114.538899 
L 87.790554 114.674305 
L 87.892043 115.596733 
L 87.993531 115.281198 
L 88.196508 116.954733 
L 88.297996 116.870427 
L 88.399485 117.835035 
L 88.500973 117.773599 
L 88.70395 118.904821 
L 88.805438 118.973814 
L 88.906927 120.126817 
L 89.008415 119.780545 
L 89.211392 121.164759 
L 89.31288 121.114458 
L 89.414368 122.272584 
L 89.515857 121.875921 
L 89.718834 123.358337 
L 89.820322 123.253014 
L 89.92181 124.375952 
L 90.023299 124.048809 
L 90.226275 125.355474 
L 90.327764 125.483468 
L 90.530741 126.29792 
L 90.733717 127.748769 
L 90.835206 127.418702 
L 91.038182 128.542676 
L 91.139671 128.742478 
L 91.241159 129.393749 
L 91.342648 129.250804 
L 91.647113 130.597524 
L 91.748601 131.103489 
L 91.850089 130.514435 
L 92.053066 131.134643 
L 92.154555 131.143162 
L 92.256043 131.520369 
L 92.357531 130.853622 
L 92.45902 131.614685 
L 92.560508 131.544166 
L 92.661996 131.457844 
L 92.763485 132.076507 
L 92.864973 131.459406 
L 93.06795 132.224883 
L 93.169438 131.85863 
L 93.270927 132.629502 
L 93.372415 131.909021 
L 93.473903 132.665379 
L 93.67688 132.407465 
L 93.778369 133.061497 
L 93.879857 132.402506 
L 94.082834 133.101406 
L 94.184322 132.827234 
L 94.28581 133.51073 
L 94.387299 132.972976 
L 94.488787 133.654838 
L 94.590276 133.569387 
L 94.691764 133.279701 
L 94.793252 134.060874 
L 94.894741 133.290219 
L 95.097717 134.034606 
L 95.199206 133.912425 
L 95.300694 134.263764 
L 95.402183 134.017876 
L 95.503671 134.63881 
L 95.605159 134.55721 
L 95.706648 134.257842 
L 95.808136 134.953255 
L 95.909624 134.29599 
L 96.112601 135.174711 
L 96.21409 134.690745 
L 96.315578 135.264176 
L 96.417066 135.07956 
L 96.620043 135.584871 
L 96.721531 135.068152 
L 96.82302 135.777371 
L 97.025997 135.483344 
L 97.127485 135.859806 
L 97.228973 135.425377 
L 97.330462 135.929653 
L 97.43195 135.554861 
L 97.634927 135.852631 
L 97.736415 135.370172 
L 97.837904 135.58963 
L 98.04088 135.438838 
L 98.142369 135.558077 
L 98.243857 135.029369 
L 98.345345 135.458711 
L 98.548322 135.089333 
L 98.649811 135.417348 
L 98.751299 134.863681 
L 98.852787 135.091895 
L 98.954276 135.041558 
L 99.055764 134.837523 
L 99.157252 135.180888 
L 99.258741 134.563859 
L 99.360229 134.968732 
L 99.664694 134.517809 
L 99.766183 134.650835 
L 99.969159 134.592706 
L 100.172136 134.487745 
L 100.273625 134.319296 
L 100.375113 134.518518 
L 100.679578 134.081528 
L 100.781066 134.248687 
L 100.882555 134.105561 
L 100.984043 134.190812 
L 101.288508 133.992807 
L 101.389997 134.076623 
L 101.694462 133.760797 
L 102.100415 133.762668 
L 102.201904 133.608915 
L 102.40488 133.622249 
L 102.506369 133.602139 
L 102.607857 133.35358 
L 102.912322 133.434381 
L 103.013811 133.422827 
L 103.216787 133.312254 
L 103.318276 133.362009 
L 103.724229 133.01928 
L 104.028694 133.114231 
L 104.231671 132.864564 
L 104.33316 133.063204 
L 104.434648 132.828651 
L 104.536136 132.935555 
L 104.637625 132.604198 
L 104.739113 132.798969 
L 104.840601 132.687287 
L 104.94209 132.764836 
L 105.246555 132.626196 
L 105.449532 132.583598 
L 105.652508 132.296764 
L 105.753997 132.491789 
L 105.855485 132.363504 
L 105.956974 132.478329 
L 106.15995 132.327755 
L 106.362927 132.362705 
L 106.667392 132.080376 
L 106.870369 132.126662 
L 107.479299 131.995126 
L 107.580788 131.672215 
L 107.682276 131.89249 
L 107.986741 131.760336 
L 108.088229 131.783334 
L 108.189718 131.686075 
L 108.291206 131.807766 
L 108.798648 131.510742 
L 109.001625 131.520206 
L 109.103113 131.496318 
L 109.204602 131.345544 
L 109.30609 131.565729 
L 109.610555 131.175206 
L 109.813532 131.279331 
L 110.016509 131.260185 
L 110.320974 131.122199 
L 110.422462 131.176805 
L 110.625439 130.947774 
L 110.929904 131.049664 
L 111.234369 130.739433 
L 111.437346 130.854348 
L 112.147764 130.648515 
L 112.249253 130.467241 
L 112.45223 130.555089 
L 112.553718 130.641249 
L 112.756695 130.546915 
L 112.959671 130.532255 
L 113.264137 130.270545 
L 113.365625 130.414252 
L 113.771578 130.225894 
L 113.974555 130.352035 
L 114.27902 130.161224 
L 114.481997 130.294832 
L 114.786462 130.197356 
L 114.887951 130.380319 
L 115.192416 130.002966 
L 115.293904 130.220153 
L 115.496881 130.182024 
L 115.699858 130.252179 
L 115.801346 130.102786 
L 115.902834 130.371436 
L 116.207299 129.962984 
L 116.308788 130.142587 
L 116.714741 129.945109 
L 116.81623 129.710883 
L 116.917718 129.872556 
L 117.222183 129.430552 
L 117.323672 129.499672 
L 117.628137 129.31838 
L 118.135579 129.011274 
L 118.338555 128.837048 
L 118.64302 128.648054 
L 119.048974 128.387524 
L 119.251951 128.203943 
L 120.774276 127.252342 
L 120.875765 127.138226 
L 120.977253 127.305676 
L 121.078741 126.880053 
L 121.281718 127.007756 
L 121.383207 126.805283 
L 121.484695 126.888427 
L 121.586183 126.593419 
L 121.687672 126.757508 
L 121.890648 126.4116 
L 121.992137 126.693656 
L 122.093625 126.222588 
L 122.296602 126.339174 
L 122.39809 126.125584 
L 122.499579 126.25554 
L 122.601067 125.918061 
L 122.702555 126.113758 
L 122.905532 125.770684 
L 123.007021 126.004438 
L 123.108509 125.591317 
L 123.311486 125.741728 
L 123.412974 125.422305 
L 123.514462 125.625014 
L 123.615951 125.322976 
L 123.717439 125.473841 
L 123.818928 125.381741 
L 123.920416 125.114345 
L 124.021904 125.341014 
L 124.123393 124.972763 
L 124.326369 125.08855 
L 124.427858 124.847511 
L 124.529346 124.927948 
L 124.630835 124.68909 
L 124.732323 124.857593 
L 124.9353 124.494083 
L 125.036788 124.760498 
L 125.138276 124.281546 
L 125.341253 124.441257 
L 125.442742 124.188466 
L 125.54423 124.328704 
L 125.645718 124.043396 
L 125.747207 124.190755 
L 125.950183 123.809115 
L 126.051672 124.047302 
L 126.15316 123.625952 
L 126.356137 123.738778 
L 126.457625 123.465678 
L 126.559114 123.564625 
L 126.660602 123.383533 
L 126.863579 123.403479 
L 126.965067 123.070178 
L 127.066556 123.284186 
L 127.168044 122.941202 
L 127.371021 123.065091 
L 127.472509 122.739529 
L 127.573997 122.861256 
L 127.776974 122.737894 
L 127.878463 122.710627 
L 127.979951 122.430914 
L 128.081439 122.568609 
L 128.182928 122.288497 
L 128.385904 122.332494 
L 128.588881 122.14775 
L 128.791858 122.02219 
L 128.893346 122.114089 
L 129.096323 121.790071 
L 130.009718 121.196621 
L 130.212695 121.150717 
L 130.415672 121.103741 
L 130.923114 120.993639 
L 131.126091 120.875436 
L 131.430556 120.89778 
L 131.937998 120.661428 
L 132.140974 120.312414 
L 132.242463 120.294702 
L 132.648416 119.737075 
L 132.851393 119.628681 
L 133.155858 119.132944 
L 133.257346 119.181482 
L 133.6633 118.647089 
L 133.967765 118.457168 
L 134.170742 118.163686 
L 135.084137 117.314175 
L 135.287114 117.229342 
L 135.693067 116.851953 
L 135.794556 116.950228 
L 136.200509 116.51867 
L 137.012416 116.090018 
L 137.113905 115.874902 
L 137.316881 115.914829 
L 137.722835 115.627887 
L 137.824323 115.826672 
L 138.128788 115.443161 
L 138.433254 115.503871 
L 138.737719 115.276238 
L 138.839207 115.580892 
L 139.143672 115.168717 
L 139.448137 115.364577 
L 139.549626 115.241361 
L 139.651114 115.310172 
L 139.752602 115.233695 
L 139.854091 115.322252 
L 140.158556 115.089043 
L 140.361533 115.23958 
L 140.564509 115.278037 
L 140.767486 115.262996 
L 140.970463 115.344977 
L 141.17344 115.246447 
L 141.477905 115.462853 
L 141.680882 115.405559 
L 141.883858 115.643709 
L 141.985347 115.489266 
L 142.086835 115.538676 
L 142.188323 115.462907 
L 142.3913 115.705326 
L 142.594277 115.698478 
L 142.695765 115.921387 
L 142.797254 115.814519 
L 143.00023 115.888181 
L 144.827021 116.938384 
L 145.131486 117.222475 
L 145.232975 117.138314 
L 145.435951 117.392595 
L 145.53744 117.355919 
L 145.638928 117.642262 
L 145.841905 117.609982 
L 146.653812 118.267684 
L 146.958277 118.483127 
L 147.465719 118.750923 
L 147.567207 119.023642 
L 147.668696 118.981643 
L 147.770184 119.123988 
L 147.871672 119.007965 
L 148.074649 119.331094 
L 148.379114 119.551641 
L 149.089533 120.077679 
L 149.393998 120.222712 
L 149.698463 120.481971 
L 150.002928 120.734363 
L 150.205905 120.875327 
L 150.307393 120.798069 
L 150.51037 120.973748 
L 150.916324 121.309829 
L 151.220789 121.534718 
L 151.322277 121.428068 
L 151.626742 121.650396 
L 151.829719 121.776846 
L 152.134184 121.901389 
L 152.235672 121.991963 
L 152.438649 121.858137 
L 152.844603 122.125588 
L 152.946091 122.105134 
L 153.149068 122.32263 
L 153.453533 122.181702 
L 153.757998 122.353511 
L 154.26544 122.428716 
L 154.366928 122.244227 
L 154.569905 122.400978 
L 154.87437 122.489226 
L 154.975859 122.419797 
L 155.077347 122.540852 
L 155.381812 122.30668 
L 155.686277 122.485447 
L 155.889254 122.363429 
L 155.990742 122.40719 
L 156.396696 122.171129 
L 156.701161 122.268624 
L 156.802649 122.090983 
L 157.005626 122.179794 
L 157.208603 121.913923 
L 157.513068 122.030837 
L 157.716045 121.790307 
L 157.817533 121.919155 
L 158.121998 121.423781 
L 158.223487 121.586635 
L 158.426463 121.560985 
L 158.832417 121.234006 
L 159.035394 121.060162 
L 159.847301 120.561518 
L 160.050277 120.311342 
L 160.456231 120.076117 
L 160.557719 119.882236 
L 160.659208 119.989122 
L 161.166649 119.305353 
L 161.268138 119.450042 
L 161.471115 119.123026 
L 161.572603 118.962115 
L 161.674091 119.060482 
L 162.080045 118.434897 
L 162.181533 118.418548 
L 162.587487 117.987535 
L 163.906836 116.304099 
L 164.008324 116.100209 
L 164.109812 116.151544 
L 164.312789 115.81372 
L 164.414277 115.77877 
L 164.718743 115.298764 
L 165.53065 114.138894 
L 165.733626 113.897783 
L 166.13958 113.20584 
L 166.241068 113.237739 
L 166.545533 112.817298 
L 166.647022 112.646178 
L 166.74851 112.782674 
L 167.052975 112.08846 
L 167.154464 112.174401 
L 167.560417 111.635412 
L 167.966371 111.168103 
L 168.169347 110.91751 
L 169.488696 109.246136 
L 169.590185 109.151984 
L 169.691673 108.812833 
L 169.793161 108.960483 
L 170.097626 108.13208 
L 170.199115 108.206304 
L 171.011022 107.123148 
L 171.213999 106.719892 
L 171.416975 106.472495 
L 171.924417 104.577558 
L 172.127394 103.557818 
L 172.431859 102.418621 
L 173.345254 98.484893 
L 173.64972 96.185573 
L 175.273534 84.99232 
L 175.375022 84.941039 
L 175.780975 83.33388 
L 176.186929 81.865814 
L 176.795859 80.086991 
L 177.100324 79.90955 
L 177.201813 79.602334 
L 177.303301 79.755415 
L 177.607766 79.518264 
L 177.709255 79.472178 
L 177.912231 79.308834 
L 178.01372 79.267435 
L 178.318185 78.909937 
L 178.419673 78.935859 
L 178.825627 78.545573 
L 178.927115 78.659489 
L 179.23158 78.208402 
L 179.739022 77.900642 
L 180.144976 77.682492 
L 180.347952 77.340926 
L 180.550929 77.323196 
L 180.652417 77.265375 
L 180.855394 77.066408 
L 180.956883 77.135582 
L 181.261348 76.617447 
L 181.565813 76.528109 
L 181.870278 76.229558 
L 181.971766 76.293138 
L 182.37772 75.791388 
L 183.189627 75.246858 
L 183.392604 74.992268 
L 184.103022 74.534569 
L 184.407487 74.24274 
L 184.813441 74.129187 
L 185.016418 73.998341 
L 185.117906 74.019903 
L 185.422371 73.823933 
L 185.726836 73.71207 
L 185.929813 73.628636 
L 186.234278 73.502077 
L 186.437255 73.33281 
L 186.74172 73.264671 
L 187.249162 73.05644 
L 187.452139 72.923759 
L 188.365534 72.542428 
L 188.467022 72.491728 
L 188.568511 72.582665 
L 188.872976 72.249345 
L 188.974464 72.33416 
L 189.278929 72.201406 
L 189.786371 71.959932 
L 190.090836 71.807105 
L 190.293813 71.770429 
L 191.308697 71.303266 
L 191.511674 71.246517 
L 191.71465 71.185971 
L 192.323581 70.938611 
L 196.890557 69.140642 
L 196.992046 68.964509 
L 197.093534 69.065636 
L 197.296511 68.996444 
L 198.108418 68.62029 
L 198.61586 68.513059 
L 199.021813 68.236634 
L 199.123302 68.289659 
L 199.22479 68.176833 
L 199.326278 68.253782 
L 200.036697 67.871561 
L 200.341162 67.854486 
L 201.051581 67.480857 
L 201.153069 67.530122 
L 201.254558 67.444308 
L 201.356046 67.505635 
L 201.559023 67.37428 
L 201.964976 67.203451 
L 202.167953 67.128482 
L 202.472418 67.001014 
L 203.994744 66.420844 
L 204.19772 66.371197 
L 204.502186 66.243348 
L 207.95279 64.934903 
L 208.054279 64.80026 
L 208.257255 64.80017 
L 208.967674 64.529539 
L 209.069162 64.395278 
L 209.272139 64.404452 
L 209.475116 64.340582 
L 209.678093 64.191897 
L 209.779581 64.305613 
L 210.185535 64.065065 
L 210.692976 63.847624 
L 210.794465 63.91331 
L 211.09893 63.624006 
L 211.403395 63.601917 
L 213.331674 62.738709 
L 213.433163 62.869446 
L 213.839116 62.612331 
L 214.346558 62.35409 
L 214.448046 62.493165 
L 214.651023 62.323699 
L 214.854 62.191817 
L 216.376325 61.592173 
L 216.579302 61.482798 
L 216.680791 61.464033 
L 216.782279 61.331516 
L 216.985256 61.362997 
L 217.391209 61.19175 
L 217.594186 61.090278 
L 217.797163 60.994563 
L 218.000139 60.932201 
L 218.203116 60.880884 
L 218.812046 60.587038 
L 218.913535 60.607329 
L 219.218 60.33688 
L 219.420977 60.351921 
L 220.740326 59.737926 
L 220.841814 59.811551 
L 221.146279 59.477505 
L 221.247767 59.569659 
L 221.552233 59.428695 
L 222.262651 59.115812 
L 222.567116 59.09563 
L 222.97307 58.968725 
L 223.277535 58.902385 
L 223.379023 58.901095 
L 223.480512 58.765053 
L 223.683488 58.775825 
L 225.307302 58.35553 
L 226.525163 58.060703 
L 227.743023 57.717029 
L 227.844512 57.614122 
L 227.946 57.685131 
L 228.250465 57.586492 
L 235.354652 55.669447 
L 235.45614 55.759312 
L 235.760605 55.55257 
L 236.06507 55.562797 
L 237.282931 55.224718 
L 237.587396 55.182174 
L 237.790373 55.087405 
L 238.094838 55.060502 
L 240.42907 54.541549 
L 240.530559 54.561658 
L 240.733535 54.454191 
L 241.545442 54.32923 
L 241.748419 54.268666 
L 254.231489 51.659533 
L 256.159768 51.45023 
L 257.783582 51.262761 
L 263.771397 50.566404 
L 264.278838 50.520282 
L 264.989257 50.43316 
L 272.194932 49.679708 
L 272.397908 49.645575 
L 273.006839 49.58859 
L 274.224699 49.488752 
L 275.036606 49.454346 
L 276.355955 49.368169 
L 277.26935 49.323736 
L 278.791676 49.23111 
L 281.227397 49.096267 
L 282.648234 49.156214 
L 284.272048 49.236869 
L 313.906654 50.739249 
L 314.312607 50.846716 
L 314.515584 50.841539 
L 314.820049 50.932021 
L 315.327491 50.970369 
L 315.733444 51.112423 
L 316.240886 51.177383 
L 316.748328 51.319547 
L 317.25577 51.379874 
L 317.661724 51.504036 
L 317.763212 51.452137 
L 318.067677 51.551739 
L 318.270654 51.620749 
L 318.372142 51.86157 
L 318.473631 51.736991 
L 318.575119 51.851942 
L 318.778096 51.818409 
L 318.981072 51.954269 
L 319.184049 52.041136 
L 319.285538 52.268042 
L 319.387026 52.160193 
L 319.488514 52.257033 
L 319.590003 52.186351 
L 319.894468 52.380287 
L 320.097445 52.447009 
L 320.198933 52.696984 
L 320.40191 52.62692 
L 320.604886 52.666939 
L 320.807863 52.840728 
L 320.909352 52.788757 
L 321.315305 53.042584 
L 321.518282 53.162985 
L 321.61977 53.247782 
L 321.721259 53.170451 
L 322.025724 53.396684 
L 322.127212 53.31167 
L 322.431677 53.686624 
L 322.634654 53.615234 
L 322.939119 53.826354 
L 323.040607 53.728369 
L 323.345073 54.139873 
L 323.548049 54.013368 
L 323.852514 54.210718 
L 323.954003 54.146503 
L 324.258468 54.522657 
L 324.461445 54.448487 
L 325.37484 54.958629 
L 325.476328 54.789054 
L 325.780794 55.165226 
L 326.085259 55.19182 
L 326.592701 55.46543 
L 326.795677 55.528537 
L 327.100142 55.650446 
L 327.201631 55.759221 
L 327.303119 55.645795 
L 327.607584 56.040314 
L 327.810561 55.86122 
L 327.912049 56.220317 
L 328.013538 56.043094 
L 328.115026 56.181461 
L 328.216515 56.080388 
L 328.419491 56.290181 
L 328.52098 56.227238 
L 328.723956 56.401409 
L 328.825445 56.611548 
L 328.926933 56.483644 
L 329.12991 56.531365 
L 329.840329 56.897419 
L 329.941817 56.890697 
L 330.144794 57.019001 
L 330.449259 57.149883 
L 331.159677 57.512068 
L 331.261166 57.453556 
L 331.565631 57.787021 
L 331.768608 57.794469 
L 331.870096 57.74366 
L 332.073073 57.956197 
L 332.174561 57.821863 
L 332.377538 57.989294 
L 332.580515 58.051239 
L 333.189445 58.111058 
L 333.899864 58.256673 
L 334.10284 58.268335 
L 334.610282 58.377128 
L 335.828143 58.525141 
L 336.132608 58.646614 
L 336.741538 58.703418 
L 337.654933 58.859932 
L 338.162375 58.944492 
L 338.568329 59.016501 
L 339.075771 59.100861 
L 339.380236 59.172942 
L 339.684701 59.187111 
L 341.815957 59.538796 
L 342.018934 59.584337 
L 344.556143 59.971481 
L 344.75912 60.023107 
L 345.36805 60.105052 
L 346.078469 60.255172 
L 346.281445 60.252356 
L 346.788887 60.339805 
L 348.717166 60.659355 
L 349.630562 60.777903 
L 349.833538 60.823081 
L 349.935027 60.827095 
L 350.138004 60.892491 
L 368.913353 63.913637 
L 369.014841 63.845208 
L 369.11633 64.016054 
L 369.319306 63.941176 
L 369.420795 64.043139 
L 369.522283 63.969387 
L 369.72526 64.012948 
L 371.552051 64.324632 
L 371.653539 64.266484 
L 371.755027 64.434879 
L 371.958004 64.374805 
L 372.262469 64.498985 
L 372.465446 64.457513 
L 372.566934 64.540021 
L 372.668423 64.432063 
L 372.8714 64.540184 
L 372.972888 64.508722 
L 373.074376 64.639296 
L 373.277353 64.630958 
L 373.48033 64.567905 
L 373.581818 64.730668 
L 373.581818 64.730668 
" style="fill:none;stroke:#081d58;stroke-dasharray:5.55,2.4;stroke-dashoffset:0;stroke-width:1.5;"/>
    <defs>
     <path d="M -0 4.242641 
L 4.242641 0 
L 0 -4.242641 
L -4.242641 -0 
z
" id="mb6711a7ab9" style="stroke:#081d58;stroke-linejoin:miter;"/>
    </defs>
    <g clip-path="url(#pb7c9ef0e42)">
     <use style="fill:#081d58;stroke:#081d58;stroke-linejoin:miter;" x="69.218182" xlink:href="#mb6711a7ab9" y="63.273974"/>
     <use style="fill:#081d58;stroke:#081d58;stroke-linejoin:miter;" x="77.337252" xlink:href="#mb6711a7ab9" y="69.046344"/>
     <use style="fill:#081d58;stroke:#081d58;stroke-linejoin:miter;" x="85.456322" xlink:href="#mb6711a7ab9" y="104.325075"/>
     <use style="fill:#081d58;stroke:#081d58;stroke-linejoin:miter;" x="93.575392" xlink:href="#mb6711a7ab9" y="132.443451"/>
     <use style="fill:#081d58;stroke:#081d58;stroke-linejoin:miter;" x="101.694462" xlink:href="#mb6711a7ab9" y="133.760797"/>
     <use style="fill:#081d58;stroke:#081d58;stroke-linejoin:miter;" x="109.813532" xlink:href="#mb6711a7ab9" y="131.279331"/>
     <use style="fill:#081d58;stroke:#081d58;stroke-linejoin:miter;" x="117.932602" xlink:href="#mb6711a7ab9" y="129.078631"/>
     <use style="fill:#081d58;stroke:#081d58;stroke-linejoin:miter;" x="126.051672" xlink:href="#mb6711a7ab9" y="124.047302"/>
     <use style="fill:#081d58;stroke:#081d58;stroke-linejoin:miter;" x="134.170742" xlink:href="#mb6711a7ab9" y="118.163686"/>
     <use style="fill:#081d58;stroke:#081d58;stroke-linejoin:miter;" x="142.289812" xlink:href="#mb6711a7ab9" y="115.661765"/>
     <use style="fill:#081d58;stroke:#081d58;stroke-linejoin:miter;" x="150.408882" xlink:href="#mb6711a7ab9" y="120.974457"/>
     <use style="fill:#081d58;stroke:#081d58;stroke-linejoin:miter;" x="158.527952" xlink:href="#mb6711a7ab9" y="121.504636"/>
     <use style="fill:#081d58;stroke:#081d58;stroke-linejoin:miter;" x="166.647022" xlink:href="#mb6711a7ab9" y="112.646178"/>
     <use style="fill:#081d58;stroke:#081d58;stroke-linejoin:miter;" x="174.766092" xlink:href="#mb6711a7ab9" y="87.695515"/>
     <use style="fill:#081d58;stroke:#081d58;stroke-linejoin:miter;" x="182.885162" xlink:href="#mb6711a7ab9" y="75.420139"/>
     <use style="fill:#081d58;stroke:#081d58;stroke-linejoin:miter;" x="191.004232" xlink:href="#mb6711a7ab9" y="71.469644"/>
     <use style="fill:#081d58;stroke:#081d58;stroke-linejoin:miter;" x="199.123302" xlink:href="#mb6711a7ab9" y="68.289659"/>
     <use style="fill:#081d58;stroke:#081d58;stroke-linejoin:miter;" x="207.242372" xlink:href="#mb6711a7ab9" y="65.188894"/>
     <use style="fill:#081d58;stroke:#081d58;stroke-linejoin:miter;" x="215.361442" xlink:href="#mb6711a7ab9" y="61.996156"/>
     <use style="fill:#081d58;stroke:#081d58;stroke-linejoin:miter;" x="223.480512" xlink:href="#mb6711a7ab9" y="58.765053"/>
     <use style="fill:#081d58;stroke:#081d58;stroke-linejoin:miter;" x="231.599582" xlink:href="#mb6711a7ab9" y="56.671821"/>
     <use style="fill:#081d58;stroke:#081d58;stroke-linejoin:miter;" x="239.718652" xlink:href="#mb6711a7ab9" y="54.656246"/>
     <use style="fill:#081d58;stroke:#081d58;stroke-linejoin:miter;" x="247.837722" xlink:href="#mb6711a7ab9" y="52.970557"/>
     <use style="fill:#081d58;stroke:#081d58;stroke-linejoin:miter;" x="255.956792" xlink:href="#mb6711a7ab9" y="51.460929"/>
     <use style="fill:#081d58;stroke:#081d58;stroke-linejoin:miter;" x="264.075862" xlink:href="#mb6711a7ab9" y="50.547548"/>
     <use style="fill:#081d58;stroke:#081d58;stroke-linejoin:miter;" x="272.194932" xlink:href="#mb6711a7ab9" y="49.679708"/>
     <use style="fill:#081d58;stroke:#081d58;stroke-linejoin:miter;" x="280.314002" xlink:href="#mb6711a7ab9" y="49.127839"/>
     <use style="fill:#081d58;stroke:#081d58;stroke-linejoin:miter;" x="288.433072" xlink:href="#mb6711a7ab9" y="49.429187"/>
     <use style="fill:#081d58;stroke:#081d58;stroke-linejoin:miter;" x="296.552142" xlink:href="#mb6711a7ab9" y="49.830536"/>
     <use style="fill:#081d58;stroke:#081d58;stroke-linejoin:miter;" x="304.671212" xlink:href="#mb6711a7ab9" y="50.17768"/>
     <use style="fill:#081d58;stroke:#081d58;stroke-linejoin:miter;" x="312.790282" xlink:href="#mb6711a7ab9" y="50.560518"/>
     <use style="fill:#081d58;stroke:#081d58;stroke-linejoin:miter;" x="320.909352" xlink:href="#mb6711a7ab9" y="52.788757"/>
     <use style="fill:#081d58;stroke:#081d58;stroke-linejoin:miter;" x="329.028422" xlink:href="#mb6711a7ab9" y="56.575326"/>
     <use style="fill:#081d58;stroke:#081d58;stroke-linejoin:miter;" x="337.147492" xlink:href="#mb6711a7ab9" y="58.747233"/>
     <use style="fill:#081d58;stroke:#081d58;stroke-linejoin:miter;" x="345.266562" xlink:href="#mb6711a7ab9" y="60.059129"/>
     <use style="fill:#081d58;stroke:#081d58;stroke-linejoin:miter;" x="353.385632" xlink:href="#mb6711a7ab9" y="61.386993"/>
     <use style="fill:#081d58;stroke:#081d58;stroke-linejoin:miter;" x="361.504702" xlink:href="#mb6711a7ab9" y="62.710298"/>
     <use style="fill:#081d58;stroke:#081d58;stroke-linejoin:miter;" x="369.623772" xlink:href="#mb6711a7ab9" y="64.053348"/>
    </g>
   </g>
   <g id="patch_3">
    <path d="M 54 252 
L 54 34.56 
" style="fill:none;stroke:#000000;stroke-linecap:square;stroke-linejoin:miter;stroke-width:0.8;"/>
   </g>
   <g id="patch_4">
    <path d="M 388.8 252 
L 388.8 34.56 
" style="fill:none;stroke:#000000;stroke-linecap:square;stroke-linejoin:miter;stroke-width:0.8;"/>
   </g>
   <g id="patch_5">
    <path d="M 54 252 
L 388.8 252 
" style="fill:none;stroke:#000000;stroke-linecap:square;stroke-linejoin:miter;stroke-width:0.8;"/>
   </g>
   <g id="patch_6">
    <path d="M 54 34.56 
L 388.8 34.56 
" style="fill:none;stroke:#000000;stroke-linecap:square;stroke-linejoin:miter;stroke-width:0.8;"/>
   </g>
   <g id="legend_1">
    <g id="patch_7">
     <path d="M 61 247 
L 162.714063 247 
Q 164.714063 247 164.714063 245 
L 164.714063 216.64375 
Q 164.714063 214.64375 162.714063 214.64375 
L 61 214.64375 
Q 59 214.64375 59 216.64375 
L 59 245 
Q 59 247 61 247 
z
" style="fill:#ffffff;opacity:0.8;stroke:#cccccc;stroke-linejoin:miter;"/>
    </g>
    <g id="line2d_16">
     <path d="M 63 222.742188 
L 83 222.742188 
" style="fill:none;stroke:#c6e9b4;stroke-dasharray:5.55,2.4;stroke-dashoffset:0;stroke-width:1.5;"/>
    </g>
    <g id="line2d_17">
     <g>
      <use style="fill:#c6e9b4;stroke:#c6e9b4;" x="73" xlink:href="#m34df19c68d" y="222.742188"/>
     </g>
    </g>
    <g id="text_16">
     <text style="font-family:DejaVu Sans;font-size:10px;font-style:normal;font-weight:normal;text-anchor:start;" transform="rotate(-0, 91, 226.242188)" x="91" y="226.242188">original</text>
    </g>
    <g id="line2d_18">
     <path d="M 63 237.420312 
L 83 237.420312 
" style="fill:none;stroke:#081d58;stroke-dasharray:5.55,2.4;stroke-dashoffset:0;stroke-width:1.5;"/>
    </g>
    <g id="line2d_19">
     <g>
      <use style="fill:#081d58;stroke:#081d58;stroke-linejoin:miter;" x="73" xlink:href="#mb6711a7ab9" y="237.420312"/>
     </g>
    </g>
    <g id="text_17">
     <text style="font-family:DejaVu Sans;font-size:10px;font-style:normal;font-weight:normal;text-anchor:start;" transform="rotate(-0, 91, 240.920312)" x="91" y="240.920312">reconstructed</text>
    </g>
   </g>
  </g>
  <g id="text_18">
   <text style="font-family:DejaVu Sans;font-size:12px;font-style:normal;font-weight:normal;text-anchor:middle;" transform="rotate(-0, 216, 14.878125)" x="216" y="14.878125">Reconstruction of the temperature curve</text>
  </g>
 </g>
 <defs>
  <clipPath id="pb7c9ef0e42">
   <rect height="217.44" width="334.8" x="54" y="34.56"/>
  </clipPath>
 </defs>
</svg>
