<?xml version="1.0" encoding="utf-8" standalone="no"?>
<!DOCTYPE svg PUBLIC "-//W3C//DTD SVG 1.1//EN"
  "http://www.w3.org/Graphics/SVG/1.1/DTD/svg11.dtd">
<!-- Created with matplotlib (https://matplotlib.org/) -->
<svg height="288pt" version="1.1" viewBox="0 0 432 288" width="432pt" xmlns="http://www.w3.org/2000/svg" xmlns:xlink="http://www.w3.org/1999/xlink">
 <defs>
  <style type="text/css">
*{stroke-linecap:butt;stroke-linejoin:round;}
  </style>
 </defs>
 <g id="figure_1">
  <g id="patch_1">
   <path d="M 0 288 
L 432 288 
L 432 0 
L 0 0 
z
" style="fill:#ffffff;"/>
  </g>
  <g id="axes_1">
   <g id="patch_2">
    <path d="M 54 252 
L 388.8 252 
L 388.8 34.56 
L 54 34.56 
z
" style="fill:#ffffff;"/>
   </g>
   <g id="matplotlib.axis_1">
    <g id="xtick_1">
     <g id="line2d_1">
      <defs>
       <path d="M 0 0 
L 0 3.5 
" id="m430539e0eb" style="stroke:#000000;stroke-width:0.8;"/>
      </defs>
      <g>
       <use style="stroke:#000000;stroke-width:0.8;" x="69.218182" xlink:href="#m430539e0eb" y="252"/>
      </g>
     </g>
     <g id="text_1">
      <text style="font-family:DejaVu Sans;font-size:10px;font-style:normal;font-weight:normal;text-anchor:middle;" transform="rotate(-0, 69.218182, 266.598437)" x="69.218182" y="266.598437">0</text>
     </g>
    </g>
    <g id="xtick_2">
     <g id="line2d_2">
      <g>
       <use style="stroke:#000000;stroke-width:0.8;" x="119.962369" xlink:href="#m430539e0eb" y="252"/>
      </g>
     </g>
     <g id="text_2">
      <text style="font-family:DejaVu Sans;font-size:10px;font-style:normal;font-weight:normal;text-anchor:middle;" transform="rotate(-0, 119.962369, 266.598437)" x="119.962369" y="266.598437">500</text>
     </g>
    </g>
    <g id="xtick_3">
     <g id="line2d_3">
      <g>
       <use style="stroke:#000000;stroke-width:0.8;" x="170.706557" xlink:href="#m430539e0eb" y="252"/>
      </g>
     </g>
     <g id="text_3">
      <text style="font-family:DejaVu Sans;font-size:10px;font-style:normal;font-weight:normal;text-anchor:middle;" transform="rotate(-0, 170.706557, 266.598437)" x="170.706557" y="266.598437">1000</text>
     </g>
    </g>
    <g id="xtick_4">
     <g id="line2d_4">
      <g>
       <use style="stroke:#000000;stroke-width:0.8;" x="221.450744" xlink:href="#m430539e0eb" y="252"/>
      </g>
     </g>
     <g id="text_4">
      <text style="font-family:DejaVu Sans;font-size:10px;font-style:normal;font-weight:normal;text-anchor:middle;" transform="rotate(-0, 221.450744, 266.598437)" x="221.450744" y="266.598437">1500</text>
     </g>
    </g>
    <g id="xtick_5">
     <g id="line2d_5">
      <g>
       <use style="stroke:#000000;stroke-width:0.8;" x="272.194932" xlink:href="#m430539e0eb" y="252"/>
      </g>
     </g>
     <g id="text_5">
      <text style="font-family:DejaVu Sans;font-size:10px;font-style:normal;font-weight:normal;text-anchor:middle;" transform="rotate(-0, 272.194932, 266.598437)" x="272.194932" y="266.598437">2000</text>
     </g>
    </g>
    <g id="xtick_6">
     <g id="line2d_6">
      <g>
       <use style="stroke:#000000;stroke-width:0.8;" x="322.939119" xlink:href="#m430539e0eb" y="252"/>
      </g>
     </g>
     <g id="text_6">
      <text style="font-family:DejaVu Sans;font-size:10px;font-style:normal;font-weight:normal;text-anchor:middle;" transform="rotate(-0, 322.939119, 266.598437)" x="322.939119" y="266.598437">2500</text>
     </g>
    </g>
    <g id="xtick_7">
     <g id="line2d_7">
      <g>
       <use style="stroke:#000000;stroke-width:0.8;" x="373.683307" xlink:href="#m430539e0eb" y="252"/>
      </g>
     </g>
     <g id="text_7">
      <text style="font-family:DejaVu Sans;font-size:10px;font-style:normal;font-weight:normal;text-anchor:middle;" transform="rotate(-0, 373.683307, 266.598437)" x="373.683307" y="266.598437">3000</text>
     </g>
    </g>
    <g id="text_8">
     <text style="font-family:DejaVu Sans;font-size:10px;font-style:normal;font-weight:normal;text-anchor:middle;" transform="rotate(-0, 221.4, 280.276563)" x="221.4" y="280.276563">Time</text>
    </g>
   </g>
   <g id="matplotlib.axis_2">
    <g id="ytick_1">
     <g id="line2d_8">
      <defs>
       <path d="M 0 0 
L -3.5 0 
" id="med91cd6425" style="stroke:#000000;stroke-width:0.8;"/>
      </defs>
      <g>
       <use style="stroke:#000000;stroke-width:0.8;" x="54" xlink:href="#med91cd6425" y="237.287777"/>
      </g>
     </g>
     <g id="text_9">
      <text style="font-family:DejaVu Sans;font-size:10px;font-style:normal;font-weight:normal;text-anchor:end;" transform="rotate(-0, 47, 241.086995)" x="47" y="241.086995">68</text>
     </g>
    </g>
    <g id="ytick_2">
     <g id="line2d_9">
      <g>
       <use style="stroke:#000000;stroke-width:0.8;" x="54" xlink:href="#med91cd6425" y="208.413849"/>
      </g>
     </g>
     <g id="text_10">
      <text style="font-family:DejaVu Sans;font-size:10px;font-style:normal;font-weight:normal;text-anchor:end;" transform="rotate(-0, 47, 212.213068)" x="47" y="212.213068">70</text>
     </g>
    </g>
    <g id="ytick_3">
     <g id="line2d_10">
      <g>
       <use style="stroke:#000000;stroke-width:0.8;" x="54" xlink:href="#med91cd6425" y="179.539922"/>
      </g>
     </g>
     <g id="text_11">
      <text style="font-family:DejaVu Sans;font-size:10px;font-style:normal;font-weight:normal;text-anchor:end;" transform="rotate(-0, 47, 183.33914)" x="47" y="183.33914">72</text>
     </g>
    </g>
    <g id="ytick_4">
     <g id="line2d_11">
      <g>
       <use style="stroke:#000000;stroke-width:0.8;" x="54" xlink:href="#med91cd6425" y="150.665994"/>
      </g>
     </g>
     <g id="text_12">
      <text style="font-family:DejaVu Sans;font-size:10px;font-style:normal;font-weight:normal;text-anchor:end;" transform="rotate(-0, 47, 154.465213)" x="47" y="154.465213">74</text>
     </g>
    </g>
    <g id="ytick_5">
     <g id="line2d_12">
      <g>
       <use style="stroke:#000000;stroke-width:0.8;" x="54" xlink:href="#med91cd6425" y="121.792067"/>
      </g>
     </g>
     <g id="text_13">
      <text style="font-family:DejaVu Sans;font-size:10px;font-style:normal;font-weight:normal;text-anchor:end;" transform="rotate(-0, 47, 125.591285)" x="47" y="125.591285">76</text>
     </g>
    </g>
    <g id="ytick_6">
     <g id="line2d_13">
      <g>
       <use style="stroke:#000000;stroke-width:0.8;" x="54" xlink:href="#med91cd6425" y="92.918139"/>
      </g>
     </g>
     <g id="text_14">
      <text style="font-family:DejaVu Sans;font-size:10px;font-style:normal;font-weight:normal;text-anchor:end;" transform="rotate(-0, 47, 96.717358)" x="47" y="96.717358">78</text>
     </g>
    </g>
    <g id="ytick_7">
     <g id="line2d_14">
      <g>
       <use style="stroke:#000000;stroke-width:0.8;" x="54" xlink:href="#med91cd6425" y="64.044211"/>
      </g>
     </g>
     <g id="text_15">
      <text style="font-family:DejaVu Sans;font-size:10px;font-style:normal;font-weight:normal;text-anchor:end;" transform="rotate(-0, 47, 67.84343)" x="47" y="67.84343">80</text>
     </g>
    </g>
    <g id="ytick_8">
     <g id="line2d_15">
      <g>
       <use style="stroke:#000000;stroke-width:0.8;" x="54" xlink:href="#med91cd6425" y="35.170284"/>
      </g>
     </g>
     <g id="text_16">
      <text style="font-family:DejaVu Sans;font-size:10px;font-style:normal;font-weight:normal;text-anchor:end;" transform="rotate(-0, 47, 38.969503)" x="47" y="38.969503">82</text>
     </g>
    </g>
    <g id="text_17">
     <text style="font-family:DejaVu Sans;font-size:10px;font-style:normal;font-weight:normal;text-anchor:middle;" transform="rotate(-90, 28.195312, 143.28)" x="28.195312" y="143.28">weight (\%)</text>
    </g>
   </g>
   <g id="line2d_16">
    <path clip-path="url(#p051d876303)" d="M 69.218182 155.512483 
L 85.659299 155.832983 
L 90.226275 156.188999 
L 94.082834 156.702955 
L 99.563206 157.672541 
L 107.580788 159.031781 
L 116.81623 160.326055 
L 123.717439 161.329857 
L 128.487393 162.183515 
L 132.952881 163.230628 
L 136.403486 164.290446 
L 139.346649 165.427068 
L 141.680882 166.551707 
L 143.913626 167.880341 
L 145.943393 169.355366 
L 147.567207 170.805559 
L 149.29251 172.61682 
L 150.916324 174.637129 
L 152.743114 177.292664 
L 154.671393 180.501135 
L 156.802649 184.494399 
L 158.933905 188.98314 
L 160.862184 193.549551 
L 162.688975 198.441372 
L 164.515766 203.995416 
L 166.647022 211.254755 
L 171.518464 228.1717 
L 172.533347 230.837341 
L 173.548231 232.911211 
L 174.360138 234.042925 
L 175.172045 234.779787 
L 176.288417 235.45587 
L 178.01372 236.213522 
L 180.753906 237.152069 
L 184.508976 238.171896 
L 188.669999 239.067133 
L 192.932511 239.76747 
L 197.499488 240.34004 
L 203.690279 240.93311 
L 213.331674 241.590858 
L 221.856698 241.941388 
L 232.208512 242.111455 
L 239.515675 242.062947 
L 250.780885 241.727865 
L 261.944606 241.157894 
L 277.878281 240.027912 
L 326.085259 236.298845 
L 351.254376 234.727381 
L 363.635957 234.15048 
L 373.581818 233.797063 
L 373.581818 233.797063 
" style="fill:none;stroke:#c6e9b4;stroke-dasharray:5.55,2.4;stroke-dashoffset:0;stroke-width:1.5;"/>
    <defs>
     <path d="M 0 3 
C 0.795609 3 1.55874 2.683901 2.12132 2.12132 
C 2.683901 1.55874 3 0.795609 3 0 
C 3 -0.795609 2.683901 -1.55874 2.12132 -2.12132 
C 1.55874 -2.683901 0.795609 -3 0 -3 
C -0.795609 -3 -1.55874 -2.683901 -2.12132 -2.12132 
C -2.683901 -1.55874 -3 -0.795609 -3 0 
C -3 0.795609 -2.683901 1.55874 -2.12132 2.12132 
C -1.55874 2.683901 -0.795609 3 0 3 
z
" id="mfa6c930c79" style="stroke:#c6e9b4;"/>
    </defs>
    <g clip-path="url(#p051d876303)">
     <use style="fill:#c6e9b4;stroke:#c6e9b4;" x="69.218182" xlink:href="#mfa6c930c79" y="155.512483"/>
     <use style="fill:#c6e9b4;stroke:#c6e9b4;" x="77.337252" xlink:href="#mfa6c930c79" y="155.609788"/>
     <use style="fill:#c6e9b4;stroke:#c6e9b4;" x="85.456322" xlink:href="#mfa6c930c79" y="155.822589"/>
     <use style="fill:#c6e9b4;stroke:#c6e9b4;" x="93.575392" xlink:href="#mfa6c930c79" y="156.622974"/>
     <use style="fill:#c6e9b4;stroke:#c6e9b4;" x="101.694462" xlink:href="#mfa6c930c79" y="158.060896"/>
     <use style="fill:#c6e9b4;stroke:#c6e9b4;" x="109.813532" xlink:href="#mfa6c930c79" y="159.359789"/>
     <use style="fill:#c6e9b4;stroke:#c6e9b4;" x="117.932602" xlink:href="#mfa6c930c79" y="160.477355"/>
     <use style="fill:#c6e9b4;stroke:#c6e9b4;" x="126.051672" xlink:href="#mfa6c930c79" y="161.72211"/>
     <use style="fill:#c6e9b4;stroke:#c6e9b4;" x="134.170742" xlink:href="#mfa6c930c79" y="163.576682"/>
     <use style="fill:#c6e9b4;stroke:#c6e9b4;" x="142.289812" xlink:href="#mfa6c930c79" y="166.887511"/>
     <use style="fill:#c6e9b4;stroke:#c6e9b4;" x="150.408882" xlink:href="#mfa6c930c79" y="173.97144"/>
     <use style="fill:#c6e9b4;stroke:#c6e9b4;" x="158.527952" xlink:href="#mfa6c930c79" y="188.088337"/>
     <use style="fill:#c6e9b4;stroke:#c6e9b4;" x="166.647022" xlink:href="#mfa6c930c79" y="211.254755"/>
     <use style="fill:#c6e9b4;stroke:#c6e9b4;" x="174.766092" xlink:href="#mfa6c930c79" y="234.450336"/>
     <use style="fill:#c6e9b4;stroke:#c6e9b4;" x="182.885162" xlink:href="#mfa6c930c79" y="237.755679"/>
     <use style="fill:#c6e9b4;stroke:#c6e9b4;" x="191.004232" xlink:href="#mfa6c930c79" y="239.477142"/>
     <use style="fill:#c6e9b4;stroke:#c6e9b4;" x="199.123302" xlink:href="#mfa6c930c79" y="240.510107"/>
     <use style="fill:#c6e9b4;stroke:#c6e9b4;" x="207.242372" xlink:href="#mfa6c930c79" y="241.209722"/>
     <use style="fill:#c6e9b4;stroke:#c6e9b4;" x="215.361442" xlink:href="#mfa6c930c79" y="241.691917"/>
     <use style="fill:#c6e9b4;stroke:#c6e9b4;" x="223.480512" xlink:href="#mfa6c930c79" y="241.984121"/>
     <use style="fill:#c6e9b4;stroke:#c6e9b4;" x="231.599582" xlink:href="#mfa6c930c79" y="242.109434"/>
     <use style="fill:#c6e9b4;stroke:#c6e9b4;" x="239.718652" xlink:href="#mfa6c930c79" y="242.059193"/>
     <use style="fill:#c6e9b4;stroke:#c6e9b4;" x="247.837722" xlink:href="#mfa6c930c79" y="241.839751"/>
     <use style="fill:#c6e9b4;stroke:#c6e9b4;" x="255.956792" xlink:href="#mfa6c930c79" y="241.49081"/>
     <use style="fill:#c6e9b4;stroke:#c6e9b4;" x="264.075862" xlink:href="#mfa6c930c79" y="241.025651"/>
     <use style="fill:#c6e9b4;stroke:#c6e9b4;" x="272.194932" xlink:href="#mfa6c930c79" y="240.464631"/>
     <use style="fill:#c6e9b4;stroke:#c6e9b4;" x="280.314002" xlink:href="#mfa6c930c79" y="239.827961"/>
     <use style="fill:#c6e9b4;stroke:#c6e9b4;" x="288.433072" xlink:href="#mfa6c930c79" y="239.14668"/>
     <use style="fill:#c6e9b4;stroke:#c6e9b4;" x="296.552142" xlink:href="#mfa6c930c79" y="238.458614"/>
     <use style="fill:#c6e9b4;stroke:#c6e9b4;" x="304.671212" xlink:href="#mfa6c930c79" y="237.860635"/>
     <use style="fill:#c6e9b4;stroke:#c6e9b4;" x="312.790282" xlink:href="#mfa6c930c79" y="237.27565"/>
     <use style="fill:#c6e9b4;stroke:#c6e9b4;" x="320.909352" xlink:href="#mfa6c930c79" y="236.66641"/>
     <use style="fill:#c6e9b4;stroke:#c6e9b4;" x="329.028422" xlink:href="#mfa6c930c79" y="236.096005"/>
     <use style="fill:#c6e9b4;stroke:#c6e9b4;" x="337.147492" xlink:href="#mfa6c930c79" y="235.544658"/>
     <use style="fill:#c6e9b4;stroke:#c6e9b4;" x="345.266562" xlink:href="#mfa6c930c79" y="235.053223"/>
     <use style="fill:#c6e9b4;stroke:#c6e9b4;" x="353.385632" xlink:href="#mfa6c930c79" y="234.620692"/>
     <use style="fill:#c6e9b4;stroke:#c6e9b4;" x="361.504702" xlink:href="#mfa6c930c79" y="234.241577"/>
     <use style="fill:#c6e9b4;stroke:#c6e9b4;" x="369.623772" xlink:href="#mfa6c930c79" y="233.92483"/>
    </g>
   </g>
   <g id="line2d_17">
    <path clip-path="url(#p051d876303)" d="M 69.218182 63.05764 
L 69.31967 63.150052 
L 69.421159 64.114484 
L 69.522647 63.41363 
L 69.624135 63.70937 
L 69.725624 62.440716 
L 69.827112 64.306137 
L 69.9286 62.799019 
L 70.131577 63.973278 
L 70.233066 62.42078 
L 70.334554 64.587338 
L 70.537531 63.037043 
L 70.639019 63.926136 
L 70.740507 62.575975 
L 70.841996 64.355702 
L 70.943484 63.037263 
L 71.044973 63.351618 
L 71.146461 64.340282 
L 71.247949 62.586769 
L 71.349438 64.80102 
L 71.552414 63.283989 
L 71.653903 63.976252 
L 71.755391 62.771703 
L 71.85688 64.461993 
L 71.958368 63.284209 
L 72.059856 63.369131 
L 72.161345 64.047626 
L 72.262833 63.113594 
L 72.364321 64.493494 
L 72.46581 63.234423 
L 72.567298 63.48181 
L 72.668787 64.482149 
L 72.770275 63.244006 
L 72.871763 64.206786 
L 73.07474 62.996509 
L 73.176228 64.530833 
L 73.277717 62.970846 
L 73.480694 64.1038 
L 73.582182 63.157652 
L 73.68367 64.606944 
L 73.785159 63.157872 
L 73.886647 64.395795 
L 74.089624 62.42078 
L 74.191112 64.811814 
L 74.292601 63.410986 
L 74.495577 63.716639 
L 74.597066 62.911477 
L 74.698554 64.42961 
L 74.800042 63.07273 
L 74.901531 63.90653 
L 75.003019 63.831301 
L 75.104508 62.807941 
L 75.205996 64.566741 
L 75.307484 62.988909 
L 75.408973 63.143884 
L 75.510461 63.899921 
L 75.611949 62.483343 
L 75.713438 64.367157 
L 75.814926 62.732711 
L 76.017903 63.763671 
L 76.119391 62.553285 
L 76.22088 64.355812 
L 76.423856 62.791749 
L 76.525345 63.631387 
L 76.626833 62.234855 
L 76.728322 63.965458 
L 76.931298 62.207208 
L 77.032787 63.909173 
L 77.134275 62.040558 
L 77.235763 63.896507 
L 77.43874 62.054216 
L 77.540229 63.457467 
L 77.641717 61.900784 
L 77.743205 63.342696 
L 77.844694 61.842627 
L 77.946182 62.212605 
L 78.04767 63.258545 
L 78.149159 61.506684 
L 78.250647 63.000475 
L 78.453624 61.731711 
L 78.555112 62.8075 
L 78.656601 61.720146 
L 78.758089 62.741082 
L 78.961066 61.106086 
L 79.062554 62.832503 
L 79.164043 61.13935 
L 79.265531 61.906952 
L 79.367019 61.887787 
L 79.468508 61.015106 
L 79.569996 62.427058 
L 79.671484 61.411739 
L 79.772973 62.209301 
L 79.97595 60.496211 
L 80.077438 62.29202 
L 80.178926 61.191779 
L 80.280415 61.262052 
L 80.381903 61.525849 
L 80.483391 60.432107 
L 80.58488 62.130437 
L 80.686368 60.542913 
L 80.787857 61.303246 
L 80.889345 61.234405 
L 80.990833 60.058053 
L 81.092322 62.167226 
L 81.295298 60.32064 
L 81.396787 61.174816 
L 81.498275 59.950882 
L 81.599764 61.249275 
L 81.701252 60.036465 
L 81.904229 60.834798 
L 82.005717 59.657345 
L 82.107205 61.349066 
L 82.310182 59.562399 
L 82.411671 61.046277 
L 82.513159 59.292874 
L 82.614647 60.953535 
L 82.817624 59.364689 
L 82.919112 60.667267 
L 83.020601 58.990856 
L 83.122089 61.001778 
L 83.325066 59.219848 
L 83.426554 60.410628 
L 83.528043 59.32052 
L 83.629531 60.012673 
L 83.731019 58.974113 
L 83.832508 59.111024 
L 83.933996 60.281098 
L 84.035485 58.643567 
L 84.136973 60.052766 
L 84.33995 59.066746 
L 84.441438 59.887438 
L 84.542926 58.63817 
L 84.644415 59.697548 
L 84.847392 58.111676 
L 84.94888 59.559315 
L 85.050368 58.980282 
L 85.151857 59.010682 
L 85.253345 58.993719 
L 85.354833 58.248807 
L 85.456322 59.582336 
L 85.55781 58.390454 
L 85.760787 59.051325 
L 85.862275 57.571964 
L 85.963764 59.587402 
L 86.065252 58.286807 
L 86.268229 58.694014 
L 86.369717 57.544207 
L 86.471206 59.40346 
L 86.572694 57.849089 
L 86.775671 58.609422 
L 86.877159 57.219719 
L 86.978647 59.184601 
L 87.181624 58.00847 
L 87.283113 58.390894 
L 87.384601 57.270496 
L 87.486089 58.888861 
L 87.587578 57.612277 
L 87.689066 57.639042 
L 87.790554 58.700733 
L 87.892043 56.65181 
L 87.993531 59.07776 
L 88.196508 57.319291 
L 88.297996 58.675289 
L 88.399485 57.048003 
L 88.500973 58.241868 
L 88.70395 57.018814 
L 88.805438 58.16014 
L 88.906927 56.626807 
L 89.008415 58.279758 
L 89.211392 56.721422 
L 89.31288 58.06927 
L 89.414368 56.579775 
L 89.515857 57.94778 
L 89.718834 56.668332 
L 89.820322 57.75084 
L 89.92181 56.286458 
L 90.023299 57.47779 
L 90.226275 55.882666 
L 90.327764 56.729903 
L 90.429252 55.676474 
L 90.530741 56.502563 
L 90.733717 54.633288 
L 90.835206 56.424691 
L 90.936694 54.899839 
L 91.038182 55.781001 
L 91.241159 54.702238 
L 91.342648 55.424131 
L 91.444136 54.498249 
L 91.545624 55.038512 
L 91.748601 53.385341 
L 91.850089 54.958547 
L 92.053066 53.811714 
L 92.154555 54.390087 
L 92.256043 53.13432 
L 92.357531 54.826372 
L 92.45902 52.877572 
L 92.661996 53.68009 
L 92.763485 52.279042 
L 92.864973 54.270579 
L 93.06795 52.347222 
L 93.169438 53.351306 
L 93.270927 51.87558 
L 93.372415 53.795853 
L 93.473903 51.720165 
L 93.67688 52.584585 
L 93.778369 51.150714 
L 93.879857 52.889908 
L 94.082834 51.169328 
L 94.184322 52.121314 
L 94.28581 50.873258 
L 94.387299 52.495698 
L 94.488787 50.881408 
L 94.590276 50.994528 
L 94.691764 52.093117 
L 94.793252 49.883051 
L 94.894741 52.152485 
L 94.996229 50.498103 
L 95.097717 50.85244 
L 95.199206 50.812568 
L 95.300694 50.231221 
L 95.402183 51.013693 
L 95.503671 50.155551 
L 95.605159 50.187273 
L 95.706648 51.134632 
L 95.808136 49.461415 
L 95.909624 50.972168 
L 96.112601 49.224603 
L 96.21409 51.065571 
L 96.315578 49.025681 
L 96.417066 50.410758 
L 96.620043 49.001118 
L 96.721531 50.610781 
L 96.82302 48.759459 
L 96.924508 49.67741 
L 97.025997 49.506465 
L 97.127485 48.563731 
L 97.228973 49.863446 
L 97.330462 48.795917 
L 97.43195 49.574314 
L 97.634927 47.98679 
L 97.736415 49.612975 
L 97.939392 48.553818 
L 98.04088 48.671894 
L 98.142369 47.414475 
L 98.243857 49.613526 
L 98.345345 47.543455 
L 98.548322 48.570009 
L 98.649811 46.8871 
L 98.751299 48.799332 
L 98.954276 47.529467 
L 99.055764 48.086141 
L 99.157252 46.532652 
L 99.258741 48.459864 
L 99.360229 46.752282 
L 99.664694 47.815074 
L 99.766183 47.050004 
L 99.867671 47.22084 
L 100.070648 46.6222 
L 100.172136 46.736641 
L 100.273625 47.077871 
L 100.375113 46.067288 
L 100.476601 46.525162 
L 100.57809 46.322495 
L 100.679578 47.466133 
L 100.781066 46.321503 
L 100.882555 46.706131 
L 101.085532 46.050656 
L 101.18702 46.016952 
L 101.288508 46.267202 
L 101.389997 45.552579 
L 101.592973 46.217196 
L 101.79595 46.315556 
L 101.998927 45.668562 
L 102.100415 45.498498 
L 102.201904 45.951856 
L 102.303392 45.529008 
L 102.40488 45.673298 
L 102.506369 45.351013 
L 102.607857 46.093282 
L 103.013811 45.318961 
L 103.115299 45.801618 
L 103.318276 44.986212 
L 103.724229 45.785757 
L 103.927206 45.343634 
L 104.028694 45.039082 
L 104.231671 45.702927 
L 104.33316 44.443636 
L 104.434648 45.494533 
L 104.536136 44.828264 
L 104.637625 46.245173 
L 104.739113 44.900409 
L 104.840601 45.660632 
L 104.94209 44.933342 
L 105.043578 45.346828 
L 105.145067 45.03005 
L 105.246555 45.110456 
L 105.348043 44.941713 
L 105.652508 45.987763 
L 105.753997 45.09801 
L 105.855485 45.434393 
L 105.956974 44.868797 
L 106.058462 45.393089 
L 106.15995 45.323257 
L 106.362927 44.93147 
L 106.565904 46.071253 
L 106.870369 45.334491 
L 106.971857 45.281291 
L 107.073346 45.682771 
L 107.377811 45.113981 
L 107.479299 45.26521 
L 107.580788 46.627267 
L 107.682276 45.766261 
L 107.783764 45.786858 
L 107.885253 45.59135 
L 107.986741 45.679467 
L 108.088229 45.555002 
L 108.189718 45.992499 
L 108.392695 45.345726 
L 108.595671 46.595104 
L 108.69716 46.118726 
L 108.798648 46.199793 
L 108.900136 45.830696 
L 109.103113 46.06134 
L 109.204602 46.512385 
L 109.30609 45.563814 
L 109.610555 46.911331 
L 109.712043 46.346506 
L 109.813532 46.583429 
L 109.91502 46.165097 
L 110.117997 46.464692 
L 110.219485 46.343422 
L 110.320974 46.607551 
L 110.422462 46.488924 
L 110.625439 47.176011 
L 110.828416 46.612177 
L 110.929904 46.654032 
L 111.031392 47.017622 
L 111.132881 46.916839 
L 111.234369 47.606018 
L 111.437346 47.015529 
L 111.640323 46.991627 
L 111.843299 47.702175 
L 111.944788 47.024891 
L 112.147764 47.633224 
L 112.249253 48.116872 
L 112.350741 47.657676 
L 112.45223 47.848448 
L 112.553718 47.530238 
L 112.655206 47.571322 
L 113.162648 48.328791 
L 113.264137 48.554479 
L 113.365625 47.822233 
L 113.467113 48.132622 
L 113.568602 48.096935 
L 113.771578 48.384084 
L 113.873067 48.316565 
L 113.974555 47.947689 
L 114.177532 49.03306 
L 114.27902 48.942741 
L 114.481997 48.453366 
L 114.684974 49.052336 
L 114.786462 48.971599 
L 114.887951 48.296298 
L 114.989439 48.878086 
L 115.090927 48.712427 
L 115.192416 49.739312 
L 115.395392 49.080753 
L 115.496881 49.158846 
L 115.598369 49.023808 
L 115.801346 49.779074 
L 115.902834 48.750648 
L 116.207299 50.318346 
L 116.410276 49.727306 
L 116.511765 49.387398 
L 116.613253 49.667938 
L 116.714741 49.528273 
L 116.81623 50.693831 
L 116.917718 49.220087 
L 117.019206 49.88217 
L 117.120695 49.569908 
L 117.222183 50.979107 
L 117.323672 50.133632 
L 117.42516 50.504381 
L 117.526648 49.765526 
L 117.729625 50.13958 
L 117.831113 50.072391 
L 118.03409 50.556039 
L 118.135579 50.118432 
L 118.237067 51.122406 
L 118.338555 50.460213 
L 118.440044 50.756614 
L 118.541532 50.154119 
L 118.64302 50.471888 
L 118.845997 50.410978 
L 119.048974 50.54888 
L 119.150462 51.123177 
L 119.556416 50.547558 
L 119.657904 50.933838 
L 119.759393 50.608248 
L 119.860881 50.79153 
L 120.063858 50.755843 
L 120.165346 51.453173 
L 120.368323 51.156001 
L 120.469811 50.907623 
L 120.672788 51.108418 
L 120.774276 51.125931 
L 120.875765 51.48148 
L 120.977253 49.918518 
L 121.078741 52.419147 
L 121.281718 50.697356 
L 121.383207 51.672912 
L 121.484695 50.678411 
L 121.586183 52.284109 
L 121.687672 50.746811 
L 121.890648 52.275738 
L 121.992137 49.931295 
L 122.093625 52.745948 
L 122.296602 51.113485 
L 122.39809 52.164271 
L 122.499579 50.862904 
L 122.601067 52.755641 
L 122.702555 51.001577 
L 122.804044 51.412859 
L 122.905532 52.530283 
L 123.007021 50.522885 
L 123.108509 52.931543 
L 123.311486 51.305798 
L 123.412974 53.212523 
L 123.514462 51.604072 
L 123.615951 53.228715 
L 123.717439 51.938032 
L 123.818928 52.328057 
L 123.920416 53.7334 
L 124.021904 52.109969 
L 124.123393 54.076283 
L 124.326369 52.826905 
L 124.427858 54.222886 
L 124.529346 53.42235 
L 124.630835 54.61214 
L 124.732323 53.300199 
L 124.833811 53.810722 
L 124.9353 55.083011 
L 125.036788 53.151393 
L 125.138276 55.87848 
L 125.341253 54.355611 
L 125.442742 55.776375 
L 125.54423 54.467188 
L 125.645718 56.009002 
L 125.747207 54.675804 
L 125.848695 55.260345 
L 125.950183 56.547833 
L 126.051672 54.599693 
L 126.15316 57.077852 
L 126.356137 55.637372 
L 126.457625 57.142838 
L 126.559114 56.15153 
L 126.660602 56.990176 
L 126.863579 56.192725 
L 126.965067 58.091189 
L 127.066556 56.325339 
L 127.168044 58.289671 
L 127.371021 56.797312 
L 127.472509 58.668791 
L 127.573997 57.529448 
L 127.675486 58.315114 
L 127.878463 57.586503 
L 127.979951 59.172816 
L 128.081439 57.983357 
L 128.182928 59.53211 
L 128.284416 58.624072 
L 128.385904 58.704918 
L 128.487393 59.93447 
L 128.588881 59.379008 
L 128.791858 60.056511 
L 128.893346 59.641704 
L 129.096323 61.567595 
L 129.2993 61.704615 
L 129.603765 63.665862 
L 129.705253 63.469583 
L 130.111207 65.672159 
L 130.212695 65.571045 
L 130.314184 65.692095 
L 130.51716 67.017033 
L 130.821625 67.777917 
L 130.923114 68.207814 
L 131.126091 69.431748 
L 131.227579 69.09977 
L 131.633532 71.123249 
L 131.735021 71.132832 
L 131.836509 71.299702 
L 131.937998 71.71517 
L 132.039486 73.13263 
L 132.242463 72.781817 
L 132.648416 74.649992 
L 132.851393 74.70176 
L 133.155858 76.594056 
L 133.257346 76.054454 
L 133.6633 77.964704 
L 133.764788 77.916791 
L 133.967765 78.308467 
L 134.170742 79.441642 
L 134.475207 80.085662 
L 134.678184 81.000198 
L 134.779672 80.610834 
L 135.185626 82.799201 
L 135.287114 82.384504 
L 135.693067 83.816944 
L 135.794556 83.180744 
L 136.099021 85.340033 
L 136.200509 84.979417 
L 136.403486 85.331331 
L 136.504974 85.035701 
L 136.707951 86.305897 
L 136.80944 85.874017 
L 136.910928 86.060934 
L 137.012416 86.533567 
L 137.113905 87.62015 
L 137.316881 87.28608 
L 137.519858 87.555715 
L 137.621347 87.572678 
L 137.722835 88.638884 
L 137.824323 87.553513 
L 138.128788 89.568731 
L 138.331765 89.199083 
L 138.433254 89.240828 
L 138.63623 89.458696 
L 138.737719 90.53107 
L 138.839207 88.904004 
L 139.143672 91.262765 
L 139.448137 90.383145 
L 139.549626 91.124423 
L 139.651114 90.835071 
L 139.752602 91.309577 
L 139.854091 90.942573 
L 139.955579 91.613688 
L 140.057068 91.457833 
L 140.158556 92.4867 
L 140.260044 91.841248 
L 140.361533 91.908107 
L 140.463021 91.712489 
L 140.767486 92.307273 
L 140.868975 91.810408 
L 141.17344 93.025421 
L 141.274928 92.553117 
L 141.376416 92.768562 
L 141.477905 92.392305 
L 141.680882 93.086221 
L 141.883858 92.207041 
L 141.985347 93.226876 
L 142.086835 93.190308 
L 142.188323 93.774629 
L 142.3913 92.920122 
L 142.492789 93.012974 
L 142.594277 93.431967 
L 142.695765 92.460706 
L 142.797254 93.268511 
L 142.898742 92.919461 
L 143.00023 93.39617 
L 143.101719 93.342749 
L 143.203207 93.733214 
L 143.406184 93.131931 
L 143.507672 93.064742 
L 143.609161 93.34319 
L 143.710649 92.587152 
L 143.812137 93.272917 
L 143.913626 92.651808 
L 144.015114 93.570419 
L 144.116603 93.148453 
L 144.218091 93.439567 
L 144.319579 92.786515 
L 144.421068 92.931246 
L 144.624044 92.745872 
L 144.725533 92.781779 
L 144.827021 92.939617 
L 144.92851 92.546178 
L 145.029998 93.076858 
L 145.131486 92.374792 
L 145.232975 93.120476 
L 145.435951 92.405082 
L 145.53744 92.900846 
L 145.638928 91.680767 
L 145.841905 92.492648 
L 146.14637 92.136438 
L 146.247858 92.305291 
L 146.349347 92.239864 
L 146.552324 91.510262 
L 146.653812 91.602784 
L 146.7553 91.726147 
L 146.856789 92.231383 
L 146.958277 91.456181 
L 147.059765 91.484598 
L 147.161254 91.005136 
L 147.262742 91.898965 
L 147.364231 91.162753 
L 147.465719 91.646181 
L 147.567207 90.514989 
L 147.668696 91.072214 
L 147.770184 90.642758 
L 147.871672 91.606088 
L 147.973161 90.503754 
L 148.074649 90.521928 
L 148.176138 90.588236 
L 148.277626 91.035756 
L 148.480603 90.132014 
L 148.582091 90.433371 
L 148.683579 90.36376 
L 148.785068 90.033103 
L 148.886556 90.128269 
L 148.988044 89.546812 
L 149.191021 89.906657 
L 149.29251 89.610586 
L 149.393998 89.814465 
L 149.495486 89.375977 
L 149.596975 89.746505 
L 149.799951 89.341171 
L 149.90144 89.206793 
L 150.104417 88.592844 
L 150.205905 88.669284 
L 150.307393 89.373553 
L 150.408882 88.719951 
L 150.51037 88.997627 
L 150.814835 88.236854 
L 150.916324 88.262958 
L 151.220789 87.732278 
L 151.322277 88.500762 
L 151.423765 88.049497 
L 151.525254 88.56024 
L 151.626742 87.937149 
L 151.728231 88.061833 
L 151.829719 87.629623 
L 151.931207 87.686568 
L 152.134184 87.520469 
L 152.235672 87.205674 
L 152.438649 88.254367 
L 152.641626 87.3395 
L 152.743114 87.413408 
L 152.844603 87.433895 
L 152.946091 87.6728 
L 153.149068 86.771701 
L 153.352045 87.966337 
L 153.453533 87.902893 
L 153.65651 86.968641 
L 153.960975 87.759815 
L 154.062463 86.807058 
L 154.26544 87.261848 
L 154.366928 88.30966 
L 154.468417 87.535339 
L 154.569905 87.570255 
L 154.671393 87.223848 
L 154.772882 87.421338 
L 154.87437 87.174833 
L 154.975859 87.573118 
L 155.077347 86.947383 
L 155.381812 88.21846 
L 155.4833 87.785148 
L 155.584789 87.973607 
L 155.686277 87.247529 
L 155.787766 87.948934 
L 155.889254 87.849693 
L 155.990742 87.556376 
L 156.092231 88.010285 
L 156.193719 87.739217 
L 156.396696 88.634478 
L 156.498184 88.245005 
L 156.599673 88.372773 
L 156.701161 87.899479 
L 156.802649 88.770177 
L 156.904138 87.996627 
L 157.005626 88.101816 
L 157.208603 89.309669 
L 157.310091 88.705853 
L 157.41158 88.851905 
L 157.513068 88.275405 
L 157.614556 89.315947 
L 157.716045 89.266272 
L 157.817533 88.444588 
L 158.02051 89.227721 
L 158.121998 90.556514 
L 158.223487 89.502093 
L 158.324975 89.715665 
L 158.426463 89.221002 
L 158.527952 89.345797 
L 158.62944 90.074077 
L 158.730928 89.405826 
L 158.933905 90.797732 
L 159.035394 90.558276 
L 159.136882 90.607511 
L 159.23837 90.330275 
L 159.339859 90.557175 
L 159.441347 90.476218 
L 159.542835 90.958434 
L 159.745812 90.566207 
L 159.948789 91.816135 
L 160.050277 91.716674 
L 160.151766 91.684181 
L 160.253254 91.12222 
L 160.557719 92.302978 
L 160.659208 91.386569 
L 160.862184 92.269714 
L 160.963673 93.330082 
L 161.065161 92.25936 
L 161.166649 93.150435 
L 161.268138 91.968246 
L 161.369626 92.999647 
L 161.471115 92.914945 
L 161.572603 93.333717 
L 161.674091 92.41125 
L 161.877068 94.085128 
L 161.978556 94.043714 
L 162.080045 94.013975 
L 162.181533 93.652478 
L 162.283022 94.045146 
L 162.38451 93.884444 
L 162.485998 94.182056 
L 162.587487 94.116299 
L 162.688975 94.297158 
L 162.891952 95.017178 
L 162.99344 95.607557 
L 163.094929 94.974001 
L 163.196417 95.282187 
L 163.297905 95.071039 
L 163.60237 96.20873 
L 163.703859 96.006393 
L 164.008324 97.267997 
L 164.109812 96.510748 
L 164.312789 97.290136 
L 164.414277 96.942297 
L 164.617254 98.337508 
L 164.718743 97.978104 
L 164.820231 98.107524 
L 165.226184 99.471564 
L 165.327673 99.19576 
L 165.53065 100.004667 
L 165.632138 100.87162 
L 165.733626 100.253926 
L 166.13958 102.201625 
L 166.241068 101.666759 
L 166.647022 103.789259 
L 166.74851 103.200863 
L 167.052975 105.637717 
L 167.154464 105.003391 
L 167.458929 107.061786 
L 167.661905 107.364796 
L 167.966371 108.97534 
L 168.270836 110.254017 
L 168.473812 111.297093 
L 168.575301 111.573337 
L 168.879766 113.518943 
L 168.981254 113.949612 
L 169.285719 116.409046 
L 169.488696 116.843679 
L 169.590185 117.158254 
L 169.691673 118.579239 
L 169.793161 118.182165 
L 170.097626 121.314256 
L 170.199115 120.986244 
L 170.50358 121.378251 
L 170.706557 122.980865 
L 170.808045 122.662435 
L 171.011022 123.634247 
L 171.11251 125.28929 
L 171.213999 124.960836 
L 171.315487 125.110744 
L 171.924417 127.630648 
L 172.127394 129.62582 
L 172.228882 129.115627 
L 172.533347 130.768577 
L 172.736324 131.332411 
L 172.939301 132.898016 
L 173.040789 132.611418 
L 173.142278 134.305012 
L 173.243766 134.107081 
L 173.64972 136.383564 
L 173.954185 138.637798 
L 175.273534 147.163374 
L 175.375022 147.141124 
L 175.780975 150.203824 
L 175.882464 149.880548 
L 176.389906 152.933115 
L 176.897348 155.001533 
L 177.100324 155.918713 
L 177.201813 157.285726 
L 177.303301 156.831928 
L 177.506278 158.042865 
L 177.607766 158.568809 
L 177.709255 158.329463 
L 177.912231 159.516499 
L 178.318185 161.911057 
L 178.419673 161.954455 
L 178.521162 162.488109 
L 178.62265 162.458259 
L 178.825627 163.505961 
L 178.927115 162.538996 
L 179.23158 164.589571 
L 179.434557 164.379083 
L 179.536045 164.651803 
L 179.637534 164.402985 
L 179.84051 165.033676 
L 179.941999 164.712603 
L 180.246464 166.375246 
L 180.550929 166.131825 
L 180.652417 166.275675 
L 180.753906 166.872772 
L 180.956883 166.308608 
L 181.058371 167.449603 
L 181.159859 167.316217 
L 181.261348 167.86386 
L 181.362836 167.780259 
L 181.565813 167.81099 
L 181.667301 167.744132 
L 181.870278 168.627056 
L 181.971766 168.13691 
L 182.276231 169.439929 
L 182.37772 169.303569 
L 182.479208 169.087354 
L 182.580697 169.437285 
L 182.682185 169.193424 
L 182.885162 169.868504 
L 182.98665 169.567147 
L 183.189627 169.943843 
L 183.291115 170.877876 
L 183.392604 170.497544 
L 183.494092 170.570901 
L 183.59558 170.345323 
L 183.798557 170.823354 
L 183.900045 171.166677 
L 184.001534 170.802756 
L 184.103022 170.989343 
L 184.407487 171.869403 
L 184.508976 171.721038 
L 184.610464 171.966221 
L 184.711952 171.917978 
L 184.813441 171.711015 
L 185.016418 172.251938 
L 185.117906 171.900905 
L 185.320883 173.136074 
L 185.422371 173.053686 
L 185.523859 172.652537 
L 185.625348 172.827007 
L 185.726836 172.759157 
L 185.828325 173.3068 
L 186.031301 172.677099 
L 186.335766 174.091144 
L 186.437255 174.117579 
L 186.640232 173.621154 
L 186.944697 174.06559 
L 187.046185 173.926367 
L 187.249162 174.359458 
L 187.35065 174.977263 
L 187.553627 174.617969 
L 187.655115 174.453302 
L 187.756604 174.52787 
L 188.061069 175.070997 
L 188.162557 175.153826 
L 188.264046 175.03586 
L 188.467022 175.487786 
L 188.568511 174.689233 
L 188.669999 175.430731 
L 188.771487 175.288644 
L 188.872976 176.410914 
L 188.974464 175.632517 
L 189.075953 175.905017 
L 189.278929 175.396696 
L 189.481906 176.40739 
L 189.583394 175.39218 
L 189.786371 176.519628 
L 189.88786 176.401442 
L 189.989348 176.552231 
L 190.192325 176.320154 
L 190.293813 176.412016 
L 190.395301 176.352647 
L 190.49679 176.564787 
L 190.598278 176.477111 
L 190.801255 176.904806 
L 190.902743 177.487364 
L 191.004232 176.820104 
L 191.10572 177.151091 
L 191.207208 176.615674 
L 191.308697 177.169705 
L 191.410185 176.927165 
L 191.511674 177.527016 
L 191.613162 176.895113 
L 191.816139 177.296372 
L 191.917627 178.127969 
L 192.120604 177.419294 
L 192.222092 177.460379 
L 192.526557 177.923099 
L 192.628046 177.319613 
L 192.831022 178.178966 
L 192.932511 178.024653 
L 193.033999 178.214874 
L 193.236976 177.828154 
L 193.338464 177.950305 
L 193.439953 178.301778 
L 193.642929 178.050978 
L 193.845906 178.489796 
L 193.947395 178.807896 
L 194.048883 178.470631 
L 194.150371 178.711849 
L 194.353348 178.207053 
L 194.556325 178.742029 
L 194.657813 178.096027 
L 194.962278 179.62947 
L 195.063767 178.798974 
L 195.165255 179.128309 
L 195.266743 178.457524 
L 195.46972 178.893259 
L 195.672697 178.895902 
L 195.774185 179.469208 
L 195.875674 179.028958 
L 195.977162 179.72794 
L 196.180139 179.276785 
L 196.383116 179.029508 
L 196.586092 179.338135 
L 196.789069 179.492339 
L 196.890557 179.227329 
L 196.992046 180.411942 
L 197.093534 179.450153 
L 197.195023 179.681899 
L 197.296511 179.419753 
L 197.499488 179.612618 
L 197.600976 179.542785 
L 198.108418 180.120608 
L 198.311395 179.81165 
L 198.514371 180.049344 
L 198.61586 179.73554 
L 198.818837 180.129199 
L 198.920325 180.092521 
L 199.021813 180.799874 
L 199.123302 179.892056 
L 199.22479 180.614499 
L 199.326278 179.943384 
L 199.427767 180.26666 
L 199.630744 180.027975 
L 199.83372 180.355548 
L 199.935209 180.426591 
L 200.036697 180.78203 
L 200.138185 180.521096 
L 200.239674 180.752071 
L 200.341162 180.228991 
L 200.544139 180.387049 
L 200.747116 180.439478 
L 200.950092 180.773218 
L 201.051581 181.462618 
L 201.153069 180.580464 
L 201.254558 180.81959 
L 201.356046 180.237692 
L 201.457534 180.942292 
L 201.559023 180.481554 
L 201.863488 181.079202 
L 201.964976 180.888871 
L 202.066465 181.420983 
L 202.269441 180.697769 
L 202.37093 180.977428 
L 202.472418 180.839526 
L 202.573906 181.124912 
L 202.776883 180.714621 
L 202.878372 181.294096 
L 202.97986 181.254003 
L 203.182837 181.400276 
L 203.284325 180.774761 
L 203.385813 180.840407 
L 203.487302 181.440038 
L 203.791767 180.934912 
L 203.994744 181.475945 
L 204.096232 181.525511 
L 204.299209 181.164124 
L 204.400697 181.498856 
L 204.806651 180.968947 
L 205.009627 181.921703 
L 205.111116 181.721129 
L 205.212604 181.69921 
L 205.314093 181.184831 
L 205.517069 181.508548 
L 205.618558 181.636097 
L 205.821534 181.131191 
L 205.923023 181.500177 
L 206.024511 182.363717 
L 206.227488 181.311829 
L 206.328976 181.541262 
L 206.531953 181.519893 
L 206.633441 181.734126 
L 206.73493 181.406223 
L 206.937907 181.716833 
L 207.039395 182.159507 
L 207.34386 181.458873 
L 207.648325 182.021715 
L 207.749814 181.293985 
L 207.851302 181.892515 
L 207.95279 181.618914 
L 208.054279 182.35138 
L 208.155767 181.772567 
L 208.257255 182.179113 
L 208.460232 181.527493 
L 208.663209 182.130429 
L 208.764697 181.512404 
L 208.866186 181.533001 
L 208.967674 181.856938 
L 209.069162 182.928542 
L 209.170651 181.787216 
L 209.272139 181.985037 
L 209.373628 181.692491 
L 209.576604 181.957831 
L 209.678093 182.447868 
L 209.779581 181.330554 
L 209.881069 181.998144 
L 209.982558 181.857048 
L 210.084046 182.96544 
L 210.185535 181.919501 
L 210.287023 182.200591 
L 210.388511 181.572323 
L 210.49 182.029205 
L 210.591488 181.952544 
L 210.692976 182.51781 
L 210.794465 181.345203 
L 210.895953 182.194313 
L 210.997442 182.177571 
L 211.09893 182.636877 
L 211.200418 182.041872 
L 211.301907 182.150585 
L 211.403395 181.938666 
L 211.504883 182.282539 
L 211.606372 181.92688 
L 211.809349 182.270534 
L 212.012325 182.014005 
L 212.113814 182.121727 
L 212.215302 181.862335 
L 212.31679 182.66937 
L 212.418279 181.735338 
L 212.519767 182.1084 
L 212.621256 182.045727 
L 212.722744 182.87402 
L 212.824232 182.219206 
L 212.925721 182.309745 
L 213.027209 181.857158 
L 213.331674 182.769161 
L 213.433163 181.539499 
L 213.737628 182.816854 
L 213.839116 182.232974 
L 213.940604 182.583236 
L 214.042093 181.981733 
L 214.24507 182.151467 
L 214.346558 182.856617 
L 214.448046 181.233295 
L 214.549535 182.581253 
L 214.651023 182.153229 
L 214.752511 183.134513 
L 215.056977 181.774219 
L 215.158465 182.511862 
L 215.259953 182.059605 
L 215.361442 182.412621 
L 215.46293 182.119635 
L 215.767395 182.767619 
L 215.868884 182.412401 
L 215.970372 182.648662 
L 216.07186 181.981733 
L 216.274837 182.348516 
L 216.376325 182.427931 
L 216.477814 182.192881 
L 216.782279 183.003881 
L 216.985256 182.152127 
L 217.086744 182.761011 
L 217.188232 182.308644 
L 217.289721 182.547219 
L 217.492698 182.113246 
L 217.594186 182.277363 
L 217.695674 182.829191 
L 217.898651 182.401166 
L 218.101628 182.737219 
L 218.203116 182.157304 
L 218.406093 182.795266 
L 218.507581 182.502169 
L 218.710558 182.736008 
L 218.812046 182.530366 
L 218.913535 181.983936 
L 219.218 182.954976 
L 219.319488 182.446986 
L 219.522465 182.556581 
L 219.725442 182.665404 
L 219.928419 182.230551 
L 220.131395 182.878976 
L 220.232884 183.125261 
L 220.43586 182.47254 
L 220.638837 182.562198 
L 220.740326 182.893405 
L 220.841814 181.901877 
L 221.146279 183.661999 
L 221.247767 182.44952 
L 221.349256 182.880959 
L 221.450744 182.355456 
L 221.552233 182.460314 
L 221.755209 182.898031 
L 221.856698 182.459983 
L 221.958186 182.575526 
L 222.059674 182.50294 
L 222.161163 183.415934 
L 222.465628 182.422534 
L 222.668605 182.946055 
L 222.770093 183.005753 
L 222.871581 182.485537 
L 223.074558 183.028664 
L 223.176047 182.089234 
L 223.277535 182.807932 
L 223.379023 182.580703 
L 223.480512 183.72346 
L 223.582 182.661109 
L 223.683488 183.000026 
L 223.987954 182.621897 
L 224.089442 183.281667 
L 224.19093 182.341687 
L 224.292419 182.901226 
L 224.393907 182.697236 
L 224.495395 183.691518 
L 224.596884 182.990003 
L 224.698372 183.021064 
L 224.799861 182.370325 
L 224.901349 183.248624 
L 225.002837 182.727196 
L 225.104326 182.882501 
L 225.205814 182.750326 
L 225.510279 183.500306 
L 225.611768 182.944843 
L 225.713256 182.972159 
L 225.814744 182.844501 
L 225.916233 183.329581 
L 226.017721 183.231331 
L 226.220698 182.743167 
L 226.423675 183.194653 
L 226.626651 182.625972 
L 226.829628 183.771153 
L 226.931116 183.116009 
L 227.032605 183.172403 
L 227.134093 182.978107 
L 227.438558 183.447546 
L 227.540047 182.206319 
L 227.641535 183.445013 
L 227.743023 182.855185 
L 227.844512 184.034731 
L 227.946 183.171522 
L 228.047489 183.39005 
L 228.148977 182.928652 
L 228.351954 183.105655 
L 228.55493 183.095632 
L 228.859396 183.771704 
L 228.960884 183.045846 
L 229.163861 183.334868 
L 229.265349 183.215029 
L 229.468326 183.350288 
L 229.569814 182.990443 
L 229.772791 183.859379 
L 229.874279 183.487088 
L 229.975768 183.582474 
L 230.178744 183.234195 
L 230.381721 183.781066 
L 230.48321 182.82104 
L 230.787675 184.023055 
L 230.889163 183.57906 
L 230.990651 183.681825 
L 231.09214 183.264485 
L 231.193628 183.678741 
L 231.295117 183.323082 
L 231.396605 183.881959 
L 231.498093 182.906843 
L 231.802558 184.403828 
L 232.005535 183.71542 
L 232.107024 183.218664 
L 232.208512 183.603292 
L 232.31 183.558683 
L 232.411489 183.492485 
L 232.614465 183.899362 
L 232.715954 183.718063 
L 232.817442 184.219775 
L 233.020419 183.546457 
L 233.223396 183.856846 
L 233.324884 183.893745 
L 233.527861 183.295876 
L 233.730838 184.229027 
L 234.035303 183.771153 
L 234.136791 183.877443 
L 234.238279 183.716411 
L 234.339768 184.134302 
L 234.441256 183.377494 
L 234.644233 183.93549 
L 234.745721 185.039807 
L 234.84721 183.920069 
L 234.948698 184.065351 
L 235.050186 183.603732 
L 235.354652 184.469584 
L 235.45614 183.425737 
L 235.760605 184.721597 
L 235.862093 184.11723 
L 235.963582 184.275398 
L 236.06507 183.733704 
L 236.268047 184.240152 
L 236.471024 183.8292 
L 236.674 184.397659 
L 236.775489 184.627643 
L 236.876977 184.300621 
L 236.978466 184.407462 
L 237.181442 184.204024 
L 237.282931 184.440726 
L 237.485907 184.031977 
L 237.587396 184.091896 
L 237.688884 185.176277 
L 237.891861 184.318795 
L 237.993349 184.581272 
L 238.094838 184.24621 
L 238.196326 184.340825 
L 238.297814 184.611782 
L 238.399303 184.034841 
L 238.60228 184.430923 
L 238.703768 185.416173 
L 238.805256 184.613544 
L 238.906745 184.899922 
L 239.008233 184.10269 
L 239.21121 184.622466 
L 239.414187 184.360541 
L 239.617163 185.000154 
L 239.718652 184.955435 
L 239.921628 184.593938 
L 240.124605 184.700779 
L 240.226094 184.877783 
L 240.530559 184.326285 
L 240.632047 185.498892 
L 240.733535 184.916444 
L 240.936512 185.028572 
L 241.038001 184.553185 
L 241.139489 184.734594 
L 241.240977 185.386324 
L 241.342466 184.447555 
L 241.545442 184.831412 
L 241.646931 185.953241 
L 241.849908 185.098184 
L 241.951396 184.656281 
L 242.052884 184.955545 
L 242.154373 184.721046 
L 242.255861 185.177929 
L 242.357349 184.850357 
L 242.560326 185.491512 
L 242.661815 185.063157 
L 242.864791 185.335987 
L 242.96628 184.706837 
L 243.169256 185.25481 
L 243.270745 185.271112 
L 243.372233 184.854762 
L 243.676698 185.565971 
L 243.778187 185.098073 
L 243.879675 185.488979 
L 243.981163 185.177929 
L 244.18414 185.55044 
L 244.285629 184.604622 
L 244.590094 186.176065 
L 244.79307 185.347552 
L 244.894559 185.046856 
L 245.199024 186.003468 
L 245.300512 184.883621 
L 245.402001 185.585356 
L 245.503489 185.175616 
L 245.604977 186.180251 
L 245.706466 185.475872 
L 245.807954 185.674684 
L 245.909443 185.316822 
L 246.112419 185.766545 
L 246.315396 185.306028 
L 246.619861 186.057769 
L 246.72135 185.933636 
L 246.924326 185.360329 
L 247.025815 185.894534 
L 247.228791 185.481269 
L 247.634745 186.263851 
L 247.93921 185.524776 
L 248.040698 185.979786 
L 248.142187 185.686359 
L 248.649629 186.310883 
L 248.852605 185.900041 
L 248.954094 185.847612 
L 249.157071 186.205805 
L 249.258559 185.674243 
L 249.461536 186.028361 
L 249.563024 186.628873 
L 249.664512 186.140599 
L 249.766001 186.304715 
L 249.867489 186.019218 
L 249.968978 186.199416 
L 250.070466 186.124738 
L 250.171954 185.763131 
L 250.577908 186.84641 
L 250.679396 186.090262 
L 250.780885 186.250524 
L 250.983861 186.231028 
L 251.08535 186.331701 
L 251.186838 186.180251 
L 251.288326 186.237526 
L 251.389815 185.950598 
L 251.491303 187.053813 
L 251.795768 186.136743 
L 251.897257 186.543069 
L 251.998745 186.389857 
L 252.100233 186.811383 
L 252.201722 185.985184 
L 252.30321 186.480617 
L 252.404699 186.166923 
L 252.506187 187.342834 
L 252.709164 186.579858 
L 252.810652 186.253608 
L 252.91214 186.440745 
L 253.013629 187.024625 
L 253.115117 185.964366 
L 253.318094 186.903575 
L 253.521071 187.00579 
L 253.622559 186.933094 
L 253.724047 186.379283 
L 253.825536 186.501655 
L 254.028513 187.151402 
L 254.130001 186.326304 
L 254.231489 186.729986 
L 254.332978 186.529081 
L 254.434466 187.607624 
L 254.637443 186.917343 
L 254.84042 186.746618 
L 254.941908 186.790786 
L 255.043396 187.243153 
L 255.144885 186.393162 
L 255.246373 187.027268 
L 255.347861 186.902143 
L 255.44935 187.600464 
L 255.753815 186.485353 
L 255.855303 187.245356 
L 255.956792 187.188301 
L 256.05828 186.802131 
L 256.159768 186.885621 
L 256.362745 187.351756 
L 256.464234 187.529641 
L 256.565722 187.402753 
L 256.66721 186.810612 
L 256.768699 187.261878 
L 256.870187 187.198875 
L 256.971675 187.334243 
L 257.073164 186.849714 
L 257.174652 187.086196 
L 257.276141 186.947303 
L 257.377629 188.533285 
L 257.580606 187.224869 
L 257.783582 187.251414 
L 257.986559 187.523473 
L 258.189536 187.148869 
L 258.291024 187.757311 
L 258.392513 187.731207 
L 258.494001 187.381055 
L 258.595489 187.600795 
L 258.696978 187.39251 
L 258.798466 187.659943 
L 258.899955 187.621282 
L 259.001443 187.491751 
L 259.102931 187.176956 
L 259.305908 188.164408 
L 259.508885 187.650911 
L 259.610373 187.622493 
L 259.711862 187.719862 
L 259.81335 187.304504 
L 259.914838 188.047434 
L 260.117815 187.428968 
L 260.219303 187.684725 
L 260.320792 188.543749 
L 260.42228 187.750592 
L 260.523769 188.12035 
L 260.625257 187.440423 
L 260.726745 188.040825 
L 260.828234 187.982338 
L 260.929722 187.706865 
L 261.132699 187.805114 
L 261.335676 188.462241 
L 261.741629 187.836616 
L 261.843117 188.221574 
L 261.944606 187.571716 
L 262.046094 188.212101 
L 262.147583 188.066048 
L 262.249071 188.561812 
L 262.553536 187.846198 
L 262.655024 188.056906 
L 262.756513 188.548154 
L 262.858001 187.764801 
L 263.060978 188.327754 
L 263.162466 188.549366 
L 263.263955 188.452989 
L 263.365443 188.545291 
L 263.56842 188.238977 
L 263.669908 188.361678 
L 263.771397 188.68121 
L 263.872885 187.891909 
L 264.17735 189.383496 
L 264.278838 188.475018 
L 264.380327 188.648166 
L 264.481815 188.318061 
L 264.78628 188.654224 
L 264.887769 188.24173 
L 264.989257 188.876608 
L 265.090745 188.595517 
L 265.192234 189.18127 
L 265.395211 188.49143 
L 265.496699 188.465545 
L 265.699676 189.211009 
L 265.801164 188.411574 
L 266.004141 188.768886 
L 266.207118 189.210788 
L 266.308606 189.209797 
L 266.410094 188.516983 
L 266.714559 189.362128 
L 266.816048 188.03686 
L 267.019025 189.359374 
L 267.120513 189.574048 
L 267.222001 188.807326 
L 267.32349 189.5377 
L 267.424978 188.884538 
L 267.627955 189.195478 
L 267.830932 188.751372 
L 267.93242 190.269615 
L 268.033908 188.961309 
L 268.135397 189.34054 
L 268.338373 188.897756 
L 268.54135 189.373143 
L 268.642839 189.232377 
L 268.744327 190.156826 
L 268.947304 189.238215 
L 269.048792 189.37876 
L 269.15028 189.159351 
L 269.251769 189.832779 
L 269.454746 189.204951 
L 269.556234 189.407618 
L 269.657722 190.072896 
L 269.759211 189.528778 
L 269.860699 189.81824 
L 269.962187 189.359044 
L 270.165164 189.620088 
L 270.266653 189.142278 
L 270.368141 189.549155 
L 270.469629 189.322806 
L 270.571118 189.569972 
L 270.672606 190.196369 
L 270.875583 189.385038 
L 270.977071 189.201646 
L 271.180048 189.713822 
L 271.281536 189.259032 
L 271.383025 189.347038 
L 271.586001 190.108803 
L 271.788978 189.59101 
L 271.890467 189.150869 
L 271.991955 189.735741 
L 272.093443 189.660071 
L 272.194932 188.926614 
L 272.29642 190.567778 
L 272.397908 189.450905 
L 272.499397 189.814825 
L 272.600885 189.353316 
L 272.702374 189.76559 
L 273.006839 189.319392 
L 273.209815 189.904594 
L 273.514281 189.743892 
L 273.717257 189.481415 
L 273.818746 189.929817 
L 273.920234 189.222133 
L 274.224699 190.260914 
L 274.529164 189.341861 
L 274.630653 189.904924 
L 274.935118 189.606761 
L 275.036606 189.638042 
L 275.138095 189.884107 
L 275.239583 190.426242 
L 275.44256 189.726158 
L 275.544048 189.528117 
L 275.747025 189.918142 
L 275.848513 189.296481 
L 276.152978 190.547071 
L 276.254467 189.652361 
L 276.355955 189.902941 
L 276.457443 189.485711 
L 276.558932 189.994252 
L 276.66042 189.928055 
L 276.964885 189.540343 
L 277.066374 190.308056 
L 277.26935 189.743671 
L 277.573816 190.276995 
L 277.675304 189.679787 
L 277.878281 189.935434 
L 277.979769 189.802159 
L 278.081257 190.208815 
L 278.182746 189.380853 
L 278.487211 190.701054 
L 278.690188 189.953278 
L 278.791676 189.78839 
L 278.893164 189.959666 
L 278.994653 189.711839 
L 279.19763 190.012977 
L 279.299118 189.767573 
L 279.502095 190.419523 
L 279.705071 189.813173 
L 279.80656 189.802489 
L 280.009537 190.300236 
L 280.111025 189.485491 
L 280.41549 190.685744 
L 280.618467 189.958124 
L 280.719955 189.888953 
L 280.821444 190.179957 
L 281.02442 189.755126 
L 281.125909 189.846767 
L 281.328885 190.538039 
L 281.531862 189.986652 
L 281.633351 189.893689 
L 281.734839 190.317308 
L 281.937816 189.779028 
L 282.039304 189.943695 
L 282.242281 190.176653 
L 282.343769 190.676161 
L 282.445258 189.952947 
L 282.546746 189.989406 
L 282.648234 190.225006 
L 282.749723 190.06893 
L 282.851211 190.354978 
L 282.952699 189.476569 
L 283.054188 190.109244 
L 283.155676 189.995023 
L 283.257165 190.673628 
L 283.358653 190.122902 
L 283.460141 190.510723 
L 283.56163 189.808217 
L 283.764606 190.256177 
L 283.967583 189.845225 
L 284.17056 190.59939 
L 284.272048 190.241748 
L 284.373537 190.321824 
L 284.475025 189.834321 
L 284.678002 190.274462 
L 284.77949 190.526804 
L 284.880979 189.418522 
L 285.185444 190.584521 
L 285.591397 190.02344 
L 285.692886 190.428885 
L 285.794374 189.755237 
L 285.895862 189.898646 
L 286.098839 190.968377 
L 286.200327 189.965174 
L 286.301816 190.449703 
L 286.403304 189.594094 
L 286.606281 190.309818 
L 286.707769 189.875846 
L 286.910746 190.339007 
L 287.012234 190.309598 
L 287.215211 190.373482 
L 287.418188 190.024101 
L 287.519676 189.999208 
L 287.621165 190.695547 
L 287.722653 189.432621 
L 287.824141 190.23503 
L 287.92563 189.934994 
L 288.027118 191.116522 
L 288.128607 190.147684 
L 288.230095 190.441882 
L 288.331583 189.828263 
L 288.53456 190.423929 
L 288.737537 189.810419 
L 288.940514 190.740266 
L 289.14349 190.199453 
L 289.447955 190.051638 
L 289.549444 190.295169 
L 289.650932 189.790153 
L 289.853909 190.524381 
L 289.955397 190.514909 
L 290.158374 190.009893 
L 290.361351 190.374033 
L 290.462839 190.301557 
L 290.564328 189.790703 
L 290.665816 190.171145 
L 290.767304 190.108803 
L 290.868793 190.797211 
L 291.173258 190.035556 
L 291.6807 190.118496 
L 291.782188 190.794898 
L 292.086653 189.998437 
L 292.28963 190.271488 
L 292.391118 190.323917 
L 292.492607 189.846767 
L 292.797072 190.737953 
L 292.89856 190.255737 
L 293.000049 190.37161 
L 293.101537 190.033904 
L 293.304514 190.245273 
L 293.406002 189.859985 
L 293.50749 190.25827 
L 293.608979 190.147794 
L 293.710467 190.740486 
L 293.811956 190.187226 
L 293.913444 190.310149 
L 294.014932 189.802048 
L 294.116421 190.528567 
L 294.319397 190.090188 
L 294.522374 189.970901 
L 294.623862 190.854487 
L 294.725351 190.717025 
L 294.928328 190.090959 
L 295.029816 189.974426 
L 295.232793 190.313453 
L 295.334281 189.562152 
L 295.537258 190.397274 
L 295.638746 190.674509 
L 295.841723 190.013197 
L 295.943211 190.381633 
L 296.146188 190.114531 
L 296.247676 189.728802 
L 296.349165 190.150879 
L 296.450653 189.976519 
L 296.552142 191.091519 
L 296.65363 190.126647 
L 296.755118 190.1446 
L 296.856607 190.17478 
L 296.958095 190.001081 
L 297.059583 190.219609 
L 297.161072 189.807776 
L 297.364049 189.951516 
L 297.465537 190.799304 
L 297.668514 190.231835 
L 297.87149 189.907127 
L 298.074467 190.086003 
L 298.277444 189.950855 
L 298.378932 190.493541 
L 298.581909 189.967266 
L 298.683397 190.296821 
L 298.886374 189.866483 
L 298.987863 190.253864 
L 299.089351 189.31014 
L 299.190839 190.226989 
L 299.292328 190.107261 
L 299.393816 190.684422 
L 299.596793 189.941052 
L 299.698281 189.896553 
L 299.79977 189.989846 
L 299.901258 190.518984 
L 300.002746 189.511265 
L 300.104235 189.644981 
L 300.307211 190.814504 
L 300.4087 189.898756 
L 300.510188 190.151539 
L 300.611677 189.806785 
L 300.713165 190.054722 
L 300.916142 189.836414 
L 301.01763 189.406737 
L 301.220607 190.609964 
L 301.423584 189.919023 
L 301.525072 189.699723 
L 301.728049 189.952727 
L 301.829537 189.753144 
L 301.931025 189.86362 
L 302.032514 189.724396 
L 302.134002 190.239656 
L 302.235491 189.868466 
L 302.336979 190.324798 
L 302.539956 189.611056 
L 302.742932 189.936205 
L 302.844421 189.230504 
L 303.047398 189.997666 
L 303.148886 190.262786 
L 303.351863 189.578123 
L 303.453351 189.891927 
L 303.554839 189.739045 
L 303.656328 189.959116 
L 303.757816 189.15153 
L 304.062281 190.649286 
L 304.16377 189.714813 
L 304.265258 189.866483 
L 304.366746 189.194707 
L 304.569723 189.682651 
L 304.7727 189.486152 
L 304.874188 189.505758 
L 304.975677 190.246044 
L 305.178653 189.445949 
L 305.280142 189.654013 
L 305.584607 189.370059 
L 305.787584 189.282273 
L 305.889072 190.065957 
L 306.193537 189.275664 
L 306.396514 189.34054 
L 306.498002 189.65159 
L 306.599491 189.043037 
L 306.700979 189.521949 
L 307.005444 189.059449 
L 307.106933 189.479213 
L 307.208421 189.391206 
L 307.309909 189.737944 
L 307.512886 189.133136 
L 307.715863 189.187988 
L 307.817351 189.728141 
L 307.91884 188.667221 
L 308.020328 189.141287 
L 308.121816 189.036208 
L 308.223305 189.957794 
L 308.426281 189.017263 
L 308.730747 189.373914 
L 308.832235 188.663146 
L 309.1367 189.754025 
L 309.238188 188.777257 
L 309.339677 189.276325 
L 309.441165 188.881124 
L 309.644142 189.034556 
L 309.74563 188.610386 
L 309.948607 188.937188 
L 310.050095 189.725608 
L 310.253072 188.7875 
L 310.557537 188.789262 
L 310.659026 188.926283 
L 310.862002 188.617656 
L 310.963491 189.597729 
L 311.064979 188.802039 
L 311.267956 188.906347 
L 311.572421 188.446711 
L 311.673909 188.513679 
L 311.876886 189.253965 
L 312.079863 188.813384 
L 312.181351 188.500131 
L 312.384328 188.697291 
L 312.587305 188.523262 
L 312.688793 188.506409 
L 312.790282 188.905025 
L 312.993258 188.843894 
L 313.196235 188.312664 
L 313.399212 188.702138 
L 313.5007 188.074089 
L 313.703677 188.665569 
L 313.805165 188.680439 
L 313.906654 188.401661 
L 314.008142 188.613911 
L 314.10963 188.331499 
L 314.312607 188.564346 
L 314.414096 187.94599 
L 314.515584 188.094466 
L 314.718561 189.011646 
L 314.921537 188.066379 
L 315.023026 188.427215 
L 315.124514 188.30991 
L 315.226003 188.485151 
L 315.327491 187.857433 
L 315.631956 188.740798 
L 315.834933 188.245585 
L 315.936421 188.224217 
L 316.03791 188.066599 
L 316.139398 188.303962 
L 316.240886 187.834082 
L 316.545351 188.889825 
L 316.64684 188.191614 
L 316.748328 188.254397 
L 316.951305 187.856001 
L 317.052793 188.638914 
L 317.154282 187.699925 
L 317.25577 187.790465 
L 317.357258 188.060101 
L 317.458747 188.732758 
L 317.560235 188.128831 
L 317.661724 188.212652 
L 317.763212 187.475449 
L 317.8647 188.047764 
L 318.169165 187.850494 
L 318.270654 187.921428 
L 318.372142 188.554653 
L 318.575119 187.993793 
L 318.778096 187.72603 
L 318.879584 187.987184 
L 319.082561 187.738917 
L 319.184049 187.582841 
L 319.285538 188.78012 
L 319.387026 187.76403 
L 319.488514 188.018576 
L 319.590003 187.532835 
L 319.691491 187.573369 
L 319.894468 187.874285 
L 320.097445 187.363652 
L 320.198933 188.656097 
L 320.300421 187.616105 
L 320.40191 187.86977 
L 320.604886 187.3924 
L 320.706375 187.821416 
L 320.807863 187.768987 
L 320.909352 187.239078 
L 321.112328 188.353858 
L 321.213817 187.626679 
L 321.315305 187.656418 
L 321.61977 187.866355 
L 321.721259 187.35451 
L 321.822747 187.516974 
L 321.924235 187.944889 
L 322.025724 187.795201 
L 322.127212 187.108115 
L 322.2287 187.697833 
L 322.330189 187.599032 
L 322.431677 188.191284 
L 322.634654 187.4076 
L 322.736142 187.486684 
L 322.837631 187.690123 
L 322.939119 187.62007 
L 323.040607 187.362991 
L 323.142096 187.622934 
L 323.243584 187.472035 
L 323.345073 188.333371 
L 323.548049 187.436678 
L 323.751026 187.781213 
L 323.954003 187.146445 
L 324.15698 187.702899 
L 324.258468 188.278629 
L 324.461445 187.413217 
L 324.562933 187.33975 
L 324.76591 187.738586 
L 325.070375 187.452539 
L 325.171863 187.306486 
L 325.37484 187.840251 
L 325.476328 186.780102 
L 325.679305 187.537241 
L 325.780794 187.973526 
L 326.085259 187.308359 
L 326.186747 187.45309 
L 326.288235 187.825711 
L 326.389724 186.99808 
L 326.491212 187.530522 
L 326.592701 187.237425 
L 326.694189 188.081799 
L 326.897166 187.0971 
L 326.998654 187.708627 
L 327.100142 187.419716 
L 327.201631 187.577885 
L 327.303119 186.786491 
L 327.404608 187.719752 
L 327.506096 187.21055 
L 327.607584 188.016593 
L 327.810561 186.844647 
L 327.912049 188.058228 
L 328.013538 187.451107 
L 328.115026 187.629102 
L 328.216515 186.708398 
L 328.419491 187.576232 
L 328.52098 187.015813 
L 328.825445 187.852367 
L 328.926933 187.463223 
L 329.028422 187.671398 
L 329.12991 186.957656 
L 329.231398 187.169796 
L 329.332887 187.898517 
L 329.434375 186.826033 
L 329.637352 187.468951 
L 329.73884 187.957665 
L 329.840329 187.158892 
L 330.043305 187.517745 
L 330.144794 187.174312 
L 330.246282 187.587247 
L 330.449259 186.737586 
L 330.652236 187.947642 
L 330.753724 187.161535 
L 330.855212 187.512678 
L 331.058189 187.137193 
L 331.159677 187.198324 
L 331.362654 187.032665 
L 331.464143 187.068683 
L 331.565631 188.098321 
L 331.768608 187.180921 
L 331.971584 187.208017 
L 332.073073 187.182793 
L 332.174561 186.812375 
L 332.27605 187.274544 
L 332.377538 187.029251 
L 332.479026 187.970552 
L 332.682003 186.924503 
L 332.783491 186.949285 
L 332.88498 187.433814 
L 332.986468 187.183674 
L 333.087957 186.608275 
L 333.189445 187.198764 
L 333.290933 187.095668 
L 333.392422 187.820535 
L 333.595398 187.000393 
L 333.696887 186.784728 
L 333.899864 187.356272 
L 334.001352 186.550119 
L 334.305817 187.618969 
L 334.508794 186.943337 
L 334.711771 186.996207 
L 334.813259 187.364423 
L 334.914747 186.45275 
L 335.219212 187.667873 
L 335.320701 186.861389 
L 335.422189 187.052712 
L 335.523678 186.931772 
L 335.726654 187.167924 
L 335.828143 186.450878 
L 335.929631 187.026057 
L 336.031119 186.888155 
L 336.132608 187.613572 
L 336.335585 186.246558 
L 336.437073 187.369049 
L 336.538561 187.29371 
L 336.64005 186.827795 
L 336.741538 187.032225 
L 336.944515 186.583603 
L 337.046003 187.34691 
L 337.147492 186.639006 
L 337.24898 186.788143 
L 337.350468 187.336116 
L 337.451957 187.206144 
L 337.553445 186.735053 
L 337.654933 186.776688 
L 337.756422 186.793099 
L 337.85791 186.629864 
L 337.959399 187.010526 
L 338.060887 186.715998 
L 338.263864 187.005349 
L 338.365352 187.329066 
L 338.568329 186.46013 
L 338.771306 186.828015 
L 338.872794 186.466188 
L 339.075771 186.968561 
L 339.177259 187.048747 
L 339.278747 186.873726 
L 339.380236 187.133999 
L 339.481724 186.17959 
L 339.684701 186.868218 
L 339.786189 186.428408 
L 339.887678 186.492513 
L 339.989166 186.935958 
L 340.192143 186.87681 
L 340.293631 186.984091 
L 340.39512 186.330599 
L 340.496608 186.380385 
L 340.699585 186.750803 
L 340.801073 186.362872 
L 340.902561 186.483811 
L 341.00405 187.169245 
L 341.410003 186.230918 
L 341.61298 186.764902 
L 341.714468 186.134541 
L 341.815957 186.373556 
L 341.917445 187.488777 
L 342.120422 186.307248 
L 342.323399 186.55882 
L 342.627864 186.216379 
L 342.729352 186.462333 
L 342.830841 187.284347 
L 342.932329 186.482049 
L 343.033817 186.613232 
L 343.135306 185.885943 
L 343.338282 186.610038 
L 343.439771 186.081451 
L 343.642748 186.421689 
L 343.744236 186.804444 
L 343.845724 186.218692 
L 343.947213 186.844647 
L 344.048701 185.918215 
L 344.150189 185.988929 
L 344.251678 186.953471 
L 344.353166 185.834285 
L 344.657631 187.160324 
L 344.75912 185.979236 
L 344.962096 186.333353 
L 345.063585 186.178489 
L 345.165073 186.470484 
L 345.266562 185.952801 
L 345.36805 185.981989 
L 345.469538 186.083433 
L 345.571027 186.97583 
L 345.774003 185.928459 
L 345.875492 186.253828 
L 345.97698 186.207787 
L 346.078469 186.252506 
L 346.179957 185.754429 
L 346.484422 186.735493 
L 346.788887 185.80036 
L 346.991864 186.550339 
L 347.093352 185.376521 
L 347.296329 186.326854 
L 347.397817 186.29348 
L 347.600794 186.076053 
L 347.803771 185.740331 
L 347.905259 186.021421 
L 348.006748 185.877351 
L 348.311213 186.27784 
L 348.51419 185.862041 
L 348.615678 186.016685 
L 348.818655 185.65651 
L 348.920143 186.050279 
L 349.021631 185.80807 
L 349.12312 186.245787 
L 349.326097 186.034308 
L 349.427585 185.248862 
L 349.529073 186.047306 
L 349.630562 185.696383 
L 349.73205 185.985734 
L 349.935027 185.512991 
L 350.036515 186.613122 
L 350.138004 185.731519 
L 350.239492 186.13388 
L 350.34098 185.349095 
L 350.442469 185.495478 
L 350.543957 186.2177 
L 350.746934 185.263842 
L 350.949911 186.427086 
L 351.051399 185.713786 
L 351.152887 185.963485 
L 351.254376 185.219013 
L 351.355864 185.888035 
L 351.558841 185.314289 
L 351.660329 185.894204 
L 351.761818 185.619611 
L 351.863306 186.436449 
L 352.066283 185.354051 
L 352.269259 185.732731 
L 352.370748 185.637124 
L 352.472236 185.120763 
L 352.776701 185.950818 
L 352.87819 185.798047 
L 352.979678 185.283007 
L 353.081166 185.352399 
L 353.284143 185.95181 
L 353.385632 185.036392 
L 353.690097 186.171549 
L 353.791585 185.403837 
L 353.893073 185.58822 
L 354.09605 185.147749 
L 354.299027 185.674684 
L 354.400515 185.371234 
L 354.603492 186.045103 
L 354.806469 185.230578 
L 354.907957 185.563107 
L 355.110934 185.023505 
L 355.212422 185.622035 
L 355.313911 185.360439 
L 355.415399 185.901473 
L 355.516887 185.409344 
L 355.618376 185.885172 
L 355.719864 185.045754 
L 355.821353 185.492394 
L 356.227306 185.198856 
L 356.328794 186.006001 
L 356.430283 185.258996 
L 356.531771 185.904778 
L 356.63326 185.128253 
L 356.734748 185.238619 
L 356.836236 185.745728 
L 356.937725 184.808171 
L 357.24219 186.161636 
L 357.343678 185.091685 
L 357.445167 185.220004 
L 357.546655 185.62622 
L 357.648143 185.127482 
L 357.749632 185.514092 
L 357.85112 185.128694 
L 358.054097 185.267146 
L 358.155585 185.783948 
L 358.358562 185.006873 
L 358.663027 185.543611 
L 358.764515 184.838571 
L 358.866004 185.495367 
L 358.967492 185.455825 
L 359.068981 184.599886 
L 359.170469 185.534359 
L 359.271957 185.174404 
L 359.373446 185.754649 
L 359.474934 185.284219 
L 359.576422 185.352399 
L 359.779399 184.946624 
L 359.880888 185.488759 
L 359.982376 184.720826 
L 360.083864 185.507814 
L 360.185353 185.199627 
L 360.286841 185.677107 
L 360.489818 185.031215 
L 360.692795 185.267917 
L 360.794283 185.189274 
L 360.895771 184.776009 
L 360.99726 185.16405 
L 361.098748 186.010297 
L 361.200236 185.210532 
L 361.301725 185.230468 
L 361.504702 184.987818 
L 361.60619 185.305367 
L 361.707678 184.917325 
L 361.809167 185.158874 
L 361.910655 184.855754 
L 362.012143 185.818644 
L 362.113632 185.220996 
L 362.21512 185.429501 
L 362.316609 184.923934 
L 362.519585 185.199627 
L 362.722562 184.991122 
L 362.82405 185.007314 
L 362.925539 185.696272 
L 363.027027 185.330039 
L 363.128516 185.413419 
L 363.230004 184.87536 
L 363.534469 185.405379 
L 363.737446 184.93616 
L 363.838934 185.237297 
L 363.940423 184.969534 
L 364.041911 185.559142 
L 364.143399 184.706507 
L 364.346376 185.568284 
L 364.447864 185.233442 
L 364.549353 185.589432 
L 364.650841 184.853771 
L 364.75233 185.220996 
L 364.853818 184.79264 
L 364.955306 185.115256 
L 365.158283 185.123076 
L 365.259771 186.072419 
L 365.36126 185.022183 
L 365.462748 185.199517 
L 365.564237 184.975151 
L 365.767213 185.309883 
L 365.868702 184.467051 
L 365.97019 185.965247 
L 366.071678 184.944641 
L 366.173167 185.252277 
L 366.274655 184.937702 
L 366.477632 184.993325 
L 366.57912 185.962604 
L 366.782097 184.900363 
L 366.985074 185.321228 
L 367.086562 185.71698 
L 367.188051 184.477295 
L 367.391027 185.28532 
L 367.492516 185.642411 
L 367.695492 185.097633 
L 367.796981 185.149401 
L 367.898469 185.011609 
L 368.202934 185.215819 
L 368.304423 185.623246 
L 368.405911 185.152375 
L 368.507399 185.742313 
L 368.710376 184.706176 
L 368.811865 185.630736 
L 368.913353 185.273204 
L 369.014841 184.422002 
L 369.11633 186.190605 
L 369.319306 184.631388 
L 369.420795 186.076274 
L 369.522283 184.865447 
L 369.623772 185.571478 
L 369.826748 184.808942 
L 369.928237 185.916783 
L 370.029725 184.516396 
L 370.131213 185.539976 
L 370.232702 185.429611 
L 370.33419 184.516176 
L 370.435679 186.511458 
L 370.537167 184.62555 
L 370.638655 185.669397 
L 370.740144 185.358567 
L 370.841632 184.355364 
L 370.94312 186.470263 
L 371.146097 184.857075 
L 371.247586 185.986615 
L 371.349074 184.803875 
L 371.450562 186.000934 
L 371.653539 184.301833 
L 371.755027 186.120662 
L 371.856516 185.079899 
L 372.059493 185.506933 
L 372.160981 184.916664 
L 372.262469 186.039705 
L 372.363958 184.976803 
L 372.465446 185.138056 
L 372.566934 185.869311 
L 372.668423 184.302714 
L 372.769911 186.086407 
L 372.8714 185.673032 
L 372.972888 184.657823 
L 373.074376 186.228715 
L 373.175865 185.018659 
L 373.277353 185.935398 
L 373.48033 184.436541 
L 373.581818 186.451429 
L 373.581818 186.451429 
" style="fill:none;stroke:#081d58;stroke-dasharray:5.55,2.4;stroke-dashoffset:0;stroke-width:1.5;"/>
    <defs>
     <path d="M -0 4.242641 
L 4.242641 0 
L 0 -4.242641 
L -4.242641 -0 
z
" id="mf95240a9de" style="stroke:#081d58;stroke-linejoin:miter;"/>
    </defs>
    <g clip-path="url(#p051d876303)">
     <use style="fill:#081d58;stroke:#081d58;stroke-linejoin:miter;" x="69.218182" xlink:href="#mf95240a9de" y="63.05764"/>
     <use style="fill:#081d58;stroke:#081d58;stroke-linejoin:miter;" x="77.337252" xlink:href="#mf95240a9de" y="62.880747"/>
     <use style="fill:#081d58;stroke:#081d58;stroke-linejoin:miter;" x="85.456322" xlink:href="#mf95240a9de" y="59.582336"/>
     <use style="fill:#081d58;stroke:#081d58;stroke-linejoin:miter;" x="93.575392" xlink:href="#mf95240a9de" y="52.492173"/>
     <use style="fill:#081d58;stroke:#081d58;stroke-linejoin:miter;" x="101.694462" xlink:href="#mf95240a9de" y="46.310599"/>
     <use style="fill:#081d58;stroke:#081d58;stroke-linejoin:miter;" x="109.813532" xlink:href="#mf95240a9de" y="46.583429"/>
     <use style="fill:#081d58;stroke:#081d58;stroke-linejoin:miter;" x="117.932602" xlink:href="#mf95240a9de" y="50.512532"/>
     <use style="fill:#081d58;stroke:#081d58;stroke-linejoin:miter;" x="126.051672" xlink:href="#mf95240a9de" y="54.599693"/>
     <use style="fill:#081d58;stroke:#081d58;stroke-linejoin:miter;" x="134.170742" xlink:href="#mf95240a9de" y="79.441642"/>
     <use style="fill:#081d58;stroke:#081d58;stroke-linejoin:miter;" x="142.289812" xlink:href="#mf95240a9de" y="92.933669"/>
     <use style="fill:#081d58;stroke:#081d58;stroke-linejoin:miter;" x="150.408882" xlink:href="#mf95240a9de" y="88.719951"/>
     <use style="fill:#081d58;stroke:#081d58;stroke-linejoin:miter;" x="158.527952" xlink:href="#mf95240a9de" y="89.345797"/>
     <use style="fill:#081d58;stroke:#081d58;stroke-linejoin:miter;" x="166.647022" xlink:href="#mf95240a9de" y="103.789259"/>
     <use style="fill:#081d58;stroke:#081d58;stroke-linejoin:miter;" x="174.766092" xlink:href="#mf95240a9de" y="144.516032"/>
     <use style="fill:#081d58;stroke:#081d58;stroke-linejoin:miter;" x="182.885162" xlink:href="#mf95240a9de" y="169.868504"/>
     <use style="fill:#081d58;stroke:#081d58;stroke-linejoin:miter;" x="191.004232" xlink:href="#mf95240a9de" y="176.820104"/>
     <use style="fill:#081d58;stroke:#081d58;stroke-linejoin:miter;" x="199.123302" xlink:href="#mf95240a9de" y="179.892056"/>
     <use style="fill:#081d58;stroke:#081d58;stroke-linejoin:miter;" x="207.242372" xlink:href="#mf95240a9de" y="181.798891"/>
     <use style="fill:#081d58;stroke:#081d58;stroke-linejoin:miter;" x="215.361442" xlink:href="#mf95240a9de" y="182.412621"/>
     <use style="fill:#081d58;stroke:#081d58;stroke-linejoin:miter;" x="223.480512" xlink:href="#mf95240a9de" y="183.72346"/>
     <use style="fill:#081d58;stroke:#081d58;stroke-linejoin:miter;" x="231.599582" xlink:href="#mf95240a9de" y="183.464178"/>
     <use style="fill:#081d58;stroke:#081d58;stroke-linejoin:miter;" x="239.718652" xlink:href="#mf95240a9de" y="184.955435"/>
     <use style="fill:#081d58;stroke:#081d58;stroke-linejoin:miter;" x="247.837722" xlink:href="#mf95240a9de" y="185.88374"/>
     <use style="fill:#081d58;stroke:#081d58;stroke-linejoin:miter;" x="255.956792" xlink:href="#mf95240a9de" y="187.188301"/>
     <use style="fill:#081d58;stroke:#081d58;stroke-linejoin:miter;" x="264.075862" xlink:href="#mf95240a9de" y="188.429528"/>
     <use style="fill:#081d58;stroke:#081d58;stroke-linejoin:miter;" x="272.194932" xlink:href="#mf95240a9de" y="188.926614"/>
     <use style="fill:#081d58;stroke:#081d58;stroke-linejoin:miter;" x="280.314002" xlink:href="#mf95240a9de" y="190.117945"/>
     <use style="fill:#081d58;stroke:#081d58;stroke-linejoin:miter;" x="288.433072" xlink:href="#mf95240a9de" y="190.225337"/>
     <use style="fill:#081d58;stroke:#081d58;stroke-linejoin:miter;" x="296.552142" xlink:href="#mf95240a9de" y="191.091519"/>
     <use style="fill:#081d58;stroke:#081d58;stroke-linejoin:miter;" x="304.671212" xlink:href="#mf95240a9de" y="189.473815"/>
     <use style="fill:#081d58;stroke:#081d58;stroke-linejoin:miter;" x="312.790282" xlink:href="#mf95240a9de" y="188.905025"/>
     <use style="fill:#081d58;stroke:#081d58;stroke-linejoin:miter;" x="320.909352" xlink:href="#mf95240a9de" y="187.239078"/>
     <use style="fill:#081d58;stroke:#081d58;stroke-linejoin:miter;" x="329.028422" xlink:href="#mf95240a9de" y="187.671398"/>
     <use style="fill:#081d58;stroke:#081d58;stroke-linejoin:miter;" x="337.147492" xlink:href="#mf95240a9de" y="186.639006"/>
     <use style="fill:#081d58;stroke:#081d58;stroke-linejoin:miter;" x="345.266562" xlink:href="#mf95240a9de" y="185.952801"/>
     <use style="fill:#081d58;stroke:#081d58;stroke-linejoin:miter;" x="353.385632" xlink:href="#mf95240a9de" y="185.036392"/>
     <use style="fill:#081d58;stroke:#081d58;stroke-linejoin:miter;" x="361.504702" xlink:href="#mf95240a9de" y="184.987818"/>
     <use style="fill:#081d58;stroke:#081d58;stroke-linejoin:miter;" x="369.623772" xlink:href="#mf95240a9de" y="185.571478"/>
    </g>
   </g>
   <g id="patch_3">
    <path d="M 54 252 
L 54 34.56 
" style="fill:none;stroke:#000000;stroke-linecap:square;stroke-linejoin:miter;stroke-width:0.8;"/>
   </g>
   <g id="patch_4">
    <path d="M 388.8 252 
L 388.8 34.56 
" style="fill:none;stroke:#000000;stroke-linecap:square;stroke-linejoin:miter;stroke-width:0.8;"/>
   </g>
   <g id="patch_5">
    <path d="M 54 252 
L 388.8 252 
" style="fill:none;stroke:#000000;stroke-linecap:square;stroke-linejoin:miter;stroke-width:0.8;"/>
   </g>
   <g id="patch_6">
    <path d="M 54 34.56 
L 388.8 34.56 
" style="fill:none;stroke:#000000;stroke-linecap:square;stroke-linejoin:miter;stroke-width:0.8;"/>
   </g>
   <g id="legend_1">
    <g id="patch_7">
     <path d="M 280.085938 71.91625 
L 381.8 71.91625 
Q 383.8 71.91625 383.8 69.91625 
L 383.8 41.56 
Q 383.8 39.56 381.8 39.56 
L 280.085938 39.56 
Q 278.085938 39.56 278.085938 41.56 
L 278.085938 69.91625 
Q 278.085938 71.91625 280.085938 71.91625 
z
" style="fill:#ffffff;opacity:0.8;stroke:#cccccc;stroke-linejoin:miter;"/>
    </g>
    <g id="line2d_18">
     <path d="M 282.085938 47.658437 
L 302.085938 47.658437 
" style="fill:none;stroke:#c6e9b4;stroke-dasharray:5.55,2.4;stroke-dashoffset:0;stroke-width:1.5;"/>
    </g>
    <g id="line2d_19">
     <g>
      <use style="fill:#c6e9b4;stroke:#c6e9b4;" x="292.085938" xlink:href="#mfa6c930c79" y="47.658437"/>
     </g>
    </g>
    <g id="text_18">
     <text style="font-family:DejaVu Sans;font-size:10px;font-style:normal;font-weight:normal;text-anchor:start;" transform="rotate(-0, 310.085938, 51.158437)" x="310.085938" y="51.158437">original</text>
    </g>
    <g id="line2d_20">
     <path d="M 282.085938 62.336562 
L 302.085938 62.336562 
" style="fill:none;stroke:#081d58;stroke-dasharray:5.55,2.4;stroke-dashoffset:0;stroke-width:1.5;"/>
    </g>
    <g id="line2d_21">
     <g>
      <use style="fill:#081d58;stroke:#081d58;stroke-linejoin:miter;" x="292.085938" xlink:href="#mf95240a9de" y="62.336562"/>
     </g>
    </g>
    <g id="text_19">
     <text style="font-family:DejaVu Sans;font-size:10px;font-style:normal;font-weight:normal;text-anchor:start;" transform="rotate(-0, 310.085938, 65.836562)" x="310.085938" y="65.836562">reconstructed</text>
    </g>
   </g>
  </g>
  <g id="text_20">
   <text style="font-family:DejaVu Sans;font-size:12px;font-style:normal;font-weight:normal;text-anchor:middle;" transform="rotate(-0, 216, 14.878125)" x="216" y="14.878125">Reconstruction of the weight curve</text>
  </g>
 </g>
 <defs>
  <clipPath id="p051d876303">
   <rect height="217.44" width="334.8" x="54" y="34.56"/>
  </clipPath>
 </defs>
</svg>
