<?xml version="1.0" encoding="utf-8" standalone="no"?>
<!DOCTYPE svg PUBLIC "-//W3C//DTD SVG 1.1//EN"
  "http://www.w3.org/Graphics/SVG/1.1/DTD/svg11.dtd">
<!-- Created with matplotlib (https://matplotlib.org/) -->
<svg height="288pt" version="1.1" viewBox="0 0 432 288" width="432pt" xmlns="http://www.w3.org/2000/svg" xmlns:xlink="http://www.w3.org/1999/xlink">
 <defs>
  <style type="text/css">
*{stroke-linecap:butt;stroke-linejoin:round;}
  </style>
 </defs>
 <g id="figure_1">
  <g id="patch_1">
   <path d="M 0 288 
L 432 288 
L 432 0 
L 0 0 
z
" style="fill:#ffffff;"/>
  </g>
  <g id="axes_1">
   <g id="patch_2">
    <path d="M 54 252 
L 388.8 252 
L 388.8 34.56 
L 54 34.56 
z
" style="fill:#ffffff;"/>
   </g>
   <g id="matplotlib.axis_1">
    <g id="xtick_1">
     <g id="line2d_1">
      <defs>
       <path d="M 0 0 
L 0 3.5 
" id="mf1b9ea06c7" style="stroke:#000000;stroke-width:0.8;"/>
      </defs>
      <g>
       <use style="stroke:#000000;stroke-width:0.8;" x="69.218182" xlink:href="#mf1b9ea06c7" y="252"/>
      </g>
     </g>
     <g id="text_1">
      <text style="font-family:DejaVu Sans;font-size:10px;font-style:normal;font-weight:normal;text-anchor:middle;" transform="rotate(-0, 69.218182, 266.598437)" x="69.218182" y="266.598437">0</text>
     </g>
    </g>
    <g id="xtick_2">
     <g id="line2d_2">
      <g>
       <use style="stroke:#000000;stroke-width:0.8;" x="119.962369" xlink:href="#mf1b9ea06c7" y="252"/>
      </g>
     </g>
     <g id="text_2">
      <text style="font-family:DejaVu Sans;font-size:10px;font-style:normal;font-weight:normal;text-anchor:middle;" transform="rotate(-0, 119.962369, 266.598437)" x="119.962369" y="266.598437">500</text>
     </g>
    </g>
    <g id="xtick_3">
     <g id="line2d_3">
      <g>
       <use style="stroke:#000000;stroke-width:0.8;" x="170.706557" xlink:href="#mf1b9ea06c7" y="252"/>
      </g>
     </g>
     <g id="text_3">
      <text style="font-family:DejaVu Sans;font-size:10px;font-style:normal;font-weight:normal;text-anchor:middle;" transform="rotate(-0, 170.706557, 266.598437)" x="170.706557" y="266.598437">1000</text>
     </g>
    </g>
    <g id="xtick_4">
     <g id="line2d_4">
      <g>
       <use style="stroke:#000000;stroke-width:0.8;" x="221.450744" xlink:href="#mf1b9ea06c7" y="252"/>
      </g>
     </g>
     <g id="text_4">
      <text style="font-family:DejaVu Sans;font-size:10px;font-style:normal;font-weight:normal;text-anchor:middle;" transform="rotate(-0, 221.450744, 266.598437)" x="221.450744" y="266.598437">1500</text>
     </g>
    </g>
    <g id="xtick_5">
     <g id="line2d_5">
      <g>
       <use style="stroke:#000000;stroke-width:0.8;" x="272.194932" xlink:href="#mf1b9ea06c7" y="252"/>
      </g>
     </g>
     <g id="text_5">
      <text style="font-family:DejaVu Sans;font-size:10px;font-style:normal;font-weight:normal;text-anchor:middle;" transform="rotate(-0, 272.194932, 266.598437)" x="272.194932" y="266.598437">2000</text>
     </g>
    </g>
    <g id="xtick_6">
     <g id="line2d_6">
      <g>
       <use style="stroke:#000000;stroke-width:0.8;" x="322.939119" xlink:href="#mf1b9ea06c7" y="252"/>
      </g>
     </g>
     <g id="text_6">
      <text style="font-family:DejaVu Sans;font-size:10px;font-style:normal;font-weight:normal;text-anchor:middle;" transform="rotate(-0, 322.939119, 266.598437)" x="322.939119" y="266.598437">2500</text>
     </g>
    </g>
    <g id="xtick_7">
     <g id="line2d_7">
      <g>
       <use style="stroke:#000000;stroke-width:0.8;" x="373.683307" xlink:href="#mf1b9ea06c7" y="252"/>
      </g>
     </g>
     <g id="text_7">
      <text style="font-family:DejaVu Sans;font-size:10px;font-style:normal;font-weight:normal;text-anchor:middle;" transform="rotate(-0, 373.683307, 266.598437)" x="373.683307" y="266.598437">3000</text>
     </g>
    </g>
    <g id="text_8">
     <text style="font-family:DejaVu Sans;font-size:10px;font-style:normal;font-weight:normal;text-anchor:middle;" transform="rotate(-0, 221.4, 280.276563)" x="221.4" y="280.276563">Time</text>
    </g>
   </g>
   <g id="matplotlib.axis_2">
    <g id="ytick_1">
     <g id="line2d_8">
      <defs>
       <path d="M 0 0 
L -3.5 0 
" id="me79a005486" style="stroke:#000000;stroke-width:0.8;"/>
      </defs>
      <g>
       <use style="stroke:#000000;stroke-width:0.8;" x="54" xlink:href="#me79a005486" y="208.868413"/>
      </g>
     </g>
     <g id="text_9">
      <text style="font-family:DejaVu Sans;font-size:10px;font-style:normal;font-weight:normal;text-anchor:end;" transform="rotate(-0, 47, 212.667632)" x="47" y="212.667632">−6</text>
     </g>
    </g>
    <g id="ytick_2">
     <g id="line2d_9">
      <g>
       <use style="stroke:#000000;stroke-width:0.8;" x="54" xlink:href="#me79a005486" y="164.936596"/>
      </g>
     </g>
     <g id="text_10">
      <text style="font-family:DejaVu Sans;font-size:10px;font-style:normal;font-weight:normal;text-anchor:end;" transform="rotate(-0, 47, 168.735814)" x="47" y="168.735814">−4</text>
     </g>
    </g>
    <g id="ytick_3">
     <g id="line2d_10">
      <g>
       <use style="stroke:#000000;stroke-width:0.8;" x="54" xlink:href="#me79a005486" y="121.004778"/>
      </g>
     </g>
     <g id="text_11">
      <text style="font-family:DejaVu Sans;font-size:10px;font-style:normal;font-weight:normal;text-anchor:end;" transform="rotate(-0, 47, 124.803997)" x="47" y="124.803997">−2</text>
     </g>
    </g>
    <g id="ytick_4">
     <g id="line2d_11">
      <g>
       <use style="stroke:#000000;stroke-width:0.8;" x="54" xlink:href="#me79a005486" y="77.072961"/>
      </g>
     </g>
     <g id="text_12">
      <text style="font-family:DejaVu Sans;font-size:10px;font-style:normal;font-weight:normal;text-anchor:end;" transform="rotate(-0, 47, 80.87218)" x="47" y="80.87218">0</text>
     </g>
    </g>
    <g id="text_13">
     <text style="font-family:DejaVu Sans;font-size:10px;font-style:normal;font-weight:normal;text-anchor:middle;" transform="rotate(-90, 26.178125, 143.28)" x="26.178125" y="143.28">temperature (°C)</text>
    </g>
   </g>
   <g id="line2d_12">
    <path clip-path="url(#p40e10ac93f)" d="M 69.218182 72.815856 
L 71.958368 71.799878 
L 72.973252 71.6342 
L 73.886647 71.727388 
L 74.597066 72.031043 
L 75.307484 72.579035 
L 76.017903 73.389346 
L 76.82981 74.672597 
L 77.743205 76.588623 
L 78.758089 79.29395 
L 79.874461 82.938529 
L 81.19381 88.071164 
L 82.716136 94.921334 
L 84.745903 105.208435 
L 88.297996 124.621861 
L 91.647113 142.429842 
L 93.778369 152.672897 
L 95.605159 160.491662 
L 97.228973 166.510014 
L 98.751299 171.325754 
L 100.070648 174.830392 
L 101.288508 177.472056 
L 102.40488 179.407956 
L 103.521253 180.892698 
L 104.637625 182.005666 
L 105.652508 182.686258 
L 106.565904 183.041644 
L 107.580788 183.179459 
L 108.595671 183.0816 
L 109.712043 182.731574 
L 111.234369 181.974013 
L 112.553718 181.067063 
L 114.481997 179.445913 
L 117.323672 176.72627 
L 123.209997 171.146973 
L 125.747207 169.134654 
L 128.385904 167.314845 
L 130.314184 166.223754 
L 132.445439 165.261274 
L 134.678184 164.521374 
L 136.707951 164.098552 
L 139.245161 163.79327 
L 140.970463 163.793622 
L 142.594277 164.036367 
L 144.015114 164.475136 
L 145.334463 165.098419 
L 146.7553 166.031267 
L 147.973161 167.042094 
L 148.988044 168.178918 
L 150.002928 169.644703 
L 151.1193 171.668949 
L 152.743114 175.192544 
L 153.960975 178.009474 
L 155.686277 182.700536 
L 161.065161 198.733299 
L 162.587487 203.764678 
L 164.109812 209.646753 
L 165.53065 216.022314 
L 167.560417 226.198175 
L 169.488696 235.512709 
L 170.402092 239.015107 
L 171.11251 240.960518 
L 171.619952 241.796145 
L 172.025906 242.101383 
L 172.330371 242.061625 
L 172.634836 241.759286 
L 173.040789 240.85943 
L 173.548231 238.953668 
L 174.157161 235.53999 
L 174.86758 230.104285 
L 175.780975 221.167784 
L 177.100324 205.753911 
L 180.652417 163.25471 
L 182.276231 146.937862 
L 183.697069 134.771341 
L 185.117906 124.493558 
L 186.437255 116.478725 
L 187.756604 109.774378 
L 189.075953 104.227503 
L 190.293813 100.014552 
L 191.511674 96.55737 
L 192.729534 93.745009 
L 193.947395 91.477615 
L 195.165255 89.64744 
L 196.484604 88.05398 
L 198.00693 86.578418 
L 199.935209 85.051493 
L 202.776883 83.11667 
L 212.621256 76.542976 
L 232.31 63.041073 
L 236.166559 60.370521 
L 240.733535 57.271604 
L 244.285629 55.150082 
L 248.243675 53.048364 
L 252.30321 51.187522 
L 255.652327 49.850962 
L 259.610373 48.512513 
L 263.162466 47.54597 
L 269.15028 46.242403 
L 273.920234 45.355771 
L 277.776792 44.85374 
L 281.531862 44.55977 
L 286.098839 44.443636 
L 290.868793 44.553598 
L 295.638746 44.837771 
L 299.089351 45.228061 
L 303.960793 46.046994 
L 314.820049 48.213909 
L 331.159677 51.548114 
L 334.305817 52.544422 
L 337.959399 53.944397 
L 342.120422 55.794203 
L 354.299027 61.455374 
L 357.648143 62.606405 
L 360.895771 63.504887 
L 364.853818 64.35713 
L 370.841632 65.382749 
L 373.581818 65.802851 
L 373.581818 65.802851 
" style="fill:none;stroke:#c6e9b4;stroke-dasharray:5.55,2.4;stroke-dashoffset:0;stroke-width:1.5;"/>
    <defs>
     <path d="M 0 3 
C 0.795609 3 1.55874 2.683901 2.12132 2.12132 
C 2.683901 1.55874 3 0.795609 3 0 
C 3 -0.795609 2.683901 -1.55874 2.12132 -2.12132 
C 1.55874 -2.683901 0.795609 -3 0 -3 
C -0.795609 -3 -1.55874 -2.683901 -2.12132 -2.12132 
C -2.683901 -1.55874 -3 -0.795609 -3 0 
C -3 0.795609 -2.683901 1.55874 -2.12132 2.12132 
C -1.55874 2.683901 -0.795609 3 0 3 
z
" id="md0e9b09efa" style="stroke:#c6e9b4;"/>
    </defs>
    <g clip-path="url(#p40e10ac93f)">
     <use style="fill:#c6e9b4;stroke:#c6e9b4;" x="69.218182" xlink:href="#md0e9b09efa" y="72.815856"/>
     <use style="fill:#c6e9b4;stroke:#c6e9b4;" x="77.337252" xlink:href="#md0e9b09efa" y="75.677311"/>
     <use style="fill:#c6e9b4;stroke:#c6e9b4;" x="85.456322" xlink:href="#md0e9b09efa" y="109.012754"/>
     <use style="fill:#c6e9b4;stroke:#c6e9b4;" x="93.575392" xlink:href="#md0e9b09efa" y="151.739038"/>
     <use style="fill:#c6e9b4;stroke:#c6e9b4;" x="101.694462" xlink:href="#md0e9b09efa" y="178.229265"/>
     <use style="fill:#c6e9b4;stroke:#c6e9b4;" x="109.813532" xlink:href="#md0e9b09efa" y="182.688477"/>
     <use style="fill:#c6e9b4;stroke:#c6e9b4;" x="117.932602" xlink:href="#md0e9b09efa" y="176.132487"/>
     <use style="fill:#c6e9b4;stroke:#c6e9b4;" x="126.051672" xlink:href="#md0e9b09efa" y="168.909262"/>
     <use style="fill:#c6e9b4;stroke:#c6e9b4;" x="134.170742" xlink:href="#md0e9b09efa" y="164.664021"/>
     <use style="fill:#c6e9b4;stroke:#c6e9b4;" x="142.289812" xlink:href="#md0e9b09efa" y="163.970667"/>
     <use style="fill:#c6e9b4;stroke:#c6e9b4;" x="150.408882" xlink:href="#md0e9b09efa" y="170.329797"/>
     <use style="fill:#c6e9b4;stroke:#c6e9b4;" x="158.527952" xlink:href="#md0e9b09efa" y="191.163891"/>
     <use style="fill:#c6e9b4;stroke:#c6e9b4;" x="166.647022" xlink:href="#md0e9b09efa" y="221.533143"/>
     <use style="fill:#c6e9b4;stroke:#c6e9b4;" x="174.766092" xlink:href="#md0e9b09efa" y="230.969632"/>
     <use style="fill:#c6e9b4;stroke:#c6e9b4;" x="182.885162" xlink:href="#md0e9b09efa" y="141.485089"/>
     <use style="fill:#c6e9b4;stroke:#c6e9b4;" x="191.004232" xlink:href="#md0e9b09efa" y="97.912038"/>
     <use style="fill:#c6e9b4;stroke:#c6e9b4;" x="199.123302" xlink:href="#md0e9b09efa" y="85.658521"/>
     <use style="fill:#c6e9b4;stroke:#c6e9b4;" x="207.242372" xlink:href="#md0e9b09efa" y="80.203901"/>
     <use style="fill:#c6e9b4;stroke:#c6e9b4;" x="215.361442" xlink:href="#md0e9b09efa" y="74.625392"/>
     <use style="fill:#c6e9b4;stroke:#c6e9b4;" x="223.480512" xlink:href="#md0e9b09efa" y="68.944314"/>
     <use style="fill:#c6e9b4;stroke:#c6e9b4;" x="231.599582" xlink:href="#md0e9b09efa" y="63.506803"/>
     <use style="fill:#c6e9b4;stroke:#c6e9b4;" x="239.718652" xlink:href="#md0e9b09efa" y="57.926395"/>
     <use style="fill:#c6e9b4;stroke:#c6e9b4;" x="247.837722" xlink:href="#md0e9b09efa" y="53.250867"/>
     <use style="fill:#c6e9b4;stroke:#c6e9b4;" x="255.956792" xlink:href="#md0e9b09efa" y="49.739309"/>
     <use style="fill:#c6e9b4;stroke:#c6e9b4;" x="264.075862" xlink:href="#md0e9b09efa" y="47.333669"/>
     <use style="fill:#c6e9b4;stroke:#c6e9b4;" x="272.194932" xlink:href="#md0e9b09efa" y="45.646863"/>
     <use style="fill:#c6e9b4;stroke:#c6e9b4;" x="280.314002" xlink:href="#md0e9b09efa" y="44.634718"/>
     <use style="fill:#c6e9b4;stroke:#c6e9b4;" x="288.433072" xlink:href="#md0e9b09efa" y="44.465602"/>
     <use style="fill:#c6e9b4;stroke:#c6e9b4;" x="296.552142" xlink:href="#md0e9b09efa" y="44.921373"/>
     <use style="fill:#c6e9b4;stroke:#c6e9b4;" x="304.671212" xlink:href="#md0e9b09efa" y="46.181887"/>
     <use style="fill:#c6e9b4;stroke:#c6e9b4;" x="312.790282" xlink:href="#md0e9b09efa" y="47.813492"/>
     <use style="fill:#c6e9b4;stroke:#c6e9b4;" x="320.909352" xlink:href="#md0e9b09efa" y="49.371117"/>
     <use style="fill:#c6e9b4;stroke:#c6e9b4;" x="329.028422" xlink:href="#md0e9b09efa" y="50.995364"/>
     <use style="fill:#c6e9b4;stroke:#c6e9b4;" x="337.147492" xlink:href="#md0e9b09efa" y="53.614315"/>
     <use style="fill:#c6e9b4;stroke:#c6e9b4;" x="345.266562" xlink:href="#md0e9b09efa" y="57.323729"/>
     <use style="fill:#c6e9b4;stroke:#c6e9b4;" x="353.385632" xlink:href="#md0e9b09efa" y="61.102379"/>
     <use style="fill:#c6e9b4;stroke:#c6e9b4;" x="361.504702" xlink:href="#md0e9b09efa" y="63.651886"/>
     <use style="fill:#c6e9b4;stroke:#c6e9b4;" x="369.623772" xlink:href="#md0e9b09efa" y="65.181033"/>
    </g>
   </g>
   <g id="line2d_13">
    <path clip-path="url(#p40e10ac93f)" d="M 69.218182 98.401242 
L 69.31967 98.501899 
L 69.421159 97.95741 
L 69.522647 98.341623 
L 69.624135 98.216206 
L 69.725624 98.450638 
L 69.827112 97.789991 
L 69.9286 98.405243 
L 70.131577 97.953702 
L 70.233066 98.565184 
L 70.334554 97.504444 
L 70.436042 98.068981 
L 70.537531 98.010661 
L 70.639019 97.72172 
L 70.740507 98.237573 
L 70.841996 97.578099 
L 70.943484 97.861634 
L 71.044973 97.793992 
L 71.146461 97.294836 
L 71.247949 98.417142 
L 71.349438 97.199646 
L 71.552414 97.893958 
L 71.653903 97.290981 
L 71.755391 98.048766 
L 71.85688 97.117927 
L 71.958368 97.968869 
L 72.059856 97.732907 
L 72.161345 97.196316 
L 72.262833 97.915555 
L 72.364321 96.992342 
L 72.46581 98.056475 
L 72.567298 98.007623 
L 72.668787 97.215148 
L 72.770275 97.988476 
L 72.871763 97.296763 
L 73.07474 98.222008 
L 73.176228 97.342598 
L 73.277717 97.971843 
L 73.480694 97.789006 
L 73.582182 98.265581 
L 73.68367 97.844205 
L 73.785159 98.523978 
L 73.886647 97.832328 
L 74.089624 98.913261 
L 74.191112 97.944757 
L 74.394089 98.825886 
L 74.495577 98.58211 
L 74.597066 99.140152 
L 74.698554 98.56466 
L 74.800042 99.550258 
L 75.003019 99.330552 
L 75.104508 99.998279 
L 75.205996 99.275039 
L 75.408973 100.227559 
L 75.510461 100.035002 
L 75.611949 101.061679 
L 75.713438 100.050336 
L 75.916415 101.078124 
L 76.017903 100.966783 
L 76.119391 102.305318 
L 76.22088 101.158062 
L 76.423856 102.346964 
L 76.525345 102.230826 
L 76.626833 103.16133 
L 76.728322 102.489999 
L 76.931298 103.570387 
L 77.032787 103.305999 
L 77.134275 104.560384 
L 77.235763 103.905959 
L 77.43874 105.316912 
L 77.540229 105.151169 
L 77.641717 105.91926 
L 77.743205 105.562007 
L 77.946182 107.003315 
L 78.04767 106.565704 
L 78.149159 107.882474 
L 78.250647 107.372382 
L 78.453624 109.067479 
L 78.555112 108.843395 
L 78.656601 109.701228 
L 78.758089 109.509384 
L 78.961066 111.167779 
L 79.062554 110.629281 
L 79.164043 111.953843 
L 79.265531 111.825325 
L 79.367019 112.142902 
L 79.468508 113.109625 
L 79.569996 112.731466 
L 79.671484 114.074233 
L 79.772973 113.796123 
L 79.97595 115.38786 
L 80.077438 114.998577 
L 80.381903 116.944174 
L 80.483391 117.50584 
L 80.58488 117.240257 
L 80.787857 118.908624 
L 80.889345 119.250563 
L 80.990833 120.519676 
L 81.092322 119.810763 
L 81.295298 121.719237 
L 81.396787 121.705306 
L 81.498275 122.811964 
L 81.599764 122.246359 
L 81.80274 123.446719 
L 81.904229 123.767983 
L 82.005717 125.006531 
L 82.107205 124.328539 
L 82.310182 125.728871 
L 82.411671 125.685571 
L 82.513159 126.843951 
L 82.614647 126.44256 
L 82.817624 127.788804 
L 82.919112 127.781619 
L 83.020601 129.149314 
L 83.122089 128.557251 
L 83.325066 130.234269 
L 83.426554 130.113732 
L 83.731019 132.085975 
L 83.832508 132.441447 
L 83.933996 132.189544 
L 84.035485 133.501265 
L 84.136973 133.34122 
L 84.33995 135.028649 
L 84.441438 134.839779 
L 84.644415 135.851499 
L 84.847392 137.525417 
L 84.94888 137.181613 
L 85.151857 138.306559 
L 85.862275 142.444146 
L 85.963764 142.153174 
L 86.16674 143.752096 
L 86.268229 143.939395 
L 86.369717 144.945124 
L 86.471206 144.772908 
L 86.674182 146.426883 
L 86.775671 146.365986 
L 86.877159 147.753791 
L 86.978647 147.262721 
L 87.181624 149.002395 
L 87.283113 149.284988 
L 87.384601 150.281667 
L 87.486089 149.927264 
L 87.689066 151.669054 
L 87.790554 151.825203 
L 87.892043 152.888938 
L 87.993531 152.525044 
L 88.196508 154.454825 
L 88.297996 154.357813 
L 88.399485 155.470106 
L 88.500973 155.399343 
L 88.70395 156.703711 
L 88.805438 156.781073 
L 88.906927 158.112234 
L 89.008415 157.706654 
L 89.211392 159.200646 
L 89.31288 159.085221 
L 89.414368 160.298276 
L 89.515857 159.815857 
L 89.718834 160.987496 
L 89.820322 160.592725 
L 89.92181 161.318731 
L 90.023299 160.758112 
L 90.226275 161.411532 
L 90.327764 161.210617 
L 90.429252 161.676989 
L 90.530741 161.38675 
L 90.733717 162.174219 
L 90.835206 161.570802 
L 90.936694 162.189909 
L 91.038182 162.140283 
L 91.139671 162.150338 
L 91.241159 162.530403 
L 91.342648 162.181865 
L 91.444136 162.609295 
L 91.545624 162.537966 
L 91.748601 163.253225 
L 91.850089 162.609672 
L 92.053066 163.29288 
L 92.154555 163.299835 
L 92.256043 163.686311 
L 92.357531 163.020803 
L 92.45902 163.790173 
L 92.560508 163.720184 
L 92.661996 163.63725 
L 92.763485 164.261531 
L 92.864973 163.641649 
L 93.06795 164.419083 
L 93.169438 164.054687 
L 93.270927 164.828665 
L 93.372415 164.108126 
L 93.473903 164.87385 
L 93.67688 164.621172 
L 93.778369 165.280127 
L 93.879857 164.621695 
L 94.082834 165.331597 
L 94.184322 165.05797 
L 94.28581 165.743651 
L 94.387299 165.204923 
L 94.488787 165.893075 
L 94.590276 165.808779 
L 94.691764 165.513073 
L 94.793252 166.303474 
L 94.894741 165.523714 
L 95.097717 166.267924 
L 95.199206 166.149168 
L 95.300694 166.500241 
L 95.402183 166.25104 
L 95.503671 166.868953 
L 95.605159 166.789161 
L 95.706648 166.485724 
L 95.808136 167.186048 
L 95.909624 166.525777 
L 96.112601 167.406571 
L 96.21409 166.912295 
L 96.315578 167.497235 
L 96.417066 167.301138 
L 96.620043 167.706739 
L 96.721531 167.226583 
L 96.82302 167.693709 
L 97.025997 167.33432 
L 97.127485 167.657301 
L 97.228973 167.237853 
L 97.330462 167.670896 
L 97.43195 167.316828 
L 97.634927 167.67827 
L 97.736415 167.162145 
L 97.837904 167.442183 
L 98.04088 167.240911 
L 98.142369 167.339745 
L 98.243857 166.83045 
L 98.345345 167.171907 
L 98.548322 166.782939 
L 98.649811 167.039472 
L 98.751299 166.532062 
L 98.852787 166.697135 
L 99.055764 166.415799 
L 99.157252 166.675453 
L 99.258741 166.129079 
L 99.360229 166.437019 
L 99.664694 165.956025 
L 99.766183 166.035754 
L 99.969159 165.925482 
L 100.172136 165.766862 
L 100.273625 165.598877 
L 100.375113 165.75976 
L 100.679578 165.256979 
L 100.781066 165.441283 
L 100.882555 165.277153 
L 100.984043 165.368739 
L 101.288508 165.135228 
L 101.389997 165.226039 
L 101.694462 164.860716 
L 102.100415 164.846953 
L 102.201904 164.671322 
L 102.40488 164.677187 
L 102.506369 164.652531 
L 102.607857 164.372075 
L 102.810834 164.48352 
L 103.013811 164.431966 
L 103.216787 164.302338 
L 103.318276 164.353347 
L 103.724229 163.95535 
L 104.028694 164.049345 
L 104.231671 163.763966 
L 104.33316 163.984405 
L 104.434648 163.716958 
L 104.536136 163.833452 
L 104.637625 163.458267 
L 104.739113 163.675543 
L 104.840601 163.543715 
L 104.94209 163.628912 
L 105.246555 163.463546 
L 105.348043 163.493 
L 105.55102 163.311126 
L 105.652508 163.081575 
L 105.753997 163.29552 
L 105.855485 163.149468 
L 105.956974 163.273964 
L 106.15995 163.098522 
L 106.362927 163.130866 
L 106.667392 162.805957 
L 106.870369 162.85085 
L 107.276322 162.748119 
L 107.479299 162.684394 
L 107.580788 162.319516 
L 107.682276 162.561113 
L 107.986741 162.406682 
L 108.088229 162.428741 
L 108.189718 162.31583 
L 108.291206 162.456309 
L 108.798648 162.113657 
L 109.001625 162.124676 
L 109.103113 162.097066 
L 109.204602 161.923174 
L 109.30609 162.177068 
L 109.509067 161.91048 
L 109.610555 161.726805 
L 109.813532 161.846901 
L 110.016509 161.824717 
L 110.117997 161.723243 
L 110.219485 161.785628 
L 110.320974 161.66551 
L 110.422462 161.728648 
L 110.625439 161.464427 
L 110.828416 161.651537 
L 111.132881 161.440776 
L 111.234369 161.22482 
L 111.437346 161.358952 
L 111.843299 161.170312 
L 111.944788 161.375166 
L 112.249253 160.913507 
L 112.350741 161.05694 
L 112.45223 161.014813 
L 112.553718 161.114129 
L 112.756695 161.03618 
L 112.959671 161.083335 
L 113.162648 160.922305 
L 113.264137 160.819679 
L 113.467113 160.979892 
L 113.771578 160.889689 
L 113.974555 161.04877 
L 114.27902 160.828457 
L 114.481997 160.982553 
L 114.786462 160.870102 
L 114.887951 161.081177 
L 114.989439 160.904625 
L 115.090927 160.954 
L 115.192416 160.64606 
L 115.293904 160.896455 
L 115.496881 160.852568 
L 115.699858 160.933471 
L 115.801346 160.76115 
L 115.902834 161.070955 
L 116.207299 160.599994 
L 116.410276 160.817333 
L 116.714741 160.943086 
L 116.81623 160.637722 
L 116.917718 160.999186 
L 117.222183 160.523847 
L 117.323672 160.790456 
L 117.42516 160.741668 
L 117.526648 160.880136 
L 118.03409 160.415607 
L 118.135579 160.417534 
L 118.338555 160.216619 
L 118.64302 159.998547 
L 119.048974 159.698148 
L 119.251951 159.486528 
L 120.774276 158.389129 
L 120.875765 158.257511 
L 120.977253 158.450654 
L 121.078741 157.959731 
L 121.281718 158.107165 
L 121.383207 157.873612 
L 121.484695 157.969492 
L 121.586183 157.629208 
L 121.687672 157.818371 
L 121.890648 157.419578 
L 121.992137 157.744864 
L 122.093625 157.201653 
L 122.296602 157.336015 
L 122.39809 157.08983 
L 122.499579 157.239548 
L 122.601067 156.850433 
L 122.702555 157.076005 
L 122.905532 156.680437 
L 123.007021 156.949016 
L 123.108509 156.473657 
L 123.311486 156.621049 
L 123.412974 156.237527 
L 123.514462 156.44856 
L 123.615951 156.104568 
L 123.717439 156.261282 
L 123.818928 156.135069 
L 123.920416 155.829621 
L 124.021904 156.051171 
L 124.123393 155.644145 
L 124.326369 155.735123 
L 124.427858 155.439165 
L 124.529346 155.514035 
L 124.630835 155.243362 
L 124.732323 155.409817 
L 124.9353 154.978596 
L 125.036788 155.25128 
L 125.138276 154.717265 
L 125.239765 154.913153 
L 125.341253 154.858478 
L 125.442742 154.560111 
L 125.54423 154.722063 
L 125.645718 154.392902 
L 125.747207 154.562834 
L 125.950183 154.122857 
L 126.051672 154.397468 
L 126.15316 153.911551 
L 126.356137 154.041745 
L 126.457625 153.726766 
L 126.559114 153.840829 
L 126.660602 153.631975 
L 126.863579 153.65506 
L 126.965067 153.270658 
L 127.066556 153.517492 
L 127.168044 153.121925 
L 127.371021 153.264792 
L 127.472509 152.889378 
L 127.573997 153.029794 
L 128.385904 151.437638 
L 128.588881 150.956874 
L 128.791858 150.637768 
L 128.893346 150.649227 
L 129.096323 150.067617 
L 129.400788 149.630866 
L 129.603765 149.214288 
L 129.705253 149.181985 
L 130.720137 147.537249 
L 130.923114 147.262951 
L 131.126091 146.859549 
L 131.227579 146.857245 
L 131.735021 146.086389 
L 131.937998 145.828829 
L 132.140974 145.426265 
L 132.242463 145.405987 
L 132.648416 144.762853 
L 132.851393 144.637833 
L 133.155858 144.066195 
L 133.257346 144.122148 
L 133.6633 143.505891 
L 133.866277 143.363044 
L 133.967765 143.287043 
L 134.170742 142.94833 
L 135.084137 141.968849 
L 135.287114 141.870979 
L 135.693067 141.435735 
L 135.794556 141.549108 
L 136.200509 141.051334 
L 137.012416 140.557037 
L 137.113905 140.308946 
L 137.316881 140.355053 
L 137.722835 140.024154 
L 137.824323 140.253349 
L 138.128788 139.811151 
L 138.331765 139.888744 
L 138.63623 139.843558 
L 138.737719 139.618594 
L 138.839207 139.969981 
L 139.143672 139.494706 
L 139.448137 139.720591 
L 139.549626 139.578289 
L 139.651114 139.657663 
L 139.752602 139.569617 
L 139.854091 139.671698 
L 139.955579 139.548731 
L 140.057068 139.603951 
L 140.158556 139.402659 
L 140.361533 139.576467 
L 140.564509 139.620856 
L 140.767486 139.603407 
L 140.970463 139.697842 
L 141.17344 139.584239 
L 141.477905 139.833838 
L 141.680882 139.767767 
L 141.883858 140.042274 
L 141.985347 139.864318 
L 142.086835 139.921276 
L 142.188323 139.83388 
L 142.3913 140.113498 
L 142.594277 140.105475 
L 142.695765 140.362553 
L 142.797254 140.239439 
L 143.00023 140.324364 
L 144.827021 141.535366 
L 144.92851 141.694615 
L 145.029998 141.644883 
L 145.131486 141.863102 
L 145.232975 141.765818 
L 145.435951 142.059157 
L 145.53744 142.016842 
L 145.638928 142.347113 
L 145.841905 142.309846 
L 146.653812 143.068238 
L 146.856789 143.074606 
L 147.161254 143.551118 
L 147.262742 143.429953 
L 147.567207 143.940086 
L 147.668696 143.891591 
L 147.770184 144.055742 
L 147.871672 143.922008 
L 148.074649 144.294637 
L 148.379114 144.548991 
L 149.089533 145.15555 
L 149.29251 145.295129 
L 149.393998 145.322969 
L 149.698463 145.621839 
L 150.002928 145.912958 
L 150.205905 146.07537 
L 150.307393 145.986486 
L 150.51037 146.188868 
L 150.814835 146.528671 
L 152.134184 147.258762 
L 152.235672 147.363147 
L 152.438649 147.208821 
L 152.844603 147.517327 
L 152.946091 147.493571 
L 153.149068 147.744448 
L 153.453533 147.581848 
L 153.65651 147.825875 
L 153.960975 147.713256 
L 154.163952 147.903174 
L 154.26544 147.866787 
L 154.366928 147.654077 
L 154.569905 147.834882 
L 154.87437 147.936566 
L 154.975859 147.85648 
L 155.077347 147.996101 
L 155.381812 147.72593 
L 155.686277 147.93225 
L 155.889254 147.791603 
L 155.990742 147.841921 
L 156.396696 147.569719 
L 156.701161 147.68219 
L 156.802649 147.477232 
L 157.005626 147.579711 
L 157.208603 147.273132 
L 157.41158 147.319721 
L 157.513068 147.407956 
L 157.716045 147.130725 
L 157.817533 147.279123 
L 158.121998 146.707925 
L 158.223487 146.895706 
L 158.426463 146.866085 
L 158.527952 146.801146 
L 158.62944 146.59294 
L 158.730928 146.690455 
L 159.035394 146.288687 
L 159.847301 145.713613 
L 160.050277 145.425092 
L 160.456231 145.15379 
L 160.557719 144.930188 
L 160.659208 145.053511 
L 161.166649 144.264953 
L 161.268138 144.431806 
L 161.471115 144.054695 
L 161.572603 143.869176 
L 161.674091 143.982612 
L 162.080045 143.26113 
L 162.181533 143.242423 
L 162.587487 142.745278 
L 163.906836 140.804122 
L 164.008324 140.568873 
L 164.109812 140.628115 
L 164.312789 140.238455 
L 164.414277 140.198046 
L 164.718743 139.644549 
L 165.53065 138.306894 
L 165.733626 138.029035 
L 166.13958 137.168206 
L 166.241068 137.173673 
L 166.647022 136.288858 
L 166.74851 136.315483 
L 167.052975 135.473445 
L 167.154464 135.507528 
L 167.560417 134.645755 
L 167.864882 134.145866 
L 168.372324 133.015934 
L 168.575301 132.761244 
L 168.879766 132.07636 
L 169.691673 130.544786 
L 169.793161 130.715305 
L 169.996138 130.225827 
L 170.300603 128.789777 
L 171.011022 125.776466 
L 171.213999 124.64622 
L 171.416975 123.887514 
L 172.025906 120.638599 
L 172.431859 118.990888 
L 173.548231 113.768995 
L 173.954185 109.96679 
L 174.157161 108.552862 
L 174.461627 106.440873 
L 175.780975 101.192543 
L 175.882464 101.337631 
L 176.186929 100.718734 
L 176.491394 100.761804 
L 176.998836 100.299307 
L 177.100324 100.24105 
L 177.201813 99.886688 
L 177.404789 100.317469 
L 177.506278 100.313405 
L 177.709255 100.56931 
L 177.810743 100.616527 
L 178.01372 101.024035 
L 178.216696 100.938021 
L 178.521162 101.383906 
L 178.62265 101.518374 
L 178.825627 101.344084 
L 178.927115 101.425531 
L 179.23158 101.122681 
L 179.941999 100.896585 
L 180.347952 100.56556 
L 180.550929 100.556322 
L 181.159859 100.22957 
L 181.362836 100.094286 
L 182.073255 99.783035 
L 183.900045 98.815747 
L 184.103022 98.772237 
L 184.610464 98.476363 
L 188.467022 96.521633 
L 188.568511 96.626689 
L 188.872976 96.242119 
L 188.974464 96.339948 
L 189.177441 96.233573 
L 190.801255 95.416651 
L 190.902743 95.277994 
L 191.004232 95.343038 
L 191.308697 95.151194 
L 191.410185 95.183433 
L 191.917627 94.794465 
L 192.019115 94.868873 
L 192.222092 94.77536 
L 194.86079 93.549129 
L 194.962278 93.409466 
L 195.063767 93.461481 
L 195.165255 93.350874 
L 195.266743 93.426539 
L 195.672697 93.185005 
L 196.890557 92.657149 
L 196.992046 92.454139 
L 197.093534 92.570737 
L 197.296511 92.490945 
L 198.108418 92.057252 
L 198.61586 91.933447 
L 199.021813 91.614865 
L 199.123302 91.675909 
L 199.22479 91.545903 
L 199.326278 91.634557 
L 200.036697 91.193636 
L 200.341162 91.173945 
L 201.051581 90.743143 
L 201.153069 90.80008 
L 201.254558 90.701162 
L 201.356046 90.771737 
L 201.559023 90.620302 
L 201.964976 90.423325 
L 202.167953 90.336787 
L 202.37093 90.25645 
L 202.675395 90.17538 
L 209.678093 86.950407 
L 209.779581 87.081502 
L 210.185535 86.804167 
L 210.692976 86.645672 
L 210.794465 86.693518 
L 211.09893 86.491785 
L 211.403395 86.478337 
L 213.331674 85.883551 
L 213.433163 85.976499 
L 213.839116 85.798207 
L 221.044791 83.765047 
L 221.146279 83.642499 
L 221.349256 83.645621 
L 221.552233 83.612019 
L 223.074558 83.125788 
L 223.176047 83.190455 
L 223.480512 82.94934 
L 223.683488 82.961427 
L 224.393907 82.765959 
L 224.596884 82.689309 
L 226.423675 82.152068 
L 226.72814 82.045252 
L 226.931116 81.981737 
L 227.438558 81.789117 
L 227.540047 81.893586 
L 227.844512 81.622054 
L 227.946 81.703857 
L 228.250465 81.590171 
L 235.354652 79.379473 
L 235.45614 79.482937 
L 235.760605 79.244692 
L 236.06507 79.256486 
L 236.978466 78.970583 
L 237.587396 78.817556 
L 237.790373 78.708142 
L 238.094838 78.677118 
L 239.921628 78.216276 
L 243.169256 77.882171 
L 249.461536 77.186456 
L 249.766001 77.143219 
L 251.998745 76.876212 
L 252.709164 76.785065 
L 253.521071 76.671023 
L 264.380327 75.400486 
L 265.293722 75.340092 
L 267.830932 75.171039 
L 268.236885 75.137187 
L 269.556234 75.044344 
L 270.571118 75.060851 
L 271.991955 75.133856 
L 278.994653 75.52494 
L 282.242281 75.713999 
L 283.764606 75.797436 
L 285.591397 75.893945 
L 287.012234 75.98 
L 291.173258 76.201026 
L 296.450653 76.484897 
L 296.856607 76.503583 
L 302.641444 77.053141 
L 302.742932 77.109953 
L 302.844421 77.031816 
L 303.148886 77.22144 
L 303.351863 77.220895 
L 306.599491 77.938836 
L 306.802467 78.144507 
L 307.309909 78.565422 
L 307.411398 78.451065 
L 307.817351 78.816424 
L 307.91884 78.637693 
L 308.223305 79.090952 
L 308.426281 78.99327 
L 308.730747 79.262205 
L 308.832235 79.092146 
L 309.1367 79.594592 
L 309.238188 79.422606 
L 309.339677 79.601211 
L 309.441165 79.508264 
L 309.644142 79.719758 
L 309.74563 79.64977 
L 310.050095 80.052061 
L 310.354561 80.0326 
L 310.557537 80.183449 
L 310.760514 80.26454 
L 310.862002 80.315759 
L 310.963491 80.58463 
L 311.166468 80.544556 
L 311.369444 80.624034 
L 311.775398 80.825012 
L 311.978375 81.021235 
L 312.485816 81.227472 
L 314.617072 82.461328 
L 314.820049 82.547488 
L 314.921537 82.534731 
L 315.226003 82.795559 
L 315.327491 82.655854 
L 315.631956 83.142882 
L 315.834933 83.03041 
L 316.139398 83.285875 
L 316.240886 83.228393 
L 316.545351 83.661499 
L 316.64684 83.544964 
L 316.849817 83.611161 
L 316.951305 83.600309 
L 317.052793 83.849971 
L 317.154282 83.708193 
L 317.357258 83.92792 
L 317.458747 84.149051 
L 317.560235 83.983664 
L 317.661724 84.129673 
L 317.763212 83.989383 
L 317.966189 84.27296 
L 318.169165 84.265481 
L 318.270654 84.370286 
L 318.372142 84.647872 
L 318.473631 84.50425 
L 318.575119 84.636686 
L 318.676607 84.536071 
L 319.184049 84.855072 
L 319.285538 85.116738 
L 319.387026 84.99243 
L 319.488514 85.103959 
L 319.590003 85.022428 
L 319.894468 85.246198 
L 320.097445 85.322995 
L 320.300421 85.423651 
L 321.01084 85.539831 
L 321.213817 85.603828 
L 321.924235 85.731634 
L 322.939119 85.943484 
L 323.142096 85.96018 
L 333.290933 87.928966 
L 333.392422 88.026962 
L 333.595398 87.98295 
L 337.24898 88.676989 
L 337.654933 88.749659 
L 338.162375 88.847215 
L 338.568329 88.930275 
L 339.075771 89.027517 
L 339.380236 89.110703 
L 339.684701 89.127084 
L 340.902561 89.34966 
L 341.105538 89.440388 
L 341.714468 89.478325 
L 342.120422 89.600663 
L 342.424887 89.654144 
L 342.729352 89.711438 
L 342.830841 89.813456 
L 343.033817 89.785218 
L 343.338282 89.82282 
L 343.642748 89.883717 
L 343.845724 89.90697 
L 344.251678 90.01257 
L 344.454655 90.038357 
L 344.556143 90.03157 
L 344.75912 90.091147 
L 345.36805 90.185519 
L 345.875492 90.282196 
L 347.296329 90.591226 
L 347.702283 90.652269 
L 348.006748 90.688887 
L 348.615678 90.792644 
L 349.529073 90.97083 
L 349.935027 91.018362 
L 350.036515 91.151488 
L 350.34098 91.10006 
L 350.746934 91.174678 
L 351.152887 91.304767 
L 351.254376 91.232894 
L 351.457352 91.347334 
L 351.558841 91.29622 
L 351.863306 91.465273 
L 352.167771 91.464708 
L 352.675213 91.574393 
L 353.081166 91.643565 
L 356.836236 92.344475 
L 357.039213 92.367832 
L 357.648143 92.487719 
L 358.155585 92.60327 
L 359.068981 92.703445 
L 359.373446 92.880312 
L 359.576422 92.828213 
L 359.880888 92.921391 
L 360.083864 92.953652 
L 360.692795 93.054099 
L 361.60619 93.221288 
L 361.910655 93.262577 
L 362.113632 93.308076 
L 362.519585 93.400731 
L 362.82405 93.440637 
L 363.027027 93.501786 
L 364.244888 93.704502 
L 364.549353 93.785468 
L 364.853818 93.799 
L 365.462748 93.949849 
L 365.665725 93.970504 
L 366.173167 94.077131 
L 366.477632 94.101117 
L 366.680609 94.173954 
L 366.985074 94.214762 
L 367.086562 94.280393 
L 367.188051 94.196013 
L 367.492516 94.335047 
L 368.101446 94.413331 
L 368.608888 94.510405 
L 368.710376 94.494966 
L 368.913353 94.577629 
L 369.014841 94.498821 
L 369.11633 94.695861 
L 369.319306 94.609449 
L 369.420795 94.726843 
L 369.522283 94.641835 
L 369.72526 94.692027 
L 371.552051 95.051563 
L 371.653539 94.984403 
L 371.755027 95.17872 
L 371.958004 95.109486 
L 372.262469 95.252646 
L 372.363958 95.149099 
L 372.566934 95.299843 
L 372.668423 95.17541 
L 372.8714 95.300178 
L 372.972888 95.263833 
L 373.074376 95.414598 
L 373.175865 95.331768 
L 373.378841 95.366207 
L 373.48033 95.332208 
L 373.581818 95.519779 
L 373.581818 95.519779 
" style="fill:none;stroke:#081d58;stroke-dasharray:5.55,2.4;stroke-dashoffset:0;stroke-width:1.5;"/>
    <defs>
     <path d="M -0 4.242641 
L 4.242641 0 
L 0 -4.242641 
L -4.242641 -0 
z
" id="mec027f2dc2" style="stroke:#081d58;stroke-linejoin:miter;"/>
    </defs>
    <g clip-path="url(#p40e10ac93f)">
     <use style="fill:#081d58;stroke:#081d58;stroke-linejoin:miter;" x="69.218182" xlink:href="#mec027f2dc2" y="98.401242"/>
     <use style="fill:#081d58;stroke:#081d58;stroke-linejoin:miter;" x="77.337252" xlink:href="#mec027f2dc2" y="105.030486"/>
     <use style="fill:#081d58;stroke:#081d58;stroke-linejoin:miter;" x="85.456322" xlink:href="#mec027f2dc2" y="139.89044"/>
     <use style="fill:#081d58;stroke:#081d58;stroke-linejoin:miter;" x="93.575392" xlink:href="#mec027f2dc2" y="164.653139"/>
     <use style="fill:#081d58;stroke:#081d58;stroke-linejoin:miter;" x="101.694462" xlink:href="#mec027f2dc2" y="164.860716"/>
     <use style="fill:#081d58;stroke:#081d58;stroke-linejoin:miter;" x="109.813532" xlink:href="#mec027f2dc2" y="161.846901"/>
     <use style="fill:#081d58;stroke:#081d58;stroke-linejoin:miter;" x="117.932602" xlink:href="#mec027f2dc2" y="160.495127"/>
     <use style="fill:#081d58;stroke:#081d58;stroke-linejoin:miter;" x="126.051672" xlink:href="#mec027f2dc2" y="154.397468"/>
     <use style="fill:#081d58;stroke:#081d58;stroke-linejoin:miter;" x="134.170742" xlink:href="#mec027f2dc2" y="142.94833"/>
     <use style="fill:#081d58;stroke:#081d58;stroke-linejoin:miter;" x="142.289812" xlink:href="#mec027f2dc2" y="140.063222"/>
     <use style="fill:#081d58;stroke:#081d58;stroke-linejoin:miter;" x="150.408882" xlink:href="#mec027f2dc2" y="146.189811"/>
     <use style="fill:#081d58;stroke:#081d58;stroke-linejoin:miter;" x="158.527952" xlink:href="#mec027f2dc2" y="146.801146"/>
     <use style="fill:#081d58;stroke:#081d58;stroke-linejoin:miter;" x="166.647022" xlink:href="#mec027f2dc2" y="136.288858"/>
     <use style="fill:#081d58;stroke:#081d58;stroke-linejoin:miter;" x="174.766092" xlink:href="#mec027f2dc2" y="104.994936"/>
     <use style="fill:#081d58;stroke:#081d58;stroke-linejoin:miter;" x="182.885162" xlink:href="#mec027f2dc2" y="99.333841"/>
     <use style="fill:#081d58;stroke:#081d58;stroke-linejoin:miter;" x="191.004232" xlink:href="#mec027f2dc2" y="95.343038"/>
     <use style="fill:#081d58;stroke:#081d58;stroke-linejoin:miter;" x="199.123302" xlink:href="#mec027f2dc2" y="91.675909"/>
     <use style="fill:#081d58;stroke:#081d58;stroke-linejoin:miter;" x="207.242372" xlink:href="#mec027f2dc2" y="88.100093"/>
     <use style="fill:#081d58;stroke:#081d58;stroke-linejoin:miter;" x="215.361442" xlink:href="#mec027f2dc2" y="85.374758"/>
     <use style="fill:#081d58;stroke:#081d58;stroke-linejoin:miter;" x="223.480512" xlink:href="#mec027f2dc2" y="82.94934"/>
     <use style="fill:#081d58;stroke:#081d58;stroke-linejoin:miter;" x="231.599582" xlink:href="#mec027f2dc2" y="80.535339"/>
     <use style="fill:#081d58;stroke:#081d58;stroke-linejoin:miter;" x="239.718652" xlink:href="#mec027f2dc2" y="78.219209"/>
     <use style="fill:#081d58;stroke:#081d58;stroke-linejoin:miter;" x="247.837722" xlink:href="#mec027f2dc2" y="77.368455"/>
     <use style="fill:#081d58;stroke:#081d58;stroke-linejoin:miter;" x="255.956792" xlink:href="#mec027f2dc2" y="76.367754"/>
     <use style="fill:#081d58;stroke:#081d58;stroke-linejoin:miter;" x="264.075862" xlink:href="#mec027f2dc2" y="75.434946"/>
     <use style="fill:#081d58;stroke:#081d58;stroke-linejoin:miter;" x="272.194932" xlink:href="#mec027f2dc2" y="75.132955"/>
     <use style="fill:#081d58;stroke:#081d58;stroke-linejoin:miter;" x="280.314002" xlink:href="#mec027f2dc2" y="75.608"/>
     <use style="fill:#081d58;stroke:#081d58;stroke-linejoin:miter;" x="288.433072" xlink:href="#mec027f2dc2" y="76.050701"/>
     <use style="fill:#081d58;stroke:#081d58;stroke-linejoin:miter;" x="296.552142" xlink:href="#mec027f2dc2" y="76.513575"/>
     <use style="fill:#081d58;stroke:#081d58;stroke-linejoin:miter;" x="304.671212" xlink:href="#mec027f2dc2" y="77.485326"/>
     <use style="fill:#081d58;stroke:#081d58;stroke-linejoin:miter;" x="312.790282" xlink:href="#mec027f2dc2" y="81.517208"/>
     <use style="fill:#081d58;stroke:#081d58;stroke-linejoin:miter;" x="320.909352" xlink:href="#mec027f2dc2" y="85.499003"/>
     <use style="fill:#081d58;stroke:#081d58;stroke-linejoin:miter;" x="329.028422" xlink:href="#mec027f2dc2" y="87.124718"/>
     <use style="fill:#081d58;stroke:#081d58;stroke-linejoin:miter;" x="337.147492" xlink:href="#mec027f2dc2" y="88.619863"/>
     <use style="fill:#081d58;stroke:#081d58;stroke-linejoin:miter;" x="345.266562" xlink:href="#mec027f2dc2" y="90.132772"/>
     <use style="fill:#081d58;stroke:#081d58;stroke-linejoin:miter;" x="353.385632" xlink:href="#mec027f2dc2" y="91.66401"/>
     <use style="fill:#081d58;stroke:#081d58;stroke-linejoin:miter;" x="361.504702" xlink:href="#mec027f2dc2" y="93.189949"/>
     <use style="fill:#081d58;stroke:#081d58;stroke-linejoin:miter;" x="369.623772" xlink:href="#mec027f2dc2" y="94.738679"/>
    </g>
   </g>
   <g id="patch_3">
    <path d="M 54 252 
L 54 34.56 
" style="fill:none;stroke:#000000;stroke-linecap:square;stroke-linejoin:miter;stroke-width:0.8;"/>
   </g>
   <g id="patch_4">
    <path d="M 388.8 252 
L 388.8 34.56 
" style="fill:none;stroke:#000000;stroke-linecap:square;stroke-linejoin:miter;stroke-width:0.8;"/>
   </g>
   <g id="patch_5">
    <path d="M 54 252 
L 388.8 252 
" style="fill:none;stroke:#000000;stroke-linecap:square;stroke-linejoin:miter;stroke-width:0.8;"/>
   </g>
   <g id="patch_6">
    <path d="M 54 34.56 
L 388.8 34.56 
" style="fill:none;stroke:#000000;stroke-linecap:square;stroke-linejoin:miter;stroke-width:0.8;"/>
   </g>
   <g id="legend_1">
    <g id="patch_7">
     <path d="M 61 247 
L 162.714063 247 
Q 164.714063 247 164.714063 245 
L 164.714063 216.64375 
Q 164.714063 214.64375 162.714063 214.64375 
L 61 214.64375 
Q 59 214.64375 59 216.64375 
L 59 245 
Q 59 247 61 247 
z
" style="fill:#ffffff;opacity:0.8;stroke:#cccccc;stroke-linejoin:miter;"/>
    </g>
    <g id="line2d_14">
     <path d="M 63 222.742188 
L 83 222.742188 
" style="fill:none;stroke:#c6e9b4;stroke-dasharray:5.55,2.4;stroke-dashoffset:0;stroke-width:1.5;"/>
    </g>
    <g id="line2d_15">
     <g>
      <use style="fill:#c6e9b4;stroke:#c6e9b4;" x="73" xlink:href="#md0e9b09efa" y="222.742188"/>
     </g>
    </g>
    <g id="text_14">
     <text style="font-family:DejaVu Sans;font-size:10px;font-style:normal;font-weight:normal;text-anchor:start;" transform="rotate(-0, 91, 226.242188)" x="91" y="226.242188">original</text>
    </g>
    <g id="line2d_16">
     <path d="M 63 237.420312 
L 83 237.420312 
" style="fill:none;stroke:#081d58;stroke-dasharray:5.55,2.4;stroke-dashoffset:0;stroke-width:1.5;"/>
    </g>
    <g id="line2d_17">
     <g>
      <use style="fill:#081d58;stroke:#081d58;stroke-linejoin:miter;" x="73" xlink:href="#mec027f2dc2" y="237.420312"/>
     </g>
    </g>
    <g id="text_15">
     <text style="font-family:DejaVu Sans;font-size:10px;font-style:normal;font-weight:normal;text-anchor:start;" transform="rotate(-0, 91, 240.920312)" x="91" y="240.920312">reconstructed</text>
    </g>
   </g>
  </g>
  <g id="text_16">
   <text style="font-family:DejaVu Sans;font-size:12px;font-style:normal;font-weight:normal;text-anchor:middle;" transform="rotate(-0, 216, 14.878125)" x="216" y="14.878125">Reconstruction of the temperature curve</text>
  </g>
 </g>
 <defs>
  <clipPath id="p40e10ac93f">
   <rect height="217.44" width="334.8" x="54" y="34.56"/>
  </clipPath>
 </defs>
</svg>
