<?xml version="1.0" encoding="utf-8" standalone="no"?>
<!DOCTYPE svg PUBLIC "-//W3C//DTD SVG 1.1//EN"
  "http://www.w3.org/Graphics/SVG/1.1/DTD/svg11.dtd">
<!-- Created with matplotlib (https://matplotlib.org/) -->
<svg height="288pt" version="1.1" viewBox="0 0 432 288" width="432pt" xmlns="http://www.w3.org/2000/svg" xmlns:xlink="http://www.w3.org/1999/xlink">
 <defs>
  <style type="text/css">
*{stroke-linecap:butt;stroke-linejoin:round;}
  </style>
 </defs>
 <g id="figure_1">
  <g id="patch_1">
   <path d="M 0 288 
L 432 288 
L 432 0 
L 0 0 
z
" style="fill:#ffffff;"/>
  </g>
  <g id="axes_1">
   <g id="patch_2">
    <path d="M 54 252 
L 388.8 252 
L 388.8 34.56 
L 54 34.56 
z
" style="fill:#ffffff;"/>
   </g>
   <g id="matplotlib.axis_1">
    <g id="xtick_1">
     <g id="line2d_1">
      <defs>
       <path d="M 0 0 
L 0 3.5 
" id="m175447a827" style="stroke:#000000;stroke-width:0.8;"/>
      </defs>
      <g>
       <use style="stroke:#000000;stroke-width:0.8;" x="69.218182" xlink:href="#m175447a827" y="252"/>
      </g>
     </g>
     <g id="text_1">
      <!-- $\mathdefault{10^{0}}$ -->
      <g transform="translate(60.418182 266.598437)">
       <text>
        <tspan style="font-family:DejaVu Sans;font-size:10px;font-style:book;font-weight:book;" x="0 6.362305" y="-0.9765625">10</tspan>
        <tspan style="font-family:DejaVu Sans;font-size:7px;font-style:book;font-weight:book;" x="12.820312" y="-4.8046875">0</tspan>
       </text>
      </g>
     </g>
    </g>
    <g id="xtick_2">
     <g id="line2d_2">
      <g>
       <use style="stroke:#000000;stroke-width:0.8;" x="170.687424" xlink:href="#m175447a827" y="252"/>
      </g>
     </g>
     <g id="text_2">
      <!-- $\mathdefault{10^{1}}$ -->
      <g transform="translate(161.887424 266.598437)">
       <text>
        <tspan style="font-family:DejaVu Sans;font-size:10px;font-style:book;font-weight:book;" x="0 6.362305" y="-0.06406250000000036">10</tspan>
        <tspan style="font-family:DejaVu Sans;font-size:7px;font-style:book;font-weight:book;" x="12.820312" y="-3.8921875000000004">1</tspan>
       </text>
      </g>
     </g>
    </g>
    <g id="xtick_3">
     <g id="line2d_3">
      <g>
       <use style="stroke:#000000;stroke-width:0.8;" x="272.156666" xlink:href="#m175447a827" y="252"/>
      </g>
     </g>
     <g id="text_3">
      <!-- $\mathdefault{10^{2}}$ -->
      <g transform="translate(263.356666 266.598437)">
       <text>
        <tspan style="font-family:DejaVu Sans;font-size:10px;font-style:book;font-weight:book;" x="0 6.362305" y="-0.9765625">10</tspan>
        <tspan style="font-family:DejaVu Sans;font-size:7px;font-style:book;font-weight:book;" x="12.820312" y="-4.8046875">2</tspan>
       </text>
      </g>
     </g>
    </g>
    <g id="xtick_4">
     <g id="line2d_4">
      <g>
       <use style="stroke:#000000;stroke-width:0.8;" x="373.625908" xlink:href="#m175447a827" y="252"/>
      </g>
     </g>
     <g id="text_4">
      <!-- $\mathdefault{10^{3}}$ -->
      <g transform="translate(364.825908 266.598437)">
       <text>
        <tspan style="font-family:DejaVu Sans;font-size:10px;font-style:book;font-weight:book;" x="0 6.362305" y="-0.9765625">10</tspan>
        <tspan style="font-family:DejaVu Sans;font-size:7px;font-style:book;font-weight:book;" x="12.820312" y="-4.8046875">3</tspan>
       </text>
      </g>
     </g>
    </g>
    <g id="xtick_5">
     <g id="line2d_5">
      <defs>
       <path d="M 0 0 
L 0 2 
" id="md61f1ceeed" style="stroke:#000000;stroke-width:0.6;"/>
      </defs>
      <g>
       <use style="stroke:#000000;stroke-width:0.6;" x="59.384796" xlink:href="#md61f1ceeed" y="252"/>
      </g>
     </g>
    </g>
    <g id="xtick_6">
     <g id="line2d_6">
      <g>
       <use style="stroke:#000000;stroke-width:0.6;" x="64.575204" xlink:href="#md61f1ceeed" y="252"/>
      </g>
     </g>
    </g>
    <g id="xtick_7">
     <g id="line2d_7">
      <g>
       <use style="stroke:#000000;stroke-width:0.6;" x="99.763467" xlink:href="#md61f1ceeed" y="252"/>
      </g>
     </g>
    </g>
    <g id="xtick_8">
     <g id="line2d_8">
      <g>
       <use style="stroke:#000000;stroke-width:0.6;" x="117.631314" xlink:href="#md61f1ceeed" y="252"/>
      </g>
     </g>
    </g>
    <g id="xtick_9">
     <g id="line2d_9">
      <g>
       <use style="stroke:#000000;stroke-width:0.6;" x="130.308753" xlink:href="#md61f1ceeed" y="252"/>
      </g>
     </g>
    </g>
    <g id="xtick_10">
     <g id="line2d_10">
      <g>
       <use style="stroke:#000000;stroke-width:0.6;" x="140.142138" xlink:href="#md61f1ceeed" y="252"/>
      </g>
     </g>
    </g>
    <g id="xtick_11">
     <g id="line2d_11">
      <g>
       <use style="stroke:#000000;stroke-width:0.6;" x="148.176599" xlink:href="#md61f1ceeed" y="252"/>
      </g>
     </g>
    </g>
    <g id="xtick_12">
     <g id="line2d_12">
      <g>
       <use style="stroke:#000000;stroke-width:0.6;" x="154.969639" xlink:href="#md61f1ceeed" y="252"/>
      </g>
     </g>
    </g>
    <g id="xtick_13">
     <g id="line2d_13">
      <g>
       <use style="stroke:#000000;stroke-width:0.6;" x="160.854038" xlink:href="#md61f1ceeed" y="252"/>
      </g>
     </g>
    </g>
    <g id="xtick_14">
     <g id="line2d_14">
      <g>
       <use style="stroke:#000000;stroke-width:0.6;" x="166.044446" xlink:href="#md61f1ceeed" y="252"/>
      </g>
     </g>
    </g>
    <g id="xtick_15">
     <g id="line2d_15">
      <g>
       <use style="stroke:#000000;stroke-width:0.6;" x="201.232709" xlink:href="#md61f1ceeed" y="252"/>
      </g>
     </g>
    </g>
    <g id="xtick_16">
     <g id="line2d_16">
      <g>
       <use style="stroke:#000000;stroke-width:0.6;" x="219.100556" xlink:href="#md61f1ceeed" y="252"/>
      </g>
     </g>
    </g>
    <g id="xtick_17">
     <g id="line2d_17">
      <g>
       <use style="stroke:#000000;stroke-width:0.6;" x="231.777995" xlink:href="#md61f1ceeed" y="252"/>
      </g>
     </g>
    </g>
    <g id="xtick_18">
     <g id="line2d_18">
      <g>
       <use style="stroke:#000000;stroke-width:0.6;" x="241.61138" xlink:href="#md61f1ceeed" y="252"/>
      </g>
     </g>
    </g>
    <g id="xtick_19">
     <g id="line2d_19">
      <g>
       <use style="stroke:#000000;stroke-width:0.6;" x="249.645841" xlink:href="#md61f1ceeed" y="252"/>
      </g>
     </g>
    </g>
    <g id="xtick_20">
     <g id="line2d_20">
      <g>
       <use style="stroke:#000000;stroke-width:0.6;" x="256.438881" xlink:href="#md61f1ceeed" y="252"/>
      </g>
     </g>
    </g>
    <g id="xtick_21">
     <g id="line2d_21">
      <g>
       <use style="stroke:#000000;stroke-width:0.6;" x="262.32328" xlink:href="#md61f1ceeed" y="252"/>
      </g>
     </g>
    </g>
    <g id="xtick_22">
     <g id="line2d_22">
      <g>
       <use style="stroke:#000000;stroke-width:0.6;" x="267.513688" xlink:href="#md61f1ceeed" y="252"/>
      </g>
     </g>
    </g>
    <g id="xtick_23">
     <g id="line2d_23">
      <g>
       <use style="stroke:#000000;stroke-width:0.6;" x="302.701951" xlink:href="#md61f1ceeed" y="252"/>
      </g>
     </g>
    </g>
    <g id="xtick_24">
     <g id="line2d_24">
      <g>
       <use style="stroke:#000000;stroke-width:0.6;" x="320.569798" xlink:href="#md61f1ceeed" y="252"/>
      </g>
     </g>
    </g>
    <g id="xtick_25">
     <g id="line2d_25">
      <g>
       <use style="stroke:#000000;stroke-width:0.6;" x="333.247237" xlink:href="#md61f1ceeed" y="252"/>
      </g>
     </g>
    </g>
    <g id="xtick_26">
     <g id="line2d_26">
      <g>
       <use style="stroke:#000000;stroke-width:0.6;" x="343.080622" xlink:href="#md61f1ceeed" y="252"/>
      </g>
     </g>
    </g>
    <g id="xtick_27">
     <g id="line2d_27">
      <g>
       <use style="stroke:#000000;stroke-width:0.6;" x="351.115083" xlink:href="#md61f1ceeed" y="252"/>
      </g>
     </g>
    </g>
    <g id="xtick_28">
     <g id="line2d_28">
      <g>
       <use style="stroke:#000000;stroke-width:0.6;" x="357.908123" xlink:href="#md61f1ceeed" y="252"/>
      </g>
     </g>
    </g>
    <g id="xtick_29">
     <g id="line2d_29">
      <g>
       <use style="stroke:#000000;stroke-width:0.6;" x="363.792522" xlink:href="#md61f1ceeed" y="252"/>
      </g>
     </g>
    </g>
    <g id="xtick_30">
     <g id="line2d_30">
      <g>
       <use style="stroke:#000000;stroke-width:0.6;" x="368.98293" xlink:href="#md61f1ceeed" y="252"/>
      </g>
     </g>
    </g>
    <g id="text_5">
     <text style="font-family:DejaVu Sans;font-size:10px;font-style:normal;font-weight:normal;text-anchor:middle;" transform="rotate(-0, 221.4, 280.276563)" x="221.4" y="280.276563">Epochs</text>
    </g>
   </g>
   <g id="matplotlib.axis_2">
    <g id="ytick_1">
     <g id="line2d_31">
      <defs>
       <path d="M 0 0 
L -3.5 0 
" id="m0205aadaff" style="stroke:#000000;stroke-width:0.8;"/>
      </defs>
      <g>
       <use style="stroke:#000000;stroke-width:0.8;" x="54" xlink:href="#m0205aadaff" y="241.645714"/>
      </g>
     </g>
     <g id="text_6">
      <text style="font-family:DejaVu Sans;font-size:10px;font-style:normal;font-weight:normal;text-anchor:end;" transform="rotate(-0, 47, 245.444933)" x="47" y="245.444933">0</text>
     </g>
    </g>
    <g id="ytick_2">
     <g id="line2d_32">
      <g>
       <use style="stroke:#000000;stroke-width:0.8;" x="54" xlink:href="#m0205aadaff" y="215.76"/>
      </g>
     </g>
     <g id="text_7">
      <text style="font-family:DejaVu Sans;font-size:10px;font-style:normal;font-weight:normal;text-anchor:end;" transform="rotate(-0, 47, 219.559219)" x="47" y="219.559219">5</text>
     </g>
    </g>
    <g id="ytick_3">
     <g id="line2d_33">
      <g>
       <use style="stroke:#000000;stroke-width:0.8;" x="54" xlink:href="#m0205aadaff" y="189.874286"/>
      </g>
     </g>
     <g id="text_8">
      <text style="font-family:DejaVu Sans;font-size:10px;font-style:normal;font-weight:normal;text-anchor:end;" transform="rotate(-0, 47, 193.673504)" x="47" y="193.673504">10</text>
     </g>
    </g>
    <g id="ytick_4">
     <g id="line2d_34">
      <g>
       <use style="stroke:#000000;stroke-width:0.8;" x="54" xlink:href="#m0205aadaff" y="163.988571"/>
      </g>
     </g>
     <g id="text_9">
      <text style="font-family:DejaVu Sans;font-size:10px;font-style:normal;font-weight:normal;text-anchor:end;" transform="rotate(-0, 47, 167.78779)" x="47" y="167.78779">15</text>
     </g>
    </g>
    <g id="ytick_5">
     <g id="line2d_35">
      <g>
       <use style="stroke:#000000;stroke-width:0.8;" x="54" xlink:href="#m0205aadaff" y="138.102857"/>
      </g>
     </g>
     <g id="text_10">
      <text style="font-family:DejaVu Sans;font-size:10px;font-style:normal;font-weight:normal;text-anchor:end;" transform="rotate(-0, 47, 141.902076)" x="47" y="141.902076">20</text>
     </g>
    </g>
    <g id="ytick_6">
     <g id="line2d_36">
      <g>
       <use style="stroke:#000000;stroke-width:0.8;" x="54" xlink:href="#m0205aadaff" y="112.217143"/>
      </g>
     </g>
     <g id="text_11">
      <text style="font-family:DejaVu Sans;font-size:10px;font-style:normal;font-weight:normal;text-anchor:end;" transform="rotate(-0, 47, 116.016362)" x="47" y="116.016362">25</text>
     </g>
    </g>
    <g id="ytick_7">
     <g id="line2d_37">
      <g>
       <use style="stroke:#000000;stroke-width:0.8;" x="54" xlink:href="#m0205aadaff" y="86.331429"/>
      </g>
     </g>
     <g id="text_12">
      <text style="font-family:DejaVu Sans;font-size:10px;font-style:normal;font-weight:normal;text-anchor:end;" transform="rotate(-0, 47, 90.130647)" x="47" y="90.130647">30</text>
     </g>
    </g>
    <g id="ytick_8">
     <g id="line2d_38">
      <g>
       <use style="stroke:#000000;stroke-width:0.8;" x="54" xlink:href="#m0205aadaff" y="60.445714"/>
      </g>
     </g>
     <g id="text_13">
      <text style="font-family:DejaVu Sans;font-size:10px;font-style:normal;font-weight:normal;text-anchor:end;" transform="rotate(-0, 47, 64.244933)" x="47" y="64.244933">35</text>
     </g>
    </g>
    <g id="ytick_9">
     <g id="line2d_39">
      <g>
       <use style="stroke:#000000;stroke-width:0.8;" x="54" xlink:href="#m0205aadaff" y="34.56"/>
      </g>
     </g>
     <g id="text_14">
      <text style="font-family:DejaVu Sans;font-size:10px;font-style:normal;font-weight:normal;text-anchor:end;" transform="rotate(-0, 47, 38.359219)" x="47" y="38.359219">40</text>
     </g>
    </g>
    <g id="text_15">
     <text style="font-family:DejaVu Sans;font-size:10px;font-style:normal;font-weight:normal;text-anchor:middle;" transform="rotate(-90, 28.195312, 143.28)" x="28.195312" y="143.28">Mean squared error</text>
    </g>
   </g>
   <g id="line2d_40">
    <path clip-path="url(#pdf7632716a)" d="M -1 54.340774 
L 69.218182 54.832587 
L 99.763467 93.589459 
L 117.631314 125.005749 
L 130.308753 153.99308 
L 140.142138 178.880816 
L 148.176599 198.08929 
L 154.969639 211.178825 
L 160.854038 219.448532 
L 166.044446 224.494362 
L 170.687424 227.235377 
L 174.887508 228.557115 
L 178.721885 229.124409 
L 182.249169 229.835882 
L 185.514925 229.810303 
L 188.55527 230.102221 
L 191.399324 230.205154 
L 194.070901 230.533285 
L 198.97234 231.510173 
L 201.232709 231.232661 
L 203.382771 231.748829 
L 205.432794 231.723143 
L 207.391673 231.939021 
L 209.26717 232.349326 
L 211.066095 233.267847 
L 214.457578 233.56983 
L 216.06021 234.264259 
L 219.100556 234.419977 
L 220.545522 234.452902 
L 221.944609 234.870962 
L 223.30064 234.780046 
L 225.893596 235.135449 
L 231.777995 235.187344 
L 232.866137 234.747505 
L 233.928057 234.661907 
L 234.964988 234.85014 
L 235.978079 234.45451 
L 236.968402 234.485905 
L 237.936959 234.084247 
L 240.721097 233.417122 
L 241.61138 233.814362 
L 243.33974 233.375399 
L 244.179147 233.448209 
L 245.002863 232.659764 
L 245.811465 232.324104 
L 247.385472 232.494789 
L 248.151884 231.778469 
L 248.905193 231.896932 
L 249.645841 231.764899 
L 250.374247 230.968103 
L 251.090808 230.725342 
L 251.795903 231.481817 
L 252.489895 231.607164 
L 253.845926 231.420495 
L 255.161472 232.030602 
L 255.804805 232.771819 
L 256.438881 232.687352 
L 257.063963 231.983015 
L 257.680302 232.825655 
L 258.28814 231.893106 
L 259.479227 232.953157 
L 260.062911 232.746716 
L 260.638966 232.085413 
L 261.207587 231.99618 
L 261.768964 232.566026 
L 262.32328 231.356165 
L 263.411423 232.512021 
L 263.945581 231.589823 
L 264.994858 232.162748 
L 265.510273 231.099718 
L 266.01973 231.548565 
L 267.021308 231.30439 
L 267.513688 230.758772 
L 268.000627 231.135511 
L 268.482244 232.232012 
L 268.958654 232.697673 
L 269.429969 234.010589 
L 269.896297 230.572924 
L 270.814404 230.853319 
L 271.266382 233.883548 
L 271.713772 231.764181 
L 272.156666 233.20592 
L 272.595152 233.989233 
L 273.029319 234.151092 
L 273.459249 234.895859 
L 273.885026 235.339478 
L 274.306728 235.138967 
L 274.724433 235.299425 
L 275.548149 235.910549 
L 275.954304 235.645591 
L 276.35675 234.586414 
L 276.755554 234.744246 
L 277.542495 235.671903 
L 277.930758 234.768658 
L 278.31563 235.026976 
L 279.075433 232.559927 
L 279.450479 235.197615 
L 279.822359 235.086724 
L 280.191127 235.783819 
L 280.556835 235.657177 
L 280.919532 235.366293 
L 281.279269 236.249967 
L 281.636093 235.114151 
L 282.341189 236.145325 
L 282.689551 235.516499 
L 283.03518 235.157139 
L 283.37812 235.261073 
L 283.718411 235.537328 
L 284.056095 234.106741 
L 284.391211 234.975938 
L 284.723798 234.12385 
L 285.053893 234.793472 
L 285.381534 234.152393 
L 285.706758 234.880146 
L 286.029598 233.21234 
L 286.350091 235.075164 
L 286.668269 237.726835 
L 286.984167 235.040053 
L 287.297816 235.607396 
L 287.609249 237.051477 
L 287.918496 237.395641 
L 288.225588 235.168977 
L 288.530555 234.661181 
L 288.833425 237.04401 
L 289.134229 235.004234 
L 289.432993 234.896014 
L 290.024512 236.546715 
L 290.317321 235.77415 
L 290.608197 236.160623 
L 290.897165 237.275521 
L 291.184251 236.487918 
L 291.469479 236.868945 
L 291.752872 236.545897 
L 292.034455 236.66157 
L 292.31425 237.102069 
L 292.592279 235.122281 
L 292.868566 235.011334 
L 293.143131 237.575545 
L 293.415995 237.824706 
L 293.687181 234.401783 
L 293.956708 234.402966 
L 294.224597 237.447091 
L 294.490867 236.703558 
L 295.018628 237.767301 
L 295.280157 236.290075 
L 295.540143 236.424421 
L 295.798604 236.701745 
L 296.055559 236.17487 
L 296.311023 234.407878 
L 296.565016 236.47559 
L 296.817552 235.238545 
L 297.06865 237.274856 
L 297.318325 237.491203 
L 297.566594 235.797501 
L 297.813471 236.03183 
L 298.058973 237.862798 
L 298.303115 236.981176 
L 298.545912 239.106408 
L 298.787379 238.361711 
L 299.02753 234.770809 
L 299.266379 238.412808 
L 299.50394 236.328977 
L 299.740228 238.445563 
L 299.975255 238.46014 
L 300.209035 236.527681 
L 300.441582 237.086405 
L 300.672909 238.155681 
L 300.903027 235.541863 
L 301.131949 237.573244 
L 301.359689 236.548556 
L 301.586258 233.440371 
L 301.811668 236.622492 
L 302.035931 232.101419 
L 302.259058 237.439673 
L 302.481061 236.501667 
L 302.701951 236.950665 
L 302.92174 236.924302 
L 303.140438 236.48212 
L 303.574604 239.128044 
L 303.790094 237.029074 
L 304.004535 236.417378 
L 304.217937 237.873682 
L 304.430311 237.157044 
L 304.641667 238.535999 
L 305.061361 237.065071 
L 305.477095 237.639942 
L 305.683501 232.335013 
L 305.888944 237.739687 
L 306.093434 238.713272 
L 306.29698 237.575277 
L 306.49959 237.220174 
L 306.902036 238.450253 
L 307.101889 237.501585 
L 307.30084 238.24368 
L 307.498896 238.403924 
L 307.696067 238.192122 
L 307.892359 238.96088 
L 308.28234 239.391716 
L 308.476043 240.135523 
L 308.668899 239.088328 
L 309.052098 239.755391 
L 309.242455 238.340036 
L 309.431993 239.602267 
L 309.620719 239.633037 
L 309.80864 234.502459 
L 309.995764 240.094533 
L 310.182096 236.152484 
L 310.367644 239.599972 
L 310.552414 240.088258 
L 310.736412 241.152224 
L 311.10212 239.023214 
L 311.283842 235.049301 
L 311.464818 240.697402 
L 311.645053 239.459719 
L 312.003328 240.848254 
L 312.181379 240.66096 
L 312.358713 240.091793 
L 312.535337 239.924175 
L 312.711255 240.664177 
L 312.886474 240.668219 
L 313.060999 239.934983 
L 313.234836 237.854957 
L 313.40799 241.141955 
L 313.752269 238.71627 
L 313.923405 239.042827 
L 314.09388 240.480535 
L 314.263697 229.073825 
L 314.432862 236.041713 
L 314.769257 238.489637 
L 314.936497 232.515728 
L 315.103104 239.871375 
L 315.269083 241.091328 
L 315.43444 239.079231 
L 315.599179 239.674717 
L 315.763304 229.25679 
L 315.92682 238.694328 
L 316.089732 229.825042 
L 316.252043 238.317998 
L 316.413759 234.679937 
L 316.574884 241.107004 
L 316.735421 238.192282 
L 316.895376 240.207228 
L 317.054753 234.050964 
L 317.371787 240.638517 
L 317.529452 241.029463 
L 317.686556 240.348625 
L 317.843102 231.687013 
L 317.999093 232.216236 
L 318.154534 239.828384 
L 318.309429 241.219246 
L 318.463781 238.291536 
L 318.617595 239.641845 
L 318.770873 235.481889 
L 318.923621 239.884057 
L 319.07584 239.271388 
L 319.227536 237.466123 
L 319.529369 239.828614 
L 319.679514 239.702801 
L 319.82915 238.962017 
L 319.978278 238.949674 
L 320.126904 236.886942 
L 320.275031 239.400052 
L 320.422661 239.798679 
L 320.569798 239.798589 
L 320.716445 237.130678 
L 320.862606 239.377012 
L 321.008284 239.21854 
L 321.153482 237.571068 
L 321.298203 237.880083 
L 321.442451 239.137346 
L 321.586227 233.560239 
L 321.729537 238.835158 
L 321.872381 238.069711 
L 322.014764 239.442565 
L 322.156689 238.926549 
L 322.298158 239.446254 
L 322.71986 238.354424 
L 322.859535 239.629114 
L 322.998769 238.772777 
L 323.137565 239.525575 
L 323.275925 239.097757 
L 323.413851 237.905594 
L 323.551347 239.581122 
L 323.688416 238.995323 
L 323.82506 239.166353 
L 323.961281 238.003553 
L 324.232467 239.385422 
L 324.367436 237.584184 
L 324.501994 239.680221 
L 324.636142 239.81264 
L 324.903218 238.337177 
L 325.036152 238.523099 
L 325.168686 239.135154 
L 325.300823 238.131966 
L 325.563913 240.105002 
L 325.694872 236.313004 
L 325.825442 240.394855 
L 325.955627 238.852327 
L 326.085429 239.849391 
L 326.214849 239.526332 
L 326.34389 240.082024 
L 326.472554 239.821274 
L 326.600844 239.273517 
L 326.728762 240.147208 
L 326.856309 239.429914 
L 326.983488 237.721666 
L 327.110301 239.903982 
L 327.362838 237.541136 
L 327.488566 239.100866 
L 327.613936 236.885735 
L 327.73895 239.096553 
L 327.863611 233.71335 
L 327.98792 237.741912 
L 328.111879 238.090552 
L 328.235491 239.886137 
L 328.358757 237.568264 
L 328.481679 237.893789 
L 328.604259 234.063893 
L 328.726499 237.08342 
L 328.848401 234.533591 
L 328.969967 240.449161 
L 329.091198 240.256093 
L 329.212097 234.596985 
L 329.332664 235.926812 
L 329.452903 240.348007 
L 329.572815 238.844377 
L 329.692401 241.428872 
L 329.811664 238.494682 
L 329.930605 241.390906 
L 330.049225 236.371593 
L 330.167528 241.021833 
L 330.285513 232.974996 
L 330.403183 240.11201 
L 330.52054 239.819517 
L 330.754321 237.601564 
L 330.870748 233.576597 
L 331.102683 238.506593 
L 331.218194 235.256439 
L 331.448312 241.156673 
L 331.562922 238.048619 
L 331.791252 240.248954 
L 332.018405 236.257355 
L 332.244392 240.981837 
L 332.356953 236.473324 
L 332.469227 240.628689 
L 332.692921 235.748713 
L 332.804343 241.444753 
L 332.915485 240.154679 
L 333.026346 240.367046 
L 333.13693 238.806983 
L 333.247237 240.31301 
L 333.357268 238.543441 
L 333.467025 234.514171 
L 333.685723 241.180552 
L 333.794667 240.009149 
L 334.011748 240.749072 
L 334.11989 239.03186 
L 334.227766 241.13347 
L 334.335379 237.842438 
L 334.44273 240.78595 
L 334.54982 240.019447 
L 334.656651 240.440529 
L 334.763223 231.421618 
L 334.975597 240.47773 
L 335.081401 238.714557 
L 335.186952 238.91274 
L 335.292251 238.695627 
L 335.397299 238.955143 
L 335.502097 238.054493 
L 335.606646 239.054629 
L 335.710948 238.459867 
L 335.815004 240.3078 
L 336.022381 238.470197 
L 336.125704 240.864882 
L 336.228786 239.362034 
L 336.331628 234.886413 
L 336.43423 239.529662 
L 336.536593 239.366559 
L 336.63872 233.63158 
L 336.842265 240.468844 
L 336.943687 239.784705 
L 337.044875 240.562346 
L 337.246558 236.54382 
L 337.447321 240.198424 
L 337.647174 240.782598 
L 337.746762 233.042787 
L 337.846125 239.687724 
L 337.945265 237.617886 
L 338.044182 240.472663 
L 338.142877 240.359532 
L 338.241352 232.676696 
L 338.437644 239.204691 
L 338.535464 233.601954 
L 338.633066 240.815749 
L 338.730453 240.02521 
L 338.827625 240.388888 
L 338.924583 235.26298 
L 339.117862 240.845032 
L 339.214185 240.317338 
L 339.310297 232.736569 
L 339.406201 241.007942 
L 339.501896 238.240683 
L 339.597383 240.586744 
L 339.692664 239.685041 
L 339.882611 241.445066 
L 340.166004 238.383402 
L 340.260065 235.573585 
L 340.447587 240.347192 
L 340.54105 241.469598 
L 340.727382 239.428844 
L 340.820253 241.274421 
L 340.91293 239.176233 
L 341.097699 240.754007 
L 341.281698 238.693991 
L 341.37341 233.835462 
L 341.464931 241.028012 
L 341.556263 234.146117 
L 341.73836 240.888251 
L 341.829128 241.330509 
L 341.919708 241.164848 
L 342.010103 238.991462 
L 342.190339 240.608658 
L 342.280181 236.559706 
L 342.36984 240.73994 
L 342.459317 240.620166 
L 342.548613 237.889692 
L 342.637729 241.509673 
L 342.726664 239.501944 
L 342.815421 240.991302 
L 342.903999 239.383421 
L 342.992399 240.657727 
L 343.168669 235.559598 
L 343.344237 240.610997 
L 343.519109 240.909767 
L 343.693289 240.180463 
L 343.780122 241.373442 
L 343.866783 240.345501 
L 343.953275 241.096614 
L 344.039598 240.588399 
L 344.211737 241.516038 
L 344.297555 239.296674 
L 344.383206 240.539011 
L 344.468691 238.879379 
L 344.55401 240.100807 
L 344.639165 235.149569 
L 344.724155 241.373998 
L 344.808982 241.003696 
L 344.978148 231.724316 
L 345.062488 241.396682 
L 345.146666 239.876559 
L 345.230684 241.104349 
L 345.314543 237.441998 
L 345.398242 240.779117 
L 345.481782 239.045168 
L 345.565164 241.368374 
L 345.648389 238.493346 
L 345.731457 241.371237 
L 345.814369 234.435318 
L 345.979726 241.393876 
L 346.144464 239.837566 
L 346.226603 241.043947 
L 346.308589 234.935356 
L 346.390423 240.485387 
L 346.472105 236.975229 
L 346.635017 241.515624 
L 346.716247 240.27999 
L 346.797329 240.526678 
L 346.878261 241.333512 
L 346.959044 236.743184 
L 347.03968 240.862383 
L 347.120169 237.873916 
L 347.200511 241.266812 
L 347.280707 241.109793 
L 347.360757 241.089908 
L 347.440662 239.888701 
L 347.520422 241.221944 
L 347.600038 236.063563 
L 347.75884 241.248869 
L 347.838027 241.261083 
L 347.917072 236.791801 
L 347.995975 241.07903 
L 348.074738 240.750827 
L 348.15336 240.408027 
L 348.231841 235.459265 
L 348.388387 241.149358 
L 348.466452 241.162714 
L 348.544378 238.842569 
L 348.622168 241.195545 
L 348.69982 235.344295 
L 348.854714 241.364379 
L 348.931958 240.281195 
L 349.009067 241.331164 
L 349.086041 241.21196 
L 349.16288 240.333628 
L 349.239586 237.65684 
L 349.316159 238.810628 
L 349.392599 241.398458 
L 349.468906 240.92611 
L 349.545082 241.467556 
L 349.697039 240.819057 
L 349.772821 240.874002 
L 349.848474 241.381071 
L 349.923996 235.63257 
L 350.074655 240.908992 
L 350.149791 240.530684 
L 350.2248 241.480452 
L 350.299681 233.738961 
L 350.374435 241.24164 
L 350.449063 240.722507 
L 350.523564 241.303028 
L 350.59794 234.849021 
L 350.67219 241.552658 
L 350.746315 241.522133 
L 350.967946 238.627976 
L 351.041576 238.402296 
L 351.115083 240.469759 
L 351.188468 234.730556 
L 351.334872 238.865517 
L 351.407892 235.81286 
L 351.55357 241.429093 
L 351.626229 237.920386 
L 351.698768 240.696977 
L 351.771188 237.704547 
L 351.915672 241.26583 
L 351.987736 241.538432 
L 352.059683 238.366468 
L 352.131513 238.494107 
L 352.274822 241.215395 
L 352.346302 241.311062 
L 352.417667 240.692068 
L 352.488916 240.839988 
L 352.56005 240.758765 
L 352.701974 240.862127 
L 352.772766 240.68217 
L 352.843443 240.032346 
L 352.98446 241.50524 
L 353.054799 241.281281 
L 353.195141 241.520447 
L 353.265145 239.839648 
L 353.335038 241.496946 
L 353.404821 239.164753 
L 353.474493 241.529272 
L 353.544055 240.856333 
L 353.613507 237.621573 
L 353.752084 241.260136 
L 353.82121 240.336506 
L 353.890227 237.447969 
L 353.959137 241.446086 
L 354.027938 241.25613 
L 354.096633 237.94583 
L 354.165221 241.047848 
L 354.302076 238.820994 
L 354.370345 240.568216 
L 354.438508 237.584525 
L 354.574519 241.451903 
L 354.710112 239.359163 
L 354.777752 241.228368 
L 354.845289 237.383595 
L 354.912722 241.51038 
L 354.980052 239.505267 
L 355.047279 241.527164 
L 355.181427 237.670334 
L 355.315168 241.540841 
L 355.381886 241.540476 
L 355.448504 237.079148 
L 355.581438 241.544859 
L 355.713972 241.494762 
L 355.780089 239.637288 
L 355.97785 241.548013 
L 356.043573 241.567661 
L 356.240157 238.28166 
L 356.305491 241.534567 
L 356.370728 238.249779 
L 356.435868 239.241861 
L 356.500913 240.25675 
L 356.565861 238.611071 
L 356.695472 240.925237 
L 356.760134 238.957798 
L 356.824702 241.517741 
L 356.889175 240.358811 
L 356.953555 241.532076 
L 357.01784 236.366427 
L 357.082031 239.598883 
L 357.14613 240.104529 
L 357.210135 241.514293 
L 357.274047 238.750469 
L 357.337867 241.403123 
L 357.401594 239.670353 
L 357.46523 241.530591 
L 357.528773 241.119925 
L 357.592226 241.428247 
L 357.655587 239.681229 
L 357.718857 241.539877 
L 357.782036 241.250609 
L 357.971032 241.504959 
L 358.033851 241.181206 
L 358.096581 241.350378 
L 358.159221 235.378001 
L 358.221773 239.284415 
L 358.408896 241.403428 
L 358.533205 240.293804 
L 358.595228 240.697224 
L 358.657165 236.357378 
L 358.719014 239.711573 
L 358.780776 241.533445 
L 358.842452 241.331626 
L 358.965546 241.56987 
L 359.026964 237.049826 
L 359.088297 241.427181 
L 359.149544 241.208021 
L 359.210707 240.7666 
L 359.271784 240.865561 
L 359.454511 241.530923 
L 359.575909 240.785593 
L 359.636483 241.392896 
L 359.696974 240.578394 
L 359.757382 240.796147 
L 359.87795 241.482931 
L 359.93811 238.765122 
L 359.998189 239.127952 
L 360.058185 241.443384 
L 360.1181 237.942562 
L 360.177934 241.160481 
L 360.237687 240.083328 
L 360.297358 239.761608 
L 360.356949 241.353336 
L 360.41646 239.95395 
L 360.47589 241.554755 
L 360.53524 239.570068 
L 360.653702 241.555224 
L 360.712813 241.512132 
L 360.771845 238.86667 
L 360.830798 239.628425 
L 360.889673 239.668607 
L 361.007186 241.505546 
L 361.065826 241.476569 
L 361.124387 239.390691 
L 361.182871 241.457637 
L 361.241277 239.413158 
L 361.299606 241.556668 
L 361.357858 240.567598 
L 361.474132 241.535337 
L 361.532153 236.442545 
L 361.590099 240.159107 
L 361.647968 240.239409 
L 361.705762 241.552334 
L 361.763479 236.611417 
L 361.821122 241.546022 
L 361.878689 236.084321 
L 361.936181 241.577584 
L 361.993598 237.702487 
L 362.108208 241.515763 
L 362.165401 241.341409 
L 362.22252 239.697969 
L 362.279566 241.526082 
L 362.336537 241.326621 
L 362.393435 240.692281 
L 362.45026 241.265421 
L 362.507012 241.55111 
L 362.56369 233.337245 
L 362.620296 240.394301 
L 362.676829 239.397981 
L 362.845994 241.482549 
L 362.902239 237.565137 
L 362.958412 241.386108 
L 363.070543 241.589606 
L 363.126501 240.943315 
L 363.182389 241.457677 
L 363.238206 237.094614 
L 363.349629 241.58277 
L 363.405234 240.312691 
L 363.46077 241.509029 
L 363.516236 241.472437 
L 363.571632 239.158746 
L 363.626958 241.559871 
L 363.682215 236.040247 
L 363.737403 241.476117 
L 363.792522 241.550293 
L 363.847572 241.215698 
L 363.902554 241.558931 
L 363.957466 241.56486 
L 364.012311 241.317657 
L 364.067087 241.463327 
L 364.121795 241.586732 
L 364.285514 240.77223 
L 364.339952 241.483232 
L 364.394323 241.364541 
L 364.448627 240.767836 
L 364.502864 241.314173 
L 364.557034 241.508989 
L 364.665175 238.542713 
L 364.773052 241.459027 
L 364.880665 238.517118 
L 365.041593 241.575025 
L 365.148553 238.635229 
L 365.201936 241.45904 
L 365.255254 239.385199 
L 365.361698 240.921147 
L 365.467885 236.530764 
L 365.520882 238.645699 
L 365.573816 239.248516 
L 365.626687 241.435167 
L 365.679494 240.12642 
L 365.732238 239.056668 
L 365.784919 241.573962 
L 365.890092 241.449147 
L 365.942584 240.516222 
L 365.995014 233.921925 
L 366.099688 241.590207 
L 366.151932 241.52197 
L 366.256234 241.567858 
L 366.412225 235.768809 
L 366.4641 241.572383 
L 366.567666 241.036647 
L 366.619358 240.657645 
L 366.67099 241.129837 
L 366.722561 238.984595 
L 366.774072 241.591257 
L 366.825523 241.264276 
L 366.876913 241.157817 
L 366.979515 238.358413 
L 367.081879 241.54601 
L 367.184005 239.58994 
L 367.23498 241.551528 
L 367.336753 241.521134 
L 367.387551 241.164424 
L 367.438291 239.532986 
L 367.488972 241.43029 
L 367.539595 241.591851 
L 367.691117 240.371514 
L 367.741509 241.521196 
L 367.791843 237.646671 
L 367.84212 241.1196 
L 367.892339 239.125503 
L 367.942501 241.583911 
L 367.992607 237.69407 
L 368.042655 239.289326 
L 368.092646 241.576011 
L 368.19246 241.380454 
L 368.242282 240.078434 
L 368.292047 240.30388 
L 368.49055 241.550263 
L 368.391411 240.27153 
L 368.540036 241.482483 
L 368.589467 239.397438 
L 368.638843 241.478356 
L 368.688163 241.590996 
L 368.786638 241.293458 
L 368.933939 236.163021 
L 368.98293 241.531339 
L 369.080749 241.336586 
L 369.227072 238.963748 
L 369.275738 239.379954 
L 369.324351 241.506046 
L 369.372911 241.280579 
L 369.421416 239.566349 
L 369.469869 240.612497 
L 369.518268 241.526574 
L 369.566614 237.199312 
L 369.614908 238.792399 
L 369.75947 241.410706 
L 369.807553 241.479201 
L 369.855583 240.018577 
L 369.903561 241.587187 
L 369.951486 240.330462 
L 369.99936 240.380715 
L 370.094951 239.593442 
L 370.142669 241.50548 
L 370.190335 238.599269 
L 370.23795 240.88848 
L 370.285513 241.447629 
L 370.380487 237.166231 
L 370.427896 241.444368 
L 370.522564 241.169752 
L 370.617028 241.450127 
L 370.71129 241.584806 
L 370.758345 239.529753 
L 370.899211 241.484808 
L 370.946067 240.031703 
L 370.992873 241.587588 
L 371.039629 240.816693 
L 371.086335 241.260466 
L 371.1796 241.586557 
L 371.272667 239.94524 
L 371.365539 241.548332 
L 371.411901 241.337475 
L 371.458215 238.657391 
L 371.50448 241.573273 
L 371.550697 240.206802 
L 371.596865 241.485401 
L 371.642985 241.446435 
L 371.689057 241.549656 
L 371.73508 241.566706 
L 371.781056 241.313903 
L 371.826983 241.357542 
L 371.872863 241.561118 
L 371.96448 240.320251 
L 372.010216 241.588 
L 372.101548 241.507696 
L 372.147143 239.011837 
L 372.192691 241.375168 
L 372.238192 240.459135 
L 372.283646 241.09605 
L 372.329053 241.536953 
L 372.374413 238.824921 
L 372.419727 241.384627 
L 372.510214 240.596488 
L 372.555389 241.054 
L 372.600517 239.117929 
L 372.645599 240.74712 
L 372.690634 241.052712 
L 372.735624 239.477431 
L 372.825466 240.038001 
L 372.870319 241.289082 
L 372.959887 240.75482 
L 373.049274 238.453788 
L 373.093899 240.196383 
L 373.138479 240.767006 
L 373.183014 240.57982 
L 373.227504 240.097576 
L 373.27195 241.582558 
L 373.31635 240.769916 
L 373.360706 239.133802 
L 373.405017 241.478601 
L 373.449284 241.30305 
L 373.493506 240.447083 
L 373.537684 241.119435 
L 373.581818 241.583478 
L 373.581818 241.583478 
" style="fill:none;stroke:#225da8;stroke-linecap:square;"/>
   </g>
   <g id="patch_3">
    <path d="M 54 252 
L 54 34.56 
" style="fill:none;stroke:#000000;stroke-linecap:square;stroke-linejoin:miter;stroke-width:0.8;"/>
   </g>
   <g id="patch_4">
    <path d="M 388.8 252 
L 388.8 34.56 
" style="fill:none;stroke:#000000;stroke-linecap:square;stroke-linejoin:miter;stroke-width:0.8;"/>
   </g>
   <g id="patch_5">
    <path d="M 54 252 
L 388.8 252 
" style="fill:none;stroke:#000000;stroke-linecap:square;stroke-linejoin:miter;stroke-width:0.8;"/>
   </g>
   <g id="patch_6">
    <path d="M 54 34.56 
L 388.8 34.56 
" style="fill:none;stroke:#000000;stroke-linecap:square;stroke-linejoin:miter;stroke-width:0.8;"/>
   </g>
   <g id="legend_1">
    <g id="patch_7">
     <path d="M 308.103125 57.238125 
L 381.8 57.238125 
Q 383.8 57.238125 383.8 55.238125 
L 383.8 41.56 
Q 383.8 39.56 381.8 39.56 
L 308.103125 39.56 
Q 306.103125 39.56 306.103125 41.56 
L 306.103125 55.238125 
Q 306.103125 57.238125 308.103125 57.238125 
z
" style="fill:#ffffff;opacity:0.8;stroke:#cccccc;stroke-linejoin:miter;"/>
    </g>
    <g id="line2d_41">
     <path d="M 310.103125 47.658437 
L 330.103125 47.658437 
" style="fill:none;stroke:#225da8;stroke-linecap:square;"/>
    </g>
    <g id="line2d_42"/>
    <g id="text_16">
     <text style="font-family:DejaVu Sans;font-size:10px;font-style:normal;font-weight:normal;text-anchor:start;" transform="rotate(-0, 338.103125, 51.158437)" x="338.103125" y="51.158437">test loss</text>
    </g>
   </g>
  </g>
  <g id="text_17">
   <text style="font-family:DejaVu Sans;font-size:12px;font-style:normal;font-weight:normal;text-anchor:middle;" transform="rotate(-0, 216, 14.878125)" x="216" y="14.878125">Loss atg5pc reconstruction from atg pig and cala</text>
  </g>
 </g>
 <defs>
  <clipPath id="pdf7632716a">
   <rect height="217.44" width="334.8" x="54" y="34.56"/>
  </clipPath>
 </defs>
</svg>
