<?xml version="1.0" encoding="utf-8" standalone="no"?>
<!DOCTYPE svg PUBLIC "-//W3C//DTD SVG 1.1//EN"
  "http://www.w3.org/Graphics/SVG/1.1/DTD/svg11.dtd">
<!-- Created with matplotlib (https://matplotlib.org/) -->
<svg height="288pt" version="1.1" viewBox="0 0 432 288" width="432pt" xmlns="http://www.w3.org/2000/svg" xmlns:xlink="http://www.w3.org/1999/xlink">
 <defs>
  <style type="text/css">
*{stroke-linecap:butt;stroke-linejoin:round;}
  </style>
 </defs>
 <g id="figure_1">
  <g id="patch_1">
   <path d="M 0 288 
L 432 288 
L 432 0 
L 0 0 
z
" style="fill:#ffffff;"/>
  </g>
  <g id="axes_1">
   <g id="patch_2">
    <path d="M 54 252 
L 388.8 252 
L 388.8 34.56 
L 54 34.56 
z
" style="fill:#ffffff;"/>
   </g>
   <g id="matplotlib.axis_1">
    <g id="xtick_1">
     <g id="line2d_1">
      <defs>
       <path d="M 0 0 
L 0 3.5 
" id="mf6d731bcbc" style="stroke:#000000;stroke-width:0.8;"/>
      </defs>
      <g>
       <use style="stroke:#000000;stroke-width:0.8;" x="69.218182" xlink:href="#mf6d731bcbc" y="252"/>
      </g>
     </g>
     <g id="text_1">
      <text style="font-family:DejaVu Sans;font-size:10px;font-style:normal;font-weight:normal;text-anchor:middle;" transform="rotate(-0, 69.218182, 266.598437)" x="69.218182" y="266.598437">0</text>
     </g>
    </g>
    <g id="xtick_2">
     <g id="line2d_2">
      <g>
       <use style="stroke:#000000;stroke-width:0.8;" x="119.962369" xlink:href="#mf6d731bcbc" y="252"/>
      </g>
     </g>
     <g id="text_2">
      <text style="font-family:DejaVu Sans;font-size:10px;font-style:normal;font-weight:normal;text-anchor:middle;" transform="rotate(-0, 119.962369, 266.598437)" x="119.962369" y="266.598437">500</text>
     </g>
    </g>
    <g id="xtick_3">
     <g id="line2d_3">
      <g>
       <use style="stroke:#000000;stroke-width:0.8;" x="170.706557" xlink:href="#mf6d731bcbc" y="252"/>
      </g>
     </g>
     <g id="text_3">
      <text style="font-family:DejaVu Sans;font-size:10px;font-style:normal;font-weight:normal;text-anchor:middle;" transform="rotate(-0, 170.706557, 266.598437)" x="170.706557" y="266.598437">1000</text>
     </g>
    </g>
    <g id="xtick_4">
     <g id="line2d_4">
      <g>
       <use style="stroke:#000000;stroke-width:0.8;" x="221.450744" xlink:href="#mf6d731bcbc" y="252"/>
      </g>
     </g>
     <g id="text_4">
      <text style="font-family:DejaVu Sans;font-size:10px;font-style:normal;font-weight:normal;text-anchor:middle;" transform="rotate(-0, 221.450744, 266.598437)" x="221.450744" y="266.598437">1500</text>
     </g>
    </g>
    <g id="xtick_5">
     <g id="line2d_5">
      <g>
       <use style="stroke:#000000;stroke-width:0.8;" x="272.194932" xlink:href="#mf6d731bcbc" y="252"/>
      </g>
     </g>
     <g id="text_5">
      <text style="font-family:DejaVu Sans;font-size:10px;font-style:normal;font-weight:normal;text-anchor:middle;" transform="rotate(-0, 272.194932, 266.598437)" x="272.194932" y="266.598437">2000</text>
     </g>
    </g>
    <g id="xtick_6">
     <g id="line2d_6">
      <g>
       <use style="stroke:#000000;stroke-width:0.8;" x="322.939119" xlink:href="#mf6d731bcbc" y="252"/>
      </g>
     </g>
     <g id="text_6">
      <text style="font-family:DejaVu Sans;font-size:10px;font-style:normal;font-weight:normal;text-anchor:middle;" transform="rotate(-0, 322.939119, 266.598437)" x="322.939119" y="266.598437">2500</text>
     </g>
    </g>
    <g id="xtick_7">
     <g id="line2d_7">
      <g>
       <use style="stroke:#000000;stroke-width:0.8;" x="373.683307" xlink:href="#mf6d731bcbc" y="252"/>
      </g>
     </g>
     <g id="text_7">
      <text style="font-family:DejaVu Sans;font-size:10px;font-style:normal;font-weight:normal;text-anchor:middle;" transform="rotate(-0, 373.683307, 266.598437)" x="373.683307" y="266.598437">3000</text>
     </g>
    </g>
    <g id="text_8">
     <text style="font-family:DejaVu Sans;font-size:10px;font-style:normal;font-weight:normal;text-anchor:middle;" transform="rotate(-0, 221.4, 280.276563)" x="221.4" y="280.276563">Time</text>
    </g>
   </g>
   <g id="matplotlib.axis_2">
    <g id="ytick_1">
     <g id="line2d_8">
      <defs>
       <path d="M 0 0 
L -3.5 0 
" id="m51ef3c81e9" style="stroke:#000000;stroke-width:0.8;"/>
      </defs>
      <g>
       <use style="stroke:#000000;stroke-width:0.8;" x="54" xlink:href="#m51ef3c81e9" y="220.085049"/>
      </g>
     </g>
     <g id="text_9">
      <text style="font-family:DejaVu Sans;font-size:10px;font-style:normal;font-weight:normal;text-anchor:end;" transform="rotate(-0, 47, 223.884268)" x="47" y="223.884268">−80</text>
     </g>
    </g>
    <g id="ytick_2">
     <g id="line2d_9">
      <g>
       <use style="stroke:#000000;stroke-width:0.8;" x="54" xlink:href="#m51ef3c81e9" y="181.322637"/>
      </g>
     </g>
     <g id="text_10">
      <text style="font-family:DejaVu Sans;font-size:10px;font-style:normal;font-weight:normal;text-anchor:end;" transform="rotate(-0, 47, 185.121856)" x="47" y="185.121856">−60</text>
     </g>
    </g>
    <g id="ytick_3">
     <g id="line2d_10">
      <g>
       <use style="stroke:#000000;stroke-width:0.8;" x="54" xlink:href="#m51ef3c81e9" y="142.560225"/>
      </g>
     </g>
     <g id="text_11">
      <text style="font-family:DejaVu Sans;font-size:10px;font-style:normal;font-weight:normal;text-anchor:end;" transform="rotate(-0, 47, 146.359444)" x="47" y="146.359444">−40</text>
     </g>
    </g>
    <g id="ytick_4">
     <g id="line2d_11">
      <g>
       <use style="stroke:#000000;stroke-width:0.8;" x="54" xlink:href="#m51ef3c81e9" y="103.797813"/>
      </g>
     </g>
     <g id="text_12">
      <text style="font-family:DejaVu Sans;font-size:10px;font-style:normal;font-weight:normal;text-anchor:end;" transform="rotate(-0, 47, 107.597032)" x="47" y="107.597032">−20</text>
     </g>
    </g>
    <g id="ytick_5">
     <g id="line2d_12">
      <g>
       <use style="stroke:#000000;stroke-width:0.8;" x="54" xlink:href="#m51ef3c81e9" y="65.035401"/>
      </g>
     </g>
     <g id="text_13">
      <text style="font-family:DejaVu Sans;font-size:10px;font-style:normal;font-weight:normal;text-anchor:end;" transform="rotate(-0, 47, 68.834619)" x="47" y="68.834619">0</text>
     </g>
    </g>
    <g id="text_14">
     <text style="font-family:DejaVu Sans;font-size:10px;font-style:normal;font-weight:normal;text-anchor:middle;" transform="rotate(-90, 19.815625, 143.28)" x="19.815625" y="143.28">temperature (°C)</text>
    </g>
   </g>
   <g id="line2d_13">
    <path clip-path="url(#pb075a0d4c5)" d="M 69.218182 65.998669 
L 71.85688 65.082261 
L 73.07474 64.89175 
L 73.988135 64.967295 
L 74.800042 65.250173 
L 75.611949 65.771065 
L 76.423856 66.554456 
L 77.337252 67.771796 
L 78.250647 69.352481 
L 79.367019 71.772044 
L 80.58488 74.998771 
L 81.904229 79.125999 
L 83.528043 84.977092 
L 85.55781 93.198696 
L 88.602461 106.577717 
L 92.763485 124.73062 
L 95.097717 133.889752 
L 96.924508 140.193935 
L 98.548322 145.042453 
L 99.969159 148.635807 
L 101.288508 151.410594 
L 102.506369 153.490023 
L 103.622741 155.003715 
L 104.739113 156.163506 
L 105.855485 156.99715 
L 106.870369 157.497999 
L 107.986741 157.798369 
L 109.103113 157.872405 
L 110.320974 157.735961 
L 111.741811 157.358086 
L 113.568602 156.621154 
L 116.308788 155.236367 
L 120.672788 153.040127 
L 123.007021 152.130858 
L 125.138276 151.542503 
L 127.168044 151.214902 
L 129.096323 151.125729 
L 131.024602 151.267968 
L 132.749905 151.61212 
L 134.475207 152.184215 
L 136.301998 153.062106 
L 138.0273 154.140302 
L 139.752602 155.473012 
L 141.477905 157.098804 
L 143.00023 158.845729 
L 144.725533 161.185409 
L 145.740417 162.614618 
L 146.349347 163.027612 
L 147.161254 163.701109 
L 148.480603 165.195051 
L 149.393998 166.556561 
L 150.713347 169.066253 
L 151.728231 171.345715 
L 152.946091 174.78679 
L 156.701161 186.647158 
L 159.948789 198.09742 
L 163.196417 209.591676 
L 165.226184 217.732442 
L 168.575301 231.355007 
L 169.691673 234.91361 
L 170.605068 237.08758 
L 171.315487 238.208143 
L 171.822929 238.67023 
L 172.330371 238.842742 
L 172.634836 238.949533 
L 173.040789 239.772963 
L 173.751208 241.274153 
L 174.25865 241.613072 
L 174.969068 242.116364 
L 175.273534 241.933386 
L 175.780975 241.449689 
L 176.288417 240.604823 
L 176.694371 239.325199 
L 177.303301 236.451528 
L 178.01372 231.857814 
L 178.927115 224.331316 
L 180.246464 211.280768 
L 183.697069 176.268794 
L 185.320883 162.477515 
L 186.843208 151.471316 
L 188.264046 142.746129 
L 189.684883 135.352529 
L 191.10572 129.109552 
L 192.526557 123.855752 
L 193.947395 119.433756 
L 195.368232 115.706982 
L 196.890557 112.33223 
L 198.514371 109.319828 
L 200.239674 106.587796 
L 202.066465 104.148341 
L 204.096232 101.816356 
L 206.126 99.79007 
L 208.561721 97.662363 
L 211.301907 95.550218 
L 214.549535 93.34361 
L 218.304605 91.081397 
L 222.770093 88.673631 
L 231.70107 84.188536 
L 246.518373 76.882213 
L 251.288326 74.824578 
L 258.291024 72.036532 
L 268.033908 68.45894 
L 273.006839 66.76681 
L 277.472327 65.485969 
L 281.328885 64.663407 
L 286.098839 63.975585 
L 292.594095 63.331046 
L 297.770002 63.125786 
L 301.931025 63.188121 
L 306.295026 63.520136 
L 310.963491 64.118139 
L 314.414096 64.48119 
L 317.8647 64.579539 
L 323.649538 64.45176 
L 330.246282 64.312686 
L 333.290933 64.466542 
L 336.031119 64.820261 
L 339.481724 65.524656 
L 342.120422 66.272456 
L 344.657631 67.212592 
L 347.296329 68.427222 
L 351.761818 70.788208 
L 355.313911 72.613917 
L 358.46005 73.960878 
L 361.60619 75.02537 
L 364.650841 75.765249 
L 368.405911 76.427329 
L 372.8714 76.938446 
L 373.581818 77.014647 
L 373.581818 77.014647 
" style="fill:none;stroke:#40b5c4;stroke-dasharray:5.55,2.4;stroke-dashoffset:0;stroke-width:1.5;"/>
    <defs>
     <path d="M 0 3 
C 0.795609 3 1.55874 2.683901 2.12132 2.12132 
C 2.683901 1.55874 3 0.795609 3 0 
C 3 -0.795609 2.683901 -1.55874 2.12132 -2.12132 
C 1.55874 -2.683901 0.795609 -3 0 -3 
C -0.795609 -3 -1.55874 -2.683901 -2.12132 -2.12132 
C -2.683901 -1.55874 -3 -0.795609 -3 0 
C -3 0.795609 -2.683901 1.55874 -2.12132 2.12132 
C -1.55874 2.683901 -0.795609 3 0 3 
z
" id="m0f4099b27d" style="stroke:#40b5c4;"/>
    </defs>
    <g clip-path="url(#pb075a0d4c5)">
     <use style="fill:#40b5c4;stroke:#40b5c4;" x="69.218182" xlink:href="#m0f4099b27d" y="65.998669"/>
     <use style="fill:#40b5c4;stroke:#40b5c4;" x="77.337252" xlink:href="#m0f4099b27d" y="67.771796"/>
     <use style="fill:#40b5c4;stroke:#40b5c4;" x="85.456322" xlink:href="#m0f4099b27d" y="92.769616"/>
     <use style="fill:#40b5c4;stroke:#40b5c4;" x="93.575392" xlink:href="#m0f4099b27d" y="128.035988"/>
     <use style="fill:#40b5c4;stroke:#40b5c4;" x="101.694462" xlink:href="#m0f4099b27d" y="152.154135"/>
     <use style="fill:#40b5c4;stroke:#40b5c4;" x="109.813532" xlink:href="#m0f4099b27d" y="157.818389"/>
     <use style="fill:#40b5c4;stroke:#40b5c4;" x="117.932602" xlink:href="#m0f4099b27d" y="154.374814"/>
     <use style="fill:#40b5c4;stroke:#40b5c4;" x="126.051672" xlink:href="#m0f4099b27d" y="151.366173"/>
     <use style="fill:#40b5c4;stroke:#40b5c4;" x="134.170742" xlink:href="#m0f4099b27d" y="152.065466"/>
     <use style="fill:#40b5c4;stroke:#40b5c4;" x="142.289812" xlink:href="#m0f4099b27d" y="157.990223"/>
     <use style="fill:#40b5c4;stroke:#40b5c4;" x="150.408882" xlink:href="#m0f4099b27d" y="168.460765"/>
     <use style="fill:#40b5c4;stroke:#40b5c4;" x="158.527952" xlink:href="#m0f4099b27d" y="193.196475"/>
     <use style="fill:#40b5c4;stroke:#40b5c4;" x="166.647022" xlink:href="#m0f4099b27d" y="223.734104"/>
     <use style="fill:#40b5c4;stroke:#40b5c4;" x="174.766092" xlink:href="#m0f4099b27d" y="242.049828"/>
     <use style="fill:#40b5c4;stroke:#40b5c4;" x="182.885162" xlink:href="#m0f4099b27d" y="183.953829"/>
     <use style="fill:#40b5c4;stroke:#40b5c4;" x="191.004232" xlink:href="#m0f4099b27d" y="129.520065"/>
     <use style="fill:#40b5c4;stroke:#40b5c4;" x="199.123302" xlink:href="#m0f4099b27d" y="108.30466"/>
     <use style="fill:#40b5c4;stroke:#40b5c4;" x="207.242372" xlink:href="#m0f4099b27d" y="98.780658"/>
     <use style="fill:#40b5c4;stroke:#40b5c4;" x="215.361442" xlink:href="#m0f4099b27d" y="92.830977"/>
     <use style="fill:#40b5c4;stroke:#40b5c4;" x="223.480512" xlink:href="#m0f4099b27d" y="88.308469"/>
     <use style="fill:#40b5c4;stroke:#40b5c4;" x="231.599582" xlink:href="#m0f4099b27d" y="84.239461"/>
     <use style="fill:#40b5c4;stroke:#40b5c4;" x="239.718652" xlink:href="#m0f4099b27d" y="80.119989"/>
     <use style="fill:#40b5c4;stroke:#40b5c4;" x="247.837722" xlink:href="#m0f4099b27d" y="76.293765"/>
     <use style="fill:#40b5c4;stroke:#40b5c4;" x="255.956792" xlink:href="#m0f4099b27d" y="72.939171"/>
     <use style="fill:#40b5c4;stroke:#40b5c4;" x="264.075862" xlink:href="#m0f4099b27d" y="69.891242"/>
     <use style="fill:#40b5c4;stroke:#40b5c4;" x="272.194932" xlink:href="#m0f4099b27d" y="67.027878"/>
     <use style="fill:#40b5c4;stroke:#40b5c4;" x="280.314002" xlink:href="#m0f4099b27d" y="64.847951"/>
     <use style="fill:#40b5c4;stroke:#40b5c4;" x="288.433072" xlink:href="#m0f4099b27d" y="63.717917"/>
     <use style="fill:#40b5c4;stroke:#40b5c4;" x="296.552142" xlink:href="#m0f4099b27d" y="63.150728"/>
     <use style="fill:#40b5c4;stroke:#40b5c4;" x="304.671212" xlink:href="#m0f4099b27d" y="63.362006"/>
     <use style="fill:#40b5c4;stroke:#40b5c4;" x="312.790282" xlink:href="#m0f4099b27d" y="64.340532"/>
     <use style="fill:#40b5c4;stroke:#40b5c4;" x="320.909352" xlink:href="#m0f4099b27d" y="64.533588"/>
     <use style="fill:#40b5c4;stroke:#40b5c4;" x="329.028422" xlink:href="#m0f4099b27d" y="64.306837"/>
     <use style="fill:#40b5c4;stroke:#40b5c4;" x="337.147492" xlink:href="#m0f4099b27d" y="65.018646"/>
     <use style="fill:#40b5c4;stroke:#40b5c4;" x="345.266562" xlink:href="#m0f4099b27d" y="67.471145"/>
     <use style="fill:#40b5c4;stroke:#40b5c4;" x="353.385632" xlink:href="#m0f4099b27d" y="71.651875"/>
     <use style="fill:#40b5c4;stroke:#40b5c4;" x="361.504702" xlink:href="#m0f4099b27d" y="74.996009"/>
     <use style="fill:#40b5c4;stroke:#40b5c4;" x="369.623772" xlink:href="#m0f4099b27d" y="76.570901"/>
    </g>
   </g>
   <g id="line2d_14">
    <path clip-path="url(#pb075a0d4c5)" d="M 69.218182 51.347402 
L 72.770275 50.918693 
L 73.886647 51.04619 
L 75.307484 51.464424 
L 76.423856 51.987484 
L 77.540229 52.744711 
L 77.946182 52.960572 
L 78.149159 53.103518 
L 79.367019 54.642041 
L 80.077438 55.786597 
L 81.092322 58.629198 
L 82.411671 62.837778 
L 84.94888 70.958934 
L 88.09502 80.59311 
L 88.602461 81.334109 
L 89.008415 81.723199 
L 89.92181 82.494581 
L 90.632229 83.490651 
L 92.053066 84.513471 
L 92.661996 85.277358 
L 98.243857 93.136547 
L 100.070648 95.10413 
L 101.18702 95.963871 
L 102.709346 96.870317 
L 104.536136 97.667988 
L 105.956974 98.045492 
L 107.479299 98.194768 
L 109.407578 98.114339 
L 111.437346 97.883796 
L 114.177532 97.318202 
L 116.004323 96.973831 
L 118.64302 96.583307 
L 122.296602 95.863881 
L 125.54423 95.583315 
L 127.472509 95.591549 
L 129.705253 95.775311 
L 130.212695 96.075846 
L 131.836509 97.020483 
L 134.170742 97.532731 
L 135.490091 97.040526 
L 139.448137 94.148906 
L 140.564509 93.541072 
L 142.188323 90.083327 
L 143.101719 88.445147 
L 143.710649 88.08708 
L 144.218091 86.753336 
L 145.53744 83.093461 
L 146.247858 82.660784 
L 146.958277 82.79637 
L 149.191021 82.535968 
L 150.408882 82.369651 
L 151.931207 81.183076 
L 152.540138 80.780337 
L 154.26544 86.042756 
L 155.990742 90.401215 
L 157.614556 93.908623 
L 160.456231 99.756279 
L 161.77558 102.916996 
L 166.342557 116.84974 
L 167.255952 118.498973 
L 168.067859 119.483079 
L 168.676789 119.914802 
L 169.285719 120.106708 
L 169.89465 120.073401 
L 170.50358 119.828433 
L 171.213999 119.279662 
L 172.025906 118.331972 
L 172.837813 117.007773 
L 173.852696 114.735976 
L 175.273534 111.478554 
L 177.506278 106.829043 
L 179.434557 104.219389 
L 180.246464 103.459726 
L 182.98665 101.076863 
L 184.914929 99.449806 
L 194.25186 93.528211 
L 197.905441 91.646128 
L 203.182837 89.254931 
L 211.910837 85.232464 
L 216.579302 82.891589 
L 220.943302 80.426802 
L 224.901349 77.737828 
L 228.453442 75.091057 
L 230.178744 73.637782 
L 232.715954 71.352092 
L 234.644233 69.955844 
L 237.282931 68.269854 
L 238.805256 67.582813 
L 240.327582 67.170384 
L 242.763303 66.791217 
L 244.894559 66.359605 
L 246.822838 65.738001 
L 248.954094 64.661275 
L 251.288326 63.195695 
L 254.130001 61.12284 
L 257.885071 58.031636 
L 263.365443 53.142245 
L 266.308606 50.533628 
L 268.338373 49.134432 
L 273.006839 46.213475 
L 280.41549 45.322544 
L 286.301816 44.807112 
L 292.797072 44.489556 
L 297.87149 44.477298 
L 303.250374 44.731509 
L 313.297723 45.392807 
L 334.10284 46.705395 
L 339.684701 47.458984 
L 356.836236 50.151319 
L 361.910655 50.593718 
L 365.259771 50.715791 
L 370.537167 50.64476 
L 373.581818 50.520985 
L 373.581818 50.520985 
" style="fill:none;stroke:#081d58;stroke-dasharray:5.55,2.4;stroke-dashoffset:0;stroke-width:1.5;"/>
    <defs>
     <path d="M -0 4.242641 
L 4.242641 0 
L 0 -4.242641 
L -4.242641 -0 
z
" id="m2b148c9953" style="stroke:#081d58;stroke-linejoin:miter;"/>
    </defs>
    <g clip-path="url(#pb075a0d4c5)">
     <use style="fill:#081d58;stroke:#081d58;stroke-linejoin:miter;" x="69.218182" xlink:href="#m2b148c9953" y="51.347402"/>
     <use style="fill:#081d58;stroke:#081d58;stroke-linejoin:miter;" x="77.337252" xlink:href="#m2b148c9953" y="52.589632"/>
     <use style="fill:#081d58;stroke:#081d58;stroke-linejoin:miter;" x="85.456322" xlink:href="#m2b148c9953" y="72.562864"/>
     <use style="fill:#081d58;stroke:#081d58;stroke-linejoin:miter;" x="93.575392" xlink:href="#m2b148c9953" y="86.582588"/>
     <use style="fill:#081d58;stroke:#081d58;stroke-linejoin:miter;" x="101.694462" xlink:href="#m2b148c9953" y="96.294468"/>
     <use style="fill:#081d58;stroke:#081d58;stroke-linejoin:miter;" x="109.813532" xlink:href="#m2b148c9953" y="98.087065"/>
     <use style="fill:#081d58;stroke:#081d58;stroke-linejoin:miter;" x="117.932602" xlink:href="#m2b148c9953" y="96.743244"/>
     <use style="fill:#081d58;stroke:#081d58;stroke-linejoin:miter;" x="126.051672" xlink:href="#m2b148c9953" y="95.572816"/>
     <use style="fill:#081d58;stroke:#081d58;stroke-linejoin:miter;" x="134.170742" xlink:href="#m2b148c9953" y="97.532731"/>
     <use style="fill:#081d58;stroke:#081d58;stroke-linejoin:miter;" x="142.289812" xlink:href="#m2b148c9953" y="89.885472"/>
     <use style="fill:#081d58;stroke:#081d58;stroke-linejoin:miter;" x="150.408882" xlink:href="#m2b148c9953" y="82.369651"/>
     <use style="fill:#081d58;stroke:#081d58;stroke-linejoin:miter;" x="158.527952" xlink:href="#m2b148c9953" y="95.570023"/>
     <use style="fill:#081d58;stroke:#081d58;stroke-linejoin:miter;" x="166.647022" xlink:href="#m2b148c9953" y="117.463188"/>
     <use style="fill:#081d58;stroke:#081d58;stroke-linejoin:miter;" x="174.766092" xlink:href="#m2b148c9953" y="112.549435"/>
     <use style="fill:#081d58;stroke:#081d58;stroke-linejoin:miter;" x="182.885162" xlink:href="#m2b148c9953" y="101.16925"/>
     <use style="fill:#081d58;stroke:#081d58;stroke-linejoin:miter;" x="191.004232" xlink:href="#m2b148c9953" y="95.432955"/>
     <use style="fill:#081d58;stroke:#081d58;stroke-linejoin:miter;" x="199.123302" xlink:href="#m2b148c9953" y="91.076499"/>
     <use style="fill:#081d58;stroke:#081d58;stroke-linejoin:miter;" x="207.242372" xlink:href="#m2b148c9953" y="87.400993"/>
     <use style="fill:#081d58;stroke:#081d58;stroke-linejoin:miter;" x="215.361442" xlink:href="#m2b148c9953" y="83.531803"/>
     <use style="fill:#081d58;stroke:#081d58;stroke-linejoin:miter;" x="223.480512" xlink:href="#m2b148c9953" y="78.729795"/>
     <use style="fill:#081d58;stroke:#081d58;stroke-linejoin:miter;" x="231.599582" xlink:href="#m2b148c9953" y="72.308728"/>
     <use style="fill:#081d58;stroke:#081d58;stroke-linejoin:miter;" x="239.718652" xlink:href="#m2b148c9953" y="67.307657"/>
     <use style="fill:#081d58;stroke:#081d58;stroke-linejoin:miter;" x="247.837722" xlink:href="#m2b148c9953" y="65.257943"/>
     <use style="fill:#081d58;stroke:#081d58;stroke-linejoin:miter;" x="255.956792" xlink:href="#m2b148c9953" y="59.658558"/>
     <use style="fill:#081d58;stroke:#081d58;stroke-linejoin:miter;" x="264.075862" xlink:href="#m2b148c9953" y="52.475206"/>
     <use style="fill:#081d58;stroke:#081d58;stroke-linejoin:miter;" x="272.194932" xlink:href="#m2b148c9953" y="46.630414"/>
     <use style="fill:#081d58;stroke:#081d58;stroke-linejoin:miter;" x="280.314002" xlink:href="#m2b148c9953" y="45.333599"/>
     <use style="fill:#081d58;stroke:#081d58;stroke-linejoin:miter;" x="288.433072" xlink:href="#m2b148c9953" y="44.668967"/>
     <use style="fill:#081d58;stroke:#081d58;stroke-linejoin:miter;" x="296.552142" xlink:href="#m2b148c9953" y="44.449514"/>
     <use style="fill:#081d58;stroke:#081d58;stroke-linejoin:miter;" x="304.671212" xlink:href="#m2b148c9953" y="44.822"/>
     <use style="fill:#081d58;stroke:#081d58;stroke-linejoin:miter;" x="312.790282" xlink:href="#m2b148c9953" y="45.363623"/>
     <use style="fill:#081d58;stroke:#081d58;stroke-linejoin:miter;" x="320.909352" xlink:href="#m2b148c9953" y="45.790746"/>
     <use style="fill:#081d58;stroke:#081d58;stroke-linejoin:miter;" x="329.028422" xlink:href="#m2b148c9953" y="46.199953"/>
     <use style="fill:#081d58;stroke:#081d58;stroke-linejoin:miter;" x="337.147492" xlink:href="#m2b148c9953" y="47.096849"/>
     <use style="fill:#081d58;stroke:#081d58;stroke-linejoin:miter;" x="345.266562" xlink:href="#m2b148c9953" y="48.426876"/>
     <use style="fill:#081d58;stroke:#081d58;stroke-linejoin:miter;" x="353.385632" xlink:href="#m2b148c9953" y="49.732987"/>
     <use style="fill:#081d58;stroke:#081d58;stroke-linejoin:miter;" x="361.504702" xlink:href="#m2b148c9953" y="50.566095"/>
     <use style="fill:#081d58;stroke:#081d58;stroke-linejoin:miter;" x="369.623772" xlink:href="#m2b148c9953" y="50.675386"/>
    </g>
   </g>
   <g id="patch_3">
    <path d="M 54 252 
L 54 34.56 
" style="fill:none;stroke:#000000;stroke-linecap:square;stroke-linejoin:miter;stroke-width:0.8;"/>
   </g>
   <g id="patch_4">
    <path d="M 388.8 252 
L 388.8 34.56 
" style="fill:none;stroke:#000000;stroke-linecap:square;stroke-linejoin:miter;stroke-width:0.8;"/>
   </g>
   <g id="patch_5">
    <path d="M 54 252 
L 388.8 252 
" style="fill:none;stroke:#000000;stroke-linecap:square;stroke-linejoin:miter;stroke-width:0.8;"/>
   </g>
   <g id="patch_6">
    <path d="M 54 34.56 
L 388.8 34.56 
" style="fill:none;stroke:#000000;stroke-linecap:square;stroke-linejoin:miter;stroke-width:0.8;"/>
   </g>
   <g id="legend_1">
    <g id="patch_7">
     <path d="M 280.085938 247 
L 381.8 247 
Q 383.8 247 383.8 245 
L 383.8 216.64375 
Q 383.8 214.64375 381.8 214.64375 
L 280.085938 214.64375 
Q 278.085938 214.64375 278.085938 216.64375 
L 278.085938 245 
Q 278.085938 247 280.085938 247 
z
" style="fill:#ffffff;opacity:0.8;stroke:#cccccc;stroke-linejoin:miter;"/>
    </g>
    <g id="line2d_15">
     <path d="M 282.085938 222.742188 
L 302.085938 222.742188 
" style="fill:none;stroke:#40b5c4;stroke-dasharray:5.55,2.4;stroke-dashoffset:0;stroke-width:1.5;"/>
    </g>
    <g id="line2d_16">
     <g>
      <use style="fill:#40b5c4;stroke:#40b5c4;" x="292.085938" xlink:href="#m0f4099b27d" y="222.742188"/>
     </g>
    </g>
    <g id="text_15">
     <text style="font-family:DejaVu Sans;font-size:10px;font-style:normal;font-weight:normal;text-anchor:start;" transform="rotate(-0, 310.085938, 226.242188)" x="310.085938" y="226.242188">original</text>
    </g>
    <g id="line2d_17">
     <path d="M 282.085938 237.420312 
L 302.085938 237.420312 
" style="fill:none;stroke:#081d58;stroke-dasharray:5.55,2.4;stroke-dashoffset:0;stroke-width:1.5;"/>
    </g>
    <g id="line2d_18">
     <g>
      <use style="fill:#081d58;stroke:#081d58;stroke-linejoin:miter;" x="292.085938" xlink:href="#m2b148c9953" y="237.420312"/>
     </g>
    </g>
    <g id="text_16">
     <text style="font-family:DejaVu Sans;font-size:10px;font-style:normal;font-weight:normal;text-anchor:start;" transform="rotate(-0, 310.085938, 240.920312)" x="310.085938" y="240.920312">reconstructed</text>
    </g>
   </g>
  </g>
  <g id="text_17">
   <text style="font-family:DejaVu Sans;font-size:12px;font-style:normal;font-weight:normal;text-anchor:middle;" transform="rotate(-0, 216, 14.878125)" x="216" y="14.878125">Reconstruction of the temperature curve</text>
  </g>
 </g>
 <defs>
  <clipPath id="pb075a0d4c5">
   <rect height="217.44" width="334.8" x="54" y="34.56"/>
  </clipPath>
 </defs>
</svg>
