<?xml version="1.0" encoding="utf-8" standalone="no"?>
<!DOCTYPE svg PUBLIC "-//W3C//DTD SVG 1.1//EN"
  "http://www.w3.org/Graphics/SVG/1.1/DTD/svg11.dtd">
<!-- Created with matplotlib (https://matplotlib.org/) -->
<svg height="288pt" version="1.1" viewBox="0 0 432 288" width="432pt" xmlns="http://www.w3.org/2000/svg" xmlns:xlink="http://www.w3.org/1999/xlink">
 <defs>
  <style type="text/css">
*{stroke-linecap:butt;stroke-linejoin:round;}
  </style>
 </defs>
 <g id="figure_1">
  <g id="patch_1">
   <path d="M 0 288 
L 432 288 
L 432 0 
L 0 0 
z
" style="fill:#ffffff;"/>
  </g>
  <g id="axes_1">
   <g id="patch_2">
    <path d="M 54 252 
L 388.8 252 
L 388.8 34.56 
L 54 34.56 
z
" style="fill:#ffffff;"/>
   </g>
   <g id="matplotlib.axis_1">
    <g id="xtick_1">
     <g id="line2d_1">
      <defs>
       <path d="M 0 0 
L 0 3.5 
" id="m0bcd80d4f3" style="stroke:#000000;stroke-width:0.8;"/>
      </defs>
      <g>
       <use style="stroke:#000000;stroke-width:0.8;" x="69.218182" xlink:href="#m0bcd80d4f3" y="252"/>
      </g>
     </g>
     <g id="text_1">
      <text style="font-family:DejaVu Sans;font-size:10px;font-style:normal;font-weight:normal;text-anchor:middle;" transform="rotate(-0, 69.218182, 266.598437)" x="69.218182" y="266.598437">0</text>
     </g>
    </g>
    <g id="xtick_2">
     <g id="line2d_2">
      <g>
       <use style="stroke:#000000;stroke-width:0.8;" x="119.962369" xlink:href="#m0bcd80d4f3" y="252"/>
      </g>
     </g>
     <g id="text_2">
      <text style="font-family:DejaVu Sans;font-size:10px;font-style:normal;font-weight:normal;text-anchor:middle;" transform="rotate(-0, 119.962369, 266.598437)" x="119.962369" y="266.598437">500</text>
     </g>
    </g>
    <g id="xtick_3">
     <g id="line2d_3">
      <g>
       <use style="stroke:#000000;stroke-width:0.8;" x="170.706557" xlink:href="#m0bcd80d4f3" y="252"/>
      </g>
     </g>
     <g id="text_3">
      <text style="font-family:DejaVu Sans;font-size:10px;font-style:normal;font-weight:normal;text-anchor:middle;" transform="rotate(-0, 170.706557, 266.598437)" x="170.706557" y="266.598437">1000</text>
     </g>
    </g>
    <g id="xtick_4">
     <g id="line2d_4">
      <g>
       <use style="stroke:#000000;stroke-width:0.8;" x="221.450744" xlink:href="#m0bcd80d4f3" y="252"/>
      </g>
     </g>
     <g id="text_4">
      <text style="font-family:DejaVu Sans;font-size:10px;font-style:normal;font-weight:normal;text-anchor:middle;" transform="rotate(-0, 221.450744, 266.598437)" x="221.450744" y="266.598437">1500</text>
     </g>
    </g>
    <g id="xtick_5">
     <g id="line2d_5">
      <g>
       <use style="stroke:#000000;stroke-width:0.8;" x="272.194932" xlink:href="#m0bcd80d4f3" y="252"/>
      </g>
     </g>
     <g id="text_5">
      <text style="font-family:DejaVu Sans;font-size:10px;font-style:normal;font-weight:normal;text-anchor:middle;" transform="rotate(-0, 272.194932, 266.598437)" x="272.194932" y="266.598437">2000</text>
     </g>
    </g>
    <g id="xtick_6">
     <g id="line2d_6">
      <g>
       <use style="stroke:#000000;stroke-width:0.8;" x="322.939119" xlink:href="#m0bcd80d4f3" y="252"/>
      </g>
     </g>
     <g id="text_6">
      <text style="font-family:DejaVu Sans;font-size:10px;font-style:normal;font-weight:normal;text-anchor:middle;" transform="rotate(-0, 322.939119, 266.598437)" x="322.939119" y="266.598437">2500</text>
     </g>
    </g>
    <g id="xtick_7">
     <g id="line2d_7">
      <g>
       <use style="stroke:#000000;stroke-width:0.8;" x="373.683307" xlink:href="#m0bcd80d4f3" y="252"/>
      </g>
     </g>
     <g id="text_7">
      <text style="font-family:DejaVu Sans;font-size:10px;font-style:normal;font-weight:normal;text-anchor:middle;" transform="rotate(-0, 373.683307, 266.598437)" x="373.683307" y="266.598437">3000</text>
     </g>
    </g>
    <g id="text_8">
     <text style="font-family:DejaVu Sans;font-size:10px;font-style:normal;font-weight:normal;text-anchor:middle;" transform="rotate(-0, 221.4, 280.276563)" x="221.4" y="280.276563">Time</text>
    </g>
   </g>
   <g id="matplotlib.axis_2">
    <g id="ytick_1">
     <g id="line2d_8">
      <defs>
       <path d="M 0 0 
L -3.5 0 
" id="m7b8c9cefa8" style="stroke:#000000;stroke-width:0.8;"/>
      </defs>
      <g>
       <use style="stroke:#000000;stroke-width:0.8;" x="54" xlink:href="#m7b8c9cefa8" y="224.627932"/>
      </g>
     </g>
     <g id="text_9">
      <text style="font-family:DejaVu Sans;font-size:10px;font-style:normal;font-weight:normal;text-anchor:end;" transform="rotate(-0, 47, 228.427151)" x="47" y="228.427151">47</text>
     </g>
    </g>
    <g id="ytick_2">
     <g id="line2d_9">
      <g>
       <use style="stroke:#000000;stroke-width:0.8;" x="54" xlink:href="#m7b8c9cefa8" y="191.282083"/>
      </g>
     </g>
     <g id="text_10">
      <text style="font-family:DejaVu Sans;font-size:10px;font-style:normal;font-weight:normal;text-anchor:end;" transform="rotate(-0, 47, 195.081302)" x="47" y="195.081302">48</text>
     </g>
    </g>
    <g id="ytick_3">
     <g id="line2d_10">
      <g>
       <use style="stroke:#000000;stroke-width:0.8;" x="54" xlink:href="#m7b8c9cefa8" y="157.936234"/>
      </g>
     </g>
     <g id="text_11">
      <text style="font-family:DejaVu Sans;font-size:10px;font-style:normal;font-weight:normal;text-anchor:end;" transform="rotate(-0, 47, 161.735453)" x="47" y="161.735453">49</text>
     </g>
    </g>
    <g id="ytick_4">
     <g id="line2d_11">
      <g>
       <use style="stroke:#000000;stroke-width:0.8;" x="54" xlink:href="#m7b8c9cefa8" y="124.590385"/>
      </g>
     </g>
     <g id="text_12">
      <text style="font-family:DejaVu Sans;font-size:10px;font-style:normal;font-weight:normal;text-anchor:end;" transform="rotate(-0, 47, 128.389604)" x="47" y="128.389604">50</text>
     </g>
    </g>
    <g id="ytick_5">
     <g id="line2d_12">
      <g>
       <use style="stroke:#000000;stroke-width:0.8;" x="54" xlink:href="#m7b8c9cefa8" y="91.244536"/>
      </g>
     </g>
     <g id="text_13">
      <text style="font-family:DejaVu Sans;font-size:10px;font-style:normal;font-weight:normal;text-anchor:end;" transform="rotate(-0, 47, 95.043754)" x="47" y="95.043754">51</text>
     </g>
    </g>
    <g id="ytick_6">
     <g id="line2d_13">
      <g>
       <use style="stroke:#000000;stroke-width:0.8;" x="54" xlink:href="#m7b8c9cefa8" y="57.898686"/>
      </g>
     </g>
     <g id="text_14">
      <text style="font-family:DejaVu Sans;font-size:10px;font-style:normal;font-weight:normal;text-anchor:end;" transform="rotate(-0, 47, 61.697905)" x="47" y="61.697905">52</text>
     </g>
    </g>
    <g id="text_15">
     <text style="font-family:DejaVu Sans;font-size:10px;font-style:normal;font-weight:normal;text-anchor:middle;" transform="rotate(-90, 28.195312, 143.28)" x="28.195312" y="143.28">weight (\%)</text>
    </g>
   </g>
   <g id="line2d_14">
    <path clip-path="url(#p978b68f2d7)" d="M 69.218182 44.443636 
L 85.456322 45.087545 
L 88.70395 45.494031 
L 91.342648 46.015226 
L 94.082834 46.767509 
L 98.142369 48.14836 
L 103.927206 50.159115 
L 110.828416 52.243897 
L 120.977253 55.125646 
L 124.630835 56.333432 
L 128.182928 57.727956 
L 131.329067 59.240523 
L 133.967765 60.788438 
L 136.301998 62.414048 
L 138.534742 64.255072 
L 140.361533 66.035074 
L 142.086835 68.015817 
L 143.812137 70.321349 
L 145.435951 72.857301 
L 146.856789 75.435935 
L 148.379114 78.657811 
L 149.90144 82.438897 
L 151.423765 86.820875 
L 153.149068 92.496339 
L 155.077347 99.652025 
L 157.107114 108.024167 
L 159.035394 116.941847 
L 160.862184 126.454751 
L 162.587487 136.640574 
L 164.414277 148.772795 
L 166.951487 167.315087 
L 169.793161 187.784437 
L 171.11251 195.694072 
L 172.127394 200.459528 
L 172.939301 203.271917 
L 173.64972 205.03091 
L 174.461627 206.45111 
L 175.47651 207.751598 
L 176.897348 209.196807 
L 178.724138 210.718712 
L 180.855394 212.203269 
L 183.392604 213.68916 
L 186.335766 215.155377 
L 190.192325 216.821669 
L 195.368232 218.793742 
L 200.645627 220.583081 
L 207.242372 222.485128 
L 212.113814 223.622888 
L 218.000139 224.711964 
L 223.277535 225.466914 
L 229.163861 226.129829 
L 235.862093 226.701044 
L 242.661815 227.12687 
L 254.941908 227.582708 
L 271.180048 227.685747 
L 284.475025 227.44499 
L 293.203025 227.268257 
L 322.330189 226.678702 
L 347.194841 225.914082 
L 355.212422 225.682328 
L 373.581818 225.428233 
L 373.581818 225.428233 
" style="fill:none;stroke:#40b5c4;stroke-dasharray:5.55,2.4;stroke-dashoffset:0;stroke-width:1.5;"/>
    <defs>
     <path d="M 0 3 
C 0.795609 3 1.55874 2.683901 2.12132 2.12132 
C 2.683901 1.55874 3 0.795609 3 0 
C 3 -0.795609 2.683901 -1.55874 2.12132 -2.12132 
C 1.55874 -2.683901 0.795609 -3 0 -3 
C -0.795609 -3 -1.55874 -2.683901 -2.12132 -2.12132 
C -2.683901 -1.55874 -3 -0.795609 -3 0 
C -3 0.795609 -2.683901 1.55874 -2.12132 2.12132 
C -1.55874 2.683901 -0.795609 3 0 3 
z
" id="m8552fa1221" style="stroke:#40b5c4;"/>
    </defs>
    <g clip-path="url(#p978b68f2d7)">
     <use style="fill:#40b5c4;stroke:#40b5c4;" x="69.218182" xlink:href="#m8552fa1221" y="44.443636"/>
     <use style="fill:#40b5c4;stroke:#40b5c4;" x="77.337252" xlink:href="#m8552fa1221" y="44.675723"/>
     <use style="fill:#40b5c4;stroke:#40b5c4;" x="85.456322" xlink:href="#m8552fa1221" y="45.087545"/>
     <use style="fill:#40b5c4;stroke:#40b5c4;" x="93.575392" xlink:href="#m8552fa1221" y="46.613117"/>
     <use style="fill:#40b5c4;stroke:#40b5c4;" x="101.694462" xlink:href="#m8552fa1221" y="49.406166"/>
     <use style="fill:#40b5c4;stroke:#40b5c4;" x="109.813532" xlink:href="#m8552fa1221" y="51.951788"/>
     <use style="fill:#40b5c4;stroke:#40b5c4;" x="117.932602" xlink:href="#m8552fa1221" y="54.225308"/>
     <use style="fill:#40b5c4;stroke:#40b5c4;" x="126.051672" xlink:href="#m8552fa1221" y="56.858296"/>
     <use style="fill:#40b5c4;stroke:#40b5c4;" x="134.170742" xlink:href="#m8552fa1221" y="60.91982"/>
     <use style="fill:#40b5c4;stroke:#40b5c4;" x="142.289812" xlink:href="#m8552fa1221" y="68.268579"/>
     <use style="fill:#40b5c4;stroke:#40b5c4;" x="150.408882" xlink:href="#m8552fa1221" y="83.833087"/>
     <use style="fill:#40b5c4;stroke:#40b5c4;" x="158.527952" xlink:href="#m8552fa1221" y="114.492928"/>
     <use style="fill:#40b5c4;stroke:#40b5c4;" x="166.647022" xlink:href="#m8552fa1221" y="165.036899"/>
     <use style="fill:#40b5c4;stroke:#40b5c4;" x="174.766092" xlink:href="#m8552fa1221" y="206.879271"/>
     <use style="fill:#40b5c4;stroke:#40b5c4;" x="182.885162" xlink:href="#m8552fa1221" y="213.411722"/>
     <use style="fill:#40b5c4;stroke:#40b5c4;" x="191.004232" xlink:href="#m8552fa1221" y="217.146457"/>
     <use style="fill:#40b5c4;stroke:#40b5c4;" x="199.123302" xlink:href="#m8552fa1221" y="220.088228"/>
     <use style="fill:#40b5c4;stroke:#40b5c4;" x="207.242372" xlink:href="#m8552fa1221" y="222.485128"/>
     <use style="fill:#40b5c4;stroke:#40b5c4;" x="215.361442" xlink:href="#m8552fa1221" y="224.257793"/>
     <use style="fill:#40b5c4;stroke:#40b5c4;" x="223.480512" xlink:href="#m8552fa1221" y="225.492924"/>
     <use style="fill:#40b5c4;stroke:#40b5c4;" x="231.599582" xlink:href="#m8552fa1221" y="226.357581"/>
     <use style="fill:#40b5c4;stroke:#40b5c4;" x="239.718652" xlink:href="#m8552fa1221" y="226.960141"/>
     <use style="fill:#40b5c4;stroke:#40b5c4;" x="247.837722" xlink:href="#m8552fa1221" y="227.365626"/>
     <use style="fill:#40b5c4;stroke:#40b5c4;" x="255.956792" xlink:href="#m8552fa1221" y="227.604383"/>
     <use style="fill:#40b5c4;stroke:#40b5c4;" x="264.075862" xlink:href="#m8552fa1221" y="227.705754"/>
     <use style="fill:#40b5c4;stroke:#40b5c4;" x="272.194932" xlink:href="#m8552fa1221" y="227.674409"/>
     <use style="fill:#40b5c4;stroke:#40b5c4;" x="280.314002" xlink:href="#m8552fa1221" y="227.539358"/>
     <use style="fill:#40b5c4;stroke:#40b5c4;" x="288.433072" xlink:href="#m8552fa1221" y="227.350954"/>
     <use style="fill:#40b5c4;stroke:#40b5c4;" x="296.552142" xlink:href="#m8552fa1221" y="227.24258"/>
     <use style="fill:#40b5c4;stroke:#40b5c4;" x="304.671212" xlink:href="#m8552fa1221" y="227.187226"/>
     <use style="fill:#40b5c4;stroke:#40b5c4;" x="312.790282" xlink:href="#m8552fa1221" y="226.953138"/>
     <use style="fill:#40b5c4;stroke:#40b5c4;" x="320.909352" xlink:href="#m8552fa1221" y="226.719717"/>
     <use style="fill:#40b5c4;stroke:#40b5c4;" x="329.028422" xlink:href="#m8552fa1221" y="226.484963"/>
     <use style="fill:#40b5c4;stroke:#40b5c4;" x="337.147492" xlink:href="#m8552fa1221" y="226.231868"/>
     <use style="fill:#40b5c4;stroke:#40b5c4;" x="345.266562" xlink:href="#m8552fa1221" y="225.973104"/>
     <use style="fill:#40b5c4;stroke:#40b5c4;" x="353.385632" xlink:href="#m8552fa1221" y="225.731013"/>
     <use style="fill:#40b5c4;stroke:#40b5c4;" x="361.504702" xlink:href="#m8552fa1221" y="225.532939"/>
     <use style="fill:#40b5c4;stroke:#40b5c4;" x="369.623772" xlink:href="#m8552fa1221" y="225.428233"/>
    </g>
   </g>
   <g id="line2d_15">
    <path clip-path="url(#p978b68f2d7)" d="M 69.218182 54.568477 
L 69.421159 56.027129 
L 69.522647 54.47918 
L 69.624135 54.656757 
L 69.725624 56.115409 
L 69.827112 54.113595 
L 69.9286 54.155063 
L 70.030089 55.427234 
L 70.131577 54.495462 
L 70.233066 54.615034 
L 70.334554 56.104978 
L 70.537531 54.037781 
L 70.639019 55.511697 
L 70.740507 53.996694 
L 70.841996 54.396624 
L 70.943484 55.551385 
L 71.146461 53.895567 
L 71.247949 56.356461 
L 71.450926 53.723332 
L 71.552414 54.63933 
L 71.653903 54.466332 
L 71.755391 54.982273 
L 71.85688 53.550334 
L 71.958368 55.161122 
L 72.161345 53.737324 
L 72.262833 55.643481 
L 72.46581 53.127888 
L 72.567298 55.346332 
L 72.770275 53.373266 
L 72.871763 55.116474 
L 73.07474 53.338539 
L 73.176228 55.820931 
L 73.277717 53.708195 
L 73.379205 53.822297 
L 73.480694 54.586668 
L 73.68367 52.777059 
L 73.785159 55.112657 
L 73.988135 53.471849 
L 74.089624 54.987997 
L 74.292601 53.188819 
L 74.495577 54.359099 
L 74.597066 53.129033 
L 74.698554 53.186402 
L 74.800042 54.63386 
L 74.901531 53.010606 
L 75.003019 53.018238 
L 75.104508 55.676173 
L 75.307484 53.631999 
L 75.408973 52.581037 
L 75.510461 54.710056 
L 75.713438 52.927796 
L 75.814926 54.015266 
L 76.017903 53.040499 
L 76.119391 54.216885 
L 76.22088 54.135474 
L 76.423856 52.491485 
L 76.525345 54.657012 
L 76.728322 52.365553 
L 76.82981 54.882036 
L 76.931298 53.125599 
L 77.032787 53.458238 
L 77.134275 54.820978 
L 77.337252 53.116058 
L 77.43874 55.055288 
L 77.641717 52.477874 
L 77.743205 55.146239 
L 77.844694 53.117712 
L 78.04767 55.199665 
L 78.250647 53.030832 
L 78.352136 54.984817 
L 78.453624 53.694711 
L 78.555112 53.745593 
L 78.656601 54.749744 
L 78.859577 53.439921 
L 78.961066 55.328905 
L 79.062554 55.080984 
L 79.265531 53.23245 
L 79.367019 55.805158 
L 79.569996 53.197469 
L 79.671484 55.928037 
L 79.874461 54.519504 
L 79.97595 55.62122 
L 80.178926 53.529218 
L 80.280415 56.317028 
L 80.483391 54.046176 
L 80.58488 56.156369 
L 80.686368 54.497497 
L 80.889345 56.29235 
L 81.092322 54.903915 
L 81.19381 55.928419 
L 81.295298 55.807956 
L 81.396787 54.32857 
L 81.599764 56.858028 
L 81.80274 55.548841 
L 81.904229 56.676126 
L 82.005717 55.410316 
L 82.107205 55.552784 
L 82.208694 57.886093 
L 82.411671 55.430668 
L 82.513159 57.25198 
L 82.614647 56.43253 
L 82.716136 56.652211 
L 82.817624 58.165434 
L 83.020601 55.779208 
L 83.122089 58.146608 
L 83.325066 56.377704 
L 83.426554 58.656824 
L 83.528043 57.748077 
L 83.731019 59.114124 
L 83.933996 58.0596 
L 84.035485 58.971273 
L 84.238461 58.783011 
L 84.441438 60.800471 
L 84.542926 59.418396 
L 84.644415 59.562773 
L 84.745903 61.350121 
L 84.847392 59.888544 
L 84.94888 60.093597 
L 85.050368 62.062465 
L 85.253345 59.938535 
L 85.354833 62.883951 
L 85.456322 61.269347 
L 85.659299 63.202089 
L 85.862275 61.520321 
L 85.963764 64.045454 
L 86.16674 61.65414 
L 86.268229 63.752629 
L 86.369717 62.410624 
L 86.471206 62.544697 
L 86.572694 63.974601 
L 86.775671 61.642437 
L 86.978647 63.477486 
L 87.080136 62.687802 
L 87.181624 62.976937 
L 87.283113 62.434411 
L 87.486089 63.981724 
L 87.689066 61.559881 
L 87.790554 64.608969 
L 87.993531 62.442298 
L 88.09502 64.863632 
L 88.196508 63.225749 
L 88.399485 65.322967 
L 88.602461 63.63929 
L 88.70395 65.079752 
L 88.906927 64.145818 
L 89.008415 65.479555 
L 89.109903 64.891871 
L 89.211392 64.935375 
L 89.31288 66.247615 
L 89.515857 64.903574 
L 89.617345 66.267459 
L 89.718834 65.289766 
L 89.820322 65.888008 
L 89.92181 65.751518 
L 90.023299 67.373882 
L 90.124787 65.732056 
L 90.226275 66.128552 
L 90.327764 67.901271 
L 90.530741 65.350316 
L 90.632229 67.909666 
L 90.835206 64.679186 
L 90.936694 65.895768 
L 91.038182 63.306015 
L 91.139671 64.039093 
L 91.241159 66.342509 
L 91.342648 65.443683 
L 91.444136 65.926678 
L 91.545624 67.807267 
L 91.647113 67.735778 
L 91.748601 67.832072 
L 91.850089 69.932724 
L 91.951578 69.055141 
L 92.256043 71.040165 
L 92.357531 69.923184 
L 92.45902 70.069977 
L 92.661996 71.652526 
L 92.864973 69.686838 
L 92.966462 71.877678 
L 93.169438 69.945572 
L 93.270927 71.802882 
L 93.473903 69.732504 
L 93.575392 71.741697 
L 93.778369 69.85691 
L 93.879857 72.14239 
L 93.981345 70.013626 
L 94.082834 70.435054 
L 94.184322 71.794741 
L 94.28581 69.87739 
L 94.387299 70.286988 
L 94.488787 72.153584 
L 94.691764 70.215499 
L 94.793252 71.837863 
L 94.996229 69.926364 
L 95.199206 71.318742 
L 95.402183 70.602327 
L 95.503671 71.519725 
L 95.706648 70.171868 
L 95.808136 71.85211 
L 96.011113 70.251752 
L 96.112601 72.48139 
L 96.315578 70.007902 
L 96.417066 72.275319 
L 96.620043 70.36153 
L 96.721531 72.297707 
L 96.924508 70.7378 
L 97.025997 72.246189 
L 97.127485 70.452735 
L 97.330462 72.317296 
L 97.43195 70.985976 
L 97.533438 70.996534 
L 97.634927 71.984402 
L 97.837904 70.621917 
L 97.939392 72.207392 
L 98.04088 72.056527 
L 98.243857 71.279945 
L 98.345345 72.636197 
L 98.548322 70.977453 
L 98.649811 73.071745 
L 98.751299 71.14956 
L 98.852787 71.806952 
L 98.954276 73.59659 
L 99.055764 71.691324 
L 99.157252 72.048132 
L 99.258741 73.501568 
L 99.461718 71.615383 
L 99.563206 74.359689 
L 99.766183 72.485842 
L 99.867671 73.948437 
L 99.969159 72.624495 
L 100.070648 72.977359 
L 100.172136 74.239099 
L 100.273625 72.954717 
L 100.375113 73.380597 
L 100.476601 74.394034 
L 100.679578 72.758822 
L 100.781066 74.644881 
L 100.882555 74.503684 
L 101.085532 72.922534 
L 101.18702 73.784344 
L 101.389997 72.154983 
L 101.491485 73.752924 
L 101.694462 72.169739 
L 101.79595 73.93101 
L 101.998927 71.516799 
L 102.100415 74.100701 
L 102.303392 71.796522 
L 102.40488 73.944621 
L 102.607857 71.63917 
L 102.709346 74.057451 
L 102.912322 71.905536 
L 103.013811 73.422829 
L 103.216787 71.924108 
L 103.318276 73.452213 
L 103.419764 71.652399 
L 103.521253 72.140991 
L 103.622741 73.202384 
L 103.927206 71.323067 
L 104.028694 73.840695 
L 104.231671 71.365935 
L 104.33316 73.84413 
L 104.536136 71.35296 
L 104.637625 73.812201 
L 104.840601 71.769427 
L 104.94209 73.464297 
L 105.145067 71.821962 
L 105.246555 73.955052 
L 105.449532 71.517817 
L 105.652508 73.329715 
L 105.753997 73.100748 
L 105.855485 72.429236 
L 105.956974 74.280568 
L 106.058462 72.464726 
L 106.15995 72.788206 
L 106.261439 74.919642 
L 106.464415 72.990207 
L 106.565904 75.471327 
L 106.768881 73.51378 
L 106.870369 75.807528 
L 107.073346 73.878856 
L 107.174834 76.016016 
L 107.276322 74.675028 
L 107.377811 74.838613 
L 107.479299 76.62647 
L 107.682276 74.743464 
L 107.783764 76.038658 
L 107.986741 73.959249 
L 108.088229 75.78196 
L 108.291206 74.049692 
L 108.392695 75.075213 
L 108.494183 74.125124 
L 108.595671 74.934525 
L 108.69716 73.664135 
L 108.798648 74.660527 
L 108.900136 73.467096 
L 109.001625 73.541129 
L 109.103113 72.831329 
L 109.204602 75.060712 
L 109.407578 72.499198 
L 109.509067 74.676173 
L 109.712043 72.120893 
L 109.813532 74.287182 
L 109.91502 71.806316 
L 110.016509 72.194926 
L 110.117997 73.576873 
L 110.320974 71.410329 
L 110.422462 73.816017 
L 110.625439 71.368479 
L 110.726927 73.030276 
L 110.929904 71.845114 
L 111.031392 72.673341 
L 111.132881 71.636371 
L 111.335857 72.376828 
L 111.437346 73.341036 
L 111.538834 71.27969 
L 111.640323 71.364663 
L 111.741811 73.335821 
L 111.944788 71.874243 
L 112.046276 73.211924 
L 112.249253 72.18882 
L 112.350741 73.143997 
L 112.553718 71.890907 
L 112.655206 73.50106 
L 112.858183 71.842442 
L 112.959671 73.666298 
L 113.162648 71.881367 
L 113.264137 73.998683 
L 113.365625 71.965831 
L 113.467113 72.061743 
L 113.568602 73.840949 
L 113.771578 71.963795 
L 113.873067 73.271456 
L 114.076044 72.495001 
L 114.27902 73.200221 
L 114.380509 72.68975 
L 114.481997 71.419997 
L 114.583485 74.975485 
L 114.786462 71.855799 
L 114.887951 74.792056 
L 114.989439 72.208282 
L 115.090927 72.41906 
L 115.192416 74.010767 
L 115.293904 71.976007 
L 115.395392 72.159944 
L 115.496881 74.232739 
L 115.699858 71.888109 
L 115.801346 74.371646 
L 116.004323 71.85211 
L 116.105811 73.587177 
L 116.207299 71.926906 
L 116.308788 72.071029 
L 116.410276 73.673294 
L 116.511765 72.10143 
L 116.714741 72.981048 
L 116.917718 72.00679 
L 117.019206 71.987837 
L 117.120695 73.367241 
L 117.323672 71.413001 
L 117.42516 74.003135 
L 117.628137 71.588161 
L 117.729625 73.487067 
L 117.831113 71.418725 
L 117.932602 71.510566 
L 118.03409 73.023534 
L 118.237067 71.654053 
L 118.338555 73.285448 
L 118.541532 71.364536 
L 118.64302 72.807669 
L 118.845997 71.240512 
L 118.947486 73.332132 
L 119.150462 71.283634 
L 119.251951 73.143743 
L 119.454927 71.27791 
L 119.556416 72.225073 
L 119.657904 71.743732 
L 119.759393 72.281806 
L 119.860881 71.137222 
L 119.962369 72.755769 
L 120.165346 71.035077 
L 120.266834 73.436313 
L 120.469811 70.774944 
L 120.5713 72.991988 
L 120.672788 71.27244 
L 120.774276 71.287196 
L 120.875765 73.093751 
L 120.977253 70.966641 
L 121.078741 71.557632 
L 121.18023 72.969091 
L 121.281718 70.840327 
L 121.383207 71.11229 
L 121.484695 72.792531 
L 121.687672 71.110254 
L 121.78916 72.988172 
L 121.992137 70.864368 
L 122.093625 72.617371 
L 122.296602 70.739072 
L 122.499579 72.355712 
L 122.601067 71.976643 
L 122.702555 71.013833 
L 122.804044 72.166305 
L 123.007021 70.544577 
L 123.108509 72.353677 
L 123.209997 70.287497 
L 123.311486 70.401853 
L 123.412974 71.507641 
L 123.615951 69.860345 
L 123.717439 70.684883 
L 123.920416 68.300184 
L 124.021904 69.303317 
L 124.224881 67.200121 
L 124.326369 68.77084 
L 124.529346 67.182312 
L 124.630835 68.666405 
L 124.833811 67.642792 
L 124.9353 68.983525 
L 125.138276 67.77165 
L 125.239765 68.848689 
L 125.341253 68.269273 
L 125.442742 68.924884 
L 125.54423 68.787758 
L 125.645718 69.207914 
L 125.848695 68.146648 
L 125.950183 70.187387 
L 126.15316 68.556755 
L 126.254649 70.249717 
L 126.457625 68.664115 
L 126.559114 71.095753 
L 126.660602 68.973858 
L 126.76209 69.408642 
L 126.863579 71.085831 
L 127.066556 69.4019 
L 127.168044 70.9412 
L 127.371021 69.450492 
L 127.472509 71.535626 
L 127.675486 70.070105 
L 127.776974 71.482327 
L 127.979951 70.025456 
L 128.081439 71.143709 
L 128.182928 71.011671 
L 128.284416 71.367589 
L 128.385904 70.878361 
L 128.487393 72.186403 
L 128.588881 70.660714 
L 128.69037 70.760061 
L 128.791858 72.517389 
L 128.994835 71.123102 
L 129.096323 72.938944 
L 129.197811 71.282362 
L 129.2993 71.370769 
L 129.400788 73.2394 
L 129.603765 71.435516 
L 129.705253 73.081158 
L 129.90823 71.640188 
L 130.009718 73.587304 
L 130.212695 71.92538 
L 130.314184 73.787524 
L 130.51716 72.147987 
L 130.618649 73.930374 
L 130.821625 72.314498 
L 130.923114 73.709675 
L 131.126091 73.236475 
L 131.227579 73.245124 
L 131.329067 73.689449 
L 131.532044 72.717099 
L 131.633532 74.722857 
L 131.836509 73.050883 
L 131.937998 74.947118 
L 132.140974 73.229097 
L 132.343951 74.382585 
L 132.445439 74.137081 
L 132.546928 75.144794 
L 132.648416 73.770097 
L 132.749905 73.933554 
L 132.851393 75.489772 
L 133.05437 73.871351 
L 133.155858 75.692408 
L 133.257346 74.236809 
L 133.358835 74.342262 
L 133.460323 75.674091 
L 133.6633 74.615624 
L 133.764788 75.39475 
L 133.866277 74.835306 
L 133.967765 74.928674 
L 134.170742 75.717976 
L 134.373719 74.386656 
L 134.475207 76.569864 
L 134.576695 74.644499 
L 134.678184 76.808753 
L 134.88116 74.842811 
L 134.982649 76.89627 
L 135.185626 75.527043 
L 135.287114 76.637536 
L 135.490091 75.068344 
L 135.591579 77.282717 
L 135.693067 75.808546 
L 135.896044 76.780132 
L 136.099021 75.768731 
L 136.301998 77.420988 
L 136.504974 75.408743 
L 136.606463 77.95143 
L 136.80944 76.306424 
L 136.910928 77.565746 
L 137.012416 75.974802 
L 137.113905 78.43646 
L 137.316881 76.174004 
L 137.41837 78.538605 
L 137.621347 76.559179 
L 137.722835 78.715928 
L 137.925812 77.059219 
L 138.0273 78.280762 
L 138.230277 77.147753 
L 138.331765 78.629047 
L 138.534742 77.519953 
L 138.63623 78.425902 
L 138.839207 77.38041 
L 139.042184 79.098431 
L 139.245161 77.85768 
L 139.346649 79.724912 
L 139.549626 78.148469 
L 139.651114 79.655713 
L 139.854091 77.890626 
L 139.955579 80.040888 
L 140.158556 78.628284 
L 140.260044 80.014684 
L 140.463021 78.874043 
L 140.564509 80.369584 
L 140.665998 79.034066 
L 140.767486 79.445826 
L 140.868975 81.167028 
L 141.071951 79.767271 
L 141.17344 81.49725 
L 141.274928 80.722449 
L 141.376416 81.102281 
L 141.477905 81.965108 
L 141.680882 81.043767 
L 141.883858 83.058047 
L 142.086835 81.52002 
L 142.188323 83.939192 
L 142.289812 82.508779 
L 142.3913 82.546559 
L 142.492789 84.13038 
L 142.594277 83.174058 
L 142.695765 83.355324 
L 142.797254 84.91752 
L 142.898742 83.719637 
L 143.00023 83.779677 
L 143.101719 85.43893 
L 143.203207 84.56491 
L 143.304696 84.636653 
L 143.406184 86.107898 
L 143.507672 84.790061 
L 143.609161 85.276999 
L 143.710649 86.848354 
L 143.812137 85.285776 
L 143.913626 85.675531 
L 144.015114 87.202618 
L 144.218091 86.317022 
L 144.319579 87.615778 
L 144.522556 86.246296 
L 144.725533 88.194939 
L 144.92851 87.351829 
L 145.029998 89.455916 
L 145.131486 87.89779 
L 145.232975 87.937478 
L 145.334463 90.1605 
L 145.435951 88.446168 
L 145.53744 88.473008 
L 145.638928 90.102877 
L 145.841905 89.067179 
L 145.943393 90.624415 
L 146.044882 89.238396 
L 146.14637 89.300981 
L 146.247858 91.305339 
L 146.349347 89.64863 
L 146.450835 89.691371 
L 146.552324 91.658331 
L 146.7553 90.093082 
L 146.856789 91.923679 
L 146.958277 90.736863 
L 147.059765 91.219349 
L 147.161254 92.258736 
L 147.364231 91.131578 
L 147.567207 92.957215 
L 147.770184 92.380597 
L 147.871672 93.214295 
L 147.973161 92.597735 
L 148.074649 92.867536 
L 148.176138 94.224424 
L 148.277626 93.805667 
L 148.379114 92.603714 
L 148.480603 95.39076 
L 148.683579 93.624783 
L 148.785068 96.155258 
L 148.988044 94.208523 
L 149.089533 96.184388 
L 149.29251 94.798243 
L 149.393998 96.679849 
L 149.495486 95.700376 
L 149.596975 95.723909 
L 149.698463 97.114125 
L 149.90144 96.266435 
L 150.002928 97.991834 
L 150.205905 96.188586 
L 150.408882 98.373702 
L 150.611858 97.755234 
L 150.713347 98.789533 
L 150.916324 98.048822 
L 151.017812 100.480714 
L 151.1193 98.3938 
L 151.220789 98.777194 
L 151.322277 100.721512 
L 151.525254 99.388919 
L 151.626742 101.344813 
L 151.829719 100.132429 
L 151.931207 102.191103 
L 152.134184 100.69747 
L 152.235672 103.178718 
L 152.337161 101.459424 
L 152.438649 101.717776 
L 152.540138 103.387842 
L 152.743114 102.343113 
L 152.844603 104.427991 
L 153.047579 103.283025 
L 153.250556 104.931975 
L 153.352045 105.40085 
L 153.453533 104.359047 
L 153.555021 106.922214 
L 153.757998 105.451604 
L 153.859486 108.102542 
L 153.960975 106.73535 
L 154.062463 106.977166 
L 154.163952 109.065479 
L 154.366928 108.682594 
L 154.468417 111.520904 
L 154.569905 109.890526 
L 154.671393 110.250515 
L 154.772882 112.730363 
L 154.975859 111.459592 
L 155.077347 114.202753 
L 155.280324 113.338654 
L 155.381812 116.034368 
L 155.4833 114.840301 
L 155.584789 115.018005 
L 155.686277 117.228308 
L 155.889254 115.790644 
L 156.092231 117.14448 
L 156.193719 117.186839 
L 156.295207 117.351314 
L 156.396696 118.109452 
L 156.599673 117.522404 
L 156.701161 119.362796 
L 156.904138 118.385867 
L 157.005626 120.874619 
L 157.107114 119.589983 
L 157.208603 120.061275 
L 157.310091 121.295411 
L 157.513068 120.147774 
L 157.614556 121.965524 
L 157.817533 120.751613 
L 157.919021 122.75012 
L 158.121998 121.337643 
L 158.223487 122.919683 
L 158.426463 122.106975 
L 158.527952 123.136185 
L 158.730928 122.653572 
L 158.832417 123.661793 
L 158.933905 123.508512 
L 159.23837 126.29276 
L 159.339859 125.790939 
L 159.441347 126.16721 
L 159.542835 128.281091 
L 159.745812 127.614922 
L 159.847301 129.877123 
L 160.050277 129.620171 
L 160.151766 132.054353 
L 160.253254 130.673168 
L 160.354742 131.219638 
L 160.456231 133.724164 
L 160.557719 132.534803 
L 160.659208 133.225523 
L 160.760696 135.172512 
L 160.862184 134.210847 
L 160.963673 134.692189 
L 161.065161 136.829984 
L 161.166649 135.969829 
L 161.268138 136.38973 
L 161.369626 138.507682 
L 161.471115 137.847873 
L 161.978556 140.929907 
L 162.080045 142.560285 
L 162.181533 141.457042 
L 162.283022 141.992826 
L 162.38451 145.0512 
L 162.485998 143.86273 
L 162.587487 143.879393 
L 162.688975 146.972621 
L 162.891952 145.854495 
L 162.99344 148.840235 
L 163.094929 148.219732 
L 163.196417 148.34948 
L 163.297905 150.893948 
L 163.399394 150.026288 
L 163.906836 155.650372 
L 164.008324 154.955073 
L 164.211301 156.867463 
L 164.312789 156.983346 
L 164.414277 159.429613 
L 164.515766 159.089341 
L 164.617254 159.436227 
L 164.718743 162.341828 
L 164.820231 160.989392 
L 164.921719 161.898648 
L 165.023208 164.607464 
L 165.124696 163.84055 
L 165.226184 163.914583 
L 165.327673 167.251915 
L 165.429161 165.838166 
L 165.53065 166.733812 
L 165.632138 169.324201 
L 165.733626 168.370931 
L 165.835115 169.523275 
L 165.936603 172.011519 
L 166.038091 171.513514 
L 166.13958 171.622655 
L 166.241068 174.302723 
L 166.342557 173.919329 
L 167.154464 180.033787 
L 167.255952 182.911148 
L 167.35744 182.393936 
L 167.458929 182.610056 
L 167.560417 185.814969 
L 167.661905 184.554755 
L 167.763394 185.431066 
L 167.966371 187.69772 
L 168.067859 187.758905 
L 168.169347 190.516186 
L 168.270836 189.637331 
L 168.372324 190.544298 
L 168.473812 192.958509 
L 168.575301 192.526268 
L 168.676789 192.723562 
L 168.778278 195.622167 
L 168.879766 195.099993 
L 168.981254 195.380861 
L 169.082743 197.93118 
L 169.184231 196.903624 
L 169.691673 201.098186 
L 169.89465 202.111241 
L 169.996138 201.495827 
L 170.097626 204.483729 
L 170.199115 203.468766 
L 170.402092 205.882595 
L 170.50358 205.580866 
L 170.605068 205.838201 
L 170.706557 207.104901 
L 170.909533 206.149724 
L 171.011022 207.79384 
L 171.213999 206.611221 
L 171.315487 208.1046 
L 171.416975 207.039009 
L 171.518464 207.181987 
L 171.619952 208.492191 
L 171.72144 207.407139 
L 171.924417 208.367786 
L 172.025906 208.230787 
L 172.127394 208.07 
L 172.228882 208.744692 
L 172.431859 208.165912 
L 172.634836 209.565414 
L 172.837813 208.048376 
L 172.939301 210.015845 
L 173.142278 208.728919 
L 173.243766 210.511433 
L 173.345254 209.03052 
L 173.548231 210.60391 
L 173.751208 209.260378 
L 173.852696 210.927009 
L 174.055673 209.911664 
L 174.157161 211.551328 
L 174.25865 210.587628 
L 174.360138 210.637365 
L 174.461627 211.721782 
L 174.563115 210.572618 
L 174.664603 210.834786 
L 174.766092 212.1268 
L 174.86758 211.288397 
L 175.172045 212.456005 
L 175.273534 211.59674 
L 175.375022 212.926916 
L 175.47651 212.851356 
L 175.577999 212.447101 
L 175.679487 212.489078 
L 175.780975 213.8681 
L 175.983952 212.986574 
L 176.085441 214.641248 
L 176.186929 213.257647 
L 176.288417 213.429245 
L 176.389906 215.008106 
L 176.491394 213.768118 
L 176.592882 214.172246 
L 176.694371 215.477617 
L 176.795859 214.630945 
L 176.897348 214.855969 
L 176.998836 216.168845 
L 177.201813 214.83409 
L 177.303301 216.291343 
L 177.506278 215.612708 
L 177.607766 217.356552 
L 177.709255 216.569157 
L 177.810743 216.606046 
L 177.912231 217.421553 
L 178.115208 216.494361 
L 178.318185 218.006311 
L 178.521162 216.776627 
L 178.62265 218.119905 
L 178.825627 216.924947 
L 178.927115 218.024374 
L 179.130092 217.009029 
L 179.23158 218.750075 
L 179.434557 217.113591 
L 179.536045 218.312747 
L 179.739022 217.269544 
L 179.84051 218.845097 
L 180.043487 217.574707 
L 180.144976 219.761477 
L 180.347952 218.30168 
L 180.449441 219.761604 
L 180.652417 219.115787 
L 180.753906 220.55803 
L 180.956883 219.328091 
L 181.058371 220.714491 
L 181.159859 220.706859 
L 181.261348 220.118921 
L 181.362836 220.276018 
L 181.464324 221.497052 
L 181.667301 220.036747 
L 181.76879 220.541239 
L 181.870278 220.445581 
L 181.971766 219.534035 
L 182.073255 220.964193 
L 182.276231 219.081315 
L 182.37772 220.62812 
L 182.580697 218.60468 
L 182.682185 220.192318 
L 182.885162 218.373932 
L 182.98665 219.616591 
L 183.189627 217.866005 
L 183.291115 219.608831 
L 183.494092 217.99817 
L 183.59558 219.799638 
L 183.697069 218.240494 
L 183.798557 218.726669 
L 184.001534 218.460812 
L 184.103022 218.169769 
L 184.305999 219.601453 
L 184.508976 217.617829 
L 184.610464 219.504524 
L 184.813441 218.243547 
L 184.914929 219.742396 
L 185.016418 217.698477 
L 185.219394 219.179644 
L 185.320883 217.721246 
L 185.422371 217.789682 
L 185.523859 218.998251 
L 185.726836 217.7734 
L 185.929813 218.900049 
L 186.031301 217.882414 
L 186.13279 219.141355 
L 186.234278 218.722344 
L 186.335766 217.704201 
L 186.437255 219.819227 
L 186.640232 218.244183 
L 186.74172 219.795313 
L 186.944697 218.028954 
L 187.046185 219.602471 
L 187.35065 218.235661 
L 187.452139 219.804472 
L 187.655115 218.104004 
L 187.756604 220.626975 
L 187.95958 218.321778 
L 188.061069 220.048068 
L 188.162557 218.783911 
L 188.264046 218.971283 
L 188.365534 220.056463 
L 188.467022 218.752492 
L 188.568511 219.176718 
L 188.669999 220.153011 
L 188.771487 218.612949 
L 188.974464 219.771526 
L 189.075953 219.478956 
L 189.177441 218.771191 
L 189.278929 220.285304 
L 189.481906 218.57059 
L 189.583394 220.236712 
L 189.786371 218.949659 
L 189.88786 220.165223 
L 189.989348 219.150387 
L 190.090836 219.220604 
L 190.192325 220.069057 
L 190.395301 219.648392 
L 190.49679 218.898777 
L 190.598278 220.19995 
L 190.801255 218.927016 
L 190.902743 220.619597 
L 191.10572 218.964796 
L 191.207208 221.040898 
L 191.410185 218.974336 
L 191.511674 220.916492 
L 191.613162 219.165779 
L 191.71465 219.342593 
L 191.816139 220.720343 
L 191.917627 219.021147 
L 192.120604 220.220303 
L 192.222092 219.264235 
L 192.425069 220.085593 
L 192.628046 219.492058 
L 192.831022 220.490103 
L 192.932511 218.649202 
L 193.033999 220.664882 
L 193.135488 220.542002 
L 193.236976 219.552607 
L 193.439953 220.463644 
L 193.541441 219.872144 
L 193.642929 220.870953 
L 193.744418 219.409502 
L 193.947395 220.956816 
L 194.048883 218.830468 
L 194.150371 221.69918 
L 194.353348 220.064604 
L 194.454836 220.882528 
L 194.556325 220.108744 
L 194.657813 220.235949 
L 194.759302 221.071935 
L 194.962278 220.096024 
L 195.165255 220.90428 
L 195.266743 220.140545 
L 195.368232 220.281742 
L 195.46972 221.663944 
L 195.571209 219.5479 
L 195.672697 220.148559 
L 195.774185 221.554803 
L 195.875674 220.009398 
L 195.977162 220.058499 
L 196.07865 221.850171 
L 196.180139 220.358319 
L 196.281627 220.669334 
L 196.383116 221.368321 
L 196.484604 221.054381 
L 196.586092 220.28823 
L 196.687581 221.890114 
L 196.890557 220.23633 
L 196.992046 222.556664 
L 197.195023 220.692358 
L 197.296511 222.374762 
L 197.499488 220.884945 
L 197.600976 222.794409 
L 197.702464 221.127651 
L 197.803953 221.925095 
L 198.00693 221.616879 
L 198.108418 222.892738 
L 198.209906 221.321765 
L 198.311395 221.592201 
L 198.412883 222.660845 
L 198.61586 221.438538 
L 198.717348 223.185308 
L 198.920325 221.842666 
L 199.021813 223.191668 
L 199.22479 221.488402 
L 199.326278 223.431703 
L 199.529255 222.164748 
L 199.630744 223.750731 
L 199.83372 221.83249 
L 199.935209 224.18895 
L 200.138185 222.397404 
L 200.239674 224.028545 
L 200.442651 222.860937 
L 200.544139 223.525198 
L 200.645627 223.041822 
L 200.848604 223.850587 
L 200.950092 222.754721 
L 201.051581 222.98776 
L 201.254558 224.115044 
L 201.457534 222.997682 
L 201.559023 224.764041 
L 201.761999 222.750015 
L 201.863488 224.821792 
L 202.066465 223.354744 
L 202.167953 224.945561 
L 202.269441 223.360214 
L 202.37093 223.875519 
L 202.472418 225.139548 
L 202.573906 223.636502 
L 202.675395 223.795125 
L 202.776883 224.845579 
L 202.97986 223.694634 
L 203.081348 225.372077 
L 203.284325 224.053605 
L 203.385813 225.51709 
L 203.58879 223.802122 
L 203.690279 225.425885 
L 203.893255 224.252043 
L 204.096232 225.149343 
L 204.299209 224.411939 
L 204.400697 225.661213 
L 204.603674 224.341722 
L 204.705162 226.074372 
L 204.908139 224.802584 
L 205.009627 225.868556 
L 205.212604 224.401254 
L 205.314093 226.197252 
L 205.517069 224.824844 
L 205.618558 225.729013 
L 205.821534 224.979398 
L 205.923023 226.428509 
L 206.126 224.672581 
L 206.227488 225.967266 
L 206.430465 224.830823 
L 206.531953 226.647301 
L 206.633441 225.060808 
L 206.73493 225.136368 
L 206.836418 226.207428 
L 207.039395 224.77727 
L 207.242372 226.084294 
L 207.445348 224.787574 
L 207.546837 226.38526 
L 207.749814 224.779433 
L 207.851302 226.464508 
L 208.054279 224.84278 
L 208.155767 226.635089 
L 208.358744 224.951922 
L 208.460232 226.820426 
L 208.663209 225.023283 
L 208.764697 226.811776 
L 208.967674 225.220195 
L 209.069162 226.693985 
L 209.170651 225.372205 
L 209.272139 225.435044 
L 209.373628 226.793331 
L 209.576604 224.559623 
L 209.678093 226.889498 
L 209.881069 225.355668 
L 209.982558 226.323947 
L 210.185535 225.297663 
L 210.287023 226.705052 
L 210.49 225.80012 
L 210.591488 225.53439 
L 210.692976 226.481299 
L 210.895953 225.205694 
L 210.997442 227.108798 
L 211.200418 225.069077 
L 211.301907 227.218067 
L 211.504883 224.865804 
L 211.606372 226.977269 
L 211.70786 225.514801 
L 211.809349 225.72049 
L 211.910837 226.659004 
L 212.012325 225.712603 
L 212.215302 226.247243 
L 212.418279 225.673806 
L 212.519767 226.752753 
L 212.722744 225.550291 
L 212.824232 226.934528 
L 213.027209 225.297281 
L 213.128697 226.864057 
L 213.230186 225.466336 
L 213.433163 226.358038 
L 213.534651 226.355876 
L 213.737628 225.366735 
L 213.839116 226.765855 
L 214.042093 225.641751 
L 214.143581 227.159298 
L 214.346558 225.529684 
L 214.448046 227.179269 
L 214.651023 225.024301 
L 214.752511 227.334713 
L 214.955488 225.490759 
L 215.056977 227.039853 
L 215.259953 225.713621 
L 215.361442 227.12279 
L 215.564418 225.59125 
L 215.665907 226.857188 
L 215.868884 225.395101 
L 215.970372 227.261698 
L 216.173349 225.436061 
L 216.274837 226.227908 
L 216.477814 225.953401 
L 216.680791 226.644121 
L 216.883767 225.540114 
L 216.985256 227.410527 
L 217.188232 225.274893 
L 217.289721 227.096841 
L 217.492698 225.621398 
L 217.594186 227.278997 
L 217.797163 225.818056 
L 217.898651 226.892169 
L 218.101628 225.405278 
L 218.203116 227.017974 
L 218.304605 225.967648 
L 218.406093 226.00441 
L 218.507581 226.794349 
L 218.710558 225.739571 
L 218.812046 226.902981 
L 219.015023 225.487325 
L 219.116512 227.302149 
L 219.319488 225.751655 
L 219.522465 226.461328 
L 219.82693 226.091291 
L 219.928419 226.286931 
L 220.029907 225.438478 
L 220.131395 227.431897 
L 220.334372 225.459467 
L 220.43586 227.571059 
L 220.638837 225.673043 
L 220.740326 227.228752 
L 220.943302 225.905318 
L 221.044791 227.375673 
L 221.146279 225.784601 
L 221.247767 225.973499 
L 221.349256 227.498298 
L 221.552233 225.795541 
L 221.653721 227.339928 
L 221.755209 225.973627 
L 221.856698 225.994488 
L 221.958186 227.661246 
L 222.161163 225.94208 
L 222.262651 227.418159 
L 222.465628 225.772262 
L 222.567116 226.993169 
L 222.668605 226.807069 
L 222.770093 226.194453 
L 222.871581 227.043669 
L 223.074558 226.651626 
L 223.176047 225.723034 
L 223.277535 226.40434 
L 223.379023 227.980148 
L 223.582 226.01217 
L 223.683488 228.014493 
L 223.784977 226.289602 
L 223.886465 226.594002 
L 223.987954 228.05965 
L 224.19093 226.17868 
L 224.292419 227.990197 
L 224.495395 226.655569 
L 224.596884 227.700171 
L 224.799861 226.652771 
L 224.901349 227.61329 
L 225.002837 227.135511 
L 225.104326 227.410781 
L 225.205814 226.969 
L 225.307302 228.54468 
L 225.408791 226.287058 
L 225.510279 226.913158 
L 225.611768 228.442408 
L 225.814744 226.922825 
L 225.916233 228.223362 
L 226.119209 226.712811 
L 226.220698 228.854041 
L 226.423675 226.814702 
L 226.525163 228.80087 
L 226.72814 226.914811 
L 226.829628 228.918407 
L 227.032605 227.287138 
L 227.134093 228.653567 
L 227.235582 227.702206 
L 227.33707 227.739604 
L 227.438558 228.635377 
L 227.641535 227.126734 
L 227.743023 228.784333 
L 227.946 227.864264 
L 228.047489 228.821223 
L 228.148977 227.734389 
L 228.250465 228.266739 
L 228.351954 228.060414 
L 228.453442 229.081864 
L 228.55493 227.567115 
L 228.656419 227.624993 
L 228.757907 229.173324 
L 228.960884 227.82216 
L 229.062372 229.321136 
L 229.265349 227.910948 
L 229.366837 229.35599 
L 229.569814 227.955979 
L 229.671303 229.723737 
L 229.874279 228.113712 
L 229.975768 229.532931 
L 230.178744 228.143478 
L 230.280233 229.44605 
L 230.48321 228.302738 
L 230.584698 229.562315 
L 230.787675 228.461234 
L 230.889163 229.80871 
L 230.990651 228.280223 
L 231.09214 228.585004 
L 231.193628 229.494261 
L 231.295117 229.258297 
L 231.396605 227.911584 
L 231.498093 229.870658 
L 231.599582 229.166582 
L 231.70107 229.394405 
L 231.802558 228.541373 
L 231.904047 229.910219 
L 232.107024 228.558037 
L 232.208512 230.24413 
L 232.31 228.959366 
L 232.411489 229.089369 
L 232.512977 229.947744 
L 232.614465 228.948681 
L 232.715954 229.049936 
L 232.817442 229.93337 
L 232.918931 229.654792 
L 233.020419 228.450804 
L 233.121907 230.38838 
L 233.324884 228.77721 
L 233.426372 230.418273 
L 233.629349 228.776574 
L 233.730838 230.565703 
L 233.832326 229.005796 
L 233.933814 229.511306 
L 234.035303 231.071085 
L 234.136791 228.94512 
L 234.339768 230.633503 
L 234.441256 229.271653 
L 234.644233 230.054341 
L 234.745721 229.84827 
L 234.84721 229.919505 
L 234.948698 229.641945 
L 235.050186 231.118405 
L 235.253163 229.133636 
L 235.354652 231.213173 
L 235.45614 229.477724 
L 235.557628 229.689901 
L 235.659117 230.386345 
L 235.760605 229.93248 
L 235.963582 230.709316 
L 236.06507 229.852595 
L 236.166559 230.009184 
L 236.268047 230.674081 
L 236.471024 229.518811 
L 236.572512 231.52177 
L 236.775489 229.369092 
L 236.876977 231.476104 
L 237.079954 229.680361 
L 237.181442 231.333126 
L 237.384419 229.905767 
L 237.485907 231.71334 
L 237.587396 229.886432 
L 237.790373 231.00125 
L 237.891861 230.199736 
L 237.993349 230.395885 
L 238.094838 231.006593 
L 238.196326 230.619256 
L 238.399303 230.898724 
L 238.500791 231.631929 
L 238.60228 229.833896 
L 238.703768 230.19363 
L 238.805256 231.904401 
L 238.906745 230.308114 
L 239.008233 230.492433 
L 239.109721 231.678232 
L 239.312698 230.515711 
L 239.414187 231.773508 
L 239.515675 230.523471 
L 239.617163 230.812225 
L 239.718652 231.641342 
L 239.921628 230.283945 
L 240.023117 231.953756 
L 240.226094 230.314092 
L 240.327582 232.090755 
L 240.530559 230.460123 
L 240.632047 232.095971 
L 240.733535 230.554763 
L 240.835024 230.960036 
L 240.936512 232.460538 
L 241.038001 230.793017 
L 241.139489 231.009391 
L 241.240977 232.051195 
L 241.443954 230.903176 
L 241.545442 231.027581 
L 241.646931 231.67238 
L 241.748419 231.563493 
L 241.849908 230.468646 
L 241.951396 232.111235 
L 242.154373 230.094919 
L 242.255861 232.245054 
L 242.357349 230.11489 
L 242.560326 231.811033 
L 242.661815 230.168316 
L 242.763303 230.2669 
L 242.864791 231.865604 
L 242.96628 230.213855 
L 243.067768 230.474752 
L 243.169256 231.435144 
L 243.372233 229.872439 
L 243.473722 231.170432 
L 243.676698 230.013 
L 243.778187 231.173866 
L 243.879675 230.162974 
L 243.981163 230.202789 
L 244.082652 231.144101 
L 244.285629 229.995318 
L 244.387117 230.45478 
L 244.590094 230.032589 
L 244.691582 230.731068 
L 244.894559 229.389317 
L 245.097536 230.553491 
L 245.300512 229.556845 
L 245.402001 230.411785 
L 245.604977 229.099291 
L 245.706466 230.570918 
L 245.909443 229.02017 
L 246.010931 230.715931 
L 246.112419 229.033399 
L 246.213908 229.079447 
L 246.315396 230.536064 
L 246.518373 229.078175 
L 246.619861 230.012618 
L 246.822838 228.891058 
L 246.924326 230.084361 
L 247.127303 228.881899 
L 247.228791 229.984124 
L 247.431768 228.925785 
L 247.533257 230.206223 
L 247.634745 228.63296 
L 247.736233 228.656493 
L 247.837722 229.590427 
L 248.040698 228.36863 
L 248.142187 229.694607 
L 248.345164 228.359853 
L 248.446652 229.27318 
L 248.649629 228.810156 
L 248.751117 228.303628 
L 248.852605 229.221153 
L 249.055582 228.091324 
L 249.157071 229.63126 
L 249.360047 228.10697 
L 249.461536 229.531277 
L 249.664512 228.16523 
L 249.766001 229.661916 
L 249.968978 227.968826 
L 250.070466 229.869259 
L 250.273443 228.194868 
L 250.374931 229.375579 
L 250.577908 228.402084 
L 250.679396 229.553411 
L 250.882373 228.045785 
L 250.983861 229.827282 
L 251.186838 228.079113 
L 251.288326 229.572364 
L 251.491303 228.294597 
L 251.592792 229.525934 
L 251.795768 228.409335 
L 251.897257 229.31821 
L 252.100233 227.81898 
L 252.30321 229.358279 
L 252.506187 227.921379 
L 252.607675 229.497059 
L 252.810652 228.099974 
L 252.91214 229.843182 
L 253.013629 228.193596 
L 253.115117 228.246386 
L 253.318094 229.4893 
L 253.419582 228.883425 
L 253.521071 228.96102 
L 253.622559 228.514787 
L 253.724047 228.633851 
L 253.927024 229.335001 
L 254.028513 228.999436 
L 254.130001 228.244351 
L 254.231489 229.074486 
L 254.332978 228.998927 
L 254.434466 228.506901 
L 254.535954 230.004477 
L 254.738931 227.425282 
L 254.941908 230.05396 
L 255.043396 228.73078 
L 255.144885 228.770341 
L 255.246373 228.990786 
L 255.347861 227.637332 
L 255.550838 229.710126 
L 255.652327 228.883553 
L 255.753815 228.9815 
L 255.956792 228.259234 
L 256.159768 230.008548 
L 256.362745 228.754059 
L 256.464234 229.150427 
L 256.66721 228.08013 
L 256.870187 229.881598 
L 257.073164 228.836741 
L 257.174652 228.403992 
L 257.377629 229.044593 
L 257.479117 229.716614 
L 257.682094 228.356291 
L 257.783582 229.260459 
L 257.885071 228.109642 
L 257.986559 229.867605 
L 258.088048 229.409797 
L 258.291024 227.985617 
L 258.392513 230.115399 
L 258.595489 229.087334 
L 258.696978 229.064183 
L 258.899955 227.711365 
L 259.102931 230.07762 
L 259.20442 228.959239 
L 259.305908 229.072706 
L 259.508885 228.043241 
L 259.610373 229.828935 
L 259.711862 229.760372 
L 259.914838 228.857476 
L 260.117815 228.329069 
L 260.320792 229.976874 
L 260.523769 228.853787 
L 260.726745 228.263304 
L 260.929722 230.419036 
L 261.132699 228.61388 
L 261.234187 228.913318 
L 261.335676 228.785351 
L 261.437164 229.023096 
L 261.538652 229.723483 
L 261.741629 228.489474 
L 261.843117 229.680869 
L 261.944606 228.73307 
L 262.147583 229.538146 
L 262.350559 228.512116 
L 262.452048 229.664078 
L 262.553536 229.652757 
L 262.655024 228.86231 
L 262.756513 229.271271 
L 262.95949 228.397123 
L 263.162466 230.066044 
L 263.263955 228.843992 
L 263.365443 229.25041 
L 263.56842 228.333012 
L 263.771397 230.247692 
L 263.974373 228.35858 
L 264.075862 228.802905 
L 264.17735 227.817835 
L 264.380327 230.276822 
L 264.583304 228.779754 
L 264.684792 228.976412 
L 264.78628 228.377279 
L 264.989257 229.662552 
L 265.090745 228.930491 
L 265.293722 229.044593 
L 265.395211 229.027421 
L 265.598187 229.323934 
L 265.699676 228.813718 
L 265.801164 227.692411 
L 265.902652 230.187651 
L 266.004141 229.8442 
L 266.105629 228.859129 
L 266.207118 229.432948 
L 266.410094 227.919726 
L 266.613071 229.81278 
L 266.714559 229.198256 
L 266.816048 229.228658 
L 267.019025 227.737187 
L 267.222001 230.360268 
L 267.424978 228.867016 
L 267.526466 228.621893 
L 267.627955 228.833689 
L 267.729443 230.074948 
L 267.830932 228.39636 
L 267.93242 228.725692 
L 268.033908 229.977255 
L 268.135397 228.494689 
L 268.236885 228.837378 
L 268.338373 229.944946 
L 268.54135 228.60701 
L 268.642839 230.143893 
L 268.744327 228.554221 
L 268.947304 229.729334 
L 269.15028 228.55791 
L 269.251769 229.700077 
L 269.353257 228.932399 
L 269.556234 229.403437 
L 269.759211 228.490364 
L 269.860699 229.883124 
L 270.063676 228.748462 
L 270.266653 229.660898 
L 270.469629 228.495834 
L 270.571118 229.934133 
L 270.774094 228.41048 
L 270.875583 230.038822 
L 271.07856 228.582587 
L 271.180048 230.22365 
L 271.383025 228.488965 
L 271.484513 230.312184 
L 271.68749 228.353111 
L 271.788978 229.570329 
L 271.991955 228.976666 
L 272.093443 229.812526 
L 272.194932 228.482732 
L 272.397908 229.287808 
L 272.499397 229.983488 
L 272.702374 228.738158 
L 272.803862 229.057059 
L 272.90535 228.45869 
L 273.108327 229.835931 
L 273.311304 228.619604 
L 273.412792 229.499603 
L 273.514281 229.343778 
L 273.615769 228.791584 
L 273.717257 229.540945 
L 273.920234 228.178078 
L 274.021722 229.840511 
L 274.123211 229.765715 
L 274.224699 229.00427 
L 274.326188 229.556336 
L 274.529164 227.961703 
L 274.732141 229.927137 
L 274.833629 228.883044 
L 274.935118 229.288062 
L 275.138095 228.098702 
L 275.239583 230.292849 
L 275.544048 228.646825 
L 275.645536 228.8459 
L 275.747025 228.480061 
L 275.950002 230.189305 
L 276.152978 228.871723 
L 276.254467 228.690202 
L 276.355955 228.155054 
L 276.558932 230.001297 
L 276.761909 228.893093 
L 276.964885 228.351584 
L 277.167862 230.316764 
L 277.26935 228.528907 
L 277.370839 228.622784 
L 277.472327 229.72679 
L 277.675304 228.717678 
L 277.776792 229.610907 
L 277.979769 228.273862 
L 278.081257 230.038822 
L 278.487211 228.679517 
L 278.588699 228.041714 
L 278.690188 229.685958 
L 278.791676 229.627316 
L 278.994653 229.128421 
L 279.19763 228.289 
L 279.400606 229.918741 
L 279.502095 228.776065 
L 279.603583 229.490826 
L 279.80656 228.278696 
L 280.009537 230.425269 
L 280.212513 228.72353 
L 280.314002 228.955932 
L 280.41549 228.4751 
L 280.618467 230.201644 
L 280.821444 229.025894 
L 280.922932 229.258297 
L 281.02442 228.691983 
L 281.227397 230.275168 
L 281.328885 228.936215 
L 281.430374 229.005033 
L 281.633351 229.725009 
L 281.734839 228.777464 
L 281.836327 230.389906 
L 281.937816 228.318002 
L 282.242281 230.51215 
L 282.343769 229.309433 
L 282.445258 229.551503 
L 282.546746 228.547988 
L 282.648234 230.334954 
L 282.851211 228.789421 
L 282.952699 230.259649 
L 283.155676 229.017244 
L 283.257165 230.266136 
L 283.460141 229.32546 
L 283.56163 230.449565 
L 283.663118 229.254735 
L 283.866095 229.918105 
L 284.069072 229.07525 
L 284.17056 230.499302 
L 284.272048 229.500748 
L 284.475025 230.048108 
L 284.678002 229.204998 
L 284.77949 230.164373 
L 284.880979 229.713434 
L 284.982467 229.888976 
L 285.083955 229.67858 
L 285.185444 230.442569 
L 285.38842 229.312486 
L 285.489909 230.347293 
L 285.692886 229.323298 
L 285.794374 231.022366 
L 285.997351 229.233619 
L 286.098839 230.670392 
L 286.301816 229.334874 
L 286.403304 231.105558 
L 286.606281 229.482812 
L 286.707769 230.656399 
L 286.910746 229.097765 
L 287.012234 231.173485 
L 287.215211 229.417684 
L 287.3167 231.039284 
L 287.519676 229.478487 
L 287.621165 231.204523 
L 287.824141 229.490572 
L 287.92563 231.235306 
L 288.128607 229.715978 
L 288.230095 230.706009 
L 288.433072 229.810363 
L 288.53456 231.090039 
L 288.737537 229.757828 
L 288.839025 230.756382 
L 289.042002 229.215683 
L 289.14349 230.935104 
L 289.244979 230.234081 
L 289.346467 230.474243 
L 289.447955 230.280892 
L 289.549444 230.859926 
L 289.752421 229.470601 
L 289.853909 231.545685 
L 289.955397 229.799805 
L 290.056886 229.84509 
L 290.158374 231.456896 
L 290.361351 229.775001 
L 290.462839 231.336052 
L 290.665816 229.681887 
L 290.767304 231.484754 
L 290.970281 230.051161 
L 291.071769 230.414965 
L 291.173258 231.489206 
L 291.274746 230.156359 
L 291.376235 230.359123 
L 291.477723 231.809761 
L 291.579211 229.901314 
L 291.6807 230.05485 
L 291.782188 231.457405 
L 291.985165 230.249854 
L 292.086653 231.542632 
L 292.28963 230.129265 
L 292.391118 231.516937 
L 292.594095 230.100135 
L 292.695583 231.43489 
L 292.89856 230.003332 
L 293.000049 231.936838 
L 293.203025 230.201517 
L 293.304514 231.095381 
L 293.406002 230.831432 
L 293.50749 230.21182 
L 293.608979 231.27792 
L 293.811956 230.939811 
L 293.913444 230.879007 
L 294.014932 231.3648 
L 294.217909 230.318672 
L 294.319397 231.856063 
L 294.420886 230.27555 
L 294.623862 231.678104 
L 294.826839 230.322742 
L 294.928328 232.102967 
L 295.131304 230.233572 
L 295.232793 232.26388 
L 295.334281 230.560233 
L 295.435769 230.749767 
L 295.537258 231.902874 
L 295.740235 230.224795 
L 295.841723 231.947778 
L 296.0447 230.744297 
L 296.146188 231.962152 
L 296.349165 230.631849 
L 296.450653 232.073583 
L 296.65363 230.452872 
L 296.755118 231.755445 
L 296.958095 230.869212 
L 297.059583 232.227118 
L 297.26256 230.820874 
L 297.364049 232.118867 
L 297.465537 230.722673 
L 297.668514 231.833039 
L 297.770002 231.387697 
L 297.87149 230.767957 
L 297.972979 231.892571 
L 298.175956 230.822783 
L 298.277444 231.840544 
L 298.378932 231.645286 
L 298.581909 231.038648 
L 298.683397 232.263626 
L 298.886374 230.661869 
L 298.987863 232.369078 
L 299.190839 230.680568 
L 299.292328 232.611275 
L 299.393816 231.059255 
L 299.495304 231.247263 
L 299.596793 232.459139 
L 299.698281 231.285425 
L 299.79977 231.971056 
L 300.002746 230.61633 
L 300.205723 232.244036 
L 300.307211 232.022574 
L 300.510188 231.180481 
L 300.611677 231.069432 
L 300.814653 232.384216 
L 300.916142 231.628749 
L 301.01763 231.710796 
L 301.119118 231.426749 
L 301.220607 230.738064 
L 301.322095 232.687089 
L 301.728049 231.367726 
L 301.829537 231.237977 
L 302.032514 233.027615 
L 302.134002 231.284661 
L 302.235491 232.314126 
L 302.336979 231.578249 
L 302.438467 231.647194 
L 302.539956 233.016803 
L 302.641444 231.640197 
L 302.742932 231.76931 
L 302.844421 232.722706 
L 303.047398 231.388969 
L 303.148886 232.628702 
L 303.351863 231.827951 
L 303.554839 232.594866 
L 303.757816 231.939255 
L 303.859305 232.694467 
L 304.062281 231.592369 
L 304.16377 233.183313 
L 304.366746 231.752392 
L 304.468235 233.391292 
L 304.671212 231.464401 
L 304.7727 233.23216 
L 304.874188 231.997006 
L 304.975677 232.265407 
L 305.077165 233.113987 
L 305.280142 231.615011 
L 305.38163 233.581971 
L 305.584607 231.815867 
L 305.787584 233.4956 
L 305.99056 231.801365 
L 306.092049 233.855842 
L 306.295026 231.836219 
L 306.396514 233.419277 
L 306.599491 232.382307 
L 306.700979 233.727112 
L 306.903956 232.262481 
L 307.005444 233.889043 
L 307.208421 232.293773 
L 307.309909 233.72355 
L 307.411398 232.607841 
L 307.512886 232.806407 
L 307.614374 233.706759 
L 307.817351 232.710749 
L 307.91884 233.480081 
L 308.121816 232.807297 
L 308.223305 233.617589 
L 308.426281 232.388286 
L 308.52777 233.929494 
L 308.832235 232.919746 
L 308.933723 233.911812 
L 309.1367 232.667881 
L 309.238188 234.303347 
L 309.339677 232.696884 
L 309.441165 233.159653 
L 309.542654 234.452176 
L 309.74563 232.908552 
L 309.847119 234.516287 
L 310.050095 232.525921 
L 310.151584 234.682162 
L 310.253072 233.045678 
L 310.354561 233.074045 
L 310.456049 234.904388 
L 310.659026 233.025325 
L 310.760514 234.902225 
L 310.862002 233.114114 
L 310.963491 233.258236 
L 311.064979 234.793084 
L 311.267956 233.256456 
L 311.369444 234.852361 
L 311.470933 233.43327 
L 311.572421 233.502596 
L 311.673909 234.639294 
L 311.876886 233.262943 
L 311.978375 234.958322 
L 312.079863 233.551697 
L 312.181351 234.569713 
L 312.28284 233.372593 
L 312.485816 234.848163 
L 312.688793 233.362798 
L 312.790282 235.000808 
L 312.993258 233.589604 
L 313.094747 235.079802 
L 313.297723 233.758277 
L 313.399212 235.186527 
L 313.602189 233.522567 
L 313.703677 235.514205 
L 313.906654 233.638959 
L 314.008142 235.633268 
L 314.211119 233.59113 
L 314.312607 235.385983 
L 314.515584 233.860931 
L 314.617072 235.577298 
L 314.820049 233.821116 
L 314.921537 235.43483 
L 315.124514 233.621532 
L 315.226003 235.696489 
L 315.428979 233.733599 
L 315.530468 235.572465 
L 315.733444 234.141925 
L 315.834933 235.811482 
L 316.03791 233.884463 
L 316.139398 235.963236 
L 316.342375 234.269511 
L 316.443863 235.712135 
L 316.545351 234.569077 
L 316.64684 234.58396 
L 316.748328 235.21006 
L 316.951305 234.153628 
L 317.052793 235.584931 
L 317.25577 234.558646 
L 317.357258 235.476807 
L 317.458747 235.100028 
L 317.560235 234.270274 
L 317.763212 234.978293 
L 317.8647 234.178051 
L 317.966189 235.491817 
L 318.067677 235.425162 
L 318.270654 234.843965 
L 318.372142 235.236391 
L 318.575119 234.534223 
L 318.676607 235.530487 
L 318.879584 234.461462 
L 318.981072 236.153025 
L 319.082561 234.466296 
L 319.184049 234.585232 
L 319.285538 235.744445 
L 319.488514 234.285157 
L 319.590003 236.205306 
L 319.792979 234.35054 
L 319.894468 236.412904 
L 320.097445 234.379543 
L 320.198933 236.19195 
L 320.40191 234.747036 
L 320.503398 236.224514 
L 320.604886 234.615252 
L 320.706375 234.886197 
L 320.807863 236.136489 
L 321.01084 234.378143 
L 321.112328 236.4026 
L 321.213817 234.746018 
L 321.315305 234.952725 
L 321.416793 236.263693 
L 321.518282 234.696154 
L 321.61977 235.071407 
L 321.721259 236.188388 
L 321.822747 234.664862 
L 321.924235 234.909349 
L 322.025724 236.19055 
L 322.2287 234.712691 
L 322.330189 236.269163 
L 322.533166 234.899935 
L 322.634654 235.817842 
L 322.837631 234.911129 
L 322.939119 236.433383 
L 323.142096 235.056015 
L 323.243584 236.142976 
L 323.446561 235.001444 
L 323.548049 236.015517 
L 323.751026 235.312332 
L 323.852514 235.806266 
L 323.954003 235.570302 
L 324.055491 234.824503 
L 324.15698 235.878009 
L 324.359956 235.248602 
L 324.562933 236.196783 
L 324.76591 235.265139 
L 324.867398 236.181773 
L 324.968887 235.332048 
L 325.070375 235.698779 
L 325.171863 234.674275 
L 325.273352 236.628642 
L 325.476328 235.198993 
L 325.577817 236.695933 
L 325.679305 234.994448 
L 325.882282 236.622663 
L 326.085259 234.9657 
L 326.186747 236.836112 
L 326.288235 235.003098 
L 326.491212 236.669347 
L 326.694189 235.300883 
L 326.795677 236.697968 
L 326.998654 235.224688 
L 327.100142 236.316737 
L 327.303119 235.426561 
L 327.404608 236.53362 
L 327.607584 235.519166 
L 327.709073 236.416847 
L 327.912049 235.241479 
L 328.013538 236.808382 
L 328.216515 235.415749 
L 328.318003 236.649376 
L 328.52098 235.219854 
L 328.622468 236.746179 
L 328.723956 235.40659 
L 328.825445 235.608845 
L 328.926933 236.519501 
L 329.12991 235.668885 
L 329.231398 236.555245 
L 329.434375 235.26374 
L 329.535863 236.892082 
L 329.73884 235.279895 
L 329.840329 236.830643 
L 329.941817 235.534176 
L 330.144794 236.79299 
L 330.34777 235.665578 
L 330.449259 236.551811 
L 330.550747 235.828273 
L 330.652236 235.856385 
L 330.753724 236.510215 
L 330.855212 236.115118 
L 330.956701 235.111349 
L 331.058189 236.658535 
L 331.261166 235.787058 
L 331.362654 236.5036 
L 331.565631 236.175159 
L 331.667119 235.997836 
L 331.768608 236.683594 
L 331.870096 235.644208 
L 331.971584 235.832852 
L 332.073073 236.866769 
L 332.27605 235.435974 
L 332.377538 237.023103 
L 332.580515 235.626145 
L 332.682003 236.966624 
L 332.88498 235.580097 
L 332.986468 237.222305 
L 333.189445 235.385729 
L 333.290933 237.313129 
L 333.392422 235.682369 
L 333.49391 235.798252 
L 333.595398 237.081617 
L 333.798375 235.754367 
L 333.899864 236.967387 
L 334.10284 235.695853 
L 334.204329 237.454707 
L 334.407305 235.303555 
L 334.508794 237.796632 
L 334.711771 235.574754 
L 334.813259 236.967387 
L 335.016236 235.943138 
L 335.117724 237.252325 
L 335.320701 235.395142 
L 335.422189 237.3995 
L 335.625166 235.637848 
L 335.726654 237.807826 
L 335.929631 235.55313 
L 336.031119 237.361721 
L 336.234096 235.909429 
L 336.335585 237.468827 
L 336.538561 235.865035 
L 336.64005 237.115326 
L 336.843026 235.918079 
L 336.944515 237.102224 
L 337.147492 236.036252 
L 337.24898 237.257922 
L 337.451957 235.995801 
L 337.553445 237.69983 
L 337.654933 236.03358 
L 337.85791 236.851377 
L 338.060887 236.435928 
L 338.263864 236.774291 
L 338.365352 236.022514 
L 338.46684 237.125248 
L 338.669817 235.793037 
L 338.771306 237.212383 
L 338.974282 236.369145 
L 339.177259 237.076528 
L 339.380236 236.667185 
L 339.481724 236.914597 
L 339.684701 236.624572 
L 339.786189 236.929989 
L 339.989166 235.920114 
L 340.090654 237.962507 
L 340.293631 236.355407 
L 340.39512 237.772463 
L 340.598096 236.096801 
L 340.699585 238.078135 
L 340.902561 236.182791 
L 341.00405 237.924981 
L 341.207027 236.388608 
L 341.308515 238.14072 
L 341.410003 236.326023 
L 341.511492 236.40489 
L 341.61298 237.807826 
L 341.917445 236.401837 
L 342.018934 238.440159 
L 342.22191 236.588573 
L 342.323399 238.043154 
L 342.526375 236.299565 
L 342.627864 237.957291 
L 342.830841 236.883687 
L 342.932329 237.947115 
L 343.135306 236.79935 
L 343.236794 238.168959 
L 343.439771 236.71018 
L 343.541259 238.237777 
L 343.744236 236.956829 
L 343.845724 238.100905 
L 344.048701 237.03595 
L 344.150189 238.362055 
L 344.251678 237.014198 
L 344.353166 237.293539 
L 344.454655 238.170104 
L 344.657631 237.146872 
L 344.75912 238.256221 
L 344.962096 236.80253 
L 345.165073 238.273521 
L 345.266562 237.211619 
L 345.469538 238.256476 
L 345.571027 237.425323 
L 345.774003 238.352642 
L 345.875492 237.374568 
L 345.97698 237.716366 
L 346.078469 238.83322 
L 346.281445 237.524797 
L 346.382934 238.876597 
L 346.58591 237.586999 
L 346.687399 238.796967 
L 346.890376 237.711024 
L 346.991864 239.464408 
L 347.093352 237.723108 
L 347.296329 239.195244 
L 347.499306 237.964669 
L 347.600794 239.332879 
L 347.803771 238.170358 
L 347.905259 239.63677 
L 348.108236 238.099506 
L 348.209724 239.834318 
L 348.412701 238.220223 
L 348.51419 239.631809 
L 348.717166 238.468144 
L 348.818655 239.742222 
L 349.021631 238.90191 
L 349.12312 239.883928 
L 349.224608 238.669763 
L 349.326097 238.722044 
L 349.427585 240.096359 
L 349.630562 238.852174 
L 349.73205 240.282586 
L 349.935027 239.075544 
L 350.036515 240.250785 
L 350.138004 239.094879 
L 350.239492 239.32372 
L 350.34098 240.42709 
L 350.543957 238.965004 
L 350.645445 241.137145 
L 350.848422 238.893642 
L 350.949911 240.839105 
L 351.152887 239.524067 
L 351.254376 241.214485 
L 351.355864 239.675313 
L 351.457352 239.808623 
L 351.558841 240.906015 
L 351.761818 239.49252 
L 351.863306 241.230386 
L 352.066283 239.769444 
L 352.167771 241.319429 
L 352.370748 240.013931 
L 352.472236 241.670258 
L 352.573725 239.880112 
L 352.776701 241.542672 
L 352.979678 240.38524 
L 353.081166 241.675473 
L 353.284143 240.724494 
L 353.385632 241.627645 
L 353.588608 240.850045 
L 353.690097 241.681579 
L 353.791585 240.845338 
L 353.893073 241.116665 
L 353.994562 241.886378 
L 354.197539 240.437012 
L 354.299027 241.965499 
L 354.502004 240.635324 
L 354.603492 241.784996 
L 354.806469 240.930183 
L 354.907957 241.552594 
L 355.110934 240.518805 
L 355.212422 241.722793 
L 355.313911 241.36942 
L 355.415399 240.568796 
L 355.618376 241.67471 
L 355.719864 240.709993 
L 355.821353 241.491663 
L 356.024329 240.932982 
L 356.125818 241.672421 
L 356.227306 241.414959 
L 356.328794 240.717116 
L 356.531771 241.535422 
L 356.734748 240.977885 
L 356.937725 241.448032 
L 357.039213 240.730218 
L 357.140701 241.824811 
L 357.24219 240.889605 
L 357.343678 240.966182 
L 357.445167 241.762736 
L 357.546655 240.22916 
L 357.749632 241.959394 
L 357.85112 240.666234 
L 357.952608 240.805142 
L 358.054097 241.790721 
L 358.257074 240.495781 
L 358.358562 242.116364 
L 358.46005 240.516133 
L 358.561539 240.916064 
L 358.663027 241.963973 
L 358.764515 240.596145 
L 358.866004 240.720678 
L 358.967492 242.055814 
L 359.170469 240.277498 
L 359.271957 241.772403 
L 359.474934 240.611791 
L 359.576422 241.8963 
L 359.677911 240.496671 
L 359.779399 240.57999 
L 359.880888 241.764262 
L 359.982376 240.292254 
L 360.083864 240.443754 
L 360.185353 241.571929 
L 360.286841 240.500106 
L 360.388329 240.520077 
L 360.489818 241.750015 
L 360.692795 240.135029 
L 360.794283 241.511634 
L 360.99726 240.270883 
L 361.098748 241.462661 
L 361.301725 240.017492 
L 361.403213 241.464314 
L 361.504702 239.425102 
L 361.60619 241.623065 
L 361.809167 240.082367 
L 361.910655 241.306327 
L 362.012143 239.895758 
L 362.113632 240.011641 
L 362.21512 241.406818 
L 362.418097 239.746166 
L 362.519585 240.893676 
L 362.722562 239.849328 
L 362.82405 241.215757 
L 363.027027 239.584489 
L 363.128516 241.419411 
L 363.331492 239.563882 
L 363.432981 241.028131 
L 363.534469 239.401696 
L 363.635957 239.809386 
L 363.737446 240.992259 
L 363.940423 239.643384 
L 364.041911 240.90487 
L 364.244888 239.197279 
L 364.346376 240.928021 
L 364.549353 239.425738 
L 364.650841 240.58406 
L 364.853818 239.393937 
L 364.955306 240.097758 
L 365.158283 239.246253 
L 365.259771 240.698926 
L 365.36126 239.232642 
L 365.462748 239.330335 
L 365.564237 240.477463 
L 365.665725 239.028606 
L 365.767213 239.095515 
L 365.97019 240.190109 
L 366.071678 238.461784 
L 366.274655 240.172682 
L 366.477632 238.927224 
L 366.57912 239.635116 
L 366.782097 239.024917 
L 366.883585 239.735099 
L 367.086562 238.775342 
L 367.188051 240.113023 
L 367.391027 238.121766 
L 367.492516 240.186038 
L 367.695492 238.554515 
L 367.796981 239.656995 
L 367.898469 238.629057 
L 367.999958 238.898094 
L 368.101446 239.715764 
L 368.304423 238.316516 
L 368.405911 239.63766 
L 368.608888 238.175065 
L 368.710376 239.46479 
L 368.913353 238.083605 
L 369.014841 239.302477 
L 369.217818 238.20534 
L 369.319306 239.44113 
L 369.522283 237.938974 
L 369.623772 239.451942 
L 369.826748 237.948641 
L 369.928237 238.910306 
L 370.131213 237.997488 
L 370.232702 239.011942 
L 370.435679 237.967213 
L 370.537167 238.819736 
L 370.740144 237.425577 
L 370.841632 238.914885 
L 371.044609 237.382709 
L 371.146097 238.711613 
L 371.247586 238.159673 
L 371.349074 238.372995 
L 371.450562 237.527086 
L 371.552051 237.57835 
L 371.653539 238.31041 
L 371.755027 237.651238 
L 371.958004 238.254568 
L 372.059493 237.974845 
L 372.160981 237.306514 
L 372.262469 238.39233 
L 372.465446 237.078691 
L 372.566934 238.778268 
L 372.769911 237.221541 
L 372.8714 238.13207 
L 372.972888 237.264918 
L 373.074376 237.321778 
L 373.175865 238.642286 
L 373.277353 236.812198 
L 373.378841 236.975655 
L 373.48033 238.467889 
L 373.581818 237.163791 
L 373.581818 237.163791 
" style="fill:none;stroke:#081d58;stroke-dasharray:5.55,2.4;stroke-dashoffset:0;stroke-width:1.5;"/>
    <defs>
     <path d="M -0 4.242641 
L 4.242641 0 
L 0 -4.242641 
L -4.242641 -0 
z
" id="m73e8036d4c" style="stroke:#081d58;stroke-linejoin:miter;"/>
    </defs>
    <g clip-path="url(#p978b68f2d7)">
     <use style="fill:#081d58;stroke:#081d58;stroke-linejoin:miter;" x="69.218182" xlink:href="#m73e8036d4c" y="54.568477"/>
     <use style="fill:#081d58;stroke:#081d58;stroke-linejoin:miter;" x="77.337252" xlink:href="#m73e8036d4c" y="53.116058"/>
     <use style="fill:#081d58;stroke:#081d58;stroke-linejoin:miter;" x="85.456322" xlink:href="#m73e8036d4c" y="61.269347"/>
     <use style="fill:#081d58;stroke:#081d58;stroke-linejoin:miter;" x="93.575392" xlink:href="#m73e8036d4c" y="71.741697"/>
     <use style="fill:#081d58;stroke:#081d58;stroke-linejoin:miter;" x="101.694462" xlink:href="#m73e8036d4c" y="72.169739"/>
     <use style="fill:#081d58;stroke:#081d58;stroke-linejoin:miter;" x="109.813532" xlink:href="#m73e8036d4c" y="74.287182"/>
     <use style="fill:#081d58;stroke:#081d58;stroke-linejoin:miter;" x="117.932602" xlink:href="#m73e8036d4c" y="71.510566"/>
     <use style="fill:#081d58;stroke:#081d58;stroke-linejoin:miter;" x="126.051672" xlink:href="#m73e8036d4c" y="68.737258"/>
     <use style="fill:#081d58;stroke:#081d58;stroke-linejoin:miter;" x="134.170742" xlink:href="#m73e8036d4c" y="75.717976"/>
     <use style="fill:#081d58;stroke:#081d58;stroke-linejoin:miter;" x="142.289812" xlink:href="#m73e8036d4c" y="82.508779"/>
     <use style="fill:#081d58;stroke:#081d58;stroke-linejoin:miter;" x="150.408882" xlink:href="#m73e8036d4c" y="98.373702"/>
     <use style="fill:#081d58;stroke:#081d58;stroke-linejoin:miter;" x="158.527952" xlink:href="#m73e8036d4c" y="123.136185"/>
     <use style="fill:#081d58;stroke:#081d58;stroke-linejoin:miter;" x="166.647022" xlink:href="#m73e8036d4c" y="176.391673"/>
     <use style="fill:#081d58;stroke:#081d58;stroke-linejoin:miter;" x="174.766092" xlink:href="#m73e8036d4c" y="212.1268"/>
     <use style="fill:#081d58;stroke:#081d58;stroke-linejoin:miter;" x="182.885162" xlink:href="#m73e8036d4c" y="218.373932"/>
     <use style="fill:#081d58;stroke:#081d58;stroke-linejoin:miter;" x="191.004232" xlink:href="#m73e8036d4c" y="219.409884"/>
     <use style="fill:#081d58;stroke:#081d58;stroke-linejoin:miter;" x="199.123302" xlink:href="#m73e8036d4c" y="222.372472"/>
     <use style="fill:#081d58;stroke:#081d58;stroke-linejoin:miter;" x="207.242372" xlink:href="#m73e8036d4c" y="226.084294"/>
     <use style="fill:#081d58;stroke:#081d58;stroke-linejoin:miter;" x="215.361442" xlink:href="#m73e8036d4c" y="227.12279"/>
     <use style="fill:#081d58;stroke:#081d58;stroke-linejoin:miter;" x="223.480512" xlink:href="#m73e8036d4c" y="226.487532"/>
     <use style="fill:#081d58;stroke:#081d58;stroke-linejoin:miter;" x="231.599582" xlink:href="#m73e8036d4c" y="229.166582"/>
     <use style="fill:#081d58;stroke:#081d58;stroke-linejoin:miter;" x="239.718652" xlink:href="#m73e8036d4c" y="231.641342"/>
     <use style="fill:#081d58;stroke:#081d58;stroke-linejoin:miter;" x="247.837722" xlink:href="#m73e8036d4c" y="229.590427"/>
     <use style="fill:#081d58;stroke:#081d58;stroke-linejoin:miter;" x="255.956792" xlink:href="#m73e8036d4c" y="228.259234"/>
     <use style="fill:#081d58;stroke:#081d58;stroke-linejoin:miter;" x="264.075862" xlink:href="#m73e8036d4c" y="228.802905"/>
     <use style="fill:#081d58;stroke:#081d58;stroke-linejoin:miter;" x="272.194932" xlink:href="#m73e8036d4c" y="228.482732"/>
     <use style="fill:#081d58;stroke:#081d58;stroke-linejoin:miter;" x="280.314002" xlink:href="#m73e8036d4c" y="228.955932"/>
     <use style="fill:#081d58;stroke:#081d58;stroke-linejoin:miter;" x="288.433072" xlink:href="#m73e8036d4c" y="229.810363"/>
     <use style="fill:#081d58;stroke:#081d58;stroke-linejoin:miter;" x="296.552142" xlink:href="#m73e8036d4c" y="230.965251"/>
     <use style="fill:#081d58;stroke:#081d58;stroke-linejoin:miter;" x="304.671212" xlink:href="#m73e8036d4c" y="231.464401"/>
     <use style="fill:#081d58;stroke:#081d58;stroke-linejoin:miter;" x="312.790282" xlink:href="#m73e8036d4c" y="235.000808"/>
     <use style="fill:#081d58;stroke:#081d58;stroke-linejoin:miter;" x="320.909352" xlink:href="#m73e8036d4c" y="235.029684"/>
     <use style="fill:#081d58;stroke:#081d58;stroke-linejoin:miter;" x="329.028422" xlink:href="#m73e8036d4c" y="235.794436"/>
     <use style="fill:#081d58;stroke:#081d58;stroke-linejoin:miter;" x="337.147492" xlink:href="#m73e8036d4c" y="236.036252"/>
     <use style="fill:#081d58;stroke:#081d58;stroke-linejoin:miter;" x="345.266562" xlink:href="#m73e8036d4c" y="237.211619"/>
     <use style="fill:#081d58;stroke:#081d58;stroke-linejoin:miter;" x="353.385632" xlink:href="#m73e8036d4c" y="241.627645"/>
     <use style="fill:#081d58;stroke:#081d58;stroke-linejoin:miter;" x="361.504702" xlink:href="#m73e8036d4c" y="239.425102"/>
     <use style="fill:#081d58;stroke:#081d58;stroke-linejoin:miter;" x="369.623772" xlink:href="#m73e8036d4c" y="239.451942"/>
    </g>
   </g>
   <g id="patch_3">
    <path d="M 54 252 
L 54 34.56 
" style="fill:none;stroke:#000000;stroke-linecap:square;stroke-linejoin:miter;stroke-width:0.8;"/>
   </g>
   <g id="patch_4">
    <path d="M 388.8 252 
L 388.8 34.56 
" style="fill:none;stroke:#000000;stroke-linecap:square;stroke-linejoin:miter;stroke-width:0.8;"/>
   </g>
   <g id="patch_5">
    <path d="M 54 252 
L 388.8 252 
" style="fill:none;stroke:#000000;stroke-linecap:square;stroke-linejoin:miter;stroke-width:0.8;"/>
   </g>
   <g id="patch_6">
    <path d="M 54 34.56 
L 388.8 34.56 
" style="fill:none;stroke:#000000;stroke-linecap:square;stroke-linejoin:miter;stroke-width:0.8;"/>
   </g>
   <g id="legend_1">
    <g id="patch_7">
     <path d="M 280.085938 71.91625 
L 381.8 71.91625 
Q 383.8 71.91625 383.8 69.91625 
L 383.8 41.56 
Q 383.8 39.56 381.8 39.56 
L 280.085938 39.56 
Q 278.085938 39.56 278.085938 41.56 
L 278.085938 69.91625 
Q 278.085938 71.91625 280.085938 71.91625 
z
" style="fill:#ffffff;opacity:0.8;stroke:#cccccc;stroke-linejoin:miter;"/>
    </g>
    <g id="line2d_16">
     <path d="M 282.085938 47.658437 
L 302.085938 47.658437 
" style="fill:none;stroke:#40b5c4;stroke-dasharray:5.55,2.4;stroke-dashoffset:0;stroke-width:1.5;"/>
    </g>
    <g id="line2d_17">
     <g>
      <use style="fill:#40b5c4;stroke:#40b5c4;" x="292.085938" xlink:href="#m8552fa1221" y="47.658437"/>
     </g>
    </g>
    <g id="text_16">
     <text style="font-family:DejaVu Sans;font-size:10px;font-style:normal;font-weight:normal;text-anchor:start;" transform="rotate(-0, 310.085938, 51.158437)" x="310.085938" y="51.158437">original</text>
    </g>
    <g id="line2d_18">
     <path d="M 282.085938 62.336562 
L 302.085938 62.336562 
" style="fill:none;stroke:#081d58;stroke-dasharray:5.55,2.4;stroke-dashoffset:0;stroke-width:1.5;"/>
    </g>
    <g id="line2d_19">
     <g>
      <use style="fill:#081d58;stroke:#081d58;stroke-linejoin:miter;" x="292.085938" xlink:href="#m73e8036d4c" y="62.336562"/>
     </g>
    </g>
    <g id="text_17">
     <text style="font-family:DejaVu Sans;font-size:10px;font-style:normal;font-weight:normal;text-anchor:start;" transform="rotate(-0, 310.085938, 65.836562)" x="310.085938" y="65.836562">reconstructed</text>
    </g>
   </g>
  </g>
  <g id="text_18">
   <text style="font-family:DejaVu Sans;font-size:12px;font-style:normal;font-weight:normal;text-anchor:middle;" transform="rotate(-0, 216, 14.878125)" x="216" y="14.878125">Reconstruction of the weight curve</text>
  </g>
 </g>
 <defs>
  <clipPath id="p978b68f2d7">
   <rect height="217.44" width="334.8" x="54" y="34.56"/>
  </clipPath>
 </defs>
</svg>
