<?xml version="1.0" encoding="utf-8" standalone="no"?>
<!DOCTYPE svg PUBLIC "-//W3C//DTD SVG 1.1//EN"
  "http://www.w3.org/Graphics/SVG/1.1/DTD/svg11.dtd">
<!-- Created with matplotlib (https://matplotlib.org/) -->
<svg height="288pt" version="1.1" viewBox="0 0 432 288" width="432pt" xmlns="http://www.w3.org/2000/svg" xmlns:xlink="http://www.w3.org/1999/xlink">
 <defs>
  <style type="text/css">
*{stroke-linecap:butt;stroke-linejoin:round;}
  </style>
 </defs>
 <g id="figure_1">
  <g id="patch_1">
   <path d="M 0 288 
L 432 288 
L 432 0 
L 0 0 
z
" style="fill:#ffffff;"/>
  </g>
  <g id="axes_1">
   <g id="patch_2">
    <path d="M 54 252 
L 388.8 252 
L 388.8 34.56 
L 54 34.56 
z
" style="fill:#ffffff;"/>
   </g>
   <g id="matplotlib.axis_1">
    <g id="xtick_1">
     <g id="line2d_1">
      <defs>
       <path d="M 0 0 
L 0 3.5 
" id="macd5718f95" style="stroke:#000000;stroke-width:0.8;"/>
      </defs>
      <g>
       <use style="stroke:#000000;stroke-width:0.8;" x="69.218182" xlink:href="#macd5718f95" y="252"/>
      </g>
     </g>
     <g id="text_1">
      <text style="font-family:DejaVu Sans;font-size:10px;font-style:normal;font-weight:normal;text-anchor:middle;" transform="rotate(-0, 69.218182, 266.598437)" x="69.218182" y="266.598437">0</text>
     </g>
    </g>
    <g id="xtick_2">
     <g id="line2d_2">
      <g>
       <use style="stroke:#000000;stroke-width:0.8;" x="119.962369" xlink:href="#macd5718f95" y="252"/>
      </g>
     </g>
     <g id="text_2">
      <text style="font-family:DejaVu Sans;font-size:10px;font-style:normal;font-weight:normal;text-anchor:middle;" transform="rotate(-0, 119.962369, 266.598437)" x="119.962369" y="266.598437">500</text>
     </g>
    </g>
    <g id="xtick_3">
     <g id="line2d_3">
      <g>
       <use style="stroke:#000000;stroke-width:0.8;" x="170.706557" xlink:href="#macd5718f95" y="252"/>
      </g>
     </g>
     <g id="text_3">
      <text style="font-family:DejaVu Sans;font-size:10px;font-style:normal;font-weight:normal;text-anchor:middle;" transform="rotate(-0, 170.706557, 266.598437)" x="170.706557" y="266.598437">1000</text>
     </g>
    </g>
    <g id="xtick_4">
     <g id="line2d_4">
      <g>
       <use style="stroke:#000000;stroke-width:0.8;" x="221.450744" xlink:href="#macd5718f95" y="252"/>
      </g>
     </g>
     <g id="text_4">
      <text style="font-family:DejaVu Sans;font-size:10px;font-style:normal;font-weight:normal;text-anchor:middle;" transform="rotate(-0, 221.450744, 266.598437)" x="221.450744" y="266.598437">1500</text>
     </g>
    </g>
    <g id="xtick_5">
     <g id="line2d_5">
      <g>
       <use style="stroke:#000000;stroke-width:0.8;" x="272.194932" xlink:href="#macd5718f95" y="252"/>
      </g>
     </g>
     <g id="text_5">
      <text style="font-family:DejaVu Sans;font-size:10px;font-style:normal;font-weight:normal;text-anchor:middle;" transform="rotate(-0, 272.194932, 266.598437)" x="272.194932" y="266.598437">2000</text>
     </g>
    </g>
    <g id="xtick_6">
     <g id="line2d_6">
      <g>
       <use style="stroke:#000000;stroke-width:0.8;" x="322.939119" xlink:href="#macd5718f95" y="252"/>
      </g>
     </g>
     <g id="text_6">
      <text style="font-family:DejaVu Sans;font-size:10px;font-style:normal;font-weight:normal;text-anchor:middle;" transform="rotate(-0, 322.939119, 266.598437)" x="322.939119" y="266.598437">2500</text>
     </g>
    </g>
    <g id="xtick_7">
     <g id="line2d_7">
      <g>
       <use style="stroke:#000000;stroke-width:0.8;" x="373.683307" xlink:href="#macd5718f95" y="252"/>
      </g>
     </g>
     <g id="text_7">
      <text style="font-family:DejaVu Sans;font-size:10px;font-style:normal;font-weight:normal;text-anchor:middle;" transform="rotate(-0, 373.683307, 266.598437)" x="373.683307" y="266.598437">3000</text>
     </g>
    </g>
    <g id="text_8">
     <text style="font-family:DejaVu Sans;font-size:10px;font-style:normal;font-weight:normal;text-anchor:middle;" transform="rotate(-0, 221.4, 280.276563)" x="221.4" y="280.276563">Time</text>
    </g>
   </g>
   <g id="matplotlib.axis_2">
    <g id="ytick_1">
     <g id="line2d_8">
      <defs>
       <path d="M 0 0 
L -3.5 0 
" id="m1b0914a4b4" style="stroke:#000000;stroke-width:0.8;"/>
      </defs>
      <g>
       <use style="stroke:#000000;stroke-width:0.8;" x="54" xlink:href="#m1b0914a4b4" y="237.631969"/>
      </g>
     </g>
     <g id="text_9">
      <text style="font-family:DejaVu Sans;font-size:10px;font-style:normal;font-weight:normal;text-anchor:end;" transform="rotate(-0, 47, 241.431187)" x="47" y="241.431187">−10</text>
     </g>
    </g>
    <g id="ytick_2">
     <g id="line2d_9">
      <g>
       <use style="stroke:#000000;stroke-width:0.8;" x="54" xlink:href="#m1b0914a4b4" y="200.451013"/>
      </g>
     </g>
     <g id="text_10">
      <text style="font-family:DejaVu Sans;font-size:10px;font-style:normal;font-weight:normal;text-anchor:end;" transform="rotate(-0, 47, 204.250231)" x="47" y="204.250231">−8</text>
     </g>
    </g>
    <g id="ytick_3">
     <g id="line2d_10">
      <g>
       <use style="stroke:#000000;stroke-width:0.8;" x="54" xlink:href="#m1b0914a4b4" y="163.270057"/>
      </g>
     </g>
     <g id="text_11">
      <text style="font-family:DejaVu Sans;font-size:10px;font-style:normal;font-weight:normal;text-anchor:end;" transform="rotate(-0, 47, 167.069276)" x="47" y="167.069276">−6</text>
     </g>
    </g>
    <g id="ytick_4">
     <g id="line2d_11">
      <g>
       <use style="stroke:#000000;stroke-width:0.8;" x="54" xlink:href="#m1b0914a4b4" y="126.089101"/>
      </g>
     </g>
     <g id="text_12">
      <text style="font-family:DejaVu Sans;font-size:10px;font-style:normal;font-weight:normal;text-anchor:end;" transform="rotate(-0, 47, 129.88832)" x="47" y="129.88832">−4</text>
     </g>
    </g>
    <g id="ytick_5">
     <g id="line2d_12">
      <g>
       <use style="stroke:#000000;stroke-width:0.8;" x="54" xlink:href="#m1b0914a4b4" y="88.908145"/>
      </g>
     </g>
     <g id="text_13">
      <text style="font-family:DejaVu Sans;font-size:10px;font-style:normal;font-weight:normal;text-anchor:end;" transform="rotate(-0, 47, 92.707364)" x="47" y="92.707364">−2</text>
     </g>
    </g>
    <g id="ytick_6">
     <g id="line2d_13">
      <g>
       <use style="stroke:#000000;stroke-width:0.8;" x="54" xlink:href="#m1b0914a4b4" y="51.727189"/>
      </g>
     </g>
     <g id="text_14">
      <text style="font-family:DejaVu Sans;font-size:10px;font-style:normal;font-weight:normal;text-anchor:end;" transform="rotate(-0, 47, 55.526408)" x="47" y="55.526408">0</text>
     </g>
    </g>
    <g id="text_15">
     <text style="font-family:DejaVu Sans;font-size:10px;font-style:normal;font-weight:normal;text-anchor:middle;" transform="rotate(-90, 19.815625, 143.28)" x="19.815625" y="143.28">temperature (°C)</text>
    </g>
   </g>
   <g id="line2d_14">
    <path clip-path="url(#pe9cc76aeab)" d="M 69.218182 50.649671 
L 71.552414 49.651388 
L 72.668787 49.401154 
L 73.480694 49.437872 
L 74.191112 49.681848 
L 74.901531 50.164893 
L 75.611949 50.9135 
L 76.423856 52.134524 
L 77.235763 53.758705 
L 78.149159 56.068824 
L 79.164043 59.22838 
L 80.381903 63.785445 
L 81.80274 70.043813 
L 83.528043 78.710115 
L 86.065252 92.750834 
L 91.241159 121.576114 
L 93.372415 132.060734 
L 95.199206 140.053896 
L 96.82302 146.196153 
L 98.243857 150.762941 
L 99.664694 154.614665 
L 100.882555 157.29346 
L 101.998927 159.239716 
L 103.013811 160.602769 
L 104.028694 161.604889 
L 105.043578 162.314674 
L 105.956974 162.694384 
L 106.870369 162.843926 
L 107.885253 162.772817 
L 108.900136 162.483159 
L 110.219485 161.8593 
L 111.741811 160.887278 
L 113.467113 159.514111 
L 116.613253 156.659171 
L 119.759393 153.933826 
L 122.195114 152.085263 
L 124.021904 150.941335 
L 125.950183 149.988201 
L 127.776974 149.301469 
L 129.603765 148.837302 
L 131.430556 148.641098 
L 133.155858 148.679246 
L 134.779672 148.932448 
L 136.301998 149.391707 
L 138.0273 150.146574 
L 139.752602 151.148675 
L 141.274928 152.296804 
L 142.695765 153.676812 
L 144.015114 155.256724 
L 145.53744 157.450754 
L 147.567207 160.874525 
L 149.29251 164.187776 
L 150.307393 165.987873 
L 152.235672 168.722941 
L 153.859486 171.874771 
L 154.671393 173.943724 
L 155.990742 178.031677 
L 158.02051 185.085722 
L 161.268138 197.273231 
L 163.500882 206.442017 
L 165.632138 216.146154 
L 169.184231 232.510348 
L 170.402092 236.983626 
L 171.315487 239.546416 
L 172.025906 240.971562 
L 172.634836 241.762959 
L 173.142278 242.077695 
L 173.548231 242.105209 
L 173.954185 241.936594 
L 174.461627 241.488935 
L 175.070557 240.937727 
L 175.679487 240.320152 
L 176.085441 239.477631 
L 176.592882 237.951725 
L 177.201813 235.277745 
L 177.912231 231.070552 
L 178.825627 224.187502 
L 180.043487 213.025352 
L 182.174743 190.868346 
L 184.407487 168.49188 
L 186.13279 153.340864 
L 187.756604 140.951835 
L 189.380418 130.266958 
L 190.395301 124.796914 
L 193.033999 112.683024 
L 194.657813 106.432645 
L 196.281627 101.049623 
L 198.00693 96.11703 
L 199.732232 91.887734 
L 201.356046 88.423008 
L 203.182837 85.043966 
L 205.009627 82.119516 
L 206.836418 79.581377 
L 208.866186 77.143477 
L 210.997442 74.948165 
L 213.128697 73.066585 
L 215.46293 71.297999 
L 218.000139 69.667257 
L 220.841814 68.118808 
L 223.784977 66.760171 
L 227.641535 65.247858 
L 234.644233 62.803651 
L 246.924326 58.534208 
L 256.971675 55.488047 
L 263.974373 53.55813 
L 269.048792 52.403556 
L 274.935118 51.256495 
L 282.648234 49.996805 
L 288.230095 49.345344 
L 292.492607 49.099589 
L 296.755118 49.115677 
L 302.844421 49.47588 
L 308.730747 50.069438 
L 318.879584 51.143901 
L 333.798375 52.475966 
L 337.553445 53.142272 
L 342.018934 54.175596 
L 350.239492 56.090334 
L 354.400515 56.795102 
L 358.967492 57.305403 
L 365.259771 57.689732 
L 371.653539 57.823117 
L 373.581818 57.785612 
L 373.581818 57.785612 
" style="fill:none;stroke:#40b5c4;stroke-dasharray:5.55,2.4;stroke-dashoffset:0;stroke-width:1.5;"/>
    <defs>
     <path d="M 0 3 
C 0.795609 3 1.55874 2.683901 2.12132 2.12132 
C 2.683901 1.55874 3 0.795609 3 0 
C 3 -0.795609 2.683901 -1.55874 2.12132 -2.12132 
C 1.55874 -2.683901 0.795609 -3 0 -3 
C -0.795609 -3 -1.55874 -2.683901 -2.12132 -2.12132 
C -2.683901 -1.55874 -3 -0.795609 -3 0 
C -3 0.795609 -2.683901 1.55874 -2.12132 2.12132 
C -1.55874 2.683901 -0.795609 3 0 3 
z
" id="m0e98a3f615" style="stroke:#40b5c4;"/>
    </defs>
    <g clip-path="url(#pe9cc76aeab)">
     <use style="fill:#40b5c4;stroke:#40b5c4;" x="69.218182" xlink:href="#m0e98a3f615" y="50.649671"/>
     <use style="fill:#40b5c4;stroke:#40b5c4;" x="77.337252" xlink:href="#m0e98a3f615" y="53.989844"/>
     <use style="fill:#40b5c4;stroke:#40b5c4;" x="85.456322" xlink:href="#m0e98a3f615" y="89.30085"/>
     <use style="fill:#40b5c4;stroke:#40b5c4;" x="93.575392" xlink:href="#m0e98a3f615" y="133.000557"/>
     <use style="fill:#40b5c4;stroke:#40b5c4;" x="101.694462" xlink:href="#m0e98a3f615" y="158.755136"/>
     <use style="fill:#40b5c4;stroke:#40b5c4;" x="109.813532" xlink:href="#m0e98a3f615" y="162.075172"/>
     <use style="fill:#40b5c4;stroke:#40b5c4;" x="117.932602" xlink:href="#m0e98a3f615" y="155.482375"/>
     <use style="fill:#40b5c4;stroke:#40b5c4;" x="126.051672" xlink:href="#m0e98a3f615" y="149.943882"/>
     <use style="fill:#40b5c4;stroke:#40b5c4;" x="134.170742" xlink:href="#m0e98a3f615" y="148.812874"/>
     <use style="fill:#40b5c4;stroke:#40b5c4;" x="142.289812" xlink:href="#m0e98a3f615" y="153.251667"/>
     <use style="fill:#40b5c4;stroke:#40b5c4;" x="150.408882" xlink:href="#m0e98a3f615" y="166.122952"/>
     <use style="fill:#40b5c4;stroke:#40b5c4;" x="158.527952" xlink:href="#m0e98a3f615" y="186.934657"/>
     <use style="fill:#40b5c4;stroke:#40b5c4;" x="166.647022" xlink:href="#m0e98a3f615" y="220.98256"/>
     <use style="fill:#40b5c4;stroke:#40b5c4;" x="174.766092" xlink:href="#m0e98a3f615" y="241.162486"/>
     <use style="fill:#40b5c4;stroke:#40b5c4;" x="182.885162" xlink:href="#m0e98a3f615" y="183.475936"/>
     <use style="fill:#40b5c4;stroke:#40b5c4;" x="191.004232" xlink:href="#m0e98a3f615" y="121.835005"/>
     <use style="fill:#40b5c4;stroke:#40b5c4;" x="199.123302" xlink:href="#m0e98a3f615" y="93.317806"/>
     <use style="fill:#40b5c4;stroke:#40b5c4;" x="207.242372" xlink:href="#m0e98a3f615" y="79.063576"/>
     <use style="fill:#40b5c4;stroke:#40b5c4;" x="215.361442" xlink:href="#m0e98a3f615" y="71.36907"/>
     <use style="fill:#40b5c4;stroke:#40b5c4;" x="223.480512" xlink:href="#m0e98a3f615" y="66.891024"/>
     <use style="fill:#40b5c4;stroke:#40b5c4;" x="231.599582" xlink:href="#m0e98a3f615" y="63.84386"/>
     <use style="fill:#40b5c4;stroke:#40b5c4;" x="239.718652" xlink:href="#m0e98a3f615" y="60.941965"/>
     <use style="fill:#40b5c4;stroke:#40b5c4;" x="247.837722" xlink:href="#m0e98a3f615" y="58.249437"/>
     <use style="fill:#40b5c4;stroke:#40b5c4;" x="255.956792" xlink:href="#m0e98a3f615" y="55.78872"/>
     <use style="fill:#40b5c4;stroke:#40b5c4;" x="264.075862" xlink:href="#m0e98a3f615" y="53.532814"/>
     <use style="fill:#40b5c4;stroke:#40b5c4;" x="272.194932" xlink:href="#m0e98a3f615" y="51.756443"/>
     <use style="fill:#40b5c4;stroke:#40b5c4;" x="280.314002" xlink:href="#m0e98a3f615" y="50.34588"/>
     <use style="fill:#40b5c4;stroke:#40b5c4;" x="288.433072" xlink:href="#m0e98a3f615" y="49.328333"/>
     <use style="fill:#40b5c4;stroke:#40b5c4;" x="296.552142" xlink:href="#m0e98a3f615" y="49.109799"/>
     <use style="fill:#40b5c4;stroke:#40b5c4;" x="304.671212" xlink:href="#m0e98a3f615" y="49.624443"/>
     <use style="fill:#40b5c4;stroke:#40b5c4;" x="312.790282" xlink:href="#m0e98a3f615" y="50.540681"/>
     <use style="fill:#40b5c4;stroke:#40b5c4;" x="320.909352" xlink:href="#m0e98a3f615" y="51.308975"/>
     <use style="fill:#40b5c4;stroke:#40b5c4;" x="329.028422" xlink:href="#m0e98a3f615" y="51.907909"/>
     <use style="fill:#40b5c4;stroke:#40b5c4;" x="337.147492" xlink:href="#m0e98a3f615" y="53.059824"/>
     <use style="fill:#40b5c4;stroke:#40b5c4;" x="345.266562" xlink:href="#m0e98a3f615" y="54.980841"/>
     <use style="fill:#40b5c4;stroke:#40b5c4;" x="353.385632" xlink:href="#m0e98a3f615" y="56.642058"/>
     <use style="fill:#40b5c4;stroke:#40b5c4;" x="361.504702" xlink:href="#m0e98a3f615" y="57.496121"/>
     <use style="fill:#40b5c4;stroke:#40b5c4;" x="369.623772" xlink:href="#m0e98a3f615" y="57.820771"/>
    </g>
   </g>
   <g id="line2d_15">
    <path clip-path="url(#pe9cc76aeab)" d="M 69.218182 45.708389 
L 69.31967 45.797567 
L 69.522647 45.710871 
L 69.725624 45.650644 
L 69.9286 45.620913 
L 70.131577 45.594035 
L 70.334554 45.603556 
L 70.740507 45.543879 
L 70.841996 45.547407 
L 70.943484 45.430146 
L 71.247949 45.593361 
L 71.450926 45.486152 
L 71.653903 45.441333 
L 72.059856 45.446439 
L 73.988135 45.512658 
L 74.191112 45.622012 
L 75.003019 45.7692 
L 75.104508 45.924792 
L 75.307484 45.909297 
L 75.510461 45.99734 
L 75.814926 46.043277 
L 76.119391 46.463354 
L 76.525345 46.7739 
L 76.626833 46.991278 
L 76.728322 46.898501 
L 77.235763 47.571131 
L 77.844694 48.335138 
L 77.946182 48.711247 
L 78.04767 48.656357 
L 78.656601 49.56952 
L 79.772973 51.974158 
L 80.077438 52.985559 
L 80.178926 53.008642 
L 80.483391 54.084347 
L 80.686368 54.662197 
L 80.889345 55.401064 
L 84.33995 68.605872 
L 84.745903 70.441045 
L 85.253345 72.658178 
L 86.065252 76.54039 
L 86.877159 80.510796 
L 87.993531 86.528036 
L 89.92181 94.3721 
L 90.226275 95.992137 
L 90.530741 97.176691 
L 90.936694 99.534515 
L 91.545624 102.403295 
L 92.560508 105.802996 
L 93.270927 107.378365 
L 94.082834 109.715774 
L 95.199206 112.746139 
L 96.82302 116.896869 
L 98.04088 119.732744 
L 98.446834 120.202578 
L 99.258741 121.571056 
L 99.766183 122.503766 
L 100.172136 123.124777 
L 100.781066 124.09658 
L 101.998927 125.968427 
L 102.201904 126.224455 
L 102.912322 127.161766 
L 103.115299 127.333216 
L 103.622741 127.750528 
L 104.536136 128.43821 
L 104.637625 128.415171 
L 104.840601 128.623339 
L 104.94209 128.622222 
L 105.246555 128.817209 
L 105.55102 129.044365 
L 106.058462 129.381443 
L 106.768881 129.712208 
L 106.870369 129.621692 
L 107.073346 129.797211 
L 107.174834 129.638464 
L 107.377811 129.739042 
L 107.479299 129.655856 
L 107.682276 129.747534 
L 107.885253 129.761779 
L 107.986741 129.837847 
L 108.088229 129.720071 
L 108.494183 129.834718 
L 108.595671 129.72883 
L 108.798648 129.796715 
L 109.103113 129.878332 
L 109.204602 129.766469 
L 109.407578 129.923116 
L 109.509067 129.758916 
L 109.712043 129.94908 
L 109.813532 129.830223 
L 110.016509 129.935553 
L 110.219485 129.911565 
L 110.320974 129.987313 
L 110.422462 129.850062 
L 110.625439 130.025174 
L 110.726927 129.930057 
L 110.929904 129.983741 
L 111.132881 130.030777 
L 111.640323 129.890822 
L 111.843299 129.768375 
L 112.553718 129.470381 
L 112.756695 129.359033 
L 112.858183 129.344929 
L 113.06116 129.227455 
L 113.162648 129.225647 
L 113.264137 129.071145 
L 113.467113 129.112029 
L 113.67009 129.003605 
L 113.771578 129.016397 
L 113.974555 128.900944 
L 114.481997 128.818654 
L 114.583485 128.584548 
L 114.786462 128.685906 
L 114.887951 128.4963 
L 115.090927 128.548522 
L 115.192416 128.419311 
L 115.395392 128.466169 
L 115.496881 128.316588 
L 115.699858 128.375475 
L 115.801346 128.215159 
L 116.004323 128.277592 
L 116.105811 128.148683 
L 116.308788 128.168539 
L 116.511765 128.097534 
L 118.845997 126.997344 
L 119.048974 126.881998 
L 122.39809 124.808747 
L 123.615951 124.065386 
L 123.717439 123.595596 
L 123.818928 123.649563 
L 125.138276 119.786721 
L 125.239765 119.769204 
L 125.442742 119.661614 
L 125.54423 119.635579 
L 125.645718 119.729491 
L 125.950183 119.625677 
L 127.371021 119.3427 
L 127.472509 119.444298 
L 127.675486 119.29297 
L 127.776974 119.442224 
L 128.081439 119.189741 
L 128.284416 119.268078 
L 128.487393 119.321682 
L 128.588881 119.144159 
L 128.69037 119.34528 
L 128.994835 119.190167 
L 129.705253 119.201168 
L 129.806742 119.010046 
L 130.111207 119.185672 
L 130.212695 119.119861 
L 130.415672 119.1707 
L 130.618649 119.155763 
L 130.720137 119.002919 
L 131.024602 119.181142 
L 131.227579 119.088365 
L 131.329067 119.252822 
L 131.532044 119.107158 
L 131.633532 118.998673 
L 131.735021 119.168608 
L 131.836509 119.087975 
L 132.039486 119.160585 
L 132.140974 119.061408 
L 132.343951 119.148725 
L 132.546928 119.105882 
L 133.257346 119.177845 
L 133.460323 119.143725 
L 133.764788 119.288865 
L 133.866277 119.131111 
L 134.069253 119.289841 
L 134.170742 119.289397 
L 134.373719 119.200361 
L 134.475207 119.455512 
L 134.576695 119.220094 
L 134.982649 119.446479 
L 135.084137 119.257281 
L 135.591579 119.476388 
L 136.606463 119.676143 
L 136.80944 119.626342 
L 136.910928 119.563377 
L 137.215393 119.863302 
L 137.41837 119.848277 
L 137.621347 119.938209 
L 137.722835 120.00386 
L 137.824323 119.839953 
L 138.0273 120.111335 
L 138.230277 120.216097 
L 138.331765 120.170355 
L 138.433254 120.443386 
L 138.63623 120.256724 
L 139.448137 120.773319 
L 139.549626 120.576338 
L 139.752602 120.89964 
L 139.854091 120.963048 
L 139.955579 121.211604 
L 140.057068 121.10326 
L 140.260044 121.371362 
L 140.463021 121.264145 
L 140.665998 121.643604 
L 140.868975 121.882089 
L 140.970463 121.800534 
L 141.17344 122.105903 
L 141.376416 122.096923 
L 141.579393 122.459044 
L 141.985347 122.870823 
L 142.188323 122.917575 
L 143.00023 123.923897 
L 143.101719 123.785715 
L 143.304696 124.199773 
L 143.507672 124.440173 
L 143.609161 124.506782 
L 143.710649 124.916142 
L 143.812137 124.885355 
L 143.913626 124.85627 
L 144.116603 125.181788 
L 144.725533 126.00728 
L 144.827021 125.971786 
L 145.638928 127.282041 
L 145.740417 127.115891 
L 146.044882 127.783797 
L 146.14637 127.846266 
L 146.552324 128.576773 
L 146.653812 128.651963 
L 147.262742 129.949063 
L 147.668696 130.678409 
L 147.871672 131.131028 
L 148.074649 131.553605 
L 148.277626 131.954269 
L 148.379114 131.963257 
L 148.683579 132.871678 
L 149.191021 133.987478 
L 149.29251 134.078952 
L 149.698463 135.386299 
L 150.611858 137.657045 
L 150.814835 138.387668 
L 151.017812 138.745338 
L 152.032696 142.00442 
L 152.337161 142.90371 
L 152.641626 143.941297 
L 152.743114 144.193336 
L 152.946091 145.005487 
L 153.149068 145.597361 
L 153.65651 147.456451 
L 153.757998 147.652528 
L 154.163952 149.367657 
L 154.366928 149.634863 
L 154.671393 151.028897 
L 154.87437 151.527524 
L 155.178835 152.544191 
L 155.280324 152.698435 
L 155.686277 154.40438 
L 156.092231 155.611069 
L 156.802649 158.372056 
L 157.005626 158.871197 
L 157.41158 160.456618 
L 158.832417 165.29262 
L 159.542835 168.777457 
L 159.644324 169.073899 
L 159.948789 170.582012 
L 160.151766 171.025137 
L 160.354742 171.913958 
L 160.456231 171.881797 
L 160.557719 172.141336 
L 160.862184 173.516488 
L 160.963673 173.683241 
L 162.181533 177.997169 
L 162.283022 178.064647 
L 162.587487 179.676095 
L 162.790463 180.411957 
L 162.99344 181.288411 
L 163.196417 182.050459 
L 163.805347 185.0006 
L 164.109812 186.194683 
L 164.820231 190.070619 
L 164.921719 190.200104 
L 165.327673 192.581437 
L 167.052975 201.749717 
L 169.082743 210.093993 
L 169.996138 212.319618 
L 170.097626 212.286695 
L 170.199115 212.125093 
L 170.300603 212.632806 
L 170.402092 212.601159 
L 170.605068 212.70468 
L 170.706557 212.428795 
L 170.808045 212.666279 
L 170.909533 212.490369 
L 171.11251 211.797244 
L 171.416975 211.254249 
L 171.72144 209.920885 
L 171.822929 209.891862 
L 172.025906 208.761444 
L 172.736324 204.552199 
L 173.345254 199.075913 
L 173.954185 193.855355 
L 175.375022 179.439586 
L 176.288417 169.589971 
L 177.709255 155.368338 
L 178.01372 152.569118 
L 178.927115 144.603574 
L 179.434557 140.884435 
L 179.84051 137.727652 
L 183.189627 114.682715 
L 183.59558 112.450193 
L 183.900045 110.305963 
L 184.103022 109.688293 
L 184.305999 108.195915 
L 184.407487 107.912513 
L 184.711952 106.444353 
L 184.914929 105.971903 
L 185.016418 105.199138 
L 185.117906 105.338685 
L 185.422371 103.92334 
L 185.828325 101.926511 
L 185.929813 102.122384 
L 186.13279 100.865716 
L 186.234278 100.767443 
L 186.437255 99.930179 
L 186.640232 99.025756 
L 186.74172 99.076391 
L 186.843208 97.898441 
L 186.944697 97.950636 
L 187.046185 97.684342 
L 187.35065 96.27265 
L 187.452139 96.222653 
L 187.553627 96.030362 
L 187.655115 95.166574 
L 187.756604 95.291938 
L 188.162557 93.656875 
L 188.264046 93.614076 
L 188.771487 91.717205 
L 188.872976 91.698163 
L 188.974464 91.092248 
L 189.075953 91.110616 
L 189.278929 90.306842 
L 189.380418 90.405523 
L 189.583394 89.321521 
L 189.684883 89.366819 
L 189.88786 88.763882 
L 190.090836 88.040315 
L 190.192325 88.077458 
L 190.293813 87.273082 
L 190.395301 87.384102 
L 190.902743 86.056198 
L 191.917627 83.400461 
L 192.019115 83.586424 
L 192.222092 82.689093 
L 192.323581 82.775877 
L 192.425069 82.114806 
L 192.526557 82.43661 
L 192.729534 81.937531 
L 192.831022 82.015912 
L 192.932511 81.457139 
L 193.033999 81.515415 
L 193.135488 81.470738 
L 193.236976 81.008518 
L 193.338464 81.157497 
L 193.439953 80.753199 
L 193.541441 80.785289 
L 193.642929 80.693593 
L 193.744418 80.300305 
L 193.845906 80.499086 
L 194.048883 79.945773 
L 194.150371 79.855247 
L 194.25186 79.517257 
L 194.353348 79.661201 
L 194.556325 79.191233 
L 194.657813 79.455878 
L 194.759302 78.583545 
L 194.962278 78.825886 
L 195.063767 78.230892 
L 195.165255 78.407157 
L 195.368232 77.971442 
L 195.46972 78.066702 
L 195.571209 77.463145 
L 195.672697 77.666357 
L 196.07865 76.730359 
L 196.180139 76.824838 
L 196.281627 76.763902 
L 196.383116 76.073277 
L 196.484604 76.53929 
L 196.687581 75.713532 
L 196.789069 75.841484 
L 196.992046 75.449065 
L 197.093534 75.377137 
L 197.195023 74.943852 
L 197.296511 75.1877 
L 197.499488 74.560953 
L 197.600976 74.687912 
L 197.702464 74.119087 
L 197.803953 74.321626 
L 198.00693 73.927877 
L 198.108418 73.987128 
L 198.209906 73.34118 
L 198.311395 73.536361 
L 198.412883 73.383624 
L 198.514371 73.015405 
L 198.61586 73.089761 
L 198.818837 72.742285 
L 198.920325 72.877826 
L 199.021813 72.177183 
L 199.123302 72.439257 
L 199.529255 71.841905 
L 199.732232 71.723119 
L 199.83372 71.524019 
L 199.935209 71.591461 
L 200.138185 71.179362 
L 200.239674 71.180089 
L 200.341162 70.972941 
L 200.442651 71.066853 
L 200.645627 70.718331 
L 200.747116 70.823713 
L 200.950092 70.363001 
L 201.051581 70.459643 
L 201.153069 70.102611 
L 201.254558 70.16555 
L 201.761999 69.558713 
L 202.269441 69.008485 
L 202.37093 69.098585 
L 202.573906 68.78242 
L 202.776883 68.510701 
L 202.878372 68.520151 
L 203.690279 67.555732 
L 203.791767 67.579755 
L 204.400697 66.778322 
L 204.502186 66.816475 
L 205.415581 65.948486 
L 205.517069 66.004705 
L 205.720046 65.772275 
L 205.821534 65.830746 
L 206.126 65.455612 
L 206.227488 65.522877 
L 206.633441 65.263285 
L 206.73493 65.29518 
L 207.140883 64.987631 
L 207.34386 64.908789 
L 207.546837 64.800995 
L 207.749814 64.680347 
L 207.851302 64.492275 
L 207.95279 64.580992 
L 208.967674 64.060763 
L 209.373628 63.917794 
L 209.576604 63.630261 
L 209.779581 63.698252 
L 209.881069 63.465715 
L 209.982558 63.616326 
L 210.185535 63.438288 
L 210.287023 63.548795 
L 210.388511 63.166711 
L 210.49 63.369304 
L 210.591488 63.298564 
L 210.692976 63.078278 
L 210.794465 63.243461 
L 210.895953 62.973853 
L 210.997442 63.180523 
L 211.09893 63.074909 
L 211.200418 62.801489 
L 211.301907 63.074572 
L 211.504883 62.694227 
L 211.606372 62.851006 
L 211.70786 62.635082 
L 211.809349 62.777802 
L 212.012325 62.547854 
L 212.113814 62.752077 
L 212.31679 62.3865 
L 212.418279 62.510091 
L 212.519767 62.259948 
L 212.621256 62.400878 
L 212.824232 62.211867 
L 212.925721 62.259115 
L 213.027209 62.078117 
L 213.230186 62.07856 
L 215.665907 61.032835 
L 215.767395 61.071769 
L 216.07186 60.923889 
L 216.274837 60.834711 
L 216.477814 60.713389 
L 216.579302 60.754539 
L 216.883767 60.549482 
L 216.985256 60.640061 
L 217.289721 60.393997 
L 217.898651 60.247642 
L 218.304605 60.053028 
L 218.507581 59.97938 
L 218.60907 59.901513 
L 218.710558 60.010123 
L 219.015023 59.701616 
L 219.218 59.749343 
L 220.029907 59.407736 
L 220.131395 59.48539 
L 220.334372 59.290616 
L 220.43586 59.371072 
L 220.740326 59.116533 
L 221.044791 59.114689 
L 221.856698 58.82634 
L 222.262651 58.718653 
L 222.36414 58.683017 
L 222.465628 58.500884 
L 222.668605 58.59203 
L 222.97307 58.379421 
L 223.074558 58.530882 
L 223.379023 58.278825 
L 223.683488 58.250281 
L 223.784977 58.147965 
L 223.886465 58.250015 
L 224.19093 57.901369 
L 224.292419 58.104103 
L 224.495395 57.972552 
L 225.104326 57.752142 
L 227.540047 57.049194 
L 227.641535 56.887699 
L 227.743023 56.998879 
L 227.946 56.960264 
L 228.757907 56.714324 
L 229.265349 56.543254 
L 229.366837 56.394754 
L 229.569814 56.445602 
L 229.772791 56.425373 
L 229.874279 56.355909 
L 229.975768 56.447818 
L 230.178744 56.277634 
L 230.381721 56.242353 
L 230.990651 56.070362 
L 231.09214 55.920762 
L 231.295117 56.050097 
L 231.396605 55.908653 
L 231.498093 55.978489 
L 231.599582 55.85761 
L 231.70107 55.965546 
L 232.005535 55.719304 
L 232.208512 55.747246 
L 232.31 55.632254 
L 232.411489 55.939307 
L 232.614465 55.513858 
L 232.715954 55.699554 
L 232.817442 55.440069 
L 232.918931 55.645728 
L 233.020419 55.412074 
L 233.223396 55.635746 
L 233.324884 55.257794 
L 233.426372 55.472673 
L 233.933814 55.272846 
L 234.035303 55.398919 
L 234.136791 55.070041 
L 234.238279 55.292295 
L 234.441256 55.008858 
L 234.542745 55.195458 
L 234.644233 54.99049 
L 234.84721 55.087895 
L 234.948698 54.819296 
L 235.050186 55.138068 
L 235.253163 54.769034 
L 235.354652 55.03648 
L 235.45614 54.689926 
L 235.557628 54.902145 
L 235.659117 54.655265 
L 235.862093 54.965173 
L 235.963582 54.554527 
L 236.166559 54.744231 
L 236.268047 54.42677 
L 236.369535 54.657251 
L 236.471024 54.435848 
L 236.674 54.655496 
L 236.775489 54.257332 
L 236.978466 54.484958 
L 237.079954 54.204002 
L 237.181442 54.435688 
L 237.282931 54.202726 
L 237.485907 54.393528 
L 237.587396 54.063516 
L 237.688884 54.302134 
L 237.891861 54.001002 
L 237.993349 54.146152 
L 238.094838 54.000789 
L 238.196326 54.141205 
L 238.297814 54.064172 
L 238.399303 53.837007 
L 238.500791 54.133989 
L 238.703768 53.792063 
L 238.805256 53.896382 
L 238.906745 53.775521 
L 239.008233 53.833762 
L 239.21121 53.731464 
L 239.312698 53.923898 
L 239.414187 53.475879 
L 239.617163 53.757243 
L 239.718652 53.436272 
L 239.82014 53.633244 
L 240.023117 53.48696 
L 240.124605 53.641063 
L 240.226094 53.245984 
L 240.42907 53.471624 
L 240.530559 53.216216 
L 240.632047 53.375638 
L 240.835024 53.247367 
L 240.936512 53.383616 
L 241.038001 53.023712 
L 241.139489 53.26616 
L 241.342466 52.997455 
L 241.443954 53.125549 
L 241.545442 52.971482 
L 241.748419 53.076262 
L 241.849908 52.833991 
L 241.951396 53.109628 
L 242.154373 52.735683 
L 242.255861 52.956997 
L 242.357349 52.678275 
L 242.458838 52.894324 
L 242.560326 52.805022 
L 242.661815 52.550554 
L 242.864791 52.683434 
L 243.169256 52.538817 
L 243.270745 52.609167 
L 243.57521 52.395511 
L 244.285629 52.228874 
L 244.387117 52.06736 
L 244.488605 52.220754 
L 244.691582 52.124892 
L 245.097536 52.04823 
L 245.300512 51.926643 
L 245.503489 51.986426 
L 245.706466 51.885157 
L 245.807954 51.920385 
L 246.112419 51.6851 
L 246.315396 51.80924 
L 246.619861 51.6078 
L 246.72135 51.796634 
L 246.924326 51.564151 
L 247.431768 51.485397 
L 247.533257 51.577962 
L 247.837722 51.277061 
L 247.93921 51.424657 
L 248.040698 51.309434 
L 248.142187 51.382195 
L 248.345164 51.347676 
L 248.751117 51.183007 
L 248.954094 51.164374 
L 249.664512 50.962756 
L 249.766001 51.082464 
L 249.968978 50.980681 
L 250.171954 51.005626 
L 250.374931 50.789542 
L 250.577908 50.92994 
L 250.882373 50.754172 
L 250.983861 50.901395 
L 251.288326 50.699051 
L 251.897257 50.720699 
L 252.100233 50.461922 
L 252.30321 50.59202 
L 252.607675 50.480255 
L 252.709164 50.584254 
L 252.91214 50.414568 
L 253.115117 50.404994 
L 253.318094 50.374304 
L 254.535954 50.182102 
L 254.738931 50.053352 
L 254.941908 50.130243 
L 255.144885 49.995324 
L 255.246373 50.152937 
L 255.44935 49.965184 
L 258.798466 49.372601 
L 258.899955 49.269967 
L 259.102931 49.403521 
L 259.407396 49.222966 
L 259.610373 49.305921 
L 259.81335 49.150702 
L 260.016327 49.232363 
L 260.219303 49.150418 
L 260.320792 49.230466 
L 260.726745 49.023778 
L 260.929722 49.03415 
L 261.234187 49.044433 
L 261.538652 48.908059 
L 262.147583 48.894549 
L 262.350559 48.732025 
L 262.655024 48.735979 
L 262.858001 48.734596 
L 263.263955 48.619799 
L 263.872885 48.576274 
L 264.075862 48.457523 
L 264.684792 48.449917 
L 264.887769 48.302835 
L 265.192234 48.325954 
L 265.293722 48.318419 
L 265.395211 48.199403 
L 265.496699 48.376483 
L 265.801164 48.110384 
L 266.004141 48.235411 
L 266.207118 48.142368 
L 266.308606 48.19107 
L 266.613071 48.000835 
L 266.816048 48.05725 
L 267.120513 47.99908 
L 267.222001 48.09714 
L 267.424978 47.848629 
L 267.729443 47.949917 
L 267.93242 47.837673 
L 268.033908 47.933907 
L 268.338373 47.730854 
L 268.642839 47.770585 
L 268.845815 47.731545 
L 269.048792 47.660912 
L 269.15028 47.544555 
L 269.353257 47.614621 
L 269.657722 47.506721 
L 269.759211 47.638591 
L 270.063676 47.434031 
L 270.266653 47.515887 
L 270.469629 47.397863 
L 270.571118 47.504965 
L 270.875583 47.331786 
L 271.180048 47.365241 
L 271.281536 47.237502 
L 271.484513 47.359142 
L 271.68749 47.097299 
L 271.991955 47.343735 
L 272.194932 47.0278 
L 272.397908 47.152011 
L 272.803862 47.111252 
L 272.90535 46.885204 
L 273.108327 47.046735 
L 273.412792 46.934403 
L 273.615769 46.965234 
L 273.818746 46.868272 
L 274.224699 46.817992 
L 274.326188 46.920113 
L 274.630653 46.703656 
L 274.833629 46.769538 
L 275.341071 46.740001 
L 275.44256 46.556822 
L 275.747025 46.674403 
L 276.355955 46.46346 
L 276.558932 46.516737 
L 276.66042 46.567088 
L 276.964885 46.408606 
L 277.167862 46.43192 
L 277.370839 46.355134 
L 277.472327 46.437841 
L 277.675304 46.216775 
L 277.979769 46.287497 
L 278.487211 46.175821 
L 278.690188 46.127136 
L 279.299118 46.14873 
L 279.400606 45.900131 
L 279.603583 46.030512 
L 280.111025 45.958283 
L 280.314002 45.879955 
L 280.922932 45.885309 
L 281.125909 45.758509 
L 281.328885 45.792195 
L 282.140792 45.647879 
L 282.242281 45.752198 
L 282.445258 45.610505 
L 282.648234 45.650077 
L 282.952699 45.585401 
L 283.257165 45.57721 
L 283.56163 45.534766 
L 283.663118 45.366303 
L 283.866095 45.485798 
L 284.678002 45.367225 
L 284.880979 45.35602 
L 284.982467 45.305385 
L 285.083955 45.41559 
L 285.38842 45.228688 
L 285.794374 45.327263 
L 286.200327 45.11437 
L 286.403304 45.268579 
L 286.606281 45.153871 
L 287.113723 45.21649 
L 287.3167 45.068309 
L 288.027118 45.054977 
L 288.331583 45.019305 
L 288.940514 45.011505 
L 289.042002 44.788577 
L 289.14349 44.993598 
L 289.447955 44.918851 
L 289.549444 44.905767 
L 289.650932 45.016646 
L 289.853909 44.875025 
L 290.056886 44.848324 
L 290.158374 44.948069 
L 290.361351 44.831269 
L 290.564328 44.884492 
L 290.767304 44.767585 
L 291.477723 44.796271 
L 291.6807 44.701172 
L 291.883676 44.811377 
L 292.086653 44.727446 
L 292.188142 44.844034 
L 292.391118 44.7072 
L 292.594095 44.679329 
L 292.797072 44.726383 
L 292.89856 44.582917 
L 293.000049 44.820631 
L 293.304514 44.574195 
L 293.50749 44.65348 
L 293.811956 44.711313 
L 294.116421 44.525723 
L 294.319397 44.663869 
L 294.623862 44.626992 
L 294.826839 44.627631 
L 295.131304 44.548665 
L 295.232793 44.678443 
L 295.435769 44.580825 
L 295.638746 44.635112 
L 296.0447 44.567209 
L 296.247676 44.599441 
L 296.552142 44.578698 
L 296.65363 44.469273 
L 296.958095 44.62334 
L 298.277444 44.574372 
L 298.378932 44.45048 
L 298.683397 44.608909 
L 299.393816 44.518418 
L 299.596793 44.592598 
L 299.698281 44.533914 
L 299.79977 44.662522 
L 300.104235 44.529836 
L 300.814653 44.600682 
L 300.916142 44.481222 
L 301.220607 44.60554 
L 301.423584 44.636708 
L 301.62656 44.62756 
L 301.728049 44.483669 
L 301.931025 44.656636 
L 302.032514 44.657629 
L 302.134002 44.470337 
L 302.235491 44.668337 
L 302.438467 44.648906 
L 302.844421 44.689612 
L 302.945909 44.520014 
L 303.250374 44.734928 
L 303.453351 44.62912 
L 303.554839 44.76177 
L 303.757816 44.577492 
L 304.062281 44.712837 
L 304.671212 44.559586 
L 304.874188 44.680003 
L 305.280142 44.719646 
L 305.38163 44.727872 
L 305.483119 44.605363 
L 305.787584 44.799321 
L 305.99056 44.687733 
L 306.092049 44.858856 
L 306.295026 44.646707 
L 306.599491 44.809994 
L 307.208421 44.692484 
L 307.411398 44.803363 
L 307.91884 44.855452 
L 308.020328 44.673939 
L 308.223305 44.846516 
L 309.74563 44.943921 
L 309.948607 44.954736 
L 310.050095 44.782655 
L 310.253072 44.939382 
L 310.760514 45.015441 
L 310.862002 44.846268 
L 311.064979 45.011895 
L 311.267956 44.996187 
L 311.369444 44.993563 
L 311.470933 45.172132 
L 311.673909 44.982003 
L 311.876886 45.02544 
L 311.978375 45.128021 
L 312.181351 45.077564 
L 312.485816 45.103484 
L 312.587305 44.980656 
L 312.89177 45.100896 
L 313.297723 45.128234 
L 313.5007 45.111108 
L 314.10963 45.178195 
L 314.312607 45.164615 
L 315.023026 45.178692 
L 315.124514 45.105753 
L 315.327491 45.245105 
L 316.951305 45.235248 
L 317.052793 45.379635 
L 317.25577 45.256984 
L 317.357258 45.391549 
L 317.661724 45.263615 
L 318.169165 45.384209 
L 318.676607 45.323185 
L 319.082561 45.361161 
L 319.184049 45.379103 
L 319.285538 45.232659 
L 319.387026 45.361906 
L 319.488514 45.30847 
L 319.590003 45.410165 
L 319.792979 45.308753 
L 319.894468 45.489876 
L 320.097445 45.281273 
L 320.40191 45.434454 
L 321.01084 45.279855 
L 321.315305 45.386018 
L 321.721259 45.398144 
L 321.822747 45.267409 
L 322.127212 45.39162 
L 322.330189 45.42059 
L 322.431677 45.454311 
L 322.634654 45.323398 
L 322.939119 45.449488 
L 323.142096 45.357615 
L 323.243584 45.505832 
L 323.446561 45.33978 
L 323.852514 45.420164 
L 324.15698 45.39045 
L 324.258468 45.431369 
L 324.359956 45.290918 
L 324.562933 45.399775 
L 325.679305 45.341446 
L 325.780794 45.505867 
L 326.085259 45.391585 
L 326.592701 45.45002 
L 329.028422 45.456261 
L 329.12991 45.639298 
L 329.332887 45.456651 
L 329.434375 45.434631 
L 329.637352 45.57409 
L 329.840329 45.557566 
L 330.144794 45.58689 
L 330.246282 45.474203 
L 330.449259 45.619618 
L 330.753724 45.640149 
L 330.956701 45.6093 
L 331.159677 45.608449 
L 331.362654 45.682734 
L 331.565631 45.693904 
L 332.174561 45.731525 
L 332.27605 45.637454 
L 332.479026 45.77943 
L 332.682003 45.81425 
L 332.986468 45.887578 
L 333.087957 45.698407 
L 333.290933 45.940766 
L 333.392422 45.872544 
L 333.696887 46.001826 
L 333.899864 45.916442 
L 334.610282 46.057566 
L 334.813259 46.034625 
L 335.523678 46.164758 
L 335.625166 46.12515 
L 335.828143 46.237306 
L 336.234096 46.340632 
L 336.335585 46.369814 
L 336.437073 46.214293 
L 336.741538 46.557709 
L 336.944515 46.390097 
L 337.350468 46.552567 
L 337.451957 46.501294 
L 337.553445 46.712734 
L 337.756422 46.556503 
L 337.959399 46.628413 
L 338.060887 46.77858 
L 338.263864 46.71979 
L 338.46684 46.801664 
L 338.669817 46.722697 
L 338.974282 46.961546 
L 339.481724 46.916124 
L 339.684701 47.072389 
L 339.786189 46.958319 
L 339.989166 47.155823 
L 340.496608 47.31216 
L 340.598096 47.16529 
L 340.801073 47.396338 
L 341.00405 47.413252 
L 341.511492 47.497147 
L 341.815957 47.620259 
L 341.917445 47.631464 
L 342.018934 47.806132 
L 342.22191 47.664227 
L 342.424887 47.823401 
L 342.627864 47.819217 
L 343.236794 48.171816 
L 343.439771 48.004984 
L 343.642748 48.190042 
L 344.150189 48.426018 
L 344.251678 48.232025 
L 344.454655 48.483496 
L 344.657631 48.491652 
L 344.860608 48.58661 
L 344.962096 48.61526 
L 345.063585 48.528316 
L 345.165073 48.716955 
L 345.266562 48.641961 
L 345.469538 48.791347 
L 345.571027 48.777589 
L 345.672515 48.984313 
L 345.875492 48.82365 
L 346.281445 49.101503 
L 346.382934 49.079767 
L 346.484422 49.212524 
L 346.788887 49.143521 
L 347.093352 49.376307 
L 347.194841 49.318722 
L 347.296329 49.503142 
L 347.499306 49.471619 
L 347.702283 49.528388 
L 348.209724 49.769293 
L 348.311213 49.77291 
L 348.412701 49.64572 
L 348.615678 49.879534 
L 350.239492 50.376166 
L 350.34098 50.538992 
L 350.543957 50.436871 
L 350.645445 50.689726 
L 350.848422 50.508958 
L 351.051399 50.626681 
L 351.254376 50.760891 
L 351.355864 50.772486 
L 351.457352 50.903824 
L 351.761818 50.789435 
L 351.964794 51.027504 
L 352.167771 51.013072 
L 352.269259 51.171323 
L 352.573725 51.020518 
L 352.776701 51.215469 
L 353.081166 51.344042 
L 353.48712 51.348403 
L 353.791585 51.555268 
L 353.893073 51.509598 
L 354.09605 51.605548 
L 354.197539 51.458786 
L 354.400515 51.706038 
L 354.70498 51.747702 
L 354.806469 51.86124 
L 355.009446 51.712704 
L 355.313911 51.910705 
L 355.516887 51.808052 
L 355.618376 52.020449 
L 355.821353 51.804258 
L 356.125818 51.951695 
L 356.227306 51.876948 
L 356.430283 52.003287 
L 356.63326 51.871239 
L 357.039213 52.015733 
L 357.140701 51.928682 
L 357.343678 52.06463 
L 357.546655 51.913435 
L 357.749632 52.027611 
L 359.271957 52.046723 
L 359.474934 52.114414 
L 359.677911 52.099557 
L 359.779399 52.175792 
L 359.982376 51.984033 
L 360.185353 52.078813 
L 360.591306 52.148844 
L 360.895771 52.103741 
L 361.098748 52.181395 
L 361.301725 52.120335 
L 361.504702 52.174977 
L 361.707678 52.055304 
L 362.012143 52.134058 
L 362.722562 52.120938 
L 362.82405 52.189196 
L 363.027027 52.127711 
L 363.230004 52.103989 
L 363.331492 52.005556 
L 363.635957 52.144979 
L 364.143399 51.959141 
L 364.447864 52.094628 
L 364.650841 52.00857 
L 364.75233 52.057432 
L 364.955306 51.805074 
L 365.056795 51.962758 
L 365.665725 51.89801 
L 365.767213 51.665261 
L 365.97019 51.804684 
L 366.071678 51.846879 
L 366.274655 51.761743 
L 367.086562 51.588245 
L 367.188051 51.645368 
L 367.492516 51.470912 
L 367.695492 51.538496 
L 367.898469 51.393542 
L 367.999958 51.522363 
L 368.202934 51.206392 
L 368.304423 51.35046 
L 368.405911 51.250999 
L 368.507399 51.366771 
L 368.710376 51.217278 
L 368.811865 51.358296 
L 368.913353 51.298088 
L 369.014841 51.022752 
L 369.217818 51.120228 
L 369.319306 51.205966 
L 369.522283 51.044417 
L 369.623772 51.143985 
L 370.029725 50.935134 
L 370.131213 51.000236 
L 370.33419 50.851807 
L 370.435679 51.026582 
L 370.638655 50.80759 
L 371.146097 50.643878 
L 371.247586 50.853473 
L 371.450562 50.561118 
L 371.755027 50.682599 
L 371.958004 50.442828 
L 372.059493 50.61427 
L 372.262469 50.406058 
L 372.769911 50.331311 
L 372.8714 50.137566 
L 373.074376 50.324964 
L 373.277353 50.133843 
L 373.378841 50.272379 
L 373.581818 50.093774 
L 373.581818 50.093774 
" style="fill:none;stroke:#081d58;stroke-dasharray:5.55,2.4;stroke-dashoffset:0;stroke-width:1.5;"/>
    <defs>
     <path d="M -0 4.242641 
L 4.242641 0 
L 0 -4.242641 
L -4.242641 -0 
z
" id="m3c48cf7f1d" style="stroke:#081d58;stroke-linejoin:miter;"/>
    </defs>
    <g clip-path="url(#pe9cc76aeab)">
     <use style="fill:#081d58;stroke:#081d58;stroke-linejoin:miter;" x="69.218182" xlink:href="#m3c48cf7f1d" y="45.708389"/>
     <use style="fill:#081d58;stroke:#081d58;stroke-linejoin:miter;" x="77.337252" xlink:href="#m3c48cf7f1d" y="47.70004"/>
     <use style="fill:#081d58;stroke:#081d58;stroke-linejoin:miter;" x="85.456322" xlink:href="#m3c48cf7f1d" y="73.797442"/>
     <use style="fill:#081d58;stroke:#081d58;stroke-linejoin:miter;" x="93.575392" xlink:href="#m3c48cf7f1d" y="108.252445"/>
     <use style="fill:#081d58;stroke:#081d58;stroke-linejoin:miter;" x="101.694462" xlink:href="#m3c48cf7f1d" y="125.513512"/>
     <use style="fill:#081d58;stroke:#081d58;stroke-linejoin:miter;" x="109.813532" xlink:href="#m3c48cf7f1d" y="129.830223"/>
     <use style="fill:#081d58;stroke:#081d58;stroke-linejoin:miter;" x="117.932602" xlink:href="#m3c48cf7f1d" y="127.506768"/>
     <use style="fill:#081d58;stroke:#081d58;stroke-linejoin:miter;" x="126.051672" xlink:href="#m3c48cf7f1d" y="119.605404"/>
     <use style="fill:#081d58;stroke:#081d58;stroke-linejoin:miter;" x="134.170742" xlink:href="#m3c48cf7f1d" y="119.289397"/>
     <use style="fill:#081d58;stroke:#081d58;stroke-linejoin:miter;" x="142.289812" xlink:href="#m3c48cf7f1d" y="123.063629"/>
     <use style="fill:#081d58;stroke:#081d58;stroke-linejoin:miter;" x="150.408882" xlink:href="#m3c48cf7f1d" y="137.242854"/>
     <use style="fill:#081d58;stroke:#081d58;stroke-linejoin:miter;" x="158.527952" xlink:href="#m3c48cf7f1d" y="164.001017"/>
     <use style="fill:#081d58;stroke:#081d58;stroke-linejoin:miter;" x="166.647022" xlink:href="#m3c48cf7f1d" y="199.474556"/>
     <use style="fill:#081d58;stroke:#081d58;stroke-linejoin:miter;" x="174.766092" xlink:href="#m3c48cf7f1d" y="185.807529"/>
     <use style="fill:#081d58;stroke:#081d58;stroke-linejoin:miter;" x="182.885162" xlink:href="#m3c48cf7f1d" y="116.714169"/>
     <use style="fill:#081d58;stroke:#081d58;stroke-linejoin:miter;" x="191.004232" xlink:href="#m3c48cf7f1d" y="85.776342"/>
     <use style="fill:#081d58;stroke:#081d58;stroke-linejoin:miter;" x="199.123302" xlink:href="#m3c48cf7f1d" y="72.439257"/>
     <use style="fill:#081d58;stroke:#081d58;stroke-linejoin:miter;" x="207.242372" xlink:href="#m3c48cf7f1d" y="65.000626"/>
     <use style="fill:#081d58;stroke:#081d58;stroke-linejoin:miter;" x="215.361442" xlink:href="#m3c48cf7f1d" y="61.197381"/>
     <use style="fill:#081d58;stroke:#081d58;stroke-linejoin:miter;" x="223.480512" xlink:href="#m3c48cf7f1d" y="58.283647"/>
     <use style="fill:#081d58;stroke:#081d58;stroke-linejoin:miter;" x="231.599582" xlink:href="#m3c48cf7f1d" y="55.85761"/>
     <use style="fill:#081d58;stroke:#081d58;stroke-linejoin:miter;" x="239.718652" xlink:href="#m3c48cf7f1d" y="53.436272"/>
     <use style="fill:#081d58;stroke:#081d58;stroke-linejoin:miter;" x="247.837722" xlink:href="#m3c48cf7f1d" y="51.277061"/>
     <use style="fill:#081d58;stroke:#081d58;stroke-linejoin:miter;" x="255.956792" xlink:href="#m3c48cf7f1d" y="49.938626"/>
     <use style="fill:#081d58;stroke:#081d58;stroke-linejoin:miter;" x="264.075862" xlink:href="#m3c48cf7f1d" y="48.457523"/>
     <use style="fill:#081d58;stroke:#081d58;stroke-linejoin:miter;" x="272.194932" xlink:href="#m3c48cf7f1d" y="47.0278"/>
     <use style="fill:#081d58;stroke:#081d58;stroke-linejoin:miter;" x="280.314002" xlink:href="#m3c48cf7f1d" y="45.879955"/>
     <use style="fill:#081d58;stroke:#081d58;stroke-linejoin:miter;" x="288.433072" xlink:href="#m3c48cf7f1d" y="45.026894"/>
     <use style="fill:#081d58;stroke:#081d58;stroke-linejoin:miter;" x="296.552142" xlink:href="#m3c48cf7f1d" y="44.578698"/>
     <use style="fill:#081d58;stroke:#081d58;stroke-linejoin:miter;" x="304.671212" xlink:href="#m3c48cf7f1d" y="44.559586"/>
     <use style="fill:#081d58;stroke:#081d58;stroke-linejoin:miter;" x="312.790282" xlink:href="#m3c48cf7f1d" y="45.141212"/>
     <use style="fill:#081d58;stroke:#081d58;stroke-linejoin:miter;" x="320.909352" xlink:href="#m3c48cf7f1d" y="45.354637"/>
     <use style="fill:#081d58;stroke:#081d58;stroke-linejoin:miter;" x="329.028422" xlink:href="#m3c48cf7f1d" y="45.456261"/>
     <use style="fill:#081d58;stroke:#081d58;stroke-linejoin:miter;" x="337.147492" xlink:href="#m3c48cf7f1d" y="46.46768"/>
     <use style="fill:#081d58;stroke:#081d58;stroke-linejoin:miter;" x="345.266562" xlink:href="#m3c48cf7f1d" y="48.641961"/>
     <use style="fill:#081d58;stroke:#081d58;stroke-linejoin:miter;" x="353.385632" xlink:href="#m3c48cf7f1d" y="51.311385"/>
     <use style="fill:#081d58;stroke:#081d58;stroke-linejoin:miter;" x="361.504702" xlink:href="#m3c48cf7f1d" y="52.174977"/>
     <use style="fill:#081d58;stroke:#081d58;stroke-linejoin:miter;" x="369.623772" xlink:href="#m3c48cf7f1d" y="51.143985"/>
    </g>
   </g>
   <g id="patch_3">
    <path d="M 54 252 
L 54 34.56 
" style="fill:none;stroke:#000000;stroke-linecap:square;stroke-linejoin:miter;stroke-width:0.8;"/>
   </g>
   <g id="patch_4">
    <path d="M 388.8 252 
L 388.8 34.56 
" style="fill:none;stroke:#000000;stroke-linecap:square;stroke-linejoin:miter;stroke-width:0.8;"/>
   </g>
   <g id="patch_5">
    <path d="M 54 252 
L 388.8 252 
" style="fill:none;stroke:#000000;stroke-linecap:square;stroke-linejoin:miter;stroke-width:0.8;"/>
   </g>
   <g id="patch_6">
    <path d="M 54 34.56 
L 388.8 34.56 
" style="fill:none;stroke:#000000;stroke-linecap:square;stroke-linejoin:miter;stroke-width:0.8;"/>
   </g>
   <g id="legend_1">
    <g id="patch_7">
     <path d="M 61 247 
L 162.714063 247 
Q 164.714063 247 164.714063 245 
L 164.714063 216.64375 
Q 164.714063 214.64375 162.714063 214.64375 
L 61 214.64375 
Q 59 214.64375 59 216.64375 
L 59 245 
Q 59 247 61 247 
z
" style="fill:#ffffff;opacity:0.8;stroke:#cccccc;stroke-linejoin:miter;"/>
    </g>
    <g id="line2d_16">
     <path d="M 63 222.742188 
L 83 222.742188 
" style="fill:none;stroke:#40b5c4;stroke-dasharray:5.55,2.4;stroke-dashoffset:0;stroke-width:1.5;"/>
    </g>
    <g id="line2d_17">
     <g>
      <use style="fill:#40b5c4;stroke:#40b5c4;" x="73" xlink:href="#m0e98a3f615" y="222.742188"/>
     </g>
    </g>
    <g id="text_16">
     <text style="font-family:DejaVu Sans;font-size:10px;font-style:normal;font-weight:normal;text-anchor:start;" transform="rotate(-0, 91, 226.242188)" x="91" y="226.242188">original</text>
    </g>
    <g id="line2d_18">
     <path d="M 63 237.420312 
L 83 237.420312 
" style="fill:none;stroke:#081d58;stroke-dasharray:5.55,2.4;stroke-dashoffset:0;stroke-width:1.5;"/>
    </g>
    <g id="line2d_19">
     <g>
      <use style="fill:#081d58;stroke:#081d58;stroke-linejoin:miter;" x="73" xlink:href="#m3c48cf7f1d" y="237.420312"/>
     </g>
    </g>
    <g id="text_17">
     <text style="font-family:DejaVu Sans;font-size:10px;font-style:normal;font-weight:normal;text-anchor:start;" transform="rotate(-0, 91, 240.920312)" x="91" y="240.920312">reconstructed</text>
    </g>
   </g>
  </g>
  <g id="text_18">
   <text style="font-family:DejaVu Sans;font-size:12px;font-style:normal;font-weight:normal;text-anchor:middle;" transform="rotate(-0, 216, 14.878125)" x="216" y="14.878125">Reconstruction of the temperature curve</text>
  </g>
 </g>
 <defs>
  <clipPath id="pe9cc76aeab">
   <rect height="217.44" width="334.8" x="54" y="34.56"/>
  </clipPath>
 </defs>
</svg>
