<?xml version="1.0" encoding="utf-8" standalone="no"?>
<!DOCTYPE svg PUBLIC "-//W3C//DTD SVG 1.1//EN"
  "http://www.w3.org/Graphics/SVG/1.1/DTD/svg11.dtd">
<!-- Created with matplotlib (https://matplotlib.org/) -->
<svg height="288pt" version="1.1" viewBox="0 0 432 288" width="432pt" xmlns="http://www.w3.org/2000/svg" xmlns:xlink="http://www.w3.org/1999/xlink">
 <defs>
  <style type="text/css">
*{stroke-linecap:butt;stroke-linejoin:round;}
  </style>
 </defs>
 <g id="figure_1">
  <g id="patch_1">
   <path d="M 0 288 
L 432 288 
L 432 0 
L 0 0 
z
" style="fill:#ffffff;"/>
  </g>
  <g id="axes_1">
   <g id="patch_2">
    <path d="M 54 252 
L 388.8 252 
L 388.8 34.56 
L 54 34.56 
z
" style="fill:#ffffff;"/>
   </g>
   <g id="matplotlib.axis_1">
    <g id="xtick_1">
     <g id="line2d_1">
      <defs>
       <path d="M 0 0 
L 0 3.5 
" id="m63a1214e78" style="stroke:#000000;stroke-width:0.8;"/>
      </defs>
      <g>
       <use style="stroke:#000000;stroke-width:0.8;" x="69.218182" xlink:href="#m63a1214e78" y="252"/>
      </g>
     </g>
     <g id="text_1">
      <text style="font-family:DejaVu Sans;font-size:10px;font-style:normal;font-weight:normal;text-anchor:middle;" transform="rotate(-0, 69.218182, 266.598437)" x="69.218182" y="266.598437">0</text>
     </g>
    </g>
    <g id="xtick_2">
     <g id="line2d_2">
      <g>
       <use style="stroke:#000000;stroke-width:0.8;" x="119.962369" xlink:href="#m63a1214e78" y="252"/>
      </g>
     </g>
     <g id="text_2">
      <text style="font-family:DejaVu Sans;font-size:10px;font-style:normal;font-weight:normal;text-anchor:middle;" transform="rotate(-0, 119.962369, 266.598437)" x="119.962369" y="266.598437">500</text>
     </g>
    </g>
    <g id="xtick_3">
     <g id="line2d_3">
      <g>
       <use style="stroke:#000000;stroke-width:0.8;" x="170.706557" xlink:href="#m63a1214e78" y="252"/>
      </g>
     </g>
     <g id="text_3">
      <text style="font-family:DejaVu Sans;font-size:10px;font-style:normal;font-weight:normal;text-anchor:middle;" transform="rotate(-0, 170.706557, 266.598437)" x="170.706557" y="266.598437">1000</text>
     </g>
    </g>
    <g id="xtick_4">
     <g id="line2d_4">
      <g>
       <use style="stroke:#000000;stroke-width:0.8;" x="221.450744" xlink:href="#m63a1214e78" y="252"/>
      </g>
     </g>
     <g id="text_4">
      <text style="font-family:DejaVu Sans;font-size:10px;font-style:normal;font-weight:normal;text-anchor:middle;" transform="rotate(-0, 221.450744, 266.598437)" x="221.450744" y="266.598437">1500</text>
     </g>
    </g>
    <g id="xtick_5">
     <g id="line2d_5">
      <g>
       <use style="stroke:#000000;stroke-width:0.8;" x="272.194932" xlink:href="#m63a1214e78" y="252"/>
      </g>
     </g>
     <g id="text_5">
      <text style="font-family:DejaVu Sans;font-size:10px;font-style:normal;font-weight:normal;text-anchor:middle;" transform="rotate(-0, 272.194932, 266.598437)" x="272.194932" y="266.598437">2000</text>
     </g>
    </g>
    <g id="xtick_6">
     <g id="line2d_6">
      <g>
       <use style="stroke:#000000;stroke-width:0.8;" x="322.939119" xlink:href="#m63a1214e78" y="252"/>
      </g>
     </g>
     <g id="text_6">
      <text style="font-family:DejaVu Sans;font-size:10px;font-style:normal;font-weight:normal;text-anchor:middle;" transform="rotate(-0, 322.939119, 266.598437)" x="322.939119" y="266.598437">2500</text>
     </g>
    </g>
    <g id="xtick_7">
     <g id="line2d_7">
      <g>
       <use style="stroke:#000000;stroke-width:0.8;" x="373.683307" xlink:href="#m63a1214e78" y="252"/>
      </g>
     </g>
     <g id="text_7">
      <text style="font-family:DejaVu Sans;font-size:10px;font-style:normal;font-weight:normal;text-anchor:middle;" transform="rotate(-0, 373.683307, 266.598437)" x="373.683307" y="266.598437">3000</text>
     </g>
    </g>
    <g id="text_8">
     <text style="font-family:DejaVu Sans;font-size:10px;font-style:normal;font-weight:normal;text-anchor:middle;" transform="rotate(-0, 221.4, 280.276563)" x="221.4" y="280.276563">Time</text>
    </g>
   </g>
   <g id="matplotlib.axis_2">
    <g id="ytick_1">
     <g id="line2d_8">
      <defs>
       <path d="M 0 0 
L -3.5 0 
" id="m771e3b5061" style="stroke:#000000;stroke-width:0.8;"/>
      </defs>
      <g>
       <use style="stroke:#000000;stroke-width:0.8;" x="54" xlink:href="#m771e3b5061" y="219.501933"/>
      </g>
     </g>
     <g id="text_9">
      <text style="font-family:DejaVu Sans;font-size:10px;font-style:normal;font-weight:normal;text-anchor:end;" transform="rotate(-0, 47, 223.301152)" x="47" y="223.301152">−10</text>
     </g>
    </g>
    <g id="ytick_2">
     <g id="line2d_9">
      <g>
       <use style="stroke:#000000;stroke-width:0.8;" x="54" xlink:href="#m771e3b5061" y="186.307413"/>
      </g>
     </g>
     <g id="text_10">
      <text style="font-family:DejaVu Sans;font-size:10px;font-style:normal;font-weight:normal;text-anchor:end;" transform="rotate(-0, 47, 190.106632)" x="47" y="190.106632">−8</text>
     </g>
    </g>
    <g id="ytick_3">
     <g id="line2d_10">
      <g>
       <use style="stroke:#000000;stroke-width:0.8;" x="54" xlink:href="#m771e3b5061" y="153.112893"/>
      </g>
     </g>
     <g id="text_11">
      <text style="font-family:DejaVu Sans;font-size:10px;font-style:normal;font-weight:normal;text-anchor:end;" transform="rotate(-0, 47, 156.912112)" x="47" y="156.912112">−6</text>
     </g>
    </g>
    <g id="ytick_4">
     <g id="line2d_11">
      <g>
       <use style="stroke:#000000;stroke-width:0.8;" x="54" xlink:href="#m771e3b5061" y="119.918373"/>
      </g>
     </g>
     <g id="text_12">
      <text style="font-family:DejaVu Sans;font-size:10px;font-style:normal;font-weight:normal;text-anchor:end;" transform="rotate(-0, 47, 123.717591)" x="47" y="123.717591">−4</text>
     </g>
    </g>
    <g id="ytick_5">
     <g id="line2d_12">
      <g>
       <use style="stroke:#000000;stroke-width:0.8;" x="54" xlink:href="#m771e3b5061" y="86.723853"/>
      </g>
     </g>
     <g id="text_13">
      <text style="font-family:DejaVu Sans;font-size:10px;font-style:normal;font-weight:normal;text-anchor:end;" transform="rotate(-0, 47, 90.523071)" x="47" y="90.523071">−2</text>
     </g>
    </g>
    <g id="ytick_6">
     <g id="line2d_13">
      <g>
       <use style="stroke:#000000;stroke-width:0.8;" x="54" xlink:href="#m771e3b5061" y="53.529333"/>
      </g>
     </g>
     <g id="text_14">
      <text style="font-family:DejaVu Sans;font-size:10px;font-style:normal;font-weight:normal;text-anchor:end;" transform="rotate(-0, 47, 57.328551)" x="47" y="57.328551">0</text>
     </g>
    </g>
    <g id="text_15">
     <text style="font-family:DejaVu Sans;font-size:10px;font-style:normal;font-weight:normal;text-anchor:middle;" transform="rotate(-90, 19.815625, 143.28)" x="19.815625" y="143.28">temperature (°C)</text>
    </g>
   </g>
   <g id="line2d_14">
    <path clip-path="url(#pbf7daa67a7)" d="M 69.218182 49.128644 
L 71.755391 48.72181 
L 72.871763 48.755192 
L 73.785159 49.022732 
L 74.597066 49.514245 
L 75.408973 50.291625 
L 76.22088 51.390902 
L 77.134275 53.036304 
L 78.149159 55.388627 
L 79.265531 58.590222 
L 80.483391 62.767459 
L 82.005717 68.868381 
L 83.933996 77.658048 
L 87.080136 93.281032 
L 90.936694 112.145411 
L 93.06795 121.493851 
L 94.996229 129.05138 
L 96.620043 134.577355 
L 98.142369 138.997421 
L 99.563206 142.49941 
L 100.781066 144.964302 
L 101.998927 146.937832 
L 103.115299 148.325612 
L 104.231671 149.348369 
L 105.246555 150.006865 
L 106.261439 150.402759 
L 107.276322 150.554923 
L 108.392695 150.482293 
L 109.610555 150.151394 
L 111.234369 149.427753 
L 112.959671 148.392466 
L 115.293904 146.694201 
L 120.063858 143.133674 
L 122.702555 141.434745 
L 124.732323 140.388753 
L 126.863579 139.525928 
L 128.994835 138.894501 
L 130.821625 138.588697 
L 132.749905 138.488615 
L 134.576695 138.620149 
L 136.200509 138.950185 
L 138.128788 139.586591 
L 140.057068 140.481482 
L 141.477905 141.370912 
L 142.898742 142.526165 
L 144.319579 143.963255 
L 145.740417 145.721436 
L 147.161254 147.857935 
L 148.480603 150.273317 
L 149.799951 153.186385 
L 151.1193 156.680889 
L 153.352045 162.806058 
L 155.990742 170.210228 
L 157.41158 175.207995 
L 159.542835 183.651287 
L 161.877068 193.798503 
L 164.312789 205.303392 
L 166.342557 215.946551 
L 170.097626 236.276618 
L 170.909533 239.194914 
L 171.619952 241.006339 
L 172.127394 241.799356 
L 172.533347 242.090638 
L 172.837813 242.098107 
L 173.142278 241.916367 
L 173.548231 241.370317 
L 174.055673 240.178468 
L 174.664603 237.990617 
L 175.375022 234.402953 
L 176.186929 229.03125 
L 177.201813 220.633368 
L 178.521162 207.545532 
L 182.682185 164.566313 
L 184.407487 149.729741 
L 186.031301 137.687997 
L 187.655115 127.33612 
L 189.177441 118.985756 
L 190.801255 111.32783 
L 192.425069 104.774999 
L 194.048883 99.155997 
L 195.672697 94.32095 
L 197.296511 90.152946 
L 198.920325 86.516453 
L 200.747116 82.975229 
L 202.573906 79.917018 
L 204.502186 77.119782 
L 206.531953 74.583604 
L 208.561721 72.399305 
L 210.692976 70.432065 
L 212.824232 68.74427 
L 215.259953 67.099568 
L 217.695674 65.710707 
L 220.43586 64.381954 
L 223.582 63.1071 
L 227.235582 61.879285 
L 233.629349 60.019283 
L 237.384419 58.821664 
L 244.691582 56.477182 
L 257.073164 52.829069 
L 260.726745 52.069396 
L 265.801164 51.324977 
L 285.794374 48.864002 
L 289.752421 48.676455 
L 293.406002 48.689963 
L 297.465537 48.933458 
L 302.438467 49.48298 
L 307.106933 50.212596 
L 316.03791 51.716022 
L 321.721259 52.464669 
L 331.464143 53.698603 
L 336.132608 54.50247 
L 342.526375 55.878499 
L 349.224608 57.293694 
L 353.994562 58.07335 
L 358.764515 58.627204 
L 364.549353 59.024982 
L 371.146097 59.280901 
L 373.581818 59.305163 
L 373.581818 59.305163 
" style="fill:none;stroke:#40b5c4;stroke-dasharray:5.55,2.4;stroke-dashoffset:0;stroke-width:1.5;"/>
    <defs>
     <path d="M 0 3 
C 0.795609 3 1.55874 2.683901 2.12132 2.12132 
C 2.683901 1.55874 3 0.795609 3 0 
C 3 -0.795609 2.683901 -1.55874 2.12132 -2.12132 
C 1.55874 -2.683901 0.795609 -3 0 -3 
C -0.795609 -3 -1.55874 -2.683901 -2.12132 -2.12132 
C -2.683901 -1.55874 -3 -0.795609 -3 0 
C -3 0.795609 -2.683901 1.55874 -2.12132 2.12132 
C -1.55874 2.683901 -0.795609 3 0 3 
z
" id="m86ae64de72" style="stroke:#40b5c4;"/>
    </defs>
    <g clip-path="url(#pbf7daa67a7)">
     <use style="fill:#40b5c4;stroke:#40b5c4;" x="69.218182" xlink:href="#m86ae64de72" y="49.128644"/>
     <use style="fill:#40b5c4;stroke:#40b5c4;" x="77.337252" xlink:href="#m86ae64de72" y="53.462282"/>
     <use style="fill:#40b5c4;stroke:#40b5c4;" x="85.456322" xlink:href="#m86ae64de72" y="85.122117"/>
     <use style="fill:#40b5c4;stroke:#40b5c4;" x="93.575392" xlink:href="#m86ae64de72" y="123.576741"/>
     <use style="fill:#40b5c4;stroke:#40b5c4;" x="101.694462" xlink:href="#m86ae64de72" y="146.489491"/>
     <use style="fill:#40b5c4;stroke:#40b5c4;" x="109.813532" xlink:href="#m86ae64de72" y="150.073852"/>
     <use style="fill:#40b5c4;stroke:#40b5c4;" x="117.932602" xlink:href="#m86ae64de72" y="144.674232"/>
     <use style="fill:#40b5c4;stroke:#40b5c4;" x="126.051672" xlink:href="#m86ae64de72" y="139.827682"/>
     <use style="fill:#40b5c4;stroke:#40b5c4;" x="134.170742" xlink:href="#m86ae64de72" y="138.570871"/>
     <use style="fill:#40b5c4;stroke:#40b5c4;" x="142.289812" xlink:href="#m86ae64de72" y="141.998272"/>
     <use style="fill:#40b5c4;stroke:#40b5c4;" x="150.408882" xlink:href="#m86ae64de72" y="154.724653"/>
     <use style="fill:#40b5c4;stroke:#40b5c4;" x="158.527952" xlink:href="#m86ae64de72" y="179.531731"/>
     <use style="fill:#40b5c4;stroke:#40b5c4;" x="166.647022" xlink:href="#m86ae64de72" y="217.665181"/>
     <use style="fill:#40b5c4;stroke:#40b5c4;" x="174.766092" xlink:href="#m86ae64de72" y="237.545478"/>
     <use style="fill:#40b5c4;stroke:#40b5c4;" x="182.885162" xlink:href="#m86ae64de72" y="162.708582"/>
     <use style="fill:#40b5c4;stroke:#40b5c4;" x="191.004232" xlink:href="#m86ae64de72" y="110.45196"/>
     <use style="fill:#40b5c4;stroke:#40b5c4;" x="199.123302" xlink:href="#m86ae64de72" y="86.097306"/>
     <use style="fill:#40b5c4;stroke:#40b5c4;" x="207.242372" xlink:href="#m86ae64de72" y="73.783152"/>
     <use style="fill:#40b5c4;stroke:#40b5c4;" x="215.361442" xlink:href="#m86ae64de72" y="67.036616"/>
     <use style="fill:#40b5c4;stroke:#40b5c4;" x="223.480512" xlink:href="#m86ae64de72" y="63.144509"/>
     <use style="fill:#40b5c4;stroke:#40b5c4;" x="231.599582" xlink:href="#m86ae64de72" y="60.593027"/>
     <use style="fill:#40b5c4;stroke:#40b5c4;" x="239.718652" xlink:href="#m86ae64de72" y="58.042845"/>
     <use style="fill:#40b5c4;stroke:#40b5c4;" x="247.837722" xlink:href="#m86ae64de72" y="55.54097"/>
     <use style="fill:#40b5c4;stroke:#40b5c4;" x="255.956792" xlink:href="#m86ae64de72" y="53.113394"/>
     <use style="fill:#40b5c4;stroke:#40b5c4;" x="264.075862" xlink:href="#m86ae64de72" y="51.5512"/>
     <use style="fill:#40b5c4;stroke:#40b5c4;" x="272.194932" xlink:href="#m86ae64de72" y="50.518454"/>
     <use style="fill:#40b5c4;stroke:#40b5c4;" x="280.314002" xlink:href="#m86ae64de72" y="49.440405"/>
     <use style="fill:#40b5c4;stroke:#40b5c4;" x="288.433072" xlink:href="#m86ae64de72" y="48.722932"/>
     <use style="fill:#40b5c4;stroke:#40b5c4;" x="296.552142" xlink:href="#m86ae64de72" y="48.859979"/>
     <use style="fill:#40b5c4;stroke:#40b5c4;" x="304.671212" xlink:href="#m86ae64de72" y="49.800874"/>
     <use style="fill:#40b5c4;stroke:#40b5c4;" x="312.790282" xlink:href="#m86ae64de72" y="51.212569"/>
     <use style="fill:#40b5c4;stroke:#40b5c4;" x="320.909352" xlink:href="#m86ae64de72" y="52.367209"/>
     <use style="fill:#40b5c4;stroke:#40b5c4;" x="329.028422" xlink:href="#m86ae64de72" y="53.352919"/>
     <use style="fill:#40b5c4;stroke:#40b5c4;" x="337.147492" xlink:href="#m86ae64de72" y="54.702379"/>
     <use style="fill:#40b5c4;stroke:#40b5c4;" x="345.266562" xlink:href="#m86ae64de72" y="56.490753"/>
     <use style="fill:#40b5c4;stroke:#40b5c4;" x="353.385632" xlink:href="#m86ae64de72" y="57.987403"/>
     <use style="fill:#40b5c4;stroke:#40b5c4;" x="361.504702" xlink:href="#m86ae64de72" y="58.846829"/>
     <use style="fill:#40b5c4;stroke:#40b5c4;" x="369.623772" xlink:href="#m86ae64de72" y="59.245973"/>
    </g>
   </g>
   <g id="line2d_15">
    <path clip-path="url(#pbf7daa67a7)" d="M 69.218182 47.030627 
L 69.31967 47.158409 
L 69.421159 46.987146 
L 69.522647 47.04636 
L 69.725624 46.94843 
L 69.9286 46.933852 
L 70.030089 46.829575 
L 70.334554 46.901942 
L 70.740507 46.851086 
L 70.841996 46.855185 
L 70.943484 46.675232 
L 71.247949 46.913101 
L 71.349438 46.73432 
L 71.450926 46.790954 
L 71.653903 46.722702 
L 71.85688 46.718412 
L 72.059856 46.743943 
L 72.770275 46.757793 
L 72.871763 46.600839 
L 73.07474 46.733592 
L 73.176228 46.849582 
L 73.277717 46.757714 
L 73.379205 46.832962 
L 73.480694 46.704736 
L 73.68367 46.822705 
L 73.785159 46.784654 
L 74.089624 46.968136 
L 74.698554 47.153946 
L 74.800042 47.004795 
L 75.104508 47.370098 
L 75.205996 47.292919 
L 75.713438 47.54421 
L 75.814926 47.50179 
L 76.119391 47.752781 
L 76.525345 47.918615 
L 76.728322 47.98454 
L 77.743205 49.023056 
L 79.367019 51.544153 
L 79.874461 52.799438 
L 79.97595 52.858446 
L 80.381903 53.90046 
L 80.686368 54.49776 
L 80.889345 55.078788 
L 82.208694 59.132089 
L 82.919112 61.711371 
L 83.122089 62.215837 
L 83.426554 63.345683 
L 84.238461 66.529783 
L 84.441438 67.348411 
L 86.369717 75.117154 
L 86.674182 76.536232 
L 87.283113 79.153091 
L 87.587578 80.650139 
L 87.993531 82.48305 
L 88.196508 83.515187 
L 88.602461 85.27201 
L 89.211392 88.069819 
L 90.429252 93.211091 
L 90.632229 93.98384 
L 92.154555 100.800087 
L 93.67688 104.781677 
L 94.590276 106.742116 
L 96.315578 110.80307 
L 96.82302 111.900055 
L 98.243857 114.812288 
L 98.852787 115.586256 
L 98.954276 115.580494 
L 99.461718 116.466979 
L 99.664694 116.770543 
L 100.375113 117.810254 
L 100.984043 118.667242 
L 101.998927 120.036342 
L 102.201904 120.264809 
L 103.216787 121.488833 
L 103.724229 122.044465 
L 104.231671 122.608501 
L 104.434648 122.735255 
L 104.840601 123.065822 
L 104.94209 123.078184 
L 105.348043 123.429044 
L 105.855485 123.791546 
L 106.058462 123.948152 
L 106.768881 124.398952 
L 106.971857 124.49086 
L 107.377811 124.68854 
L 107.580788 124.792287 
L 108.291206 124.996006 
L 108.595671 124.933746 
L 108.798648 124.99436 
L 109.103113 125.067282 
L 109.204602 124.967333 
L 109.407578 125.107209 
L 109.509067 124.960543 
L 109.712043 125.130358 
L 109.813532 125.0243 
L 110.016509 125.118312 
L 110.219485 125.096881 
L 110.320974 125.164484 
L 110.422462 125.042115 
L 110.625439 125.19823 
L 110.828416 125.167768 
L 111.437346 125.142055 
L 111.640323 125.264329 
L 111.843299 125.238038 
L 112.553718 125.314347 
L 112.756695 125.311775 
L 113.162648 125.356102 
L 113.264137 125.26569 
L 113.467113 125.388447 
L 113.67009 125.357384 
L 113.873067 125.373869 
L 114.380509 125.446973 
L 114.481997 125.510437 
L 114.583485 125.343495 
L 114.786462 125.529676 
L 114.887951 125.362164 
L 115.090927 125.515557 
L 115.192416 125.438149 
L 115.395392 125.473659 
L 115.496881 125.315368 
L 115.699858 125.367277 
L 115.801346 125.224046 
L 116.004323 125.279786 
L 116.207299 125.21648 
L 119.048974 124.371221 
L 119.860881 124.123665 
L 120.063858 124.039007 
L 120.165346 124.026447 
L 120.266834 123.88047 
L 120.469811 123.935165 
L 120.5713 123.790746 
L 120.774276 123.813009 
L 120.875765 123.685899 
L 121.078741 123.6947 
L 121.18023 123.587391 
L 121.383207 123.606971 
L 121.586183 123.52441 
L 121.992137 123.410074 
L 122.195114 123.301143 
L 122.39809 123.200672 
L 122.905532 123.03764 
L 123.007021 123.040924 
L 123.209997 122.489013 
L 123.311486 122.482285 
L 123.514462 121.95543 
L 125.848695 115.892226 
L 126.051672 115.36154 
L 126.559114 114.249027 
L 127.066556 113.816651 
L 127.168044 113.563507 
L 127.269532 113.616097 
L 127.675486 113.315746 
L 127.776974 113.410423 
L 128.081439 113.217372 
L 128.284416 113.272764 
L 128.487393 113.300986 
L 128.588881 113.184054 
L 128.69037 113.336568 
L 128.994835 113.20964 
L 130.009718 113.146161 
L 130.314184 113.162677 
L 130.618649 113.133957 
L 130.720137 113.030218 
L 131.024602 113.160731 
L 131.227579 113.08864 
L 131.329067 113.208888 
L 131.633532 112.998157 
L 131.735021 113.145575 
L 131.937998 113.152595 
L 132.648416 113.101437 
L 132.952881 113.130752 
L 134.373719 113.156069 
L 134.475207 113.323051 
L 134.678184 113.211136 
L 136.200509 113.381362 
L 136.403486 113.457275 
L 136.504974 113.381394 
L 136.707951 113.524229 
L 136.910928 113.399011 
L 137.215393 113.588493 
L 137.41837 113.555775 
L 137.621347 113.615876 
L 138.331765 113.700716 
L 138.433254 113.86188 
L 138.63623 113.738894 
L 139.448137 114.00834 
L 139.549626 113.88757 
L 139.752602 114.046558 
L 140.564509 114.385942 
L 140.970463 114.508644 
L 141.071951 114.728666 
L 141.376416 114.693717 
L 141.579393 115.000068 
L 141.985347 115.347675 
L 142.188323 115.379466 
L 142.797254 116.143494 
L 142.898742 116.11744 
L 143.00023 116.242366 
L 143.101719 116.109558 
L 143.304696 116.468087 
L 143.507672 116.670951 
L 143.609161 116.723026 
L 143.812137 117.042696 
L 144.015114 117.086367 
L 144.319579 117.566489 
L 144.522556 117.767557 
L 144.725533 117.977726 
L 144.827021 117.966718 
L 145.638928 119.085119 
L 145.740417 118.977732 
L 146.044882 119.53918 
L 146.247858 119.711781 
L 146.349347 119.979098 
L 146.450835 119.931439 
L 146.7553 120.276822 
L 147.161254 120.883144 
L 147.465719 121.256282 
L 148.277626 122.840632 
L 148.379114 122.88712 
L 148.683579 123.692144 
L 149.596975 125.604402 
L 150.002928 126.678041 
L 150.104417 126.724933 
L 150.51037 127.833426 
L 151.1193 129.375126 
L 152.134184 132.197706 
L 152.337161 132.79423 
L 152.844603 134.49271 
L 153.149068 135.181474 
L 153.859486 137.430086 
L 157.208603 147.620793 
L 157.614556 149.03589 
L 158.02051 150.199197 
L 159.035394 152.811148 
L 159.441347 153.751243 
L 159.847301 155.497375 
L 160.456231 158.061232 
L 162.790463 165.78564 
L 162.99344 166.557337 
L 163.297905 167.742638 
L 165.124696 175.637612 
L 165.53065 177.855588 
L 165.835115 178.884915 
L 166.545533 182.296406 
L 166.74851 183.132643 
L 167.458929 186.487746 
L 167.560417 186.407527 
L 167.864882 188.000037 
L 168.372324 189.733133 
L 169.590185 193.194009 
L 169.793161 193.3402 
L 169.996138 193.762216 
L 170.199115 193.523113 
L 170.300603 193.925882 
L 170.402092 193.860922 
L 170.605068 193.939621 
L 170.706557 193.750946 
L 170.808045 193.978036 
L 170.909533 193.881404 
L 171.11251 193.44185 
L 171.416975 193.167322 
L 171.72144 192.201031 
L 171.822929 192.239304 
L 172.025906 191.381533 
L 172.736324 188.128421 
L 174.664603 170.441313 
L 175.47651 161.101002 
L 176.592882 150.522562 
L 177.607766 141.37379 
L 179.536045 126.628593 
L 180.144976 122.986293 
L 180.550929 120.294582 
L 181.159859 116.461549 
L 181.464324 114.355536 
L 181.667301 113.050866 
L 182.479208 108.149418 
L 183.494092 102.570863 
L 183.59558 102.312544 
L 183.900045 100.860718 
L 184.103022 100.445112 
L 184.305999 99.429357 
L 184.407487 99.17642 
L 184.711952 97.86564 
L 184.914929 97.437941 
L 185.016418 96.788898 
L 185.117906 96.885436 
L 185.523859 95.130337 
L 185.726836 94.547505 
L 185.828325 93.921176 
L 185.929813 94.09763 
L 186.13279 92.986082 
L 186.234278 92.901274 
L 186.437255 92.16117 
L 186.640232 91.363293 
L 186.74172 91.409275 
L 186.843208 90.366042 
L 186.944697 90.414699 
L 187.046185 90.178856 
L 187.35065 88.931659 
L 187.452139 88.888352 
L 187.553627 88.720065 
L 187.655115 87.95481 
L 187.756604 88.066527 
L 188.162557 86.622219 
L 188.264046 86.585845 
L 188.771487 84.894899 
L 188.872976 84.877931 
L 189.075953 84.353315 
L 189.278929 83.715337 
L 189.380418 83.935715 
L 189.583394 83.199917 
L 189.684883 83.381247 
L 189.88786 83.024554 
L 190.090836 82.666501 
L 190.192325 82.726348 
L 190.293813 82.160546 
L 190.395301 82.349347 
L 190.49679 82.202682 
L 190.598278 81.722638 
L 190.699767 81.975354 
L 190.902743 81.573551 
L 191.004232 81.49414 
L 191.10572 81.155618 
L 191.207208 81.253723 
L 191.410185 80.761951 
L 191.511674 80.791502 
L 191.613162 80.466957 
L 191.71465 80.576062 
L 191.917627 80.134799 
L 192.019115 80.2789 
L 192.120604 79.633166 
L 192.222092 79.697904 
L 192.323581 79.775653 
L 192.425069 79.18546 
L 192.526557 79.47284 
L 192.729534 79.027255 
L 192.831022 79.097312 
L 192.932511 78.598369 
L 193.033999 78.650508 
L 193.135488 78.61051 
L 193.236976 78.197832 
L 193.338464 78.330806 
L 193.439953 77.969951 
L 193.541441 77.998521 
L 193.642929 77.91672 
L 193.744418 77.565583 
L 193.845906 77.742956 
L 194.048883 77.248984 
L 194.150371 77.168196 
L 194.25186 76.866475 
L 194.353348 76.99497 
L 194.556325 76.575344 
L 194.657813 76.805045 
L 194.759302 76.146537 
L 194.962278 76.301117 
L 195.063767 75.978487 
L 195.165255 76.074202 
L 195.368232 75.828783 
L 195.46972 75.886762 
L 195.571209 75.547845 
L 195.672697 75.656222 
L 196.281627 75.184425 
L 196.383116 74.789285 
L 196.484604 75.055376 
L 196.687581 74.582218 
L 196.789069 74.644123 
L 196.992046 74.414612 
L 197.093534 74.37618 
L 197.195023 74.108 
L 197.296511 74.26133 
L 197.499488 73.867409 
L 197.600976 73.924343 
L 197.702464 73.589668 
L 197.803953 73.702176 
L 198.00693 73.448273 
L 198.108418 73.455918 
L 198.209906 73.067189 
L 198.311395 73.18519 
L 198.818837 72.638256 
L 198.920325 72.725454 
L 199.021813 72.202105 
L 199.123302 72.418384 
L 199.630744 71.809514 
L 199.732232 71.754383 
L 199.83372 71.568827 
L 199.935209 71.629102 
L 200.138185 71.261155 
L 200.239674 71.261915 
L 200.341162 71.076881 
L 200.442651 71.160787 
L 200.645627 70.849617 
L 200.747116 70.943764 
L 200.950092 70.532258 
L 201.051581 70.618729 
L 201.153069 70.299803 
L 201.254558 70.356104 
L 201.761999 69.814315 
L 202.269441 69.323033 
L 202.37093 69.403536 
L 202.573906 69.121301 
L 202.776883 68.878509 
L 202.878372 68.887167 
L 203.690279 68.026119 
L 203.791767 68.047582 
L 204.400697 67.332076 
L 204.502186 67.365981 
L 210.692976 61.537179 
L 210.794465 61.684716 
L 210.895953 61.444014 
L 210.997442 61.62862 
L 211.200418 61.290162 
L 211.301907 61.533919 
L 211.504883 61.194258 
L 211.606372 61.334481 
L 211.70786 61.141549 
L 211.809349 61.269015 
L 212.012325 61.063578 
L 212.113814 61.246001 
L 212.31679 60.91954 
L 212.418279 61.029943 
L 212.519767 60.806684 
L 212.621256 60.93244 
L 212.824232 60.763757 
L 212.925721 60.805972 
L 213.128697 60.691532 
L 214.24507 60.219815 
L 214.448046 60.199586 
L 214.955488 59.984051 
L 218.60907 58.701019 
L 218.710558 58.797952 
L 219.015023 58.522506 
L 219.218 58.5651 
L 220.029907 58.260135 
L 220.131395 58.329542 
L 220.334372 58.15562 
L 220.43586 58.227576 
L 220.740326 58.000154 
L 221.044791 57.998539 
L 222.059674 57.680215 
L 222.36414 57.613229 
L 222.465628 57.450513 
L 222.668605 57.532013 
L 222.97307 57.342168 
L 223.074558 57.477326 
L 223.379023 57.252421 
L 223.683488 57.226921 
L 223.784977 57.135465 
L 223.886465 57.226431 
L 224.19093 56.915308 
L 224.292419 57.096385 
L 224.596884 56.962112 
L 224.698372 56.88908 
L 224.799861 56.970549 
L 225.104326 56.782128 
L 227.540047 56.154612 
L 227.641535 56.010304 
L 227.743023 56.109485 
L 228.148977 55.96695 
L 228.250465 56.054576 
L 228.55493 55.786903 
L 228.859396 55.834562 
L 229.366837 55.555286 
L 229.569814 55.598086 
L 229.772791 55.574866 
L 229.874279 55.511061 
L 229.975768 55.587513 
L 230.178744 55.434468 
L 230.48321 55.370236 
L 230.990651 55.231216 
L 231.09214 55.095931 
L 231.295117 55.204149 
L 231.396605 55.078804 
L 231.498093 55.135058 
L 231.599582 55.026855 
L 231.70107 55.119499 
L 232.005535 54.895401 
L 232.208512 54.912701 
L 232.31 54.810766 
L 232.411489 55.079548 
L 232.614465 54.698701 
L 232.715954 54.860151 
L 232.817442 54.626761 
L 232.918931 54.806683 
L 233.020419 54.599727 
L 233.223396 54.790459 
L 233.324884 54.455182 
L 233.426372 54.639994 
L 233.933814 54.455261 
L 234.035303 54.564572 
L 234.136791 54.273852 
L 234.238279 54.468889 
L 234.441256 54.215698 
L 234.542745 54.379237 
L 234.644233 54.196514 
L 234.84721 54.280167 
L 234.948698 54.041555 
L 235.050186 54.32129 
L 235.253163 53.993721 
L 235.354652 54.227649 
L 235.45614 53.920926 
L 235.557628 54.107432 
L 235.659117 53.88726 
L 235.862093 54.159049 
L 235.963582 53.79422 
L 236.06507 53.842418 
L 236.166559 53.960023 
L 236.268047 53.677502 
L 236.369535 53.880548 
L 236.471024 53.683786 
L 236.674 53.875088 
L 236.775489 53.522257 
L 236.978466 53.720476 
L 237.079954 53.471195 
L 237.181442 53.673972 
L 237.282931 53.467317 
L 237.485907 53.632771 
L 237.587396 53.340721 
L 237.688884 53.549909 
L 237.891861 53.281428 
L 237.993349 53.408451 
L 238.094838 53.278294 
L 238.196326 53.401502 
L 238.399303 53.129808 
L 238.500791 53.390787 
L 238.703768 53.086771 
L 238.805256 53.176803 
L 239.008233 53.119757 
L 239.21121 53.026813 
L 239.312698 53.198203 
L 239.414187 52.798441 
L 239.617163 53.0494 
L 239.718652 52.762938 
L 239.82014 52.93887 
L 240.023117 52.808207 
L 240.124605 52.945772 
L 240.226094 52.592973 
L 240.42907 52.794611 
L 240.530559 52.566555 
L 240.632047 52.708773 
L 240.835024 52.594239 
L 240.936512 52.715896 
L 241.038001 52.394564 
L 241.139489 52.610986 
L 241.342466 52.371027 
L 241.443954 52.485514 
L 241.545442 52.347775 
L 241.748419 52.441622 
L 241.849908 52.225153 
L 241.951396 52.471316 
L 242.154373 52.137527 
L 242.255861 52.335049 
L 242.357349 52.086085 
L 242.458838 52.279064 
L 242.560326 52.199463 
L 242.661815 51.972136 
L 242.864791 52.090564 
L 243.169256 51.961785 
L 243.270745 52.024528 
L 243.57521 51.83367 
L 244.285629 51.684994 
L 244.387117 51.539183 
L 244.488605 51.67461 
L 244.894559 51.469633 
L 244.996047 51.564983 
L 245.300512 51.361952 
L 245.604977 51.332939 
L 246.213908 51.145816 
L 246.416884 51.119604 
L 246.619861 50.981691 
L 246.72135 51.151435 
L 246.924326 50.921306 
L 247.431768 50.829565 
L 247.533257 50.897864 
L 247.837722 50.637234 
L 247.93921 50.763149 
L 248.040698 50.663335 
L 248.142187 50.73651 
L 248.345164 50.705249 
L 249.055582 50.526103 
L 250.273443 50.312641 
L 250.374931 50.214078 
L 250.577908 50.339597 
L 250.882373 50.182659 
L 250.983861 50.314082 
L 251.288326 50.133401 
L 251.897257 50.152696 
L 252.100233 49.921601 
L 252.30321 50.037766 
L 252.607675 49.938031 
L 252.709164 50.030896 
L 252.91214 49.879355 
L 253.115117 49.870935 
L 253.318094 49.843441 
L 254.535954 49.671798 
L 254.738931 49.55701 
L 254.941908 49.625579 
L 255.144885 49.505077 
L 255.246373 49.645839 
L 255.44935 49.478169 
L 260.523769 48.745648 
L 260.625257 48.552067 
L 260.828234 48.69677 
L 261.132699 48.583581 
L 261.234187 48.656043 
L 261.538652 48.534418 
L 262.147583 48.522436 
L 262.350559 48.377369 
L 262.756513 48.408693 
L 263.669908 48.220399 
L 263.771397 48.305793 
L 264.17735 48.132156 
L 264.380327 48.15832 
L 265.395211 47.901584 
L 265.496699 48.059915 
L 265.801164 47.822283 
L 266.004141 47.933858 
L 266.207118 47.850885 
L 266.308606 47.894413 
L 266.613071 47.724432 
L 266.816048 47.774877 
L 267.120513 47.722881 
L 267.222001 47.810444 
L 267.424978 47.588688 
L 267.729443 47.67891 
L 267.93242 47.578811 
L 268.033908 47.664696 
L 268.338373 47.483398 
L 268.642839 47.51879 
L 268.845815 47.484078 
L 269.048792 47.421002 
L 269.15028 47.317152 
L 269.353257 47.379627 
L 270.469629 47.18603 
L 270.571118 47.281618 
L 270.875583 47.127101 
L 271.180048 47.157048 
L 271.281536 47.042783 
L 271.484513 47.151524 
L 271.68749 46.917739 
L 271.991955 47.137785 
L 272.194932 46.851671 
L 272.397908 46.956756 
L 272.803862 46.911677 
L 272.90535 46.704087 
L 273.108327 46.83961 
L 273.412792 46.730869 
L 273.615769 46.76031 
L 273.818746 46.668933 
L 274.224699 46.608674 
L 274.326188 46.69717 
L 274.732141 46.548716 
L 275.341071 46.506343 
L 275.44256 46.33899 
L 275.747025 46.444898 
L 276.355955 46.246742 
L 276.558932 46.294338 
L 276.66042 46.339386 
L 276.964885 46.197848 
L 277.167862 46.218599 
L 277.878281 46.058226 
L 278.284234 46.108149 
L 278.588699 45.922055 
L 278.994653 45.947966 
L 279.299118 45.965662 
L 279.400606 45.743938 
L 279.603583 45.860213 
L 280.111025 45.795728 
L 280.314002 45.725767 
L 281.02442 45.62896 
L 282.140792 45.518827 
L 282.242281 45.611897 
L 282.445258 45.485302 
L 282.648234 45.520473 
L 282.952699 45.462857 
L 283.358653 45.435728 
L 283.56163 45.417778 
L 283.663118 45.26725 
L 283.866095 45.373997 
L 284.678002 45.268042 
L 284.880979 45.258165 
L 284.982467 45.212896 
L 285.083955 45.31119 
L 285.38842 45.144264 
L 285.794374 45.232365 
L 286.200327 45.042234 
L 286.403304 45.180036 
L 286.606281 45.077405 
L 287.113723 45.133342 
L 287.3167 45.000954 
L 288.128607 44.945903 
L 288.433072 44.964074 
L 288.636048 44.941471 
L 289.549444 44.856029 
L 289.650932 44.954861 
L 289.853909 44.828646 
L 290.056886 44.804777 
L 290.158374 44.893732 
L 290.361351 44.789581 
L 290.564328 44.837098 
L 290.868793 44.743331 
L 291.477723 44.758463 
L 291.6807 44.673433 
L 291.883676 44.771949 
L 292.086653 44.696827 
L 292.188142 44.800946 
L 292.391118 44.678751 
L 292.594095 44.653806 
L 292.797072 44.696131 
L 292.89856 44.568016 
L 293.000049 44.780179 
L 293.304514 44.559912 
L 293.50749 44.630665 
L 293.811956 44.682487 
L 294.116421 44.516827 
L 294.319397 44.64013 
L 294.623862 44.607144 
L 294.826839 44.607777 
L 295.131304 44.537277 
L 295.232793 44.653077 
L 295.435769 44.565863 
L 295.638746 44.614266 
L 296.0447 44.553929 
L 296.349165 44.606289 
L 296.552142 44.564027 
L 296.65363 44.466334 
L 296.958095 44.603851 
L 299.393816 44.510432 
L 299.596793 44.576468 
L 299.698281 44.523981 
L 299.79977 44.638927 
L 300.104235 44.520657 
L 300.814653 44.583718 
L 300.916142 44.477098 
L 301.220607 44.587991 
L 301.423584 44.615944 
L 301.62656 44.607555 
L 301.728049 44.479377 
L 301.931025 44.633609 
L 302.032514 44.634558 
L 302.134002 44.467157 
L 302.235491 44.644024 
L 302.438467 44.626612 
L 302.844421 44.662859 
L 302.945909 44.511667 
L 303.250374 44.703475 
L 303.453351 44.609043 
L 303.554839 44.727439 
L 303.859305 44.621896 
L 304.265258 44.647031 
L 304.468235 44.692775 
L 304.975677 44.685019 
L 305.38163 44.697049 
L 305.483119 44.58796 
L 305.787584 44.761027 
L 305.99056 44.661308 
L 306.092049 44.814179 
L 306.295026 44.62465 
L 306.599491 44.770397 
L 307.309909 44.75305 
L 307.91884 44.81133 
L 308.020328 44.648772 
L 308.223305 44.803067 
L 310.050095 44.746307 
L 310.253072 44.886166 
L 310.760514 44.953817 
L 310.862002 44.802909 
L 311.064979 44.950556 
L 311.470933 45.093771 
L 311.673909 44.924028 
L 311.876886 44.962839 
L 311.978375 45.054422 
L 312.181351 45.009469 
L 312.485816 45.03261 
L 312.587305 44.923046 
L 312.89177 45.030299 
L 313.297723 45.054612 
L 313.5007 45.039163 
L 314.10963 45.099311 
L 314.312607 45.087123 
L 315.834933 45.207609 
L 315.936421 45.058316 
L 316.240886 45.18412 
L 318.372142 45.242875 
L 318.473631 45.142459 
L 318.676607 45.228756 
L 319.184049 45.278742 
L 319.285538 45.148063 
L 319.488514 45.215618 
L 319.590003 45.306346 
L 319.792979 45.215966 
L 319.894468 45.377606 
L 320.097445 45.191274 
L 320.40191 45.327841 
L 321.01084 45.190134 
L 321.315305 45.284662 
L 321.721259 45.29571 
L 321.822747 45.178896 
L 322.127212 45.289822 
L 322.330189 45.315495 
L 322.431677 45.345791 
L 322.634654 45.229009 
L 323.040607 45.277096 
L 323.142096 45.259748 
L 323.243584 45.391756 
L 323.446561 45.243571 
L 324.055491 45.324707 
L 324.359956 45.200011 
L 324.562933 45.297229 
L 325.679305 45.245027 
L 325.780794 45.39201 
L 326.085259 45.289885 
L 326.592701 45.342245 
L 329.028422 45.347627 
L 329.12991 45.511134 
L 329.332887 45.34788 
L 329.434375 45.328126 
L 329.637352 45.452886 
L 329.840329 45.437975 
L 330.144794 45.464092 
L 330.246282 45.363614 
L 330.449259 45.493311 
L 330.753724 45.511641 
L 330.956701 45.484289 
L 331.159677 45.483434 
L 331.362654 45.549439 
L 331.565631 45.559727 
L 332.174561 45.593188 
L 332.27605 45.509266 
L 332.479026 45.636115 
L 332.682003 45.667012 
L 333.189445 45.708546 
L 333.392422 45.720259 
L 333.696887 45.835046 
L 333.899864 45.766509 
L 335.422189 46.066679 
L 335.625166 45.962338 
L 335.828143 46.062721 
L 336.335585 46.180864 
L 336.437073 46.04186 
L 336.741538 46.34855 
L 336.944515 46.19913 
L 337.350468 46.344182 
L 337.451957 46.298406 
L 337.553445 46.487365 
L 337.756422 46.347569 
L 337.959399 46.411927 
L 338.060887 46.545962 
L 338.263864 46.493317 
L 338.46684 46.566222 
L 338.872794 46.591516 
L 339.075771 46.712508 
L 339.177259 46.650493 
L 339.380236 46.744323 
L 339.481724 46.668505 
L 339.684701 46.807827 
L 339.786189 46.70624 
L 339.989166 46.8826 
L 340.496608 47.021953 
L 340.598096 46.891242 
L 340.801073 47.097296 
L 341.105538 47.118126 
L 341.308515 47.19578 
L 341.511492 47.187328 
L 341.815957 47.297114 
L 341.917445 47.307434 
L 342.120422 47.418834 
L 342.22191 47.336843 
L 342.424887 47.478728 
L 342.627864 47.475025 
L 343.236794 47.789756 
L 343.439771 47.640779 
L 343.642748 47.806028 
L 344.150189 48.016798 
L 344.251678 47.843541 
L 344.454655 48.067861 
L 344.657631 48.075237 
L 344.860608 48.160077 
L 345.571027 48.330548 
L 345.672515 48.515107 
L 345.875492 48.371861 
L 346.281445 48.619765 
L 346.382934 48.600581 
L 346.484422 48.718724 
L 346.788887 48.657183 
L 347.093352 48.865073 
L 347.194841 48.813631 
L 347.296329 48.978436 
L 347.499306 48.950071 
L 347.702283 49.000817 
L 348.209724 49.216146 
L 348.311213 49.219344 
L 348.412701 49.105791 
L 348.615678 49.314409 
L 350.239492 49.75792 
L 350.34098 49.90313 
L 350.543957 49.81199 
L 350.645445 50.037639 
L 350.848422 49.876126 
L 351.051399 49.98167 
L 351.254376 50.101364 
L 351.863306 50.252399 
L 352.066283 50.302353 
L 352.167771 50.326159 
L 352.269259 50.467665 
L 352.573725 50.332902 
L 352.776701 50.506982 
L 353.182655 50.621326 
L 353.791585 50.810381 
L 353.893073 50.769765 
L 354.09605 50.855175 
L 354.197539 50.724433 
L 354.400515 50.944985 
L 354.70498 50.982182 
L 354.806469 51.083578 
L 355.009446 50.963758 
L 355.313911 51.175161 
L 355.516887 51.12603 
L 355.618376 51.319295 
L 355.821353 51.175161 
L 356.125818 51.346013 
L 356.328794 51.354402 
L 356.430283 51.431866 
L 356.63326 51.315179 
L 357.039213 51.434874 
L 357.140701 51.335566 
L 357.343678 51.463238 
L 357.546655 51.325151 
L 357.85112 51.408693 
L 357.952608 51.346646 
L 358.155585 51.422559 
L 358.358562 51.286942 
L 358.561539 51.449974 
L 358.663027 51.353326 
L 358.866004 51.434304 
L 359.677911 51.401476 
L 359.779399 51.465802 
L 359.982376 51.285232 
L 360.083864 51.405369 
L 360.286841 51.393087 
L 360.591306 51.411258 
L 360.895771 51.354402 
L 361.098748 51.401159 
L 361.403213 51.394163 
L 361.504702 51.406382 
L 361.707678 51.277286 
L 362.012143 51.340821 
L 363.534469 51.243097 
L 363.838934 51.263009 
L 364.041911 51.192794 
L 364.143399 51.094342 
L 364.447864 51.225274 
L 364.650841 51.16997 
L 364.853818 51.14895 
L 364.955306 51.004152 
L 365.158283 51.14781 
L 365.36126 51.150406 
L 365.665725 51.124099 
L 365.767213 50.926339 
L 365.97019 51.080349 
L 366.274655 51.067782 
L 366.680609 51.005798 
L 367.188051 51.039671 
L 367.492516 50.908232 
L 367.695492 50.968981 
L 367.898469 50.840771 
L 367.999958 50.962333 
L 368.202934 50.672832 
L 368.304423 50.808228 
L 368.405911 50.721932 
L 368.507399 50.828678 
L 368.710376 50.696353 
L 368.811865 50.826494 
L 368.913353 50.77119 
L 369.014841 50.522241 
L 369.217818 50.613444 
L 369.319306 50.697746 
L 369.522283 50.548643 
L 369.623772 50.64662 
L 370.029725 50.457851 
L 370.232702 50.459181 
L 370.33419 50.387668 
L 370.435679 50.550257 
L 370.638655 50.352339 
L 371.146097 50.217576 
L 371.247586 50.406725 
L 371.450562 50.14657 
L 371.755027 50.262655 
L 371.958004 50.054386 
L 372.059493 50.209472 
L 372.262469 50.027636 
L 372.769911 49.960935 
L 372.8714 49.787962 
L 373.074376 49.9553 
L 373.277353 49.78467 
L 373.378841 49.908195 
L 373.581818 49.748993 
L 373.581818 49.748993 
" style="fill:none;stroke:#081d58;stroke-dasharray:5.55,2.4;stroke-dashoffset:0;stroke-width:1.5;"/>
    <defs>
     <path d="M -0 4.242641 
L 4.242641 0 
L 0 -4.242641 
L -4.242641 -0 
z
" id="m085a383d11" style="stroke:#081d58;stroke-linejoin:miter;"/>
    </defs>
    <g clip-path="url(#pbf7daa67a7)">
     <use style="fill:#081d58;stroke:#081d58;stroke-linejoin:miter;" x="69.218182" xlink:href="#m085a383d11" y="47.030627"/>
     <use style="fill:#081d58;stroke:#081d58;stroke-linejoin:miter;" x="77.337252" xlink:href="#m085a383d11" y="48.603715"/>
     <use style="fill:#081d58;stroke:#081d58;stroke-linejoin:miter;" x="85.456322" xlink:href="#m085a383d11" y="71.453739"/>
     <use style="fill:#081d58;stroke:#081d58;stroke-linejoin:miter;" x="93.575392" xlink:href="#m085a383d11" y="104.565469"/>
     <use style="fill:#081d58;stroke:#081d58;stroke-linejoin:miter;" x="101.694462" xlink:href="#m085a383d11" y="119.630146"/>
     <use style="fill:#081d58;stroke:#081d58;stroke-linejoin:miter;" x="109.813532" xlink:href="#m085a383d11" y="125.0243"/>
     <use style="fill:#081d58;stroke:#081d58;stroke-linejoin:miter;" x="117.932602" xlink:href="#m085a383d11" y="124.718115"/>
     <use style="fill:#081d58;stroke:#081d58;stroke-linejoin:miter;" x="126.051672" xlink:href="#m085a383d11" y="115.36154"/>
     <use style="fill:#081d58;stroke:#081d58;stroke-linejoin:miter;" x="134.170742" xlink:href="#m085a383d11" y="113.206364"/>
     <use style="fill:#081d58;stroke:#081d58;stroke-linejoin:miter;" x="142.289812" xlink:href="#m085a383d11" y="115.525119"/>
     <use style="fill:#081d58;stroke:#081d58;stroke-linejoin:miter;" x="150.408882" xlink:href="#m085a383d11" y="127.654019"/>
     <use style="fill:#081d58;stroke:#081d58;stroke-linejoin:miter;" x="158.527952" xlink:href="#m085a383d11" y="151.85149"/>
     <use style="fill:#081d58;stroke:#081d58;stroke-linejoin:miter;" x="166.647022" xlink:href="#m085a383d11" y="182.620033"/>
     <use style="fill:#081d58;stroke:#081d58;stroke-linejoin:miter;" x="174.766092" xlink:href="#m085a383d11" y="169.113866"/>
     <use style="fill:#081d58;stroke:#081d58;stroke-linejoin:miter;" x="182.885162" xlink:href="#m085a383d11" y="105.760583"/>
     <use style="fill:#081d58;stroke:#081d58;stroke-linejoin:miter;" x="191.004232" xlink:href="#m085a383d11" y="81.49414"/>
     <use style="fill:#081d58;stroke:#081d58;stroke-linejoin:miter;" x="199.123302" xlink:href="#m085a383d11" y="72.418384"/>
     <use style="fill:#081d58;stroke:#081d58;stroke-linejoin:miter;" x="207.242372" xlink:href="#m085a383d11" y="64.848366"/>
     <use style="fill:#081d58;stroke:#081d58;stroke-linejoin:miter;" x="215.361442" xlink:href="#m085a383d11" y="59.857915"/>
     <use style="fill:#081d58;stroke:#081d58;stroke-linejoin:miter;" x="223.480512" xlink:href="#m085a383d11" y="57.256584"/>
     <use style="fill:#081d58;stroke:#081d58;stroke-linejoin:miter;" x="231.599582" xlink:href="#m085a383d11" y="55.026855"/>
     <use style="fill:#081d58;stroke:#081d58;stroke-linejoin:miter;" x="239.718652" xlink:href="#m085a383d11" y="52.762938"/>
     <use style="fill:#081d58;stroke:#081d58;stroke-linejoin:miter;" x="247.837722" xlink:href="#m085a383d11" y="50.637234"/>
     <use style="fill:#081d58;stroke:#081d58;stroke-linejoin:miter;" x="255.956792" xlink:href="#m085a383d11" y="49.454252"/>
     <use style="fill:#081d58;stroke:#081d58;stroke-linejoin:miter;" x="264.075862" xlink:href="#m085a383d11" y="48.132092"/>
     <use style="fill:#081d58;stroke:#081d58;stroke-linejoin:miter;" x="272.194932" xlink:href="#m085a383d11" y="46.851671"/>
     <use style="fill:#081d58;stroke:#081d58;stroke-linejoin:miter;" x="280.314002" xlink:href="#m085a383d11" y="45.725767"/>
     <use style="fill:#081d58;stroke:#081d58;stroke-linejoin:miter;" x="288.433072" xlink:href="#m085a383d11" y="44.964074"/>
     <use style="fill:#081d58;stroke:#081d58;stroke-linejoin:miter;" x="296.552142" xlink:href="#m085a383d11" y="44.564027"/>
     <use style="fill:#081d58;stroke:#081d58;stroke-linejoin:miter;" x="304.671212" xlink:href="#m085a383d11" y="44.546932"/>
     <use style="fill:#081d58;stroke:#081d58;stroke-linejoin:miter;" x="312.790282" xlink:href="#m085a383d11" y="45.06623"/>
     <use style="fill:#081d58;stroke:#081d58;stroke-linejoin:miter;" x="320.909352" xlink:href="#m085a383d11" y="45.256835"/>
     <use style="fill:#081d58;stroke:#081d58;stroke-linejoin:miter;" x="329.028422" xlink:href="#m085a383d11" y="45.347627"/>
     <use style="fill:#081d58;stroke:#081d58;stroke-linejoin:miter;" x="337.147492" xlink:href="#m085a383d11" y="46.268269"/>
     <use style="fill:#081d58;stroke:#081d58;stroke-linejoin:miter;" x="345.266562" xlink:href="#m085a383d11" y="48.209683"/>
     <use style="fill:#081d58;stroke:#081d58;stroke-linejoin:miter;" x="353.385632" xlink:href="#m085a383d11" y="50.592582"/>
     <use style="fill:#081d58;stroke:#081d58;stroke-linejoin:miter;" x="361.504702" xlink:href="#m085a383d11" y="51.406382"/>
     <use style="fill:#081d58;stroke:#081d58;stroke-linejoin:miter;" x="369.623772" xlink:href="#m085a383d11" y="50.64662"/>
    </g>
   </g>
   <g id="patch_3">
    <path d="M 54 252 
L 54 34.56 
" style="fill:none;stroke:#000000;stroke-linecap:square;stroke-linejoin:miter;stroke-width:0.8;"/>
   </g>
   <g id="patch_4">
    <path d="M 388.8 252 
L 388.8 34.56 
" style="fill:none;stroke:#000000;stroke-linecap:square;stroke-linejoin:miter;stroke-width:0.8;"/>
   </g>
   <g id="patch_5">
    <path d="M 54 252 
L 388.8 252 
" style="fill:none;stroke:#000000;stroke-linecap:square;stroke-linejoin:miter;stroke-width:0.8;"/>
   </g>
   <g id="patch_6">
    <path d="M 54 34.56 
L 388.8 34.56 
" style="fill:none;stroke:#000000;stroke-linecap:square;stroke-linejoin:miter;stroke-width:0.8;"/>
   </g>
   <g id="legend_1">
    <g id="patch_7">
     <path d="M 61 247 
L 162.714063 247 
Q 164.714063 247 164.714063 245 
L 164.714063 216.64375 
Q 164.714063 214.64375 162.714063 214.64375 
L 61 214.64375 
Q 59 214.64375 59 216.64375 
L 59 245 
Q 59 247 61 247 
z
" style="fill:#ffffff;opacity:0.8;stroke:#cccccc;stroke-linejoin:miter;"/>
    </g>
    <g id="line2d_16">
     <path d="M 63 222.742188 
L 83 222.742188 
" style="fill:none;stroke:#40b5c4;stroke-dasharray:5.55,2.4;stroke-dashoffset:0;stroke-width:1.5;"/>
    </g>
    <g id="line2d_17">
     <g>
      <use style="fill:#40b5c4;stroke:#40b5c4;" x="73" xlink:href="#m86ae64de72" y="222.742188"/>
     </g>
    </g>
    <g id="text_16">
     <text style="font-family:DejaVu Sans;font-size:10px;font-style:normal;font-weight:normal;text-anchor:start;" transform="rotate(-0, 91, 226.242188)" x="91" y="226.242188">original</text>
    </g>
    <g id="line2d_18">
     <path d="M 63 237.420312 
L 83 237.420312 
" style="fill:none;stroke:#081d58;stroke-dasharray:5.55,2.4;stroke-dashoffset:0;stroke-width:1.5;"/>
    </g>
    <g id="line2d_19">
     <g>
      <use style="fill:#081d58;stroke:#081d58;stroke-linejoin:miter;" x="73" xlink:href="#m085a383d11" y="237.420312"/>
     </g>
    </g>
    <g id="text_17">
     <text style="font-family:DejaVu Sans;font-size:10px;font-style:normal;font-weight:normal;text-anchor:start;" transform="rotate(-0, 91, 240.920312)" x="91" y="240.920312">reconstructed</text>
    </g>
   </g>
  </g>
  <g id="text_18">
   <text style="font-family:DejaVu Sans;font-size:12px;font-style:normal;font-weight:normal;text-anchor:middle;" transform="rotate(-0, 216, 14.878125)" x="216" y="14.878125">Reconstruction of the temperature curve</text>
  </g>
 </g>
 <defs>
  <clipPath id="pbf7daa67a7">
   <rect height="217.44" width="334.8" x="54" y="34.56"/>
  </clipPath>
 </defs>
</svg>
