<?xml version="1.0" encoding="utf-8" standalone="no"?>
<!DOCTYPE svg PUBLIC "-//W3C//DTD SVG 1.1//EN"
  "http://www.w3.org/Graphics/SVG/1.1/DTD/svg11.dtd">
<!-- Created with matplotlib (https://matplotlib.org/) -->
<svg height="288pt" version="1.1" viewBox="0 0 432 288" width="432pt" xmlns="http://www.w3.org/2000/svg" xmlns:xlink="http://www.w3.org/1999/xlink">
 <defs>
  <style type="text/css">
*{stroke-linecap:butt;stroke-linejoin:round;}
  </style>
 </defs>
 <g id="figure_1">
  <g id="patch_1">
   <path d="M 0 288 
L 432 288 
L 432 0 
L 0 0 
z
" style="fill:#ffffff;"/>
  </g>
  <g id="axes_1">
   <g id="patch_2">
    <path d="M 54 252 
L 388.8 252 
L 388.8 34.56 
L 54 34.56 
z
" style="fill:#ffffff;"/>
   </g>
   <g id="matplotlib.axis_1">
    <g id="xtick_1">
     <g id="line2d_1">
      <defs>
       <path d="M 0 0 
L 0 3.5 
" id="m66f90f53f1" style="stroke:#000000;stroke-width:0.8;"/>
      </defs>
      <g>
       <use style="stroke:#000000;stroke-width:0.8;" x="69.218182" xlink:href="#m66f90f53f1" y="252"/>
      </g>
     </g>
     <g id="text_1">
      <text style="font-family:DejaVu Sans;font-size:10px;font-style:normal;font-weight:normal;text-anchor:middle;" transform="rotate(-0, 69.218182, 266.598437)" x="69.218182" y="266.598437">0</text>
     </g>
    </g>
    <g id="xtick_2">
     <g id="line2d_2">
      <g>
       <use style="stroke:#000000;stroke-width:0.8;" x="119.962369" xlink:href="#m66f90f53f1" y="252"/>
      </g>
     </g>
     <g id="text_2">
      <text style="font-family:DejaVu Sans;font-size:10px;font-style:normal;font-weight:normal;text-anchor:middle;" transform="rotate(-0, 119.962369, 266.598437)" x="119.962369" y="266.598437">500</text>
     </g>
    </g>
    <g id="xtick_3">
     <g id="line2d_3">
      <g>
       <use style="stroke:#000000;stroke-width:0.8;" x="170.706557" xlink:href="#m66f90f53f1" y="252"/>
      </g>
     </g>
     <g id="text_3">
      <text style="font-family:DejaVu Sans;font-size:10px;font-style:normal;font-weight:normal;text-anchor:middle;" transform="rotate(-0, 170.706557, 266.598437)" x="170.706557" y="266.598437">1000</text>
     </g>
    </g>
    <g id="xtick_4">
     <g id="line2d_4">
      <g>
       <use style="stroke:#000000;stroke-width:0.8;" x="221.450744" xlink:href="#m66f90f53f1" y="252"/>
      </g>
     </g>
     <g id="text_4">
      <text style="font-family:DejaVu Sans;font-size:10px;font-style:normal;font-weight:normal;text-anchor:middle;" transform="rotate(-0, 221.450744, 266.598437)" x="221.450744" y="266.598437">1500</text>
     </g>
    </g>
    <g id="xtick_5">
     <g id="line2d_5">
      <g>
       <use style="stroke:#000000;stroke-width:0.8;" x="272.194932" xlink:href="#m66f90f53f1" y="252"/>
      </g>
     </g>
     <g id="text_5">
      <text style="font-family:DejaVu Sans;font-size:10px;font-style:normal;font-weight:normal;text-anchor:middle;" transform="rotate(-0, 272.194932, 266.598437)" x="272.194932" y="266.598437">2000</text>
     </g>
    </g>
    <g id="xtick_6">
     <g id="line2d_6">
      <g>
       <use style="stroke:#000000;stroke-width:0.8;" x="322.939119" xlink:href="#m66f90f53f1" y="252"/>
      </g>
     </g>
     <g id="text_6">
      <text style="font-family:DejaVu Sans;font-size:10px;font-style:normal;font-weight:normal;text-anchor:middle;" transform="rotate(-0, 322.939119, 266.598437)" x="322.939119" y="266.598437">2500</text>
     </g>
    </g>
    <g id="xtick_7">
     <g id="line2d_7">
      <g>
       <use style="stroke:#000000;stroke-width:0.8;" x="373.683307" xlink:href="#m66f90f53f1" y="252"/>
      </g>
     </g>
     <g id="text_7">
      <text style="font-family:DejaVu Sans;font-size:10px;font-style:normal;font-weight:normal;text-anchor:middle;" transform="rotate(-0, 373.683307, 266.598437)" x="373.683307" y="266.598437">3000</text>
     </g>
    </g>
    <g id="text_8">
     <text style="font-family:DejaVu Sans;font-size:10px;font-style:normal;font-weight:normal;text-anchor:middle;" transform="rotate(-0, 221.4, 280.276563)" x="221.4" y="280.276563">Time</text>
    </g>
   </g>
   <g id="matplotlib.axis_2">
    <g id="ytick_1">
     <g id="line2d_8">
      <defs>
       <path d="M 0 0 
L -3.5 0 
" id="mf32d7a057d" style="stroke:#000000;stroke-width:0.8;"/>
      </defs>
      <g>
       <use style="stroke:#000000;stroke-width:0.8;" x="54" xlink:href="#mf32d7a057d" y="245.972208"/>
      </g>
     </g>
     <g id="text_9">
      <text style="font-family:DejaVu Sans;font-size:10px;font-style:normal;font-weight:normal;text-anchor:end;" transform="rotate(-0, 47, 249.771427)" x="47" y="249.771427">45</text>
     </g>
    </g>
    <g id="ytick_2">
     <g id="line2d_9">
      <g>
       <use style="stroke:#000000;stroke-width:0.8;" x="54" xlink:href="#mf32d7a057d" y="215.721638"/>
      </g>
     </g>
     <g id="text_10">
      <text style="font-family:DejaVu Sans;font-size:10px;font-style:normal;font-weight:normal;text-anchor:end;" transform="rotate(-0, 47, 219.520857)" x="47" y="219.520857">50</text>
     </g>
    </g>
    <g id="ytick_3">
     <g id="line2d_10">
      <g>
       <use style="stroke:#000000;stroke-width:0.8;" x="54" xlink:href="#mf32d7a057d" y="185.471068"/>
      </g>
     </g>
     <g id="text_11">
      <text style="font-family:DejaVu Sans;font-size:10px;font-style:normal;font-weight:normal;text-anchor:end;" transform="rotate(-0, 47, 189.270287)" x="47" y="189.270287">55</text>
     </g>
    </g>
    <g id="ytick_4">
     <g id="line2d_11">
      <g>
       <use style="stroke:#000000;stroke-width:0.8;" x="54" xlink:href="#mf32d7a057d" y="155.220498"/>
      </g>
     </g>
     <g id="text_12">
      <text style="font-family:DejaVu Sans;font-size:10px;font-style:normal;font-weight:normal;text-anchor:end;" transform="rotate(-0, 47, 159.019717)" x="47" y="159.019717">60</text>
     </g>
    </g>
    <g id="ytick_5">
     <g id="line2d_12">
      <g>
       <use style="stroke:#000000;stroke-width:0.8;" x="54" xlink:href="#mf32d7a057d" y="124.969928"/>
      </g>
     </g>
     <g id="text_13">
      <text style="font-family:DejaVu Sans;font-size:10px;font-style:normal;font-weight:normal;text-anchor:end;" transform="rotate(-0, 47, 128.769147)" x="47" y="128.769147">65</text>
     </g>
    </g>
    <g id="ytick_6">
     <g id="line2d_13">
      <g>
       <use style="stroke:#000000;stroke-width:0.8;" x="54" xlink:href="#mf32d7a057d" y="94.719358"/>
      </g>
     </g>
     <g id="text_14">
      <text style="font-family:DejaVu Sans;font-size:10px;font-style:normal;font-weight:normal;text-anchor:end;" transform="rotate(-0, 47, 98.518577)" x="47" y="98.518577">70</text>
     </g>
    </g>
    <g id="ytick_7">
     <g id="line2d_14">
      <g>
       <use style="stroke:#000000;stroke-width:0.8;" x="54" xlink:href="#mf32d7a057d" y="64.468788"/>
      </g>
     </g>
     <g id="text_15">
      <text style="font-family:DejaVu Sans;font-size:10px;font-style:normal;font-weight:normal;text-anchor:end;" transform="rotate(-0, 47, 68.268006)" x="47" y="68.268006">75</text>
     </g>
    </g>
    <g id="text_16">
     <text style="font-family:DejaVu Sans;font-size:10px;font-style:normal;font-weight:normal;text-anchor:middle;" transform="rotate(-90, 28.195312, 143.28)" x="28.195312" y="143.28">weight (\%)</text>
    </g>
   </g>
   <g id="line2d_15">
    <path clip-path="url(#p229e309cda)" d="M 69.218182 44.443636 
L 87.384601 44.813298 
L 92.864973 45.191188 
L 99.867671 45.931541 
L 109.001625 46.85013 
L 132.242463 48.979407 
L 137.012416 49.76332 
L 140.767486 50.602289 
L 143.812137 51.500852 
L 146.653812 52.57862 
L 149.089533 53.735885 
L 151.220789 54.997395 
L 153.352045 56.536241 
L 155.787766 58.600359 
L 156.802649 59.718662 
L 158.832417 62.347497 
L 161.471115 66.139224 
L 163.906836 70.02969 
L 166.951487 75.365164 
L 171.416975 83.229102 
L 173.345254 86.137574 
L 174.969068 88.101138 
L 176.186929 89.31467 
L 177.404789 90.210692 
L 178.521162 90.720232 
L 180.246464 91.214587 
L 183.291115 91.836115 
L 187.655115 92.48977 
L 193.338464 93.119647 
L 202.066465 93.846266 
L 214.143581 94.621709 
L 229.772791 95.368656 
L 247.127303 95.96193 
L 271.07856 96.479699 
L 286.301816 96.632162 
L 345.063585 96.871928 
L 366.985074 96.943682 
L 373.581818 97.015316 
L 373.581818 97.015316 
" style="fill:none;stroke:#40b5c4;stroke-dasharray:5.55,2.4;stroke-dashoffset:0;stroke-width:1.5;"/>
    <defs>
     <path d="M 0 3 
C 0.795609 3 1.55874 2.683901 2.12132 2.12132 
C 2.683901 1.55874 3 0.795609 3 0 
C 3 -0.795609 2.683901 -1.55874 2.12132 -2.12132 
C 1.55874 -2.683901 0.795609 -3 0 -3 
C -0.795609 -3 -1.55874 -2.683901 -2.12132 -2.12132 
C -2.683901 -1.55874 -3 -0.795609 -3 0 
C -3 0.795609 -2.683901 1.55874 -2.12132 2.12132 
C -1.55874 2.683901 -0.795609 3 0 3 
z
" id="mad7051ae13" style="stroke:#40b5c4;"/>
    </defs>
    <g clip-path="url(#p229e309cda)">
     <use style="fill:#40b5c4;stroke:#40b5c4;" x="69.218182" xlink:href="#mad7051ae13" y="44.443636"/>
     <use style="fill:#40b5c4;stroke:#40b5c4;" x="77.337252" xlink:href="#mad7051ae13" y="44.550905"/>
     <use style="fill:#40b5c4;stroke:#40b5c4;" x="85.456322" xlink:href="#mad7051ae13" y="44.73144"/>
     <use style="fill:#40b5c4;stroke:#40b5c4;" x="93.575392" xlink:href="#mad7051ae13" y="45.256288"/>
     <use style="fill:#40b5c4;stroke:#40b5c4;" x="101.694462" xlink:href="#mad7051ae13" y="46.135127"/>
     <use style="fill:#40b5c4;stroke:#40b5c4;" x="109.813532" xlink:href="#mad7051ae13" y="46.920069"/>
     <use style="fill:#40b5c4;stroke:#40b5c4;" x="117.932602" xlink:href="#mad7051ae13" y="47.567129"/>
     <use style="fill:#40b5c4;stroke:#40b5c4;" x="126.051672" xlink:href="#mad7051ae13" y="48.2615"/>
     <use style="fill:#40b5c4;stroke:#40b5c4;" x="134.170742" xlink:href="#mad7051ae13" y="49.26594"/>
     <use style="fill:#40b5c4;stroke:#40b5c4;" x="142.289812" xlink:href="#mad7051ae13" y="51.022228"/>
     <use style="fill:#40b5c4;stroke:#40b5c4;" x="150.408882" xlink:href="#mad7051ae13" y="54.485495"/>
     <use style="fill:#40b5c4;stroke:#40b5c4;" x="158.527952" xlink:href="#mad7051ae13" y="61.934455"/>
     <use style="fill:#40b5c4;stroke:#40b5c4;" x="166.647022" xlink:href="#mad7051ae13" y="74.815451"/>
     <use style="fill:#40b5c4;stroke:#40b5c4;" x="174.766092" xlink:href="#mad7051ae13" y="87.872323"/>
     <use style="fill:#40b5c4;stroke:#40b5c4;" x="182.885162" xlink:href="#mad7051ae13" y="91.763998"/>
     <use style="fill:#40b5c4;stroke:#40b5c4;" x="191.004232" xlink:href="#mad7051ae13" y="92.882422"/>
     <use style="fill:#40b5c4;stroke:#40b5c4;" x="199.123302" xlink:href="#mad7051ae13" y="93.621867"/>
     <use style="fill:#40b5c4;stroke:#40b5c4;" x="207.242372" xlink:href="#mad7051ae13" y="94.204312"/>
     <use style="fill:#40b5c4;stroke:#40b5c4;" x="215.361442" xlink:href="#mad7051ae13" y="94.689107"/>
     <use style="fill:#40b5c4;stroke:#40b5c4;" x="223.480512" xlink:href="#mad7051ae13" y="95.096582"/>
     <use style="fill:#40b5c4;stroke:#40b5c4;" x="231.599582" xlink:href="#mad7051ae13" y="95.441681"/>
     <use style="fill:#40b5c4;stroke:#40b5c4;" x="239.718652" xlink:href="#mad7051ae13" y="95.734083"/>
     <use style="fill:#40b5c4;stroke:#40b5c4;" x="247.837722" xlink:href="#mad7051ae13" y="95.982743"/>
     <use style="fill:#40b5c4;stroke:#40b5c4;" x="255.956792" xlink:href="#mad7051ae13" y="96.191835"/>
     <use style="fill:#40b5c4;stroke:#40b5c4;" x="264.075862" xlink:href="#mad7051ae13" y="96.364021"/>
     <use style="fill:#40b5c4;stroke:#40b5c4;" x="272.194932" xlink:href="#mad7051ae13" y="96.495792"/>
     <use style="fill:#40b5c4;stroke:#40b5c4;" x="280.314002" xlink:href="#mad7051ae13" y="96.589327"/>
     <use style="fill:#40b5c4;stroke:#40b5c4;" x="288.433072" xlink:href="#mad7051ae13" y="96.642326"/>
     <use style="fill:#40b5c4;stroke:#40b5c4;" x="296.552142" xlink:href="#mad7051ae13" y="96.667797"/>
     <use style="fill:#40b5c4;stroke:#40b5c4;" x="304.671212" xlink:href="#mad7051ae13" y="96.698653"/>
     <use style="fill:#40b5c4;stroke:#40b5c4;" x="312.790282" xlink:href="#mad7051ae13" y="96.791159"/>
     <use style="fill:#40b5c4;stroke:#40b5c4;" x="320.909352" xlink:href="#mad7051ae13" y="96.837624"/>
     <use style="fill:#40b5c4;stroke:#40b5c4;" x="329.028422" xlink:href="#mad7051ae13" y="96.861461"/>
     <use style="fill:#40b5c4;stroke:#40b5c4;" x="337.147492" xlink:href="#mad7051ae13" y="96.874771"/>
     <use style="fill:#40b5c4;stroke:#40b5c4;" x="345.266562" xlink:href="#mad7051ae13" y="96.871746"/>
     <use style="fill:#40b5c4;stroke:#40b5c4;" x="353.385632" xlink:href="#mad7051ae13" y="96.874287"/>
     <use style="fill:#40b5c4;stroke:#40b5c4;" x="361.504702" xlink:href="#mad7051ae13" y="96.90599"/>
     <use style="fill:#40b5c4;stroke:#40b5c4;" x="369.623772" xlink:href="#mad7051ae13" y="96.96879"/>
    </g>
   </g>
   <g id="line2d_16">
    <path clip-path="url(#p229e309cda)" d="M 69.218182 216.409057 
L 69.421159 216.660806 
L 69.624135 216.439221 
L 69.725624 216.689309 
L 69.9286 216.372222 
L 70.030089 216.579682 
L 70.233066 216.475064 
L 70.334554 216.718343 
L 70.537531 216.381269 
L 70.639019 216.62171 
L 70.740507 216.382077 
L 70.943484 216.633365 
L 71.146461 216.376561 
L 71.247949 216.808976 
L 71.450926 216.364213 
L 71.653903 216.489234 
L 71.755391 216.583167 
L 71.85688 216.342911 
L 71.958368 216.612109 
L 72.161345 216.386924 
L 72.262833 216.709642 
L 72.46581 216.288167 
L 72.567298 216.654321 
L 72.770275 216.338272 
L 72.871763 216.613494 
L 73.07474 216.330702 
L 73.176228 216.75864 
L 73.379205 216.420365 
L 73.480694 216.532462 
L 73.68367 216.237808 
L 73.785159 216.621571 
L 73.988135 216.345565 
L 74.089624 216.608831 
L 74.292601 216.301138 
L 74.495577 216.479564 
L 74.698554 216.289229 
L 74.800042 216.506336 
L 75.003019 216.236377 
L 75.104508 216.691894 
L 75.307484 216.326502 
L 75.408973 216.138636 
L 75.510461 216.492881 
L 75.713438 216.178332 
L 75.814926 216.33968 
L 76.017903 216.175355 
L 76.22088 216.328371 
L 76.423856 216.020216 
L 76.525345 216.368806 
L 76.728322 215.948393 
L 76.82981 216.355028 
L 76.931298 216.043572 
L 77.032787 216.082784 
L 77.134275 216.289644 
L 77.337252 215.963348 
L 77.43874 216.288213 
L 77.641717 215.831288 
L 77.743205 216.290683 
L 77.844694 215.940407 
L 78.04767 216.307069 
L 78.250647 215.941792 
L 78.352136 216.277989 
L 78.555112 216.087192 
L 78.656601 216.254979 
L 78.859577 216.059681 
L 78.961066 216.389255 
L 79.062554 216.345265 
L 79.265531 216.042095 
L 79.367019 216.478202 
L 79.569996 216.032817 
L 79.671484 216.522953 
L 79.874461 216.319347 
L 79.97595 216.481157 
L 80.178926 216.120126 
L 80.280415 216.629857 
L 80.483391 216.252325 
L 80.58488 216.614647 
L 80.686368 216.337649 
L 80.889345 216.672207 
L 81.092322 216.445222 
L 81.295298 216.62801 
L 81.396787 216.370976 
L 81.599764 216.829424 
L 81.80274 216.636711 
L 81.904229 216.810291 
L 82.107205 216.639435 
L 82.208694 217.045216 
L 82.411671 216.630295 
L 82.513159 216.963884 
L 82.614647 216.834501 
L 82.716136 216.901293 
L 82.817624 217.143488 
L 83.020601 216.740545 
L 83.122089 217.14905 
L 83.325066 216.816846 
L 83.426554 217.203263 
L 83.528043 217.01369 
L 83.832508 217.100537 
L 83.933996 216.970531 
L 84.035485 217.109353 
L 84.238461 217.022275 
L 84.441438 217.330384 
L 84.644415 217.052463 
L 84.745903 217.354595 
L 84.94888 217.073234 
L 85.050368 217.401446 
L 85.253345 216.972401 
L 85.354833 217.468491 
L 85.456322 217.140003 
L 85.659299 217.410354 
L 85.862275 217.075196 
L 85.963764 217.50341 
L 86.16674 217.058602 
L 86.268229 217.439388 
L 86.471206 217.220157 
L 86.572694 217.479615 
L 86.775671 217.056386 
L 86.978647 217.389468 
L 87.080136 217.246099 
L 87.181624 217.298558 
L 87.283113 217.200125 
L 87.486089 217.480862 
L 87.689066 217.041477 
L 87.790554 217.594689 
L 87.993531 217.201625 
L 88.09502 217.640894 
L 88.196508 217.343724 
L 88.399485 217.724303 
L 88.602461 217.418755 
L 88.70395 217.680129 
L 88.906927 217.51068 
L 89.008415 217.752644 
L 89.211392 217.653957 
L 89.31288 217.891951 
L 89.515857 217.648187 
L 89.617345 217.89509 
L 89.718834 217.717748 
L 90.023299 218.078248 
L 90.226275 217.628454 
L 90.327764 217.788025 
L 90.530741 217.0424 
L 90.632229 217.234167 
L 90.835206 216.947636 
L 90.936694 217.492632 
L 91.038182 217.289649 
L 91.139671 217.420371 
L 91.241159 217.819113 
L 91.444136 217.632055 
L 91.545624 217.840807 
L 91.748601 217.614607 
L 91.850089 217.877227 
L 91.951578 217.625569 
L 92.256043 217.799957 
L 92.45902 217.623931 
L 92.661996 217.911038 
L 92.864973 217.554393 
L 92.966462 217.951865 
L 93.169438 217.601382 
L 93.270927 217.938364 
L 93.473903 217.562724 
L 93.575392 217.927309 
L 93.778369 217.58525 
L 93.879857 217.999963 
L 93.981345 217.61373 
L 94.082834 217.690122 
L 94.184322 217.936841 
L 94.28581 217.588919 
L 94.387299 217.663396 
L 94.488787 218.001994 
L 94.691764 217.65031 
L 94.793252 217.944641 
L 94.996229 217.597874 
L 95.199206 217.85057 
L 95.402183 217.720425 
L 95.503671 217.886943 
L 95.706648 217.642348 
L 95.808136 217.947249 
L 96.011113 217.656957 
L 96.112601 218.061469 
L 96.315578 217.612645 
L 96.417066 218.024057 
L 96.620043 217.676852 
L 96.721531 218.028096 
L 96.924508 217.74519 
L 97.025997 218.018749 
L 97.127485 217.693376 
L 97.330462 218.037951 
L 97.533438 217.802796 
L 97.634927 217.974044 
L 97.837904 217.709809 
L 98.04088 217.953504 
L 98.243857 217.812581 
L 98.345345 218.055145 
L 98.548322 217.754214 
L 98.649811 218.100312 
L 98.751299 217.684952 
L 98.852787 217.739651 
L 98.954276 218.023065 
L 99.157252 217.636994 
L 99.258741 217.845354 
L 99.461718 217.398861 
L 99.563206 217.842331 
L 99.766183 217.383352 
L 99.867671 217.608144 
L 100.070648 217.334054 
L 100.172136 217.50498 
L 100.273625 217.22445 
L 100.375113 217.269824 
L 100.476601 217.440104 
L 100.679578 217.068826 
L 100.882555 217.401907 
L 101.085532 217.162782 
L 101.18702 217.349633 
L 101.389997 217.100514 
L 101.491485 217.422771 
L 101.694462 217.137049 
L 101.79595 217.456605 
L 101.998927 217.018582 
L 102.100415 217.487393 
L 102.303392 217.068064 
L 102.40488 217.456698 
L 102.607857 217.035707 
L 102.709346 217.47433 
L 102.912322 217.081381 
L 103.013811 217.356026 
L 103.216787 217.082143 
L 103.318276 217.358564 
L 103.419764 217.02846 
L 103.724229 217.217203 
L 103.927206 216.965131 
L 104.028694 217.42374 
L 104.231671 216.997857 
L 104.33316 217.491848 
L 104.536136 217.028299 
L 104.637625 217.478877 
L 104.840601 217.047847 
L 104.94209 217.38289 
L 105.145067 217.081404 
L 105.246555 217.414047 
L 105.449532 217.01542 
L 105.652508 217.286626 
L 105.855485 217.093521 
L 105.956974 217.368696 
L 106.15995 217.035038 
L 106.261439 217.398099 
L 106.464415 217.026037 
L 106.565904 217.418732 
L 106.768881 217.052994 
L 106.870369 217.408346 
L 107.073346 217.000003 
L 107.174834 217.37862 
L 107.377811 217.122001 
L 107.479299 217.404492 
L 107.682276 217.082558 
L 107.783764 217.328353 
L 107.986741 217.001734 
L 108.088229 217.340955 
L 108.291206 217.076812 
L 108.392695 217.279517 
L 108.494183 217.134741 
L 108.595671 217.315129 
L 108.69716 217.111223 
L 108.798648 217.31439 
L 109.001625 217.169867 
L 109.103113 217.071249 
L 109.204602 217.495586 
L 109.407578 217.089413 
L 109.509067 217.51045 
L 109.712043 217.097583 
L 109.813532 217.511373 
L 109.91502 217.090636 
L 110.016509 217.1863 
L 110.117997 217.459721 
L 110.320974 217.115562 
L 110.422462 217.572441 
L 110.625439 217.171183 
L 110.726927 217.48197 
L 110.929904 217.287364 
L 111.031392 217.437565 
L 111.132881 217.251153 
L 111.437346 217.560647 
L 111.640323 217.20474 
L 111.741811 217.561593 
L 111.944788 217.298235 
L 112.046276 217.540268 
L 112.249253 217.356418 
L 112.350741 217.529767 
L 112.553718 217.304512 
L 112.655206 217.596074 
L 112.858183 217.297335 
L 112.959671 217.627531 
L 113.162648 217.305643 
L 113.264137 217.688922 
L 113.467113 217.340309 
L 113.568602 217.662427 
L 113.771578 217.324407 
L 113.873067 217.561224 
L 114.076044 217.421709 
L 114.27902 217.526143 
L 114.380509 217.447304 
L 114.481997 217.223919 
L 114.583485 217.836492 
L 114.786462 217.271394 
L 114.887951 217.801572 
L 114.989439 217.335877 
L 115.090927 217.374489 
L 115.192416 217.663119 
L 115.293904 217.295535 
L 115.395392 217.329023 
L 115.496881 217.703947 
L 115.699858 217.281941 
L 115.801346 217.73005 
L 116.004323 217.276956 
L 116.105811 217.590743 
L 116.308788 217.317668 
L 116.410276 217.607544 
L 116.511765 217.324338 
L 116.81623 217.370473 
L 117.019206 217.306613 
L 117.120695 217.556193 
L 117.323672 217.20421 
L 117.42516 217.672305 
L 117.628137 217.236936 
L 117.729625 217.58068 
L 117.932602 217.224912 
L 118.03409 217.49891 
L 118.237067 217.252376 
L 118.338555 217.547607 
L 118.541532 217.201417 
L 118.64302 217.463091 
L 118.845997 217.180899 
L 118.947486 217.559332 
L 119.150462 217.190293 
L 119.251951 217.52702 
L 119.454927 217.190685 
L 119.556416 217.362557 
L 119.657904 217.276656 
L 119.759393 217.373866 
L 119.860881 217.167583 
L 119.962369 217.460552 
L 120.165346 217.150942 
L 120.266834 217.555616 
L 120.469811 217.040508 
L 120.5713 217.388706 
L 120.774276 217.05514 
L 120.875765 217.330315 
L 120.977253 216.94519 
L 121.18023 217.227774 
L 121.383207 216.855873 
L 121.484695 217.113 
L 121.687672 216.733298 
L 121.78916 216.91004 
L 121.992137 216.443052 
L 122.093625 216.604539 
L 122.296602 216.136605 
L 122.499579 216.210366 
L 123.007021 215.572522 
L 123.108509 215.765581 
L 123.311486 215.34953 
L 123.412974 215.438477 
L 123.615951 215.065238 
L 123.717439 215.196814 
L 123.920416 214.763014 
L 124.021904 214.944902 
L 124.224881 214.561831 
L 124.326369 214.680067 
L 124.529346 214.173683 
L 124.630835 214.372188 
L 124.833811 214.051639 
L 124.9353 214.291687 
L 125.138276 214.070887 
L 125.239765 214.263461 
L 125.341253 214.158197 
L 125.54423 214.248783 
L 125.645718 214.322683 
L 125.848695 214.129047 
L 125.950183 214.495386 
L 126.15316 214.198724 
L 126.254649 214.502748 
L 126.457625 214.214164 
L 126.559114 214.650341 
L 126.660602 214.266831 
L 126.76209 214.343962 
L 126.863579 214.644386 
L 127.066556 214.338239 
L 127.168044 214.614729 
L 127.371021 214.342808 
L 127.472509 214.718932 
L 127.675486 214.452481 
L 127.776974 214.709655 
L 127.979951 214.444519 
L 128.182928 214.621468 
L 128.284416 214.684129 
L 128.385904 214.594258 
L 128.487393 214.82819 
L 128.69037 214.567763 
L 128.791858 214.883188 
L 128.994835 214.628946 
L 129.096323 214.95455 
L 129.2993 214.668643 
L 129.400788 215.003662 
L 129.603765 214.675266 
L 129.705253 214.970267 
L 129.90823 214.707439 
L 130.009718 215.057183 
L 130.212695 214.755144 
L 130.314184 215.09268 
L 130.51716 214.794656 
L 130.618649 215.118182 
L 130.821625 214.82459 
L 130.923114 215.077678 
L 131.126091 214.991523 
L 131.532044 214.896182 
L 131.633532 215.261113 
L 131.836509 214.956396 
L 131.937998 215.299678 
L 132.140974 214.988199 
L 132.343951 215.196675 
L 132.445439 215.15234 
L 132.546928 215.33492 
L 132.749905 215.11509 
L 132.851393 215.397442 
L 133.05437 215.103781 
L 133.155858 215.434277 
L 133.358835 215.189244 
L 133.460323 215.430838 
L 133.6633 215.238887 
L 133.764788 215.380225 
L 133.967765 215.295686 
L 134.170742 215.43887 
L 134.373719 215.197391 
L 134.475207 215.593386 
L 134.576695 215.244126 
L 134.678184 215.636775 
L 134.88116 215.280153 
L 134.982649 215.652654 
L 135.185626 215.404158 
L 135.287114 215.605687 
L 135.490091 215.320957 
L 135.591579 215.722769 
L 135.693067 215.455325 
L 135.896044 215.637422 
L 136.099021 215.455095 
L 136.301998 215.76782 
L 136.504974 215.402843 
L 136.606463 215.872923 
L 136.80944 215.577554 
L 136.910928 215.806778 
L 137.012416 215.523871 
L 137.113905 215.97498 
L 137.316881 215.570699 
L 137.41837 216.003622 
L 137.621347 215.650669 
L 137.722835 216.046942 
L 137.925812 215.746933 
L 138.0273 215.968587 
L 138.230277 215.763066 
L 138.331765 216.031778 
L 138.534742 215.83055 
L 138.737719 215.98465 
L 138.839207 215.877424 
L 139.042184 216.227076 
L 139.245161 216.067321 
L 139.346649 216.415565 
L 139.549626 216.236538 
L 139.651114 216.491681 
L 139.854091 216.240808 
L 139.955579 216.63138 
L 140.158556 216.433775 
L 140.260044 216.720651 
L 140.463021 216.596784 
L 140.564509 216.867966 
L 140.665998 216.62591 
L 140.767486 216.700549 
L 140.868975 217.012859 
L 141.071951 216.75887 
L 141.17344 217.072726 
L 141.274928 216.932219 
L 141.477905 217.157612 
L 141.680882 216.990518 
L 141.883858 217.355956 
L 142.086835 217.076996 
L 142.188323 217.51585 
L 142.3913 217.263177 
L 142.492789 217.550538 
L 142.695765 217.409893 
L 142.797254 217.693307 
L 143.00023 217.486401 
L 143.101719 217.787148 
L 143.304696 217.64064 
L 143.406184 217.907022 
L 143.507672 217.667851 
L 143.609161 217.755598 
L 143.710649 218.040075 
L 143.812137 217.75636 
L 143.913626 217.826775 
L 144.015114 218.103381 
L 144.218091 217.941895 
L 144.319579 218.176889 
L 144.522556 217.927886 
L 144.725533 218.281461 
L 144.92851 218.128515 
L 145.029998 218.510316 
L 145.232975 218.234795 
L 145.334463 218.638037 
L 145.53744 218.33189 
L 145.638928 218.627675 
L 145.841905 218.43967 
L 145.943393 218.757589 
L 146.14637 218.509001 
L 146.247858 218.923368 
L 146.450835 218.621836 
L 146.552324 219.002714 
L 146.7553 218.718838 
L 146.856789 219.05095 
L 146.958277 218.835527 
L 147.161254 219.111672 
L 147.364231 218.907166 
L 147.567207 219.238424 
L 147.770184 219.133805 
L 147.871672 219.284975 
L 148.074649 219.222061 
L 148.176138 219.46834 
L 148.277626 219.392363 
L 148.379114 219.17424 
L 148.480603 219.679955 
L 148.683579 219.359498 
L 148.785068 219.818616 
L 148.988044 219.465432 
L 149.089533 219.823924 
L 149.29251 219.572497 
L 149.393998 219.913864 
L 149.596975 219.740377 
L 149.698463 219.992611 
L 149.90144 219.83881 
L 150.002928 220.151835 
L 150.205905 219.824662 
L 150.408882 220.221143 
L 150.611858 220.109 
L 150.713347 220.296658 
L 150.916324 220.162175 
L 151.017812 220.603498 
L 151.1193 220.22472 
L 151.220789 220.294373 
L 151.322277 220.647257 
L 151.525254 220.405247 
L 151.626742 220.760161 
L 151.829719 220.540307 
L 151.931207 220.9138 
L 152.134184 220.642872 
L 152.235672 221.093011 
L 152.337161 220.781002 
L 152.438649 220.832261 
L 152.540138 221.174897 
L 152.743114 221.049876 
L 152.844603 221.474282 
L 153.047579 221.326574 
L 153.250556 221.707084 
L 153.352045 221.83162 
L 153.453533 221.675003 
L 153.555021 222.181849 
L 153.757998 221.984474 
L 153.859486 222.512761 
L 153.960975 222.276844 
L 154.062463 222.320718 
L 154.163952 222.699611 
L 154.366928 222.630166 
L 154.468417 223.145089 
L 154.569905 222.849373 
L 154.671393 222.914642 
L 154.772882 223.352226 
L 154.975859 223.035185 
L 155.077347 223.420518 
L 155.280324 223.178993 
L 155.381812 223.551747 
L 155.584789 223.278695 
L 155.686277 223.632756 
L 155.889254 223.344379 
L 156.092231 223.529522 
L 156.295207 223.528945 
L 156.396696 223.643211 
L 156.599673 223.50845 
L 156.701161 223.828215 
L 156.904138 223.60386 
L 157.005626 223.972138 
L 157.107114 223.697239 
L 157.310091 224.006687 
L 157.41158 223.876981 
L 157.513068 223.798442 
L 157.614556 224.128246 
L 157.817533 223.908 
L 157.919021 224.270577 
L 158.02051 224.071402 
L 158.121998 224.124554 
L 158.223487 224.524288 
L 158.324975 224.442541 
L 158.426463 224.526296 
L 158.62944 224.815734 
L 158.730928 224.869624 
L 158.933905 225.118558 
L 159.23837 225.58393 
L 159.339859 225.492836 
L 159.441347 225.561151 
L 159.542835 225.944615 
L 159.745812 225.823817 
L 159.847301 226.234237 
L 159.948789 226.184548 
L 160.050277 226.187732 
L 160.151766 226.631941 
L 160.253254 226.387438 
L 160.354742 226.503273 
L 160.456231 226.975846 
L 160.557719 226.756777 
L 160.659208 226.911386 
L 160.760696 227.286494 
L 160.862184 227.121685 
L 160.963673 227.216702 
L 161.065161 227.635731 
L 161.166649 227.488485 
L 161.268138 227.568732 
L 161.369626 227.98086 
L 161.471115 227.866986 
L 161.978556 228.487405 
L 162.080045 228.813078 
L 162.181533 228.60481 
L 162.283022 228.704351 
L 162.38451 229.309146 
L 162.587487 229.10554 
L 162.688975 229.673269 
L 162.891952 229.491634 
L 162.99344 230.042261 
L 163.196417 229.97577 
L 163.297905 230.437472 
L 163.399394 230.279956 
L 163.906836 231.300455 
L 164.008324 231.174327 
L 164.211301 231.521302 
L 164.312789 231.542304 
L 164.414277 231.986212 
L 164.617254 231.987343 
L 164.718743 232.514545 
L 164.820231 232.269234 
L 164.921719 232.43409 
L 165.023208 232.925611 
L 165.226184 232.799921 
L 165.327673 233.405477 
L 165.429161 233.148789 
L 165.53065 233.311336 
L 165.632138 233.777516 
L 165.733626 233.60479 
L 166.241068 234.604611 
L 166.444045 234.555152 
L 166.545533 234.655755 
L 166.74851 234.650793 
L 166.951487 234.945678 
L 167.154464 234.83972 
L 167.255952 235.234147 
L 167.458929 235.06089 
L 167.560417 235.322379 
L 167.661905 235.168786 
L 167.966371 235.399002 
L 168.067859 235.304492 
L 168.169347 235.642974 
L 168.372324 235.389932 
L 168.473812 235.616041 
L 168.676789 235.459401 
L 168.778278 235.754817 
L 168.981254 235.567228 
L 169.082743 235.845842 
L 169.184231 235.615833 
L 169.89465 235.944852 
L 169.996138 235.782974 
L 170.097626 236.112662 
L 170.199115 235.827332 
L 170.402092 236.111993 
L 170.605068 235.996204 
L 170.706557 236.226074 
L 170.909533 236.052748 
L 171.011022 236.351049 
L 171.213999 236.136411 
L 171.315487 236.407409 
L 171.518464 236.240106 
L 171.619952 236.477685 
L 171.72144 236.280841 
L 172.025906 236.389638 
L 172.127394 236.349387 
L 172.330371 236.40637 
L 172.431859 236.331593 
L 172.634836 236.545285 
L 172.837813 236.254808 
L 172.939301 236.572264 
L 173.142278 236.319107 
L 173.243766 236.602106 
L 173.345254 236.317307 
L 173.548231 236.535568 
L 173.751208 236.286611 
L 173.852696 236.589089 
L 174.055673 236.404731 
L 174.157161 236.702317 
L 174.360138 236.536515 
L 174.461627 236.733128 
L 174.563115 236.52479 
L 174.664603 236.572195 
L 174.766092 236.806797 
L 174.86758 236.654588 
L 175.172045 236.866434 
L 175.273534 236.710579 
L 175.47651 236.938234 
L 175.679487 236.872458 
L 175.780975 237.122569 
L 175.983952 236.962721 
L 176.085441 237.262983 
L 176.288417 237.042991 
L 176.389906 237.329521 
L 176.491394 237.10452 
L 176.592882 237.177867 
L 176.694371 237.41473 
L 176.897348 237.301849 
L 176.998836 237.540097 
L 177.201813 237.297925 
L 177.303301 237.562299 
L 177.404789 237.522003 
L 177.506278 237.439102 
L 177.607766 237.755566 
L 177.810743 237.619352 
L 177.912231 237.767383 
L 178.115208 237.65254 
L 178.318185 237.958226 
L 178.521162 237.799117 
L 178.62265 238.052228 
L 178.825627 237.902858 
L 178.927115 238.112673 
L 179.130092 237.936139 
L 179.23158 238.252026 
L 179.434557 237.955133 
L 179.536045 238.172748 
L 179.739022 237.98119 
L 179.84051 238.246095 
L 180.043487 237.936439 
L 180.144976 238.328488 
L 180.347952 237.996561 
L 180.449441 238.246441 
L 180.652417 238.110434 
L 180.753906 238.367238 
L 180.956883 238.14413 
L 181.159859 238.394333 
L 181.362836 238.32978 
L 181.464324 238.58033 
L 181.667301 238.382909 
L 181.870278 238.457132 
L 181.971766 238.291838 
L 182.073255 238.551181 
L 182.276231 238.209583 
L 182.37772 238.490205 
L 182.580697 238.123059 
L 182.682185 238.411273 
L 182.885162 238.081354 
L 182.98665 238.306701 
L 183.189627 237.96298 
L 183.291115 238.270143 
L 183.494092 237.926699 
L 183.59558 238.246302 
L 183.697069 237.942763 
L 183.900045 237.987075 
L 184.103022 237.89215 
L 184.305999 238.151862 
L 184.508976 237.791916 
L 184.610464 238.134344 
L 184.813441 237.903205 
L 184.914929 238.175102 
L 185.016418 237.805164 
L 185.219394 238.073853 
L 185.422371 237.821134 
L 185.523859 238.012808 
L 185.726836 237.757135 
L 185.929813 237.940339 
L 186.031301 237.708115 
L 186.13279 237.925015 
L 186.234278 237.843591 
L 186.335766 237.61739 
L 186.437255 238.005562 
L 186.640232 237.678827 
L 186.74172 237.96088 
L 186.944697 237.6398 
L 187.046185 237.925245 
L 187.35065 237.677258 
L 187.452139 237.961895 
L 187.655115 237.653417 
L 187.756604 238.111103 
L 187.95958 237.692906 
L 188.061069 238.006231 
L 188.264046 237.810679 
L 188.365534 238.007639 
L 188.467022 237.770983 
L 188.669999 238.025133 
L 188.771487 237.745711 
L 189.075953 237.902858 
L 189.177441 237.774445 
L 189.278929 238.049182 
L 189.481906 237.738003 
L 189.583394 238.040342 
L 189.786371 237.806894 
L 189.88786 238.027325 
L 190.090836 237.855892 
L 190.293813 237.972166 
L 190.49679 237.797501 
L 190.598278 238.033626 
L 190.801255 237.80274 
L 190.902743 238.109788 
L 191.10572 237.809572 
L 191.207208 238.186273 
L 191.410185 237.811303 
L 191.511674 238.163701 
L 191.71465 237.878117 
L 191.816139 238.128044 
L 191.917627 237.819773 
L 192.120604 238.037365 
L 192.222092 237.862862 
L 192.425069 238.000253 
L 192.628046 237.883518 
L 192.831022 238.062475 
L 192.932511 237.711992 
L 193.135488 238.056775 
L 193.236976 237.865193 
L 193.439953 238.025202 
L 193.541441 237.914329 
L 193.642929 238.09534 
L 193.744418 237.817834 
L 193.947395 238.094994 
L 194.048883 237.700291 
L 194.150371 238.227077 
L 194.353348 237.923422 
L 194.454836 238.094671 
L 194.657813 237.95691 
L 194.759302 238.156847 
L 194.962278 237.956149 
L 195.165255 238.124697 
L 195.368232 238.026171 
L 195.46972 238.277783 
L 195.571209 237.912621 
L 195.672697 238.012301 
L 195.774185 238.283806 
L 195.977162 238.008908 
L 196.07865 238.33098 
L 196.180139 238.05659 
L 196.484604 238.179488 
L 196.586092 238.030672 
L 196.687581 238.320849 
L 196.890557 238.012855 
L 196.992046 238.439407 
L 197.195023 238.087355 
L 197.296511 238.401973 
L 197.499488 238.117058 
L 197.600976 238.471811 
L 197.702464 238.155116 
L 197.905441 238.273213 
L 198.00693 238.243256 
L 198.108418 238.480142 
L 198.209906 238.180041 
L 198.311395 238.233586 
L 198.412883 238.429068 
L 198.61586 238.199797 
L 198.717348 238.517623 
L 198.920325 238.273028 
L 199.021813 238.510515 
L 199.22479 238.198782 
L 199.326278 238.551942 
L 199.529255 238.317387 
L 199.630744 238.610425 
L 199.83372 238.251611 
L 199.935209 238.690557 
L 200.138185 238.351683 
L 200.239674 238.654738 
L 200.442651 238.438899 
L 200.544139 238.55665 
L 200.645627 238.466918 
L 200.848604 238.612941 
L 200.950092 238.410073 
L 201.356046 238.489351 
L 201.457534 238.453739 
L 201.559023 238.77902 
L 201.761999 238.404119 
L 201.863488 238.786382 
L 202.066465 238.516561 
L 202.167953 238.809208 
L 202.269441 238.5137 
L 202.472418 238.84288 
L 202.675395 238.593577 
L 202.776883 238.787536 
L 202.97986 238.576199 
L 203.081348 238.883916 
L 203.284325 238.643013 
L 203.385813 238.910457 
L 203.58879 238.594985 
L 203.690279 238.893263 
L 203.893255 238.678255 
L 204.096232 238.845627 
L 204.299209 238.707289 
L 204.400697 238.93626 
L 204.603674 238.695865 
L 204.705162 239.015745 
L 204.908139 238.783451 
L 205.009627 238.977895 
L 205.212604 238.708143 
L 205.314093 239.039332 
L 205.517069 238.790583 
L 205.618558 238.964232 
L 205.821534 238.830302 
L 205.923023 239.105154 
L 206.126 238.798337 
L 206.227488 239.034808 
L 206.430465 238.83448 
L 206.531953 239.173423 
L 206.73493 238.902471 
L 206.836418 239.107047 
L 207.039395 238.856543 
L 207.242372 239.101231 
L 207.445348 238.876046 
L 207.546837 239.172523 
L 207.749814 238.887077 
L 207.851302 239.208896 
L 208.054279 238.912857 
L 208.155767 239.2461 
L 208.358744 238.949761 
L 208.460232 239.291312 
L 208.663209 238.978033 
L 208.764697 239.309845 
L 208.967674 239.023499 
L 209.069162 239.298375 
L 209.272139 239.077644 
L 209.373628 239.328701 
L 209.576604 238.936398 
L 209.678093 239.362466 
L 209.881069 239.097584 
L 209.982558 239.270218 
L 210.185535 239.094676 
L 210.287023 239.350257 
L 210.49 239.197079 
L 210.591488 239.15399 
L 210.692976 239.341856 
L 210.895953 239.11674 
L 210.997442 239.458522 
L 211.200418 239.106978 
L 211.301907 239.490787 
L 211.504883 239.081659 
L 211.606372 239.464569 
L 211.809349 239.241507 
L 211.910837 239.42478 
L 212.012325 239.256301 
L 212.215302 239.368859 
L 212.418279 239.260201 
L 212.519767 239.473939 
L 212.722744 239.258932 
L 212.824232 239.516775 
L 213.027209 239.226921 
L 213.128697 239.514951 
L 213.230186 239.262648 
L 213.433163 239.435697 
L 213.636139 239.338717 
L 213.737628 239.273726 
L 213.839116 239.531522 
L 214.042093 239.329509 
L 214.143581 239.6162 
L 214.346558 239.322469 
L 214.448046 239.632102 
L 214.651023 239.250923 
L 214.752511 239.675837 
L 214.955488 239.345687 
L 215.056977 239.635379 
L 215.259953 239.398608 
L 215.361442 239.663098 
L 215.564418 239.393923 
L 215.665907 239.630071 
L 215.868884 239.36812 
L 215.970372 239.716711 
L 216.173349 239.38723 
L 216.376325 239.486402 
L 216.579302 239.563002 
L 216.680791 239.619847 
L 216.883767 239.421088 
L 216.985256 239.769632 
L 217.188232 239.378668 
L 217.289721 239.716088 
L 217.492698 239.451898 
L 217.594186 239.758461 
L 217.797163 239.495934 
L 217.898651 239.703371 
L 218.101628 239.433804 
L 218.203116 239.745122 
L 218.406093 239.567688 
L 218.507581 239.720911 
L 218.710558 239.5384 
L 218.812046 239.760331 
L 219.015023 239.505489 
L 219.116512 239.851887 
L 219.319488 239.57235 
L 219.522465 239.710687 
L 220.029907 239.539969 
L 220.131395 239.912008 
L 220.334372 239.554925 
L 220.43586 239.948635 
L 220.638837 239.605284 
L 220.740326 239.89673 
L 220.943302 239.659313 
L 221.044791 239.934857 
L 221.146279 239.644196 
L 221.247767 239.682946 
L 221.349256 239.968461 
L 221.552233 239.661436 
L 221.653721 239.950528 
L 221.856698 239.709233 
L 221.958186 240.021105 
L 222.161163 239.710641 
L 222.262651 239.987478 
L 222.465628 239.690839 
L 222.668605 239.889368 
L 222.770093 239.779995 
L 222.97307 239.921425 
L 223.277535 239.827446 
L 223.379023 240.113399 
L 223.582 239.756384 
L 223.683488 240.119561 
L 223.784977 239.806697 
L 223.886465 239.861949 
L 223.987954 240.12787 
L 224.19093 239.786641 
L 224.292419 240.115268 
L 224.495395 239.87305 
L 224.596884 240.062578 
L 224.799861 239.872543 
L 224.901349 240.046838 
L 225.205814 239.929987 
L 225.307302 240.215779 
L 225.408791 239.806236 
L 225.611768 240.197269 
L 225.814744 239.921586 
L 225.916233 240.157504 
L 226.119209 239.883482 
L 226.220698 240.271931 
L 226.423675 239.9019 
L 226.525163 240.262376 
L 226.72814 239.920132 
L 226.829628 240.283632 
L 227.032605 239.987616 
L 227.134093 240.235558 
L 227.33707 240.069802 
L 227.438558 240.232258 
L 227.641535 239.958536 
L 227.743023 240.259307 
L 227.946 240.092397 
L 228.047489 240.266 
L 228.148977 240.068879 
L 228.453442 240.313312 
L 228.656419 240.048938 
L 228.757907 240.329837 
L 228.960884 240.08478 
L 229.062372 240.356655 
L 229.265349 240.100844 
L 229.366837 240.363025 
L 229.569814 240.109037 
L 229.671303 240.429794 
L 229.874279 240.137632 
L 229.975768 240.395129 
L 230.178744 240.143033 
L 230.280233 240.379319 
L 230.48321 240.171928 
L 230.584698 240.400414 
L 230.787675 240.200685 
L 230.889163 240.445141 
L 230.990651 240.167866 
L 231.295117 240.345231 
L 231.396605 240.101005 
L 231.498093 240.456381 
L 231.802558 240.215156 
L 231.904047 240.463582 
L 232.107024 240.218202 
L 232.208512 240.524211 
L 232.411489 240.314651 
L 232.512977 240.470413 
L 232.715954 240.307404 
L 232.817442 240.467852 
L 232.918931 240.417285 
L 233.020419 240.198816 
L 233.121907 240.550314 
L 233.324884 240.258083 
L 233.426372 240.555761 
L 233.629349 240.257945 
L 233.730838 240.582556 
L 233.832326 240.29958 
L 233.933814 240.391228 
L 234.035303 240.674296 
L 234.136791 240.288433 
L 234.339768 240.594834 
L 234.441256 240.347793 
L 234.644233 240.489754 
L 234.948698 240.414954 
L 235.050186 240.68279 
L 235.253163 240.322659 
L 235.354652 240.699891 
L 235.45614 240.385135 
L 235.557628 240.423562 
L 235.659117 240.549922 
L 235.862093 240.521534 
L 235.963582 240.608543 
L 236.166559 240.481491 
L 236.268047 240.60215 
L 236.471024 240.392497 
L 236.572512 240.755928 
L 236.775489 240.365425 
L 236.876977 240.747643 
L 237.079954 240.421878 
L 237.181442 240.721701 
L 237.384419 240.462728 
L 237.485907 240.790709 
L 237.587396 240.459312 
L 237.790373 240.66151 
L 237.993349 240.551699 
L 238.094838 240.644755 
L 238.297814 240.582487 
L 238.500791 240.714201 
L 238.60228 240.399421 
L 238.703768 240.449388 
L 238.805256 240.725856 
L 239.008233 240.471844 
L 239.109721 240.656756 
L 239.312698 240.449896 
L 239.414187 240.6385 
L 239.617163 240.467067 
L 239.718652 240.587657 
L 239.921628 240.344677 
L 240.023117 240.612767 
L 240.226094 240.316751 
L 240.327582 240.605843 
L 240.530559 240.312158 
L 240.632047 240.577548 
L 240.733535 240.309066 
L 240.835024 240.367456 
L 240.936512 240.60979 
L 241.139489 240.34807 
L 241.240977 240.521142 
L 241.443954 240.312874 
L 241.748419 240.43254 
L 241.849908 240.234081 
L 241.951396 240.532081 
L 242.154373 240.166135 
L 242.255861 240.556153 
L 242.357349 240.169712 
L 242.560326 240.477453 
L 242.763303 240.197385 
L 242.864791 240.4874 
L 242.96628 240.18783 
L 243.067768 240.235073 
L 243.169256 240.409369 
L 243.372233 240.125816 
L 243.473722 240.36134 
L 243.676698 240.151318 
L 243.778187 240.361848 
L 243.981163 240.185706 
L 244.082652 240.356517 
L 244.285629 240.148064 
L 244.488605 240.187737 
L 244.590094 240.154826 
L 244.691582 240.281601 
L 244.894559 240.038114 
L 245.097536 240.249336 
L 245.300512 240.068486 
L 245.402001 240.223672 
L 245.604977 239.985447 
L 245.706466 240.252498 
L 245.909443 239.97123 
L 246.010931 240.278786 
L 246.213908 239.981823 
L 246.315396 240.246174 
L 246.518373 239.981708 
L 246.619861 240.151203 
L 246.822838 239.947758 
L 246.924326 240.164243 
L 247.127303 239.946074 
L 247.228791 240.14601 
L 247.431768 239.954013 
L 247.533257 240.18633 
L 247.736233 239.905177 
L 247.837722 240.074672 
L 248.040698 239.852971 
L 248.142187 240.093597 
L 248.345164 239.851356 
L 248.54814 239.980254 
L 248.751117 239.841178 
L 248.852605 240.007695 
L 249.055582 239.798666 
L 249.157071 240.05487 
L 249.360047 239.78221 
L 249.461536 240.026413 
L 249.664512 239.778494 
L 249.766001 240.049931 
L 249.968978 239.742837 
L 250.070466 240.087712 
L 250.273443 239.783895 
L 250.374931 239.998164 
L 250.577908 239.821399 
L 250.679396 240.030452 
L 250.882373 239.7568 
L 250.983861 240.079911 
L 251.186838 239.762823 
L 251.288326 240.033752 
L 251.491303 239.80192 
L 251.592792 240.025374 
L 251.795768 239.822737 
L 251.897257 239.987686 
L 252.100233 239.715626 
L 252.30321 239.994886 
L 252.506187 239.734274 
L 252.607675 240.020135 
L 252.810652 239.766539 
L 252.91214 240.082934 
L 253.115117 239.793104 
L 253.318094 240.018704 
L 253.622559 239.841916 
L 254.028513 239.929826 
L 254.130001 239.79285 
L 254.332978 239.929733 
L 254.434466 239.840486 
L 254.535954 240.112083 
L 254.738931 239.644149 
L 254.941908 240.121107 
L 255.144885 239.888214 
L 255.246373 239.928279 
L 255.347861 239.682692 
L 255.550838 240.058655 
L 255.753815 239.926548 
L 255.956792 239.795596 
L 256.159768 240.112937 
L 256.362745 239.885375 
L 256.464234 239.957221 
L 256.66721 239.762985 
L 256.870187 240.089973 
L 257.073164 239.900307 
L 257.276141 239.858234 
L 257.479117 240.059993 
L 257.682094 239.813067 
L 257.783582 239.977185 
L 257.885071 239.768363 
L 257.986559 240.087365 
L 258.291024 239.745929 
L 258.392513 240.132255 
L 258.595489 239.945797 
L 258.798466 239.845632 
L 258.899955 239.696032 
L 259.102931 240.125446 
L 259.305908 239.943142 
L 259.508885 239.756338 
L 259.711862 240.067933 
L 259.914838 239.904 
L 260.117815 239.808221 
L 260.320792 240.107144 
L 260.523769 239.9034 
L 260.726745 239.796289 
L 260.929722 240.187299 
L 261.132699 239.859895 
L 261.538652 240.061263 
L 261.741629 239.83737 
L 261.843117 240.053462 
L 261.944606 239.881498 
L 262.147583 240.02759 
L 262.350559 239.841455 
L 262.553536 240.048361 
L 262.655024 239.904946 
L 262.756513 239.9791 
L 262.95949 239.820499 
L 263.162466 240.123369 
L 263.263955 239.90153 
L 263.365443 239.975292 
L 263.56842 239.808844 
L 263.771397 240.156211 
L 263.974373 239.813413 
L 264.075862 239.894099 
L 264.17735 239.715372 
L 264.380327 240.161542 
L 264.583304 239.889945 
L 264.684792 239.925602 
L 264.78628 239.816875 
L 264.989257 240.050138 
L 265.192234 239.938273 
L 265.699676 239.896038 
L 265.801164 239.692662 
L 265.902652 240.145387 
L 266.410094 239.733859 
L 266.613071 240.077441 
L 267.019025 239.700763 
L 267.222001 240.176798 
L 267.424978 239.905823 
L 267.627955 239.899799 
L 267.729443 240.124962 
L 267.830932 239.820453 
L 267.93242 239.88009 
L 268.033908 240.107306 
L 268.135397 239.838131 
L 268.236885 239.9004 
L 268.338373 240.101375 
L 268.54135 239.858557 
L 268.642839 240.137378 
L 268.744327 239.849048 
L 268.947304 240.062255 
L 269.15028 239.849671 
L 269.251769 240.057016 
L 269.454746 239.949582 
L 269.556234 240.00308 
L 269.759211 239.837393 
L 269.860699 240.090112 
L 270.063676 239.884152 
L 270.266653 240.0497 
L 270.469629 239.838408 
L 270.571118 240.09932 
L 270.774094 239.822968 
L 270.875583 240.118338 
L 271.07856 239.854172 
L 271.180048 240.151849 
L 271.383025 239.837093 
L 271.484513 240.167912 
L 271.68749 239.812513 
L 271.788978 240.033406 
L 271.991955 239.925671 
L 272.093443 240.07728 
L 272.194932 239.836031 
L 272.600885 239.936819 
L 272.90535 239.831669 
L 273.108327 240.081526 
L 273.311304 239.860818 
L 273.514281 239.992348 
L 273.615769 239.892068 
L 273.717257 240.027982 
L 273.920234 239.780779 
L 274.123211 240.068879 
L 274.224699 239.930749 
L 274.326188 240.030775 
L 274.529164 239.741544 
L 274.732141 240.09812 
L 274.833629 239.908639 
L 274.935118 239.982216 
L 275.138095 239.766424 
L 275.239583 240.16452 
L 275.544048 239.865942 
L 275.848513 239.994817 
L 275.950002 240.145733 
L 276.152978 239.906562 
L 276.355955 239.776486 
L 276.558932 240.111529 
L 276.761909 239.910531 
L 276.964885 239.812259 
L 277.167862 240.168789 
L 277.370839 239.861488 
L 277.472327 240.06177 
L 277.675304 239.878705 
L 277.776792 240.040768 
L 277.979769 239.798158 
L 278.081257 240.118338 
L 278.588699 239.756084 
L 278.791676 240.043699 
L 279.096141 239.877528 
L 279.19763 239.800951 
L 279.400606 240.094381 
L 279.502095 239.889391 
L 279.603583 240.017873 
L 279.80656 239.798643 
L 280.009537 240.180768 
L 280.212513 239.871573 
L 280.314002 239.91217 
L 280.41549 239.825322 
L 280.618467 240.13117 
L 280.821444 239.919094 
L 280.922932 239.959021 
L 281.02442 239.855233 
L 281.227397 240.135463 
L 281.430374 239.906239 
L 281.633351 240.032298 
L 281.734839 239.861511 
L 281.836327 240.148318 
L 281.937816 239.77464 
L 282.242281 240.164912 
L 282.445258 239.989047 
L 282.546746 239.810044 
L 282.648234 240.126854 
L 282.851211 239.846971 
L 282.952699 240.108714 
L 283.155676 239.883967 
L 283.257165 240.109545 
L 283.460141 239.93878 
L 283.56163 240.142802 
L 283.764606 239.963891 
L 283.967583 239.986739 
L 284.069072 239.893406 
L 284.17056 240.151826 
L 284.373537 240.008711 
L 284.576513 240.004995 
L 284.678002 239.91697 
L 284.77949 240.091104 
L 284.982467 240.040999 
L 285.083955 240.002895 
L 285.185444 240.141602 
L 285.38842 239.936565 
L 285.489909 240.124269 
L 285.692886 239.938457 
L 285.794374 240.246636 
L 285.997351 239.92221 
L 286.098839 240.182775 
L 286.301816 239.940558 
L 286.403304 240.261707 
L 286.606281 239.967307 
L 286.707769 240.180329 
L 286.910746 239.897468 
L 287.012234 240.2741 
L 287.215211 239.955513 
L 287.3167 240.249659 
L 287.519676 239.96666 
L 287.621165 240.279801 
L 287.824141 239.96883 
L 287.92563 240.285271 
L 288.128607 240.009657 
L 288.230095 240.189238 
L 288.433072 240.026851 
L 288.53456 240.259007 
L 288.737537 240.017227 
L 288.839025 240.198585 
L 289.042002 239.918932 
L 289.14349 240.230873 
L 289.346467 240.147187 
L 289.447955 240.112153 
L 289.549444 240.217233 
L 289.752421 239.965068 
L 289.853909 240.341631 
L 290.056886 240.033037 
L 290.158374 240.325544 
L 290.361351 240.020528 
L 290.462839 240.303734 
L 290.665816 240.003403 
L 290.767304 240.330622 
L 290.970281 240.070471 
L 291.173258 240.33143 
L 291.376235 240.126393 
L 291.477723 240.389474 
L 291.6807 240.071117 
L 291.782188 240.325614 
L 291.985165 240.106567 
L 292.086653 240.341215 
L 292.28963 240.084665 
L 292.391118 240.336415 
L 292.594095 240.07938 
L 292.695583 240.321575 
L 292.89856 240.061817 
L 293.000049 240.412623 
L 293.203025 240.097797 
L 293.304514 240.25986 
L 293.50749 240.09962 
L 293.608979 240.293025 
L 293.913444 240.220741 
L 294.014932 240.308789 
L 294.217909 240.119076 
L 294.319397 240.397829 
L 294.420886 240.111206 
L 294.623862 240.365518 
L 294.826839 240.119769 
L 294.928328 240.442764 
L 295.131304 240.103613 
L 295.232793 240.471867 
L 295.334281 240.162812 
L 295.435769 240.197246 
L 295.537258 240.406322 
L 295.740235 240.101998 
L 295.841723 240.414584 
L 296.0447 240.1963 
L 296.146188 240.417215 
L 296.349165 240.175944 
L 296.450653 240.437433 
L 296.65363 240.143379 
L 296.755118 240.379758 
L 296.958095 240.218918 
L 297.059583 240.465197 
L 297.26256 240.210124 
L 297.364049 240.445718 
L 297.465537 240.192353 
L 297.770002 240.31292 
L 297.87149 240.200477 
L 297.972979 240.404499 
L 298.175956 240.210448 
L 298.378932 240.359632 
L 298.581909 240.249659 
L 298.683397 240.471867 
L 298.886374 240.181275 
L 298.987863 240.491 
L 299.190839 240.184691 
L 299.292328 240.53492 
L 299.495304 240.287486 
L 299.596793 240.507456 
L 299.698281 240.294433 
L 299.79977 240.418785 
L 300.002746 240.172944 
L 300.205723 240.468359 
L 300.611677 240.255222 
L 300.814653 240.4937 
L 301.01763 240.371634 
L 301.220607 240.1951 
L 301.322095 240.548722 
L 301.829537 240.285848 
L 302.032514 240.610551 
L 302.134002 240.294272 
L 302.235491 240.481053 
L 302.438467 240.360094 
L 302.539956 240.608613 
L 302.742932 240.38225 
L 302.844421 240.555207 
L 303.047398 240.313312 
L 303.148886 240.538128 
L 303.351863 240.392844 
L 303.554839 240.532081 
L 303.757816 240.413061 
L 303.859305 240.550106 
L 304.062281 240.350031 
L 304.16377 240.63857 
L 304.366746 240.379181 
L 304.468235 240.676512 
L 304.671212 240.326929 
L 304.7727 240.647594 
L 304.874188 240.423447 
L 305.178653 240.524396 
L 305.280142 240.354255 
L 305.38163 240.711085 
L 305.584607 240.390674 
L 305.787584 240.695368 
L 305.99056 240.388182 
L 306.092049 240.760775 
L 306.295026 240.394413 
L 306.396514 240.681659 
L 306.599491 240.493493 
L 306.700979 240.737326 
L 306.903956 240.471729 
L 307.005444 240.766868 
L 307.208421 240.47736 
L 307.309909 240.736818 
L 307.512886 240.570439 
L 307.614374 240.73368 
L 307.817351 240.552968 
L 307.91884 240.692621 
L 308.121816 240.570509 
L 308.223305 240.717547 
L 308.426281 240.494462 
L 308.52777 240.774161 
L 308.832235 240.591003 
L 308.933723 240.770883 
L 309.1367 240.545237 
L 309.238188 240.841945 
L 309.339677 240.550568 
L 309.441165 240.634508 
L 309.542654 240.868971 
L 309.74563 240.588949 
L 309.847119 240.880649 
L 310.050095 240.51948 
L 310.151584 240.910698 
L 310.354561 240.618929 
L 310.456049 240.951087 
L 310.659026 240.610182 
L 310.760514 240.950672 
L 310.963491 240.65244 
L 311.064979 240.930823 
L 311.267956 240.651909 
L 311.369444 240.941671 
L 311.572421 240.696683 
L 311.673909 240.902944 
L 311.876886 240.653156 
L 311.978375 240.960803 
L 312.079863 240.705592 
L 312.181351 240.890342 
L 312.28284 240.672981 
L 312.485816 240.940817 
L 312.688793 240.671319 
L 312.790282 240.968512 
L 312.993258 240.712516 
L 313.094747 240.982844 
L 313.297723 240.743096 
L 313.399212 241.002092 
L 313.602189 240.70033 
L 313.703677 241.061683 
L 313.906654 240.721609 
L 314.008142 241.083309 
L 314.211119 240.712724 
L 314.312607 241.038489 
L 314.515584 240.76179 
L 314.617072 241.072992 
L 314.820049 240.754659 
L 314.921537 241.047166 
L 315.124514 240.71817 
L 315.226003 241.094733 
L 315.428979 240.738757 
L 315.530468 241.072115 
L 315.733444 240.812726 
L 315.834933 241.115597 
L 316.03791 240.765945 
L 316.139398 241.143153 
L 316.342375 240.835898 
L 316.443863 241.097664 
L 316.64684 240.89295 
L 316.748328 241.006547 
L 316.951305 240.814896 
L 317.052793 241.074469 
L 317.25577 240.888265 
L 317.357258 241.054852 
L 317.661724 240.958219 
L 317.763212 240.964404 
L 317.8647 240.819119 
L 318.067677 241.045482 
L 318.270654 240.940101 
L 318.372142 241.011278 
L 318.575119 240.883903 
L 318.676607 241.064661 
L 318.879584 240.870679 
L 318.981072 241.177657 
L 319.184049 240.893112 
L 319.285538 241.103434 
L 319.488514 240.838691 
L 319.590003 241.18705 
L 319.792979 240.850553 
L 319.894468 241.224647 
L 320.097445 240.855862 
L 320.198933 241.184742 
L 320.40191 240.922515 
L 320.503398 241.190605 
L 320.604886 240.898512 
L 320.706375 240.947764 
L 320.807863 241.174634 
L 321.01084 240.855631 
L 321.112328 241.222893 
L 321.213817 240.922169 
L 321.315305 240.95988 
L 321.416793 241.197621 
L 321.518282 240.913191 
L 321.61977 240.981413 
L 321.721259 241.18405 
L 321.822747 240.907583 
L 321.924235 240.951918 
L 322.025724 241.184373 
L 322.2287 240.916237 
L 322.330189 241.198682 
L 322.533166 240.950279 
L 322.634654 241.11682 
L 322.837631 240.952287 
L 322.939119 241.228547 
L 323.142096 240.978598 
L 323.243584 241.17588 
L 323.446561 240.968604 
L 323.548049 241.152616 
L 323.751026 241.024964 
L 323.954003 241.071815 
L 324.055491 240.936593 
L 324.15698 241.127667 
L 324.359956 241.013586 
L 324.562933 241.185458 
L 324.76591 241.016425 
L 324.867398 241.182781 
L 324.968887 241.028657 
L 325.070375 241.095148 
L 325.171863 240.909383 
L 325.273352 241.263858 
L 325.476328 241.004493 
L 325.577817 241.276044 
L 325.679305 240.967312 
L 325.882282 241.262774 
L 326.085259 240.962188 
L 326.186747 241.301524 
L 326.288235 240.968858 
L 326.491212 241.271221 
L 326.694189 241.022887 
L 326.795677 241.276552 
L 326.998654 241.009293 
L 327.100142 241.207268 
L 327.303119 241.045759 
L 327.404608 241.246595 
L 327.607584 241.06256 
L 327.709073 241.225547 
L 327.912049 241.012155 
L 328.013538 241.296516 
L 328.216515 241.04382 
L 328.318003 241.267643 
L 328.52098 241.008347 
L 328.622468 241.285184 
L 328.825445 241.07897 
L 328.926933 241.243941 
L 329.12991 241.089748 
L 329.231398 241.250611 
L 329.434375 241.01624 
L 329.535863 241.311564 
L 329.73884 241.019194 
L 329.840329 241.300485 
L 329.941817 241.065422 
L 330.144794 241.2937 
L 330.34777 241.089171 
L 330.449259 241.249942 
L 330.652236 241.123721 
L 330.753724 241.242372 
L 330.956701 240.986306 
L 331.058189 241.265312 
L 331.261166 241.108027 
L 331.362654 241.237225 
L 331.667119 241.143707 
L 331.768608 241.267482 
L 331.971584 241.112689 
L 332.073073 241.299101 
L 332.27605 241.039366 
L 332.377538 241.327442 
L 332.580515 241.073869 
L 332.682003 241.317126 
L 332.88498 241.065584 
L 332.986468 241.363423 
L 333.189445 241.030319 
L 333.290933 241.379925 
L 333.49391 241.105049 
L 333.595398 241.337943 
L 333.798375 241.097202 
L 333.899864 241.317172 
L 334.10284 241.08654 
L 334.204329 241.405612 
L 334.407305 241.015502 
L 334.508794 241.467765 
L 334.711771 241.064638 
L 334.813259 241.317264 
L 335.016236 241.131452 
L 335.117724 241.368962 
L 335.320701 241.032096 
L 335.422189 241.395665 
L 335.625166 241.075946 
L 335.726654 241.469726 
L 335.929631 241.060668 
L 336.031119 241.388741 
L 336.234096 241.12529 
L 336.335585 241.408289 
L 336.538561 241.117212 
L 336.64005 241.344128 
L 336.843026 241.126859 
L 336.944515 241.34159 
L 337.147492 241.148369 
L 337.24898 241.369977 
L 337.451957 241.141007 
L 337.553445 241.450109 
L 337.654933 241.147862 
L 337.959399 241.258389 
L 338.162375 241.267182 
L 338.263864 241.282276 
L 338.365352 241.145715 
L 338.46684 241.346021 
L 338.669817 241.104126 
L 338.771306 241.361807 
L 338.974282 241.208699 
L 339.177259 241.336974 
L 339.380236 241.262705 
L 339.583213 241.269213 
L 339.989166 241.127183 
L 340.090654 241.497906 
L 340.293631 241.206206 
L 340.39512 241.463333 
L 340.598096 241.159401 
L 340.699585 241.518885 
L 340.902561 241.174911 
L 341.00405 241.490959 
L 341.207027 241.21223 
L 341.308515 241.53001 
L 341.511492 241.215207 
L 341.61298 241.469726 
L 341.917445 241.21463 
L 342.018934 241.584592 
L 342.22191 241.248557 
L 342.323399 241.512515 
L 342.526375 241.196074 
L 342.627864 241.49696 
L 342.830841 241.301916 
L 342.932329 241.495114 
L 343.135306 241.28673 
L 343.236794 241.535272 
L 343.439771 241.270528 
L 343.541259 241.547711 
L 343.744236 241.315279 
L 343.845724 241.522901 
L 344.048701 241.329681 
L 344.150189 241.57026 
L 344.251678 241.325711 
L 344.556143 241.394418 
L 344.657631 241.349852 
L 344.75912 241.551058 
L 344.962096 241.287376 
L 345.165073 241.554335 
L 345.266562 241.361669 
L 345.469538 241.551058 
L 345.571027 241.40035 
L 345.774003 241.568598 
L 345.875492 241.391257 
L 345.97698 241.453017 
L 346.078469 241.655769 
L 346.281445 241.418352 
L 346.382934 241.66357 
L 346.58591 241.429684 
L 346.687399 241.649168 
L 346.890376 241.452232 
L 346.991864 241.770266 
L 347.093352 241.454286 
L 347.296329 241.721476 
L 347.499306 241.498206 
L 347.600794 241.746471 
L 347.803771 241.535456 
L 347.905259 241.801446 
L 348.108236 241.522647 
L 348.209724 241.83738 
L 348.412701 241.54455 
L 348.51419 241.800592 
L 348.717166 241.5896 
L 348.818655 241.820856 
L 349.021631 241.668278 
L 349.12312 241.846428 
L 349.326097 241.635575 
L 349.427585 241.88497 
L 349.630562 241.659208 
L 349.73205 241.918712 
L 349.935027 241.699735 
L 350.036515 241.912988 
L 350.239492 241.744671 
L 350.34098 241.944953 
L 350.543957 241.67961 
L 350.645445 242.073805 
L 350.848422 241.666224 
L 350.949911 242.018715 
L 351.152887 241.780028 
L 351.254376 242.08606 
L 351.457352 241.830987 
L 351.558841 242.029285 
L 351.761818 241.772343 
L 351.863306 242.087422 
L 352.066283 241.822148 
L 352.167771 242.080683 
L 352.370748 241.845712 
L 352.472236 242.116364 
L 352.573725 241.8002 
L 352.776701 242.069974 
L 352.979678 241.857806 
L 353.081166 242.069766 
L 353.284143 241.893371 
L 353.385632 242.030508 
L 353.588608 241.88737 
L 353.690097 242.034847 
L 353.893073 241.929906 
L 353.994562 242.066189 
L 354.197539 241.802508 
L 354.299027 242.07519 
L 354.502004 241.832903 
L 354.603492 242.037432 
L 354.806469 241.880562 
L 354.907957 241.990443 
L 355.110934 241.8014 
L 355.212422 242.015853 
L 355.516887 241.942992 
L 355.618376 242.000274 
L 355.719864 241.825356 
L 355.821353 241.963901 
L 356.024329 241.860252 
L 356.227306 241.943268 
L 356.328794 241.816355 
L 356.531771 241.959747 
L 356.734748 241.856305 
L 356.937725 241.937291 
L 357.039213 241.806823 
L 357.140701 242.001567 
L 357.343678 241.843981 
L 357.445167 241.985827 
L 357.546655 241.708921 
L 357.749632 242.016638 
L 357.952608 241.806639 
L 358.054097 241.98375 
L 358.257074 241.746771 
L 358.358562 242.038286 
L 358.46005 241.749171 
L 358.663027 242.006598 
L 358.866004 241.780351 
L 358.967492 242.018553 
L 359.170469 241.696504 
L 359.271957 241.966486 
L 359.474934 241.755933 
L 359.576422 241.988966 
L 359.779399 241.75021 
L 359.880888 241.965148 
L 360.083864 241.725469 
L 360.185353 241.930067 
L 360.388329 241.739201 
L 360.489818 241.962517 
L 360.692795 241.669501 
L 360.794283 241.919104 
L 360.99726 241.694104 
L 361.098748 241.910357 
L 361.301725 241.648084 
L 361.403213 241.910634 
L 361.504702 241.54058 
L 361.60619 241.939483 
L 361.809167 241.659877 
L 361.910655 241.88197 
L 362.113632 241.646976 
L 362.21512 241.900202 
L 362.418097 241.598901 
L 362.519585 241.807054 
L 362.722562 241.617573 
L 362.82405 241.865491 
L 363.027027 241.569475 
L 363.128516 241.902372 
L 363.331492 241.565783 
L 363.432981 241.831541 
L 363.534469 241.536379 
L 363.635957 241.610372 
L 363.737446 241.824871 
L 363.940423 241.580323 
L 364.041911 241.809062 
L 364.244888 241.499314 
L 364.346376 241.813286 
L 364.549353 241.540765 
L 364.650841 241.750971 
L 364.853818 241.534995 
L 364.955306 241.662647 
L 365.158283 241.5082 
L 365.259771 241.771789 
L 365.462748 241.523547 
L 365.564237 241.731631 
L 365.767213 241.480827 
L 365.97019 241.679379 
L 366.071678 241.365869 
L 366.274655 241.676263 
L 366.477632 241.450409 
L 366.57912 241.578753 
L 366.782097 241.467949 
L 366.883585 241.596894 
L 367.086562 241.422829 
L 367.188051 241.665485 
L 367.391027 241.304247 
L 367.492516 241.678802 
L 367.695492 241.382602 
L 367.796981 241.582746 
L 367.898469 241.396195 
L 368.101446 241.593385 
L 368.304423 241.339605 
L 368.405911 241.579122 
L 368.608888 241.313848 
L 368.710376 241.547896 
L 368.913353 241.297208 
L 369.014841 241.518331 
L 369.217818 241.319318 
L 369.319306 241.543603 
L 369.522283 241.270898 
L 369.623772 241.543488 
L 369.826748 241.271936 
L 369.928237 241.442516 
L 370.131213 241.276114 
L 370.232702 241.456294 
L 370.435679 241.265889 
L 370.537167 241.417475 
L 370.740144 241.165171 
L 370.841632 241.430284 
L 371.044609 241.15317 
L 371.146097 241.386364 
L 371.552051 241.147492 
L 371.653539 241.259335 
L 371.856516 241.157116 
L 372.059493 241.17648 
L 372.160981 241.02561 
L 372.262469 241.19769 
L 372.465446 240.951456 
L 372.566934 241.242025 
L 372.769911 240.937263 
L 372.8714 241.056652 
L 373.074376 240.930039 
L 373.175865 241.141907 
L 373.277353 240.79057 
L 373.378841 240.835852 
L 373.48033 241.053952 
L 373.581818 240.822235 
L 373.581818 240.822235 
" style="fill:none;stroke:#081d58;stroke-dasharray:5.55,2.4;stroke-dashoffset:0;stroke-width:1.5;"/>
    <defs>
     <path d="M -0 4.242641 
L 4.242641 0 
L 0 -4.242641 
L -4.242641 -0 
z
" id="mdbed41168d" style="stroke:#081d58;stroke-linejoin:miter;"/>
    </defs>
    <g clip-path="url(#p229e309cda)">
     <use style="fill:#081d58;stroke:#081d58;stroke-linejoin:miter;" x="69.218182" xlink:href="#mdbed41168d" y="216.409057"/>
     <use style="fill:#081d58;stroke:#081d58;stroke-linejoin:miter;" x="77.337252" xlink:href="#mdbed41168d" y="215.963348"/>
     <use style="fill:#081d58;stroke:#081d58;stroke-linejoin:miter;" x="85.456322" xlink:href="#mdbed41168d" y="217.140003"/>
     <use style="fill:#081d58;stroke:#081d58;stroke-linejoin:miter;" x="93.575392" xlink:href="#mdbed41168d" y="217.927309"/>
     <use style="fill:#081d58;stroke:#081d58;stroke-linejoin:miter;" x="101.694462" xlink:href="#mdbed41168d" y="217.137049"/>
     <use style="fill:#081d58;stroke:#081d58;stroke-linejoin:miter;" x="109.813532" xlink:href="#mdbed41168d" y="217.511373"/>
     <use style="fill:#081d58;stroke:#081d58;stroke-linejoin:miter;" x="117.932602" xlink:href="#mdbed41168d" y="217.224912"/>
     <use style="fill:#081d58;stroke:#081d58;stroke-linejoin:miter;" x="126.051672" xlink:href="#mdbed41168d" y="214.232512"/>
     <use style="fill:#081d58;stroke:#081d58;stroke-linejoin:miter;" x="134.170742" xlink:href="#mdbed41168d" y="215.43887"/>
     <use style="fill:#081d58;stroke:#081d58;stroke-linejoin:miter;" x="142.289812" xlink:href="#mdbed41168d" y="217.256392"/>
     <use style="fill:#081d58;stroke:#081d58;stroke-linejoin:miter;" x="150.408882" xlink:href="#mdbed41168d" y="220.221143"/>
     <use style="fill:#081d58;stroke:#081d58;stroke-linejoin:miter;" x="158.527952" xlink:href="#mdbed41168d" y="224.815434"/>
     <use style="fill:#081d58;stroke:#081d58;stroke-linejoin:miter;" x="166.647022" xlink:href="#mdbed41168d" y="234.599164"/>
     <use style="fill:#081d58;stroke:#081d58;stroke-linejoin:miter;" x="174.766092" xlink:href="#mdbed41168d" y="236.806797"/>
     <use style="fill:#081d58;stroke:#081d58;stroke-linejoin:miter;" x="182.885162" xlink:href="#mdbed41168d" y="238.081354"/>
     <use style="fill:#081d58;stroke:#081d58;stroke-linejoin:miter;" x="191.004232" xlink:href="#mdbed41168d" y="237.89028"/>
     <use style="fill:#081d58;stroke:#081d58;stroke-linejoin:miter;" x="199.123302" xlink:href="#mdbed41168d" y="238.365161"/>
     <use style="fill:#081d58;stroke:#081d58;stroke-linejoin:miter;" x="207.242372" xlink:href="#mdbed41168d" y="239.101231"/>
     <use style="fill:#081d58;stroke:#081d58;stroke-linejoin:miter;" x="215.361442" xlink:href="#mdbed41168d" y="239.663098"/>
     <use style="fill:#081d58;stroke:#081d58;stroke-linejoin:miter;" x="223.480512" xlink:href="#mdbed41168d" y="239.842563"/>
     <use style="fill:#081d58;stroke:#081d58;stroke-linejoin:miter;" x="231.599582" xlink:href="#mdbed41168d" y="240.32866"/>
     <use style="fill:#081d58;stroke:#081d58;stroke-linejoin:miter;" x="239.718652" xlink:href="#mdbed41168d" y="240.587657"/>
     <use style="fill:#081d58;stroke:#081d58;stroke-linejoin:miter;" x="247.837722" xlink:href="#mdbed41168d" y="240.074672"/>
     <use style="fill:#081d58;stroke:#081d58;stroke-linejoin:miter;" x="255.956792" xlink:href="#mdbed41168d" y="239.795596"/>
     <use style="fill:#081d58;stroke:#081d58;stroke-linejoin:miter;" x="264.075862" xlink:href="#mdbed41168d" y="239.894099"/>
     <use style="fill:#081d58;stroke:#081d58;stroke-linejoin:miter;" x="272.194932" xlink:href="#mdbed41168d" y="239.836031"/>
     <use style="fill:#081d58;stroke:#081d58;stroke-linejoin:miter;" x="280.314002" xlink:href="#mdbed41168d" y="239.91217"/>
     <use style="fill:#081d58;stroke:#081d58;stroke-linejoin:miter;" x="288.433072" xlink:href="#mdbed41168d" y="240.026851"/>
     <use style="fill:#081d58;stroke:#081d58;stroke-linejoin:miter;" x="296.552142" xlink:href="#mdbed41168d" y="240.236389"/>
     <use style="fill:#081d58;stroke:#081d58;stroke-linejoin:miter;" x="304.671212" xlink:href="#mdbed41168d" y="240.326929"/>
     <use style="fill:#081d58;stroke:#081d58;stroke-linejoin:miter;" x="312.790282" xlink:href="#mdbed41168d" y="240.968512"/>
     <use style="fill:#081d58;stroke:#081d58;stroke-linejoin:miter;" x="320.909352" xlink:href="#mdbed41168d" y="240.973797"/>
     <use style="fill:#081d58;stroke:#081d58;stroke-linejoin:miter;" x="329.028422" xlink:href="#mdbed41168d" y="241.112504"/>
     <use style="fill:#081d58;stroke:#081d58;stroke-linejoin:miter;" x="337.147492" xlink:href="#mdbed41168d" y="241.148369"/>
     <use style="fill:#081d58;stroke:#081d58;stroke-linejoin:miter;" x="345.266562" xlink:href="#mdbed41168d" y="241.361669"/>
     <use style="fill:#081d58;stroke:#081d58;stroke-linejoin:miter;" x="353.385632" xlink:href="#mdbed41168d" y="242.030508"/>
     <use style="fill:#081d58;stroke:#081d58;stroke-linejoin:miter;" x="361.504702" xlink:href="#mdbed41168d" y="241.54058"/>
     <use style="fill:#081d58;stroke:#081d58;stroke-linejoin:miter;" x="369.623772" xlink:href="#mdbed41168d" y="241.543488"/>
    </g>
   </g>
   <g id="patch_3">
    <path d="M 54 252 
L 54 34.56 
" style="fill:none;stroke:#000000;stroke-linecap:square;stroke-linejoin:miter;stroke-width:0.8;"/>
   </g>
   <g id="patch_4">
    <path d="M 388.8 252 
L 388.8 34.56 
" style="fill:none;stroke:#000000;stroke-linecap:square;stroke-linejoin:miter;stroke-width:0.8;"/>
   </g>
   <g id="patch_5">
    <path d="M 54 252 
L 388.8 252 
" style="fill:none;stroke:#000000;stroke-linecap:square;stroke-linejoin:miter;stroke-width:0.8;"/>
   </g>
   <g id="patch_6">
    <path d="M 54 34.56 
L 388.8 34.56 
" style="fill:none;stroke:#000000;stroke-linecap:square;stroke-linejoin:miter;stroke-width:0.8;"/>
   </g>
   <g id="legend_1">
    <g id="patch_7">
     <path d="M 280.085938 71.91625 
L 381.8 71.91625 
Q 383.8 71.91625 383.8 69.91625 
L 383.8 41.56 
Q 383.8 39.56 381.8 39.56 
L 280.085938 39.56 
Q 278.085938 39.56 278.085938 41.56 
L 278.085938 69.91625 
Q 278.085938 71.91625 280.085938 71.91625 
z
" style="fill:#ffffff;opacity:0.8;stroke:#cccccc;stroke-linejoin:miter;"/>
    </g>
    <g id="line2d_17">
     <path d="M 282.085938 47.658437 
L 302.085938 47.658437 
" style="fill:none;stroke:#40b5c4;stroke-dasharray:5.55,2.4;stroke-dashoffset:0;stroke-width:1.5;"/>
    </g>
    <g id="line2d_18">
     <g>
      <use style="fill:#40b5c4;stroke:#40b5c4;" x="292.085938" xlink:href="#mad7051ae13" y="47.658437"/>
     </g>
    </g>
    <g id="text_17">
     <text style="font-family:DejaVu Sans;font-size:10px;font-style:normal;font-weight:normal;text-anchor:start;" transform="rotate(-0, 310.085938, 51.158437)" x="310.085938" y="51.158437">original</text>
    </g>
    <g id="line2d_19">
     <path d="M 282.085938 62.336562 
L 302.085938 62.336562 
" style="fill:none;stroke:#081d58;stroke-dasharray:5.55,2.4;stroke-dashoffset:0;stroke-width:1.5;"/>
    </g>
    <g id="line2d_20">
     <g>
      <use style="fill:#081d58;stroke:#081d58;stroke-linejoin:miter;" x="292.085938" xlink:href="#mdbed41168d" y="62.336562"/>
     </g>
    </g>
    <g id="text_18">
     <text style="font-family:DejaVu Sans;font-size:10px;font-style:normal;font-weight:normal;text-anchor:start;" transform="rotate(-0, 310.085938, 65.836562)" x="310.085938" y="65.836562">reconstructed</text>
    </g>
   </g>
  </g>
  <g id="text_19">
   <text style="font-family:DejaVu Sans;font-size:12px;font-style:normal;font-weight:normal;text-anchor:middle;" transform="rotate(-0, 216, 14.878125)" x="216" y="14.878125">Reconstruction of the weight curve</text>
  </g>
 </g>
 <defs>
  <clipPath id="p229e309cda">
   <rect height="217.44" width="334.8" x="54" y="34.56"/>
  </clipPath>
 </defs>
</svg>
