<?xml version="1.0" encoding="utf-8" standalone="no"?>
<!DOCTYPE svg PUBLIC "-//W3C//DTD SVG 1.1//EN"
  "http://www.w3.org/Graphics/SVG/1.1/DTD/svg11.dtd">
<!-- Created with matplotlib (https://matplotlib.org/) -->
<svg height="288pt" version="1.1" viewBox="0 0 432 288" width="432pt" xmlns="http://www.w3.org/2000/svg" xmlns:xlink="http://www.w3.org/1999/xlink">
 <defs>
  <style type="text/css">
*{stroke-linecap:butt;stroke-linejoin:round;}
  </style>
 </defs>
 <g id="figure_1">
  <g id="patch_1">
   <path d="M 0 288 
L 432 288 
L 432 0 
L 0 0 
z
" style="fill:#ffffff;"/>
  </g>
  <g id="axes_1">
   <g id="patch_2">
    <path d="M 54 252 
L 388.8 252 
L 388.8 34.56 
L 54 34.56 
z
" style="fill:#ffffff;"/>
   </g>
   <g id="matplotlib.axis_1">
    <g id="xtick_1">
     <g id="line2d_1">
      <defs>
       <path d="M 0 0 
L 0 3.5 
" id="m23300dfb0f" style="stroke:#000000;stroke-width:0.8;"/>
      </defs>
      <g>
       <use style="stroke:#000000;stroke-width:0.8;" x="69.218182" xlink:href="#m23300dfb0f" y="252"/>
      </g>
     </g>
     <g id="text_1">
      <text style="font-family:DejaVu Sans;font-size:10px;font-style:normal;font-weight:normal;text-anchor:middle;" transform="rotate(-0, 69.218182, 266.598437)" x="69.218182" y="266.598437">0</text>
     </g>
    </g>
    <g id="xtick_2">
     <g id="line2d_2">
      <g>
       <use style="stroke:#000000;stroke-width:0.8;" x="119.962369" xlink:href="#m23300dfb0f" y="252"/>
      </g>
     </g>
     <g id="text_2">
      <text style="font-family:DejaVu Sans;font-size:10px;font-style:normal;font-weight:normal;text-anchor:middle;" transform="rotate(-0, 119.962369, 266.598437)" x="119.962369" y="266.598437">500</text>
     </g>
    </g>
    <g id="xtick_3">
     <g id="line2d_3">
      <g>
       <use style="stroke:#000000;stroke-width:0.8;" x="170.706557" xlink:href="#m23300dfb0f" y="252"/>
      </g>
     </g>
     <g id="text_3">
      <text style="font-family:DejaVu Sans;font-size:10px;font-style:normal;font-weight:normal;text-anchor:middle;" transform="rotate(-0, 170.706557, 266.598437)" x="170.706557" y="266.598437">1000</text>
     </g>
    </g>
    <g id="xtick_4">
     <g id="line2d_4">
      <g>
       <use style="stroke:#000000;stroke-width:0.8;" x="221.450744" xlink:href="#m23300dfb0f" y="252"/>
      </g>
     </g>
     <g id="text_4">
      <text style="font-family:DejaVu Sans;font-size:10px;font-style:normal;font-weight:normal;text-anchor:middle;" transform="rotate(-0, 221.450744, 266.598437)" x="221.450744" y="266.598437">1500</text>
     </g>
    </g>
    <g id="xtick_5">
     <g id="line2d_5">
      <g>
       <use style="stroke:#000000;stroke-width:0.8;" x="272.194932" xlink:href="#m23300dfb0f" y="252"/>
      </g>
     </g>
     <g id="text_5">
      <text style="font-family:DejaVu Sans;font-size:10px;font-style:normal;font-weight:normal;text-anchor:middle;" transform="rotate(-0, 272.194932, 266.598437)" x="272.194932" y="266.598437">2000</text>
     </g>
    </g>
    <g id="xtick_6">
     <g id="line2d_6">
      <g>
       <use style="stroke:#000000;stroke-width:0.8;" x="322.939119" xlink:href="#m23300dfb0f" y="252"/>
      </g>
     </g>
     <g id="text_6">
      <text style="font-family:DejaVu Sans;font-size:10px;font-style:normal;font-weight:normal;text-anchor:middle;" transform="rotate(-0, 322.939119, 266.598437)" x="322.939119" y="266.598437">2500</text>
     </g>
    </g>
    <g id="xtick_7">
     <g id="line2d_7">
      <g>
       <use style="stroke:#000000;stroke-width:0.8;" x="373.683307" xlink:href="#m23300dfb0f" y="252"/>
      </g>
     </g>
     <g id="text_7">
      <text style="font-family:DejaVu Sans;font-size:10px;font-style:normal;font-weight:normal;text-anchor:middle;" transform="rotate(-0, 373.683307, 266.598437)" x="373.683307" y="266.598437">3000</text>
     </g>
    </g>
    <g id="text_8">
     <text style="font-family:DejaVu Sans;font-size:10px;font-style:normal;font-weight:normal;text-anchor:middle;" transform="rotate(-0, 221.4, 280.276563)" x="221.4" y="280.276563">Time</text>
    </g>
   </g>
   <g id="matplotlib.axis_2">
    <g id="ytick_1">
     <g id="line2d_8">
      <defs>
       <path d="M 0 0 
L -3.5 0 
" id="m4f9bafca4a" style="stroke:#000000;stroke-width:0.8;"/>
      </defs>
      <g>
       <use style="stroke:#000000;stroke-width:0.8;" x="54" xlink:href="#m4f9bafca4a" y="237.524381"/>
      </g>
     </g>
     <g id="text_9">
      <text style="font-family:DejaVu Sans;font-size:10px;font-style:normal;font-weight:normal;text-anchor:end;" transform="rotate(-0, 47, 241.3236)" x="47" y="241.3236">−10</text>
     </g>
    </g>
    <g id="ytick_2">
     <g id="line2d_9">
      <g>
       <use style="stroke:#000000;stroke-width:0.8;" x="54" xlink:href="#m4f9bafca4a" y="199.451399"/>
      </g>
     </g>
     <g id="text_10">
      <text style="font-family:DejaVu Sans;font-size:10px;font-style:normal;font-weight:normal;text-anchor:end;" transform="rotate(-0, 47, 203.250617)" x="47" y="203.250617">−8</text>
     </g>
    </g>
    <g id="ytick_3">
     <g id="line2d_10">
      <g>
       <use style="stroke:#000000;stroke-width:0.8;" x="54" xlink:href="#m4f9bafca4a" y="161.378416"/>
      </g>
     </g>
     <g id="text_11">
      <text style="font-family:DejaVu Sans;font-size:10px;font-style:normal;font-weight:normal;text-anchor:end;" transform="rotate(-0, 47, 165.177635)" x="47" y="165.177635">−6</text>
     </g>
    </g>
    <g id="ytick_4">
     <g id="line2d_11">
      <g>
       <use style="stroke:#000000;stroke-width:0.8;" x="54" xlink:href="#m4f9bafca4a" y="123.305433"/>
      </g>
     </g>
     <g id="text_12">
      <text style="font-family:DejaVu Sans;font-size:10px;font-style:normal;font-weight:normal;text-anchor:end;" transform="rotate(-0, 47, 127.104652)" x="47" y="127.104652">−4</text>
     </g>
    </g>
    <g id="ytick_5">
     <g id="line2d_12">
      <g>
       <use style="stroke:#000000;stroke-width:0.8;" x="54" xlink:href="#m4f9bafca4a" y="85.232451"/>
      </g>
     </g>
     <g id="text_13">
      <text style="font-family:DejaVu Sans;font-size:10px;font-style:normal;font-weight:normal;text-anchor:end;" transform="rotate(-0, 47, 89.031669)" x="47" y="89.031669">−2</text>
     </g>
    </g>
    <g id="ytick_6">
     <g id="line2d_13">
      <g>
       <use style="stroke:#000000;stroke-width:0.8;" x="54" xlink:href="#m4f9bafca4a" y="47.159468"/>
      </g>
     </g>
     <g id="text_14">
      <text style="font-family:DejaVu Sans;font-size:10px;font-style:normal;font-weight:normal;text-anchor:end;" transform="rotate(-0, 47, 50.958687)" x="47" y="50.958687">0</text>
     </g>
    </g>
    <g id="text_15">
     <text style="font-family:DejaVu Sans;font-size:10px;font-style:normal;font-weight:normal;text-anchor:middle;" transform="rotate(-90, 19.815625, 143.28)" x="19.815625" y="143.28">temperature (°C)</text>
    </g>
   </g>
   <g id="line2d_14">
    <path clip-path="url(#p4d461abaf6)" d="M 69.218182 46.056099 
L 71.552414 45.033865 
L 72.668787 44.777628 
L 73.480694 44.815227 
L 74.191112 45.065056 
L 74.901531 45.55969 
L 75.611949 46.326257 
L 76.423856 47.576575 
L 77.235763 49.239722 
L 78.149159 51.605265 
L 79.164043 54.840624 
L 80.381903 59.50702 
L 81.80274 65.915535 
L 83.528043 74.789755 
L 86.065252 89.167331 
L 91.241159 118.684173 
L 93.372415 129.420335 
L 95.199206 137.605265 
L 96.82302 143.894883 
L 98.243857 148.571236 
L 99.664694 152.515368 
L 100.882555 155.258431 
L 101.998927 157.251381 
L 103.013811 158.647136 
L 104.028694 159.673298 
L 105.043578 160.400112 
L 105.956974 160.788932 
L 106.870369 160.942061 
L 107.885253 160.869247 
L 108.900136 160.572639 
L 110.219485 159.933813 
L 111.741811 158.938471 
L 113.467113 157.532359 
L 116.511765 154.704793 
L 119.454927 152.075283 
L 121.992137 150.070911 
L 123.920416 148.812219 
L 125.848695 147.823463 
L 127.776974 147.074701 
L 129.603765 146.599398 
L 131.329067 146.403436 
L 133.05437 146.428678 
L 134.678184 146.67383 
L 136.200509 147.12865 
L 137.925812 147.887635 
L 139.651114 148.897255 
L 141.17344 150.05256 
L 142.594277 151.442795 
L 144.015114 153.172831 
L 145.53744 155.419499 
L 147.567207 158.925412 
L 149.29251 162.318152 
L 150.307393 164.161437 
L 152.235672 166.962123 
L 153.859486 170.18957 
L 154.671393 172.30816 
L 155.990742 176.49419 
L 158.02051 183.717472 
L 161.268138 196.197377 
L 163.500882 205.586136 
L 165.632138 215.52309 
L 169.184231 232.279885 
L 170.402092 236.860484 
L 171.315487 239.484759 
L 172.025906 240.944097 
L 172.634836 241.75448 
L 173.142278 242.076768 
L 173.548231 242.104942 
L 173.954185 241.932281 
L 174.461627 241.473882 
L 175.070557 240.90945 
L 175.679487 240.277058 
L 176.085441 239.414324 
L 176.592882 237.851809 
L 177.100324 235.638341 
L 177.810743 231.487339 
L 178.724138 224.61349 
L 179.84051 214.352631 
L 181.667301 195.126041 
L 184.305999 167.70211 
L 186.031301 152.064812 
L 187.655115 139.264067 
L 189.278929 128.219703 
L 190.293813 122.48991 
L 192.628046 111.327616 
L 194.25186 104.692066 
L 195.875674 98.966099 
L 197.600976 93.732549 
L 199.22479 89.499442 
L 200.950092 85.573166 
L 202.776883 82.002586 
L 204.603674 78.910089 
L 206.531953 76.09048 
L 208.460232 73.655009 
L 210.49 71.441788 
L 212.519767 69.5318 
L 214.752511 67.720535 
L 217.086744 66.099675 
L 219.725442 64.536089 
L 222.871581 62.962577 
L 225.916233 61.672011 
L 231.295117 59.672725 
L 239.21121 56.782037 
L 244.691582 54.860012 
L 252.91214 52.248246 
L 261.741629 49.627709 
L 266.816048 48.350171 
L 273.412792 46.957149 
L 283.358653 45.287817 
L 288.433072 44.70306 
L 292.28963 44.4749 
L 296.0447 44.46549 
L 300.104235 44.656443 
L 305.787584 45.116681 
L 324.461445 46.989678 
L 331.667119 47.63543 
L 335.219212 48.159076 
L 339.177259 48.96977 
L 352.87819 52.109888 
L 356.836236 52.670222 
L 361.098748 53.038599 
L 366.782097 53.324721 
L 371.653539 53.401646 
L 373.581818 53.363241 
L 373.581818 53.363241 
" style="fill:none;stroke:#40b5c4;stroke-dasharray:5.55,2.4;stroke-dashoffset:0;stroke-width:1.5;"/>
    <defs>
     <path d="M 0 3 
C 0.795609 3 1.55874 2.683901 2.12132 2.12132 
C 2.683901 1.55874 3 0.795609 3 0 
C 3 -0.795609 2.683901 -1.55874 2.12132 -2.12132 
C 1.55874 -2.683901 0.795609 -3 0 -3 
C -0.795609 -3 -1.55874 -2.683901 -2.12132 -2.12132 
C -2.683901 -1.55874 -3 -0.795609 -3 0 
C -3 0.795609 -2.683901 1.55874 -2.12132 2.12132 
C -1.55874 2.683901 -0.795609 3 0 3 
z
" id="m4689b88e7f" style="stroke:#40b5c4;"/>
    </defs>
    <g clip-path="url(#p4d461abaf6)">
     <use style="fill:#40b5c4;stroke:#40b5c4;" x="69.218182" xlink:href="#m4689b88e7f" y="46.056099"/>
     <use style="fill:#40b5c4;stroke:#40b5c4;" x="77.337252" xlink:href="#m4689b88e7f" y="49.476407"/>
     <use style="fill:#40b5c4;stroke:#40b5c4;" x="85.456322" xlink:href="#m4689b88e7f" y="85.634577"/>
     <use style="fill:#40b5c4;stroke:#40b5c4;" x="93.575392" xlink:href="#m4689b88e7f" y="130.382706"/>
     <use style="fill:#40b5c4;stroke:#40b5c4;" x="101.694462" xlink:href="#m4689b88e7f" y="156.755176"/>
     <use style="fill:#40b5c4;stroke:#40b5c4;" x="109.813532" xlink:href="#m4689b88e7f" y="160.154864"/>
     <use style="fill:#40b5c4;stroke:#40b5c4;" x="117.932602" xlink:href="#m4689b88e7f" y="153.403896"/>
     <use style="fill:#40b5c4;stroke:#40b5c4;" x="126.051672" xlink:href="#m4689b88e7f" y="147.732526"/>
     <use style="fill:#40b5c4;stroke:#40b5c4;" x="134.170742" xlink:href="#m4689b88e7f" y="146.574384"/>
     <use style="fill:#40b5c4;stroke:#40b5c4;" x="142.289812" xlink:href="#m4689b88e7f" y="151.11967"/>
     <use style="fill:#40b5c4;stroke:#40b5c4;" x="150.408882" xlink:href="#m4689b88e7f" y="164.299756"/>
     <use style="fill:#40b5c4;stroke:#40b5c4;" x="158.527952" xlink:href="#m4689b88e7f" y="185.610765"/>
     <use style="fill:#40b5c4;stroke:#40b5c4;" x="166.647022" xlink:href="#m4689b88e7f" y="220.475528"/>
     <use style="fill:#40b5c4;stroke:#40b5c4;" x="174.766092" xlink:href="#m4689b88e7f" y="241.139601"/>
     <use style="fill:#40b5c4;stroke:#40b5c4;" x="182.885162" xlink:href="#m4689b88e7f" y="182.069064"/>
     <use style="fill:#40b5c4;stroke:#40b5c4;" x="191.004232" xlink:href="#m4689b88e7f" y="118.949275"/>
     <use style="fill:#40b5c4;stroke:#40b5c4;" x="199.123302" xlink:href="#m4689b88e7f" y="89.747906"/>
     <use style="fill:#40b5c4;stroke:#40b5c4;" x="207.242372" xlink:href="#m4689b88e7f" y="75.151696"/>
     <use style="fill:#40b5c4;stroke:#40b5c4;" x="215.361442" xlink:href="#m4689b88e7f" y="67.272587"/>
     <use style="fill:#40b5c4;stroke:#40b5c4;" x="223.480512" xlink:href="#m4689b88e7f" y="62.687106"/>
     <use style="fill:#40b5c4;stroke:#40b5c4;" x="231.599582" xlink:href="#m4689b88e7f" y="59.566836"/>
     <use style="fill:#40b5c4;stroke:#40b5c4;" x="239.718652" xlink:href="#m4689b88e7f" y="56.59532"/>
     <use style="fill:#40b5c4;stroke:#40b5c4;" x="247.837722" xlink:href="#m4689b88e7f" y="53.838194"/>
     <use style="fill:#40b5c4;stroke:#40b5c4;" x="255.956792" xlink:href="#m4689b88e7f" y="51.318441"/>
     <use style="fill:#40b5c4;stroke:#40b5c4;" x="264.075862" xlink:href="#m4689b88e7f" y="49.008412"/>
     <use style="fill:#40b5c4;stroke:#40b5c4;" x="272.194932" xlink:href="#m4689b88e7f" y="47.189424"/>
     <use style="fill:#40b5c4;stroke:#40b5c4;" x="280.314002" xlink:href="#m4689b88e7f" y="45.745019"/>
     <use style="fill:#40b5c4;stroke:#40b5c4;" x="288.433072" xlink:href="#m4689b88e7f" y="44.70306"/>
     <use style="fill:#40b5c4;stroke:#40b5c4;" x="296.552142" xlink:href="#m4689b88e7f" y="44.479282"/>
     <use style="fill:#40b5c4;stroke:#40b5c4;" x="304.671212" xlink:href="#m4689b88e7f" y="45.006273"/>
     <use style="fill:#40b5c4;stroke:#40b5c4;" x="312.790282" xlink:href="#m4689b88e7f" y="45.944494"/>
     <use style="fill:#40b5c4;stroke:#40b5c4;" x="320.909352" xlink:href="#m4689b88e7f" y="46.73122"/>
     <use style="fill:#40b5c4;stroke:#40b5c4;" x="329.028422" xlink:href="#m4689b88e7f" y="47.344524"/>
     <use style="fill:#40b5c4;stroke:#40b5c4;" x="337.147492" xlink:href="#m4689b88e7f" y="48.524075"/>
     <use style="fill:#40b5c4;stroke:#40b5c4;" x="345.266562" xlink:href="#m4689b88e7f" y="50.491179"/>
     <use style="fill:#40b5c4;stroke:#40b5c4;" x="353.385632" xlink:href="#m4689b88e7f" y="52.192252"/>
     <use style="fill:#40b5c4;stroke:#40b5c4;" x="361.504702" xlink:href="#m4689b88e7f" y="53.066805"/>
     <use style="fill:#40b5c4;stroke:#40b5c4;" x="369.623772" xlink:href="#m4689b88e7f" y="53.399243"/>
    </g>
   </g>
   <g id="line2d_15">
    <path clip-path="url(#p4d461abaf6)" d="M 69.218182 51.394027 
L 69.421159 51.492698 
L 69.624135 51.444588 
L 69.725624 51.1332 
L 69.827112 51.407589 
L 69.9286 51.190587 
L 70.131577 51.323932 
L 70.233066 51.091263 
L 70.334554 51.28303 
L 70.537531 50.988344 
L 70.639019 51.12198 
L 70.740507 50.912059 
L 70.841996 51.162792 
L 70.943484 50.859229 
L 71.349438 51.059674 
L 71.552414 50.867126 
L 71.755391 50.751536 
L 71.958368 50.85538 
L 72.161345 50.73329 
L 73.176228 50.911242 
L 73.277717 50.704533 
L 73.480694 50.987364 
L 73.582182 50.907919 
L 73.68367 51.182236 
L 73.785159 51.03669 
L 73.988135 51.159597 
L 74.089624 51.011401 
L 74.191112 51.346716 
L 74.292601 51.237644 
L 74.495577 51.334771 
L 74.597066 51.350039 
L 74.901531 51.8675 
L 75.104508 51.822277 
L 75.205996 52.082668 
L 75.307484 51.963883 
L 75.713438 52.534319 
L 75.814926 52.459449 
L 76.119391 53.13609 
L 76.626833 53.683524 
L 76.82981 54.112771 
L 76.931298 54.051681 
L 77.134275 54.645192 
L 77.337252 55.316223 
L 77.43874 55.24217 
L 77.540229 55.709579 
L 77.641717 55.643804 
L 78.04767 56.749293 
L 78.250647 57.245367 
L 79.569996 61.154981 
L 79.874461 62.172838 
L 80.077438 62.925728 
L 80.58488 64.70586 
L 81.904229 70.223773 
L 82.208694 71.625128 
L 82.310182 71.881398 
L 82.614647 73.545704 
L 84.94888 85.879513 
L 85.253345 87.723313 
L 88.500973 108.58674 
L 92.864973 133.861451 
L 92.966462 133.980963 
L 93.372415 136.335071 
L 93.67688 137.639589 
L 95.097717 144.516756 
L 95.199206 144.752694 
L 96.21409 149.643274 
L 96.315578 149.743724 
L 96.518555 150.815517 
L 97.634927 155.103328 
L 97.837904 155.548661 
L 99.461718 158.958134 
L 99.664694 159.35857 
L 100.375113 160.797995 
L 103.521253 166.446276 
L 103.622741 166.467426 
L 104.028694 167.291174 
L 104.33316 167.66387 
L 104.840601 168.539058 
L 104.94209 168.622088 
L 105.246555 169.065061 
L 105.753997 169.807112 
L 106.261439 170.467541 
L 106.768881 171.20194 
L 107.479299 172.057322 
L 107.783764 171.84652 
L 108.291206 171.610474 
L 108.494183 171.382661 
L 108.595671 171.285551 
L 108.69716 171.373057 
L 109.001625 171.09029 
L 109.103113 171.074014 
L 109.610555 170.362535 
L 109.813532 170.276001 
L 110.320974 169.547447 
L 110.422462 169.524917 
L 110.625439 169.144269 
L 111.132881 168.572199 
L 111.335857 168.323436 
L 111.843299 167.672384 
L 111.944788 167.676787 
L 112.45223 166.87812 
L 112.553718 166.828222 
L 112.756695 166.523115 
L 114.076044 164.87238 
L 114.380509 164.448561 
L 114.481997 164.398717 
L 114.786462 163.991355 
L 114.887951 163.955073 
L 115.192416 163.382032 
L 115.293904 163.410598 
L 115.496881 163.099573 
L 115.902834 162.735673 
L 116.207299 162.149642 
L 116.410276 162.007455 
L 117.42516 160.772197 
L 117.729625 160.385322 
L 117.831113 160.432125 
L 118.03409 160.032887 
L 118.744509 159.297098 
L 118.845997 159.305486 
L 119.150462 158.78492 
L 119.556416 158.475039 
L 119.759393 158.224034 
L 120.875765 156.935201 
L 120.977253 157.087519 
L 121.078741 156.585925 
L 121.281718 156.675264 
L 121.890648 155.920903 
L 121.992137 156.131624 
L 122.093625 155.587548 
L 122.195114 155.754008 
L 122.499579 155.538531 
L 122.601067 155.220644 
L 122.702555 155.332766 
L 122.905532 154.965735 
L 123.007021 155.132303 
L 123.108509 154.642183 
L 123.209997 154.791577 
L 123.920416 153.942595 
L 124.021904 154.14707 
L 124.123393 153.700049 
L 124.224881 153.745999 
L 124.529346 153.582498 
L 124.630835 153.280061 
L 124.732323 153.365605 
L 124.9353 152.985974 
L 125.036788 153.149438 
L 125.138276 152.676819 
L 125.239765 152.786963 
L 126.457625 151.716368 
L 126.559114 151.804254 
L 126.76209 151.574217 
L 126.863579 151.573763 
L 126.965067 151.337172 
L 127.066556 151.45338 
L 127.168044 151.186852 
L 127.371021 151.238284 
L 127.472509 151.080811 
L 127.573997 151.162343 
L 127.776974 150.951314 
L 127.878463 150.898212 
L 127.979951 150.719189 
L 128.081439 150.814483 
L 128.182928 150.543598 
L 128.385904 150.602891 
L 128.791858 150.289724 
L 128.893346 150.319497 
L 129.096323 150.110265 
L 129.400788 149.908041 
L 129.502277 149.962559 
L 129.705253 149.79472 
L 130.111207 149.422641 
L 130.821625 149.055555 
L 131.227579 148.80139 
L 131.532044 149.060983 
L 131.735021 148.91128 
L 132.039486 148.844834 
L 132.140974 148.924351 
L 132.242463 148.731785 
L 132.546928 149.071622 
L 132.648416 148.811248 
L 132.749905 148.985206 
L 132.851393 148.757002 
L 132.952881 148.909265 
L 133.05437 148.792676 
L 133.155858 148.974531 
L 133.257346 148.685727 
L 133.358835 148.93824 
L 133.460323 148.882759 
L 133.561812 149.037509 
L 133.6633 148.849554 
L 133.764788 149.044934 
L 133.967765 148.852259 
L 134.475207 148.97395 
L 134.576695 149.067337 
L 134.779672 148.966851 
L 135.084137 148.883994 
L 135.185626 149.195944 
L 135.287114 148.94109 
L 135.388602 149.151556 
L 135.490091 148.948225 
L 135.794556 149.147889 
L 135.896044 149.008534 
L 136.099021 149.153445 
L 136.403486 149.235903 
L 136.504974 149.142679 
L 136.707951 149.258959 
L 136.80944 149.291982 
L 136.910928 149.15241 
L 137.113905 149.421933 
L 137.621347 149.466484 
L 138.0273 149.553536 
L 138.128788 149.692074 
L 138.433254 149.647904 
L 138.63623 149.743252 
L 138.737719 149.922474 
L 138.839207 149.594239 
L 138.940695 149.874092 
L 139.042184 149.81872 
L 139.245161 150.140402 
L 139.752602 150.748817 
L 140.158556 151.602211 
L 140.564509 152.226966 
L 140.970463 152.814976 
L 141.071951 153.279153 
L 141.17344 153.203321 
L 141.680882 153.96754 
L 141.78237 153.708909 
L 142.086835 154.523089 
L 142.188323 154.448492 
L 142.492789 154.862144 
L 142.594277 155.076623 
L 142.695765 154.929316 
L 143.101719 155.672675 
L 143.304696 155.883414 
L 143.507672 156.145748 
L 143.609161 156.357812 
L 143.710649 156.311827 
L 143.913626 156.684831 
L 144.015114 157.042613 
L 144.116603 156.975686 
L 144.624044 157.536083 
L 145.029998 158.267923 
L 145.232975 158.369488 
L 145.53744 158.881939 
L 145.638928 158.826249 
L 145.943393 159.630535 
L 146.044882 159.480614 
L 146.14637 159.73575 
L 146.247858 159.657195 
L 146.450835 160.100658 
L 146.552324 160.084183 
L 146.856789 160.708148 
L 147.059765 160.895158 
L 147.161254 160.944058 
L 147.465719 161.462572 
L 147.567207 161.456971 
L 148.074649 162.287009 
L 148.176138 162.239063 
L 148.683579 163.103331 
L 148.886556 163.216316 
L 149.191021 163.687537 
L 149.29251 163.533995 
L 149.596975 164.324356 
L 149.90144 164.416218 
L 150.104417 164.669693 
L 151.1193 165.983815 
L 151.220789 165.894748 
L 151.423765 166.098933 
L 151.525254 166.486852 
L 151.626742 166.345191 
L 151.728231 166.481569 
L 151.829719 166.385531 
L 152.134184 166.70733 
L 152.235672 166.701748 
L 152.337161 166.90744 
L 152.540138 167.686263 
L 152.844603 168.554962 
L 154.569905 174.197279 
L 154.671393 174.320921 
L 154.975859 175.370476 
L 155.077347 175.587405 
L 155.4833 177.04129 
L 157.107114 182.233173 
L 157.41158 183.286549 
L 157.513068 183.320562 
L 157.716045 184.170688 
L 157.919021 184.811864 
L 161.572603 197.093305 
L 161.77558 197.775365 
L 161.877068 198.529335 
L 161.978556 198.513295 
L 162.485998 200.203599 
L 162.688975 200.872124 
L 162.99344 201.890489 
L 163.703859 204.210612 
L 164.312789 206.807738 
L 164.414277 206.975995 
L 164.820231 208.74037 
L 167.052975 217.480073 
L 167.154464 217.551457 
L 167.560417 218.94417 
L 167.864882 219.71801 
L 168.372324 221.136975 
L 168.473812 221.119092 
L 170.402092 224.556977 
L 170.50358 224.629232 
L 170.706557 225.115213 
L 170.808045 225.071388 
L 171.011022 225.383901 
L 171.11251 225.915577 
L 171.315487 225.815582 
L 171.518464 226.151624 
L 171.619952 226.263638 
L 171.72144 226.176387 
L 172.127394 226.823344 
L 172.228882 226.753994 
L 172.431859 226.91488 
L 172.837813 227.088511 
L 172.939301 227.368564 
L 173.040789 227.156536 
L 173.243766 227.290717 
L 173.345254 227.325555 
L 173.446743 227.501383 
L 173.548231 227.212398 
L 173.751208 227.591212 
L 173.852696 227.676938 
L 174.055673 227.542249 
L 174.360138 227.749883 
L 174.461627 227.603267 
L 174.664603 227.794961 
L 174.766092 228.100467 
L 174.86758 227.854853 
L 175.172045 228.136576 
L 175.273534 228.256651 
L 175.375022 227.847137 
L 175.679487 228.428612 
L 175.882464 228.402033 
L 176.085441 228.499088 
L 176.491394 229.024736 
L 176.592882 228.852957 
L 178.521162 216.471493 
L 179.637534 207.80036 
L 180.652417 200.066204 
L 181.261348 194.641452 
L 182.37772 184.751609 
L 183.088138 178.833268 
L 184.103022 170.489072 
L 185.422371 160.222884 
L 185.828325 157.495843 
L 187.35065 147.028629 
L 188.872976 136.945738 
L 190.699767 124.209714 
L 193.642929 113.118621 
L 196.992046 101.600972 
L 198.311395 97.420636 
L 198.717348 96.263824 
L 201.964976 87.006787 
L 203.385813 84.651807 
L 205.821534 81.202703 
L 206.126 80.942202 
L 206.633441 80.371512 
L 210.287023 76.65677 
L 210.591488 76.331766 
L 210.692976 76.316334 
L 210.997442 75.939644 
L 211.504883 75.595161 
L 212.621256 75.204364 
L 212.824232 75.149737 
L 213.940604 74.760629 
L 214.24507 74.644258 
L 214.346558 74.651157 
L 214.448046 74.515651 
L 214.549535 74.572039 
L 214.854 74.453054 
L 217.391209 73.563423 
L 217.898651 73.383911 
L 219.82693 72.699355 
L 220.43586 72.489342 
L 223.379023 71.378988 
L 223.480512 71.440241 
L 223.784977 71.260511 
L 224.698372 70.775365 
L 225.104326 70.486616 
L 239.414187 60.588521 
L 239.82014 60.433989 
L 241.240977 59.786777 
L 241.443954 59.655483 
L 241.951396 59.37543 
L 242.763303 59.194465 
L 243.270745 59.172353 
L 243.473722 59.155832 
L 243.676698 59.203651 
L 243.879675 59.168685 
L 244.285629 59.056817 
L 244.590094 59.212474 
L 244.894559 59.076714 
L 245.199024 59.157756 
L 245.300512 59.013173 
L 245.604977 59.154271 
L 245.909443 59.023485 
L 246.213908 59.004241 
L 246.518373 59.034196 
L 246.822838 58.949196 
L 247.533257 58.933329 
L 247.837722 58.879519 
L 248.142187 58.820262 
L 249.157071 58.71718 
L 249.360047 58.646595 
L 250.577908 58.533818 
L 250.780885 58.423547 
L 252.404699 58.096147 
L 252.506187 58.201553 
L 252.810652 58.01151 
L 253.622559 57.904507 
L 253.825536 57.814533 
L 254.028513 57.810974 
L 254.231489 57.731094 
L 254.332978 57.686361 
L 254.434466 57.784432 
L 254.84042 57.582807 
L 255.652327 57.427222 
L 255.855303 57.356274 
L 256.464234 57.256896 
L 256.870187 57.101892 
L 257.174652 57.006544 
L 257.276141 56.945145 
L 257.377629 57.120337 
L 257.580606 56.914463 
L 259.20442 56.495092 
L 259.407396 56.456605 
L 260.219303 56.195469 
L 260.320792 56.269067 
L 260.625257 56.038141 
L 260.828234 56.036906 
L 261.234187 55.933098 
L 261.538652 55.818107 
L 262.147583 55.633474 
L 262.350559 55.603338 
L 263.162466 55.364278 
L 266.714559 54.3486 
L 266.816048 54.17486 
L 267.120513 54.271479 
L 267.424978 54.094036 
L 267.93242 54.119234 
L 268.135397 53.957368 
L 268.642839 53.797099 
L 268.744327 53.896078 
L 268.947304 53.735192 
L 270.875583 53.264951 
L 271.281536 53.117463 
L 271.788978 53.059913 
L 271.991955 52.98871 
L 272.194932 52.86555 
L 272.29642 53.031592 
L 272.499397 52.891656 
L 272.702374 52.820272 
L 273.717257 52.526821 
L 273.818746 52.563711 
L 274.021722 52.463897 
L 274.833629 52.266447 
L 276.05149 51.965516 
L 276.152978 52.045251 
L 276.355955 51.908947 
L 276.558932 51.848274 
L 282.242281 50.500439 
L 282.343769 50.517069 
L 282.546746 50.403675 
L 282.851211 50.389805 
L 282.952699 50.251358 
L 283.257165 50.351789 
L 283.56163 50.161384 
L 284.17056 50.127979 
L 284.678002 49.965677 
L 284.77949 50.006125 
L 284.880979 49.849923 
L 285.185444 49.942911 
L 285.489909 49.811472 
L 285.997351 49.738635 
L 286.098839 49.802757 
L 286.301816 49.701128 
L 286.504793 49.627021 
L 289.853909 49.329793 
L 290.462839 49.26382 
L 290.665816 49.239674 
L 291.6807 49.180417 
L 291.782188 49.28477 
L 292.086653 49.172683 
L 293.000049 49.18728 
L 293.406002 49.110704 
L 293.913444 49.171594 
L 294.014932 49.098903 
L 294.217909 49.133833 
L 295.232793 49.158414 
L 295.334281 49.046109 
L 295.638746 49.213713 
L 295.841723 49.129839 
L 296.146188 49.152495 
L 296.349165 49.154856 
L 296.450653 49.137536 
L 296.552142 49.264183 
L 296.755118 49.16967 
L 297.161072 49.13002 
L 297.668514 49.216835 
L 298.074467 49.199952 
L 298.987863 49.304885 
L 299.089351 49.200823 
L 299.292328 49.291015 
L 299.393816 49.386508 
L 299.698281 49.323512 
L 300.916142 49.440137 
L 301.01763 49.391156 
L 301.322095 49.502226 
L 302.032514 49.537373 
L 302.235491 49.582978 
L 302.742932 49.654289 
L 302.844421 49.550953 
L 303.148886 49.730357 
L 303.351863 49.683373 
L 303.656328 49.754611 
L 303.859305 49.714054 
L 304.265258 49.816954 
L 304.468235 49.81434 
L 305.38163 49.921888 
L 305.787584 49.957761 
L 305.99056 50.045013 
L 306.396514 50.049551 
L 306.903956 50.133389 
L 307.106933 50.153105 
L 307.817351 50.307129 
L 307.91884 50.191411 
L 308.223305 50.38966 
L 308.426281 50.3023 
L 308.730747 50.396413 
L 308.832235 50.299758 
L 309.1367 50.505886 
L 309.238188 50.396232 
L 309.441165 50.418816 
L 309.644142 50.486279 
L 309.847119 50.49325 
L 311.369444 50.659038 
L 314.617072 51.022312 
L 314.820049 51.032006 
L 315.023026 51.042826 
L 316.139398 51.174665 
L 316.342375 51.174883 
L 316.443863 51.158181 
L 316.545351 51.300549 
L 316.748328 51.242019 
L 316.951305 51.202986 
L 317.052793 51.318159 
L 317.25577 51.244887 
L 317.661724 51.358063 
L 317.763212 51.269505 
L 317.966189 51.377452 
L 318.270654 51.390378 
L 318.372142 51.509037 
L 318.575119 51.464667 
L 318.778096 51.426688 
L 319.082561 51.480135 
L 319.184049 51.484056 
L 319.285538 51.623629 
L 319.488514 51.572687 
L 319.691491 51.558998 
L 320.503398 51.64792 
L 321.01084 51.734408 
L 321.112328 51.832879 
L 321.315305 51.7705 
L 322.330189 51.911452 
L 322.431677 52.002915 
L 322.634654 51.932257 
L 323.751026 52.12466 
L 324.15698 52.169139 
L 324.258468 52.266956 
L 324.461445 52.190997 
L 325.679305 52.402316 
L 325.882282 52.443418 
L 326.186747 52.457833 
L 326.288235 52.52929 
L 326.389724 52.421306 
L 326.694189 52.609134 
L 326.998654 52.606919 
L 327.506096 52.649727 
L 327.607584 52.765772 
L 327.810561 52.637019 
L 327.912049 52.830511 
L 328.013538 52.732186 
L 328.115026 52.791769 
L 328.216515 52.707895 
L 328.419491 52.826081 
L 328.622468 52.812429 
L 329.028422 52.935009 
L 329.231398 52.920231 
L 329.332887 53.002217 
L 329.535863 52.966162 
L 330.246282 53.1289 
L 330.449259 53.105662 
L 330.855212 53.234088 
L 331.261166 53.239716 
L 331.768608 53.379579 
L 331.971584 53.411785 
L 332.580515 53.555134 
L 332.783491 53.533022 
L 332.986468 53.618349 
L 333.189445 53.615299 
L 333.899864 53.789946 
L 334.001352 53.722048 
L 334.407305 53.880066 
L 334.610282 53.91445 
L 335.117724 54.002754 
L 335.219212 54.11357 
L 335.422189 54.055512 
L 337.959399 54.652907 
L 338.162375 54.664781 
L 338.46684 54.729701 
L 340.090654 55.175179 
L 349.935027 57.93802 
L 350.036515 58.124432 
L 350.239492 58.087142 
L 350.442469 58.109001 
L 350.645445 58.160523 
L 350.848422 58.231472 
L 351.051399 58.292326 
L 351.152887 58.347625 
L 351.254376 58.256852 
L 351.457352 58.400055 
L 351.558841 58.34679 
L 351.863306 58.582872 
L 352.066283 58.524886 
L 352.776701 58.787475 
L 353.081166 58.80287 
L 353.284143 58.891755 
L 353.385632 58.830174 
L 353.690097 59.03307 
L 353.893073 59.003732 
L 354.400515 59.127002 
L 354.70498 59.211966 
L 355.110934 59.263452 
L 355.415399 59.444817 
L 355.719864 59.3893 
L 356.024329 59.497937 
L 356.227306 59.526513 
L 356.328794 59.661765 
L 356.430283 59.561261 
L 356.63326 59.617504 
L 358.967492 60.144823 
L 359.068981 60.065923 
L 359.373446 60.292456 
L 359.576422 60.229822 
L 359.880888 60.326332 
L 359.982376 60.249901 
L 360.286841 60.432682 
L 360.591306 60.394085 
L 361.098748 60.588194 
L 361.301725 60.540157 
L 361.910655 60.597599 
L 362.012143 60.730744 
L 362.21512 60.713715 
L 362.418097 60.715749 
L 363.534469 60.887056 
L 364.244888 60.932479 
L 364.447864 60.994241 
L 364.955306 61.010543 
L 365.158283 61.022852 
L 365.259771 61.173935 
L 365.462748 61.074629 
L 365.665725 61.071761 
L 365.767213 61.103313 
L 365.868702 61.009273 
L 365.97019 61.209591 
L 366.071678 61.064426 
L 366.274655 61.09253 
L 366.782097 61.135629 
L 368.913353 61.486267 
L 369.014841 61.350144 
L 369.11633 61.661023 
L 369.319306 61.488808 
L 369.420795 61.681102 
L 369.522283 61.527187 
L 369.623772 61.671662 
L 369.826748 61.603909 
L 369.928237 61.752232 
L 370.029725 61.570032 
L 370.232702 61.761346 
L 370.33419 61.63321 
L 370.435679 61.910286 
L 370.537167 61.692249 
L 370.740144 61.837232 
L 370.841632 61.692866 
L 370.94312 61.993543 
L 371.146097 61.818424 
L 371.247586 62.016926 
L 371.349074 61.830987 
L 371.450562 62.027202 
L 371.653539 61.822962 
L 371.755027 62.129521 
L 371.958004 61.99623 
L 372.059493 62.086422 
L 372.160981 62.016708 
L 372.262469 62.187725 
L 372.363958 62.009083 
L 372.566934 62.220621 
L 372.668423 61.998881 
L 372.769911 62.265172 
L 372.972888 62.100256 
L 373.074376 62.338118 
L 373.175865 62.183985 
L 373.277353 62.298649 
L 373.48033 62.139833 
L 373.581818 62.440655 
L 373.581818 62.440655 
" style="fill:none;stroke:#081d58;stroke-dasharray:5.55,2.4;stroke-dashoffset:0;stroke-width:1.5;"/>
    <defs>
     <path d="M -0 4.242641 
L 4.242641 0 
L 0 -4.242641 
L -4.242641 -0 
z
" id="mba5d2fae21" style="stroke:#081d58;stroke-linejoin:miter;"/>
    </defs>
    <g clip-path="url(#p4d461abaf6)">
     <use style="fill:#081d58;stroke:#081d58;stroke-linejoin:miter;" x="69.218182" xlink:href="#mba5d2fae21" y="51.394027"/>
     <use style="fill:#081d58;stroke:#081d58;stroke-linejoin:miter;" x="77.337252" xlink:href="#mba5d2fae21" y="55.316223"/>
     <use style="fill:#081d58;stroke:#081d58;stroke-linejoin:miter;" x="85.456322" xlink:href="#mba5d2fae21" y="89.281052"/>
     <use style="fill:#081d58;stroke:#081d58;stroke-linejoin:miter;" x="93.575392" xlink:href="#mba5d2fae21" y="137.211758"/>
     <use style="fill:#081d58;stroke:#081d58;stroke-linejoin:miter;" x="101.694462" xlink:href="#mba5d2fae21" y="163.233563"/>
     <use style="fill:#081d58;stroke:#081d58;stroke-linejoin:miter;" x="109.813532" xlink:href="#mba5d2fae21" y="170.276001"/>
     <use style="fill:#081d58;stroke:#081d58;stroke-linejoin:miter;" x="117.932602" xlink:href="#mba5d2fae21" y="160.109572"/>
     <use style="fill:#081d58;stroke:#081d58;stroke-linejoin:miter;" x="126.051672" xlink:href="#mba5d2fae21" y="152.11241"/>
     <use style="fill:#081d58;stroke:#081d58;stroke-linejoin:miter;" x="134.170742" xlink:href="#mba5d2fae21" y="148.900769"/>
     <use style="fill:#081d58;stroke:#081d58;stroke-linejoin:miter;" x="142.289812" xlink:href="#mba5d2fae21" y="154.550629"/>
     <use style="fill:#081d58;stroke:#081d58;stroke-linejoin:miter;" x="150.408882" xlink:href="#mba5d2fae21" y="165.11026"/>
     <use style="fill:#081d58;stroke:#081d58;stroke-linejoin:miter;" x="158.527952" xlink:href="#mba5d2fae21" y="186.839552"/>
     <use style="fill:#081d58;stroke:#081d58;stroke-linejoin:miter;" x="166.647022" xlink:href="#mba5d2fae21" y="215.993101"/>
     <use style="fill:#081d58;stroke:#081d58;stroke-linejoin:miter;" x="174.766092" xlink:href="#mba5d2fae21" y="228.100467"/>
     <use style="fill:#081d58;stroke:#081d58;stroke-linejoin:miter;" x="182.885162" xlink:href="#mba5d2fae21" y="180.448166"/>
     <use style="fill:#081d58;stroke:#081d58;stroke-linejoin:miter;" x="191.004232" xlink:href="#mba5d2fae21" y="123.061975"/>
     <use style="fill:#081d58;stroke:#081d58;stroke-linejoin:miter;" x="199.123302" xlink:href="#mba5d2fae21" y="95.057704"/>
     <use style="fill:#081d58;stroke:#081d58;stroke-linejoin:miter;" x="207.242372" xlink:href="#mba5d2fae21" y="79.759012"/>
     <use style="fill:#081d58;stroke:#081d58;stroke-linejoin:miter;" x="215.361442" xlink:href="#mba5d2fae21" y="74.274721"/>
     <use style="fill:#081d58;stroke:#081d58;stroke-linejoin:miter;" x="223.480512" xlink:href="#mba5d2fae21" y="71.440241"/>
     <use style="fill:#081d58;stroke:#081d58;stroke-linejoin:miter;" x="231.599582" xlink:href="#mba5d2fae21" y="65.965754"/>
     <use style="fill:#081d58;stroke:#081d58;stroke-linejoin:miter;" x="239.718652" xlink:href="#mba5d2fae21" y="60.531625"/>
     <use style="fill:#081d58;stroke:#081d58;stroke-linejoin:miter;" x="247.837722" xlink:href="#mba5d2fae21" y="58.879519"/>
     <use style="fill:#081d58;stroke:#081d58;stroke-linejoin:miter;" x="255.956792" xlink:href="#mba5d2fae21" y="57.349194"/>
     <use style="fill:#081d58;stroke:#081d58;stroke-linejoin:miter;" x="264.075862" xlink:href="#mba5d2fae21" y="55.041452"/>
     <use style="fill:#081d58;stroke:#081d58;stroke-linejoin:miter;" x="272.194932" xlink:href="#mba5d2fae21" y="52.86555"/>
     <use style="fill:#081d58;stroke:#081d58;stroke-linejoin:miter;" x="280.314002" xlink:href="#mba5d2fae21" y="50.951618"/>
     <use style="fill:#081d58;stroke:#081d58;stroke-linejoin:miter;" x="288.433072" xlink:href="#mba5d2fae21" y="49.384402"/>
     <use style="fill:#081d58;stroke:#081d58;stroke-linejoin:miter;" x="296.552142" xlink:href="#mba5d2fae21" y="49.264183"/>
     <use style="fill:#081d58;stroke:#081d58;stroke-linejoin:miter;" x="304.671212" xlink:href="#mba5d2fae21" y="49.806933"/>
     <use style="fill:#081d58;stroke:#081d58;stroke-linejoin:miter;" x="312.790282" xlink:href="#mba5d2fae21" y="50.858775"/>
     <use style="fill:#081d58;stroke:#081d58;stroke-linejoin:miter;" x="320.909352" xlink:href="#mba5d2fae21" y="51.669052"/>
     <use style="fill:#081d58;stroke:#081d58;stroke-linejoin:miter;" x="329.028422" xlink:href="#mba5d2fae21" y="52.935009"/>
     <use style="fill:#081d58;stroke:#081d58;stroke-linejoin:miter;" x="337.147492" xlink:href="#mba5d2fae21" y="54.390283"/>
     <use style="fill:#081d58;stroke:#081d58;stroke-linejoin:miter;" x="345.266562" xlink:href="#mba5d2fae21" y="56.556056"/>
     <use style="fill:#081d58;stroke:#081d58;stroke-linejoin:miter;" x="353.385632" xlink:href="#mba5d2fae21" y="58.830174"/>
     <use style="fill:#081d58;stroke:#081d58;stroke-linejoin:miter;" x="361.504702" xlink:href="#mba5d2fae21" y="60.540048"/>
     <use style="fill:#081d58;stroke:#081d58;stroke-linejoin:miter;" x="369.623772" xlink:href="#mba5d2fae21" y="61.671662"/>
    </g>
   </g>
   <g id="patch_3">
    <path d="M 54 252 
L 54 34.56 
" style="fill:none;stroke:#000000;stroke-linecap:square;stroke-linejoin:miter;stroke-width:0.8;"/>
   </g>
   <g id="patch_4">
    <path d="M 388.8 252 
L 388.8 34.56 
" style="fill:none;stroke:#000000;stroke-linecap:square;stroke-linejoin:miter;stroke-width:0.8;"/>
   </g>
   <g id="patch_5">
    <path d="M 54 252 
L 388.8 252 
" style="fill:none;stroke:#000000;stroke-linecap:square;stroke-linejoin:miter;stroke-width:0.8;"/>
   </g>
   <g id="patch_6">
    <path d="M 54 34.56 
L 388.8 34.56 
" style="fill:none;stroke:#000000;stroke-linecap:square;stroke-linejoin:miter;stroke-width:0.8;"/>
   </g>
   <g id="legend_1">
    <g id="patch_7">
     <path d="M 61 247 
L 162.714063 247 
Q 164.714063 247 164.714063 245 
L 164.714063 216.64375 
Q 164.714063 214.64375 162.714063 214.64375 
L 61 214.64375 
Q 59 214.64375 59 216.64375 
L 59 245 
Q 59 247 61 247 
z
" style="fill:#ffffff;opacity:0.8;stroke:#cccccc;stroke-linejoin:miter;"/>
    </g>
    <g id="line2d_16">
     <path d="M 63 222.742188 
L 83 222.742188 
" style="fill:none;stroke:#40b5c4;stroke-dasharray:5.55,2.4;stroke-dashoffset:0;stroke-width:1.5;"/>
    </g>
    <g id="line2d_17">
     <g>
      <use style="fill:#40b5c4;stroke:#40b5c4;" x="73" xlink:href="#m4689b88e7f" y="222.742188"/>
     </g>
    </g>
    <g id="text_16">
     <text style="font-family:DejaVu Sans;font-size:10px;font-style:normal;font-weight:normal;text-anchor:start;" transform="rotate(-0, 91, 226.242188)" x="91" y="226.242188">original</text>
    </g>
    <g id="line2d_18">
     <path d="M 63 237.420312 
L 83 237.420312 
" style="fill:none;stroke:#081d58;stroke-dasharray:5.55,2.4;stroke-dashoffset:0;stroke-width:1.5;"/>
    </g>
    <g id="line2d_19">
     <g>
      <use style="fill:#081d58;stroke:#081d58;stroke-linejoin:miter;" x="73" xlink:href="#mba5d2fae21" y="237.420312"/>
     </g>
    </g>
    <g id="text_17">
     <text style="font-family:DejaVu Sans;font-size:10px;font-style:normal;font-weight:normal;text-anchor:start;" transform="rotate(-0, 91, 240.920312)" x="91" y="240.920312">reconstructed</text>
    </g>
   </g>
  </g>
  <g id="text_18">
   <text style="font-family:DejaVu Sans;font-size:12px;font-style:normal;font-weight:normal;text-anchor:middle;" transform="rotate(-0, 216, 14.878125)" x="216" y="14.878125">Reconstruction of the temperature curve</text>
  </g>
 </g>
 <defs>
  <clipPath id="p4d461abaf6">
   <rect height="217.44" width="334.8" x="54" y="34.56"/>
  </clipPath>
 </defs>
</svg>
