<?xml version="1.0" encoding="utf-8" standalone="no"?>
<!DOCTYPE svg PUBLIC "-//W3C//DTD SVG 1.1//EN"
  "http://www.w3.org/Graphics/SVG/1.1/DTD/svg11.dtd">
<!-- Created with matplotlib (https://matplotlib.org/) -->
<svg height="288pt" version="1.1" viewBox="0 0 432 288" width="432pt" xmlns="http://www.w3.org/2000/svg" xmlns:xlink="http://www.w3.org/1999/xlink">
 <defs>
  <style type="text/css">
*{stroke-linecap:butt;stroke-linejoin:round;}
  </style>
 </defs>
 <g id="figure_1">
  <g id="patch_1">
   <path d="M 0 288 
L 432 288 
L 432 0 
L 0 0 
z
" style="fill:#ffffff;"/>
  </g>
  <g id="axes_1">
   <g id="patch_2">
    <path d="M 54 252 
L 388.8 252 
L 388.8 34.56 
L 54 34.56 
z
" style="fill:#ffffff;"/>
   </g>
   <g id="matplotlib.axis_1">
    <g id="xtick_1">
     <g id="line2d_1">
      <defs>
       <path d="M 0 0 
L 0 3.5 
" id="m03d135a01a" style="stroke:#000000;stroke-width:0.8;"/>
      </defs>
      <g>
       <use style="stroke:#000000;stroke-width:0.8;" x="69.218182" xlink:href="#m03d135a01a" y="252"/>
      </g>
     </g>
     <g id="text_1">
      <text style="font-family:DejaVu Sans;font-size:10px;font-style:normal;font-weight:normal;text-anchor:middle;" transform="rotate(-0, 69.218182, 266.598437)" x="69.218182" y="266.598437">0</text>
     </g>
    </g>
    <g id="xtick_2">
     <g id="line2d_2">
      <g>
       <use style="stroke:#000000;stroke-width:0.8;" x="119.962369" xlink:href="#m03d135a01a" y="252"/>
      </g>
     </g>
     <g id="text_2">
      <text style="font-family:DejaVu Sans;font-size:10px;font-style:normal;font-weight:normal;text-anchor:middle;" transform="rotate(-0, 119.962369, 266.598437)" x="119.962369" y="266.598437">500</text>
     </g>
    </g>
    <g id="xtick_3">
     <g id="line2d_3">
      <g>
       <use style="stroke:#000000;stroke-width:0.8;" x="170.706557" xlink:href="#m03d135a01a" y="252"/>
      </g>
     </g>
     <g id="text_3">
      <text style="font-family:DejaVu Sans;font-size:10px;font-style:normal;font-weight:normal;text-anchor:middle;" transform="rotate(-0, 170.706557, 266.598437)" x="170.706557" y="266.598437">1000</text>
     </g>
    </g>
    <g id="xtick_4">
     <g id="line2d_4">
      <g>
       <use style="stroke:#000000;stroke-width:0.8;" x="221.450744" xlink:href="#m03d135a01a" y="252"/>
      </g>
     </g>
     <g id="text_4">
      <text style="font-family:DejaVu Sans;font-size:10px;font-style:normal;font-weight:normal;text-anchor:middle;" transform="rotate(-0, 221.450744, 266.598437)" x="221.450744" y="266.598437">1500</text>
     </g>
    </g>
    <g id="xtick_5">
     <g id="line2d_5">
      <g>
       <use style="stroke:#000000;stroke-width:0.8;" x="272.194932" xlink:href="#m03d135a01a" y="252"/>
      </g>
     </g>
     <g id="text_5">
      <text style="font-family:DejaVu Sans;font-size:10px;font-style:normal;font-weight:normal;text-anchor:middle;" transform="rotate(-0, 272.194932, 266.598437)" x="272.194932" y="266.598437">2000</text>
     </g>
    </g>
    <g id="xtick_6">
     <g id="line2d_6">
      <g>
       <use style="stroke:#000000;stroke-width:0.8;" x="322.939119" xlink:href="#m03d135a01a" y="252"/>
      </g>
     </g>
     <g id="text_6">
      <text style="font-family:DejaVu Sans;font-size:10px;font-style:normal;font-weight:normal;text-anchor:middle;" transform="rotate(-0, 322.939119, 266.598437)" x="322.939119" y="266.598437">2500</text>
     </g>
    </g>
    <g id="xtick_7">
     <g id="line2d_7">
      <g>
       <use style="stroke:#000000;stroke-width:0.8;" x="373.683307" xlink:href="#m03d135a01a" y="252"/>
      </g>
     </g>
     <g id="text_7">
      <text style="font-family:DejaVu Sans;font-size:10px;font-style:normal;font-weight:normal;text-anchor:middle;" transform="rotate(-0, 373.683307, 266.598437)" x="373.683307" y="266.598437">3000</text>
     </g>
    </g>
    <g id="text_8">
     <text style="font-family:DejaVu Sans;font-size:10px;font-style:normal;font-weight:normal;text-anchor:middle;" transform="rotate(-0, 221.4, 280.276563)" x="221.4" y="280.276563">Time</text>
    </g>
   </g>
   <g id="matplotlib.axis_2">
    <g id="ytick_1">
     <g id="line2d_8">
      <defs>
       <path d="M 0 0 
L -3.5 0 
" id="m7ab5a66446" style="stroke:#000000;stroke-width:0.8;"/>
      </defs>
      <g>
       <use style="stroke:#000000;stroke-width:0.8;" x="54" xlink:href="#m7ab5a66446" y="219.00951"/>
      </g>
     </g>
     <g id="text_9">
      <text style="font-family:DejaVu Sans;font-size:10px;font-style:normal;font-weight:normal;text-anchor:end;" transform="rotate(-0, 47, 222.808729)" x="47" y="222.808729">−10</text>
     </g>
    </g>
    <g id="ytick_2">
     <g id="line2d_9">
      <g>
       <use style="stroke:#000000;stroke-width:0.8;" x="54" xlink:href="#m7ab5a66446" y="185.092189"/>
      </g>
     </g>
     <g id="text_10">
      <text style="font-family:DejaVu Sans;font-size:10px;font-style:normal;font-weight:normal;text-anchor:end;" transform="rotate(-0, 47, 188.891407)" x="47" y="188.891407">−8</text>
     </g>
    </g>
    <g id="ytick_3">
     <g id="line2d_10">
      <g>
       <use style="stroke:#000000;stroke-width:0.8;" x="54" xlink:href="#m7ab5a66446" y="151.174867"/>
      </g>
     </g>
     <g id="text_11">
      <text style="font-family:DejaVu Sans;font-size:10px;font-style:normal;font-weight:normal;text-anchor:end;" transform="rotate(-0, 47, 154.974086)" x="47" y="154.974086">−6</text>
     </g>
    </g>
    <g id="ytick_4">
     <g id="line2d_11">
      <g>
       <use style="stroke:#000000;stroke-width:0.8;" x="54" xlink:href="#m7ab5a66446" y="117.257546"/>
      </g>
     </g>
     <g id="text_12">
      <text style="font-family:DejaVu Sans;font-size:10px;font-style:normal;font-weight:normal;text-anchor:end;" transform="rotate(-0, 47, 121.056764)" x="47" y="121.056764">−4</text>
     </g>
    </g>
    <g id="ytick_5">
     <g id="line2d_12">
      <g>
       <use style="stroke:#000000;stroke-width:0.8;" x="54" xlink:href="#m7ab5a66446" y="83.340224"/>
      </g>
     </g>
     <g id="text_13">
      <text style="font-family:DejaVu Sans;font-size:10px;font-style:normal;font-weight:normal;text-anchor:end;" transform="rotate(-0, 47, 87.139443)" x="47" y="87.139443">−2</text>
     </g>
    </g>
    <g id="ytick_6">
     <g id="line2d_13">
      <g>
       <use style="stroke:#000000;stroke-width:0.8;" x="54" xlink:href="#m7ab5a66446" y="49.422903"/>
      </g>
     </g>
     <g id="text_14">
      <text style="font-family:DejaVu Sans;font-size:10px;font-style:normal;font-weight:normal;text-anchor:end;" transform="rotate(-0, 47, 53.222121)" x="47" y="53.222121">0</text>
     </g>
    </g>
    <g id="text_15">
     <text style="font-family:DejaVu Sans;font-size:10px;font-style:normal;font-weight:normal;text-anchor:middle;" transform="rotate(-90, 19.815625, 143.28)" x="19.815625" y="143.28">temperature (°C)</text>
    </g>
   </g>
   <g id="line2d_14">
    <path clip-path="url(#p5e20d0e0f4)" d="M 69.218182 44.92639 
L 71.755391 44.510698 
L 72.871763 44.544807 
L 73.785159 44.818172 
L 74.597066 45.320387 
L 75.408973 46.114695 
L 76.22088 47.237908 
L 77.134275 48.919138 
L 78.149159 51.322683 
L 79.265531 54.593992 
L 80.483391 58.862186 
L 82.005717 65.095954 
L 83.933996 74.077014 
L 87.080136 90.040184 
L 90.936694 109.31533 
L 93.06795 118.86733 
L 94.996229 126.589422 
L 96.620043 132.235723 
L 98.142369 136.752035 
L 99.563206 140.330278 
L 100.781066 142.848843 
L 101.998927 144.865346 
L 103.115299 146.283345 
L 104.231671 147.328371 
L 105.246555 148.001206 
L 106.261439 148.405721 
L 107.276322 148.561198 
L 108.291206 148.5042 
L 109.509067 148.186073 
L 111.031392 147.515985 
L 112.655206 146.555158 
L 114.684974 145.089455 
L 121.281718 140.140867 
L 123.615951 138.732196 
L 125.848695 137.682675 
L 127.979951 136.921265 
L 129.806742 136.482053 
L 131.735021 136.255926 
L 133.561812 136.261675 
L 135.388602 136.506355 
L 137.113905 136.983114 
L 138.940695 137.703568 
L 140.564509 138.563254 
L 141.883858 139.488043 
L 143.304696 140.745545 
L 144.725533 142.303741 
L 146.14637 144.203603 
L 147.465719 146.334781 
L 148.785068 148.911378 
L 150.002928 151.759466 
L 151.322277 155.423826 
L 152.844603 159.710042 
L 154.569905 164.381865 
L 155.889254 168.30905 
L 157.310091 173.363714 
L 159.339859 181.522865 
L 161.674091 191.812329 
L 164.211301 203.988461 
L 166.241068 214.802846 
L 168.169347 226.334464 
L 169.488696 233.38401 
L 170.50358 237.749169 
L 171.315487 240.280589 
L 171.924417 241.524506 
L 172.330371 241.982221 
L 172.736324 242.116364 
L 173.040789 241.995957 
L 173.446743 241.527389 
L 173.852696 240.693871 
L 174.360138 239.124347 
L 174.969068 236.466247 
L 175.679487 232.331895 
L 176.592882 225.527402 
L 177.709255 215.263562 
L 179.434557 196.775587 
L 182.073255 168.754062 
L 183.798557 152.815261 
L 185.422371 139.815142 
L 187.046185 128.613845 
L 188.669999 119.010478 
L 190.293813 110.795821 
L 191.917627 103.766354 
L 193.541441 97.744554 
L 195.165255 92.571824 
L 196.789069 88.114274 
L 198.514371 84.00424 
L 200.341162 80.269486 
L 202.167953 77.04054 
L 204.096232 74.092565 
L 206.024511 71.546544 
L 208.054279 69.230788 
L 210.185535 67.145229 
L 212.418279 65.277592 
L 214.752511 63.614841 
L 217.188232 62.146104 
L 220.029907 60.697609 
L 223.074558 59.403402 
L 226.322186 58.248397 
L 231.802558 56.581789 
L 236.471024 55.139703 
L 247.127303 51.693087 
L 258.494001 48.377236 
L 262.452048 47.642058 
L 267.424978 46.966951 
L 280.111025 45.271263 
L 285.38842 44.68867 
L 289.14349 44.4848 
L 292.797072 44.461604 
L 296.450653 44.644385 
L 300.713165 45.069245 
L 305.686095 45.774281 
L 319.792979 48.095116 
L 333.290933 49.891135 
L 338.568329 50.9244 
L 351.964794 53.753629 
L 356.125818 54.334643 
L 361.200236 54.833775 
L 367.796981 55.194508 
L 373.581818 55.3245 
L 373.581818 55.3245 
" style="fill:none;stroke:#40b5c4;stroke-dasharray:5.55,2.4;stroke-dashoffset:0;stroke-width:1.5;"/>
    <defs>
     <path d="M 0 3 
C 0.795609 3 1.55874 2.683901 2.12132 2.12132 
C 2.683901 1.55874 3 0.795609 3 0 
C 3 -0.795609 2.683901 -1.55874 2.12132 -2.12132 
C 1.55874 -2.683901 0.795609 -3 0 -3 
C -0.795609 -3 -1.55874 -2.683901 -2.12132 -2.12132 
C -2.683901 -1.55874 -3 -0.795609 -3 0 
C -3 0.795609 -2.683901 1.55874 -2.12132 2.12132 
C -1.55874 2.683901 -0.795609 3 0 3 
z
" id="m255a1f612b" style="stroke:#40b5c4;"/>
    </defs>
    <g clip-path="url(#p5e20d0e0f4)">
     <use style="fill:#40b5c4;stroke:#40b5c4;" x="69.218182" xlink:href="#m255a1f612b" y="44.92639"/>
     <use style="fill:#40b5c4;stroke:#40b5c4;" x="77.337252" xlink:href="#m255a1f612b" y="49.354392"/>
     <use style="fill:#40b5c4;stroke:#40b5c4;" x="85.456322" xlink:href="#m255a1f612b" y="81.703612"/>
     <use style="fill:#40b5c4;stroke:#40b5c4;" x="93.575392" xlink:href="#m255a1f612b" y="120.995574"/>
     <use style="fill:#40b5c4;stroke:#40b5c4;" x="101.694462" xlink:href="#m255a1f612b" y="144.407242"/>
     <use style="fill:#40b5c4;stroke:#40b5c4;" x="109.813532" xlink:href="#m255a1f612b" y="148.069652"/>
     <use style="fill:#40b5c4;stroke:#40b5c4;" x="117.932602" xlink:href="#m255a1f612b" y="142.552456"/>
     <use style="fill:#40b5c4;stroke:#40b5c4;" x="126.051672" xlink:href="#m255a1f612b" y="137.600375"/>
     <use style="fill:#40b5c4;stroke:#40b5c4;" x="134.170742" xlink:href="#m255a1f612b" y="136.316197"/>
     <use style="fill:#40b5c4;stroke:#40b5c4;" x="142.289812" xlink:href="#m255a1f612b" y="139.818229"/>
     <use style="fill:#40b5c4;stroke:#40b5c4;" x="150.408882" xlink:href="#m255a1f612b" y="152.821723"/>
     <use style="fill:#40b5c4;stroke:#40b5c4;" x="158.527952" xlink:href="#m255a1f612b" y="178.168968"/>
     <use style="fill:#40b5c4;stroke:#40b5c4;" x="166.647022" xlink:href="#m255a1f612b" y="217.132763"/>
     <use style="fill:#40b5c4;stroke:#40b5c4;" x="174.766092" xlink:href="#m255a1f612b" y="237.445948"/>
     <use style="fill:#40b5c4;stroke:#40b5c4;" x="182.885162" xlink:href="#m255a1f612b" y="160.9795"/>
     <use style="fill:#40b5c4;stroke:#40b5c4;" x="191.004232" xlink:href="#m255a1f612b" y="107.585004"/>
     <use style="fill:#40b5c4;stroke:#40b5c4;" x="199.123302" xlink:href="#m255a1f612b" y="82.700035"/>
     <use style="fill:#40b5c4;stroke:#40b5c4;" x="207.242372" xlink:href="#m255a1f612b" y="70.117743"/>
     <use style="fill:#40b5c4;stroke:#40b5c4;" x="215.361442" xlink:href="#m255a1f612b" y="63.224303"/>
     <use style="fill:#40b5c4;stroke:#40b5c4;" x="223.480512" xlink:href="#m255a1f612b" y="59.247447"/>
     <use style="fill:#40b5c4;stroke:#40b5c4;" x="231.599582" xlink:href="#m255a1f612b" y="56.640407"/>
     <use style="fill:#40b5c4;stroke:#40b5c4;" x="239.718652" xlink:href="#m255a1f612b" y="54.034695"/>
     <use style="fill:#40b5c4;stroke:#40b5c4;" x="247.837722" xlink:href="#m255a1f612b" y="51.478343"/>
     <use style="fill:#40b5c4;stroke:#40b5c4;" x="255.956792" xlink:href="#m255a1f612b" y="48.997907"/>
     <use style="fill:#40b5c4;stroke:#40b5c4;" x="264.075862" xlink:href="#m255a1f612b" y="47.401697"/>
     <use style="fill:#40b5c4;stroke:#40b5c4;" x="272.194932" xlink:href="#m255a1f612b" y="46.346463"/>
     <use style="fill:#40b5c4;stroke:#40b5c4;" x="280.314002" xlink:href="#m255a1f612b" y="45.24494"/>
     <use style="fill:#40b5c4;stroke:#40b5c4;" x="288.433072" xlink:href="#m255a1f612b" y="44.511844"/>
     <use style="fill:#40b5c4;stroke:#40b5c4;" x="296.552142" xlink:href="#m255a1f612b" y="44.651875"/>
     <use style="fill:#40b5c4;stroke:#40b5c4;" x="304.671212" xlink:href="#m255a1f612b" y="45.613258"/>
     <use style="fill:#40b5c4;stroke:#40b5c4;" x="312.790282" xlink:href="#m255a1f612b" y="47.055692"/>
     <use style="fill:#40b5c4;stroke:#40b5c4;" x="320.909352" xlink:href="#m255a1f612b" y="48.235474"/>
     <use style="fill:#40b5c4;stroke:#40b5c4;" x="329.028422" xlink:href="#m255a1f612b" y="49.242647"/>
     <use style="fill:#40b5c4;stroke:#40b5c4;" x="337.147492" xlink:href="#m255a1f612b" y="50.621492"/>
     <use style="fill:#40b5c4;stroke:#40b5c4;" x="345.266562" xlink:href="#m255a1f612b" y="52.448808"/>
     <use style="fill:#40b5c4;stroke:#40b5c4;" x="353.385632" xlink:href="#m255a1f612b" y="53.978046"/>
     <use style="fill:#40b5c4;stroke:#40b5c4;" x="361.504702" xlink:href="#m255a1f612b" y="54.856186"/>
     <use style="fill:#40b5c4;stroke:#40b5c4;" x="369.623772" xlink:href="#m255a1f612b" y="55.264022"/>
    </g>
   </g>
   <g id="line2d_15">
    <path clip-path="url(#p5e20d0e0f4)" d="M 69.218182 55.979562 
L 69.522647 56.00717 
L 69.624135 56.024475 
L 69.725624 55.74714 
L 69.827112 55.991482 
L 69.9286 55.798214 
L 70.131577 55.916973 
L 70.233066 55.709699 
L 70.334554 55.8806 
L 70.537531 55.618095 
L 70.639019 55.737112 
L 70.740507 55.550039 
L 70.841996 55.773486 
L 70.943484 55.503186 
L 71.349438 55.681623 
L 71.552414 55.510156 
L 71.755391 55.407247 
L 71.958368 55.49953 
L 72.161345 55.391009 
L 73.176228 55.54957 
L 73.277717 55.365294 
L 73.480694 55.617319 
L 73.582182 55.546562 
L 73.68367 55.790823 
L 73.785159 55.661245 
L 73.988135 55.770655 
L 74.089624 55.638586 
L 74.191112 55.937221 
L 74.292601 55.840361 
L 74.495577 55.926822 
L 74.597066 55.940472 
L 74.901531 56.401226 
L 75.104508 56.36102 
L 75.205996 56.593135 
L 75.307484 56.487283 
L 75.713438 56.995213 
L 75.814926 56.928693 
L 76.119391 57.531333 
L 76.626833 58.00572 
L 76.82981 58.350546 
L 76.931298 58.313154 
L 77.134275 58.768279 
L 77.337252 59.305402 
L 77.43874 59.24823 
L 77.540229 59.637483 
L 77.641717 59.569152 
L 77.946182 60.28476 
L 78.656601 61.760016 
L 80.280415 66.431259 
L 80.58488 67.515095 
L 81.904229 72.497798 
L 82.208694 73.74626 
L 82.310182 73.97464 
L 82.614647 75.457174 
L 85.354833 88.249918 
L 85.659299 89.923892 
L 86.572694 94.579932 
L 86.877159 96.178945 
L 87.790554 101.404049 
L 87.892043 101.617857 
L 88.297996 104.275783 
L 88.70395 106.149753 
L 89.414368 110.146596 
L 89.617345 111.043084 
L 90.124787 113.903124 
L 90.327764 114.854891 
L 92.864973 128.022482 
L 92.966462 128.130583 
L 93.372415 130.433866 
L 93.778369 132.146801 
L 97.533438 147.272911 
L 97.939392 148.160471 
L 98.649811 149.580044 
L 98.751299 149.664855 
L 99.157252 150.55138 
L 99.258741 150.5409 
L 99.563206 151.330613 
L 99.664694 151.371467 
L 100.375113 152.653633 
L 103.521253 157.685486 
L 103.622741 157.704311 
L 104.028694 158.438098 
L 104.33316 158.770066 
L 104.840601 159.549639 
L 105.145067 159.843519 
L 105.652508 160.540723 
L 106.15995 161.233284 
L 106.464415 161.591388 
L 106.667392 161.837089 
L 107.174834 162.454268 
L 108.291206 163.515268 
L 108.595671 162.975638 
L 108.69716 163.037888 
L 109.001625 162.600294 
L 109.30609 162.339811 
L 109.509067 162.031667 
L 109.712043 161.836474 
L 110.016509 161.524674 
L 110.320974 161.115593 
L 110.422462 161.0957 
L 110.625439 160.756665 
L 111.132881 160.259021 
L 111.335857 160.068502 
L 111.843299 159.550496 
L 111.944788 159.573365 
L 112.350741 158.982111 
L 113.162648 158.199675 
L 113.467113 157.897741 
L 113.873067 157.478374 
L 115.598369 155.614674 
L 115.699858 155.578203 
L 116.004323 155.144216 
L 116.714741 154.473294 
L 116.917718 154.244316 
L 117.729625 153.310258 
L 117.831113 153.361041 
L 118.03409 152.986458 
L 118.744509 152.228411 
L 118.845997 152.219241 
L 119.150462 151.710939 
L 119.556416 151.37669 
L 119.860881 151.004533 
L 120.875765 149.81072 
L 120.977253 149.946379 
L 121.078741 149.48459 
L 121.281718 149.559973 
L 121.890648 148.888048 
L 121.992137 149.075752 
L 122.093625 148.590933 
L 122.195114 148.739321 
L 122.499579 148.547427 
L 122.601067 148.264157 
L 122.702555 148.36409 
L 122.905532 148.037055 
L 123.007021 148.18541 
L 123.108509 147.748851 
L 123.209997 147.881891 
L 123.920416 147.125639 
L 124.021904 147.307732 
L 124.123393 146.909584 
L 124.224881 146.950582 
L 124.529346 146.805025 
L 124.630835 146.535437 
L 124.732323 146.611676 
L 124.9353 146.273369 
L 125.036788 146.419023 
L 125.138276 145.99812 
L 125.239765 146.096177 
L 126.051672 145.490092 
L 126.15316 145.148518 
L 126.254649 145.189937 
L 126.356137 145.16013 
L 126.457625 144.979315 
L 126.559114 145.038104 
L 126.76209 144.767562 
L 126.863579 144.736623 
L 126.965067 144.470964 
L 127.066556 144.564639 
L 127.269532 144.306792 
L 127.371021 144.272457 
L 127.472509 144.10568 
L 127.573997 144.178184 
L 127.776974 143.990286 
L 128.081439 143.868341 
L 128.182928 143.626926 
L 128.385904 143.679844 
L 128.791858 143.400762 
L 128.893346 143.427318 
L 129.096323 143.240827 
L 129.400788 143.060789 
L 129.502277 143.109389 
L 129.705253 142.95982 
L 130.111207 142.628273 
L 130.821625 142.301497 
L 131.430556 141.96555 
L 131.532044 142.024679 
L 131.735021 141.891316 
L 132.039486 141.831929 
L 132.140974 141.902767 
L 132.242463 141.731284 
L 132.546928 142.034059 
L 132.648416 141.802057 
L 132.749905 141.957076 
L 132.851393 141.753781 
L 132.952881 141.889327 
L 133.05437 141.785399 
L 133.155858 141.947485 
L 133.257346 141.690172 
L 133.358835 141.915285 
L 133.460323 141.865827 
L 133.561812 142.003476 
L 133.6633 141.83615 
L 133.764788 142.010414 
L 133.967765 141.838592 
L 134.475207 141.946919 
L 134.576695 142.030323 
L 134.779672 141.940725 
L 135.084137 141.866782 
L 135.185626 142.144845 
L 135.287114 141.917711 
L 135.388602 142.105091 
L 135.490091 141.924131 
L 135.794556 142.101905 
L 135.896044 141.979928 
L 136.099021 142.111674 
L 136.403486 142.188949 
L 136.504974 142.108973 
L 136.707951 142.215666 
L 136.80944 142.246056 
L 136.910928 142.126084 
L 137.215393 142.361628 
L 137.519858 142.370604 
L 137.722835 142.43997 
L 137.824323 142.380874 
L 138.128788 142.629793 
L 138.433254 142.598757 
L 138.63623 142.88481 
L 138.737719 143.20675 
L 138.839207 142.910962 
L 139.143672 143.719549 
L 139.448137 143.913771 
L 139.651114 144.290829 
L 139.752602 144.348777 
L 140.158556 145.109169 
L 140.564509 145.665473 
L 140.970463 146.189382 
L 141.071951 146.603089 
L 141.17344 146.550251 
L 141.680882 147.3672 
L 141.78237 147.136783 
L 142.086835 147.861917 
L 142.188323 147.795575 
L 142.492789 148.163997 
L 142.594277 148.355082 
L 142.695765 148.223918 
L 143.101719 148.886139 
L 143.406184 149.13949 
L 143.710649 149.45543 
L 143.913626 149.787706 
L 144.015114 150.106508 
L 144.116603 150.046717 
L 144.624044 150.546027 
L 145.029998 151.198059 
L 145.232975 151.288531 
L 145.53744 151.744983 
L 145.638928 151.695493 
L 145.943393 152.411975 
L 146.044882 152.278402 
L 146.14637 152.505455 
L 146.247858 152.435685 
L 146.450835 152.830614 
L 146.552324 152.816139 
L 146.856789 153.37191 
L 147.059765 153.538395 
L 147.161254 153.582078 
L 147.465719 154.0439 
L 147.567207 154.039096 
L 148.074649 154.778382 
L 148.176138 154.735798 
L 148.683579 155.505708 
L 148.886556 155.606369 
L 149.191021 156.026027 
L 149.29251 155.889478 
L 149.596975 156.593369 
L 149.90144 156.675277 
L 150.104417 156.901021 
L 150.814835 157.652194 
L 150.916324 157.680415 
L 151.1193 157.948589 
L 151.220789 157.862443 
L 151.423765 158.04443 
L 151.525254 158.390129 
L 151.626742 158.263769 
L 151.728231 158.385293 
L 151.829719 158.299738 
L 152.134184 158.586381 
L 152.337161 158.654413 
L 152.540138 158.919472 
L 152.946091 159.075081 
L 153.250556 159.647049 
L 153.960975 161.742541 
L 154.062463 161.819137 
L 154.772882 164.003572 
L 155.077347 164.729596 
L 155.4833 166.024701 
L 157.107114 170.649956 
L 157.41158 171.588429 
L 157.513068 171.618559 
L 157.716045 172.375999 
L 157.919021 172.947093 
L 159.542835 178.262702 
L 160.050277 180.222616 
L 160.456231 181.342081 
L 160.963673 183.134183 
L 161.065161 183.099646 
L 161.369626 184.074274 
L 164.617254 194.258145 
L 165.226184 196.529907 
L 165.327673 196.679201 
L 166.038091 199.136193 
L 167.966371 204.435046 
L 168.067859 204.529901 
L 168.473812 205.391196 
L 169.488696 206.900513 
L 169.590185 206.935916 
L 169.691673 207.193002 
L 169.793161 207.134521 
L 170.199115 207.723138 
L 170.50358 207.689094 
L 171.11251 208.677057 
L 171.213999 208.593086 
L 171.416975 208.674631 
L 171.619952 208.985978 
L 171.72144 208.908331 
L 172.127394 209.484706 
L 172.228882 209.422828 
L 172.431859 209.566056 
L 172.939301 209.97035 
L 173.040789 209.781594 
L 173.243766 209.901 
L 173.345254 209.930111 
L 173.446743 210.088559 
L 173.548231 209.813504 
L 173.751208 210.161176 
L 173.852696 210.244839 
L 174.055673 210.105233 
L 174.360138 210.290091 
L 174.461627 210.147234 
L 174.664603 210.318458 
L 174.766092 210.603977 
L 174.86758 210.367624 
L 175.172045 210.610479 
L 175.273534 210.726844 
L 175.375022 210.329262 
L 175.679487 210.866013 
L 175.882464 210.831111 
L 176.085441 210.906268 
L 176.491394 211.413664 
L 176.897348 211.850401 
L 176.998836 212.025555 
L 177.404789 210.243189 
L 178.521162 203.471052 
L 179.637534 195.760087 
L 183.088138 174.693013 
L 184.204511 166.472896 
L 184.407487 165.125739 
L 185.929813 155.366466 
L 186.234278 153.49789 
L 186.843208 149.742599 
L 187.046185 148.525756 
L 188.061069 142.339665 
L 188.467022 140.12839 
L 189.075953 136.580171 
L 190.293813 129.662105 
L 191.10572 124.670005 
L 191.917627 120.348424 
L 195.977162 107.034887 
L 199.83372 95.480722 
L 200.950092 92.512226 
L 201.457534 91.154661 
L 202.167953 89.296702 
L 203.994744 84.526739 
L 204.299209 83.734001 
L 204.908139 82.459614 
L 207.851302 78.460976 
L 208.561721 77.824033 
L 209.779581 76.688896 
L 209.982558 76.521909 
L 210.287023 76.261378 
L 210.591488 75.971929 
L 210.692976 75.95815 
L 210.997442 75.622721 
L 212.113814 74.620979 
L 212.418279 74.357245 
L 212.925721 74.242562 
L 213.230186 74.132893 
L 213.331674 74.144149 
L 213.534651 74.026102 
L 214.346558 73.822095 
L 214.549535 73.7515 
L 214.854 73.645648 
L 217.391209 72.853104 
L 218.000139 72.665626 
L 218.406093 72.570836 
L 219.015023 72.348246 
L 219.319488 72.252356 
L 221.044791 71.699513 
L 221.146279 71.731374 
L 221.450744 71.547293 
L 221.958186 71.398549 
L 223.379023 70.907018 
L 223.480512 70.961586 
L 223.784977 70.801602 
L 225.408791 70.245282 
L 225.713256 70.114976 
L 227.032605 69.511528 
L 227.743023 69.067982 
L 227.946 68.919142 
L 228.351954 68.681786 
L 232.005535 66.379408 
L 232.512977 66.03075 
L 233.020419 65.726195 
L 241.038001 60.672751 
L 241.849908 60.64626 
L 242.154373 60.584867 
L 242.560326 60.61372 
L 242.96628 60.498665 
L 243.270745 60.513932 
L 243.473722 60.481716 
L 243.676698 60.500476 
L 243.981163 60.425078 
L 244.18414 60.436302 
L 244.387117 60.383189 
L 249.461536 59.817877 
L 249.563024 59.876682 
L 249.867489 59.761239 
L 251.288326 59.536854 
L 251.389815 59.490826 
L 251.491303 59.593072 
L 251.795768 59.43642 
L 252.30321 59.373248 
L 252.404699 59.333624 
L 252.506187 59.427589 
L 252.810652 59.258225 
L 253.622559 59.163095 
L 253.825536 59.082748 
L 254.231489 59.008352 
L 254.332978 58.968663 
L 254.434466 59.056159 
L 254.84042 58.876574 
L 255.652327 58.737777 
L 255.855303 58.674702 
L 256.565722 58.526913 
L 256.870187 58.448021 
L 257.479117 58.320868 
L 258.189536 58.121357 
L 258.392513 58.12346 
L 258.798466 58.022637 
L 259.81335 57.718326 
L 259.914838 57.767071 
L 260.117815 57.639757 
L 260.523769 57.600036 
L 260.726745 57.522276 
L 262.756513 57.002701 
L 262.95949 56.939497 
L 267.019025 55.912153 
L 267.120513 55.926515 
L 267.424978 55.768245 
L 267.93242 55.790629 
L 268.135397 55.646818 
L 268.642839 55.504043 
L 268.744327 55.591992 
L 268.947304 55.448505 
L 270.875583 55.029914 
L 271.383025 54.90095 
L 271.788978 54.847223 
L 271.991955 54.783728 
L 275.747025 53.972391 
L 275.950002 53.88441 
L 276.863397 53.676166 
L 277.979769 53.432438 
L 278.081257 53.462455 
L 278.284234 53.370528 
L 280.009537 53.043735 
L 280.212513 52.952422 
L 280.516978 52.892032 
L 282.851211 52.468622 
L 283.054188 52.39387 
L 283.663118 52.268626 
L 284.272048 52.188505 
L 287.621165 51.673006 
L 287.824141 51.581596 
L 287.92563 51.54071 
L 288.027118 51.663463 
L 288.230095 51.562997 
L 288.433072 51.490929 
L 288.636048 51.460362 
L 288.839025 51.439855 
L 288.940514 51.50335 
L 289.244979 51.370052 
L 289.549444 51.363615 
L 289.752421 51.311538 
L 290.056886 51.289316 
L 290.665816 51.202952 
L 292.695583 51.010623 
L 292.89856 50.98494 
L 293.304514 51.00273 
L 293.50749 50.96605 
L 298.886374 51.069169 
L 298.987863 51.11261 
L 299.089351 51.019809 
L 299.292328 51.099995 
L 299.495304 51.13399 
L 300.104235 51.131953 
L 300.307211 51.28482 
L 300.510188 51.205475 
L 301.01763 51.189238 
L 301.322095 51.288217 
L 302.032514 51.319883 
L 302.235491 51.360025 
L 302.742932 51.423456 
L 302.844421 51.331593 
L 303.148886 51.49135 
L 303.351863 51.449785 
L 304.265258 51.568689 
L 304.468235 51.566425 
L 305.483119 51.665307 
L 306.599491 51.762345 
L 306.802467 51.83176 
L 307.817351 52.005523 
L 307.91884 51.902145 
L 308.223305 52.078884 
L 308.426281 52.000801 
L 308.730747 52.084901 
L 308.832235 51.998795 
L 309.1367 52.182489 
L 309.238188 52.084803 
L 309.441165 52.104955 
L 309.847119 52.170973 
L 311.470933 52.326202 
L 311.775398 52.355864 
L 311.978375 52.401051 
L 313.297723 52.498413 
L 313.399212 52.542856 
L 313.5007 52.458174 
L 313.805165 52.573876 
L 314.211119 52.588949 
L 314.718561 52.695206 
L 315.023026 52.66037 
L 316.139398 52.778336 
L 316.443863 52.763521 
L 316.545351 52.890383 
L 316.849817 52.811911 
L 317.25577 52.840764 
L 317.661724 52.941586 
L 317.763212 52.862533 
L 317.966189 52.958568 
L 318.270654 52.970277 
L 318.372142 53.075758 
L 318.676607 52.988165 
L 322.025724 53.413645 
L 322.127212 53.352188 
L 322.431677 53.515794 
L 322.736142 53.476849 
L 323.852514 53.625027 
L 324.055491 53.642397 
L 325.37484 53.854199 
L 325.476328 53.750432 
L 325.780794 53.925716 
L 326.186747 53.92122 
L 326.288235 53.985039 
L 326.389724 53.888712 
L 326.694189 54.055973 
L 326.998654 54.054162 
L 327.506096 54.092395 
L 327.607584 54.19532 
L 327.810561 54.08088 
L 327.912049 54.253058 
L 328.115026 54.218868 
L 328.216515 54.143793 
L 328.419491 54.249274 
L 328.622468 54.237112 
L 329.028422 54.34615 
L 329.231398 54.333147 
L 329.332887 54.405926 
L 329.535863 54.374162 
L 330.246282 54.519137 
L 330.449259 54.498241 
L 330.855212 54.612811 
L 331.261166 54.617793 
L 332.073073 54.803233 
L 332.174561 54.742939 
L 332.479026 54.928638 
L 332.783491 54.878858 
L 332.986468 54.955162 
L 333.189445 54.952025 
L 333.899864 55.1079 
L 334.10284 55.109453 
L 334.407305 55.188183 
L 334.610282 55.218944 
L 335.117724 55.297448 
L 335.320701 55.343056 
L 335.828143 55.371618 
L 336.132608 55.547419 
L 336.335585 55.458694 
L 336.538561 55.610849 
L 336.843026 55.621944 
L 337.350468 55.767631 
L 339.989166 56.301729 
L 340.598096 56.434769 
L 341.815957 56.72074 
L 341.917445 56.857855 
L 342.120422 56.805875 
L 342.627864 56.900714 
L 343.033817 57.069722 
L 343.236794 57.102101 
L 344.251678 57.403049 
L 344.353166 57.332146 
L 344.657631 57.564391 
L 344.860608 57.502836 
L 346.991864 58.118091 
L 347.093352 58.046185 
L 347.499306 58.214061 
L 348.209724 58.414478 
L 348.51419 58.461412 
L 349.326097 58.712967 
L 349.529073 58.746381 
L 349.935027 58.803213 
L 350.036515 58.969439 
L 350.239492 58.936188 
L 350.442469 58.955401 
L 350.645445 59.001397 
L 350.848422 59.064699 
L 351.051399 59.119105 
L 351.152887 59.168271 
L 351.254376 59.087147 
L 351.457352 59.214914 
L 351.558841 59.167139 
L 351.863306 59.377679 
L 352.066283 59.326022 
L 352.87819 59.546558 
L 353.081166 59.573696 
L 353.48712 59.669635 
L 354.502004 59.918376 
L 355.212422 60.048278 
L 355.313911 60.022207 
L 355.516887 60.101843 
L 356.024329 60.192671 
L 356.227306 60.218354 
L 356.328794 60.338843 
L 356.430283 60.249503 
L 356.63326 60.299284 
L 358.967492 60.769434 
L 359.068981 60.699016 
L 359.373446 60.900565 
L 359.576422 60.844703 
L 359.880888 60.930647 
L 359.982376 60.862946 
L 360.286841 61.025615 
L 360.591306 60.991328 
L 361.098748 61.164024 
L 361.301725 61.12123 
L 361.910655 61.17266 
L 362.012143 61.291241 
L 362.21512 61.276006 
L 362.418097 61.278011 
L 363.635957 61.425477 
L 364.244888 61.470826 
L 364.549353 61.544543 
L 364.75233 61.54726 
L 365.056795 61.52478 
L 365.767213 61.62282 
L 365.868702 61.539206 
L 365.97019 61.717853 
L 366.071678 61.588857 
L 366.376144 61.641128 
L 366.477632 61.630842 
L 366.57912 61.74593 
L 366.883585 61.667943 
L 367.086562 61.75269 
L 367.188051 61.619845 
L 367.492516 61.753272 
L 367.999958 61.707923 
L 368.608888 61.755892 
L 368.710376 61.71174 
L 368.913353 61.783451 
L 369.014841 61.67273 
L 369.11633 61.900059 
L 369.319306 61.740625 
L 369.420795 61.888996 
L 369.522283 61.756895 
L 369.623772 61.855421 
L 369.826748 61.779731 
L 369.928237 61.892522 
L 370.029725 61.737423 
L 370.232702 61.862311 
L 370.33419 61.753305 
L 370.435679 61.966724 
L 370.537167 61.776464 
L 370.740144 61.868974 
L 370.841632 61.747741 
L 370.94312 61.978886 
L 371.146097 61.814568 
L 371.247586 61.957117 
L 371.349074 61.806805 
L 371.450562 61.949872 
L 371.653539 61.766696 
L 371.755027 61.992601 
L 371.958004 61.874991 
L 372.262469 62.006865 
L 372.363958 61.847464 
L 372.566934 62.036203 
L 372.668423 61.838569 
L 372.769911 62.075957 
L 372.972888 61.928717 
L 373.074376 62.141134 
L 373.175865 62.00334 
L 373.277353 62.105618 
L 373.48033 61.964169 
L 373.581818 62.232091 
L 373.581818 62.232091 
" style="fill:none;stroke:#081d58;stroke-dasharray:5.55,2.4;stroke-dashoffset:0;stroke-width:1.5;"/>
    <defs>
     <path d="M -0 4.242641 
L 4.242641 0 
L 0 -4.242641 
L -4.242641 -0 
z
" id="m96e3188d6f" style="stroke:#081d58;stroke-linejoin:miter;"/>
    </defs>
    <g clip-path="url(#p5e20d0e0f4)">
     <use style="fill:#081d58;stroke:#081d58;stroke-linejoin:miter;" x="69.218182" xlink:href="#m96e3188d6f" y="55.979562"/>
     <use style="fill:#081d58;stroke:#081d58;stroke-linejoin:miter;" x="77.337252" xlink:href="#m96e3188d6f" y="59.305402"/>
     <use style="fill:#081d58;stroke:#081d58;stroke-linejoin:miter;" x="85.456322" xlink:href="#m96e3188d6f" y="89.005328"/>
     <use style="fill:#081d58;stroke:#081d58;stroke-linejoin:miter;" x="93.575392" xlink:href="#m96e3188d6f" y="131.2535"/>
     <use style="fill:#081d58;stroke:#081d58;stroke-linejoin:miter;" x="101.694462" xlink:href="#m96e3188d6f" y="154.823359"/>
     <use style="fill:#081d58;stroke:#081d58;stroke-linejoin:miter;" x="109.813532" xlink:href="#m96e3188d6f" y="161.764941"/>
     <use style="fill:#081d58;stroke:#081d58;stroke-linejoin:miter;" x="117.932602" xlink:href="#m96e3188d6f" y="153.067598"/>
     <use style="fill:#081d58;stroke:#081d58;stroke-linejoin:miter;" x="126.051672" xlink:href="#m96e3188d6f" y="145.490092"/>
     <use style="fill:#081d58;stroke:#081d58;stroke-linejoin:miter;" x="134.170742" xlink:href="#m96e3188d6f" y="141.881887"/>
     <use style="fill:#081d58;stroke:#081d58;stroke-linejoin:miter;" x="142.289812" xlink:href="#m96e3188d6f" y="147.886435"/>
     <use style="fill:#081d58;stroke:#081d58;stroke-linejoin:miter;" x="150.408882" xlink:href="#m96e3188d6f" y="157.293362"/>
     <use style="fill:#081d58;stroke:#081d58;stroke-linejoin:miter;" x="158.527952" xlink:href="#m96e3188d6f" y="174.749093"/>
     <use style="fill:#081d58;stroke:#081d58;stroke-linejoin:miter;" x="166.647022" xlink:href="#m96e3188d6f" y="200.824739"/>
     <use style="fill:#081d58;stroke:#081d58;stroke-linejoin:miter;" x="174.766092" xlink:href="#m96e3188d6f" y="210.603977"/>
     <use style="fill:#081d58;stroke:#081d58;stroke-linejoin:miter;" x="182.885162" xlink:href="#m96e3188d6f" y="176.131387"/>
     <use style="fill:#081d58;stroke:#081d58;stroke-linejoin:miter;" x="191.004232" xlink:href="#m96e3188d6f" y="125.286974"/>
     <use style="fill:#081d58;stroke:#081d58;stroke-linejoin:miter;" x="199.123302" xlink:href="#m96e3188d6f" y="97.424673"/>
     <use style="fill:#081d58;stroke:#081d58;stroke-linejoin:miter;" x="207.242372" xlink:href="#m96e3188d6f" y="79.26856"/>
     <use style="fill:#081d58;stroke:#081d58;stroke-linejoin:miter;" x="215.361442" xlink:href="#m96e3188d6f" y="73.486667"/>
     <use style="fill:#081d58;stroke:#081d58;stroke-linejoin:miter;" x="223.480512" xlink:href="#m96e3188d6f" y="70.961586"/>
     <use style="fill:#081d58;stroke:#081d58;stroke-linejoin:miter;" x="231.599582" xlink:href="#m96e3188d6f" y="66.628716"/>
     <use style="fill:#081d58;stroke:#081d58;stroke-linejoin:miter;" x="239.718652" xlink:href="#m96e3188d6f" y="61.50521"/>
     <use style="fill:#081d58;stroke:#081d58;stroke-linejoin:miter;" x="247.837722" xlink:href="#m96e3188d6f" y="60.03149"/>
     <use style="fill:#081d58;stroke:#081d58;stroke-linejoin:miter;" x="255.956792" xlink:href="#m96e3188d6f" y="58.668265"/>
     <use style="fill:#081d58;stroke:#081d58;stroke-linejoin:miter;" x="264.075862" xlink:href="#m96e3188d6f" y="56.612543"/>
     <use style="fill:#081d58;stroke:#081d58;stroke-linejoin:miter;" x="272.194932" xlink:href="#m96e3188d6f" y="54.67401"/>
     <use style="fill:#081d58;stroke:#081d58;stroke-linejoin:miter;" x="280.314002" xlink:href="#m96e3188d6f" y="52.968919"/>
     <use style="fill:#081d58;stroke:#081d58;stroke-linejoin:miter;" x="288.433072" xlink:href="#m96e3188d6f" y="51.490929"/>
     <use style="fill:#081d58;stroke:#081d58;stroke-linejoin:miter;" x="296.552142" xlink:href="#m96e3188d6f" y="51.076156"/>
     <use style="fill:#081d58;stroke:#081d58;stroke-linejoin:miter;" x="304.671212" xlink:href="#m96e3188d6f" y="51.559633"/>
     <use style="fill:#081d58;stroke:#081d58;stroke-linejoin:miter;" x="312.790282" xlink:href="#m96e3188d6f" y="52.496828"/>
     <use style="fill:#081d58;stroke:#081d58;stroke-linejoin:miter;" x="320.909352" xlink:href="#m96e3188d6f" y="53.218372"/>
     <use style="fill:#081d58;stroke:#081d58;stroke-linejoin:miter;" x="329.028422" xlink:href="#m96e3188d6f" y="54.34615"/>
     <use style="fill:#081d58;stroke:#081d58;stroke-linejoin:miter;" x="337.147492" xlink:href="#m96e3188d6f" y="55.642613"/>
     <use style="fill:#081d58;stroke:#081d58;stroke-linejoin:miter;" x="345.266562" xlink:href="#m96e3188d6f" y="57.572089"/>
     <use style="fill:#081d58;stroke:#081d58;stroke-linejoin:miter;" x="353.385632" xlink:href="#m96e3188d6f" y="59.598085"/>
     <use style="fill:#081d58;stroke:#081d58;stroke-linejoin:miter;" x="361.504702" xlink:href="#m96e3188d6f" y="61.121295"/>
     <use style="fill:#081d58;stroke:#081d58;stroke-linejoin:miter;" x="369.623772" xlink:href="#m96e3188d6f" y="61.855421"/>
    </g>
   </g>
   <g id="patch_3">
    <path d="M 54 252 
L 54 34.56 
" style="fill:none;stroke:#000000;stroke-linecap:square;stroke-linejoin:miter;stroke-width:0.8;"/>
   </g>
   <g id="patch_4">
    <path d="M 388.8 252 
L 388.8 34.56 
" style="fill:none;stroke:#000000;stroke-linecap:square;stroke-linejoin:miter;stroke-width:0.8;"/>
   </g>
   <g id="patch_5">
    <path d="M 54 252 
L 388.8 252 
" style="fill:none;stroke:#000000;stroke-linecap:square;stroke-linejoin:miter;stroke-width:0.8;"/>
   </g>
   <g id="patch_6">
    <path d="M 54 34.56 
L 388.8 34.56 
" style="fill:none;stroke:#000000;stroke-linecap:square;stroke-linejoin:miter;stroke-width:0.8;"/>
   </g>
   <g id="legend_1">
    <g id="patch_7">
     <path d="M 61 247 
L 162.714063 247 
Q 164.714063 247 164.714063 245 
L 164.714063 216.64375 
Q 164.714063 214.64375 162.714063 214.64375 
L 61 214.64375 
Q 59 214.64375 59 216.64375 
L 59 245 
Q 59 247 61 247 
z
" style="fill:#ffffff;opacity:0.8;stroke:#cccccc;stroke-linejoin:miter;"/>
    </g>
    <g id="line2d_16">
     <path d="M 63 222.742188 
L 83 222.742188 
" style="fill:none;stroke:#40b5c4;stroke-dasharray:5.55,2.4;stroke-dashoffset:0;stroke-width:1.5;"/>
    </g>
    <g id="line2d_17">
     <g>
      <use style="fill:#40b5c4;stroke:#40b5c4;" x="73" xlink:href="#m255a1f612b" y="222.742188"/>
     </g>
    </g>
    <g id="text_16">
     <text style="font-family:DejaVu Sans;font-size:10px;font-style:normal;font-weight:normal;text-anchor:start;" transform="rotate(-0, 91, 226.242188)" x="91" y="226.242188">original</text>
    </g>
    <g id="line2d_18">
     <path d="M 63 237.420312 
L 83 237.420312 
" style="fill:none;stroke:#081d58;stroke-dasharray:5.55,2.4;stroke-dashoffset:0;stroke-width:1.5;"/>
    </g>
    <g id="line2d_19">
     <g>
      <use style="fill:#081d58;stroke:#081d58;stroke-linejoin:miter;" x="73" xlink:href="#m96e3188d6f" y="237.420312"/>
     </g>
    </g>
    <g id="text_17">
     <text style="font-family:DejaVu Sans;font-size:10px;font-style:normal;font-weight:normal;text-anchor:start;" transform="rotate(-0, 91, 240.920312)" x="91" y="240.920312">reconstructed</text>
    </g>
   </g>
  </g>
  <g id="text_18">
   <text style="font-family:DejaVu Sans;font-size:12px;font-style:normal;font-weight:normal;text-anchor:middle;" transform="rotate(-0, 216, 14.878125)" x="216" y="14.878125">Reconstruction of the temperature curve</text>
  </g>
 </g>
 <defs>
  <clipPath id="p5e20d0e0f4">
   <rect height="217.44" width="334.8" x="54" y="34.56"/>
  </clipPath>
 </defs>
</svg>
