<?xml version="1.0" encoding="utf-8" standalone="no"?>
<!DOCTYPE svg PUBLIC "-//W3C//DTD SVG 1.1//EN"
  "http://www.w3.org/Graphics/SVG/1.1/DTD/svg11.dtd">
<!-- Created with matplotlib (https://matplotlib.org/) -->
<svg height="288pt" version="1.1" viewBox="0 0 432 288" width="432pt" xmlns="http://www.w3.org/2000/svg" xmlns:xlink="http://www.w3.org/1999/xlink">
 <defs>
  <style type="text/css">
*{stroke-linecap:butt;stroke-linejoin:round;}
  </style>
 </defs>
 <g id="figure_1">
  <g id="patch_1">
   <path d="M 0 288 
L 432 288 
L 432 0 
L 0 0 
z
" style="fill:#ffffff;"/>
  </g>
  <g id="axes_1">
   <g id="patch_2">
    <path d="M 54 252 
L 388.8 252 
L 388.8 34.56 
L 54 34.56 
z
" style="fill:#ffffff;"/>
   </g>
   <g id="matplotlib.axis_1">
    <g id="xtick_1">
     <g id="line2d_1">
      <defs>
       <path d="M 0 0 
L 0 3.5 
" id="m2c6b831f7f" style="stroke:#000000;stroke-width:0.8;"/>
      </defs>
      <g>
       <use style="stroke:#000000;stroke-width:0.8;" x="69.218182" xlink:href="#m2c6b831f7f" y="252"/>
      </g>
     </g>
     <g id="text_1">
      <text style="font-family:DejaVu Sans;font-size:10px;font-style:normal;font-weight:normal;text-anchor:middle;" transform="rotate(-0, 69.218182, 266.598437)" x="69.218182" y="266.598437">0</text>
     </g>
    </g>
    <g id="xtick_2">
     <g id="line2d_2">
      <g>
       <use style="stroke:#000000;stroke-width:0.8;" x="119.962369" xlink:href="#m2c6b831f7f" y="252"/>
      </g>
     </g>
     <g id="text_2">
      <text style="font-family:DejaVu Sans;font-size:10px;font-style:normal;font-weight:normal;text-anchor:middle;" transform="rotate(-0, 119.962369, 266.598437)" x="119.962369" y="266.598437">500</text>
     </g>
    </g>
    <g id="xtick_3">
     <g id="line2d_3">
      <g>
       <use style="stroke:#000000;stroke-width:0.8;" x="170.706557" xlink:href="#m2c6b831f7f" y="252"/>
      </g>
     </g>
     <g id="text_3">
      <text style="font-family:DejaVu Sans;font-size:10px;font-style:normal;font-weight:normal;text-anchor:middle;" transform="rotate(-0, 170.706557, 266.598437)" x="170.706557" y="266.598437">1000</text>
     </g>
    </g>
    <g id="xtick_4">
     <g id="line2d_4">
      <g>
       <use style="stroke:#000000;stroke-width:0.8;" x="221.450744" xlink:href="#m2c6b831f7f" y="252"/>
      </g>
     </g>
     <g id="text_4">
      <text style="font-family:DejaVu Sans;font-size:10px;font-style:normal;font-weight:normal;text-anchor:middle;" transform="rotate(-0, 221.450744, 266.598437)" x="221.450744" y="266.598437">1500</text>
     </g>
    </g>
    <g id="xtick_5">
     <g id="line2d_5">
      <g>
       <use style="stroke:#000000;stroke-width:0.8;" x="272.194932" xlink:href="#m2c6b831f7f" y="252"/>
      </g>
     </g>
     <g id="text_5">
      <text style="font-family:DejaVu Sans;font-size:10px;font-style:normal;font-weight:normal;text-anchor:middle;" transform="rotate(-0, 272.194932, 266.598437)" x="272.194932" y="266.598437">2000</text>
     </g>
    </g>
    <g id="xtick_6">
     <g id="line2d_6">
      <g>
       <use style="stroke:#000000;stroke-width:0.8;" x="322.939119" xlink:href="#m2c6b831f7f" y="252"/>
      </g>
     </g>
     <g id="text_6">
      <text style="font-family:DejaVu Sans;font-size:10px;font-style:normal;font-weight:normal;text-anchor:middle;" transform="rotate(-0, 322.939119, 266.598437)" x="322.939119" y="266.598437">2500</text>
     </g>
    </g>
    <g id="xtick_7">
     <g id="line2d_7">
      <g>
       <use style="stroke:#000000;stroke-width:0.8;" x="373.683307" xlink:href="#m2c6b831f7f" y="252"/>
      </g>
     </g>
     <g id="text_7">
      <text style="font-family:DejaVu Sans;font-size:10px;font-style:normal;font-weight:normal;text-anchor:middle;" transform="rotate(-0, 373.683307, 266.598437)" x="373.683307" y="266.598437">3000</text>
     </g>
    </g>
    <g id="text_8">
     <text style="font-family:DejaVu Sans;font-size:10px;font-style:normal;font-weight:normal;text-anchor:middle;" transform="rotate(-0, 221.4, 280.276563)" x="221.4" y="280.276563">Time</text>
    </g>
   </g>
   <g id="matplotlib.axis_2">
    <g id="ytick_1">
     <g id="line2d_8">
      <defs>
       <path d="M 0 0 
L -3.5 0 
" id="m923e3ea435" style="stroke:#000000;stroke-width:0.8;"/>
      </defs>
      <g>
       <use style="stroke:#000000;stroke-width:0.8;" x="54" xlink:href="#m923e3ea435" y="210.933979"/>
      </g>
     </g>
     <g id="text_9">
      <text style="font-family:DejaVu Sans;font-size:10px;font-style:normal;font-weight:normal;text-anchor:end;" transform="rotate(-0, 47, 214.733198)" x="47" y="214.733198">−8</text>
     </g>
    </g>
    <g id="ytick_2">
     <g id="line2d_9">
      <g>
       <use style="stroke:#000000;stroke-width:0.8;" x="54" xlink:href="#m923e3ea435" y="169.773581"/>
      </g>
     </g>
     <g id="text_10">
      <text style="font-family:DejaVu Sans;font-size:10px;font-style:normal;font-weight:normal;text-anchor:end;" transform="rotate(-0, 47, 173.5728)" x="47" y="173.5728">−6</text>
     </g>
    </g>
    <g id="ytick_3">
     <g id="line2d_10">
      <g>
       <use style="stroke:#000000;stroke-width:0.8;" x="54" xlink:href="#m923e3ea435" y="128.613184"/>
      </g>
     </g>
     <g id="text_11">
      <text style="font-family:DejaVu Sans;font-size:10px;font-style:normal;font-weight:normal;text-anchor:end;" transform="rotate(-0, 47, 132.412402)" x="47" y="132.412402">−4</text>
     </g>
    </g>
    <g id="ytick_4">
     <g id="line2d_11">
      <g>
       <use style="stroke:#000000;stroke-width:0.8;" x="54" xlink:href="#m923e3ea435" y="87.452786"/>
      </g>
     </g>
     <g id="text_12">
      <text style="font-family:DejaVu Sans;font-size:10px;font-style:normal;font-weight:normal;text-anchor:end;" transform="rotate(-0, 47, 91.252004)" x="47" y="91.252004">−2</text>
     </g>
    </g>
    <g id="ytick_5">
     <g id="line2d_12">
      <g>
       <use style="stroke:#000000;stroke-width:0.8;" x="54" xlink:href="#m923e3ea435" y="46.292388"/>
      </g>
     </g>
     <g id="text_13">
      <text style="font-family:DejaVu Sans;font-size:10px;font-style:normal;font-weight:normal;text-anchor:end;" transform="rotate(-0, 47, 50.091607)" x="47" y="50.091607">0</text>
     </g>
    </g>
    <g id="text_14">
     <text style="font-family:DejaVu Sans;font-size:10px;font-style:normal;font-weight:normal;text-anchor:middle;" transform="rotate(-90, 26.178125, 143.28)" x="26.178125" y="143.28">temperature (°C)</text>
    </g>
   </g>
   <g id="line2d_13">
    <path clip-path="url(#pc230911e22)" d="M 69.218182 47.914935 
L 71.552414 46.511512 
L 72.567298 46.128059 
L 73.379205 46.050745 
L 74.089624 46.216397 
L 74.698554 46.572828 
L 75.408973 47.269656 
L 76.119391 48.296391 
L 76.931298 49.894863 
L 77.844694 52.252014 
L 78.859577 55.551724 
L 79.97595 59.959797 
L 81.295298 66.11937 
L 82.919112 74.874292 
L 85.050368 87.690919 
L 92.154555 131.418841 
L 94.28581 142.511095 
L 95.909624 149.873435 
L 97.43195 155.765978 
L 98.852787 160.374975 
L 100.070648 163.646445 
L 101.18702 166.051406 
L 102.201904 167.753861 
L 103.216787 169.017156 
L 104.130183 169.809659 
L 105.043578 170.331181 
L 105.956974 170.580613 
L 106.870369 170.570385 
L 107.783764 170.3297 
L 108.798648 169.830362 
L 110.016509 168.958359 
L 111.843299 167.304081 
L 113.771578 165.216961 
L 121.281718 156.753519 
L 123.412974 154.818177 
L 125.442742 153.324569 
L 127.371021 152.180043 
L 129.197811 151.351978 
L 130.821625 150.875135 
L 132.445439 150.620393 
L 133.967765 150.599586 
L 135.388602 150.798 
L 136.910928 151.260087 
L 138.433254 151.944914 
L 139.955579 152.863367 
L 141.376416 153.969512 
L 142.797254 155.391891 
L 144.522556 157.502226 
L 145.841905 159.203015 
L 147.567207 160.298869 
L 148.785068 161.630882 
L 149.596975 162.893127 
L 150.814835 165.229103 
L 151.728231 167.316923 
L 152.844603 170.54042 
L 156.498184 182.376648 
L 160.253254 196.018871 
L 163.196417 206.706683 
L 165.226184 215.034769 
L 168.473812 228.511342 
L 169.590185 232.095734 
L 170.402092 234.029799 
L 171.011022 235.027795 
L 171.518464 235.523695 
L 172.025906 235.706879 
L 172.736324 235.796547 
L 173.243766 236.888759 
L 173.64972 237.740553 
L 174.969068 238.250921 
L 175.375022 237.813736 
L 175.882464 237.039941 
L 176.288417 236.116178 
L 176.694371 234.577315 
L 177.303301 231.239227 
L 178.01372 226.011609 
L 178.927115 217.572369 
L 180.246464 203.10379 
L 183.494092 166.744588 
L 185.117906 151.433496 
L 186.640232 139.221412 
L 188.061069 129.547483 
L 189.481906 121.356358 
L 190.902743 114.448656 
L 192.323581 108.638372 
L 193.744418 103.750698 
L 195.165255 99.634164 
L 196.687581 95.909333 
L 198.209906 92.780176 
L 199.935209 89.743403 
L 201.660511 87.172936 
L 203.58879 84.698003 
L 205.720046 82.325167 
L 208.054279 80.060872 
L 210.794465 77.723949 
L 213.839116 75.436522 
L 217.086744 73.266916 
L 221.044791 70.895645 
L 226.220698 68.079595 
L 241.951396 59.913454 
L 246.518373 57.769736 
L 251.288326 55.711813 
L 257.580606 53.224741 
L 264.684792 50.664548 
L 271.586001 48.342306 
L 276.152978 47.029844 
L 279.80656 46.211468 
L 283.358653 45.654886 
L 288.331583 45.09873 
L 292.89856 44.72523 
L 297.668514 44.568697 
L 301.829537 44.627709 
L 306.498002 44.957807 
L 316.951305 45.888758 
L 322.025724 45.82741 
L 331.870096 45.714591 
L 335.016236 45.970431 
L 338.162375 46.454916 
L 341.61298 47.213113 
L 344.454655 48.08035 
L 347.397817 49.223263 
L 358.257074 53.73555 
L 361.60619 54.665162 
L 364.853818 55.288618 
L 368.913353 55.817859 
L 373.581818 56.204182 
L 373.581818 56.204182 
" style="fill:none;stroke:#40b5c4;stroke-dasharray:5.55,2.4;stroke-dashoffset:0;stroke-width:1.5;"/>
    <defs>
     <path d="M 0 3 
C 0.795609 3 1.55874 2.683901 2.12132 2.12132 
C 2.683901 1.55874 3 0.795609 3 0 
C 3 -0.795609 2.683901 -1.55874 2.12132 -2.12132 
C 1.55874 -2.683901 0.795609 -3 0 -3 
C -0.795609 -3 -1.55874 -2.683901 -2.12132 -2.12132 
C -2.683901 -1.55874 -3 -0.795609 -3 0 
C -3 0.795609 -2.683901 1.55874 -2.12132 2.12132 
C -1.55874 2.683901 -0.795609 3 0 3 
z
" id="mfe0a74a0da" style="stroke:#40b5c4;"/>
    </defs>
    <g clip-path="url(#pc230911e22)">
     <use style="fill:#40b5c4;stroke:#40b5c4;" x="69.218182" xlink:href="#mfe0a74a0da" y="47.914935"/>
     <use style="fill:#40b5c4;stroke:#40b5c4;" x="77.337252" xlink:href="#mfe0a74a0da" y="50.870054"/>
     <use style="fill:#40b5c4;stroke:#40b5c4;" x="85.456322" xlink:href="#mfe0a74a0da" y="90.236052"/>
     <use style="fill:#40b5c4;stroke:#40b5c4;" x="93.575392" xlink:href="#mfe0a74a0da" y="138.96667"/>
     <use style="fill:#40b5c4;stroke:#40b5c4;" x="101.694462" xlink:href="#mfe0a74a0da" y="166.958622"/>
     <use style="fill:#40b5c4;stroke:#40b5c4;" x="109.813532" xlink:href="#mfe0a74a0da" y="169.122198"/>
     <use style="fill:#40b5c4;stroke:#40b5c4;" x="117.932602" xlink:href="#mfe0a74a0da" y="160.322722"/>
     <use style="fill:#40b5c4;stroke:#40b5c4;" x="126.051672" xlink:href="#mfe0a74a0da" y="152.933793"/>
     <use style="fill:#40b5c4;stroke:#40b5c4;" x="134.170742" xlink:href="#mfe0a74a0da" y="150.614137"/>
     <use style="fill:#40b5c4;stroke:#40b5c4;" x="142.289812" xlink:href="#mfe0a74a0da" y="154.84773"/>
     <use style="fill:#40b5c4;stroke:#40b5c4;" x="150.408882" xlink:href="#mfe0a74a0da" y="164.422812"/>
     <use style="fill:#40b5c4;stroke:#40b5c4;" x="158.527952" xlink:href="#mfe0a74a0da" y="189.924683"/>
     <use style="fill:#40b5c4;stroke:#40b5c4;" x="166.647022" xlink:href="#mfe0a74a0da" y="221.164293"/>
     <use style="fill:#40b5c4;stroke:#40b5c4;" x="174.766092" xlink:href="#mfe0a74a0da" y="238.254193"/>
     <use style="fill:#40b5c4;stroke:#40b5c4;" x="182.885162" xlink:href="#mfe0a74a0da" y="173.093126"/>
     <use style="fill:#40b5c4;stroke:#40b5c4;" x="191.004232" xlink:href="#mfe0a74a0da" y="113.999596"/>
     <use style="fill:#40b5c4;stroke:#40b5c4;" x="199.123302" xlink:href="#mfe0a74a0da" y="91.113468"/>
     <use style="fill:#40b5c4;stroke:#40b5c4;" x="207.242372" xlink:href="#mfe0a74a0da" y="80.815836"/>
     <use style="fill:#40b5c4;stroke:#40b5c4;" x="215.361442" xlink:href="#mfe0a74a0da" y="74.389422"/>
     <use style="fill:#40b5c4;stroke:#40b5c4;" x="223.480512" xlink:href="#mfe0a74a0da" y="69.545461"/>
     <use style="fill:#40b5c4;stroke:#40b5c4;" x="231.599582" xlink:href="#mfe0a74a0da" y="65.265045"/>
     <use style="fill:#40b5c4;stroke:#40b5c4;" x="239.718652" xlink:href="#mfe0a74a0da" y="61.034493"/>
     <use style="fill:#40b5c4;stroke:#40b5c4;" x="247.837722" xlink:href="#mfe0a74a0da" y="57.181692"/>
     <use style="fill:#40b5c4;stroke:#40b5c4;" x="255.956792" xlink:href="#mfe0a74a0da" y="53.842779"/>
     <use style="fill:#40b5c4;stroke:#40b5c4;" x="264.075862" xlink:href="#mfe0a74a0da" y="50.878996"/>
     <use style="fill:#40b5c4;stroke:#40b5c4;" x="272.194932" xlink:href="#mfe0a74a0da" y="48.153496"/>
     <use style="fill:#40b5c4;stroke:#40b5c4;" x="280.314002" xlink:href="#mfe0a74a0da" y="46.119211"/>
     <use style="fill:#40b5c4;stroke:#40b5c4;" x="288.433072" xlink:href="#mfe0a74a0da" y="45.088013"/>
     <use style="fill:#40b5c4;stroke:#40b5c4;" x="296.552142" xlink:href="#mfe0a74a0da" y="44.587444"/>
     <use style="fill:#40b5c4;stroke:#40b5c4;" x="304.671212" xlink:href="#mfe0a74a0da" y="44.793918"/>
     <use style="fill:#40b5c4;stroke:#40b5c4;" x="312.790282" xlink:href="#mfe0a74a0da" y="45.676335"/>
     <use style="fill:#40b5c4;stroke:#40b5c4;" x="320.909352" xlink:href="#mfe0a74a0da" y="45.851853"/>
     <use style="fill:#40b5c4;stroke:#40b5c4;" x="329.028422" xlink:href="#mfe0a74a0da" y="45.658941"/>
     <use style="fill:#40b5c4;stroke:#40b5c4;" x="337.147492" xlink:href="#mfe0a74a0da" y="46.277941"/>
     <use style="fill:#40b5c4;stroke:#40b5c4;" x="345.266562" xlink:href="#mfe0a74a0da" y="48.370943"/>
     <use style="fill:#40b5c4;stroke:#40b5c4;" x="353.385632" xlink:href="#mfe0a74a0da" y="51.887835"/>
     <use style="fill:#40b5c4;stroke:#40b5c4;" x="361.504702" xlink:href="#mfe0a74a0da" y="54.641482"/>
     <use style="fill:#40b5c4;stroke:#40b5c4;" x="369.623772" xlink:href="#mfe0a74a0da" y="55.877175"/>
    </g>
   </g>
   <g id="line2d_14">
    <path clip-path="url(#pc230911e22)" d="M 69.218182 45.039781 
L 69.421159 45.121762 
L 69.624135 45.117817 
L 69.725624 44.79684 
L 69.827112 45.020821 
L 69.9286 44.860981 
L 70.131577 44.963236 
L 70.537531 44.706734 
L 70.841996 44.753406 
L 71.044973 44.666342 
L 71.146461 44.594802 
L 71.247949 44.884023 
L 71.450926 44.65221 
L 71.552414 44.723475 
L 71.653903 44.517649 
L 71.755391 44.71851 
L 71.85688 44.521614 
L 71.958368 44.770835 
L 72.161345 44.473194 
L 72.262833 44.706812 
L 72.364321 44.443636 
L 72.567298 44.826143 
L 72.668787 44.564243 
L 72.770275 44.756507 
L 72.871763 44.540082 
L 73.07474 44.833405 
L 73.277717 44.649816 
L 73.785159 44.956053 
L 73.886647 44.804083 
L 74.089624 44.990537 
L 74.597066 45.143312 
L 74.901531 45.825246 
L 75.003019 45.717377 
L 75.408973 46.164515 
L 75.713438 46.601231 
L 75.814926 46.611103 
L 76.119391 47.630127 
L 76.322368 47.605829 
L 76.82981 48.775724 
L 76.931298 48.671682 
L 77.235763 49.740598 
L 77.337252 50.199649 
L 77.43874 50.106108 
L 77.540229 50.61087 
L 77.641717 50.574737 
L 78.149159 52.107316 
L 78.859577 54.341337 
L 79.265531 55.88475 
L 79.569996 57.019198 
L 79.772973 57.915182 
L 80.58488 61.206126 
L 81.092322 63.671979 
L 81.19381 63.961946 
L 81.80274 67.071303 
L 84.136973 80.305914 
L 84.94888 85.424684 
L 85.253345 87.418022 
L 88.500973 109.973168 
L 91.241159 126.932241 
L 91.647113 129.214843 
L 95.808136 150.766883 
L 96.112601 152.161054 
L 96.417066 153.849548 
L 96.620043 154.579155 
L 97.025997 156.291839 
L 97.330462 157.345181 
L 97.533438 157.661682 
L 98.04088 158.940958 
L 98.243857 159.309157 
L 98.649811 160.359554 
L 98.751299 160.472644 
L 99.157252 161.527938 
L 99.258741 161.531372 
L 99.563206 162.467228 
L 99.664694 162.525264 
L 100.375113 164.064428 
L 102.506369 168.175832 
L 102.709346 168.571165 
L 105.043578 172.499696 
L 105.145067 172.52105 
L 105.652508 173.329655 
L 105.956974 173.685214 
L 106.464415 173.246417 
L 106.565904 173.250725 
L 106.768881 173.010856 
L 107.580788 172.247796 
L 107.682276 172.275862 
L 107.986741 171.913247 
L 108.291206 171.771904 
L 108.595671 171.392803 
L 108.69716 171.446256 
L 109.001625 171.125172 
L 109.30609 170.945086 
L 109.509067 170.735697 
L 109.712043 170.602304 
L 110.016509 170.388921 
L 110.320974 170.099043 
L 110.422462 170.092802 
L 110.625439 169.855494 
L 111.640323 169.152844 
L 111.843299 169.035192 
L 111.944788 169.053376 
L 112.147764 168.706344 
L 112.350741 168.399401 
L 113.162648 167.504664 
L 113.365625 167.268131 
L 114.076044 166.472323 
L 114.380509 166.073143 
L 114.481997 166.045165 
L 114.786462 165.66733 
L 114.887951 165.6494 
L 115.192416 165.087976 
L 115.293904 165.145943 
L 115.496881 164.845153 
L 115.902834 164.537807 
L 116.207299 163.96122 
L 116.410276 163.850378 
L 116.917718 163.348275 
L 117.729625 162.360134 
L 117.831113 162.442861 
L 118.03409 162.02325 
L 118.744509 161.210278 
L 118.845997 161.208649 
L 119.150462 160.634741 
L 119.556416 160.270144 
L 119.759393 159.987587 
L 120.875765 158.557018 
L 120.977253 158.705505 
L 121.078741 158.194374 
L 121.281718 158.266708 
L 121.890648 157.424748 
L 121.992137 157.633027 
L 122.093625 157.058688 
L 122.195114 157.221689 
L 122.499579 156.968954 
L 122.601067 156.629519 
L 122.702555 156.735876 
L 122.905532 156.336049 
L 123.007021 156.498814 
L 123.108509 155.980558 
L 123.209997 156.126336 
L 123.412974 155.958763 
L 123.514462 155.997957 
L 123.717439 155.717628 
L 123.818928 155.711386 
L 123.920416 155.464834 
L 124.021904 155.67965 
L 124.123393 155.2752 
L 124.326369 155.308644 
L 124.529346 155.25679 
L 124.630835 154.990337 
L 124.732323 155.086645 
L 124.9353 154.778367 
L 125.036788 154.945921 
L 125.138276 154.527556 
L 125.239765 154.647034 
L 126.051672 154.176462 
L 126.15316 153.846938 
L 126.356137 153.896505 
L 126.457625 153.739069 
L 126.559114 153.821158 
L 126.76209 153.567432 
L 126.863579 153.559493 
L 126.965067 153.309409 
L 127.066556 153.420143 
L 127.168044 153.139804 
L 127.371021 153.176113 
L 127.472509 153.00905 
L 127.573997 153.084593 
L 127.776974 152.85229 
L 128.081439 152.690212 
L 128.182928 152.405309 
L 128.385904 152.452129 
L 128.791858 152.103292 
L 128.893346 152.126697 
L 129.096323 151.90043 
L 129.400788 151.673583 
L 129.502277 151.725192 
L 129.705253 151.539738 
L 129.90823 151.348985 
L 131.430556 151.239732 
L 131.532044 151.417296 
L 131.735021 151.252205 
L 131.937998 151.187662 
L 132.140974 151.292705 
L 132.242463 151.075191 
L 132.546928 151.482859 
L 132.648416 151.193354 
L 132.749905 151.389818 
L 132.851393 151.136358 
L 132.952881 151.31716 
L 133.05437 151.200577 
L 133.155858 151.410554 
L 133.257346 151.082227 
L 133.358835 151.375825 
L 133.460323 151.321576 
L 133.561812 151.503477 
L 133.6633 151.300929 
L 133.764788 151.521936 
L 133.866277 151.265964 
L 134.576695 151.612583 
L 134.779672 151.50861 
L 135.084137 151.452713 
L 135.185626 151.814562 
L 135.287114 151.529081 
L 135.388602 151.774828 
L 135.490091 151.553908 
L 135.794556 151.80153 
L 135.896044 151.660747 
L 136.099021 151.856917 
L 136.403486 151.971184 
L 136.504974 151.870911 
L 136.707951 152.033656 
L 136.80944 152.07343 
L 136.910928 151.928241 
L 137.113905 152.268324 
L 137.519858 152.297882 
L 137.722835 152.413651 
L 137.824323 152.332553 
L 138.128788 152.698171 
L 138.331765 152.676994 
L 138.534742 152.728799 
L 138.737719 153.040168 
L 138.839207 152.663775 
L 138.940695 153.003898 
L 139.042184 152.9601 
L 139.245161 153.185328 
L 139.752602 153.305473 
L 140.057068 153.641053 
L 140.260044 153.750344 
L 140.361533 153.709835 
L 140.970463 154.333683 
L 141.071951 154.715395 
L 141.17344 154.558645 
L 141.680882 155.205034 
L 141.78237 154.878042 
L 142.086835 155.658492 
L 142.188323 155.551398 
L 142.492789 155.971667 
L 142.594277 156.193568 
L 142.695765 156.024571 
L 143.101719 156.823628 
L 143.304696 157.051279 
L 143.507672 157.334788 
L 143.609161 157.564118 
L 143.710649 157.514364 
L 143.913626 157.917724 
L 144.015114 158.304598 
L 144.116603 158.232136 
L 144.624044 158.837946 
L 145.029998 159.629191 
L 145.232975 159.738895 
L 145.53744 160.292823 
L 145.638928 160.232804 
L 145.943393 161.102213 
L 146.044882 160.940017 
L 146.14637 161.215862 
L 146.247858 161.130946 
L 146.450835 161.610498 
L 146.552324 161.592883 
L 146.856789 162.26726 
L 147.059765 162.469328 
L 147.161254 162.52235 
L 147.465719 163.08294 
L 147.567207 163.076856 
L 148.074649 163.974135 
L 148.176138 163.922418 
L 148.683579 164.856595 
L 148.886556 164.97888 
L 149.191021 165.488088 
L 149.29251 165.32231 
L 149.596975 166.176714 
L 149.90144 166.276026 
L 150.104417 166.550035 
L 150.713347 167.494203 
L 151.220789 169.228987 
L 151.728231 171.380919 
L 151.829719 171.565813 
L 152.641626 174.656682 
L 153.250556 176.790685 
L 153.555021 177.853104 
L 153.65651 178.029264 
L 153.960975 179.333534 
L 154.062463 179.426624 
L 154.772882 182.077578 
L 155.077347 182.958556 
L 155.4833 184.530301 
L 157.107114 190.143371 
L 157.41158 191.282079 
L 157.513068 191.318605 
L 157.716045 192.237875 
L 157.919021 192.930996 
L 159.339859 197.827747 
L 159.542835 198.474872 
L 159.847301 199.557399 
L 160.862184 202.729356 
L 161.065161 203.244618 
L 161.369626 204.148551 
L 162.587487 207.79264 
L 163.805347 213.545562 
L 164.414277 216.458101 
L 165.023208 220.00388 
L 165.936603 224.441913 
L 166.241068 225.7227 
L 167.052975 229.527337 
L 167.154464 229.698267 
L 167.560417 231.52301 
L 168.270836 233.924291 
L 168.473812 234.549189 
L 169.488696 237.045837 
L 169.590185 237.154039 
L 169.793161 237.518156 
L 170.199115 238.461499 
L 170.50358 238.605717 
L 170.706557 239.034798 
L 170.808045 238.961315 
L 171.011022 239.208417 
L 171.11251 239.69365 
L 171.315487 239.533986 
L 171.518464 239.786387 
L 171.619952 239.900693 
L 171.72144 239.806367 
L 172.127394 240.505788 
L 172.228882 240.430872 
L 172.431859 240.604903 
L 172.837813 240.792516 
L 172.939301 241.095397 
L 173.040789 240.866273 
L 173.243766 241.011178 
L 173.345254 241.048744 
L 173.446743 241.238771 
L 173.548231 240.926449 
L 173.751208 241.336041 
L 173.852696 241.42864 
L 174.055673 241.283009 
L 174.360138 241.507462 
L 174.461627 241.34927 
L 174.664603 241.556273 
L 174.766092 241.886632 
L 174.86758 241.620944 
L 175.172045 241.925454 
L 175.273534 242.055305 
L 175.375022 241.612701 
L 175.577999 242.116364 
L 175.679487 241.823159 
L 176.186929 238.049336 
L 178.01372 221.886032 
L 178.521162 217.39481 
L 180.144976 199.140103 
L 180.347952 197.384888 
L 181.058371 189.65431 
L 183.900045 162.698795 
L 188.872976 122.208539 
L 189.989348 117.720674 
L 190.49679 115.767531 
L 191.10572 113.39259 
L 194.048883 102.40354 
L 195.774185 96.938142 
L 196.383116 95.758904 
L 196.992046 94.521081 
L 197.702464 93.06801 
L 200.138185 88.638004 
L 200.645627 87.960075 
L 204.19772 83.665906 
L 205.720046 81.87494 
L 206.430465 81.074304 
L 208.155767 79.152329 
L 208.257255 79.105107 
L 208.561721 78.716653 
L 208.967674 78.259054 
L 209.069162 78.276404 
L 209.373628 78.077055 
L 210.287023 77.743164 
L 210.591488 77.608112 
L 211.301907 77.347546 
L 212.012325 77.068374 
L 216.680791 75.33729 
L 216.782279 75.353816 
L 217.086744 75.185084 
L 218.000139 74.833156 
L 218.406093 74.718025 
L 218.913535 74.453613 
L 219.319488 74.331416 
L 220.334372 73.755605 
L 228.55493 68.03445 
L 228.960884 67.880772 
L 229.569814 67.606978 
L 229.874279 67.541915 
L 230.686186 67.178524 
L 230.787675 67.223902 
L 231.09214 66.9947 
L 231.396605 66.905084 
L 231.70107 66.727971 
L 231.802558 66.765164 
L 232.107024 66.549112 
L 232.817442 66.312119 
L 233.223396 66.048786 
L 233.730838 65.896501 
L 234.339768 65.598979 
L 234.644233 65.418432 
L 234.745721 65.457842 
L 235.050186 65.21763 
L 237.790373 63.982044 
L 238.094838 63.763244 
L 240.835024 62.373902 
L 241.139489 62.179361 
L 241.240977 62.188193 
L 241.443954 62.046252 
L 241.951396 61.743528 
L 242.864791 61.293289 
L 243.169256 61.094116 
L 245.097536 60.085141 
L 245.199024 60.043964 
L 245.402001 59.89378 
L 247.93921 58.512053 
L 248.243675 58.485635 
L 249.461536 58.295922 
L 249.563024 58.367364 
L 249.867489 58.227268 
L 251.08535 58.014081 
L 251.389815 57.899264 
L 251.491303 58.023267 
L 251.795768 57.833122 
L 252.100233 57.846547 
L 252.30321 57.75646 
L 252.404699 57.708453 
L 252.506187 57.822288 
L 252.810652 57.617149 
L 253.521071 57.530437 
L 255.347861 57.040395 
L 255.44935 57.102966 
L 255.855303 56.908582 
L 256.464234 56.801027 
L 256.870187 56.633728 
L 257.174652 56.530452 
L 257.276141 56.464035 
L 257.377629 56.653551 
L 257.580606 56.431141 
L 259.20442 55.977447 
L 259.407396 55.936074 
L 260.219303 55.653684 
L 260.320792 55.733408 
L 260.625257 55.483676 
L 260.828234 55.482224 
L 261.132699 55.369448 
L 261.437164 55.315553 
L 261.741629 55.154692 
L 261.843117 55.1879 
L 262.046094 55.082779 
L 264.075862 54.406047 
L 264.17735 54.509912 
L 264.380327 54.35278 
L 264.684792 54.209975 
L 264.78628 54.21547 
L 264.989257 54.145991 
L 265.496699 53.945916 
L 265.699676 53.941833 
L 265.902652 53.821403 
L 266.308606 53.751296 
L 266.511583 53.652181 
L 266.714559 53.656931 
L 266.816048 53.469102 
L 267.120513 53.573635 
L 267.32349 53.471575 
L 267.526466 53.380467 
L 268.236885 53.182001 
L 268.439862 53.144475 
L 269.251769 52.983888 
L 269.454746 52.827698 
L 269.860699 52.801006 
L 270.063676 52.704952 
L 270.774094 52.528978 
L 271.484513 52.34217 
L 271.586001 52.378833 
L 271.890467 52.1618 
L 272.093443 52.161015 
L 272.194932 52.053735 
L 272.29642 52.233359 
L 272.499397 52.08184 
L 272.702374 52.004903 
L 273.717257 51.68742 
L 273.818746 51.727302 
L 274.021722 51.619354 
L 274.833629 51.40605 
L 275.645536 51.191097 
L 275.747025 51.202049 
L 275.950002 51.095632 
L 277.167862 50.809238 
L 278.385723 50.613598 
L 278.487211 50.694303 
L 278.791676 50.51986 
L 279.19763 50.469616 
L 279.299118 50.420235 
L 279.502095 50.483786 
L 279.80656 50.330736 
L 280.009537 50.384082 
L 280.212513 50.288814 
L 280.41549 50.342513 
L 280.618467 50.230522 
L 282.242281 50.000928 
L 282.343769 50.030368 
L 282.546746 49.921753 
L 282.851211 49.935963 
L 282.952699 49.790175 
L 283.257165 49.932116 
L 283.56163 49.748056 
L 283.866095 49.723444 
L 284.069072 49.708606 
L 284.272048 49.719989 
L 284.77949 49.690628 
L 284.880979 49.524546 
L 285.185444 49.658244 
L 285.489909 49.539815 
L 285.997351 49.507549 
L 286.098839 49.588568 
L 286.301816 49.493732 
L 286.504793 49.429748 
L 287.621165 49.388846 
L 287.722653 49.221586 
L 288.027118 49.414871 
L 288.230095 49.307434 
L 288.433072 49.235561 
L 288.636048 49.215698 
L 288.839025 49.209182 
L 288.940514 49.298327 
L 289.244979 49.159526 
L 289.549444 49.178918 
L 289.752421 49.132873 
L 289.955397 49.183471 
L 290.259862 49.122392 
L 290.767304 49.072187 
L 290.868793 49.165257 
L 291.173258 49.042197 
L 291.6807 49.01523 
L 291.782188 49.128241 
L 292.086653 49.007026 
L 293.000049 49.022531 
L 293.203025 48.995642 
L 293.710467 49.068654 
L 294.014932 48.927184 
L 294.217909 48.965025 
L 295.232793 48.991482 
L 295.334281 48.870031 
L 295.537258 49.01366 
L 295.638746 49.051265 
L 295.841723 48.960864 
L 296.146188 48.985201 
L 296.349165 48.987792 
L 296.450653 48.969029 
L 296.552142 49.105827 
L 296.755118 49.003807 
L 297.161072 48.960668 
L 297.567025 49.052953 
L 299.292328 49.134836 
L 299.393816 49.237994 
L 299.698281 49.169929 
L 300.510188 49.262685 
L 300.814653 49.286041 
L 303.960793 49.632807 
L 304.062281 49.780676 
L 304.265258 49.703385 
L 304.366746 49.631826 
L 304.569723 49.725799 
L 304.7727 49.712021 
L 305.178653 49.793668 
L 305.787584 49.855611 
L 305.99056 49.950055 
L 306.396514 49.954726 
L 306.903956 50.045637 
L 307.106933 50.06652 
L 307.817351 50.23378 
L 307.91884 50.108168 
L 308.223305 50.322689 
L 308.426281 50.228167 
L 308.730747 50.330108 
L 308.832235 50.225537 
L 309.1367 50.448183 
L 309.238188 50.329834 
L 309.339677 50.415367 
L 309.542654 50.407359 
L 310.659026 50.523197 
L 310.862002 50.538113 
L 310.963491 50.679466 
L 311.166468 50.613833 
L 311.775398 50.658818 
L 311.978375 50.713734 
L 312.688793 50.750789 
L 312.89177 50.831181 
L 313.297723 50.83173 
L 313.399212 50.885704 
L 313.5007 50.78286 
L 313.703677 50.908196 
L 314.312607 50.978735 
L 314.515584 50.932887 
L 314.718561 51.070667 
L 315.023026 51.028744 
L 316.139398 51.171431 
L 316.342375 51.17151 
L 316.443863 51.153296 
L 316.545351 51.307445 
L 316.748328 51.244286 
L 316.951305 51.202049 
L 317.052793 51.326561 
L 317.25577 51.247348 
L 317.661724 51.36974 
L 317.763212 51.273687 
L 317.966189 51.390545 
L 318.270654 51.404362 
L 318.372142 51.532682 
L 318.575119 51.484557 
L 318.778096 51.44393 
L 319.082561 51.501475 
L 319.184049 51.505597 
L 319.285538 51.656488 
L 319.488514 51.601572 
L 319.691491 51.586577 
L 320.503398 51.682945 
L 320.909352 51.705594 
L 321.213817 51.815033 
L 321.924235 51.929261 
L 323.243584 52.093616 
L 323.345073 52.230454 
L 323.548049 52.123999 
L 323.852514 52.199051 
L 324.055491 52.219934 
L 324.968887 52.392218 
L 325.273352 52.420481 
L 325.37484 52.477242 
L 325.476328 52.351552 
L 325.780794 52.563992 
L 326.186747 52.558144 
L 326.288235 52.635866 
L 326.389724 52.519204 
L 326.694189 52.721988 
L 326.897166 52.650468 
L 327.201631 52.76026 
L 327.303119 52.670566 
L 327.607584 52.891093 
L 327.810561 52.752292 
L 327.912049 52.9612 
L 328.013538 52.855176 
L 328.115026 52.919395 
L 328.216515 52.828365 
L 328.419491 52.956685 
L 328.622468 52.941769 
L 329.028422 53.074093 
L 329.231398 53.058352 
L 329.332887 53.146948 
L 329.434375 53.049874 
L 329.840329 53.176388 
L 330.550747 53.32143 
L 330.652236 53.417327 
L 330.855212 53.397621 
L 331.261166 53.403745 
L 331.768608 53.55495 
L 331.971584 53.589846 
L 332.580515 53.744937 
L 332.783491 53.720561 
L 332.986468 53.813121 
L 333.189445 53.809667 
L 333.899864 53.998476 
L 334.001352 53.925386 
L 334.407305 54.096061 
L 334.610282 54.133273 
L 335.117724 54.228699 
L 335.219212 54.34854 
L 335.422189 54.285813 
L 336.234096 54.488087 
L 336.335585 54.424064 
L 336.538561 54.609302 
L 336.843026 54.622256 
L 337.24898 54.717249 
L 337.451957 54.820094 
L 337.756422 54.820722 
L 339.380236 55.315828 
L 339.481724 55.242345 
L 339.786189 55.345857 
L 341.815957 55.956015 
L 341.917445 56.122175 
L 342.120422 56.059016 
L 342.627864 56.174265 
L 343.033817 56.379404 
L 343.135306 56.333909 
L 343.439771 56.445625 
L 343.642748 56.548862 
L 343.744236 56.652373 
L 343.845724 56.58682 
L 344.048701 56.622776 
L 344.556143 56.806601 
L 344.657631 56.97967 
L 344.860608 56.904892 
L 346.991864 57.651731 
L 347.093352 57.56447 
L 347.397817 57.7985 
L 347.600794 57.787117 
L 348.108236 57.979224 
L 351.152887 58.925864 
L 351.254376 58.827416 
L 351.457352 58.982546 
L 351.558841 58.924883 
L 351.863306 59.180306 
L 352.066283 59.118011 
L 352.776701 59.401304 
L 353.081166 59.418105 
L 353.284143 59.514315 
L 353.385632 59.44782 
L 353.690097 59.667051 
L 353.893073 59.635216 
L 354.400515 59.768404 
L 354.70498 59.860139 
L 355.110934 59.915919 
L 355.415399 60.112069 
L 355.719864 60.051893 
L 356.024329 60.169183 
L 356.227306 60.200272 
L 356.328794 60.346727 
L 356.430283 60.238073 
L 356.63326 60.298759 
L 357.140701 60.415146 
L 357.24219 60.577382 
L 357.445167 60.47913 
L 357.749632 60.626449 
L 357.85112 60.555203 
L 358.155585 60.780244 
L 358.561539 60.872529 
L 358.663027 60.982165 
L 358.764515 60.904286 
L 358.967492 61.053214 
L 359.068981 60.972508 
L 359.373446 61.29168 
L 359.576422 61.217883 
L 359.880888 61.380393 
L 359.982376 61.301375 
L 360.286841 61.563079 
L 360.591306 61.541372 
L 360.794283 61.661095 
L 360.895771 61.610419 
L 361.098748 61.842094 
L 361.301725 61.816461 
L 361.910655 61.964133 
L 362.012143 62.135397 
L 362.113632 62.052846 
L 362.418097 62.169665 
L 363.534469 62.508228 
L 364.143399 62.583516 
L 364.549353 62.948849 
L 364.650841 62.902177 
L 364.75233 63.100329 
L 364.853818 63.045021 
L 365.259771 63.582756 
L 365.36126 63.341229 
L 365.462748 63.476496 
L 365.564237 63.376871 
L 365.767213 63.626053 
L 365.868702 63.516221 
L 365.97019 63.907462 
L 366.071678 63.635945 
L 366.173167 63.843125 
L 366.274655 63.797591 
L 366.57912 64.170657 
L 366.782097 64.110482 
L 366.985074 64.216506 
L 367.086562 64.407043 
L 367.188051 64.195426 
L 367.391027 64.523194 
L 367.999958 64.675498 
L 368.405911 65.078633 
L 368.608888 65.169623 
L 368.710376 65.165658 
L 368.811865 65.464574 
L 368.913353 65.412053 
L 369.014841 65.221634 
L 369.11633 65.750929 
L 369.217818 65.559882 
L 369.319306 65.606476 
L 369.420795 65.883096 
L 369.522283 65.707829 
L 369.623772 65.985195 
L 369.72526 65.865157 
L 369.928237 66.05538 
L 370.029725 65.920819 
L 370.232702 66.23579 
L 370.33419 66.087529 
L 370.537167 66.221502 
L 370.740144 66.411371 
L 370.841632 66.229823 
L 371.044609 66.410272 
L 371.146097 66.406033 
L 371.247586 66.681319 
L 371.349074 66.396023 
L 371.552051 66.613174 
L 371.653539 66.49137 
L 371.755027 66.897959 
L 371.856516 66.565677 
L 371.958004 66.640495 
L 372.059493 66.896114 
L 372.160981 66.849599 
L 372.262469 66.989656 
L 372.363958 66.675509 
L 372.566934 67.117937 
L 372.668423 66.892503 
L 372.769911 67.131518 
L 372.8714 66.933562 
L 373.074376 67.235972 
L 373.175865 67.150635 
L 373.48033 67.114247 
L 373.581818 67.305333 
L 373.581818 67.305333 
" style="fill:none;stroke:#081d58;stroke-dasharray:5.55,2.4;stroke-dashoffset:0;stroke-width:1.5;"/>
    <defs>
     <path d="M -0 4.242641 
L 4.242641 0 
L 0 -4.242641 
L -4.242641 -0 
z
" id="mcf987818dc" style="stroke:#081d58;stroke-linejoin:miter;"/>
    </defs>
    <g clip-path="url(#pc230911e22)">
     <use style="fill:#081d58;stroke:#081d58;stroke-linejoin:miter;" x="69.218182" xlink:href="#mcf987818dc" y="45.039781"/>
     <use style="fill:#081d58;stroke:#081d58;stroke-linejoin:miter;" x="77.337252" xlink:href="#mcf987818dc" y="50.199649"/>
     <use style="fill:#081d58;stroke:#081d58;stroke-linejoin:miter;" x="85.456322" xlink:href="#mcf987818dc" y="89.102061"/>
     <use style="fill:#081d58;stroke:#081d58;stroke-linejoin:miter;" x="93.575392" xlink:href="#mcf987818dc" y="139.511871"/>
     <use style="fill:#081d58;stroke:#081d58;stroke-linejoin:miter;" x="101.694462" xlink:href="#mcf987818dc" y="166.680132"/>
     <use style="fill:#081d58;stroke:#081d58;stroke-linejoin:miter;" x="109.813532" xlink:href="#mcf987818dc" y="170.561087"/>
     <use style="fill:#081d58;stroke:#081d58;stroke-linejoin:miter;" x="117.932602" xlink:href="#mcf987818dc" y="162.102935"/>
     <use style="fill:#081d58;stroke:#081d58;stroke-linejoin:miter;" x="126.051672" xlink:href="#mcf987818dc" y="154.176462"/>
     <use style="fill:#081d58;stroke:#081d58;stroke-linejoin:miter;" x="134.170742" xlink:href="#mcf987818dc" y="151.394176"/>
     <use style="fill:#081d58;stroke:#081d58;stroke-linejoin:miter;" x="142.289812" xlink:href="#mcf987818dc" y="155.654204"/>
     <use style="fill:#081d58;stroke:#081d58;stroke-linejoin:miter;" x="150.408882" xlink:href="#mcf987818dc" y="167.026437"/>
     <use style="fill:#081d58;stroke:#081d58;stroke-linejoin:miter;" x="158.527952" xlink:href="#mcf987818dc" y="195.133114"/>
     <use style="fill:#081d58;stroke:#081d58;stroke-linejoin:miter;" x="166.647022" xlink:href="#mcf987818dc" y="227.609405"/>
     <use style="fill:#081d58;stroke:#081d58;stroke-linejoin:miter;" x="174.766092" xlink:href="#mcf987818dc" y="241.886632"/>
     <use style="fill:#081d58;stroke:#081d58;stroke-linejoin:miter;" x="182.885162" xlink:href="#mcf987818dc" y="171.765163"/>
     <use style="fill:#081d58;stroke:#081d58;stroke-linejoin:miter;" x="191.004232" xlink:href="#mcf987818dc" y="113.772584"/>
     <use style="fill:#081d58;stroke:#081d58;stroke-linejoin:miter;" x="199.123302" xlink:href="#mcf987818dc" y="90.31378"/>
     <use style="fill:#081d58;stroke:#081d58;stroke-linejoin:miter;" x="207.242372" xlink:href="#mcf987818dc" y="80.174356"/>
     <use style="fill:#081d58;stroke:#081d58;stroke-linejoin:miter;" x="215.361442" xlink:href="#mcf987818dc" y="75.829413"/>
     <use style="fill:#081d58;stroke:#081d58;stroke-linejoin:miter;" x="223.480512" xlink:href="#mcf987818dc" y="71.636145"/>
     <use style="fill:#081d58;stroke:#081d58;stroke-linejoin:miter;" x="231.599582" xlink:href="#mcf987818dc" y="66.793211"/>
     <use style="fill:#081d58;stroke:#081d58;stroke-linejoin:miter;" x="239.718652" xlink:href="#mcf987818dc" y="62.993834"/>
     <use style="fill:#081d58;stroke:#081d58;stroke-linejoin:miter;" x="247.837722" xlink:href="#mcf987818dc" y="58.59005"/>
     <use style="fill:#081d58;stroke:#081d58;stroke-linejoin:miter;" x="255.956792" xlink:href="#mcf987818dc" y="56.901006"/>
     <use style="fill:#081d58;stroke:#081d58;stroke-linejoin:miter;" x="264.075862" xlink:href="#mcf987818dc" y="54.406047"/>
     <use style="fill:#081d58;stroke:#081d58;stroke-linejoin:miter;" x="272.194932" xlink:href="#mcf987818dc" y="52.053735"/>
     <use style="fill:#081d58;stroke:#081d58;stroke-linejoin:miter;" x="280.314002" xlink:href="#mcf987818dc" y="50.319117"/>
     <use style="fill:#081d58;stroke:#081d58;stroke-linejoin:miter;" x="288.433072" xlink:href="#mcf987818dc" y="49.235561"/>
     <use style="fill:#081d58;stroke:#081d58;stroke-linejoin:miter;" x="296.552142" xlink:href="#mcf987818dc" y="49.105827"/>
     <use style="fill:#081d58;stroke:#081d58;stroke-linejoin:miter;" x="304.671212" xlink:href="#mcf987818dc" y="49.69263"/>
     <use style="fill:#081d58;stroke:#081d58;stroke-linejoin:miter;" x="312.790282" xlink:href="#mcf987818dc" y="50.829768"/>
     <use style="fill:#081d58;stroke:#081d58;stroke-linejoin:miter;" x="320.909352" xlink:href="#mcf987818dc" y="51.705594"/>
     <use style="fill:#081d58;stroke:#081d58;stroke-linejoin:miter;" x="329.028422" xlink:href="#mcf987818dc" y="53.074093"/>
     <use style="fill:#081d58;stroke:#081d58;stroke-linejoin:miter;" x="337.147492" xlink:href="#mcf987818dc" y="54.647456"/>
     <use style="fill:#081d58;stroke:#081d58;stroke-linejoin:miter;" x="345.266562" xlink:href="#mcf987818dc" y="56.989012"/>
     <use style="fill:#081d58;stroke:#081d58;stroke-linejoin:miter;" x="353.385632" xlink:href="#mcf987818dc" y="59.44782"/>
     <use style="fill:#081d58;stroke:#081d58;stroke-linejoin:miter;" x="361.504702" xlink:href="#mcf987818dc" y="61.841073"/>
     <use style="fill:#081d58;stroke:#081d58;stroke-linejoin:miter;" x="369.623772" xlink:href="#mcf987818dc" y="65.985195"/>
    </g>
   </g>
   <g id="patch_3">
    <path d="M 54 252 
L 54 34.56 
" style="fill:none;stroke:#000000;stroke-linecap:square;stroke-linejoin:miter;stroke-width:0.8;"/>
   </g>
   <g id="patch_4">
    <path d="M 388.8 252 
L 388.8 34.56 
" style="fill:none;stroke:#000000;stroke-linecap:square;stroke-linejoin:miter;stroke-width:0.8;"/>
   </g>
   <g id="patch_5">
    <path d="M 54 252 
L 388.8 252 
" style="fill:none;stroke:#000000;stroke-linecap:square;stroke-linejoin:miter;stroke-width:0.8;"/>
   </g>
   <g id="patch_6">
    <path d="M 54 34.56 
L 388.8 34.56 
" style="fill:none;stroke:#000000;stroke-linecap:square;stroke-linejoin:miter;stroke-width:0.8;"/>
   </g>
   <g id="legend_1">
    <g id="patch_7">
     <path d="M 280.085938 247 
L 381.8 247 
Q 383.8 247 383.8 245 
L 383.8 216.64375 
Q 383.8 214.64375 381.8 214.64375 
L 280.085938 214.64375 
Q 278.085938 214.64375 278.085938 216.64375 
L 278.085938 245 
Q 278.085938 247 280.085938 247 
z
" style="fill:#ffffff;opacity:0.8;stroke:#cccccc;stroke-linejoin:miter;"/>
    </g>
    <g id="line2d_15">
     <path d="M 282.085938 222.742188 
L 302.085938 222.742188 
" style="fill:none;stroke:#40b5c4;stroke-dasharray:5.55,2.4;stroke-dashoffset:0;stroke-width:1.5;"/>
    </g>
    <g id="line2d_16">
     <g>
      <use style="fill:#40b5c4;stroke:#40b5c4;" x="292.085938" xlink:href="#mfe0a74a0da" y="222.742188"/>
     </g>
    </g>
    <g id="text_15">
     <text style="font-family:DejaVu Sans;font-size:10px;font-style:normal;font-weight:normal;text-anchor:start;" transform="rotate(-0, 310.085938, 226.242188)" x="310.085938" y="226.242188">original</text>
    </g>
    <g id="line2d_17">
     <path d="M 282.085938 237.420312 
L 302.085938 237.420312 
" style="fill:none;stroke:#081d58;stroke-dasharray:5.55,2.4;stroke-dashoffset:0;stroke-width:1.5;"/>
    </g>
    <g id="line2d_18">
     <g>
      <use style="fill:#081d58;stroke:#081d58;stroke-linejoin:miter;" x="292.085938" xlink:href="#mcf987818dc" y="237.420312"/>
     </g>
    </g>
    <g id="text_16">
     <text style="font-family:DejaVu Sans;font-size:10px;font-style:normal;font-weight:normal;text-anchor:start;" transform="rotate(-0, 310.085938, 240.920312)" x="310.085938" y="240.920312">reconstructed</text>
    </g>
   </g>
  </g>
  <g id="text_17">
   <text style="font-family:DejaVu Sans;font-size:12px;font-style:normal;font-weight:normal;text-anchor:middle;" transform="rotate(-0, 216, 14.878125)" x="216" y="14.878125">Reconstruction of the temperature curve</text>
  </g>
 </g>
 <defs>
  <clipPath id="pc230911e22">
   <rect height="217.44" width="334.8" x="54" y="34.56"/>
  </clipPath>
 </defs>
</svg>
