<?xml version="1.0" encoding="utf-8" standalone="no"?>
<!DOCTYPE svg PUBLIC "-//W3C//DTD SVG 1.1//EN"
  "http://www.w3.org/Graphics/SVG/1.1/DTD/svg11.dtd">
<!-- Created with matplotlib (https://matplotlib.org/) -->
<svg height="288pt" version="1.1" viewBox="0 0 432 288" width="432pt" xmlns="http://www.w3.org/2000/svg" xmlns:xlink="http://www.w3.org/1999/xlink">
 <defs>
  <style type="text/css">
*{stroke-linecap:butt;stroke-linejoin:round;}
  </style>
 </defs>
 <g id="figure_1">
  <g id="patch_1">
   <path d="M 0 288 
L 432 288 
L 432 0 
L 0 0 
z
" style="fill:#ffffff;"/>
  </g>
  <g id="axes_1">
   <g id="patch_2">
    <path d="M 54 252 
L 388.8 252 
L 388.8 34.56 
L 54 34.56 
z
" style="fill:#ffffff;"/>
   </g>
   <g id="matplotlib.axis_1">
    <g id="xtick_1">
     <g id="line2d_1">
      <defs>
       <path d="M 0 0 
L 0 3.5 
" id="mb478a5f5a9" style="stroke:#000000;stroke-width:0.8;"/>
      </defs>
      <g>
       <use style="stroke:#000000;stroke-width:0.8;" x="69.218182" xlink:href="#mb478a5f5a9" y="252"/>
      </g>
     </g>
     <g id="text_1">
      <text style="font-family:DejaVu Sans;font-size:10px;font-style:normal;font-weight:normal;text-anchor:middle;" transform="rotate(-0, 69.218182, 266.598437)" x="69.218182" y="266.598437">0</text>
     </g>
    </g>
    <g id="xtick_2">
     <g id="line2d_2">
      <g>
       <use style="stroke:#000000;stroke-width:0.8;" x="119.962369" xlink:href="#mb478a5f5a9" y="252"/>
      </g>
     </g>
     <g id="text_2">
      <text style="font-family:DejaVu Sans;font-size:10px;font-style:normal;font-weight:normal;text-anchor:middle;" transform="rotate(-0, 119.962369, 266.598437)" x="119.962369" y="266.598437">500</text>
     </g>
    </g>
    <g id="xtick_3">
     <g id="line2d_3">
      <g>
       <use style="stroke:#000000;stroke-width:0.8;" x="170.706557" xlink:href="#mb478a5f5a9" y="252"/>
      </g>
     </g>
     <g id="text_3">
      <text style="font-family:DejaVu Sans;font-size:10px;font-style:normal;font-weight:normal;text-anchor:middle;" transform="rotate(-0, 170.706557, 266.598437)" x="170.706557" y="266.598437">1000</text>
     </g>
    </g>
    <g id="xtick_4">
     <g id="line2d_4">
      <g>
       <use style="stroke:#000000;stroke-width:0.8;" x="221.450744" xlink:href="#mb478a5f5a9" y="252"/>
      </g>
     </g>
     <g id="text_4">
      <text style="font-family:DejaVu Sans;font-size:10px;font-style:normal;font-weight:normal;text-anchor:middle;" transform="rotate(-0, 221.450744, 266.598437)" x="221.450744" y="266.598437">1500</text>
     </g>
    </g>
    <g id="xtick_5">
     <g id="line2d_5">
      <g>
       <use style="stroke:#000000;stroke-width:0.8;" x="272.194932" xlink:href="#mb478a5f5a9" y="252"/>
      </g>
     </g>
     <g id="text_5">
      <text style="font-family:DejaVu Sans;font-size:10px;font-style:normal;font-weight:normal;text-anchor:middle;" transform="rotate(-0, 272.194932, 266.598437)" x="272.194932" y="266.598437">2000</text>
     </g>
    </g>
    <g id="xtick_6">
     <g id="line2d_6">
      <g>
       <use style="stroke:#000000;stroke-width:0.8;" x="322.939119" xlink:href="#mb478a5f5a9" y="252"/>
      </g>
     </g>
     <g id="text_6">
      <text style="font-family:DejaVu Sans;font-size:10px;font-style:normal;font-weight:normal;text-anchor:middle;" transform="rotate(-0, 322.939119, 266.598437)" x="322.939119" y="266.598437">2500</text>
     </g>
    </g>
    <g id="xtick_7">
     <g id="line2d_7">
      <g>
       <use style="stroke:#000000;stroke-width:0.8;" x="373.683307" xlink:href="#mb478a5f5a9" y="252"/>
      </g>
     </g>
     <g id="text_7">
      <text style="font-family:DejaVu Sans;font-size:10px;font-style:normal;font-weight:normal;text-anchor:middle;" transform="rotate(-0, 373.683307, 266.598437)" x="373.683307" y="266.598437">3000</text>
     </g>
    </g>
    <g id="text_8">
     <text style="font-family:DejaVu Sans;font-size:10px;font-style:normal;font-weight:normal;text-anchor:middle;" transform="rotate(-0, 221.4, 280.276563)" x="221.4" y="280.276563">Time</text>
    </g>
   </g>
   <g id="matplotlib.axis_2">
    <g id="ytick_1">
     <g id="line2d_8">
      <defs>
       <path d="M 0 0 
L -3.5 0 
" id="m4e45566ec0" style="stroke:#000000;stroke-width:0.8;"/>
      </defs>
      <g>
       <use style="stroke:#000000;stroke-width:0.8;" x="54" xlink:href="#m4e45566ec0" y="216.091081"/>
      </g>
     </g>
     <g id="text_9">
      <text style="font-family:DejaVu Sans;font-size:10px;font-style:normal;font-weight:normal;text-anchor:end;" transform="rotate(-0, 47, 219.890299)" x="47" y="219.890299">70</text>
     </g>
    </g>
    <g id="ytick_2">
     <g id="line2d_9">
      <g>
       <use style="stroke:#000000;stroke-width:0.8;" x="54" xlink:href="#m4e45566ec0" y="174.779426"/>
      </g>
     </g>
     <g id="text_10">
      <text style="font-family:DejaVu Sans;font-size:10px;font-style:normal;font-weight:normal;text-anchor:end;" transform="rotate(-0, 47, 178.578645)" x="47" y="178.578645">72</text>
     </g>
    </g>
    <g id="ytick_3">
     <g id="line2d_10">
      <g>
       <use style="stroke:#000000;stroke-width:0.8;" x="54" xlink:href="#m4e45566ec0" y="133.467772"/>
      </g>
     </g>
     <g id="text_11">
      <text style="font-family:DejaVu Sans;font-size:10px;font-style:normal;font-weight:normal;text-anchor:end;" transform="rotate(-0, 47, 137.266991)" x="47" y="137.266991">74</text>
     </g>
    </g>
    <g id="ytick_4">
     <g id="line2d_11">
      <g>
       <use style="stroke:#000000;stroke-width:0.8;" x="54" xlink:href="#m4e45566ec0" y="92.156118"/>
      </g>
     </g>
     <g id="text_12">
      <text style="font-family:DejaVu Sans;font-size:10px;font-style:normal;font-weight:normal;text-anchor:end;" transform="rotate(-0, 47, 95.955337)" x="47" y="95.955337">76</text>
     </g>
    </g>
    <g id="ytick_5">
     <g id="line2d_12">
      <g>
       <use style="stroke:#000000;stroke-width:0.8;" x="54" xlink:href="#m4e45566ec0" y="50.844464"/>
      </g>
     </g>
     <g id="text_13">
      <text style="font-family:DejaVu Sans;font-size:10px;font-style:normal;font-weight:normal;text-anchor:end;" transform="rotate(-0, 47, 54.643683)" x="47" y="54.643683">78</text>
     </g>
    </g>
    <g id="text_14">
     <text style="font-family:DejaVu Sans;font-size:10px;font-style:normal;font-weight:normal;text-anchor:middle;" transform="rotate(-90, 28.195312, 143.28)" x="28.195312" y="143.28">weight (\%)</text>
    </g>
   </g>
   <g id="line2d_13">
    <path clip-path="url(#pd0068bcd91)" d="M 69.218182 44.443636 
L 84.238461 45.282263 
L 88.09502 45.828816 
L 90.835206 46.425976 
L 93.473903 47.185284 
L 97.330462 48.548362 
L 106.565904 51.910718 
L 111.538834 53.38699 
L 127.066556 57.828199 
L 130.618649 59.199746 
L 133.561812 60.584926 
L 136.301998 62.148985 
L 138.737719 63.822107 
L 140.767486 65.470029 
L 142.695765 67.318725 
L 144.522556 69.379144 
L 146.349347 71.778938 
L 147.973161 74.252887 
L 149.596975 77.11661 
L 151.220789 80.475455 
L 152.844603 84.392006 
L 154.569905 89.14801 
L 156.193719 94.182248 
L 157.41158 99.169804 
L 159.441347 108.438694 
L 161.77558 120.102833 
L 164.109812 132.963977 
L 166.951487 150.013503 
L 171.315487 176.302174 
L 173.243766 186.318598 
L 174.461627 191.514778 
L 175.780975 196.378399 
L 176.795859 199.327638 
L 177.607766 201.081937 
L 178.419673 202.311578 
L 179.434557 203.41336 
L 180.855394 204.6083 
L 182.783673 205.938742 
L 185.320883 207.371843 
L 188.365534 208.785321 
L 191.613162 210.039336 
L 195.977162 211.453847 
L 201.761999 213.034431 
L 209.779581 214.880649 
L 217.086744 216.30177 
L 225.205814 217.645432 
L 234.339768 218.911221 
L 243.981163 220.017753 
L 255.550838 221.085246 
L 266.004141 221.824932 
L 279.19763 222.439442 
L 289.650932 222.669342 
L 305.584607 222.87652 
L 323.548049 223.350364 
L 340.902561 223.451991 
L 352.675213 223.443109 
L 361.301725 223.552792 
L 370.841632 223.81636 
L 373.581818 223.92976 
L 373.581818 223.92976 
" style="fill:none;stroke:#40b5c4;stroke-dasharray:5.55,2.4;stroke-dashoffset:0;stroke-width:1.5;"/>
    <defs>
     <path d="M 0 3 
C 0.795609 3 1.55874 2.683901 2.12132 2.12132 
C 2.683901 1.55874 3 0.795609 3 0 
C 3 -0.795609 2.683901 -1.55874 2.12132 -2.12132 
C 1.55874 -2.683901 0.795609 -3 0 -3 
C -0.795609 -3 -1.55874 -2.683901 -2.12132 -2.12132 
C -2.683901 -1.55874 -3 -0.795609 -3 0 
C -3 0.795609 -2.683901 1.55874 -2.12132 2.12132 
C -1.55874 2.683901 -0.795609 3 0 3 
z
" id="m2a75f79f63" style="stroke:#40b5c4;"/>
    </defs>
    <g clip-path="url(#pd0068bcd91)">
     <use style="fill:#40b5c4;stroke:#40b5c4;" x="69.218182" xlink:href="#m2a75f79f63" y="44.443636"/>
     <use style="fill:#40b5c4;stroke:#40b5c4;" x="77.337252" xlink:href="#m2a75f79f63" y="44.809864"/>
     <use style="fill:#40b5c4;stroke:#40b5c4;" x="85.456322" xlink:href="#m2a75f79f63" y="45.426234"/>
     <use style="fill:#40b5c4;stroke:#40b5c4;" x="93.575392" xlink:href="#m2a75f79f63" y="47.218127"/>
     <use style="fill:#40b5c4;stroke:#40b5c4;" x="101.694462" xlink:href="#m2a75f79f63" y="50.218592"/>
     <use style="fill:#40b5c4;stroke:#40b5c4;" x="109.813532" xlink:href="#m2a75f79f63" y="52.898479"/>
     <use style="fill:#40b5c4;stroke:#40b5c4;" x="117.932602" xlink:href="#m2a75f79f63" y="55.10762"/>
     <use style="fill:#40b5c4;stroke:#40b5c4;" x="126.051672" xlink:href="#m2a75f79f63" y="57.478289"/>
     <use style="fill:#40b5c4;stroke:#40b5c4;" x="134.170742" xlink:href="#m2a75f79f63" y="60.90757"/>
     <use style="fill:#40b5c4;stroke:#40b5c4;" x="142.289812" xlink:href="#m2a75f79f63" y="66.90375"/>
     <use style="fill:#40b5c4;stroke:#40b5c4;" x="150.408882" xlink:href="#m2a75f79f63" y="78.727765"/>
     <use style="fill:#40b5c4;stroke:#40b5c4;" x="158.527952" xlink:href="#m2a75f79f63" y="104.159426"/>
     <use style="fill:#40b5c4;stroke:#40b5c4;" x="166.647022" xlink:href="#m2a75f79f63" y="148.136714"/>
     <use style="fill:#40b5c4;stroke:#40b5c4;" x="174.766092" xlink:href="#m2a75f79f63" y="192.714468"/>
     <use style="fill:#40b5c4;stroke:#40b5c4;" x="182.885162" xlink:href="#m2a75f79f63" y="206.001122"/>
     <use style="fill:#40b5c4;stroke:#40b5c4;" x="191.004232" xlink:href="#m2a75f79f63" y="209.819558"/>
     <use style="fill:#40b5c4;stroke:#40b5c4;" x="199.123302" xlink:href="#m2a75f79f63" y="212.344114"/>
     <use style="fill:#40b5c4;stroke:#40b5c4;" x="207.242372" xlink:href="#m2a75f79f63" y="214.33265"/>
     <use style="fill:#40b5c4;stroke:#40b5c4;" x="215.361442" xlink:href="#m2a75f79f63" y="215.987801"/>
     <use style="fill:#40b5c4;stroke:#40b5c4;" x="223.480512" xlink:href="#m2a75f79f63" y="217.378971"/>
     <use style="fill:#40b5c4;stroke:#40b5c4;" x="231.599582" xlink:href="#m2a75f79f63" y="218.55718"/>
     <use style="fill:#40b5c4;stroke:#40b5c4;" x="239.718652" xlink:href="#m2a75f79f63" y="219.555476"/>
     <use style="fill:#40b5c4;stroke:#40b5c4;" x="247.837722" xlink:href="#m2a75f79f63" y="220.40443"/>
     <use style="fill:#40b5c4;stroke:#40b5c4;" x="255.956792" xlink:href="#m2a75f79f63" y="221.118296"/>
     <use style="fill:#40b5c4;stroke:#40b5c4;" x="264.075862" xlink:href="#m2a75f79f63" y="221.706161"/>
     <use style="fill:#40b5c4;stroke:#40b5c4;" x="272.194932" xlink:href="#m2a75f79f63" y="222.156044"/>
     <use style="fill:#40b5c4;stroke:#40b5c4;" x="280.314002" xlink:href="#m2a75f79f63" y="222.475384"/>
     <use style="fill:#40b5c4;stroke:#40b5c4;" x="288.433072" xlink:href="#m2a75f79f63" y="222.656329"/>
     <use style="fill:#40b5c4;stroke:#40b5c4;" x="296.552142" xlink:href="#m2a75f79f63" y="222.74329"/>
     <use style="fill:#40b5c4;stroke:#40b5c4;" x="304.671212" xlink:href="#m2a75f79f63" y="222.848634"/>
     <use style="fill:#40b5c4;stroke:#40b5c4;" x="312.790282" xlink:href="#m2a75f79f63" y="223.164462"/>
     <use style="fill:#40b5c4;stroke:#40b5c4;" x="320.909352" xlink:href="#m2a75f79f63" y="223.323099"/>
     <use style="fill:#40b5c4;stroke:#40b5c4;" x="329.028422" xlink:href="#m2a75f79f63" y="223.404483"/>
     <use style="fill:#40b5c4;stroke:#40b5c4;" x="337.147492" xlink:href="#m2a75f79f63" y="223.449926"/>
     <use style="fill:#40b5c4;stroke:#40b5c4;" x="345.266562" xlink:href="#m2a75f79f63" y="223.439598"/>
     <use style="fill:#40b5c4;stroke:#40b5c4;" x="353.385632" xlink:href="#m2a75f79f63" y="223.448273"/>
     <use style="fill:#40b5c4;stroke:#40b5c4;" x="361.504702" xlink:href="#m2a75f79f63" y="223.55651"/>
     <use style="fill:#40b5c4;stroke:#40b5c4;" x="369.623772" xlink:href="#m2a75f79f63" y="223.770917"/>
    </g>
   </g>
   <g id="line2d_14">
    <path clip-path="url(#pd0068bcd91)" d="M 69.218182 45.960075 
L 69.31967 46.349168 
L 69.421159 47.435288 
L 69.522647 46.702173 
L 69.624135 47.116796 
L 69.725624 44.979541 
L 69.827112 47.696575 
L 69.9286 45.708716 
L 70.131577 47.405503 
L 70.233066 45.314422 
L 70.334554 47.956443 
L 70.537531 45.737871 
L 70.639019 47.09032 
L 70.740507 45.250125 
L 70.841996 47.754726 
L 70.943484 45.591941 
L 71.044973 46.144929 
L 71.146461 47.345303 
L 71.247949 45.690436 
L 71.349438 48.147444 
L 71.450926 46.172508 
L 71.552414 46.256977 
L 71.653903 46.647961 
L 71.755391 45.497228 
L 71.85688 47.332223 
L 72.059856 46.149657 
L 72.161345 46.598162 
L 72.262833 45.906809 
L 72.364321 47.10608 
L 72.46581 46.332936 
L 72.668787 47.356335 
L 72.770275 46.103483 
L 72.871763 46.837071 
L 73.07474 45.84393 
L 73.176228 47.379501 
L 73.277717 45.216243 
L 73.480694 47.022714 
L 73.582182 45.817612 
L 73.68367 47.929337 
L 73.785159 46.048956 
L 73.886647 47.267768 
L 73.988135 46.489109 
L 74.089624 44.848109 
L 74.191112 47.894194 
L 74.292601 46.123812 
L 74.394089 46.55057 
L 74.495577 46.290859 
L 74.597066 45.433246 
L 74.698554 47.371306 
L 74.800042 46.09056 
L 74.901531 47.414171 
L 75.104508 45.702413 
L 75.205996 47.837304 
L 75.307484 45.72416 
L 75.408973 46.104428 
L 75.510461 47.067942 
L 75.611949 45.680665 
L 75.713438 47.52417 
L 75.814926 45.446326 
L 76.017903 46.989304 
L 76.119391 46.484066 
L 76.22088 47.914051 
L 76.423856 46.089615 
L 76.525345 47.247124 
L 76.626833 45.630236 
L 76.728322 47.668996 
L 76.931298 45.165498 
L 77.032787 47.775686 
L 77.134275 45.698158 
L 77.235763 47.955655 
L 77.337252 47.360117 
L 77.43874 45.746223 
L 77.540229 47.864094 
L 77.641717 45.554119 
L 77.743205 47.414801 
L 77.844694 45.886637 
L 78.04767 47.483354 
L 78.149159 45.65025 
L 78.250647 47.31741 
L 78.453624 46.546 
L 78.555112 47.793966 
L 78.656601 46.497146 
L 78.758089 47.60265 
L 78.859577 45.959444 
L 78.961066 46.00357 
L 79.062554 47.810198 
L 79.164043 46.237751 
L 79.265531 46.961568 
L 79.367019 46.843059 
L 79.468508 46.106635 
L 79.569996 47.675142 
L 79.671484 47.282582 
L 79.772973 47.752835 
L 79.97595 45.665379 
L 80.077438 47.93438 
L 80.280415 46.716356 
L 80.381903 47.594455 
L 80.483391 45.612428 
L 80.58488 47.852748 
L 80.686368 46.430958 
L 80.787857 47.609899 
L 80.889345 47.302123 
L 80.990833 46.377377 
L 81.092322 48.619903 
L 81.19381 46.513851 
L 81.295298 46.640554 
L 81.396787 47.605014 
L 81.498275 46.569323 
L 81.599764 47.536777 
L 81.701252 46.514954 
L 81.904229 47.660171 
L 82.005717 46.958889 
L 82.107205 48.477598 
L 82.310182 46.09844 
L 82.411671 48.414719 
L 82.513159 46.315443 
L 82.614647 48.276826 
L 82.817624 46.142408 
L 82.919112 48.114035 
L 83.020601 46.569796 
L 83.122089 48.848883 
L 83.325066 46.903417 
L 83.426554 48.392026 
L 83.528043 47.101194 
L 83.629531 47.992532 
L 83.731019 46.916024 
L 83.832508 47.092369 
L 83.933996 48.232858 
L 84.035485 46.58918 
L 84.136973 48.379891 
L 84.238461 47.31741 
L 84.441438 48.4932 
L 84.542926 46.905623 
L 84.644415 48.403688 
L 84.847392 46.679952 
L 85.050368 48.172343 
L 85.151857 47.493597 
L 85.253345 47.694999 
L 85.354833 47.047928 
L 85.456322 49.153823 
L 85.55781 47.683022 
L 85.760787 48.311812 
L 85.862275 46.410786 
L 85.963764 49.127348 
L 86.065252 47.585158 
L 86.16674 48.075582 
L 86.268229 48.04107 
L 86.369717 46.71084 
L 86.471206 49.317403 
L 86.572694 47.405819 
L 86.674182 48.814844 
L 86.877159 46.913188 
L 86.978647 49.092993 
L 87.080136 48.805546 
L 87.181624 48.172501 
L 87.283113 48.582554 
L 87.384601 47.263198 
L 87.486089 48.992607 
L 87.689066 47.896243 
L 87.790554 49.4419 
L 87.892043 46.333566 
L 87.993531 49.788601 
L 88.196508 48.183532 
L 88.297996 49.952339 
L 88.399485 47.889467 
L 88.500973 49.385798 
L 88.70395 47.750786 
L 88.805438 49.45104 
L 88.906927 48.066915 
L 89.008415 49.885993 
L 89.109903 49.381227 
L 89.211392 48.105682 
L 89.31288 49.93721 
L 89.414368 48.589961 
L 89.515857 49.703029 
L 89.617345 48.631092 
L 89.718834 48.943123 
L 89.820322 50.276977 
L 89.92181 49.266816 
L 90.023299 50.302665 
L 90.226275 48.77324 
L 90.327764 50.203855 
L 90.429252 49.292976 
L 90.530741 50.366489 
L 90.733717 48.627152 
L 90.835206 50.950838 
L 90.936694 49.395568 
L 91.038182 51.329215 
L 91.241159 50.039014 
L 91.342648 50.659609 
L 91.444136 49.831309 
L 91.545624 50.891899 
L 91.748601 49.232146 
L 91.850089 50.909549 
L 91.951578 50.057295 
L 92.053066 50.329298 
L 92.154555 51.693094 
L 92.256043 49.944459 
L 92.357531 51.834296 
L 92.45902 49.6526 
L 92.661996 51.037986 
L 92.763485 49.686009 
L 92.864973 52.413287 
L 92.966462 49.651339 
L 93.169438 51.52652 
L 93.270927 50.463566 
L 93.372415 52.718226 
L 93.473903 50.225287 
L 93.67688 51.448039 
L 93.778369 50.120331 
L 93.879857 52.131671 
L 93.981345 51.695458 
L 94.082834 50.287063 
L 94.184322 51.64298 
L 94.28581 50.833117 
L 94.387299 52.942321 
L 94.590276 51.266967 
L 94.691764 52.892995 
L 94.793252 50.157996 
L 94.894741 53.024742 
L 94.996229 51.310777 
L 95.097717 52.235051 
L 95.300694 51.446779 
L 95.402183 52.475693 
L 95.605159 52.1468 
L 95.706648 53.385469 
L 95.808136 51.611619 
L 95.909624 53.067449 
L 96.112601 51.641089 
L 96.21409 54.380028 
L 96.315578 51.381851 
L 96.417066 53.969503 
L 96.620043 52.204163 
L 96.721531 54.28831 
L 96.82302 52.19455 
L 96.924508 54.028284 
L 97.127485 52.434562 
L 97.228973 53.902841 
L 97.330462 53.612558 
L 97.43195 54.065476 
L 97.634927 52.310695 
L 97.736415 54.113699 
L 97.837904 53.230399 
L 97.939392 53.274839 
L 98.04088 53.788903 
L 98.142369 51.734383 
L 98.243857 54.709867 
L 98.345345 52.698685 
L 98.446834 54.321562 
L 98.548322 54.149787 
L 98.649811 52.455206 
L 98.751299 54.367106 
L 98.954276 53.339452 
L 99.055764 54.0037 
L 99.157252 52.788827 
L 99.258741 54.208411 
L 99.360229 53.020644 
L 99.461718 53.256401 
L 99.563206 54.49113 
L 99.664694 54.423208 
L 99.766183 53.790794 
L 99.867671 54.02135 
L 99.969159 53.506972 
L 100.172136 53.859189 
L 100.273625 54.120318 
L 100.375113 53.228665 
L 100.476601 53.869905 
L 100.57809 53.799934 
L 100.679578 55.550145 
L 100.781066 54.024029 
L 100.882555 54.563465 
L 101.085532 53.729333 
L 101.288508 54.437549 
L 101.389997 53.490425 
L 101.592973 54.617676 
L 101.694462 54.696787 
L 101.79595 55.272469 
L 101.998927 54.31384 
L 102.100415 54.044516 
L 102.201904 54.589152 
L 102.303392 54.271448 
L 102.40488 54.673148 
L 102.506369 53.997239 
L 102.709346 54.906226 
L 102.810834 54.444326 
L 102.912322 54.98124 
L 103.013811 54.410759 
L 103.115299 54.995265 
L 103.318276 54.069258 
L 103.419764 54.324871 
L 103.521253 55.069018 
L 103.622741 54.21046 
L 103.724229 55.140407 
L 103.825718 54.725311 
L 103.927206 54.844135 
L 104.130183 54.722475 
L 104.231671 55.337712 
L 104.33316 53.547157 
L 104.434648 55.081783 
L 104.536136 54.277751 
L 104.637625 56.12693 
L 104.739113 54.052081 
L 104.840601 55.645488 
L 104.94209 54.443538 
L 105.043578 55.367496 
L 105.145067 54.331648 
L 105.55102 55.555503 
L 105.652508 55.792521 
L 105.753997 54.952716 
L 105.855485 55.200134 
L 105.956974 54.781256 
L 106.15995 55.749971 
L 106.261439 55.324632 
L 106.464415 56.254421 
L 106.565904 57.310284 
L 106.768881 56.467327 
L 106.971857 56.19233 
L 107.073346 56.750677 
L 107.377811 56.116371 
L 107.479299 56.36111 
L 107.580788 57.857284 
L 107.783764 56.966419 
L 107.986741 56.784874 
L 108.088229 56.718055 
L 108.189718 57.275614 
L 108.392695 56.385695 
L 108.595671 57.855077 
L 108.900136 57.141661 
L 109.001625 57.183738 
L 109.204602 57.841209 
L 109.30609 56.919299 
L 109.509067 57.766826 
L 109.610555 58.274586 
L 109.712043 57.788416 
L 109.813532 58.157653 
L 109.91502 57.527602 
L 110.016509 57.906137 
L 110.219485 57.797241 
L 110.625439 58.60931 
L 110.726927 58.084688 
L 110.828416 58.228884 
L 110.929904 58.155447 
L 111.031392 58.5707 
L 111.132881 58.323439 
L 111.234369 59.002028 
L 111.437346 58.405702 
L 111.538834 58.460544 
L 111.640323 58.391519 
L 111.843299 59.278443 
L 111.944788 58.675341 
L 112.046276 58.760125 
L 112.249253 59.477009 
L 112.350741 59.078775 
L 112.45223 59.279389 
L 112.655206 58.690627 
L 112.756695 58.952387 
L 112.858183 58.877373 
L 113.162648 59.493713 
L 113.264137 59.583856 
L 113.365625 58.741687 
L 113.467113 59.098947 
L 113.568602 58.910152 
L 113.67009 59.382454 
L 113.974555 58.609625 
L 114.177532 59.695115 
L 114.27902 59.58228 
L 114.380509 58.853892 
L 114.583485 59.074363 
L 114.684974 59.680932 
L 114.786462 59.378199 
L 114.887951 58.643665 
L 114.989439 59.160565 
L 115.090927 58.923232 
L 115.192416 59.895887 
L 115.395392 59.04836 
L 115.496881 59.17333 
L 115.598369 59.029449 
L 115.801346 59.804641 
L 115.902834 58.698034 
L 116.105811 59.261896 
L 116.207299 60.085312 
L 116.410276 59.442181 
L 116.511765 58.926384 
L 116.613253 59.341165 
L 116.714741 59.184834 
L 116.81623 60.395452 
L 116.917718 58.664625 
L 117.019206 59.421064 
L 117.120695 58.883677 
L 117.222183 60.365667 
L 117.323672 59.471493 
L 117.42516 59.917162 
L 117.526648 58.924808 
L 117.729625 59.330291 
L 117.932602 59.698897 
L 118.03409 59.808424 
L 118.135579 59.206739 
L 118.237067 60.29349 
L 118.338555 59.579128 
L 118.440044 60.021172 
L 118.541532 59.144333 
L 118.744509 59.530275 
L 118.845997 59.765559 
L 118.947486 59.509473 
L 119.048974 59.634443 
L 119.150462 60.157961 
L 119.251951 60.023693 
L 119.353439 60.160956 
L 119.556416 59.643583 
L 119.657904 59.874297 
L 119.759393 59.608755 
L 119.860881 59.803223 
L 120.063858 59.616635 
L 120.165346 60.437371 
L 120.266834 60.298848 
L 120.368323 60.40081 
L 120.469811 59.840415 
L 120.5713 60.175612 
L 120.672788 59.969482 
L 120.774276 60.070971 
L 120.875765 60.341713 
L 120.977253 58.969722 
L 121.078741 61.13818 
L 121.281718 59.637437 
L 121.383207 60.77178 
L 121.484695 59.543985 
L 121.586183 61.217922 
L 121.687672 59.496077 
L 121.890648 61.087593 
L 121.992137 58.902273 
L 122.093625 61.327132 
L 122.296602 59.956875 
L 122.39809 61.200744 
L 122.499579 59.749012 
L 122.601067 61.557216 
L 122.702555 59.880758 
L 122.804044 60.136687 
L 122.905532 61.346043 
L 123.007021 59.473384 
L 123.108509 61.54319 
L 123.311486 59.828753 
L 123.412974 61.971839 
L 123.514462 60.086572 
L 123.615951 61.689908 
L 123.717439 60.123606 
L 123.818928 60.549419 
L 123.920416 61.91747 
L 124.021904 60.206657 
L 124.123393 62.068915 
L 124.326369 60.582198 
L 124.427858 62.167252 
L 124.529346 61.1853 
L 124.630835 62.282767 
L 124.732323 60.819373 
L 124.833811 61.200429 
L 124.9353 62.554455 
L 125.036788 60.438317 
L 125.138276 63.190179 
L 125.341253 61.415068 
L 125.442742 63.03763 
L 125.54423 61.481099 
L 125.645718 62.991929 
L 125.747207 61.485985 
L 125.848695 62.042755 
L 125.950183 63.40009 
L 126.051672 61.211145 
L 126.15316 63.777522 
L 126.356137 62.124545 
L 126.457625 63.73182 
L 126.559114 62.650585 
L 126.660602 63.357541 
L 126.863579 62.423496 
L 126.965067 64.400166 
L 127.066556 62.440831 
L 127.168044 64.465409 
L 127.371021 62.76216 
L 127.472509 64.802024 
L 127.573997 63.550905 
L 127.675486 64.247302 
L 127.878463 63.278903 
L 127.979951 64.939129 
L 128.081439 63.590618 
L 128.182928 65.130129 
L 128.284416 64.091917 
L 128.385904 64.139352 
L 128.487393 65.463908 
L 128.588881 64.728429 
L 128.69037 64.923212 
L 128.791858 64.837009 
L 128.893346 63.800057 
L 128.994835 65.729922 
L 129.2993 64.953154 
L 129.603765 66.210892 
L 129.705253 65.442948 
L 130.111207 66.538839 
L 130.314184 65.692416 
L 130.415672 66.145806 
L 130.51716 66.110033 
L 130.720137 66.004289 
L 130.821625 65.823374 
L 130.923114 65.941568 
L 131.024602 66.666488 
L 131.126091 66.43735 
L 131.227579 65.865609 
L 131.329067 66.055034 
L 131.430556 65.904691 
L 131.633532 66.356191 
L 131.836509 65.813919 
L 131.937998 65.90217 
L 132.039486 67.14336 
L 132.242463 66.172124 
L 132.343951 66.223814 
L 132.445439 65.871597 
L 132.648416 66.657033 
L 132.749905 65.980808 
L 132.952881 66.209158 
L 133.05437 67.116097 
L 133.358835 66.307968 
L 133.460323 66.570358 
L 133.561812 66.481634 
L 133.6633 66.945268 
L 133.764788 66.183471 
L 133.866277 66.603294 
L 133.967765 66.3896 
L 134.069253 67.277313 
L 134.27223 66.948577 
L 134.373719 66.941328 
L 134.475207 66.732677 
L 134.678184 67.278258 
L 134.779672 66.530014 
L 134.88116 67.133117 
L 134.982649 66.942746 
L 135.084137 67.820215 
L 135.388602 67.136741 
L 135.693067 67.881203 
L 135.794556 66.798865 
L 136.099021 68.685235 
L 136.301998 68.003022 
L 136.403486 67.987735 
L 136.504974 67.671292 
L 136.707951 68.588947 
L 136.80944 67.883567 
L 137.113905 69.247521 
L 137.316881 68.723845 
L 137.519858 68.744332 
L 137.621347 68.562156 
L 137.722835 69.670654 
L 137.824323 68.47485 
L 138.128788 70.083071 
L 138.331765 69.627632 
L 138.433254 69.661829 
L 138.534742 69.817687 
L 138.63623 69.681213 
L 138.737719 70.550803 
L 138.839207 69.303781 
L 139.143672 71.250036 
L 139.346649 70.793493 
L 139.448137 70.46523 
L 139.549626 71.102688 
L 139.651114 70.785771 
L 139.752602 71.502182 
L 139.854091 70.872762 
L 139.955579 71.596895 
L 140.057068 71.387613 
L 140.158556 72.580738 
L 140.260044 71.881662 
L 140.361533 72.164382 
L 140.463021 71.883554 
L 140.767486 73.051464 
L 140.868975 72.54591 
L 141.17344 74.303213 
L 141.274928 73.889062 
L 141.376416 74.347654 
L 141.477905 74.102126 
L 141.78237 75.249865 
L 141.883858 74.534242 
L 142.188323 76.914503 
L 142.289812 76.200299 
L 142.594277 77.195804 
L 142.695765 76.72823 
L 142.797254 77.635642 
L 142.898742 77.185245 
L 143.203207 78.508225 
L 143.304696 77.981712 
L 143.609161 78.439831 
L 143.710649 77.995738 
L 143.812137 78.853193 
L 143.913626 78.199977 
L 144.015114 79.055698 
L 144.116603 79.012518 
L 144.218091 79.536982 
L 144.319579 79.082804 
L 144.421068 79.306269 
L 144.522556 79.221957 
L 144.827021 80.033238 
L 144.92851 79.520751 
L 145.029998 80.325413 
L 145.131486 79.874859 
L 145.232975 80.950105 
L 145.435951 80.368435 
L 145.53744 81.090046 
L 145.638928 80.196818 
L 145.841905 81.280574 
L 145.943393 80.921266 
L 146.247858 81.991785 
L 146.349347 81.939937 
L 146.552324 81.697404 
L 146.653812 81.739481 
L 146.856789 82.809369 
L 146.958277 82.125422 
L 147.059765 82.520661 
L 147.161254 82.319102 
L 147.262742 83.402386 
L 147.364231 82.890529 
L 147.465719 83.491267 
L 147.567207 82.655245 
L 147.668696 83.377329 
L 147.770184 83.123291 
L 147.871672 84.097049 
L 147.973161 83.323275 
L 148.074649 83.5127 
L 148.277626 84.629866 
L 148.379114 84.024084 
L 148.886556 84.950722 
L 148.988044 84.470698 
L 149.393998 85.585343 
L 149.495486 85.443195 
L 149.596975 85.722605 
L 149.698463 85.623322 
L 149.90144 86.114535 
L 150.002928 85.760427 
L 150.104417 85.866801 
L 150.205905 86.152829 
L 150.307393 87.06749 
L 150.408882 86.549329 
L 150.51037 86.998938 
L 150.611858 86.7397 
L 150.713347 86.875701 
L 150.814835 86.76586 
L 150.916324 86.981288 
L 151.017812 86.787293 
L 151.1193 86.859785 
L 151.220789 86.772637 
L 151.322277 87.614805 
L 151.423765 87.212632 
L 151.525254 87.450437 
L 151.626742 87.155899 
L 151.728231 87.282287 
L 151.829719 87.126272 
L 151.931207 87.188678 
L 152.235672 86.946302 
L 152.438649 88.094829 
L 152.540138 88.233667 
L 152.641626 88.146992 
L 152.946091 90.053848 
L 153.047579 89.798708 
L 153.149068 90.059364 
L 153.453533 92.372018 
L 153.65651 92.534338 
L 153.960975 94.472397 
L 154.062463 94.008606 
L 154.26544 95.117734 
L 154.366928 96.621157 
L 154.468417 96.332134 
L 154.87437 97.540388 
L 154.975859 98.351196 
L 155.077347 98.026873 
L 155.381812 100.411704 
L 155.4833 100.315258 
L 155.584789 100.954922 
L 155.686277 100.450944 
L 155.889254 101.751074 
L 156.193719 102.536037 
L 156.396696 104.334313 
L 156.498184 104.238497 
L 156.599673 104.630427 
L 156.701161 104.377493 
L 156.802649 105.532796 
L 156.904138 105.292627 
L 157.005626 105.521765 
L 157.208603 107.093267 
L 157.310091 107.107765 
L 157.513068 107.294511 
L 157.716045 108.812589 
L 157.817533 108.053314 
L 158.121998 111.058425 
L 158.223487 110.139194 
L 158.426463 110.624418 
L 158.527952 110.661137 
L 158.62944 111.943774 
L 158.730928 111.593763 
L 158.933905 114.111602 
L 159.035394 113.891762 
L 159.339859 115.098282 
L 159.441347 115.523779 
L 159.542835 116.449786 
L 159.644324 116.204732 
L 159.948789 119.053355 
L 160.050277 118.814131 
L 160.151766 119.424798 
L 160.253254 119.205431 
L 160.557719 121.675046 
L 160.659208 120.98716 
L 160.963673 124.612709 
L 161.065161 124.104634 
L 161.166649 125.522957 
L 161.268138 124.682206 
L 161.572603 127.990051 
L 161.674091 127.007626 
L 161.978556 130.673045 
L 162.181533 131.061193 
L 162.587487 133.345324 
L 162.688975 133.817941 
L 162.99344 136.831404 
L 163.094929 136.274791 
L 163.399394 138.225143 
L 163.500882 138.474295 
L 163.60237 139.703509 
L 163.703859 139.541505 
L 163.906836 141.215283 
L 164.008324 142.634079 
L 164.109812 141.948556 
L 164.312789 143.440317 
L 164.414277 143.740056 
L 164.617254 146.065003 
L 164.718743 145.617601 
L 165.226184 149.392389 
L 165.327673 149.605137 
L 166.342557 155.402612 
L 166.444045 155.919669 
L 166.647022 157.856941 
L 166.74851 157.181346 
L 167.052975 161.04407 
L 167.154464 160.507314 
L 167.560417 163.594215 
L 167.661905 164.023179 
L 168.067859 166.991572 
L 168.169347 167.241197 
L 169.488696 174.575976 
L 169.590185 174.830171 
L 169.691673 176.453048 
L 169.793161 175.516482 
L 170.097626 179.169767 
L 170.199115 178.776103 
L 170.50358 179.322158 
L 170.706557 181.352093 
L 170.808045 180.914777 
L 171.011022 182.076541 
L 171.11251 184.143826 
L 171.213999 183.660178 
L 171.315487 183.776323 
L 171.924417 186.521566 
L 172.127394 188.883704 
L 172.228882 188.112136 
L 172.330371 188.949577 
L 172.431859 188.794507 
L 172.634836 189.874166 
L 172.837813 190.717281 
L 172.939301 191.873056 
L 173.040789 191.299896 
L 173.142278 193.283027 
L 173.243766 192.846656 
L 173.446743 193.607035 
L 173.548231 193.524142 
L 173.751208 195.369853 
L 173.852696 195.167348 
L 174.360138 197.726791 
L 174.461627 197.607337 
L 175.172045 201.95954 
L 175.273534 201.669099 
L 175.375022 201.483613 
L 175.780975 204.280547 
L 175.882464 203.710854 
L 176.186929 206.0057 
L 176.491394 205.468786 
L 176.795859 205.827622 
L 176.897348 205.819427 
L 177.100324 205.939669 
L 177.201813 207.06897 
L 177.303301 206.102934 
L 177.404789 206.70714 
L 177.607766 206.598875 
L 177.709255 206.191185 
L 177.810743 206.952667 
L 177.912231 206.540881 
L 178.115208 206.746695 
L 178.216696 207.614079 
L 178.419673 207.042022 
L 178.521162 207.331044 
L 178.62265 207.015074 
L 178.825627 207.826827 
L 178.927115 206.778371 
L 179.130092 207.732272 
L 179.23158 208.456247 
L 179.434557 208.042727 
L 179.536045 208.206623 
L 179.637534 207.846526 
L 179.84051 208.253427 
L 179.941999 207.831712 
L 180.246464 209.140194 
L 180.550929 208.56924 
L 180.652417 208.597134 
L 180.753906 209.087716 
L 180.956883 208.299444 
L 181.058371 209.313387 
L 181.159859 209.078418 
L 181.261348 209.518256 
L 181.565813 209.129951 
L 181.667301 208.97425 
L 181.870278 209.60241 
L 181.971766 209.009393 
L 182.276231 209.97732 
L 182.37772 209.724228 
L 182.479208 209.397226 
L 182.580697 209.617381 
L 182.682185 209.26154 
L 182.783673 209.717767 
L 182.885162 209.691922 
L 183.088138 209.294476 
L 183.189627 209.414088 
L 183.291115 210.220956 
L 183.494092 209.663398 
L 183.59558 209.31386 
L 183.697069 209.669229 
L 183.798557 209.537798 
L 183.900045 209.754959 
L 184.001534 209.270522 
L 184.103022 209.33151 
L 184.305999 209.800502 
L 184.407487 209.841476 
L 184.508976 209.570419 
L 184.610464 209.692552 
L 184.813441 209.201655 
L 184.914929 209.609186 
L 185.016418 209.501709 
L 185.117906 209.031614 
L 185.320883 210.027907 
L 185.422371 209.820517 
L 185.523859 209.365077 
L 185.625348 209.486895 
L 185.726836 209.358458 
L 185.828325 209.836591 
L 186.031301 209.097487 
L 186.335766 210.278635 
L 186.437255 210.270283 
L 186.640232 209.641493 
L 186.74172 209.797666 
L 186.843208 209.72738 
L 186.944697 209.967234 
L 187.046185 209.757795 
L 187.147673 209.847307 
L 187.249162 210.097247 
L 187.35065 210.661582 
L 187.553627 210.272962 
L 187.655115 210.078021 
L 187.756604 210.128293 
L 188.061069 210.522587 
L 188.162557 210.595236 
L 188.264046 210.459865 
L 188.467022 210.824689 
L 188.568511 210.029798 
L 188.669999 210.729977 
L 188.771487 210.556784 
L 188.872976 211.592002 
L 188.974464 210.841079 
L 189.075953 211.099529 
L 189.278929 210.625651 
L 189.481906 211.5411 
L 189.583394 210.591612 
L 189.786371 211.601142 
L 189.88786 211.507848 
L 189.989348 211.630297 
L 190.192325 211.390285 
L 190.49679 211.611859 
L 190.598278 211.50186 
L 190.801255 211.900093 
L 190.902743 212.444099 
L 191.004232 211.809163 
L 191.10572 212.11426 
L 191.207208 211.606343 
L 191.308697 212.128128 
L 191.410185 211.879134 
L 191.511674 212.422352 
L 191.613162 211.838633 
L 191.816139 212.210864 
L 191.917627 212.979437 
L 192.120604 212.323226 
L 192.222092 212.334258 
L 192.526557 212.747778 
L 192.628046 212.186437 
L 192.831022 212.977231 
L 192.932511 212.833823 
L 193.033999 213.007331 
L 193.236976 212.612564 
L 193.338464 212.740056 
L 193.439953 213.063591 
L 193.642929 212.822003 
L 193.845906 213.235523 
L 193.947395 213.518715 
L 194.048883 213.192186 
L 194.150371 213.421797 
L 194.353348 212.954853 
L 194.556325 213.441968 
L 194.657813 212.848794 
L 194.962278 214.385783 
L 195.063767 213.579073 
L 195.165255 213.962178 
L 195.266743 213.261684 
L 195.46972 213.699788 
L 195.672697 213.705146 
L 195.774185 214.164367 
L 195.875674 213.785675 
L 195.977162 214.528876 
L 196.180139 214.000315 
L 196.383116 213.799228 
L 196.687581 214.125127 
L 196.789069 214.141359 
L 196.890557 213.917422 
L 196.992046 215.119687 
L 197.093534 214.094239 
L 197.195023 214.382789 
L 197.296511 214.057205 
L 197.397999 214.262705 
L 197.600976 214.178393 
L 198.108418 214.773931 
L 198.311395 214.370655 
L 198.514371 214.675909 
L 198.61586 214.342603 
L 198.818837 214.787011 
L 198.920325 214.72886 
L 199.021813 215.452205 
L 199.123302 214.561971 
L 199.22479 215.286576 
L 199.326278 214.549206 
L 199.427767 214.877942 
L 199.630744 214.672757 
L 199.83372 215.162552 
L 199.935209 215.31447 
L 200.036697 215.786929 
L 200.138185 215.609323 
L 200.239674 215.795281 
L 200.341162 215.465127 
L 200.544139 215.697102 
L 200.747116 215.806628 
L 200.950092 216.163888 
L 201.051581 216.615387 
L 201.153069 216.009291 
L 201.254558 216.327153 
L 201.356046 215.770067 
L 201.457534 216.431793 
L 201.559023 216.161524 
L 201.660511 216.212268 
L 202.066465 217.025125 
L 202.269441 216.475604 
L 202.573906 216.892591 
L 202.776883 216.598052 
L 202.97986 217.24008 
L 203.182837 217.245438 
L 203.385813 216.955312 
L 203.487302 217.378918 
L 203.690279 217.12488 
L 203.791767 217.169006 
L 204.096232 217.877852 
L 204.299209 217.359534 
L 204.502186 217.660376 
L 204.603674 217.688743 
L 204.806651 217.372141 
L 205.009627 218.326515 
L 205.314093 217.657224 
L 205.517069 218.086661 
L 205.618558 218.220299 
L 205.720046 217.778885 
L 205.923023 218.107463 
L 206.024511 218.851925 
L 206.227488 218.111088 
L 206.328976 218.335971 
L 206.531953 218.369223 
L 206.633441 218.616799 
L 206.836418 218.26143 
L 207.039395 219.051909 
L 207.34386 218.507745 
L 207.546837 218.868157 
L 207.648325 218.874461 
L 207.749814 218.442818 
L 207.851302 219.005892 
L 207.95279 218.825292 
L 208.054279 219.490013 
L 208.155767 218.94585 
L 208.257255 219.171836 
L 208.460232 218.88628 
L 208.663209 219.42414 
L 208.764697 218.854604 
L 208.967674 219.250789 
L 209.069162 220.013532 
L 209.170651 219.167266 
L 209.272139 219.323754 
L 209.373628 219.081378 
L 209.576604 219.323439 
L 209.678093 219.691573 
L 209.779581 218.711669 
L 210.084046 220.123531 
L 210.185535 219.220216 
L 210.287023 219.426819 
L 210.388511 218.965864 
L 210.49 219.294915 
L 210.591488 219.220059 
L 210.692976 219.523107 
L 210.794465 218.675738 
L 210.895953 219.430443 
L 210.997442 219.368668 
L 211.09893 219.774466 
L 211.200418 219.308152 
L 211.301907 219.342507 
L 211.403395 219.146621 
L 211.504883 219.306419 
L 211.606372 219.092252 
L 211.70786 219.46338 
L 211.809349 219.419097 
L 212.012325 219.209343 
L 212.113814 219.243067 
L 212.215302 219.041508 
L 212.31679 219.56676 
L 212.418279 218.904088 
L 212.519767 219.215331 
L 212.621256 219.157337 
L 212.722744 219.848691 
L 212.824232 219.305789 
L 212.925721 219.392464 
L 213.027209 218.97264 
L 213.230186 219.212494 
L 213.331674 219.738377 
L 213.433163 218.644377 
L 213.737628 219.759022 
L 213.839116 219.225102 
L 213.940604 219.363152 
L 214.042093 218.941122 
L 214.143581 219.168054 
L 214.24507 219.093198 
L 214.346558 219.633579 
L 214.448046 218.344008 
L 214.549535 219.449827 
L 214.651023 219.006365 
L 214.752511 219.815912 
L 215.056977 218.640438 
L 215.158465 219.304055 
L 215.259953 218.958615 
L 215.361442 219.181449 
L 215.46293 218.881868 
L 215.767395 219.508924 
L 215.868884 219.136693 
L 215.970372 219.304528 
L 216.07186 218.79535 
L 216.274837 218.945535 
L 216.376325 219.047496 
L 216.477814 218.801181 
L 216.579302 219.104229 
L 216.680791 219.036465 
L 216.782279 219.554153 
L 216.985256 218.786682 
L 217.086744 219.099029 
L 217.188232 218.824662 
L 217.289721 219.080748 
L 217.492698 218.587329 
L 217.695674 219.215489 
L 217.898651 218.783846 
L 218.000139 218.851452 
L 218.101628 219.093671 
L 218.203116 218.558963 
L 218.304605 218.700007 
L 218.406093 219.126922 
L 218.60907 218.767614 
L 218.710558 218.915435 
L 218.812046 218.758946 
L 218.913535 218.304768 
L 219.218 219.142051 
L 219.420977 218.616011 
L 219.623953 218.62326 
L 219.725442 218.798187 
L 219.928419 218.467087 
L 220.131395 219.331634 
L 220.232884 219.403023 
L 220.43586 219.13622 
L 220.638837 219.361261 
L 220.740326 219.709065 
L 220.841814 218.919847 
L 221.146279 220.673525 
L 221.247767 219.714896 
L 221.349256 220.153473 
L 221.450744 219.692676 
L 221.755209 220.44612 
L 221.856698 220.024563 
L 222.059674 220.303815 
L 222.161163 221.210597 
L 222.262651 221.042446 
L 222.465628 220.463928 
L 222.770093 221.29475 
L 222.871581 220.850658 
L 223.074558 221.529877 
L 223.176047 220.702206 
L 223.277535 221.36677 
L 223.379023 221.193104 
L 223.480512 222.413965 
L 223.582 221.53161 
L 223.784977 221.854358 
L 223.987954 221.764215 
L 224.089442 222.273551 
L 224.19093 221.597956 
L 224.495395 223.065606 
L 224.596884 222.495755 
L 224.698372 222.607487 
L 224.799861 222.071046 
L 224.901349 222.77674 
L 225.002837 222.532158 
L 225.408791 223.121235 
L 225.510279 223.572262 
L 225.611768 223.041809 
L 225.814744 223.124387 
L 225.916233 223.68494 
L 226.017721 223.62868 
L 226.220698 223.364872 
L 226.423675 223.741988 
L 226.626651 223.500085 
L 226.829628 224.651764 
L 226.931116 224.110752 
L 227.032605 224.239504 
L 227.134093 224.051025 
L 227.438558 224.774054 
L 227.540047 223.599683 
L 227.641535 224.780831 
L 227.743023 224.472424 
L 227.844512 225.511898 
L 227.946 224.621821 
L 228.047489 225.021473 
L 228.148977 224.654915 
L 228.351954 224.734184 
L 228.55493 224.691004 
L 228.859396 225.201285 
L 228.960884 224.586836 
L 229.062372 224.624658 
L 229.163861 224.758295 
L 229.265349 224.678239 
L 229.366837 224.750889 
L 229.468326 224.652551 
L 229.569814 224.377712 
L 229.772791 225.090025 
L 229.874279 224.768696 
L 229.975768 224.801633 
L 230.178744 224.410649 
L 230.381721 224.870816 
L 230.48321 224.051655 
L 230.787675 225.065441 
L 230.990651 224.593612 
L 231.09214 224.306165 
L 231.193628 224.63632 
L 231.295117 224.317354 
L 231.396605 224.763181 
L 231.498093 223.948748 
L 231.802558 225.131157 
L 231.904047 224.521751 
L 232.005535 224.543341 
L 232.107024 224.100666 
L 232.31 224.363529 
L 232.411489 224.282842 
L 232.512977 224.359431 
L 232.614465 224.609529 
L 232.715954 224.457926 
L 232.817442 224.876962 
L 233.020419 224.328386 
L 233.324884 224.549014 
L 233.527861 224.055437 
L 233.730838 224.857105 
L 234.238279 224.429875 
L 234.339768 224.762393 
L 234.441256 224.111382 
L 234.745721 225.491411 
L 234.84721 224.551378 
L 234.948698 224.718582 
L 235.050186 224.30459 
L 235.354652 225.061344 
L 235.45614 224.073718 
L 235.659117 224.80116 
L 235.760605 225.285754 
L 235.862093 224.757507 
L 235.963582 224.937162 
L 236.06507 224.43933 
L 236.268047 224.854899 
L 236.471024 224.55973 
L 236.674 225.040226 
L 236.775489 225.295997 
L 236.876977 224.956388 
L 236.978466 225.02494 
L 237.079954 224.88752 
L 237.181442 224.945356 
L 237.282931 225.148334 
L 237.485907 224.829527 
L 237.587396 224.901704 
L 237.688884 225.828972 
L 237.891861 225.121228 
L 237.993349 225.314278 
L 238.094838 225.124695 
L 238.196326 225.220353 
L 238.297814 225.494247 
L 238.399303 224.997992 
L 238.60228 225.394807 
L 238.703768 226.230515 
L 238.805256 225.581711 
L 238.906745 225.866163 
L 239.008233 225.279923 
L 239.21121 225.758528 
L 239.414187 225.562642 
L 239.617163 226.207979 
L 239.718652 226.258881 
L 239.921628 226.01099 
L 240.124605 226.189068 
L 240.226094 226.29103 
L 240.327582 226.199784 
L 240.42907 226.327749 
L 240.530559 226.019027 
L 240.632047 227.0834 
L 240.733535 226.690367 
L 240.936512 226.750567 
L 241.038001 226.461859 
L 241.139489 226.669092 
L 241.240977 227.292051 
L 241.342466 226.493062 
L 241.545442 226.936367 
L 241.646931 227.938491 
L 241.748419 227.264945 
L 241.849908 227.327824 
L 241.951396 227.01989 
L 242.052884 227.312538 
L 242.154373 227.192611 
L 242.255861 227.610858 
L 242.357349 227.314744 
L 242.560326 228.032573 
L 242.661815 227.708092 
L 242.864791 228.051484 
L 242.96628 227.563738 
L 243.169256 228.092615 
L 243.270745 228.147772 
L 243.372233 227.897832 
L 243.676698 228.646392 
L 243.778187 228.248 
L 243.879675 228.598641 
L 243.981163 228.413314 
L 244.18414 228.83298 
L 244.285629 228.053375 
L 244.590094 229.491082 
L 244.79307 228.943136 
L 244.894559 228.701549 
L 245.199024 229.605651 
L 245.300512 228.650331 
L 245.402001 229.318677 
L 245.503489 229.052662 
L 245.604977 229.939902 
L 245.706466 229.382817 
L 245.807954 229.582643 
L 245.909443 229.283061 
L 246.112419 229.752053 
L 246.315396 229.38912 
L 246.619861 230.148711 
L 246.72135 230.045646 
L 246.924326 229.660178 
L 247.025815 230.113568 
L 247.127303 230.066448 
L 247.228791 229.820763 
L 247.634745 230.576572 
L 247.736233 230.302205 
L 247.837722 230.351216 
L 247.93921 230.079371 
L 248.040698 230.423393 
L 248.142187 230.230659 
L 248.54814 230.549151 
L 248.649629 230.754493 
L 248.852605 230.402748 
L 248.954094 230.353422 
L 249.157071 230.638978 
L 249.258559 230.163997 
L 249.563024 231.036739 
L 249.664512 230.575154 
L 249.766001 230.666557 
L 249.867489 230.483278 
L 250.070466 230.545841 
L 250.171954 230.256031 
L 250.577908 231.114431 
L 250.679396 230.523621 
L 251.08535 230.665926 
L 251.186838 230.451444 
L 251.288326 230.558134 
L 251.389815 230.319067 
L 251.491303 231.275805 
L 251.69428 230.78475 
L 251.795768 230.448923 
L 251.897257 230.683734 
L 251.998745 230.638348 
L 252.100233 230.979218 
L 252.201722 230.299841 
L 252.30321 230.665926 
L 252.404699 230.462003 
L 252.506187 231.392108 
L 252.709164 230.725969 
L 252.810652 230.459954 
L 252.91214 230.605726 
L 253.013629 231.041782 
L 253.115117 230.225931 
L 253.419582 230.978588 
L 253.622559 230.94439 
L 253.724047 230.404167 
L 254.028513 230.958574 
L 254.130001 230.321274 
L 254.231489 230.664665 
L 254.332978 230.496358 
L 254.434466 231.374142 
L 254.637443 230.767888 
L 254.738931 230.530082 
L 254.84042 230.575311 
L 254.941908 230.638663 
L 255.043396 231.000808 
L 255.144885 230.278724 
L 255.44935 231.240505 
L 255.753815 230.266274 
L 255.956792 230.785853 
L 256.159768 230.492891 
L 256.464234 231.002542 
L 256.66721 230.348379 
L 256.768699 230.702487 
L 256.870187 230.615024 
L 256.971675 230.73243 
L 257.073164 230.308509 
L 257.174652 230.470828 
L 257.276141 230.248782 
L 257.377629 231.660328 
L 257.580606 230.535598 
L 257.783582 230.507704 
L 257.986559 230.626686 
L 258.189536 230.359726 
L 258.291024 230.865595 
L 258.392513 230.766785 
L 258.494001 230.482175 
L 258.595489 230.55971 
L 258.696978 230.398809 
L 258.798466 230.671915 
L 259.001443 230.42292 
L 259.102931 230.19851 
L 259.305908 230.862128 
L 259.508885 230.492103 
L 259.711862 230.473665 
L 259.81335 230.162106 
L 259.914838 230.761111 
L 260.117815 230.152493 
L 260.219303 230.356889 
L 260.320792 231.084804 
L 260.42228 230.387462 
L 260.523769 230.646858 
L 260.625257 230.046434 
L 260.828234 230.450499 
L 261.03121 230.230501 
L 261.132699 230.283609 
L 261.335676 230.699336 
L 261.741629 230.113253 
L 261.843117 230.503765 
L 261.944606 229.845663 
L 262.046094 230.294168 
L 262.147583 230.223567 
L 262.249071 230.668763 
L 262.553536 229.980561 
L 262.655024 230.101276 
L 262.756513 230.406531 
L 262.858001 229.787354 
L 263.060978 230.251776 
L 263.263955 230.353738 
L 263.365443 230.311661 
L 263.56842 230.054787 
L 263.771397 230.343494 
L 263.872885 229.723372 
L 264.17735 230.884033 
L 264.278838 230.0395 
L 264.380327 230.251776 
L 264.481815 229.874502 
L 264.583304 230.017437 
L 264.684792 229.966063 
L 264.78628 230.178811 
L 264.887769 229.716753 
L 264.989257 230.192994 
L 265.090745 230.010661 
L 265.192234 230.50014 
L 265.395211 229.861107 
L 265.496699 229.861737 
L 265.699676 230.313237 
L 265.801164 229.693902 
L 266.207118 230.348064 
L 266.308606 230.251145 
L 266.410094 229.708243 
L 266.714559 230.383995 
L 266.816048 229.303863 
L 267.120513 230.576887 
L 267.222001 229.934859 
L 267.32349 230.358623 
L 267.424978 229.903971 
L 267.627955 230.165101 
L 267.830932 229.7987 
L 267.93242 231.030908 
L 268.033908 229.894043 
L 268.135397 230.238065 
L 268.338373 229.854173 
L 268.54135 230.270529 
L 268.642839 230.050532 
L 268.744327 230.918073 
L 268.947304 230.137995 
L 269.048792 230.204026 
L 269.15028 230.102222 
L 269.251769 230.634881 
L 269.454746 230.009085 
L 269.657722 230.791999 
L 269.759211 230.348537 
L 269.860699 230.580984 
L 269.962187 230.10821 
L 270.165164 230.434109 
L 270.266653 230.084256 
L 270.368141 230.376273 
L 270.469629 230.295901 
L 270.571118 230.486272 
L 270.672606 230.915551 
L 270.875583 230.367448 
L 270.977071 230.175344 
L 271.180048 230.661198 
L 271.281536 230.132637 
L 271.484513 230.587918 
L 271.586001 231.021925 
L 271.68749 230.50534 
L 271.788978 230.621801 
L 271.890467 230.163209 
L 272.093443 230.574681 
L 272.194932 230.020274 
L 272.29642 231.431821 
L 272.397908 230.430012 
L 272.499397 230.794994 
L 272.600885 230.273681 
L 272.702374 230.694923 
L 273.006839 230.320013 
L 273.209815 230.921697 
L 273.412792 230.705009 
L 273.514281 230.753074 
L 273.717257 230.484538 
L 273.818746 230.925479 
L 273.920234 230.18543 
L 274.224699 231.218442 
L 274.326188 230.745667 
L 274.427676 230.830136 
L 274.529164 230.419296 
L 274.732141 230.713992 
L 275.036606 230.62117 
L 275.239583 231.229788 
L 275.44256 230.713361 
L 275.544048 230.571844 
L 275.747025 230.97906 
L 275.848513 230.290386 
L 276.152978 231.502579 
L 276.254467 230.621328 
L 276.355955 230.903889 
L 276.457443 230.469567 
L 276.66042 230.892385 
L 276.964885 230.672545 
L 277.066374 231.328756 
L 277.167862 230.762057 
L 277.26935 230.780653 
L 277.573816 231.3494 
L 277.675304 230.898531 
L 277.776792 231.12105 
L 277.979769 230.990565 
L 278.081257 231.423311 
L 278.182746 230.661671 
L 278.487211 231.825484 
L 278.690188 231.295662 
L 278.791676 231.09552 
L 278.893164 231.275963 
L 279.096141 231.184402 
L 279.19763 231.329071 
L 279.299118 231.13413 
L 279.502095 231.79302 
L 279.705071 231.253742 
L 279.80656 231.211665 
L 280.009537 231.776631 
L 280.111025 231.021768 
L 280.41549 232.063132 
L 280.516978 231.515659 
L 280.618467 231.550487 
L 280.719955 231.532522 
L 280.922932 231.672148 
L 281.125909 231.428511 
L 281.328885 232.216626 
L 281.430374 231.687907 
L 281.531862 231.71974 
L 281.633351 231.644884 
L 281.734839 231.921142 
L 281.836327 231.842662 
L 281.937816 231.582951 
L 282.242281 231.989852 
L 282.343769 232.339075 
L 282.445258 231.761187 
L 282.546746 231.833048 
L 282.648234 232.052258 
L 282.749723 231.857633 
L 282.851211 232.238059 
L 282.952699 231.417007 
L 283.054188 231.992531 
L 283.155676 231.868191 
L 283.257165 232.62794 
L 283.358653 232.025468 
L 283.460141 232.360349 
L 283.56163 231.796172 
L 283.764606 232.208589 
L 283.967583 231.862045 
L 284.17056 232.577353 
L 284.272048 232.334347 
L 284.373537 232.378945 
L 284.475025 231.941944 
L 284.576513 232.328358 
L 284.678002 232.241683 
L 284.77949 232.635504 
L 284.880979 231.647091 
L 285.185444 232.772451 
L 285.38842 232.317642 
L 285.591397 232.267371 
L 285.692886 232.608398 
L 285.794374 232.11955 
L 285.895862 232.161154 
L 286.098839 233.159338 
L 286.200327 232.322843 
L 286.301816 232.715876 
L 286.403304 232.04296 
L 286.606281 232.565691 
L 286.707769 232.23601 
L 286.910746 232.746921 
L 287.012234 232.721549 
L 287.113723 232.829657 
L 287.519676 232.506752 
L 287.621165 233.113637 
L 287.722653 232.07637 
L 287.824141 232.667653 
L 287.92563 232.453171 
L 288.027118 233.580265 
L 288.128607 232.712251 
L 288.230095 233.024597 
L 288.331583 232.466881 
L 288.53456 232.984254 
L 288.737537 232.48264 
L 288.940514 233.442215 
L 289.14349 232.840531 
L 289.244979 232.798927 
L 289.346467 233.018609 
L 289.447955 232.784271 
L 289.549444 233.080385 
L 289.650932 232.625891 
L 289.955397 233.337889 
L 290.158374 232.908137 
L 290.361351 233.118837 
L 290.462839 233.131287 
L 290.564328 232.776706 
L 290.868793 233.71012 
L 291.071769 233.253893 
L 291.274746 233.056746 
L 291.376235 233.233879 
L 291.6807 233.125456 
L 291.782188 233.856365 
L 291.985165 233.367832 
L 292.086653 233.182031 
L 292.391118 233.486498 
L 292.492607 233.066359 
L 292.695583 233.470581 
L 292.797072 233.880949 
L 292.89856 233.406126 
L 293.000049 233.591769 
L 293.101537 233.323391 
L 293.304514 233.610365 
L 293.406002 233.177776 
L 293.710467 234.082666 
L 293.811956 233.541655 
L 293.913444 233.723043 
L 294.014932 233.243492 
L 294.116421 233.789862 
L 294.217909 233.547328 
L 294.319397 233.592715 
L 294.420886 233.398247 
L 294.522374 233.468375 
L 294.623862 234.250974 
L 294.725351 234.080775 
L 294.826839 233.594291 
L 294.928328 233.671668 
L 295.029816 233.519592 
L 295.232793 233.860778 
L 295.334281 233.110485 
L 295.537258 234.012853 
L 295.638746 234.262163 
L 295.841723 233.688215 
L 295.943211 233.92476 
L 296.0447 233.881107 
L 296.146188 233.842812 
L 296.247676 233.469321 
L 296.349165 233.870233 
L 296.450653 233.737384 
L 296.552142 234.655039 
L 296.755118 233.930906 
L 296.958095 233.793486 
L 297.059583 234.041062 
L 297.161072 233.623918 
L 297.26256 233.872755 
L 297.364049 233.823113 
L 297.465537 234.476803 
L 297.668514 234.110875 
L 297.87149 233.879374 
L 297.972979 233.990318 
L 298.074467 233.913413 
L 298.277444 233.945877 
L 298.378932 234.425743 
L 298.480421 234.357506 
L 298.581909 233.954072 
L 298.683397 234.17407 
L 298.886374 233.961636 
L 298.987863 234.276346 
L 299.089351 233.487444 
L 299.190839 234.313065 
L 299.292328 234.082036 
L 299.393816 234.681829 
L 299.596793 234.086921 
L 299.79977 234.159729 
L 299.901258 234.564581 
L 300.002746 233.726825 
L 300.104235 233.891981 
L 300.307211 234.983774 
L 300.4087 234.170287 
L 300.510188 234.291002 
L 300.611677 234.065331 
L 300.713165 234.346632 
L 300.916142 234.212207 
L 301.01763 233.814919 
L 301.220607 234.907973 
L 301.423584 234.288166 
L 301.525072 234.160359 
L 301.728049 234.275086 
L 301.829537 234.163826 
L 301.931025 234.354669 
L 302.032514 234.245616 
L 302.134002 234.765983 
L 302.235491 234.436302 
L 302.336979 234.688606 
L 302.539956 234.248295 
L 302.742932 234.617689 
L 302.844421 233.866924 
L 303.148886 234.903876 
L 303.250374 234.379884 
L 303.351863 234.407462 
L 303.453351 234.567733 
L 303.554839 234.460571 
L 303.656328 234.716184 
L 303.757816 234.004501 
L 303.960793 234.446388 
L 304.062281 235.382796 
L 304.16377 234.53653 
L 304.265258 234.728791 
L 304.366746 234.169184 
L 304.569723 234.630139 
L 304.671212 234.364913 
L 304.7727 234.408881 
L 304.874188 234.569624 
L 304.975677 235.226308 
L 305.178653 234.577188 
L 305.38163 234.594524 
L 305.686095 234.474596 
L 305.787584 234.501545 
L 305.889072 235.112842 
L 306.193537 234.5411 
L 306.295026 234.617689 
L 306.396514 234.636443 
L 306.498002 234.806642 
L 306.599491 234.366961 
L 306.700979 234.893159 
L 307.005444 234.476172 
L 307.309909 235.222683 
L 307.512886 234.681199 
L 307.614374 234.741084 
L 307.715863 234.646371 
L 307.817351 235.238442 
L 307.91884 234.322993 
L 308.223305 235.497523 
L 308.426281 234.702001 
L 308.730747 235.098659 
L 308.832235 234.365858 
L 309.1367 235.534872 
L 309.238188 234.673162 
L 309.339677 235.147512 
L 309.441165 234.705153 
L 309.644142 234.991339 
L 309.74563 234.577188 
L 310.050095 235.580416 
L 310.253072 234.925938 
L 310.354561 234.833117 
L 310.557537 234.948159 
L 310.862002 234.853289 
L 310.963491 235.722248 
L 311.064979 235.135693 
L 311.166468 235.157913 
L 311.572421 234.855495 
L 311.775398 235.099604 
L 311.876886 235.629899 
L 312.079863 235.246322 
L 312.181351 235.051854 
L 312.384328 235.085579 
L 312.688793 235.101338 
L 312.790282 235.533769 
L 312.89177 235.481763 
L 312.993258 235.377753 
L 313.196235 235.061782 
L 313.399212 235.500202 
L 313.5007 234.809636 
L 313.703677 235.469314 
L 313.805165 235.502723 
L 313.906654 235.248843 
L 314.008142 235.51076 
L 314.10963 235.127655 
L 314.312607 235.517064 
L 314.414096 234.921526 
L 314.515584 235.103386 
L 314.718561 235.904266 
L 314.921537 235.17509 
L 315.124514 235.475617 
L 315.226003 235.587665 
L 315.327491 234.948947 
L 315.631956 235.991572 
L 315.834933 235.383426 
L 315.936421 235.463325 
L 316.03791 235.391306 
L 316.139398 235.623911 
L 316.240886 235.21244 
L 316.342375 235.496104 
L 316.443863 235.359788 
L 316.545351 236.249707 
L 316.64684 235.623911 
L 316.748328 235.705701 
L 316.951305 235.317238 
L 317.052793 236.058863 
L 317.154282 235.27264 
L 317.25577 235.379329 
L 317.458747 236.318416 
L 317.560235 235.649283 
L 317.661724 235.872275 
L 317.763212 235.187067 
L 317.966189 235.764798 
L 318.169165 235.542436 
L 318.270654 235.684584 
L 318.372142 236.407928 
L 318.473631 235.813021 
L 318.575119 235.96226 
L 318.676607 235.563711 
L 318.778096 235.606103 
L 318.879584 235.92885 
L 319.082561 235.752033 
L 319.184049 235.688051 
L 319.285538 236.652668 
L 319.387026 235.865183 
L 319.488514 236.109293 
L 319.590003 235.65275 
L 319.894468 235.984638 
L 320.097445 235.721775 
L 320.198933 236.763297 
L 320.300421 236.028291 
L 320.40191 236.091642 
L 320.604886 235.789067 
L 320.807863 236.160195 
L 320.909352 235.72603 
L 321.112328 236.728785 
L 321.315305 236.129779 
L 321.416793 236.120639 
L 321.61977 236.417541 
L 321.721259 235.944767 
L 322.025724 236.390593 
L 322.127212 235.819009 
L 322.431677 236.864313 
L 322.634654 236.200696 
L 322.939119 236.500119 
L 323.040607 236.106614 
L 323.142096 236.429676 
L 323.243584 236.370264 
L 323.345073 237.169883 
L 323.548049 236.341425 
L 323.751026 236.6689 
L 323.852514 236.556852 
L 323.954003 236.17359 
L 324.258468 237.246315 
L 324.461445 236.537153 
L 324.562933 236.522813 
L 324.664421 236.862265 
L 324.867398 236.815617 
L 324.968887 236.8848 
L 325.171863 236.659129 
L 325.37484 237.102592 
L 325.476328 236.184779 
L 325.679305 236.93712 
L 325.780794 237.288234 
L 326.085259 236.807108 
L 326.186747 236.885431 
L 326.288235 237.279409 
L 326.389724 236.464661 
L 326.491212 237.07785 
L 326.592701 236.953825 
L 326.694189 237.51296 
L 326.897166 236.809944 
L 326.998654 237.225355 
L 327.100142 237.03987 
L 327.201631 237.25971 
L 327.303119 236.581594 
L 327.404608 237.314079 
L 327.506096 237.010716 
L 327.607584 237.736897 
L 327.810561 236.671421 
L 327.912049 237.89638 
L 328.013538 237.179339 
L 328.115026 237.468046 
L 328.216515 236.751478 
L 328.419491 237.436843 
L 328.52098 236.970372 
L 328.723956 237.334566 
L 328.825445 237.918127 
L 328.926933 237.403276 
L 329.028422 237.611297 
L 329.12991 237.109998 
L 329.231398 237.280512 
L 329.332887 237.804346 
L 329.434375 237.018595 
L 329.637352 237.501613 
L 329.73884 238.151835 
L 329.941817 237.430697 
L 330.043305 237.766209 
L 330.144794 237.458275 
L 330.246282 237.755966 
L 330.34777 237.253249 
L 330.449259 237.290913 
L 330.652236 238.194858 
L 330.753724 237.591283 
L 330.855212 237.856667 
L 331.058189 237.605308 
L 331.159677 237.729963 
L 331.261166 237.496413 
L 331.464143 237.679534 
L 331.565631 238.421474 
L 331.667119 237.813171 
L 331.768608 237.854776 
L 331.870096 237.659677 
L 332.073073 237.962568 
L 332.174561 237.445038 
L 332.27605 237.929474 
L 332.377538 237.789217 
L 332.479026 238.555585 
L 332.783491 237.783702 
L 332.986468 238.124415 
L 333.087957 237.584664 
L 333.392422 238.770382 
L 333.595398 238.015204 
L 333.696887 237.915606 
L 333.899864 238.312579 
L 334.001352 237.689935 
L 334.305817 238.802215 
L 334.508794 238.014416 
L 334.711771 238.257737 
L 334.813259 238.462291 
L 334.914747 237.820263 
L 335.219212 238.947357 
L 335.422189 238.325186 
L 335.523678 238.346461 
L 335.625166 238.627446 
L 335.726654 238.526745 
L 335.828143 237.984001 
L 335.929631 238.596086 
L 336.031119 238.423996 
L 336.132608 239.006611 
L 336.335585 237.985104 
L 336.538561 238.928761 
L 336.64005 238.567562 
L 336.741538 238.603965 
L 336.944515 238.475213 
L 337.046003 238.980294 
L 337.147492 238.362693 
L 337.451957 239.020952 
L 337.654933 238.685913 
L 337.85791 238.63832 
L 337.959399 238.99558 
L 338.060887 238.583321 
L 338.365352 239.264274 
L 338.568329 238.736342 
L 338.771306 238.904335 
L 338.872794 238.740282 
L 339.177259 239.300677 
L 339.278747 239.054834 
L 339.380236 239.357252 
L 339.481724 238.662905 
L 339.684701 239.085565 
L 339.887678 238.90071 
L 340.090654 239.315806 
L 340.293631 239.321322 
L 340.39512 238.8621 
L 340.699585 239.147025 
L 340.902561 239.053731 
L 341.00405 239.699226 
L 341.308515 238.958861 
L 341.410003 239.033717 
L 341.511492 239.416664 
L 341.61298 239.352525 
L 341.714468 238.904807 
L 341.815957 239.203443 
L 341.917445 240.125196 
L 342.120422 239.268528 
L 342.22191 239.171295 
L 342.424887 239.339129 
L 342.627864 239.107312 
L 342.729352 239.423283 
L 342.830841 240.232831 
L 342.932329 239.380891 
L 343.033817 239.623109 
L 343.135306 239.097542 
L 343.338282 239.583239 
L 343.439771 239.258285 
L 343.541259 239.297368 
L 343.744236 240.006214 
L 343.845724 239.419028 
L 343.947213 239.875413 
L 344.048701 239.245047 
L 344.150189 239.308242 
L 344.251678 239.98557 
L 344.353166 239.170507 
L 344.454655 239.596004 
L 344.556143 239.509328 
L 344.657631 240.411697 
L 344.75912 239.506649 
L 344.860608 239.548411 
L 345.165073 239.895585 
L 345.266562 239.326365 
L 345.469538 239.677163 
L 345.571027 240.320294 
L 345.774003 239.661562 
L 346.078469 239.939395 
L 346.179957 239.38294 
L 346.484422 240.4128 
L 346.687399 239.612866 
L 346.788887 239.654785 
L 346.991864 240.188075 
L 347.093352 239.350949 
L 347.397817 240.260882 
L 347.600794 239.871316 
L 347.702283 240.002117 
L 347.803771 239.750128 
L 348.311213 240.325179 
L 348.51419 239.893063 
L 348.615678 240.030168 
L 348.818655 239.887705 
L 348.920143 240.092574 
L 349.021631 240.038993 
L 349.12312 240.503888 
L 349.427585 239.770772 
L 349.529073 240.232515 
L 349.630562 239.945069 
L 349.73205 240.388689 
L 349.935027 239.907562 
L 350.036515 241.002822 
L 350.138004 240.226369 
L 350.239492 240.444161 
L 350.34098 239.923951 
L 350.543957 240.581896 
L 350.746934 239.947275 
L 350.949911 240.947823 
L 351.051399 240.40035 
L 351.152887 240.620506 
L 351.254376 239.848465 
L 351.355864 240.630434 
L 351.457352 240.446682 
L 351.558841 239.982891 
L 351.660329 240.582526 
L 351.761818 240.481825 
L 351.863306 241.118967 
L 352.066283 240.320767 
L 352.269259 240.518859 
L 352.370748 240.603643 
L 352.472236 240.204622 
L 352.776701 240.982493 
L 352.979678 240.383488 
L 353.284143 240.957909 
L 353.385632 240.314778 
L 353.690097 241.303349 
L 353.791585 240.709072 
L 353.893073 240.785977 
L 354.09605 240.633743 
L 354.299027 240.892193 
L 354.400515 240.818756 
L 354.603492 241.251817 
L 354.806469 240.734602 
L 354.907957 240.96768 
L 355.110934 240.697725 
L 355.212422 241.113924 
L 355.313911 240.801578 
L 355.415399 241.545567 
L 355.516887 241.077678 
L 355.618376 241.329352 
L 355.719864 240.763283 
L 355.821353 241.163723 
L 356.125818 240.928282 
L 356.227306 241.026146 
L 356.328794 241.818201 
L 356.430283 241.027564 
L 356.531771 241.580868 
L 356.63326 241.096117 
L 356.734748 241.155056 
L 356.836236 241.509794 
L 356.937725 240.828999 
L 357.24219 242.107223 
L 357.445167 241.228336 
L 357.546655 241.558647 
L 357.648143 241.331558 
L 357.749632 241.634607 
L 357.85112 241.166245 
L 358.155585 241.775021 
L 358.358562 241.310756 
L 358.46005 241.338177 
L 358.663027 241.728058 
L 358.764515 241.102893 
L 358.967492 241.592214 
L 359.068981 240.891563 
L 359.170469 241.625781 
L 359.271957 241.37789 
L 359.373446 241.989975 
L 359.576422 241.423749 
L 359.677911 241.504751 
L 359.779399 241.202333 
L 359.880888 241.650996 
L 359.982376 241.002507 
L 360.083864 241.646426 
L 360.185353 241.404838 
L 360.286841 241.878401 
L 360.489818 241.31375 
L 360.591306 241.337547 
L 360.794283 241.500181 
L 360.895771 241.09391 
L 361.098748 242.116364 
L 361.200236 241.502387 
L 361.301725 241.534378 
L 361.504702 241.330928 
L 361.60619 241.55518 
L 361.707678 241.264424 
L 361.809167 241.503018 
L 361.910655 241.27451 
L 362.012143 242.089731 
L 362.113632 241.51137 
L 362.21512 241.74886 
L 362.316609 241.319739 
L 362.519585 241.592057 
L 362.722562 241.417918 
L 362.82405 241.444709 
L 362.925539 242.070347 
L 363.230004 241.382933 
L 363.331492 241.452588 
L 363.534469 241.76588 
L 363.737446 241.462832 
L 363.838934 241.697328 
L 363.940423 241.56243 
L 364.041911 241.925678 
L 364.143399 241.267891 
L 364.346376 241.883443 
L 364.447864 241.608131 
L 364.549353 241.757528 
L 364.650841 241.173336 
L 364.75233 241.420597 
L 364.853818 241.026146 
L 364.955306 241.196187 
L 365.158283 241.062865 
L 365.259771 241.75611 
L 365.36126 240.870603 
L 365.462748 240.959958 
L 365.564237 240.675347 
L 365.767213 240.83026 
L 365.868702 240.143319 
L 365.97019 241.207534 
L 366.071678 240.326125 
L 366.173167 240.533357 
L 366.376144 240.232358 
L 366.477632 240.126929 
L 366.57912 240.788183 
L 366.782097 239.898579 
L 366.985074 240.041672 
L 367.086562 240.299177 
L 367.188051 239.311551 
L 367.391027 239.813795 
L 367.492516 239.96398 
L 367.695492 239.474658 
L 367.796981 239.451492 
L 367.999958 239.206753 
L 368.202934 239.194303 
L 368.304423 239.421707 
L 368.405911 239.001726 
L 368.507399 239.306666 
L 368.710376 238.406346 
L 368.811865 239.060193 
L 369.014841 237.89244 
L 369.11633 239.228815 
L 369.319306 237.901423 
L 369.420795 238.860839 
L 369.522283 237.866595 
L 369.623772 238.368524 
L 369.826748 237.636669 
L 369.928237 237.507129 
L 370.029725 236.829801 
L 370.131213 237.183751 
L 370.232702 236.989914 
L 370.435679 236.181154 
L 370.638655 235.724297 
L 370.740144 235.687578 
L 370.841632 234.829335 
L 370.94312 234.904348 
L 371.146097 234.221662 
L 371.247586 234.613907 
L 371.349074 233.446627 
L 371.450562 233.657485 
L 371.552051 233.34703 
L 371.653539 232.670017 
L 371.755027 233.415109 
L 371.958004 231.931543 
L 372.059493 232.342226 
L 372.363958 230.572947 
L 372.465446 230.870795 
L 372.566934 231.145635 
L 372.668423 230.208123 
L 372.769911 230.439782 
L 372.8714 229.486669 
L 373.074376 229.741337 
L 373.48033 228.109005 
L 373.581818 228.305364 
L 373.581818 228.305364 
" style="fill:none;stroke:#081d58;stroke-dasharray:5.55,2.4;stroke-dashoffset:0;stroke-width:1.5;"/>
    <defs>
     <path d="M -0 4.242641 
L 4.242641 0 
L 0 -4.242641 
L -4.242641 -0 
z
" id="m45b759b8e0" style="stroke:#081d58;stroke-linejoin:miter;"/>
    </defs>
    <g clip-path="url(#pd0068bcd91)">
     <use style="fill:#081d58;stroke:#081d58;stroke-linejoin:miter;" x="69.218182" xlink:href="#m45b759b8e0" y="45.960075"/>
     <use style="fill:#081d58;stroke:#081d58;stroke-linejoin:miter;" x="77.337252" xlink:href="#m45b759b8e0" y="47.360117"/>
     <use style="fill:#081d58;stroke:#081d58;stroke-linejoin:miter;" x="85.456322" xlink:href="#m45b759b8e0" y="49.153823"/>
     <use style="fill:#081d58;stroke:#081d58;stroke-linejoin:miter;" x="93.575392" xlink:href="#m45b759b8e0" y="51.341035"/>
     <use style="fill:#081d58;stroke:#081d58;stroke-linejoin:miter;" x="101.694462" xlink:href="#m45b759b8e0" y="54.696787"/>
     <use style="fill:#081d58;stroke:#081d58;stroke-linejoin:miter;" x="109.813532" xlink:href="#m45b759b8e0" y="58.157653"/>
     <use style="fill:#081d58;stroke:#081d58;stroke-linejoin:miter;" x="117.932602" xlink:href="#m45b759b8e0" y="59.698897"/>
     <use style="fill:#081d58;stroke:#081d58;stroke-linejoin:miter;" x="126.051672" xlink:href="#m45b759b8e0" y="61.211145"/>
     <use style="fill:#081d58;stroke:#081d58;stroke-linejoin:miter;" x="134.170742" xlink:href="#m45b759b8e0" y="66.994436"/>
     <use style="fill:#081d58;stroke:#081d58;stroke-linejoin:miter;" x="142.289812" xlink:href="#m45b759b8e0" y="76.200299"/>
     <use style="fill:#081d58;stroke:#081d58;stroke-linejoin:miter;" x="150.408882" xlink:href="#m45b759b8e0" y="86.549329"/>
     <use style="fill:#081d58;stroke:#081d58;stroke-linejoin:miter;" x="158.527952" xlink:href="#m45b759b8e0" y="110.661137"/>
     <use style="fill:#081d58;stroke:#081d58;stroke-linejoin:miter;" x="166.647022" xlink:href="#m45b759b8e0" y="157.856941"/>
     <use style="fill:#081d58;stroke:#081d58;stroke-linejoin:miter;" x="174.766092" xlink:href="#m45b759b8e0" y="199.869877"/>
     <use style="fill:#081d58;stroke:#081d58;stroke-linejoin:miter;" x="182.885162" xlink:href="#m45b759b8e0" y="209.691922"/>
     <use style="fill:#081d58;stroke:#081d58;stroke-linejoin:miter;" x="191.004232" xlink:href="#m45b759b8e0" y="211.809163"/>
     <use style="fill:#081d58;stroke:#081d58;stroke-linejoin:miter;" x="199.123302" xlink:href="#m45b759b8e0" y="214.561971"/>
     <use style="fill:#081d58;stroke:#081d58;stroke-linejoin:miter;" x="207.242372" xlink:href="#m45b759b8e0" y="218.747127"/>
     <use style="fill:#081d58;stroke:#081d58;stroke-linejoin:miter;" x="215.361442" xlink:href="#m45b759b8e0" y="219.181449"/>
     <use style="fill:#081d58;stroke:#081d58;stroke-linejoin:miter;" x="223.480512" xlink:href="#m45b759b8e0" y="222.413965"/>
     <use style="fill:#081d58;stroke:#081d58;stroke-linejoin:miter;" x="231.599582" xlink:href="#m45b759b8e0" y="224.388743"/>
     <use style="fill:#081d58;stroke:#081d58;stroke-linejoin:miter;" x="239.718652" xlink:href="#m45b759b8e0" y="226.258881"/>
     <use style="fill:#081d58;stroke:#081d58;stroke-linejoin:miter;" x="247.837722" xlink:href="#m45b759b8e0" y="230.351216"/>
     <use style="fill:#081d58;stroke:#081d58;stroke-linejoin:miter;" x="255.956792" xlink:href="#m45b759b8e0" y="230.785853"/>
     <use style="fill:#081d58;stroke:#081d58;stroke-linejoin:miter;" x="264.075862" xlink:href="#m45b759b8e0" y="230.014916"/>
     <use style="fill:#081d58;stroke:#081d58;stroke-linejoin:miter;" x="272.194932" xlink:href="#m45b759b8e0" y="230.020274"/>
     <use style="fill:#081d58;stroke:#081d58;stroke-linejoin:miter;" x="280.314002" xlink:href="#m45b759b8e0" y="231.718952"/>
     <use style="fill:#081d58;stroke:#081d58;stroke-linejoin:miter;" x="288.433072" xlink:href="#m45b759b8e0" y="232.747079"/>
     <use style="fill:#081d58;stroke:#081d58;stroke-linejoin:miter;" x="296.552142" xlink:href="#m45b759b8e0" y="234.655039"/>
     <use style="fill:#081d58;stroke:#081d58;stroke-linejoin:miter;" x="304.671212" xlink:href="#m45b759b8e0" y="234.364913"/>
     <use style="fill:#081d58;stroke:#081d58;stroke-linejoin:miter;" x="312.790282" xlink:href="#m45b759b8e0" y="235.533769"/>
     <use style="fill:#081d58;stroke:#081d58;stroke-linejoin:miter;" x="320.909352" xlink:href="#m45b759b8e0" y="235.72603"/>
     <use style="fill:#081d58;stroke:#081d58;stroke-linejoin:miter;" x="329.028422" xlink:href="#m45b759b8e0" y="237.611297"/>
     <use style="fill:#081d58;stroke:#081d58;stroke-linejoin:miter;" x="337.147492" xlink:href="#m45b759b8e0" y="238.362693"/>
     <use style="fill:#081d58;stroke:#081d58;stroke-linejoin:miter;" x="345.266562" xlink:href="#m45b759b8e0" y="239.326365"/>
     <use style="fill:#081d58;stroke:#081d58;stroke-linejoin:miter;" x="353.385632" xlink:href="#m45b759b8e0" y="240.314778"/>
     <use style="fill:#081d58;stroke:#081d58;stroke-linejoin:miter;" x="361.504702" xlink:href="#m45b759b8e0" y="241.330928"/>
     <use style="fill:#081d58;stroke:#081d58;stroke-linejoin:miter;" x="369.623772" xlink:href="#m45b759b8e0" y="238.368524"/>
    </g>
   </g>
   <g id="patch_3">
    <path d="M 54 252 
L 54 34.56 
" style="fill:none;stroke:#000000;stroke-linecap:square;stroke-linejoin:miter;stroke-width:0.8;"/>
   </g>
   <g id="patch_4">
    <path d="M 388.8 252 
L 388.8 34.56 
" style="fill:none;stroke:#000000;stroke-linecap:square;stroke-linejoin:miter;stroke-width:0.8;"/>
   </g>
   <g id="patch_5">
    <path d="M 54 252 
L 388.8 252 
" style="fill:none;stroke:#000000;stroke-linecap:square;stroke-linejoin:miter;stroke-width:0.8;"/>
   </g>
   <g id="patch_6">
    <path d="M 54 34.56 
L 388.8 34.56 
" style="fill:none;stroke:#000000;stroke-linecap:square;stroke-linejoin:miter;stroke-width:0.8;"/>
   </g>
   <g id="legend_1">
    <g id="patch_7">
     <path d="M 280.085938 71.91625 
L 381.8 71.91625 
Q 383.8 71.91625 383.8 69.91625 
L 383.8 41.56 
Q 383.8 39.56 381.8 39.56 
L 280.085938 39.56 
Q 278.085938 39.56 278.085938 41.56 
L 278.085938 69.91625 
Q 278.085938 71.91625 280.085938 71.91625 
z
" style="fill:#ffffff;opacity:0.8;stroke:#cccccc;stroke-linejoin:miter;"/>
    </g>
    <g id="line2d_15">
     <path d="M 282.085938 47.658437 
L 302.085938 47.658437 
" style="fill:none;stroke:#40b5c4;stroke-dasharray:5.55,2.4;stroke-dashoffset:0;stroke-width:1.5;"/>
    </g>
    <g id="line2d_16">
     <g>
      <use style="fill:#40b5c4;stroke:#40b5c4;" x="292.085938" xlink:href="#m2a75f79f63" y="47.658437"/>
     </g>
    </g>
    <g id="text_15">
     <text style="font-family:DejaVu Sans;font-size:10px;font-style:normal;font-weight:normal;text-anchor:start;" transform="rotate(-0, 310.085938, 51.158437)" x="310.085938" y="51.158437">original</text>
    </g>
    <g id="line2d_17">
     <path d="M 282.085938 62.336562 
L 302.085938 62.336562 
" style="fill:none;stroke:#081d58;stroke-dasharray:5.55,2.4;stroke-dashoffset:0;stroke-width:1.5;"/>
    </g>
    <g id="line2d_18">
     <g>
      <use style="fill:#081d58;stroke:#081d58;stroke-linejoin:miter;" x="292.085938" xlink:href="#m45b759b8e0" y="62.336562"/>
     </g>
    </g>
    <g id="text_16">
     <text style="font-family:DejaVu Sans;font-size:10px;font-style:normal;font-weight:normal;text-anchor:start;" transform="rotate(-0, 310.085938, 65.836562)" x="310.085938" y="65.836562">reconstructed</text>
    </g>
   </g>
  </g>
  <g id="text_17">
   <text style="font-family:DejaVu Sans;font-size:12px;font-style:normal;font-weight:normal;text-anchor:middle;" transform="rotate(-0, 216, 14.878125)" x="216" y="14.878125">Reconstruction of the weight curve</text>
  </g>
 </g>
 <defs>
  <clipPath id="pd0068bcd91">
   <rect height="217.44" width="334.8" x="54" y="34.56"/>
  </clipPath>
 </defs>
</svg>
