<?xml version="1.0" encoding="utf-8" standalone="no"?>
<!DOCTYPE svg PUBLIC "-//W3C//DTD SVG 1.1//EN"
  "http://www.w3.org/Graphics/SVG/1.1/DTD/svg11.dtd">
<!-- Created with matplotlib (https://matplotlib.org/) -->
<svg height="288pt" version="1.1" viewBox="0 0 432 288" width="432pt" xmlns="http://www.w3.org/2000/svg" xmlns:xlink="http://www.w3.org/1999/xlink">
 <defs>
  <style type="text/css">
*{stroke-linecap:butt;stroke-linejoin:round;}
  </style>
 </defs>
 <g id="figure_1">
  <g id="patch_1">
   <path d="M 0 288 
L 432 288 
L 432 0 
L 0 0 
z
" style="fill:#ffffff;"/>
  </g>
  <g id="axes_1">
   <g id="patch_2">
    <path d="M 54 252 
L 388.8 252 
L 388.8 34.56 
L 54 34.56 
z
" style="fill:#ffffff;"/>
   </g>
   <g id="matplotlib.axis_1">
    <g id="xtick_1">
     <g id="line2d_1">
      <defs>
       <path d="M 0 0 
L 0 3.5 
" id="m7aa8939ef3" style="stroke:#000000;stroke-width:0.8;"/>
      </defs>
      <g>
       <use style="stroke:#000000;stroke-width:0.8;" x="69.218182" xlink:href="#m7aa8939ef3" y="252"/>
      </g>
     </g>
     <g id="text_1">
      <text style="font-family:DejaVu Sans;font-size:10px;font-style:normal;font-weight:normal;text-anchor:middle;" transform="rotate(-0, 69.218182, 266.598437)" x="69.218182" y="266.598437">0</text>
     </g>
    </g>
    <g id="xtick_2">
     <g id="line2d_2">
      <g>
       <use style="stroke:#000000;stroke-width:0.8;" x="119.962369" xlink:href="#m7aa8939ef3" y="252"/>
      </g>
     </g>
     <g id="text_2">
      <text style="font-family:DejaVu Sans;font-size:10px;font-style:normal;font-weight:normal;text-anchor:middle;" transform="rotate(-0, 119.962369, 266.598437)" x="119.962369" y="266.598437">500</text>
     </g>
    </g>
    <g id="xtick_3">
     <g id="line2d_3">
      <g>
       <use style="stroke:#000000;stroke-width:0.8;" x="170.706557" xlink:href="#m7aa8939ef3" y="252"/>
      </g>
     </g>
     <g id="text_3">
      <text style="font-family:DejaVu Sans;font-size:10px;font-style:normal;font-weight:normal;text-anchor:middle;" transform="rotate(-0, 170.706557, 266.598437)" x="170.706557" y="266.598437">1000</text>
     </g>
    </g>
    <g id="xtick_4">
     <g id="line2d_4">
      <g>
       <use style="stroke:#000000;stroke-width:0.8;" x="221.450744" xlink:href="#m7aa8939ef3" y="252"/>
      </g>
     </g>
     <g id="text_4">
      <text style="font-family:DejaVu Sans;font-size:10px;font-style:normal;font-weight:normal;text-anchor:middle;" transform="rotate(-0, 221.450744, 266.598437)" x="221.450744" y="266.598437">1500</text>
     </g>
    </g>
    <g id="xtick_5">
     <g id="line2d_5">
      <g>
       <use style="stroke:#000000;stroke-width:0.8;" x="272.194932" xlink:href="#m7aa8939ef3" y="252"/>
      </g>
     </g>
     <g id="text_5">
      <text style="font-family:DejaVu Sans;font-size:10px;font-style:normal;font-weight:normal;text-anchor:middle;" transform="rotate(-0, 272.194932, 266.598437)" x="272.194932" y="266.598437">2000</text>
     </g>
    </g>
    <g id="xtick_6">
     <g id="line2d_6">
      <g>
       <use style="stroke:#000000;stroke-width:0.8;" x="322.939119" xlink:href="#m7aa8939ef3" y="252"/>
      </g>
     </g>
     <g id="text_6">
      <text style="font-family:DejaVu Sans;font-size:10px;font-style:normal;font-weight:normal;text-anchor:middle;" transform="rotate(-0, 322.939119, 266.598437)" x="322.939119" y="266.598437">2500</text>
     </g>
    </g>
    <g id="xtick_7">
     <g id="line2d_7">
      <g>
       <use style="stroke:#000000;stroke-width:0.8;" x="373.683307" xlink:href="#m7aa8939ef3" y="252"/>
      </g>
     </g>
     <g id="text_7">
      <text style="font-family:DejaVu Sans;font-size:10px;font-style:normal;font-weight:normal;text-anchor:middle;" transform="rotate(-0, 373.683307, 266.598437)" x="373.683307" y="266.598437">3000</text>
     </g>
    </g>
    <g id="text_8">
     <text style="font-family:DejaVu Sans;font-size:10px;font-style:normal;font-weight:normal;text-anchor:middle;" transform="rotate(-0, 221.4, 280.276563)" x="221.4" y="280.276563">Time</text>
    </g>
   </g>
   <g id="matplotlib.axis_2">
    <g id="ytick_1">
     <g id="line2d_8">
      <defs>
       <path d="M 0 0 
L -3.5 0 
" id="m1f078efd5b" style="stroke:#000000;stroke-width:0.8;"/>
      </defs>
      <g>
       <use style="stroke:#000000;stroke-width:0.8;" x="54" xlink:href="#m1f078efd5b" y="238.910404"/>
      </g>
     </g>
     <g id="text_9">
      <text style="font-family:DejaVu Sans;font-size:10px;font-style:normal;font-weight:normal;text-anchor:end;" transform="rotate(-0, 47, 242.709622)" x="47" y="242.709622">47</text>
     </g>
    </g>
    <g id="ytick_2">
     <g id="line2d_9">
      <g>
       <use style="stroke:#000000;stroke-width:0.8;" x="54" xlink:href="#m1f078efd5b" y="204.262615"/>
      </g>
     </g>
     <g id="text_10">
      <text style="font-family:DejaVu Sans;font-size:10px;font-style:normal;font-weight:normal;text-anchor:end;" transform="rotate(-0, 47, 208.061834)" x="47" y="208.061834">48</text>
     </g>
    </g>
    <g id="ytick_3">
     <g id="line2d_10">
      <g>
       <use style="stroke:#000000;stroke-width:0.8;" x="54" xlink:href="#m1f078efd5b" y="169.614826"/>
      </g>
     </g>
     <g id="text_11">
      <text style="font-family:DejaVu Sans;font-size:10px;font-style:normal;font-weight:normal;text-anchor:end;" transform="rotate(-0, 47, 173.414045)" x="47" y="173.414045">49</text>
     </g>
    </g>
    <g id="ytick_4">
     <g id="line2d_11">
      <g>
       <use style="stroke:#000000;stroke-width:0.8;" x="54" xlink:href="#m1f078efd5b" y="134.967038"/>
      </g>
     </g>
     <g id="text_12">
      <text style="font-family:DejaVu Sans;font-size:10px;font-style:normal;font-weight:normal;text-anchor:end;" transform="rotate(-0, 47, 138.766256)" x="47" y="138.766256">50</text>
     </g>
    </g>
    <g id="ytick_5">
     <g id="line2d_12">
      <g>
       <use style="stroke:#000000;stroke-width:0.8;" x="54" xlink:href="#m1f078efd5b" y="100.319249"/>
      </g>
     </g>
     <g id="text_13">
      <text style="font-family:DejaVu Sans;font-size:10px;font-style:normal;font-weight:normal;text-anchor:end;" transform="rotate(-0, 47, 104.118468)" x="47" y="104.118468">51</text>
     </g>
    </g>
    <g id="ytick_6">
     <g id="line2d_13">
      <g>
       <use style="stroke:#000000;stroke-width:0.8;" x="54" xlink:href="#m1f078efd5b" y="65.67146"/>
      </g>
     </g>
     <g id="text_14">
      <text style="font-family:DejaVu Sans;font-size:10px;font-style:normal;font-weight:normal;text-anchor:end;" transform="rotate(-0, 47, 69.470679)" x="47" y="69.470679">52</text>
     </g>
    </g>
    <g id="text_15">
     <text style="font-family:DejaVu Sans;font-size:10px;font-style:normal;font-weight:normal;text-anchor:middle;" transform="rotate(-90, 28.195312, 143.28)" x="28.195312" y="143.28">weight (\%)</text>
    </g>
   </g>
   <g id="line2d_14">
    <path clip-path="url(#p83d2c0c1b6)" d="M 69.218182 51.691078 
L 85.354833 52.350079 
L 88.805438 52.799114 
L 91.748601 53.426239 
L 94.691764 54.303521 
L 98.649811 55.730317 
L 103.927206 57.629709 
L 110.726927 59.766438 
L 122.601067 63.323726 
L 126.457625 64.754333 
L 129.603765 66.16242 
L 131.937998 67.412858 
L 134.576695 69.089811 
L 136.80944 70.767804 
L 138.839207 72.564291 
L 140.564509 74.351424 
L 142.3913 76.579277 
L 144.015114 78.88578 
L 145.638928 81.570984 
L 147.262742 84.734674 
L 148.683579 87.979093 
L 150.205905 92.031152 
L 151.829719 97.039836 
L 153.555021 103.114286 
L 155.584789 111.133517 
L 157.513068 119.619453 
L 159.441347 129.114333 
L 161.268138 139.279301 
L 162.99344 150.16633 
L 164.921719 163.822409 
L 168.372324 190.327621 
L 170.199115 203.332668 
L 171.416975 210.476003 
L 172.330371 214.618493 
L 173.142278 217.307508 
L 173.852696 218.96783 
L 174.664603 220.324983 
L 175.780975 221.723715 
L 177.201813 223.160212 
L 179.130092 224.772027 
L 181.565813 226.461107 
L 184.407487 228.095443 
L 188.061069 229.86941 
L 192.323581 231.669709 
L 197.702464 233.700069 
L 202.776883 235.387763 
L 209.272139 237.20504 
L 214.143581 238.290901 
L 219.928419 239.305389 
L 225.002837 240.007353 
L 231.599582 240.707585 
L 240.327582 241.371783 
L 249.258559 241.809384 
L 260.016327 242.066817 
L 276.761909 242.01346 
L 315.023026 241.251208 
L 320.706375 241.090443 
L 345.165073 240.312946 
L 352.167771 240.088429 
L 371.450562 239.737793 
L 373.581818 239.741951 
L 373.581818 239.741951 
" style="fill:none;stroke:#40b5c4;stroke-dasharray:5.55,2.4;stroke-dashoffset:0;stroke-width:1.5;"/>
    <defs>
     <path d="M 0 3 
C 0.795609 3 1.55874 2.683901 2.12132 2.12132 
C 2.683901 1.55874 3 0.795609 3 0 
C 3 -0.795609 2.683901 -1.55874 2.12132 -2.12132 
C 1.55874 -2.683901 0.795609 -3 0 -3 
C -0.795609 -3 -1.55874 -2.683901 -2.12132 -2.12132 
C -2.683901 -1.55874 -3 -0.795609 -3 0 
C -3 0.795609 -2.683901 1.55874 -2.12132 2.12132 
C -1.55874 2.683901 -0.795609 3 0 3 
z
" id="madbcaf7ea2" style="stroke:#40b5c4;"/>
    </defs>
    <g clip-path="url(#p83d2c0c1b6)">
     <use style="fill:#40b5c4;stroke:#40b5c4;" x="69.218182" xlink:href="#madbcaf7ea2" y="51.691078"/>
     <use style="fill:#40b5c4;stroke:#40b5c4;" x="77.337252" xlink:href="#madbcaf7ea2" y="51.932226"/>
     <use style="fill:#40b5c4;stroke:#40b5c4;" x="85.456322" xlink:href="#madbcaf7ea2" y="52.360126"/>
     <use style="fill:#40b5c4;stroke:#40b5c4;" x="93.575392" xlink:href="#madbcaf7ea2" y="53.945263"/>
     <use style="fill:#40b5c4;stroke:#40b5c4;" x="101.694462" xlink:href="#madbcaf7ea2" y="56.847362"/>
     <use style="fill:#40b5c4;stroke:#40b5c4;" x="109.813532" xlink:href="#madbcaf7ea2" y="59.492374"/>
     <use style="fill:#40b5c4;stroke:#40b5c4;" x="117.932602" xlink:href="#madbcaf7ea2" y="61.85466"/>
     <use style="fill:#40b5c4;stroke:#40b5c4;" x="126.051672" xlink:href="#madbcaf7ea2" y="64.590449"/>
     <use style="fill:#40b5c4;stroke:#40b5c4;" x="134.170742" xlink:href="#madbcaf7ea2" y="68.81055"/>
     <use style="fill:#40b5c4;stroke:#40b5c4;" x="142.289812" xlink:href="#madbcaf7ea2" y="76.44623"/>
     <use style="fill:#40b5c4;stroke:#40b5c4;" x="150.408882" xlink:href="#madbcaf7ea2" y="92.618432"/>
     <use style="fill:#40b5c4;stroke:#40b5c4;" x="158.527952" xlink:href="#madbcaf7ea2" y="124.475341"/>
     <use style="fill:#40b5c4;stroke:#40b5c4;" x="166.647022" xlink:href="#madbcaf7ea2" y="176.992727"/>
     <use style="fill:#40b5c4;stroke:#40b5c4;" x="174.766092" xlink:href="#madbcaf7ea2" y="220.468772"/>
     <use style="fill:#40b5c4;stroke:#40b5c4;" x="182.885162" xlink:href="#madbcaf7ea2" y="227.256274"/>
     <use style="fill:#40b5c4;stroke:#40b5c4;" x="191.004232" xlink:href="#madbcaf7ea2" y="231.136826"/>
     <use style="fill:#40b5c4;stroke:#40b5c4;" x="199.123302" xlink:href="#madbcaf7ea2" y="234.193454"/>
     <use style="fill:#40b5c4;stroke:#40b5c4;" x="207.242372" xlink:href="#madbcaf7ea2" y="236.683937"/>
     <use style="fill:#40b5c4;stroke:#40b5c4;" x="215.361442" xlink:href="#madbcaf7ea2" y="238.525813"/>
     <use style="fill:#40b5c4;stroke:#40b5c4;" x="223.480512" xlink:href="#madbcaf7ea2" y="239.809167"/>
     <use style="fill:#40b5c4;stroke:#40b5c4;" x="231.599582" xlink:href="#madbcaf7ea2" y="240.707585"/>
     <use style="fill:#40b5c4;stroke:#40b5c4;" x="239.718652" xlink:href="#madbcaf7ea2" y="241.33367"/>
     <use style="fill:#40b5c4;stroke:#40b5c4;" x="247.837722" xlink:href="#madbcaf7ea2" y="241.754987"/>
     <use style="fill:#40b5c4;stroke:#40b5c4;" x="255.956792" xlink:href="#madbcaf7ea2" y="242.003065"/>
     <use style="fill:#40b5c4;stroke:#40b5c4;" x="264.075862" xlink:href="#madbcaf7ea2" y="242.108395"/>
     <use style="fill:#40b5c4;stroke:#40b5c4;" x="272.194932" xlink:href="#madbcaf7ea2" y="242.075826"/>
     <use style="fill:#40b5c4;stroke:#40b5c4;" x="280.314002" xlink:href="#madbcaf7ea2" y="241.935502"/>
     <use style="fill:#40b5c4;stroke:#40b5c4;" x="288.433072" xlink:href="#madbcaf7ea2" y="241.739742"/>
     <use style="fill:#40b5c4;stroke:#40b5c4;" x="296.552142" xlink:href="#madbcaf7ea2" y="241.627137"/>
     <use style="fill:#40b5c4;stroke:#40b5c4;" x="304.671212" xlink:href="#madbcaf7ea2" y="241.569622"/>
     <use style="fill:#40b5c4;stroke:#40b5c4;" x="312.790282" xlink:href="#madbcaf7ea2" y="241.326394"/>
     <use style="fill:#40b5c4;stroke:#40b5c4;" x="320.909352" xlink:href="#madbcaf7ea2" y="241.08386"/>
     <use style="fill:#40b5c4;stroke:#40b5c4;" x="329.028422" xlink:href="#madbcaf7ea2" y="240.839939"/>
     <use style="fill:#40b5c4;stroke:#40b5c4;" x="337.147492" xlink:href="#madbcaf7ea2" y="240.576962"/>
     <use style="fill:#40b5c4;stroke:#40b5c4;" x="345.266562" xlink:href="#madbcaf7ea2" y="240.308096"/>
     <use style="fill:#40b5c4;stroke:#40b5c4;" x="353.385632" xlink:href="#madbcaf7ea2" y="240.056553"/>
     <use style="fill:#40b5c4;stroke:#40b5c4;" x="361.504702" xlink:href="#madbcaf7ea2" y="239.850745"/>
     <use style="fill:#40b5c4;stroke:#40b5c4;" x="369.623772" xlink:href="#madbcaf7ea2" y="239.741951"/>
    </g>
   </g>
   <g id="line2d_15">
    <path clip-path="url(#p83d2c0c1b6)" d="M 69.218182 51.067774 
L 69.31967 51.315462 
L 69.421159 52.691889 
L 69.522647 51.704441 
L 69.624135 52.153557 
L 69.725624 50.014769 
L 69.827112 52.955437 
L 69.9286 50.656722 
L 70.131577 52.490857 
L 70.233066 50.095129 
L 70.334554 53.292209 
L 70.537531 50.83925 
L 70.639019 52.26881 
L 70.740507 50.169409 
L 70.841996 52.944467 
L 70.943484 50.733646 
L 71.044973 51.26722 
L 71.146461 52.723081 
L 71.247949 50.318365 
L 71.349438 53.490597 
L 71.552414 51.197301 
L 71.653903 52.014117 
L 71.755391 50.350218 
L 71.85688 52.749648 
L 72.059856 51.171131 
L 72.161345 51.996142 
L 72.262833 50.790347 
L 72.364321 52.612454 
L 72.46581 51.063809 
L 72.567298 51.449219 
L 72.668787 52.667305 
L 72.770275 50.921196 
L 72.871763 52.142719 
L 73.07474 50.520587 
L 73.176228 52.634923 
L 73.277717 50.185137 
L 73.480694 52.018743 
L 73.582182 50.572001 
L 73.68367 52.850097 
L 73.785159 50.629892 
L 73.886647 52.317052 
L 74.089624 49.330653 
L 74.191112 52.902173 
L 74.292601 50.780567 
L 74.495577 51.080594 
L 74.597066 49.916962 
L 74.698554 52.164924 
L 74.800042 50.294574 
L 74.901531 51.62342 
L 75.003019 51.273035 
L 75.104508 49.769592 
L 75.205996 52.323264 
L 75.307484 49.874007 
L 75.408973 50.148129 
L 75.510461 51.241975 
L 75.611949 49.260206 
L 75.713438 51.79511 
L 75.814926 49.303293 
L 76.017903 50.847048 
L 76.119391 49.571732 
L 76.22088 51.701401 
L 76.423856 49.447227 
L 76.525345 50.748053 
L 76.626833 48.813072 
L 76.728322 51.250302 
L 76.931298 48.49335 
L 77.032787 51.310175 
L 77.134275 48.786902 
L 77.235763 51.444064 
L 77.43874 48.85193 
L 77.540229 51.153156 
L 77.641717 48.642703 
L 77.743205 50.786779 
L 77.844694 48.863429 
L 78.04767 50.813609 
L 78.149159 48.534588 
L 78.250647 50.572398 
L 78.453624 49.322855 
L 78.555112 50.829073 
L 78.656601 49.306598 
L 78.758089 50.66994 
L 78.961066 48.633584 
L 79.062554 50.889343 
L 79.164043 48.804877 
L 79.265531 49.768402 
L 79.367019 49.668613 
L 79.468508 48.621556 
L 79.569996 50.557198 
L 79.671484 49.658172 
L 79.772973 50.464943 
L 79.97595 48.009077 
L 80.077438 50.65659 
L 80.178926 49.194649 
L 80.280415 49.252275 
L 80.381903 50.069223 
L 80.483391 48.040269 
L 80.58488 50.619186 
L 80.686368 48.778046 
L 80.787857 50.085745 
L 80.889345 49.847969 
L 80.990833 48.591818 
L 81.092322 51.3756 
L 81.19381 49.012121 
L 81.295298 49.021241 
L 81.396787 50.221616 
L 81.498275 48.852987 
L 81.599764 50.290609 
L 81.701252 48.943921 
L 81.904229 50.308849 
L 82.005717 49.232185 
L 82.107205 51.283344 
L 82.310182 48.663058 
L 82.411671 51.226114 
L 82.513159 48.787959 
L 82.614647 51.171131 
L 82.817624 48.839241 
L 82.919112 51.053896 
L 83.020601 49.077678 
L 83.122089 51.768676 
L 83.325066 49.201918 
L 83.426554 50.852864 
L 83.528043 49.239455 
L 83.629531 50.191746 
L 83.731019 48.746854 
L 83.832508 48.87506 
L 83.933996 50.299861 
L 84.035485 48.100803 
L 84.136973 50.08971 
L 84.238461 48.739453 
L 84.33995 49.035515 
L 84.441438 49.826293 
L 84.542926 47.915764 
L 84.644415 49.490315 
L 84.847392 47.194508 
L 84.94888 49.007363 
L 85.354833 47.125911 
L 85.456322 49.261792 
L 85.55781 47.464533 
L 85.760787 48.138604 
L 85.862275 45.879805 
L 85.963764 48.849551 
L 86.065252 46.935717 
L 86.268229 47.332626 
L 86.369717 45.649959 
L 86.471206 48.445769 
L 86.572694 46.13159 
L 86.674182 47.446029 
L 86.775671 46.864874 
L 86.877159 45.378877 
L 86.978647 47.877963 
L 87.181624 46.616128 
L 87.283113 47.075554 
L 87.384601 45.551492 
L 87.486089 47.55692 
L 87.689066 46.131326 
L 87.790554 47.752269 
L 87.892043 44.443636 
L 87.993531 48.158562 
L 88.196508 46.169523 
L 88.297996 48.123008 
L 88.399485 45.829844 
L 88.500973 47.503391 
L 88.70395 45.732302 
L 88.805438 47.553219 
L 88.906927 45.847555 
L 89.008415 47.973126 
L 89.211392 45.9599 
L 89.31288 47.968236 
L 89.414368 46.315836 
L 89.515857 47.774077 
L 89.617345 46.504312 
L 89.718834 46.754115 
L 89.820322 48.308972 
L 89.92181 47.009204 
L 90.023299 48.36303 
L 90.226275 46.533125 
L 90.327764 47.894749 
L 90.429252 46.722394 
L 90.530741 47.836594 
L 90.733717 45.706264 
L 90.835206 48.221872 
L 90.936694 46.391966 
L 91.038182 48.244869 
L 91.241159 46.839233 
L 91.342648 47.59221 
L 91.444136 46.607934 
L 91.545624 47.64825 
L 91.748601 45.775786 
L 91.850089 47.686051 
L 91.951578 46.67349 
L 92.053066 46.869764 
L 92.154555 48.195834 
L 92.256043 46.372273 
L 92.357531 48.500223 
L 92.45902 46.09326 
L 92.661996 47.540134 
L 92.763485 45.99519 
L 92.864973 48.907838 
L 92.966462 46.093789 
L 93.06795 46.613088 
L 93.169438 47.964667 
L 93.270927 46.635557 
L 93.372415 49.145878 
L 93.473903 46.452369 
L 93.67688 47.800379 
L 93.778369 46.270898 
L 93.879857 48.522825 
L 94.082834 46.514092 
L 94.184322 47.967971 
L 94.28581 46.927126 
L 94.387299 49.222669 
L 94.488787 47.364083 
L 94.590276 47.426732 
L 94.691764 49.15209 
L 94.793252 46.224242 
L 94.894741 49.354972 
L 94.996229 47.440874 
L 95.097717 48.348359 
L 95.300694 47.572516 
L 95.402183 48.710639 
L 95.605159 48.246191 
L 95.706648 49.611383 
L 95.808136 47.64825 
L 95.909624 49.381406 
L 96.112601 47.720151 
L 96.21409 50.611388 
L 96.315578 47.530486 
L 96.417066 50.144032 
L 96.620043 48.326947 
L 96.721531 50.605308 
L 96.82302 48.334481 
L 96.924508 50.184212 
L 97.127485 48.672574 
L 97.228973 50.209853 
L 97.330462 49.257826 
L 97.43195 49.88088 
L 97.634927 47.687769 
L 97.736415 49.589179 
L 97.939392 48.261787 
L 98.04088 48.534191 
L 98.142369 46.530614 
L 98.243857 49.418018 
L 98.345345 46.978408 
L 98.446834 48.345716 
L 98.548322 48.222797 
L 98.649811 46.188291 
L 98.751299 48.297605 
L 98.954276 46.796806 
L 99.055764 47.481451 
L 99.157252 45.904124 
L 99.258741 47.753194 
L 99.360229 46.123263 
L 99.461718 46.394874 
L 99.664694 47.624063 
L 99.766183 46.903335 
L 99.867671 47.204156 
L 99.969159 46.671243 
L 100.070648 46.780417 
L 100.273625 47.458982 
L 100.375113 46.445628 
L 100.679578 48.964672 
L 100.781066 47.400298 
L 100.882555 48.024012 
L 101.085532 47.239578 
L 101.288508 47.997313 
L 101.389997 47.043965 
L 101.592973 48.290997 
L 101.694462 48.456343 
L 101.79595 49.034193 
L 101.897439 48.140454 
L 101.998927 48.190018 
L 102.100415 47.992555 
L 102.201904 48.675217 
L 102.303392 48.361312 
L 102.40488 48.82999 
L 102.506369 48.238261 
L 102.709346 49.332239 
L 102.810834 48.902551 
L 102.912322 49.480666 
L 103.013811 48.984101 
L 103.115299 49.706943 
L 103.318276 48.832501 
L 103.419764 49.191477 
L 103.521253 50.035387 
L 103.622741 49.327348 
L 103.724229 50.300126 
L 103.825718 49.895022 
L 103.927206 50.072395 
L 104.028694 49.921985 
L 104.130183 50.105967 
L 104.231671 50.834889 
L 104.33316 49.008684 
L 104.434648 50.708137 
L 104.536136 49.900309 
L 104.637625 51.977902 
L 104.739113 49.882201 
L 104.840601 51.544117 
L 104.94209 50.378503 
L 105.043578 51.366083 
L 105.145067 50.461374 
L 105.652508 52.366749 
L 105.753997 51.458603 
L 105.855485 51.849036 
L 105.956974 51.328811 
L 106.15995 52.189111 
L 106.261439 51.672191 
L 106.362927 51.904547 
L 106.464415 52.48372 
L 106.565904 54.000777 
L 106.768881 52.870055 
L 106.971857 52.434949 
L 107.073346 53.108491 
L 107.276322 52.578486 
L 107.377811 52.271586 
L 107.479299 52.565137 
L 107.580788 54.279525 
L 107.783764 53.203654 
L 107.986741 52.909706 
L 108.088229 52.842035 
L 108.189718 53.504343 
L 108.392695 52.336614 
L 108.595671 54.053909 
L 108.798648 53.69718 
L 109.001625 53.236961 
L 109.204602 53.967866 
L 109.30609 52.936405 
L 109.407578 53.166911 
L 109.610555 54.411828 
L 109.712043 53.895172 
L 109.813532 54.365568 
L 109.91502 53.537386 
L 110.016509 54.020206 
L 110.117997 53.770667 
L 110.52395 54.179339 
L 110.625439 54.717803 
L 110.726927 54.091314 
L 110.828416 54.377199 
L 110.929904 54.22811 
L 111.031392 54.714367 
L 111.132881 54.355655 
L 111.234369 55.103478 
L 111.437346 54.42716 
L 111.538834 54.495228 
L 111.640323 54.412092 
L 111.843299 55.494175 
L 111.944788 54.859226 
L 112.046276 54.891344 
L 112.249253 55.565679 
L 112.350741 55.174189 
L 112.45223 55.505938 
L 112.655206 54.838872 
L 112.959671 55.828963 
L 113.06116 55.924391 
L 113.264137 56.334913 
L 113.365625 55.424388 
L 113.467113 55.946463 
L 113.568602 55.72706 
L 113.67009 56.522464 
L 113.771578 56.106258 
L 113.873067 56.291561 
L 113.974555 55.67591 
L 114.177532 57.069651 
L 114.27902 57.028546 
L 114.380509 56.163356 
L 114.684974 56.806499 
L 115.090927 55.521534 
L 115.192416 56.344297 
L 115.496881 55.242521 
L 115.598369 54.972761 
L 115.801346 55.377468 
L 115.902834 54.132947 
L 116.004323 54.245689 
L 116.105811 54.344817 
L 116.207299 54.972893 
L 116.410276 54.151848 
L 116.511765 53.680659 
L 116.613253 54.079286 
L 116.714741 53.933766 
L 116.81623 55.167713 
L 116.917718 53.477248 
L 117.019206 54.235644 
L 117.120695 53.7556 
L 117.222183 55.25825 
L 117.323672 54.369665 
L 117.42516 54.815477 
L 117.526648 53.879179 
L 117.729625 54.316004 
L 118.03409 54.840458 
L 118.135579 54.286001 
L 118.237067 55.383944 
L 118.338555 54.692691 
L 118.440044 55.126608 
L 118.541532 54.319044 
L 118.744509 54.723487 
L 118.845997 54.932713 
L 118.947486 54.762609 
L 119.048974 54.898481 
L 119.150462 55.458356 
L 119.251951 55.337288 
L 119.353439 55.462057 
L 119.556416 55.013073 
L 119.657904 55.299355 
L 119.759393 55.041093 
L 119.860881 55.257457 
L 120.063858 55.144847 
L 120.165346 55.969329 
L 120.266834 55.860288 
L 120.368323 55.923598 
L 120.469811 55.4458 
L 120.5713 55.775434 
L 120.672788 55.637448 
L 120.774276 55.747678 
L 120.875765 56.068325 
L 120.977253 54.668636 
L 121.078741 56.960742 
L 121.281718 55.454259 
L 121.383207 56.599387 
L 121.484695 55.435094 
L 121.586183 57.144724 
L 121.687672 55.469591 
L 121.890648 57.128467 
L 121.992137 54.91183 
L 122.093625 57.478587 
L 122.296602 56.098724 
L 122.39809 57.348796 
L 122.499579 55.94078 
L 122.601067 57.821703 
L 122.702555 56.138772 
L 122.804044 56.461533 
L 122.905532 57.699048 
L 123.007021 55.80504 
L 123.108509 58.004759 
L 123.311486 56.290107 
L 123.412974 58.375763 
L 123.514462 56.508586 
L 123.615951 58.138913 
L 123.717439 56.601238 
L 123.818928 56.9959 
L 123.920416 58.428367 
L 124.021904 56.67869 
L 124.123393 58.667596 
L 124.326369 57.218872 
L 124.427858 58.784567 
L 124.529346 57.841 
L 124.630835 59.02763 
L 124.732323 57.569521 
L 124.833811 58.026303 
L 124.9353 59.401673 
L 125.036788 57.27782 
L 125.138276 60.140111 
L 125.341253 58.405634 
L 125.442742 60.009262 
L 125.54423 58.461278 
L 125.645718 59.963399 
L 125.747207 58.371137 
L 125.848695 58.85898 
L 125.950183 60.120286 
L 126.051672 57.860825 
L 126.15316 60.396391 
L 126.356137 58.554194 
L 126.457625 60.055786 
L 126.559114 58.839154 
L 126.660602 59.581822 
L 126.863579 58.436562 
L 126.965067 60.361497 
L 127.066556 58.298972 
L 127.168044 60.296734 
L 127.371021 58.405501 
L 127.472509 60.32515 
L 127.573997 58.956786 
L 127.675486 59.667336 
L 127.878463 58.556705 
L 127.979951 60.141565 
L 128.081439 58.673147 
L 128.182928 60.24598 
L 128.284416 59.122396 
L 128.385904 59.135745 
L 128.487393 60.417009 
L 128.588881 59.730117 
L 128.69037 59.933396 
L 128.791858 59.87762 
L 128.893346 58.725355 
L 128.994835 60.846961 
L 129.096323 60.426922 
L 129.197811 60.482434 
L 129.2993 59.986 
L 129.603765 61.155183 
L 129.705253 60.250474 
L 130.111207 61.877497 
L 130.314184 61.156901 
L 130.415672 61.447677 
L 130.51716 61.380535 
L 130.618649 61.523147 
L 130.821625 61.205408 
L 130.923114 61.364145 
L 131.024602 62.057778 
L 131.227579 61.430892 
L 131.329067 61.500942 
L 131.532044 61.267661 
L 131.633532 61.695365 
L 131.836509 61.21955 
L 131.937998 61.313656 
L 132.039486 62.523812 
L 132.140974 61.677787 
L 132.242463 61.786828 
L 132.445439 61.264356 
L 132.546928 61.456533 
L 132.648416 62.128225 
L 132.749905 61.152276 
L 132.851393 61.703428 
L 132.952881 61.5361 
L 133.05437 62.650828 
L 133.155858 62.013897 
L 133.257346 62.17118 
L 133.358835 61.638532 
L 133.460323 62.016144 
L 133.561812 61.662455 
L 133.6633 62.487862 
L 133.764788 61.407762 
L 133.866277 62.278503 
L 133.967765 62.021431 
L 134.069253 62.906843 
L 134.27223 62.564256 
L 134.576695 62.332825 
L 134.678184 62.960769 
L 134.779672 62.24057 
L 134.88116 62.879616 
L 134.982649 62.686118 
L 135.084137 63.7986 
L 135.185626 63.055535 
L 135.287114 63.362304 
L 135.388602 62.794498 
L 135.490091 63.435394 
L 135.591579 63.362172 
L 135.693067 63.844067 
L 135.794556 62.715856 
L 135.896044 63.841291 
L 135.997533 63.636294 
L 136.099021 64.732651 
L 136.200509 64.039679 
L 136.301998 64.059108 
L 136.403486 64.026991 
L 136.504974 63.797675 
L 136.707951 64.567437 
L 136.80944 63.864421 
L 137.113905 65.047218 
L 137.316881 64.585016 
L 137.519858 64.567305 
L 137.621347 64.352131 
L 137.722835 65.388747 
L 137.824323 64.308779 
L 138.128788 65.616081 
L 138.331765 65.216264 
L 138.534742 65.385311 
L 138.63623 65.204633 
L 138.737719 65.888617 
L 138.839207 64.978092 
L 139.143672 66.503872 
L 139.346649 66.088459 
L 139.448137 65.839846 
L 139.549626 66.33932 
L 139.651114 66.032155 
L 139.752602 66.768082 
L 139.854091 66.065462 
L 139.955579 66.705301 
L 140.057068 66.473473 
L 140.158556 67.583179 
L 140.260044 66.908579 
L 140.361533 67.231076 
L 140.463021 66.905407 
L 140.665998 67.263987 
L 140.767486 67.769276 
L 140.868975 67.118731 
L 141.17344 68.502956 
L 141.274928 67.969514 
L 141.376416 68.343426 
L 141.477905 67.99357 
L 141.579393 68.291747 
L 141.680882 68.182177 
L 141.78237 68.455374 
L 141.883858 67.221428 
L 141.985347 67.74033 
L 142.086835 67.537977 
L 142.188323 68.629576 
L 142.289812 67.989869 
L 142.594277 68.731876 
L 142.695765 68.431716 
L 142.797254 69.236107 
L 142.898742 68.844618 
L 143.203207 70.365639 
L 143.304696 69.960271 
L 143.609161 70.605397 
L 143.710649 70.388373 
L 143.812137 71.251977 
L 143.913626 70.696463 
L 144.218091 72.19647 
L 144.319579 71.913228 
L 144.827021 73.211013 
L 144.92851 72.726342 
L 145.029998 73.572764 
L 145.131486 73.31067 
L 145.232975 74.418393 
L 145.334463 73.959232 
L 145.435951 74.008928 
L 145.53744 74.761509 
L 145.638928 74.143214 
L 145.841905 75.245122 
L 145.943393 74.859183 
L 146.247858 76.319406 
L 146.552324 76.313326 
L 146.653812 76.334738 
L 146.856789 77.393426 
L 146.958277 76.831965 
L 147.059765 77.269186 
L 147.161254 77.175873 
L 147.262742 78.120234 
L 147.364231 77.747644 
L 147.465719 78.268397 
L 147.567207 77.649441 
L 147.668696 78.281614 
L 147.770184 78.103052 
L 147.871672 78.928194 
L 147.973161 78.41101 
L 148.074649 78.659491 
L 148.277626 79.876916 
L 148.379114 79.439299 
L 148.886556 80.736555 
L 148.988044 80.38551 
L 149.393998 81.731141 
L 149.495486 81.733916 
L 149.698463 82.019273 
L 149.799951 81.846129 
L 149.90144 82.252951 
L 150.002928 81.987023 
L 150.205905 82.884463 
L 150.307393 83.83226 
L 150.408882 83.567522 
L 150.51037 84.12872 
L 150.611858 84.027477 
L 150.916324 85.29711 
L 151.017812 85.267371 
L 151.220789 86.075992 
L 151.322277 87.088949 
L 151.423765 86.999205 
L 151.525254 87.040311 
L 152.540138 90.465253 
L 152.641626 90.426263 
L 152.946091 91.984557 
L 153.047579 91.639987 
L 153.250556 92.516016 
L 153.453533 93.612108 
L 153.65651 94.038095 
L 153.859486 94.585943 
L 153.960975 95.406327 
L 154.062463 95.229351 
L 154.26544 95.957083 
L 154.366928 97.090051 
L 154.468417 97.060049 
L 154.569905 97.116882 
L 154.975859 98.894448 
L 155.077347 98.702403 
L 155.584789 101.265063 
L 155.686277 100.916 
L 155.889254 102.038659 
L 156.092231 102.652593 
L 156.193719 102.843976 
L 156.599673 104.977345 
L 156.701161 104.87227 
L 156.904138 105.995854 
L 157.005626 106.139788 
L 157.208603 107.31016 
L 157.716045 109.697694 
L 157.817533 109.177999 
L 158.121998 111.891466 
L 158.223487 111.36384 
L 158.832417 114.094621 
L 158.933905 115.400733 
L 159.035394 115.146569 
L 159.23837 115.858573 
L 159.542835 117.625565 
L 159.644324 117.293816 
L 159.948789 120.018914 
L 160.050277 119.676592 
L 160.354742 121.211359 
L 160.456231 121.582627 
L 160.557719 122.507426 
L 160.659208 122.080779 
L 160.963673 124.640796 
L 161.065161 124.642249 
L 161.166649 125.599827 
L 161.268138 125.228427 
L 161.572603 127.867218 
L 161.674091 127.03018 
L 161.978556 129.968998 
L 162.080045 130.059271 
L 162.283022 130.777751 
L 162.688975 133.536685 
L 163.196417 138.100544 
L 163.297905 138.509877 
L 163.60237 141.74185 
L 163.703859 141.71449 
L 163.906836 143.905618 
L 164.008324 145.601106 
L 164.109812 145.267771 
L 164.617254 149.874189 
L 164.718743 149.503317 
L 165.023208 153.583034 
L 165.124696 153.303625 
L 165.936603 158.668571 
L 166.13958 160.832472 
L 166.342557 161.717355 
L 167.35744 168.934014 
L 167.966371 172.67815 
L 168.067859 174.115507 
L 168.169347 173.818652 
L 168.270836 174.483339 
L 168.372324 174.364253 
L 168.473812 175.410914 
L 168.575301 175.298701 
L 168.676789 176.491014 
L 168.778278 176.06582 
L 169.082743 178.64857 
L 169.184231 178.138919 
L 169.488696 179.114472 
L 169.590185 179.340484 
L 169.691673 180.580643 
L 169.793161 179.668004 
L 170.097626 182.681498 
L 170.199115 181.896272 
L 170.50358 182.611844 
L 170.706557 184.719176 
L 170.808045 184.638552 
L 171.315487 188.071028 
L 172.025906 192.311597 
L 172.127394 193.825878 
L 172.228882 193.320986 
L 172.533347 195.305398 
L 172.736324 196.018856 
L 173.040789 197.828936 
L 173.243766 200.105446 
L 174.055673 206.839285 
L 174.25865 208.495254 
L 174.86758 210.931558 
L 174.969068 211.074699 
L 175.172045 212.170792 
L 175.273534 211.177528 
L 175.375022 212.249434 
L 175.577999 211.695638 
L 175.679487 211.645281 
L 175.780975 212.477957 
L 175.882464 211.423895 
L 175.983952 212.137749 
L 176.085441 211.939229 
L 176.186929 213.05713 
L 176.389906 212.737541 
L 176.491394 212.564661 
L 176.897348 213.933158 
L 177.100324 214.398796 
L 177.201813 215.39999 
L 177.303301 214.954177 
L 177.404789 215.145957 
L 177.506278 215.644241 
L 177.607766 215.589126 
L 177.810743 216.443875 
L 177.912231 216.403166 
L 178.01372 216.429072 
L 178.216696 217.69963 
L 178.419673 217.560454 
L 178.62265 218.046975 
L 178.825627 218.777086 
L 178.927115 218.595616 
L 179.130092 219.257792 
L 179.434557 219.833924 
L 179.536045 220.10765 
L 179.637534 219.846481 
L 179.84051 220.303527 
L 179.941999 220.271674 
L 180.043487 220.522138 
L 180.144976 220.163294 
L 180.347952 221.326001 
L 180.449441 221.044477 
L 180.652417 221.255818 
L 180.753906 221.918523 
L 180.855394 221.851512 
L 180.956883 221.451695 
L 181.261348 222.759129 
L 181.464324 222.673086 
L 181.565813 222.668328 
L 181.667301 223.173617 
L 181.971766 222.825347 
L 182.276231 223.877955 
L 182.37772 223.82588 
L 182.479208 224.026251 
L 182.580697 223.793101 
L 182.682185 223.858129 
L 182.783673 223.674676 
L 182.885162 224.150359 
L 182.98665 223.926462 
L 183.291115 224.796146 
L 183.59558 224.681025 
L 183.697069 224.322049 
L 183.900045 224.91695 
L 184.103022 224.845049 
L 184.204511 224.953429 
L 184.305999 225.730197 
L 184.508976 225.128159 
L 184.610464 225.139393 
L 184.813441 225.292844 
L 185.016418 225.554806 
L 185.117906 225.270771 
L 185.320883 225.900433 
L 185.422371 225.344919 
L 185.726836 225.703102 
L 185.828325 225.829457 
L 185.929813 225.592211 
L 186.031301 225.777911 
L 186.234278 225.658825 
L 186.437255 226.005905 
L 186.843208 225.687638 
L 186.944697 226.166493 
L 187.147673 225.537095 
L 187.249162 225.643757 
L 187.35065 226.118383 
L 187.553627 225.954094 
L 187.655115 225.632523 
L 187.858092 225.908892 
L 187.95958 225.798529 
L 188.061069 225.413383 
L 188.162557 225.797472 
L 188.264046 225.747776 
L 188.467022 225.79919 
L 188.568511 225.068285 
L 188.669999 225.923034 
L 188.771487 225.571328 
L 188.872976 225.91365 
L 188.974464 225.235746 
L 189.075953 225.549387 
L 189.177441 225.430037 
L 189.278929 225.563265 
L 189.380418 225.032864 
L 189.481906 225.644154 
L 189.684883 225.131463 
L 189.786371 225.009469 
L 189.88786 225.421578 
L 189.989348 225.209047 
L 190.090836 225.40281 
L 190.192325 224.949067 
L 190.49679 225.46004 
L 190.598278 225.179705 
L 190.902743 226.080185 
L 191.004232 225.767073 
L 191.10572 226.004451 
L 191.207208 225.782404 
L 191.308697 226.21381 
L 191.410185 225.925413 
L 191.917627 226.799723 
L 192.019115 226.3703 
L 192.120604 226.817038 
L 192.323581 226.547409 
L 193.135488 227.208924 
L 193.236976 226.801309 
L 193.439953 227.282808 
L 193.744418 227.402554 
L 193.947395 227.624866 
L 194.048883 227.391716 
L 194.150371 227.617861 
L 194.25186 227.467318 
L 194.454836 227.662667 
L 194.657813 227.615217 
L 194.759302 227.801049 
L 194.86079 227.746463 
L 194.962278 227.978819 
L 195.063767 227.789551 
L 195.165255 228.089182 
L 195.266743 227.659759 
L 195.46972 227.815853 
L 195.672697 227.954368 
L 195.774185 227.69941 
L 195.875674 227.876519 
L 195.977162 228.33991 
L 196.281627 227.720161 
L 196.383116 228.143636 
L 196.586092 227.806468 
L 196.687581 227.968774 
L 196.789069 227.877708 
L 196.890557 227.987542 
L 196.992046 228.457145 
L 197.093534 227.887093 
L 197.195023 228.211308 
L 197.296511 227.868324 
L 197.397999 227.932427 
L 197.499488 227.721615 
L 197.803953 228.024154 
L 197.905441 227.995605 
L 198.00693 228.173771 
L 198.209906 227.996001 
L 198.311395 227.568825 
L 198.514371 227.888811 
L 198.61586 227.680113 
L 198.818837 227.967585 
L 198.920325 227.825633 
L 199.021813 228.08297 
L 199.123302 227.838057 
L 199.22479 228.037635 
L 199.326278 227.495074 
L 199.529255 227.676809 
L 199.630744 227.554154 
L 199.732232 227.76272 
L 199.83372 227.676941 
L 200.036697 228.11707 
L 200.138185 227.753997 
L 201.051581 228.549533 
L 201.153069 228.348633 
L 201.254558 228.725056 
L 201.356046 228.220295 
L 201.559023 228.734175 
L 201.660511 228.60597 
L 201.761999 228.89278 
L 201.863488 228.554555 
L 202.066465 229.291672 
L 202.269441 228.972744 
L 202.37093 229.06751 
L 202.472418 229.411287 
L 202.675395 228.935736 
L 202.776883 229.097249 
L 202.97986 229.777664 
L 203.385813 229.583637 
L 203.487302 229.700344 
L 203.690279 229.611922 
L 203.893255 229.947371 
L 203.994744 229.943538 
L 204.096232 230.534342 
L 204.299209 229.734312 
L 204.502186 230.126859 
L 204.705162 230.077031 
L 204.806651 229.847054 
L 205.009627 230.65964 
L 205.314093 229.996671 
L 205.415581 230.499845 
L 205.517069 230.464424 
L 205.618558 230.55311 
L 205.720046 230.211317 
L 205.821534 230.426491 
L 205.923023 230.348246 
L 206.024511 230.829215 
L 206.126 230.751895 
L 206.227488 230.500374 
L 206.430465 230.64378 
L 206.531953 230.683431 
L 206.633441 230.920545 
L 206.836418 230.241848 
L 207.039395 231.164268 
L 207.34386 230.745022 
L 207.546837 231.039499 
L 207.749814 230.647745 
L 207.851302 231.081001 
L 207.95279 231.000641 
L 208.054279 231.481875 
L 208.257255 230.876136 
L 208.460232 231.051659 
L 208.561721 231.082454 
L 208.663209 231.371909 
L 208.764697 230.861729 
L 209.069162 231.480289 
L 209.170651 231.182111 
L 209.272139 231.298157 
L 209.373628 231.169423 
L 209.678093 231.633607 
L 209.779581 230.888163 
L 209.982558 231.270401 
L 210.084046 232.047698 
L 210.185535 231.404026 
L 210.287023 231.50593 
L 210.388511 231.374023 
L 210.591488 231.453326 
L 210.794465 231.063554 
L 210.895953 231.699824 
L 210.997442 231.578095 
L 211.09893 231.928744 
L 211.504883 231.342567 
L 211.606372 231.420547 
L 211.70786 231.843626 
L 211.809349 231.791815 
L 212.215302 231.583118 
L 212.31679 231.62343 
L 212.418279 231.485047 
L 212.722744 232.198901 
L 212.824232 231.877726 
L 212.925721 231.994433 
L 213.128697 231.447775 
L 213.331674 232.276089 
L 213.433163 231.429271 
L 213.737628 232.391607 
L 213.940604 231.737757 
L 214.042093 231.679206 
L 214.143581 232.025758 
L 214.24507 231.881427 
L 214.346558 232.166916 
L 214.448046 231.499982 
L 214.549535 232.229169 
L 214.651023 231.774765 
L 214.752511 232.331601 
L 214.854 232.080873 
L 214.955488 232.200091 
L 215.056977 231.582589 
L 215.158465 232.176432 
L 215.46293 231.807015 
L 215.665907 232.090654 
L 215.767395 232.553912 
L 215.868884 232.176036 
L 215.970372 232.265383 
L 216.274837 231.914734 
L 216.376325 232.113387 
L 216.477814 231.879841 
L 216.579302 232.409582 
L 216.680791 232.160968 
L 216.782279 232.706041 
L 216.985256 232.164537 
L 217.086744 231.966545 
L 217.188232 232.074661 
L 217.289721 232.408128 
L 217.492698 231.816928 
L 217.695674 232.31878 
L 217.898651 231.890547 
L 218.000139 231.867417 
L 218.101628 232.177093 
L 218.203116 231.72269 
L 218.304605 231.763795 
L 218.406093 232.199034 
L 218.60907 231.628717 
L 218.710558 231.750842 
L 218.812046 231.687533 
L 218.913535 231.397814 
L 219.218 232.053381 
L 219.420977 231.290888 
L 219.725442 231.572412 
L 219.928419 230.997072 
L 220.131395 231.655547 
L 220.232884 231.135587 
L 220.334372 231.176428 
L 220.740326 231.204052 
L 220.841814 230.67365 
L 220.943302 230.923982 
L 221.044791 230.721099 
L 221.146279 231.427817 
L 221.247767 230.854856 
L 221.349256 231.003681 
L 221.450744 230.492444 
L 221.552233 230.84415 
L 221.653721 230.695194 
L 221.755209 230.815073 
L 221.856698 230.245417 
L 221.958186 230.555225 
L 222.059674 230.502621 
L 222.161163 231.109417 
L 222.262651 231.011479 
L 222.567116 230.204576 
L 222.770093 230.836485 
L 222.871581 230.348378 
L 223.074558 230.815073 
L 223.176047 230.046235 
L 223.277535 230.330667 
L 223.379023 230.050465 
L 223.480512 231.132944 
L 223.582 230.451603 
L 223.784977 230.485042 
L 224.089442 230.277005 
L 224.19093 229.966536 
L 224.495395 230.920281 
L 224.799861 230.001561 
L 225.002837 230.206162 
L 225.205814 230.091173 
L 225.510279 230.643251 
L 225.713256 229.950147 
L 225.814744 230.003544 
L 225.916233 230.469975 
L 226.119209 230.013325 
L 226.220698 230.076767 
L 226.322186 230.062757 
L 226.525163 229.825246 
L 226.626651 229.866219 
L 226.72814 230.038569 
L 226.829628 230.535003 
L 226.931116 230.050861 
L 227.032605 230.109677 
L 227.235582 229.672192 
L 227.438558 230.297888 
L 227.540047 229.12593 
L 227.743023 229.989534 
L 227.844512 230.468124 
L 227.946 229.39265 
L 228.047489 229.923184 
L 228.250465 229.671663 
L 228.55493 229.682237 
L 228.656419 229.854323 
L 228.757907 229.690035 
L 228.859396 230.056148 
L 229.062372 229.528654 
L 229.265349 229.816787 
L 229.569814 229.393708 
L 229.772791 229.997596 
L 230.178744 229.217788 
L 230.381721 229.730215 
L 230.48321 229.194659 
L 230.787675 230.199818 
L 230.990651 229.222282 
L 231.193628 229.624082 
L 231.295117 229.392386 
L 231.396605 229.683426 
L 231.498093 229.210387 
L 231.599582 229.46931 
L 231.70107 229.296562 
L 231.802558 229.925828 
L 231.904047 229.47301 
L 232.005535 229.609939 
L 232.107024 229.250567 
L 232.31 229.447501 
L 232.512977 229.150514 
L 232.614465 229.579011 
L 232.715954 229.514248 
L 232.817442 229.831854 
L 232.918931 229.359872 
L 233.020419 229.574782 
L 233.121907 229.498123 
L 233.223396 229.197302 
L 233.324884 229.468913 
L 233.527861 229.184878 
L 233.730838 229.831325 
L 233.832326 229.873488 
L 234.035303 229.303567 
L 234.238279 229.55945 
L 234.339768 229.706688 
L 234.441256 229.185407 
L 234.542745 229.572931 
L 234.644233 229.391725 
L 234.745721 230.070819 
L 234.84721 229.410229 
L 234.948698 229.71898 
L 235.050186 229.31044 
L 235.151675 229.35062 
L 235.354652 229.94909 
L 235.45614 228.757702 
L 235.659117 229.712504 
L 235.760605 230.120251 
L 235.862093 229.643511 
L 235.963582 229.963761 
L 236.166559 229.398202 
L 236.369535 229.614962 
L 236.471024 229.569363 
L 236.775489 230.26511 
L 236.978466 229.601216 
L 237.282931 229.944332 
L 237.384419 229.642321 
L 237.587396 229.771188 
L 237.688884 230.413934 
L 237.790373 230.337275 
L 237.993349 229.722681 
L 238.297814 230.22797 
L 238.399303 229.720566 
L 238.500791 230.154219 
L 238.60228 230.040816 
L 238.703768 230.532624 
L 238.805256 230.065003 
L 238.906745 230.318771 
L 239.008233 230.132278 
L 239.312698 230.365692 
L 239.414187 230.015704 
L 239.718652 230.867016 
L 239.82014 230.498392 
L 239.921628 230.580338 
L 240.023117 230.479623 
L 240.124605 230.703917 
L 240.226094 230.37164 
L 240.42907 230.808993 
L 240.530559 230.427812 
L 240.632047 231.27212 
L 240.733535 231.223216 
L 240.835024 231.061704 
L 240.936512 230.688453 
L 241.139489 230.925436 
L 241.240977 231.458613 
L 241.342466 230.662548 
L 241.443954 231.267626 
L 241.545442 231.047033 
L 241.646931 231.75494 
L 241.748419 231.307806 
L 241.849908 231.376402 
L 241.951396 231.230221 
L 242.255861 231.625677 
L 242.357349 231.116555 
L 242.560326 231.941036 
L 242.661815 231.662288 
L 242.864791 231.953989 
L 242.96628 231.590387 
L 243.169256 231.820893 
L 243.473722 231.93152 
L 243.676698 232.433505 
L 243.778187 231.945398 
L 244.18414 232.453066 
L 244.285629 231.810319 
L 244.387117 232.412886 
L 244.488605 232.334509 
L 244.590094 232.733797 
L 244.691582 232.442757 
L 244.79307 232.659913 
L 244.894559 232.372442 
L 245.199024 232.901918 
L 245.300512 232.034349 
L 245.604977 233.279927 
L 245.706466 232.900332 
L 245.807954 233.018493 
L 245.909443 232.667711 
L 246.010931 232.702076 
L 246.112419 233.085503 
L 246.315396 232.655155 
L 246.518373 233.304246 
L 246.619861 233.306361 
L 246.822838 232.901786 
L 247.025815 233.212387 
L 247.127303 233.48717 
L 247.228791 233.01466 
L 247.533257 233.605331 
L 247.736233 233.233931 
L 247.837722 233.522989 
L 247.93921 233.366499 
L 248.142187 233.518759 
L 248.243675 233.536602 
L 248.345164 233.290368 
L 248.54814 233.656746 
L 248.649629 233.966158 
L 248.852605 233.680404 
L 249.055582 233.492589 
L 249.157071 233.838348 
L 249.258559 233.37879 
L 249.563024 234.369146 
L 249.766001 233.781911 
L 249.867489 233.853548 
L 249.968978 233.707764 
L 250.070466 233.858174 
L 250.171954 233.702212 
L 250.374931 233.936551 
L 250.476419 233.844825 
L 250.577908 234.378663 
L 250.679396 234.356854 
L 250.780885 233.948447 
L 250.882373 234.069119 
L 250.983861 234.53132 
L 251.186838 233.426372 
L 251.288326 233.938005 
L 251.389815 233.847732 
L 251.491303 234.672875 
L 251.592792 233.936551 
L 251.69428 234.431928 
L 251.897257 233.343765 
L 252.100233 234.108241 
L 252.30321 233.769223 
L 252.506187 234.378927 
L 252.607675 233.465494 
L 252.810652 233.983604 
L 253.115117 234.215167 
L 253.318094 233.609032 
L 253.419582 234.196928 
L 253.521071 234.177763 
L 253.622559 234.323283 
L 253.724047 233.561186 
L 253.825536 234.36756 
L 253.927024 234.134675 
L 254.028513 233.461001 
L 254.130001 233.56449 
L 254.434466 234.264203 
L 254.535954 234.440519 
L 254.738931 232.910245 
L 254.941908 233.950165 
L 255.043396 234.129917 
L 255.246373 233.081274 
L 255.44935 234.242262 
L 255.550838 233.76539 
L 255.652327 234.000786 
L 255.753815 233.730365 
L 255.855303 232.794331 
L 255.956792 233.746093 
L 256.05828 233.706574 
L 256.261257 233.349581 
L 256.362745 234.181067 
L 256.464234 233.942102 
L 256.565722 232.927956 
L 256.768699 233.590792 
L 256.870187 233.413023 
L 256.971675 233.624099 
L 257.276141 232.59092 
L 257.377629 234.084583 
L 257.580606 233.501445 
L 257.682094 233.234196 
L 257.783582 233.387249 
L 257.986559 232.947781 
L 258.088048 233.027745 
L 258.291024 233.776889 
L 258.595489 232.782039 
L 258.696978 232.922008 
L 258.798466 233.552859 
L 259.001443 232.927427 
L 259.102931 233.216088 
L 259.20442 233.148152 
L 259.305908 232.711724 
L 259.407396 233.253625 
L 259.508885 233.197849 
L 259.711862 232.934168 
L 259.914838 233.46946 
L 260.016327 232.071753 
L 260.320792 233.576914 
L 260.625257 232.628457 
L 260.726745 232.385791 
L 260.929722 232.890551 
L 261.03121 232.721505 
L 261.234187 233.101628 
L 261.335676 232.613653 
L 261.538652 232.804773 
L 261.640141 232.739084 
L 261.741629 232.454784 
L 261.843117 233.309929 
L 262.046094 232.088671 
L 262.249071 233.179477 
L 262.350559 232.684629 
L 262.452048 232.910245 
L 262.756513 232.071357 
L 262.858001 232.143654 
L 262.95949 232.703794 
L 263.060978 232.670751 
L 263.162466 232.542678 
L 263.263955 233.011884 
L 263.466931 231.913809 
L 263.669908 232.562636 
L 263.771397 232.354731 
L 263.872885 232.43628 
L 264.075862 231.788643 
L 264.17735 232.90813 
L 264.278838 232.002231 
L 264.380327 232.729567 
L 264.481815 231.963373 
L 264.583304 232.315212 
L 264.684792 232.05695 
L 264.78628 232.710403 
L 264.887769 231.774897 
L 264.989257 231.78785 
L 265.192234 232.584972 
L 265.395211 232.043865 
L 265.598187 232.301202 
L 265.699676 231.589065 
L 265.801164 231.693216 
L 266.004141 232.175507 
L 266.207118 232.3279 
L 266.308606 231.685418 
L 266.410094 231.712777 
L 266.714559 232.073339 
L 266.816048 231.735246 
L 266.917536 231.767364 
L 267.019025 231.713967 
L 267.120513 232.505009 
L 267.222001 232.191764 
L 267.32349 231.164665 
L 267.526466 231.970775 
L 267.627955 231.8201 
L 267.729443 231.986371 
L 267.830932 231.726523 
L 267.93242 232.170617 
L 268.033908 231.282165 
L 268.236885 231.987428 
L 268.338373 231.437333 
L 268.439862 231.996548 
L 268.54135 231.863848 
L 268.642839 231.058664 
L 268.744327 232.220445 
L 268.845815 231.686343 
L 268.947304 231.768421 
L 269.048792 231.476059 
L 269.251769 232.130966 
L 269.353257 230.959668 
L 269.454746 231.133869 
L 269.556234 232.094751 
L 269.860699 231.725201 
L 269.962187 231.086552 
L 270.165164 231.528531 
L 270.266653 231.734453 
L 270.368141 231.329614 
L 270.469629 231.898345 
L 270.571118 231.692952 
L 270.672606 231.095011 
L 270.875583 231.733924 
L 270.977071 231.397946 
L 271.07856 231.519015 
L 271.180048 231.824065 
L 271.281536 230.690568 
L 271.484513 231.614178 
L 271.586001 231.969453 
L 271.68749 231.243967 
L 271.788978 232.017034 
L 271.991955 230.832652 
L 272.29642 232.016241 
L 272.397908 231.287716 
L 272.499397 231.746877 
L 272.600885 230.706693 
L 272.803862 231.354991 
L 272.90535 231.291681 
L 273.006839 231.081794 
L 273.209815 231.911166 
L 273.311304 230.594348 
L 273.514281 231.56501 
L 273.717257 231.121974 
L 273.818746 231.637308 
L 273.920234 230.465481 
L 274.224699 231.727845 
L 274.326188 230.996808 
L 274.427676 231.59607 
L 274.529164 231.268022 
L 274.630653 230.356572 
L 274.833629 231.330539 
L 274.935118 231.225331 
L 275.036606 230.935613 
L 275.138095 231.544259 
L 275.239583 230.740132 
L 275.44256 231.035137 
L 275.544048 231.143121 
L 275.645536 230.57016 
L 275.747025 231.755733 
L 275.950002 230.449356 
L 276.05149 230.83622 
L 276.152978 231.841115 
L 276.254467 230.744626 
L 276.355955 231.285865 
L 276.558932 230.578884 
L 276.761909 230.939578 
L 276.863397 230.652767 
L 277.066374 231.175767 
L 277.26935 230.328023 
L 277.472327 231.010025 
L 277.573816 230.844679 
L 277.776792 231.058532 
L 277.878281 229.931114 
L 278.081257 231.08523 
L 278.182746 230.375208 
L 278.385723 230.782691 
L 278.588699 230.507115 
L 278.690188 230.873096 
L 278.791676 230.307669 
L 278.893164 230.458608 
L 278.994653 231.011214 
L 279.19763 230.152368 
L 279.299118 230.069101 
L 279.400606 231.204184 
L 279.705071 230.155012 
L 279.80656 229.80727 
L 280.009537 230.659508 
L 280.111025 229.93878 
L 280.314002 230.931515 
L 280.41549 230.011342 
L 280.719955 230.489668 
L 280.821444 229.886705 
L 280.922932 230.789564 
L 281.125909 229.558657 
L 281.328885 230.836881 
L 281.430374 230.0161 
L 281.531862 230.295377 
L 281.633351 230.183296 
L 281.734839 229.599101 
L 281.937816 230.059584 
L 282.039304 229.893578 
L 282.140792 230.317582 
L 282.242281 230.289165 
L 282.445258 229.75427 
L 282.648234 229.996936 
L 282.749723 229.432434 
L 282.851211 230.312692 
L 282.952699 229.498651 
L 283.054188 229.791278 
L 283.155676 229.463494 
L 283.257165 230.740925 
L 283.358653 229.594608 
L 283.460141 229.604917 
L 283.56163 229.552842 
L 283.663118 229.814672 
L 283.764606 229.642189 
L 283.866095 229.901905 
L 284.069072 229.05773 
L 284.272048 229.995482 
L 284.475025 229.373221 
L 284.576513 229.699948 
L 284.678002 228.741709 
L 284.77949 229.89675 
L 284.880979 229.222943 
L 284.982467 229.284403 
L 285.185444 230.063814 
L 285.286932 228.80568 
L 285.489909 229.387231 
L 285.591397 229.292597 
L 285.692886 229.251889 
L 285.794374 229.554031 
L 285.997351 228.7807 
L 286.098839 229.549669 
L 286.301816 229.185803 
L 286.403304 229.242372 
L 286.504793 229.066453 
L 286.606281 228.600551 
L 286.707769 228.649983 
L 286.910746 229.307268 
L 287.113723 229.161484 
L 287.215211 228.612975 
L 287.418188 228.867668 
L 287.519676 228.854583 
L 287.621165 228.995609 
L 287.722653 228.840176 
L 287.824141 228.29365 
L 287.92563 228.387359 
L 288.027118 229.359343 
L 288.128607 228.719637 
L 288.230095 229.087997 
L 288.433072 228.172582 
L 288.636048 228.689237 
L 288.737537 228.318234 
L 288.839025 228.419345 
L 288.940514 229.433888 
L 289.14349 228.116673 
L 289.244979 227.872554 
L 289.346467 228.774752 
L 289.447955 228.188706 
L 289.549444 228.726906 
L 289.752421 227.690422 
L 289.955397 228.763517 
L 290.056886 228.178794 
L 290.259862 228.384848 
L 290.361351 227.578606 
L 290.564328 228.238799 
L 290.665816 227.955954 
L 290.767304 228.139142 
L 290.868793 228.637162 
L 290.970281 227.597639 
L 291.173258 228.06592 
L 291.274746 227.745538 
L 291.376235 228.095526 
L 291.477723 228.013977 
L 291.579211 227.425552 
L 291.6807 227.446964 
L 291.782188 228.525742 
L 291.883676 227.501947 
L 292.086653 227.979744 
L 292.28963 227.323913 
L 292.391118 227.861716 
L 292.594095 227.286905 
L 292.695583 227.970096 
L 292.797072 227.740119 
L 292.89856 227.067898 
L 293.000049 227.561424 
L 293.203025 227.262453 
L 293.304514 228.001685 
L 293.50749 226.605829 
L 293.710467 227.946702 
L 293.811956 227.214475 
L 293.913444 227.631078 
L 294.116421 226.620632 
L 294.319397 227.459256 
L 294.420886 226.801838 
L 294.623862 227.305805 
L 294.826839 226.792322 
L 294.928328 227.219366 
L 295.029816 226.708393 
L 295.131304 227.119709 
L 295.232793 226.890921 
L 295.334281 225.841881 
L 295.537258 227.093803 
L 295.638746 227.128564 
L 295.943211 226.108866 
L 296.146188 226.798005 
L 296.247676 226.285447 
L 296.349165 226.547145 
L 296.552142 226.429248 
L 296.65363 226.86647 
L 296.755118 226.526526 
L 296.856607 225.43572 
L 297.059583 226.503793 
L 297.161072 225.842542 
L 297.26256 226.394488 
L 297.465537 225.778439 
L 297.668514 226.191473 
L 297.770002 226.015289 
L 297.87149 226.179842 
L 297.972979 225.880872 
L 298.074467 225.172965 
L 298.277444 225.889331 
L 298.378932 226.005773 
L 298.480421 226.344263 
L 298.683397 225.035375 
L 298.886374 225.733105 
L 299.089351 225.35351 
L 299.190839 225.754516 
L 299.292328 224.725963 
L 299.495304 225.731915 
L 299.698281 225.333684 
L 299.79977 225.283856 
L 300.002746 224.750943 
L 300.307211 225.693453 
L 300.510188 224.418137 
L 300.713165 225.086789 
L 300.814653 224.782796 
L 300.916142 225.143358 
L 301.119118 223.820989 
L 301.220607 225.141905 
L 301.423584 224.55044 
L 301.525072 224.755701 
L 301.62656 224.518323 
L 301.728049 223.835925 
L 301.829537 224.042376 
L 301.931025 224.536959 
L 302.032514 224.425407 
L 302.134002 224.880206 
L 302.235491 224.591281 
L 302.336979 223.620486 
L 302.539956 224.306321 
L 302.641444 224.049909 
L 302.742932 224.696753 
L 302.945909 223.430425 
L 303.047398 224.42501 
L 303.148886 224.229794 
L 303.250374 223.737325 
L 303.351863 224.465983 
L 303.554839 223.63106 
L 303.656328 223.98845 
L 303.859305 223.396192 
L 303.960793 224.355488 
L 304.16377 223.462806 
L 304.265258 223.784114 
L 304.366746 223.649828 
L 304.468235 223.983559 
L 304.569723 223.747635 
L 304.671212 222.969809 
L 304.7727 223.065765 
L 304.975677 224.069999 
L 305.077165 223.617578 
L 305.178653 223.923686 
L 305.280142 222.744458 
L 305.483119 223.576341 
L 305.584607 223.296139 
L 305.787584 223.534575 
L 305.889072 223.106342 
L 305.99056 223.481971 
L 306.092049 223.431878 
L 306.193537 223.308167 
L 306.396514 223.31993 
L 306.498002 222.53576 
L 306.700979 223.572112 
L 306.802467 223.042503 
L 306.903956 223.473116 
L 307.106933 222.435839 
L 307.309909 223.67124 
L 307.411398 222.834334 
L 307.512886 223.156038 
L 307.614374 222.917602 
L 307.715863 222.300893 
L 307.817351 223.081494 
L 308.020328 222.583342 
L 308.121816 223.260189 
L 308.324793 222.452625 
L 308.426281 222.584928 
L 308.629258 223.119559 
L 308.730747 222.78662 
L 308.832235 221.719473 
L 309.035212 222.883898 
L 309.1367 222.970206 
L 309.238188 222.550035 
L 309.339677 222.765209 
L 309.441165 221.867108 
L 309.644142 222.621407 
L 309.74563 222.071048 
L 309.847119 222.742872 
L 310.050095 222.04382 
L 310.253072 222.656168 
L 310.354561 221.983551 
L 310.456049 222.677315 
L 310.557537 222.323494 
L 310.659026 221.318599 
L 310.760514 222.33909 
L 310.862002 222.181146 
L 310.963491 222.321776 
L 311.064979 222.730051 
L 311.267956 221.369353 
L 311.369444 222.189076 
L 311.470933 222.129996 
L 311.572421 222.068801 
L 311.673909 222.140041 
L 311.775398 221.379398 
L 311.978375 222.280274 
L 312.079863 221.863672 
L 312.181351 222.188415 
L 312.28284 222.149821 
L 312.384328 220.994781 
L 312.485816 221.871073 
L 312.587305 221.809217 
L 312.688793 221.750401 
L 312.790282 222.261241 
L 312.89177 222.090212 
L 312.993258 221.24498 
L 313.196235 221.839352 
L 313.297723 221.509057 
L 313.399212 222.288072 
L 313.5007 221.033242 
L 313.805165 221.818205 
L 313.906654 221.539589 
L 314.008142 221.957513 
L 314.10963 220.819919 
L 314.312607 221.825342 
L 314.414096 221.152064 
L 314.617072 221.539324 
L 314.820049 221.29732 
L 314.921537 221.420503 
L 315.023026 221.022669 
L 315.124514 221.774853 
L 315.226003 221.377944 
L 315.327491 220.476935 
L 315.631956 222.066157 
L 315.834933 220.441778 
L 316.03791 221.197663 
L 316.139398 221.258065 
L 316.240886 220.989362 
L 316.342375 221.16277 
L 316.443863 220.140032 
L 316.545351 221.513155 
L 316.64684 221.092323 
L 316.748328 221.121797 
L 316.849817 221.304193 
L 316.951305 220.428825 
L 317.052793 220.824677 
L 317.25577 220.727267 
L 317.458747 221.375036 
L 317.560235 220.110558 
L 317.661724 220.97588 
L 317.763212 220.363004 
L 317.966189 221.221321 
L 318.169165 219.942833 
L 318.270654 220.332076 
L 318.372142 221.453149 
L 318.473631 220.303131 
L 318.575119 221.278419 
L 318.778096 220.036674 
L 318.981072 220.559939 
L 319.082561 220.418648 
L 319.184049 220.692374 
L 319.285538 220.22092 
L 319.488514 220.530729 
L 319.590003 220.028083 
L 319.691491 220.836176 
L 319.995956 219.755811 
L 320.097445 220.567869 
L 320.198933 220.273524 
L 320.300421 220.970726 
L 320.40191 219.779734 
L 320.503398 219.852296 
L 320.706375 220.153249 
L 320.807863 220.290971 
L 320.909352 220.136992 
L 321.01084 219.276296 
L 321.213817 220.65193 
L 321.416793 219.316079 
L 321.61977 220.331019 
L 321.721259 219.769821 
L 321.822747 220.088353 
L 321.924235 219.331939 
L 322.025724 219.884017 
L 322.127212 219.648092 
L 322.431677 220.321106 
L 322.533166 218.879387 
L 322.736142 219.930409 
L 322.837631 219.460938 
L 322.939119 220.258853 
L 323.040607 218.764001 
L 323.345073 220.2422 
L 323.548049 219.223956 
L 323.751026 219.236116 
L 323.852514 219.767707 
L 323.954003 219.074735 
L 324.055491 219.919703 
L 324.15698 218.994772 
L 324.258468 219.648224 
L 324.461445 219.308149 
L 324.562933 219.476138 
L 324.664421 219.42208 
L 324.76591 218.817531 
L 324.968887 219.7381 
L 325.070375 218.851234 
L 325.171863 219.673469 
L 325.273352 218.616234 
L 325.37484 219.389434 
L 325.476328 218.847005 
L 325.679305 219.482614 
L 325.780794 219.274577 
L 325.882282 218.692365 
L 325.98377 218.724747 
L 326.085259 219.217612 
L 326.186747 218.755146 
L 326.288235 219.237834 
L 326.389724 218.069576 
L 326.592701 219.881109 
L 326.795677 218.267303 
L 326.897166 219.17426 
L 326.998654 218.400928 
L 327.100142 218.606718 
L 327.201631 219.096675 
L 327.404608 218.32004 
L 327.607584 219.309338 
L 327.709073 217.912821 
L 327.810561 218.196328 
L 327.912049 219.723694 
L 328.013538 217.950622 
L 328.216515 218.930405 
L 328.318003 217.984987 
L 328.419491 218.427098 
L 328.622468 217.960932 
L 328.825445 219.623244 
L 328.926933 218.023977 
L 329.028422 218.137776 
L 329.12991 218.569182 
L 329.231398 218.37727 
L 329.332887 217.683901 
L 329.535863 218.526358 
L 329.637352 217.534681 
L 329.73884 219.19805 
L 329.941817 217.242451 
L 330.043305 218.51182 
L 330.246282 217.68443 
L 330.34777 217.811975 
L 330.449259 219.025171 
L 330.550747 217.283424 
L 330.753724 218.182846 
L 330.956701 217.776818 
L 331.058189 217.909253 
L 331.159677 218.290301 
L 331.261166 216.972294 
L 331.464143 218.174387 
L 331.565631 217.275361 
L 331.768608 218.264264 
L 331.870096 216.934493 
L 332.073073 218.527548 
L 332.174561 216.788576 
L 332.377538 217.661697 
L 332.479026 217.461854 
L 332.682003 217.966086 
L 332.88498 216.709274 
L 332.986468 218.157866 
L 333.189445 216.436209 
L 333.392422 218.37304 
L 333.49391 216.674645 
L 333.696887 217.78607 
L 333.798375 216.831928 
L 333.899864 216.904887 
L 334.001352 216.988683 
L 334.10284 216.714428 
L 334.305817 218.177824 
L 334.508794 216.106046 
L 334.610282 217.659714 
L 334.813259 216.308268 
L 335.016236 217.334045 
L 335.117724 216.330208 
L 335.320701 217.646233 
L 335.422189 216.070889 
L 335.625166 217.115831 
L 335.726654 216.293597 
L 335.828143 216.419555 
L 335.929631 217.265316 
L 336.132608 216.380036 
L 336.234096 217.124951 
L 336.335585 216.707423 
L 336.437073 215.64966 
L 336.538561 216.975995 
L 336.64005 216.942159 
L 336.741538 215.815535 
L 336.944515 217.186675 
L 337.147492 215.674376 
L 337.24898 216.567058 
L 337.350468 216.179533 
L 337.553445 216.612525 
L 337.654933 216.297694 
L 337.756422 215.551061 
L 337.959399 216.617679 
L 338.060887 215.19116 
L 338.263864 216.540492 
L 338.46684 215.946648 
L 338.568329 216.916518 
L 338.669817 215.412282 
L 338.771306 215.581328 
L 338.872794 216.341442 
L 338.974282 215.117541 
L 339.177259 216.408189 
L 339.278747 215.472023 
L 339.481724 216.390478 
L 339.684701 215.023171 
L 339.786189 215.838532 
L 339.989166 215.0767 
L 340.192143 215.964623 
L 340.293631 215.039824 
L 340.496608 216.139089 
L 340.699585 214.486028 
L 340.801073 215.704511 
L 340.902561 215.053702 
L 341.105538 215.818971 
L 341.308515 214.245081 
L 341.410003 215.527667 
L 341.511492 215.300861 
L 341.61298 214.331388 
L 341.815957 215.231736 
L 341.917445 215.135119 
L 342.018934 215.210985 
L 342.120422 215.587804 
L 342.22191 214.123219 
L 342.323399 214.272969 
L 342.424887 215.100358 
L 342.627864 214.115289 
L 342.830841 215.605383 
L 342.932329 214.013253 
L 343.135306 215.142521 
L 343.236794 213.869848 
L 343.338282 214.019862 
L 343.439771 214.631152 
L 343.541259 213.88518 
L 343.744236 215.247332 
L 343.947213 213.718777 
L 344.048701 214.471886 
L 344.150189 214.341037 
L 344.251678 213.362709 
L 344.454655 214.546298 
L 344.556143 213.544972 
L 344.75912 214.808922 
L 344.962096 213.188904 
L 345.063585 214.487218 
L 345.165073 214.031361 
L 345.266562 212.80085 
L 345.469538 214.234507 
L 345.571027 213.44254 
L 345.774003 214.548413 
L 345.97698 212.880549 
L 346.078469 214.142384 
L 346.179957 212.893106 
L 346.281445 213.14542 
L 346.484422 214.058191 
L 346.58591 212.476503 
L 346.687399 213.624275 
L 346.788887 213.603788 
L 346.991864 212.68269 
L 347.093352 213.401302 
L 347.194841 212.463154 
L 347.397817 214.042067 
L 347.600794 212.160747 
L 347.702283 213.589646 
L 347.905259 211.927994 
L 348.108236 213.297813 
L 348.209724 212.288556 
L 348.412701 213.81275 
L 348.615678 211.965266 
L 348.717166 213.047217 
L 348.818655 212.729082 
L 348.920143 211.713084 
L 349.12312 213.186525 
L 349.224608 211.911209 
L 349.427585 213.252875 
L 349.630562 211.503594 
L 349.73205 212.83495 
L 349.935027 211.790404 
L 350.036515 213.028713 
L 350.239492 211.470551 
L 350.442469 212.805608 
L 350.645445 211.370762 
L 350.746934 212.148323 
L 350.848422 211.749564 
L 351.051399 212.231591 
L 351.152887 212.162597 
L 351.254376 210.790929 
L 351.457352 212.331908 
L 351.558841 210.651621 
L 351.761818 212.102195 
L 351.964794 211.587654 
L 352.066283 211.961301 
L 352.269259 210.792515 
L 352.370748 211.79014 
L 352.472236 211.775601 
L 352.573725 210.92495 
L 352.675213 211.006896 
L 352.776701 211.949538 
L 352.87819 211.032273 
L 352.979678 211.188895 
L 353.081166 212.056861 
L 353.284143 210.844458 
L 353.385632 211.431561 
L 353.48712 211.37248 
L 353.588608 210.326877 
L 353.791585 211.381336 
L 353.893073 210.665631 
L 353.994562 210.793043 
L 354.09605 211.824108 
L 354.299027 210.214267 
L 354.502004 211.309831 
L 354.603492 210.098353 
L 354.70498 210.966451 
L 354.806469 210.817098 
L 354.907957 210.350668 
L 355.110934 211.222995 
L 355.313911 209.609982 
L 355.415399 211.624662 
L 355.618376 209.77361 
L 355.821353 210.537689 
L 355.922841 210.248896 
L 356.024329 210.576944 
L 356.125818 210.259866 
L 356.227306 210.519185 
L 356.328794 211.294764 
L 356.531771 209.792907 
L 356.63326 210.70092 
L 356.836236 209.645933 
L 357.039213 210.383314 
L 357.140701 209.559229 
L 357.343678 210.974117 
L 357.546655 209.404457 
L 357.648143 210.52249 
L 357.749632 210.38067 
L 357.85112 208.990894 
L 358.054097 210.239776 
L 358.155585 209.512308 
L 358.358562 210.771103 
L 358.561539 208.957851 
L 358.663027 210.472926 
L 358.866004 208.837973 
L 358.967492 209.753784 
L 359.170469 209.386878 
L 359.271957 209.687302 
L 359.373446 210.869702 
L 359.576422 208.692452 
L 359.677911 210.176863 
L 359.779399 209.476886 
L 359.880888 209.513365 
L 360.083864 209.225762 
L 360.185353 209.2214 
L 360.286841 209.914372 
L 360.489818 209.416881 
L 360.591306 208.544818 
L 360.794283 209.707128 
L 360.895771 209.023276 
L 360.99726 209.655053 
L 361.098748 209.120686 
L 361.301725 209.353439 
L 361.60619 208.788012 
L 361.707678 208.902075 
L 362.012143 209.519577 
L 362.113632 208.612886 
L 362.21512 209.140644 
L 362.316609 208.883175 
L 362.418097 209.290129 
L 362.519585 209.147781 
L 362.621074 208.177911 
L 362.82405 208.975298 
L 362.925539 209.48746 
L 363.128516 208.42745 
L 363.230004 209.002393 
L 363.331492 208.648572 
L 363.432981 209.384895 
L 363.534469 208.363083 
L 363.737446 208.819204 
L 363.838934 208.662317 
L 363.940423 209.260919 
L 364.041911 208.217695 
L 364.143399 208.390178 
L 364.447864 209.348681 
L 364.549353 208.231837 
L 364.650841 208.444236 
L 364.75233 209.148574 
L 365.056795 207.812723 
L 365.158283 208.343918 
L 365.259771 209.655317 
L 365.36126 208.490099 
L 365.462748 208.934457 
L 365.564237 207.889383 
L 365.767213 208.629671 
L 365.868702 208.341142 
L 365.97019 209.203557 
L 366.071678 207.741748 
L 366.173167 208.63139 
L 366.274655 208.190732 
L 366.376144 208.828588 
L 366.477632 208.12425 
L 366.680609 208.696021 
L 366.782097 208.603237 
L 366.985074 208.016663 
L 367.086562 208.670248 
L 367.188051 208.071382 
L 367.289539 208.326471 
L 367.391027 208.907759 
L 367.492516 208.13522 
L 367.796981 208.629539 
L 367.898469 208.378547 
L 367.999958 207.570851 
L 368.304423 208.673816 
L 368.405911 208.687166 
L 368.507399 207.959301 
L 368.710376 208.135352 
L 368.811865 209.016139 
L 369.014841 207.03133 
L 369.11633 208.930889 
L 369.217818 208.177383 
L 369.420795 208.357928 
L 369.522283 207.67738 
L 369.623772 208.671966 
L 369.72526 207.768975 
L 369.826748 208.374846 
L 369.928237 208.275453 
L 370.029725 207.522476 
L 370.232702 208.647647 
L 370.33419 207.802943 
L 370.435679 208.269109 
L 370.537167 208.09927 
L 370.740144 208.625838 
L 370.841632 207.6183 
L 370.94312 208.293297 
L 371.146097 207.913305 
L 371.247586 209.011248 
L 371.349074 207.506748 
L 371.450562 208.324885 
L 371.552051 208.18452 
L 371.653539 207.463792 
L 371.755027 209.161923 
L 371.856516 207.416872 
L 371.958004 207.593188 
L 372.059493 208.654784 
L 372.160981 208.287613 
L 372.262469 208.722852 
L 372.363958 207.07032 
L 372.566934 208.8348 
L 372.668423 207.660066 
L 372.769911 208.549311 
L 372.8714 207.434847 
L 373.074376 208.768715 
L 373.277353 207.894802 
L 373.48033 207.714256 
L 373.581818 208.740166 
L 373.581818 208.740166 
" style="fill:none;stroke:#081d58;stroke-dasharray:5.55,2.4;stroke-dashoffset:0;stroke-width:1.5;"/>
    <defs>
     <path d="M -0 4.242641 
L 4.242641 0 
L 0 -4.242641 
L -4.242641 -0 
z
" id="mf9ab726a65" style="stroke:#081d58;stroke-linejoin:miter;"/>
    </defs>
    <g clip-path="url(#p83d2c0c1b6)">
     <use style="fill:#081d58;stroke:#081d58;stroke-linejoin:miter;" x="69.218182" xlink:href="#mf9ab726a65" y="51.067774"/>
     <use style="fill:#081d58;stroke:#081d58;stroke-linejoin:miter;" x="77.337252" xlink:href="#mf9ab726a65" y="50.451461"/>
     <use style="fill:#081d58;stroke:#081d58;stroke-linejoin:miter;" x="85.456322" xlink:href="#mf9ab726a65" y="49.261792"/>
     <use style="fill:#081d58;stroke:#081d58;stroke-linejoin:miter;" x="93.575392" xlink:href="#mf9ab726a65" y="47.650365"/>
     <use style="fill:#081d58;stroke:#081d58;stroke-linejoin:miter;" x="101.694462" xlink:href="#mf9ab726a65" y="48.456343"/>
     <use style="fill:#081d58;stroke:#081d58;stroke-linejoin:miter;" x="109.813532" xlink:href="#mf9ab726a65" y="54.365568"/>
     <use style="fill:#081d58;stroke:#081d58;stroke-linejoin:miter;" x="117.932602" xlink:href="#mf9ab726a65" y="54.72613"/>
     <use style="fill:#081d58;stroke:#081d58;stroke-linejoin:miter;" x="126.051672" xlink:href="#mf9ab726a65" y="57.860825"/>
     <use style="fill:#081d58;stroke:#081d58;stroke-linejoin:miter;" x="134.170742" xlink:href="#mf9ab726a65" y="62.584346"/>
     <use style="fill:#081d58;stroke:#081d58;stroke-linejoin:miter;" x="142.289812" xlink:href="#mf9ab726a65" y="67.989869"/>
     <use style="fill:#081d58;stroke:#081d58;stroke-linejoin:miter;" x="150.408882" xlink:href="#mf9ab726a65" y="83.567522"/>
     <use style="fill:#081d58;stroke:#081d58;stroke-linejoin:miter;" x="158.527952" xlink:href="#mf9ab726a65" y="112.285599"/>
     <use style="fill:#081d58;stroke:#081d58;stroke-linejoin:miter;" x="166.647022" xlink:href="#mf9ab726a65" y="164.743538"/>
     <use style="fill:#081d58;stroke:#081d58;stroke-linejoin:miter;" x="174.766092" xlink:href="#mf9ab726a65" y="210.800313"/>
     <use style="fill:#081d58;stroke:#081d58;stroke-linejoin:miter;" x="182.885162" xlink:href="#mf9ab726a65" y="224.150359"/>
     <use style="fill:#081d58;stroke:#081d58;stroke-linejoin:miter;" x="191.004232" xlink:href="#mf9ab726a65" y="225.767073"/>
     <use style="fill:#081d58;stroke:#081d58;stroke-linejoin:miter;" x="199.123302" xlink:href="#mf9ab726a65" y="227.838057"/>
     <use style="fill:#081d58;stroke:#081d58;stroke-linejoin:miter;" x="207.242372" xlink:href="#mf9ab726a65" y="230.868866"/>
     <use style="fill:#081d58;stroke:#081d58;stroke-linejoin:miter;" x="215.361442" xlink:href="#mf9ab726a65" y="232.089067"/>
     <use style="fill:#081d58;stroke:#081d58;stroke-linejoin:miter;" x="223.480512" xlink:href="#mf9ab726a65" y="231.132944"/>
     <use style="fill:#081d58;stroke:#081d58;stroke-linejoin:miter;" x="231.599582" xlink:href="#mf9ab726a65" y="229.46931"/>
     <use style="fill:#081d58;stroke:#081d58;stroke-linejoin:miter;" x="239.718652" xlink:href="#mf9ab726a65" y="230.867016"/>
     <use style="fill:#081d58;stroke:#081d58;stroke-linejoin:miter;" x="247.837722" xlink:href="#mf9ab726a65" y="233.522989"/>
     <use style="fill:#081d58;stroke:#081d58;stroke-linejoin:miter;" x="255.956792" xlink:href="#mf9ab726a65" y="233.746093"/>
     <use style="fill:#081d58;stroke:#081d58;stroke-linejoin:miter;" x="264.075862" xlink:href="#mf9ab726a65" y="231.788643"/>
     <use style="fill:#081d58;stroke:#081d58;stroke-linejoin:miter;" x="272.194932" xlink:href="#mf9ab726a65" y="231.438391"/>
     <use style="fill:#081d58;stroke:#081d58;stroke-linejoin:miter;" x="280.314002" xlink:href="#mf9ab726a65" y="230.931515"/>
     <use style="fill:#081d58;stroke:#081d58;stroke-linejoin:miter;" x="288.433072" xlink:href="#mf9ab726a65" y="228.172582"/>
     <use style="fill:#081d58;stroke:#081d58;stroke-linejoin:miter;" x="296.552142" xlink:href="#mf9ab726a65" y="226.429248"/>
     <use style="fill:#081d58;stroke:#081d58;stroke-linejoin:miter;" x="304.671212" xlink:href="#mf9ab726a65" y="222.969809"/>
     <use style="fill:#081d58;stroke:#081d58;stroke-linejoin:miter;" x="312.790282" xlink:href="#mf9ab726a65" y="222.261241"/>
     <use style="fill:#081d58;stroke:#081d58;stroke-linejoin:miter;" x="320.909352" xlink:href="#mf9ab726a65" y="220.136992"/>
     <use style="fill:#081d58;stroke:#081d58;stroke-linejoin:miter;" x="329.028422" xlink:href="#mf9ab726a65" y="218.137776"/>
     <use style="fill:#081d58;stroke:#081d58;stroke-linejoin:miter;" x="337.147492" xlink:href="#mf9ab726a65" y="215.674376"/>
     <use style="fill:#081d58;stroke:#081d58;stroke-linejoin:miter;" x="345.266562" xlink:href="#mf9ab726a65" y="212.80085"/>
     <use style="fill:#081d58;stroke:#081d58;stroke-linejoin:miter;" x="353.385632" xlink:href="#mf9ab726a65" y="211.431561"/>
     <use style="fill:#081d58;stroke:#081d58;stroke-linejoin:miter;" x="361.504702" xlink:href="#mf9ab726a65" y="209.131656"/>
     <use style="fill:#081d58;stroke:#081d58;stroke-linejoin:miter;" x="369.623772" xlink:href="#mf9ab726a65" y="208.671966"/>
    </g>
   </g>
   <g id="patch_3">
    <path d="M 54 252 
L 54 34.56 
" style="fill:none;stroke:#000000;stroke-linecap:square;stroke-linejoin:miter;stroke-width:0.8;"/>
   </g>
   <g id="patch_4">
    <path d="M 388.8 252 
L 388.8 34.56 
" style="fill:none;stroke:#000000;stroke-linecap:square;stroke-linejoin:miter;stroke-width:0.8;"/>
   </g>
   <g id="patch_5">
    <path d="M 54 252 
L 388.8 252 
" style="fill:none;stroke:#000000;stroke-linecap:square;stroke-linejoin:miter;stroke-width:0.8;"/>
   </g>
   <g id="patch_6">
    <path d="M 54 34.56 
L 388.8 34.56 
" style="fill:none;stroke:#000000;stroke-linecap:square;stroke-linejoin:miter;stroke-width:0.8;"/>
   </g>
   <g id="legend_1">
    <g id="patch_7">
     <path d="M 280.085938 71.91625 
L 381.8 71.91625 
Q 383.8 71.91625 383.8 69.91625 
L 383.8 41.56 
Q 383.8 39.56 381.8 39.56 
L 280.085938 39.56 
Q 278.085938 39.56 278.085938 41.56 
L 278.085938 69.91625 
Q 278.085938 71.91625 280.085938 71.91625 
z
" style="fill:#ffffff;opacity:0.8;stroke:#cccccc;stroke-linejoin:miter;"/>
    </g>
    <g id="line2d_16">
     <path d="M 282.085938 47.658437 
L 302.085938 47.658437 
" style="fill:none;stroke:#40b5c4;stroke-dasharray:5.55,2.4;stroke-dashoffset:0;stroke-width:1.5;"/>
    </g>
    <g id="line2d_17">
     <g>
      <use style="fill:#40b5c4;stroke:#40b5c4;" x="292.085938" xlink:href="#madbcaf7ea2" y="47.658437"/>
     </g>
    </g>
    <g id="text_16">
     <text style="font-family:DejaVu Sans;font-size:10px;font-style:normal;font-weight:normal;text-anchor:start;" transform="rotate(-0, 310.085938, 51.158437)" x="310.085938" y="51.158437">original</text>
    </g>
    <g id="line2d_18">
     <path d="M 282.085938 62.336562 
L 302.085938 62.336562 
" style="fill:none;stroke:#081d58;stroke-dasharray:5.55,2.4;stroke-dashoffset:0;stroke-width:1.5;"/>
    </g>
    <g id="line2d_19">
     <g>
      <use style="fill:#081d58;stroke:#081d58;stroke-linejoin:miter;" x="292.085938" xlink:href="#mf9ab726a65" y="62.336562"/>
     </g>
    </g>
    <g id="text_17">
     <text style="font-family:DejaVu Sans;font-size:10px;font-style:normal;font-weight:normal;text-anchor:start;" transform="rotate(-0, 310.085938, 65.836562)" x="310.085938" y="65.836562">reconstructed</text>
    </g>
   </g>
  </g>
  <g id="text_18">
   <text style="font-family:DejaVu Sans;font-size:12px;font-style:normal;font-weight:normal;text-anchor:middle;" transform="rotate(-0, 216, 14.878125)" x="216" y="14.878125">Reconstruction of the weight curve</text>
  </g>
 </g>
 <defs>
  <clipPath id="p83d2c0c1b6">
   <rect height="217.44" width="334.8" x="54" y="34.56"/>
  </clipPath>
 </defs>
</svg>
