<?xml version="1.0" encoding="utf-8" standalone="no"?>
<!DOCTYPE svg PUBLIC "-//W3C//DTD SVG 1.1//EN"
  "http://www.w3.org/Graphics/SVG/1.1/DTD/svg11.dtd">
<!-- Created with matplotlib (https://matplotlib.org/) -->
<svg height="288pt" version="1.1" viewBox="0 0 432 288" width="432pt" xmlns="http://www.w3.org/2000/svg" xmlns:xlink="http://www.w3.org/1999/xlink">
 <defs>
  <style type="text/css">
*{stroke-linecap:butt;stroke-linejoin:round;}
  </style>
 </defs>
 <g id="figure_1">
  <g id="patch_1">
   <path d="M 0 288 
L 432 288 
L 432 0 
L 0 0 
z
" style="fill:#ffffff;"/>
  </g>
  <g id="axes_1">
   <g id="patch_2">
    <path d="M 54 252 
L 388.8 252 
L 388.8 34.56 
L 54 34.56 
z
" style="fill:#ffffff;"/>
   </g>
   <g id="matplotlib.axis_1">
    <g id="xtick_1">
     <g id="line2d_1">
      <defs>
       <path d="M 0 0 
L 0 3.5 
" id="m9fa0c53a0c" style="stroke:#000000;stroke-width:0.8;"/>
      </defs>
      <g>
       <use style="stroke:#000000;stroke-width:0.8;" x="69.218182" xlink:href="#m9fa0c53a0c" y="252"/>
      </g>
     </g>
     <g id="text_1">
      <text style="font-family:DejaVu Sans;font-size:10px;font-style:normal;font-weight:normal;text-anchor:middle;" transform="rotate(-0, 69.218182, 266.598437)" x="69.218182" y="266.598437">0</text>
     </g>
    </g>
    <g id="xtick_2">
     <g id="line2d_2">
      <g>
       <use style="stroke:#000000;stroke-width:0.8;" x="119.962369" xlink:href="#m9fa0c53a0c" y="252"/>
      </g>
     </g>
     <g id="text_2">
      <text style="font-family:DejaVu Sans;font-size:10px;font-style:normal;font-weight:normal;text-anchor:middle;" transform="rotate(-0, 119.962369, 266.598437)" x="119.962369" y="266.598437">500</text>
     </g>
    </g>
    <g id="xtick_3">
     <g id="line2d_3">
      <g>
       <use style="stroke:#000000;stroke-width:0.8;" x="170.706557" xlink:href="#m9fa0c53a0c" y="252"/>
      </g>
     </g>
     <g id="text_3">
      <text style="font-family:DejaVu Sans;font-size:10px;font-style:normal;font-weight:normal;text-anchor:middle;" transform="rotate(-0, 170.706557, 266.598437)" x="170.706557" y="266.598437">1000</text>
     </g>
    </g>
    <g id="xtick_4">
     <g id="line2d_4">
      <g>
       <use style="stroke:#000000;stroke-width:0.8;" x="221.450744" xlink:href="#m9fa0c53a0c" y="252"/>
      </g>
     </g>
     <g id="text_4">
      <text style="font-family:DejaVu Sans;font-size:10px;font-style:normal;font-weight:normal;text-anchor:middle;" transform="rotate(-0, 221.450744, 266.598437)" x="221.450744" y="266.598437">1500</text>
     </g>
    </g>
    <g id="xtick_5">
     <g id="line2d_5">
      <g>
       <use style="stroke:#000000;stroke-width:0.8;" x="272.194932" xlink:href="#m9fa0c53a0c" y="252"/>
      </g>
     </g>
     <g id="text_5">
      <text style="font-family:DejaVu Sans;font-size:10px;font-style:normal;font-weight:normal;text-anchor:middle;" transform="rotate(-0, 272.194932, 266.598437)" x="272.194932" y="266.598437">2000</text>
     </g>
    </g>
    <g id="xtick_6">
     <g id="line2d_6">
      <g>
       <use style="stroke:#000000;stroke-width:0.8;" x="322.939119" xlink:href="#m9fa0c53a0c" y="252"/>
      </g>
     </g>
     <g id="text_6">
      <text style="font-family:DejaVu Sans;font-size:10px;font-style:normal;font-weight:normal;text-anchor:middle;" transform="rotate(-0, 322.939119, 266.598437)" x="322.939119" y="266.598437">2500</text>
     </g>
    </g>
    <g id="xtick_7">
     <g id="line2d_7">
      <g>
       <use style="stroke:#000000;stroke-width:0.8;" x="373.683307" xlink:href="#m9fa0c53a0c" y="252"/>
      </g>
     </g>
     <g id="text_7">
      <text style="font-family:DejaVu Sans;font-size:10px;font-style:normal;font-weight:normal;text-anchor:middle;" transform="rotate(-0, 373.683307, 266.598437)" x="373.683307" y="266.598437">3000</text>
     </g>
    </g>
    <g id="text_8">
     <text style="font-family:DejaVu Sans;font-size:10px;font-style:normal;font-weight:normal;text-anchor:middle;" transform="rotate(-0, 221.4, 280.276563)" x="221.4" y="280.276563">Time</text>
    </g>
   </g>
   <g id="matplotlib.axis_2">
    <g id="ytick_1">
     <g id="line2d_8">
      <defs>
       <path d="M 0 0 
L -3.5 0 
" id="m205d742921" style="stroke:#000000;stroke-width:0.8;"/>
      </defs>
      <g>
       <use style="stroke:#000000;stroke-width:0.8;" x="54" xlink:href="#m205d742921" y="230.075096"/>
      </g>
     </g>
     <g id="text_9">
      <text style="font-family:DejaVu Sans;font-size:10px;font-style:normal;font-weight:normal;text-anchor:end;" transform="rotate(-0, 47, 233.874314)" x="47" y="233.874314">50</text>
     </g>
    </g>
    <g id="ytick_2">
     <g id="line2d_9">
      <g>
       <use style="stroke:#000000;stroke-width:0.8;" x="54" xlink:href="#m205d742921" y="198.755368"/>
      </g>
     </g>
     <g id="text_10">
      <text style="font-family:DejaVu Sans;font-size:10px;font-style:normal;font-weight:normal;text-anchor:end;" transform="rotate(-0, 47, 202.554587)" x="47" y="202.554587">55</text>
     </g>
    </g>
    <g id="ytick_3">
     <g id="line2d_10">
      <g>
       <use style="stroke:#000000;stroke-width:0.8;" x="54" xlink:href="#m205d742921" y="167.435641"/>
      </g>
     </g>
     <g id="text_11">
      <text style="font-family:DejaVu Sans;font-size:10px;font-style:normal;font-weight:normal;text-anchor:end;" transform="rotate(-0, 47, 171.23486)" x="47" y="171.23486">60</text>
     </g>
    </g>
    <g id="ytick_4">
     <g id="line2d_11">
      <g>
       <use style="stroke:#000000;stroke-width:0.8;" x="54" xlink:href="#m205d742921" y="136.115914"/>
      </g>
     </g>
     <g id="text_12">
      <text style="font-family:DejaVu Sans;font-size:10px;font-style:normal;font-weight:normal;text-anchor:end;" transform="rotate(-0, 47, 139.915133)" x="47" y="139.915133">65</text>
     </g>
    </g>
    <g id="ytick_5">
     <g id="line2d_12">
      <g>
       <use style="stroke:#000000;stroke-width:0.8;" x="54" xlink:href="#m205d742921" y="104.796187"/>
      </g>
     </g>
     <g id="text_13">
      <text style="font-family:DejaVu Sans;font-size:10px;font-style:normal;font-weight:normal;text-anchor:end;" transform="rotate(-0, 47, 108.595406)" x="47" y="108.595406">70</text>
     </g>
    </g>
    <g id="ytick_6">
     <g id="line2d_13">
      <g>
       <use style="stroke:#000000;stroke-width:0.8;" x="54" xlink:href="#m205d742921" y="73.47646"/>
      </g>
     </g>
     <g id="text_14">
      <text style="font-family:DejaVu Sans;font-size:10px;font-style:normal;font-weight:normal;text-anchor:end;" transform="rotate(-0, 47, 77.275678)" x="47" y="77.275678">75</text>
     </g>
    </g>
    <g id="ytick_7">
     <g id="line2d_14">
      <g>
       <use style="stroke:#000000;stroke-width:0.8;" x="54" xlink:href="#m205d742921" y="42.156733"/>
      </g>
     </g>
     <g id="text_15">
      <text style="font-family:DejaVu Sans;font-size:10px;font-style:normal;font-weight:normal;text-anchor:end;" transform="rotate(-0, 47, 45.955951)" x="47" y="45.955951">80</text>
     </g>
    </g>
    <g id="text_16">
     <text style="font-family:DejaVu Sans;font-size:10px;font-style:normal;font-weight:normal;text-anchor:middle;" transform="rotate(-90, 28.195312, 143.28)" x="28.195312" y="143.28">weight (\%)</text>
    </g>
   </g>
   <g id="line2d_15">
    <path clip-path="url(#pc73dd65194)" d="M 69.218182 44.443636 
L 88.399485 44.799491 
L 95.808136 45.296786 
L 123.717439 47.684226 
L 129.400788 48.224679 
L 134.88116 48.957749 
L 139.245161 49.778701 
L 142.594277 50.627716 
L 145.53744 51.606771 
L 148.277626 52.763158 
L 150.307393 53.863984 
L 152.438649 55.26241 
L 154.366928 56.767135 
L 156.498184 58.72775 
L 158.730928 61.067083 
L 160.963673 63.705206 
L 163.094929 66.563444 
L 165.226184 69.796392 
L 167.864882 74.247301 
L 172.939301 82.938462 
L 174.664603 85.409088 
L 176.085441 87.078993 
L 177.303301 88.151882 
L 178.419673 88.839913 
L 179.739022 89.369593 
L 182.37772 90.096837 
L 185.828325 90.815436 
L 189.786371 91.433249 
L 192.831022 91.784845 
L 201.356046 92.74279 
L 209.881069 93.495904 
L 218.710558 94.050451 
L 228.453442 94.462556 
L 242.255861 94.837077 
L 261.843117 95.101479 
L 285.083955 95.134615 
L 373.581818 94.821104 
L 373.581818 94.821104 
" style="fill:none;stroke:#40b5c4;stroke-dasharray:5.55,2.4;stroke-dashoffset:0;stroke-width:1.5;"/>
    <defs>
     <path d="M 0 3 
C 0.795609 3 1.55874 2.683901 2.12132 2.12132 
C 2.683901 1.55874 3 0.795609 3 0 
C 3 -0.795609 2.683901 -1.55874 2.12132 -2.12132 
C 1.55874 -2.683901 0.795609 -3 0 -3 
C -0.795609 -3 -1.55874 -2.683901 -2.12132 -2.12132 
C -2.683901 -1.55874 -3 -0.795609 -3 0 
C -3 0.795609 -2.683901 1.55874 -2.12132 2.12132 
C -1.55874 2.683901 -0.795609 3 0 3 
z
" id="ma8662c171a" style="stroke:#40b5c4;"/>
    </defs>
    <g clip-path="url(#pc73dd65194)">
     <use style="fill:#40b5c4;stroke:#40b5c4;" x="69.218182" xlink:href="#ma8662c171a" y="44.443636"/>
     <use style="fill:#40b5c4;stroke:#40b5c4;" x="77.337252" xlink:href="#ma8662c171a" y="44.546302"/>
     <use style="fill:#40b5c4;stroke:#40b5c4;" x="85.456322" xlink:href="#ma8662c171a" y="44.692315"/>
     <use style="fill:#40b5c4;stroke:#40b5c4;" x="93.575392" xlink:href="#ma8662c171a" y="45.118952"/>
     <use style="fill:#40b5c4;stroke:#40b5c4;" x="101.694462" xlink:href="#ma8662c171a" y="45.875762"/>
     <use style="fill:#40b5c4;stroke:#40b5c4;" x="109.813532" xlink:href="#ma8662c171a" y="46.60263"/>
     <use style="fill:#40b5c4;stroke:#40b5c4;" x="117.932602" xlink:href="#ma8662c171a" y="47.228148"/>
     <use style="fill:#40b5c4;stroke:#40b5c4;" x="126.051672" xlink:href="#ma8662c171a" y="47.882981"/>
     <use style="fill:#40b5c4;stroke:#40b5c4;" x="134.170742" xlink:href="#ma8662c171a" y="48.846626"/>
     <use style="fill:#40b5c4;stroke:#40b5c4;" x="142.289812" xlink:href="#ma8662c171a" y="50.539771"/>
     <use style="fill:#40b5c4;stroke:#40b5c4;" x="150.408882" xlink:href="#ma8662c171a" y="53.924682"/>
     <use style="fill:#40b5c4;stroke:#40b5c4;" x="158.527952" xlink:href="#ma8662c171a" y="60.842833"/>
     <use style="fill:#40b5c4;stroke:#40b5c4;" x="166.647022" xlink:href="#ma8662c171a" y="72.143868"/>
     <use style="fill:#40b5c4;stroke:#40b5c4;" x="174.766092" xlink:href="#ma8662c171a" y="85.540881"/>
     <use style="fill:#40b5c4;stroke:#40b5c4;" x="182.885162" xlink:href="#ma8662c171a" y="90.216541"/>
     <use style="fill:#40b5c4;stroke:#40b5c4;" x="191.004232" xlink:href="#ma8662c171a" y="91.548506"/>
     <use style="fill:#40b5c4;stroke:#40b5c4;" x="199.123302" xlink:href="#ma8662c171a" y="92.511087"/>
     <use style="fill:#40b5c4;stroke:#40b5c4;" x="207.242372" xlink:href="#ma8662c171a" y="93.286626"/>
     <use style="fill:#40b5c4;stroke:#40b5c4;" x="215.361442" xlink:href="#ma8662c171a" y="93.864412"/>
     <use style="fill:#40b5c4;stroke:#40b5c4;" x="223.480512" xlink:href="#ma8662c171a" y="94.272383"/>
     <use style="fill:#40b5c4;stroke:#40b5c4;" x="231.599582" xlink:href="#ma8662c171a" y="94.564533"/>
     <use style="fill:#40b5c4;stroke:#40b5c4;" x="239.718652" xlink:href="#ma8662c171a" y="94.782143"/>
     <use style="fill:#40b5c4;stroke:#40b5c4;" x="247.837722" xlink:href="#ma8662c171a" y="94.939681"/>
     <use style="fill:#40b5c4;stroke:#40b5c4;" x="255.956792" xlink:href="#ma8662c171a" y="95.0493"/>
     <use style="fill:#40b5c4;stroke:#40b5c4;" x="264.075862" xlink:href="#ma8662c171a" y="95.116136"/>
     <use style="fill:#40b5c4;stroke:#40b5c4;" x="272.194932" xlink:href="#ma8662c171a" y="95.141067"/>
     <use style="fill:#40b5c4;stroke:#40b5c4;" x="280.314002" xlink:href="#ma8662c171a" y="95.138749"/>
     <use style="fill:#40b5c4;stroke:#40b5c4;" x="288.433072" xlink:href="#ma8662c171a" y="95.134239"/>
     <use style="fill:#40b5c4;stroke:#40b5c4;" x="296.552142" xlink:href="#ma8662c171a" y="95.158982"/>
     <use style="fill:#40b5c4;stroke:#40b5c4;" x="304.671212" xlink:href="#ma8662c171a" y="95.168879"/>
     <use style="fill:#40b5c4;stroke:#40b5c4;" x="312.790282" xlink:href="#ma8662c171a" y="95.132297"/>
     <use style="fill:#40b5c4;stroke:#40b5c4;" x="320.909352" xlink:href="#ma8662c171a" y="95.094839"/>
     <use style="fill:#40b5c4;stroke:#40b5c4;" x="329.028422" xlink:href="#ma8662c171a" y="95.05262"/>
     <use style="fill:#40b5c4;stroke:#40b5c4;" x="337.147492" xlink:href="#ma8662c171a" y="95.004888"/>
     <use style="fill:#40b5c4;stroke:#40b5c4;" x="345.266562" xlink:href="#ma8662c171a" y="94.954151"/>
     <use style="fill:#40b5c4;stroke:#40b5c4;" x="353.385632" xlink:href="#ma8662c171a" y="94.900281"/>
     <use style="fill:#40b5c4;stroke:#40b5c4;" x="361.504702" xlink:href="#ma8662c171a" y="94.849543"/>
     <use style="fill:#40b5c4;stroke:#40b5c4;" x="369.623772" xlink:href="#ma8662c171a" y="94.821856"/>
    </g>
   </g>
   <g id="line2d_16">
    <path clip-path="url(#pc73dd65194)" d="M 69.218182 202.587251 
L 69.31967 202.632126 
L 69.421159 202.879774 
L 69.522647 202.702425 
L 69.624135 202.783382 
L 69.725624 202.399221 
L 69.827112 202.928066 
L 69.9286 202.515064 
L 70.131577 202.845198 
L 70.233066 202.415541 
L 70.334554 202.98974 
L 70.537531 202.549784 
L 70.639019 202.806154 
L 70.740507 202.430452 
L 70.841996 202.928066 
L 70.943484 202.532125 
L 71.044973 202.628016 
L 71.146461 202.889117 
L 71.247949 202.458767 
L 71.349438 203.027135 
L 71.552414 202.616881 
L 71.653903 202.763238 
L 71.755391 202.46553 
L 71.85688 202.895354 
L 72.059856 202.612938 
L 72.161345 202.760825 
L 72.262833 202.544909 
L 72.364321 202.871268 
L 72.46581 202.594013 
L 72.567298 202.663118 
L 72.668787 202.881089 
L 72.770275 202.568398 
L 72.871763 202.787062 
L 73.07474 202.496211 
L 73.176228 202.874685 
L 73.277717 202.435661 
L 73.480694 202.763501 
L 73.582182 202.504049 
L 73.68367 202.91177 
L 73.785159 202.513654 
L 73.886647 202.815329 
L 74.089624 202.279411 
L 74.191112 202.919512 
L 74.292601 202.537932 
L 74.495577 202.590716 
L 74.597066 202.381204 
L 74.698554 202.784935 
L 74.800042 202.448134 
L 74.901531 202.686655 
L 75.003019 202.623022 
L 75.104508 202.352076 
L 75.205996 202.810861 
L 75.307484 202.369734 
L 75.408973 202.418409 
L 75.510461 202.614492 
L 75.611949 202.257452 
L 75.713438 202.712676 
L 75.814926 202.263617 
L 76.017903 202.541444 
L 76.119391 202.287273 
L 76.22088 202.695783 
L 76.423856 202.267081 
L 76.525345 202.489544 
L 76.626833 202.115085 
L 76.728322 202.558266 
L 76.931298 202.040485 
L 77.032787 202.521803 
L 77.134275 202.029851 
L 77.235763 202.509186 
L 77.43874 201.997975 
L 77.540229 202.388444 
L 77.641717 201.929396 
L 77.743205 202.305959 
L 77.844694 201.917544 
L 78.04767 202.253007 
L 78.149159 201.797328 
L 78.250647 202.166196 
L 78.453624 201.858954 
L 78.555112 202.122707 
L 78.656601 201.820315 
L 78.758089 202.060055 
L 78.961066 201.622417 
L 79.062554 202.037306 
L 79.164043 201.600935 
L 79.367019 201.739216 
L 79.468508 201.502392 
L 79.569996 201.853601 
L 79.671484 201.637853 
L 79.772973 201.772358 
L 79.97595 201.359738 
L 80.077438 201.831785 
L 80.280415 201.600338 
L 80.381903 201.765596 
L 80.483391 201.399476 
L 80.58488 201.862705 
L 80.686368 201.560051 
L 80.889345 201.761892 
L 80.990833 201.561914 
L 81.092322 202.04825 
L 81.295298 201.656587 
L 81.396787 201.871379 
L 81.498275 201.649657 
L 81.599764 201.888918 
L 81.701252 201.671306 
L 81.904229 201.923877 
L 82.005717 201.717471 
L 82.107205 202.093986 
L 82.310182 201.610636 
L 82.411671 202.074009 
L 82.513159 201.633217 
L 82.614647 202.064093 
L 82.817624 201.642512 
L 82.919112 202.04285 
L 83.020601 201.686838 
L 83.122089 202.192768 
L 83.325066 201.7801 
L 83.426554 202.103591 
L 83.528043 201.836158 
L 83.629531 202.022778 
L 83.832508 201.784784 
L 83.933996 202.04242 
L 84.035485 201.644782 
L 84.136973 202.004427 
L 84.238461 201.760315 
L 84.441438 201.956685 
L 84.542926 201.611377 
L 84.644415 201.895991 
L 84.847392 201.480958 
L 84.94888 201.808726 
L 85.354833 201.468604 
L 85.456322 201.8547 
L 85.55781 201.529752 
L 85.760787 201.651569 
L 85.862275 201.243298 
L 85.963764 201.780196 
L 86.065252 201.434195 
L 86.268229 201.505928 
L 86.369717 201.201792 
L 86.471206 201.707172 
L 86.572694 201.288818 
L 86.674182 201.511591 
L 86.775671 201.421411 
L 86.877159 201.114002 
L 86.978647 201.583826 
L 87.181624 201.308149 
L 87.283113 201.387146 
L 87.384601 201.088052 
L 87.486089 201.465808 
L 87.689066 201.161935 
L 87.790554 201.449082 
L 87.892043 200.83572 
L 87.993531 201.511687 
L 88.196508 201.100788 
L 88.297996 201.457804 
L 88.399485 201.019544 
L 88.500973 201.3265 
L 88.70395 200.989938 
L 88.805438 201.335174 
L 88.906927 200.981742 
L 89.008415 201.365855 
L 89.211392 200.949819 
L 89.31288 201.296942 
L 89.414368 200.952399 
L 89.515857 201.22638 
L 89.718834 200.97357 
L 89.820322 201.247025 
L 89.92181 200.964801 
L 90.023299 201.216846 
L 90.226275 200.859758 
L 90.327764 201.119115 
L 90.429252 200.895099 
L 90.530741 201.111516 
L 90.733717 200.701119 
L 90.835206 201.171182 
L 90.936694 200.821526 
L 91.038182 201.1481 
L 91.241159 200.884609 
L 91.342648 201.034431 
L 91.444136 200.841956 
L 91.545624 201.028123 
L 91.748601 200.691107 
L 91.850089 201.034407 
L 92.053066 200.904561 
L 92.154555 201.153285 
L 92.256043 200.8275 
L 92.357531 201.210442 
L 92.45902 200.784632 
L 92.661996 201.055554 
L 92.763485 200.786114 
L 92.864973 201.314935 
L 92.966462 200.807046 
L 93.169438 201.148243 
L 93.270927 200.907931 
L 93.372415 201.361722 
L 93.473903 200.874836 
L 93.67688 201.118565 
L 93.778369 200.842124 
L 93.879857 201.249176 
L 94.082834 200.885995 
L 94.184322 201.148888 
L 94.28581 200.960667 
L 94.387299 201.3757 
L 94.590276 201.050919 
L 94.691764 201.36294 
L 94.793252 200.833593 
L 94.894741 201.399643 
L 94.996229 201.053571 
L 95.097717 201.217563 
L 95.300694 201.077299 
L 95.402183 201.283035 
L 95.605159 201.199164 
L 95.706648 201.447768 
L 95.808136 201.092233 
L 95.909624 201.420097 
L 96.112601 201.126642 
L 96.21409 201.666384 
L 96.315578 201.106212 
L 96.417066 201.593671 
L 96.620043 201.272784 
L 96.721531 201.700052 
L 96.82302 201.287671 
L 96.924508 201.634675 
L 97.127485 201.369965 
L 97.228973 201.699765 
L 97.330462 201.621031 
L 97.43195 201.761295 
L 97.634927 201.446979 
L 97.736415 201.847341 
L 97.939392 201.709705 
L 98.04088 201.792143 
L 98.142369 201.429942 
L 98.243857 201.951953 
L 98.345345 201.51097 
L 98.548322 201.735966 
L 98.649811 201.368102 
L 98.751299 201.749419 
L 98.954276 201.478114 
L 99.055764 201.589226 
L 99.157252 201.285759 
L 99.258741 201.617184 
L 99.360229 201.300646 
L 99.461718 201.338567 
L 99.664694 201.510349 
L 99.867671 201.375796 
L 100.070648 201.24098 
L 100.273625 201.310801 
L 100.375113 201.104682 
L 100.679578 201.499739 
L 100.781066 201.215603 
L 100.882555 201.328436 
L 101.085532 201.186595 
L 101.288508 201.323633 
L 101.389997 201.151254 
L 101.592973 201.376704 
L 101.79595 201.510994 
L 101.998927 201.358448 
L 102.100415 201.322773 
L 102.201904 201.446167 
L 102.303392 201.389416 
L 102.40488 201.47422 
L 102.506369 201.36717 
L 102.709346 201.564949 
L 102.810834 201.487266 
L 102.912322 201.591879 
L 103.013811 201.501986 
L 103.115299 201.632692 
L 103.318276 201.474626 
L 103.724229 201.739909 
L 103.927206 201.698857 
L 104.130183 201.704855 
L 104.231671 201.83666 
L 104.33316 201.506502 
L 104.434648 201.81372 
L 104.536136 201.667746 
L 104.637625 202.043304 
L 104.739113 201.6644 
L 104.840601 201.964881 
L 104.94209 201.754126 
L 105.043578 201.932646 
L 105.145067 201.769156 
L 105.652508 202.113603 
L 105.753997 201.949397 
L 105.855485 202.019003 
L 105.956974 201.921798 
L 106.15995 202.070616 
L 106.362927 202.013722 
L 106.464415 202.116184 
L 106.565904 202.390189 
L 106.768881 202.199793 
L 106.971857 202.143377 
L 107.174834 202.271836 
L 107.377811 202.172624 
L 107.479299 202.244883 
L 107.580788 202.562233 
L 107.783764 202.362685 
L 108.088229 202.288874 
L 108.189718 202.403665 
L 108.392695 202.190378 
L 108.595671 202.497191 
L 109.103113 202.411527 
L 109.204602 202.481707 
L 109.407578 202.336855 
L 109.610555 202.561922 
L 109.712043 202.468541 
L 109.813532 202.553559 
L 109.91502 202.403857 
L 110.117997 202.446055 
L 112.553718 202.714349 
L 112.655206 202.639151 
L 112.959671 202.818125 
L 113.264137 202.909643 
L 113.365625 202.744982 
L 113.67009 202.943503 
L 113.974555 202.790526 
L 114.27902 203.034973 
L 114.380509 202.87858 
L 114.786462 203.053229 
L 114.887951 202.91686 
L 115.192416 203.196838 
L 115.598369 203.076407 
L 115.801346 203.17182 
L 116.004323 202.973873 
L 116.308788 202.99201 
L 116.714741 202.850168 
L 116.81623 203.043695 
L 116.917718 202.70914 
L 117.019206 202.821972 
L 117.120695 202.701159 
L 117.222183 202.941663 
L 117.323672 202.759869 
L 117.42516 202.814708 
L 117.526648 202.622688 
L 117.831113 202.761518 
L 118.03409 202.803239 
L 118.135579 202.697933 
L 118.237067 202.900491 
L 118.338555 202.7738 
L 118.440044 202.857743 
L 118.541532 202.702999 
L 118.845997 202.827612 
L 119.048974 202.814135 
L 119.251951 202.894374 
L 119.454927 202.871937 
L 119.759393 202.841136 
L 120.368323 203.011962 
L 120.469811 202.915904 
L 120.672788 202.949357 
L 120.875765 203.028665 
L 120.977253 202.780825 
L 121.078741 203.187782 
L 121.281718 202.921925 
L 121.383207 203.135643 
L 121.484695 202.917218 
L 121.586183 203.230697 
L 121.687672 202.92085 
L 121.890648 203.225393 
L 121.992137 202.827874 
L 122.093625 203.282765 
L 122.296602 203.041018 
L 122.39809 203.27464 
L 122.499579 203.014447 
L 122.601067 203.354091 
L 122.702555 203.050983 
L 122.804044 203.105153 
L 122.905532 203.333327 
L 123.007021 202.993802 
L 123.108509 203.383195 
L 123.311486 203.075881 
L 123.412974 203.465084 
L 123.514462 203.12305 
L 123.615951 203.416457 
L 123.717439 203.132751 
L 123.818928 203.210219 
L 123.920416 203.460759 
L 124.021904 203.148857 
L 124.123393 203.490269 
L 124.326369 203.220924 
L 124.427858 203.508883 
L 124.529346 203.331391 
L 124.630835 203.53297 
L 124.732323 203.267066 
L 124.833811 203.338297 
L 124.9353 203.585133 
L 125.036788 203.200494 
L 125.138276 203.713497 
L 125.341253 203.400639 
L 125.442742 203.702362 
L 125.54423 203.424653 
L 125.645718 203.710247 
L 125.747207 203.44052 
L 125.950183 203.805015 
L 126.051672 203.410316 
L 126.15316 203.889149 
L 126.356137 203.598872 
L 126.457625 203.900141 
L 126.559114 203.707643 
L 126.660602 203.846783 
L 126.863579 203.688527 
L 126.965067 204.058709 
L 127.066556 203.705779 
L 127.168044 204.085184 
L 127.371021 203.786305 
L 127.472509 204.171446 
L 127.573997 203.947931 
L 127.675486 204.088697 
L 127.878463 203.928409 
L 127.979951 204.244827 
L 128.081439 204.003439 
L 128.182928 204.300073 
L 128.385904 204.133166 
L 128.487393 204.38619 
L 128.69037 204.306668 
L 128.791858 204.300909 
L 128.893346 204.118255 
L 128.994835 204.477135 
L 129.2993 204.312594 
L 129.603765 204.515056 
L 129.705253 204.36435 
L 130.111207 204.640338 
L 130.314184 204.517111 
L 130.51716 204.67188 
L 131.633532 204.842921 
L 131.836509 204.758452 
L 131.937998 204.77666 
L 132.039486 204.99377 
L 132.242463 204.84813 
L 132.546928 204.849253 
L 132.648416 204.926553 
L 132.749905 204.782227 
L 133.155858 204.932885 
L 133.561812 204.876445 
L 133.6633 204.990042 
L 133.764788 204.827843 
L 134.069253 205.054894 
L 134.475207 204.950305 
L 135.287114 205.054511 
L 135.490091 205.044953 
L 135.997533 205.056064 
L 136.099021 205.235158 
L 136.301998 205.105312 
L 136.606463 205.106196 
L 136.707951 205.1937 
L 136.80944 205.066363 
L 137.113905 205.277452 
L 137.316881 205.191287 
L 137.621347 205.146077 
L 137.722835 205.33167 
L 137.824323 205.134894 
L 138.230277 205.316664 
L 138.63623 205.285529 
L 138.737719 205.408612 
L 138.839207 205.239316 
L 139.245161 205.436498 
L 139.651114 205.415948 
L 139.752602 205.545483 
L 139.854091 205.417621 
L 140.158556 205.684696 
L 140.260044 205.560704 
L 140.463021 205.554826 
L 141.071951 205.715281 
L 141.17344 205.824338 
L 141.274928 205.725652 
L 142.086835 206.330794 
L 142.188323 206.607618 
L 142.289812 206.514451 
L 142.594277 206.694572 
L 142.695765 206.640283 
L 142.797254 206.785804 
L 142.898742 206.714955 
L 143.304696 206.916677 
L 143.812137 207.150227 
L 143.913626 207.049748 
L 144.218091 207.320957 
L 144.421068 207.315461 
L 144.725533 207.405498 
L 144.827021 207.504328 
L 144.92851 207.416776 
L 145.232975 207.722681 
L 145.435951 207.64863 
L 145.53744 207.78476 
L 145.638928 207.672908 
L 145.841905 207.872121 
L 145.943393 207.802371 
L 146.349347 208.060748 
L 146.653812 208.069111 
L 146.856789 208.276067 
L 146.958277 208.176161 
L 147.262742 208.448422 
L 147.364231 208.3905 
L 147.465719 208.507944 
L 147.567207 208.406223 
L 147.871672 208.697432 
L 148.074649 208.662641 
L 148.277626 208.909835 
L 148.480603 208.894638 
L 150.205905 209.895673 
L 150.307393 210.062461 
L 150.408882 210.011588 
L 150.713347 210.160765 
L 151.220789 210.435726 
L 151.423765 210.602441 
L 151.728231 210.732789 
L 152.540138 211.229161 
L 152.641626 211.222136 
L 152.946091 211.503811 
L 153.047579 211.441516 
L 154.163952 212.161976 
L 154.26544 212.222048 
L 154.468417 212.421452 
L 154.772882 212.561573 
L 158.02051 214.86563 
L 158.121998 215.102788 
L 158.223487 215.007471 
L 158.832417 215.501143 
L 158.933905 215.737226 
L 159.136882 215.7367 
L 159.847301 216.29324 
L 159.948789 216.570494 
L 160.050277 216.508773 
L 160.557719 217.035564 
L 160.659208 216.959339 
L 160.963673 217.431863 
L 161.065161 217.43215 
L 161.166649 217.60527 
L 161.268138 217.538101 
L 161.572603 218.035596 
L 161.674091 217.886419 
L 161.978556 218.436531 
L 162.283022 218.582745 
L 163.297905 219.650376 
L 163.60237 220.281683 
L 163.703859 220.284551 
L 163.906836 220.751532 
L 164.008324 221.112586 
L 164.109812 221.066636 
L 164.617254 222.022988 
L 164.718743 221.952402 
L 165.023208 222.785957 
L 165.124696 222.765192 
L 166.444045 224.630583 
L 166.951487 225.401175 
L 167.154464 225.782134 
L 167.661905 226.478173 
L 168.270836 227.083482 
L 168.372324 227.061905 
L 168.676789 227.446544 
L 168.778278 227.369602 
L 169.082743 227.836511 
L 169.184231 227.74442 
L 169.488696 227.920741 
L 169.590185 227.961626 
L 169.691673 228.181436 
L 169.793161 227.987289 
L 170.097626 228.499814 
L 170.199115 228.307841 
L 170.402092 228.378021 
L 170.50358 228.358164 
L 170.706557 228.585693 
L 170.808045 228.504497 
L 171.213999 228.718956 
L 171.619952 228.765933 
L 171.822929 228.877141 
L 172.127394 229.380514 
L 172.228882 229.219294 
L 172.634836 229.472462 
L 173.040789 229.743838 
L 173.142278 230.110819 
L 173.243766 230.036409 
L 173.954185 230.662675 
L 174.360138 231.157255 
L 174.563115 231.332262 
L 175.172045 232.218482 
L 175.273534 232.181636 
L 175.679487 232.917556 
L 175.983952 233.442411 
L 176.085441 233.601671 
L 176.288417 234.116132 
L 176.998836 235.008349 
L 177.100324 235.129378 
L 177.201813 235.45447 
L 177.303301 235.410599 
L 177.607766 235.889002 
L 177.709255 235.942861 
L 177.912231 236.270199 
L 178.216696 236.696105 
L 178.419673 236.662843 
L 178.825627 236.884685 
L 178.927115 236.849033 
L 179.23158 237.05097 
L 181.870278 237.948994 
L 181.971766 237.90388 
L 182.276231 238.127801 
L 182.783673 238.146009 
L 183.088138 238.30981 
L 183.189627 238.314421 
L 183.392604 238.433013 
L 184.103022 238.559824 
L 184.204511 238.59428 
L 184.305999 238.756814 
L 184.508976 238.672513 
L 185.219394 238.871343 
L 185.320883 238.920734 
L 185.523859 238.873327 
L 186.031301 238.974833 
L 186.335766 239.011679 
L 186.640232 239.031846 
L 187.553627 239.169124 
L 187.756604 239.15137 
L 187.95958 239.155312 
L 188.061069 239.08561 
L 188.264046 239.14616 
L 188.467022 239.152397 
L 188.568511 239.026757 
L 188.669999 239.174978 
L 188.974464 239.050126 
L 189.278929 239.109338 
L 189.380418 239.010771 
L 189.481906 239.116435 
L 189.786371 239.000281 
L 189.989348 239.034523 
L 190.090836 239.069362 
L 190.293813 238.978035 
L 190.49679 239.000209 
L 190.699767 238.936529 
L 191.10572 238.937676 
L 191.410185 238.83617 
L 191.816139 238.869647 
L 191.917627 238.928309 
L 192.019115 238.853996 
L 192.222092 238.886995 
L 192.729534 238.933088 
L 193.135488 238.9842 
L 193.338464 238.966613 
L 193.947395 239.039039 
L 194.25186 239.006996 
L 194.962278 239.081357 
L 195.368232 239.056793 
L 195.875674 239.07254 
L 196.07865 239.111441 
L 196.687581 239.104583 
L 196.890557 239.10855 
L 196.992046 239.199996 
L 197.093534 239.097223 
L 197.296511 239.096793 
L 198.209906 239.119804 
L 198.412883 239.099183 
L 200.239674 239.029338 
L 200.544139 239.04843 
L 205.212604 239.466402 
L 205.314093 239.418349 
L 205.517069 239.504252 
L 206.430465 239.552591 
L 208.663209 239.723369 
L 208.866186 239.689821 
L 209.678093 239.78889 
L 209.881069 239.684659 
L 210.287023 239.777444 
L 210.794465 239.70822 
L 210.997442 239.803944 
L 211.200418 239.83257 
L 212.215302 239.816703 
L 214.346558 239.926979 
L 214.448046 239.807552 
L 214.549535 239.939094 
L 214.651023 239.857062 
L 214.854 239.913001 
L 214.955488 239.934936 
L 215.056977 239.823514 
L 215.259953 239.911185 
L 217.391209 239.931065 
L 217.492698 239.884303 
L 217.695674 239.991663 
L 218.000139 239.930301 
L 218.101628 239.997063 
L 218.304605 239.935892 
L 218.507581 239.969297 
L 218.913535 239.917063 
L 219.218 240.06072 
L 219.420977 239.92447 
L 219.82693 239.920862 
L 219.928419 239.871375 
L 220.131395 239.990349 
L 220.334372 239.903825 
L 221.755209 239.838448 
L 221.958186 239.787886 
L 222.668605 239.786166 
L 223.074558 239.775915 
L 223.277535 239.685735 
L 223.379023 239.634623 
L 223.480512 239.807432 
L 223.683488 239.698996 
L 224.393907 239.647765 
L 224.495395 239.723656 
L 224.799861 239.559306 
L 225.611768 239.549628 
L 226.72814 239.574121 
L 226.829628 239.663536 
L 227.134093 239.525279 
L 227.33707 239.559354 
L 227.438558 239.629199 
L 227.540047 239.423009 
L 227.844512 239.665687 
L 227.946 239.47412 
L 228.148977 239.54148 
L 228.757907 239.527884 
L 228.960884 239.529342 
L 229.265349 239.550775 
L 229.671303 239.529915 
L 229.874279 239.552878 
L 230.686186 239.498517 
L 230.787675 239.620047 
L 230.990651 239.443295 
L 231.396605 239.52657 
L 231.599582 239.487955 
L 231.70107 239.456772 
L 231.802558 239.570489 
L 232.107024 239.448409 
L 232.411489 239.46277 
L 232.614465 239.507764 
L 233.527861 239.436557 
L 233.832326 239.561026 
L 234.035303 239.457991 
L 234.948698 239.533093 
L 235.151675 239.466545 
L 235.354652 239.574694 
L 235.45614 239.35928 
L 235.659117 239.531922 
L 235.760605 239.605615 
L 236.06507 239.476749 
L 236.674 239.556008 
L 236.775489 239.631827 
L 236.978466 239.511826 
L 238.297814 239.625089 
L 238.399303 239.533428 
L 238.703768 239.680191 
L 238.906745 239.641601 
L 239.21121 239.649414 
L 240.530559 239.661218 
L 240.733535 239.804995 
L 241.139489 239.751207 
L 241.240977 239.847576 
L 241.342466 239.703775 
L 241.646931 239.901268 
L 241.849908 239.832785 
L 242.154373 239.840575 
L 242.255861 239.877899 
L 242.357349 239.785688 
L 242.661815 239.88447 
L 242.864791 239.93723 
L 243.067768 239.901483 
L 244.18414 240.027386 
L 244.285629 239.91128 
L 244.590094 240.078115 
L 244.894559 240.012858 
L 245.199024 240.108629 
L 245.300512 239.951543 
L 245.604977 240.176611 
L 245.909443 240.063993 
L 249.461536 240.233672 
L 249.563024 240.364091 
L 249.766001 240.257973 
L 250.780885 240.275943 
L 251.795768 240.293338 
L 251.998745 240.321271 
L 252.100233 240.369539 
L 252.30321 240.317854 
L 253.013629 240.382204 
L 253.216606 240.368464 
L 254.332978 240.672099 
L 254.535954 240.829758 
L 254.84042 240.805361 
L 255.043396 240.958863 
L 255.246373 240.878934 
L 255.550838 241.054659 
L 255.753815 241.043452 
L 255.855303 241.031767 
L 256.05828 241.141995 
L 256.261257 241.185484 
L 256.464234 241.316978 
L 256.66721 241.248089 
L 256.971675 241.400038 
L 257.276141 241.34343 
L 257.377629 241.671151 
L 257.580606 241.55201 
L 258.088048 241.647208 
L 258.494001 241.81163 
L 258.696978 241.824414 
L 258.899955 241.927999 
L 259.305908 241.959899 
L 259.508885 242.047785 
L 259.81335 242.04021 
L 259.914838 242.096913 
L 260.016327 241.844199 
L 260.320792 242.116364 
L 260.726745 241.901021 
L 260.929722 241.992253 
L 261.132699 242.0161 
L 261.538652 241.976721 
L 261.741629 241.913447 
L 261.843117 242.068143 
L 262.046094 241.84721 
L 262.249071 242.044463 
L 262.452048 241.995718 
L 262.858001 241.857174 
L 263.060978 241.953256 
L 263.56842 241.918298 
L 263.872885 241.916027 
L 264.075862 241.799635 
L 264.17735 242.00377 
L 264.278838 241.839778 
L 264.380327 241.972754 
L 264.481815 241.834091 
L 264.78628 241.97199 
L 264.989257 241.805465 
L 265.192234 241.951655 
L 265.395211 241.854737 
L 265.598187 241.90279 
L 265.801164 241.793541 
L 266.105629 241.899349 
L 266.207118 241.911487 
L 266.410094 241.800925 
L 266.816048 241.805369 
L 267.019025 241.801594 
L 267.120513 241.944558 
L 267.222001 241.887951 
L 267.32349 241.702215 
L 267.627955 241.820782 
L 267.93242 241.884104 
L 268.033908 241.723433 
L 268.236885 241.851033 
L 268.338373 241.751534 
L 268.54135 241.828667 
L 268.642839 241.683098 
L 268.744327 241.893088 
L 268.947304 241.811343 
L 269.048792 241.758463 
L 269.251769 241.876983 
L 269.454746 241.696671 
L 269.657722 241.839014 
L 269.860699 241.803506 
L 269.962187 241.68814 
L 270.266653 241.80525 
L 270.368141 241.732059 
L 270.571118 241.797747 
L 270.672606 241.68967 
L 270.875583 241.805154 
L 271.07856 241.766205 
L 271.180048 241.821451 
L 271.281536 241.616551 
L 271.586001 241.847735 
L 271.68749 241.716575 
L 271.788978 241.856362 
L 271.991955 241.642238 
L 272.29642 241.856194 
L 272.397908 241.724437 
L 272.499397 241.807448 
L 272.600885 241.619442 
L 272.803862 241.736647 
L 273.108327 241.787496 
L 273.209815 241.837174 
L 273.311304 241.599083 
L 273.615769 241.743696 
L 273.717257 241.69452 
L 273.818746 241.787639 
L 273.920234 241.575834 
L 274.224699 241.804079 
L 274.326188 241.671892 
L 274.427676 241.78016 
L 274.732141 241.682047 
L 274.935118 241.713278 
L 275.036606 241.660804 
L 275.138095 241.770889 
L 275.239583 241.625535 
L 275.544048 241.698224 
L 275.645536 241.594735 
L 275.747025 241.809145 
L 275.950002 241.572942 
L 276.152978 241.824533 
L 276.254467 241.626348 
L 276.355955 241.724174 
L 276.558932 241.596336 
L 276.761909 241.661497 
L 276.863397 241.609765 
L 277.066374 241.704246 
L 277.26935 241.550959 
L 277.472327 241.674257 
L 277.979769 241.587494 
L 278.081257 241.687925 
L 278.182746 241.559537 
L 278.385723 241.633206 
L 278.588699 241.583456 
L 278.690188 241.649526 
L 278.893164 241.574543 
L 278.994653 241.674496 
L 279.19763 241.519226 
L 279.299118 241.504172 
L 279.400606 241.709383 
L 279.80656 241.456908 
L 280.009537 241.610888 
L 280.111025 241.480612 
L 280.314002 241.66004 
L 280.516978 241.51526 
L 280.719955 241.580206 
L 280.821444 241.471197 
L 280.922932 241.6344 
L 281.125909 241.411842 
L 281.328885 241.642979 
L 281.430374 241.494638 
L 281.633351 241.524746 
L 281.734839 241.419225 
L 281.937816 241.502452 
L 282.140792 241.549119 
L 282.648234 241.491102 
L 282.749723 241.389094 
L 282.851211 241.548187 
L 282.952699 241.401017 
L 283.257165 241.625583 
L 283.460141 241.420277 
L 284.17056 241.451842 
L 284.373537 241.445892 
L 284.678002 241.264242 
L 284.77949 241.473085 
L 284.982467 241.362236 
L 285.185444 241.50324 
L 285.38842 241.316548 
L 285.591397 241.363789 
L 287.92563 241.200084 
L 288.027118 241.375784 
L 288.128607 241.260204 
L 288.230095 241.326823 
L 288.433072 241.161302 
L 288.636048 241.254756 
L 288.839025 241.205866 
L 288.940514 241.389357 
L 289.244979 241.107108 
L 289.346467 241.270216 
L 289.447955 241.164241 
L 289.549444 241.261542 
L 289.752421 241.074109 
L 289.955397 241.268161 
L 290.158374 241.202856 
L 290.259862 241.19963 
L 290.361351 241.053989 
L 290.665816 241.122066 
L 290.868793 241.245317 
L 290.970281 241.057359 
L 291.173258 241.141995 
L 291.376235 241.147324 
L 291.6807 241.030047 
L 291.782188 241.225078 
L 291.883676 241.039963 
L 292.086653 241.126511 
L 292.28963 241.00792 
L 292.391118 241.105077 
L 292.594095 241.001181 
L 292.797072 241.083141 
L 292.89856 240.961563 
L 293.101537 241.036307 
L 293.203025 240.996832 
L 293.304514 241.130406 
L 293.50749 240.878122 
L 293.710467 241.120513 
L 293.811956 240.988039 
L 293.913444 241.063428 
L 294.116421 240.880774 
L 294.319397 241.032269 
L 294.522374 240.952149 
L 294.623862 241.004574 
L 294.826839 240.911766 
L 294.928328 240.988971 
L 295.029816 240.896664 
L 295.232793 240.929592 
L 295.334281 240.739937 
L 295.638746 240.972579 
L 296.0447 240.829997 
L 296.146188 240.912698 
L 296.349165 240.867369 
L 296.755118 240.863594 
L 296.856607 240.666459 
L 297.059583 240.859364 
L 297.161072 240.739913 
L 297.364049 240.797787 
L 297.567025 240.780152 
L 297.87149 240.800535 
L 298.175956 240.709829 
L 298.480421 240.830093 
L 298.683397 240.59358 
L 298.987863 240.696209 
L 299.292328 240.537498 
L 299.495304 240.719124 
L 299.698281 240.647104 
L 300.205723 240.60677 
L 300.307211 240.71186 
L 300.611677 240.528657 
L 300.916142 240.612313 
L 301.119118 240.373387 
L 301.220607 240.612074 
L 301.829537 240.413315 
L 302.134002 240.56481 
L 302.641444 240.414653 
L 302.742932 240.524786 
L 302.945909 240.302681 
L 303.148886 240.43365 
L 303.250374 240.344784 
L 303.351863 240.463662 
L 303.554839 240.31654 
L 303.656328 240.374223 
L 303.859305 240.26562 
L 304.062281 240.377305 
L 304.265258 240.318476 
L 304.7727 240.178212 
L 304.975677 240.343542 
L 305.280142 240.107148 
L 305.483119 240.238929 
L 305.686095 240.200984 
L 306.092049 240.193744 
L 306.599491 240.081222 
L 306.700979 240.196324 
L 306.802467 240.102918 
L 306.903956 240.171688 
L 307.106933 239.99054 
L 307.309909 240.192644 
L 307.411398 240.045905 
L 307.614374 240.052834 
L 307.715863 239.945331 
L 307.817351 240.075726 
L 308.020328 239.982248 
L 308.121816 240.092237 
L 308.426281 239.968007 
L 308.730747 239.992858 
L 308.832235 239.806572 
L 309.1367 240.011568 
L 309.441165 239.811494 
L 309.644142 239.94146 
L 309.74563 239.841984 
L 309.847119 239.963467 
L 310.151584 239.908508 
L 310.253072 239.947792 
L 310.354561 239.826142 
L 310.456049 239.951567 
L 310.659026 239.705902 
L 310.760514 239.89042 
L 310.963491 239.887361 
L 311.064979 239.961077 
L 311.267956 239.715173 
L 311.470933 239.852618 
L 312.688793 239.783991 
L 312.89177 239.845449 
L 313.094747 239.72595 
L 313.399212 239.881244 
L 313.5007 239.654432 
L 313.805165 239.796249 
L 313.906654 239.745902 
L 314.008142 239.821483 
L 314.10963 239.615794 
L 314.312607 239.797635 
L 314.515584 239.717396 
L 314.921537 239.724373 
L 315.023026 239.652449 
L 315.124514 239.788412 
L 315.428979 239.662604 
L 315.631956 239.84122 
L 315.834933 239.547358 
L 316.139398 239.695078 
L 316.443863 239.492878 
L 316.545351 239.7411 
L 316.748328 239.670442 
L 316.849817 239.703393 
L 316.951305 239.545112 
L 317.154282 239.591851 
L 317.458747 239.716177 
L 317.560235 239.487621 
L 317.661724 239.644014 
L 317.763212 239.533284 
L 317.966189 239.688435 
L 318.169165 239.45725 
L 318.372142 239.730275 
L 318.473631 239.522293 
L 318.575119 239.698757 
L 318.778096 239.474168 
L 318.981072 239.568768 
L 319.387026 239.559115 
L 319.792979 239.523368 
L 319.995956 239.423343 
L 320.097445 239.570226 
L 320.198933 239.517036 
L 320.300421 239.643082 
L 320.503398 239.440978 
L 320.807863 239.52019 
L 320.909352 239.492424 
L 321.01084 239.336724 
L 321.213817 239.585399 
L 321.416793 239.343988 
L 321.61977 239.527334 
L 321.721259 239.426067 
L 321.822747 239.483583 
L 321.924235 239.346807 
L 322.127212 239.403916 
L 322.431677 239.525566 
L 322.533166 239.264967 
L 322.736142 239.454908 
L 322.837631 239.370105 
L 322.939119 239.514407 
L 323.040607 239.244202 
L 323.345073 239.51142 
L 323.649538 239.338324 
L 323.954003 239.300307 
L 324.055491 239.452997 
L 324.15698 239.285803 
L 324.359956 239.380762 
L 324.76591 239.25376 
L 324.968887 239.420189 
L 325.070375 239.259853 
L 325.171863 239.40848 
L 325.273352 239.217368 
L 325.37484 239.357225 
L 325.476328 239.259208 
L 325.780794 239.336413 
L 325.98377 239.237009 
L 326.085259 239.326162 
L 326.186747 239.242458 
L 326.288235 239.329842 
L 326.389724 239.118562 
L 326.592701 239.445972 
L 326.795677 239.154309 
L 326.897166 239.318253 
L 327.100142 239.215695 
L 327.201631 239.30425 
L 327.404608 239.163819 
L 327.607584 239.342673 
L 327.709073 239.090294 
L 327.810561 239.141453 
L 327.912049 239.417656 
L 328.013538 239.097104 
L 328.216515 239.274214 
L 328.318003 239.103317 
L 328.52098 239.141955 
L 328.622468 239.098944 
L 328.825445 239.399496 
L 329.028422 239.130963 
L 329.231398 239.174189 
L 329.332887 239.04886 
L 329.535863 239.201215 
L 329.637352 239.021858 
L 329.73884 239.322602 
L 329.941817 238.969003 
L 330.043305 239.198562 
L 330.34777 239.071966 
L 330.449259 239.291395 
L 330.550747 238.976338 
L 330.753724 239.139135 
L 330.956701 239.065682 
L 331.159677 239.158466 
L 331.261166 238.920233 
L 331.464143 239.137463 
L 331.565631 238.975 
L 331.768608 239.153831 
L 331.870096 238.913327 
L 332.073073 239.201477 
L 332.174561 238.886995 
L 332.377538 239.044845 
L 332.580515 239.064965 
L 332.682003 239.099876 
L 332.88498 238.872586 
L 332.986468 239.134547 
L 333.189445 238.823243 
L 333.392422 239.173377 
L 333.49391 238.866373 
L 333.696887 239.067378 
L 333.899864 238.907998 
L 334.204329 238.974761 
L 334.305817 239.13849 
L 334.508794 238.763601 
L 334.610282 239.045084 
L 334.914747 238.905561 
L 335.016236 238.98678 
L 335.117724 238.804915 
L 335.320701 239.043914 
L 335.422189 238.758487 
L 335.625166 238.948214 
L 335.828143 238.822335 
L 335.929631 238.97586 
L 336.132608 238.815668 
L 336.234096 238.950866 
L 336.437073 238.683743 
L 336.64005 238.918488 
L 336.741538 238.714305 
L 336.944515 238.963268 
L 337.147492 238.689406 
L 337.24898 238.851439 
L 337.350468 238.781331 
L 337.553445 238.860137 
L 337.756422 238.668092 
L 337.959399 238.861666 
L 338.060887 238.603313 
L 338.263864 238.84838 
L 338.46684 238.741044 
L 338.568329 238.917007 
L 338.771306 238.675332 
L 338.872794 238.813374 
L 338.974282 238.591485 
L 339.177259 238.825871 
L 339.278747 238.656264 
L 339.481724 238.82329 
L 339.684701 238.575642 
L 339.786189 238.72372 
L 339.989166 238.585821 
L 340.192143 238.747113 
L 340.293631 238.579752 
L 340.496608 238.779467 
L 340.699585 238.480086 
L 340.801073 238.701139 
L 340.902561 238.583336 
L 341.105538 238.721736 
L 341.308515 238.43717 
L 341.511492 238.628092 
L 341.61298 238.452774 
L 342.120422 238.679992 
L 342.323399 238.442212 
L 342.424887 238.591795 
L 342.627864 238.413753 
L 342.830841 238.68317 
L 342.932329 238.39533 
L 343.135306 238.599465 
L 343.338282 238.396573 
L 343.439771 238.507015 
L 343.541259 238.372247 
L 343.744236 238.618366 
L 343.947213 238.342068 
L 344.150189 238.454542 
L 344.251678 238.277766 
L 344.454655 238.491675 
L 344.556143 238.310646 
L 344.75912 238.539202 
L 344.962096 238.246177 
L 345.063585 238.481018 
L 345.266562 238.176165 
L 345.36805 238.361447 
L 345.469538 238.435378 
L 345.571027 238.292175 
L 345.774003 238.492081 
L 345.97698 238.190478 
L 346.078469 238.418652 
L 346.179957 238.192796 
L 346.484422 238.403407 
L 346.58591 238.117454 
L 346.788887 238.321327 
L 346.991864 238.154802 
L 347.093352 238.28472 
L 347.194841 238.115089 
L 347.397817 238.400563 
L 347.600794 238.060417 
L 347.702283 238.31877 
L 347.905259 238.018242 
L 348.108236 238.26601 
L 348.209724 238.083571 
L 348.412701 238.35901 
L 348.615678 238.025028 
L 348.717166 238.220681 
L 349.021631 238.137646 
L 349.12312 238.245843 
L 349.224608 238.015303 
L 349.427585 238.25779 
L 349.630562 237.941515 
L 349.73205 238.18221 
L 349.935027 237.993415 
L 350.036515 238.21724 
L 350.239492 237.935589 
L 350.442469 238.176953 
L 350.645445 237.917548 
L 350.746934 238.058171 
L 350.848422 237.986055 
L 351.051399 238.073249 
L 351.152887 238.060799 
L 351.254376 237.812745 
L 351.457352 238.091361 
L 351.558841 237.787511 
L 351.761818 238.049784 
L 351.964794 237.956736 
L 352.066283 238.024335 
L 352.269259 237.813008 
L 352.472236 237.990715 
L 352.675213 237.851741 
L 352.776701 238.022209 
L 352.979678 237.884693 
L 353.081166 238.041516 
L 353.284143 237.822422 
L 353.48712 237.917811 
L 353.588608 237.728945 
L 353.791585 237.919484 
L 353.994562 237.813151 
L 354.09605 237.99958 
L 354.299027 237.708538 
L 354.502004 237.906533 
L 354.603492 237.687558 
L 354.806469 237.817476 
L 354.907957 237.733079 
L 355.110934 237.890881 
L 355.313911 237.599338 
L 355.415399 237.963499 
L 355.618376 237.628777 
L 355.719864 237.752911 
L 356.328794 237.903833 
L 356.531771 237.632289 
L 356.63326 237.796424 
L 356.937725 237.685073 
L 357.039213 237.739052 
L 357.140701 237.590019 
L 357.343678 237.845792 
L 357.546655 237.562109 
L 357.749632 237.738574 
L 357.85112 237.487318 
L 358.054097 237.713126 
L 358.155585 237.581512 
L 358.358562 237.809113 
L 358.561539 237.481344 
L 358.663027 237.755253 
L 358.866004 237.459695 
L 359.068981 237.597976 
L 359.271957 237.613197 
L 359.373446 237.826986 
L 359.576422 237.433339 
L 359.677911 237.7018 
L 359.880888 237.581823 
L 360.185353 237.528919 
L 360.388329 237.603042 
L 360.489818 237.564403 
L 360.591306 237.406672 
L 360.794283 237.61671 
L 360.895771 237.493101 
L 360.99726 237.607367 
L 361.200236 237.543519 
L 361.504702 237.51279 
L 361.707678 237.471213 
L 362.012143 237.58297 
L 362.113632 237.418978 
L 362.316609 237.467772 
L 362.519585 237.515729 
L 362.621074 237.340316 
L 362.925539 237.577163 
L 363.128516 237.385453 
L 363.230004 237.489468 
L 363.331492 237.425382 
L 363.432981 237.558597 
L 363.534469 237.373864 
L 363.940423 237.536016 
L 364.143399 237.378787 
L 364.447864 237.552026 
L 364.650841 237.38856 
L 364.75233 237.515753 
L 365.056795 237.274365 
L 365.259771 237.607391 
L 365.36126 237.396803 
L 365.462748 237.477139 
L 365.564237 237.288129 
L 365.767213 237.421989 
L 365.868702 237.369802 
L 365.97019 237.525741 
L 366.071678 237.261534 
L 366.173167 237.422395 
L 366.274655 237.342705 
L 366.376144 237.457951 
L 366.477632 237.330614 
L 366.680609 237.433936 
L 367.289539 237.367174 
L 367.391027 237.472288 
L 367.594004 237.373482 
L 367.796981 237.421989 
L 368.101446 237.330781 
L 368.405911 237.432407 
L 368.608888 237.339575 
L 368.710376 237.332597 
L 368.811865 237.491882 
L 369.014841 237.132954 
L 369.11633 237.476446 
L 369.319306 237.379264 
L 369.420795 237.372861 
L 369.522283 237.249825 
L 369.623772 237.429564 
L 369.72526 237.266384 
L 369.928237 237.358022 
L 370.029725 237.221772 
L 370.232702 237.42531 
L 370.33419 237.272645 
L 370.537167 237.326098 
L 370.740144 237.421272 
L 370.841632 237.239192 
L 371.044609 237.326289 
L 371.146097 237.292502 
L 371.247586 237.490974 
L 371.349074 237.218953 
L 371.552051 237.34151 
L 371.653539 237.211234 
L 371.755027 237.51819 
L 371.958004 237.234628 
L 372.059493 237.426529 
L 372.160981 237.36022 
L 372.262469 237.438883 
L 372.363958 237.140171 
L 372.566934 237.459074 
L 372.668423 237.246671 
L 372.769911 237.407437 
L 372.8714 237.205978 
L 373.175865 237.340841 
L 373.48033 237.256539 
L 373.581818 237.441893 
L 373.581818 237.441893 
" style="fill:none;stroke:#081d58;stroke-dasharray:5.55,2.4;stroke-dashoffset:0;stroke-width:1.5;"/>
    <defs>
     <path d="M -0 4.242641 
L 4.242641 0 
L 0 -4.242641 
L -4.242641 -0 
z
" id="m89b1b73ef2" style="stroke:#081d58;stroke-linejoin:miter;"/>
    </defs>
    <g clip-path="url(#pc73dd65194)">
     <use style="fill:#081d58;stroke:#081d58;stroke-linejoin:miter;" x="69.218182" xlink:href="#m89b1b73ef2" y="202.587251"/>
     <use style="fill:#081d58;stroke:#081d58;stroke-linejoin:miter;" x="77.337252" xlink:href="#m89b1b73ef2" y="202.277523"/>
     <use style="fill:#081d58;stroke:#081d58;stroke-linejoin:miter;" x="85.456322" xlink:href="#m89b1b73ef2" y="201.8547"/>
     <use style="fill:#081d58;stroke:#081d58;stroke-linejoin:miter;" x="93.575392" xlink:href="#m89b1b73ef2" y="201.091421"/>
     <use style="fill:#081d58;stroke:#081d58;stroke-linejoin:miter;" x="101.694462" xlink:href="#m89b1b73ef2" y="201.406644"/>
     <use style="fill:#081d58;stroke:#081d58;stroke-linejoin:miter;" x="109.813532" xlink:href="#m89b1b73ef2" y="202.553559"/>
     <use style="fill:#081d58;stroke:#081d58;stroke-linejoin:miter;" x="117.932602" xlink:href="#m89b1b73ef2" y="202.779798"/>
     <use style="fill:#081d58;stroke:#081d58;stroke-linejoin:miter;" x="126.051672" xlink:href="#m89b1b73ef2" y="203.410316"/>
     <use style="fill:#081d58;stroke:#081d58;stroke-linejoin:miter;" x="134.170742" xlink:href="#m89b1b73ef2" y="205.001034"/>
     <use style="fill:#081d58;stroke:#081d58;stroke-linejoin:miter;" x="142.289812" xlink:href="#m89b1b73ef2" y="206.514451"/>
     <use style="fill:#081d58;stroke:#081d58;stroke-linejoin:miter;" x="150.408882" xlink:href="#m89b1b73ef2" y="210.011588"/>
     <use style="fill:#081d58;stroke:#081d58;stroke-linejoin:miter;" x="158.527952" xlink:href="#m89b1b73ef2" y="215.174043"/>
     <use style="fill:#081d58;stroke:#081d58;stroke-linejoin:miter;" x="166.647022" xlink:href="#m89b1b73ef2" y="225.033549"/>
     <use style="fill:#081d58;stroke:#081d58;stroke-linejoin:miter;" x="174.766092" xlink:href="#m89b1b73ef2" y="231.643567"/>
     <use style="fill:#081d58;stroke:#081d58;stroke-linejoin:miter;" x="182.885162" xlink:href="#m89b1b73ef2" y="238.252127"/>
     <use style="fill:#081d58;stroke:#081d58;stroke-linejoin:miter;" x="191.004232" xlink:href="#m89b1b73ef2" y="238.918369"/>
     <use style="fill:#081d58;stroke:#081d58;stroke-linejoin:miter;" x="199.123302" xlink:href="#m89b1b73ef2" y="239.091321"/>
     <use style="fill:#081d58;stroke:#081d58;stroke-linejoin:miter;" x="207.242372" xlink:href="#m89b1b73ef2" y="239.607885"/>
     <use style="fill:#081d58;stroke:#081d58;stroke-linejoin:miter;" x="215.361442" xlink:href="#m89b1b73ef2" y="239.915725"/>
     <use style="fill:#081d58;stroke:#081d58;stroke-linejoin:miter;" x="223.480512" xlink:href="#m89b1b73ef2" y="239.807432"/>
     <use style="fill:#081d58;stroke:#081d58;stroke-linejoin:miter;" x="231.599582" xlink:href="#m89b1b73ef2" y="239.487955"/>
     <use style="fill:#081d58;stroke:#081d58;stroke-linejoin:miter;" x="239.718652" xlink:href="#m89b1b73ef2" y="239.740646"/>
     <use style="fill:#081d58;stroke:#081d58;stroke-linejoin:miter;" x="247.837722" xlink:href="#m89b1b73ef2" y="240.211091"/>
     <use style="fill:#081d58;stroke:#081d58;stroke-linejoin:miter;" x="255.956792" xlink:href="#m89b1b73ef2" y="241.156069"/>
     <use style="fill:#081d58;stroke:#081d58;stroke-linejoin:miter;" x="264.075862" xlink:href="#m89b1b73ef2" y="241.799635"/>
     <use style="fill:#081d58;stroke:#081d58;stroke-linejoin:miter;" x="272.194932" xlink:href="#m89b1b73ef2" y="241.751725"/>
     <use style="fill:#081d58;stroke:#081d58;stroke-linejoin:miter;" x="280.314002" xlink:href="#m89b1b73ef2" y="241.66004"/>
     <use style="fill:#081d58;stroke:#081d58;stroke-linejoin:miter;" x="288.433072" xlink:href="#m89b1b73ef2" y="241.161302"/>
     <use style="fill:#081d58;stroke:#081d58;stroke-linejoin:miter;" x="296.552142" xlink:href="#m89b1b73ef2" y="240.846055"/>
     <use style="fill:#081d58;stroke:#081d58;stroke-linejoin:miter;" x="304.671212" xlink:href="#m89b1b73ef2" y="240.165524"/>
     <use style="fill:#081d58;stroke:#081d58;stroke-linejoin:miter;" x="312.790282" xlink:href="#m89b1b73ef2" y="239.876369"/>
     <use style="fill:#081d58;stroke:#081d58;stroke-linejoin:miter;" x="320.909352" xlink:href="#m89b1b73ef2" y="239.492424"/>
     <use style="fill:#081d58;stroke:#081d58;stroke-linejoin:miter;" x="329.028422" xlink:href="#m89b1b73ef2" y="239.130963"/>
     <use style="fill:#081d58;stroke:#081d58;stroke-linejoin:miter;" x="337.147492" xlink:href="#m89b1b73ef2" y="238.689406"/>
     <use style="fill:#081d58;stroke:#081d58;stroke-linejoin:miter;" x="345.266562" xlink:href="#m89b1b73ef2" y="238.176165"/>
     <use style="fill:#081d58;stroke:#081d58;stroke-linejoin:miter;" x="353.385632" xlink:href="#m89b1b73ef2" y="237.928516"/>
     <use style="fill:#081d58;stroke:#081d58;stroke-linejoin:miter;" x="361.504702" xlink:href="#m89b1b73ef2" y="237.51279"/>
     <use style="fill:#081d58;stroke:#081d58;stroke-linejoin:miter;" x="369.623772" xlink:href="#m89b1b73ef2" y="237.429564"/>
    </g>
   </g>
   <g id="patch_3">
    <path d="M 54 252 
L 54 34.56 
" style="fill:none;stroke:#000000;stroke-linecap:square;stroke-linejoin:miter;stroke-width:0.8;"/>
   </g>
   <g id="patch_4">
    <path d="M 388.8 252 
L 388.8 34.56 
" style="fill:none;stroke:#000000;stroke-linecap:square;stroke-linejoin:miter;stroke-width:0.8;"/>
   </g>
   <g id="patch_5">
    <path d="M 54 252 
L 388.8 252 
" style="fill:none;stroke:#000000;stroke-linecap:square;stroke-linejoin:miter;stroke-width:0.8;"/>
   </g>
   <g id="patch_6">
    <path d="M 54 34.56 
L 388.8 34.56 
" style="fill:none;stroke:#000000;stroke-linecap:square;stroke-linejoin:miter;stroke-width:0.8;"/>
   </g>
   <g id="legend_1">
    <g id="patch_7">
     <path d="M 280.085938 71.91625 
L 381.8 71.91625 
Q 383.8 71.91625 383.8 69.91625 
L 383.8 41.56 
Q 383.8 39.56 381.8 39.56 
L 280.085938 39.56 
Q 278.085938 39.56 278.085938 41.56 
L 278.085938 69.91625 
Q 278.085938 71.91625 280.085938 71.91625 
z
" style="fill:#ffffff;opacity:0.8;stroke:#cccccc;stroke-linejoin:miter;"/>
    </g>
    <g id="line2d_17">
     <path d="M 282.085938 47.658437 
L 302.085938 47.658437 
" style="fill:none;stroke:#40b5c4;stroke-dasharray:5.55,2.4;stroke-dashoffset:0;stroke-width:1.5;"/>
    </g>
    <g id="line2d_18">
     <g>
      <use style="fill:#40b5c4;stroke:#40b5c4;" x="292.085938" xlink:href="#ma8662c171a" y="47.658437"/>
     </g>
    </g>
    <g id="text_17">
     <text style="font-family:DejaVu Sans;font-size:10px;font-style:normal;font-weight:normal;text-anchor:start;" transform="rotate(-0, 310.085938, 51.158437)" x="310.085938" y="51.158437">original</text>
    </g>
    <g id="line2d_19">
     <path d="M 282.085938 62.336562 
L 302.085938 62.336562 
" style="fill:none;stroke:#081d58;stroke-dasharray:5.55,2.4;stroke-dashoffset:0;stroke-width:1.5;"/>
    </g>
    <g id="line2d_20">
     <g>
      <use style="fill:#081d58;stroke:#081d58;stroke-linejoin:miter;" x="292.085938" xlink:href="#m89b1b73ef2" y="62.336562"/>
     </g>
    </g>
    <g id="text_18">
     <text style="font-family:DejaVu Sans;font-size:10px;font-style:normal;font-weight:normal;text-anchor:start;" transform="rotate(-0, 310.085938, 65.836562)" x="310.085938" y="65.836562">reconstructed</text>
    </g>
   </g>
  </g>
  <g id="text_19">
   <text style="font-family:DejaVu Sans;font-size:12px;font-style:normal;font-weight:normal;text-anchor:middle;" transform="rotate(-0, 216, 14.878125)" x="216" y="14.878125">Reconstruction of the weight curve</text>
  </g>
 </g>
 <defs>
  <clipPath id="pc73dd65194">
   <rect height="217.44" width="334.8" x="54" y="34.56"/>
  </clipPath>
 </defs>
</svg>
