<?xml version="1.0" encoding="utf-8" standalone="no"?>
<!DOCTYPE svg PUBLIC "-//W3C//DTD SVG 1.1//EN"
  "http://www.w3.org/Graphics/SVG/1.1/DTD/svg11.dtd">
<!-- Created with matplotlib (https://matplotlib.org/) -->
<svg height="288pt" version="1.1" viewBox="0 0 432 288" width="432pt" xmlns="http://www.w3.org/2000/svg" xmlns:xlink="http://www.w3.org/1999/xlink">
 <defs>
  <style type="text/css">
*{stroke-linecap:butt;stroke-linejoin:round;}
  </style>
 </defs>
 <g id="figure_1">
  <g id="patch_1">
   <path d="M 0 288 
L 432 288 
L 432 0 
L 0 0 
z
" style="fill:#ffffff;"/>
  </g>
  <g id="axes_1">
   <g id="patch_2">
    <path d="M 54 252 
L 388.8 252 
L 388.8 34.56 
L 54 34.56 
z
" style="fill:#ffffff;"/>
   </g>
   <g id="matplotlib.axis_1">
    <g id="xtick_1">
     <g id="line2d_1">
      <defs>
       <path d="M 0 0 
L 0 3.5 
" id="mc580879666" style="stroke:#000000;stroke-width:0.8;"/>
      </defs>
      <g>
       <use style="stroke:#000000;stroke-width:0.8;" x="69.218182" xlink:href="#mc580879666" y="252"/>
      </g>
     </g>
     <g id="text_1">
      <text style="font-family:DejaVu Sans;font-size:10px;font-style:normal;font-weight:normal;text-anchor:middle;" transform="rotate(-0, 69.218182, 266.598437)" x="69.218182" y="266.598437">0</text>
     </g>
    </g>
    <g id="xtick_2">
     <g id="line2d_2">
      <g>
       <use style="stroke:#000000;stroke-width:0.8;" x="119.962369" xlink:href="#mc580879666" y="252"/>
      </g>
     </g>
     <g id="text_2">
      <text style="font-family:DejaVu Sans;font-size:10px;font-style:normal;font-weight:normal;text-anchor:middle;" transform="rotate(-0, 119.962369, 266.598437)" x="119.962369" y="266.598437">500</text>
     </g>
    </g>
    <g id="xtick_3">
     <g id="line2d_3">
      <g>
       <use style="stroke:#000000;stroke-width:0.8;" x="170.706557" xlink:href="#mc580879666" y="252"/>
      </g>
     </g>
     <g id="text_3">
      <text style="font-family:DejaVu Sans;font-size:10px;font-style:normal;font-weight:normal;text-anchor:middle;" transform="rotate(-0, 170.706557, 266.598437)" x="170.706557" y="266.598437">1000</text>
     </g>
    </g>
    <g id="xtick_4">
     <g id="line2d_4">
      <g>
       <use style="stroke:#000000;stroke-width:0.8;" x="221.450744" xlink:href="#mc580879666" y="252"/>
      </g>
     </g>
     <g id="text_4">
      <text style="font-family:DejaVu Sans;font-size:10px;font-style:normal;font-weight:normal;text-anchor:middle;" transform="rotate(-0, 221.450744, 266.598437)" x="221.450744" y="266.598437">1500</text>
     </g>
    </g>
    <g id="xtick_5">
     <g id="line2d_5">
      <g>
       <use style="stroke:#000000;stroke-width:0.8;" x="272.194932" xlink:href="#mc580879666" y="252"/>
      </g>
     </g>
     <g id="text_5">
      <text style="font-family:DejaVu Sans;font-size:10px;font-style:normal;font-weight:normal;text-anchor:middle;" transform="rotate(-0, 272.194932, 266.598437)" x="272.194932" y="266.598437">2000</text>
     </g>
    </g>
    <g id="xtick_6">
     <g id="line2d_6">
      <g>
       <use style="stroke:#000000;stroke-width:0.8;" x="322.939119" xlink:href="#mc580879666" y="252"/>
      </g>
     </g>
     <g id="text_6">
      <text style="font-family:DejaVu Sans;font-size:10px;font-style:normal;font-weight:normal;text-anchor:middle;" transform="rotate(-0, 322.939119, 266.598437)" x="322.939119" y="266.598437">2500</text>
     </g>
    </g>
    <g id="xtick_7">
     <g id="line2d_7">
      <g>
       <use style="stroke:#000000;stroke-width:0.8;" x="373.683307" xlink:href="#mc580879666" y="252"/>
      </g>
     </g>
     <g id="text_7">
      <text style="font-family:DejaVu Sans;font-size:10px;font-style:normal;font-weight:normal;text-anchor:middle;" transform="rotate(-0, 373.683307, 266.598437)" x="373.683307" y="266.598437">3000</text>
     </g>
    </g>
    <g id="text_8">
     <text style="font-family:DejaVu Sans;font-size:10px;font-style:normal;font-weight:normal;text-anchor:middle;" transform="rotate(-0, 221.4, 280.276563)" x="221.4" y="280.276563">Time</text>
    </g>
   </g>
   <g id="matplotlib.axis_2">
    <g id="ytick_1">
     <g id="line2d_8">
      <defs>
       <path d="M 0 0 
L -3.5 0 
" id="mc4cd01138b" style="stroke:#000000;stroke-width:0.8;"/>
      </defs>
      <g>
       <use style="stroke:#000000;stroke-width:0.8;" x="54" xlink:href="#mc4cd01138b" y="237.524381"/>
      </g>
     </g>
     <g id="text_9">
      <text style="font-family:DejaVu Sans;font-size:10px;font-style:normal;font-weight:normal;text-anchor:end;" transform="rotate(-0, 47, 241.3236)" x="47" y="241.3236">−10</text>
     </g>
    </g>
    <g id="ytick_2">
     <g id="line2d_9">
      <g>
       <use style="stroke:#000000;stroke-width:0.8;" x="54" xlink:href="#mc4cd01138b" y="199.451399"/>
      </g>
     </g>
     <g id="text_10">
      <text style="font-family:DejaVu Sans;font-size:10px;font-style:normal;font-weight:normal;text-anchor:end;" transform="rotate(-0, 47, 203.250617)" x="47" y="203.250617">−8</text>
     </g>
    </g>
    <g id="ytick_3">
     <g id="line2d_10">
      <g>
       <use style="stroke:#000000;stroke-width:0.8;" x="54" xlink:href="#mc4cd01138b" y="161.378416"/>
      </g>
     </g>
     <g id="text_11">
      <text style="font-family:DejaVu Sans;font-size:10px;font-style:normal;font-weight:normal;text-anchor:end;" transform="rotate(-0, 47, 165.177635)" x="47" y="165.177635">−6</text>
     </g>
    </g>
    <g id="ytick_4">
     <g id="line2d_11">
      <g>
       <use style="stroke:#000000;stroke-width:0.8;" x="54" xlink:href="#mc4cd01138b" y="123.305433"/>
      </g>
     </g>
     <g id="text_12">
      <text style="font-family:DejaVu Sans;font-size:10px;font-style:normal;font-weight:normal;text-anchor:end;" transform="rotate(-0, 47, 127.104652)" x="47" y="127.104652">−4</text>
     </g>
    </g>
    <g id="ytick_5">
     <g id="line2d_12">
      <g>
       <use style="stroke:#000000;stroke-width:0.8;" x="54" xlink:href="#mc4cd01138b" y="85.232451"/>
      </g>
     </g>
     <g id="text_13">
      <text style="font-family:DejaVu Sans;font-size:10px;font-style:normal;font-weight:normal;text-anchor:end;" transform="rotate(-0, 47, 89.031669)" x="47" y="89.031669">−2</text>
     </g>
    </g>
    <g id="ytick_6">
     <g id="line2d_13">
      <g>
       <use style="stroke:#000000;stroke-width:0.8;" x="54" xlink:href="#mc4cd01138b" y="47.159468"/>
      </g>
     </g>
     <g id="text_14">
      <text style="font-family:DejaVu Sans;font-size:10px;font-style:normal;font-weight:normal;text-anchor:end;" transform="rotate(-0, 47, 50.958687)" x="47" y="50.958687">0</text>
     </g>
    </g>
    <g id="text_15">
     <text style="font-family:DejaVu Sans;font-size:10px;font-style:normal;font-weight:normal;text-anchor:middle;" transform="rotate(-90, 19.815625, 143.28)" x="19.815625" y="143.28">temperature (°C)</text>
    </g>
   </g>
   <g id="line2d_14">
    <path clip-path="url(#pb33f6998ba)" d="M 69.218182 46.056099 
L 71.552414 45.033865 
L 72.668787 44.777628 
L 73.480694 44.815227 
L 74.191112 45.065056 
L 74.901531 45.55969 
L 75.611949 46.326257 
L 76.423856 47.576575 
L 77.235763 49.239722 
L 78.149159 51.605265 
L 79.164043 54.840624 
L 80.381903 59.50702 
L 81.80274 65.915535 
L 83.528043 74.789755 
L 86.065252 89.167331 
L 91.241159 118.684173 
L 93.372415 129.420335 
L 95.199206 137.605265 
L 96.82302 143.894883 
L 98.243857 148.571236 
L 99.664694 152.515368 
L 100.882555 155.258431 
L 101.998927 157.251381 
L 103.013811 158.647136 
L 104.028694 159.673298 
L 105.043578 160.400112 
L 105.956974 160.788932 
L 106.870369 160.942061 
L 107.885253 160.869247 
L 108.900136 160.572639 
L 110.219485 159.933813 
L 111.741811 158.938471 
L 113.467113 157.532359 
L 116.511765 154.704793 
L 119.454927 152.075283 
L 121.992137 150.070911 
L 123.920416 148.812219 
L 125.848695 147.823463 
L 127.776974 147.074701 
L 129.603765 146.599398 
L 131.329067 146.403436 
L 133.05437 146.428678 
L 134.678184 146.67383 
L 136.200509 147.12865 
L 137.925812 147.887635 
L 139.651114 148.897255 
L 141.17344 150.05256 
L 142.594277 151.442795 
L 144.015114 153.172831 
L 145.53744 155.419499 
L 147.567207 158.925412 
L 149.29251 162.318152 
L 150.307393 164.161437 
L 152.235672 166.962123 
L 153.859486 170.18957 
L 154.671393 172.30816 
L 155.990742 176.49419 
L 158.02051 183.717472 
L 161.268138 196.197377 
L 163.500882 205.586136 
L 165.632138 215.52309 
L 169.184231 232.279885 
L 170.402092 236.860484 
L 171.315487 239.484759 
L 172.025906 240.944097 
L 172.634836 241.75448 
L 173.142278 242.076768 
L 173.548231 242.104942 
L 173.954185 241.932281 
L 174.461627 241.473882 
L 175.070557 240.90945 
L 175.679487 240.277058 
L 176.085441 239.414324 
L 176.592882 237.851809 
L 177.100324 235.638341 
L 177.810743 231.487339 
L 178.724138 224.61349 
L 179.84051 214.352631 
L 181.667301 195.126041 
L 184.305999 167.70211 
L 186.031301 152.064812 
L 187.655115 139.264067 
L 189.278929 128.219703 
L 190.293813 122.48991 
L 192.628046 111.327616 
L 194.25186 104.692066 
L 195.875674 98.966099 
L 197.600976 93.732549 
L 199.22479 89.499442 
L 200.950092 85.573166 
L 202.776883 82.002586 
L 204.603674 78.910089 
L 206.531953 76.09048 
L 208.460232 73.655009 
L 210.49 71.441788 
L 212.519767 69.5318 
L 214.752511 67.720535 
L 217.086744 66.099675 
L 219.725442 64.536089 
L 222.871581 62.962577 
L 225.916233 61.672011 
L 231.295117 59.672725 
L 239.21121 56.782037 
L 244.691582 54.860012 
L 252.91214 52.248246 
L 261.741629 49.627709 
L 266.816048 48.350171 
L 273.412792 46.957149 
L 283.358653 45.287817 
L 288.433072 44.70306 
L 292.28963 44.4749 
L 296.0447 44.46549 
L 300.104235 44.656443 
L 305.787584 45.116681 
L 324.461445 46.989678 
L 331.667119 47.63543 
L 335.219212 48.159076 
L 339.177259 48.96977 
L 352.87819 52.109888 
L 356.836236 52.670222 
L 361.098748 53.038599 
L 366.782097 53.324721 
L 371.653539 53.401646 
L 373.581818 53.363241 
L 373.581818 53.363241 
" style="fill:none;stroke:#40b5c4;stroke-dasharray:5.55,2.4;stroke-dashoffset:0;stroke-width:1.5;"/>
    <defs>
     <path d="M 0 3 
C 0.795609 3 1.55874 2.683901 2.12132 2.12132 
C 2.683901 1.55874 3 0.795609 3 0 
C 3 -0.795609 2.683901 -1.55874 2.12132 -2.12132 
C 1.55874 -2.683901 0.795609 -3 0 -3 
C -0.795609 -3 -1.55874 -2.683901 -2.12132 -2.12132 
C -2.683901 -1.55874 -3 -0.795609 -3 0 
C -3 0.795609 -2.683901 1.55874 -2.12132 2.12132 
C -1.55874 2.683901 -0.795609 3 0 3 
z
" id="me5ab4388cf" style="stroke:#40b5c4;"/>
    </defs>
    <g clip-path="url(#pb33f6998ba)">
     <use style="fill:#40b5c4;stroke:#40b5c4;" x="69.218182" xlink:href="#me5ab4388cf" y="46.056099"/>
     <use style="fill:#40b5c4;stroke:#40b5c4;" x="77.337252" xlink:href="#me5ab4388cf" y="49.476407"/>
     <use style="fill:#40b5c4;stroke:#40b5c4;" x="85.456322" xlink:href="#me5ab4388cf" y="85.634577"/>
     <use style="fill:#40b5c4;stroke:#40b5c4;" x="93.575392" xlink:href="#me5ab4388cf" y="130.382706"/>
     <use style="fill:#40b5c4;stroke:#40b5c4;" x="101.694462" xlink:href="#me5ab4388cf" y="156.755176"/>
     <use style="fill:#40b5c4;stroke:#40b5c4;" x="109.813532" xlink:href="#me5ab4388cf" y="160.154864"/>
     <use style="fill:#40b5c4;stroke:#40b5c4;" x="117.932602" xlink:href="#me5ab4388cf" y="153.403896"/>
     <use style="fill:#40b5c4;stroke:#40b5c4;" x="126.051672" xlink:href="#me5ab4388cf" y="147.732526"/>
     <use style="fill:#40b5c4;stroke:#40b5c4;" x="134.170742" xlink:href="#me5ab4388cf" y="146.574384"/>
     <use style="fill:#40b5c4;stroke:#40b5c4;" x="142.289812" xlink:href="#me5ab4388cf" y="151.11967"/>
     <use style="fill:#40b5c4;stroke:#40b5c4;" x="150.408882" xlink:href="#me5ab4388cf" y="164.299756"/>
     <use style="fill:#40b5c4;stroke:#40b5c4;" x="158.527952" xlink:href="#me5ab4388cf" y="185.610765"/>
     <use style="fill:#40b5c4;stroke:#40b5c4;" x="166.647022" xlink:href="#me5ab4388cf" y="220.475528"/>
     <use style="fill:#40b5c4;stroke:#40b5c4;" x="174.766092" xlink:href="#me5ab4388cf" y="241.139601"/>
     <use style="fill:#40b5c4;stroke:#40b5c4;" x="182.885162" xlink:href="#me5ab4388cf" y="182.069064"/>
     <use style="fill:#40b5c4;stroke:#40b5c4;" x="191.004232" xlink:href="#me5ab4388cf" y="118.949275"/>
     <use style="fill:#40b5c4;stroke:#40b5c4;" x="199.123302" xlink:href="#me5ab4388cf" y="89.747906"/>
     <use style="fill:#40b5c4;stroke:#40b5c4;" x="207.242372" xlink:href="#me5ab4388cf" y="75.151696"/>
     <use style="fill:#40b5c4;stroke:#40b5c4;" x="215.361442" xlink:href="#me5ab4388cf" y="67.272587"/>
     <use style="fill:#40b5c4;stroke:#40b5c4;" x="223.480512" xlink:href="#me5ab4388cf" y="62.687106"/>
     <use style="fill:#40b5c4;stroke:#40b5c4;" x="231.599582" xlink:href="#me5ab4388cf" y="59.566836"/>
     <use style="fill:#40b5c4;stroke:#40b5c4;" x="239.718652" xlink:href="#me5ab4388cf" y="56.59532"/>
     <use style="fill:#40b5c4;stroke:#40b5c4;" x="247.837722" xlink:href="#me5ab4388cf" y="53.838194"/>
     <use style="fill:#40b5c4;stroke:#40b5c4;" x="255.956792" xlink:href="#me5ab4388cf" y="51.318441"/>
     <use style="fill:#40b5c4;stroke:#40b5c4;" x="264.075862" xlink:href="#me5ab4388cf" y="49.008412"/>
     <use style="fill:#40b5c4;stroke:#40b5c4;" x="272.194932" xlink:href="#me5ab4388cf" y="47.189424"/>
     <use style="fill:#40b5c4;stroke:#40b5c4;" x="280.314002" xlink:href="#me5ab4388cf" y="45.745019"/>
     <use style="fill:#40b5c4;stroke:#40b5c4;" x="288.433072" xlink:href="#me5ab4388cf" y="44.70306"/>
     <use style="fill:#40b5c4;stroke:#40b5c4;" x="296.552142" xlink:href="#me5ab4388cf" y="44.479282"/>
     <use style="fill:#40b5c4;stroke:#40b5c4;" x="304.671212" xlink:href="#me5ab4388cf" y="45.006273"/>
     <use style="fill:#40b5c4;stroke:#40b5c4;" x="312.790282" xlink:href="#me5ab4388cf" y="45.944494"/>
     <use style="fill:#40b5c4;stroke:#40b5c4;" x="320.909352" xlink:href="#me5ab4388cf" y="46.73122"/>
     <use style="fill:#40b5c4;stroke:#40b5c4;" x="329.028422" xlink:href="#me5ab4388cf" y="47.344524"/>
     <use style="fill:#40b5c4;stroke:#40b5c4;" x="337.147492" xlink:href="#me5ab4388cf" y="48.524075"/>
     <use style="fill:#40b5c4;stroke:#40b5c4;" x="345.266562" xlink:href="#me5ab4388cf" y="50.491179"/>
     <use style="fill:#40b5c4;stroke:#40b5c4;" x="353.385632" xlink:href="#me5ab4388cf" y="52.192252"/>
     <use style="fill:#40b5c4;stroke:#40b5c4;" x="361.504702" xlink:href="#me5ab4388cf" y="53.066805"/>
     <use style="fill:#40b5c4;stroke:#40b5c4;" x="369.623772" xlink:href="#me5ab4388cf" y="53.399243"/>
    </g>
   </g>
   <g id="line2d_15">
    <path clip-path="url(#pb33f6998ba)" d="M 69.218182 49.074238 
L 69.624135 49.110938 
L 69.725624 48.761221 
L 69.827112 49.12553 
L 69.9286 48.802511 
L 70.131577 48.987997 
L 70.233066 48.646724 
L 70.334554 49.001187 
L 70.537531 48.616721 
L 70.639019 48.790898 
L 70.740507 48.490209 
L 70.841996 48.831397 
L 70.943484 48.481175 
L 71.146461 48.688878 
L 71.247949 48.428309 
L 71.349438 48.766149 
L 71.552414 48.44846 
L 71.653903 48.482768 
L 71.755391 48.298431 
L 71.85688 48.554908 
L 72.059856 48.362623 
L 72.161345 48.414246 
L 72.262833 48.313612 
L 72.364321 48.47866 
L 72.46581 48.373494 
L 72.668787 48.521442 
L 72.770275 48.348812 
L 72.871763 48.458149 
L 73.07474 48.348348 
L 73.176228 48.58112 
L 73.277717 48.285523 
L 73.480694 48.605697 
L 73.582182 48.46364 
L 73.68367 48.80702 
L 73.785159 48.564546 
L 73.886647 48.78605 
L 73.988135 48.719738 
L 74.089624 48.518359 
L 74.191112 49.019753 
L 74.292601 48.818916 
L 74.495577 48.956776 
L 74.597066 48.896703 
L 74.698554 49.25353 
L 74.800042 49.1482 
L 75.003019 49.42206 
L 75.104508 49.340418 
L 75.205996 49.743429 
L 75.307484 49.526949 
L 75.713438 50.224695 
L 75.814926 50.034045 
L 76.22088 50.922645 
L 76.322368 50.833896 
L 76.423856 50.948008 
L 76.525345 51.272266 
L 76.626833 51.190729 
L 76.728322 51.647592 
L 76.82981 51.600237 
L 76.931298 51.616985 
L 77.032787 52.17676 
L 77.134275 52.060155 
L 77.337252 52.681335 
L 77.43874 52.634087 
L 77.540229 53.145649 
L 77.641717 53.006242 
L 77.844694 53.485054 
L 78.250647 54.592763 
L 78.453624 54.965985 
L 78.758089 55.876467 
L 78.859577 55.8971 
L 79.97595 59.006469 
L 80.178926 59.746302 
L 80.990833 62.106569 
L 81.19381 62.83843 
L 82.005717 65.672289 
L 82.208694 66.518655 
L 82.310182 66.740148 
L 82.614647 68.34399 
L 82.817624 68.906493 
L 83.122089 70.65195 
L 83.528043 72.247865 
L 83.933996 73.921346 
L 84.035485 74.045095 
L 84.33995 75.299703 
L 84.745903 76.794892 
L 84.847392 77.042569 
L 85.151857 78.338599 
L 89.109903 94.041813 
L 89.211392 94.254236 
L 89.515857 95.457778 
L 89.718834 96.053576 
L 90.124787 97.505069 
L 90.429252 98.49922 
L 90.835206 100.052919 
L 90.936694 100.225333 
L 91.241159 101.327972 
L 92.154555 104.73665 
L 92.256043 104.922599 
L 92.661996 106.447055 
L 92.763485 106.709539 
L 92.966462 107.377656 
L 93.575392 109.686183 
L 97.43195 122.597635 
L 97.634927 123.068747 
L 97.939392 124.085292 
L 98.243857 124.726186 
L 98.345345 124.736834 
L 98.852787 125.487799 
L 100.476601 127.601777 
L 101.592973 128.576752 
L 102.303392 129.131085 
L 107.073346 132.484061 
L 107.580788 132.707308 
L 107.682276 132.604598 
L 107.885253 132.622707 
L 108.088229 132.582921 
L 108.291206 132.430196 
L 108.392695 132.555 
L 108.69716 132.221191 
L 108.900136 132.239255 
L 109.204602 132.128657 
L 109.30609 132.0575 
L 109.407578 132.14407 
L 109.610555 131.967607 
L 110.016509 131.735382 
L 110.117997 131.798161 
L 110.422462 131.568396 
L 110.52395 131.674419 
L 110.828416 131.36098 
L 111.132881 131.359863 
L 111.741811 131.143016 
L 111.944788 130.902068 
L 112.249253 130.972535 
L 112.553718 130.727084 
L 112.655206 130.840759 
L 112.959671 130.524551 
L 113.06116 130.57818 
L 113.264137 130.515855 
L 113.568602 130.436937 
L 113.67009 130.231472 
L 113.771578 130.353671 
L 113.974555 130.261881 
L 114.887951 129.8674 
L 115.192416 129.8127 
L 115.293904 129.677811 
L 115.395392 129.783562 
L 115.902834 129.450171 
L 116.004323 129.500731 
L 116.308788 129.297663 
L 118.338555 128.260045 
L 118.541532 128.170751 
L 119.048974 127.772884 
L 120.063858 127.171848 
L 120.368323 126.80675 
L 120.469811 126.870554 
L 120.672788 126.766719 
L 120.977253 126.489489 
L 121.078741 126.548183 
L 121.586183 126.127423 
L 121.687672 126.147347 
L 121.992137 125.861966 
L 122.093625 125.949208 
L 122.39809 125.573843 
L 122.601067 125.546847 
L 123.007021 125.249493 
L 123.108509 125.322964 
L 123.412974 124.962722 
L 123.818928 124.807582 
L 123.920416 124.791161 
L 124.021904 124.640769 
L 124.123393 124.705907 
L 124.732323 124.288115 
L 124.833811 124.294687 
L 125.036788 124.102303 
L 125.239765 124.081706 
L 125.341253 124.060275 
L 125.54423 123.91551 
L 125.747207 123.901458 
L 127.371021 123.403005 
L 127.573997 123.059688 
L 129.197811 121.058051 
L 129.400788 120.872965 
L 129.603765 120.635884 
L 129.90823 120.424945 
L 130.212695 120.300169 
L 130.821625 120.080026 
L 131.024602 120.077057 
L 134.170742 121.26328 
L 136.910928 122.5903 
L 137.41837 122.945187 
L 138.433254 123.623429 
L 140.057068 124.934528 
L 141.579393 126.588123 
L 142.188323 128.219306 
L 142.898742 129.420333 
L 143.507672 130.257552 
L 144.218091 131.2687 
L 144.827021 132.155871 
L 145.131486 132.639509 
L 145.334463 132.933896 
L 146.14637 134.177432 
L 146.247858 134.227103 
L 146.7553 135.040974 
L 147.262742 135.796143 
L 149.191021 138.447415 
L 149.799951 139.685732 
L 155.584789 160.63306 
L 155.990742 161.889886 
L 156.599673 163.940359 
L 157.005626 165.18749 
L 157.41158 166.556656 
L 157.614556 167.243372 
L 158.832417 171.135349 
L 159.441347 173.060274 
L 160.151766 175.35843 
L 160.354742 175.821227 
L 161.978556 180.351012 
L 165.632138 196.003048 
L 165.835115 196.588452 
L 167.458929 201.695726 
L 167.661905 202.06648 
L 168.067859 203.341351 
L 168.879766 205.029603 
L 169.488696 205.687744 
L 169.590185 205.692337 
L 169.691673 205.964711 
L 169.793161 205.744405 
L 170.097626 206.211759 
L 170.50358 205.830221 
L 170.706557 205.975368 
L 170.909533 205.738323 
L 171.011022 205.656173 
L 171.11251 205.931561 
L 171.416975 205.375303 
L 171.619952 205.213854 
L 173.243766 201.265153 
L 173.751208 199.258451 
L 174.055673 197.465656 
L 174.766092 193.120949 
L 175.780975 186.627116 
L 176.085441 184.070765 
L 176.186929 183.659699 
L 177.709255 170.841127 
L 178.318185 165.693005 
L 179.23158 157.438829 
L 181.565813 138.962098 
L 181.76879 137.648013 
L 182.37772 133.591737 
L 182.682185 131.578036 
L 182.98665 129.506849 
L 183.392604 127.087847 
L 184.204511 121.769004 
L 184.305999 121.545067 
L 184.711952 118.706162 
L 185.625348 113.947121 
L 188.568511 100.558252 
L 188.669999 100.595238 
L 189.075953 98.8826 
L 192.019115 88.800762 
L 192.120604 88.80108 
L 192.425069 87.872018 
L 193.033999 86.578229 
L 194.556325 83.06889 
L 194.759302 82.708158 
L 195.368232 81.407462 
L 195.875674 80.461298 
L 195.977162 80.479407 
L 196.281627 79.637097 
L 196.383116 79.68242 
L 196.687581 79.030469 
L 196.890557 78.702915 
L 196.992046 78.712074 
L 197.195023 78.282363 
L 197.499488 77.545322 
L 197.803953 77.204696 
L 198.920325 75.425508 
L 199.021813 75.386067 
L 199.427767 74.600045 
L 199.732232 74.293913 
L 201.153069 72.093746 
L 201.254558 72.05947 
L 201.457534 71.851346 
L 205.923023 67.890654 
L 206.126 67.778023 
L 206.531953 67.416737 
L 206.73493 67.218942 
L 206.937907 67.08517 
L 207.140883 66.934968 
L 207.749814 66.356289 
L 208.054279 66.232656 
L 208.358744 65.906345 
L 212.621256 62.506486 
L 212.722744 62.502419 
L 213.128697 62.077075 
L 213.331674 62.041274 
L 213.534651 61.797811 
L 213.839116 61.599826 
L 214.24507 61.269703 
L 214.346558 61.23303 
L 214.549535 61.08222 
L 214.854 60.820893 
L 215.361442 60.422009 
L 215.665907 60.180798 
L 215.767395 60.16878 
L 216.274837 59.67059 
L 216.782279 59.379045 
L 217.086744 59.024967 
L 218.101628 58.276733 
L 218.304605 58.060212 
L 218.406093 58.049601 
L 218.913535 57.542089 
L 219.928419 57.09416 
L 220.131395 57.184615 
L 220.334372 57.052096 
L 220.740326 56.988627 
L 221.044791 56.828585 
L 221.146279 56.931631 
L 221.450744 56.757664 
L 221.552233 56.825962 
L 221.856698 56.631979 
L 222.161163 56.701566 
L 222.36414 56.611828 
L 222.567116 56.453882 
L 222.770093 56.547052 
L 222.97307 56.441719 
L 223.074558 56.477211 
L 223.379023 56.27141 
L 223.480512 56.410348 
L 223.784977 56.262823 
L 224.698372 56.057186 
L 224.901349 55.918412 
L 225.104326 55.923223 
L 226.322186 55.755275 
L 226.525163 55.699558 
L 227.032605 55.684617 
L 227.235582 55.561202 
L 227.438558 55.660217 
L 227.540047 55.464311 
L 227.844512 55.608259 
L 227.946 55.403602 
L 228.148977 55.481394 
L 228.55493 55.390204 
L 228.960884 55.338136 
L 229.163861 55.28507 
L 229.366837 55.247835 
L 229.569814 55.17912 
L 229.874279 55.19958 
L 230.48321 55.000914 
L 230.889163 54.981217 
L 230.990651 54.862522 
L 231.193628 54.925191 
L 231.70107 54.756317 
L 231.802558 54.842751 
L 232.107024 54.716177 
L 233.121907 54.561827 
L 233.324884 54.509995 
L 233.730838 54.499557 
L 233.832326 54.504422 
L 234.035303 54.35323 
L 235.050186 54.187098 
L 235.151675 54.152531 
L 235.354652 54.219957 
L 235.45614 53.99199 
L 235.659117 54.12824 
L 235.760605 54.166456 
L 236.06507 54.010961 
L 236.369535 53.975959 
L 237.790373 53.840925 
L 237.993349 53.648305 
L 238.297814 53.70522 
L 238.399303 53.605387 
L 238.60228 53.612014 
L 238.906745 53.58293 
L 240.124605 53.441851 
L 240.327582 53.361426 
L 240.42907 53.403944 
L 240.530559 53.319634 
L 240.733535 53.424223 
L 241.139489 53.28258 
L 241.240977 53.340984 
L 241.342466 53.198706 
L 241.443954 53.312626 
L 241.545442 53.220709 
L 241.748419 53.221726 
L 242.255861 53.184491 
L 242.357349 53.065106 
L 242.661815 53.114287 
L 242.864791 53.120714 
L 243.169256 53.028779 
L 243.57521 53.058861 
L 244.18414 52.941437 
L 244.285629 52.835759 
L 244.488605 52.868909 
L 245.097536 52.825592 
L 245.199024 52.796727 
L 245.300512 52.650673 
L 245.604977 52.787068 
L 246.010931 52.620681 
L 246.213908 52.655919 
L 246.315396 52.580705 
L 246.518373 52.651508 
L 247.33028 52.494252 
L 247.634745 52.460213 
L 247.93921 52.423413 
L 249.461536 52.160843 
L 249.563024 52.257008 
L 249.766001 52.112824 
L 250.070466 52.077677 
L 250.882373 51.926394 
L 251.08535 51.902231 
L 251.288326 51.841903 
L 251.389815 51.806973 
L 251.491303 51.911744 
L 251.69428 51.834042 
L 251.897257 51.671976 
L 252.100233 51.731741 
L 252.30321 51.648992 
L 252.506187 51.698808 
L 252.709164 51.589753 
L 254.637443 50.900913 
L 254.84042 50.789897 
L 255.144885 50.677702 
L 255.347861 50.609677 
L 255.44935 50.629302 
L 255.855303 50.301847 
L 256.05828 50.337339 
L 256.261257 50.250361 
L 256.464234 50.273072 
L 256.66721 50.143484 
L 256.971675 50.135878 
L 257.276141 49.957763 
L 257.377629 50.167285 
L 257.682094 49.982816 
L 258.392513 49.901302 
L 263.365443 48.785901 
L 263.56842 48.75689 
L 263.974373 48.636815 
L 264.075862 48.561455 
L 264.17735 48.701228 
L 264.278838 48.54586 
L 264.380327 48.620948 
L 264.583304 48.519663 
L 264.989257 48.370759 
L 265.293722 48.337772 
L 266.613071 48.080576 
L 267.222001 48.014675 
L 267.424978 47.904276 
L 267.729443 47.920615 
L 267.830932 47.869819 
L 267.93242 47.94556 
L 268.033908 47.784075 
L 268.236885 47.861032 
L 268.338373 47.766646 
L 268.54135 47.809999 
L 268.642839 47.678742 
L 268.744327 47.847053 
L 269.048792 47.687873 
L 269.251769 47.762652 
L 269.454746 47.582903 
L 269.657722 47.683135 
L 270.672606 47.437794 
L 270.875583 47.490242 
L 271.07856 47.435089 
L 271.180048 47.468765 
L 271.281536 47.284478 
L 271.586001 47.442387 
L 271.68749 47.316049 
L 271.788978 47.413848 
L 271.991955 47.218431 
L 272.29642 47.361689 
L 272.397908 47.225003 
L 272.499397 47.28426 
L 272.600885 47.113824 
L 272.803862 47.185063 
L 273.108327 47.187187 
L 273.209815 47.218014 
L 273.311304 47.01539 
L 273.615769 47.088172 
L 274.021722 46.980134 
L 274.224699 47.069219 
L 274.326188 46.943425 
L 274.427676 47.016734 
L 274.732141 46.90029 
L 274.935118 46.899092 
L 275.036606 46.845735 
L 275.138095 46.925942 
L 275.341071 46.828543 
L 275.645536 46.72606 
L 275.747025 46.885203 
L 275.950002 46.671614 
L 276.152978 46.860404 
L 276.254467 46.675536 
L 276.355955 46.745576 
L 276.558932 46.622125 
L 277.066374 46.65464 
L 277.26935 46.499091 
L 277.472327 46.582021 
L 277.979769 46.450782 
L 278.081257 46.526105 
L 278.284234 46.438654 
L 278.690188 46.423513 
L 278.893164 46.341473 
L 278.994653 46.405032 
L 279.19763 46.265496 
L 279.299118 46.239226 
L 279.400606 46.401655 
L 279.80656 46.15183 
L 280.009537 46.263971 
L 280.212513 46.180224 
L 280.314002 46.270633 
L 280.516978 46.133312 
L 280.719955 46.164719 
L 280.821444 46.073674 
L 280.922932 46.190299 
L 281.125909 45.992341 
L 281.328885 46.170184 
L 281.531862 46.065541 
L 282.140792 46.018666 
L 284.576513 45.756259 
L 284.678002 45.613763 
L 284.77949 45.778244 
L 284.982467 45.671894 
L 285.185444 45.782837 
L 285.38842 45.61694 
L 285.692886 45.637782 
L 285.794374 45.665014 
L 285.997351 45.553708 
L 286.098839 45.66879 
L 286.606281 45.496448 
L 287.92563 45.405657 
L 288.027118 45.561696 
L 288.128607 45.449755 
L 288.230095 45.503783 
L 288.433072 45.36165 
L 288.636048 45.427878 
L 288.839025 45.385778 
L 288.940514 45.537605 
L 289.244979 45.296166 
L 289.346467 45.424647 
L 289.447955 45.334364 
L 289.549444 45.413572 
L 289.752421 45.259966 
L 289.955397 45.416332 
L 290.158374 45.353481 
L 290.259862 45.353989 
L 290.462839 45.289195 
L 290.868793 45.393711 
L 291.071769 45.279628 
L 291.477723 45.292263 
L 291.6807 45.211167 
L 291.782188 45.379006 
L 291.985165 45.273782 
L 292.188142 45.20267 
L 293.203025 45.208008 
L 293.304514 45.316118 
L 293.50749 45.118869 
L 293.811956 45.21044 
L 293.913444 45.275089 
L 294.116421 45.138966 
L 294.623862 45.258187 
L 294.826839 45.17867 
L 294.928328 45.243845 
L 295.029816 45.172334 
L 295.232793 45.212274 
L 295.334281 45.053276 
L 295.638746 45.272166 
L 296.0447 45.17208 
L 296.146188 45.240704 
L 296.349165 45.216631 
L 297.770002 45.241939 
L 297.972979 45.242647 
L 298.074467 45.150585 
L 298.480421 45.362612 
L 298.683397 45.193575 
L 298.987863 45.306642 
L 299.089351 45.265249 
L 299.190839 45.34916 
L 299.292328 45.210531 
L 299.495304 45.375593 
L 299.79977 45.345474 
L 300.104235 45.335744 
L 300.4087 45.392949 
L 300.611677 45.352645 
L 300.916142 45.457488 
L 301.119118 45.300669 
L 301.322095 45.469162 
L 301.829537 45.412302 
L 302.134002 45.57582 
L 302.641444 45.512769 
L 302.742932 45.614308 
L 302.945909 45.46397 
L 303.148886 45.602217 
L 303.250374 45.536189 
L 303.351863 45.640396 
L 303.554839 45.556122 
L 303.757816 45.559408 
L 303.859305 45.553762 
L 304.062281 45.688288 
L 304.265258 45.656191 
L 304.7727 45.612638 
L 304.975677 45.784816 
L 305.280142 45.633461 
L 305.483119 45.761342 
L 305.889072 45.762704 
L 306.193537 45.811267 
L 306.396514 45.840387 
L 306.599491 45.801573 
L 306.700979 45.916165 
L 307.005444 45.861919 
L 307.106933 45.81842 
L 307.309909 46.013147 
L 307.512886 45.958265 
L 308.020328 45.944522 
L 308.223305 46.031156 
L 308.426281 45.991307 
L 308.730747 46.064379 
L 308.832235 45.920849 
L 309.1367 46.145693 
L 309.441165 46.018175 
L 309.644142 46.144168 
L 309.74563 46.074074 
L 309.948607 46.149778 
L 310.151584 46.177355 
L 310.557537 46.199467 
L 310.659026 46.080319 
L 310.862002 46.208309 
L 311.064979 46.305763 
L 311.267956 46.147799 
L 311.470933 46.263462 
L 312.688793 46.327857 
L 312.89177 46.400584 
L 313.094747 46.324825 
L 313.399212 46.473965 
L 313.5007 46.304982 
L 313.805165 46.451889 
L 314.10963 46.344069 
L 314.312607 46.502541 
L 314.515584 46.453233 
L 314.921537 46.496313 
L 315.023026 46.460803 
L 315.226003 46.528175 
L 315.327491 46.406248 
L 315.631956 46.665859 
L 315.834933 46.461711 
L 316.139398 46.601411 
L 316.443863 46.478704 
L 316.545351 46.687209 
L 316.748328 46.642295 
L 316.849817 46.667493 
L 316.951305 46.56256 
L 317.154282 46.614718 
L 318.067677 46.694217 
L 318.270654 46.690876 
L 318.372142 46.863091 
L 318.473631 46.709503 
L 318.575119 46.847442 
L 318.778096 46.698538 
L 318.981072 46.787713 
L 319.590003 46.7782 
L 319.691491 46.896496 
L 319.995956 46.788839 
L 320.300421 46.979789 
L 320.503398 46.852416 
L 320.909352 46.926088 
L 321.01084 46.836803 
L 321.213817 47.035778 
L 321.416793 46.884223 
L 321.61977 47.043911 
L 321.924235 46.947147 
L 322.127212 46.993478 
L 322.431677 47.137625 
L 322.533166 46.952666 
L 322.736142 47.106327 
L 322.837631 47.059923 
L 322.939119 47.175532 
L 323.040607 46.984763 
L 323.345073 47.234934 
L 323.649538 47.130835 
L 324.867398 47.246625 
L 324.968887 47.336999 
L 325.070375 47.228761 
L 325.171863 47.345968 
L 325.273352 47.226329 
L 325.37484 47.343571 
L 325.476328 47.263509 
L 325.780794 47.382821 
L 325.98377 47.326651 
L 326.288235 47.438229 
L 326.389724 47.279304 
L 326.592701 47.547411 
L 326.795677 47.368661 
L 326.897166 47.489062 
L 327.100142 47.445527 
L 327.303119 47.471706 
L 327.506096 47.541565 
L 327.607584 47.613675 
L 327.810561 47.467785 
L 327.912049 47.706518 
L 328.013538 47.472977 
L 328.216515 47.612586 
L 328.318003 47.518037 
L 328.52098 47.561572 
L 328.723956 47.634953 
L 328.825445 47.807313 
L 329.028422 47.634226 
L 329.231398 47.682409 
L 329.434375 47.67718 
L 329.535863 47.741738 
L 329.637352 47.632375 
L 329.73884 47.875283 
L 329.941817 47.63183 
L 330.144794 47.775143 
L 330.34777 47.754773 
L 330.449259 47.925354 
L 330.550747 47.724346 
L 330.753724 47.863846 
L 331.058189 47.869256 
L 331.159677 47.934903 
L 331.261166 47.773509 
L 331.464143 47.960501 
L 331.565631 47.877099 
L 331.768608 48.019649 
L 331.870096 47.85938 
L 332.073073 48.10149 
L 332.174561 47.879568 
L 332.479026 48.037912 
L 332.783491 48.05741 
L 332.88498 47.988605 
L 332.986468 48.190266 
L 333.189445 47.994196 
L 333.392422 48.293784 
L 333.49391 48.072515 
L 333.696887 48.242805 
L 333.899864 48.168844 
L 334.204329 48.261505 
L 334.305817 48.405362 
L 334.508794 48.150035 
L 334.711771 48.327261 
L 334.813259 48.234127 
L 335.016236 48.396248 
L 335.117724 48.282165 
L 335.320701 48.485278 
L 335.422189 48.297233 
L 335.625166 48.47159 
L 335.828143 48.398536 
L 335.929631 48.538907 
L 336.132608 48.467814 
L 336.335585 48.518247 
L 336.437073 48.418833 
L 336.64005 48.61483 
L 336.741538 48.488002 
L 336.944515 48.697796 
L 337.147492 48.535966 
L 337.350468 48.654298 
L 337.654933 48.715116 
L 337.756422 48.635562 
L 337.959399 48.819686 
L 338.060887 48.643659 
L 338.263864 48.868232 
L 338.46684 48.822627 
L 338.568329 48.965867 
L 338.771306 48.83519 
L 338.872794 48.947967 
L 338.974282 48.812715 
L 339.177259 49.0293 
L 339.278747 48.921897 
L 339.481724 49.071927 
L 339.684701 48.947894 
L 339.887678 49.056423 
L 339.989166 49.023672 
L 340.192143 49.18572 
L 340.293631 49.089101 
L 340.496608 49.269558 
L 340.699585 49.103915 
L 340.801073 49.282556 
L 340.902561 49.220359 
L 341.105538 49.385166 
L 341.308515 49.206706 
L 341.511492 49.41218 
L 341.61298 49.304705 
L 342.120422 49.608214 
L 342.22191 49.432949 
L 342.830841 49.822293 
L 342.932329 49.61228 
L 343.135306 49.814559 
L 343.338282 49.726654 
L 343.439771 49.830172 
L 343.541259 49.75592 
L 343.744236 50.011645 
L 343.947213 49.853047 
L 344.150189 49.97973 
L 344.251678 49.887722 
L 344.454655 50.094939 
L 344.556143 49.983796 
L 344.75912 50.211056 
L 344.962096 50.04712 
L 345.165073 50.222747 
L 345.266562 50.06974 
L 345.469538 50.329315 
L 345.571027 50.262869 
L 345.774003 50.455489 
L 345.97698 50.284582 
L 346.078469 50.49031 
L 346.179957 50.33556 
L 346.484422 50.603014 
L 346.58591 50.40433 
L 346.788887 50.607952 
L 346.991864 50.549676 
L 347.093352 50.656425 
L 347.194841 50.565615 
L 347.397817 50.847738 
L 347.600794 50.6366 
L 347.702283 50.862298 
L 347.905259 50.686779 
L 348.108236 50.934444 
L 348.209724 50.826025 
L 348.412701 51.089594 
L 348.615678 50.888114 
L 348.818655 51.043953 
L 348.920143 50.936296 
L 349.12312 51.19972 
L 349.224608 51.046168 
L 349.427585 51.270886 
L 349.630562 51.087887 
L 349.73205 51.306505 
L 349.935027 51.203605 
L 350.036515 51.42313 
L 350.239492 51.247394 
L 350.442469 51.473419 
L 350.645445 51.32938 
L 350.848422 51.433115 
L 351.152887 51.569057 
L 351.254376 51.388673 
L 351.457352 51.660665 
L 351.558841 51.442991 
L 351.863306 51.681797 
L 352.269259 51.640042 
L 352.472236 51.814616 
L 352.675213 51.77159 
L 352.776701 51.927211 
L 352.979678 51.85423 
L 353.081166 51.999975 
L 353.284143 51.888433 
L 353.48712 51.999757 
L 353.588608 51.878847 
L 353.791585 52.066748 
L 353.994562 52.031382 
L 354.09605 52.194012 
L 354.299027 52.023649 
L 354.502004 52.223132 
L 354.603492 52.083014 
L 354.806469 52.212493 
L 355.009446 52.25207 
L 355.110934 52.330026 
L 355.313911 52.152329 
L 355.415399 52.465278 
L 355.719864 52.34818 
L 356.328794 52.60525 
L 356.531771 52.433689 
L 356.734748 52.530162 
L 356.937725 52.533866 
L 357.039213 52.602781 
L 357.140701 52.509938 
L 357.343678 52.743697 
L 357.546655 52.573588 
L 357.749632 52.7478 
L 357.85112 52.566072 
L 358.054097 52.782112 
L 358.155585 52.708114 
L 358.358562 52.906326 
L 358.561539 52.698964 
L 358.663027 52.929709 
L 358.866004 52.736471 
L 359.068981 52.863445 
L 359.271957 52.921975 
L 359.373446 53.115685 
L 359.576422 52.838101 
L 359.677911 53.060531 
L 359.880888 53.005414 
L 360.083864 52.997281 
L 360.185353 53.006612 
L 360.388329 53.096949 
L 360.692795 53.077633 
L 360.794283 53.164303 
L 360.895771 53.075273 
L 361.098748 53.139431 
L 362.012143 53.317346 
L 362.113632 53.19444 
L 362.418097 53.331035 
L 362.519585 53.326278 
L 362.621074 53.201774 
L 362.925539 53.43379 
L 363.128516 53.303186 
L 363.432981 53.465706 
L 363.635957 53.376458 
L 363.940423 53.48829 
L 364.143399 53.37831 
L 364.447864 53.545041 
L 364.650841 53.426274 
L 364.75233 53.539232 
L 365.056795 53.369051 
L 365.462748 53.553465 
L 365.564237 53.408192 
L 365.767213 53.528993 
L 365.868702 53.47885 
L 365.97019 53.633382 
L 366.071678 53.415817 
L 366.173167 53.551868 
L 366.274655 53.48967 
L 366.376144 53.585163 
L 366.477632 53.491304 
L 366.680609 53.585817 
L 367.289539 53.557169 
L 367.391027 53.642604 
L 367.594004 53.571547 
L 367.898469 53.577538 
L 367.999958 53.46832 
L 368.304423 53.638393 
L 368.913353 53.601357 
L 369.014841 53.405287 
L 369.11633 53.706799 
L 369.319306 53.607675 
L 369.420795 53.632184 
L 369.522283 53.517628 
L 369.623772 53.672087 
L 369.72526 53.537017 
L 369.928237 53.628117 
L 370.029725 53.497731 
L 370.232702 53.674556 
L 370.33419 53.539595 
L 370.435679 53.641915 
L 370.638655 53.631566 
L 370.740144 53.672414 
L 370.841632 53.513816 
L 370.94312 53.64816 
L 371.146097 53.566355 
L 371.247586 53.74191 
L 371.349074 53.510766 
L 371.552051 53.615808 
L 371.653539 53.499256 
L 371.755027 53.771212 
L 371.958004 53.537235 
L 372.059493 53.690968 
L 372.160981 53.629243 
L 372.262469 53.711447 
L 372.363958 53.460949 
L 372.566934 53.72401 
L 372.668423 53.529501 
L 372.769911 53.685631 
L 372.8714 53.521259 
L 373.175865 53.609999 
L 373.48033 53.52863 
L 373.581818 53.708106 
L 373.581818 53.708106 
" style="fill:none;stroke:#081d58;stroke-dasharray:5.55,2.4;stroke-dashoffset:0;stroke-width:1.5;"/>
    <defs>
     <path d="M -0 4.242641 
L 4.242641 0 
L 0 -4.242641 
L -4.242641 -0 
z
" id="ma068e00857" style="stroke:#081d58;stroke-linejoin:miter;"/>
    </defs>
    <g clip-path="url(#pb33f6998ba)">
     <use style="fill:#081d58;stroke:#081d58;stroke-linejoin:miter;" x="69.218182" xlink:href="#ma068e00857" y="49.074238"/>
     <use style="fill:#081d58;stroke:#081d58;stroke-linejoin:miter;" x="77.337252" xlink:href="#ma068e00857" y="52.681335"/>
     <use style="fill:#081d58;stroke:#081d58;stroke-linejoin:miter;" x="85.456322" xlink:href="#ma068e00857" y="79.697851"/>
     <use style="fill:#081d58;stroke:#081d58;stroke-linejoin:miter;" x="93.575392" xlink:href="#ma068e00857" y="109.686183"/>
     <use style="fill:#081d58;stroke:#081d58;stroke-linejoin:miter;" x="101.694462" xlink:href="#ma068e00857" y="128.677374"/>
     <use style="fill:#081d58;stroke:#081d58;stroke-linejoin:miter;" x="109.813532" xlink:href="#ma068e00857" y="131.771483"/>
     <use style="fill:#081d58;stroke:#081d58;stroke-linejoin:miter;" x="117.932602" xlink:href="#ma068e00857" y="128.517804"/>
     <use style="fill:#081d58;stroke:#081d58;stroke-linejoin:miter;" x="126.051672" xlink:href="#ma068e00857" y="123.785387"/>
     <use style="fill:#081d58;stroke:#081d58;stroke-linejoin:miter;" x="134.170742" xlink:href="#ma068e00857" y="121.26328"/>
     <use style="fill:#081d58;stroke:#081d58;stroke-linejoin:miter;" x="142.289812" xlink:href="#ma068e00857" y="128.42429"/>
     <use style="fill:#081d58;stroke:#081d58;stroke-linejoin:miter;" x="150.408882" xlink:href="#ma068e00857" y="142.081388"/>
     <use style="fill:#081d58;stroke:#081d58;stroke-linejoin:miter;" x="158.527952" xlink:href="#ma068e00857" y="170.092167"/>
     <use style="fill:#081d58;stroke:#081d58;stroke-linejoin:miter;" x="166.647022" xlink:href="#ma068e00857" y="199.335191"/>
     <use style="fill:#081d58;stroke:#081d58;stroke-linejoin:miter;" x="174.766092" xlink:href="#ma068e00857" y="193.120949"/>
     <use style="fill:#081d58;stroke:#081d58;stroke-linejoin:miter;" x="182.885162" xlink:href="#ma068e00857" y="130.249355"/>
     <use style="fill:#081d58;stroke:#081d58;stroke-linejoin:miter;" x="191.004232" xlink:href="#ma068e00857" y="91.985045"/>
     <use style="fill:#081d58;stroke:#081d58;stroke-linejoin:miter;" x="199.123302" xlink:href="#ma068e00857" y="75.147343"/>
     <use style="fill:#081d58;stroke:#081d58;stroke-linejoin:miter;" x="207.242372" xlink:href="#ma068e00857" y="66.824669"/>
     <use style="fill:#081d58;stroke:#081d58;stroke-linejoin:miter;" x="215.361442" xlink:href="#ma068e00857" y="60.422009"/>
     <use style="fill:#081d58;stroke:#081d58;stroke-linejoin:miter;" x="223.480512" xlink:href="#ma068e00857" y="56.410348"/>
     <use style="fill:#081d58;stroke:#081d58;stroke-linejoin:miter;" x="231.599582" xlink:href="#ma068e00857" y="54.836706"/>
     <use style="fill:#081d58;stroke:#081d58;stroke-linejoin:miter;" x="239.718652" xlink:href="#ma068e00857" y="53.546276"/>
     <use style="fill:#081d58;stroke:#081d58;stroke-linejoin:miter;" x="247.837722" xlink:href="#ma068e00857" y="52.454094"/>
     <use style="fill:#081d58;stroke:#081d58;stroke-linejoin:miter;" x="255.956792" xlink:href="#ma068e00857" y="50.377642"/>
     <use style="fill:#081d58;stroke:#081d58;stroke-linejoin:miter;" x="264.075862" xlink:href="#ma068e00857" y="48.561455"/>
     <use style="fill:#081d58;stroke:#081d58;stroke-linejoin:miter;" x="272.194932" xlink:href="#ma068e00857" y="47.264199"/>
     <use style="fill:#081d58;stroke:#081d58;stroke-linejoin:miter;" x="280.314002" xlink:href="#ma068e00857" y="46.270633"/>
     <use style="fill:#081d58;stroke:#081d58;stroke-linejoin:miter;" x="288.433072" xlink:href="#ma068e00857" y="45.36165"/>
     <use style="fill:#081d58;stroke:#081d58;stroke-linejoin:miter;" x="296.552142" xlink:href="#ma068e00857" y="45.228232"/>
     <use style="fill:#081d58;stroke:#081d58;stroke-linejoin:miter;" x="304.671212" xlink:href="#ma068e00857" y="45.588093"/>
     <use style="fill:#081d58;stroke:#081d58;stroke-linejoin:miter;" x="312.790282" xlink:href="#ma068e00857" y="46.414218"/>
     <use style="fill:#081d58;stroke:#081d58;stroke-linejoin:miter;" x="320.909352" xlink:href="#ma068e00857" y="46.926088"/>
     <use style="fill:#081d58;stroke:#081d58;stroke-linejoin:miter;" x="329.028422" xlink:href="#ma068e00857" y="47.634226"/>
     <use style="fill:#081d58;stroke:#081d58;stroke-linejoin:miter;" x="337.147492" xlink:href="#ma068e00857" y="48.535966"/>
     <use style="fill:#081d58;stroke:#081d58;stroke-linejoin:miter;" x="345.266562" xlink:href="#ma068e00857" y="50.06974"/>
     <use style="fill:#081d58;stroke:#081d58;stroke-linejoin:miter;" x="353.385632" xlink:href="#ma068e00857" y="51.976265"/>
     <use style="fill:#081d58;stroke:#081d58;stroke-linejoin:miter;" x="361.504702" xlink:href="#ma068e00857" y="53.176249"/>
     <use style="fill:#081d58;stroke:#081d58;stroke-linejoin:miter;" x="369.623772" xlink:href="#ma068e00857" y="53.672087"/>
    </g>
   </g>
   <g id="patch_3">
    <path d="M 54 252 
L 54 34.56 
" style="fill:none;stroke:#000000;stroke-linecap:square;stroke-linejoin:miter;stroke-width:0.8;"/>
   </g>
   <g id="patch_4">
    <path d="M 388.8 252 
L 388.8 34.56 
" style="fill:none;stroke:#000000;stroke-linecap:square;stroke-linejoin:miter;stroke-width:0.8;"/>
   </g>
   <g id="patch_5">
    <path d="M 54 252 
L 388.8 252 
" style="fill:none;stroke:#000000;stroke-linecap:square;stroke-linejoin:miter;stroke-width:0.8;"/>
   </g>
   <g id="patch_6">
    <path d="M 54 34.56 
L 388.8 34.56 
" style="fill:none;stroke:#000000;stroke-linecap:square;stroke-linejoin:miter;stroke-width:0.8;"/>
   </g>
   <g id="legend_1">
    <g id="patch_7">
     <path d="M 61 247 
L 162.714063 247 
Q 164.714063 247 164.714063 245 
L 164.714063 216.64375 
Q 164.714063 214.64375 162.714063 214.64375 
L 61 214.64375 
Q 59 214.64375 59 216.64375 
L 59 245 
Q 59 247 61 247 
z
" style="fill:#ffffff;opacity:0.8;stroke:#cccccc;stroke-linejoin:miter;"/>
    </g>
    <g id="line2d_16">
     <path d="M 63 222.742188 
L 83 222.742188 
" style="fill:none;stroke:#40b5c4;stroke-dasharray:5.55,2.4;stroke-dashoffset:0;stroke-width:1.5;"/>
    </g>
    <g id="line2d_17">
     <g>
      <use style="fill:#40b5c4;stroke:#40b5c4;" x="73" xlink:href="#me5ab4388cf" y="222.742188"/>
     </g>
    </g>
    <g id="text_16">
     <text style="font-family:DejaVu Sans;font-size:10px;font-style:normal;font-weight:normal;text-anchor:start;" transform="rotate(-0, 91, 226.242188)" x="91" y="226.242188">original</text>
    </g>
    <g id="line2d_18">
     <path d="M 63 237.420312 
L 83 237.420312 
" style="fill:none;stroke:#081d58;stroke-dasharray:5.55,2.4;stroke-dashoffset:0;stroke-width:1.5;"/>
    </g>
    <g id="line2d_19">
     <g>
      <use style="fill:#081d58;stroke:#081d58;stroke-linejoin:miter;" x="73" xlink:href="#ma068e00857" y="237.420312"/>
     </g>
    </g>
    <g id="text_17">
     <text style="font-family:DejaVu Sans;font-size:10px;font-style:normal;font-weight:normal;text-anchor:start;" transform="rotate(-0, 91, 240.920312)" x="91" y="240.920312">reconstructed</text>
    </g>
   </g>
  </g>
  <g id="text_18">
   <text style="font-family:DejaVu Sans;font-size:12px;font-style:normal;font-weight:normal;text-anchor:middle;" transform="rotate(-0, 216, 14.878125)" x="216" y="14.878125">Reconstruction of the temperature curve</text>
  </g>
 </g>
 <defs>
  <clipPath id="pb33f6998ba">
   <rect height="217.44" width="334.8" x="54" y="34.56"/>
  </clipPath>
 </defs>
</svg>
