<?xml version="1.0" encoding="utf-8" standalone="no"?>
<!DOCTYPE svg PUBLIC "-//W3C//DTD SVG 1.1//EN"
  "http://www.w3.org/Graphics/SVG/1.1/DTD/svg11.dtd">
<!-- Created with matplotlib (https://matplotlib.org/) -->
<svg height="288pt" version="1.1" viewBox="0 0 432 288" width="432pt" xmlns="http://www.w3.org/2000/svg" xmlns:xlink="http://www.w3.org/1999/xlink">
 <defs>
  <style type="text/css">
*{stroke-linecap:butt;stroke-linejoin:round;}
  </style>
 </defs>
 <g id="figure_1">
  <g id="patch_1">
   <path d="M 0 288 
L 432 288 
L 432 0 
L 0 0 
z
" style="fill:#ffffff;"/>
  </g>
  <g id="axes_1">
   <g id="patch_2">
    <path d="M 54 252 
L 388.8 252 
L 388.8 34.56 
L 54 34.56 
z
" style="fill:#ffffff;"/>
   </g>
   <g id="matplotlib.axis_1">
    <g id="xtick_1">
     <g id="line2d_1">
      <defs>
       <path d="M 0 0 
L 0 3.5 
" id="m3e75f36369" style="stroke:#000000;stroke-width:0.8;"/>
      </defs>
      <g>
       <use style="stroke:#000000;stroke-width:0.8;" x="69.218182" xlink:href="#m3e75f36369" y="252"/>
      </g>
     </g>
     <g id="text_1">
      <text style="font-family:DejaVu Sans;font-size:10px;font-style:normal;font-weight:normal;text-anchor:middle;" transform="rotate(-0, 69.218182, 266.598437)" x="69.218182" y="266.598437">0</text>
     </g>
    </g>
    <g id="xtick_2">
     <g id="line2d_2">
      <g>
       <use style="stroke:#000000;stroke-width:0.8;" x="119.962369" xlink:href="#m3e75f36369" y="252"/>
      </g>
     </g>
     <g id="text_2">
      <text style="font-family:DejaVu Sans;font-size:10px;font-style:normal;font-weight:normal;text-anchor:middle;" transform="rotate(-0, 119.962369, 266.598437)" x="119.962369" y="266.598437">500</text>
     </g>
    </g>
    <g id="xtick_3">
     <g id="line2d_3">
      <g>
       <use style="stroke:#000000;stroke-width:0.8;" x="170.706557" xlink:href="#m3e75f36369" y="252"/>
      </g>
     </g>
     <g id="text_3">
      <text style="font-family:DejaVu Sans;font-size:10px;font-style:normal;font-weight:normal;text-anchor:middle;" transform="rotate(-0, 170.706557, 266.598437)" x="170.706557" y="266.598437">1000</text>
     </g>
    </g>
    <g id="xtick_4">
     <g id="line2d_4">
      <g>
       <use style="stroke:#000000;stroke-width:0.8;" x="221.450744" xlink:href="#m3e75f36369" y="252"/>
      </g>
     </g>
     <g id="text_4">
      <text style="font-family:DejaVu Sans;font-size:10px;font-style:normal;font-weight:normal;text-anchor:middle;" transform="rotate(-0, 221.450744, 266.598437)" x="221.450744" y="266.598437">1500</text>
     </g>
    </g>
    <g id="xtick_5">
     <g id="line2d_5">
      <g>
       <use style="stroke:#000000;stroke-width:0.8;" x="272.194932" xlink:href="#m3e75f36369" y="252"/>
      </g>
     </g>
     <g id="text_5">
      <text style="font-family:DejaVu Sans;font-size:10px;font-style:normal;font-weight:normal;text-anchor:middle;" transform="rotate(-0, 272.194932, 266.598437)" x="272.194932" y="266.598437">2000</text>
     </g>
    </g>
    <g id="xtick_6">
     <g id="line2d_6">
      <g>
       <use style="stroke:#000000;stroke-width:0.8;" x="322.939119" xlink:href="#m3e75f36369" y="252"/>
      </g>
     </g>
     <g id="text_6">
      <text style="font-family:DejaVu Sans;font-size:10px;font-style:normal;font-weight:normal;text-anchor:middle;" transform="rotate(-0, 322.939119, 266.598437)" x="322.939119" y="266.598437">2500</text>
     </g>
    </g>
    <g id="xtick_7">
     <g id="line2d_7">
      <g>
       <use style="stroke:#000000;stroke-width:0.8;" x="373.683307" xlink:href="#m3e75f36369" y="252"/>
      </g>
     </g>
     <g id="text_7">
      <text style="font-family:DejaVu Sans;font-size:10px;font-style:normal;font-weight:normal;text-anchor:middle;" transform="rotate(-0, 373.683307, 266.598437)" x="373.683307" y="266.598437">3000</text>
     </g>
    </g>
    <g id="text_8">
     <text style="font-family:DejaVu Sans;font-size:10px;font-style:normal;font-weight:normal;text-anchor:middle;" transform="rotate(-0, 221.4, 280.276563)" x="221.4" y="280.276563">Time</text>
    </g>
   </g>
   <g id="matplotlib.axis_2">
    <g id="ytick_1">
     <g id="line2d_8">
      <defs>
       <path d="M 0 0 
L -3.5 0 
" id="mf34bfc6057" style="stroke:#000000;stroke-width:0.8;"/>
      </defs>
      <g>
       <use style="stroke:#000000;stroke-width:0.8;" x="54" xlink:href="#mf34bfc6057" y="236.155762"/>
      </g>
     </g>
     <g id="text_9">
      <text style="font-family:DejaVu Sans;font-size:10px;font-style:normal;font-weight:normal;text-anchor:end;" transform="rotate(-0, 47, 239.954981)" x="47" y="239.954981">50</text>
     </g>
    </g>
    <g id="ytick_2">
     <g id="line2d_9">
      <g>
       <use style="stroke:#000000;stroke-width:0.8;" x="54" xlink:href="#mf34bfc6057" y="205.277313"/>
      </g>
     </g>
     <g id="text_10">
      <text style="font-family:DejaVu Sans;font-size:10px;font-style:normal;font-weight:normal;text-anchor:end;" transform="rotate(-0, 47, 209.076531)" x="47" y="209.076531">55</text>
     </g>
    </g>
    <g id="ytick_3">
     <g id="line2d_10">
      <g>
       <use style="stroke:#000000;stroke-width:0.8;" x="54" xlink:href="#mf34bfc6057" y="174.398863"/>
      </g>
     </g>
     <g id="text_11">
      <text style="font-family:DejaVu Sans;font-size:10px;font-style:normal;font-weight:normal;text-anchor:end;" transform="rotate(-0, 47, 178.198082)" x="47" y="178.198082">60</text>
     </g>
    </g>
    <g id="ytick_4">
     <g id="line2d_11">
      <g>
       <use style="stroke:#000000;stroke-width:0.8;" x="54" xlink:href="#mf34bfc6057" y="143.520414"/>
      </g>
     </g>
     <g id="text_12">
      <text style="font-family:DejaVu Sans;font-size:10px;font-style:normal;font-weight:normal;text-anchor:end;" transform="rotate(-0, 47, 147.319633)" x="47" y="147.319633">65</text>
     </g>
    </g>
    <g id="ytick_5">
     <g id="line2d_12">
      <g>
       <use style="stroke:#000000;stroke-width:0.8;" x="54" xlink:href="#mf34bfc6057" y="112.641965"/>
      </g>
     </g>
     <g id="text_13">
      <text style="font-family:DejaVu Sans;font-size:10px;font-style:normal;font-weight:normal;text-anchor:end;" transform="rotate(-0, 47, 116.441183)" x="47" y="116.441183">70</text>
     </g>
    </g>
    <g id="ytick_6">
     <g id="line2d_13">
      <g>
       <use style="stroke:#000000;stroke-width:0.8;" x="54" xlink:href="#mf34bfc6057" y="81.763515"/>
      </g>
     </g>
     <g id="text_14">
      <text style="font-family:DejaVu Sans;font-size:10px;font-style:normal;font-weight:normal;text-anchor:end;" transform="rotate(-0, 47, 85.562734)" x="47" y="85.562734">75</text>
     </g>
    </g>
    <g id="ytick_7">
     <g id="line2d_14">
      <g>
       <use style="stroke:#000000;stroke-width:0.8;" x="54" xlink:href="#mf34bfc6057" y="50.885066"/>
      </g>
     </g>
     <g id="text_15">
      <text style="font-family:DejaVu Sans;font-size:10px;font-style:normal;font-weight:normal;text-anchor:end;" transform="rotate(-0, 47, 54.684285)" x="47" y="54.684285">80</text>
     </g>
    </g>
    <g id="text_16">
     <text style="font-family:DejaVu Sans;font-size:10px;font-style:normal;font-weight:normal;text-anchor:middle;" transform="rotate(-90, 28.195312, 143.28)" x="28.195312" y="143.28">weight (\%)</text>
    </g>
   </g>
   <g id="line2d_15">
    <path clip-path="url(#p2ba3ca8e69)" d="M 69.218182 44.443636 
L 83.528043 44.579563 
L 91.241159 44.810966 
L 97.025997 45.21146 
L 118.338555 46.94195 
L 127.979951 47.749421 
L 133.764788 48.449745 
L 138.230277 49.216642 
L 141.78237 50.03665 
L 144.725533 50.936386 
L 147.262742 51.929684 
L 149.495486 53.035194 
L 151.525254 54.288427 
L 153.65651 55.884905 
L 155.889254 57.83457 
L 158.223487 60.173057 
L 160.456231 62.731954 
L 162.485998 65.390835 
L 164.515766 68.412909 
L 166.849998 72.312734 
L 169.590185 77.322762 
L 172.228882 81.986705 
L 173.751208 84.235644 
L 174.969068 85.638946 
L 175.983952 86.491006 
L 176.998836 87.069236 
L 178.419673 87.595713 
L 181.058371 88.293196 
L 184.711952 89.026744 
L 189.88786 89.812169 
L 197.702464 90.748712 
L 208.460232 91.798023 
L 216.985256 92.371436 
L 226.829628 92.806822 
L 241.849908 93.216888 
L 262.553536 93.484048 
L 281.937816 93.503193 
L 325.98377 93.365537 
L 373.581818 93.084543 
L 373.581818 93.084543 
" style="fill:none;stroke:#40b5c4;stroke-dasharray:5.55,2.4;stroke-dashoffset:0;stroke-width:1.5;"/>
    <defs>
     <path d="M 0 3 
C 0.795609 3 1.55874 2.683901 2.12132 2.12132 
C 2.683901 1.55874 3 0.795609 3 0 
C 3 -0.795609 2.683901 -1.55874 2.12132 -2.12132 
C 1.55874 -2.683901 0.795609 -3 0 -3 
C -0.795609 -3 -1.55874 -2.683901 -2.12132 -2.12132 
C -2.683901 -1.55874 -3 -0.795609 -3 0 
C -3 0.795609 -2.683901 1.55874 -2.12132 2.12132 
C -1.55874 2.683901 -0.795609 3 0 3 
z
" id="m67f07012e0" style="stroke:#40b5c4;"/>
    </defs>
    <g clip-path="url(#p2ba3ca8e69)">
     <use style="fill:#40b5c4;stroke:#40b5c4;" x="69.218182" xlink:href="#m67f07012e0" y="44.443636"/>
     <use style="fill:#40b5c4;stroke:#40b5c4;" x="77.337252" xlink:href="#m67f07012e0" y="44.510643"/>
     <use style="fill:#40b5c4;stroke:#40b5c4;" x="85.456322" xlink:href="#m67f07012e0" y="44.614826"/>
     <use style="fill:#40b5c4;stroke:#40b5c4;" x="93.575392" xlink:href="#m67f07012e0" y="44.946214"/>
     <use style="fill:#40b5c4;stroke:#40b5c4;" x="101.694462" xlink:href="#m67f07012e0" y="45.634371"/>
     <use style="fill:#40b5c4;stroke:#40b5c4;" x="109.813532" xlink:href="#m67f07012e0" y="46.318885"/>
     <use style="fill:#40b5c4;stroke:#40b5c4;" x="117.932602" xlink:href="#m67f07012e0" y="46.912183"/>
     <use style="fill:#40b5c4;stroke:#40b5c4;" x="126.051672" xlink:href="#m67f07012e0" y="47.562483"/>
     <use style="fill:#40b5c4;stroke:#40b5c4;" x="134.170742" xlink:href="#m67f07012e0" y="48.510081"/>
     <use style="fill:#40b5c4;stroke:#40b5c4;" x="142.289812" xlink:href="#m67f07012e0" y="50.175726"/>
     <use style="fill:#40b5c4;stroke:#40b5c4;" x="150.408882" xlink:href="#m67f07012e0" y="53.566612"/>
     <use style="fill:#40b5c4;stroke:#40b5c4;" x="158.527952" xlink:href="#m67f07012e0" y="60.501727"/>
     <use style="fill:#40b5c4;stroke:#40b5c4;" x="166.647022" xlink:href="#m67f07012e0" y="71.960349"/>
     <use style="fill:#40b5c4;stroke:#40b5c4;" x="174.766092" xlink:href="#m67f07012e0" y="85.433357"/>
     <use style="fill:#40b5c4;stroke:#40b5c4;" x="182.885162" xlink:href="#m67f07012e0" y="88.685229"/>
     <use style="fill:#40b5c4;stroke:#40b5c4;" x="191.004232" xlink:href="#m67f07012e0" y="89.957544"/>
     <use style="fill:#40b5c4;stroke:#40b5c4;" x="199.123302" xlink:href="#m67f07012e0" y="90.905266"/>
     <use style="fill:#40b5c4;stroke:#40b5c4;" x="207.242372" xlink:href="#m67f07012e0" y="91.697915"/>
     <use style="fill:#40b5c4;stroke:#40b5c4;" x="215.361442" xlink:href="#m67f07012e0" y="92.278616"/>
     <use style="fill:#40b5c4;stroke:#40b5c4;" x="223.480512" xlink:href="#m67f07012e0" y="92.678986"/>
     <use style="fill:#40b5c4;stroke:#40b5c4;" x="231.599582" xlink:href="#m67f07012e0" y="92.961153"/>
     <use style="fill:#40b5c4;stroke:#40b5c4;" x="239.718652" xlink:href="#m67f07012e0" y="93.171373"/>
     <use style="fill:#40b5c4;stroke:#40b5c4;" x="247.837722" xlink:href="#m67f07012e0" y="93.323542"/>
     <use style="fill:#40b5c4;stroke:#40b5c4;" x="255.956792" xlink:href="#m67f07012e0" y="93.429085"/>
     <use style="fill:#40b5c4;stroke:#40b5c4;" x="264.075862" xlink:href="#m67f07012e0" y="93.492386"/>
     <use style="fill:#40b5c4;stroke:#40b5c4;" x="272.194932" xlink:href="#m67f07012e0" y="93.512395"/>
     <use style="fill:#40b5c4;stroke:#40b5c4;" x="280.314002" xlink:href="#m67f07012e0" y="93.505231"/>
     <use style="fill:#40b5c4;stroke:#40b5c4;" x="288.433072" xlink:href="#m67f07012e0" y="93.496894"/>
     <use style="fill:#40b5c4;stroke:#40b5c4;" x="296.552142" xlink:href="#m67f07012e0" y="93.510295"/>
     <use style="fill:#40b5c4;stroke:#40b5c4;" x="304.671212" xlink:href="#m67f07012e0" y="93.493621"/>
     <use style="fill:#40b5c4;stroke:#40b5c4;" x="312.790282" xlink:href="#m67f07012e0" y="93.442733"/>
     <use style="fill:#40b5c4;stroke:#40b5c4;" x="320.909352" xlink:href="#m67f07012e0" y="93.393575"/>
     <use style="fill:#40b5c4;stroke:#40b5c4;" x="329.028422" xlink:href="#m67f07012e0" y="93.349851"/>
     <use style="fill:#40b5c4;stroke:#40b5c4;" x="337.147492" xlink:href="#m67f07012e0" y="93.299951"/>
     <use style="fill:#40b5c4;stroke:#40b5c4;" x="345.266562" xlink:href="#m67f07012e0" y="93.246284"/>
     <use style="fill:#40b5c4;stroke:#40b5c4;" x="353.385632" xlink:href="#m67f07012e0" y="93.181687"/>
     <use style="fill:#40b5c4;stroke:#40b5c4;" x="361.504702" xlink:href="#m67f07012e0" y="93.123697"/>
     <use style="fill:#40b5c4;stroke:#40b5c4;" x="369.623772" xlink:href="#m67f07012e0" y="93.089854"/>
    </g>
   </g>
   <g id="line2d_16">
    <path clip-path="url(#p2ba3ca8e69)" d="M 69.218182 196.926218 
L 69.31967 196.970295 
L 69.421159 197.216174 
L 69.522647 197.039628 
L 69.624135 197.11975 
L 69.725624 196.738245 
L 69.827112 197.263008 
L 69.9286 196.852527 
L 70.131577 197.1798 
L 70.233066 196.752946 
L 70.334554 197.322964 
L 70.537531 196.885791 
L 70.639019 197.140034 
L 70.740507 196.766751 
L 70.841996 197.260582 
L 70.943484 196.86744 
L 71.044973 196.962403 
L 71.146461 197.221546 
L 71.247949 196.79349 
L 71.349438 197.358043 
L 71.552414 196.950271 
L 71.653903 197.095885 
L 71.755391 196.799686 
L 71.85688 197.226681 
L 72.059856 196.945865 
L 72.161345 197.092893 
L 72.262833 196.878135 
L 72.364321 197.202675 
L 72.46581 196.926642 
L 72.567298 196.99515 
L 72.668787 197.212122 
L 72.770275 196.90134 
L 72.871763 197.118925 
L 73.07474 196.829887 
L 73.176228 197.206186 
L 73.277717 196.770379 
L 73.480694 197.096074 
L 73.582182 196.838604 
L 73.68367 197.243549 
L 73.785159 196.848428 
L 73.886647 197.14868 
L 74.089624 196.616943 
L 74.191112 197.253043 
L 74.292601 196.874413 
L 74.495577 196.92782 
L 74.597066 196.720035 
L 74.698554 197.12154 
L 74.800042 196.787317 
L 74.901531 197.024527 
L 75.003019 196.962333 
L 75.104508 196.693744 
L 75.205996 197.150117 
L 75.307484 196.712732 
L 75.408973 196.761639 
L 75.510461 196.957197 
L 75.611949 196.603044 
L 75.713438 197.056519 
L 75.814926 196.61136 
L 76.017903 196.888901 
L 76.119391 196.636732 
L 76.22088 197.044151 
L 76.423856 196.620359 
L 76.525345 196.842373 
L 76.626833 196.471399 
L 76.728322 196.912837 
L 76.931298 196.401337 
L 77.032787 196.880302 
L 77.134275 196.392785 
L 77.235763 196.870314 
L 77.43874 196.365269 
L 77.540229 196.75443 
L 77.641717 196.30013 
L 77.743205 196.675698 
L 77.844694 196.291131 
L 78.04767 196.627733 
L 78.149159 196.176543 
L 78.250647 196.54476 
L 78.453624 196.24253 
L 78.555112 196.506454 
L 78.656601 196.207922 
L 78.758089 196.447982 
L 78.961066 196.016864 
L 79.062554 196.42857 
L 79.164043 195.998253 
L 79.367019 196.134632 
L 79.468508 195.901145 
L 79.569996 196.247359 
L 79.671484 196.011563 
L 79.772973 196.167214 
L 79.97595 195.659813 
L 80.077438 196.12356 
L 80.280415 195.799938 
L 80.381903 195.884489 
L 80.483391 195.519711 
L 80.58488 195.961596 
L 80.686368 195.553612 
L 80.787857 195.751008 
L 80.889345 195.692182 
L 80.990833 195.39259 
L 81.092322 195.904914 
L 81.295298 195.384109 
L 81.396787 195.580303 
L 81.498275 195.258543 
L 81.599764 195.531797 
L 81.701252 195.212628 
L 81.904229 195.379091 
L 82.005717 195.170081 
L 82.107205 195.513492 
L 82.310182 195.068285 
L 82.411671 195.527297 
L 82.513159 195.114625 
L 82.614647 195.528027 
L 82.817624 195.132977 
L 82.919112 195.529158 
L 83.020601 195.2094 
L 83.122089 195.691381 
L 83.325066 195.31652 
L 83.426554 195.630766 
L 83.528043 195.383308 
L 83.629531 195.578701 
L 83.731019 195.368655 
L 83.832508 195.426444 
L 83.933996 195.688672 
L 84.035485 195.369055 
L 84.136973 195.742456 
L 84.238461 195.5248 
L 84.441438 195.742621 
L 84.542926 195.425643 
L 84.644415 195.713503 
L 84.847392 195.35214 
L 84.94888 195.663394 
L 85.050368 195.623133 
L 85.354833 195.405877 
L 85.456322 195.786463 
L 85.55781 195.466116 
L 85.760787 195.586287 
L 85.862275 195.183674 
L 85.963764 195.713031 
L 86.065252 195.371906 
L 86.268229 195.442652 
L 86.369717 195.142754 
L 86.471206 195.64099 
L 86.572694 195.228506 
L 86.674182 195.448164 
L 86.775671 195.359279 
L 86.877159 195.056176 
L 86.978647 195.555991 
L 87.181624 195.305377 
L 87.283113 195.405571 
L 87.384601 195.115473 
L 87.486089 195.524729 
L 87.689066 195.213358 
L 87.790554 195.478743 
L 87.892043 194.873787 
L 87.993531 195.516272 
L 88.196508 195.092221 
L 88.297996 195.426726 
L 88.399485 194.990496 
L 88.500973 195.277013 
L 88.70395 194.921093 
L 88.805438 195.22469 
L 88.906927 194.87619 
L 89.008415 195.254844 
L 89.211392 194.84474 
L 89.31288 195.186996 
L 89.414368 194.847284 
L 89.515857 195.117358 
L 89.718834 194.868157 
L 89.820322 195.137759 
L 89.92181 194.859487 
L 90.023299 195.107981 
L 90.226275 194.755972 
L 90.327764 195.011628 
L 90.429252 194.790721 
L 90.530741 195.004089 
L 90.733717 194.599497 
L 90.835206 195.062961 
L 90.936694 194.718231 
L 91.038182 195.040227 
L 91.241159 194.780449 
L 91.342648 194.928113 
L 91.444136 194.738374 
L 91.545624 194.921941 
L 91.748601 194.566162 
L 91.850089 194.927901 
L 92.053066 194.755642 
L 92.154555 194.984559 
L 92.256043 194.652904 
L 92.357531 195.053397 
L 92.45902 194.602348 
L 92.661996 194.861608 
L 92.763485 194.56628 
L 92.864973 195.099807 
L 92.966462 194.59488 
L 93.06795 194.669371 
L 93.169438 194.921847 
L 93.270927 194.656391 
L 93.372415 195.125839 
L 93.473903 194.626259 
L 93.67688 194.874424 
L 93.778369 194.580462 
L 93.879857 195.002581 
L 94.082834 194.62805 
L 94.184322 194.905214 
L 94.28581 194.691752 
L 94.387299 195.130857 
L 94.590276 194.800403 
L 94.691764 195.125956 
L 94.793252 194.579237 
L 94.894741 195.177785 
L 94.996229 194.81197 
L 95.097717 194.975206 
L 95.300694 194.844151 
L 95.402183 195.065246 
L 95.605159 194.969552 
L 95.706648 195.233477 
L 95.808136 194.858993 
L 95.909624 195.208953 
L 96.112601 194.874588 
L 96.21409 195.410895 
L 96.315578 194.84931 
L 96.417066 195.315083 
L 96.620043 194.980601 
L 96.721531 195.415536 
L 96.82302 194.981025 
L 96.924508 195.309146 
L 97.127485 195.037919 
L 97.228973 195.37796 
L 97.330462 195.250156 
L 97.43195 195.410777 
L 97.634927 195.070688 
L 97.736415 195.486211 
L 97.939392 195.318876 
L 98.04088 195.420813 
L 98.142369 195.061878 
L 98.243857 195.678471 
L 98.345345 195.245963 
L 98.548322 195.578749 
L 98.649811 195.243678 
L 98.751299 195.676657 
L 98.954276 195.483243 
L 99.055764 195.592813 
L 99.157252 195.293621 
L 99.258741 195.620329 
L 99.360229 195.308251 
L 99.461718 195.345709 
L 99.664694 195.515141 
L 99.867671 195.382389 
L 100.070648 195.249497 
L 100.273625 195.318334 
L 100.375113 195.109112 
L 100.679578 195.447481 
L 100.781066 195.160093 
L 100.882555 195.240474 
L 101.085532 195.060464 
L 101.288508 195.128336 
L 101.389997 194.94451 
L 101.592973 195.101079 
L 101.897439 195.009908 
L 102.303392 195.029555 
L 102.40488 195.113046 
L 102.506369 195.007528 
L 102.709346 195.202686 
L 102.810834 195.126027 
L 102.912322 195.229095 
L 103.013811 195.14061 
L 103.115299 195.269333 
L 103.318276 195.11347 
L 103.825718 195.30288 
L 104.231671 195.470427 
L 104.33316 195.144874 
L 104.434648 195.447811 
L 104.536136 195.303916 
L 104.637625 195.67416 
L 104.739113 195.300595 
L 104.840601 195.596865 
L 104.94209 195.389009 
L 105.043578 195.565155 
L 105.145067 195.403969 
L 105.652508 195.743469 
L 105.753997 195.581599 
L 105.855485 195.650248 
L 105.956974 195.554342 
L 106.15995 195.701158 
L 106.362927 195.644995 
L 106.464415 195.746084 
L 106.565904 196.016228 
L 106.768881 195.828444 
L 106.971857 195.772775 
L 107.174834 195.899449 
L 107.377811 195.801729 
L 107.479299 195.872946 
L 107.580788 196.209289 
L 107.783764 196.035781 
L 108.088229 196.009349 
L 108.189718 196.149922 
L 108.392695 195.953162 
L 108.595671 196.272543 
L 109.103113 196.171666 
L 109.204602 196.238808 
L 109.407578 196.093075 
L 109.610555 196.305855 
L 109.712043 196.209854 
L 109.813532 196.288798 
L 109.91502 196.141629 
L 110.117997 196.178215 
L 113.162648 196.588084 
L 113.264137 196.605847 
L 113.365625 196.443506 
L 113.67009 196.639206 
L 113.974555 196.488338 
L 114.27902 196.729364 
L 114.380509 196.575174 
L 114.786462 196.74741 
L 114.887951 196.612938 
L 115.192416 196.889019 
L 115.598369 196.770285 
L 115.801346 196.960943 
L 115.902834 196.751061 
L 116.105811 196.88214 
L 116.207299 197.055483 
L 116.511765 196.852386 
L 116.81623 197.149151 
L 116.917718 196.819357 
L 117.019206 196.930694 
L 117.120695 196.811418 
L 117.222183 197.048604 
L 117.323672 196.869324 
L 117.42516 196.925605 
L 117.526648 196.726325 
L 117.831113 196.786399 
L 118.440044 196.713768 
L 118.541532 196.534583 
L 118.845997 196.634376 
L 119.048974 196.62076 
L 119.251951 196.701471 
L 119.454927 196.680834 
L 119.759393 196.650891 
L 120.368323 196.819333 
L 120.469811 196.724605 
L 120.672788 196.757587 
L 120.875765 196.835848 
L 120.977253 196.591429 
L 121.078741 196.992652 
L 121.281718 196.730612 
L 121.383207 196.941224 
L 121.484695 196.725948 
L 121.586183 197.03494 
L 121.687672 196.729458 
L 121.890648 197.02978 
L 121.992137 196.637839 
L 122.093625 197.086297 
L 122.296602 196.84791 
L 122.39809 197.078311 
L 122.499579 196.821736 
L 122.601067 197.156595 
L 122.702555 196.857781 
L 122.804044 196.911164 
L 122.905532 197.136146 
L 123.007021 196.801405 
L 123.108509 197.185313 
L 123.311486 196.882234 
L 123.412974 197.266 
L 123.514462 196.928833 
L 123.615951 197.218106 
L 123.717439 196.938421 
L 123.818928 197.01475 
L 123.920416 197.261736 
L 124.021904 196.954323 
L 124.123393 197.290925 
L 124.326369 197.025351 
L 124.427858 197.309253 
L 124.529346 197.134191 
L 124.630835 197.333024 
L 124.732323 197.070819 
L 124.833811 197.141023 
L 124.9353 197.384452 
L 125.036788 197.005185 
L 125.138276 197.501137 
L 125.341253 197.184206 
L 125.442742 197.474963 
L 125.54423 197.197233 
L 125.645718 197.470181 
L 125.747207 197.200814 
L 125.950183 197.546298 
L 126.051672 197.15471 
L 126.15316 197.61669 
L 126.356137 197.325839 
L 126.457625 197.622886 
L 126.559114 197.433076 
L 126.660602 197.573555 
L 126.863579 197.419695 
L 126.965067 197.790151 
L 127.066556 197.440827 
L 127.168044 197.820753 
L 127.371021 197.527239 
L 127.472509 197.907283 
L 127.573997 197.687012 
L 127.675486 197.825818 
L 127.878463 197.667765 
L 127.979951 197.979772 
L 128.081439 197.741668 
L 128.182928 198.034169 
L 128.385904 197.869613 
L 128.487393 198.118955 
L 128.69037 198.040671 
L 128.791858 198.03497 
L 128.893346 197.854936 
L 128.994835 198.217264 
L 129.096323 198.180136 
L 129.502277 198.290131 
L 129.603765 198.360476 
L 129.705253 198.229091 
L 130.111207 198.531628 
L 130.314184 198.418736 
L 130.51716 198.579969 
L 130.923114 198.666947 
L 131.126091 198.841067 
L 131.227579 198.744666 
L 131.633532 198.950307 
L 131.836509 198.889197 
L 131.937998 198.922485 
L 132.039486 199.160448 
L 132.242463 199.028662 
L 132.952881 199.138303 
L 133.05437 199.321587 
L 133.358835 199.173617 
L 133.6633 199.290561 
L 133.764788 199.143203 
L 134.069253 199.347172 
L 134.475207 199.243609 
L 135.287114 199.357655 
L 135.490091 199.352402 
L 135.997533 199.386821 
L 136.099021 199.568738 
L 136.301998 199.44574 
L 136.606463 199.454904 
L 136.707951 199.545345 
L 136.80944 199.420862 
L 137.113905 199.641251 
L 137.316881 199.556229 
L 137.621347 199.51168 
L 137.722835 199.694682 
L 137.824323 199.500702 
L 138.230277 199.679887 
L 138.63623 199.649167 
L 138.737719 199.770469 
L 138.839207 199.603628 
L 139.245161 199.798009 
L 139.651114 199.777725 
L 139.752602 199.905482 
L 139.854091 199.779398 
L 140.158556 200.042851 
L 140.260044 199.920489 
L 140.463021 199.91467 
L 140.970463 200.111265 
L 141.274928 200.388358 
L 141.78237 200.876841 
L 141.883858 200.773067 
L 142.188323 201.362898 
L 142.289812 201.271115 
L 143.304696 202.078461 
L 143.812137 202.308626 
L 143.913626 202.209657 
L 144.218091 202.477021 
L 144.421068 202.471579 
L 144.725533 202.560371 
L 144.827021 202.657855 
L 144.92851 202.571467 
L 145.232975 202.873108 
L 145.435951 202.800101 
L 145.53744 202.934242 
L 145.638928 202.824013 
L 145.841905 203.020396 
L 145.943393 202.951699 
L 146.349347 203.206436 
L 146.653812 203.214658 
L 146.856789 203.43679 
L 146.958277 203.34602 
L 147.262742 203.644033 
L 147.364231 203.590485 
L 147.465719 203.706298 
L 147.567207 203.60601 
L 147.871672 203.893092 
L 148.074649 203.858768 
L 148.277626 204.102479 
L 148.480603 204.023229 
L 148.988044 204.174427 
L 149.596975 205.076572 
L 150.205905 205.51464 
L 150.408882 205.661149 
L 150.713347 205.856637 
L 155.280324 208.582413 
L 155.584789 208.852015 
L 155.686277 208.789845 
L 155.990742 209.08562 
L 156.193719 209.133444 
L 156.599673 209.513676 
L 156.701161 209.494947 
L 156.904138 209.695217 
L 157.005626 209.720896 
L 157.208603 209.929529 
L 157.716045 210.355111 
L 157.817533 210.262503 
L 158.121998 210.746109 
L 158.223487 210.651994 
L 159.847301 211.9339 
L 159.948789 212.21302 
L 160.050277 212.154312 
L 160.557719 212.675471 
L 160.659208 212.600343 
L 160.963673 213.066187 
L 161.065161 213.066469 
L 161.166649 213.23715 
L 161.268138 213.170927 
L 161.572603 213.661507 
L 161.674091 213.514361 
L 161.978556 214.059267 
L 162.283022 214.218804 
L 162.891952 214.889747 
L 162.99344 215.225878 
L 163.094929 215.173484 
L 163.60237 215.938731 
L 163.703859 215.938826 
L 163.906836 216.390251 
L 164.008324 216.740824 
L 164.109812 216.693707 
L 164.617254 217.629752 
L 164.718743 217.560114 
L 165.023208 218.381972 
L 165.124696 218.361452 
L 166.444045 220.200561 
L 167.255952 221.222948 
L 167.458929 221.317794 
L 167.763394 221.693103 
L 167.864882 221.680711 
L 168.270836 222.260413 
L 168.372324 222.230705 
L 168.676789 222.667949 
L 168.778278 222.585259 
L 169.082743 223.0916 
L 169.184231 222.988202 
L 169.691673 223.43428 
L 169.793161 223.217142 
L 170.097626 223.760022 
L 170.199115 223.535887 
L 170.402092 223.606986 
L 170.50358 223.58013 
L 170.706557 223.806196 
L 170.808045 223.714036 
L 171.213999 223.89626 
L 172.025906 223.936945 
L 172.127394 224.204757 
L 172.330371 224.009529 
L 172.431859 223.906013 
L 172.533347 224.040579 
L 172.736324 223.933152 
L 173.040789 224.009811 
L 173.142278 224.371103 
L 173.345254 224.294491 
L 173.548231 224.39035 
L 174.360138 225.269384 
L 174.563115 225.430523 
L 176.085441 227.694932 
L 176.288417 228.156535 
L 177.100324 229.39719 
L 177.303301 229.731861 
L 177.607766 230.300254 
L 177.709255 230.368927 
L 178.01372 231.003331 
L 178.115208 231.161878 
L 178.318185 231.627793 
L 178.62265 231.939635 
L 179.536045 233.362467 
L 179.739022 233.657277 
L 180.144976 234.305957 
L 180.449441 234.809141 
L 181.058371 235.614508 
L 181.870278 235.944796 
L 181.971766 235.914076 
L 182.276231 236.153477 
L 182.98665 236.279514 
L 183.392604 236.484472 
L 184.103022 236.611687 
L 184.204511 236.646059 
L 184.305999 236.806939 
L 184.508976 236.724344 
L 185.219394 236.936652 
L 185.320883 236.99199 
L 185.523859 236.957124 
L 186.031301 237.085305 
L 186.335766 237.141751 
L 186.640232 237.178031 
L 187.553627 237.334364 
L 187.756604 237.323033 
L 187.95958 237.351798 
L 188.061069 237.289297 
L 188.264046 237.378678 
L 188.467022 237.411118 
L 188.568511 237.287318 
L 188.669999 237.460378 
L 188.771487 237.406217 
L 188.872976 237.478589 
L 188.974464 237.365155 
L 189.278929 237.467658 
L 189.380418 237.376016 
L 189.481906 237.503608 
L 189.786371 237.420023 
L 189.989348 237.484408 
L 190.090836 237.535647 
L 190.293813 237.466056 
L 190.49679 237.518167 
L 190.598278 237.420023 
L 190.902743 237.581256 
L 191.207208 237.481416 
L 191.308697 237.564601 
L 191.511674 237.472393 
L 191.816139 237.539393 
L 191.917627 237.589996 
L 192.019115 237.473995 
L 192.120604 237.584931 
L 192.425069 237.440377 
L 192.932511 237.424781 
L 193.135488 237.38624 
L 193.338464 237.337239 
L 193.947395 237.406453 
L 194.25186 237.37366 
L 194.962278 237.44344 
L 195.368232 237.413898 
L 196.890557 237.417573 
L 196.992046 237.495881 
L 197.195023 237.450154 
L 197.499488 237.365344 
L 198.108418 237.418421 
L 198.920325 237.356179 
L 199.22479 237.389868 
L 199.427767 237.309934 
L 200.036697 237.362352 
L 200.341162 237.272594 
L 201.254558 237.35797 
L 201.356046 237.269131 
L 201.559023 237.360915 
L 201.863488 237.330784 
L 202.167953 237.425441 
L 202.37093 237.421625 
L 202.573906 237.45536 
L 202.776883 237.42537 
L 203.081348 237.534752 
L 203.385813 237.509545 
L 204.19772 237.573341 
L 204.400697 237.591999 
L 204.705162 237.611505 
L 204.806651 237.57287 
L 205.009627 237.718837 
L 205.314093 237.609079 
L 205.517069 237.694337 
L 206.430465 237.743173 
L 208.663209 237.914607 
L 208.866186 237.882026 
L 209.678093 237.980477 
L 209.881069 237.877527 
L 210.287023 237.96997 
L 210.794465 237.90198 
L 210.997442 237.996332 
L 211.200418 238.024413 
L 212.215302 238.020597 
L 213.331674 238.163855 
L 213.433163 238.017605 
L 213.839116 238.119448 
L 214.042093 238.073815 
L 214.346558 238.165693 
L 214.448046 238.049432 
L 214.549535 238.179969 
L 214.651023 238.102839 
L 214.854 238.160298 
L 214.955488 238.182655 
L 215.056977 238.077207 
L 215.259953 238.164633 
L 217.391209 238.22301 
L 217.492698 238.180087 
L 217.695674 238.287584 
L 218.000139 238.234318 
L 218.101628 238.30007 
L 218.304605 238.244755 
L 218.507581 238.280493 
L 218.913535 238.237169 
L 219.218 238.381865 
L 219.420977 238.256534 
L 219.82693 238.287419 
L 219.928419 238.244072 
L 220.131395 238.38144 
L 220.334372 238.307349 
L 221.349256 238.34231 
L 221.450744 238.251657 
L 221.755209 238.309611 
L 221.958186 238.260327 
L 222.668605 238.260021 
L 223.074558 238.250597 
L 223.277535 238.162395 
L 223.379023 238.112474 
L 223.480512 238.282472 
L 223.683488 238.176318 
L 224.393907 238.127434 
L 224.495395 238.202232 
L 224.799861 238.041375 
L 226.017721 238.059939 
L 226.423675 237.986272 
L 226.72814 238.012893 
L 226.829628 238.090754 
L 227.134093 237.960052 
L 227.33707 237.986461 
L 227.438558 238.047218 
L 227.540047 237.858609 
L 227.844512 238.069315 
L 227.946 237.890507 
L 228.148977 237.946011 
L 228.757907 237.912063 
L 228.960884 237.912723 
L 229.265349 237.933925 
L 229.671303 237.91343 
L 229.874279 237.936022 
L 230.686186 237.882309 
L 230.787675 238.00215 
L 230.990651 237.827983 
L 231.396605 237.910061 
L 231.599582 237.87199 
L 231.70107 237.841223 
L 231.802558 237.953337 
L 232.107024 237.833001 
L 232.411489 237.847136 
L 232.614465 237.891591 
L 233.527861 237.821411 
L 233.832326 237.944055 
L 234.035303 237.842425 
L 234.948698 237.916586 
L 235.151675 237.850811 
L 235.354652 237.957484 
L 235.45614 237.745176 
L 235.659117 237.915385 
L 235.760605 237.988039 
L 236.06507 237.860918 
L 236.674 237.939038 
L 236.775489 238.013812 
L 236.978466 237.895455 
L 238.297814 238.007263 
L 238.399303 237.916822 
L 238.703768 238.061565 
L 238.906745 238.023471 
L 239.21121 238.031127 
L 240.530559 238.042765 
L 240.733535 238.184587 
L 241.139489 238.13158 
L 241.240977 238.226568 
L 241.342466 238.08477 
L 241.646931 238.279386 
L 241.849908 238.211961 
L 242.154373 238.219641 
L 242.255861 238.256416 
L 242.357349 238.165599 
L 242.661815 238.262848 
L 242.864791 238.314864 
L 243.067768 238.279645 
L 244.18414 238.400334 
L 244.285629 238.284898 
L 244.590094 238.447875 
L 244.894559 238.382736 
L 245.199024 238.475368 
L 245.300512 238.3196 
L 245.604977 238.541355 
L 245.909443 238.430348 
L 249.461536 238.597612 
L 249.563024 238.726265 
L 249.766001 238.621642 
L 250.983861 238.701976 
L 251.389815 238.626707 
L 251.491303 238.787422 
L 251.69428 238.729327 
L 251.897257 238.631631 
L 252.100233 238.731565 
L 252.30321 238.680538 
L 253.013629 238.744145 
L 253.216606 238.695804 
L 254.332978 238.715381 
L 254.535954 238.807329 
L 254.84042 238.717972 
L 255.144885 238.710716 
L 255.347861 238.754252 
L 255.44935 238.8503 
L 255.753815 238.730058 
L 255.855303 238.71849 
L 256.05828 238.836094 
L 256.261257 238.889242 
L 256.464234 239.032312 
L 256.66721 238.971154 
L 256.971675 239.116321 
L 257.276141 239.050923 
L 257.377629 239.376947 
L 257.580606 239.255692 
L 258.088048 239.338736 
L 258.494001 239.495399 
L 258.696978 239.496058 
L 258.899955 239.58346 
L 259.20442 239.646526 
L 260.219303 239.846466 
L 260.320792 240.002682 
L 260.523769 239.953492 
L 260.726745 239.919568 
L 261.234187 240.105985 
L 261.741629 240.147848 
L 261.843117 240.299282 
L 261.944606 240.164598 
L 262.452048 240.421503 
L 262.858001 240.416296 
L 263.060978 240.576988 
L 263.974373 240.786092 
L 264.075862 240.775208 
L 264.17735 241.004196 
L 264.278838 240.858181 
L 264.380327 240.978117 
L 264.481815 240.896934 
L 264.78628 241.090042 
L 264.887769 240.983888 
L 265.192234 241.235963 
L 265.395211 241.175842 
L 265.699676 241.275117 
L 265.801164 241.245716 
L 266.207118 241.496472 
L 266.410094 241.429001 
L 266.714559 241.626797 
L 266.816048 241.505283 
L 267.120513 241.806406 
L 267.32349 241.719122 
L 267.830932 241.85602 
L 267.93242 242.063239 
L 268.033908 241.885397 
L 268.236885 242.025664 
L 268.338373 241.973647 
L 268.54135 242.051342 
L 268.642839 241.907566 
L 268.744327 242.116364 
L 268.947304 242.036571 
L 269.048792 241.98479 
L 269.251769 242.103383 
L 269.454746 241.925776 
L 269.657722 242.068116 
L 269.860699 242.034145 
L 269.962187 241.920334 
L 270.266653 242.037608 
L 270.368141 241.965401 
L 270.571118 242.030116 
L 270.672606 241.923562 
L 270.875583 242.037584 
L 271.07856 241.99909 
L 271.180048 242.053486 
L 271.281536 241.851544 
L 271.586001 242.079471 
L 271.68749 241.950206 
L 271.788978 242.087929 
L 271.991955 241.876846 
L 272.29642 242.087834 
L 272.397908 241.957839 
L 272.499397 242.039705 
L 272.600885 241.854371 
L 272.803862 241.969925 
L 273.108327 242.020081 
L 273.209815 242.069035 
L 273.311304 241.834393 
L 273.615769 241.976898 
L 273.717257 241.928344 
L 273.818746 242.020269 
L 273.920234 241.811353 
L 274.224699 242.036359 
L 274.326188 241.906011 
L 274.427676 242.012825 
L 274.732141 241.91607 
L 274.935118 241.946908 
L 275.036606 241.895127 
L 275.138095 242.003684 
L 275.239583 241.860378 
L 275.544048 241.932043 
L 275.645536 241.830082 
L 275.747025 242.041354 
L 275.950002 241.808503 
L 276.152978 242.056549 
L 276.254467 241.861132 
L 276.355955 241.957674 
L 276.558932 241.831566 
L 276.761909 241.895951 
L 276.863397 241.844806 
L 277.066374 241.938003 
L 277.26935 241.7869 
L 277.472327 241.908437 
L 277.979769 241.822873 
L 278.081257 241.921889 
L 278.182746 241.795286 
L 278.385723 241.867917 
L 278.588699 241.818821 
L 278.690188 241.884031 
L 278.893164 241.810081 
L 278.994653 241.908649 
L 279.19763 241.755685 
L 279.299118 241.740725 
L 279.400606 241.943115 
L 279.80656 241.694009 
L 280.009537 241.845937 
L 280.111025 241.717497 
L 280.314002 241.89442 
L 280.516978 241.75168 
L 280.719955 241.815664 
L 280.821444 241.708191 
L 280.922932 241.869118 
L 281.125909 241.64979 
L 281.328885 241.877576 
L 281.430374 241.731231 
L 281.633351 241.761032 
L 281.734839 241.656952 
L 281.937816 241.739029 
L 282.140792 241.785038 
L 282.648234 241.727886 
L 282.749723 241.627268 
L 282.851211 241.784214 
L 282.952699 241.639024 
L 283.257165 241.860425 
L 283.460141 241.658035 
L 284.17056 241.689085 
L 284.373537 241.683196 
L 284.678002 241.504128 
L 284.77949 241.710099 
L 284.982467 241.600859 
L 285.185444 241.739783 
L 285.38842 241.555839 
L 285.591397 241.602273 
L 287.92563 241.440898 
L 288.027118 241.614217 
L 288.128607 241.50017 
L 288.230095 241.565851 
L 288.433072 241.402733 
L 288.636048 241.494705 
L 288.839025 241.446622 
L 288.940514 241.627551 
L 289.244979 241.349279 
L 289.346467 241.510065 
L 289.447955 241.405536 
L 289.549444 241.501513 
L 289.752421 241.316745 
L 289.955397 241.508015 
L 290.158374 241.443583 
L 290.259862 241.440521 
L 290.361351 241.296791 
L 290.665816 241.36405 
L 290.868793 241.48547 
L 290.970281 241.30023 
L 291.173258 241.383651 
L 291.376235 241.388951 
L 291.6807 241.273256 
L 291.782188 241.46561 
L 291.883676 241.283151 
L 292.086653 241.368432 
L 292.28963 241.251417 
L 292.391118 241.347324 
L 292.594095 241.24475 
L 292.797072 241.325603 
L 292.89856 241.205714 
L 293.101537 241.279452 
L 293.203025 241.240463 
L 293.304514 241.372248 
L 293.50749 241.123472 
L 293.710467 241.362472 
L 293.811956 241.231864 
L 293.913444 241.306191 
L 294.116421 241.126087 
L 294.319397 241.275447 
L 294.522374 241.196526 
L 294.623862 241.248119 
L 294.826839 241.156666 
L 294.928328 241.23283 
L 295.029816 241.141824 
L 295.232793 241.174217 
L 295.334281 240.987351 
L 295.638746 241.216622 
L 296.0447 241.076049 
L 296.146188 241.157632 
L 296.349165 241.112918 
L 296.755118 241.109125 
L 296.856607 240.914768 
L 297.059583 241.105002 
L 297.161072 240.987257 
L 297.364049 241.044339 
L 297.567025 241.026906 
L 297.87149 241.047001 
L 298.175956 240.957574 
L 298.480421 241.07619 
L 298.683397 240.842915 
L 298.987863 240.944193 
L 299.292328 240.787623 
L 299.495304 240.966644 
L 299.698281 240.895733 
L 300.205723 240.855896 
L 300.307211 240.959576 
L 300.611677 240.779025 
L 300.916142 240.861361 
L 301.119118 240.625895 
L 301.220607 240.861055 
L 301.829537 240.664955 
L 302.134002 240.814103 
L 302.641444 240.666015 
L 302.742932 240.774619 
L 302.945909 240.555668 
L 303.148886 240.684579 
L 303.250374 240.59706 
L 303.351863 240.714027 
L 303.554839 240.569096 
L 303.656328 240.625872 
L 303.859305 240.518775 
L 304.062281 240.628816 
L 304.265258 240.570769 
L 304.7727 240.432339 
L 304.975677 240.595175 
L 305.280142 240.362183 
L 305.483119 240.492036 
L 305.686095 240.454579 
L 306.092049 240.447464 
L 306.599491 240.336504 
L 306.700979 240.450032 
L 306.802467 240.357989 
L 306.903956 240.42579 
L 307.106933 240.247194 
L 307.309909 240.446474 
L 307.411398 240.301732 
L 307.614374 240.308564 
L 307.715863 240.202622 
L 307.817351 240.331203 
L 308.020328 240.239019 
L 308.121816 240.347364 
L 308.426281 240.224955 
L 308.730747 240.249456 
L 308.832235 240.065842 
L 309.1367 240.267784 
L 309.441165 240.070624 
L 309.644142 240.189782 
L 309.74563 240.093287 
L 309.847119 240.202292 
L 310.151584 240.142548 
L 310.253072 240.17414 
L 310.354561 240.059033 
L 310.456049 240.17103 
L 310.760514 240.10403 
L 310.963491 240.098823 
L 311.064979 240.159981 
L 311.267956 239.92786 
L 311.470933 240.046265 
L 312.688793 239.942089 
L 312.89177 239.993117 
L 313.094747 239.874948 
L 313.399212 240.008642 
L 313.5007 239.794284 
L 313.805165 239.917023 
L 314.10963 239.739652 
L 314.312607 239.900909 
L 314.515584 239.818643 
L 314.921537 239.811599 
L 315.023026 239.743657 
L 315.124514 239.8647 
L 315.428979 239.738498 
L 315.631956 239.898082 
L 315.834933 239.619552 
L 316.139398 239.745636 
L 316.443863 239.549277 
L 316.545351 239.789313 
L 316.748328 239.719628 
L 316.849817 239.752091 
L 316.951305 239.596087 
L 317.154282 239.642168 
L 317.458747 239.764813 
L 317.560235 239.539382 
L 317.661724 239.693572 
L 317.763212 239.58452 
L 317.966189 239.737343 
L 318.169165 239.509463 
L 318.372142 239.778594 
L 318.473631 239.573613 
L 318.575119 239.747638 
L 318.778096 239.52619 
L 318.981072 239.619434 
L 319.387026 239.609893 
L 319.792979 239.574696 
L 319.995956 239.475987 
L 320.097445 239.620871 
L 320.198933 239.568406 
L 320.300421 239.692653 
L 320.503398 239.493302 
L 320.807863 239.571516 
L 320.909352 239.544141 
L 321.01084 239.390658 
L 321.213817 239.635783 
L 321.416793 239.397749 
L 321.61977 239.578678 
L 321.721259 239.478696 
L 321.822747 239.535425 
L 321.924235 239.400506 
L 322.127212 239.456928 
L 322.431677 239.576864 
L 322.533166 239.319889 
L 322.736142 239.507084 
L 322.837631 239.423593 
L 322.939119 239.565886 
L 323.040607 239.299393 
L 323.345073 239.562823 
L 323.649538 239.39219 
L 323.954003 239.354732 
L 324.055491 239.505317 
L 324.15698 239.340455 
L 324.359956 239.434006 
L 324.76591 239.308887 
L 324.968887 239.472971 
L 325.070375 239.314989 
L 325.171863 239.461475 
L 325.273352 239.273055 
L 325.37484 239.410848 
L 325.476328 239.314329 
L 325.780794 239.390423 
L 325.98377 239.292349 
L 326.085259 239.380269 
L 326.186747 239.297768 
L 326.288235 239.38385 
L 326.389724 239.175547 
L 326.592701 239.498344 
L 326.795677 239.210908 
L 326.897166 239.372471 
L 327.100142 239.271359 
L 327.201631 239.358666 
L 327.404608 239.220143 
L 327.607584 239.39643 
L 327.709073 239.14763 
L 327.810561 239.198163 
L 327.912049 239.47038 
L 328.013538 239.15432 
L 328.216515 239.328982 
L 328.318003 239.160469 
L 328.52098 239.198634 
L 328.622468 239.156182 
L 328.825445 239.452546 
L 329.028422 239.18775 
L 329.231398 239.230343 
L 329.332887 239.10685 
L 329.535863 239.256988 
L 329.637352 239.080229 
L 329.73884 239.376665 
L 329.941817 239.028071 
L 330.043305 239.254397 
L 330.34777 239.129678 
L 330.449259 239.345944 
L 330.550747 239.035327 
L 330.753724 239.195783 
L 330.956701 239.123388 
L 331.159677 239.214889 
L 331.261166 238.979988 
L 331.464143 239.194205 
L 331.565631 239.033961 
L 331.768608 239.210413 
L 331.870096 238.973227 
L 332.073073 239.257153 
L 332.174561 238.947219 
L 332.377538 239.102869 
L 332.580515 239.122776 
L 332.682003 239.157171 
L 332.88498 238.933037 
L 332.986468 239.191331 
L 333.189445 238.884341 
L 333.392422 239.229613 
L 333.49391 238.926982 
L 333.696887 239.125014 
L 333.899864 238.967903 
L 334.204329 239.033772 
L 334.305817 239.195194 
L 334.508794 238.825563 
L 334.610282 239.103199 
L 334.914747 238.9655 
L 335.016236 239.045551 
L 335.117724 238.866366 
L 335.320701 239.101997 
L 335.422189 238.820663 
L 335.625166 239.00767 
L 335.828143 238.883564 
L 335.929631 239.034856 
L 336.132608 238.876897 
L 336.234096 239.010237 
L 336.437073 238.746831 
L 336.64005 238.978339 
L 336.741538 238.777056 
L 336.944515 239.022488 
L 337.147492 238.752532 
L 337.24898 238.912235 
L 337.451957 238.907546 
L 337.654933 238.864811 
L 337.756422 238.731424 
L 337.959399 238.92227 
L 338.060887 238.667675 
L 338.263864 238.909266 
L 338.46684 238.803395 
L 338.568329 238.976879 
L 338.771306 238.738468 
L 338.872794 238.874659 
L 338.974282 238.655872 
L 339.177259 238.88698 
L 339.278747 238.719715 
L 339.481724 238.884483 
L 339.684701 238.640229 
L 339.786189 238.786197 
L 339.989166 238.650336 
L 340.192143 238.809331 
L 340.293631 238.644329 
L 340.496608 238.841206 
L 340.699585 238.545996 
L 340.801073 238.76417 
L 340.902561 238.647815 
L 341.105538 238.784925 
L 341.308515 238.504085 
L 341.511492 238.693071 
L 341.61298 238.520011 
L 342.120422 238.745465 
L 342.323399 238.5108 
L 342.424887 238.658817 
L 342.627864 238.483118 
L 342.830841 238.749799 
L 342.932329 238.46552 
L 343.135306 238.667746 
L 343.338282 238.467311 
L 343.439771 238.57681 
L 343.541259 238.443729 
L 343.744236 238.687299 
L 343.947213 238.414446 
L 344.150189 238.52616 
L 344.251678 238.351474 
L 344.454655 238.563382 
L 344.556143 238.384574 
L 344.75912 238.610946 
L 344.962096 238.321579 
L 345.063585 238.553841 
L 345.266562 238.252788 
L 345.36805 238.436214 
L 345.469538 238.509504 
L 345.571027 238.367989 
L 345.774003 238.566162 
L 345.97698 238.268313 
L 346.078469 238.493955 
L 346.179957 238.270928 
L 346.484422 238.479538 
L 346.58591 238.19719 
L 346.788887 238.399156 
L 346.991864 238.234766 
L 347.093352 238.363348 
L 347.194841 238.195824 
L 347.397817 238.477629 
L 347.600794 238.142182 
L 347.702283 238.396918 
L 347.905259 238.100719 
L 348.108236 238.344854 
L 348.209724 238.16508 
L 348.412701 238.436708 
L 348.615678 238.107409 
L 348.717166 238.300211 
L 349.021631 238.218416 
L 349.12312 238.325089 
L 349.224608 238.09775 
L 349.427585 238.336868 
L 349.630562 238.02512 
L 349.73205 238.2624 
L 349.935027 238.076194 
L 350.036515 238.29696 
L 350.239492 238.019183 
L 350.34098 238.146328 
L 350.442469 238.257052 
L 350.645445 238.00142 
L 350.746934 238.139967 
L 350.848422 238.068915 
L 351.051399 238.154832 
L 351.152887 238.142606 
L 351.254376 237.898117 
L 351.457352 238.172737 
L 351.558841 237.873145 
L 351.761818 238.131863 
L 351.964794 238.040079 
L 352.066283 238.106655 
L 352.269259 237.898282 
L 352.472236 238.073579 
L 352.675213 237.93647 
L 352.776701 238.104488 
L 352.979678 237.96898 
L 353.081166 238.123712 
L 353.284143 237.907611 
L 353.48712 238.001632 
L 353.588608 237.81538 
L 353.791585 238.003375 
L 353.994562 237.898446 
L 354.09605 238.082225 
L 354.299027 237.795355 
L 354.502004 237.990607 
L 354.603492 237.774647 
L 354.806469 237.902711 
L 354.907957 237.819573 
L 355.110934 237.975058 
L 355.313911 237.687575 
L 355.415399 238.046746 
L 355.618376 237.716693 
L 355.719864 237.839032 
L 356.328794 237.987874 
L 356.531771 237.720157 
L 356.63326 237.881956 
L 356.937725 237.772338 
L 357.039213 237.825486 
L 357.140701 237.678458 
L 357.343678 237.930674 
L 357.546655 237.650895 
L 357.749632 237.824897 
L 357.85112 237.577204 
L 358.054097 237.799925 
L 358.155585 237.670166 
L 358.358562 237.894512 
L 358.561539 237.571362 
L 358.663027 237.841388 
L 358.866004 237.549994 
L 359.068981 237.686327 
L 359.271957 237.701404 
L 359.373446 237.911993 
L 359.576422 237.524057 
L 359.677911 237.788664 
L 359.880888 237.670354 
L 360.185353 237.618243 
L 360.388329 237.691368 
L 360.692795 237.610893 
L 360.794283 237.704796 
L 360.895771 237.582929 
L 360.99726 237.695562 
L 361.200236 237.632684 
L 361.504702 237.602318 
L 361.707678 237.561302 
L 362.012143 237.671508 
L 362.113632 237.509827 
L 362.316609 237.557981 
L 362.519585 237.605262 
L 362.621074 237.43225 
L 362.925539 237.665807 
L 363.128516 237.476822 
L 363.230004 237.579395 
L 363.331492 237.516212 
L 363.432981 237.647408 
L 363.635957 237.511194 
L 363.940423 237.625287 
L 364.143399 237.470226 
L 364.447864 237.640953 
L 364.650841 237.479861 
L 364.75233 237.605239 
L 365.056795 237.367205 
L 365.259771 237.695609 
L 365.36126 237.488059 
L 365.462748 237.567286 
L 365.564237 237.380916 
L 365.767213 237.512984 
L 365.868702 237.461438 
L 365.97019 237.61518 
L 366.071678 237.354601 
L 366.173167 237.513385 
L 366.274655 237.434629 
L 366.376144 237.548369 
L 366.477632 237.422685 
L 366.680609 237.524622 
L 367.289539 237.458753 
L 367.391027 237.56241 
L 367.594004 237.465019 
L 367.796981 237.512796 
L 368.101446 237.42285 
L 368.405911 237.52302 
L 368.608888 237.431566 
L 368.710376 237.424781 
L 368.811865 237.581727 
L 369.014841 237.227904 
L 369.11633 237.566556 
L 369.319306 237.47072 
L 369.420795 237.46436 
L 369.522283 237.343034 
L 369.623772 237.520381 
L 369.72526 237.359407 
L 369.928237 237.449848 
L 370.029725 237.315518 
L 370.232702 237.516047 
L 370.33419 237.365461 
L 370.537167 237.418256 
L 370.740144 237.51216 
L 370.841632 237.332574 
L 371.044609 237.418468 
L 371.146097 237.385203 
L 371.247586 237.580809 
L 371.349074 237.312691 
L 371.552051 237.433427 
L 371.653539 237.305058 
L 371.755027 237.607689 
L 371.958004 237.328027 
L 372.059493 237.517248 
L 372.160981 237.451991 
L 372.262469 237.529522 
L 372.363958 237.234972 
L 372.566934 237.549335 
L 372.668423 237.339971 
L 372.769911 237.498401 
L 372.8714 237.299875 
L 373.175865 237.432838 
L 373.48033 237.349701 
L 373.581818 237.532538 
L 373.581818 237.532538 
" style="fill:none;stroke:#081d58;stroke-dasharray:5.55,2.4;stroke-dashoffset:0;stroke-width:1.5;"/>
    <defs>
     <path d="M -0 4.242641 
L 4.242641 0 
L 0 -4.242641 
L -4.242641 -0 
z
" id="ma524c18082" style="stroke:#081d58;stroke-linejoin:miter;"/>
    </defs>
    <g clip-path="url(#p2ba3ca8e69)">
     <use style="fill:#081d58;stroke:#081d58;stroke-linejoin:miter;" x="69.218182" xlink:href="#ma524c18082" y="196.926218"/>
     <use style="fill:#081d58;stroke:#081d58;stroke-linejoin:miter;" x="77.337252" xlink:href="#ma524c18082" y="196.641043"/>
     <use style="fill:#081d58;stroke:#081d58;stroke-linejoin:miter;" x="85.456322" xlink:href="#ma524c18082" y="195.786463"/>
     <use style="fill:#081d58;stroke:#081d58;stroke-linejoin:miter;" x="93.575392" xlink:href="#ma524c18082" y="194.845164"/>
     <use style="fill:#081d58;stroke:#081d58;stroke-linejoin:miter;" x="101.694462" xlink:href="#ma524c18082" y="195.106851"/>
     <use style="fill:#081d58;stroke:#081d58;stroke-linejoin:miter;" x="109.813532" xlink:href="#ma524c18082" y="196.288798"/>
     <use style="fill:#081d58;stroke:#081d58;stroke-linejoin:miter;" x="117.932602" xlink:href="#ma524c18082" y="196.770944"/>
     <use style="fill:#081d58;stroke:#081d58;stroke-linejoin:miter;" x="126.051672" xlink:href="#ma524c18082" y="197.15471"/>
     <use style="fill:#081d58;stroke:#081d58;stroke-linejoin:miter;" x="134.170742" xlink:href="#ma524c18082" y="199.294778"/>
     <use style="fill:#081d58;stroke:#081d58;stroke-linejoin:miter;" x="142.289812" xlink:href="#ma524c18082" y="201.271115"/>
     <use style="fill:#081d58;stroke:#081d58;stroke-linejoin:miter;" x="150.408882" xlink:href="#ma524c18082" y="205.661149"/>
     <use style="fill:#081d58;stroke:#081d58;stroke-linejoin:miter;" x="158.527952" xlink:href="#ma524c18082" y="210.816007"/>
     <use style="fill:#081d58;stroke:#081d58;stroke-linejoin:miter;" x="166.647022" xlink:href="#ma524c18082" y="220.574763"/>
     <use style="fill:#081d58;stroke:#081d58;stroke-linejoin:miter;" x="174.766092" xlink:href="#ma524c18082" y="225.762084"/>
     <use style="fill:#081d58;stroke:#081d58;stroke-linejoin:miter;" x="182.885162" xlink:href="#ma524c18082" y="236.304722"/>
     <use style="fill:#081d58;stroke:#081d58;stroke-linejoin:miter;" x="191.004232" xlink:href="#ma524c18082" y="237.502807"/>
     <use style="fill:#081d58;stroke:#081d58;stroke-linejoin:miter;" x="199.123302" xlink:href="#ma524c18082" y="237.353046"/>
     <use style="fill:#081d58;stroke:#081d58;stroke-linejoin:miter;" x="207.242372" xlink:href="#ma524c18082" y="237.798606"/>
     <use style="fill:#081d58;stroke:#081d58;stroke-linejoin:miter;" x="215.361442" xlink:href="#ma524c18082" y="238.171936"/>
     <use style="fill:#081d58;stroke:#081d58;stroke-linejoin:miter;" x="223.480512" xlink:href="#ma524c18082" y="238.282472"/>
     <use style="fill:#081d58;stroke:#081d58;stroke-linejoin:miter;" x="231.599582" xlink:href="#ma524c18082" y="237.87199"/>
     <use style="fill:#081d58;stroke:#081d58;stroke-linejoin:miter;" x="239.718652" xlink:href="#ma524c18082" y="238.121144"/>
     <use style="fill:#081d58;stroke:#081d58;stroke-linejoin:miter;" x="247.837722" xlink:href="#ma524c18082" y="238.57542"/>
     <use style="fill:#081d58;stroke:#081d58;stroke-linejoin:miter;" x="255.956792" xlink:href="#ma524c18082" y="238.845965"/>
     <use style="fill:#081d58;stroke:#081d58;stroke-linejoin:miter;" x="264.075862" xlink:href="#ma524c18082" y="240.775208"/>
     <use style="fill:#081d58;stroke:#081d58;stroke-linejoin:miter;" x="272.194932" xlink:href="#ma524c18082" y="241.984766"/>
     <use style="fill:#081d58;stroke:#081d58;stroke-linejoin:miter;" x="280.314002" xlink:href="#ma524c18082" y="241.89442"/>
     <use style="fill:#081d58;stroke:#081d58;stroke-linejoin:miter;" x="288.433072" xlink:href="#ma524c18082" y="241.402733"/>
     <use style="fill:#081d58;stroke:#081d58;stroke-linejoin:miter;" x="296.552142" xlink:href="#ma524c18082" y="241.09188"/>
     <use style="fill:#081d58;stroke:#081d58;stroke-linejoin:miter;" x="304.671212" xlink:href="#ma524c18082" y="240.419901"/>
     <use style="fill:#081d58;stroke:#081d58;stroke-linejoin:miter;" x="312.790282" xlink:href="#ma524c18082" y="240.025274"/>
     <use style="fill:#081d58;stroke:#081d58;stroke-linejoin:miter;" x="320.909352" xlink:href="#ma524c18082" y="239.544141"/>
     <use style="fill:#081d58;stroke:#081d58;stroke-linejoin:miter;" x="329.028422" xlink:href="#ma524c18082" y="239.18775"/>
     <use style="fill:#081d58;stroke:#081d58;stroke-linejoin:miter;" x="337.147492" xlink:href="#ma524c18082" y="238.752532"/>
     <use style="fill:#081d58;stroke:#081d58;stroke-linejoin:miter;" x="345.266562" xlink:href="#ma524c18082" y="238.252788"/>
     <use style="fill:#081d58;stroke:#081d58;stroke-linejoin:miter;" x="353.385632" xlink:href="#ma524c18082" y="238.012257"/>
     <use style="fill:#081d58;stroke:#081d58;stroke-linejoin:miter;" x="361.504702" xlink:href="#ma524c18082" y="237.602318"/>
     <use style="fill:#081d58;stroke:#081d58;stroke-linejoin:miter;" x="369.623772" xlink:href="#ma524c18082" y="237.520381"/>
    </g>
   </g>
   <g id="patch_3">
    <path d="M 54 252 
L 54 34.56 
" style="fill:none;stroke:#000000;stroke-linecap:square;stroke-linejoin:miter;stroke-width:0.8;"/>
   </g>
   <g id="patch_4">
    <path d="M 388.8 252 
L 388.8 34.56 
" style="fill:none;stroke:#000000;stroke-linecap:square;stroke-linejoin:miter;stroke-width:0.8;"/>
   </g>
   <g id="patch_5">
    <path d="M 54 252 
L 388.8 252 
" style="fill:none;stroke:#000000;stroke-linecap:square;stroke-linejoin:miter;stroke-width:0.8;"/>
   </g>
   <g id="patch_6">
    <path d="M 54 34.56 
L 388.8 34.56 
" style="fill:none;stroke:#000000;stroke-linecap:square;stroke-linejoin:miter;stroke-width:0.8;"/>
   </g>
   <g id="legend_1">
    <g id="patch_7">
     <path d="M 280.085938 71.91625 
L 381.8 71.91625 
Q 383.8 71.91625 383.8 69.91625 
L 383.8 41.56 
Q 383.8 39.56 381.8 39.56 
L 280.085938 39.56 
Q 278.085938 39.56 278.085938 41.56 
L 278.085938 69.91625 
Q 278.085938 71.91625 280.085938 71.91625 
z
" style="fill:#ffffff;opacity:0.8;stroke:#cccccc;stroke-linejoin:miter;"/>
    </g>
    <g id="line2d_17">
     <path d="M 282.085938 47.658437 
L 302.085938 47.658437 
" style="fill:none;stroke:#40b5c4;stroke-dasharray:5.55,2.4;stroke-dashoffset:0;stroke-width:1.5;"/>
    </g>
    <g id="line2d_18">
     <g>
      <use style="fill:#40b5c4;stroke:#40b5c4;" x="292.085938" xlink:href="#m67f07012e0" y="47.658437"/>
     </g>
    </g>
    <g id="text_17">
     <text style="font-family:DejaVu Sans;font-size:10px;font-style:normal;font-weight:normal;text-anchor:start;" transform="rotate(-0, 310.085938, 51.158437)" x="310.085938" y="51.158437">original</text>
    </g>
    <g id="line2d_19">
     <path d="M 282.085938 62.336562 
L 302.085938 62.336562 
" style="fill:none;stroke:#081d58;stroke-dasharray:5.55,2.4;stroke-dashoffset:0;stroke-width:1.5;"/>
    </g>
    <g id="line2d_20">
     <g>
      <use style="fill:#081d58;stroke:#081d58;stroke-linejoin:miter;" x="292.085938" xlink:href="#ma524c18082" y="62.336562"/>
     </g>
    </g>
    <g id="text_18">
     <text style="font-family:DejaVu Sans;font-size:10px;font-style:normal;font-weight:normal;text-anchor:start;" transform="rotate(-0, 310.085938, 65.836562)" x="310.085938" y="65.836562">reconstructed</text>
    </g>
   </g>
  </g>
  <g id="text_19">
   <text style="font-family:DejaVu Sans;font-size:12px;font-style:normal;font-weight:normal;text-anchor:middle;" transform="rotate(-0, 216, 14.878125)" x="216" y="14.878125">Reconstruction of the weight curve</text>
  </g>
 </g>
 <defs>
  <clipPath id="p2ba3ca8e69">
   <rect height="217.44" width="334.8" x="54" y="34.56"/>
  </clipPath>
 </defs>
</svg>
