<?xml version="1.0" encoding="utf-8" standalone="no"?>
<!DOCTYPE svg PUBLIC "-//W3C//DTD SVG 1.1//EN"
  "http://www.w3.org/Graphics/SVG/1.1/DTD/svg11.dtd">
<!-- Created with matplotlib (https://matplotlib.org/) -->
<svg height="288pt" version="1.1" viewBox="0 0 432 288" width="432pt" xmlns="http://www.w3.org/2000/svg" xmlns:xlink="http://www.w3.org/1999/xlink">
 <defs>
  <style type="text/css">
*{stroke-linecap:butt;stroke-linejoin:round;}
  </style>
 </defs>
 <g id="figure_1">
  <g id="patch_1">
   <path d="M 0 288 
L 432 288 
L 432 0 
L 0 0 
z
" style="fill:#ffffff;"/>
  </g>
  <g id="axes_1">
   <g id="patch_2">
    <path d="M 54 252 
L 388.8 252 
L 388.8 34.56 
L 54 34.56 
z
" style="fill:#ffffff;"/>
   </g>
   <g id="matplotlib.axis_1">
    <g id="xtick_1">
     <g id="line2d_1">
      <defs>
       <path d="M 0 0 
L 0 3.5 
" id="mb304fca30b" style="stroke:#000000;stroke-width:0.8;"/>
      </defs>
      <g>
       <use style="stroke:#000000;stroke-width:0.8;" x="69.218182" xlink:href="#mb304fca30b" y="252"/>
      </g>
     </g>
     <g id="text_1">
      <text style="font-family:DejaVu Sans;font-size:10px;font-style:normal;font-weight:normal;text-anchor:middle;" transform="rotate(-0, 69.218182, 266.598437)" x="69.218182" y="266.598437">0</text>
     </g>
    </g>
    <g id="xtick_2">
     <g id="line2d_2">
      <g>
       <use style="stroke:#000000;stroke-width:0.8;" x="119.962369" xlink:href="#mb304fca30b" y="252"/>
      </g>
     </g>
     <g id="text_2">
      <text style="font-family:DejaVu Sans;font-size:10px;font-style:normal;font-weight:normal;text-anchor:middle;" transform="rotate(-0, 119.962369, 266.598437)" x="119.962369" y="266.598437">500</text>
     </g>
    </g>
    <g id="xtick_3">
     <g id="line2d_3">
      <g>
       <use style="stroke:#000000;stroke-width:0.8;" x="170.706557" xlink:href="#mb304fca30b" y="252"/>
      </g>
     </g>
     <g id="text_3">
      <text style="font-family:DejaVu Sans;font-size:10px;font-style:normal;font-weight:normal;text-anchor:middle;" transform="rotate(-0, 170.706557, 266.598437)" x="170.706557" y="266.598437">1000</text>
     </g>
    </g>
    <g id="xtick_4">
     <g id="line2d_4">
      <g>
       <use style="stroke:#000000;stroke-width:0.8;" x="221.450744" xlink:href="#mb304fca30b" y="252"/>
      </g>
     </g>
     <g id="text_4">
      <text style="font-family:DejaVu Sans;font-size:10px;font-style:normal;font-weight:normal;text-anchor:middle;" transform="rotate(-0, 221.450744, 266.598437)" x="221.450744" y="266.598437">1500</text>
     </g>
    </g>
    <g id="xtick_5">
     <g id="line2d_5">
      <g>
       <use style="stroke:#000000;stroke-width:0.8;" x="272.194932" xlink:href="#mb304fca30b" y="252"/>
      </g>
     </g>
     <g id="text_5">
      <text style="font-family:DejaVu Sans;font-size:10px;font-style:normal;font-weight:normal;text-anchor:middle;" transform="rotate(-0, 272.194932, 266.598437)" x="272.194932" y="266.598437">2000</text>
     </g>
    </g>
    <g id="xtick_6">
     <g id="line2d_6">
      <g>
       <use style="stroke:#000000;stroke-width:0.8;" x="322.939119" xlink:href="#mb304fca30b" y="252"/>
      </g>
     </g>
     <g id="text_6">
      <text style="font-family:DejaVu Sans;font-size:10px;font-style:normal;font-weight:normal;text-anchor:middle;" transform="rotate(-0, 322.939119, 266.598437)" x="322.939119" y="266.598437">2500</text>
     </g>
    </g>
    <g id="xtick_7">
     <g id="line2d_7">
      <g>
       <use style="stroke:#000000;stroke-width:0.8;" x="373.683307" xlink:href="#mb304fca30b" y="252"/>
      </g>
     </g>
     <g id="text_7">
      <text style="font-family:DejaVu Sans;font-size:10px;font-style:normal;font-weight:normal;text-anchor:middle;" transform="rotate(-0, 373.683307, 266.598437)" x="373.683307" y="266.598437">3000</text>
     </g>
    </g>
    <g id="text_8">
     <text style="font-family:DejaVu Sans;font-size:10px;font-style:normal;font-weight:normal;text-anchor:middle;" transform="rotate(-0, 221.4, 280.276563)" x="221.4" y="280.276563">Time</text>
    </g>
   </g>
   <g id="matplotlib.axis_2">
    <g id="ytick_1">
     <g id="line2d_8">
      <defs>
       <path d="M 0 0 
L -3.5 0 
" id="md7e66a6e9f" style="stroke:#000000;stroke-width:0.8;"/>
      </defs>
      <g>
       <use style="stroke:#000000;stroke-width:0.8;" x="54" xlink:href="#md7e66a6e9f" y="241.306064"/>
      </g>
     </g>
     <g id="text_9">
      <text style="font-family:DejaVu Sans;font-size:10px;font-style:normal;font-weight:normal;text-anchor:end;" transform="rotate(-0, 47, 245.105283)" x="47" y="245.105283">−10</text>
     </g>
    </g>
    <g id="ytick_2">
     <g id="line2d_9">
      <g>
       <use style="stroke:#000000;stroke-width:0.8;" x="54" xlink:href="#md7e66a6e9f" y="203.210184"/>
      </g>
     </g>
     <g id="text_10">
      <text style="font-family:DejaVu Sans;font-size:10px;font-style:normal;font-weight:normal;text-anchor:end;" transform="rotate(-0, 47, 207.009403)" x="47" y="207.009403">−8</text>
     </g>
    </g>
    <g id="ytick_3">
     <g id="line2d_10">
      <g>
       <use style="stroke:#000000;stroke-width:0.8;" x="54" xlink:href="#md7e66a6e9f" y="165.114304"/>
      </g>
     </g>
     <g id="text_11">
      <text style="font-family:DejaVu Sans;font-size:10px;font-style:normal;font-weight:normal;text-anchor:end;" transform="rotate(-0, 47, 168.913523)" x="47" y="168.913523">−6</text>
     </g>
    </g>
    <g id="ytick_4">
     <g id="line2d_11">
      <g>
       <use style="stroke:#000000;stroke-width:0.8;" x="54" xlink:href="#md7e66a6e9f" y="127.018424"/>
      </g>
     </g>
     <g id="text_12">
      <text style="font-family:DejaVu Sans;font-size:10px;font-style:normal;font-weight:normal;text-anchor:end;" transform="rotate(-0, 47, 130.817643)" x="47" y="130.817643">−4</text>
     </g>
    </g>
    <g id="ytick_5">
     <g id="line2d_12">
      <g>
       <use style="stroke:#000000;stroke-width:0.8;" x="54" xlink:href="#md7e66a6e9f" y="88.922544"/>
      </g>
     </g>
     <g id="text_13">
      <text style="font-family:DejaVu Sans;font-size:10px;font-style:normal;font-weight:normal;text-anchor:end;" transform="rotate(-0, 47, 92.721763)" x="47" y="92.721763">−2</text>
     </g>
    </g>
    <g id="ytick_6">
     <g id="line2d_13">
      <g>
       <use style="stroke:#000000;stroke-width:0.8;" x="54" xlink:href="#md7e66a6e9f" y="50.826664"/>
      </g>
     </g>
     <g id="text_14">
      <text style="font-family:DejaVu Sans;font-size:10px;font-style:normal;font-weight:normal;text-anchor:end;" transform="rotate(-0, 47, 54.625883)" x="47" y="54.625883">0</text>
     </g>
    </g>
    <g id="text_15">
     <text style="font-family:DejaVu Sans;font-size:10px;font-style:normal;font-weight:normal;text-anchor:middle;" transform="rotate(-90, 19.815625, 143.28)" x="19.815625" y="143.28">temperature (°C)</text>
    </g>
   </g>
   <g id="line2d_14">
    <path clip-path="url(#p7e0299c472)" d="M 69.218182 46.984696 
L 71.85688 46.294849 
L 72.871763 46.230011 
L 73.68367 46.37465 
L 74.394089 46.701829 
L 75.104508 47.243129 
L 75.916415 48.164712 
L 76.728322 49.441719 
L 77.641717 51.307497 
L 78.656601 53.918474 
L 79.874461 57.744504 
L 81.19381 62.665366 
L 82.817624 69.641326 
L 85.050368 80.343771 
L 91.748601 113.223068 
L 93.981345 122.65696 
L 95.706648 129.05522 
L 97.330462 134.21885 
L 98.852787 138.295605 
L 100.172136 141.215159 
L 101.389997 143.373233 
L 102.506369 144.90884 
L 103.521253 145.955505 
L 104.637625 146.786986 
L 105.652508 147.262118 
L 106.667392 147.486921 
L 107.682276 147.480674 
L 108.798648 147.247622 
L 110.117997 146.72607 
L 111.741811 145.837655 
L 113.771578 144.432241 
L 122.39809 138.053658 
L 124.224881 137.064517 
L 126.457625 136.10353 
L 128.588881 135.442795 
L 130.314184 135.133742 
L 132.140974 135.034426 
L 133.866277 135.16199 
L 135.490091 135.496586 
L 137.41837 136.166159 
L 139.143672 136.994154 
L 140.564509 137.893598 
L 142.188323 139.258668 
L 143.609161 140.730541 
L 145.029998 142.514152 
L 146.450835 144.653083 
L 148.683579 148.553149 
L 150.611858 152.644951 
L 151.829719 155.830357 
L 153.250556 160.210241 
L 154.87437 166.023634 
L 157.310091 175.656406 
L 160.862184 190.777975 
L 163.094929 201.256666 
L 165.023208 211.357521 
L 169.691673 236.456764 
L 170.50358 239.511405 
L 171.11251 241.115128 
L 171.619952 241.899789 
L 172.025906 242.116364 
L 172.330371 242.016743 
L 172.634836 241.682452 
L 173.040789 240.853885 
L 173.548231 239.185267 
L 174.157161 236.235655 
L 174.86758 231.526052 
L 175.780975 223.676605 
L 176.998836 210.857513 
L 181.362836 162.635634 
L 182.98665 147.919043 
L 184.508976 135.989623 
L 186.031301 125.679468 
L 187.553627 116.797242 
L 189.075953 109.148275 
L 190.598278 102.56725 
L 192.222092 96.549415 
L 193.845906 91.408338 
L 195.368232 87.262268 
L 196.992046 83.427689 
L 198.717348 79.909287 
L 200.544139 76.694795 
L 202.472418 73.76766 
L 204.400697 71.239579 
L 206.531953 68.812045 
L 208.663209 66.718086 
L 210.997442 64.743413 
L 213.433163 62.984598 
L 215.868884 61.496055 
L 218.60907 60.0833 
L 221.552233 58.842338 
L 224.596884 57.805745 
L 228.960884 56.59878 
L 236.876977 54.453308 
L 247.228791 51.325576 
L 258.595489 48.212858 
L 262.249071 47.585364 
L 267.120513 47.00026 
L 276.254467 45.85518 
L 285.286932 44.779048 
L 289.752421 44.502908 
L 293.710467 44.455021 
L 297.567025 44.616891 
L 302.742932 45.138587 
L 308.121816 45.900752 
L 316.03791 46.949719 
L 321.213817 47.469874 
L 330.449259 48.365769 
L 335.117724 49.034052 
L 340.598096 50.075519 
L 350.543957 52.038379 
L 354.70498 52.625206 
L 360.794283 53.176481 
L 365.665725 53.393157 
L 371.653539 53.433816 
L 373.581818 53.405001 
L 373.581818 53.405001 
" style="fill:none;stroke:#40b5c4;stroke-dasharray:5.55,2.4;stroke-dashoffset:0;stroke-width:1.5;"/>
    <defs>
     <path d="M 0 3 
C 0.795609 3 1.55874 2.683901 2.12132 2.12132 
C 2.683901 1.55874 3 0.795609 3 0 
C 3 -0.795609 2.683901 -1.55874 2.12132 -2.12132 
C 1.55874 -2.683901 0.795609 -3 0 -3 
C -0.795609 -3 -1.55874 -2.683901 -2.12132 -2.12132 
C -2.683901 -1.55874 -3 -0.795609 -3 0 
C -3 0.795609 -2.683901 1.55874 -2.12132 2.12132 
C -1.55874 2.683901 -0.795609 3 0 3 
z
" id="m6ad98ab909" style="stroke:#40b5c4;"/>
    </defs>
    <g clip-path="url(#p7e0299c472)">
     <use style="fill:#40b5c4;stroke:#40b5c4;" x="69.218182" xlink:href="#m6ad98ab909" y="46.984696"/>
     <use style="fill:#40b5c4;stroke:#40b5c4;" x="77.337252" xlink:href="#m6ad98ab909" y="50.63603"/>
     <use style="fill:#40b5c4;stroke:#40b5c4;" x="85.456322" xlink:href="#m6ad98ab909" y="82.373767"/>
     <use style="fill:#40b5c4;stroke:#40b5c4;" x="93.575392" xlink:href="#m6ad98ab909" y="121.028342"/>
     <use style="fill:#40b5c4;stroke:#40b5c4;" x="101.694462" xlink:href="#m6ad98ab909" y="143.831393"/>
     <use style="fill:#40b5c4;stroke:#40b5c4;" x="109.813532" xlink:href="#m6ad98ab909" y="146.865216"/>
     <use style="fill:#40b5c4;stroke:#40b5c4;" x="117.932602" xlink:href="#m6ad98ab909" y="141.161024"/>
     <use style="fill:#40b5c4;stroke:#40b5c4;" x="126.051672" xlink:href="#m6ad98ab909" y="136.258427"/>
     <use style="fill:#40b5c4;stroke:#40b5c4;" x="134.170742" xlink:href="#m6ad98ab909" y="135.207248"/>
     <use style="fill:#40b5c4;stroke:#40b5c4;" x="142.289812" xlink:href="#m6ad98ab909" y="139.353451"/>
     <use style="fill:#40b5c4;stroke:#40b5c4;" x="150.408882" xlink:href="#m6ad98ab909" y="152.164105"/>
     <use style="fill:#40b5c4;stroke:#40b5c4;" x="158.527952" xlink:href="#m6ad98ab909" y="180.752587"/>
     <use style="fill:#40b5c4;stroke:#40b5c4;" x="166.647022" xlink:href="#m6ad98ab909" y="220.423046"/>
     <use style="fill:#40b5c4;stroke:#40b5c4;" x="174.766092" xlink:href="#m6ad98ab909" y="232.278941"/>
     <use style="fill:#40b5c4;stroke:#40b5c4;" x="182.885162" xlink:href="#m6ad98ab909" y="148.777724"/>
     <use style="fill:#40b5c4;stroke:#40b5c4;" x="191.004232" xlink:href="#m6ad98ab909" y="100.973338"/>
     <use style="fill:#40b5c4;stroke:#40b5c4;" x="199.123302" xlink:href="#m6ad98ab909" y="79.153751"/>
     <use style="fill:#40b5c4;stroke:#40b5c4;" x="207.242372" xlink:href="#m6ad98ab909" y="68.080976"/>
     <use style="fill:#40b5c4;stroke:#40b5c4;" x="215.361442" xlink:href="#m6ad98ab909" y="61.78662"/>
     <use style="fill:#40b5c4;stroke:#40b5c4;" x="223.480512" xlink:href="#m6ad98ab909" y="58.161258"/>
     <use style="fill:#40b5c4;stroke:#40b5c4;" x="231.599582" xlink:href="#m6ad98ab909" y="55.932373"/>
     <use style="fill:#40b5c4;stroke:#40b5c4;" x="239.718652" xlink:href="#m6ad98ab909" y="53.555438"/>
     <use style="fill:#40b5c4;stroke:#40b5c4;" x="247.837722" xlink:href="#m6ad98ab909" y="51.154632"/>
     <use style="fill:#40b5c4;stroke:#40b5c4;" x="255.956792" xlink:href="#m6ad98ab909" y="48.828367"/>
     <use style="fill:#40b5c4;stroke:#40b5c4;" x="264.075862" xlink:href="#m6ad98ab909" y="47.344099"/>
     <use style="fill:#40b5c4;stroke:#40b5c4;" x="272.194932" xlink:href="#m6ad98ab909" y="46.367787"/>
     <use style="fill:#40b5c4;stroke:#40b5c4;" x="280.314002" xlink:href="#m6ad98ab909" y="45.328985"/>
     <use style="fill:#40b5c4;stroke:#40b5c4;" x="288.433072" xlink:href="#m6ad98ab909" y="44.5694"/>
     <use style="fill:#40b5c4;stroke:#40b5c4;" x="296.552142" xlink:href="#m6ad98ab909" y="44.54649"/>
     <use style="fill:#40b5c4;stroke:#40b5c4;" x="304.671212" xlink:href="#m6ad98ab909" y="45.393437"/>
     <use style="fill:#40b5c4;stroke:#40b5c4;" x="312.790282" xlink:href="#m6ad98ab909" y="46.552489"/>
     <use style="fill:#40b5c4;stroke:#40b5c4;" x="320.909352" xlink:href="#m6ad98ab909" y="47.443441"/>
     <use style="fill:#40b5c4;stroke:#40b5c4;" x="329.028422" xlink:href="#m6ad98ab909" y="48.203182"/>
     <use style="fill:#40b5c4;stroke:#40b5c4;" x="337.147492" xlink:href="#m6ad98ab909" y="49.389721"/>
     <use style="fill:#40b5c4;stroke:#40b5c4;" x="345.266562" xlink:href="#m6ad98ab909" y="51.049761"/>
     <use style="fill:#40b5c4;stroke:#40b5c4;" x="353.385632" xlink:href="#m6ad98ab909" y="52.468021"/>
     <use style="fill:#40b5c4;stroke:#40b5c4;" x="361.504702" xlink:href="#m6ad98ab909" y="53.220651"/>
     <use style="fill:#40b5c4;stroke:#40b5c4;" x="369.623772" xlink:href="#m6ad98ab909" y="53.444599"/>
    </g>
   </g>
   <g id="line2d_15">
    <path clip-path="url(#p7e0299c472)" d="M 69.218182 64.741707 
L 69.624135 64.778445 
L 69.725624 64.41935 
L 69.827112 64.795632 
L 69.9286 64.460753 
L 70.131577 64.652822 
L 70.233066 64.29923 
L 70.334554 64.66877 
L 70.537531 64.271677 
L 70.639019 64.451062 
L 70.740507 64.139941 
L 70.841996 64.492745 
L 70.943484 64.132893 
L 71.146461 64.348404 
L 71.247949 64.073486 
L 71.349438 64.4273 
L 71.552414 64.09724 
L 71.653903 64.136533 
L 71.755391 63.942418 
L 71.85688 64.211225 
L 72.059856 64.009875 
L 72.161345 64.066514 
L 72.262833 63.958104 
L 72.364321 64.133534 
L 72.46581 64.018073 
L 72.668787 64.17556 
L 72.770275 63.993534 
L 72.871763 64.110536 
L 73.07474 63.991637 
L 73.176228 64.236195 
L 73.277717 63.929984 
L 73.480694 64.258812 
L 73.582182 64.110678 
L 73.68367 64.464872 
L 73.785159 64.212475 
L 73.886647 64.444381 
L 74.089624 64.164122 
L 74.191112 64.683966 
L 74.292601 64.474332 
L 74.495577 64.617244 
L 74.597066 64.552385 
L 74.698554 64.922173 
L 74.800042 64.807966 
L 75.003019 65.091267 
L 75.104508 65.004138 
L 75.205996 65.422074 
L 75.307484 65.19646 
L 75.713438 65.91434 
L 75.814926 65.714413 
L 76.22088 66.626632 
L 76.322368 66.532384 
L 76.423856 66.647414 
L 76.525345 66.98116 
L 76.626833 66.892964 
L 76.728322 67.366512 
L 76.82981 67.312091 
L 76.931298 67.331523 
L 77.032787 67.907135 
L 77.134275 67.781097 
L 77.337252 68.416293 
L 77.43874 68.368593 
L 77.540229 68.894658 
L 77.641717 68.749215 
L 77.844694 69.237174 
L 78.250647 70.374949 
L 78.453624 70.74919 
L 78.758089 71.685285 
L 78.859577 71.70271 
L 79.97595 74.917782 
L 80.178926 75.724055 
L 80.990833 78.453957 
L 81.19381 79.209001 
L 82.817624 85.638986 
L 83.122089 87.378431 
L 83.325066 87.981211 
L 83.629531 89.523814 
L 83.832508 90.314087 
L 84.136973 91.797902 
L 84.33995 92.527307 
L 84.644415 93.902098 
L 84.847392 94.232024 
L 85.050368 95.020985 
L 86.877159 100.325593 
L 87.080136 101.169863 
L 87.689066 103.125033 
L 87.993531 104.355988 
L 88.196508 104.739817 
L 88.500973 105.859277 
L 88.70395 106.360509 
L 89.109903 107.892132 
L 89.211392 108.104768 
L 89.515857 109.308984 
L 89.718834 109.905054 
L 90.124787 111.357356 
L 90.429252 112.352215 
L 90.835206 113.906807 
L 90.936694 114.079339 
L 91.241159 115.182536 
L 91.850089 117.352636 
L 92.053066 117.978447 
L 92.357531 119.175533 
L 92.45902 119.28563 
L 92.864973 120.945891 
L 92.966462 121.004584 
L 93.67688 123.561483 
L 93.778369 123.755322 
L 93.981345 124.5865 
L 94.082834 124.781003 
L 94.488787 126.207678 
L 98.04088 137.472587 
L 98.142369 137.55495 
L 98.345345 138.243941 
L 98.548322 138.985513 
L 98.649811 139.092744 
L 98.954276 140.057334 
L 99.563206 141.837192 
L 99.969159 142.720164 
L 101.491485 144.541395 
L 102.201904 145.367291 
L 102.506369 145.660764 
L 102.709346 145.910458 
L 103.521253 146.65312 
L 103.724229 146.833876 
L 104.028694 146.939327 
L 104.434648 147.282129 
L 104.536136 147.306743 
L 104.739113 147.498789 
L 105.043578 147.616393 
L 105.246555 147.787575 
L 105.55102 147.945316 
L 105.753997 148.072983 
L 106.058462 148.281324 
L 106.565904 148.527757 
L 106.768881 148.668477 
L 108.189718 149.459803 
L 108.291206 149.441111 
L 108.595671 149.742177 
L 108.69716 149.668453 
L 109.001625 149.877493 
L 109.30609 149.971735 
L 109.407578 150.146424 
L 109.610555 150.000755 
L 109.813532 149.77869 
L 109.91502 149.858746 
L 110.016509 149.749834 
L 110.117997 149.834894 
L 110.422462 149.59203 
L 110.52395 149.739398 
L 110.828416 149.386987 
L 111.234369 149.426379 
L 111.437346 149.319956 
L 112.147764 149.004584 
L 112.249253 149.097692 
L 112.553718 148.816934 
L 112.655206 148.96106 
L 112.959671 148.624189 
L 113.06116 148.705988 
L 113.264137 148.661801 
L 113.568602 148.582426 
L 113.67009 148.355975 
L 113.771578 148.511181 
L 113.974555 148.408146 
L 115.090927 147.926524 
L 115.192416 147.943009 
L 115.293904 147.762089 
L 115.395392 147.896814 
L 115.902834 147.525456 
L 116.004323 147.61493 
L 116.308788 147.431268 
L 117.42516 146.942342 
L 117.628137 146.970599 
L 117.729625 146.937955 
L 117.831113 146.675709 
L 117.932602 146.89365 
L 118.135579 146.86552 
L 118.440044 146.662802 
L 118.541532 146.777663 
L 119.048974 146.543936 
L 119.251951 146.498504 
L 119.454927 146.397249 
L 119.860881 146.227583 
L 120.368323 145.500417 
L 120.469811 145.548038 
L 120.774276 145.210032 
L 121.281718 144.729208 
L 121.383207 144.547063 
L 121.484695 144.612304 
L 121.586183 144.465645 
L 121.687672 144.517507 
L 121.992137 144.193007 
L 122.093625 144.280147 
L 122.39809 143.904657 
L 122.601067 143.87769 
L 123.007021 143.580021 
L 123.108509 143.6536 
L 123.412974 143.293014 
L 123.818928 143.137908 
L 123.920416 143.121541 
L 124.021904 142.97113 
L 124.123393 143.036226 
L 124.732323 142.618147 
L 124.833811 142.624768 
L 125.138276 142.449834 
L 126.051672 141.709543 
L 126.254649 141.326432 
L 126.863579 140.401888 
L 127.168044 139.799837 
L 127.269532 139.779973 
L 127.371021 139.64137 
L 127.573997 139.267197 
L 130.212695 135.879543 
L 130.415672 135.563926 
L 131.735021 134.031827 
L 132.648416 133.293761 
L 133.155858 133.064376 
L 133.561812 132.964393 
L 134.170742 132.985837 
L 135.591579 133.21832 
L 137.012416 133.683703 
L 138.940695 134.734243 
L 139.854091 135.401163 
L 140.260044 135.812267 
L 140.970463 137.349407 
L 141.274928 138.081787 
L 142.797254 141.839999 
L 143.812137 144.60393 
L 144.218091 145.220132 
L 144.827021 146.107782 
L 145.131486 146.591675 
L 145.334463 146.886256 
L 146.14637 148.102348 
L 146.247858 148.125436 
L 146.653812 148.72964 
L 146.856789 148.95858 
L 147.465719 150.662716 
L 148.785068 153.734807 
L 149.495486 154.811024 
L 149.799951 155.661443 
L 150.205905 156.729086 
L 151.1193 159.38961 
L 151.423765 160.122534 
L 151.728231 160.937258 
L 152.134184 161.890985 
L 152.438649 162.656126 
L 154.26544 169.010556 
L 154.671393 170.339982 
L 155.889254 174.20786 
L 156.295207 175.547241 
L 157.41158 179.124279 
L 157.513068 179.31836 
L 157.817533 180.302532 
L 158.62944 182.969432 
L 159.035394 183.709096 
L 160.862184 187.388906 
L 161.166649 188.426984 
L 161.268138 188.606941 
L 161.674091 189.871389 
L 163.500882 194.115411 
L 166.13958 204.479228 
L 166.241068 204.589475 
L 166.647022 205.954796 
L 166.74851 206.076305 
L 167.052975 207.068543 
L 167.154464 207.087326 
L 167.560417 208.104342 
L 167.864882 208.631687 
L 168.169347 209.151693 
L 168.270836 209.252621 
L 168.372324 209.601872 
L 168.473812 209.541635 
L 169.387208 210.464553 
L 169.590185 210.42368 
L 169.691673 210.612584 
L 169.793161 210.500284 
L 170.199115 210.856801 
L 170.50358 210.647062 
L 170.706557 210.799198 
L 170.909533 210.648461 
L 171.011022 210.616962 
L 171.11251 210.919926 
L 171.416975 210.511928 
L 171.619952 210.512346 
L 171.822929 210.322317 
L 171.924417 210.261953 
L 172.025906 210.433399 
L 172.634836 209.747105 
L 172.837813 209.580255 
L 172.939301 209.662109 
L 173.345254 208.419132 
L 174.25865 205.263634 
L 176.085441 195.465146 
L 176.186929 195.200774 
L 177.709255 186.686 
L 178.318185 183.642764 
L 179.028603 179.89913 
L 184.305999 150.486456 
L 184.711952 147.625112 
L 189.380418 120.339231 
L 189.481906 120.143602 
L 193.642929 102.45556 
L 194.150371 100.439813 
L 194.86079 97.628688 
L 195.571209 95.507581 
L 196.281627 93.615577 
L 196.383116 93.632853 
L 196.687581 92.908775 
L 196.890557 92.553293 
L 196.992046 92.464527 
L 197.296511 91.709132 
L 198.209906 90.052236 
L 198.412883 89.636617 
L 200.848604 85.18452 
L 201.254558 84.415147 
L 201.660511 83.458395 
L 202.167953 82.390135 
L 202.776883 81.07406 
L 203.081348 80.630458 
L 203.385813 80.233087 
L 209.982558 74.575841 
L 210.084046 74.612926 
L 210.388511 74.253094 
L 211.301907 73.519543 
L 211.910837 73.017484 
L 217.391209 68.365319 
L 217.695674 68.144998 
L 218.304605 67.548151 
L 218.406093 67.539059 
L 218.913535 66.983839 
L 219.319488 66.65715 
L 219.623953 66.371779 
L 219.82693 66.18521 
L 220.029907 66.059277 
L 220.334372 65.731135 
L 221.349256 64.826328 
L 221.653721 64.505252 
L 222.262651 64.001177 
L 222.668605 63.583406 
L 223.074558 63.212048 
L 223.379023 62.801507 
L 223.480512 62.940873 
L 223.784977 62.749862 
L 224.698372 62.453056 
L 224.901349 62.264516 
L 225.104326 62.238939 
L 226.322186 61.810268 
L 226.525163 61.712919 
L 227.032605 61.599258 
L 227.235582 61.435314 
L 227.438558 61.518748 
L 227.540047 61.314894 
L 227.844512 61.434424 
L 227.946 61.22176 
L 228.148977 61.283868 
L 228.55493 61.16016 
L 228.960884 61.075945 
L 229.163861 61.006462 
L 229.366837 60.952783 
L 229.569814 60.868022 
L 229.874279 60.863953 
L 230.48321 60.616702 
L 230.889163 60.564458 
L 231.09214 60.483404 
L 231.396605 60.433703 
L 231.70107 60.275626 
L 231.802558 60.354138 
L 232.107024 60.204798 
L 233.121907 59.990027 
L 233.324884 59.928737 
L 233.730838 59.904159 
L 233.832326 59.905067 
L 234.035303 59.739125 
L 235.050186 59.529931 
L 235.151675 59.491674 
L 235.253163 59.611476 
L 235.354652 59.556489 
L 235.45614 59.326022 
L 235.659117 59.4625 
L 235.760605 59.500739 
L 236.06507 59.345096 
L 236.369535 59.310164 
L 237.790373 59.175194 
L 237.993349 58.982367 
L 238.297814 59.039152 
L 238.399303 58.939351 
L 238.60228 58.946072 
L 238.906745 58.91688 
L 240.124605 58.77568 
L 240.327582 58.695297 
L 240.42907 58.737768 
L 240.530559 58.653498 
L 240.733535 58.757986 
L 241.139489 58.616313 
L 241.240977 58.674734 
L 241.342466 58.533442 
L 241.443954 58.646432 
L 241.545442 58.561544 
L 241.748419 58.570155 
L 242.255861 58.552407 
L 242.458838 58.499545 
L 242.661815 58.500908 
L 242.864791 58.51435 
L 243.169256 58.440362 
L 244.285629 58.294238 
L 244.488605 58.333531 
L 244.894559 58.286682 
L 245.199024 58.291695 
L 245.300512 58.155236 
L 245.604977 58.291623 
L 246.010931 58.125226 
L 246.213908 58.160468 
L 246.315396 58.08528 
L 246.518373 58.156108 
L 247.33028 57.998631 
L 247.634745 57.964661 
L 247.93921 57.927694 
L 249.461536 57.665057 
L 249.563024 57.761353 
L 249.766001 57.617009 
L 250.070466 57.581859 
L 250.882373 57.430449 
L 251.08535 57.406198 
L 251.288326 57.345943 
L 251.389815 57.311011 
L 251.491303 57.415881 
L 251.69428 57.337932 
L 251.897257 57.175914 
L 252.100233 57.235733 
L 252.30321 57.152989 
L 252.506187 57.202853 
L 252.709164 57.093697 
L 253.521071 56.955185 
L 253.622559 56.95077 
L 253.724047 56.827299 
L 253.927024 56.8669 
L 254.130001 56.747589 
L 254.535954 56.788352 
L 254.84042 56.627569 
L 255.144885 56.570112 
L 255.347861 56.546551 
L 255.44935 56.596343 
L 255.855303 56.330617 
L 256.05828 56.383515 
L 256.261257 56.310072 
L 256.464234 56.343224 
L 256.66721 56.223041 
L 256.971675 56.191542 
L 257.276141 55.993647 
L 257.377629 56.187636 
L 257.682094 55.987507 
L 258.291024 55.928669 
L 258.696978 55.666758 
L 258.798466 55.697948 
L 259.305908 55.401323 
L 259.508885 55.361304 
L 260.219303 55.032236 
L 260.320792 55.067404 
L 260.726745 54.753831 
L 261.03121 54.65581 
L 261.437164 54.520894 
L 263.365443 53.892803 
L 263.56842 53.843629 
L 263.974373 53.691638 
L 264.075862 53.611237 
L 264.17735 53.736925 
L 264.278838 53.576596 
L 264.380327 53.637632 
L 264.583304 53.521845 
L 264.989257 53.344785 
L 265.293722 53.283022 
L 266.105629 53.081113 
L 266.714559 52.961238 
L 266.917536 52.876587 
L 267.93242 52.8008 
L 268.135397 52.682379 
L 268.54135 52.638473 
L 268.642839 52.521778 
L 268.744327 52.670426 
L 269.048792 52.508008 
L 269.251769 52.565757 
L 269.454746 52.394928 
L 269.657722 52.480869 
L 270.368141 52.280503 
L 270.571118 52.292747 
L 270.774094 52.257596 
L 271.180048 52.213908 
L 271.281536 52.04733 
L 271.586001 52.175852 
L 271.68749 52.05654 
L 271.788978 52.1316 
L 271.991955 51.960626 
L 272.29642 52.076958 
L 272.397908 51.9389 
L 272.499397 52.000064 
L 272.600885 51.83414 
L 272.803862 51.908037 
L 273.108327 51.915031 
L 273.209815 51.948074 
L 273.311304 51.754084 
L 273.615769 51.827419 
L 274.021722 51.729724 
L 274.427676 51.772322 
L 274.732141 51.664528 
L 274.935118 51.665636 
L 275.036606 51.61619 
L 275.138095 51.696881 
L 275.341071 51.605145 
L 276.05149 51.507941 
L 276.152978 51.654464 
L 276.254467 51.471647 
L 276.355955 51.54251 
L 276.558932 51.427268 
L 277.066374 51.469176 
L 277.26935 51.316277 
L 277.472327 51.39913 
L 277.979769 51.267738 
L 278.081257 51.342998 
L 278.284234 51.255749 
L 278.690188 51.240527 
L 278.893164 51.158255 
L 278.994653 51.221925 
L 279.19763 51.08225 
L 279.299118 51.056019 
L 279.400606 51.218764 
L 279.80656 50.968643 
L 280.009537 51.08087 
L 280.212513 50.997199 
L 280.314002 51.0875 
L 280.516978 50.950332 
L 280.719955 50.98174 
L 280.821444 50.890477 
L 280.922932 51.007118 
L 281.125909 50.809041 
L 281.328885 50.987117 
L 281.531862 50.882193 
L 282.140792 50.835526 
L 284.576513 50.572907 
L 284.678002 50.430199 
L 284.77949 50.595014 
L 284.982467 50.488292 
L 285.185444 50.599429 
L 285.38842 50.433432 
L 285.692886 50.454431 
L 285.794374 50.481625 
L 285.997351 50.370216 
L 286.098839 50.485276 
L 286.606281 50.31294 
L 287.92563 50.222076 
L 288.027118 50.378245 
L 288.128607 50.266127 
L 288.230095 50.32017 
L 288.433072 50.17777 
L 288.636048 50.244183 
L 288.839025 50.202021 
L 288.940514 50.354321 
L 289.244979 50.112247 
L 289.346467 50.241023 
L 289.447955 50.150649 
L 289.549444 50.229887 
L 289.752421 50.076388 
L 289.955397 50.232812 
L 290.158374 50.170086 
L 290.259862 50.170377 
L 290.462839 50.105344 
L 290.868793 50.210032 
L 291.071769 50.095844 
L 291.477723 50.108596 
L 291.6807 50.027523 
L 291.782188 50.195155 
L 291.883676 50.042074 
L 292.086653 50.106035 
L 292.28963 50.018386 
L 292.492607 50.043382 
L 292.594095 50.014063 
L 292.797072 50.094409 
L 292.89856 49.991029 
L 293.101537 50.050266 
L 293.203025 50.024308 
L 293.304514 50.132465 
L 293.50749 49.935061 
L 293.811956 50.026633 
L 293.913444 50.091284 
L 294.116421 49.955279 
L 294.623862 50.074481 
L 294.826839 49.994862 
L 294.928328 50.060076 
L 295.029816 49.988485 
L 295.232793 50.028595 
L 295.334281 49.869356 
L 295.638746 50.088559 
L 296.0447 49.988231 
L 296.146188 50.057115 
L 296.349165 50.032918 
L 297.770002 50.058332 
L 297.972979 50.059113 
L 298.074467 49.966814 
L 298.480421 50.179078 
L 298.683397 50.009957 
L 298.987863 50.12282 
L 299.089351 50.081493 
L 299.190839 50.165472 
L 299.292328 50.026706 
L 299.495304 50.191976 
L 299.79977 50.161839 
L 300.104235 50.152048 
L 300.4087 50.209233 
L 300.611677 50.16896 
L 300.916142 50.274938 
L 301.119118 50.117152 
L 301.322095 50.287654 
L 301.829537 50.231776 
L 302.134002 50.398463 
L 302.641444 50.336174 
L 302.742932 50.439463 
L 302.945909 50.287563 
L 303.148886 50.4282 
L 303.250374 50.362005 
L 303.351863 50.467819 
L 303.554839 50.383004 
L 303.757816 50.387273 
L 303.859305 50.38146 
L 304.062281 50.518174 
L 304.265258 50.486566 
L 304.7727 50.443932 
L 304.975677 50.619084 
L 305.280142 50.466693 
L 305.483119 50.597194 
L 305.889072 50.599465 
L 306.193537 50.65011 
L 306.396514 50.680011 
L 306.599491 50.641482 
L 306.700979 50.757814 
L 306.802467 50.698267 
L 306.903956 50.768768 
L 307.106933 50.659629 
L 307.309909 50.858051 
L 307.411398 50.748004 
L 307.614374 50.78568 
L 307.715863 50.715416 
L 307.91884 50.793763 
L 308.426281 50.83925 
L 308.730747 50.914074 
L 308.832235 50.76924 
L 309.1367 50.997781 
L 309.441165 50.869441 
L 309.644142 50.997417 
L 309.74563 50.927316 
L 309.948607 51.003121 
L 310.151584 51.030951 
L 310.557537 51.052768 
L 310.659026 50.933529 
L 310.862002 51.061542 
L 311.064979 51.159109 
L 311.267956 51.000978 
L 311.470933 51.116619 
L 312.688793 51.180835 
L 312.89177 51.253787 
L 313.094747 51.177783 
L 313.399212 51.327085 
L 313.5007 51.157964 
L 313.805165 51.304923 
L 314.10963 51.196857 
L 314.312607 51.355478 
L 314.515584 51.306159 
L 314.921537 51.349211 
L 315.023026 51.31377 
L 315.226003 51.381219 
L 315.327491 51.25911 
L 315.631956 51.518786 
L 315.834933 51.314515 
L 316.139398 51.454153 
L 316.443863 51.33159 
L 316.545351 51.539858 
L 316.748328 51.494953 
L 316.849817 51.52013 
L 316.951305 51.415333 
L 317.154282 51.467341 
L 318.067677 51.546761 
L 318.270654 51.543473 
L 318.372142 51.715791 
L 318.473631 51.562165 
L 318.575119 51.700114 
L 318.778096 51.550939 
L 318.981072 51.640386 
L 319.590003 51.63054 
L 319.691491 51.74898 
L 319.995956 51.64144 
L 320.300421 51.83236 
L 320.503398 51.704765 
L 320.909352 51.778481 
L 321.01084 51.689251 
L 321.213817 51.888091 
L 321.416793 51.736627 
L 321.61977 51.896121 
L 321.924235 51.799407 
L 322.127212 51.845766 
L 322.431677 51.990109 
L 322.533166 51.805002 
L 322.736142 51.958574 
L 322.837631 51.912179 
L 322.939119 52.027675 
L 323.040607 51.83701 
L 323.345073 52.087004 
L 323.649538 51.982915 
L 324.867398 52.098884 
L 324.968887 52.189421 
L 325.070375 52.081009 
L 325.171863 52.198359 
L 325.273352 52.078466 
L 325.37484 52.195924 
L 325.476328 52.115524 
L 325.780794 52.235089 
L 325.98377 52.178849 
L 326.288235 52.290531 
L 326.389724 52.131691 
L 326.592701 52.399596 
L 326.795677 52.220848 
L 326.897166 52.341503 
L 327.100142 52.298124 
L 327.303119 52.324173 
L 327.506096 52.393965 
L 327.607584 52.465973 
L 327.810561 52.320104 
L 327.912049 52.558872 
L 328.013538 52.325372 
L 328.216515 52.464883 
L 328.318003 52.370386 
L 328.52098 52.413947 
L 328.723956 52.487518 
L 328.825445 52.660017 
L 329.028422 52.486718 
L 329.231398 52.535002 
L 329.434375 52.529625 
L 329.535863 52.594258 
L 329.637352 52.484829 
L 329.73884 52.72792 
L 329.941817 52.484284 
L 330.144794 52.627719 
L 330.34777 52.607119 
L 330.449259 52.777839 
L 330.550747 52.576856 
L 330.753724 52.716476 
L 331.058189 52.72178 
L 331.159677 52.787612 
L 331.261166 52.625757 
L 331.464143 52.813335 
L 331.565631 52.7297 
L 331.768608 52.872336 
L 331.870096 52.711789 
L 332.073073 52.954117 
L 332.174561 52.732062 
L 332.479026 52.890611 
L 332.783491 52.909975 
L 332.88498 52.841309 
L 332.986468 53.043201 
L 333.189445 52.846941 
L 333.392422 53.146854 
L 333.49391 52.925343 
L 333.696887 53.095373 
L 333.899864 53.02173 
L 334.204329 53.114228 
L 334.305817 53.258245 
L 334.508794 53.002946 
L 334.711771 53.180169 
L 334.813259 53.087016 
L 335.016236 53.249162 
L 335.117724 53.135155 
L 335.320701 53.338355 
L 335.422189 53.150015 
L 335.625166 53.32473 
L 335.828143 53.251596 
L 335.929631 53.392125 
L 336.132608 53.320879 
L 336.335585 53.371234 
L 336.437073 53.27176 
L 336.64005 53.467621 
L 336.741538 53.340861 
L 336.944515 53.550891 
L 337.147492 53.389182 
L 337.350468 53.507439 
L 337.654933 53.568221 
L 337.756422 53.488511 
L 337.959399 53.672818 
L 338.060887 53.496722 
L 338.263864 53.72132 
L 338.46684 53.675906 
L 338.568329 53.819051 
L 338.771306 53.688295 
L 338.872794 53.801212 
L 338.974282 53.666061 
L 339.177259 53.882739 
L 339.278747 53.775018 
L 339.481724 53.925428 
L 339.684701 53.801249 
L 339.887678 53.909552 
L 339.989166 53.876999 
L 340.192143 54.039072 
L 340.293631 53.94254 
L 340.496608 54.123215 
L 340.699585 53.957545 
L 340.801073 54.134259 
L 340.902561 54.073877 
L 341.105538 54.229156 
L 341.308515 54.056293 
L 341.511492 54.249283 
L 341.714468 54.2002 
L 341.917445 54.341128 
L 342.120422 54.426615 
L 342.22191 54.25942 
L 342.830841 54.623493 
L 342.932329 54.421347 
L 343.135306 54.608925 
L 343.338282 54.525254 
L 343.439771 54.620841 
L 343.541259 54.549378 
L 343.744236 54.791197 
L 343.947213 54.638389 
L 344.150189 54.75374 
L 344.251678 54.667926 
L 344.454655 54.860117 
L 344.556143 54.753449 
L 344.75912 54.965768 
L 344.962096 54.808963 
L 345.165073 54.973507 
L 345.266562 54.826039 
L 345.469538 55.069929 
L 345.672515 55.069639 
L 345.774003 55.185353 
L 345.97698 55.021682 
L 346.078469 55.215581 
L 346.179957 55.066587 
L 346.484422 55.319197 
L 346.58591 55.128822 
L 346.788887 55.317707 
L 346.991864 55.262121 
L 347.093352 55.359016 
L 347.194841 55.273601 
L 347.397817 55.53929 
L 347.600794 55.336272 
L 347.702283 55.5487 
L 347.905259 55.380197 
L 348.108236 55.612534 
L 348.209724 55.50899 
L 348.412701 55.755678 
L 348.615678 55.562542 
L 348.818655 55.706922 
L 348.920143 55.604759 
L 349.12312 55.852391 
L 349.224608 55.705723 
L 349.427585 55.913718 
L 349.630562 55.739184 
L 349.73205 55.945908 
L 349.935027 55.844798 
L 350.036515 56.054537 
L 350.239492 55.884036 
L 350.442469 56.093993 
L 350.645445 55.955753 
L 350.949911 56.140388 
L 351.152887 56.177227 
L 351.254376 56.003274 
L 351.457352 56.259445 
L 351.558841 56.050941 
L 351.863306 56.276448 
L 352.269259 56.230198 
L 352.472236 56.39129 
L 352.675213 56.350381 
L 352.776701 56.496287 
L 352.979678 56.422862 
L 353.081166 56.559975 
L 353.284143 56.453162 
L 353.48712 56.554925 
L 353.588608 56.439247 
L 353.791585 56.621811 
L 353.994562 56.586352 
L 354.09605 56.749006 
L 354.299027 56.578468 
L 354.502004 56.778071 
L 354.603492 56.638051 
L 354.806469 56.767498 
L 355.009446 56.807244 
L 355.110934 56.885102 
L 355.313911 56.707261 
L 355.415399 57.020471 
L 355.719864 56.903195 
L 356.328794 57.160782 
L 356.531771 56.988645 
L 356.734748 57.08554 
L 356.937725 57.089101 
L 357.039213 57.157876 
L 357.140701 57.065195 
L 357.343678 57.298876 
L 357.546655 57.12892 
L 357.749632 57.303054 
L 357.85112 57.121254 
L 358.054097 57.337424 
L 358.155585 57.263308 
L 358.358562 57.461967 
L 358.561539 57.254044 
L 358.663027 57.485109 
L 358.866004 57.291719 
L 359.068981 57.418987 
L 359.271957 57.477298 
L 359.373446 57.671088 
L 359.576422 57.393555 
L 359.677911 57.616119 
L 359.880888 57.560969 
L 360.083864 57.552758 
L 360.185353 57.562022 
L 360.388329 57.652523 
L 360.692795 57.633195 
L 360.794283 57.719881 
L 360.895771 57.630979 
L 361.098748 57.695103 
L 362.012143 57.873125 
L 362.113632 57.750181 
L 362.418097 57.88664 
L 362.519585 57.881736 
L 362.621074 57.757411 
L 362.925539 57.989494 
L 363.128516 57.858883 
L 363.432981 58.021465 
L 363.635957 57.932199 
L 363.940423 58.044099 
L 364.143399 57.934161 
L 364.447864 58.100994 
L 364.650841 57.982082 
L 364.75233 58.095072 
L 365.056795 57.924606 
L 365.462748 58.109168 
L 365.564237 57.964062 
L 365.767213 58.084863 
L 365.868702 58.034689 
L 365.97019 58.189242 
L 366.071678 57.971655 
L 366.173167 58.107606 
L 366.274655 58.045516 
L 366.376144 58.140958 
L 366.477632 58.04686 
L 366.680609 58.141466 
L 367.289539 58.113092 
L 367.391027 58.198724 
L 367.594004 58.127225 
L 367.898469 58.13351 
L 367.999958 58.024335 
L 368.304423 58.194255 
L 368.913353 58.157161 
L 369.014841 57.961119 
L 369.11633 58.262957 
L 369.319306 58.163665 
L 369.420795 58.188115 
L 369.522283 58.073418 
L 369.623772 58.227971 
L 369.72526 58.092855 
L 369.928237 58.183974 
L 370.029725 58.053691 
L 370.232702 58.230623 
L 370.33419 58.095689 
L 370.435679 58.197889 
L 370.638655 58.187679 
L 370.740144 58.228334 
L 370.841632 58.069713 
L 370.94312 58.203883 
L 371.146097 58.122356 
L 371.247586 58.297581 
L 371.349074 58.066515 
L 371.552051 58.17173 
L 371.653539 58.054926 
L 371.755027 58.3273 
L 371.958004 58.093255 
L 372.059493 58.24679 
L 372.160981 58.1851 
L 372.262469 58.267244 
L 372.363958 58.016669 
L 372.566934 58.279851 
L 372.668423 58.08548 
L 372.769911 58.241413 
L 372.8714 58.077051 
L 373.175865 58.16599 
L 373.48033 58.084427 
L 373.581818 58.264084 
L 373.581818 58.264084 
" style="fill:none;stroke:#081d58;stroke-dasharray:5.55,2.4;stroke-dashoffset:0;stroke-width:1.5;"/>
    <defs>
     <path d="M -0 4.242641 
L 4.242641 0 
L 0 -4.242641 
L -4.242641 -0 
z
" id="m5eb90daaa6" style="stroke:#081d58;stroke-linejoin:miter;"/>
    </defs>
    <g clip-path="url(#p7e0299c472)">
     <use style="fill:#081d58;stroke:#081d58;stroke-linejoin:miter;" x="69.218182" xlink:href="#m5eb90daaa6" y="64.741707"/>
     <use style="fill:#081d58;stroke:#081d58;stroke-linejoin:miter;" x="77.337252" xlink:href="#m5eb90daaa6" y="68.416293"/>
     <use style="fill:#081d58;stroke:#081d58;stroke-linejoin:miter;" x="85.456322" xlink:href="#m5eb90daaa6" y="96.288467"/>
     <use style="fill:#081d58;stroke:#081d58;stroke-linejoin:miter;" x="93.575392" xlink:href="#m5eb90daaa6" y="123.211147"/>
     <use style="fill:#081d58;stroke:#081d58;stroke-linejoin:miter;" x="101.694462" xlink:href="#m5eb90daaa6" y="144.817302"/>
     <use style="fill:#081d58;stroke:#081d58;stroke-linejoin:miter;" x="109.813532" xlink:href="#m5eb90daaa6" y="149.77869"/>
     <use style="fill:#081d58;stroke:#081d58;stroke-linejoin:miter;" x="117.932602" xlink:href="#m5eb90daaa6" y="146.89365"/>
     <use style="fill:#081d58;stroke:#081d58;stroke-linejoin:miter;" x="126.051672" xlink:href="#m5eb90daaa6" y="141.709543"/>
     <use style="fill:#081d58;stroke:#081d58;stroke-linejoin:miter;" x="134.170742" xlink:href="#m5eb90daaa6" y="132.985837"/>
     <use style="fill:#081d58;stroke:#081d58;stroke-linejoin:miter;" x="142.289812" xlink:href="#m5eb90daaa6" y="140.530936"/>
     <use style="fill:#081d58;stroke:#081d58;stroke-linejoin:miter;" x="150.408882" xlink:href="#m5eb90daaa6" y="157.363417"/>
     <use style="fill:#081d58;stroke:#081d58;stroke-linejoin:miter;" x="158.527952" xlink:href="#m5eb90daaa6" y="182.599609"/>
     <use style="fill:#081d58;stroke:#081d58;stroke-linejoin:miter;" x="166.647022" xlink:href="#m5eb90daaa6" y="205.954796"/>
     <use style="fill:#081d58;stroke:#081d58;stroke-linejoin:miter;" x="174.766092" xlink:href="#m5eb90daaa6" y="202.467232"/>
     <use style="fill:#081d58;stroke:#081d58;stroke-linejoin:miter;" x="182.885162" xlink:href="#m5eb90daaa6" y="158.50978"/>
     <use style="fill:#081d58;stroke:#081d58;stroke-linejoin:miter;" x="191.004232" xlink:href="#m5eb90daaa6" y="113.432391"/>
     <use style="fill:#081d58;stroke:#081d58;stroke-linejoin:miter;" x="199.123302" xlink:href="#m5eb90daaa6" y="88.347476"/>
     <use style="fill:#081d58;stroke:#081d58;stroke-linejoin:miter;" x="207.242372" xlink:href="#m5eb90daaa6" y="76.882191"/>
     <use style="fill:#081d58;stroke:#081d58;stroke-linejoin:miter;" x="215.361442" xlink:href="#m5eb90daaa6" y="70.133297"/>
     <use style="fill:#081d58;stroke:#081d58;stroke-linejoin:miter;" x="223.480512" xlink:href="#m5eb90daaa6" y="62.940873"/>
     <use style="fill:#081d58;stroke:#081d58;stroke-linejoin:miter;" x="231.599582" xlink:href="#m5eb90daaa6" y="60.364274"/>
     <use style="fill:#081d58;stroke:#081d58;stroke-linejoin:miter;" x="239.718652" xlink:href="#m5eb90daaa6" y="58.88015"/>
     <use style="fill:#081d58;stroke:#081d58;stroke-linejoin:miter;" x="247.837722" xlink:href="#m5eb90daaa6" y="57.958394"/>
     <use style="fill:#081d58;stroke:#081d58;stroke-linejoin:miter;" x="255.956792" xlink:href="#m5eb90daaa6" y="56.419755"/>
     <use style="fill:#081d58;stroke:#081d58;stroke-linejoin:miter;" x="264.075862" xlink:href="#m5eb90daaa6" y="53.611237"/>
     <use style="fill:#081d58;stroke:#081d58;stroke-linejoin:miter;" x="272.194932" xlink:href="#m5eb90daaa6" y="51.97287"/>
     <use style="fill:#081d58;stroke:#081d58;stroke-linejoin:miter;" x="280.314002" xlink:href="#m5eb90daaa6" y="51.0875"/>
     <use style="fill:#081d58;stroke:#081d58;stroke-linejoin:miter;" x="288.433072" xlink:href="#m5eb90daaa6" y="50.17777"/>
     <use style="fill:#081d58;stroke:#081d58;stroke-linejoin:miter;" x="296.552142" xlink:href="#m5eb90daaa6" y="50.044617"/>
     <use style="fill:#081d58;stroke:#081d58;stroke-linejoin:miter;" x="304.671212" xlink:href="#m5eb90daaa6" y="50.418682"/>
     <use style="fill:#081d58;stroke:#081d58;stroke-linejoin:miter;" x="312.790282" xlink:href="#m5eb90daaa6" y="51.267375"/>
     <use style="fill:#081d58;stroke:#081d58;stroke-linejoin:miter;" x="320.909352" xlink:href="#m5eb90daaa6" y="51.778481"/>
     <use style="fill:#081d58;stroke:#081d58;stroke-linejoin:miter;" x="329.028422" xlink:href="#m5eb90daaa6" y="52.486718"/>
     <use style="fill:#081d58;stroke:#081d58;stroke-linejoin:miter;" x="337.147492" xlink:href="#m5eb90daaa6" y="53.389182"/>
     <use style="fill:#081d58;stroke:#081d58;stroke-linejoin:miter;" x="345.266562" xlink:href="#m5eb90daaa6" y="54.826039"/>
     <use style="fill:#081d58;stroke:#081d58;stroke-linejoin:miter;" x="353.385632" xlink:href="#m5eb90daaa6" y="56.532509"/>
     <use style="fill:#081d58;stroke:#081d58;stroke-linejoin:miter;" x="361.504702" xlink:href="#m5eb90daaa6" y="57.732124"/>
     <use style="fill:#081d58;stroke:#081d58;stroke-linejoin:miter;" x="369.623772" xlink:href="#m5eb90daaa6" y="58.227971"/>
    </g>
   </g>
   <g id="patch_3">
    <path d="M 54 252 
L 54 34.56 
" style="fill:none;stroke:#000000;stroke-linecap:square;stroke-linejoin:miter;stroke-width:0.8;"/>
   </g>
   <g id="patch_4">
    <path d="M 388.8 252 
L 388.8 34.56 
" style="fill:none;stroke:#000000;stroke-linecap:square;stroke-linejoin:miter;stroke-width:0.8;"/>
   </g>
   <g id="patch_5">
    <path d="M 54 252 
L 388.8 252 
" style="fill:none;stroke:#000000;stroke-linecap:square;stroke-linejoin:miter;stroke-width:0.8;"/>
   </g>
   <g id="patch_6">
    <path d="M 54 34.56 
L 388.8 34.56 
" style="fill:none;stroke:#000000;stroke-linecap:square;stroke-linejoin:miter;stroke-width:0.8;"/>
   </g>
   <g id="legend_1">
    <g id="patch_7">
     <path d="M 61 247 
L 162.714063 247 
Q 164.714063 247 164.714063 245 
L 164.714063 216.64375 
Q 164.714063 214.64375 162.714063 214.64375 
L 61 214.64375 
Q 59 214.64375 59 216.64375 
L 59 245 
Q 59 247 61 247 
z
" style="fill:#ffffff;opacity:0.8;stroke:#cccccc;stroke-linejoin:miter;"/>
    </g>
    <g id="line2d_16">
     <path d="M 63 222.742188 
L 83 222.742188 
" style="fill:none;stroke:#40b5c4;stroke-dasharray:5.55,2.4;stroke-dashoffset:0;stroke-width:1.5;"/>
    </g>
    <g id="line2d_17">
     <g>
      <use style="fill:#40b5c4;stroke:#40b5c4;" x="73" xlink:href="#m6ad98ab909" y="222.742188"/>
     </g>
    </g>
    <g id="text_16">
     <text style="font-family:DejaVu Sans;font-size:10px;font-style:normal;font-weight:normal;text-anchor:start;" transform="rotate(-0, 91, 226.242188)" x="91" y="226.242188">original</text>
    </g>
    <g id="line2d_18">
     <path d="M 63 237.420312 
L 83 237.420312 
" style="fill:none;stroke:#081d58;stroke-dasharray:5.55,2.4;stroke-dashoffset:0;stroke-width:1.5;"/>
    </g>
    <g id="line2d_19">
     <g>
      <use style="fill:#081d58;stroke:#081d58;stroke-linejoin:miter;" x="73" xlink:href="#m5eb90daaa6" y="237.420312"/>
     </g>
    </g>
    <g id="text_17">
     <text style="font-family:DejaVu Sans;font-size:10px;font-style:normal;font-weight:normal;text-anchor:start;" transform="rotate(-0, 91, 240.920312)" x="91" y="240.920312">reconstructed</text>
    </g>
   </g>
  </g>
  <g id="text_18">
   <text style="font-family:DejaVu Sans;font-size:12px;font-style:normal;font-weight:normal;text-anchor:middle;" transform="rotate(-0, 216, 14.878125)" x="216" y="14.878125">Reconstruction of the temperature curve</text>
  </g>
 </g>
 <defs>
  <clipPath id="p7e0299c472">
   <rect height="217.44" width="334.8" x="54" y="34.56"/>
  </clipPath>
 </defs>
</svg>
