<?xml version="1.0" encoding="utf-8" standalone="no"?>
<!DOCTYPE svg PUBLIC "-//W3C//DTD SVG 1.1//EN"
  "http://www.w3.org/Graphics/SVG/1.1/DTD/svg11.dtd">
<!-- Created with matplotlib (https://matplotlib.org/) -->
<svg height="288pt" version="1.1" viewBox="0 0 432 288" width="432pt" xmlns="http://www.w3.org/2000/svg" xmlns:xlink="http://www.w3.org/1999/xlink">
 <defs>
  <style type="text/css">
*{stroke-linecap:butt;stroke-linejoin:round;}
  </style>
 </defs>
 <g id="figure_1">
  <g id="patch_1">
   <path d="M 0 288 
L 432 288 
L 432 0 
L 0 0 
z
" style="fill:#ffffff;"/>
  </g>
  <g id="axes_1">
   <g id="patch_2">
    <path d="M 54 252 
L 388.8 252 
L 388.8 34.56 
L 54 34.56 
z
" style="fill:#ffffff;"/>
   </g>
   <g id="matplotlib.axis_1">
    <g id="xtick_1">
     <g id="line2d_1">
      <defs>
       <path d="M 0 0 
L 0 3.5 
" id="m27fc1ba63e" style="stroke:#000000;stroke-width:0.8;"/>
      </defs>
      <g>
       <use style="stroke:#000000;stroke-width:0.8;" x="69.218182" xlink:href="#m27fc1ba63e" y="252"/>
      </g>
     </g>
     <g id="text_1">
      <text style="font-family:DejaVu Sans;font-size:10px;font-style:normal;font-weight:normal;text-anchor:middle;" transform="rotate(-0, 69.218182, 266.598437)" x="69.218182" y="266.598437">0</text>
     </g>
    </g>
    <g id="xtick_2">
     <g id="line2d_2">
      <g>
       <use style="stroke:#000000;stroke-width:0.8;" x="119.962369" xlink:href="#m27fc1ba63e" y="252"/>
      </g>
     </g>
     <g id="text_2">
      <text style="font-family:DejaVu Sans;font-size:10px;font-style:normal;font-weight:normal;text-anchor:middle;" transform="rotate(-0, 119.962369, 266.598437)" x="119.962369" y="266.598437">500</text>
     </g>
    </g>
    <g id="xtick_3">
     <g id="line2d_3">
      <g>
       <use style="stroke:#000000;stroke-width:0.8;" x="170.706557" xlink:href="#m27fc1ba63e" y="252"/>
      </g>
     </g>
     <g id="text_3">
      <text style="font-family:DejaVu Sans;font-size:10px;font-style:normal;font-weight:normal;text-anchor:middle;" transform="rotate(-0, 170.706557, 266.598437)" x="170.706557" y="266.598437">1000</text>
     </g>
    </g>
    <g id="xtick_4">
     <g id="line2d_4">
      <g>
       <use style="stroke:#000000;stroke-width:0.8;" x="221.450744" xlink:href="#m27fc1ba63e" y="252"/>
      </g>
     </g>
     <g id="text_4">
      <text style="font-family:DejaVu Sans;font-size:10px;font-style:normal;font-weight:normal;text-anchor:middle;" transform="rotate(-0, 221.450744, 266.598437)" x="221.450744" y="266.598437">1500</text>
     </g>
    </g>
    <g id="xtick_5">
     <g id="line2d_5">
      <g>
       <use style="stroke:#000000;stroke-width:0.8;" x="272.194932" xlink:href="#m27fc1ba63e" y="252"/>
      </g>
     </g>
     <g id="text_5">
      <text style="font-family:DejaVu Sans;font-size:10px;font-style:normal;font-weight:normal;text-anchor:middle;" transform="rotate(-0, 272.194932, 266.598437)" x="272.194932" y="266.598437">2000</text>
     </g>
    </g>
    <g id="xtick_6">
     <g id="line2d_6">
      <g>
       <use style="stroke:#000000;stroke-width:0.8;" x="322.939119" xlink:href="#m27fc1ba63e" y="252"/>
      </g>
     </g>
     <g id="text_6">
      <text style="font-family:DejaVu Sans;font-size:10px;font-style:normal;font-weight:normal;text-anchor:middle;" transform="rotate(-0, 322.939119, 266.598437)" x="322.939119" y="266.598437">2500</text>
     </g>
    </g>
    <g id="xtick_7">
     <g id="line2d_7">
      <g>
       <use style="stroke:#000000;stroke-width:0.8;" x="373.683307" xlink:href="#m27fc1ba63e" y="252"/>
      </g>
     </g>
     <g id="text_7">
      <text style="font-family:DejaVu Sans;font-size:10px;font-style:normal;font-weight:normal;text-anchor:middle;" transform="rotate(-0, 373.683307, 266.598437)" x="373.683307" y="266.598437">3000</text>
     </g>
    </g>
    <g id="text_8">
     <text style="font-family:DejaVu Sans;font-size:10px;font-style:normal;font-weight:normal;text-anchor:middle;" transform="rotate(-0, 221.4, 280.276563)" x="221.4" y="280.276563">Time</text>
    </g>
   </g>
   <g id="matplotlib.axis_2">
    <g id="ytick_1">
     <g id="line2d_8">
      <defs>
       <path d="M 0 0 
L -3.5 0 
" id="m06531355be" style="stroke:#000000;stroke-width:0.8;"/>
      </defs>
      <g>
       <use style="stroke:#000000;stroke-width:0.8;" x="54" xlink:href="#m06531355be" y="241.945288"/>
      </g>
     </g>
     <g id="text_9">
      <text style="font-family:DejaVu Sans;font-size:10px;font-style:normal;font-weight:normal;text-anchor:end;" transform="rotate(-0, 47, 245.744507)" x="47" y="245.744507">50.0</text>
     </g>
    </g>
    <g id="ytick_2">
     <g id="line2d_9">
      <g>
       <use style="stroke:#000000;stroke-width:0.8;" x="54" xlink:href="#m06531355be" y="216.585458"/>
      </g>
     </g>
     <g id="text_10">
      <text style="font-family:DejaVu Sans;font-size:10px;font-style:normal;font-weight:normal;text-anchor:end;" transform="rotate(-0, 47, 220.384676)" x="47" y="220.384676">52.5</text>
     </g>
    </g>
    <g id="ytick_3">
     <g id="line2d_10">
      <g>
       <use style="stroke:#000000;stroke-width:0.8;" x="54" xlink:href="#m06531355be" y="191.225627"/>
      </g>
     </g>
     <g id="text_11">
      <text style="font-family:DejaVu Sans;font-size:10px;font-style:normal;font-weight:normal;text-anchor:end;" transform="rotate(-0, 47, 195.024846)" x="47" y="195.024846">55.0</text>
     </g>
    </g>
    <g id="ytick_4">
     <g id="line2d_11">
      <g>
       <use style="stroke:#000000;stroke-width:0.8;" x="54" xlink:href="#m06531355be" y="165.865796"/>
      </g>
     </g>
     <g id="text_12">
      <text style="font-family:DejaVu Sans;font-size:10px;font-style:normal;font-weight:normal;text-anchor:end;" transform="rotate(-0, 47, 169.665015)" x="47" y="169.665015">57.5</text>
     </g>
    </g>
    <g id="ytick_5">
     <g id="line2d_12">
      <g>
       <use style="stroke:#000000;stroke-width:0.8;" x="54" xlink:href="#m06531355be" y="140.505965"/>
      </g>
     </g>
     <g id="text_13">
      <text style="font-family:DejaVu Sans;font-size:10px;font-style:normal;font-weight:normal;text-anchor:end;" transform="rotate(-0, 47, 144.305184)" x="47" y="144.305184">60.0</text>
     </g>
    </g>
    <g id="ytick_6">
     <g id="line2d_13">
      <g>
       <use style="stroke:#000000;stroke-width:0.8;" x="54" xlink:href="#m06531355be" y="115.146135"/>
      </g>
     </g>
     <g id="text_14">
      <text style="font-family:DejaVu Sans;font-size:10px;font-style:normal;font-weight:normal;text-anchor:end;" transform="rotate(-0, 47, 118.945353)" x="47" y="118.945353">62.5</text>
     </g>
    </g>
    <g id="ytick_7">
     <g id="line2d_14">
      <g>
       <use style="stroke:#000000;stroke-width:0.8;" x="54" xlink:href="#m06531355be" y="89.786304"/>
      </g>
     </g>
     <g id="text_15">
      <text style="font-family:DejaVu Sans;font-size:10px;font-style:normal;font-weight:normal;text-anchor:end;" transform="rotate(-0, 47, 93.585522)" x="47" y="93.585522">65.0</text>
     </g>
    </g>
    <g id="ytick_8">
     <g id="line2d_15">
      <g>
       <use style="stroke:#000000;stroke-width:0.8;" x="54" xlink:href="#m06531355be" y="64.426473"/>
      </g>
     </g>
     <g id="text_16">
      <text style="font-family:DejaVu Sans;font-size:10px;font-style:normal;font-weight:normal;text-anchor:end;" transform="rotate(-0, 47, 68.225692)" x="47" y="68.225692">67.5</text>
     </g>
    </g>
    <g id="ytick_9">
     <g id="line2d_16">
      <g>
       <use style="stroke:#000000;stroke-width:0.8;" x="54" xlink:href="#m06531355be" y="39.066642"/>
      </g>
     </g>
     <g id="text_17">
      <text style="font-family:DejaVu Sans;font-size:10px;font-style:normal;font-weight:normal;text-anchor:end;" transform="rotate(-0, 47, 42.865861)" x="47" y="42.865861">70.0</text>
     </g>
    </g>
    <g id="text_18">
     <text style="font-family:DejaVu Sans;font-size:10px;font-style:normal;font-weight:normal;text-anchor:middle;" transform="rotate(-90, 18.654688, 143.28)" x="18.654688" y="143.28">weight (\%)</text>
    </g>
   </g>
   <g id="line2d_17">
    <path clip-path="url(#p031042c417)" d="M 69.218182 44.443636 
L 85.151857 44.697336 
L 90.835206 44.986134 
L 95.706648 45.463609 
L 122.195114 48.502427 
L 128.182928 49.278133 
L 132.851393 50.087315 
L 136.80944 51.007674 
L 140.057068 51.991838 
L 142.898742 53.114974 
L 145.232975 54.257079 
L 147.364231 55.535722 
L 149.191021 56.874518 
L 151.017812 58.487302 
L 152.946091 60.504727 
L 154.87437 62.855076 
L 156.802649 65.53348 
L 158.933905 68.873877 
L 161.065161 72.657158 
L 162.99344 76.563587 
L 165.023208 81.219854 
L 167.255952 86.934337 
L 171.72144 98.519317 
L 173.040789 101.226225 
L 174.055673 102.827343 
L 174.969068 103.858981 
L 175.882464 104.556884 
L 177.201813 105.239164 
L 179.434557 106.089125 
L 182.682185 107.061725 
L 186.234278 107.897788 
L 191.207208 108.831029 
L 198.717348 110.002045 
L 207.039395 111.089982 
L 214.042093 111.791942 
L 222.161163 112.372175 
L 232.512977 112.86162 
L 246.213908 113.258552 
L 264.583304 113.497543 
L 283.054188 113.461329 
L 357.343678 112.830883 
L 373.581818 112.702157 
L 373.581818 112.702157 
" style="fill:none;stroke:#40b5c4;stroke-dasharray:5.55,2.4;stroke-dashoffset:0;stroke-width:1.5;"/>
    <defs>
     <path d="M 0 3 
C 0.795609 3 1.55874 2.683901 2.12132 2.12132 
C 2.683901 1.55874 3 0.795609 3 0 
C 3 -0.795609 2.683901 -1.55874 2.12132 -2.12132 
C 1.55874 -2.683901 0.795609 -3 0 -3 
C -0.795609 -3 -1.55874 -2.683901 -2.12132 -2.12132 
C -2.683901 -1.55874 -3 -0.795609 -3 0 
C -3 0.795609 -2.683901 1.55874 -2.12132 2.12132 
C -1.55874 2.683901 -0.795609 3 0 3 
z
" id="m606a31cabd" style="stroke:#40b5c4;"/>
    </defs>
    <g clip-path="url(#p031042c417)">
     <use style="fill:#40b5c4;stroke:#40b5c4;" x="69.218182" xlink:href="#m606a31cabd" y="44.443636"/>
     <use style="fill:#40b5c4;stroke:#40b5c4;" x="77.337252" xlink:href="#m606a31cabd" y="44.54822"/>
     <use style="fill:#40b5c4;stroke:#40b5c4;" x="85.456322" xlink:href="#m606a31cabd" y="44.706973"/>
     <use style="fill:#40b5c4;stroke:#40b5c4;" x="93.575392" xlink:href="#m606a31cabd" y="45.227864"/>
     <use style="fill:#40b5c4;stroke:#40b5c4;" x="101.694462" xlink:href="#m606a31cabd" y="46.238402"/>
     <use style="fill:#40b5c4;stroke:#40b5c4;" x="109.813532" xlink:href="#m606a31cabd" y="47.20309"/>
     <use style="fill:#40b5c4;stroke:#40b5c4;" x="117.932602" xlink:href="#m606a31cabd" y="48.042196"/>
     <use style="fill:#40b5c4;stroke:#40b5c4;" x="126.051672" xlink:href="#m606a31cabd" y="48.977873"/>
     <use style="fill:#40b5c4;stroke:#40b5c4;" x="134.170742" xlink:href="#m606a31cabd" y="50.364751"/>
     <use style="fill:#40b5c4;stroke:#40b5c4;" x="142.289812" xlink:href="#m606a31cabd" y="52.854174"/>
     <use style="fill:#40b5c4;stroke:#40b5c4;" x="150.408882" xlink:href="#m606a31cabd" y="57.915286"/>
     <use style="fill:#40b5c4;stroke:#40b5c4;" x="158.527952" xlink:href="#m606a31cabd" y="68.204479"/>
     <use style="fill:#40b5c4;stroke:#40b5c4;" x="166.647022" xlink:href="#m606a31cabd" y="85.329263"/>
     <use style="fill:#40b5c4;stroke:#40b5c4;" x="174.766092" xlink:href="#m606a31cabd" y="103.662189"/>
     <use style="fill:#40b5c4;stroke:#40b5c4;" x="182.885162" xlink:href="#m606a31cabd" y="107.115893"/>
     <use style="fill:#40b5c4;stroke:#40b5c4;" x="191.004232" xlink:href="#m606a31cabd" y="108.796439"/>
     <use style="fill:#40b5c4;stroke:#40b5c4;" x="199.123302" xlink:href="#m606a31cabd" y="110.060068"/>
     <use style="fill:#40b5c4;stroke:#40b5c4;" x="207.242372" xlink:href="#m606a31cabd" y="111.11311"/>
     <use style="fill:#40b5c4;stroke:#40b5c4;" x="215.361442" xlink:href="#m606a31cabd" y="111.900989"/>
     <use style="fill:#40b5c4;stroke:#40b5c4;" x="223.480512" xlink:href="#m606a31cabd" y="112.44724"/>
     <use style="fill:#40b5c4;stroke:#40b5c4;" x="231.599582" xlink:href="#m606a31cabd" y="112.824391"/>
     <use style="fill:#40b5c4;stroke:#40b5c4;" x="239.718652" xlink:href="#m606a31cabd" y="113.098075"/>
     <use style="fill:#40b5c4;stroke:#40b5c4;" x="247.837722" xlink:href="#m606a31cabd" y="113.290809"/>
     <use style="fill:#40b5c4;stroke:#40b5c4;" x="255.956792" xlink:href="#m606a31cabd" y="113.426129"/>
     <use style="fill:#40b5c4;stroke:#40b5c4;" x="264.075862" xlink:href="#m606a31cabd" y="113.495514"/>
     <use style="fill:#40b5c4;stroke:#40b5c4;" x="272.194932" xlink:href="#m606a31cabd" y="113.505252"/>
     <use style="fill:#40b5c4;stroke:#40b5c4;" x="280.314002" xlink:href="#m606a31cabd" y="113.476849"/>
     <use style="fill:#40b5c4;stroke:#40b5c4;" x="288.433072" xlink:href="#m606a31cabd" y="113.434752"/>
     <use style="fill:#40b5c4;stroke:#40b5c4;" x="296.552142" xlink:href="#m606a31cabd" y="113.417913"/>
     <use style="fill:#40b5c4;stroke:#40b5c4;" x="304.671212" xlink:href="#m606a31cabd" y="113.36699"/>
     <use style="fill:#40b5c4;stroke:#40b5c4;" x="312.790282" xlink:href="#m606a31cabd" y="113.275391"/>
     <use style="fill:#40b5c4;stroke:#40b5c4;" x="320.909352" xlink:href="#m606a31cabd" y="113.189167"/>
     <use style="fill:#40b5c4;stroke:#40b5c4;" x="329.028422" xlink:href="#m606a31cabd" y="113.112885"/>
     <use style="fill:#40b5c4;stroke:#40b5c4;" x="337.147492" xlink:href="#m606a31cabd" y="113.032342"/>
     <use style="fill:#40b5c4;stroke:#40b5c4;" x="345.266562" xlink:href="#m606a31cabd" y="112.984158"/>
     <use style="fill:#40b5c4;stroke:#40b5c4;" x="353.385632" xlink:href="#m606a31cabd" y="112.879574"/>
     <use style="fill:#40b5c4;stroke:#40b5c4;" x="361.504702" xlink:href="#m606a31cabd" y="112.785236"/>
     <use style="fill:#40b5c4;stroke:#40b5c4;" x="369.623772" xlink:href="#m606a31cabd" y="112.719706"/>
    </g>
   </g>
   <g id="line2d_18">
    <path clip-path="url(#p031042c417)" d="M 69.218182 157.842832 
L 69.31967 157.911479 
L 69.421159 158.322353 
L 69.522647 158.026135 
L 69.624135 158.158514 
L 69.725624 157.532877 
L 69.827112 158.39932 
L 69.9286 157.718153 
L 70.131577 158.258505 
L 70.233066 157.550909 
L 70.334554 158.499968 
L 70.537531 157.777049 
L 70.639019 158.195778 
L 70.740507 157.577493 
L 70.841996 158.393709 
L 70.943484 157.748491 
L 71.044973 157.903507 
L 71.146461 158.334968 
L 71.247949 157.614061 
L 71.349438 158.557741 
L 71.552414 157.878897 
L 71.653903 158.128873 
L 71.755391 157.630352 
L 71.85688 158.344603 
L 72.059856 157.873905 
L 72.161345 158.124926 
L 72.262833 157.759597 
L 72.364321 158.307455 
L 72.46581 157.834899 
L 72.567298 157.947234 
L 72.668787 158.317748 
L 72.770275 157.795545 
L 72.871763 158.164706 
L 73.07474 157.674543 
L 73.176228 158.306101 
L 73.277717 157.584536 
L 73.480694 158.118464 
L 73.582182 157.690176 
L 73.68367 158.357992 
L 73.785159 157.701475 
L 73.886647 158.205491 
L 74.089624 157.31912 
L 74.191112 158.375289 
L 74.292601 157.745124 
L 74.495577 157.836021 
L 74.597066 157.487138 
L 74.698554 158.153484 
L 74.800042 157.589683 
L 74.901531 157.978694 
L 75.003019 157.882108 
L 75.104508 157.432383 
L 75.205996 158.191638 
L 75.307484 157.465352 
L 75.408973 157.542667 
L 75.510461 157.866591 
L 75.611949 157.270015 
L 75.713438 158.031669 
L 75.814926 157.290717 
L 76.017903 157.745705 
L 76.119391 157.308169 
L 76.22088 157.998351 
L 76.423856 157.28855 
L 76.525345 157.654537 
L 76.626833 157.034201 
L 76.728322 157.769116 
L 76.931298 156.920357 
L 77.032787 157.707473 
L 77.134275 156.890716 
L 77.235763 157.68441 
L 77.43874 156.839483 
L 77.540229 157.478973 
L 77.641717 156.72769 
L 77.743205 157.349458 
L 77.844694 156.702344 
L 77.946182 156.870323 
L 78.04767 157.261115 
L 78.149159 156.502827 
L 78.250647 157.116817 
L 78.453624 156.596394 
L 78.555112 157.034859 
L 78.656601 156.5351 
L 78.758089 156.934791 
L 78.961066 156.205642 
L 79.062554 156.893425 
L 79.164043 156.165514 
L 79.265531 156.450355 
L 79.367019 156.392698 
L 79.468508 155.9944 
L 79.569996 156.571435 
L 79.671484 156.160212 
L 79.772973 156.425629 
L 79.97595 155.578882 
L 80.077438 156.341503 
L 80.280415 155.808852 
L 80.381903 155.947887 
L 80.483391 155.348563 
L 80.58488 156.074501 
L 80.686368 155.404285 
L 80.787857 155.728597 
L 80.889345 155.631934 
L 80.990833 155.139953 
L 81.092322 155.981359 
L 81.295298 155.125984 
L 81.396787 155.448128 
L 81.498275 154.919695 
L 81.599764 155.368608 
L 81.701252 154.844277 
L 81.904229 155.117741 
L 82.005717 154.641741 
L 82.107205 155.267959 
L 82.310182 154.361505 
L 82.411671 155.021427 
L 82.513159 154.20703 
L 82.614647 154.87473 
L 82.817624 154.051163 
L 82.919112 154.614732 
L 83.020601 153.887749 
L 83.122089 154.693091 
L 83.325066 153.830479 
L 83.426554 154.301758 
L 83.528043 153.773751 
L 83.629531 154.029532 
L 83.731019 153.541575 
L 83.832508 153.567385 
L 83.933996 153.995905 
L 84.035485 153.451839 
L 84.136973 154.070356 
L 84.238461 153.741865 
L 84.441438 154.172359 
L 84.542926 153.676856 
L 84.644415 154.173829 
L 84.847392 153.549507 
L 84.94888 154.059405 
L 85.354833 153.701544 
L 85.456322 154.400278 
L 85.55781 153.919906 
L 85.760787 154.206953 
L 85.862275 153.588319 
L 85.963764 154.522093 
L 86.065252 154.011422 
L 86.268229 154.225991 
L 86.369717 153.78505 
L 86.471206 154.592017 
L 86.572694 153.953687 
L 86.674182 154.326175 
L 86.775671 154.142292 
L 86.877159 153.704137 
L 86.978647 154.411655 
L 87.181624 154.018929 
L 87.283113 154.137648 
L 87.384601 153.684324 
L 87.486089 154.249867 
L 87.689066 153.809467 
L 87.790554 154.262443 
L 87.892043 153.2969 
L 87.993531 154.353379 
L 88.196508 153.752197 
L 88.297996 154.3023 
L 88.399485 153.628757 
L 88.500973 154.098411 
L 88.70395 153.525013 
L 88.805438 154.023766 
L 88.906927 153.451335 
L 89.008415 154.073297 
L 89.211392 153.399676 
L 89.31288 153.961659 
L 89.414368 153.403894 
L 89.515857 153.847428 
L 89.718834 153.438063 
L 89.820322 153.880939 
L 89.92181 153.423745 
L 90.023299 153.831988 
L 90.226275 153.25387 
L 90.327764 153.673838 
L 90.429252 153.310985 
L 90.530741 153.661532 
L 90.733717 152.996889 
L 90.835206 153.758156 
L 90.936694 153.191917 
L 91.038182 153.720815 
L 91.241159 153.293997 
L 91.342648 153.540685 
L 91.444136 153.230226 
L 91.545624 153.545986 
L 91.748601 152.966861 
L 91.850089 153.587429 
L 91.951578 153.262305 
L 92.053066 153.312339 
L 92.154555 153.701738 
L 92.256043 153.157517 
L 92.357531 153.842514 
L 92.45902 153.093823 
L 92.661996 153.547302 
L 92.763485 153.058958 
L 92.864973 153.96309 
L 92.966462 153.131165 
L 93.06795 153.259481 
L 93.169438 153.694463 
L 93.270927 153.252631 
L 93.372415 154.052788 
L 93.473903 153.224035 
L 93.67688 153.660836 
L 93.778369 153.173846 
L 93.879857 153.894637 
L 94.082834 153.280183 
L 94.184322 153.735519 
L 94.28581 153.384972 
L 94.387299 154.106111 
L 94.488787 153.522614 
L 94.590276 153.563283 
L 94.691764 154.098101 
L 94.793252 153.200121 
L 94.894741 154.183194 
L 94.996229 153.582283 
L 95.097717 153.850562 
L 95.300694 153.635219 
L 95.402183 153.99842 
L 95.605159 153.841275 
L 95.706648 154.274671 
L 95.808136 153.660681 
L 95.909624 154.234466 
L 96.112601 153.70344 
L 96.21409 154.590082 
L 96.315578 153.670045 
L 96.417066 154.44799 
L 96.620043 153.909535 
L 96.721531 154.625102 
L 96.82302 153.921957 
L 96.924508 154.472408 
L 97.127485 154.034988 
L 97.228973 154.593294 
L 97.330462 154.405464 
L 97.43195 154.664882 
L 97.634927 154.121473 
L 97.736415 154.802059 
L 97.837904 154.490633 
L 98.04088 154.720604 
L 98.142369 154.129986 
L 98.243857 155.147073 
L 98.345345 154.450815 
L 98.548322 155.006258 
L 98.649811 154.435143 
L 98.751299 155.173618 
L 98.852787 154.820595 
L 98.954276 154.852712 
L 99.055764 155.120876 
L 99.157252 154.672544 
L 99.258741 155.303714 
L 99.360229 154.833364 
L 99.461718 154.965511 
L 99.664694 155.409819 
L 99.766183 155.193508 
L 99.867671 155.305998 
L 100.070648 155.073357 
L 100.273625 155.196023 
L 100.375113 154.820053 
L 100.476601 154.984047 
L 100.57809 154.903598 
L 100.679578 155.368569 
L 100.781066 154.884443 
L 100.882555 155.01895 
L 101.085532 154.714026 
L 101.288508 154.807244 
L 101.389997 154.497057 
L 101.592973 154.748775 
L 101.79595 154.819047 
L 101.998927 154.50735 
L 102.100415 154.414325 
L 102.201904 154.571431 
L 102.303392 154.414286 
L 102.40488 154.482701 
L 102.506369 154.301139 
L 102.709346 154.504951 
L 102.810834 154.334998 
L 102.912322 154.418891 
L 103.013811 154.256174 
L 103.115299 154.425585 
L 103.318276 154.080997 
L 103.419764 154.163342 
L 103.521253 154.40082 
L 103.622741 154.219103 
L 103.724229 154.481346 
L 103.927206 154.391185 
L 104.130183 154.39695 
L 104.231671 154.608889 
L 104.33316 154.064474 
L 104.434648 154.563421 
L 104.536136 154.313444 
L 104.637625 154.934361 
L 104.739113 154.318049 
L 104.840601 154.781241 
L 104.94209 154.440716 
L 105.043578 154.712787 
L 105.145067 154.471402 
L 105.652508 155.012798 
L 105.753997 154.717934 
L 105.855485 154.839981 
L 105.956974 154.661941 
L 106.15995 154.898915 
L 106.362927 154.789406 
L 106.464415 154.966866 
L 106.565904 155.385789 
L 106.768881 155.080477 
L 106.971857 154.991941 
L 107.174834 155.178726 
L 107.377811 155.014539 
L 107.479299 155.122656 
L 107.580788 155.692068 
L 107.783764 155.384744 
L 108.088229 155.327009 
L 108.189718 155.552336 
L 108.392695 155.231508 
L 108.595671 155.81129 
L 109.001625 155.616998 
L 109.204602 155.888334 
L 109.30609 155.566344 
L 109.610555 156.02466 
L 109.712043 155.840506 
L 109.813532 155.957793 
L 109.91502 155.724224 
L 110.016509 155.844878 
L 110.219485 155.782578 
L 110.625439 156.021216 
L 110.828416 155.864226 
L 110.929904 155.82731 
L 111.031392 155.962089 
L 111.132881 155.864072 
L 111.234369 156.091875 
L 111.538834 155.869141 
L 111.640323 155.834431 
L 111.843299 156.126121 
L 112.046276 155.923934 
L 112.249253 156.150229 
L 112.350741 156.004848 
L 112.45223 156.087696 
L 112.655206 155.895183 
L 112.959671 156.115828 
L 113.264137 156.276726 
L 113.365625 155.99231 
L 113.467113 156.130958 
L 113.568602 156.071908 
L 113.67009 156.260164 
L 113.974555 156.013709 
L 114.27902 156.407403 
L 114.380509 156.15762 
L 114.583485 156.272624 
L 114.684974 156.517841 
L 114.887951 156.177123 
L 114.989439 156.372189 
L 115.090927 156.304742 
L 115.192416 156.659623 
L 115.395392 156.392389 
L 115.801346 156.740924 
L 115.902834 156.371106 
L 116.105811 156.600651 
L 116.207299 156.904376 
L 116.511765 156.548875 
L 116.81623 157.135662 
L 116.917718 156.536493 
L 117.019206 156.828299 
L 117.120695 156.647512 
L 117.222183 157.189682 
L 117.323672 156.897527 
L 117.42516 157.079824 
L 117.526648 156.739685 
L 117.831113 157.078314 
L 118.03409 157.102809 
L 118.135579 156.896172 
L 118.237067 157.206244 
L 118.338555 156.952746 
L 118.440044 157.050028 
L 118.541532 156.76596 
L 118.744509 156.819051 
L 118.947486 156.762942 
L 119.048974 156.768591 
L 119.150462 156.912425 
L 119.556416 156.628589 
L 119.657904 156.688104 
L 119.860881 156.587881 
L 120.063858 156.467111 
L 120.165346 156.706949 
L 120.672788 156.507432 
L 120.875765 156.601812 
L 120.977253 156.176968 
L 121.078741 156.825707 
L 121.281718 156.394478 
L 121.383207 156.745026 
L 121.484695 156.388519 
L 121.586183 156.900468 
L 121.687672 156.395484 
L 121.890648 156.892574 
L 121.992137 156.248826 
L 122.093625 156.985367 
L 122.296602 156.593879 
L 122.39809 156.972326 
L 122.499579 156.551004 
L 122.601067 157.100913 
L 122.702555 156.610015 
L 122.804044 156.697894 
L 122.905532 157.067209 
L 123.007021 156.517377 
L 123.108509 157.148083 
L 123.311486 156.650375 
L 123.412974 157.280656 
L 123.514462 156.726838 
L 123.615951 157.20191 
L 123.717439 156.742588 
L 123.818928 156.867963 
L 123.920416 157.273729 
L 124.021904 156.768553 
L 124.123393 157.321635 
L 124.326369 156.88526 
L 124.427858 157.351702 
L 124.529346 157.064152 
L 124.630835 157.390708 
L 124.732323 156.959982 
L 124.833811 157.075335 
L 124.9353 157.475181 
L 125.036788 156.852136 
L 125.138276 157.666881 
L 125.341253 157.146226 
L 125.442742 157.623812 
L 125.54423 157.16778 
L 125.645718 157.615957 
L 125.747207 157.173545 
L 125.848695 157.341951 
L 125.950183 157.748259 
L 126.051672 157.10308 
L 126.15316 157.870229 
L 126.356137 157.387457 
L 126.457625 157.868178 
L 126.559114 157.550522 
L 126.660602 157.768033 
L 126.863579 157.498824 
L 126.965067 158.090719 
L 127.066556 157.513451 
L 127.168044 158.120166 
L 127.371021 157.623812 
L 127.472509 158.243529 
L 127.573997 157.881721 
L 127.675486 158.10968 
L 127.878463 157.849913 
L 127.979951 158.36252 
L 128.081439 157.971574 
L 128.182928 158.451985 
L 128.385904 158.181577 
L 128.487393 158.591329 
L 128.588881 158.388523 
L 128.791858 158.453223 
L 128.893346 158.157392 
L 128.994835 158.752614 
L 129.096323 158.691707 
L 129.197811 158.692094 
L 129.2993 158.566796 
L 129.603765 158.987847 
L 129.705253 158.771962 
L 130.111207 159.26909 
L 130.314184 159.083504 
L 130.51716 159.348495 
L 130.923114 159.485711 
L 131.126091 159.77063 
L 131.227579 159.612285 
L 131.633532 160.021032 
L 131.836509 159.933037 
L 131.937998 160.012402 
L 132.039486 160.451796 
L 132.242463 160.19319 
L 132.546928 160.259322 
L 132.648416 160.33207 
L 132.749905 160.131509 
L 132.952881 160.204025 
L 133.05437 160.468164 
L 133.358835 160.234053 
L 133.6633 160.465649 
L 133.764788 160.250731 
L 134.069253 160.62914 
L 134.27223 160.563666 
L 134.576695 160.587271 
L 134.678184 160.71787 
L 134.779672 160.515064 
L 135.084137 160.934684 
L 135.388602 160.760474 
L 135.693067 161.016487 
L 135.794556 160.710633 
L 136.099021 161.288365 
L 136.301998 161.10719 
L 136.606463 161.150994 
L 136.707951 161.310035 
L 136.80944 161.112492 
L 137.113905 161.521664 
L 137.316881 161.386421 
L 137.621347 161.351749 
L 137.722835 161.675867 
L 137.824323 161.338631 
L 138.128788 161.798959 
L 138.331765 161.675442 
L 138.63623 161.691578 
L 138.737719 161.933892 
L 138.839207 161.593832 
L 139.143672 162.132171 
L 139.448137 161.907463 
L 139.549626 162.081673 
L 139.651114 161.987525 
L 139.752602 162.195671 
L 139.854091 162.003004 
L 139.955579 162.205036 
L 140.057068 162.13813 
L 140.158556 162.476604 
L 140.260044 162.342484 
L 140.767486 163.195847 
L 140.868975 163.121319 
L 141.17344 163.953864 
L 141.274928 163.902708 
L 141.680882 164.584996 
L 141.78237 164.744501 
L 141.883858 164.600552 
L 142.188323 165.617484 
L 142.289812 165.46564 
L 143.609161 167.52009 
L 143.710649 167.506817 
L 143.812137 167.878531 
L 143.913626 167.716047 
L 144.218091 168.155131 
L 144.319579 168.072244 
L 144.827021 168.452123 
L 144.92851 168.310302 
L 145.029998 168.558034 
L 145.131486 168.481377 
L 145.232975 168.805688 
L 145.435951 168.685963 
L 145.53744 168.906221 
L 145.638928 168.725007 
L 145.841905 169.047693 
L 145.943393 168.934894 
L 146.349347 169.400408 
L 146.552324 169.435273 
L 146.653812 169.458955 
L 146.856789 169.828618 
L 146.958277 169.650616 
L 147.059765 169.738688 
L 147.161254 169.671551 
L 147.262742 169.915491 
L 147.364231 169.766859 
L 147.465719 169.886469 
L 147.567207 169.662225 
L 147.668696 169.814262 
L 147.770184 169.725493 
L 147.871672 169.928067 
L 148.074649 169.742326 
L 148.176138 169.868939 
L 148.379114 170.200758 
L 148.886556 171.489258 
L 148.988044 171.511315 
L 149.495486 172.844277 
L 149.698463 173.023169 
L 149.90144 173.394535 
L 150.002928 173.323643 
L 150.916324 174.622127 
L 151.1193 174.753384 
L 151.423765 175.316025 
L 151.525254 175.314748 
L 151.931207 175.929047 
L 152.134184 176.136767 
L 152.235672 176.270965 
L 152.438649 176.65897 
L 152.844603 176.985294 
L 152.946091 177.175833 
L 153.047579 177.069303 
L 153.65651 177.777982 
L 153.859486 177.906182 
L 154.062463 178.102952 
L 154.26544 178.279947 
L 154.468417 178.589593 
L 154.569905 178.582666 
L 154.975859 179.075576 
L 155.077347 179.016565 
L 155.584789 179.679002 
L 155.686277 179.568718 
L 155.990742 180.012523 
L 156.193719 180.069097 
L 156.599673 180.693109 
L 156.701161 180.662307 
L 156.904138 180.990295 
L 157.005626 181.033054 
L 157.208603 181.376597 
L 157.716045 182.073706 
L 157.817533 181.921515 
L 158.121998 182.716021 
L 158.223487 182.560966 
L 158.832417 183.370487 
L 158.933905 183.761046 
L 159.035394 183.690697 
L 159.339859 184.061985 
L 160.557719 185.926051 
L 160.659208 185.802843 
L 160.963673 186.56233 
L 161.065161 186.559737 
L 161.166649 186.834169 
L 161.268138 186.722957 
L 161.572603 187.534954 
L 161.674091 187.296896 
L 161.978556 188.39002 
L 162.181533 188.61318 
L 162.688975 189.579846 
L 163.399394 191.241221 
L 163.500882 191.324108 
L 163.60237 191.746089 
L 163.703859 191.708399 
L 163.906836 192.300293 
L 164.008324 192.780472 
L 164.109812 192.671968 
L 164.617254 194.124734 
L 164.718743 194.010387 
L 165.023208 195.360375 
L 165.124696 195.326671 
L 166.647022 199.033132 
L 166.74851 198.906983 
L 167.052975 199.962339 
L 167.154464 199.959089 
L 167.763394 200.991422 
L 167.864882 200.965108 
L 168.270836 201.7393 
L 168.372324 201.63068 
L 168.473812 201.975191 
L 168.575301 201.915986 
L 168.676789 202.252796 
L 168.778278 202.104552 
L 169.082743 202.818996 
L 169.184231 202.642194 
L 169.590185 202.915891 
L 169.691673 203.239274 
L 169.793161 202.902309 
L 169.996138 203.273946 
L 170.097626 203.762677 
L 170.199115 203.394484 
L 170.402092 203.511346 
L 170.50358 203.467194 
L 170.706557 203.838443 
L 170.808045 203.687219 
L 171.11251 204.132146 
L 171.315487 203.998026 
L 171.72144 204.187869 
L 171.822929 203.951358 
L 172.025906 204.053245 
L 172.127394 204.49318 
L 172.228882 204.127348 
L 172.330371 204.172545 
L 172.431859 204.00236 
L 172.533347 204.223314 
L 172.736324 204.046938 
L 173.040789 203.914017 
L 173.142278 204.440012 
L 173.345254 204.157415 
L 173.446743 204.020508 
L 173.751208 204.247809 
L 173.852696 204.016523 
L 174.360138 205.117541 
L 174.563115 205.526171 
L 175.172045 207.270433 
L 175.273534 207.291484 
L 176.085441 209.211039 
L 176.288417 209.947541 
L 177.100324 211.854442 
L 177.201813 212.407254 
L 177.303301 212.36314 
L 177.607766 213.225791 
L 177.709255 213.331857 
L 178.01372 214.213081 
L 178.724138 216.190255 
L 178.825627 216.60496 
L 178.927115 216.552179 
L 179.23158 217.841415 
L 179.637534 218.738311 
L 180.347952 221.203829 
L 180.652417 221.930115 
L 181.058371 223.188394 
L 181.464324 224.270876 
L 181.971766 225.647759 
L 182.580697 227.488026 
L 182.783673 227.99119 
L 183.494092 229.46903 
L 183.59558 229.499252 
L 183.697069 229.409516 
L 183.900045 229.641228 
L 184.204511 229.726359 
L 184.305999 229.990459 
L 184.508976 229.85483 
L 184.914929 230.058526 
L 185.320883 230.294339 
L 185.422371 230.1495 
L 185.828325 230.405706 
L 185.929813 230.360587 
L 186.13279 230.442739 
L 186.335766 230.540485 
L 186.538743 230.61482 
L 186.843208 230.63382 
L 186.944697 230.808455 
L 187.147673 230.669923 
L 187.858092 230.980884 
L 188.264046 231.0445 
L 188.467022 231.115856 
L 188.568511 230.923034 
L 188.669999 231.212673 
L 188.771487 231.134082 
L 188.872976 231.26263 
L 188.974464 231.083777 
L 189.177441 231.187521 
L 189.278929 231.252066 
L 189.380418 231.101616 
L 189.481906 231.311155 
L 189.786371 231.174016 
L 189.989348 231.279695 
L 190.090836 231.363898 
L 190.293813 231.249551 
L 190.49679 231.335069 
L 190.598278 231.1739 
L 190.902743 231.438658 
L 191.004232 231.309917 
L 191.10572 231.369044 
L 191.207208 231.274819 
L 191.308697 231.4113 
L 191.511674 231.259999 
L 191.816139 231.370398 
L 191.917627 231.454678 
L 192.019115 231.264681 
L 192.120604 231.469073 
L 192.323581 231.267119 
L 193.135488 231.371559 
L 193.236976 231.168753 
L 193.439953 231.322725 
L 193.947395 231.346717 
L 194.048883 231.241231 
L 194.150371 231.312741 
L 194.353348 231.30121 
L 194.86079 231.245642 
L 195.165255 231.402207 
L 195.266743 231.292039 
L 195.672697 231.474259 
L 195.774185 231.421748 
L 196.07865 231.559738 
L 196.586092 231.476967 
L 196.992046 231.645411 
L 197.093534 231.485635 
L 197.195023 231.570263 
L 197.499488 231.43088 
L 198.00693 231.538688 
L 198.920325 231.414705 
L 199.021813 231.483584 
L 199.326278 231.310845 
L 200.036697 231.390946 
L 200.239674 231.284493 
L 200.645627 231.237903 
L 201.660511 231.214879 
L 201.761999 231.289253 
L 201.863488 231.178273 
L 202.066465 231.370476 
L 202.37093 231.29022 
L 202.573906 231.335804 
L 202.776883 231.290066 
L 203.081348 231.474104 
L 203.385813 231.434789 
L 204.096232 231.719243 
L 204.299209 231.497205 
L 204.603674 231.622542 
L 204.806651 231.541164 
L 205.009627 231.780847 
L 205.314093 231.600485 
L 205.517069 231.740565 
L 205.618558 231.769509 
L 205.720046 231.67424 
L 206.126 231.843225 
L 206.328976 231.822562 
L 206.937907 231.891441 
L 207.140883 231.942558 
L 207.445348 231.950607 
L 207.546837 231.970303 
L 207.749814 231.864547 
L 208.054279 232.114097 
L 208.257255 231.949214 
L 208.663209 232.102257 
L 208.764697 231.959275 
L 209.069162 232.149311 
L 209.272139 232.100902 
L 209.475116 232.106629 
L 209.678093 232.210644 
L 209.881069 232.041581 
L 209.982558 232.1158 
L 210.084046 232.342636 
L 210.287023 232.193579 
L 210.794465 232.081632 
L 210.997442 232.236687 
L 211.09893 232.34074 
L 211.504883 232.187156 
L 212.31679 232.294228 
L 212.519767 232.327042 
L 212.621256 232.324604 
L 212.722744 232.470681 
L 213.027209 232.322708 
L 213.128697 232.269462 
L 213.331674 232.511854 
L 213.433163 232.271513 
L 213.737628 232.558096 
L 214.042093 232.363958 
L 214.346558 232.51495 
L 214.448046 232.32383 
L 214.549535 232.538051 
L 214.651023 232.411631 
L 214.752511 232.576089 
L 215.056977 232.369453 
L 215.259953 232.513131 
L 216.173349 232.523347 
L 216.477814 232.501251 
L 216.579302 232.654062 
L 216.680791 232.588085 
L 216.782279 232.746739 
L 216.985256 232.597063 
L 217.188232 232.579108 
L 217.289721 232.682774 
L 217.492698 232.538399 
L 217.695674 232.714969 
L 218.000139 232.627671 
L 218.101628 232.735478 
L 218.304605 232.644775 
L 218.406093 232.788763 
L 218.60907 232.648954 
L 218.812046 232.698833 
L 218.913535 232.63216 
L 219.218 232.869908 
L 219.420977 232.673371 
L 219.82693 232.733621 
L 219.928419 232.667876 
L 220.131395 232.893977 
L 220.334372 232.782571 
L 220.740326 232.853501 
L 220.841814 232.718491 
L 221.146279 232.978992 
L 221.247767 232.833457 
L 221.349256 232.890727 
L 221.450744 232.756955 
L 221.653721 232.846768 
L 221.755209 232.898969 
L 221.856698 232.746352 
L 222.161163 233.010181 
L 222.36414 232.898079 
L 222.567116 232.797547 
L 222.770093 232.989053 
L 222.97307 232.918743 
L 223.074558 233.008247 
L 223.176047 232.813993 
L 223.277535 232.892275 
L 223.379023 232.825369 
L 223.480512 233.105877 
L 223.683488 232.936775 
L 224.393907 232.868786 
L 224.495395 232.993503 
L 224.799861 232.736252 
L 225.510279 232.865342 
L 225.713256 232.672907 
L 226.322186 232.664549 
L 226.626651 232.592032 
L 227.032605 232.627323 
L 227.235582 232.499936 
L 227.438558 232.659363 
L 227.540047 232.351769 
L 227.743023 232.573884 
L 227.844512 232.698756 
L 227.946 232.411863 
L 228.148977 232.506243 
L 228.55493 232.470372 
L 228.859396 232.559334 
L 229.062372 232.412096 
L 229.366837 232.441118 
L 229.569814 232.36032 
L 229.874279 232.466889 
L 230.584698 232.349176 
L 230.686186 232.361249 
L 230.787675 232.537858 
L 230.990651 232.269307 
L 231.396605 232.380984 
L 231.498093 232.253248 
L 231.802558 232.432914 
L 232.005535 232.343565 
L 232.208512 232.281419 
L 233.121907 232.307539 
L 233.223396 232.222446 
L 233.426372 232.268495 
L 233.527861 232.225232 
L 233.832326 232.429393 
L 234.035303 232.268843 
L 234.339768 232.390735 
L 234.441256 232.242336 
L 234.745721 232.503225 
L 234.84721 232.314775 
L 234.948698 232.405556 
L 235.151675 232.303089 
L 235.354652 232.479427 
L 235.45614 232.131627 
L 235.659117 232.41109 
L 235.760605 232.530544 
L 235.862093 232.390968 
L 235.963582 232.484805 
L 236.166559 232.319148 
L 236.369535 232.382764 
L 236.674 232.450056 
L 236.775489 232.572916 
L 236.978466 232.378507 
L 237.790373 232.594199 
L 237.993349 232.414108 
L 238.297814 232.562159 
L 238.399303 232.413682 
L 238.703768 232.651237 
L 238.805256 232.514331 
L 239.008233 232.534027 
L 239.312698 232.602403 
L 239.414187 232.499781 
L 239.718652 232.749138 
L 239.921628 232.665206 
L 240.327582 232.650192 
L 240.42907 232.731957 
L 240.530559 232.620551 
L 240.733535 232.853308 
L 241.139489 232.76628 
L 241.240977 232.922225 
L 241.342466 232.689314 
L 241.443954 232.866542 
L 241.545442 232.800526 
L 241.646931 233.007279 
L 241.849908 232.895061 
L 242.052884 232.895835 
L 242.255861 232.965023 
L 242.357349 232.813335 
L 242.560326 233.055069 
L 242.661815 232.972337 
L 242.864791 233.056385 
L 243.067768 232.995903 
L 244.18414 233.192014 
L 244.285629 233.002365 
L 244.488605 233.154711 
L 244.590094 233.270064 
L 244.691582 233.184468 
L 244.79307 233.248588 
L 244.996047 233.216044 
L 245.199024 233.3153 
L 245.300512 233.059248 
L 245.604977 233.423803 
L 245.909443 233.241313 
L 246.315396 233.234115 
L 246.518373 233.424074 
L 246.72135 233.36425 
L 246.924326 233.336041 
L 247.127303 233.473953 
L 247.228791 233.333177 
L 247.634745 233.46811 
L 247.736233 233.394859 
L 247.93921 233.433826 
L 248.243675 233.48355 
L 248.446652 233.449381 
L 248.751117 233.535054 
L 249.461536 233.516132 
L 249.563024 233.727258 
L 249.766001 233.555447 
L 250.577908 233.711431 
L 250.882373 233.603817 
L 251.08535 233.63876 
L 251.186838 233.511256 
L 251.491303 233.827751 
L 251.592792 233.660739 
L 251.69428 233.732366 
L 251.897257 233.571932 
L 252.100233 233.736003 
L 252.30321 233.652497 
L 252.404699 233.678655 
L 252.506187 233.85035 
L 252.607675 233.628699 
L 252.810652 233.658379 
L 253.115117 233.656947 
L 253.622559 233.805191 
L 253.724047 233.619644 
L 253.927024 233.772222 
L 254.130001 233.629124 
L 254.434466 233.90228 
L 254.637443 233.771332 
L 254.738931 233.596813 
L 255.043396 233.858824 
L 255.246373 233.667975 
L 255.44935 233.931224 
L 255.753815 233.727412 
L 255.855303 233.663912 
L 255.956792 233.816684 
L 256.261257 233.767385 
L 256.464234 233.902164 
L 256.66721 233.742775 
L 256.971675 233.840753 
L 257.276141 233.634078 
L 257.377629 234.064764 
L 257.580606 233.823146 
L 257.986559 233.775976 
L 258.189536 233.808868 
L 258.291024 233.946045 
L 258.595489 233.868072 
L 258.696978 233.908394 
L 258.899955 234.071846 
L 259.102931 234.10822 
L 259.508885 234.345659 
L 259.81335 234.421155 
L 259.914838 234.624696 
L 260.016327 234.358196 
L 260.320792 234.887326 
L 260.42228 234.73378 
L 260.523769 234.818254 
L 260.625257 234.692259 
L 261.234187 235.125539 
L 261.741629 235.151504 
L 261.843117 235.387666 
L 261.944606 235.157734 
L 262.452048 235.519271 
L 262.655024 235.49675 
L 263.162466 235.746068 
L 263.263955 235.851244 
L 263.466931 235.713873 
L 263.771397 235.941019 
L 263.974373 235.94396 
L 264.075862 235.913196 
L 264.17735 236.273147 
L 264.278838 236.027001 
L 264.380327 236.212936 
L 264.481815 236.069025 
L 264.78628 236.351235 
L 264.887769 236.166694 
L 265.192234 236.541504 
L 265.395211 236.424371 
L 265.699676 236.547463 
L 265.801164 236.494488 
L 266.207118 236.872703 
L 266.410094 236.76211 
L 266.714559 237.087041 
L 266.816048 236.887369 
L 267.120513 237.382175 
L 267.32349 237.238535 
L 267.526466 237.403419 
L 267.830932 237.463437 
L 267.93242 237.803846 
L 268.033908 237.511846 
L 268.236885 237.742242 
L 268.338373 237.672511 
L 268.54135 237.909718 
L 268.642839 237.797693 
L 268.744327 238.178423 
L 268.947304 238.06458 
L 269.15028 238.193283 
L 269.251769 238.355458 
L 269.353257 238.126609 
L 269.454746 238.188562 
L 269.657722 238.546113 
L 269.962187 238.441518 
L 270.165164 238.663865 
L 270.368141 238.720323 
L 270.672606 238.929513 
L 271.180048 239.23467 
L 271.281536 239.01685 
L 271.586001 239.515758 
L 271.68749 239.361284 
L 271.788978 239.546135 
L 271.890467 239.401218 
L 272.194932 239.543968 
L 272.29642 239.936616 
L 272.397908 239.693102 
L 272.499397 239.875593 
L 272.600885 239.675108 
L 272.803862 239.92849 
L 273.006839 239.930077 
L 273.209815 240.258567 
L 273.311304 240.076154 
L 273.615769 240.327407 
L 273.717257 240.303416 
L 273.818746 240.507654 
L 273.920234 240.247152 
L 274.224699 240.767227 
L 274.326188 240.620762 
L 274.427676 240.772296 
L 274.630653 240.670603 
L 274.935118 240.924565 
L 275.036606 240.927815 
L 275.239583 241.108719 
L 275.645536 241.195746 
L 275.747025 241.453385 
L 275.848513 241.187659 
L 276.05149 241.426684 
L 276.152978 241.757381 
L 276.254467 241.482174 
L 276.355955 241.662034 
L 276.457443 241.53097 
L 276.761909 241.770769 
L 276.964885 241.870489 
L 277.066374 242.04466 
L 277.26935 241.859809 
L 277.472327 242.05921 
L 277.675304 242.045279 
L 277.776792 242.073527 
L 277.878281 241.743566 
L 278.081257 242.081382 
L 278.182746 241.873662 
L 278.385723 241.992769 
L 278.588699 241.912319 
L 278.690188 242.01943 
L 278.893164 241.897886 
L 278.994653 242.059597 
L 279.19763 241.808343 
L 279.299118 241.783849 
L 279.400606 242.116364 
L 279.80656 241.707347 
L 280.009537 241.956781 
L 280.111025 241.745849 
L 280.314002 242.036418 
L 280.516978 241.802074 
L 280.719955 241.907134 
L 280.821444 241.730642 
L 280.922932 241.994935 
L 281.125909 241.634482 
L 281.328885 242.008789 
L 281.430374 241.768409 
L 281.633351 241.817398 
L 281.734839 241.646362 
L 281.937816 241.781179 
L 282.039304 241.732422 
L 282.242281 241.848239 
L 282.445258 241.691791 
L 282.648234 241.762914 
L 282.749723 241.597759 
L 282.851211 241.85532 
L 282.952699 241.617107 
L 283.054188 241.702664 
L 283.155676 241.606505 
L 283.257165 241.980618 
L 283.460141 241.648064 
L 283.764606 241.659015 
L 283.866095 241.734976 
L 284.069072 241.487901 
L 284.272048 241.762488 
L 284.678002 241.395534 
L 284.77949 241.73366 
L 284.982467 241.554188 
L 285.185444 241.782417 
L 285.286932 241.414224 
L 285.591397 241.556703 
L 285.997351 241.406717 
L 286.098839 241.631657 
L 286.606281 241.353974 
L 286.707769 241.368408 
L 286.910746 241.56096 
L 287.519676 241.428426 
L 287.722653 241.42413 
L 287.92563 241.291403 
L 288.027118 241.576206 
L 288.128607 241.388917 
L 288.230095 241.496763 
L 288.433072 241.228677 
L 288.636048 241.379939 
L 288.839025 241.300961 
L 288.940514 241.598108 
L 289.14349 241.212424 
L 289.244979 241.140798 
L 289.346467 241.405053 
L 289.447955 241.233398 
L 289.549444 241.391084 
L 289.752421 241.087436 
L 289.955397 241.401764 
L 290.056886 241.230573 
L 290.259862 241.290823 
L 290.361351 241.054738 
L 290.564328 241.248141 
L 290.767304 241.218964 
L 290.868793 241.3645 
L 290.970281 241.060426 
L 291.173258 241.197526 
L 291.274746 241.103534 
L 291.477723 241.182319 
L 291.6807 241.016119 
L 291.782188 241.331918 
L 291.883676 241.032217 
L 292.086653 241.172374 
L 292.28963 240.98048 
L 292.391118 241.137586 
L 292.594095 240.969336 
L 292.695583 241.169472 
L 293.203025 240.962409 
L 293.304514 241.178681 
L 293.50749 240.769935 
L 293.710467 241.162623 
L 293.811956 240.948169 
L 293.913444 241.070333 
L 294.116421 240.774424 
L 294.319397 241.019602 
L 294.420886 240.827476 
L 294.623862 240.974831 
L 294.826839 240.82469 
L 294.928328 240.949756 
L 295.029816 240.800234 
L 295.131304 240.920501 
L 295.232793 240.853519 
L 295.334281 240.546427 
L 295.537258 240.913033 
L 295.740235 240.834828 
L 296.0447 240.692234 
L 296.146188 240.826277 
L 296.247676 240.676252 
L 296.450653 240.736463 
L 296.552142 240.718276 
L 296.65363 240.845973 
L 296.755118 240.746485 
L 296.856607 240.427282 
L 297.059583 240.739714 
L 297.161072 240.54635 
L 297.26256 240.707635 
L 297.567025 240.611475 
L 297.87149 240.644444 
L 298.074467 240.349619 
L 298.175956 240.497747 
L 298.480421 240.692427 
L 298.683397 240.30922 
L 298.886374 240.513419 
L 299.089351 240.402052 
L 299.190839 240.519533 
L 299.292328 240.218478 
L 299.495304 240.512607 
L 299.698281 240.396015 
L 299.901258 240.29173 
L 300.002746 240.225443 
L 300.307211 240.500998 
L 300.510188 240.127813 
L 300.611677 240.204238 
L 300.713165 240.323422 
L 300.814653 240.234266 
L 300.916142 240.339635 
L 301.119118 239.952791 
L 301.220607 240.339094 
L 301.423584 240.165929 
L 301.525072 240.226063 
L 301.829537 240.017104 
L 302.134002 240.262166 
L 302.235491 240.177538 
L 302.336979 239.893393 
L 302.539956 240.093761 
L 302.641444 240.018729 
L 302.742932 240.197002 
L 302.945909 239.837554 
L 303.047398 240.106453 
L 303.250374 239.905582 
L 303.351863 240.097592 
L 303.554839 239.859572 
L 303.656328 239.952946 
L 303.859305 239.776879 
L 303.960793 240.032621 
L 304.366746 239.815149 
L 304.468235 239.902718 
L 304.569723 239.833762 
L 304.7727 239.634942 
L 304.975677 239.90237 
L 305.077165 239.76883 
L 305.178653 239.845487 
L 305.280142 239.519666 
L 305.483119 239.732766 
L 305.686095 239.671239 
L 305.787584 239.70355 
L 305.889072 239.586262 
L 306.092049 239.659475 
L 306.599491 239.476946 
L 306.700979 239.663151 
L 306.802467 239.512005 
L 306.903956 239.623217 
L 307.106933 239.330017 
L 307.309909 239.656767 
L 307.411398 239.419366 
L 307.512886 239.500589 
L 307.715863 239.256572 
L 307.817351 239.467388 
L 308.020328 239.316087 
L 308.121816 239.493934 
L 308.426281 239.292598 
L 308.629258 239.427183 
L 308.730747 239.332649 
L 308.832235 239.031245 
L 309.035212 239.339769 
L 309.1367 239.362599 
L 309.238188 239.235715 
L 309.339677 239.292056 
L 309.441165 239.038791 
L 309.644142 239.234206 
L 309.74563 239.075823 
L 309.847119 239.25487 
L 310.050095 239.059261 
L 310.253072 239.208589 
L 310.354561 239.019443 
L 310.456049 239.203636 
L 310.557537 239.101595 
L 310.659026 238.82279 
L 310.760514 239.093778 
L 310.963491 239.084878 
L 311.064979 239.185371 
L 311.267956 238.804022 
L 311.470933 238.998624 
L 311.673909 238.989647 
L 311.775398 238.778405 
L 311.978375 239.013329 
L 312.079863 238.894068 
L 312.28284 238.959193 
L 312.384328 238.639525 
L 312.587305 238.849335 
L 312.688793 238.827433 
L 312.790282 238.963914 
L 312.89177 238.911442 
L 313.094747 238.71715 
L 313.196235 238.822635 
L 313.297723 238.728836 
L 313.399212 238.936633 
L 313.5007 238.584732 
L 313.805165 238.786299 
L 313.906654 238.702948 
L 314.008142 238.812729 
L 314.10963 238.494918 
L 314.312607 238.759676 
L 314.414096 238.566545 
L 314.617072 238.665297 
L 314.820049 238.58775 
L 314.921537 238.613135 
L 315.023026 238.501535 
L 315.124514 238.700394 
L 315.327491 238.332047 
L 315.428979 238.493177 
L 315.631956 238.755149 
L 315.834933 238.297723 
L 316.03791 238.492171 
L 316.342375 238.466631 
L 316.443863 238.182216 
L 316.545351 238.556871 
L 316.748328 238.435249 
L 316.849817 238.47677 
L 316.951305 238.23283 
L 317.154282 238.291571 
L 317.357258 238.382622 
L 317.458747 238.470424 
L 317.560235 238.116045 
L 317.661724 238.347332 
L 317.763212 238.170065 
L 317.966189 238.396669 
L 318.169165 238.036641 
L 318.270654 238.138102 
L 318.372142 238.443143 
L 318.473631 238.120573 
L 318.575119 238.381578 
L 318.778096 238.030411 
L 318.981072 238.162906 
L 319.285538 238.062374 
L 319.488514 238.13133 
L 319.590003 237.985562 
L 319.691491 238.201177 
L 319.995956 237.892073 
L 320.097445 238.1061 
L 320.198933 238.029405 
L 320.300421 238.207329 
L 320.503398 237.891957 
L 320.807863 237.997016 
L 320.909352 237.946595 
L 321.01084 237.711091 
L 321.213817 238.074176 
L 321.416793 237.700527 
L 321.61977 237.968033 
L 321.721259 237.806825 
L 321.822747 237.890022 
L 321.924235 237.68145 
L 322.025724 237.826212 
L 322.2287 237.805045 
L 322.431677 237.928176 
L 322.533166 237.527943 
L 322.736142 237.801872 
L 322.837631 237.670267 
L 322.939119 237.882476 
L 323.040607 237.468119 
L 323.345073 237.862509 
L 323.649538 237.583201 
L 323.751026 237.564704 
L 323.852514 237.71736 
L 323.954003 237.514709 
L 324.055491 237.76217 
L 324.15698 237.491027 
L 324.359956 237.64496 
L 324.562933 237.632268 
L 324.664421 237.616286 
L 324.76591 237.439407 
L 324.968887 237.708886 
L 325.070375 237.449429 
L 325.171863 237.689847 
L 325.273352 237.380511 
L 325.37484 237.606767 
L 325.476328 237.448268 
L 325.679305 237.634318 
L 325.98377 237.412281 
L 326.085259 237.556501 
L 326.186747 237.421142 
L 326.288235 237.562421 
L 326.389724 237.220464 
L 326.592701 237.7506 
L 326.795677 237.278238 
L 326.897166 237.543808 
L 326.998654 237.317514 
L 327.303119 237.408488 
L 327.404608 237.2936 
L 327.607584 237.583201 
L 327.709073 237.174571 
L 327.810561 237.257458 
L 327.912049 237.70459 
L 328.013538 237.185561 
L 328.216515 237.472414 
L 328.318003 237.19566 
L 328.419491 237.325253 
L 328.622468 237.188579 
L 328.825445 237.67522 
L 328.926933 237.20696 
L 329.028422 237.240432 
L 329.12991 237.367006 
L 329.231398 237.31051 
L 329.332887 237.107356 
L 329.535863 237.354004 
L 329.637352 237.063939 
L 329.73884 237.55058 
L 329.941817 236.978111 
L 330.043305 237.350135 
L 330.34777 237.144852 
L 330.449259 237.500198 
L 330.550747 236.990146 
L 330.753724 237.253627 
L 330.956701 237.13483 
L 331.159677 237.285048 
L 331.261166 236.899326 
L 331.464143 237.251073 
L 331.565631 236.987901 
L 331.768608 237.277425 
L 331.870096 236.888027 
L 332.073073 237.35443 
L 332.174561 236.8455 
L 332.377538 237.101087 
L 332.479026 237.042463 
L 332.682003 237.190165 
L 332.88498 236.822011 
L 332.986468 237.246313 
L 333.189445 236.742143 
L 333.392422 237.309156 
L 333.49391 236.812028 
L 333.696887 237.137539 
L 333.899864 236.87932 
L 334.204329 236.987592 
L 334.305817 237.252582 
L 334.508794 236.645441 
L 334.610282 237.10159 
L 334.813259 236.705265 
L 334.914747 236.875257 
L 335.016236 237.007017 
L 335.117724 236.712502 
L 335.320701 237.099346 
L 335.422189 236.637393 
L 335.625166 236.944446 
L 335.828143 236.740827 
L 335.929631 236.98914 
L 336.132608 236.729837 
L 336.234096 236.948702 
L 336.335585 236.826771 
L 336.437073 236.516313 
L 336.64005 236.896424 
L 336.741538 236.565728 
L 336.944515 236.968824 
L 337.147492 236.525638 
L 337.24898 236.787843 
L 337.350468 236.674154 
L 337.553445 236.801889 
L 337.756422 236.490851 
L 337.959399 236.804289 
L 338.060887 236.386178 
L 338.263864 236.782928 
L 338.46684 236.609145 
L 338.568329 236.894063 
L 338.669817 236.452503 
L 338.771306 236.502653 
L 338.872794 236.726123 
L 338.974282 236.366791 
L 339.177259 236.746438 
L 339.278747 236.471541 
L 339.481724 236.742259 
L 339.684701 236.341136 
L 339.786189 236.580974 
L 339.989166 236.357736 
L 340.192143 236.618857 
L 340.293631 236.347908 
L 340.496608 236.671213 
L 340.699585 236.186429 
L 340.801073 236.544483 
L 340.902561 236.353867 
L 341.105538 236.578846 
L 341.308515 236.117589 
L 341.410003 236.494333 
L 341.511492 236.427815 
L 341.61298 236.143593 
L 342.120422 236.513991 
L 342.22191 236.084272 
L 342.323399 236.128695 
L 342.424887 236.37159 
L 342.627864 236.083033 
L 342.830841 236.520918 
L 342.932329 236.05405 
L 343.135306 236.386178 
L 343.236794 236.012761 
L 343.338282 236.05703 
L 343.439771 236.237043 
L 343.541259 236.018372 
L 343.744236 236.41845 
L 343.947213 235.970118 
L 344.150189 236.153963 
L 344.251678 235.866761 
L 344.454655 236.214909 
L 344.556143 235.921206 
L 344.75912 236.292921 
L 344.962096 235.817849 
L 345.063585 236.199354 
L 345.165073 236.065581 
L 345.266562 235.704741 
L 345.469538 236.126528 
L 345.571027 235.89381 
L 345.774003 236.219475 
L 345.97698 235.730087 
L 346.078469 236.101027 
L 346.179957 235.73473 
L 346.281445 235.808872 
L 346.484422 236.077345 
L 346.58591 235.613418 
L 346.788887 235.945005 
L 346.991864 235.675177 
L 347.093352 235.886574 
L 347.194841 235.611174 
L 347.397817 236.075371 
L 347.600794 235.523605 
L 347.702283 235.943573 
L 347.905259 235.455925 
L 348.108236 235.858983 
L 348.209724 235.562959 
L 348.412701 236.010904 
L 348.615678 235.469198 
L 348.717166 235.787163 
L 348.818655 235.694061 
L 348.920143 235.396024 
L 349.12312 235.829033 
L 349.224608 235.455035 
L 349.427585 235.849503 
L 349.630562 235.336432 
L 349.73205 235.727804 
L 349.935027 235.421563 
L 350.036515 235.785267 
L 350.239492 235.328306 
L 350.442469 235.721032 
L 350.645445 235.300213 
L 350.746934 235.529061 
L 350.848422 235.412122 
L 351.051399 235.554213 
L 351.152887 235.534362 
L 351.254376 235.131885 
L 351.457352 235.584744 
L 351.558841 235.091564 
L 351.761818 235.518303 
L 351.964794 235.367505 
L 352.066283 235.477479 
L 352.269259 235.135019 
L 352.472236 235.424079 
L 352.675213 235.198945 
L 352.776701 235.475893 
L 352.87819 235.206916 
L 352.979678 235.25339 
L 353.081166 235.50832 
L 353.284143 235.152897 
L 353.48712 235.308571 
L 353.588608 235.001827 
L 353.791585 235.311318 
L 353.994562 235.138966 
L 354.09605 235.440911 
L 354.299027 234.969671 
L 354.502004 235.290384 
L 354.603492 234.935696 
L 354.70498 235.189813 
L 354.806469 235.146009 
L 354.907957 235.009257 
L 355.110934 235.264999 
L 355.313911 234.792792 
L 355.415399 235.382287 
L 355.618376 234.840233 
L 355.821353 235.064167 
L 355.922841 234.979577 
L 356.024329 235.075621 
L 356.125818 234.983021 
L 356.227306 235.058943 
L 356.328794 235.285818 
L 356.531771 234.846231 
L 356.63326 235.111879 
L 356.836236 234.803278 
L 357.039213 235.019163 
L 357.140701 234.777739 
L 357.343678 235.191748 
L 357.546655 234.732387 
L 357.648143 235.059833 
L 357.749632 235.018312 
L 357.85112 234.611346 
L 358.054097 234.977101 
L 358.155585 234.763963 
L 358.358562 235.132349 
L 358.561539 234.601672 
L 358.663027 235.045283 
L 358.866004 234.566497 
L 358.967492 234.834506 
L 359.068981 234.790741 
L 359.170469 234.727395 
L 359.271957 234.815235 
L 359.373446 235.161255 
L 359.576422 234.524048 
L 359.677911 234.958488 
L 359.880888 234.764505 
L 360.083864 234.680147 
L 360.185353 234.678948 
L 360.286841 234.881676 
L 360.489818 234.736063 
L 360.591306 234.480824 
L 360.794283 234.820962 
L 360.895771 234.620788 
L 360.99726 234.805523 
L 361.098748 234.649578 
L 361.301725 234.717528 
L 361.707678 234.585342 
L 362.012143 234.766207 
L 362.113632 234.500598 
L 362.21512 234.65515 
L 362.316609 234.579692 
L 362.519585 234.657355 
L 362.621074 234.373172 
L 362.82405 234.606586 
L 362.925539 234.756804 
L 363.128516 234.446423 
L 363.230004 234.614828 
L 363.331492 234.510891 
L 363.432981 234.72666 
L 363.534469 234.427733 
L 363.940423 234.690324 
L 364.041911 234.384819 
L 364.346376 234.553844 
L 364.447864 234.716135 
L 364.549353 234.389269 
L 364.650841 234.451493 
L 364.75233 234.657278 
L 365.056795 234.266216 
L 365.158283 234.421967 
L 365.259771 234.805677 
L 365.36126 234.464688 
L 365.462748 234.595016 
L 365.564237 234.28866 
L 365.767213 234.50559 
L 365.868702 234.421194 
L 365.97019 234.673763 
L 366.071678 234.245668 
L 366.173167 234.50617 
L 366.274655 234.377196 
L 366.376144 234.563827 
L 366.477632 234.3575 
L 366.680609 234.524976 
L 366.883585 234.424947 
L 366.985074 234.326156 
L 367.086562 234.517624 
L 367.188051 234.342292 
L 367.391027 234.587122 
L 367.492516 234.360789 
L 367.796981 234.505551 
L 367.898469 234.432067 
L 367.999958 234.195634 
L 368.304423 234.518669 
L 368.405911 234.522422 
L 368.507399 234.309323 
L 368.811865 234.618775 
L 369.014841 234.037484 
L 369.11633 234.5937 
L 369.217818 234.373288 
L 369.420795 234.425914 
L 369.522283 234.22663 
L 369.623772 234.51805 
L 369.72526 234.25364 
L 369.928237 234.401846 
L 370.029725 234.181626 
L 370.232702 234.511007 
L 370.33419 234.263623 
L 370.435679 234.399988 
L 370.638655 234.409817 
L 370.740144 234.504235 
L 370.841632 234.209526 
L 370.94312 234.407147 
L 371.146097 234.296012 
L 371.247586 234.617189 
L 371.349074 234.176712 
L 371.552051 234.3753 
L 371.653539 234.164136 
L 371.755027 234.661186 
L 371.856516 234.150592 
L 371.958004 234.202174 
L 372.059493 234.512787 
L 372.160981 234.40556 
L 372.262469 234.532793 
L 372.363958 234.04917 
L 372.566934 234.565646 
L 372.668423 234.221677 
L 372.769911 234.481985 
L 372.8714 234.155661 
L 373.074376 234.546414 
L 373.378841 234.242302 
L 373.48033 234.237542 
L 373.581818 234.537862 
L 373.581818 234.537862 
" style="fill:none;stroke:#081d58;stroke-dasharray:5.55,2.4;stroke-dashoffset:0;stroke-width:1.5;"/>
    <defs>
     <path d="M -0 4.242641 
L 4.242641 0 
L 0 -4.242641 
L -4.242641 -0 
z
" id="madcf2219ab" style="stroke:#081d58;stroke-linejoin:miter;"/>
    </defs>
    <g clip-path="url(#p031042c417)">
     <use style="fill:#081d58;stroke:#081d58;stroke-linejoin:miter;" x="69.218182" xlink:href="#madcf2219ab" y="157.842832"/>
     <use style="fill:#081d58;stroke:#081d58;stroke-linejoin:miter;" x="77.337252" xlink:href="#madcf2219ab" y="157.290253"/>
     <use style="fill:#081d58;stroke:#081d58;stroke-linejoin:miter;" x="85.456322" xlink:href="#madcf2219ab" y="154.400278"/>
     <use style="fill:#081d58;stroke:#081d58;stroke-linejoin:miter;" x="93.575392" xlink:href="#madcf2219ab" y="153.600973"/>
     <use style="fill:#081d58;stroke:#081d58;stroke-linejoin:miter;" x="101.694462" xlink:href="#madcf2219ab" y="154.759919"/>
     <use style="fill:#081d58;stroke:#081d58;stroke-linejoin:miter;" x="109.813532" xlink:href="#madcf2219ab" y="155.957793"/>
     <use style="fill:#081d58;stroke:#081d58;stroke-linejoin:miter;" x="117.932602" xlink:href="#madcf2219ab" y="157.10486"/>
     <use style="fill:#081d58;stroke:#081d58;stroke-linejoin:miter;" x="126.051672" xlink:href="#madcf2219ab" y="157.10308"/>
     <use style="fill:#081d58;stroke:#081d58;stroke-linejoin:miter;" x="134.170742" xlink:href="#madcf2219ab" y="160.561189"/>
     <use style="fill:#081d58;stroke:#081d58;stroke-linejoin:miter;" x="142.289812" xlink:href="#madcf2219ab" y="165.46564"/>
     <use style="fill:#081d58;stroke:#081d58;stroke-linejoin:miter;" x="150.408882" xlink:href="#madcf2219ab" y="173.907334"/>
     <use style="fill:#081d58;stroke:#081d58;stroke-linejoin:miter;" x="158.527952" xlink:href="#madcf2219ab" y="182.830059"/>
     <use style="fill:#081d58;stroke:#081d58;stroke-linejoin:miter;" x="166.647022" xlink:href="#madcf2219ab" y="199.033132"/>
     <use style="fill:#081d58;stroke:#081d58;stroke-linejoin:miter;" x="174.766092" xlink:href="#madcf2219ab" y="206.137452"/>
     <use style="fill:#081d58;stroke:#081d58;stroke-linejoin:miter;" x="182.885162" xlink:href="#madcf2219ab" y="228.243682"/>
     <use style="fill:#081d58;stroke:#081d58;stroke-linejoin:miter;" x="191.004232" xlink:href="#madcf2219ab" y="231.309917"/>
     <use style="fill:#081d58;stroke:#081d58;stroke-linejoin:miter;" x="199.123302" xlink:href="#madcf2219ab" y="231.40863"/>
     <use style="fill:#081d58;stroke:#081d58;stroke-linejoin:miter;" x="207.242372" xlink:href="#madcf2219ab" y="231.912066"/>
     <use style="fill:#081d58;stroke:#081d58;stroke-linejoin:miter;" x="215.361442" xlink:href="#madcf2219ab" y="232.525011"/>
     <use style="fill:#081d58;stroke:#081d58;stroke-linejoin:miter;" x="223.480512" xlink:href="#madcf2219ab" y="233.105877"/>
     <use style="fill:#081d58;stroke:#081d58;stroke-linejoin:miter;" x="231.599582" xlink:href="#madcf2219ab" y="232.318335"/>
     <use style="fill:#081d58;stroke:#081d58;stroke-linejoin:miter;" x="239.718652" xlink:href="#madcf2219ab" y="232.749138"/>
     <use style="fill:#081d58;stroke:#081d58;stroke-linejoin:miter;" x="247.837722" xlink:href="#madcf2219ab" y="233.479526"/>
     <use style="fill:#081d58;stroke:#081d58;stroke-linejoin:miter;" x="255.956792" xlink:href="#madcf2219ab" y="233.816684"/>
     <use style="fill:#081d58;stroke:#081d58;stroke-linejoin:miter;" x="264.075862" xlink:href="#madcf2219ab" y="235.913196"/>
     <use style="fill:#081d58;stroke:#081d58;stroke-linejoin:miter;" x="272.194932" xlink:href="#madcf2219ab" y="239.543968"/>
     <use style="fill:#081d58;stroke:#081d58;stroke-linejoin:miter;" x="280.314002" xlink:href="#madcf2219ab" y="242.036418"/>
     <use style="fill:#081d58;stroke:#081d58;stroke-linejoin:miter;" x="288.433072" xlink:href="#madcf2219ab" y="241.228677"/>
     <use style="fill:#081d58;stroke:#081d58;stroke-linejoin:miter;" x="296.552142" xlink:href="#madcf2219ab" y="240.718276"/>
     <use style="fill:#081d58;stroke:#081d58;stroke-linejoin:miter;" x="304.671212" xlink:href="#madcf2219ab" y="239.614549"/>
     <use style="fill:#081d58;stroke:#081d58;stroke-linejoin:miter;" x="312.790282" xlink:href="#madcf2219ab" y="238.963914"/>
     <use style="fill:#081d58;stroke:#081d58;stroke-linejoin:miter;" x="320.909352" xlink:href="#madcf2219ab" y="237.946595"/>
     <use style="fill:#081d58;stroke:#081d58;stroke-linejoin:miter;" x="329.028422" xlink:href="#madcf2219ab" y="237.240432"/>
     <use style="fill:#081d58;stroke:#081d58;stroke-linejoin:miter;" x="337.147492" xlink:href="#madcf2219ab" y="236.525638"/>
     <use style="fill:#081d58;stroke:#081d58;stroke-linejoin:miter;" x="345.266562" xlink:href="#madcf2219ab" y="235.704741"/>
     <use style="fill:#081d58;stroke:#081d58;stroke-linejoin:miter;" x="353.385632" xlink:href="#madcf2219ab" y="235.325713"/>
     <use style="fill:#081d58;stroke:#081d58;stroke-linejoin:miter;" x="361.504702" xlink:href="#madcf2219ab" y="234.652518"/>
     <use style="fill:#081d58;stroke:#081d58;stroke-linejoin:miter;" x="369.623772" xlink:href="#madcf2219ab" y="234.51805"/>
    </g>
   </g>
   <g id="patch_3">
    <path d="M 54 252 
L 54 34.56 
" style="fill:none;stroke:#000000;stroke-linecap:square;stroke-linejoin:miter;stroke-width:0.8;"/>
   </g>
   <g id="patch_4">
    <path d="M 388.8 252 
L 388.8 34.56 
" style="fill:none;stroke:#000000;stroke-linecap:square;stroke-linejoin:miter;stroke-width:0.8;"/>
   </g>
   <g id="patch_5">
    <path d="M 54 252 
L 388.8 252 
" style="fill:none;stroke:#000000;stroke-linecap:square;stroke-linejoin:miter;stroke-width:0.8;"/>
   </g>
   <g id="patch_6">
    <path d="M 54 34.56 
L 388.8 34.56 
" style="fill:none;stroke:#000000;stroke-linecap:square;stroke-linejoin:miter;stroke-width:0.8;"/>
   </g>
   <g id="legend_1">
    <g id="patch_7">
     <path d="M 280.085938 71.91625 
L 381.8 71.91625 
Q 383.8 71.91625 383.8 69.91625 
L 383.8 41.56 
Q 383.8 39.56 381.8 39.56 
L 280.085938 39.56 
Q 278.085938 39.56 278.085938 41.56 
L 278.085938 69.91625 
Q 278.085938 71.91625 280.085938 71.91625 
z
" style="fill:#ffffff;opacity:0.8;stroke:#cccccc;stroke-linejoin:miter;"/>
    </g>
    <g id="line2d_19">
     <path d="M 282.085938 47.658437 
L 302.085938 47.658437 
" style="fill:none;stroke:#40b5c4;stroke-dasharray:5.55,2.4;stroke-dashoffset:0;stroke-width:1.5;"/>
    </g>
    <g id="line2d_20">
     <g>
      <use style="fill:#40b5c4;stroke:#40b5c4;" x="292.085938" xlink:href="#m606a31cabd" y="47.658437"/>
     </g>
    </g>
    <g id="text_19">
     <text style="font-family:DejaVu Sans;font-size:10px;font-style:normal;font-weight:normal;text-anchor:start;" transform="rotate(-0, 310.085938, 51.158437)" x="310.085938" y="51.158437">original</text>
    </g>
    <g id="line2d_21">
     <path d="M 282.085938 62.336562 
L 302.085938 62.336562 
" style="fill:none;stroke:#081d58;stroke-dasharray:5.55,2.4;stroke-dashoffset:0;stroke-width:1.5;"/>
    </g>
    <g id="line2d_22">
     <g>
      <use style="fill:#081d58;stroke:#081d58;stroke-linejoin:miter;" x="292.085938" xlink:href="#madcf2219ab" y="62.336562"/>
     </g>
    </g>
    <g id="text_20">
     <text style="font-family:DejaVu Sans;font-size:10px;font-style:normal;font-weight:normal;text-anchor:start;" transform="rotate(-0, 310.085938, 65.836562)" x="310.085938" y="65.836562">reconstructed</text>
    </g>
   </g>
  </g>
  <g id="text_21">
   <text style="font-family:DejaVu Sans;font-size:12px;font-style:normal;font-weight:normal;text-anchor:middle;" transform="rotate(-0, 216, 14.878125)" x="216" y="14.878125">Reconstruction of the weight curve</text>
  </g>
 </g>
 <defs>
  <clipPath id="p031042c417">
   <rect height="217.44" width="334.8" x="54" y="34.56"/>
  </clipPath>
 </defs>
</svg>
