<?xml version="1.0" encoding="utf-8" standalone="no"?>
<!DOCTYPE svg PUBLIC "-//W3C//DTD SVG 1.1//EN"
  "http://www.w3.org/Graphics/SVG/1.1/DTD/svg11.dtd">
<!-- Created with matplotlib (https://matplotlib.org/) -->
<svg height="288pt" version="1.1" viewBox="0 0 432 288" width="432pt" xmlns="http://www.w3.org/2000/svg" xmlns:xlink="http://www.w3.org/1999/xlink">
 <defs>
  <style type="text/css">
*{stroke-linecap:butt;stroke-linejoin:round;}
  </style>
 </defs>
 <g id="figure_1">
  <g id="patch_1">
   <path d="M 0 288 
L 432 288 
L 432 0 
L 0 0 
z
" style="fill:#ffffff;"/>
  </g>
  <g id="axes_1">
   <g id="patch_2">
    <path d="M 54 252 
L 388.8 252 
L 388.8 34.56 
L 54 34.56 
z
" style="fill:#ffffff;"/>
   </g>
   <g id="matplotlib.axis_1">
    <g id="xtick_1">
     <g id="line2d_1">
      <defs>
       <path d="M 0 0 
L 0 3.5 
" id="mbeb9bd5263" style="stroke:#000000;stroke-width:0.8;"/>
      </defs>
      <g>
       <use style="stroke:#000000;stroke-width:0.8;" x="69.218182" xlink:href="#mbeb9bd5263" y="252"/>
      </g>
     </g>
     <g id="text_1">
      <text style="font-family:DejaVu Sans;font-size:10px;font-style:normal;font-weight:normal;text-anchor:middle;" transform="rotate(-0, 69.218182, 266.598437)" x="69.218182" y="266.598437">0</text>
     </g>
    </g>
    <g id="xtick_2">
     <g id="line2d_2">
      <g>
       <use style="stroke:#000000;stroke-width:0.8;" x="119.962369" xlink:href="#mbeb9bd5263" y="252"/>
      </g>
     </g>
     <g id="text_2">
      <text style="font-family:DejaVu Sans;font-size:10px;font-style:normal;font-weight:normal;text-anchor:middle;" transform="rotate(-0, 119.962369, 266.598437)" x="119.962369" y="266.598437">500</text>
     </g>
    </g>
    <g id="xtick_3">
     <g id="line2d_3">
      <g>
       <use style="stroke:#000000;stroke-width:0.8;" x="170.706557" xlink:href="#mbeb9bd5263" y="252"/>
      </g>
     </g>
     <g id="text_3">
      <text style="font-family:DejaVu Sans;font-size:10px;font-style:normal;font-weight:normal;text-anchor:middle;" transform="rotate(-0, 170.706557, 266.598437)" x="170.706557" y="266.598437">1000</text>
     </g>
    </g>
    <g id="xtick_4">
     <g id="line2d_4">
      <g>
       <use style="stroke:#000000;stroke-width:0.8;" x="221.450744" xlink:href="#mbeb9bd5263" y="252"/>
      </g>
     </g>
     <g id="text_4">
      <text style="font-family:DejaVu Sans;font-size:10px;font-style:normal;font-weight:normal;text-anchor:middle;" transform="rotate(-0, 221.450744, 266.598437)" x="221.450744" y="266.598437">1500</text>
     </g>
    </g>
    <g id="xtick_5">
     <g id="line2d_5">
      <g>
       <use style="stroke:#000000;stroke-width:0.8;" x="272.194932" xlink:href="#mbeb9bd5263" y="252"/>
      </g>
     </g>
     <g id="text_5">
      <text style="font-family:DejaVu Sans;font-size:10px;font-style:normal;font-weight:normal;text-anchor:middle;" transform="rotate(-0, 272.194932, 266.598437)" x="272.194932" y="266.598437">2000</text>
     </g>
    </g>
    <g id="xtick_6">
     <g id="line2d_6">
      <g>
       <use style="stroke:#000000;stroke-width:0.8;" x="322.939119" xlink:href="#mbeb9bd5263" y="252"/>
      </g>
     </g>
     <g id="text_6">
      <text style="font-family:DejaVu Sans;font-size:10px;font-style:normal;font-weight:normal;text-anchor:middle;" transform="rotate(-0, 322.939119, 266.598437)" x="322.939119" y="266.598437">2500</text>
     </g>
    </g>
    <g id="xtick_7">
     <g id="line2d_7">
      <g>
       <use style="stroke:#000000;stroke-width:0.8;" x="373.683307" xlink:href="#mbeb9bd5263" y="252"/>
      </g>
     </g>
     <g id="text_7">
      <text style="font-family:DejaVu Sans;font-size:10px;font-style:normal;font-weight:normal;text-anchor:middle;" transform="rotate(-0, 373.683307, 266.598437)" x="373.683307" y="266.598437">3000</text>
     </g>
    </g>
    <g id="text_8">
     <text style="font-family:DejaVu Sans;font-size:10px;font-style:normal;font-weight:normal;text-anchor:middle;" transform="rotate(-0, 221.4, 280.276563)" x="221.4" y="280.276563">Time</text>
    </g>
   </g>
   <g id="matplotlib.axis_2">
    <g id="ytick_1">
     <g id="line2d_8">
      <defs>
       <path d="M 0 0 
L -3.5 0 
" id="mc102aebc18" style="stroke:#000000;stroke-width:0.8;"/>
      </defs>
      <g>
       <use style="stroke:#000000;stroke-width:0.8;" x="54" xlink:href="#mc102aebc18" y="232.077082"/>
      </g>
     </g>
     <g id="text_9">
      <text style="font-family:DejaVu Sans;font-size:10px;font-style:normal;font-weight:normal;text-anchor:end;" transform="rotate(-0, 47, 235.8763)" x="47" y="235.8763">−8</text>
     </g>
    </g>
    <g id="ytick_2">
     <g id="line2d_9">
      <g>
       <use style="stroke:#000000;stroke-width:0.8;" x="54" xlink:href="#mc102aebc18" y="192.514723"/>
      </g>
     </g>
     <g id="text_10">
      <text style="font-family:DejaVu Sans;font-size:10px;font-style:normal;font-weight:normal;text-anchor:end;" transform="rotate(-0, 47, 196.313942)" x="47" y="196.313942">−6</text>
     </g>
    </g>
    <g id="ytick_3">
     <g id="line2d_10">
      <g>
       <use style="stroke:#000000;stroke-width:0.8;" x="54" xlink:href="#mc102aebc18" y="152.952365"/>
      </g>
     </g>
     <g id="text_11">
      <text style="font-family:DejaVu Sans;font-size:10px;font-style:normal;font-weight:normal;text-anchor:end;" transform="rotate(-0, 47, 156.751584)" x="47" y="156.751584">−4</text>
     </g>
    </g>
    <g id="ytick_4">
     <g id="line2d_11">
      <g>
       <use style="stroke:#000000;stroke-width:0.8;" x="54" xlink:href="#mc102aebc18" y="113.390007"/>
      </g>
     </g>
     <g id="text_12">
      <text style="font-family:DejaVu Sans;font-size:10px;font-style:normal;font-weight:normal;text-anchor:end;" transform="rotate(-0, 47, 117.189225)" x="47" y="117.189225">−2</text>
     </g>
    </g>
    <g id="ytick_5">
     <g id="line2d_12">
      <g>
       <use style="stroke:#000000;stroke-width:0.8;" x="54" xlink:href="#mc102aebc18" y="73.827648"/>
      </g>
     </g>
     <g id="text_13">
      <text style="font-family:DejaVu Sans;font-size:10px;font-style:normal;font-weight:normal;text-anchor:end;" transform="rotate(-0, 47, 77.626867)" x="47" y="77.626867">0</text>
     </g>
    </g>
    <g id="text_14">
     <text style="font-family:DejaVu Sans;font-size:10px;font-style:normal;font-weight:normal;text-anchor:middle;" transform="rotate(-90, 26.178125, 143.28)" x="26.178125" y="143.28">temperature (°C)</text>
    </g>
   </g>
   <g id="line2d_13">
    <path clip-path="url(#p0ac0eaadb8)" d="M 69.218182 69.993955 
L 72.059856 69.055002 
L 73.07474 68.928036 
L 73.988135 69.039363 
L 74.698554 69.344084 
L 75.510461 69.962287 
L 76.322368 70.90109 
L 77.134275 72.19171 
L 78.04767 74.063526 
L 79.062554 76.662307 
L 80.280415 80.450915 
L 81.701252 85.697028 
L 83.325066 92.578823 
L 85.55781 103.086386 
L 92.560508 136.745032 
L 94.793252 145.935822 
L 96.518555 152.101774 
L 98.04088 156.766869 
L 99.461718 160.479361 
L 100.781066 163.311689 
L 101.998927 165.397773 
L 103.115299 166.878117 
L 104.231671 167.997495 
L 105.246555 168.724453 
L 106.261439 169.173763 
L 107.276322 169.366471 
L 108.291206 169.340479 
L 109.407578 169.083303 
L 110.828416 168.500886 
L 112.147764 167.752604 
L 114.076044 166.347309 
L 116.81623 164.011587 
L 123.818928 158.088825 
L 126.457625 156.263339 
L 128.994835 154.758941 
L 131.126091 153.754294 
L 133.257346 152.973175 
L 135.287114 152.444147 
L 137.824323 152.048424 
L 140.158556 151.893419 
L 141.78237 152.003264 
L 143.304696 152.31553 
L 144.827021 152.85698 
L 146.14637 153.555335 
L 147.871672 154.759969 
L 148.988044 155.872206 
L 150.104417 157.341532 
L 151.220789 159.199558 
L 153.352045 163.374396 
L 154.772882 166.636807 
L 156.498184 171.118055 
L 162.38451 187.270476 
L 163.906836 192.464717 
L 165.327673 198.094638 
L 167.255952 206.721289 
L 169.488696 216.508977 
L 170.402092 219.663027 
L 171.11251 221.414947 
L 171.619952 222.167463 
L 172.025906 222.442342 
L 172.330371 222.406538 
L 172.634836 222.13427 
L 173.040789 221.323914 
L 173.548231 219.607699 
L 174.157161 216.533545 
L 174.86758 211.638475 
L 175.780975 203.590799 
L 177.100324 189.70999 
L 180.652417 151.43776 
L 182.276231 136.743785 
L 183.697069 125.787346 
L 185.117906 116.531792 
L 186.437255 109.314114 
L 187.756604 103.276582 
L 189.075953 98.281399 
L 190.293813 94.487468 
L 191.511674 91.374138 
L 192.729534 88.841494 
L 193.947395 86.799615 
L 195.266743 85.029774 
L 196.687581 83.521585 
L 198.311395 82.152882 
L 200.341162 80.749967 
L 203.893255 78.618567 
L 212.113814 73.668115 
L 232.614465 61.010487 
L 236.674 58.462716 
L 240.733535 55.995734 
L 244.488605 53.982615 
L 248.446652 52.103146 
L 252.30321 50.516775 
L 255.855303 49.24617 
L 259.81335 48.052693 
L 263.771397 47.107726 
L 272.194932 45.52719 
L 276.355955 44.957729 
L 280.922932 44.578801 
L 285.185444 44.447375 
L 290.158374 44.518587 
L 295.841723 44.813742 
L 299.596793 45.217258 
L 304.366746 45.956995 
L 328.622468 50.258195 
L 332.377538 51.166053 
L 335.828143 52.238885 
L 339.786189 53.699586 
L 344.048701 55.499717 
L 351.761818 58.83788 
L 355.313911 60.101672 
L 358.866004 61.122713 
L 362.722562 61.990951 
L 367.188051 62.751482 
L 373.581818 63.678463 
L 373.581818 63.678463 
" style="fill:none;stroke:#40b5c4;stroke-dasharray:5.55,2.4;stroke-dashoffset:0;stroke-width:1.5;"/>
    <defs>
     <path d="M 0 3 
C 0.795609 3 1.55874 2.683901 2.12132 2.12132 
C 2.683901 1.55874 3 0.795609 3 0 
C 3 -0.795609 2.683901 -1.55874 2.12132 -2.12132 
C 1.55874 -2.683901 0.795609 -3 0 -3 
C -0.795609 -3 -1.55874 -2.683901 -2.12132 -2.12132 
C -2.683901 -1.55874 -3 -0.795609 -3 0 
C -3 0.795609 -2.683901 1.55874 -2.12132 2.12132 
C -1.55874 2.683901 -0.795609 3 0 3 
z
" id="ma439dfaf9d" style="stroke:#40b5c4;"/>
    </defs>
    <g clip-path="url(#p0ac0eaadb8)">
     <use style="fill:#40b5c4;stroke:#40b5c4;" x="69.218182" xlink:href="#ma439dfaf9d" y="69.993955"/>
     <use style="fill:#40b5c4;stroke:#40b5c4;" x="77.337252" xlink:href="#ma439dfaf9d" y="72.570809"/>
     <use style="fill:#40b5c4;stroke:#40b5c4;" x="85.456322" xlink:href="#ma439dfaf9d" y="102.590709"/>
     <use style="fill:#40b5c4;stroke:#40b5c4;" x="93.575392" xlink:href="#ma439dfaf9d" y="141.067437"/>
     <use style="fill:#40b5c4;stroke:#40b5c4;" x="101.694462" xlink:href="#ma439dfaf9d" y="164.922946"/>
     <use style="fill:#40b5c4;stroke:#40b5c4;" x="109.813532" xlink:href="#ma439dfaf9d" y="168.938644"/>
     <use style="fill:#40b5c4;stroke:#40b5c4;" x="117.932602" xlink:href="#ma439dfaf9d" y="163.034713"/>
     <use style="fill:#40b5c4;stroke:#40b5c4;" x="126.051672" xlink:href="#ma439dfaf9d" y="156.52991"/>
     <use style="fill:#40b5c4;stroke:#40b5c4;" x="134.170742" xlink:href="#ma439dfaf9d" y="152.7069"/>
     <use style="fill:#40b5c4;stroke:#40b5c4;" x="142.289812" xlink:href="#ma439dfaf9d" y="152.082507"/>
     <use style="fill:#40b5c4;stroke:#40b5c4;" x="150.408882" xlink:href="#ma439dfaf9d" y="157.809159"/>
     <use style="fill:#40b5c4;stroke:#40b5c4;" x="158.527952" xlink:href="#ma439dfaf9d" y="176.571093"/>
     <use style="fill:#40b5c4;stroke:#40b5c4;" x="166.647022" xlink:href="#ma439dfaf9d" y="203.919819"/>
     <use style="fill:#40b5c4;stroke:#40b5c4;" x="174.766092" xlink:href="#ma439dfaf9d" y="212.417755"/>
     <use style="fill:#40b5c4;stroke:#40b5c4;" x="182.885162" xlink:href="#ma439dfaf9d" y="131.833345"/>
     <use style="fill:#40b5c4;stroke:#40b5c4;" x="191.004232" xlink:href="#ma439dfaf9d" y="92.594071"/>
     <use style="fill:#40b5c4;stroke:#40b5c4;" x="199.123302" xlink:href="#ma439dfaf9d" y="81.559288"/>
     <use style="fill:#40b5c4;stroke:#40b5c4;" x="207.242372" xlink:href="#ma439dfaf9d" y="76.647184"/>
     <use style="fill:#40b5c4;stroke:#40b5c4;" x="215.361442" xlink:href="#ma439dfaf9d" y="71.623515"/>
     <use style="fill:#40b5c4;stroke:#40b5c4;" x="223.480512" xlink:href="#ma439dfaf9d" y="66.507477"/>
     <use style="fill:#40b5c4;stroke:#40b5c4;" x="231.599582" xlink:href="#ma439dfaf9d" y="61.61078"/>
     <use style="fill:#40b5c4;stroke:#40b5c4;" x="239.718652" xlink:href="#ma439dfaf9d" y="56.585399"/>
     <use style="fill:#40b5c4;stroke:#40b5c4;" x="247.837722" xlink:href="#ma439dfaf9d" y="52.3749"/>
     <use style="fill:#40b5c4;stroke:#40b5c4;" x="255.956792" xlink:href="#ma439dfaf9d" y="49.212602"/>
     <use style="fill:#40b5c4;stroke:#40b5c4;" x="264.075862" xlink:href="#ma439dfaf9d" y="47.046226"/>
     <use style="fill:#40b5c4;stroke:#40b5c4;" x="272.194932" xlink:href="#ma439dfaf9d" y="45.52719"/>
     <use style="fill:#40b5c4;stroke:#40b5c4;" x="280.314002" xlink:href="#ma439dfaf9d" y="44.615713"/>
     <use style="fill:#40b5c4;stroke:#40b5c4;" x="288.433072" xlink:href="#ma439dfaf9d" y="44.463418"/>
     <use style="fill:#40b5c4;stroke:#40b5c4;" x="296.552142" xlink:href="#ma439dfaf9d" y="44.873857"/>
     <use style="fill:#40b5c4;stroke:#40b5c4;" x="304.671212" xlink:href="#ma439dfaf9d" y="46.009"/>
     <use style="fill:#40b5c4;stroke:#40b5c4;" x="312.790282" xlink:href="#ma439dfaf9d" y="47.478326"/>
     <use style="fill:#40b5c4;stroke:#40b5c4;" x="320.909352" xlink:href="#ma439dfaf9d" y="48.88103"/>
     <use style="fill:#40b5c4;stroke:#40b5c4;" x="329.028422" xlink:href="#ma439dfaf9d" y="50.343729"/>
     <use style="fill:#40b5c4;stroke:#40b5c4;" x="337.147492" xlink:href="#ma439dfaf9d" y="52.7022"/>
     <use style="fill:#40b5c4;stroke:#40b5c4;" x="345.266562" xlink:href="#ma439dfaf9d" y="56.042675"/>
     <use style="fill:#40b5c4;stroke:#40b5c4;" x="353.385632" xlink:href="#ma439dfaf9d" y="59.445501"/>
     <use style="fill:#40b5c4;stroke:#40b5c4;" x="361.504702" xlink:href="#ma439dfaf9d" y="61.741433"/>
     <use style="fill:#40b5c4;stroke:#40b5c4;" x="369.623772" xlink:href="#ma439dfaf9d" y="63.118492"/>
    </g>
   </g>
   <g id="line2d_14">
    <path clip-path="url(#p0ac0eaadb8)" d="M 69.218182 100.915913 
L 69.624135 100.954197 
L 69.725624 100.581185 
L 69.827112 100.972026 
L 69.9286 100.624237 
L 70.131577 100.823605 
L 70.233066 100.456631 
L 70.334554 100.840128 
L 70.537531 100.427845 
L 70.639019 100.614137 
L 70.740507 100.291019 
L 70.841996 100.657536 
L 70.943484 100.283624 
L 71.146461 100.507415 
L 71.247949 100.221988 
L 71.349438 100.589441 
L 71.552414 100.246599 
L 71.653903 100.287519 
L 71.755391 100.085836 
L 71.85688 100.36499 
L 72.059856 100.155855 
L 72.161345 100.214805 
L 72.262833 100.102279 
L 72.364321 100.284423 
L 72.46581 100.16446 
L 72.668787 100.328029 
L 72.770275 100.139072 
L 72.871763 100.2605 
L 73.07474 100.137025 
L 73.176228 100.391035 
L 73.277717 100.072982 
L 73.480694 100.414446 
L 73.582182 100.260668 
L 73.68367 100.628404 
L 73.785159 100.366327 
L 73.886647 100.607179 
L 73.988135 100.532406 
L 74.089624 100.316095 
L 74.191112 100.856024 
L 74.292601 100.638282 
L 74.495577 100.786564 
L 74.597066 100.719471 
L 74.698554 101.10325 
L 74.800042 100.984647 
L 75.003019 101.279044 
L 75.104508 101.188465 
L 75.205996 101.622581 
L 75.307484 101.388132 
L 75.713438 102.13382 
L 75.814926 101.926062 
L 76.017903 102.432676 
L 76.119391 102.506563 
L 76.22088 102.873565 
L 76.322368 102.775671 
L 76.423856 102.895036 
L 76.525345 103.241646 
L 76.626833 103.149963 
L 76.728322 103.641757 
L 76.82981 103.585318 
L 76.931298 103.605458 
L 77.032787 104.203268 
L 77.134275 104.072263 
L 77.337252 104.732027 
L 77.43874 104.682396 
L 77.540229 105.22873 
L 77.641717 105.077762 
L 77.844694 105.584522 
L 78.250647 106.765928 
L 78.453624 107.154652 
L 78.758089 108.126967 
L 78.859577 108.144858 
L 79.97595 111.483435 
L 80.178926 112.320323 
L 82.817624 121.314125 
L 83.122089 122.831836 
L 83.528043 124.253638 
L 84.441438 128.425103 
L 84.542926 128.677014 
L 84.94888 130.70682 
L 85.760787 134.366125 
L 85.862275 134.494354 
L 86.065252 135.325801 
L 87.790554 141.793811 
L 87.892043 141.794131 
L 88.09502 142.671453 
L 88.399485 143.577058 
L 88.602461 144.296562 
L 88.906927 145.168898 
L 89.109903 145.984358 
L 89.211392 146.173751 
L 89.515857 147.364592 
L 89.718834 147.839716 
L 90.023299 149.018497 
L 90.226275 149.460235 
L 90.530741 150.618341 
L 90.733717 151.013799 
L 91.038182 152.260593 
L 91.748601 154.307735 
L 91.951578 155.094661 
L 96.011113 167.938243 
L 96.112601 168.152755 
L 96.21409 168.780359 
L 96.315578 168.75641 
L 96.518555 169.467622 
L 97.127485 171.385796 
L 97.43195 172.528899 
L 97.634927 172.965544 
L 97.939392 174.012974 
L 98.548322 175.951964 
L 98.649811 176.063436 
L 98.954276 177.06512 
L 99.664694 179.221914 
L 100.070648 180.263864 
L 101.288508 183.620639 
L 101.389997 183.776698 
L 101.897439 185.17724 
L 102.40488 185.837725 
L 104.231671 187.927756 
L 104.33316 187.955185 
L 104.637625 188.402574 
L 104.840601 188.548502 
L 105.449532 189.128859 
L 106.15995 189.847042 
L 107.377811 190.771785 
L 108.494183 191.486384 
L 108.595671 191.594555 
L 108.69716 191.517935 
L 109.001625 191.734881 
L 109.30609 191.832761 
L 109.509067 192.010826 
L 109.712043 192.097132 
L 110.016509 192.243344 
L 110.320974 192.45662 
L 110.422462 192.444065 
L 110.625439 192.642929 
L 111.132881 192.864741 
L 111.234369 192.985023 
L 111.437346 192.896151 
L 111.843299 192.645324 
L 112.046276 192.565564 
L 112.45223 192.473626 
L 112.553718 192.373747 
L 112.655206 192.523467 
L 112.959671 192.173468 
L 113.06116 192.258653 
L 113.264137 192.212698 
L 113.568602 192.130334 
L 113.67009 191.894996 
L 113.771578 192.056129 
L 113.974555 191.949232 
L 115.090927 191.542978 
L 115.192416 191.568314 
L 115.293904 191.395908 
L 115.395392 191.531745 
L 115.699858 191.226946 
L 115.801346 191.324392 
L 115.902834 191.251546 
L 116.004323 191.368536 
L 116.308788 191.271259 
L 117.120695 191.192008 
L 117.323672 191.130075 
L 117.42516 191.063803 
L 117.628137 191.112012 
L 117.729625 191.087186 
L 117.831113 190.8445 
L 117.932602 191.065463 
L 118.135579 191.063746 
L 118.744509 190.94238 
L 118.845997 190.782133 
L 118.947486 190.957424 
L 119.454927 190.837991 
L 119.556416 190.816108 
L 119.657904 190.908574 
L 119.962369 190.807449 
L 120.063858 190.86494 
L 120.368323 190.535475 
L 120.469811 190.701986 
L 120.5713 190.576733 
L 120.672788 190.695817 
L 120.977253 190.429248 
L 121.078741 190.705438 
L 121.383207 190.333613 
L 121.586183 190.406167 
L 121.687672 190.448282 
L 121.78916 190.343668 
L 121.890648 190.404667 
L 121.992137 190.188391 
L 122.093625 190.445962 
L 122.39809 189.671128 
L 122.601067 189.508353 
L 123.007021 188.769617 
L 123.108509 188.84467 
L 123.412974 188.096851 
L 123.920416 187.51473 
L 124.224881 186.881769 
L 124.326369 186.671332 
L 124.529346 186.005659 
L 126.15316 181.879795 
L 126.356137 181.560913 
L 126.660602 180.859728 
L 126.863579 180.488091 
L 127.168044 179.737366 
L 127.371021 179.525175 
L 127.573997 179.100839 
L 128.791858 177.202173 
L 128.893346 177.143786 
L 129.096323 176.651792 
L 129.400788 176.195217 
L 129.705253 175.71889 
L 131.735021 172.858533 
L 131.937998 172.626967 
L 132.140974 172.28842 
L 132.242463 172.258576 
L 132.648416 171.680266 
L 133.358835 171.013659 
L 134.27223 170.648078 
L 136.099021 170.248842 
L 137.012416 170.256765 
L 137.316881 170.286449 
L 138.433254 170.958366 
L 139.042184 171.523669 
L 139.549626 172.541991 
L 140.361533 174.224911 
L 141.985347 178.129047 
L 143.609161 182.327466 
L 143.913626 183.037669 
L 144.725533 186.190119 
L 145.131486 187.586001 
L 146.856789 193.617843 
L 147.871672 196.224317 
L 149.495486 200.367499 
L 150.002928 202.02199 
L 152.540138 209.078171 
L 155.686277 216.001261 
L 156.396696 218.400958 
L 157.005626 220.227156 
L 157.310091 221.009319 
L 157.817533 221.659391 
L 159.136882 223.126723 
L 159.339859 223.145739 
L 159.542835 223.180724 
L 159.644324 223.364033 
L 159.745812 223.111028 
L 159.847301 223.296007 
L 159.948789 223.156105 
L 160.050277 223.3232 
L 160.253254 223.235168 
L 160.659208 223.316947 
L 160.862184 223.56866 
L 160.963673 223.83438 
L 161.065161 223.786793 
L 161.369626 224.175314 
L 162.181533 225.29593 
L 162.485998 225.998946 
L 162.688975 226.424979 
L 162.99344 227.040849 
L 165.124696 231.595161 
L 165.632138 233.374603 
L 165.733626 233.513165 
L 166.545533 236.357902 
L 166.951487 237.323157 
L 167.255952 238.080145 
L 168.676789 240.728122 
L 168.778278 240.786074 
L 169.082743 241.21074 
L 169.184231 241.240509 
L 169.387208 241.500164 
L 169.590185 241.498787 
L 169.691673 241.705507 
L 169.793161 241.602015 
L 170.199115 241.986234 
L 170.50358 241.816526 
L 170.706557 241.978594 
L 170.909533 241.849596 
L 171.011022 241.825336 
L 171.11251 242.116364 
L 171.416975 241.748896 
L 171.619952 241.753763 
L 171.822929 241.581697 
L 171.924417 241.530215 
L 172.025906 241.688717 
L 172.634836 240.826068 
L 175.070557 235.110297 
L 175.172045 234.981412 
L 178.216696 223.139306 
L 179.130092 218.435585 
L 181.159859 210.489258 
L 181.464324 209.410738 
L 183.59558 201.078523 
L 184.204511 197.762383 
L 184.305999 197.524045 
L 184.711952 195.099994 
L 186.640232 186.284537 
L 188.162557 179.449206 
L 193.439953 149.703983 
L 193.947395 147.591276 
L 194.556325 144.983377 
L 194.759302 144.266081 
L 195.46972 141.280254 
L 195.672697 140.552469 
L 195.875674 139.648317 
L 196.07865 138.898941 
L 196.789069 135.936742 
L 196.992046 135.349368 
L 197.499488 133.074791 
L 197.803953 132.086559 
L 198.717348 128.773616 
L 200.138185 124.555362 
L 202.472418 117.230225 
L 203.182837 114.893489 
L 203.58879 113.958427 
L 205.111116 110.872478 
L 206.430465 109.078897 
L 208.764697 106.056982 
L 209.069162 105.881992 
L 209.475116 105.498876 
L 209.678093 105.372482 
L 209.881069 105.083737 
L 210.287023 104.813112 
L 210.997442 104.203591 
L 211.200418 104.051342 
L 212.418279 102.941158 
L 212.925721 102.582717 
L 213.230186 102.279202 
L 213.331674 102.269929 
L 213.534651 101.993126 
L 213.839116 101.769795 
L 214.24507 101.393905 
L 214.346558 101.347337 
L 214.549535 101.180836 
L 214.854 100.882376 
L 215.361442 100.429819 
L 215.665907 100.155138 
L 215.767395 100.1448 
L 216.173349 99.678273 
L 216.680791 99.245175 
L 216.782279 99.245675 
L 217.086744 98.833262 
L 217.797163 98.233626 
L 218.304605 97.745329 
L 218.406093 97.735708 
L 218.913535 97.159087 
L 219.218 97.003735 
L 219.522465 96.614705 
L 221.755209 94.515392 
L 221.958186 94.284015 
L 223.379023 92.815919 
L 223.480512 92.887284 
L 223.784977 92.489822 
L 227.032605 89.119172 
L 227.33707 88.764231 
L 227.438558 88.722351 
L 227.641535 88.436606 
L 227.844512 88.310023 
L 227.946 88.035502 
L 228.148977 88.069591 
L 228.55493 87.912824 
L 228.960884 87.801428 
L 229.163861 87.713442 
L 229.366837 87.644454 
L 229.569814 87.541942 
L 229.874279 87.523398 
L 230.48321 87.222184 
L 230.889163 87.143801 
L 230.990651 86.995561 
L 231.193628 87.040988 
L 231.70107 86.784766 
L 231.802558 86.867092 
L 232.107024 86.691498 
L 233.121907 86.39351 
L 233.324884 86.310939 
L 233.730838 86.251873 
L 233.832326 86.246968 
L 234.035303 86.054189 
L 235.050186 85.755144 
L 235.151675 85.703077 
L 235.253163 85.825849 
L 235.354652 85.755049 
L 235.45614 85.490169 
L 235.659117 85.619411 
L 235.760605 85.649124 
L 236.06507 85.444969 
L 236.369535 85.371188 
L 237.790373 85.091857 
L 237.993349 84.879779 
L 238.297814 84.916188 
L 238.399303 84.80632 
L 238.60228 84.800339 
L 238.906745 84.752687 
L 242.458838 84.304346 
L 242.661815 84.303327 
L 242.864791 84.31657 
L 243.169256 84.232339 
L 243.57521 84.271993 
L 244.18414 84.167274 
L 244.285629 84.056274 
L 244.488605 84.097909 
L 244.79307 84.108341 
L 244.996047 84.044276 
L 245.199024 84.042842 
L 245.300512 83.889113 
L 245.604977 84.03607 
L 246.010931 83.845762 
L 246.213908 83.878605 
L 246.315396 83.794695 
L 246.518373 83.869173 
L 247.025815 83.732346 
L 247.127303 83.783942 
L 247.33028 83.678204 
L 247.634745 83.635833 
L 247.93921 83.585729 
L 249.461536 83.25916 
L 249.563024 83.362784 
L 249.766001 83.198679 
L 250.070466 83.150329 
L 250.476419 83.029424 
L 250.679396 83.036801 
L 250.882373 82.960191 
L 251.08535 82.927441 
L 251.288326 82.854736 
L 251.389815 82.812479 
L 251.491303 82.926479 
L 251.69428 82.833136 
L 251.897257 82.650166 
L 252.100233 82.708893 
L 252.30321 82.610796 
L 252.506187 82.660693 
L 252.709164 82.53211 
L 253.419582 82.380136 
L 254.637443 82.037589 
L 254.738931 81.881048 
L 255.043396 81.971807 
L 255.246373 81.77799 
L 255.44935 81.890594 
L 255.855303 81.584192 
L 256.05828 81.631976 
L 256.261257 81.545425 
L 256.464234 81.573967 
L 256.66721 81.432538 
L 256.971675 81.387526 
L 257.276141 81.158432 
L 257.377629 81.370246 
L 257.682094 81.135794 
L 258.392513 80.959012 
L 259.81335 80.581075 
L 259.914838 80.614145 
L 260.016327 80.407141 
L 260.320792 80.538667 
L 260.726745 80.27722 
L 261.03121 80.234793 
L 261.335676 80.163465 
L 261.843117 80.113209 
L 262.046094 79.910431 
L 262.350559 79.908903 
L 262.655024 79.798091 
L 262.858001 79.696146 
L 263.060978 79.723688 
L 264.78628 79.062986 
L 264.989257 78.869132 
L 265.293722 78.760791 
L 266.917536 78.04706 
L 268.54135 77.594456 
L 268.642839 77.460006 
L 268.744327 77.596474 
L 269.048792 77.395281 
L 269.251769 77.427748 
L 269.454746 77.22846 
L 269.657722 77.28696 
L 270.368141 76.993159 
L 270.571118 76.980897 
L 270.774094 76.919341 
L 271.180048 76.821886 
L 271.281536 76.637765 
L 271.586001 76.728335 
L 271.68749 76.594848 
L 271.788978 76.662157 
L 271.991955 76.454965 
L 272.29642 76.532518 
L 272.600885 76.249339 
L 272.803862 76.277033 
L 273.108327 76.223834 
L 273.209815 76.234606 
L 273.412792 76.064973 
L 273.615769 76.044675 
L 274.021722 75.875722 
L 274.427676 75.835219 
L 274.732141 75.676773 
L 274.935118 75.641874 
L 275.036606 75.576545 
L 275.138095 75.646665 
L 275.341071 75.525798 
L 275.645536 75.388217 
L 275.747025 75.539287 
L 275.950002 75.299987 
L 276.05149 75.333943 
L 276.152978 75.486145 
L 276.254467 75.296233 
L 276.355955 75.369824 
L 276.558932 75.250259 
L 277.066374 75.293592 
L 277.26935 75.137127 
L 277.472327 75.226848 
L 277.979769 75.101284 
L 278.081257 75.181252 
L 278.284234 75.094342 
L 278.690188 75.087041 
L 278.893164 75.008224 
L 278.994653 75.072062 
L 279.19763 74.93765 
L 279.299118 74.911391 
L 279.400606 75.080344 
L 279.80656 74.833026 
L 280.009537 74.952667 
L 280.212513 74.869473 
L 280.314002 74.96342 
L 280.516978 74.828291 
L 280.719955 74.862946 
L 280.821444 74.775225 
L 280.922932 74.892582 
L 281.125909 74.696879 
L 281.328885 74.883961 
L 281.531862 74.77862 
L 282.039304 74.685692 
L 282.242281 74.734514 
L 282.546746 74.659168 
L 282.851211 74.706481 
L 282.952699 74.56258 
L 283.257165 74.754266 
L 283.460141 74.574654 
L 283.764606 74.55777 
L 283.967583 74.493139 
L 284.069072 74.455711 
L 284.272048 74.583237 
L 284.678002 74.386723 
L 284.77949 74.555525 
L 284.982467 74.44926 
L 285.185444 74.568504 
L 285.38842 74.403343 
L 285.692886 74.432244 
L 285.794374 74.456711 
L 285.997351 74.353747 
L 286.098839 74.475199 
L 286.403304 74.390062 
L 287.519676 74.315961 
L 287.722653 74.297209 
L 287.92563 74.240917 
L 288.027118 74.407946 
L 288.128607 74.290833 
L 288.230095 74.34905 
L 288.433072 74.209073 
L 288.636048 74.278646 
L 288.839025 74.241652 
L 288.940514 74.400324 
L 289.244979 74.160213 
L 289.346467 74.291984 
L 289.447955 74.201999 
L 289.549444 74.285306 
L 289.752421 74.135689 
L 289.955397 74.298568 
L 290.158374 74.236351 
L 290.259862 74.240728 
L 290.462839 74.180474 
L 290.868793 74.297643 
L 291.071769 74.184398 
L 291.477723 74.204847 
L 291.6807 74.127935 
L 291.782188 74.30334 
L 291.883676 74.149102 
L 292.086653 74.214996 
L 292.28963 74.133859 
L 292.492607 74.160496 
L 292.594095 74.13501 
L 292.797072 74.225165 
L 292.89856 74.120446 
L 293.101537 74.182907 
L 293.203025 74.160798 
L 293.304514 74.271572 
L 293.50749 74.078585 
L 293.913444 74.244916 
L 294.116421 74.114768 
L 294.623862 74.2412 
L 294.826839 74.158421 
L 294.928328 74.226089 
L 295.029816 74.15195 
L 295.232793 74.193472 
L 295.334281 74.028159 
L 295.638746 74.255612 
L 296.0447 74.151611 
L 296.146188 74.223033 
L 296.349165 74.197811 
L 297.770002 74.224353 
L 297.972979 74.224995 
L 298.074467 74.129218 
L 298.480421 74.349465 
L 298.683397 74.173833 
L 298.987863 74.29138 
L 299.089351 74.248368 
L 299.190839 74.33575 
L 299.292328 74.191585 
L 299.495304 74.363085 
L 299.79977 74.331921 
L 300.104235 74.321715 
L 300.4087 74.381044 
L 300.611677 74.339127 
L 300.916142 74.449052 
L 301.119118 74.285136 
L 301.322095 74.462484 
L 301.829537 74.404361 
L 302.134002 74.577446 
L 302.641444 74.51274 
L 302.742932 74.620212 
L 302.945909 74.462446 
L 303.148886 74.608422 
L 303.250374 74.539679 
L 303.351863 74.649717 
L 303.554839 74.561392 
L 303.757816 74.565901 
L 303.859305 74.559902 
L 304.062281 74.701859 
L 304.16377 74.608837 
L 304.468235 74.715536 
L 304.874188 74.758888 
L 305.178653 74.79507 
L 305.280142 74.648189 
L 305.483119 74.783827 
L 305.889072 74.786298 
L 306.193537 74.838705 
L 306.396514 74.87002 
L 306.599491 74.830083 
L 306.700979 74.950554 
L 306.802467 74.888847 
L 306.903956 74.962269 
L 307.106933 74.848684 
L 307.309909 75.054707 
L 307.411398 74.940801 
L 307.614374 74.979851 
L 307.715863 74.906825 
L 307.817351 75.039634 
L 308.020328 74.984756 
L 308.223305 75.076231 
L 308.426281 75.035257 
L 308.730747 75.112961 
L 308.832235 74.962477 
L 309.1367 75.19972 
L 309.441165 75.066629 
L 309.644142 75.200022 
L 309.74563 75.1266 
L 309.948607 75.207021 
L 310.151584 75.236658 
L 310.253072 75.273029 
L 310.354561 75.190552 
L 310.557537 75.261106 
L 310.659026 75.135637 
L 310.862002 75.271482 
L 311.064979 75.374578 
L 311.267956 75.208643 
L 311.470933 75.331208 
L 312.688793 75.403045 
L 312.89177 75.480278 
L 313.094747 75.401027 
L 313.399212 75.559057 
L 313.5007 75.381652 
L 313.805165 75.53691 
L 314.10963 75.424381 
L 314.312607 75.591901 
L 314.515584 75.540739 
L 314.820049 75.568527 
L 315.226003 75.621783 
L 315.327491 75.493823 
L 315.631956 75.767928 
L 315.834933 75.553699 
L 316.139398 75.701788 
L 316.443863 75.573526 
L 316.545351 75.793094 
L 316.748328 75.746535 
L 316.849817 75.773512 
L 316.951305 75.663229 
L 317.154282 75.718936 
L 318.067677 75.805186 
L 318.169165 75.735575 
L 318.575119 75.96731 
L 318.778096 75.811657 
L 318.981072 75.905056 
L 319.590003 75.894869 
L 319.691491 76.017981 
L 319.995956 75.906377 
L 320.300421 76.104571 
L 320.503398 75.972366 
L 320.909352 76.048844 
L 321.01084 75.956142 
L 321.213817 76.162561 
L 321.416793 76.005229 
L 321.61977 76.170824 
L 321.924235 76.07035 
L 322.127212 76.118417 
L 322.431677 76.26843 
L 322.533166 76.076311 
L 322.736142 76.235605 
L 322.837631 76.187387 
L 322.939119 76.307556 
L 323.040607 76.109664 
L 323.345073 76.369244 
L 323.649538 76.261035 
L 324.867398 76.381279 
L 324.968887 76.475075 
L 325.070375 76.362641 
L 325.171863 76.484658 
L 325.273352 76.360075 
L 325.37484 76.481942 
L 325.476328 76.398635 
L 325.780794 76.522577 
L 325.98377 76.464058 
L 326.288235 76.580077 
L 326.389724 76.415236 
L 326.592701 76.693567 
L 326.795677 76.507787 
L 326.897166 76.632898 
L 327.100142 76.587849 
L 327.303119 76.614863 
L 327.404608 76.593848 
L 327.607584 76.762386 
L 327.810561 76.610789 
L 327.912049 76.858521 
L 328.013538 76.61592 
L 328.216515 76.761103 
L 328.318003 76.662893 
L 328.52098 76.707905 
L 328.723956 76.784458 
L 328.825445 76.963372 
L 329.028422 76.78359 
L 329.231398 76.833695 
L 329.434375 76.827885 
L 329.535863 76.894968 
L 329.637352 76.781704 
L 329.73884 77.033775 
L 329.941817 76.780949 
L 330.144794 76.929641 
L 330.34777 76.908551 
L 330.449259 77.08554 
L 330.550747 76.877235 
L 330.753724 77.021739 
L 331.058189 77.027323 
L 331.159677 77.095652 
L 331.261166 76.928019 
L 331.464143 77.122138 
L 331.565631 77.035699 
L 331.768608 77.183788 
L 331.870096 77.017136 
L 332.073073 77.268416 
L 332.174561 77.038114 
L 332.479026 77.202728 
L 332.783491 77.222423 
L 332.88498 77.151265 
L 332.986468 77.360929 
L 333.189445 77.157151 
L 333.392422 77.468269 
L 333.49391 77.238458 
L 333.696887 77.415184 
L 333.899864 77.338404 
L 334.204329 77.434539 
L 334.305817 77.584024 
L 334.508794 77.319011 
L 334.610282 77.549652 
L 334.914747 77.484078 
L 335.016236 77.574365 
L 335.117724 77.456007 
L 335.320701 77.666991 
L 335.422189 77.471627 
L 335.625166 77.65288 
L 335.828143 77.576931 
L 335.929631 77.722642 
L 336.132608 77.648881 
L 336.335585 77.70125 
L 336.437073 77.597946 
L 336.64005 77.801271 
L 336.741538 77.669632 
L 336.944515 77.887558 
L 337.147492 77.719624 
L 337.350468 77.842434 
L 337.553445 77.927703 
L 337.85791 77.965357 
L 337.959399 78.014028 
L 338.060887 77.831077 
L 338.263864 78.064586 
L 338.46684 78.017197 
L 338.568329 78.166003 
L 338.771306 78.029988 
L 338.872794 78.147327 
L 338.974282 78.006935 
L 339.177259 78.231954 
L 339.278747 78.120237 
L 339.481724 78.276136 
L 339.684701 78.147289 
L 339.887678 78.260063 
L 339.989166 78.226295 
L 340.192143 78.394456 
L 340.293631 78.293982 
L 340.496608 78.481762 
L 340.699585 78.309602 
L 340.801073 78.493119 
L 340.902561 78.430563 
L 341.105538 78.591857 
L 341.308515 78.412226 
L 341.511492 78.612721 
L 341.61298 78.505758 
L 342.120422 78.79688 
L 342.22191 78.623059 
L 342.830841 79.00145 
L 342.932329 78.791333 
L 343.135306 78.98598 
L 343.338282 78.89924 
L 343.439771 78.998658 
L 343.541259 78.924443 
L 343.744236 79.175421 
L 343.947213 79.016655 
L 344.150189 79.136672 
L 344.251678 79.04748 
L 344.454655 79.246843 
L 344.556143 79.136371 
L 344.75912 79.356938 
L 344.962096 79.193984 
L 345.165073 79.364861 
L 345.266562 79.211528 
L 345.469538 79.464731 
L 345.672515 79.464505 
L 345.774003 79.584711 
L 345.97698 79.414966 
L 346.078469 79.616291 
L 346.179957 79.461487 
L 346.484422 79.723858 
L 346.58591 79.526193 
L 346.788887 79.722349 
L 346.991864 79.66451 
L 347.093352 79.765285 
L 347.194841 79.67647 
L 347.397817 79.952424 
L 347.600794 79.741478 
L 347.702283 79.962234 
L 347.905259 79.787093 
L 348.108236 80.028148 
L 348.209724 79.920845 
L 348.412701 80.17684 
L 348.615678 79.976609 
L 348.818655 80.126584 
L 348.920143 80.020262 
L 349.12312 80.277578 
L 349.224608 80.124924 
L 349.427585 80.341115 
L 349.630562 80.159937 
L 349.73205 80.374845 
L 349.935027 80.26973 
L 350.036515 80.487468 
L 350.239492 80.310403 
L 350.442469 80.528291 
L 350.645445 80.384805 
L 350.949911 80.576698 
L 351.152887 80.614918 
L 351.254376 80.434156 
L 351.457352 80.700112 
L 351.558841 80.483582 
L 351.863306 80.717807 
L 352.269259 80.669626 
L 352.472236 80.837108 
L 352.675213 80.794662 
L 352.776701 80.946184 
L 352.979678 80.870046 
L 353.081166 81.012249 
L 353.284143 80.901248 
L 353.48712 81.006967 
L 353.588608 80.887062 
L 353.791585 81.068617 
L 353.994562 81.03085 
L 354.09605 81.188861 
L 354.299027 81.019832 
L 354.502004 81.213348 
L 354.603492 81.07537 
L 354.806469 81.197652 
L 355.009446 81.233722 
L 355.110934 81.308539 
L 355.313911 81.131776 
L 355.415399 81.439914 
L 355.719864 81.317896 
L 356.328794 81.565252 
L 356.531771 81.392714 
L 356.734748 81.483303 
L 356.937725 81.482662 
L 357.039213 81.549971 
L 357.140701 81.45776 
L 357.343678 81.6841 
L 357.546655 81.515411 
L 357.749632 81.683609 
L 357.85112 81.502017 
L 358.054097 81.712058 
L 358.155585 81.639541 
L 358.358562 81.829434 
L 358.561539 81.623468 
L 358.663027 81.849356 
L 358.866004 81.656105 
L 359.068981 81.775556 
L 359.271957 81.831698 
L 359.373446 82.022497 
L 359.576422 81.745109 
L 359.677911 81.962092 
L 359.880888 81.905724 
L 360.083864 81.894292 
L 360.185353 81.901271 
L 360.388329 81.987408 
L 360.692795 81.963639 
L 360.794283 82.047172 
L 360.895771 81.956583 
L 361.098748 82.019969 
L 362.012143 82.180206 
L 362.113632 82.056227 
L 362.418097 82.18564 
L 362.519585 82.179452 
L 362.621074 82.055057 
L 362.925539 82.28019 
L 363.128516 82.147872 
L 363.432981 82.302413 
L 363.635957 82.211145 
L 363.940423 82.315203 
L 364.143399 82.202806 
L 364.447864 82.363195 
L 364.650841 82.241932 
L 364.75233 82.352253 
L 365.056795 82.179037 
L 365.462748 82.3538 
L 365.564237 82.208617 
L 365.767213 82.324786 
L 365.868702 82.271286 
L 365.97019 82.425864 
L 366.071678 82.207221 
L 366.173167 82.340067 
L 366.274655 82.276266 
L 366.376144 82.368477 
L 366.477632 82.274115 
L 366.680609 82.364478 
L 367.289539 82.325239 
L 367.391027 82.407527 
L 367.594004 82.333653 
L 367.898469 82.334596 
L 367.999958 82.224463 
L 368.304423 82.398019 
L 368.913353 82.359309 
L 369.014841 82.15572 
L 369.11633 82.468989 
L 369.319306 82.365949 
L 369.420795 82.391266 
L 369.522283 82.272569 
L 369.623772 82.432768 
L 369.72526 82.292527 
L 369.928237 82.387078 
L 370.029725 82.251629 
L 370.232702 82.435447 
L 370.33419 82.295093 
L 370.435679 82.401415 
L 370.638655 82.390813 
L 370.740144 82.43307 
L 370.841632 82.268456 
L 370.94312 82.407867 
L 371.146097 82.323353 
L 371.247586 82.505134 
L 371.349074 82.265098 
L 371.552051 82.374438 
L 371.653539 82.252987 
L 371.755027 82.535883 
L 371.958004 82.292867 
L 372.059493 82.452539 
L 372.160981 82.388398 
L 372.262469 82.473328 
L 372.363958 82.213409 
L 372.566934 82.486797 
L 372.668423 82.284567 
L 372.769911 82.446766 
L 372.8714 82.276077 
L 373.175865 82.368213 
L 373.48033 82.283623 
L 373.581818 82.470234 
L 373.581818 82.470234 
" style="fill:none;stroke:#081d58;stroke-dasharray:5.55,2.4;stroke-dashoffset:0;stroke-width:1.5;"/>
    <defs>
     <path d="M -0 4.242641 
L 4.242641 0 
L 0 -4.242641 
L -4.242641 -0 
z
" id="m7190a999ae" style="stroke:#081d58;stroke-linejoin:miter;"/>
    </defs>
    <g clip-path="url(#p0ac0eaadb8)">
     <use style="fill:#081d58;stroke:#081d58;stroke-linejoin:miter;" x="69.218182" xlink:href="#m7190a999ae" y="100.915913"/>
     <use style="fill:#081d58;stroke:#081d58;stroke-linejoin:miter;" x="77.337252" xlink:href="#m7190a999ae" y="104.732027"/>
     <use style="fill:#081d58;stroke:#081d58;stroke-linejoin:miter;" x="85.456322" xlink:href="#m7190a999ae" y="133.269971"/>
     <use style="fill:#081d58;stroke:#081d58;stroke-linejoin:miter;" x="93.575392" xlink:href="#m7190a999ae" y="160.391238"/>
     <use style="fill:#081d58;stroke:#081d58;stroke-linejoin:miter;" x="101.694462" xlink:href="#m7190a999ae" y="184.692886"/>
     <use style="fill:#081d58;stroke:#081d58;stroke-linejoin:miter;" x="109.813532" xlink:href="#m7190a999ae" y="192.128816"/>
     <use style="fill:#081d58;stroke:#081d58;stroke-linejoin:miter;" x="117.932602" xlink:href="#m7190a999ae" y="191.065463"/>
     <use style="fill:#081d58;stroke:#081d58;stroke-linejoin:miter;" x="126.051672" xlink:href="#m7190a999ae" y="182.276003"/>
     <use style="fill:#081d58;stroke:#081d58;stroke-linejoin:miter;" x="134.170742" xlink:href="#m7190a999ae" y="170.681223"/>
     <use style="fill:#081d58;stroke:#081d58;stroke-linejoin:miter;" x="142.289812" xlink:href="#m7190a999ae" y="178.848928"/>
     <use style="fill:#081d58;stroke:#081d58;stroke-linejoin:miter;" x="150.408882" xlink:href="#m7190a999ae" y="203.324632"/>
     <use style="fill:#081d58;stroke:#081d58;stroke-linejoin:miter;" x="158.527952" xlink:href="#m7190a999ae" y="222.512466"/>
     <use style="fill:#081d58;stroke:#081d58;stroke-linejoin:miter;" x="166.647022" xlink:href="#m7190a999ae" y="236.558963"/>
     <use style="fill:#081d58;stroke:#081d58;stroke-linejoin:miter;" x="174.766092" xlink:href="#m7190a999ae" y="235.691559"/>
     <use style="fill:#081d58;stroke:#081d58;stroke-linejoin:miter;" x="182.885162" xlink:href="#m7190a999ae" y="204.159579"/>
     <use style="fill:#081d58;stroke:#081d58;stroke-linejoin:miter;" x="191.004232" xlink:href="#m7190a999ae" y="162.929091"/>
     <use style="fill:#081d58;stroke:#081d58;stroke-linejoin:miter;" x="199.123302" xlink:href="#m7190a999ae" y="127.594463"/>
     <use style="fill:#081d58;stroke:#081d58;stroke-linejoin:miter;" x="207.242372" xlink:href="#m7190a999ae" y="107.94948"/>
     <use style="fill:#081d58;stroke:#081d58;stroke-linejoin:miter;" x="215.361442" xlink:href="#m7190a999ae" y="100.429819"/>
     <use style="fill:#081d58;stroke:#081d58;stroke-linejoin:miter;" x="223.480512" xlink:href="#m7190a999ae" y="92.887284"/>
     <use style="fill:#081d58;stroke:#081d58;stroke-linejoin:miter;" x="231.599582" xlink:href="#m7190a999ae" y="86.890258"/>
     <use style="fill:#081d58;stroke:#081d58;stroke-linejoin:miter;" x="239.718652" xlink:href="#m7190a999ae" y="84.675341"/>
     <use style="fill:#081d58;stroke:#081d58;stroke-linejoin:miter;" x="247.837722" xlink:href="#m7190a999ae" y="83.622798"/>
     <use style="fill:#081d58;stroke:#081d58;stroke-linejoin:miter;" x="255.956792" xlink:href="#m7190a999ae" y="81.676837"/>
     <use style="fill:#081d58;stroke:#081d58;stroke-linejoin:miter;" x="264.075862" xlink:href="#m7190a999ae" y="79.275914"/>
     <use style="fill:#081d58;stroke:#081d58;stroke-linejoin:miter;" x="272.194932" xlink:href="#m7190a999ae" y="76.451381"/>
     <use style="fill:#081d58;stroke:#081d58;stroke-linejoin:miter;" x="280.314002" xlink:href="#m7190a999ae" y="74.96342"/>
     <use style="fill:#081d58;stroke:#081d58;stroke-linejoin:miter;" x="288.433072" xlink:href="#m7190a999ae" y="74.209073"/>
     <use style="fill:#081d58;stroke:#081d58;stroke-linejoin:miter;" x="296.552142" xlink:href="#m7190a999ae" y="74.210073"/>
     <use style="fill:#081d58;stroke:#081d58;stroke-linejoin:miter;" x="304.671212" xlink:href="#m7190a999ae" y="74.598537"/>
     <use style="fill:#081d58;stroke:#081d58;stroke-linejoin:miter;" x="312.790282" xlink:href="#m7190a999ae" y="75.494049"/>
     <use style="fill:#081d58;stroke:#081d58;stroke-linejoin:miter;" x="320.909352" xlink:href="#m7190a999ae" y="76.048844"/>
     <use style="fill:#081d58;stroke:#081d58;stroke-linejoin:miter;" x="329.028422" xlink:href="#m7190a999ae" y="76.78359"/>
     <use style="fill:#081d58;stroke:#081d58;stroke-linejoin:miter;" x="337.147492" xlink:href="#m7190a999ae" y="77.719624"/>
     <use style="fill:#081d58;stroke:#081d58;stroke-linejoin:miter;" x="345.266562" xlink:href="#m7190a999ae" y="79.211528"/>
     <use style="fill:#081d58;stroke:#081d58;stroke-linejoin:miter;" x="353.385632" xlink:href="#m7190a999ae" y="80.983838"/>
     <use style="fill:#081d58;stroke:#081d58;stroke-linejoin:miter;" x="361.504702" xlink:href="#m7190a999ae" y="82.047134"/>
     <use style="fill:#081d58;stroke:#081d58;stroke-linejoin:miter;" x="369.623772" xlink:href="#m7190a999ae" y="82.432768"/>
    </g>
   </g>
   <g id="patch_3">
    <path d="M 54 252 
L 54 34.56 
" style="fill:none;stroke:#000000;stroke-linecap:square;stroke-linejoin:miter;stroke-width:0.8;"/>
   </g>
   <g id="patch_4">
    <path d="M 388.8 252 
L 388.8 34.56 
" style="fill:none;stroke:#000000;stroke-linecap:square;stroke-linejoin:miter;stroke-width:0.8;"/>
   </g>
   <g id="patch_5">
    <path d="M 54 252 
L 388.8 252 
" style="fill:none;stroke:#000000;stroke-linecap:square;stroke-linejoin:miter;stroke-width:0.8;"/>
   </g>
   <g id="patch_6">
    <path d="M 54 34.56 
L 388.8 34.56 
" style="fill:none;stroke:#000000;stroke-linecap:square;stroke-linejoin:miter;stroke-width:0.8;"/>
   </g>
   <g id="legend_1">
    <g id="patch_7">
     <path d="M 280.085938 247 
L 381.8 247 
Q 383.8 247 383.8 245 
L 383.8 216.64375 
Q 383.8 214.64375 381.8 214.64375 
L 280.085938 214.64375 
Q 278.085938 214.64375 278.085938 216.64375 
L 278.085938 245 
Q 278.085938 247 280.085938 247 
z
" style="fill:#ffffff;opacity:0.8;stroke:#cccccc;stroke-linejoin:miter;"/>
    </g>
    <g id="line2d_15">
     <path d="M 282.085938 222.742188 
L 302.085938 222.742188 
" style="fill:none;stroke:#40b5c4;stroke-dasharray:5.55,2.4;stroke-dashoffset:0;stroke-width:1.5;"/>
    </g>
    <g id="line2d_16">
     <g>
      <use style="fill:#40b5c4;stroke:#40b5c4;" x="292.085938" xlink:href="#ma439dfaf9d" y="222.742188"/>
     </g>
    </g>
    <g id="text_15">
     <text style="font-family:DejaVu Sans;font-size:10px;font-style:normal;font-weight:normal;text-anchor:start;" transform="rotate(-0, 310.085938, 226.242188)" x="310.085938" y="226.242188">original</text>
    </g>
    <g id="line2d_17">
     <path d="M 282.085938 237.420312 
L 302.085938 237.420312 
" style="fill:none;stroke:#081d58;stroke-dasharray:5.55,2.4;stroke-dashoffset:0;stroke-width:1.5;"/>
    </g>
    <g id="line2d_18">
     <g>
      <use style="fill:#081d58;stroke:#081d58;stroke-linejoin:miter;" x="292.085938" xlink:href="#m7190a999ae" y="237.420312"/>
     </g>
    </g>
    <g id="text_16">
     <text style="font-family:DejaVu Sans;font-size:10px;font-style:normal;font-weight:normal;text-anchor:start;" transform="rotate(-0, 310.085938, 240.920312)" x="310.085938" y="240.920312">reconstructed</text>
    </g>
   </g>
  </g>
  <g id="text_17">
   <text style="font-family:DejaVu Sans;font-size:12px;font-style:normal;font-weight:normal;text-anchor:middle;" transform="rotate(-0, 216, 14.878125)" x="216" y="14.878125">Reconstruction of the temperature curve</text>
  </g>
 </g>
 <defs>
  <clipPath id="p0ac0eaadb8">
   <rect height="217.44" width="334.8" x="54" y="34.56"/>
  </clipPath>
 </defs>
</svg>
