<?xml version="1.0" encoding="utf-8" standalone="no"?>
<!DOCTYPE svg PUBLIC "-//W3C//DTD SVG 1.1//EN"
  "http://www.w3.org/Graphics/SVG/1.1/DTD/svg11.dtd">
<!-- Created with matplotlib (https://matplotlib.org/) -->
<svg height="288pt" version="1.1" viewBox="0 0 432 288" width="432pt" xmlns="http://www.w3.org/2000/svg" xmlns:xlink="http://www.w3.org/1999/xlink">
 <defs>
  <style type="text/css">
*{stroke-linecap:butt;stroke-linejoin:round;}
  </style>
 </defs>
 <g id="figure_1">
  <g id="patch_1">
   <path d="M 0 288 
L 432 288 
L 432 0 
L 0 0 
z
" style="fill:#ffffff;"/>
  </g>
  <g id="axes_1">
   <g id="patch_2">
    <path d="M 54 252 
L 388.8 252 
L 388.8 34.56 
L 54 34.56 
z
" style="fill:#ffffff;"/>
   </g>
   <g id="matplotlib.axis_1">
    <g id="xtick_1">
     <g id="line2d_1">
      <defs>
       <path d="M 0 0 
L 0 3.5 
" id="m2a61f25465" style="stroke:#000000;stroke-width:0.8;"/>
      </defs>
      <g>
       <use style="stroke:#000000;stroke-width:0.8;" x="69.218182" xlink:href="#m2a61f25465" y="252"/>
      </g>
     </g>
     <g id="text_1">
      <text style="font-family:DejaVu Sans;font-size:10px;font-style:normal;font-weight:normal;text-anchor:middle;" transform="rotate(-0, 69.218182, 266.598437)" x="69.218182" y="266.598437">0</text>
     </g>
    </g>
    <g id="xtick_2">
     <g id="line2d_2">
      <g>
       <use style="stroke:#000000;stroke-width:0.8;" x="119.962369" xlink:href="#m2a61f25465" y="252"/>
      </g>
     </g>
     <g id="text_2">
      <text style="font-family:DejaVu Sans;font-size:10px;font-style:normal;font-weight:normal;text-anchor:middle;" transform="rotate(-0, 119.962369, 266.598437)" x="119.962369" y="266.598437">500</text>
     </g>
    </g>
    <g id="xtick_3">
     <g id="line2d_3">
      <g>
       <use style="stroke:#000000;stroke-width:0.8;" x="170.706557" xlink:href="#m2a61f25465" y="252"/>
      </g>
     </g>
     <g id="text_3">
      <text style="font-family:DejaVu Sans;font-size:10px;font-style:normal;font-weight:normal;text-anchor:middle;" transform="rotate(-0, 170.706557, 266.598437)" x="170.706557" y="266.598437">1000</text>
     </g>
    </g>
    <g id="xtick_4">
     <g id="line2d_4">
      <g>
       <use style="stroke:#000000;stroke-width:0.8;" x="221.450744" xlink:href="#m2a61f25465" y="252"/>
      </g>
     </g>
     <g id="text_4">
      <text style="font-family:DejaVu Sans;font-size:10px;font-style:normal;font-weight:normal;text-anchor:middle;" transform="rotate(-0, 221.450744, 266.598437)" x="221.450744" y="266.598437">1500</text>
     </g>
    </g>
    <g id="xtick_5">
     <g id="line2d_5">
      <g>
       <use style="stroke:#000000;stroke-width:0.8;" x="272.194932" xlink:href="#m2a61f25465" y="252"/>
      </g>
     </g>
     <g id="text_5">
      <text style="font-family:DejaVu Sans;font-size:10px;font-style:normal;font-weight:normal;text-anchor:middle;" transform="rotate(-0, 272.194932, 266.598437)" x="272.194932" y="266.598437">2000</text>
     </g>
    </g>
    <g id="xtick_6">
     <g id="line2d_6">
      <g>
       <use style="stroke:#000000;stroke-width:0.8;" x="322.939119" xlink:href="#m2a61f25465" y="252"/>
      </g>
     </g>
     <g id="text_6">
      <text style="font-family:DejaVu Sans;font-size:10px;font-style:normal;font-weight:normal;text-anchor:middle;" transform="rotate(-0, 322.939119, 266.598437)" x="322.939119" y="266.598437">2500</text>
     </g>
    </g>
    <g id="xtick_7">
     <g id="line2d_7">
      <g>
       <use style="stroke:#000000;stroke-width:0.8;" x="373.683307" xlink:href="#m2a61f25465" y="252"/>
      </g>
     </g>
     <g id="text_7">
      <text style="font-family:DejaVu Sans;font-size:10px;font-style:normal;font-weight:normal;text-anchor:middle;" transform="rotate(-0, 373.683307, 266.598437)" x="373.683307" y="266.598437">3000</text>
     </g>
    </g>
    <g id="text_8">
     <text style="font-family:DejaVu Sans;font-size:10px;font-style:normal;font-weight:normal;text-anchor:middle;" transform="rotate(-0, 221.4, 280.276563)" x="221.4" y="280.276563">Time</text>
    </g>
   </g>
   <g id="matplotlib.axis_2">
    <g id="ytick_1">
     <g id="line2d_8">
      <defs>
       <path d="M 0 0 
L -3.5 0 
" id="ma39f78089b" style="stroke:#000000;stroke-width:0.8;"/>
      </defs>
      <g>
       <use style="stroke:#000000;stroke-width:0.8;" x="54" xlink:href="#ma39f78089b" y="214.242771"/>
      </g>
     </g>
     <g id="text_9">
      <text style="font-family:DejaVu Sans;font-size:10px;font-style:normal;font-weight:normal;text-anchor:end;" transform="rotate(-0, 47, 218.04199)" x="47" y="218.04199">55</text>
     </g>
    </g>
    <g id="ytick_2">
     <g id="line2d_9">
      <g>
       <use style="stroke:#000000;stroke-width:0.8;" x="54" xlink:href="#ma39f78089b" y="168.755093"/>
      </g>
     </g>
     <g id="text_10">
      <text style="font-family:DejaVu Sans;font-size:10px;font-style:normal;font-weight:normal;text-anchor:end;" transform="rotate(-0, 47, 172.554312)" x="47" y="172.554312">60</text>
     </g>
    </g>
    <g id="ytick_3">
     <g id="line2d_10">
      <g>
       <use style="stroke:#000000;stroke-width:0.8;" x="54" xlink:href="#ma39f78089b" y="123.267415"/>
      </g>
     </g>
     <g id="text_11">
      <text style="font-family:DejaVu Sans;font-size:10px;font-style:normal;font-weight:normal;text-anchor:end;" transform="rotate(-0, 47, 127.066633)" x="47" y="127.066633">65</text>
     </g>
    </g>
    <g id="ytick_4">
     <g id="line2d_11">
      <g>
       <use style="stroke:#000000;stroke-width:0.8;" x="54" xlink:href="#ma39f78089b" y="77.779736"/>
      </g>
     </g>
     <g id="text_12">
      <text style="font-family:DejaVu Sans;font-size:10px;font-style:normal;font-weight:normal;text-anchor:end;" transform="rotate(-0, 47, 81.578955)" x="47" y="81.578955">70</text>
     </g>
    </g>
    <g id="text_13">
     <text style="font-family:DejaVu Sans;font-size:10px;font-style:normal;font-weight:normal;text-anchor:middle;" transform="rotate(-90, 28.195312, 143.28)" x="28.195312" y="143.28">weight (\%)</text>
    </g>
   </g>
   <g id="line2d_12">
    <path clip-path="url(#p2769caf58b)" d="M 69.218182 44.443636 
L 87.080136 44.698458 
L 92.256043 45.024241 
L 98.243857 45.650424 
L 108.595671 46.756321 
L 129.806742 48.823372 
L 134.373719 49.563638 
L 138.433254 50.450921 
L 141.477905 51.33229 
L 144.218091 52.365316 
L 146.552324 53.48786 
L 148.683579 54.794812 
L 150.611858 56.240684 
L 152.540138 57.970853 
L 154.671393 60.190379 
L 157.005626 62.962489 
L 159.23837 65.967405 
L 161.268138 69.065207 
L 163.196417 72.423653 
L 165.124696 76.254534 
L 167.560417 81.635454 
L 171.11251 89.457333 
L 172.330371 91.603078 
L 173.345254 92.991908 
L 174.157161 93.778753 
L 175.070557 94.346076 
L 176.389906 94.852718 
L 178.62265 95.441692 
L 182.276231 96.166766 
L 186.335766 96.796133 
L 192.120604 97.463346 
L 198.514371 97.966258 
L 208.561721 98.504468 
L 219.725442 98.863912 
L 231.802558 99.013385 
L 241.748419 98.956252 
L 253.521071 98.698337 
L 267.526466 98.186691 
L 287.215211 97.211436 
L 313.5007 95.932504 
L 337.24898 94.872004 
L 364.955306 93.964343 
L 373.581818 93.775114 
L 373.581818 93.775114 
" style="fill:none;stroke:#40b5c4;stroke-dasharray:5.55,2.4;stroke-dashoffset:0;stroke-width:1.5;"/>
    <defs>
     <path d="M 0 3 
C 0.795609 3 1.55874 2.683901 2.12132 2.12132 
C 2.683901 1.55874 3 0.795609 3 0 
C 3 -0.795609 2.683901 -1.55874 2.12132 -2.12132 
C 1.55874 -2.683901 0.795609 -3 0 -3 
C -0.795609 -3 -1.55874 -2.683901 -2.12132 -2.12132 
C -2.683901 -1.55874 -3 -0.795609 -3 0 
C -3 0.795609 -2.683901 1.55874 -2.12132 2.12132 
C -1.55874 2.683901 -0.795609 3 0 3 
z
" id="md1cad05e08" style="stroke:#40b5c4;"/>
    </defs>
    <g clip-path="url(#p2769caf58b)">
     <use style="fill:#40b5c4;stroke:#40b5c4;" x="69.218182" xlink:href="#md1cad05e08" y="44.443636"/>
     <use style="fill:#40b5c4;stroke:#40b5c4;" x="77.337252" xlink:href="#md1cad05e08" y="44.504954"/>
     <use style="fill:#40b5c4;stroke:#40b5c4;" x="85.456322" xlink:href="#md1cad05e08" y="44.639051"/>
     <use style="fill:#40b5c4;stroke:#40b5c4;" x="93.575392" xlink:href="#md1cad05e08" y="45.143419"/>
     <use style="fill:#40b5c4;stroke:#40b5c4;" x="101.694462" xlink:href="#md1cad05e08" y="46.049533"/>
     <use style="fill:#40b5c4;stroke:#40b5c4;" x="109.813532" xlink:href="#md1cad05e08" y="46.868039"/>
     <use style="fill:#40b5c4;stroke:#40b5c4;" x="117.932602" xlink:href="#md1cad05e08" y="47.572279"/>
     <use style="fill:#40b5c4;stroke:#40b5c4;" x="126.051672" xlink:href="#md1cad05e08" y="48.356668"/>
     <use style="fill:#40b5c4;stroke:#40b5c4;" x="134.170742" xlink:href="#md1cad05e08" y="49.525338"/>
     <use style="fill:#40b5c4;stroke:#40b5c4;" x="142.289812" xlink:href="#md1cad05e08" y="51.611676"/>
     <use style="fill:#40b5c4;stroke:#40b5c4;" x="150.408882" xlink:href="#md1cad05e08" y="56.075654"/>
     <use style="fill:#40b5c4;stroke:#40b5c4;" x="158.527952" xlink:href="#md1cad05e08" y="64.971498"/>
     <use style="fill:#40b5c4;stroke:#40b5c4;" x="166.647022" xlink:href="#md1cad05e08" y="79.569949"/>
     <use style="fill:#40b5c4;stroke:#40b5c4;" x="174.766092" xlink:href="#md1cad05e08" y="94.186778"/>
     <use style="fill:#40b5c4;stroke:#40b5c4;" x="182.885162" xlink:href="#md1cad05e08" y="96.269659"/>
     <use style="fill:#40b5c4;stroke:#40b5c4;" x="191.004232" xlink:href="#md1cad05e08" y="97.354449"/>
     <use style="fill:#40b5c4;stroke:#40b5c4;" x="199.123302" xlink:href="#md1cad05e08" y="98.005378"/>
     <use style="fill:#40b5c4;stroke:#40b5c4;" x="207.242372" xlink:href="#md1cad05e08" y="98.446244"/>
     <use style="fill:#40b5c4;stroke:#40b5c4;" x="215.361442" xlink:href="#md1cad05e08" y="98.750102"/>
     <use style="fill:#40b5c4;stroke:#40b5c4;" x="223.480512" xlink:href="#md1cad05e08" y="98.934236"/>
     <use style="fill:#40b5c4;stroke:#40b5c4;" x="231.599582" xlink:href="#md1cad05e08" y="99.013203"/>
     <use style="fill:#40b5c4;stroke:#40b5c4;" x="239.718652" xlink:href="#md1cad05e08" y="98.981543"/>
     <use style="fill:#40b5c4;stroke:#40b5c4;" x="247.837722" xlink:href="#md1cad05e08" y="98.843261"/>
     <use style="fill:#40b5c4;stroke:#40b5c4;" x="255.956792" xlink:href="#md1cad05e08" y="98.623373"/>
     <use style="fill:#40b5c4;stroke:#40b5c4;" x="264.075862" xlink:href="#md1cad05e08" y="98.330251"/>
     <use style="fill:#40b5c4;stroke:#40b5c4;" x="272.194932" xlink:href="#md1cad05e08" y="97.97672"/>
     <use style="fill:#40b5c4;stroke:#40b5c4;" x="280.314002" xlink:href="#md1cad05e08" y="97.575519"/>
     <use style="fill:#40b5c4;stroke:#40b5c4;" x="288.433072" xlink:href="#md1cad05e08" y="97.146206"/>
     <use style="fill:#40b5c4;stroke:#40b5c4;" x="296.552142" xlink:href="#md1cad05e08" y="96.712618"/>
     <use style="fill:#40b5c4;stroke:#40b5c4;" x="304.671212" xlink:href="#md1cad05e08" y="96.335798"/>
     <use style="fill:#40b5c4;stroke:#40b5c4;" x="312.790282" xlink:href="#md1cad05e08" y="95.967166"/>
     <use style="fill:#40b5c4;stroke:#40b5c4;" x="320.909352" xlink:href="#md1cad05e08" y="95.58325"/>
     <use style="fill:#40b5c4;stroke:#40b5c4;" x="329.028422" xlink:href="#md1cad05e08" y="95.223806"/>
     <use style="fill:#40b5c4;stroke:#40b5c4;" x="337.147492" xlink:href="#md1cad05e08" y="94.876371"/>
     <use style="fill:#40b5c4;stroke:#40b5c4;" x="345.266562" xlink:href="#md1cad05e08" y="94.566691"/>
     <use style="fill:#40b5c4;stroke:#40b5c4;" x="353.385632" xlink:href="#md1cad05e08" y="94.294129"/>
     <use style="fill:#40b5c4;stroke:#40b5c4;" x="361.504702" xlink:href="#md1cad05e08" y="94.055228"/>
     <use style="fill:#40b5c4;stroke:#40b5c4;" x="369.623772" xlink:href="#md1cad05e08" y="93.855628"/>
    </g>
   </g>
   <g id="line2d_13">
    <path clip-path="url(#p2769caf58b)" d="M 69.218182 149.135408 
L 69.31967 149.19687 
L 69.421159 149.565291 
L 69.522647 149.299664 
L 69.624135 149.418422 
L 69.725624 148.857426 
L 69.827112 149.634457 
L 69.9286 149.023487 
L 70.131577 149.508063 
L 70.233066 148.873529 
L 70.334554 149.724688 
L 70.537531 149.076376 
L 70.639019 149.451808 
L 70.740507 148.897336 
L 70.841996 149.629425 
L 70.943484 149.050695 
L 71.044973 149.189755 
L 71.146461 149.576709 
L 71.247949 148.930097 
L 71.349438 149.776502 
L 71.552414 149.167822 
L 71.653903 149.391839 
L 71.755391 148.944812 
L 71.85688 149.585385 
L 72.059856 149.163137 
L 72.161345 149.388299 
L 72.262833 149.060551 
L 72.364321 149.551999 
L 72.46581 149.12819 
L 72.567298 149.228971 
L 72.668787 149.561265 
L 72.770275 149.092895 
L 72.871763 149.423975 
L 73.07474 148.98441 
L 73.176228 149.550819 
L 73.277717 148.903618 
L 73.480694 149.382503 
L 73.582182 148.998326 
L 73.68367 149.597219 
L 73.785159 149.008564 
L 73.886647 149.460519 
L 74.089624 148.66565 
L 74.191112 149.612975 
L 74.292601 149.047572 
L 74.495577 149.129196 
L 74.597066 148.816337 
L 74.698554 149.41398 
L 74.800042 148.908303 
L 74.901531 149.257186 
L 75.003019 149.17046 
L 75.104508 148.76716 
L 75.205996 149.448164 
L 75.307484 148.796867 
L 75.408973 148.866103 
L 75.510461 149.156613 
L 75.611949 148.621576 
L 75.713438 149.304696 
L 75.814926 148.639969 
L 76.017903 149.048231 
L 76.119391 148.65576 
L 76.22088 149.274781 
L 76.423856 148.638338 
L 76.525345 148.966502 
L 76.626833 148.410087 
L 76.728322 149.069262 
L 76.931298 148.307918 
L 77.032787 149.013978 
L 77.134275 148.281473 
L 77.235763 148.99319 
L 77.43874 148.235455 
L 77.540229 148.80891 
L 77.641717 148.13516 
L 77.743205 148.692963 
L 77.844694 148.112359 
L 77.946182 148.263149 
L 78.04767 148.613698 
L 78.149159 147.933493 
L 78.250647 148.484181 
L 78.453624 148.017477 
L 78.555112 148.410643 
L 78.656601 147.962471 
L 78.758089 148.320897 
L 78.961066 147.666963 
L 79.062554 148.283833 
L 79.164043 147.631114 
L 79.265531 147.886468 
L 79.367019 147.834655 
L 79.468508 147.477512 
L 79.569996 147.995197 
L 79.671484 147.62622 
L 79.772973 147.864258 
L 79.97595 147.099513 
L 80.077438 147.788845 
L 80.280415 147.29823 
L 80.381903 147.412789 
L 80.483391 146.874316 
L 80.58488 147.581313 
L 80.686368 146.945807 
L 80.787857 147.274388 
L 80.889345 147.209352 
L 80.990833 146.7465 
L 81.092322 147.587213 
L 81.295298 146.804664 
L 81.396787 147.140707 
L 81.498275 146.644539 
L 81.599764 147.115477 
L 81.701252 146.624132 
L 81.904229 146.932376 
L 82.005717 146.481741 
L 82.107205 147.122487 
L 82.310182 146.306449 
L 82.411671 146.955108 
L 82.513159 146.196575 
L 82.614647 146.867098 
L 82.817624 146.132788 
L 82.919112 146.693368 
L 83.020601 146.008963 
L 83.122089 146.815423 
L 83.325066 146.035026 
L 83.426554 146.51589 
L 83.528043 146.035234 
L 83.629531 146.308496 
L 83.832508 145.873061 
L 83.933996 146.257793 
L 84.035485 145.571827 
L 84.136973 146.081738 
L 84.33995 145.634226 
L 84.441438 145.858832 
L 84.542926 145.29041 
L 84.644415 145.670353 
L 84.847392 144.927541 
L 84.94888 145.418851 
L 85.151857 145.072918 
L 85.253345 145.021208 
L 85.354833 144.680446 
L 85.456322 145.190843 
L 85.55781 144.647338 
L 85.760787 144.718378 
L 85.862275 144.028213 
L 85.963764 144.756692 
L 86.16674 144.132673 
L 86.268229 144.118132 
L 86.369717 143.568693 
L 86.471206 144.238139 
L 86.572694 143.521252 
L 86.674182 143.721045 
L 86.775671 143.61707 
L 86.877159 143.00086 
L 86.978647 143.677664 
L 87.181624 143.046392 
L 87.283113 143.108652 
L 87.384601 142.582881 
L 87.486089 143.125275 
L 87.689066 142.530269 
L 87.790554 142.950435 
L 87.892043 142.074671 
L 87.993531 143.048926 
L 88.196508 142.49789 
L 88.297996 143.010647 
L 88.399485 142.396206 
L 88.500973 142.835945 
L 88.70395 142.356886 
L 88.805438 142.830844 
L 88.906927 142.362578 
L 89.008415 142.927322 
L 89.211392 142.378715 
L 89.31288 142.904798 
L 89.414368 142.450241 
L 89.515857 142.844239 
L 89.617345 142.495565 
L 89.718834 142.549495 
L 89.820322 142.960048 
L 89.92181 142.5977 
L 90.023299 142.962616 
L 90.226275 142.498133 
L 90.327764 142.900842 
L 90.429252 142.608701 
L 90.530741 142.938531 
L 90.733717 142.400961 
L 90.835206 143.096956 
L 90.936694 142.622097 
L 91.038182 143.138498 
L 91.241159 142.796799 
L 91.342648 143.018212 
L 91.444136 142.771152 
L 91.545624 143.069366 
L 91.748601 142.600997 
L 91.850089 143.134055 
L 91.951578 142.879291 
L 92.053066 142.949775 
L 92.154555 143.3242 
L 92.256043 142.851597 
L 92.357531 143.443236 
L 92.45902 142.812624 
L 92.661996 143.238099 
L 92.763485 142.839797 
L 92.864973 143.641676 
L 92.966462 142.902751 
L 93.06795 143.059302 
L 93.169438 143.441328 
L 93.270927 143.100462 
L 93.372415 143.79441 
L 93.473903 143.086996 
L 93.67688 143.485367 
L 93.778369 143.09064 
L 93.879857 143.715041 
L 94.082834 143.208809 
L 94.184322 143.617695 
L 94.28581 143.354046 
L 94.387299 143.989691 
L 94.488787 143.506017 
L 94.590276 143.540409 
L 94.691764 144.022174 
L 94.793252 143.250905 
L 94.894741 144.111399 
L 94.996229 143.612351 
L 95.097717 143.873258 
L 95.300694 143.698279 
L 95.402183 144.021688 
L 95.605159 143.929652 
L 95.706648 144.314038 
L 95.808136 143.801698 
L 95.909624 144.285615 
L 96.112601 143.870516 
L 96.21409 144.665176 
L 96.315578 143.852539 
L 96.417066 144.571856 
L 96.620043 144.088945 
L 96.721531 144.730698 
L 96.82302 144.100224 
L 96.924508 144.593824 
L 97.127485 144.201561 
L 97.228973 144.702241 
L 97.330462 144.533716 
L 97.43195 144.766478 
L 97.634927 144.279056 
L 97.736415 144.889401 
L 97.837904 144.610239 
L 98.04088 144.816522 
L 98.142369 144.286691 
L 98.243857 145.198894 
L 98.345345 144.574494 
L 98.548322 145.07264 
L 98.649811 144.560335 
L 98.751299 145.222806 
L 98.954276 144.934899 
L 99.055764 145.175296 
L 99.157252 144.774322 
L 99.258741 145.339586 
L 99.360229 144.924453 
L 99.461718 145.044807 
L 99.664694 145.451542 
L 99.766183 145.265874 
L 99.867671 145.370126 
L 100.070648 145.287252 
L 100.273625 145.518626 
L 100.375113 145.250049 
L 100.679578 145.998378 
L 100.781066 145.586021 
L 100.882555 145.778075 
L 101.085532 145.600042 
L 101.288508 145.840508 
L 101.389997 145.59619 
L 101.592973 145.974432 
L 101.79595 146.205806 
L 101.998927 145.97707 
L 102.100415 145.896695 
L 102.201904 146.040614 
L 102.303392 145.906412 
L 102.40488 145.97419 
L 102.506369 145.811634 
L 102.709346 146.004695 
L 102.810834 145.856576 
L 102.912322 145.940283 
L 103.013811 145.795601 
L 103.115299 145.950591 
L 103.318276 145.649843 
L 103.724229 145.890864 
L 103.927206 145.7441 
L 104.130183 145.6918 
L 104.231671 145.839294 
L 104.33316 145.354474 
L 104.434648 145.742607 
L 104.536136 145.499191 
L 104.637625 145.996539 
L 104.739113 145.457754 
L 104.840601 145.79928 
L 104.94209 145.491244 
L 105.043578 145.678647 
L 105.145067 145.470005 
L 105.652508 145.781268 
L 105.753997 145.491244 
L 105.855485 145.574465 
L 105.956974 145.38786 
L 106.15995 145.532334 
L 106.362927 145.381266 
L 106.464415 145.513108 
L 106.565904 145.870597 
L 106.768881 145.598099 
L 106.971857 145.520847 
L 107.174834 145.695132 
L 107.377811 145.550623 
L 107.479299 145.650745 
L 107.580788 146.162599 
L 107.783764 145.89194 
L 108.088229 145.84613 
L 108.189718 146.051441 
L 108.392695 145.764853 
L 108.595671 146.284932 
L 109.001625 146.110751 
L 109.204602 146.353994 
L 109.30609 146.065323 
L 109.509067 146.369888 
L 109.610555 146.547158 
L 109.712043 146.405599 
L 109.813532 146.548998 
L 109.91502 146.339765 
L 110.117997 146.444433 
L 110.52395 146.630136 
L 110.625439 146.789846 
L 110.726927 146.626215 
L 111.031392 146.838987 
L 111.132881 146.760972 
L 111.234369 146.996128 
L 111.640323 146.770967 
L 111.843299 147.032533 
L 112.046276 146.851203 
L 112.249253 147.054119 
L 112.350741 146.923874 
L 112.45223 146.998211 
L 112.655206 146.825522 
L 113.06116 147.065919 
L 113.264137 147.167672 
L 113.365625 146.91256 
L 113.467113 147.037079 
L 113.568602 146.983912 
L 113.67009 147.152818 
L 113.974555 146.931717 
L 114.27902 147.27005 
L 114.380509 147.046241 
L 114.583485 147.13918 
L 114.684974 147.348898 
L 114.887951 147.039821 
L 114.989439 147.211122 
L 115.090927 147.147231 
L 115.192416 147.461583 
L 115.496881 147.270084 
L 115.598369 147.243432 
L 115.801346 147.540466 
L 115.902834 147.202133 
L 116.105811 147.42615 
L 116.207299 147.713641 
L 116.410276 147.549906 
L 116.511765 147.400052 
L 116.81623 147.952858 
L 116.917718 147.406299 
L 117.019206 147.679006 
L 117.120695 147.520511 
L 117.222183 148.026813 
L 117.323672 147.760144 
L 117.42516 147.931792 
L 117.526648 147.625804 
L 117.831113 147.941544 
L 118.03409 148.035489 
L 118.135579 147.85867 
L 118.237067 148.238683 
L 118.338555 148.029346 
L 118.440044 148.202243 
L 118.541532 147.933146 
L 118.845997 148.225044 
L 118.947486 148.156538 
L 119.454927 148.403008 
L 119.556416 148.361536 
L 119.860881 148.498271 
L 120.063858 148.493066 
L 120.165346 148.742069 
L 120.774276 148.495391 
L 120.875765 148.557893 
L 120.977253 148.124922 
L 121.078741 148.755326 
L 121.281718 148.26072 
L 121.383207 148.552583 
L 121.484695 148.197593 
L 121.586183 148.652324 
L 121.687672 148.15102 
L 121.890648 148.562231 
L 121.992137 147.896602 
L 122.093625 148.597456 
L 122.296602 148.108715 
L 122.39809 148.405784 
L 122.499579 147.965525 
L 122.601067 148.445972 
L 122.702555 147.92381 
L 122.804044 147.969377 
L 122.905532 148.265544 
L 123.007021 147.684211 
L 123.108509 148.258221 
L 123.311486 147.679353 
L 123.412974 148.208351 
L 123.514462 147.638957 
L 123.615951 148.051314 
L 123.717439 147.576107 
L 123.818928 147.634827 
L 123.920416 147.981524 
L 124.021904 147.436318 
L 124.123393 147.93318 
L 124.326369 147.415183 
L 124.427858 147.787734 
L 124.529346 147.470849 
L 124.630835 147.741751 
L 124.732323 147.280288 
L 124.833811 147.350147 
L 124.9353 147.672273 
L 125.036788 147.029132 
L 125.138276 147.76358 
L 125.341253 147.17083 
L 125.442742 147.555146 
L 125.54423 147.084104 
L 125.645718 147.468316 
L 125.747207 147.001091 
L 125.848695 147.110167 
L 125.950183 147.434722 
L 126.051672 146.783148 
L 126.15316 147.453775 
L 126.356137 146.931682 
L 126.457625 147.331615 
L 126.559114 146.998523 
L 126.660602 147.182872 
L 126.863579 146.861233 
L 126.965067 147.372011 
L 127.066556 146.8081 
L 127.168044 147.337099 
L 127.371021 146.861128 
L 127.472509 147.407271 
L 127.573997 147.077718 
L 127.675486 147.269807 
L 127.878463 147.021636 
L 127.979951 147.467864 
L 128.081439 147.112631 
L 128.182928 147.529014 
L 128.385904 147.273034 
L 128.487393 147.628858 
L 128.588881 147.439511 
L 128.791858 147.476749 
L 128.893346 147.203903 
L 128.994835 147.708886 
L 129.2993 147.503575 
L 129.603765 147.834759 
L 129.705253 147.636146 
L 130.111207 148.050655 
L 130.314184 147.873524 
L 130.51716 148.102468 
L 130.923114 148.196933 
L 131.126091 148.43622 
L 131.227579 148.282688 
L 131.633532 148.61873 
L 131.836509 148.538563 
L 131.937998 148.609672 
L 132.039486 149.031018 
L 132.242463 148.807487 
L 132.343951 148.897545 
L 132.445439 148.832405 
L 132.648416 149.154149 
L 132.851393 149.067735 
L 132.952881 149.175839 
L 133.05437 149.47558 
L 133.358835 149.28193 
L 133.6633 149.448858 
L 133.764788 149.245005 
L 133.866277 149.365845 
L 133.967765 149.308965 
L 134.069253 149.531315 
L 134.373719 149.436711 
L 134.576695 149.418873 
L 134.678184 149.519412 
L 134.779672 149.328399 
L 134.88116 149.478183 
L 134.982649 149.426682 
L 135.084137 149.651844 
L 135.388602 149.454931 
L 135.693067 149.637372 
L 135.794556 149.356891 
L 136.099021 149.818876 
L 136.301998 149.63411 
L 136.606463 149.633138 
L 136.707951 149.758664 
L 136.80944 149.573689 
L 137.113905 149.890089 
L 137.316881 149.752 
L 137.621347 149.720871 
L 137.722835 150.011624 
L 137.824323 149.709106 
L 138.230277 150.088875 
L 138.433254 150.107789 
L 138.737719 150.382925 
L 138.839207 150.098766 
L 139.346649 150.852926 
L 139.448137 150.840814 
L 139.752602 151.411146 
L 139.854091 151.323517 
L 140.158556 152.095307 
L 140.260044 151.995012 
L 140.767486 152.760555 
L 140.868975 152.69361 
L 141.17344 153.452316 
L 141.274928 153.41022 
L 141.680882 154.054888 
L 141.78237 154.177602 
L 141.883858 154.067243 
L 142.188323 155.004572 
L 142.289812 154.867941 
L 143.101719 156.129305 
L 143.203207 156.437931 
L 143.304696 156.393683 
L 144.218091 157.77856 
L 144.319579 157.691695 
L 144.827021 158.171274 
L 144.92851 158.090934 
L 145.029998 158.339625 
L 145.131486 158.266711 
L 145.232975 158.584187 
L 145.435951 158.529388 
L 145.53744 158.758021 
L 145.638928 158.569819 
L 145.841905 158.940149 
L 145.943393 158.902078 
L 146.653812 159.730957 
L 147.059765 160.91146 
L 147.161254 161.099384 
L 147.364231 161.738603 
L 147.668696 162.578865 
L 147.770184 162.733854 
L 147.973161 163.250394 
L 149.495486 167.33572 
L 149.698463 167.514447 
L 150.002928 167.870514 
L 150.51037 168.675169 
L 150.611858 168.683359 
L 151.423765 169.85057 
L 151.525254 169.885969 
L 152.540138 171.285421 
L 152.641626 171.318425 
L 152.946091 171.885078 
L 153.047579 171.822471 
L 153.757998 172.834832 
L 154.26544 173.502335 
L 154.468417 173.885506 
L 154.569905 173.927949 
L 154.975859 174.572478 
L 155.077347 174.552731 
L 155.584789 175.331566 
L 155.686277 175.241231 
L 155.990742 175.674549 
L 156.193719 175.729 
L 156.599673 176.260254 
L 156.701161 176.214132 
L 156.904138 176.466606 
L 157.005626 176.465947 
L 157.107114 176.733865 
L 157.208603 176.680212 
L 157.310091 176.79897 
L 157.41158 176.738446 
L 157.716045 177.105965 
L 157.817533 176.93633 
L 158.121998 177.455021 
L 158.223487 177.291598 
L 158.832417 177.685215 
L 158.933905 177.987802 
L 159.136882 177.882787 
L 159.542835 178.406232 
L 159.644324 178.235313 
L 159.745812 178.640868 
L 159.847301 178.549527 
L 159.948789 178.981943 
L 160.050277 178.809844 
L 160.354742 179.261174 
L 160.659208 179.463639 
L 160.862184 179.908063 
L 161.166649 180.336314 
L 161.268138 180.283182 
L 161.572603 180.995489 
L 161.674091 180.734686 
L 161.978556 181.573767 
L 162.181533 181.79355 
L 162.688975 182.704643 
L 163.399394 184.257871 
L 163.500882 184.337725 
L 163.60237 184.722249 
L 163.703859 184.694347 
L 163.906836 185.237401 
L 164.008324 185.6753 
L 164.109812 185.586943 
L 164.617254 186.698835 
L 164.718743 186.582333 
L 165.023208 187.612288 
L 165.124696 187.566583 
L 165.936603 189.168431 
L 166.13958 189.719814 
L 166.545533 190.378016 
L 166.647022 190.734951 
L 166.74851 190.621849 
L 167.052975 191.568306 
L 167.154464 191.565356 
L 167.763394 192.491164 
L 167.864882 192.467773 
L 168.270836 193.142183 
L 168.372324 193.04685 
L 168.473812 193.345828 
L 168.575301 193.28985 
L 168.676789 193.587127 
L 168.778278 193.451364 
L 169.082743 194.078888 
L 169.184231 193.917755 
L 169.691673 194.436447 
L 169.793161 194.131361 
L 169.996138 194.424265 
L 170.097626 194.802786 
L 170.199115 194.47004 
L 170.402092 194.544759 
L 170.50358 194.496138 
L 170.706557 194.763084 
L 170.808045 194.633047 
L 171.11251 194.936814 
L 171.315487 194.819895 
L 171.72144 194.93959 
L 171.822929 194.724666 
L 172.025906 194.773079 
L 172.127394 195.141361 
L 172.228882 194.88087 
L 172.330371 194.941603 
L 172.431859 194.864594 
L 172.634836 195.040996 
L 173.040789 195.145595 
L 173.142278 195.57527 
L 173.345254 195.446898 
L 173.446743 195.379919 
L 173.751208 195.676953 
L 173.852696 195.486149 
L 174.157161 195.915095 
L 174.461627 195.916344 
L 175.070557 196.243016 
L 175.172045 196.455302 
L 175.273534 196.300937 
L 175.577999 196.684559 
L 175.882464 196.99138 
L 176.389906 198.255174 
L 176.592882 198.63241 
L 177.506278 200.650086 
L 178.115208 201.920126 
L 178.318185 202.481399 
L 178.62265 202.993601 
L 179.333069 204.675304 
L 179.637534 205.236334 
L 180.246464 206.963639 
L 180.652417 207.775547 
L 180.855394 208.274145 
L 180.956883 208.416745 
L 181.261348 209.452288 
L 181.76879 210.61936 
L 182.37772 212.287008 
L 182.682185 213.211393 
L 182.98665 214.280703 
L 184.610464 219.335495 
L 187.95958 226.519502 
L 188.061069 226.438988 
L 188.264046 226.581415 
L 188.467022 226.644959 
L 188.568511 226.472443 
L 188.669999 226.72988 
L 188.771487 226.659743 
L 188.872976 226.775933 
L 188.974464 226.618028 
L 189.177441 226.722488 
L 189.278929 226.785199 
L 189.380418 226.66474 
L 189.481906 226.856169 
L 189.786371 226.760212 
L 189.989348 226.866685 
L 190.090836 226.946296 
L 190.293813 226.862 
L 190.49679 226.951433 
L 190.598278 226.818654 
L 190.902743 227.074876 
L 191.004232 226.967189 
L 191.10572 227.027366 
L 191.207208 226.950253 
L 191.308697 227.078416 
L 191.511674 226.963371 
L 191.816139 227.079284 
L 191.917627 227.163685 
L 192.019115 227.003281 
L 192.120604 227.186902 
L 192.323581 227.027123 
L 193.135488 227.175553 
L 193.236976 227.005814 
L 193.439953 227.14307 
L 193.947395 227.163685 
L 194.048883 227.06908 
L 194.25186 227.067901 
L 194.454836 227.102431 
L 194.86079 227.071059 
L 195.165255 227.149595 
L 195.368232 227.042428 
L 195.875674 226.998769 
L 195.977162 227.141127 
L 196.281627 226.896183 
L 196.383116 227.059884 
L 196.586092 226.894101 
L 196.992046 227.071718 
L 197.093534 226.882371 
L 197.195023 226.993703 
L 197.397999 226.870953 
L 197.499488 226.781034 
L 197.803953 226.872272 
L 198.61586 226.754243 
L 199.021813 226.950322 
L 199.123302 226.900903 
L 199.22479 226.978988 
L 199.427767 226.895698 
L 200.036697 227.106978 
L 200.239674 227.048501 
L 200.544139 227.092541 
L 201.863488 227.259781 
L 202.167953 227.503544 
L 202.37093 227.555392 
L 202.573906 227.667939 
L 202.675395 227.605991 
L 203.081348 227.905906 
L 203.385813 227.859437 
L 204.19772 227.904241 
L 204.400697 227.918122 
L 204.705162 227.931865 
L 204.806651 227.872694 
L 205.009627 228.058015 
L 205.314093 227.887166 
L 205.517069 227.989752 
L 205.821534 227.966951 
L 205.923023 227.938251 
L 206.126 228.023068 
L 206.328976 227.992806 
L 206.937907 227.998393 
L 207.140883 228.024005 
L 207.445348 228.006341 
L 207.648325 227.911702 
L 207.95279 227.980937 
L 208.054279 228.087792 
L 208.257255 227.928429 
L 208.663209 228.065685 
L 208.764697 227.937487 
L 209.069162 228.107747 
L 209.272139 228.064401 
L 209.475116 228.069572 
L 209.678093 228.162823 
L 209.881069 228.011269 
L 209.982558 228.077728 
L 210.084046 228.281338 
L 210.287023 228.147483 
L 210.794465 228.047084 
L 210.997442 228.186179 
L 211.200418 228.22765 
L 211.606372 228.163135 
L 211.809349 228.264298 
L 212.418279 228.202455 
L 212.722744 228.396175 
L 213.027209 228.263292 
L 213.128697 228.215677 
L 213.331674 228.433135 
L 213.433163 228.217551 
L 213.737628 228.474329 
L 214.042093 228.300321 
L 214.346558 228.435738 
L 214.448046 228.264506 
L 214.549535 228.456734 
L 214.651023 228.343146 
L 214.752511 228.49064 
L 215.056977 228.305423 
L 215.259953 228.434176 
L 216.173349 228.443199 
L 216.477814 228.423591 
L 216.579302 228.560638 
L 216.680791 228.501329 
L 216.782279 228.643721 
L 216.985256 228.50938 
L 217.188232 228.493312 
L 217.289721 228.586285 
L 217.492698 228.456768 
L 217.695674 228.615228 
L 218.000139 228.536692 
L 218.101628 228.633483 
L 218.304605 228.552171 
L 218.406093 228.68141 
L 218.60907 228.556023 
L 218.812046 228.600757 
L 218.913535 228.540926 
L 219.218 228.754185 
L 219.420977 228.577748 
L 219.82693 228.631887 
L 219.928419 228.572854 
L 220.131395 228.775701 
L 220.334372 228.675718 
L 220.740326 228.73947 
L 220.841814 228.618352 
L 221.146279 228.851981 
L 221.247767 228.721424 
L 221.349256 228.772682 
L 221.450744 228.652813 
L 221.653721 228.733362 
L 221.755209 228.780178 
L 221.856698 228.643374 
L 222.262651 228.866627 
L 222.567116 228.689253 
L 222.770093 228.86097 
L 222.97307 228.798016 
L 223.074558 228.878253 
L 223.176047 228.704037 
L 223.480512 228.979867 
L 223.683488 228.853057 
L 224.393907 228.884638 
L 224.495395 229.005375 
L 224.799861 228.815056 
L 225.611768 228.868952 
L 225.814744 228.892308 
L 226.017721 228.976813 
L 226.220698 228.946481 
L 226.72814 228.975217 
L 226.829628 229.10095 
L 227.134093 228.934925 
L 227.33707 228.995206 
L 227.438558 229.098695 
L 227.540047 228.828348 
L 227.844512 229.170429 
L 227.946 228.91969 
L 228.148977 229.00999 
L 228.55493 228.979034 
L 228.859396 229.059513 
L 229.062372 228.928123 
L 229.366837 228.954915 
L 229.569814 228.882938 
L 229.874279 228.978999 
L 230.686186 228.886651 
L 230.787675 229.044903 
L 230.990651 228.805269 
L 231.396605 228.90612 
L 231.498093 228.791769 
L 231.802558 228.953839 
L 232.107024 228.786217 
L 232.411489 228.797218 
L 232.512977 228.751235 
L 232.817442 228.906502 
L 233.020419 228.840529 
L 233.629349 228.824808 
L 233.832326 228.890538 
L 234.035303 228.748458 
L 234.745721 228.911881 
L 234.84721 228.752276 
L 234.948698 228.823697 
L 235.151675 228.729996 
L 235.354652 228.86805 
L 235.45614 228.580559 
L 235.659117 228.803847 
L 235.760605 228.898451 
L 235.862093 228.782191 
L 235.963582 228.856667 
L 236.166559 228.715489 
L 236.572512 228.809503 
L 239.617163 228.894668 
L 239.718652 228.953873 
L 239.921628 228.877073 
L 240.327582 228.84865 
L 240.42907 228.922084 
L 240.530559 228.82283 
L 240.733535 229.030223 
L 241.139489 228.95193 
L 241.240977 229.090331 
L 241.342466 228.883319 
L 241.443954 229.041918 
L 241.545442 228.982921 
L 241.646931 229.166229 
L 241.849908 229.068537 
L 242.052884 229.070515 
L 243.473722 229.212213 
L 243.676698 229.343083 
L 243.879675 229.250075 
L 244.488605 229.318061 
L 244.590094 229.420786 
L 244.894559 229.329131 
L 245.199024 229.466422 
L 245.300512 229.241191 
L 245.604977 229.566266 
L 245.909443 229.408431 
L 246.315396 229.406418 
L 246.518373 229.576435 
L 248.54814 229.685823 
L 248.649629 229.767204 
L 248.954094 229.6861 
L 249.055582 229.650528 
L 249.157071 229.741489 
L 249.258559 229.624188 
L 249.563024 229.884817 
L 249.766001 229.735971 
L 250.679396 229.814402 
L 250.882373 229.796287 
L 251.08535 229.830505 
L 251.186838 229.71959 
L 251.491303 230.004166 
L 251.592792 229.858338 
L 251.69428 229.923305 
L 251.897257 229.784869 
L 252.100233 229.933369 
L 252.30321 229.862884 
L 252.404699 229.88801 
L 252.506187 230.041056 
L 252.607675 229.847163 
L 253.013629 229.96731 
L 253.216606 229.90099 
L 253.521071 230.002257 
L 253.622559 230.02124 
L 253.724047 229.85924 
L 253.927024 229.997607 
L 254.130001 229.875031 
L 254.434466 230.121848 
L 254.637443 230.009927 
L 254.738931 229.857679 
L 255.043396 230.094952 
L 255.246373 229.93028 
L 255.44935 230.166547 
L 255.753815 229.992574 
L 255.855303 229.938297 
L 256.05828 230.034983 
L 256.261257 230.037759 
L 256.464234 230.160856 
L 256.66721 230.024155 
L 256.971675 230.116642 
L 257.276141 229.940136 
L 257.377629 230.322682 
L 257.580606 230.113519 
L 258.088048 230.065384 
L 258.494001 230.144545 
L 258.696978 230.086727 
L 258.798466 230.209303 
L 259.102931 230.115567 
L 259.508885 230.169011 
L 259.81335 230.132155 
L 259.914838 230.256779 
L 260.016327 230.010586 
L 260.320792 230.330421 
L 260.523769 230.210899 
L 260.726745 230.108834 
L 260.929722 230.151937 
L 261.132699 230.184489 
L 261.437164 230.197365 
L 261.741629 230.112409 
L 261.843117 230.279579 
L 262.046094 230.10106 
L 262.452048 230.224469 
L 262.756513 230.141873 
L 262.858001 230.072776 
L 263.060978 230.211802 
L 263.365443 230.185288 
L 263.466931 230.108522 
L 263.771397 230.262505 
L 263.974373 230.278295 
L 264.075862 230.256119 
L 264.17735 230.596951 
L 264.278838 230.374912 
L 264.380327 230.55423 
L 264.481815 230.426969 
L 264.78628 230.708629 
L 264.887769 230.54361 
L 265.192234 230.910956 
L 265.395211 230.815102 
L 265.699676 230.948297 
L 265.801164 230.905854 
L 266.207118 231.267924 
L 266.410094 231.161 
L 266.714559 231.43808 
L 266.816048 231.257791 
L 267.120513 231.663242 
L 267.32349 231.513145 
L 267.830932 231.673132 
L 267.93242 231.959166 
L 268.033908 231.694788 
L 268.236885 231.883163 
L 268.338373 231.811117 
L 268.54135 232.00213 
L 268.642839 231.891561 
L 268.744327 232.21924 
L 268.947304 232.103536 
L 269.15028 232.200708 
L 269.251769 232.332237 
L 269.353257 232.118771 
L 269.454746 232.165899 
L 269.657722 232.46283 
L 269.962187 232.343759 
L 270.165164 232.522417 
L 270.469629 232.653252 
L 271.180048 232.936995 
L 271.281536 232.733072 
L 271.586001 233.147824 
L 271.68749 233.001892 
L 271.788978 233.159346 
L 271.991955 233.05728 
L 272.29642 233.454125 
L 272.397908 233.232746 
L 272.499397 233.386173 
L 272.600885 233.196861 
L 272.803862 233.406198 
L 273.006839 233.391101 
L 273.209815 233.665995 
L 273.311304 233.488065 
L 273.615769 233.691155 
L 273.717257 233.660824 
L 273.818746 233.833443 
L 273.920234 233.591727 
L 274.224699 234.02744 
L 274.326188 233.887651 
L 274.427676 234.016821 
L 274.630653 233.901637 
L 274.935118 234.107052 
L 275.036606 234.099452 
L 275.239583 234.236013 
L 275.645536 234.278283 
L 275.747025 234.501502 
L 275.848513 234.255552 
L 276.05149 234.447189 
L 276.152978 234.743877 
L 276.254467 234.496955 
L 276.355955 234.658331 
L 276.457443 234.540856 
L 276.761909 234.755815 
L 276.964885 234.845248 
L 277.066374 235.001452 
L 277.26935 234.881827 
L 277.573816 235.16432 
L 277.878281 235.107578 
L 278.081257 235.411693 
L 278.182746 235.235013 
L 278.487211 235.572374 
L 278.791676 235.54114 
L 279.096141 235.676244 
L 279.299118 235.721047 
L 279.502095 235.9924 
L 279.80656 235.904598 
L 280.009537 236.191638 
L 280.111025 236.014819 
L 280.41549 236.317649 
L 280.618467 236.360093 
L 280.922932 236.563113 
L 281.125909 236.443834 
L 281.328885 236.823604 
L 281.430374 236.671044 
L 281.734839 236.77776 
L 282.343769 237.119285 
L 282.445258 237.06296 
L 282.851211 237.381164 
L 282.952699 237.182031 
L 283.257165 237.668343 
L 283.358653 237.460706 
L 283.460141 237.558711 
L 283.56163 237.501519 
L 283.866095 237.696488 
L 284.069072 237.695551 
L 284.272048 237.940806 
L 284.678002 237.928833 
L 284.77949 238.18686 
L 284.880979 237.979745 
L 285.185444 238.4005 
L 285.286932 238.223924 
L 285.997351 238.535986 
L 286.098839 238.776175 
L 286.200327 238.650892 
L 286.301816 238.739978 
L 286.403304 238.680564 
L 286.606281 238.765624 
L 286.707769 238.760592 
L 286.910746 239.014593 
L 287.519676 239.169826 
L 287.621165 239.330091 
L 287.722653 239.182944 
L 287.92563 239.269427 
L 288.027118 239.624314 
L 288.128607 239.440902 
L 288.230095 239.582495 
L 288.433072 239.501877 
L 288.636048 239.650793 
L 288.737537 239.605955 
L 288.940514 239.995269 
L 289.042002 239.847845 
L 289.244979 239.812655 
L 289.346467 240.010296 
L 289.447955 239.93759 
L 289.549444 240.099417 
L 289.752421 240.028169 
L 289.955397 240.318123 
L 290.158374 240.286542 
L 290.259862 240.361296 
L 290.361351 240.297891 
L 290.868793 240.749602 
L 290.970281 240.58729 
L 291.477723 240.840111 
L 291.6807 240.842853 
L 291.782188 241.147696 
L 291.883676 240.979692 
L 292.086653 241.095917 
L 292.28963 241.122952 
L 292.391118 241.260242 
L 292.594095 241.229772 
L 292.797072 241.483391 
L 292.89856 241.361128 
L 293.101537 241.488978 
L 293.203025 241.52993 
L 293.304514 241.691825 
L 293.50749 241.569111 
L 293.913444 241.922575 
L 294.014932 241.813811 
L 294.420886 241.979212 
L 294.623862 242.116364 
L 294.826839 241.981676 
L 294.928328 242.093736 
L 295.029816 241.959639 
L 295.131304 242.067604 
L 295.232793 242.0076 
L 295.334281 241.732117 
L 295.537258 242.060837 
L 295.740235 241.99063 
L 296.0447 241.862848 
L 296.146188 241.983099 
L 296.247676 241.848516 
L 296.450653 241.902515 
L 296.552142 241.886239 
L 296.65363 242.000763 
L 296.755118 241.911434 
L 296.856607 241.625262 
L 297.059583 241.905465 
L 297.161072 241.732048 
L 297.26256 241.8768 
L 297.567025 241.790594 
L 297.87149 241.820023 
L 298.074467 241.55568 
L 298.175956 241.688424 
L 298.480421 241.863022 
L 298.683397 241.51938 
L 298.886374 241.702549 
L 299.190839 241.707928 
L 299.292328 241.437998 
L 299.495304 241.701751 
L 299.698281 241.597152 
L 299.901258 241.503624 
L 300.104235 241.511398 
L 300.205723 241.538606 
L 300.307211 241.69134 
L 300.611677 241.425227 
L 300.713165 241.531942 
L 300.814653 241.452157 
L 300.916142 241.546588 
L 301.119118 241.199614 
L 301.220607 241.546102 
L 301.525072 241.44473 
L 301.829537 241.257431 
L 302.134002 241.47711 
L 302.235491 241.401211 
L 302.336979 241.146447 
L 302.539956 241.32625 
L 302.641444 241.258923 
L 302.742932 241.418702 
L 302.945909 241.096299 
L 303.047398 241.33739 
L 303.250374 241.157344 
L 303.351863 241.329547 
L 303.554839 241.11615 
L 303.656328 241.199718 
L 303.859305 241.041987 
L 303.960793 241.271209 
L 304.366746 241.07624 
L 304.569723 241.092967 
L 304.7727 240.914622 
L 304.975677 241.154498 
L 305.077165 241.034664 
L 305.178653 241.103552 
L 305.280142 240.811307 
L 305.483119 241.002424 
L 305.686095 240.947174 
L 305.787584 240.976187 
L 305.889072 240.871033 
L 306.092049 240.93652 
L 306.599491 240.773028 
L 306.700979 240.939852 
L 306.802467 240.804401 
L 306.903956 240.904176 
L 307.106933 240.641221 
L 307.309909 240.934299 
L 307.411398 240.721249 
L 307.614374 240.731174 
L 307.715863 240.575213 
L 307.817351 240.764352 
L 308.020328 240.628623 
L 308.121816 240.788159 
L 308.426281 240.607558 
L 308.629258 240.728329 
L 308.730747 240.643546 
L 308.832235 240.373164 
L 309.035212 240.650036 
L 309.1367 240.670442 
L 309.441165 240.379932 
L 309.644142 240.555154 
L 309.74563 240.413248 
L 309.847119 240.573617 
L 310.050095 240.398256 
L 310.253072 240.532006 
L 310.354561 240.362406 
L 310.456049 240.527321 
L 310.557537 240.435806 
L 310.659026 240.185969 
L 310.760514 240.428691 
L 310.862002 240.385172 
L 311.064979 240.510663 
L 311.267956 240.16886 
L 311.470933 240.34311 
L 311.673909 240.334955 
L 311.775398 240.145747 
L 311.978375 240.35602 
L 312.079863 240.24927 
L 312.28284 240.307573 
L 312.384328 240.020881 
L 312.587305 240.208735 
L 312.688793 240.189301 
L 312.89177 240.264366 
L 313.094747 240.090046 
L 313.196235 240.184546 
L 313.297723 240.100596 
L 313.399212 240.286681 
L 313.5007 239.971253 
L 313.805165 240.151681 
L 313.906654 240.076998 
L 314.008142 240.175384 
L 314.10963 239.890462 
L 314.312607 240.127701 
L 314.414096 239.954422 
L 314.617072 240.042883 
L 314.820049 239.97337 
L 314.921537 239.995998 
L 315.023026 239.895876 
L 315.124514 240.074082 
L 315.327491 239.744009 
L 315.428979 239.888171 
L 315.631956 240.122946 
L 315.834933 239.712914 
L 316.03791 239.886957 
L 316.342375 239.864052 
L 316.443863 239.609183 
L 316.545351 239.944739 
L 316.748328 239.835629 
L 316.849817 239.872832 
L 316.951305 239.654264 
L 317.154282 239.706876 
L 317.357258 239.788188 
L 317.458747 239.866967 
L 317.560235 239.549179 
L 317.661724 239.756399 
L 317.763212 239.597488 
L 317.966189 239.800473 
L 318.169165 239.477792 
L 318.270654 239.568718 
L 318.372142 239.84198 
L 318.473631 239.552788 
L 318.575119 239.78673 
L 318.778096 239.471927 
L 318.981072 239.590581 
L 319.285538 239.50042 
L 319.488514 239.562367 
L 319.590003 239.431601 
L 319.691491 239.624973 
L 319.995956 239.34772 
L 320.097445 239.539774 
L 320.198933 239.470921 
L 320.300421 239.630526 
L 320.503398 239.347755 
L 320.807863 239.442047 
L 320.909352 239.396688 
L 321.01084 239.185443 
L 321.213817 239.511143 
L 321.416793 239.176038 
L 321.61977 239.415949 
L 321.721259 239.271336 
L 321.822747 239.345812 
L 321.924235 239.158859 
L 322.025724 239.288723 
L 322.2287 239.269844 
L 322.431677 239.3801 
L 322.533166 239.021187 
L 322.736142 239.266755 
L 322.837631 239.148899 
L 322.939119 239.339183 
L 323.040607 238.967534 
L 323.345073 239.32138 
L 323.649538 239.070745 
L 323.751026 239.054226 
L 323.852514 239.178051 
L 323.954003 239.001996 
L 324.055491 239.205676 
L 324.15698 238.976835 
L 324.359956 239.095593 
L 324.562933 239.074667 
L 324.664421 239.059223 
L 324.76591 238.906975 
L 324.968887 239.122697 
L 325.070375 238.900277 
L 325.171863 239.095836 
L 325.273352 238.835346 
L 325.37484 239.02084 
L 325.476328 238.877442 
L 325.780794 238.975759 
L 325.98377 238.829689 
L 326.085259 238.944525 
L 326.186747 238.827641 
L 326.288235 238.943692 
L 326.389724 238.648393 
L 326.592701 239.083794 
L 326.795677 238.683098 
L 326.897166 238.896772 
L 327.100142 238.75091 
L 327.201631 238.867204 
L 327.404608 238.669042 
L 327.607584 238.903748 
L 327.709073 238.555143 
L 327.810561 238.615528 
L 327.912049 238.991966 
L 328.013538 238.550319 
L 328.216515 238.776348 
L 328.318003 238.545911 
L 328.419491 238.649573 
L 328.622468 238.524603 
L 328.825445 238.925854 
L 329.028422 238.552297 
L 329.231398 238.598905 
L 329.332887 238.429166 
L 329.535863 238.621116 
L 329.637352 238.376728 
L 329.73884 238.781762 
L 329.941817 238.290834 
L 330.043305 238.597933 
L 330.34777 238.40935 
L 330.449259 238.700589 
L 330.550747 238.274523 
L 330.753724 238.483756 
L 330.956701 238.375756 
L 331.159677 238.492362 
L 331.261166 238.165135 
L 331.464143 238.44978 
L 331.565631 238.231663 
L 331.768608 238.458873 
L 331.870096 238.12873 
L 332.073073 238.509819 
L 332.174561 238.077819 
L 332.377538 238.283581 
L 332.580515 238.304126 
L 332.682003 238.343967 
L 332.88498 238.030309 
L 332.986468 238.37874 
L 333.189445 237.94865 
L 333.392422 238.417089 
L 333.49391 237.993661 
L 333.696887 238.254117 
L 333.899864 238.032912 
L 334.204329 238.109227 
L 334.305817 238.328662 
L 334.508794 237.808548 
L 334.610282 238.185576 
L 334.813259 237.847729 
L 334.914747 237.979918 
L 335.016236 238.088543 
L 335.117724 237.838914 
L 335.320701 238.151705 
L 335.422189 237.762426 
L 335.625166 238.011083 
L 335.828143 237.82767 
L 335.929631 238.034161 
L 336.132608 237.812366 
L 336.234096 237.986443 
L 336.437073 237.619236 
L 336.64005 237.924461 
L 336.741538 237.644848 
L 336.944515 237.969889 
L 337.147492 237.590882 
L 337.24898 237.806223 
L 337.350468 237.710127 
L 337.553445 237.804141 
L 337.756422 237.535598 
L 337.959399 237.789495 
L 338.060887 237.43388 
L 338.263864 237.757845 
L 338.46684 237.601884 
L 338.568329 237.833709 
L 338.669817 237.462685 
L 338.771306 237.500061 
L 338.872794 237.680142 
L 338.974282 237.37759 
L 339.177259 237.696106 
L 339.278747 237.451787 
L 339.481724 237.692323 
L 339.684701 237.332647 
L 339.786189 237.547745 
L 339.989166 237.347431 
L 340.192143 237.581616 
L 340.293631 237.338547 
L 340.496608 237.628641 
L 340.699585 237.193726 
L 340.801073 237.51488 
L 340.902561 237.343926 
L 341.105538 237.545871 
L 341.308515 237.132056 
L 341.410003 237.469972 
L 341.511492 237.410177 
L 341.61298 237.155378 
L 342.120422 237.487637 
L 342.22191 237.102211 
L 342.323399 237.141912 
L 342.424887 237.359925 
L 342.627864 237.101065 
L 342.830841 237.493745 
L 342.932329 237.075002 
L 343.135306 237.373043 
L 343.236794 237.038112 
L 343.338282 237.077883 
L 343.439771 237.239084 
L 343.541259 237.043005 
L 343.744236 237.401883 
L 343.947213 236.999902 
L 344.150189 237.16454 
L 344.251678 236.907103 
L 344.454655 237.219442 
L 344.556143 236.955932 
L 344.75912 237.289371 
L 344.962096 236.863271 
L 345.063585 237.205421 
L 345.165073 237.085414 
L 345.266562 236.761865 
L 345.469538 237.140038 
L 345.571027 236.931396 
L 345.774003 237.223398 
L 345.97698 236.784596 
L 346.078469 237.117133 
L 346.179957 236.788622 
L 346.281445 236.855081 
L 346.484422 237.096033 
L 346.58591 236.679963 
L 346.788887 236.977275 
L 346.991864 236.735282 
L 347.093352 236.924906 
L 347.194841 236.677915 
L 347.397817 237.094263 
L 347.600794 236.599379 
L 347.702283 236.975887 
L 347.905259 236.538681 
L 348.108236 236.900197 
L 348.209724 236.634639 
L 348.412701 237.036515 
L 348.615678 236.550516 
L 348.717166 236.835889 
L 348.818655 236.752183 
L 348.920143 236.484786 
L 349.12312 236.873405 
L 349.224608 236.537814 
L 349.427585 236.891625 
L 349.630562 236.43148 
L 349.73205 236.782341 
L 349.935027 236.507899 
L 350.036515 236.833981 
L 350.239492 236.424192 
L 350.442469 236.776267 
L 350.645445 236.398996 
L 350.746934 236.604238 
L 350.848422 236.499361 
L 351.051399 236.6269 
L 351.152887 236.608854 
L 351.254376 236.247998 
L 351.457352 236.654039 
L 351.558841 236.211905 
L 351.761818 236.59466 
L 351.964794 236.459417 
L 352.066283 236.558046 
L 352.269259 236.250913 
L 352.472236 236.510154 
L 352.675213 236.308279 
L 352.776701 236.556658 
L 352.979678 236.357004 
L 353.081166 236.58574 
L 353.284143 236.266981 
L 353.48712 236.406493 
L 353.588608 236.131565 
L 353.791585 236.40972 
L 353.994562 236.255182 
L 354.09605 236.527055 
L 354.299027 236.103662 
L 354.502004 236.392576 
L 354.603492 236.073851 
L 354.806469 236.263476 
L 354.907957 236.140796 
L 355.110934 236.371233 
L 355.313911 235.947076 
L 355.415399 236.477602 
L 355.618376 235.990353 
L 355.719864 236.171648 
L 356.024329 236.203125 
L 356.125818 236.120008 
L 356.227306 236.188653 
L 356.328794 236.392819 
L 356.531771 235.997884 
L 356.63326 236.237378 
L 356.836236 235.960056 
L 357.039213 236.154782 
L 357.140701 235.93781 
L 357.343678 236.310847 
L 357.546655 235.898074 
L 357.648143 236.192818 
L 357.749632 236.155545 
L 357.85112 235.78997 
L 358.054097 236.119279 
L 358.155585 235.927816 
L 358.358562 236.259728 
L 358.561539 235.782751 
L 358.663027 236.181955 
L 358.866004 235.751899 
L 359.068981 235.954121 
L 359.170469 235.897484 
L 359.271957 235.976471 
L 359.373446 236.288081 
L 359.576422 235.71546 
L 359.677911 236.1063 
L 359.880888 235.932258 
L 360.083864 235.85688 
L 360.185353 235.855908 
L 360.286841 236.038592 
L 360.591306 235.678708 
L 360.692795 235.846191 
L 360.794283 235.985112 
L 360.895771 235.805274 
L 360.99726 235.971821 
L 361.200236 235.879542 
L 361.504702 235.835294 
L 361.707678 235.77529 
L 362.012143 235.938366 
L 362.113632 235.699982 
L 362.21512 235.839007 
L 362.316609 235.771438 
L 362.519585 235.841749 
L 362.621074 235.586602 
L 362.82405 235.796876 
L 362.925539 235.93198 
L 363.128516 235.653304 
L 363.230004 235.804997 
L 363.331492 235.711989 
L 363.432981 235.906056 
L 363.534469 235.637271 
L 363.940423 235.874371 
L 364.041911 235.599998 
L 364.143399 235.645773 
L 364.447864 235.898525 
L 364.549353 235.604753 
L 364.650841 235.661043 
L 364.75233 235.84633 
L 365.056795 235.495226 
L 365.158283 235.635362 
L 365.259771 235.980636 
L 365.36126 235.674335 
L 365.462748 235.791427 
L 365.564237 235.5165 
L 365.767213 235.711816 
L 365.868702 235.636091 
L 365.97019 235.863196 
L 366.071678 235.478741 
L 366.173167 235.7131 
L 366.274655 235.597326 
L 366.376144 235.76533 
L 366.477632 235.579939 
L 366.680609 235.731042 
L 367.289539 235.634807 
L 367.391027 235.788269 
L 367.492516 235.584798 
L 367.796981 235.715598 
L 367.898469 235.649556 
L 367.999958 235.437374 
L 368.304423 235.727224 
L 368.405911 235.730625 
L 368.507399 235.539682 
L 368.913353 235.640394 
L 369.014841 235.295711 
L 369.11633 235.794655 
L 369.217818 235.596944 
L 369.420795 235.644177 
L 369.522283 235.46545 
L 369.623772 235.726704 
L 369.72526 235.489604 
L 369.928237 235.622521 
L 370.029725 235.42488 
L 370.232702 235.720422 
L 370.33419 235.498557 
L 370.537167 235.57633 
L 370.740144 235.714523 
L 370.841632 235.450249 
L 370.94312 235.627345 
L 371.146097 235.527674 
L 371.247586 235.81572 
L 371.349074 235.420577 
L 371.552051 235.59868 
L 371.653539 235.409437 
L 371.755027 235.855283 
L 371.856516 235.397186 
L 371.958004 235.443482 
L 372.059493 235.722088 
L 372.160981 235.625922 
L 372.262469 235.740134 
L 372.363958 235.306157 
L 372.566934 235.769529 
L 372.668423 235.460973 
L 372.769911 235.694464 
L 372.8714 235.401836 
L 373.074376 235.752212 
L 373.378841 235.479366 
L 373.48033 235.475201 
L 373.581818 235.744611 
L 373.581818 235.744611 
" style="fill:none;stroke:#081d58;stroke-dasharray:5.55,2.4;stroke-dashoffset:0;stroke-width:1.5;"/>
    <defs>
     <path d="M -0 4.242641 
L 4.242641 0 
L 0 -4.242641 
L -4.242641 -0 
z
" id="m7415dd0532" style="stroke:#081d58;stroke-linejoin:miter;"/>
    </defs>
    <g clip-path="url(#p2769caf58b)">
     <use style="fill:#081d58;stroke:#081d58;stroke-linejoin:miter;" x="69.218182" xlink:href="#m7415dd0532" y="149.135408"/>
     <use style="fill:#081d58;stroke:#081d58;stroke-linejoin:miter;" x="77.337252" xlink:href="#m7415dd0532" y="148.639761"/>
     <use style="fill:#081d58;stroke:#081d58;stroke-linejoin:miter;" x="85.456322" xlink:href="#m7415dd0532" y="145.190843"/>
     <use style="fill:#081d58;stroke:#081d58;stroke-linejoin:miter;" x="93.575392" xlink:href="#m7415dd0532" y="143.427099"/>
     <use style="fill:#081d58;stroke:#081d58;stroke-linejoin:miter;" x="101.694462" xlink:href="#m7415dd0532" y="146.039677"/>
     <use style="fill:#081d58;stroke:#081d58;stroke-linejoin:miter;" x="109.813532" xlink:href="#m7415dd0532" y="146.548998"/>
     <use style="fill:#081d58;stroke:#081d58;stroke-linejoin:miter;" x="117.932602" xlink:href="#m7415dd0532" y="147.973576"/>
     <use style="fill:#081d58;stroke:#081d58;stroke-linejoin:miter;" x="126.051672" xlink:href="#m7415dd0532" y="146.783148"/>
     <use style="fill:#081d58;stroke:#081d58;stroke-linejoin:miter;" x="134.170742" xlink:href="#m7415dd0532" y="149.456736"/>
     <use style="fill:#081d58;stroke:#081d58;stroke-linejoin:miter;" x="142.289812" xlink:href="#m7415dd0532" y="154.867941"/>
     <use style="fill:#081d58;stroke:#081d58;stroke-linejoin:miter;" x="150.408882" xlink:href="#m7415dd0532" y="168.479124"/>
     <use style="fill:#081d58;stroke:#081d58;stroke-linejoin:miter;" x="158.527952" xlink:href="#m7415dd0532" y="177.384606"/>
     <use style="fill:#081d58;stroke:#081d58;stroke-linejoin:miter;" x="166.647022" xlink:href="#m7415dd0532" y="190.734951"/>
     <use style="fill:#081d58;stroke:#081d58;stroke-linejoin:miter;" x="174.766092" xlink:href="#m7415dd0532" y="196.055855"/>
     <use style="fill:#081d58;stroke:#081d58;stroke-linejoin:miter;" x="182.885162" xlink:href="#m7415dd0532" y="214.020073"/>
     <use style="fill:#081d58;stroke:#081d58;stroke-linejoin:miter;" x="191.004232" xlink:href="#m7415dd0532" y="226.967189"/>
     <use style="fill:#081d58;stroke:#081d58;stroke-linejoin:miter;" x="199.123302" xlink:href="#m7415dd0532" y="226.900903"/>
     <use style="fill:#081d58;stroke:#081d58;stroke-linejoin:miter;" x="207.242372" xlink:href="#m7415dd0532" y="227.98878"/>
     <use style="fill:#081d58;stroke:#081d58;stroke-linejoin:miter;" x="215.361442" xlink:href="#m7415dd0532" y="228.444795"/>
     <use style="fill:#081d58;stroke:#081d58;stroke-linejoin:miter;" x="223.480512" xlink:href="#m7415dd0532" y="228.979867"/>
     <use style="fill:#081d58;stroke:#081d58;stroke-linejoin:miter;" x="231.599582" xlink:href="#m7415dd0532" y="228.850559"/>
     <use style="fill:#081d58;stroke:#081d58;stroke-linejoin:miter;" x="239.718652" xlink:href="#m7415dd0532" y="228.953873"/>
     <use style="fill:#081d58;stroke:#081d58;stroke-linejoin:miter;" x="247.837722" xlink:href="#m7415dd0532" y="229.641748"/>
     <use style="fill:#081d58;stroke:#081d58;stroke-linejoin:miter;" x="255.956792" xlink:href="#m7415dd0532" y="230.075448"/>
     <use style="fill:#081d58;stroke:#081d58;stroke-linejoin:miter;" x="264.075862" xlink:href="#m7415dd0532" y="230.256119"/>
     <use style="fill:#081d58;stroke:#081d58;stroke-linejoin:miter;" x="272.194932" xlink:href="#m7415dd0532" y="233.122247"/>
     <use style="fill:#081d58;stroke:#081d58;stroke-linejoin:miter;" x="280.314002" xlink:href="#m7415dd0532" y="236.341526"/>
     <use style="fill:#081d58;stroke:#081d58;stroke-linejoin:miter;" x="288.433072" xlink:href="#m7415dd0532" y="239.501877"/>
     <use style="fill:#081d58;stroke:#081d58;stroke-linejoin:miter;" x="296.552142" xlink:href="#m7415dd0532" y="241.886239"/>
     <use style="fill:#081d58;stroke:#081d58;stroke-linejoin:miter;" x="304.671212" xlink:href="#m7415dd0532" y="240.896263"/>
     <use style="fill:#081d58;stroke:#081d58;stroke-linejoin:miter;" x="312.790282" xlink:href="#m7415dd0532" y="240.311599"/>
     <use style="fill:#081d58;stroke:#081d58;stroke-linejoin:miter;" x="320.909352" xlink:href="#m7415dd0532" y="239.396688"/>
     <use style="fill:#081d58;stroke:#081d58;stroke-linejoin:miter;" x="329.028422" xlink:href="#m7415dd0532" y="238.552297"/>
     <use style="fill:#081d58;stroke:#081d58;stroke-linejoin:miter;" x="337.147492" xlink:href="#m7415dd0532" y="237.590882"/>
     <use style="fill:#081d58;stroke:#081d58;stroke-linejoin:miter;" x="345.266562" xlink:href="#m7415dd0532" y="236.761865"/>
     <use style="fill:#081d58;stroke:#081d58;stroke-linejoin:miter;" x="353.385632" xlink:href="#m7415dd0532" y="236.421832"/>
     <use style="fill:#081d58;stroke:#081d58;stroke-linejoin:miter;" x="361.504702" xlink:href="#m7415dd0532" y="235.835294"/>
     <use style="fill:#081d58;stroke:#081d58;stroke-linejoin:miter;" x="369.623772" xlink:href="#m7415dd0532" y="235.726704"/>
    </g>
   </g>
   <g id="patch_3">
    <path d="M 54 252 
L 54 34.56 
" style="fill:none;stroke:#000000;stroke-linecap:square;stroke-linejoin:miter;stroke-width:0.8;"/>
   </g>
   <g id="patch_4">
    <path d="M 388.8 252 
L 388.8 34.56 
" style="fill:none;stroke:#000000;stroke-linecap:square;stroke-linejoin:miter;stroke-width:0.8;"/>
   </g>
   <g id="patch_5">
    <path d="M 54 252 
L 388.8 252 
" style="fill:none;stroke:#000000;stroke-linecap:square;stroke-linejoin:miter;stroke-width:0.8;"/>
   </g>
   <g id="patch_6">
    <path d="M 54 34.56 
L 388.8 34.56 
" style="fill:none;stroke:#000000;stroke-linecap:square;stroke-linejoin:miter;stroke-width:0.8;"/>
   </g>
   <g id="legend_1">
    <g id="patch_7">
     <path d="M 280.085938 71.91625 
L 381.8 71.91625 
Q 383.8 71.91625 383.8 69.91625 
L 383.8 41.56 
Q 383.8 39.56 381.8 39.56 
L 280.085938 39.56 
Q 278.085938 39.56 278.085938 41.56 
L 278.085938 69.91625 
Q 278.085938 71.91625 280.085938 71.91625 
z
" style="fill:#ffffff;opacity:0.8;stroke:#cccccc;stroke-linejoin:miter;"/>
    </g>
    <g id="line2d_14">
     <path d="M 282.085938 47.658437 
L 302.085938 47.658437 
" style="fill:none;stroke:#40b5c4;stroke-dasharray:5.55,2.4;stroke-dashoffset:0;stroke-width:1.5;"/>
    </g>
    <g id="line2d_15">
     <g>
      <use style="fill:#40b5c4;stroke:#40b5c4;" x="292.085938" xlink:href="#md1cad05e08" y="47.658437"/>
     </g>
    </g>
    <g id="text_14">
     <text style="font-family:DejaVu Sans;font-size:10px;font-style:normal;font-weight:normal;text-anchor:start;" transform="rotate(-0, 310.085938, 51.158437)" x="310.085938" y="51.158437">original</text>
    </g>
    <g id="line2d_16">
     <path d="M 282.085938 62.336562 
L 302.085938 62.336562 
" style="fill:none;stroke:#081d58;stroke-dasharray:5.55,2.4;stroke-dashoffset:0;stroke-width:1.5;"/>
    </g>
    <g id="line2d_17">
     <g>
      <use style="fill:#081d58;stroke:#081d58;stroke-linejoin:miter;" x="292.085938" xlink:href="#m7415dd0532" y="62.336562"/>
     </g>
    </g>
    <g id="text_15">
     <text style="font-family:DejaVu Sans;font-size:10px;font-style:normal;font-weight:normal;text-anchor:start;" transform="rotate(-0, 310.085938, 65.836562)" x="310.085938" y="65.836562">reconstructed</text>
    </g>
   </g>
  </g>
  <g id="text_16">
   <text style="font-family:DejaVu Sans;font-size:12px;font-style:normal;font-weight:normal;text-anchor:middle;" transform="rotate(-0, 216, 14.878125)" x="216" y="14.878125">Reconstruction of the weight curve</text>
  </g>
 </g>
 <defs>
  <clipPath id="p2769caf58b">
   <rect height="217.44" width="334.8" x="54" y="34.56"/>
  </clipPath>
 </defs>
</svg>
