<?xml version="1.0" encoding="utf-8" standalone="no"?>
<!DOCTYPE svg PUBLIC "-//W3C//DTD SVG 1.1//EN"
  "http://www.w3.org/Graphics/SVG/1.1/DTD/svg11.dtd">
<!-- Created with matplotlib (https://matplotlib.org/) -->
<svg height="288pt" version="1.1" viewBox="0 0 432 288" width="432pt" xmlns="http://www.w3.org/2000/svg" xmlns:xlink="http://www.w3.org/1999/xlink">
 <defs>
  <style type="text/css">
*{stroke-linecap:butt;stroke-linejoin:round;}
  </style>
 </defs>
 <g id="figure_1">
  <g id="patch_1">
   <path d="M 0 288 
L 432 288 
L 432 0 
L 0 0 
z
" style="fill:#ffffff;"/>
  </g>
  <g id="axes_1">
   <g id="patch_2">
    <path d="M 54 252 
L 388.8 252 
L 388.8 34.56 
L 54 34.56 
z
" style="fill:#ffffff;"/>
   </g>
   <g id="matplotlib.axis_1">
    <g id="xtick_1">
     <g id="line2d_1">
      <defs>
       <path d="M 0 0 
L 0 3.5 
" id="mde529d4ca3" style="stroke:#000000;stroke-width:0.8;"/>
      </defs>
      <g>
       <use style="stroke:#000000;stroke-width:0.8;" x="69.218182" xlink:href="#mde529d4ca3" y="252"/>
      </g>
     </g>
     <g id="text_1">
      <text style="font-family:DejaVu Sans;font-size:10px;font-style:normal;font-weight:normal;text-anchor:middle;" transform="rotate(-0, 69.218182, 266.598437)" x="69.218182" y="266.598437">0</text>
     </g>
    </g>
    <g id="xtick_2">
     <g id="line2d_2">
      <g>
       <use style="stroke:#000000;stroke-width:0.8;" x="119.962369" xlink:href="#mde529d4ca3" y="252"/>
      </g>
     </g>
     <g id="text_2">
      <text style="font-family:DejaVu Sans;font-size:10px;font-style:normal;font-weight:normal;text-anchor:middle;" transform="rotate(-0, 119.962369, 266.598437)" x="119.962369" y="266.598437">500</text>
     </g>
    </g>
    <g id="xtick_3">
     <g id="line2d_3">
      <g>
       <use style="stroke:#000000;stroke-width:0.8;" x="170.706557" xlink:href="#mde529d4ca3" y="252"/>
      </g>
     </g>
     <g id="text_3">
      <text style="font-family:DejaVu Sans;font-size:10px;font-style:normal;font-weight:normal;text-anchor:middle;" transform="rotate(-0, 170.706557, 266.598437)" x="170.706557" y="266.598437">1000</text>
     </g>
    </g>
    <g id="xtick_4">
     <g id="line2d_4">
      <g>
       <use style="stroke:#000000;stroke-width:0.8;" x="221.450744" xlink:href="#mde529d4ca3" y="252"/>
      </g>
     </g>
     <g id="text_4">
      <text style="font-family:DejaVu Sans;font-size:10px;font-style:normal;font-weight:normal;text-anchor:middle;" transform="rotate(-0, 221.450744, 266.598437)" x="221.450744" y="266.598437">1500</text>
     </g>
    </g>
    <g id="xtick_5">
     <g id="line2d_5">
      <g>
       <use style="stroke:#000000;stroke-width:0.8;" x="272.194932" xlink:href="#mde529d4ca3" y="252"/>
      </g>
     </g>
     <g id="text_5">
      <text style="font-family:DejaVu Sans;font-size:10px;font-style:normal;font-weight:normal;text-anchor:middle;" transform="rotate(-0, 272.194932, 266.598437)" x="272.194932" y="266.598437">2000</text>
     </g>
    </g>
    <g id="xtick_6">
     <g id="line2d_6">
      <g>
       <use style="stroke:#000000;stroke-width:0.8;" x="322.939119" xlink:href="#mde529d4ca3" y="252"/>
      </g>
     </g>
     <g id="text_6">
      <text style="font-family:DejaVu Sans;font-size:10px;font-style:normal;font-weight:normal;text-anchor:middle;" transform="rotate(-0, 322.939119, 266.598437)" x="322.939119" y="266.598437">2500</text>
     </g>
    </g>
    <g id="xtick_7">
     <g id="line2d_7">
      <g>
       <use style="stroke:#000000;stroke-width:0.8;" x="373.683307" xlink:href="#mde529d4ca3" y="252"/>
      </g>
     </g>
     <g id="text_7">
      <text style="font-family:DejaVu Sans;font-size:10px;font-style:normal;font-weight:normal;text-anchor:middle;" transform="rotate(-0, 373.683307, 266.598437)" x="373.683307" y="266.598437">3000</text>
     </g>
    </g>
    <g id="text_8">
     <text style="font-family:DejaVu Sans;font-size:10px;font-style:normal;font-weight:normal;text-anchor:middle;" transform="rotate(-0, 221.4, 280.276563)" x="221.4" y="280.276563">Time</text>
    </g>
   </g>
   <g id="matplotlib.axis_2">
    <g id="ytick_1">
     <g id="line2d_8">
      <defs>
       <path d="M 0 0 
L -3.5 0 
" id="m667e5b436f" style="stroke:#000000;stroke-width:0.8;"/>
      </defs>
      <g>
       <use style="stroke:#000000;stroke-width:0.8;" x="54" xlink:href="#m667e5b436f" y="214.641088"/>
      </g>
     </g>
     <g id="text_9">
      <text style="font-family:DejaVu Sans;font-size:10px;font-style:normal;font-weight:normal;text-anchor:end;" transform="rotate(-0, 47, 218.440307)" x="47" y="218.440307">−8</text>
     </g>
    </g>
    <g id="ytick_2">
     <g id="line2d_9">
      <g>
       <use style="stroke:#000000;stroke-width:0.8;" x="54" xlink:href="#m667e5b436f" y="173.286172"/>
      </g>
     </g>
     <g id="text_10">
      <text style="font-family:DejaVu Sans;font-size:10px;font-style:normal;font-weight:normal;text-anchor:end;" transform="rotate(-0, 47, 177.08539)" x="47" y="177.08539">−6</text>
     </g>
    </g>
    <g id="ytick_3">
     <g id="line2d_10">
      <g>
       <use style="stroke:#000000;stroke-width:0.8;" x="54" xlink:href="#m667e5b436f" y="131.931255"/>
      </g>
     </g>
     <g id="text_11">
      <text style="font-family:DejaVu Sans;font-size:10px;font-style:normal;font-weight:normal;text-anchor:end;" transform="rotate(-0, 47, 135.730474)" x="47" y="135.730474">−4</text>
     </g>
    </g>
    <g id="ytick_4">
     <g id="line2d_11">
      <g>
       <use style="stroke:#000000;stroke-width:0.8;" x="54" xlink:href="#m667e5b436f" y="90.576339"/>
      </g>
     </g>
     <g id="text_12">
      <text style="font-family:DejaVu Sans;font-size:10px;font-style:normal;font-weight:normal;text-anchor:end;" transform="rotate(-0, 47, 94.375558)" x="47" y="94.375558">−2</text>
     </g>
    </g>
    <g id="ytick_5">
     <g id="line2d_12">
      <g>
       <use style="stroke:#000000;stroke-width:0.8;" x="54" xlink:href="#m667e5b436f" y="49.221423"/>
      </g>
     </g>
     <g id="text_13">
      <text style="font-family:DejaVu Sans;font-size:10px;font-style:normal;font-weight:normal;text-anchor:end;" transform="rotate(-0, 47, 53.020642)" x="47" y="53.020642">0</text>
     </g>
    </g>
    <g id="text_14">
     <text style="font-family:DejaVu Sans;font-size:10px;font-style:normal;font-weight:normal;text-anchor:middle;" transform="rotate(-90, 26.178125, 143.28)" x="26.178125" y="143.28">temperature (°C)</text>
    </g>
   </g>
   <g id="line2d_13">
    <path clip-path="url(#pb7c7cda932)" d="M 69.218182 50.851638 
L 71.552414 49.441583 
L 72.567298 49.056317 
L 73.379205 48.978638 
L 74.089624 49.145073 
L 74.698554 49.503188 
L 75.408973 50.203309 
L 76.119391 51.234897 
L 76.931298 52.840923 
L 77.844694 55.209214 
L 78.859577 58.524517 
L 79.97595 62.953422 
L 81.295298 69.142105 
L 82.919112 77.938401 
L 85.050368 90.815598 
L 92.154555 134.750172 
L 94.28581 145.894846 
L 95.909624 153.291979 
L 97.43195 159.21237 
L 98.852787 163.843149 
L 100.070648 167.130079 
L 101.18702 169.546405 
L 102.201904 171.256906 
L 103.216787 172.526172 
L 104.130183 173.322419 
L 105.043578 173.846407 
L 105.956974 174.097017 
L 106.870369 174.086741 
L 107.783764 173.844918 
L 108.798648 173.343221 
L 110.016509 172.467096 
L 111.843299 170.805001 
L 113.771578 168.708017 
L 121.281718 160.204578 
L 123.412974 158.26009 
L 125.442742 156.759424 
L 127.371021 155.609488 
L 129.197811 154.77751 
L 130.720137 154.321799 
L 132.343951 154.051194 
L 133.967765 154.021563 
L 135.388602 154.220914 
L 136.80944 154.647118 
L 138.433254 155.373248 
L 139.955579 156.296042 
L 141.376416 157.407414 
L 142.797254 158.836516 
L 144.522556 160.956824 
L 145.841905 162.66565 
L 147.567207 163.766683 
L 148.785068 165.10499 
L 149.596975 166.373201 
L 150.814835 168.720217 
L 151.728231 170.817903 
L 152.844603 174.056634 
L 156.498184 185.948799 
L 160.253254 199.655493 
L 163.196417 210.393814 
L 165.226184 218.761257 
L 168.473812 232.301519 
L 169.590185 235.90285 
L 170.402092 237.846055 
L 171.011022 238.848767 
L 171.518464 239.347011 
L 172.025906 239.531061 
L 172.736324 239.621153 
L 173.243766 240.718526 
L 173.64972 241.574345 
L 174.969068 242.087126 
L 175.375022 241.647874 
L 175.882464 240.870423 
L 176.288417 239.942294 
L 176.694371 238.396158 
L 177.303301 235.042295 
L 178.01372 229.789973 
L 178.927115 221.31085 
L 180.246464 206.773894 
L 183.494092 170.242863 
L 185.117906 154.859413 
L 186.640232 142.589616 
L 188.061069 132.869971 
L 189.481906 124.640135 
L 190.902743 117.699788 
L 192.323581 111.862045 
L 193.744418 106.951273 
L 195.165255 102.815285 
L 196.687581 99.072851 
L 198.209906 95.928906 
L 199.935209 92.877781 
L 201.660511 90.295167 
L 203.58879 87.808537 
L 205.720046 85.424488 
L 208.054279 83.149492 
L 210.794465 80.801526 
L 213.839116 78.503288 
L 217.086744 76.323429 
L 221.044791 73.940952 
L 226.220698 71.111593 
L 241.951396 62.90686 
L 246.518373 60.753012 
L 251.288326 58.685363 
L 257.580606 56.186538 
L 264.684792 53.614245 
L 271.586001 51.281029 
L 276.152978 49.962364 
L 279.80656 49.140121 
L 283.358653 48.580908 
L 288.331583 48.022124 
L 292.89856 47.646859 
L 297.668514 47.489586 
L 301.829537 47.548877 
L 306.498002 47.880535 
L 316.849817 48.814544 
L 321.416793 48.767056 
L 331.667119 48.632602 
L 334.610282 48.851481 
L 337.654933 49.292638 
L 341.105538 50.01365 
L 344.048701 50.878928 
L 347.093352 52.03766 
L 351.660329 54.072139 
L 355.821353 55.840422 
L 358.866004 56.888895 
L 361.707678 57.656715 
L 364.955306 58.276226 
L 368.710376 58.774524 
L 373.581818 59.180059 
L 373.581818 59.180059 
" style="fill:none;stroke:#40b5c4;stroke-dasharray:5.55,2.4;stroke-dashoffset:0;stroke-width:1.5;"/>
    <defs>
     <path d="M 0 3 
C 0.795609 3 1.55874 2.683901 2.12132 2.12132 
C 2.683901 1.55874 3 0.795609 3 0 
C 3 -0.795609 2.683901 -1.55874 2.12132 -2.12132 
C 1.55874 -2.683901 0.795609 -3 0 -3 
C -0.795609 -3 -1.55874 -2.683901 -2.12132 -2.12132 
C -2.683901 -1.55874 -3 -0.795609 -3 0 
C -3 0.795609 -2.683901 1.55874 -2.12132 2.12132 
C -1.55874 2.683901 -0.795609 3 0 3 
z
" id="mda09eb76c7" style="stroke:#40b5c4;"/>
    </defs>
    <g clip-path="url(#pb7c7cda932)">
     <use style="fill:#40b5c4;stroke:#40b5c4;" x="69.218182" xlink:href="#mda09eb76c7" y="50.851638"/>
     <use style="fill:#40b5c4;stroke:#40b5c4;" x="77.337252" xlink:href="#mda09eb76c7" y="53.820722"/>
     <use style="fill:#40b5c4;stroke:#40b5c4;" x="85.456322" xlink:href="#mda09eb76c7" y="93.372758"/>
     <use style="fill:#40b5c4;stroke:#40b5c4;" x="93.575392" xlink:href="#mda09eb76c7" y="142.333671"/>
     <use style="fill:#40b5c4;stroke:#40b5c4;" x="101.694462" xlink:href="#mda09eb76c7" y="170.457909"/>
     <use style="fill:#40b5c4;stroke:#40b5c4;" x="109.813532" xlink:href="#mda09eb76c7" y="172.631709"/>
     <use style="fill:#40b5c4;stroke:#40b5c4;" x="117.932602" xlink:href="#mda09eb76c7" y="163.790649"/>
     <use style="fill:#40b5c4;stroke:#40b5c4;" x="126.051672" xlink:href="#mda09eb76c7" y="156.3668"/>
     <use style="fill:#40b5c4;stroke:#40b5c4;" x="134.170742" xlink:href="#mda09eb76c7" y="154.036182"/>
     <use style="fill:#40b5c4;stroke:#40b5c4;" x="142.289812" xlink:href="#mda09eb76c7" y="158.289783"/>
     <use style="fill:#40b5c4;stroke:#40b5c4;" x="150.408882" xlink:href="#mda09eb76c7" y="167.910115"/>
     <use style="fill:#40b5c4;stroke:#40b5c4;" x="158.527952" xlink:href="#mda09eb76c7" y="193.532505"/>
     <use style="fill:#40b5c4;stroke:#40b5c4;" x="166.647022" xlink:href="#mda09eb76c7" y="224.919749"/>
     <use style="fill:#40b5c4;stroke:#40b5c4;" x="174.766092" xlink:href="#mda09eb76c7" y="242.090413"/>
     <use style="fill:#40b5c4;stroke:#40b5c4;" x="182.885162" xlink:href="#mda09eb76c7" y="176.621404"/>
     <use style="fill:#40b5c4;stroke:#40b5c4;" x="191.004232" xlink:href="#mda09eb76c7" y="117.248606"/>
     <use style="fill:#40b5c4;stroke:#40b5c4;" x="199.123302" xlink:href="#mda09eb76c7" y="94.254321"/>
     <use style="fill:#40b5c4;stroke:#40b5c4;" x="207.242372" xlink:href="#mda09eb76c7" y="83.908024"/>
     <use style="fill:#40b5c4;stroke:#40b5c4;" x="215.361442" xlink:href="#mda09eb76c7" y="77.45124"/>
     <use style="fill:#40b5c4;stroke:#40b5c4;" x="223.480512" xlink:href="#mda09eb76c7" y="72.584386"/>
     <use style="fill:#40b5c4;stroke:#40b5c4;" x="231.599582" xlink:href="#mda09eb76c7" y="68.283742"/>
     <use style="fill:#40b5c4;stroke:#40b5c4;" x="239.718652" xlink:href="#mda09eb76c7" y="64.033197"/>
     <use style="fill:#40b5c4;stroke:#40b5c4;" x="247.837722" xlink:href="#mda09eb76c7" y="60.162188"/>
     <use style="fill:#40b5c4;stroke:#40b5c4;" x="255.956792" xlink:href="#mda09eb76c7" y="56.807496"/>
     <use style="fill:#40b5c4;stroke:#40b5c4;" x="264.075862" xlink:href="#mda09eb76c7" y="53.829707"/>
     <use style="fill:#40b5c4;stroke:#40b5c4;" x="272.194932" xlink:href="#mda09eb76c7" y="51.091326"/>
     <use style="fill:#40b5c4;stroke:#40b5c4;" x="280.314002" xlink:href="#mda09eb76c7" y="49.047427"/>
     <use style="fill:#40b5c4;stroke:#40b5c4;" x="288.433072" xlink:href="#mda09eb76c7" y="48.011356"/>
     <use style="fill:#40b5c4;stroke:#40b5c4;" x="296.552142" xlink:href="#mda09eb76c7" y="47.508422"/>
     <use style="fill:#40b5c4;stroke:#40b5c4;" x="304.671212" xlink:href="#mda09eb76c7" y="47.715871"/>
     <use style="fill:#40b5c4;stroke:#40b5c4;" x="312.790282" xlink:href="#mda09eb76c7" y="48.602459"/>
     <use style="fill:#40b5c4;stroke:#40b5c4;" x="320.909352" xlink:href="#mda09eb76c7" y="48.778806"/>
     <use style="fill:#40b5c4;stroke:#40b5c4;" x="329.028422" xlink:href="#mda09eb76c7" y="48.584983"/>
     <use style="fill:#40b5c4;stroke:#40b5c4;" x="337.147492" xlink:href="#mda09eb76c7" y="49.206908"/>
     <use style="fill:#40b5c4;stroke:#40b5c4;" x="345.266562" xlink:href="#mda09eb76c7" y="51.309801"/>
     <use style="fill:#40b5c4;stroke:#40b5c4;" x="353.385632" xlink:href="#mda09eb76c7" y="54.843313"/>
     <use style="fill:#40b5c4;stroke:#40b5c4;" x="361.504702" xlink:href="#mda09eb76c7" y="57.609974"/>
     <use style="fill:#40b5c4;stroke:#40b5c4;" x="369.623772" xlink:href="#mda09eb76c7" y="58.851506"/>
    </g>
   </g>
   <g id="line2d_14">
    <path clip-path="url(#pb7c7cda932)" d="M 69.218182 44.893388 
L 69.624135 44.877591 
L 69.725624 44.965426 
L 69.9286 44.946897 
L 70.334554 44.933163 
L 70.740507 45.023729 
L 70.841996 44.961731 
L 71.044973 45.030164 
L 71.552414 45.035993 
L 71.85688 45.052464 
L 72.262833 45.064821 
L 72.871763 45.06561 
L 75.814926 44.529713 
L 76.017903 44.45744 
L 76.22088 44.520952 
L 76.525345 44.611697 
L 77.134275 44.831269 
L 78.149159 45.546131 
L 78.758089 46.304288 
L 78.961066 46.505838 
L 79.265531 47.513975 
L 79.97595 49.584626 
L 80.178926 50.432177 
L 80.990833 53.437395 
L 81.19381 54.184741 
L 82.716136 60.74229 
L 82.817624 60.980122 
L 83.122089 62.492379 
L 83.325066 63.042645 
L 83.629531 64.40417 
L 83.832508 65.123836 
L 84.441438 67.861458 
L 84.542926 68.086276 
L 84.94888 70.007378 
L 92.864973 105.898058 
L 92.966462 105.971055 
L 93.575392 108.475607 
L 96.417066 118.643362 
L 96.620043 118.90055 
L 96.924508 119.451421 
L 97.533438 120.425325 
L 97.634927 120.524939 
L 97.837904 120.816655 
L 98.548322 121.620045 
L 98.649811 121.6204 
L 98.852787 121.9045 
L 100.882555 123.934056 
L 101.389997 124.37398 
L 102.607857 125.530074 
L 102.912322 125.692016 
L 103.825718 126.407589 
L 105.043578 127.199108 
L 105.246555 127.364797 
L 105.55102 127.534888 
L 105.753997 127.667748 
L 105.855485 127.724555 
L 106.565904 127.179916 
L 106.667392 127.321897 
L 106.870369 127.210624 
L 106.971857 127.218497 
L 107.276322 127.01472 
L 107.479299 126.92579 
L 107.885253 126.720524 
L 108.088229 126.660685 
L 108.291206 126.467177 
L 108.392695 126.608537 
L 108.69716 126.234156 
L 108.900136 126.253718 
L 109.204602 126.13364 
L 109.30609 126.056414 
L 109.407578 126.150343 
L 109.610555 125.958718 
L 109.813532 125.745673 
L 109.91502 125.822249 
L 110.016509 125.706382 
L 110.117997 125.774641 
L 110.422462 125.525109 
L 110.52395 125.640227 
L 110.828416 125.299828 
L 111.132881 125.298601 
L 111.741811 125.062996 
L 111.944788 124.801268 
L 112.249253 124.878002 
L 112.553718 124.628634 
L 112.655206 124.739951 
L 112.959671 124.517864 
L 113.162648 124.528936 
L 113.365625 124.555829 
L 113.67009 124.339165 
L 113.771578 124.457946 
L 113.974555 124.390037 
L 114.481997 124.275269 
L 114.583485 124.305287 
L 114.684974 124.209711 
L 114.989439 124.289802 
L 115.192416 124.306593 
L 115.395392 124.185737 
L 115.902834 123.728214 
L 116.105811 123.607486 
L 116.613253 123.215081 
L 117.222183 122.810811 
L 122.39809 120.723436 
L 127.776974 122.429735 
L 128.994835 123.284016 
L 129.2993 123.285958 
L 129.603765 123.186542 
L 130.009718 123.319235 
L 130.923114 123.624119 
L 132.140974 124.122432 
L 132.242463 124.041779 
L 132.546928 124.3729 
L 132.648416 124.257028 
L 132.749905 124.394119 
L 132.851393 124.296803 
L 133.155858 124.558683 
L 133.257346 124.41795 
L 133.460323 124.620583 
L 133.561812 124.753804 
L 133.6633 124.685618 
L 133.764788 124.835304 
L 133.866277 124.73856 
L 134.982649 125.299562 
L 135.084137 125.283318 
L 135.185626 125.510828 
L 135.287114 125.393393 
L 135.388602 125.558884 
L 135.490091 125.478197 
L 135.794556 125.713959 
L 135.896044 125.679874 
L 136.200509 125.922937 
L 138.737719 127.310888 
L 138.839207 127.109394 
L 139.042184 127.330563 
L 139.245161 127.507828 
L 139.854091 127.804927 
L 140.260044 128.057757 
L 140.463021 128.138814 
L 140.767486 128.27972 
L 140.868975 128.349044 
L 141.376416 127.920346 
L 141.680882 127.779578 
L 141.78237 127.503282 
L 141.883858 127.632238 
L 142.3913 127.14061 
L 142.594277 127.055934 
L 142.695765 126.936803 
L 144.624044 130.4599 
L 147.059765 136.905692 
L 147.770184 138.806559 
L 148.176138 139.927991 
L 148.886556 141.672777 
L 149.698463 143.637368 
L 150.205905 145.490632 
L 150.713347 146.940592 
L 151.423765 148.820763 
L 151.728231 149.675971 
L 152.032696 150.445103 
L 152.844603 152.593815 
L 153.960975 156.928658 
L 154.163952 157.588395 
L 155.4833 162.4941 
L 157.41158 169.309712 
L 157.614556 170.055595 
L 158.832417 174.283094 
L 159.542835 176.814277 
L 160.253254 179.477601 
L 160.862184 182.979726 
L 161.166649 185.043082 
L 161.268138 185.340897 
L 161.572603 187.560964 
L 161.77558 188.608891 
L 162.283022 191.325034 
L 162.99344 195.222388 
L 163.297905 197.232492 
L 164.211301 204.075919 
L 166.849998 220.841864 
L 168.169347 225.837716 
L 168.676789 226.967411 
L 168.778278 226.934045 
L 169.082743 227.607093 
L 169.184231 227.473967 
L 169.285719 227.53281 
L 169.590185 227.188605 
L 169.691673 227.331591 
L 169.89465 226.866289 
L 169.996138 226.787884 
L 170.097626 227.028166 
L 170.402092 226.034557 
L 171.416975 222.225842 
L 172.330371 217.046638 
L 174.360138 201.415366 
L 175.172045 192.623094 
L 175.47651 188.880479 
L 176.694371 175.456368 
L 179.23158 150.397598 
L 181.870278 128.730401 
L 182.174743 126.947141 
L 182.682185 123.758434 
L 182.98665 121.810339 
L 183.392604 119.685546 
L 184.204511 114.986163 
L 184.305999 114.936307 
L 184.610464 112.831722 
L 185.016418 110.969702 
L 185.523859 108.366282 
L 186.13279 105.484391 
L 187.249162 100.351271 
L 187.35065 100.169614 
L 188.771487 94.148809 
L 188.872976 94.000665 
L 189.075953 93.296016 
L 189.786371 91.1912 
L 189.88786 91.098587 
L 190.598278 88.946249 
L 190.902743 88.48418 
L 191.207208 87.476737 
L 191.308697 87.396557 
L 191.613162 86.431788 
L 191.917627 85.936708 
L 192.120604 85.457208 
L 192.425069 84.499113 
L 192.831022 83.694792 
L 195.063767 78.860354 
L 195.165255 78.796443 
L 195.368232 78.257961 
L 195.875674 77.260348 
L 195.977162 77.285747 
L 196.281627 76.495998 
L 196.383116 76.51484 
L 196.687581 76.03041 
L 196.890557 75.764491 
L 196.992046 75.803368 
L 197.195023 75.450812 
L 197.499488 74.908643 
L 198.00693 74.432267 
L 200.341162 71.248061 
L 201.051581 70.593441 
L 201.660511 69.970115 
L 202.066465 69.651664 
L 202.776883 68.893487 
L 203.081348 68.676709 
L 203.58879 68.141294 
L 206.531953 65.623234 
L 206.73493 65.441883 
L 206.937907 65.316013 
L 207.140883 65.175639 
L 207.851302 64.623324 
L 208.967674 63.775215 
L 209.678093 63.279959 
L 209.881069 63.028771 
L 210.287023 62.795252 
L 210.997442 62.26727 
L 211.200418 62.136796 
L 212.418279 61.176276 
L 212.925721 60.866274 
L 213.230186 60.603847 
L 213.331674 60.595397 
L 213.534651 60.357234 
L 213.839116 60.165086 
L 214.24507 59.841124 
L 214.346558 59.799081 
L 214.651023 59.511412 
L 214.854 59.400332 
L 215.665907 59.036752 
L 215.767395 59.113777 
L 215.970372 58.999719 
L 216.985256 58.792565 
L 217.188232 58.708796 
L 217.289721 58.763972 
L 217.492698 58.609242 
L 217.695674 58.665206 
L 218.000139 58.527465 
L 218.101628 58.588931 
L 218.304605 58.481913 
L 218.406093 58.558523 
L 218.710558 58.40474 
L 219.319488 58.345739 
L 219.522465 58.286147 
L 220.131395 58.328899 
L 220.232884 58.133162 
L 220.43586 58.201126 
L 220.841814 58.081892 
L 220.943302 58.101513 
L 221.044791 58.004699 
L 221.146279 58.144412 
L 221.450744 57.953675 
L 221.552233 58.044661 
L 221.856698 57.84433 
L 222.161163 57.965487 
L 222.36414 57.869453 
L 222.567116 57.704893 
L 222.770093 57.835496 
L 222.97307 57.728754 
L 223.074558 57.78176 
L 223.277535 57.636387 
L 223.379023 57.562754 
L 223.480512 57.748454 
L 223.683488 57.612882 
L 226.322186 57.033698 
L 226.525163 56.959908 
L 227.032605 56.922441 
L 227.235582 56.765512 
L 227.438558 56.877322 
L 227.540047 56.641141 
L 227.844512 56.797675 
L 227.946 56.549406 
L 228.148977 56.63773 
L 228.453442 56.538205 
L 230.686186 55.966279 
L 230.787675 56.086765 
L 230.990651 55.787698 
L 231.193628 55.857012 
L 231.70107 55.668 
L 231.802558 55.761905 
L 232.107024 55.62444 
L 233.121907 55.456745 
L 233.324884 55.400367 
L 233.730838 55.389107 
L 233.832326 55.394372 
L 234.035303 55.230009 
L 235.050186 55.049694 
L 235.151675 55.012069 
L 235.253163 55.140699 
L 235.354652 55.085465 
L 235.45614 54.837669 
L 235.659117 54.985704 
L 235.760605 55.027273 
L 236.06507 54.858315 
L 236.369535 54.820414 
L 237.790373 54.67376 
L 237.993349 54.464634 
L 238.297814 54.526198 
L 238.399303 54.417918 
L 238.60228 54.425155 
L 238.906745 54.393466 
L 240.124605 54.240147 
L 240.327582 54.152907 
L 240.42907 54.199051 
L 240.530559 54.107434 
L 240.733535 54.220959 
L 241.038001 54.063302 
L 241.849908 53.995604 
L 242.458838 53.883577 
L 242.661815 53.874073 
L 242.864791 53.874664 
L 243.169256 53.76455 
L 243.473722 53.723928 
L 243.676698 53.767449 
L 243.879675 53.625113 
L 244.590094 53.553018 
L 244.996047 53.473844 
L 245.199024 53.452074 
L 245.300512 53.29274 
L 245.604977 53.428904 
L 246.010931 53.205658 
L 246.213908 53.247484 
L 246.315396 53.147288 
L 246.518373 53.21893 
L 247.025815 53.049046 
L 247.127303 53.111497 
L 247.33028 52.98683 
L 247.533257 53.006787 
L 247.736233 52.856721 
L 247.93921 52.873502 
L 250.882373 51.883205 
L 251.08535 51.861672 
L 251.186838 51.744656 
L 251.491303 51.882969 
L 251.69428 51.806417 
L 251.897257 51.621941 
L 252.100233 51.69938 
L 252.30321 51.613955 
L 252.506187 51.672897 
L 252.709164 51.561284 
L 253.521071 51.431352 
L 253.622559 51.431845 
L 253.724047 51.296371 
L 253.927024 51.348608 
L 254.130001 51.222502 
L 254.535954 51.284263 
L 254.84042 51.110988 
L 255.043396 51.151393 
L 255.246373 50.961711 
L 255.44935 51.09604 
L 255.855303 50.805788 
L 256.05828 50.884883 
L 256.261257 50.803224 
L 256.464234 50.850591 
L 256.66721 50.726772 
L 256.971675 50.700131 
L 257.276141 50.485897 
L 257.377629 50.704153 
L 257.682094 50.497749 
L 257.986559 50.399802 
L 259.914838 50.107006 
L 260.016327 49.869385 
L 260.320792 50.078195 
L 260.625257 49.870608 
L 260.828234 49.878811 
L 261.640141 49.759074 
L 261.741629 49.700231 
L 261.843117 49.825548 
L 262.046094 49.606543 
L 262.350559 49.659056 
L 262.553536 49.615239 
L 263.060978 49.557698 
L 264.075862 49.277443 
L 264.17735 49.454702 
L 264.278838 49.282669 
L 264.380327 49.38456 
L 264.583304 49.28752 
L 264.684792 49.232502 
L 264.78628 49.323824 
L 264.989257 49.155123 
L 265.192234 49.255811 
L 265.395211 49.130513 
L 265.598187 49.146781 
L 265.801164 49.015508 
L 266.105629 49.075219 
L 266.308606 48.956073 
L 267.019025 48.864594 
L 267.120513 48.978357 
L 267.424978 48.781792 
L 267.729443 48.7995 
L 267.830932 48.744305 
L 267.93242 48.826516 
L 268.033908 48.651091 
L 268.236885 48.734761 
L 268.338373 48.632298 
L 268.54135 48.67929 
L 268.642839 48.536934 
L 268.744327 48.719754 
L 269.048792 48.546597 
L 269.251769 48.627979 
L 269.454746 48.432697 
L 269.657722 48.541706 
L 270.368141 48.341139 
L 270.571118 48.370935 
L 270.672606 48.275039 
L 270.875583 48.331949 
L 271.07856 48.2721 
L 271.180048 48.308759 
L 271.281536 48.108468 
L 271.586001 48.280028 
L 271.68749 48.142957 
L 271.788978 48.249127 
L 271.991955 48.036787 
L 272.29642 48.192335 
L 272.397908 48.043985 
L 272.499397 48.108448 
L 272.600885 47.923143 
L 272.803862 48.000602 
L 273.108327 48.00279 
L 273.209815 48.036412 
L 273.311304 47.816342 
L 273.615769 47.895378 
L 273.717257 47.835391 
L 273.818746 47.910404 
L 273.920234 47.700214 
L 274.224699 47.874594 
L 274.326188 47.737957 
L 274.427676 47.817762 
L 274.732141 47.691359 
L 274.935118 47.689861 
L 275.036606 47.631944 
L 275.138095 47.719184 
L 275.341071 47.613388 
L 275.645536 47.501953 
L 275.747025 47.674795 
L 275.950002 47.442992 
L 276.152978 47.647799 
L 276.254467 47.447231 
L 276.355955 47.523171 
L 276.558932 47.389039 
L 277.066374 47.424396 
L 277.26935 47.255459 
L 277.472327 47.345518 
L 277.979769 47.202886 
L 278.081257 47.284722 
L 278.284234 47.189911 
L 278.690188 47.173307 
L 278.893164 47.084135 
L 278.994653 47.153272 
L 279.19763 47.001727 
L 279.299118 46.972956 
L 279.400606 47.149841 
L 279.80656 46.878223 
L 280.009537 47.00009 
L 280.212513 46.909183 
L 280.314002 47.007288 
L 280.516978 46.858208 
L 280.719955 46.892303 
L 280.821444 46.793291 
L 280.922932 46.920147 
L 281.125909 46.704987 
L 281.328885 46.898081 
L 281.531862 46.784516 
L 282.039304 46.674008 
L 282.242281 46.721236 
L 282.445258 46.614928 
L 282.648234 46.641391 
L 282.749723 46.542261 
L 282.851211 46.677182 
L 282.952699 46.525815 
L 283.257165 46.71812 
L 283.460141 46.520826 
L 283.764606 46.498148 
L 283.866095 46.523665 
L 284.069072 46.382138 
L 284.272048 46.515442 
L 284.678002 46.293696 
L 284.77949 46.472552 
L 284.982467 46.35672 
L 285.185444 46.477679 
L 285.38842 46.297167 
L 285.692886 46.320081 
L 285.794374 46.349522 
L 285.997351 46.228602 
L 286.098839 46.353604 
L 286.403304 46.265221 
L 287.012234 46.235799 
L 287.722653 46.137103 
L 287.92563 46.067651 
L 288.027118 46.23718 
L 288.128607 46.115687 
L 288.230095 46.174294 
L 288.433072 46.01985 
L 288.636048 46.091748 
L 288.839025 46.046137 
L 288.940514 46.211189 
L 289.244979 45.948722 
L 289.346467 46.088415 
L 289.447955 45.990232 
L 289.549444 46.076209 
L 289.752421 45.909658 
L 289.955397 46.079522 
L 290.158374 46.011095 
L 290.259862 46.011687 
L 290.361351 45.886941 
L 290.665816 45.939375 
L 290.868793 46.05361 
L 291.071769 45.930343 
L 291.477723 45.942116 
L 291.6807 45.854561 
L 291.782188 46.034068 
L 291.883676 45.869587 
L 292.086653 45.936634 
L 292.28963 45.842572 
L 292.492607 45.868207 
L 292.594095 45.836261 
L 292.797072 45.92214 
L 292.89856 45.810764 
L 293.101537 45.873196 
L 293.203025 45.845096 
L 293.304514 45.960455 
L 293.50749 45.748706 
L 293.811956 45.845194 
L 293.913444 45.914035 
L 294.116421 45.767696 
L 294.623862 45.893428 
L 294.826839 45.807195 
L 294.928328 45.876312 
L 295.029816 45.799504 
L 295.232793 45.841803 
L 295.334281 45.670578 
L 295.638746 45.904471 
L 296.0447 45.795343 
L 296.146188 45.868582 
L 296.349165 45.842019 
L 297.567025 45.860221 
L 297.972979 45.864007 
L 298.074467 45.765054 
L 298.480421 45.991001 
L 298.683397 45.808969 
L 298.987863 45.929101 
L 299.089351 45.884121 
L 299.190839 45.974042 
L 299.292328 45.825179 
L 299.495304 46.001314 
L 299.698281 45.962013 
L 301.01763 46.023656 
L 301.119118 45.916047 
L 301.322095 46.097841 
L 301.829537 46.035961 
L 302.134002 46.213851 
L 302.539956 46.167116 
L 302.641444 46.145346 
L 302.742932 46.255795 
L 302.945909 46.09232 
L 303.148886 46.242622 
L 303.250374 46.17106 
L 303.351863 46.284112 
L 303.554839 46.192594 
L 303.757816 46.196143 
L 303.859305 46.189971 
L 304.062281 46.336231 
L 304.16377 46.239467 
L 304.468235 46.348497 
L 304.7727 46.253902 
L 304.975677 46.441356 
L 305.280142 46.276639 
L 305.483119 46.415721 
L 305.889072 46.417219 
L 306.092049 46.478113 
L 306.599491 46.459597 
L 306.700979 46.584047 
L 306.802467 46.520017 
L 306.903956 46.595307 
L 307.106933 46.478015 
L 307.309909 46.689645 
L 307.411398 46.571525 
L 307.614374 46.610964 
L 307.715863 46.535773 
L 307.817351 46.672765 
L 308.020328 46.615105 
L 308.223305 46.709365 
L 308.426281 46.665903 
L 308.730747 46.745274 
L 308.832235 46.589509 
L 309.1367 46.833775 
L 309.441165 46.695226 
L 309.644142 46.83206 
L 309.74563 46.755982 
L 309.948607 46.83835 
L 310.151584 46.868561 
L 310.253072 46.905476 
L 310.354561 46.819972 
L 310.557537 46.892323 
L 310.659026 46.762824 
L 310.862002 46.901729 
L 311.064979 47.007741 
L 311.267956 46.835945 
L 311.470933 46.961755 
L 312.688793 47.031642 
L 312.89177 47.110678 
L 313.094747 47.028624 
L 313.399212 47.190502 
L 313.5007 47.006815 
L 313.805165 47.166405 
L 314.10963 47.049212 
L 314.312607 47.221561 
L 314.515584 47.167864 
L 314.820049 47.195965 
L 315.226003 47.249385 
L 315.327491 47.116791 
L 315.631956 47.398839 
L 315.834933 47.177073 
L 316.139398 47.328993 
L 316.443863 47.195728 
L 316.545351 47.42199 
L 316.748328 47.373165 
L 316.849817 47.400575 
L 316.951305 47.286655 
L 317.154282 47.343171 
L 318.067677 47.429563 
L 318.169165 47.357507 
L 318.575119 47.596232 
L 318.778096 47.434216 
L 318.981072 47.531276 
L 319.590003 47.520706 
L 319.691491 47.649475 
L 319.995956 47.532578 
L 320.300421 47.739791 
L 320.503398 47.601438 
L 320.909352 47.681736 
L 321.01084 47.584716 
L 321.213817 47.800724 
L 321.416793 47.636184 
L 321.61977 47.809243 
L 321.924235 47.704374 
L 322.127212 47.754541 
L 322.431677 47.911351 
L 322.533166 47.710369 
L 322.736142 47.877197 
L 322.837631 47.826951 
L 322.939119 47.952604 
L 323.040607 47.745273 
L 323.345073 48.017087 
L 323.649538 47.903976 
L 324.867398 48.029787 
L 324.968887 48.127872 
L 325.070375 48.010185 
L 325.171863 48.13785 
L 325.273352 48.007661 
L 325.37484 48.134931 
L 325.476328 48.047692 
L 325.780794 48.177486 
L 325.98377 48.116631 
L 326.288235 48.237749 
L 326.389724 48.065242 
L 326.592701 48.356382 
L 326.795677 48.162263 
L 326.897166 48.293003 
L 327.100142 48.245952 
L 327.201631 48.333704 
L 327.404608 48.252184 
L 327.607584 48.428319 
L 327.810561 48.27001 
L 327.912049 48.539379 
L 328.013538 48.275374 
L 328.216515 48.44161 
L 328.318003 48.332403 
L 328.52098 48.387933 
L 328.622468 48.373775 
L 328.825445 48.672999 
L 329.028422 48.478761 
L 329.231398 48.539577 
L 329.332887 48.467048 
L 329.535863 48.612894 
L 329.637352 48.488227 
L 329.73884 48.767456 
L 329.941817 48.493906 
L 330.144794 48.662469 
L 330.34777 48.643538 
L 330.449259 48.841523 
L 330.550747 48.610646 
L 330.753724 48.775462 
L 331.058189 48.786939 
L 331.159677 48.864082 
L 331.261166 48.680887 
L 331.464143 48.89934 
L 331.565631 48.802202 
L 331.768608 48.972224 
L 331.870096 48.790173 
L 332.073073 49.071255 
L 332.174561 48.819713 
L 332.377538 48.994783 
L 332.88498 48.955738 
L 332.986468 49.189494 
L 333.189445 48.967767 
L 333.392422 49.313214 
L 333.49391 49.063131 
L 333.696887 49.262969 
L 333.899864 49.17995 
L 334.204329 49.291838 
L 334.305817 49.457483 
L 334.508794 49.169853 
L 334.610282 49.426365 
L 334.914747 49.360739 
L 335.016236 49.460677 
L 335.117724 49.331317 
L 335.320701 49.568464 
L 335.422189 49.353679 
L 335.625166 49.556869 
L 335.828143 49.478504 
L 335.929631 49.6391 
L 336.132608 49.559433 
L 336.234096 49.679012 
L 336.437073 49.508596 
L 336.64005 49.738289 
L 336.741538 49.593705 
L 336.944515 49.839056 
L 337.147492 49.65665 
L 337.350468 49.793228 
L 337.553445 49.892575 
L 337.756422 49.779937 
L 337.959399 49.993421 
L 338.060887 49.794017 
L 338.263864 50.053802 
L 338.46684 50.005923 
L 338.568329 50.172356 
L 338.669817 49.975121 
L 339.177259 50.252575 
L 339.278747 50.131537 
L 339.481724 50.308658 
L 339.684701 50.167229 
L 339.887678 50.29584 
L 339.989166 50.258688 
L 340.192143 50.447444 
L 340.293631 50.33804 
L 340.496608 50.549749 
L 340.699585 50.361625 
L 340.801073 50.567024 
L 340.902561 50.498676 
L 341.105538 50.678439 
L 341.308515 50.484635 
L 341.511492 50.707663 
L 341.61298 50.591003 
L 342.120422 50.920595 
L 342.22191 50.730025 
L 342.830841 51.153247 
L 342.932329 50.92517 
L 343.135306 51.144846 
L 343.236794 50.996161 
L 343.845724 51.232204 
L 343.947213 51.186652 
L 344.150189 51.324294 
L 344.251678 51.224316 
L 344.454655 51.449316 
L 344.556143 51.32883 
L 344.75912 51.575442 
L 344.962096 51.397375 
L 345.165073 51.588181 
L 345.266562 51.421866 
L 345.469538 51.703777 
L 345.571027 51.63184 
L 345.774003 51.840789 
L 345.97698 51.655149 
L 346.078469 51.878887 
L 346.179957 51.710443 
L 346.484422 52.001148 
L 346.58591 51.785416 
L 346.788887 52.00667 
L 346.991864 51.94337 
L 347.093352 52.059242 
L 347.194841 51.960644 
L 347.397817 52.267204 
L 347.600794 52.037787 
L 347.702283 52.282822 
L 347.905259 52.092253 
L 348.108236 52.360991 
L 348.209724 52.24358 
L 348.412701 52.529593 
L 348.615678 52.310824 
L 348.818655 52.480215 
L 348.920143 52.363199 
L 349.12312 52.649172 
L 349.224608 52.48266 
L 349.427585 52.726749 
L 349.630562 52.527976 
L 349.73205 52.765518 
L 349.935027 52.653984 
L 350.036515 52.892236 
L 350.239492 52.701114 
L 350.442469 52.946504 
L 350.645445 52.790364 
L 350.848422 52.902805 
L 351.152887 53.050584 
L 351.254376 52.854926 
L 351.457352 53.150207 
L 351.558841 52.913651 
L 351.863306 53.173239 
L 352.269259 53.127608 
L 352.472236 53.317429 
L 352.675213 53.270851 
L 352.776701 53.439572 
L 352.979678 53.360615 
L 353.081166 53.519042 
L 353.284143 53.397648 
L 353.48712 53.518529 
L 353.588608 53.387078 
L 353.791585 53.591136 
L 353.994562 53.552683 
L 354.09605 53.729449 
L 354.299027 53.544204 
L 354.502004 53.761158 
L 354.603492 53.608963 
L 354.806469 53.749484 
L 354.907957 53.708389 
L 355.110934 53.877267 
L 355.313911 53.683976 
L 355.415399 54.024178 
L 355.719864 53.896868 
L 356.328794 54.176019 
L 356.531771 53.989471 
L 356.734748 54.094537 
L 356.836236 54.029108 
L 357.039213 54.173337 
L 357.140701 54.072609 
L 357.343678 54.3264 
L 357.546655 54.142022 
L 357.749632 54.331054 
L 357.85112 54.133621 
L 358.054097 54.368048 
L 358.155585 54.28771 
L 358.358562 54.539568 
L 358.561539 54.277535 
L 358.663027 54.555659 
L 358.866004 54.318512 
L 359.068981 54.506676 
L 359.271957 54.5669 
L 359.373446 54.804323 
L 359.576422 54.455208 
L 359.677911 54.755024 
L 359.880888 54.676856 
L 360.185353 54.694604 
L 360.388329 54.814814 
L 360.489818 54.8003 
L 360.591306 54.659739 
L 360.794283 54.916646 
L 360.895771 54.816194 
L 360.99726 54.94942 
L 361.098748 54.86293 
L 361.403213 54.941059 
L 362.519585 55.167755 
L 362.621074 55.010708 
L 362.925539 55.302479 
L 363.128516 55.145077 
L 363.432981 55.373864 
L 363.534469 55.200095 
L 363.940423 55.431997 
L 364.041911 55.247067 
L 364.447864 55.515844 
L 364.549353 55.319674 
L 364.955306 55.446037 
L 365.056795 55.31151 
L 365.259771 55.666265 
L 365.36126 55.474276 
L 365.462748 55.566563 
L 365.564237 55.386642 
L 365.767213 55.54286 
L 365.868702 55.509968 
L 365.97019 55.666029 
L 366.071678 55.417917 
L 366.173167 55.591213 
L 366.274655 55.524048 
L 366.376144 55.652935 
L 366.477632 55.532961 
L 366.782097 55.654276 
L 367.188051 55.568022 
L 367.695492 55.629468 
L 367.898469 55.587111 
L 367.999958 55.459999 
L 368.304423 55.610617 
L 368.405911 55.611366 
L 368.608888 55.525467 
L 368.710376 55.51896 
L 368.811865 55.642128 
L 369.014841 55.342588 
L 369.11633 55.614955 
L 369.319306 55.535722 
L 370.029725 55.372799 
L 370.232702 55.526532 
L 370.435679 55.448916 
L 371.146097 55.364714 
L 371.247586 55.515687 
L 371.349074 55.292106 
L 371.552051 55.377452 
L 371.653539 55.269744 
L 371.755027 55.505077 
L 371.958004 55.261778 
L 372.059493 55.412435 
L 372.465446 55.2813 
L 372.566934 55.401116 
L 372.668423 55.227702 
L 372.769911 55.339551 
L 372.8714 55.166848 
L 373.074376 55.346019 
L 373.378841 55.169805 
L 373.48033 55.163298 
L 373.581818 55.293644 
L 373.581818 55.293644 
" style="fill:none;stroke:#081d58;stroke-dasharray:5.55,2.4;stroke-dashoffset:0;stroke-width:1.5;"/>
    <defs>
     <path d="M -0 4.242641 
L 4.242641 0 
L 0 -4.242641 
L -4.242641 -0 
z
" id="m7b2365469e" style="stroke:#081d58;stroke-linejoin:miter;"/>
    </defs>
    <g clip-path="url(#pb7c7cda932)">
     <use style="fill:#081d58;stroke:#081d58;stroke-linejoin:miter;" x="69.218182" xlink:href="#m7b2365469e" y="44.893388"/>
     <use style="fill:#081d58;stroke:#081d58;stroke-linejoin:miter;" x="77.337252" xlink:href="#m7b2365469e" y="44.970465"/>
     <use style="fill:#081d58;stroke:#081d58;stroke-linejoin:miter;" x="85.456322" xlink:href="#m7b2365469e" y="72.408227"/>
     <use style="fill:#081d58;stroke:#081d58;stroke-linejoin:miter;" x="93.575392" xlink:href="#m7b2365469e" y="108.475607"/>
     <use style="fill:#081d58;stroke:#081d58;stroke-linejoin:miter;" x="101.694462" xlink:href="#m7b2365469e" y="124.696814"/>
     <use style="fill:#081d58;stroke:#081d58;stroke-linejoin:miter;" x="109.813532" xlink:href="#m7b2365469e" y="125.745673"/>
     <use style="fill:#081d58;stroke:#081d58;stroke-linejoin:miter;" x="117.932602" xlink:href="#m7b2365469e" y="122.51658"/>
     <use style="fill:#081d58;stroke:#081d58;stroke-linejoin:miter;" x="126.051672" xlink:href="#m7b2365469e" y="121.737381"/>
     <use style="fill:#081d58;stroke:#081d58;stroke-linejoin:miter;" x="134.170742" xlink:href="#m7b2365469e" y="124.919477"/>
     <use style="fill:#081d58;stroke:#081d58;stroke-linejoin:miter;" x="142.289812" xlink:href="#m7b2365469e" y="127.240578"/>
     <use style="fill:#081d58;stroke:#081d58;stroke-linejoin:miter;" x="150.408882" xlink:href="#m7b2365469e" y="146.091211"/>
     <use style="fill:#081d58;stroke:#081d58;stroke-linejoin:miter;" x="158.527952" xlink:href="#m7b2365469e" y="173.14989"/>
     <use style="fill:#081d58;stroke:#081d58;stroke-linejoin:miter;" x="166.647022" xlink:href="#m7b2365469e" y="219.853185"/>
     <use style="fill:#081d58;stroke:#081d58;stroke-linejoin:miter;" x="174.766092" xlink:href="#m7b2365469e" y="196.631952"/>
     <use style="fill:#081d58;stroke:#081d58;stroke-linejoin:miter;" x="182.885162" xlink:href="#m7b2365469e" y="122.575029"/>
     <use style="fill:#081d58;stroke:#081d58;stroke-linejoin:miter;" x="191.004232" xlink:href="#m7b2365469e" y="88.048269"/>
     <use style="fill:#081d58;stroke:#081d58;stroke-linejoin:miter;" x="199.123302" xlink:href="#m7b2365469e" y="72.877597"/>
     <use style="fill:#081d58;stroke:#081d58;stroke-linejoin:miter;" x="207.242372" xlink:href="#m7b2365469e" y="65.075523"/>
     <use style="fill:#081d58;stroke:#081d58;stroke-linejoin:miter;" x="215.361442" xlink:href="#m7b2365469e" y="59.104183"/>
     <use style="fill:#081d58;stroke:#081d58;stroke-linejoin:miter;" x="223.480512" xlink:href="#m7b2365469e" y="57.748454"/>
     <use style="fill:#081d58;stroke:#081d58;stroke-linejoin:miter;" x="231.599582" xlink:href="#m7b2365469e" y="55.755358"/>
     <use style="fill:#081d58;stroke:#081d58;stroke-linejoin:miter;" x="239.718652" xlink:href="#m7b2365469e" y="54.353672"/>
     <use style="fill:#081d58;stroke:#081d58;stroke-linejoin:miter;" x="247.837722" xlink:href="#m7b2365469e" y="52.910516"/>
     <use style="fill:#081d58;stroke:#081d58;stroke-linejoin:miter;" x="255.956792" xlink:href="#m7b2365469e" y="50.91813"/>
     <use style="fill:#081d58;stroke:#081d58;stroke-linejoin:miter;" x="264.075862" xlink:href="#m7b2365469e" y="49.277443"/>
     <use style="fill:#081d58;stroke:#081d58;stroke-linejoin:miter;" x="272.194932" xlink:href="#m7b2365469e" y="48.086638"/>
     <use style="fill:#081d58;stroke:#081d58;stroke-linejoin:miter;" x="280.314002" xlink:href="#m7b2365469e" y="47.007288"/>
     <use style="fill:#081d58;stroke:#081d58;stroke-linejoin:miter;" x="288.433072" xlink:href="#m7b2365469e" y="46.01985"/>
     <use style="fill:#081d58;stroke:#081d58;stroke-linejoin:miter;" x="296.552142" xlink:href="#m7b2365469e" y="45.854384"/>
     <use style="fill:#081d58;stroke:#081d58;stroke-linejoin:miter;" x="304.671212" xlink:href="#m7b2365469e" y="46.22734"/>
     <use style="fill:#081d58;stroke:#081d58;stroke-linejoin:miter;" x="312.790282" xlink:href="#m7b2365469e" y="47.125546"/>
     <use style="fill:#081d58;stroke:#081d58;stroke-linejoin:miter;" x="320.909352" xlink:href="#m7b2365469e" y="47.681736"/>
     <use style="fill:#081d58;stroke:#081d58;stroke-linejoin:miter;" x="329.028422" xlink:href="#m7b2365469e" y="48.478761"/>
     <use style="fill:#081d58;stroke:#081d58;stroke-linejoin:miter;" x="337.147492" xlink:href="#m7b2365469e" y="49.65665"/>
     <use style="fill:#081d58;stroke:#081d58;stroke-linejoin:miter;" x="345.266562" xlink:href="#m7b2365469e" y="51.421866"/>
     <use style="fill:#081d58;stroke:#081d58;stroke-linejoin:miter;" x="353.385632" xlink:href="#m7b2365469e" y="53.492854"/>
     <use style="fill:#081d58;stroke:#081d58;stroke-linejoin:miter;" x="361.504702" xlink:href="#m7b2365469e" y="54.95644"/>
     <use style="fill:#081d58;stroke:#081d58;stroke-linejoin:miter;" x="369.623772" xlink:href="#m7b2365469e" y="55.559898"/>
    </g>
   </g>
   <g id="patch_3">
    <path d="M 54 252 
L 54 34.56 
" style="fill:none;stroke:#000000;stroke-linecap:square;stroke-linejoin:miter;stroke-width:0.8;"/>
   </g>
   <g id="patch_4">
    <path d="M 388.8 252 
L 388.8 34.56 
" style="fill:none;stroke:#000000;stroke-linecap:square;stroke-linejoin:miter;stroke-width:0.8;"/>
   </g>
   <g id="patch_5">
    <path d="M 54 252 
L 388.8 252 
" style="fill:none;stroke:#000000;stroke-linecap:square;stroke-linejoin:miter;stroke-width:0.8;"/>
   </g>
   <g id="patch_6">
    <path d="M 54 34.56 
L 388.8 34.56 
" style="fill:none;stroke:#000000;stroke-linecap:square;stroke-linejoin:miter;stroke-width:0.8;"/>
   </g>
   <g id="legend_1">
    <g id="patch_7">
     <path d="M 280.085938 247 
L 381.8 247 
Q 383.8 247 383.8 245 
L 383.8 216.64375 
Q 383.8 214.64375 381.8 214.64375 
L 280.085938 214.64375 
Q 278.085938 214.64375 278.085938 216.64375 
L 278.085938 245 
Q 278.085938 247 280.085938 247 
z
" style="fill:#ffffff;opacity:0.8;stroke:#cccccc;stroke-linejoin:miter;"/>
    </g>
    <g id="line2d_15">
     <path d="M 282.085938 222.742188 
L 302.085938 222.742188 
" style="fill:none;stroke:#40b5c4;stroke-dasharray:5.55,2.4;stroke-dashoffset:0;stroke-width:1.5;"/>
    </g>
    <g id="line2d_16">
     <g>
      <use style="fill:#40b5c4;stroke:#40b5c4;" x="292.085938" xlink:href="#mda09eb76c7" y="222.742188"/>
     </g>
    </g>
    <g id="text_15">
     <text style="font-family:DejaVu Sans;font-size:10px;font-style:normal;font-weight:normal;text-anchor:start;" transform="rotate(-0, 310.085938, 226.242188)" x="310.085938" y="226.242188">original</text>
    </g>
    <g id="line2d_17">
     <path d="M 282.085938 237.420312 
L 302.085938 237.420312 
" style="fill:none;stroke:#081d58;stroke-dasharray:5.55,2.4;stroke-dashoffset:0;stroke-width:1.5;"/>
    </g>
    <g id="line2d_18">
     <g>
      <use style="fill:#081d58;stroke:#081d58;stroke-linejoin:miter;" x="292.085938" xlink:href="#m7b2365469e" y="237.420312"/>
     </g>
    </g>
    <g id="text_16">
     <text style="font-family:DejaVu Sans;font-size:10px;font-style:normal;font-weight:normal;text-anchor:start;" transform="rotate(-0, 310.085938, 240.920312)" x="310.085938" y="240.920312">reconstructed</text>
    </g>
   </g>
  </g>
  <g id="text_17">
   <text style="font-family:DejaVu Sans;font-size:12px;font-style:normal;font-weight:normal;text-anchor:middle;" transform="rotate(-0, 216, 14.878125)" x="216" y="14.878125">Reconstruction of the temperature curve</text>
  </g>
 </g>
 <defs>
  <clipPath id="pb7c7cda932">
   <rect height="217.44" width="334.8" x="54" y="34.56"/>
  </clipPath>
 </defs>
</svg>
