<?xml version="1.0" encoding="utf-8" standalone="no"?>
<!DOCTYPE svg PUBLIC "-//W3C//DTD SVG 1.1//EN"
  "http://www.w3.org/Graphics/SVG/1.1/DTD/svg11.dtd">
<!-- Created with matplotlib (https://matplotlib.org/) -->
<svg height="288pt" version="1.1" viewBox="0 0 432 288" width="432pt" xmlns="http://www.w3.org/2000/svg" xmlns:xlink="http://www.w3.org/1999/xlink">
 <defs>
  <style type="text/css">
*{stroke-linecap:butt;stroke-linejoin:round;}
  </style>
 </defs>
 <g id="figure_1">
  <g id="patch_1">
   <path d="M 0 288 
L 432 288 
L 432 0 
L 0 0 
z
" style="fill:#ffffff;"/>
  </g>
  <g id="axes_1">
   <g id="patch_2">
    <path d="M 54 252 
L 388.8 252 
L 388.8 34.56 
L 54 34.56 
z
" style="fill:#ffffff;"/>
   </g>
   <g id="matplotlib.axis_1">
    <g id="xtick_1">
     <g id="line2d_1">
      <defs>
       <path d="M 0 0 
L 0 3.5 
" id="m223d0b4038" style="stroke:#000000;stroke-width:0.8;"/>
      </defs>
      <g>
       <use style="stroke:#000000;stroke-width:0.8;" x="69.218182" xlink:href="#m223d0b4038" y="252"/>
      </g>
     </g>
     <g id="text_1">
      <text style="font-family:DejaVu Sans;font-size:10px;font-style:normal;font-weight:normal;text-anchor:middle;" transform="rotate(-0, 69.218182, 266.598437)" x="69.218182" y="266.598437">0</text>
     </g>
    </g>
    <g id="xtick_2">
     <g id="line2d_2">
      <g>
       <use style="stroke:#000000;stroke-width:0.8;" x="119.962369" xlink:href="#m223d0b4038" y="252"/>
      </g>
     </g>
     <g id="text_2">
      <text style="font-family:DejaVu Sans;font-size:10px;font-style:normal;font-weight:normal;text-anchor:middle;" transform="rotate(-0, 119.962369, 266.598437)" x="119.962369" y="266.598437">500</text>
     </g>
    </g>
    <g id="xtick_3">
     <g id="line2d_3">
      <g>
       <use style="stroke:#000000;stroke-width:0.8;" x="170.706557" xlink:href="#m223d0b4038" y="252"/>
      </g>
     </g>
     <g id="text_3">
      <text style="font-family:DejaVu Sans;font-size:10px;font-style:normal;font-weight:normal;text-anchor:middle;" transform="rotate(-0, 170.706557, 266.598437)" x="170.706557" y="266.598437">1000</text>
     </g>
    </g>
    <g id="xtick_4">
     <g id="line2d_4">
      <g>
       <use style="stroke:#000000;stroke-width:0.8;" x="221.450744" xlink:href="#m223d0b4038" y="252"/>
      </g>
     </g>
     <g id="text_4">
      <text style="font-family:DejaVu Sans;font-size:10px;font-style:normal;font-weight:normal;text-anchor:middle;" transform="rotate(-0, 221.450744, 266.598437)" x="221.450744" y="266.598437">1500</text>
     </g>
    </g>
    <g id="xtick_5">
     <g id="line2d_5">
      <g>
       <use style="stroke:#000000;stroke-width:0.8;" x="272.194932" xlink:href="#m223d0b4038" y="252"/>
      </g>
     </g>
     <g id="text_5">
      <text style="font-family:DejaVu Sans;font-size:10px;font-style:normal;font-weight:normal;text-anchor:middle;" transform="rotate(-0, 272.194932, 266.598437)" x="272.194932" y="266.598437">2000</text>
     </g>
    </g>
    <g id="xtick_6">
     <g id="line2d_6">
      <g>
       <use style="stroke:#000000;stroke-width:0.8;" x="322.939119" xlink:href="#m223d0b4038" y="252"/>
      </g>
     </g>
     <g id="text_6">
      <text style="font-family:DejaVu Sans;font-size:10px;font-style:normal;font-weight:normal;text-anchor:middle;" transform="rotate(-0, 322.939119, 266.598437)" x="322.939119" y="266.598437">2500</text>
     </g>
    </g>
    <g id="xtick_7">
     <g id="line2d_7">
      <g>
       <use style="stroke:#000000;stroke-width:0.8;" x="373.683307" xlink:href="#m223d0b4038" y="252"/>
      </g>
     </g>
     <g id="text_7">
      <text style="font-family:DejaVu Sans;font-size:10px;font-style:normal;font-weight:normal;text-anchor:middle;" transform="rotate(-0, 373.683307, 266.598437)" x="373.683307" y="266.598437">3000</text>
     </g>
    </g>
    <g id="text_8">
     <text style="font-family:DejaVu Sans;font-size:10px;font-style:normal;font-weight:normal;text-anchor:middle;" transform="rotate(-0, 221.4, 280.276563)" x="221.4" y="280.276563">Time</text>
    </g>
   </g>
   <g id="matplotlib.axis_2">
    <g id="ytick_1">
     <g id="line2d_8">
      <defs>
       <path d="M 0 0 
L -3.5 0 
" id="m2825646c19" style="stroke:#000000;stroke-width:0.8;"/>
      </defs>
      <g>
       <use style="stroke:#000000;stroke-width:0.8;" x="54" xlink:href="#m2825646c19" y="247.954372"/>
      </g>
     </g>
     <g id="text_9">
      <text style="font-family:DejaVu Sans;font-size:10px;font-style:normal;font-weight:normal;text-anchor:end;" transform="rotate(-0, 47, 251.753591)" x="47" y="251.753591">45</text>
     </g>
    </g>
    <g id="ytick_2">
     <g id="line2d_9">
      <g>
       <use style="stroke:#000000;stroke-width:0.8;" x="54" xlink:href="#m2825646c19" y="217.406268"/>
      </g>
     </g>
     <g id="text_10">
      <text style="font-family:DejaVu Sans;font-size:10px;font-style:normal;font-weight:normal;text-anchor:end;" transform="rotate(-0, 47, 221.205487)" x="47" y="221.205487">50</text>
     </g>
    </g>
    <g id="ytick_3">
     <g id="line2d_10">
      <g>
       <use style="stroke:#000000;stroke-width:0.8;" x="54" xlink:href="#m2825646c19" y="186.858164"/>
      </g>
     </g>
     <g id="text_11">
      <text style="font-family:DejaVu Sans;font-size:10px;font-style:normal;font-weight:normal;text-anchor:end;" transform="rotate(-0, 47, 190.657383)" x="47" y="190.657383">55</text>
     </g>
    </g>
    <g id="ytick_4">
     <g id="line2d_11">
      <g>
       <use style="stroke:#000000;stroke-width:0.8;" x="54" xlink:href="#m2825646c19" y="156.31006"/>
      </g>
     </g>
     <g id="text_12">
      <text style="font-family:DejaVu Sans;font-size:10px;font-style:normal;font-weight:normal;text-anchor:end;" transform="rotate(-0, 47, 160.109279)" x="47" y="160.109279">60</text>
     </g>
    </g>
    <g id="ytick_5">
     <g id="line2d_12">
      <g>
       <use style="stroke:#000000;stroke-width:0.8;" x="54" xlink:href="#m2825646c19" y="125.761956"/>
      </g>
     </g>
     <g id="text_13">
      <text style="font-family:DejaVu Sans;font-size:10px;font-style:normal;font-weight:normal;text-anchor:end;" transform="rotate(-0, 47, 129.561175)" x="47" y="129.561175">65</text>
     </g>
    </g>
    <g id="ytick_6">
     <g id="line2d_13">
      <g>
       <use style="stroke:#000000;stroke-width:0.8;" x="54" xlink:href="#m2825646c19" y="95.213852"/>
      </g>
     </g>
     <g id="text_14">
      <text style="font-family:DejaVu Sans;font-size:10px;font-style:normal;font-weight:normal;text-anchor:end;" transform="rotate(-0, 47, 99.013071)" x="47" y="99.013071">70</text>
     </g>
    </g>
    <g id="ytick_7">
     <g id="line2d_14">
      <g>
       <use style="stroke:#000000;stroke-width:0.8;" x="54" xlink:href="#m2825646c19" y="64.665748"/>
      </g>
     </g>
     <g id="text_15">
      <text style="font-family:DejaVu Sans;font-size:10px;font-style:normal;font-weight:normal;text-anchor:end;" transform="rotate(-0, 47, 68.464967)" x="47" y="68.464967">75</text>
     </g>
    </g>
    <g id="text_16">
     <text style="font-family:DejaVu Sans;font-size:10px;font-style:normal;font-weight:normal;text-anchor:middle;" transform="rotate(-90, 28.195312, 143.28)" x="28.195312" y="143.28">weight (\%)</text>
    </g>
   </g>
   <g id="line2d_15">
    <path clip-path="url(#pf0ce763d95)" d="M 69.218182 44.443636 
L 87.384601 44.816934 
L 92.864973 45.198541 
L 99.867671 45.946175 
L 109.001625 46.873799 
L 132.242463 49.024019 
L 137.012416 49.815643 
L 140.767486 50.662864 
L 143.812137 51.570265 
L 146.552324 52.614521 
L 149.191021 53.882084 
L 151.322277 55.169015 
L 153.352045 56.65518 
L 155.787766 58.739599 
L 156.802649 59.868901 
L 158.730928 62.384171 
L 161.369626 66.197308 
L 163.906836 70.281345 
L 166.849998 75.484054 
L 171.518464 83.775298 
L 173.446743 86.682317 
L 175.577999 89.183656 
L 176.795859 90.255528 
L 177.810743 90.877976 
L 179.028603 91.344568 
L 181.159859 91.88527 
L 184.610464 92.523664 
L 189.583394 93.199999 
L 196.281627 93.869002 
L 206.836418 94.666919 
L 219.928419 95.42274 
L 236.268047 96.118626 
L 255.347861 96.686087 
L 273.717257 97.028409 
L 292.797072 97.170092 
L 314.312607 97.319961 
L 337.553445 97.390954 
L 373.581818 97.532392 
L 373.581818 97.532392 
" style="fill:none;stroke:#40b5c4;stroke-dasharray:5.55,2.4;stroke-dashoffset:0;stroke-width:1.5;"/>
    <defs>
     <path d="M 0 3 
C 0.795609 3 1.55874 2.683901 2.12132 2.12132 
C 2.683901 1.55874 3 0.795609 3 0 
C 3 -0.795609 2.683901 -1.55874 2.12132 -2.12132 
C 1.55874 -2.683901 0.795609 -3 0 -3 
C -0.795609 -3 -1.55874 -2.683901 -2.12132 -2.12132 
C -2.683901 -1.55874 -3 -0.795609 -3 0 
C -3 0.795609 -2.683901 1.55874 -2.12132 2.12132 
C -1.55874 2.683901 -0.795609 3 0 3 
z
" id="m3f7e595900" style="stroke:#40b5c4;"/>
    </defs>
    <g clip-path="url(#pf0ce763d95)">
     <use style="fill:#40b5c4;stroke:#40b5c4;" x="69.218182" xlink:href="#m3f7e595900" y="44.443636"/>
     <use style="fill:#40b5c4;stroke:#40b5c4;" x="77.337252" xlink:href="#m3f7e595900" y="44.55196"/>
     <use style="fill:#40b5c4;stroke:#40b5c4;" x="85.456322" xlink:href="#m3f7e595900" y="44.734271"/>
     <use style="fill:#40b5c4;stroke:#40b5c4;" x="93.575392" xlink:href="#m3f7e595900" y="45.264281"/>
     <use style="fill:#40b5c4;stroke:#40b5c4;" x="101.694462" xlink:href="#m3f7e595900" y="46.151764"/>
     <use style="fill:#40b5c4;stroke:#40b5c4;" x="109.813532" xlink:href="#m3f7e595900" y="46.944426"/>
     <use style="fill:#40b5c4;stroke:#40b5c4;" x="117.932602" xlink:href="#m3f7e595900" y="47.59785"/>
     <use style="fill:#40b5c4;stroke:#40b5c4;" x="126.051672" xlink:href="#m3f7e595900" y="48.299051"/>
     <use style="fill:#40b5c4;stroke:#40b5c4;" x="134.170742" xlink:href="#m3f7e595900" y="49.313371"/>
     <use style="fill:#40b5c4;stroke:#40b5c4;" x="142.289812" xlink:href="#m3f7e595900" y="51.086933"/>
     <use style="fill:#40b5c4;stroke:#40b5c4;" x="150.408882" xlink:href="#m3f7e595900" y="54.584263"/>
     <use style="fill:#40b5c4;stroke:#40b5c4;" x="158.527952" xlink:href="#m3f7e595900" y="62.106489"/>
     <use style="fill:#40b5c4;stroke:#40b5c4;" x="166.647022" xlink:href="#m3f7e595900" y="75.114177"/>
     <use style="fill:#40b5c4;stroke:#40b5c4;" x="174.766092" xlink:href="#m3f7e595900" y="88.299472"/>
     <use style="fill:#40b5c4;stroke:#40b5c4;" x="182.885162" xlink:href="#m3f7e595900" y="92.229425"/>
     <use style="fill:#40b5c4;stroke:#40b5c4;" x="191.004232" xlink:href="#m3f7e595900" y="93.358849"/>
     <use style="fill:#40b5c4;stroke:#40b5c4;" x="199.123302" xlink:href="#m3f7e595900" y="94.105567"/>
     <use style="fill:#40b5c4;stroke:#40b5c4;" x="207.242372" xlink:href="#m3f7e595900" y="94.69374"/>
     <use style="fill:#40b5c4;stroke:#40b5c4;" x="215.361442" xlink:href="#m3f7e595900" y="95.183304"/>
     <use style="fill:#40b5c4;stroke:#40b5c4;" x="223.480512" xlink:href="#m3f7e595900" y="95.594787"/>
     <use style="fill:#40b5c4;stroke:#40b5c4;" x="231.599582" xlink:href="#m3f7e595900" y="95.94328"/>
     <use style="fill:#40b5c4;stroke:#40b5c4;" x="239.718652" xlink:href="#m3f7e595900" y="96.238558"/>
     <use style="fill:#40b5c4;stroke:#40b5c4;" x="247.837722" xlink:href="#m3f7e595900" y="96.489663"/>
     <use style="fill:#40b5c4;stroke:#40b5c4;" x="255.956792" xlink:href="#m3f7e595900" y="96.700812"/>
     <use style="fill:#40b5c4;stroke:#40b5c4;" x="264.075862" xlink:href="#m3f7e595900" y="96.874691"/>
     <use style="fill:#40b5c4;stroke:#40b5c4;" x="272.194932" xlink:href="#m3f7e595900" y="97.007759"/>
     <use style="fill:#40b5c4;stroke:#40b5c4;" x="280.314002" xlink:href="#m3f7e595900" y="97.102214"/>
     <use style="fill:#40b5c4;stroke:#40b5c4;" x="288.433072" xlink:href="#m3f7e595900" y="97.155734"/>
     <use style="fill:#40b5c4;stroke:#40b5c4;" x="296.552142" xlink:href="#m3f7e595900" y="97.181455"/>
     <use style="fill:#40b5c4;stroke:#40b5c4;" x="304.671212" xlink:href="#m3f7e595900" y="97.212615"/>
     <use style="fill:#40b5c4;stroke:#40b5c4;" x="312.790282" xlink:href="#m3f7e595900" y="97.306031"/>
     <use style="fill:#40b5c4;stroke:#40b5c4;" x="320.909352" xlink:href="#m3f7e595900" y="97.352953"/>
     <use style="fill:#40b5c4;stroke:#40b5c4;" x="329.028422" xlink:href="#m3f7e595900" y="97.377024"/>
     <use style="fill:#40b5c4;stroke:#40b5c4;" x="337.147492" xlink:href="#m3f7e595900" y="97.390466"/>
     <use style="fill:#40b5c4;stroke:#40b5c4;" x="345.266562" xlink:href="#m3f7e595900" y="97.387411"/>
     <use style="fill:#40b5c4;stroke:#40b5c4;" x="353.385632" xlink:href="#m3f7e595900" y="97.389977"/>
     <use style="fill:#40b5c4;stroke:#40b5c4;" x="361.504702" xlink:href="#m3f7e595900" y="97.421991"/>
     <use style="fill:#40b5c4;stroke:#40b5c4;" x="369.623772" xlink:href="#m3f7e595900" y="97.485409"/>
    </g>
   </g>
   <g id="line2d_16">
    <path clip-path="url(#pf0ce763d95)" d="M 69.218182 215.235095 
L 69.31967 215.284994 
L 69.421159 215.504679 
L 69.522647 215.353328 
L 69.624135 215.42926 
L 69.725624 215.075516 
L 69.827112 215.558727 
L 69.9286 215.191256 
L 70.131577 215.496009 
L 70.233066 215.112527 
L 70.334554 215.623891 
L 70.537531 215.229804 
L 70.639019 215.466597 
L 70.740507 215.130589 
L 70.841996 215.583035 
L 70.943484 215.21941 
L 71.146461 215.54451 
L 71.247949 215.177621 
L 71.349438 215.677146 
L 71.552414 215.315875 
L 71.653903 215.43525 
L 71.755391 215.181141 
L 71.85688 215.557865 
L 72.059856 215.313917 
L 72.161345 215.436042 
L 72.262833 215.257352 
L 72.364321 215.534978 
L 72.46581 215.309745 
L 72.668787 215.552271 
L 72.770275 215.281894 
L 72.871763 215.464406 
L 73.07474 215.218408 
L 73.176228 215.545349 
L 73.277717 215.147882 
L 73.480694 215.448278 
L 73.582182 215.215424 
L 73.68367 215.584923 
L 73.785159 215.227427 
L 73.886647 215.485009 
L 74.089624 215.005248 
L 74.191112 215.57362 
L 74.292601 215.23097 
L 74.495577 215.266395 
L 74.597066 215.080504 
L 74.698554 215.436625 
L 74.800042 215.144084 
L 74.901531 215.359271 
L 75.003019 215.285949 
L 75.104508 215.043587 
L 75.205996 215.444689 
L 75.307484 215.043656 
L 75.408973 215.086377 
L 75.510461 215.255185 
L 75.611949 214.941854 
L 75.713438 215.326572 
L 75.814926 214.919853 
L 76.017903 215.162752 
L 76.119391 214.974507 
L 76.22088 215.301821 
L 76.423856 214.919061 
L 76.525345 215.120987 
L 76.626833 214.790386 
L 76.728322 215.178507 
L 76.931298 214.697231 
L 77.032787 215.147533 
L 77.134275 214.717857 
L 77.235763 215.140704 
L 77.43874 214.6832 
L 77.540229 215.051884 
L 77.641717 214.616707 
L 77.743205 214.993967 
L 77.844694 214.664113 
L 78.04767 215.01774 
L 78.149159 214.625401 
L 78.250647 214.988887 
L 78.453624 214.790246 
L 78.555112 215.061766 
L 78.656601 214.799895 
L 78.758089 215.045498 
L 78.961066 214.704829 
L 79.062554 215.103507 
L 79.164043 214.749437 
L 79.367019 214.909342 
L 79.468508 214.736386 
L 79.569996 215.080481 
L 79.671484 214.940386 
L 79.772973 215.082065 
L 79.97595 214.659475 
L 80.077438 215.127862 
L 80.280415 214.880232 
L 80.381903 215.024289 
L 80.483391 214.66649 
L 80.58488 215.12129 
L 80.686368 214.796656 
L 80.889345 214.985297 
L 80.990833 214.784 
L 81.092322 215.254626 
L 81.295298 214.859816 
L 81.396787 215.060973 
L 81.498275 214.843758 
L 81.599764 215.067079 
L 81.701252 214.85357 
L 81.904229 215.086191 
L 82.005717 214.92561 
L 82.107205 215.253833 
L 82.310182 214.808122 
L 82.411671 215.251153 
L 82.513159 214.837022 
L 82.614647 215.219526 
L 82.817624 214.795654 
L 82.919112 215.153919 
L 83.020601 214.813366 
L 83.122089 215.265673 
L 83.325066 214.854222 
L 83.426554 215.140984 
L 83.528043 214.877366 
L 83.629531 215.047036 
L 83.832508 214.846951 
L 83.933996 215.085864 
L 84.035485 214.734055 
L 84.136973 215.080038 
L 84.238461 214.861564 
L 84.441438 215.069853 
L 84.542926 214.753399 
L 84.644415 215.034287 
L 84.847392 214.670032 
L 84.94888 214.974716 
L 85.050368 214.930411 
L 85.354833 214.70688 
L 85.456322 215.091761 
L 85.55781 214.796353 
L 85.760787 214.921415 
L 85.862275 214.545833 
L 85.963764 215.064259 
L 86.065252 214.751348 
L 86.268229 214.834832 
L 86.369717 214.562031 
L 86.471206 215.053818 
L 86.572694 214.671734 
L 86.674182 214.908969 
L 86.877159 214.544481 
L 86.978647 214.985088 
L 87.181624 214.762652 
L 87.283113 214.843595 
L 87.384601 214.574872 
L 87.486089 214.928523 
L 87.689066 214.677117 
L 87.790554 214.9629 
L 87.892043 214.37847 
L 87.993531 215.028228 
L 88.196508 214.658705 
L 88.297996 214.999631 
L 88.399485 214.587947 
L 88.500973 214.879929 
L 88.70395 214.556997 
L 88.805438 214.872518 
L 88.906927 214.55963 
L 89.008415 214.934629 
L 89.211392 214.565876 
L 89.31288 214.915798 
L 89.414368 214.612209 
L 89.515857 214.872331 
L 89.718834 214.674344 
L 89.820322 214.946562 
L 89.92181 214.704712 
L 90.023299 214.94556 
L 90.226275 214.632975 
L 90.327764 214.900765 
L 90.429252 214.704852 
L 90.530741 214.923326 
L 90.733717 214.56224 
L 90.835206 215.025244 
L 90.936694 214.707229 
L 91.038182 215.05214 
L 91.241159 214.820661 
L 91.342648 214.961851 
L 91.444136 214.78393 
L 91.545624 214.953041 
L 91.748601 214.612629 
L 91.850089 214.927824 
L 92.053066 214.770413 
L 92.154555 214.989702 
L 92.256043 214.665791 
L 92.357531 215.031724 
L 92.45902 214.607362 
L 92.661996 214.862403 
L 92.763485 214.590115 
L 92.864973 215.103577 
L 92.966462 214.607455 
L 93.169438 214.937286 
L 93.270927 214.703011 
L 93.372415 215.145552 
L 93.473903 214.670685 
L 93.67688 214.908386 
L 93.778369 214.638615 
L 93.879857 215.035779 
L 94.082834 214.681546 
L 94.184322 214.937939 
L 94.28581 214.754355 
L 94.387299 215.159139 
L 94.590276 214.842429 
L 94.691764 215.146694 
L 94.793252 214.630388 
L 94.894741 215.182492 
L 94.996229 214.844923 
L 95.097717 215.005015 
L 95.300694 214.86809 
L 95.402183 215.068734 
L 95.605159 214.986975 
L 95.706648 215.227683 
L 95.808136 214.881584 
L 95.909624 215.187154 
L 96.112601 214.894193 
L 96.21409 215.399917 
L 96.315578 214.860748 
L 96.417066 215.217895 
L 96.620043 214.831545 
L 96.721531 215.166108 
L 96.82302 214.737131 
L 96.924508 214.972409 
L 97.127485 214.644349 
L 97.228973 214.898481 
L 97.330462 214.730349 
L 97.43195 214.830636 
L 97.634927 214.439696 
L 97.736415 214.768315 
L 97.939392 214.558302 
L 98.04088 214.619784 
L 98.142369 214.263896 
L 98.243857 214.784606 
L 98.345345 214.371035 
L 98.548322 214.633441 
L 98.649811 214.300184 
L 98.751299 214.684925 
L 98.954276 214.47342 
L 99.055764 214.609482 
L 99.157252 214.350572 
L 99.258741 214.682128 
L 99.360229 214.417368 
L 99.461718 214.478431 
L 99.664694 214.711984 
L 99.766183 214.584778 
L 99.867671 214.63787 
L 100.070648 214.563243 
L 100.273625 214.682897 
L 100.375113 214.504138 
L 100.679578 214.948333 
L 100.781066 214.672363 
L 100.882555 214.782416 
L 101.085532 214.644186 
L 101.288508 214.777778 
L 101.389997 214.609646 
L 101.592973 214.829518 
L 101.897439 214.803018 
L 102.607857 214.970778 
L 102.912322 215.039345 
L 103.013811 214.951829 
L 103.115299 215.079269 
L 103.318276 214.925074 
L 103.825718 215.128771 
L 104.231671 215.307624 
L 104.33316 214.985344 
L 104.434648 215.290681 
L 104.536136 215.150423 
L 104.637625 215.521856 
L 104.739113 215.150936 
L 104.840601 215.451797 
L 104.94209 215.246305 
L 105.043578 215.426393 
L 105.145067 215.26523 
L 105.652508 215.617902 
L 105.753997 215.461003 
L 105.855485 215.52407 
L 105.956974 215.417863 
L 106.15995 215.526121 
L 106.362927 215.444433 
L 106.464415 215.527426 
L 106.565904 215.759698 
L 106.768881 215.560288 
L 106.971857 215.483541 
L 107.174834 215.571312 
L 107.479299 215.506521 
L 107.580788 215.808944 
L 107.783764 215.619114 
L 108.088229 215.555394 
L 108.189718 215.672089 
L 108.392695 215.466177 
L 108.595671 215.76909 
L 109.103113 215.68556 
L 109.204602 215.753964 
L 109.407578 215.612611 
L 109.610555 215.83218 
L 109.712043 215.741099 
L 109.813532 215.824 
L 109.91502 215.677986 
L 110.117997 215.719051 
L 112.553718 215.973557 
L 112.756695 215.968592 
L 112.959671 216.02849 
L 113.264137 216.095659 
L 113.467113 215.967917 
L 113.974555 215.736042 
L 114.27902 215.811275 
L 114.481997 215.644727 
L 114.786462 215.621584 
L 114.887951 215.465478 
L 114.989439 215.523791 
L 115.090927 215.453149 
L 115.192416 215.601587 
L 115.496881 215.482795 
L 115.699858 215.549031 
L 115.801346 215.600608 
L 115.902834 215.4067 
L 116.308788 215.55917 
L 116.714741 215.52111 
L 116.81623 215.738745 
L 116.917718 215.44068 
L 117.019206 215.574342 
L 117.120695 215.489647 
L 117.222183 215.754663 
L 117.323672 215.584154 
L 117.42516 215.64277 
L 117.526648 215.481513 
L 117.729625 215.532577 
L 118.135579 215.488365 
L 118.237067 215.669735 
L 118.338555 215.535537 
L 118.440044 215.587487 
L 118.541532 215.455573 
L 118.845997 215.492304 
L 119.048974 215.490626 
L 119.251951 215.549451 
L 120.875765 215.517824 
L 120.977253 215.223512 
L 121.078741 215.672229 
L 121.281718 215.341349 
L 121.383207 215.52174 
L 121.484695 215.319977 
L 121.586183 215.615385 
L 121.687672 215.31387 
L 121.890648 215.58793 
L 121.992137 215.146368 
L 122.093625 215.65384 
L 122.296602 215.343912 
L 122.39809 215.517894 
L 122.499579 215.249498 
L 122.601067 215.584783 
L 122.702555 215.234932 
L 122.804044 215.293011 
L 122.905532 215.482399 
L 123.007021 215.084326 
L 123.108509 215.51892 
L 123.311486 215.132291 
L 123.412974 215.444969 
L 123.514462 215.088032 
L 123.615951 215.381925 
L 123.818928 215.115533 
L 123.920416 215.366613 
L 124.021904 214.978888 
L 124.123393 215.360017 
L 124.326369 215.02056 
L 124.427858 215.235118 
L 124.529346 215.039834 
L 124.630835 215.254486 
L 124.732323 214.945863 
L 124.9353 215.228849 
L 125.036788 214.794791 
L 125.138276 215.320932 
L 125.341253 214.934839 
L 125.442742 215.156925 
L 125.54423 214.867344 
L 125.645718 215.151402 
L 125.747207 214.845716 
L 125.950183 215.143711 
L 126.051672 214.719628 
L 126.15316 215.187993 
L 126.356137 214.823272 
L 126.457625 215.084443 
L 126.559114 214.843595 
L 126.660602 214.998023 
L 126.863579 214.764167 
L 126.965067 215.114648 
L 127.066556 214.72697 
L 127.168044 215.095979 
L 127.371021 214.731211 
L 127.472509 215.081086 
L 127.573997 214.82143 
L 127.675486 214.981405 
L 127.878463 214.786634 
L 127.979951 215.088311 
L 128.081439 214.808775 
L 128.182928 215.125392 
L 128.385904 214.889508 
L 128.487393 215.10959 
L 128.69037 215.021842 
L 128.791858 215.010538 
L 128.893346 214.807563 
L 128.994835 215.183355 
L 129.2993 215.035243 
L 129.603765 215.238428 
L 129.705253 215.073139 
L 130.111207 215.248426 
L 130.314184 215.103111 
L 130.618649 215.155341 
L 130.923114 215.127303 
L 131.024602 215.249638 
L 131.430556 215.105861 
L 131.937998 215.118447 
L 132.039486 215.33177 
L 132.242463 215.201837 
L 132.546928 215.143617 
L 132.648416 215.26199 
L 132.749905 215.089943 
L 133.05437 215.354167 
L 133.358835 215.17571 
L 133.6633 215.3255 
L 133.764788 215.135041 
L 134.069253 215.399358 
L 134.475207 215.292662 
L 134.982649 215.36039 
L 135.084137 215.556606 
L 135.185626 215.425554 
L 135.287114 215.479648 
L 135.388602 215.379524 
L 135.693067 215.5646 
L 135.794556 215.365634 
L 136.099021 215.724319 
L 136.301998 215.61112 
L 136.606463 215.651952 
L 136.707951 215.756015 
L 136.80944 215.638738 
L 137.113905 215.878933 
L 137.316881 215.838753 
L 137.621347 215.833229 
L 137.722835 216.030051 
L 137.824323 215.862642 
L 138.331765 216.068483 
L 139.651114 216.39941 
L 139.752602 216.56139 
L 139.854091 216.436677 
L 140.158556 216.752036 
L 140.260044 216.651119 
L 140.463021 216.694119 
L 140.665998 216.787461 
L 140.767486 216.913665 
L 140.970463 216.83764 
L 141.071951 216.799534 
L 141.17344 216.90369 
L 141.376416 216.823796 
L 141.680882 216.721411 
L 141.78237 216.841485 
L 141.883858 216.610682 
L 141.985347 216.720455 
L 142.086835 216.635504 
L 142.188323 216.819764 
L 142.3913 216.687757 
L 142.695765 216.649185 
L 142.898742 216.82559 
L 143.203207 217.13962 
L 143.406184 217.114333 
L 143.710649 217.143699 
L 143.812137 217.295983 
L 143.913626 217.197956 
L 144.218091 217.462506 
L 144.421068 217.444794 
L 144.725533 217.509049 
L 144.827021 217.592533 
L 144.92851 217.50814 
L 145.029998 217.642059 
L 145.131486 217.590225 
L 145.232975 217.76712 
L 145.435951 217.687483 
L 145.53744 217.806275 
L 145.638928 217.693379 
L 145.841905 217.86552 
L 145.943393 217.798467 
L 146.349347 218.005405 
L 146.653812 217.992912 
L 146.856789 218.169878 
L 146.958277 218.070849 
L 147.262742 218.298062 
L 147.364231 218.232385 
L 147.465719 218.324212 
L 147.567207 218.214975 
L 147.871672 218.433752 
L 148.074649 218.369147 
L 148.277626 218.57091 
L 148.480603 218.54173 
L 149.495486 218.898388 
L 149.90144 218.945024 
L 150.104417 218.758107 
L 150.205905 218.710608 
L 150.408882 218.822805 
L 150.713347 218.978911 
L 151.220789 219.26523 
L 151.423765 219.43476 
L 151.728231 219.571964 
L 152.540138 220.083912 
L 152.641626 220.080183 
L 152.946091 220.361351 
L 153.047579 220.300638 
L 154.468417 221.256315 
L 154.772882 221.393053 
L 158.02051 223.640322 
L 158.121998 223.871637 
L 158.223487 223.778622 
L 161.471115 226.418206 
L 161.572603 226.627357 
L 161.674091 226.479502 
L 162.080045 227.178086 
L 162.688975 227.94659 
L 163.196417 228.676895 
L 163.297905 228.71542 
L 163.60237 229.162156 
L 163.703859 229.131835 
L 163.906836 229.434771 
L 164.008324 229.682261 
L 164.109812 229.598941 
L 164.617254 230.220847 
L 164.718743 230.135966 
L 165.327673 231.052138 
L 167.255952 233.675059 
L 167.458929 233.848295 
L 167.763394 234.22679 
L 167.864882 234.23003 
L 168.270836 234.725313 
L 168.372324 234.746871 
L 168.676789 235.116627 
L 168.778278 235.062579 
L 169.082743 235.53141 
L 169.184231 235.479273 
L 169.488696 235.851266 
L 169.590185 235.945377 
L 169.691673 236.224284 
L 169.793161 236.119592 
L 170.300603 236.845515 
L 171.315487 237.701651 
L 171.924417 237.973286 
L 172.025906 237.913529 
L 172.127394 238.14848 
L 172.330371 238.063598 
L 172.431859 238.035724 
L 172.634836 238.115339 
L 173.040789 238.140346 
L 173.142278 238.359263 
L 173.446743 238.210335 
L 173.548231 238.361407 
L 173.852696 238.237254 
L 174.157161 238.491387 
L 174.461627 238.507585 
L 175.070557 238.668934 
L 175.172045 238.764164 
L 175.273534 238.605797 
L 175.375022 238.807491 
L 175.577999 238.717248 
L 175.679487 238.714382 
L 175.780975 238.861189 
L 175.882464 238.701517 
L 176.186929 238.981286 
L 176.592882 238.902744 
L 176.998836 238.995317 
L 177.100324 238.998906 
L 177.201813 239.149791 
L 177.404789 239.062416 
L 177.709255 239.200063 
L 177.912231 239.245184 
L 178.01372 239.233041 
L 178.216696 239.430842 
L 178.521162 239.465779 
L 178.724138 239.519779 
L 179.84051 239.787313 
L 180.144976 239.762678 
L 180.347952 239.958755 
L 180.550929 239.926196 
L 181.058371 240.071534 
L 181.870278 240.240738 
L 181.971766 240.190676 
L 182.276231 240.374237 
L 182.98665 240.365917 
L 183.392604 240.508225 
L 184.204511 240.545515 
L 184.305999 240.683 
L 184.610464 240.573903 
L 185.016418 240.647131 
L 185.219394 240.668923 
L 185.320883 240.708077 
L 185.523859 240.643495 
L 186.031301 240.686449 
L 186.640232 240.682277 
L 187.553627 240.71754 
L 187.756604 240.684305 
L 187.95958 240.690131 
L 188.061069 240.622193 
L 188.264046 240.681205 
L 188.467022 240.690201 
L 188.568511 240.56134 
L 188.669999 240.712016 
L 188.771487 240.660556 
L 188.872976 240.750961 
L 188.974464 240.675005 
L 189.278929 240.770655 
L 189.380418 240.744016 
L 189.583394 240.797737 
L 191.10572 241.080932 
L 191.410185 241.066948 
L 192.222092 241.180101 
L 192.831022 241.270436 
L 195.165255 241.409179 
L 195.368232 241.365456 
L 195.875674 241.371819 
L 196.07865 241.404471 
L 196.789069 241.340798 
L 197.195023 241.386782 
L 197.499488 241.277218 
L 198.00693 241.341311 
L 198.920325 241.241117 
L 199.22479 241.332571 
L 199.427767 241.258876 
L 200.036697 241.41941 
L 200.239674 241.363941 
L 200.747116 241.417056 
L 201.254558 241.50604 
L 201.356046 241.413211 
L 201.559023 241.502661 
L 201.863488 241.461781 
L 202.167953 241.553841 
L 202.37093 241.546267 
L 202.573906 241.577311 
L 202.776883 241.544612 
L 203.081348 241.650703 
L 203.385813 241.62171 
L 204.19772 241.673846 
L 204.400697 241.689205 
L 204.705162 241.705915 
L 204.806651 241.665339 
L 205.009627 241.809489 
L 205.314093 241.694029 
L 205.517069 241.777606 
L 206.328976 241.811796 
L 207.749814 241.80886 
L 208.054279 241.955946 
L 208.257255 241.849086 
L 208.663209 241.936532 
L 208.866186 241.900477 
L 209.678093 241.982655 
L 209.881069 241.874001 
L 210.287023 241.960211 
L 210.794465 241.882158 
L 210.997442 241.97296 
L 211.200418 241.997967 
L 212.113814 241.985871 
L 212.621256 241.995264 
L 212.824232 242.025795 
L 213.027209 241.986221 
L 213.230186 242.011765 
L 213.331674 242.095994 
L 213.534651 241.993702 
L 213.839116 242.041247 
L 214.042093 241.990812 
L 214.346558 242.07672 
L 214.448046 241.959209 
L 214.549535 242.087767 
L 214.651023 242.007663 
L 214.854 242.061524 
L 214.955488 242.082523 
L 215.056977 241.973752 
L 215.259953 242.051316 
L 216.376325 241.985056 
L 216.477814 241.938023 
L 216.782279 242.057189 
L 216.985256 241.947206 
L 217.188232 241.919751 
L 217.391209 241.918586 
L 217.594186 241.938373 
L 217.898651 241.879967 
L 219.116512 241.885817 
L 219.218 241.942055 
L 219.420977 241.806133 
L 219.82693 241.822214 
L 219.928419 241.774809 
L 220.131395 241.91234 
L 220.334372 241.831047 
L 221.755209 241.835942 
L 221.856698 241.731203 
L 222.262651 241.872556 
L 222.567116 241.730271 
L 222.770093 241.841675 
L 222.97307 241.78574 
L 223.074558 241.837946 
L 223.176047 241.702373 
L 223.480512 241.893951 
L 223.683488 241.787837 
L 224.393907 241.768679 
L 224.495395 241.856405 
L 224.799861 241.694425 
L 225.510279 241.807578 
L 225.713256 241.685406 
L 227.032605 241.71356 
L 227.235582 241.636369 
L 227.438558 241.746865 
L 227.540047 241.539998 
L 227.844512 241.77672 
L 227.946 241.58358 
L 228.148977 241.650167 
L 228.757907 241.626441 
L 228.960884 241.627 
L 229.265349 241.644317 
L 229.671303 241.617305 
L 229.874279 241.637674 
L 230.686186 241.571811 
L 230.787675 241.692118 
L 230.990651 241.510911 
L 231.396605 241.591132 
L 231.599582 241.553422 
L 231.70107 241.522984 
L 231.802558 241.633899 
L 232.107024 241.514757 
L 232.411489 241.528834 
L 232.614465 241.572743 
L 233.527861 241.503267 
L 233.832326 241.624716 
L 234.035303 241.524172 
L 234.948698 241.597494 
L 235.151675 241.532563 
L 235.354652 241.638024 
L 235.45614 241.42801 
L 235.659117 241.596306 
L 235.760605 241.668206 
L 236.06507 241.542445 
L 236.674 241.619775 
L 236.775489 241.69375 
L 236.978466 241.576658 
L 238.297814 241.687177 
L 238.399303 241.597844 
L 238.703768 241.740968 
L 238.906745 241.703235 
L 239.21121 241.710833 
L 240.530559 241.72244 
L 240.733535 241.862627 
L 241.139489 241.810141 
L 241.240977 241.904159 
L 241.342466 241.763855 
L 241.646931 241.956505 
L 241.849908 241.889733 
L 242.154373 241.897284 
L 242.255861 241.933712 
L 242.357349 241.800353 
L 242.661815 241.834287 
L 242.864791 241.820023 
L 243.270745 241.659746 
L 243.57521 241.693563 
L 245.199024 241.2668 
L 245.300512 241.118083 
L 245.604977 241.228974 
L 246.112419 241.064991 
L 248.54814 240.539689 
L 248.751117 240.558334 
L 249.461536 240.514774 
L 249.563024 240.672698 
L 249.766001 240.523118 
L 249.867489 240.582316 
L 250.070466 240.570873 
L 250.882373 240.574439 
L 250.983861 240.655125 
L 251.288326 240.550992 
L 251.389815 240.535797 
L 251.491303 240.677313 
L 251.592792 240.549547 
L 251.69428 240.636387 
L 251.897257 240.445741 
L 252.100233 240.578657 
L 252.30321 240.519995 
L 252.506187 240.616157 
L 252.607675 240.454807 
L 252.810652 240.531019 
L 253.216606 240.501257 
L 253.318094 240.444109 
L 253.521071 240.544467 
L 253.622559 240.570127 
L 253.724047 240.435719 
L 253.927024 240.536776 
L 254.130001 240.436209 
L 254.535954 240.590753 
L 254.738931 240.320959 
L 254.84042 240.448701 
L 255.043396 240.535983 
L 255.246373 240.35107 
L 255.44935 240.555747 
L 255.652327 240.513166 
L 255.956792 240.468208 
L 257.174652 240.395819 
L 257.276141 240.264604 
L 257.377629 240.528012 
L 257.682094 240.378013 
L 257.885071 240.364681 
L 258.088048 240.341631 
L 258.291024 240.473662 
L 258.595489 240.298258 
L 259.20442 240.362887 
L 259.305908 240.285883 
L 259.508885 240.371627 
L 259.81335 240.362561 
L 259.914838 240.416934 
L 260.016327 240.171239 
L 260.320792 240.433155 
L 260.726745 240.221674 
L 260.929722 240.308793 
L 261.132699 240.330631 
L 261.538652 240.289775 
L 261.741629 240.227104 
L 261.843117 240.376428 
L 262.046094 240.160937 
L 262.249071 240.350884 
L 262.452048 240.302314 
L 262.858001 240.165272 
L 263.060978 240.257123 
L 263.56842 240.219949 
L 263.872885 240.2158 
L 264.075862 240.101529 
L 264.17735 240.298981 
L 264.278838 240.139262 
L 264.380327 240.267494 
L 264.481815 240.13248 
L 264.78628 240.264161 
L 264.989257 240.101436 
L 265.192234 240.241973 
L 265.395211 240.146604 
L 265.598187 240.192005 
L 265.801164 240.084772 
L 266.105629 240.185502 
L 266.207118 240.196643 
L 266.410094 240.088221 
L 266.816048 240.092184 
L 267.019025 240.088454 
L 267.120513 240.22792 
L 267.424978 240.067642 
L 267.729443 240.136466 
L 267.830932 240.090599 
L 267.93242 240.169001 
L 268.033908 240.012289 
L 268.236885 240.136699 
L 268.338373 240.039651 
L 268.54135 240.114837 
L 268.642839 239.972832 
L 268.744327 240.177695 
L 269.048792 240.046456 
L 269.251769 240.161986 
L 269.454746 239.98614 
L 269.657722 240.124976 
L 269.860699 240.090319 
L 269.962187 239.977796 
L 270.266653 240.09202 
L 270.368141 240.020656 
L 270.571118 240.084702 
L 270.672606 239.979264 
L 270.875583 240.091974 
L 271.07856 240.053984 
L 271.180048 240.107799 
L 271.281536 239.907993 
L 271.586001 240.133459 
L 271.68749 240.00553 
L 271.788978 240.141873 
L 271.991955 239.932978 
L 272.29642 240.14171 
L 272.397908 240.013268 
L 272.499397 240.094234 
L 272.600885 239.910813 
L 272.803862 240.025131 
L 273.108327 240.07475 
L 273.209815 240.123181 
L 273.311304 239.890933 
L 273.615769 240.032006 
L 273.717257 239.983995 
L 273.818746 240.07489 
L 273.920234 239.868233 
L 274.224699 240.090878 
L 274.326188 239.961901 
L 274.427676 240.067619 
L 274.732141 239.971829 
L 274.935118 240.002314 
L 275.036606 239.95118 
L 275.138095 240.058483 
L 275.239583 239.91671 
L 275.544048 239.987655 
L 275.645536 239.886715 
L 275.747025 240.095796 
L 275.950002 239.865459 
L 276.152978 240.110782 
L 276.254467 239.917502 
L 276.355955 240.012942 
L 276.558932 239.888253 
L 276.761909 239.951879 
L 276.863397 239.901351 
L 277.066374 239.993504 
L 277.26935 239.843971 
L 277.472327 239.964302 
L 277.979769 239.87963 
L 278.081257 239.977609 
L 278.182746 239.852361 
L 278.385723 239.924215 
L 278.588699 239.875691 
L 278.690188 239.940156 
L 278.893164 239.866951 
L 278.994653 239.964418 
L 279.19763 239.81309 
L 279.299118 239.79836 
L 279.400606 239.998515 
L 279.80656 239.75219 
L 280.009537 239.902493 
L 280.111025 239.775357 
L 280.314002 239.950388 
L 280.516978 239.809174 
L 280.719955 239.872521 
L 280.821444 239.766128 
L 280.922932 239.925427 
L 281.125909 239.708374 
L 281.328885 239.933724 
L 281.430374 239.789014 
L 281.633351 239.818567 
L 281.734839 239.715506 
L 281.937816 239.796659 
L 282.140792 239.842176 
L 282.648234 239.785752 
L 282.749723 239.68614 
L 282.851211 239.841314 
L 282.952699 239.697747 
L 283.257165 239.916757 
L 283.460141 239.716485 
L 284.17056 239.747249 
L 284.373537 239.741563 
L 284.678002 239.564365 
L 284.77949 239.768039 
L 284.982467 239.659967 
L 285.185444 239.797405 
L 285.38842 239.615382 
L 285.591397 239.661435 
L 287.92563 239.50174 
L 288.027118 239.673205 
L 288.128607 239.560426 
L 288.230095 239.625357 
L 288.433072 239.463891 
L 288.636048 239.554995 
L 288.839025 239.50745 
L 288.940514 239.686373 
L 289.244979 239.411032 
L 289.346467 239.570168 
L 289.447955 239.466758 
L 289.549444 239.561754 
L 289.752421 239.378823 
L 289.955397 239.568163 
L 290.158374 239.50449 
L 290.259862 239.501274 
L 290.361351 239.359222 
L 290.665816 239.425668 
L 290.868793 239.545859 
L 290.970281 239.362578 
L 291.173258 239.445246 
L 291.376235 239.450466 
L 291.6807 239.336032 
L 291.782188 239.526492 
L 291.883676 239.345867 
L 292.086653 239.43033 
L 292.28963 239.314567 
L 292.391118 239.409447 
L 292.594095 239.308065 
L 292.797072 239.388168 
L 292.89856 239.269469 
L 293.101537 239.342535 
L 293.203025 239.304033 
L 293.304514 239.434502 
L 293.50749 239.188223 
L 293.710467 239.424876 
L 293.811956 239.295642 
L 293.913444 239.369244 
L 294.116421 239.19102 
L 294.319397 239.338969 
L 294.522374 239.260799 
L 294.623862 239.311933 
L 294.826839 239.221481 
L 294.928328 239.296901 
L 295.029816 239.206729 
L 295.232793 239.238915 
L 295.334281 239.053932 
L 295.638746 239.280983 
L 296.0447 239.142007 
L 296.146188 239.230571 
L 296.349165 239.190018 
L 296.755118 239.200529 
L 296.856607 238.997414 
L 297.059583 239.206565 
L 297.161072 239.086794 
L 297.364049 239.154243 
L 297.567025 239.141424 
L 297.87149 239.175218 
L 298.175956 239.090407 
L 298.480421 239.226119 
L 298.683397 238.985784 
L 298.987863 239.10453 
L 299.292328 238.949753 
L 299.495304 239.147857 
L 299.698281 239.080361 
L 300.205723 239.055261 
L 300.307211 239.166362 
L 300.611677 238.98984 
L 300.916142 239.088472 
L 301.119118 238.843988 
L 301.220607 239.095953 
L 301.829537 238.913441 
L 302.134002 239.080664 
L 302.235491 239.031208 
L 302.336979 238.849139 
L 302.539956 238.989234 
L 302.641444 238.943483 
L 302.742932 239.061926 
L 302.945909 238.83723 
L 303.148886 238.979585 
L 303.250374 238.892722 
L 303.351863 239.02128 
L 303.554839 238.87396 
L 303.656328 238.937027 
L 303.859305 238.832545 
L 303.960793 239.001703 
L 304.366746 238.877317 
L 304.569723 238.894563 
L 304.7727 238.774256 
L 304.975677 238.951407 
L 305.280142 238.717621 
L 305.483119 238.864312 
L 305.686095 238.832289 
L 306.092049 238.838954 
L 306.599491 238.741487 
L 306.700979 238.863589 
L 306.802467 238.770201 
L 306.903956 238.846179 
L 307.106933 238.663224 
L 307.309909 238.881022 
L 307.411398 238.733516 
L 307.614374 238.748153 
L 307.715863 238.639475 
L 307.817351 238.777192 
L 308.020328 238.689327 
L 308.121816 238.808609 
L 308.426281 238.689561 
L 308.730747 238.725079 
L 308.832235 238.536881 
L 309.1367 238.757475 
L 309.441165 238.562914 
L 309.644142 238.695923 
L 309.74563 238.598945 
L 309.847119 238.717342 
L 310.151584 238.663737 
L 310.253072 238.702076 
L 310.354561 238.58347 
L 310.456049 238.705782 
L 310.659026 238.466216 
L 310.760514 238.646211 
L 310.963491 238.643134 
L 311.064979 238.715128 
L 311.267956 238.475165 
L 311.470933 238.609293 
L 312.688793 238.542264 
L 312.89177 238.602278 
L 313.094747 238.48577 
L 313.399212 238.637191 
L 313.5007 238.415921 
L 313.805165 238.554314 
L 314.10963 238.378351 
L 314.312607 238.555689 
L 314.515584 238.477333 
L 314.921537 238.484162 
L 315.023026 238.414103 
L 315.124514 238.546693 
L 315.428979 238.424008 
L 315.631956 238.59806 
L 315.834933 238.311601 
L 316.139398 238.455611 
L 316.443863 238.258323 
L 316.545351 238.500499 
L 316.748328 238.431606 
L 316.849817 238.463699 
L 316.951305 238.309341 
L 317.154282 238.354975 
L 317.458747 238.476168 
L 317.560235 238.253335 
L 317.661724 238.405806 
L 317.763212 238.297851 
L 317.966189 238.449062 
L 318.169165 238.223573 
L 318.372142 238.489895 
L 318.473631 238.287176 
L 318.575119 238.459247 
L 318.778096 238.240144 
L 318.981072 238.332437 
L 319.387026 238.322928 
L 319.792979 238.288155 
L 319.995956 238.190595 
L 320.097445 238.333859 
L 320.198933 238.281932 
L 320.300421 238.404803 
L 320.503398 238.207702 
L 320.807863 238.285032 
L 320.909352 238.257927 
L 321.01084 238.106179 
L 321.213817 238.348658 
L 321.416793 238.113148 
L 321.61977 238.292071 
L 321.924235 238.115898 
L 322.127212 238.17174 
L 322.431677 238.290323 
L 322.533166 238.036144 
L 322.736142 238.221313 
L 322.837631 238.138761 
L 322.939119 238.279439 
L 323.040607 238.015751 
L 323.345073 238.276455 
L 323.649538 238.107717 
L 323.954003 238.070544 
L 324.055491 238.219518 
L 324.15698 238.056443 
L 324.359956 238.14897 
L 324.76591 238.02519 
L 324.968887 238.187542 
L 325.070375 238.031156 
L 325.171863 238.176122 
L 325.273352 237.989741 
L 325.37484 238.12606 
L 325.577817 238.087138 
L 325.780794 238.105853 
L 325.98377 238.008875 
L 326.085259 238.095808 
L 326.186747 238.014166 
L 326.288235 238.099374 
L 326.389724 237.893276 
L 326.592701 238.212736 
L 326.795677 237.928212 
L 326.897166 238.088024 
L 327.100142 237.988039 
L 327.201631 238.074436 
L 327.404608 237.937464 
L 327.607584 238.111866 
L 327.709073 237.865704 
L 327.810561 237.915673 
L 327.912049 238.184395 
L 328.013538 237.872253 
L 328.216515 238.044231 
L 328.318003 237.877893 
L 328.52098 237.915137 
L 328.622468 237.873139 
L 328.825445 238.165191 
L 329.028422 237.90374 
L 329.231398 237.945435 
L 329.332887 237.823357 
L 329.535863 237.971072 
L 329.637352 237.796601 
L 329.73884 238.088932 
L 329.941817 237.744721 
L 330.043305 237.967833 
L 330.34777 237.844146 
L 330.449259 238.057376 
L 330.550747 237.750874 
L 330.753724 237.908774 
L 331.058189 237.860157 
L 331.159677 237.927023 
L 331.261166 237.695055 
L 331.464143 237.906048 
L 331.565631 237.747984 
L 331.768608 237.921546 
L 331.870096 237.687387 
L 332.073073 237.967203 
L 332.174561 237.661238 
L 332.377538 237.814477 
L 332.580515 237.833775 
L 332.682003 237.867499 
L 332.88498 237.646205 
L 332.986468 237.90078 
L 333.189445 237.597635 
L 333.392422 237.937954 
L 333.49391 237.63912 
L 333.696887 237.834217 
L 333.899864 237.67895 
L 334.204329 237.743462 
L 334.305817 237.902575 
L 334.508794 237.537504 
L 334.610282 237.811191 
L 334.914747 237.674895 
L 335.016236 237.753764 
L 335.117724 237.576752 
L 335.320701 237.808813 
L 335.422189 237.531048 
L 335.625166 237.715378 
L 335.828143 237.592554 
L 335.929631 237.741738 
L 336.132608 237.585608 
L 336.234096 237.716893 
L 336.437073 237.456818 
L 336.64005 237.68473 
L 336.741538 237.486044 
L 336.944515 237.727847 
L 337.147492 237.461153 
L 337.24898 237.61861 
L 337.451957 237.613669 
L 337.654933 237.571065 
L 337.756422 237.439384 
L 337.959399 237.627327 
L 338.060887 237.375945 
L 338.263864 237.613996 
L 338.46684 237.509094 
L 338.568329 237.680232 
L 338.771306 237.444768 
L 338.872794 237.578803 
L 338.974282 237.362916 
L 339.177259 237.590596 
L 339.278747 237.425447 
L 339.481724 237.587473 
L 339.684701 237.346299 
L 339.887678 237.441459 
L 339.989166 237.355785 
L 340.192143 237.51224 
L 340.293631 237.349259 
L 340.496608 237.543074 
L 340.699585 237.251558 
L 340.801073 237.46656 
L 340.902561 237.351706 
L 341.105538 237.48658 
L 341.308515 237.209188 
L 341.511492 237.395265 
L 341.61298 237.224313 
L 342.120422 237.44591 
L 342.323399 237.214059 
L 342.424887 237.35977 
L 342.627864 237.186184 
L 342.830841 237.448987 
L 342.932329 237.168262 
L 343.135306 237.367368 
L 343.338282 237.169427 
L 343.439771 237.277149 
L 343.541259 237.145724 
L 343.744236 237.385756 
L 343.947213 237.116265 
L 344.150189 237.226085 
L 344.251678 237.053501 
L 344.454655 237.262209 
L 344.556143 237.085664 
L 344.75912 237.308682 
L 344.962096 237.0229 
L 345.063585 237.251861 
L 345.266562 236.954426 
L 345.36805 237.135167 
L 345.469538 237.20737 
L 345.571027 237.067625 
L 345.774003 237.262629 
L 345.97698 236.968503 
L 346.078469 237.191032 
L 346.281445 237.015325 
L 346.484422 237.176162 
L 346.58591 236.897185 
L 346.788887 237.096105 
L 346.991864 236.933683 
L 347.093352 237.06033 
L 347.194841 236.894901 
L 347.397817 237.173366 
L 347.600794 236.8416 
L 347.702283 237.093588 
L 347.905259 236.800464 
L 348.108236 237.042058 
L 348.209724 236.864254 
L 348.412701 237.132883 
L 348.615678 236.80713 
L 348.717166 236.997869 
L 349.021631 236.916949 
L 349.12312 237.022434 
L 349.224608 236.797644 
L 349.427585 237.034203 
L 349.630562 236.725651 
L 349.73205 236.960416 
L 349.935027 236.776179 
L 350.036515 236.994653 
L 350.239492 236.719847 
L 350.34098 236.845632 
L 350.442469 236.955265 
L 350.645445 236.702298 
L 350.746934 236.839386 
L 350.848422 236.769024 
L 351.051399 236.854069 
L 351.152887 236.841949 
L 351.254376 236.600076 
L 351.457352 236.871712 
L 351.558841 236.575441 
L 351.761818 236.831275 
L 351.964794 236.74045 
L 352.066283 236.806314 
L 352.269259 236.600286 
L 352.472236 236.773638 
L 352.675213 236.638065 
L 352.776701 236.804333 
L 352.979678 236.670181 
L 353.081166 236.823234 
L 353.284143 236.609468 
L 353.48712 236.702507 
L 353.588608 236.518201 
L 353.791585 236.704139 
L 353.994562 236.600332 
L 354.09605 236.782262 
L 354.299027 236.498437 
L 354.502004 236.691507 
L 354.603492 236.477927 
L 354.806469 236.604667 
L 354.907957 236.522396 
L 355.110934 236.676195 
L 355.313911 236.391857 
L 355.415399 236.746976 
L 355.618376 236.420547 
L 355.719864 236.54167 
L 356.328794 236.688803 
L 356.531771 236.424113 
L 356.63326 236.584065 
L 356.937725 236.475573 
L 357.039213 236.528176 
L 357.140701 236.382837 
L 357.343678 236.632262 
L 357.546655 236.355546 
L 357.749632 236.52771 
L 357.85112 236.282574 
L 358.054097 236.502888 
L 358.155585 236.37454 
L 358.358562 236.572108 
L 358.561539 236.276794 
L 358.663027 236.525729 
L 358.866004 236.255701 
L 359.068981 236.356897 
L 359.271957 236.374051 
L 359.373446 236.564301 
L 359.576422 236.212585 
L 359.677911 236.435184 
L 359.880888 236.330445 
L 360.083864 236.278611 
L 360.185353 236.267727 
L 360.286841 236.380437 
L 360.692795 236.243489 
L 360.794283 236.319304 
L 360.895771 236.201421 
L 360.99726 236.303037 
L 361.200236 236.24202 
L 362.012143 236.258615 
L 362.113632 236.102998 
L 362.316609 236.131012 
L 362.519585 236.170377 
L 362.621074 236.014178 
L 362.925539 236.218504 
L 363.128516 236.041772 
L 363.432981 236.175621 
L 363.635957 236.048461 
L 363.940423 236.131385 
L 364.143399 235.984252 
L 364.447864 236.131735 
L 364.650841 235.977284 
L 364.75233 236.089877 
L 365.056795 235.869701 
L 365.259771 236.167137 
L 365.36126 235.962461 
L 365.462748 236.031075 
L 365.564237 235.861451 
L 365.767213 235.975163 
L 365.868702 235.909765 
L 365.97019 236.069926 
L 366.071678 235.819803 
L 366.173167 235.959804 
L 366.274655 235.881681 
L 366.376144 235.977517 
L 366.477632 235.864994 
L 366.680609 235.951204 
L 368.202934 235.674651 
L 368.405911 235.656472 
L 368.710376 235.529126 
L 368.811865 235.636498 
L 369.014841 235.341486 
L 369.11633 235.587531 
L 369.319306 235.452308 
L 369.420795 235.465639 
L 369.522283 235.339389 
L 369.623772 235.454592 
L 369.826748 235.366354 
L 369.928237 235.364956 
L 370.029725 235.22598 
L 370.232702 235.344027 
L 370.33419 235.206729 
L 370.435679 235.292706 
L 370.638655 235.241549 
L 370.740144 235.254251 
L 370.841632 235.095861 
L 370.94312 235.208803 
L 371.146097 235.091456 
L 371.247586 235.221901 
L 371.349074 235.007763 
L 371.552051 235.049667 
L 371.653539 234.928195 
L 371.755027 235.135109 
L 371.958004 234.899528 
L 372.059493 235.000817 
L 372.465446 234.828047 
L 372.566934 234.920574 
L 372.668423 234.73396 
L 372.769911 234.850724 
L 372.972888 234.71063 
L 373.074376 234.815019 
L 373.378841 234.614445 
L 373.48033 234.575523 
L 373.581818 234.713264 
L 373.581818 234.713264 
" style="fill:none;stroke:#081d58;stroke-dasharray:5.55,2.4;stroke-dashoffset:0;stroke-width:1.5;"/>
    <defs>
     <path d="M -0 4.242641 
L 4.242641 0 
L 0 -4.242641 
L -4.242641 -0 
z
" id="m983fa6b6dc" style="stroke:#081d58;stroke-linejoin:miter;"/>
    </defs>
    <g clip-path="url(#pf0ce763d95)">
     <use style="fill:#081d58;stroke:#081d58;stroke-linejoin:miter;" x="69.218182" xlink:href="#m983fa6b6dc" y="215.235095"/>
     <use style="fill:#081d58;stroke:#081d58;stroke-linejoin:miter;" x="77.337252" xlink:href="#m983fa6b6dc" y="214.962644"/>
     <use style="fill:#081d58;stroke:#081d58;stroke-linejoin:miter;" x="85.456322" xlink:href="#m983fa6b6dc" y="215.091761"/>
     <use style="fill:#081d58;stroke:#081d58;stroke-linejoin:miter;" x="93.575392" xlink:href="#m983fa6b6dc" y="214.881957"/>
     <use style="fill:#081d58;stroke:#081d58;stroke-linejoin:miter;" x="101.694462" xlink:href="#m983fa6b6dc" y="214.858674"/>
     <use style="fill:#081d58;stroke:#081d58;stroke-linejoin:miter;" x="109.813532" xlink:href="#m983fa6b6dc" y="215.824"/>
     <use style="fill:#081d58;stroke:#081d58;stroke-linejoin:miter;" x="117.932602" xlink:href="#m983fa6b6dc" y="215.583688"/>
     <use style="fill:#081d58;stroke:#081d58;stroke-linejoin:miter;" x="126.051672" xlink:href="#m983fa6b6dc" y="214.719628"/>
     <use style="fill:#081d58;stroke:#081d58;stroke-linejoin:miter;" x="134.170742" xlink:href="#m983fa6b6dc" y="215.342467"/>
     <use style="fill:#081d58;stroke:#081d58;stroke-linejoin:miter;" x="142.289812" xlink:href="#m983fa6b6dc" y="216.682559"/>
     <use style="fill:#081d58;stroke:#081d58;stroke-linejoin:miter;" x="150.408882" xlink:href="#m983fa6b6dc" y="218.822805"/>
     <use style="fill:#081d58;stroke:#081d58;stroke-linejoin:miter;" x="158.527952" xlink:href="#m983fa6b6dc" y="223.941043"/>
     <use style="fill:#081d58;stroke:#081d58;stroke-linejoin:miter;" x="166.647022" xlink:href="#m983fa6b6dc" y="232.984538"/>
     <use style="fill:#081d58;stroke:#081d58;stroke-linejoin:miter;" x="174.766092" xlink:href="#m983fa6b6dc" y="238.510987"/>
     <use style="fill:#081d58;stroke:#081d58;stroke-linejoin:miter;" x="182.885162" xlink:href="#m983fa6b6dc" y="240.410642"/>
     <use style="fill:#081d58;stroke:#081d58;stroke-linejoin:miter;" x="191.004232" xlink:href="#m983fa6b6dc" y="241.039074"/>
     <use style="fill:#081d58;stroke:#081d58;stroke-linejoin:miter;" x="199.123302" xlink:href="#m983fa6b6dc" y="241.274888"/>
     <use style="fill:#081d58;stroke:#081d58;stroke-linejoin:miter;" x="207.242372" xlink:href="#m983fa6b6dc" y="241.847851"/>
     <use style="fill:#081d58;stroke:#081d58;stroke-linejoin:miter;" x="215.361442" xlink:href="#m983fa6b6dc" y="242.051595"/>
     <use style="fill:#081d58;stroke:#081d58;stroke-linejoin:miter;" x="223.480512" xlink:href="#m983fa6b6dc" y="241.893951"/>
     <use style="fill:#081d58;stroke:#081d58;stroke-linejoin:miter;" x="231.599582" xlink:href="#m983fa6b6dc" y="241.553422"/>
     <use style="fill:#081d58;stroke:#081d58;stroke-linejoin:miter;" x="239.718652" xlink:href="#m983fa6b6dc" y="241.79991"/>
     <use style="fill:#081d58;stroke:#081d58;stroke-linejoin:miter;" x="247.837722" xlink:href="#m983fa6b6dc" y="240.656384"/>
     <use style="fill:#081d58;stroke:#081d58;stroke-linejoin:miter;" x="255.956792" xlink:href="#m983fa6b6dc" y="240.468208"/>
     <use style="fill:#081d58;stroke:#081d58;stroke-linejoin:miter;" x="264.075862" xlink:href="#m983fa6b6dc" y="240.101529"/>
     <use style="fill:#081d58;stroke:#081d58;stroke-linejoin:miter;" x="272.194932" xlink:href="#m983fa6b6dc" y="240.039768"/>
     <use style="fill:#081d58;stroke:#081d58;stroke-linejoin:miter;" x="280.314002" xlink:href="#m983fa6b6dc" y="239.950388"/>
     <use style="fill:#081d58;stroke:#081d58;stroke-linejoin:miter;" x="288.433072" xlink:href="#m983fa6b6dc" y="239.463891"/>
     <use style="fill:#081d58;stroke:#081d58;stroke-linejoin:miter;" x="296.552142" xlink:href="#m983fa6b6dc" y="239.170697"/>
     <use style="fill:#081d58;stroke:#081d58;stroke-linejoin:miter;" x="304.671212" xlink:href="#m983fa6b6dc" y="238.757359"/>
     <use style="fill:#081d58;stroke:#081d58;stroke-linejoin:miter;" x="312.790282" xlink:href="#m983fa6b6dc" y="238.632507"/>
     <use style="fill:#081d58;stroke:#081d58;stroke-linejoin:miter;" x="320.909352" xlink:href="#m983fa6b6dc" y="238.257927"/>
     <use style="fill:#081d58;stroke:#081d58;stroke-linejoin:miter;" x="329.028422" xlink:href="#m983fa6b6dc" y="237.90374"/>
     <use style="fill:#081d58;stroke:#081d58;stroke-linejoin:miter;" x="337.147492" xlink:href="#m983fa6b6dc" y="237.461153"/>
     <use style="fill:#081d58;stroke:#081d58;stroke-linejoin:miter;" x="345.266562" xlink:href="#m983fa6b6dc" y="236.954426"/>
     <use style="fill:#081d58;stroke:#081d58;stroke-linejoin:miter;" x="353.385632" xlink:href="#m983fa6b6dc" y="236.713019"/>
     <use style="fill:#081d58;stroke:#081d58;stroke-linejoin:miter;" x="361.504702" xlink:href="#m983fa6b6dc" y="236.200186"/>
     <use style="fill:#081d58;stroke:#081d58;stroke-linejoin:miter;" x="369.623772" xlink:href="#m983fa6b6dc" y="235.454592"/>
    </g>
   </g>
   <g id="patch_3">
    <path d="M 54 252 
L 54 34.56 
" style="fill:none;stroke:#000000;stroke-linecap:square;stroke-linejoin:miter;stroke-width:0.8;"/>
   </g>
   <g id="patch_4">
    <path d="M 388.8 252 
L 388.8 34.56 
" style="fill:none;stroke:#000000;stroke-linecap:square;stroke-linejoin:miter;stroke-width:0.8;"/>
   </g>
   <g id="patch_5">
    <path d="M 54 252 
L 388.8 252 
" style="fill:none;stroke:#000000;stroke-linecap:square;stroke-linejoin:miter;stroke-width:0.8;"/>
   </g>
   <g id="patch_6">
    <path d="M 54 34.56 
L 388.8 34.56 
" style="fill:none;stroke:#000000;stroke-linecap:square;stroke-linejoin:miter;stroke-width:0.8;"/>
   </g>
   <g id="legend_1">
    <g id="patch_7">
     <path d="M 280.085938 71.91625 
L 381.8 71.91625 
Q 383.8 71.91625 383.8 69.91625 
L 383.8 41.56 
Q 383.8 39.56 381.8 39.56 
L 280.085938 39.56 
Q 278.085938 39.56 278.085938 41.56 
L 278.085938 69.91625 
Q 278.085938 71.91625 280.085938 71.91625 
z
" style="fill:#ffffff;opacity:0.8;stroke:#cccccc;stroke-linejoin:miter;"/>
    </g>
    <g id="line2d_17">
     <path d="M 282.085938 47.658437 
L 302.085938 47.658437 
" style="fill:none;stroke:#40b5c4;stroke-dasharray:5.55,2.4;stroke-dashoffset:0;stroke-width:1.5;"/>
    </g>
    <g id="line2d_18">
     <g>
      <use style="fill:#40b5c4;stroke:#40b5c4;" x="292.085938" xlink:href="#m3f7e595900" y="47.658437"/>
     </g>
    </g>
    <g id="text_17">
     <text style="font-family:DejaVu Sans;font-size:10px;font-style:normal;font-weight:normal;text-anchor:start;" transform="rotate(-0, 310.085938, 51.158437)" x="310.085938" y="51.158437">original</text>
    </g>
    <g id="line2d_19">
     <path d="M 282.085938 62.336562 
L 302.085938 62.336562 
" style="fill:none;stroke:#081d58;stroke-dasharray:5.55,2.4;stroke-dashoffset:0;stroke-width:1.5;"/>
    </g>
    <g id="line2d_20">
     <g>
      <use style="fill:#081d58;stroke:#081d58;stroke-linejoin:miter;" x="292.085938" xlink:href="#m983fa6b6dc" y="62.336562"/>
     </g>
    </g>
    <g id="text_18">
     <text style="font-family:DejaVu Sans;font-size:10px;font-style:normal;font-weight:normal;text-anchor:start;" transform="rotate(-0, 310.085938, 65.836562)" x="310.085938" y="65.836562">reconstructed</text>
    </g>
   </g>
  </g>
  <g id="text_19">
   <text style="font-family:DejaVu Sans;font-size:12px;font-style:normal;font-weight:normal;text-anchor:middle;" transform="rotate(-0, 216, 14.878125)" x="216" y="14.878125">Reconstruction of the weight curve</text>
  </g>
 </g>
 <defs>
  <clipPath id="pf0ce763d95">
   <rect height="217.44" width="334.8" x="54" y="34.56"/>
  </clipPath>
 </defs>
</svg>
