<?xml version="1.0" encoding="utf-8" standalone="no"?>
<!DOCTYPE svg PUBLIC "-//W3C//DTD SVG 1.1//EN"
  "http://www.w3.org/Graphics/SVG/1.1/DTD/svg11.dtd">
<!-- Created with matplotlib (https://matplotlib.org/) -->
<svg height="288pt" version="1.1" viewBox="0 0 432 288" width="432pt" xmlns="http://www.w3.org/2000/svg" xmlns:xlink="http://www.w3.org/1999/xlink">
 <defs>
  <style type="text/css">
*{stroke-linecap:butt;stroke-linejoin:round;}
  </style>
 </defs>
 <g id="figure_1">
  <g id="patch_1">
   <path d="M 0 288 
L 432 288 
L 432 0 
L 0 0 
z
" style="fill:#ffffff;"/>
  </g>
  <g id="axes_1">
   <g id="patch_2">
    <path d="M 54 252 
L 388.8 252 
L 388.8 34.56 
L 54 34.56 
z
" style="fill:#ffffff;"/>
   </g>
   <g id="matplotlib.axis_1">
    <g id="xtick_1">
     <g id="line2d_1">
      <defs>
       <path d="M 0 0 
L 0 3.5 
" id="m89a3dbd94a" style="stroke:#000000;stroke-width:0.8;"/>
      </defs>
      <g>
       <use style="stroke:#000000;stroke-width:0.8;" x="69.218182" xlink:href="#m89a3dbd94a" y="252"/>
      </g>
     </g>
     <g id="text_1">
      <text style="font-family:DejaVu Sans;font-size:10px;font-style:normal;font-weight:normal;text-anchor:middle;" transform="rotate(-0, 69.218182, 266.598437)" x="69.218182" y="266.598437">0</text>
     </g>
    </g>
    <g id="xtick_2">
     <g id="line2d_2">
      <g>
       <use style="stroke:#000000;stroke-width:0.8;" x="119.962369" xlink:href="#m89a3dbd94a" y="252"/>
      </g>
     </g>
     <g id="text_2">
      <text style="font-family:DejaVu Sans;font-size:10px;font-style:normal;font-weight:normal;text-anchor:middle;" transform="rotate(-0, 119.962369, 266.598437)" x="119.962369" y="266.598437">500</text>
     </g>
    </g>
    <g id="xtick_3">
     <g id="line2d_3">
      <g>
       <use style="stroke:#000000;stroke-width:0.8;" x="170.706557" xlink:href="#m89a3dbd94a" y="252"/>
      </g>
     </g>
     <g id="text_3">
      <text style="font-family:DejaVu Sans;font-size:10px;font-style:normal;font-weight:normal;text-anchor:middle;" transform="rotate(-0, 170.706557, 266.598437)" x="170.706557" y="266.598437">1000</text>
     </g>
    </g>
    <g id="xtick_4">
     <g id="line2d_4">
      <g>
       <use style="stroke:#000000;stroke-width:0.8;" x="221.450744" xlink:href="#m89a3dbd94a" y="252"/>
      </g>
     </g>
     <g id="text_4">
      <text style="font-family:DejaVu Sans;font-size:10px;font-style:normal;font-weight:normal;text-anchor:middle;" transform="rotate(-0, 221.450744, 266.598437)" x="221.450744" y="266.598437">1500</text>
     </g>
    </g>
    <g id="xtick_5">
     <g id="line2d_5">
      <g>
       <use style="stroke:#000000;stroke-width:0.8;" x="272.194932" xlink:href="#m89a3dbd94a" y="252"/>
      </g>
     </g>
     <g id="text_5">
      <text style="font-family:DejaVu Sans;font-size:10px;font-style:normal;font-weight:normal;text-anchor:middle;" transform="rotate(-0, 272.194932, 266.598437)" x="272.194932" y="266.598437">2000</text>
     </g>
    </g>
    <g id="xtick_6">
     <g id="line2d_6">
      <g>
       <use style="stroke:#000000;stroke-width:0.8;" x="322.939119" xlink:href="#m89a3dbd94a" y="252"/>
      </g>
     </g>
     <g id="text_6">
      <text style="font-family:DejaVu Sans;font-size:10px;font-style:normal;font-weight:normal;text-anchor:middle;" transform="rotate(-0, 322.939119, 266.598437)" x="322.939119" y="266.598437">2500</text>
     </g>
    </g>
    <g id="xtick_7">
     <g id="line2d_7">
      <g>
       <use style="stroke:#000000;stroke-width:0.8;" x="373.683307" xlink:href="#m89a3dbd94a" y="252"/>
      </g>
     </g>
     <g id="text_7">
      <text style="font-family:DejaVu Sans;font-size:10px;font-style:normal;font-weight:normal;text-anchor:middle;" transform="rotate(-0, 373.683307, 266.598437)" x="373.683307" y="266.598437">3000</text>
     </g>
    </g>
    <g id="text_8">
     <text style="font-family:DejaVu Sans;font-size:10px;font-style:normal;font-weight:normal;text-anchor:middle;" transform="rotate(-0, 221.4, 280.276563)" x="221.4" y="280.276563">Time</text>
    </g>
   </g>
   <g id="matplotlib.axis_2">
    <g id="ytick_1">
     <g id="line2d_8">
      <defs>
       <path d="M 0 0 
L -3.5 0 
" id="m10244c9382" style="stroke:#000000;stroke-width:0.8;"/>
      </defs>
      <g>
       <use style="stroke:#000000;stroke-width:0.8;" x="54" xlink:href="#m10244c9382" y="225.246132"/>
      </g>
     </g>
     <g id="text_9">
      <text style="font-family:DejaVu Sans;font-size:10px;font-style:normal;font-weight:normal;text-anchor:end;" transform="rotate(-0, 47, 229.045351)" x="47" y="229.045351">65</text>
     </g>
    </g>
    <g id="ytick_2">
     <g id="line2d_9">
      <g>
       <use style="stroke:#000000;stroke-width:0.8;" x="54" xlink:href="#m10244c9382" y="189.173657"/>
      </g>
     </g>
     <g id="text_10">
      <text style="font-family:DejaVu Sans;font-size:10px;font-style:normal;font-weight:normal;text-anchor:end;" transform="rotate(-0, 47, 192.972876)" x="47" y="192.972876">70</text>
     </g>
    </g>
    <g id="ytick_3">
     <g id="line2d_10">
      <g>
       <use style="stroke:#000000;stroke-width:0.8;" x="54" xlink:href="#m10244c9382" y="153.101181"/>
      </g>
     </g>
     <g id="text_11">
      <text style="font-family:DejaVu Sans;font-size:10px;font-style:normal;font-weight:normal;text-anchor:end;" transform="rotate(-0, 47, 156.9004)" x="47" y="156.9004">75</text>
     </g>
    </g>
    <g id="ytick_4">
     <g id="line2d_11">
      <g>
       <use style="stroke:#000000;stroke-width:0.8;" x="54" xlink:href="#m10244c9382" y="117.028705"/>
      </g>
     </g>
     <g id="text_12">
      <text style="font-family:DejaVu Sans;font-size:10px;font-style:normal;font-weight:normal;text-anchor:end;" transform="rotate(-0, 47, 120.827924)" x="47" y="120.827924">80</text>
     </g>
    </g>
    <g id="ytick_5">
     <g id="line2d_12">
      <g>
       <use style="stroke:#000000;stroke-width:0.8;" x="54" xlink:href="#m10244c9382" y="80.95623"/>
      </g>
     </g>
     <g id="text_13">
      <text style="font-family:DejaVu Sans;font-size:10px;font-style:normal;font-weight:normal;text-anchor:end;" transform="rotate(-0, 47, 84.755448)" x="47" y="84.755448">85</text>
     </g>
    </g>
    <g id="ytick_6">
     <g id="line2d_13">
      <g>
       <use style="stroke:#000000;stroke-width:0.8;" x="54" xlink:href="#m10244c9382" y="44.883754"/>
      </g>
     </g>
     <g id="text_14">
      <text style="font-family:DejaVu Sans;font-size:10px;font-style:normal;font-weight:normal;text-anchor:end;" transform="rotate(-0, 47, 48.682973)" x="47" y="48.682973">90</text>
     </g>
    </g>
    <g id="text_15">
     <text style="font-family:DejaVu Sans;font-size:10px;font-style:normal;font-weight:normal;text-anchor:middle;" transform="rotate(-90, 28.195312, 143.28)" x="28.195312" y="143.28">weight (\%)</text>
    </g>
   </g>
   <g id="line2d_14">
    <path clip-path="url(#p13737bfb6c)" d="M 69.218182 192.997844 
L 86.775671 193.219834 
L 92.763485 193.499612 
L 99.563206 194.074103 
L 110.52395 195.014656 
L 130.821625 196.739065 
L 135.388602 197.409364 
L 139.448137 198.220201 
L 142.492789 199.040345 
L 145.334463 200.01661 
L 147.770184 201.081542 
L 149.90144 202.26003 
L 151.931207 203.636627 
L 153.960975 205.271721 
L 156.193719 207.369407 
L 158.527952 209.896861 
L 160.760696 212.657343 
L 162.688975 215.378723 
L 164.718743 218.632605 
L 166.951487 222.644586 
L 172.025906 231.939092 
L 173.243766 233.636735 
L 174.25865 234.70751 
L 175.172045 235.382787 
L 176.288417 235.919762 
L 178.115208 236.502909 
L 181.362836 237.271902 
L 185.422371 238.002731 
L 190.902743 238.753976 
L 199.935209 239.747051 
L 209.576604 240.595548 
L 218.406093 241.138222 
L 229.062372 241.557673 
L 245.706466 241.932178 
L 262.95949 242.103522 
L 279.299118 242.097606 
L 326.389724 241.852602 
L 366.883585 241.568928 
L 373.581818 241.544182 
L 373.581818 241.544182 
" style="fill:none;stroke:#40b5c4;stroke-dasharray:5.55,2.4;stroke-dashoffset:0;stroke-width:1.5;"/>
    <defs>
     <path d="M 0 3 
C 0.795609 3 1.55874 2.683901 2.12132 2.12132 
C 2.683901 1.55874 3 0.795609 3 0 
C 3 -0.795609 2.683901 -1.55874 2.12132 -2.12132 
C 1.55874 -2.683901 0.795609 -3 0 -3 
C -0.795609 -3 -1.55874 -2.683901 -2.12132 -2.12132 
C -2.683901 -1.55874 -3 -0.795609 -3 0 
C -3 0.795609 -2.683901 1.55874 -2.12132 2.12132 
C -1.55874 2.683901 -0.795609 3 0 3 
z
" id="m00729b6a42" style="stroke:#40b5c4;"/>
    </defs>
    <g clip-path="url(#p13737bfb6c)">
     <use style="fill:#40b5c4;stroke:#40b5c4;" x="69.218182" xlink:href="#m00729b6a42" y="192.997844"/>
     <use style="fill:#40b5c4;stroke:#40b5c4;" x="77.337252" xlink:href="#m00729b6a42" y="193.072226"/>
     <use style="fill:#40b5c4;stroke:#40b5c4;" x="85.456322" xlink:href="#m00729b6a42" y="193.185133"/>
     <use style="fill:#40b5c4;stroke:#40b5c4;" x="93.575392" xlink:href="#m00729b6a42" y="193.555597"/>
     <use style="fill:#40b5c4;stroke:#40b5c4;" x="101.694462" xlink:href="#m00729b6a42" y="194.274305"/>
     <use style="fill:#40b5c4;stroke:#40b5c4;" x="109.813532" xlink:href="#m00729b6a42" y="194.960403"/>
     <use style="fill:#40b5c4;stroke:#40b5c4;" x="117.932602" xlink:href="#m00729b6a42" y="195.557186"/>
     <use style="fill:#40b5c4;stroke:#40b5c4;" x="126.051672" xlink:href="#m00729b6a42" y="196.222651"/>
     <use style="fill:#40b5c4;stroke:#40b5c4;" x="134.170742" xlink:href="#m00729b6a42" y="197.209017"/>
     <use style="fill:#40b5c4;stroke:#40b5c4;" x="142.289812" xlink:href="#m00729b6a42" y="198.979526"/>
     <use style="fill:#40b5c4;stroke:#40b5c4;" x="150.408882" xlink:href="#m00729b6a42" y="202.579055"/>
     <use style="fill:#40b5c4;stroke:#40b5c4;" x="158.527952" xlink:href="#m00729b6a42" y="209.896861"/>
     <use style="fill:#40b5c4;stroke:#40b5c4;" x="166.647022" xlink:href="#m00729b6a42" y="222.076228"/>
     <use style="fill:#40b5c4;stroke:#40b5c4;" x="174.766092" xlink:href="#m00729b6a42" y="235.11484"/>
     <use style="fill:#40b5c4;stroke:#40b5c4;" x="182.885162" xlink:href="#m00729b6a42" y="237.57116"/>
     <use style="fill:#40b5c4;stroke:#40b5c4;" x="191.004232" xlink:href="#m00729b6a42" y="238.766385"/>
     <use style="fill:#40b5c4;stroke:#40b5c4;" x="199.123302" xlink:href="#m00729b6a42" y="239.665095"/>
     <use style="fill:#40b5c4;stroke:#40b5c4;" x="207.242372" xlink:href="#m00729b6a42" y="240.414031"/>
     <use style="fill:#40b5c4;stroke:#40b5c4;" x="215.361442" xlink:href="#m00729b6a42" y="240.974381"/>
     <use style="fill:#40b5c4;stroke:#40b5c4;" x="223.480512" xlink:href="#m00729b6a42" y="241.362882"/>
     <use style="fill:#40b5c4;stroke:#40b5c4;" x="231.599582" xlink:href="#m00729b6a42" y="241.631117"/>
     <use style="fill:#40b5c4;stroke:#40b5c4;" x="239.718652" xlink:href="#m00729b6a42" y="241.825764"/>
     <use style="fill:#40b5c4;stroke:#40b5c4;" x="247.837722" xlink:href="#m00729b6a42" y="241.962839"/>
     <use style="fill:#40b5c4;stroke:#40b5c4;" x="255.956792" xlink:href="#m00729b6a42" y="242.059081"/>
     <use style="fill:#40b5c4;stroke:#40b5c4;" x="264.075862" xlink:href="#m00729b6a42" y="242.108428"/>
     <use style="fill:#40b5c4;stroke:#40b5c4;" x="272.194932" xlink:href="#m00729b6a42" y="242.115354"/>
     <use style="fill:#40b5c4;stroke:#40b5c4;" x="280.314002" xlink:href="#m00729b6a42" y="242.095153"/>
     <use style="fill:#40b5c4;stroke:#40b5c4;" x="288.433072" xlink:href="#m00729b6a42" y="242.065213"/>
     <use style="fill:#40b5c4;stroke:#40b5c4;" x="296.552142" xlink:href="#m00729b6a42" y="242.053237"/>
     <use style="fill:#40b5c4;stroke:#40b5c4;" x="304.671212" xlink:href="#m00729b6a42" y="242.01702"/>
     <use style="fill:#40b5c4;stroke:#40b5c4;" x="312.790282" xlink:href="#m00729b6a42" y="241.951873"/>
     <use style="fill:#40b5c4;stroke:#40b5c4;" x="320.909352" xlink:href="#m00729b6a42" y="241.89055"/>
     <use style="fill:#40b5c4;stroke:#40b5c4;" x="329.028422" xlink:href="#m00729b6a42" y="241.836297"/>
     <use style="fill:#40b5c4;stroke:#40b5c4;" x="337.147492" xlink:href="#m00729b6a42" y="241.779014"/>
     <use style="fill:#40b5c4;stroke:#40b5c4;" x="345.266562" xlink:href="#m00729b6a42" y="241.744745"/>
     <use style="fill:#40b5c4;stroke:#40b5c4;" x="353.385632" xlink:href="#m00729b6a42" y="241.670364"/>
     <use style="fill:#40b5c4;stroke:#40b5c4;" x="361.504702" xlink:href="#m00729b6a42" y="241.603269"/>
     <use style="fill:#40b5c4;stroke:#40b5c4;" x="369.623772" xlink:href="#m00729b6a42" y="241.556663"/>
    </g>
   </g>
   <g id="line2d_15">
    <path clip-path="url(#p13737bfb6c)" d="M 69.218182 47.501838 
L 69.31967 47.61605 
L 69.421159 48.031014 
L 69.522647 47.745179 
L 69.624135 47.893518 
L 69.725624 47.163933 
L 69.827112 48.127062 
L 69.9286 47.403973 
L 70.131577 48.007125 
L 70.233066 47.249304 
L 70.334554 48.23467 
L 70.537531 47.444649 
L 70.639019 47.919718 
L 70.740507 47.253983 
L 70.841996 48.151501 
L 70.943484 47.405459 
L 71.044973 47.593208 
L 71.146461 48.042022 
L 71.247949 47.367259 
L 71.349438 48.3136 
L 71.552414 47.610216 
L 71.653903 47.806166 
L 71.755391 47.337261 
L 71.85688 48.049012 
L 72.059856 47.588144 
L 72.161345 47.796314 
L 72.262833 47.484004 
L 72.364321 47.986154 
L 72.46581 47.607739 
L 72.668787 48.043233 
L 72.770275 47.541413 
L 72.871763 47.863905 
L 73.07474 47.429292 
L 73.176228 48.040206 
L 73.277717 47.255964 
L 73.480694 47.877061 
L 73.582182 47.428191 
L 73.68367 48.173518 
L 73.785159 47.479656 
L 73.886647 47.962046 
L 74.089624 47.047079 
L 74.191112 48.16361 
L 74.292601 47.504975 
L 74.394089 47.629756 
L 74.495577 47.575649 
L 74.597066 47.235213 
L 74.698554 47.939093 
L 74.800042 47.412174 
L 74.901531 47.861649 
L 75.003019 47.697128 
L 75.104508 47.247983 
L 75.205996 48.034096 
L 75.307484 47.258551 
L 75.408973 47.36858 
L 75.510461 47.711769 
L 75.611949 47.146485 
L 75.713438 47.871336 
L 75.814926 47.095461 
L 76.017903 47.612473 
L 76.119391 47.30242 
L 76.22088 47.907774 
L 76.423856 47.190904 
L 76.525345 47.591612 
L 76.626833 46.964956 
L 76.728322 47.716998 
L 76.931298 46.792729 
L 77.032787 47.688706 
L 77.134275 46.896648 
L 77.235763 47.714576 
L 77.43874 46.874962 
L 77.540229 47.605757 
L 77.641717 46.778528 
L 77.743205 47.438264 
L 77.844694 46.837588 
L 78.04767 47.400065 
L 78.149159 46.686772 
L 78.250647 47.293173 
L 78.453624 46.909638 
L 78.555112 47.353279 
L 78.656601 46.858284 
L 78.758089 47.253652 
L 78.961066 46.595677 
L 79.062554 47.259927 
L 79.164043 46.618355 
L 79.265531 46.881182 
L 79.367019 46.821956 
L 79.468508 46.496051 
L 79.569996 47.063481 
L 79.671484 46.816012 
L 79.772973 47.00954 
L 79.97595 46.187594 
L 80.077438 46.993247 
L 80.280415 46.512178 
L 80.381903 46.777647 
L 80.483391 46.080592 
L 80.58488 46.870338 
L 80.686368 46.301257 
L 80.787857 46.697836 
L 80.889345 46.583843 
L 80.990833 46.195906 
L 81.092322 47.018016 
L 81.295298 46.243627 
L 81.396787 46.582577 
L 81.498275 46.154679 
L 81.599764 46.529682 
L 81.701252 46.106517 
L 81.904229 46.472768 
L 82.005717 46.147579 
L 82.107205 46.717871 
L 82.310182 45.821839 
L 82.411671 46.61175 
L 82.513159 45.822334 
L 82.614647 46.520655 
L 82.817624 45.71214 
L 82.919112 46.383545 
L 83.020601 45.764925 
L 83.122089 46.58533 
L 83.325066 45.815124 
L 83.426554 46.333016 
L 83.528043 45.83659 
L 83.629531 46.139653 
L 83.731019 45.71313 
L 83.832508 45.756724 
L 83.933996 46.172623 
L 84.035485 45.527363 
L 84.136973 46.157046 
L 84.238461 45.744504 
L 84.441438 46.115324 
L 84.542926 45.51762 
L 84.644415 46.030944 
L 84.847392 45.343687 
L 84.94888 45.880514 
L 85.050368 45.817711 
L 85.354833 45.356622 
L 85.456322 46.072996 
L 85.55781 45.514208 
L 85.760787 45.711424 
L 85.862275 45.000168 
L 85.963764 45.954105 
L 86.065252 45.364823 
L 86.268229 45.488833 
L 86.369717 44.974904 
L 86.471206 45.882771 
L 86.572694 45.162048 
L 86.674182 45.612898 
L 86.877159 44.894873 
L 86.978647 45.683408 
L 87.181624 45.266077 
L 87.283113 45.396968 
L 87.384601 44.888102 
L 87.486089 45.514153 
L 87.689066 45.038258 
L 87.790554 45.562315 
L 87.892043 44.443636 
L 87.993531 45.654731 
L 88.196508 44.993618 
L 88.297996 45.61444 
L 88.399485 44.846545 
L 88.500973 45.373245 
L 88.70395 44.750277 
L 88.805438 45.33466 
L 88.906927 44.78011 
L 89.008415 45.441442 
L 89.211392 44.748956 
L 89.31288 45.388656 
L 89.414368 44.85216 
L 89.515857 45.279893 
L 89.617345 44.857389 
L 89.718834 44.933567 
L 89.820322 45.41249 
L 89.92181 44.994224 
L 90.023299 45.390088 
L 90.226275 44.797613 
L 90.327764 45.290626 
L 90.429252 44.931751 
L 90.530741 45.313744 
L 90.733717 44.638871 
L 90.835206 45.472816 
L 90.936694 44.885185 
L 91.038182 45.55015 
L 91.241159 45.101116 
L 91.342648 45.308075 
L 91.444136 45.041615 
L 91.545624 45.423883 
L 91.748601 44.895863 
L 91.850089 45.466596 
L 91.951578 45.206026 
L 92.053066 45.330477 
L 92.154555 45.838296 
L 92.256043 45.242134 
L 92.357531 45.887889 
L 92.45902 45.163809 
L 92.661996 45.676472 
L 92.763485 45.24318 
L 92.864973 46.197117 
L 92.966462 45.235749 
L 93.169438 45.93462 
L 93.270927 45.617907 
L 93.372415 46.391085 
L 93.473903 45.552627 
L 93.67688 45.995552 
L 93.778369 45.567984 
L 93.879857 46.250783 
L 93.981345 46.138497 
L 94.082834 45.640915 
L 94.184322 46.113948 
L 94.28581 45.872478 
L 94.387299 46.59843 
L 94.590276 46.041677 
L 94.691764 46.610319 
L 94.793252 45.681371 
L 94.894741 46.66382 
L 94.996229 46.09705 
L 95.097717 46.435835 
L 95.300694 46.172072 
L 95.503671 46.527205 
L 95.605159 46.450256 
L 95.706648 46.875897 
L 95.808136 46.282487 
L 95.909624 46.763776 
L 96.112601 46.30555 
L 96.21409 47.25712 
L 96.315578 46.217207 
L 96.417066 47.132835 
L 96.620043 46.529792 
L 96.721531 47.24446 
L 96.82302 46.536727 
L 96.924508 47.188097 
L 97.127485 46.663985 
L 97.228973 47.194262 
L 97.330462 47.173236 
L 97.43195 47.32895 
L 97.634927 46.774675 
L 97.736415 47.417293 
L 97.939392 47.149512 
L 98.04088 47.338748 
L 98.142369 46.616814 
L 98.243857 47.646929 
L 98.345345 46.975689 
L 98.446834 47.55033 
L 98.548322 47.480701 
L 98.649811 46.912776 
L 98.751299 47.553743 
L 98.954276 47.220297 
L 99.055764 47.447676 
L 99.157252 47.055555 
L 99.258741 47.509929 
L 99.360229 47.134596 
L 99.461718 47.21204 
L 99.563206 47.666139 
L 99.664694 47.620123 
L 99.766183 47.41421 
L 99.867671 47.494792 
L 100.070648 47.367975 
L 100.273625 47.540092 
L 100.375113 47.246552 
L 100.679578 48.065195 
L 100.781066 47.537615 
L 100.882555 47.725805 
L 101.085532 47.43942 
L 101.288508 47.698283 
L 101.389997 47.371498 
L 101.592973 47.769893 
L 101.694462 47.802423 
L 101.79595 48.047691 
L 101.998927 47.732355 
L 102.100415 47.649846 
L 102.201904 47.854658 
L 102.303392 47.768737 
L 102.40488 47.935515 
L 102.506369 47.699659 
L 102.709346 48.060241 
L 102.810834 47.914985 
L 102.912322 48.13642 
L 103.013811 47.94124 
L 103.115299 48.159647 
L 103.318276 47.868804 
L 103.419764 47.972889 
L 103.521253 48.258008 
L 103.622741 47.939203 
L 103.724229 48.305234 
L 103.825718 48.180123 
L 104.028694 48.210286 
L 104.130183 48.225753 
L 104.231671 48.459738 
L 104.33316 47.835228 
L 104.434648 48.397815 
L 104.536136 48.131356 
L 104.637625 48.797036 
L 104.739113 48.063929 
L 104.840601 48.668348 
L 104.94209 48.246174 
L 105.043578 48.604279 
L 105.145067 48.222561 
L 105.55102 48.739462 
L 105.652508 48.814925 
L 105.753997 48.54764 
L 105.855485 48.63901 
L 105.956974 48.480654 
L 106.15995 48.732362 
L 106.261439 48.530577 
L 106.464415 48.772047 
L 106.565904 49.327974 
L 106.768881 48.918074 
L 106.971857 48.763736 
L 107.174834 49.014398 
L 107.377811 48.792083 
L 107.479299 48.928642 
L 107.580788 49.5182 
L 107.885253 49.142151 
L 108.088229 49.110337 
L 108.189718 49.371952 
L 108.291206 49.262859 
L 108.392695 48.944935 
L 108.595671 49.581608 
L 108.69716 49.631807 
L 109.001625 49.386594 
L 109.204602 49.6945 
L 109.30609 49.437067 
L 109.407578 49.502678 
L 109.610555 50.087171 
L 109.712043 50.007525 
L 109.813532 50.254555 
L 109.91502 49.986884 
L 110.016509 50.240904 
L 110.117997 50.160212 
L 110.422462 50.51606 
L 110.52395 50.506373 
L 110.625439 50.78918 
L 110.726927 50.628567 
L 111.031392 51.060593 
L 111.132881 50.95293 
L 111.335857 51.256048 
L 111.437346 51.142166 
L 111.741811 51.441265 
L 111.843299 51.769867 
L 112.046276 51.677286 
L 112.249253 51.932352 
L 112.350741 51.888373 
L 112.553718 52.070343 
L 112.655206 51.895088 
L 112.959671 52.499177 
L 113.06116 52.527193 
L 113.264137 52.7576 
L 113.365625 52.500168 
L 113.467113 52.75072 
L 113.568602 52.694467 
L 113.67009 53.108714 
L 113.771578 52.926084 
L 113.873067 53.086808 
L 113.974555 52.899114 
L 114.27902 53.524834 
L 114.380509 53.236467 
L 114.684974 53.947503 
L 114.786462 53.810228 
L 114.887951 53.617965 
L 115.192416 54.239392 
L 115.293904 54.247373 
L 115.395392 54.028635 
L 115.801346 54.715782 
L 115.902834 54.381676 
L 116.105811 54.634705 
L 116.207299 54.934025 
L 116.511765 54.607294 
L 116.81623 55.226794 
L 116.917718 54.635586 
L 117.019206 54.938593 
L 117.120695 54.752385 
L 117.222183 55.293341 
L 117.323672 55.019065 
L 117.42516 55.213805 
L 117.526648 54.871277 
L 117.831113 55.257673 
L 118.03409 55.326531 
L 118.135579 55.124691 
L 118.237067 55.534646 
L 118.338555 55.311394 
L 118.440044 55.511143 
L 118.541532 55.200264 
L 118.845997 55.551434 
L 118.947486 55.444376 
L 119.454927 55.713478 
L 119.556416 55.668839 
L 119.860881 55.79439 
L 120.063858 55.763126 
L 120.266834 56.063161 
L 120.368323 56.169503 
L 120.469811 55.959462 
L 120.5713 56.123432 
L 120.672788 56.047144 
L 120.875765 56.232636 
L 120.977253 55.820755 
L 121.078741 56.54346 
L 121.281718 56.121726 
L 121.383207 56.560853 
L 121.484695 56.134936 
L 121.586183 56.742382 
L 121.687672 56.153871 
L 121.890648 56.759445 
L 121.992137 56.064042 
L 122.093625 56.858521 
L 122.296602 56.482198 
L 122.39809 56.96079 
L 122.499579 56.468712 
L 122.601067 57.098175 
L 122.702555 56.56322 
L 122.804044 56.651783 
L 122.905532 57.103074 
L 123.007021 56.510985 
L 123.108509 57.189655 
L 123.311486 56.666259 
L 123.412974 57.451381 
L 123.514462 56.816029 
L 123.615951 57.354837 
L 123.717439 56.818671 
L 123.818928 56.989577 
L 123.920416 57.432171 
L 124.021904 56.878722 
L 124.123393 57.46327 
L 124.326369 56.959799 
L 124.427858 57.524092 
L 124.529346 57.180408 
L 124.630835 57.522496 
L 124.732323 57.031134 
L 124.833811 57.135274 
L 124.9353 57.59961 
L 125.036788 56.891327 
L 125.138276 57.7889 
L 125.341253 57.184041 
L 125.442742 57.760774 
L 125.54423 57.21558 
L 125.645718 57.701823 
L 125.747207 57.18938 
L 125.848695 57.370689 
L 125.950183 57.830402 
L 126.051672 57.082488 
L 126.15316 57.932175 
L 126.356137 57.370249 
L 126.457625 57.915387 
L 126.559114 57.555741 
L 126.660602 57.758627 
L 126.863579 57.441253 
L 126.965067 58.097742 
L 127.066556 57.431401 
L 127.168044 58.097962 
L 127.371021 57.513964 
L 127.472509 58.210248 
L 127.573997 57.787964 
L 127.675486 57.993547 
L 127.878463 57.647717 
L 127.979951 58.203368 
L 128.081439 57.749435 
L 128.182928 58.241678 
L 128.385904 57.911589 
L 128.487393 58.366623 
L 128.588881 58.101815 
L 128.791858 58.13451 
L 128.893346 57.780479 
L 128.994835 58.438949 
L 129.096323 58.369761 
L 129.197811 58.33635 
L 129.2993 58.17282 
L 129.603765 58.62268 
L 129.705253 58.366128 
L 130.111207 58.856609 
L 130.314184 58.600608 
L 130.51716 58.897065 
L 130.923114 58.96174 
L 131.024602 59.291718 
L 131.126091 59.258308 
L 131.227579 59.0268 
L 131.633532 59.432516 
L 131.836509 59.292764 
L 131.937998 59.369713 
L 132.039486 59.898339 
L 132.242463 59.537757 
L 132.343951 59.579259 
L 132.445439 59.450075 
L 132.648416 59.712736 
L 132.851393 59.503961 
L 132.952881 59.564563 
L 133.05437 59.859314 
L 133.358835 59.591258 
L 133.6633 59.787428 
L 133.764788 59.549701 
L 133.866277 59.65296 
L 133.967765 59.58025 
L 134.069253 59.88656 
L 134.27223 59.768934 
L 134.678184 59.867735 
L 134.779672 59.602762 
L 134.88116 59.806253 
L 134.982649 59.738276 
L 135.084137 60.018826 
L 135.185626 59.976829 
L 135.388602 59.79618 
L 135.693067 60.018496 
L 135.794556 59.642502 
L 136.099021 60.261782 
L 136.301998 60.010845 
L 136.403486 59.996094 
L 136.504974 59.868286 
L 136.707951 60.170137 
L 136.80944 59.918319 
L 137.012416 60.048494 
L 137.113905 60.360638 
L 137.316881 60.150377 
L 137.621347 60.061154 
L 137.722835 60.429881 
L 137.824323 60.018331 
L 138.128788 60.756832 
L 138.331765 60.658031 
L 138.63623 60.798004 
L 138.737719 61.179612 
L 138.839207 60.70201 
L 139.143672 61.580704 
L 139.346649 61.480638 
L 139.448137 61.382167 
L 139.549626 61.668882 
L 139.651114 61.590392 
L 139.752602 61.867199 
L 139.854091 61.700146 
L 140.158556 62.435235 
L 140.260044 62.219524 
L 140.361533 62.339902 
L 140.463021 62.28519 
L 140.767486 62.716666 
L 140.868975 62.542512 
L 141.17344 63.211771 
L 141.274928 63.068 
L 141.376416 63.239347 
L 141.477905 63.154086 
L 141.78237 63.574499 
L 141.883858 63.333524 
L 141.985347 63.71249 
L 142.086835 63.668181 
L 142.188323 64.009388 
L 142.289812 63.725095 
L 142.3913 63.767092 
L 142.492789 63.784925 
L 142.594277 63.936567 
L 142.695765 63.729333 
L 142.797254 64.023809 
L 142.898742 63.866608 
L 143.203207 64.328578 
L 143.304696 64.144737 
L 143.609161 64.304744 
L 143.710649 64.14969 
L 143.812137 64.449065 
L 143.913626 64.22086 
L 144.116603 64.504658 
L 144.218091 64.687838 
L 144.319579 64.529262 
L 144.827021 64.861331 
L 144.92851 64.682169 
L 145.029998 64.963159 
L 145.131486 64.805959 
L 145.232975 65.181292 
L 145.435951 64.978351 
L 145.53744 65.230334 
L 145.638928 64.91819 
L 145.841905 65.296715 
L 145.943393 65.171329 
L 146.349347 65.527232 
L 146.552324 65.442577 
L 146.653812 65.457163 
L 146.856789 65.83068 
L 146.958277 65.591907 
L 147.059765 65.730063 
L 147.161254 65.659499 
L 147.262742 66.037969 
L 147.364231 65.859192 
L 147.465719 66.069123 
L 147.567207 65.776959 
L 147.668696 66.029162 
L 147.770184 65.940379 
L 147.871672 66.28076 
L 147.973161 66.010338 
L 148.176138 66.259349 
L 148.277626 66.466693 
L 148.379114 66.254946 
L 148.886556 66.578759 
L 148.988044 66.41099 
L 149.393998 66.800414 
L 149.495486 66.750656 
L 149.799951 66.914572 
L 149.90144 66.985136 
L 150.002928 66.861566 
L 150.205905 67.298711 
L 150.307393 67.816769 
L 150.408882 67.768772 
L 150.611858 68.15049 
L 151.728231 70.386856 
L 152.235672 71.184473 
L 152.438649 71.921763 
L 152.743114 72.28284 
L 153.250556 73.185533 
L 153.453533 73.7943 
L 153.65651 73.918475 
L 153.960975 74.678388 
L 154.062463 74.516564 
L 154.26544 74.903841 
L 154.366928 75.429054 
L 154.468417 75.328107 
L 154.87437 75.750115 
L 154.975859 76.033253 
L 155.077347 75.919921 
L 155.381812 76.75304 
L 155.4833 76.719189 
L 155.584789 76.942771 
L 155.686277 76.76669 
L 155.889254 77.220899 
L 156.193719 77.494954 
L 156.498184 78.089575 
L 156.599673 78.22641 
L 156.701161 78.138178 
L 156.802649 78.541637 
L 156.904138 78.457753 
L 157.005626 78.537894 
L 157.208603 79.086665 
L 157.513068 79.156954 
L 157.716045 79.689928 
L 157.817533 79.432165 
L 158.121998 80.442906 
L 158.223487 80.117056 
L 158.426463 80.251579 
L 158.527952 80.25945 
L 158.62944 80.641168 
L 158.730928 80.465418 
L 158.933905 81.149153 
L 159.035394 81.037142 
L 159.441347 81.293143 
L 159.542835 81.526797 
L 159.644324 81.410603 
L 159.847301 81.637873 
L 159.948789 82.086687 
L 160.050277 81.972254 
L 160.151766 82.079862 
L 160.253254 81.932294 
L 160.557719 82.49422 
L 160.659208 82.180754 
L 160.963673 83.140581 
L 161.065161 82.9514 
L 161.166649 83.387445 
L 161.268138 83.078548 
L 161.471115 83.678343 
L 161.572603 84.092701 
L 161.674091 83.717533 
L 161.978556 84.849642 
L 162.181533 84.906445 
L 163.196417 86.774138 
L 163.297905 86.807164 
L 163.60237 87.73468 
L 163.703859 87.668299 
L 163.906836 88.276901 
L 164.008324 88.753237 
L 164.109812 88.492061 
L 164.312789 88.947591 
L 164.414277 89.047382 
L 164.617254 89.791774 
L 164.718743 89.603364 
L 165.226184 90.773837 
L 165.327673 90.830145 
L 165.936603 91.889048 
L 166.13958 92.454001 
L 166.241068 92.342375 
L 166.545533 93.032055 
L 166.647022 93.285909 
L 166.74851 93.01989 
L 167.052975 94.216673 
L 167.154464 93.992156 
L 167.458929 94.699724 
L 168.676789 96.7086 
L 168.778278 96.570444 
L 169.082743 97.450735 
L 169.184231 97.302891 
L 169.387208 97.69848 
L 169.590185 97.769264 
L 169.691673 98.281982 
L 169.793161 97.906429 
L 170.097626 99.031437 
L 170.199115 98.835542 
L 170.50358 98.888052 
L 170.706557 99.493792 
L 170.808045 99.297126 
L 171.011022 99.602115 
L 171.11251 100.260035 
L 171.315487 100.045095 
L 171.924417 100.684576 
L 172.127394 101.492651 
L 172.228882 101.221568 
L 172.330371 101.505806 
L 172.431859 101.448232 
L 172.634836 101.815473 
L 172.837813 102.099271 
L 172.939301 102.492273 
L 173.040789 102.293075 
L 173.142278 102.976149 
L 173.243766 102.82093 
L 173.64972 103.371132 
L 173.751208 103.664837 
L 173.852696 103.589154 
L 174.360138 104.475114 
L 174.461627 104.432731 
L 175.172045 105.941604 
L 175.273534 105.826566 
L 175.375022 105.757048 
L 175.780975 106.652364 
L 175.882464 106.390253 
L 176.288417 107.375784 
L 176.592882 107.704992 
L 176.998836 108.274734 
L 177.100324 108.388727 
L 177.201813 108.987476 
L 177.303301 108.704229 
L 177.506278 109.257403 
L 177.607766 109.513184 
L 177.709255 109.371836 
L 177.912231 109.958586 
L 178.318185 111.178102 
L 178.419673 111.216136 
L 178.825627 112.293422 
L 178.927115 111.932841 
L 179.23158 113.373076 
L 179.434557 113.544312 
L 180.855394 117.199777 
L 180.956883 117.391214 
L 181.159859 118.165823 
L 181.565813 119.18504 
L 181.667301 119.226982 
L 181.971766 120.186533 
L 183.189627 123.275888 
L 183.392604 123.835393 
L 184.407487 126.156524 
L 184.610464 126.134837 
L 184.813441 125.991067 
L 185.016418 126.100766 
L 185.117906 125.959087 
L 185.422371 126.240628 
L 185.625348 126.092619 
L 185.726836 126.036697 
L 185.828325 126.181182 
L 186.031301 125.907623 
L 186.335766 126.271176 
L 186.437255 126.243215 
L 186.640232 126.016771 
L 186.944697 126.052439 
L 187.147673 125.99503 
L 187.452139 126.071703 
L 187.858092 125.973013 
L 188.162557 125.996681 
L 188.264046 125.923199 
L 188.467022 126.000149 
L 188.568511 125.716296 
L 188.669999 125.906962 
L 188.771487 125.831664 
L 188.872976 126.15856 
L 188.974464 125.880432 
L 189.075953 125.927878 
L 189.278929 125.688114 
L 189.481906 125.946482 
L 189.583394 125.583809 
L 189.786371 125.888028 
L 190.192325 125.680188 
L 190.801255 125.655969 
L 190.902743 125.804363 
L 191.004232 125.5586 
L 191.10572 125.629274 
L 191.207208 125.424957 
L 191.308697 125.563719 
L 191.410185 125.459083 
L 191.511674 125.643695 
L 191.613162 125.432003 
L 191.816139 125.558159 
L 191.917627 125.828967 
L 192.120604 125.588488 
L 192.425069 125.634063 
L 192.526557 125.725763 
L 192.628046 125.522272 
L 192.932511 125.757467 
L 193.135488 125.766549 
L 193.338464 125.732698 
L 193.439953 125.850158 
L 193.642929 125.768696 
L 194.150371 125.994149 
L 194.353348 125.83238 
L 194.556325 126.00901 
L 194.657813 125.801776 
L 194.962278 126.309926 
L 195.063767 126.038788 
L 195.165255 126.154377 
L 195.266743 125.929915 
L 195.46972 126.078859 
L 195.672697 126.087666 
L 195.774185 126.270736 
L 195.875674 126.135167 
L 195.977162 126.374711 
L 196.281627 126.173146 
L 196.484604 126.237381 
L 196.890557 126.238261 
L 196.992046 126.636217 
L 197.093534 126.316641 
L 197.195023 126.403113 
L 197.296511 126.315045 
L 197.499488 126.384068 
L 197.702464 126.411314 
L 198.108418 126.586623 
L 198.311395 126.485346 
L 198.920325 126.614255 
L 199.021813 126.854514 
L 199.123302 126.560368 
L 199.22479 126.80415 
L 199.326278 126.580899 
L 199.529255 126.661756 
L 199.630744 126.626529 
L 199.83372 126.746906 
L 200.239674 126.894915 
L 200.341162 126.728357 
L 201.051581 127.16231 
L 201.153069 126.879778 
L 201.254558 126.962837 
L 201.356046 126.769639 
L 201.457534 127.002578 
L 201.660511 126.904107 
L 201.964976 126.989423 
L 202.066465 127.164512 
L 202.269441 126.929261 
L 202.573906 127.069399 
L 202.776883 126.935756 
L 202.97986 127.117726 
L 203.182837 127.158182 
L 203.385813 126.98023 
L 203.487302 127.171667 
L 203.791767 127.010339 
L 204.096232 127.206674 
L 204.299209 127.075013 
L 204.502186 127.121194 
L 204.705162 127.029713 
L 204.806651 126.921005 
L 205.009627 127.164952 
L 205.314093 126.834203 
L 205.517069 126.918363 
L 205.618558 126.925518 
L 205.821534 126.769254 
L 205.923023 126.774483 
L 206.024511 126.966085 
L 206.430465 126.691919 
L 206.937907 126.609191 
L 207.039395 126.710524 
L 207.34386 126.435478 
L 207.546837 126.48386 
L 207.749814 126.27602 
L 207.851302 126.4521 
L 207.95279 126.366289 
L 208.054279 126.570826 
L 208.257255 126.341631 
L 208.561721 126.286698 
L 208.663209 126.36062 
L 208.764697 126.114967 
L 209.069162 126.40658 
L 209.272139 126.171935 
L 209.475116 126.100215 
L 209.678093 126.226537 
L 209.779581 125.847682 
L 210.084046 126.310256 
L 210.185535 125.967784 
L 210.287023 126.010992 
L 210.388511 125.860231 
L 210.692976 125.959362 
L 210.794465 125.68239 
L 210.997442 125.949675 
L 211.09893 126.10605 
L 211.301907 125.974169 
L 211.606372 125.914998 
L 211.809349 126.056512 
L 212.215302 125.966243 
L 212.31679 126.151239 
L 212.418279 125.938446 
L 212.722744 126.306403 
L 212.925721 126.169513 
L 213.027209 126.029761 
L 213.230186 126.134837 
L 213.331674 126.335521 
L 213.433163 125.955674 
L 213.737628 126.352639 
L 213.839116 126.166156 
L 213.940604 126.214483 
L 214.042093 126.06697 
L 214.346558 126.30888 
L 214.448046 125.858415 
L 214.549535 126.244811 
L 214.651023 126.089647 
L 214.752511 126.372454 
L 215.056977 125.962059 
L 215.158465 126.193842 
L 215.259953 126.0733 
L 215.361442 126.151074 
L 215.46293 126.046329 
L 215.767395 126.265342 
L 215.868884 126.135332 
L 215.970372 126.194007 
L 216.07186 126.016111 
L 216.376325 126.104233 
L 216.477814 126.018147 
L 216.782279 126.281249 
L 216.985256 126.013083 
L 217.086744 126.122287 
L 217.188232 126.026294 
L 217.289721 126.115737 
L 217.492698 125.94351 
L 217.797163 126.084253 
L 218.000139 126.035596 
L 218.101628 126.120361 
L 218.203116 125.933547 
L 218.507581 126.022991 
L 219.015023 125.96349 
L 219.218 126.137094 
L 219.420977 125.953638 
L 219.82693 125.89766 
L 219.928419 125.830729 
L 220.131395 126.053209 
L 220.334372 125.94384 
L 220.638837 125.904925 
L 220.740326 125.986443 
L 220.841814 125.698297 
L 221.146279 126.174853 
L 221.247767 125.832545 
L 221.349256 125.94384 
L 221.450744 125.760715 
L 221.755209 125.913237 
L 221.856698 125.74156 
L 222.262651 125.952042 
L 222.465628 125.698077 
L 222.770093 125.877184 
L 222.871581 125.699728 
L 223.074558 125.859461 
L 223.176047 125.557279 
L 223.277535 125.741175 
L 223.379023 125.651951 
L 223.480512 126.021615 
L 223.582 125.70259 
L 223.784977 125.744092 
L 223.987954 125.652667 
L 224.089442 125.783227 
L 224.19093 125.534491 
L 224.495395 125.919567 
L 224.799861 125.501081 
L 224.901349 125.695985 
L 225.104326 125.603734 
L 225.307302 125.641163 
L 225.510279 125.770567 
L 225.713256 125.55838 
L 225.814744 125.528767 
L 225.916233 125.681399 
L 226.626651 125.399968 
L 226.829628 125.712223 
L 227.032605 125.514951 
L 227.235582 125.443617 
L 227.438558 125.563554 
L 227.540047 125.146058 
L 227.641535 125.49998 
L 227.743023 125.371841 
L 227.844512 125.677051 
L 227.946 125.351146 
L 228.047489 125.453469 
L 228.250465 125.346797 
L 228.656419 125.399858 
L 229.468326 125.492989 
L 229.569814 125.433544 
L 229.772791 125.759174 
L 229.975768 125.706884 
L 230.178744 125.606266 
L 230.381721 125.844214 
L 230.48321 125.573461 
L 230.787675 126.049246 
L 230.990651 125.894908 
L 231.09214 125.838324 
L 231.193628 125.988094 
L 231.295117 125.89821 
L 231.396605 126.089262 
L 231.498093 125.822968 
L 231.802558 126.33453 
L 232.005535 126.178375 
L 232.107024 126.039504 
L 232.31 126.19065 
L 232.512977 126.225326 
L 232.817442 126.512977 
L 233.020419 126.369812 
L 233.324884 126.511546 
L 233.527861 126.383297 
L 233.730838 126.732651 
L 234.238279 126.699515 
L 234.339768 126.841414 
L 234.441256 126.622621 
L 234.745721 127.199023 
L 234.84721 126.877026 
L 234.948698 126.973846 
L 235.050186 126.838332 
L 235.354652 127.195611 
L 235.45614 126.826608 
L 235.760605 127.374223 
L 235.862093 127.196877 
L 235.963582 127.297934 
L 236.06507 127.126368 
L 236.369535 127.316043 
L 236.471024 127.267936 
L 236.775489 127.617069 
L 236.978466 127.534451 
L 237.181442 127.566595 
L 237.282931 127.660167 
L 237.485907 127.583879 
L 237.587396 127.633251 
L 237.688884 127.995264 
L 237.891861 127.769151 
L 238.297814 127.996475 
L 238.399303 127.824248 
L 238.703768 128.332398 
L 238.805256 128.111568 
L 238.906745 128.238 
L 239.008233 128.053554 
L 239.21121 128.260458 
L 239.414187 128.211525 
L 239.617163 128.492296 
L 239.82014 128.468187 
L 240.327582 128.601775 
L 240.42907 128.667275 
L 240.530559 128.551576 
L 240.632047 128.941991 
L 240.835024 128.841594 
L 241.139489 128.814678 
L 241.240977 129.047892 
L 241.342466 128.751765 
L 241.646931 129.284849 
L 241.849908 129.079871 
L 241.951396 128.979529 
L 242.255861 129.201074 
L 242.357349 129.078881 
L 242.560326 129.36543 
L 242.661815 129.250833 
L 242.864791 129.385356 
L 242.96628 129.21489 
L 243.169256 129.402364 
L 243.473722 129.445022 
L 243.676698 129.639596 
L 243.778187 129.488505 
L 243.981163 129.559564 
L 244.18414 129.725517 
L 244.285629 129.447443 
L 244.590094 129.97128 
L 244.79307 129.810227 
L 244.894559 129.722655 
L 245.199024 130.056761 
L 245.300512 129.709775 
L 245.402001 129.965226 
L 245.503489 129.890258 
L 245.604977 130.213191 
L 245.706466 130.023075 
L 245.807954 130.099694 
L 245.909443 129.9906 
L 246.112419 130.178955 
L 246.315396 130.052963 
L 246.619861 130.355695 
L 246.924326 130.210439 
L 247.127303 130.385363 
L 247.228791 130.285737 
L 247.634745 130.586928 
L 247.93921 130.454331 
L 248.142187 130.542729 
L 248.852605 130.724808 
L 249.055582 130.762347 
L 249.157071 130.861313 
L 249.258559 130.698608 
L 249.563024 131.088032 
L 249.766001 130.971012 
L 249.968978 130.968921 
L 250.476419 131.155239 
L 250.577908 131.285414 
L 250.780885 131.126286 
L 251.389815 131.140983 
L 251.491303 131.520224 
L 251.69428 131.37794 
L 251.795768 131.264663 
L 252.100233 131.5156 
L 252.201722 131.287615 
L 252.30321 131.434633 
L 252.404699 131.379095 
L 252.506187 131.703955 
L 252.709164 131.471291 
L 252.91214 131.429459 
L 253.013629 131.581761 
L 253.115117 131.296697 
L 253.419582 131.559634 
L 253.622559 131.54758 
L 253.724047 131.358785 
L 254.028513 131.552533 
L 254.130001 131.329998 
L 254.231489 131.44977 
L 254.332978 131.391095 
L 254.434466 131.697625 
L 254.637443 131.486042 
L 254.84042 131.418836 
L 255.043396 131.56734 
L 255.144885 131.315026 
L 255.44935 131.651004 
L 255.753815 131.310843 
L 255.956792 131.492207 
L 256.159768 131.389939 
L 256.464234 131.56778 
L 256.66721 131.33941 
L 256.870187 131.432486 
L 256.971675 131.473548 
L 257.073164 131.325484 
L 257.174652 131.382343 
L 257.276141 131.304678 
L 257.377629 131.797637 
L 257.580606 131.404965 
L 258.189536 131.343373 
L 258.392513 131.485602 
L 258.595489 131.413222 
L 258.696978 131.357189 
L 258.899955 131.41779 
L 259.102931 131.28712 
L 259.305908 131.518738 
L 259.610373 131.369133 
L 259.711862 131.383113 
L 259.81335 131.27435 
L 259.914838 131.483455 
L 260.117815 131.271047 
L 260.219303 131.342437 
L 260.320792 131.596567 
L 260.42228 131.353115 
L 260.523769 131.44377 
L 260.625257 131.233784 
L 260.828234 131.375242 
L 261.03121 131.298183 
L 261.538652 131.319154 
L 261.741629 131.257177 
L 261.843117 131.393682 
L 261.944606 131.16388 
L 262.249071 131.451201 
L 262.655024 131.253159 
L 262.756513 131.359665 
L 262.858001 131.14357 
L 263.060978 131.305779 
L 263.365443 131.32675 
L 263.56842 131.236921 
L 263.771397 131.337759 
L 263.872885 131.121168 
L 264.17735 131.526498 
L 264.278838 131.231582 
L 264.380327 131.305559 
L 264.583304 131.223876 
L 264.887769 131.118856 
L 264.989257 131.285248 
L 265.090745 131.221344 
L 265.192234 131.392526 
L 265.395211 131.169219 
L 265.598187 131.260645 
L 265.699676 131.327136 
L 265.801164 131.11082 
L 266.308606 131.305504 
L 266.410094 131.115883 
L 266.714559 131.351905 
L 266.816048 130.974535 
L 267.120513 131.419386 
L 267.222001 131.194924 
L 267.32349 131.343043 
L 267.424978 131.184301 
L 267.627955 131.275286 
L 267.830932 131.147368 
L 267.93242 131.577743 
L 268.033908 131.180943 
L 268.135397 131.30099 
L 268.338373 131.166742 
L 268.54135 131.312329 
L 268.642839 131.235325 
L 268.744327 131.538443 
L 268.947304 131.265874 
L 269.353257 131.244297 
L 269.454746 131.220849 
L 269.657722 131.494354 
L 269.759211 131.33941 
L 269.860699 131.420597 
L 269.962187 131.255526 
L 270.165164 131.369353 
L 270.266653 131.247159 
L 270.469629 131.321081 
L 270.672606 131.537452 
L 270.875583 131.34607 
L 270.977071 131.279029 
L 271.180048 131.448669 
L 271.281536 131.264002 
L 271.586001 131.574715 
L 271.68749 131.394122 
L 271.788978 131.434908 
L 271.890467 131.27479 
L 272.093443 131.418451 
L 272.194932 131.224867 
L 272.29642 131.71788 
L 272.397908 131.368032 
L 272.499397 131.49551 
L 272.600885 131.31332 
L 272.803862 131.432211 
L 273.006839 131.329392 
L 273.209815 131.539654 
L 273.412792 131.463971 
L 273.615769 131.448944 
L 273.717257 131.386856 
L 273.818746 131.54103 
L 273.920234 131.282496 
L 274.224699 131.643353 
L 274.427676 131.507564 
L 274.529164 131.364289 
L 274.732141 131.467053 
L 275.138095 131.535856 
L 275.239583 131.647316 
L 275.44256 131.466943 
L 275.544048 131.417295 
L 275.747025 131.559634 
L 275.848513 131.319264 
L 276.152978 131.742759 
L 276.254467 131.434908 
L 276.355955 131.533544 
L 276.457443 131.381737 
L 276.66042 131.518848 
L 276.964885 131.42412 
L 277.066374 131.643738 
L 277.26935 131.441899 
L 277.573816 131.618584 
L 277.675304 131.45698 
L 277.878281 131.475915 
L 277.979769 131.469144 
L 278.081257 131.612089 
L 278.182746 131.342988 
L 278.487211 131.724761 
L 278.690188 131.529416 
L 278.893164 131.509766 
L 279.096141 131.465126 
L 279.502095 131.649298 
L 279.705071 131.45032 
L 279.80656 131.428909 
L 280.009537 131.611264 
L 280.111025 131.344309 
L 280.41549 131.683589 
L 280.618467 131.493969 
L 281.125909 131.419441 
L 281.328885 131.6788 
L 281.531862 131.494354 
L 281.633351 131.461989 
L 281.836327 131.517086 
L 282.039304 131.458026 
L 282.343769 131.655573 
L 282.546746 131.468429 
L 282.648234 131.537452 
L 282.749723 131.463585 
L 282.851211 131.588476 
L 282.952699 131.298899 
L 283.054188 131.490941 
L 283.155676 131.441403 
L 283.257165 131.697405 
L 283.358653 131.48285 
L 283.460141 131.591668 
L 283.56163 131.390654 
L 283.764606 131.520114 
L 283.967583 131.387462 
L 284.272048 131.531232 
L 284.373537 131.540039 
L 284.475025 131.382838 
L 284.77949 131.602622 
L 284.880979 131.25536 
L 285.185444 131.624033 
L 285.489909 131.43722 
L 285.591397 131.423955 
L 285.692886 131.534975 
L 285.895862 131.367757 
L 286.098839 131.699111 
L 286.200327 131.404305 
L 286.301816 131.533269 
L 286.403304 131.294991 
L 286.606281 131.461879 
L 286.707769 131.342052 
L 286.910746 131.505527 
L 287.519676 131.383994 
L 287.621165 131.58677 
L 287.722653 131.222886 
L 287.824141 131.419882 
L 287.92563 131.339795 
L 288.027118 131.721953 
L 288.128607 131.416194 
L 288.230095 131.517637 
L 288.331583 131.318934 
L 288.53456 131.484226 
L 288.737537 131.298734 
L 288.940514 131.616768 
L 289.14349 131.395993 
L 289.447955 131.357684 
L 289.549444 131.453512 
L 289.650932 131.290532 
L 289.955397 131.516811 
L 290.158374 131.355702 
L 290.361351 131.415093 
L 290.462839 131.413222 
L 290.564328 131.285083 
L 290.868793 131.587485 
L 291.071769 131.417185 
L 291.274746 131.336603 
L 291.477723 131.366876 
L 291.6807 131.334731 
L 291.782188 131.58044 
L 291.985165 131.399076 
L 292.188142 131.369188 
L 292.391118 131.414983 
L 292.492607 131.263562 
L 293.000049 131.412891 
L 293.203025 131.361977 
L 293.304514 131.400342 
L 293.406002 131.244572 
L 293.710467 131.537782 
L 293.811956 131.344694 
L 293.913444 131.401167 
L 294.014932 131.229381 
L 294.116421 131.41102 
L 294.420886 131.257177 
L 294.522374 131.275011 
L 294.623862 131.538553 
L 295.029816 131.260975 
L 295.232793 131.365885 
L 295.334281 131.100747 
L 295.537258 131.399241 
L 295.638746 131.478832 
L 295.841723 131.26802 
L 296.0447 131.321741 
L 296.146188 131.302367 
L 296.247676 131.167073 
L 296.349165 131.298954 
L 296.450653 131.246719 
L 296.552142 131.556111 
L 296.755118 131.294165 
L 296.958095 131.233784 
L 297.059583 131.31299 
L 297.161072 131.162504 
L 297.465537 131.43711 
L 297.770002 131.212703 
L 298.277444 131.205272 
L 298.480421 131.348932 
L 298.581909 131.208024 
L 298.784886 131.235765 
L 298.886374 131.210721 
L 298.987863 131.32053 
L 299.089351 131.045044 
L 299.190839 131.333465 
L 299.292328 131.252829 
L 299.393816 131.462374 
L 299.596793 131.25448 
L 299.79977 131.279964 
L 299.901258 131.421148 
L 300.002746 131.128653 
L 300.205723 131.349593 
L 300.307211 131.567835 
L 300.4087 131.283652 
L 300.510188 131.325649 
L 300.611677 131.247104 
L 300.814653 131.30666 
L 300.916142 131.298183 
L 301.01763 131.159477 
L 301.220607 131.541195 
L 301.423584 131.324824 
L 301.62656 131.30666 
L 302.032514 131.309852 
L 302.134002 131.491657 
L 302.235491 131.376618 
L 302.336979 131.464521 
L 302.539956 131.310953 
L 302.742932 131.439752 
L 302.844421 131.177806 
L 303.148886 131.539874 
L 303.351863 131.366436 
L 303.656328 131.474098 
L 303.757816 131.225583 
L 303.960793 131.380141 
L 304.062281 131.707147 
L 304.16377 131.41157 
L 304.265258 131.478612 
L 304.366746 131.283102 
L 304.569723 131.444375 
L 304.7727 131.366876 
L 304.874188 131.423074 
L 304.975677 131.652435 
L 305.178653 131.425826 
L 305.787584 131.399296 
L 305.889072 131.612915 
L 306.396514 131.446467 
L 306.498002 131.505858 
L 306.599491 131.352235 
L 306.700979 131.536186 
L 307.005444 131.390489 
L 307.309909 131.650894 
L 307.512886 131.461989 
L 307.715863 131.44977 
L 307.817351 131.656728 
L 307.91884 131.336933 
L 308.223305 131.747218 
L 308.426281 131.469255 
L 308.730747 131.607906 
L 308.832235 131.351905 
L 309.1367 131.760208 
L 309.238188 131.459237 
L 309.339677 131.624804 
L 309.441165 131.470521 
L 309.644142 131.570257 
L 309.74563 131.425606 
L 310.050095 131.77606 
L 310.253072 131.547415 
L 310.557537 131.555231 
L 310.862002 131.522205 
L 310.963491 131.825708 
L 311.166468 131.628327 
L 311.673909 131.554075 
L 311.775398 131.608181 
L 311.876886 131.793233 
L 312.181351 131.591503 
L 312.993258 131.705496 
L 313.196235 131.594971 
L 313.399212 131.747988 
L 313.5007 131.507014 
L 313.703677 131.737365 
L 314.008142 131.751896 
L 314.10963 131.618144 
L 314.312607 131.754098 
L 314.414096 131.545763 
L 314.617072 131.757125 
L 314.718561 131.889117 
L 314.921537 131.634491 
L 315.226003 131.778592 
L 315.327491 131.555671 
L 315.631956 131.91972 
L 315.834933 131.707257 
L 316.139398 131.791307 
L 316.240886 131.647591 
L 316.545351 132.009824 
L 316.748328 131.819708 
L 316.951305 131.684139 
L 317.052793 131.943223 
L 317.25577 131.705881 
L 317.458747 132.033603 
L 317.560235 131.800168 
L 317.661724 131.877998 
L 317.763212 131.63862 
L 317.966189 131.840459 
L 318.270654 131.812388 
L 318.372142 132.065307 
L 318.473631 131.857357 
L 318.575119 131.909482 
L 318.778096 131.785032 
L 318.879584 131.897868 
L 319.184049 131.813764 
L 319.285538 132.150787 
L 319.387026 131.875411 
L 319.488514 131.960782 
L 319.590003 131.801434 
L 319.894468 131.917408 
L 320.097445 131.825543 
L 320.198933 132.189097 
L 320.40191 131.954727 
L 320.604886 131.848881 
L 320.807863 131.978505 
L 320.909352 131.827029 
L 321.112328 132.177208 
L 321.315305 131.967827 
L 321.822747 131.973276 
L 322.025724 132.059142 
L 322.127212 131.859614 
L 322.431677 132.224544 
L 322.634654 131.992651 
L 322.939119 132.097452 
L 323.040607 131.960011 
L 323.345073 132.331436 
L 323.548049 132.041694 
L 323.751026 132.156402 
L 324.055491 132.104772 
L 324.15698 132.15398 
L 324.258468 132.357911 
L 324.461445 132.110276 
L 324.562933 132.105268 
L 324.76591 132.203628 
L 325.37484 132.307713 
L 325.476328 131.987312 
L 325.679305 132.249863 
L 325.780794 132.372553 
L 326.085259 132.204454 
L 326.288235 132.369415 
L 326.389724 132.084957 
L 326.592701 132.255808 
L 326.694189 132.451208 
L 326.897166 132.205499 
L 326.998654 132.350591 
L 327.100142 132.285861 
L 327.201631 132.36259 
L 327.303119 132.125853 
L 327.404608 132.381635 
L 327.506096 132.275898 
L 327.607584 132.529368 
L 327.810561 132.157062 
L 327.912049 132.585181 
L 328.013538 132.334628 
L 328.115026 132.435356 
L 328.216515 132.185079 
L 328.419491 132.424568 
L 328.52098 132.261643 
L 328.723956 132.388955 
L 328.825445 132.592777 
L 328.926933 132.412678 
L 329.028422 132.485499 
L 329.12991 132.3103 
L 329.332887 132.552871 
L 329.434375 132.278596 
L 329.73884 132.674239 
L 329.941817 132.422366 
L 330.043305 132.539661 
L 330.144794 132.432108 
L 330.246282 132.535918 
L 330.449259 132.373378 
L 330.652236 132.689321 
L 330.753724 132.478509 
L 330.855212 132.5712 
L 331.058189 132.483243 
L 331.159677 132.526946 
L 331.362654 132.488692 
L 331.464143 132.509167 
L 331.565631 132.768581 
L 331.768608 132.570539 
L 331.870096 132.502232 
L 332.073073 132.608133 
L 332.174561 132.42732 
L 332.27605 132.59663 
L 332.377538 132.547587 
L 332.479026 132.815202 
L 332.783491 132.545605 
L 332.986468 132.664662 
L 333.087957 132.476197 
L 333.392422 132.89039 
L 333.595398 132.626517 
L 333.696887 132.591621 
L 333.899864 132.730272 
L 334.001352 132.51302 
L 334.305817 132.901288 
L 334.508794 132.626297 
L 334.813259 132.782562 
L 334.914747 132.55843 
L 335.219212 132.952147 
L 335.422189 132.734675 
L 335.726654 132.805129 
L 335.828143 132.615564 
L 335.929631 132.829348 
L 336.031119 132.769352 
L 336.132608 132.972733 
L 336.335585 132.615894 
L 336.538561 132.945542 
L 336.741538 132.83221 
L 336.944515 132.787186 
L 337.046003 132.963596 
L 337.147492 132.748051 
L 337.451957 132.977907 
L 337.654933 132.860667 
L 337.85791 132.844154 
L 337.959399 132.968935 
L 338.060887 132.825055 
L 338.365352 133.062837 
L 338.568329 132.878336 
L 338.771306 132.937121 
L 338.974282 132.932938 
L 339.177259 133.075717 
L 339.278747 132.989796 
L 339.380236 133.095092 
L 339.481724 132.852906 
L 339.684701 133.000364 
L 339.887678 132.9358 
L 340.090654 133.080671 
L 340.293631 133.082707 
L 340.39512 132.922259 
L 340.699585 133.021831 
L 340.902561 132.989521 
L 341.00405 133.214589 
L 341.410003 132.982255 
L 341.61298 133.093606 
L 341.714468 132.937176 
L 341.815957 133.041646 
L 341.917445 133.363478 
L 342.120422 133.064488 
L 342.323399 133.088872 
L 342.729352 133.118265 
L 342.830841 133.401127 
L 342.932329 133.103458 
L 343.033817 133.188168 
L 343.135306 133.004492 
L 343.338282 133.174243 
L 343.541259 133.074341 
L 343.744236 133.322031 
L 343.845724 133.116944 
L 343.947213 133.276181 
L 344.150189 133.078139 
L 344.251678 133.31471 
L 344.353166 133.029977 
L 344.657631 133.4636 
L 344.860608 133.161968 
L 345.165073 133.283116 
L 345.266562 133.084304 
L 345.469538 133.206993 
L 345.571027 133.431565 
L 345.774003 133.201544 
L 346.078469 133.298638 
L 346.179957 133.104119 
L 346.484422 133.463985 
L 346.687399 133.184536 
L 346.890376 133.276346 
L 346.991864 133.38544 
L 347.093352 133.09311 
L 347.397817 133.410979 
L 347.600794 133.274805 
L 347.702283 133.320545 
L 347.905259 133.272988 
L 348.717166 133.306344 
L 349.021631 133.33348 
L 349.12312 133.495744 
L 349.427585 133.239633 
L 349.529073 133.401017 
L 349.630562 133.30073 
L 349.73205 133.455674 
L 349.935027 133.28763 
L 350.036515 133.669898 
L 350.138004 133.398815 
L 350.239492 133.474828 
L 350.34098 133.293244 
L 350.645445 133.399586 
L 350.746934 133.30128 
L 350.949911 133.650743 
L 351.051399 133.459582 
L 351.152887 133.536586 
L 351.254376 133.266879 
L 351.355864 133.539998 
L 351.558841 133.31361 
L 351.863306 133.710519 
L 352.066283 133.431675 
L 352.370748 133.530476 
L 352.472236 133.391329 
L 352.87819 133.584307 
L 352.979678 133.453692 
L 353.284143 133.654266 
L 353.385632 133.429749 
L 353.690097 133.775029 
L 353.893073 133.59427 
L 354.09605 133.541099 
L 354.603492 133.75714 
L 354.806469 133.576326 
L 354.907957 133.657679 
L 355.110934 133.563501 
L 355.212422 133.708868 
L 355.313911 133.599609 
L 355.415399 133.859629 
L 355.516887 133.696098 
L 355.618376 133.784111 
L 355.719864 133.586454 
L 355.922841 133.698025 
L 356.227306 133.678044 
L 356.328794 133.954631 
L 356.430283 133.67865 
L 356.531771 133.872013 
L 356.734748 133.723179 
L 356.836236 133.847079 
L 356.937725 133.609296 
L 357.24219 134.055799 
L 357.445167 133.748884 
L 357.546655 133.864252 
L 357.648143 133.784936 
L 357.749632 133.897498 
L 357.85112 133.729674 
L 358.155585 133.969548 
L 358.46005 133.834474 
L 358.663027 133.993381 
L 358.764515 133.775304 
L 358.967492 133.961292 
L 359.068981 133.719051 
L 359.170469 133.984574 
L 359.271957 133.905534 
L 359.373446 134.136931 
L 359.576422 133.936357 
L 359.677911 133.981492 
L 359.779399 133.876582 
L 359.880888 134.042919 
L 359.982376 133.818127 
L 360.083864 134.053322 
L 360.185353 133.974447 
L 360.286841 134.153554 
L 360.591306 133.974006 
L 360.794283 134.052827 
L 360.895771 133.911093 
L 361.098748 134.288242 
L 361.301725 134.097081 
L 361.707678 134.026241 
L 361.809167 134.119483 
L 361.910655 134.045781 
L 362.012143 134.34367 
L 362.113632 134.139463 
L 362.21512 134.234026 
L 362.316609 134.087173 
L 362.519585 134.199349 
L 362.722562 134.149921 
L 362.82405 134.166654 
L 362.925539 134.398547 
L 363.230004 134.172489 
L 364.041911 134.41528 
L 364.143399 134.190983 
L 364.447864 134.420454 
L 364.549353 134.479514 
L 364.650841 134.290664 
L 364.75233 134.440654 
L 364.853818 134.304975 
L 365.056795 134.364751 
L 365.158283 134.419188 
L 365.259771 134.764413 
L 365.36126 134.419958 
L 365.462748 134.503237 
L 365.564237 134.400253 
L 365.767213 134.554151 
L 365.868702 134.3107 
L 365.97019 134.791383 
L 366.071678 134.44115 
L 366.173167 134.583049 
L 366.274655 134.483422 
L 366.477632 134.518429 
L 366.57912 134.829583 
L 366.782097 134.549198 
L 366.985074 134.663906 
L 367.086562 134.81951 
L 367.188051 134.44825 
L 367.391027 134.741845 
L 367.492516 134.818354 
L 367.695492 134.70849 
L 368.507399 134.954088 
L 368.710376 134.690161 
L 368.811865 135.00869 
L 369.014841 134.5918 
L 369.11633 135.200292 
L 369.319306 134.753349 
L 369.420795 135.175248 
L 369.522283 134.808997 
L 369.623772 135.070227 
L 369.826748 134.862223 
L 369.928237 135.186146 
L 370.029725 134.762046 
L 370.232702 135.101106 
L 370.33419 134.811859 
L 370.435679 135.416663 
L 370.537167 134.882313 
L 370.638655 135.202494 
L 370.740144 135.141727 
L 370.841632 134.819015 
L 370.94312 135.467852 
L 371.146097 135.014414 
L 371.247586 135.402297 
L 371.349074 135.004452 
L 371.450562 135.398059 
L 371.653539 134.896514 
L 371.755027 135.509905 
L 371.856516 135.141397 
L 372.059493 135.34709 
L 372.160981 135.172936 
L 372.262469 135.526748 
L 372.363958 135.155983 
L 372.465446 135.25616 
L 372.566934 135.519647 
L 372.668423 135.028065 
L 372.769911 135.592413 
L 372.972888 135.180917 
L 373.074376 135.681416 
L 373.175865 135.320504 
L 373.277353 135.581515 
L 373.48033 135.171285 
L 373.581818 135.808729 
L 373.581818 135.808729 
" style="fill:none;stroke:#081d58;stroke-dasharray:5.55,2.4;stroke-dashoffset:0;stroke-width:1.5;"/>
    <defs>
     <path d="M -0 4.242641 
L 4.242641 0 
L 0 -4.242641 
L -4.242641 -0 
z
" id="me4720d4739" style="stroke:#081d58;stroke-linejoin:miter;"/>
    </defs>
    <g clip-path="url(#p13737bfb6c)">
     <use style="fill:#081d58;stroke:#081d58;stroke-linejoin:miter;" x="69.218182" xlink:href="#me4720d4739" y="47.501838"/>
     <use style="fill:#081d58;stroke:#081d58;stroke-linejoin:miter;" x="77.337252" xlink:href="#me4720d4739" y="47.429237"/>
     <use style="fill:#081d58;stroke:#081d58;stroke-linejoin:miter;" x="85.456322" xlink:href="#me4720d4739" y="46.072996"/>
     <use style="fill:#081d58;stroke:#081d58;stroke-linejoin:miter;" x="93.575392" xlink:href="#me4720d4739" y="45.950362"/>
     <use style="fill:#081d58;stroke:#081d58;stroke-linejoin:miter;" x="101.694462" xlink:href="#me4720d4739" y="47.802423"/>
     <use style="fill:#081d58;stroke:#081d58;stroke-linejoin:miter;" x="109.813532" xlink:href="#me4720d4739" y="50.254555"/>
     <use style="fill:#081d58;stroke:#081d58;stroke-linejoin:miter;" x="117.932602" xlink:href="#me4720d4739" y="55.251563"/>
     <use style="fill:#081d58;stroke:#081d58;stroke-linejoin:miter;" x="126.051672" xlink:href="#me4720d4739" y="57.082488"/>
     <use style="fill:#081d58;stroke:#081d58;stroke-linejoin:miter;" x="134.170742" xlink:href="#me4720d4739" y="59.78963"/>
     <use style="fill:#081d58;stroke:#081d58;stroke-linejoin:miter;" x="142.289812" xlink:href="#me4720d4739" y="63.725095"/>
     <use style="fill:#081d58;stroke:#081d58;stroke-linejoin:miter;" x="150.408882" xlink:href="#me4720d4739" y="67.768772"/>
     <use style="fill:#081d58;stroke:#081d58;stroke-linejoin:miter;" x="158.527952" xlink:href="#me4720d4739" y="80.25945"/>
     <use style="fill:#081d58;stroke:#081d58;stroke-linejoin:miter;" x="166.647022" xlink:href="#me4720d4739" y="93.285909"/>
     <use style="fill:#081d58;stroke:#081d58;stroke-linejoin:miter;" x="174.766092" xlink:href="#me4720d4739" y="105.214716"/>
     <use style="fill:#081d58;stroke:#081d58;stroke-linejoin:miter;" x="182.885162" xlink:href="#me4720d4739" y="122.636738"/>
     <use style="fill:#081d58;stroke:#081d58;stroke-linejoin:miter;" x="191.004232" xlink:href="#me4720d4739" y="125.5586"/>
     <use style="fill:#081d58;stroke:#081d58;stroke-linejoin:miter;" x="199.123302" xlink:href="#me4720d4739" y="126.560368"/>
     <use style="fill:#081d58;stroke:#081d58;stroke-linejoin:miter;" x="207.242372" xlink:href="#me4720d4739" y="126.538902"/>
     <use style="fill:#081d58;stroke:#081d58;stroke-linejoin:miter;" x="215.361442" xlink:href="#me4720d4739" y="126.151074"/>
     <use style="fill:#081d58;stroke:#081d58;stroke-linejoin:miter;" x="223.480512" xlink:href="#me4720d4739" y="126.021615"/>
     <use style="fill:#081d58;stroke:#081d58;stroke-linejoin:miter;" x="231.599582" xlink:href="#me4720d4739" y="126.009781"/>
     <use style="fill:#081d58;stroke:#081d58;stroke-linejoin:miter;" x="239.718652" xlink:href="#me4720d4739" y="128.540733"/>
     <use style="fill:#081d58;stroke:#081d58;stroke-linejoin:miter;" x="247.837722" xlink:href="#me4720d4739" y="130.538986"/>
     <use style="fill:#081d58;stroke:#081d58;stroke-linejoin:miter;" x="255.956792" xlink:href="#me4720d4739" y="131.492207"/>
     <use style="fill:#081d58;stroke:#081d58;stroke-linejoin:miter;" x="264.075862" xlink:href="#me4720d4739" y="131.223051"/>
     <use style="fill:#081d58;stroke:#081d58;stroke-linejoin:miter;" x="272.194932" xlink:href="#me4720d4739" y="131.224867"/>
     <use style="fill:#081d58;stroke:#081d58;stroke-linejoin:miter;" x="280.314002" xlink:href="#me4720d4739" y="131.571853"/>
     <use style="fill:#081d58;stroke:#081d58;stroke-linejoin:miter;" x="288.433072" xlink:href="#me4720d4739" y="131.408873"/>
     <use style="fill:#081d58;stroke:#081d58;stroke-linejoin:miter;" x="296.552142" xlink:href="#me4720d4739" y="131.556111"/>
     <use style="fill:#081d58;stroke:#081d58;stroke-linejoin:miter;" x="304.671212" xlink:href="#me4720d4739" y="131.351684"/>
     <use style="fill:#081d58;stroke:#081d58;stroke-linejoin:miter;" x="312.790282" xlink:href="#me4720d4739" y="131.759822"/>
     <use style="fill:#081d58;stroke:#081d58;stroke-linejoin:miter;" x="320.909352" xlink:href="#me4720d4739" y="131.827029"/>
     <use style="fill:#081d58;stroke:#081d58;stroke-linejoin:miter;" x="329.028422" xlink:href="#me4720d4739" y="132.485499"/>
     <use style="fill:#081d58;stroke:#081d58;stroke-linejoin:miter;" x="337.147492" xlink:href="#me4720d4739" y="132.748051"/>
     <use style="fill:#081d58;stroke:#081d58;stroke-linejoin:miter;" x="345.266562" xlink:href="#me4720d4739" y="133.084304"/>
     <use style="fill:#081d58;stroke:#081d58;stroke-linejoin:miter;" x="353.385632" xlink:href="#me4720d4739" y="133.429749"/>
     <use style="fill:#081d58;stroke:#081d58;stroke-linejoin:miter;" x="361.504702" xlink:href="#me4720d4739" y="134.037415"/>
     <use style="fill:#081d58;stroke:#081d58;stroke-linejoin:miter;" x="369.623772" xlink:href="#me4720d4739" y="135.070227"/>
    </g>
   </g>
   <g id="patch_3">
    <path d="M 54 252 
L 54 34.56 
" style="fill:none;stroke:#000000;stroke-linecap:square;stroke-linejoin:miter;stroke-width:0.8;"/>
   </g>
   <g id="patch_4">
    <path d="M 388.8 252 
L 388.8 34.56 
" style="fill:none;stroke:#000000;stroke-linecap:square;stroke-linejoin:miter;stroke-width:0.8;"/>
   </g>
   <g id="patch_5">
    <path d="M 54 252 
L 388.8 252 
" style="fill:none;stroke:#000000;stroke-linecap:square;stroke-linejoin:miter;stroke-width:0.8;"/>
   </g>
   <g id="patch_6">
    <path d="M 54 34.56 
L 388.8 34.56 
" style="fill:none;stroke:#000000;stroke-linecap:square;stroke-linejoin:miter;stroke-width:0.8;"/>
   </g>
   <g id="legend_1">
    <g id="patch_7">
     <path d="M 280.085938 71.91625 
L 381.8 71.91625 
Q 383.8 71.91625 383.8 69.91625 
L 383.8 41.56 
Q 383.8 39.56 381.8 39.56 
L 280.085938 39.56 
Q 278.085938 39.56 278.085938 41.56 
L 278.085938 69.91625 
Q 278.085938 71.91625 280.085938 71.91625 
z
" style="fill:#ffffff;opacity:0.8;stroke:#cccccc;stroke-linejoin:miter;"/>
    </g>
    <g id="line2d_16">
     <path d="M 282.085938 47.658437 
L 302.085938 47.658437 
" style="fill:none;stroke:#40b5c4;stroke-dasharray:5.55,2.4;stroke-dashoffset:0;stroke-width:1.5;"/>
    </g>
    <g id="line2d_17">
     <g>
      <use style="fill:#40b5c4;stroke:#40b5c4;" x="292.085938" xlink:href="#m00729b6a42" y="47.658437"/>
     </g>
    </g>
    <g id="text_16">
     <text style="font-family:DejaVu Sans;font-size:10px;font-style:normal;font-weight:normal;text-anchor:start;" transform="rotate(-0, 310.085938, 51.158437)" x="310.085938" y="51.158437">original</text>
    </g>
    <g id="line2d_18">
     <path d="M 282.085938 62.336562 
L 302.085938 62.336562 
" style="fill:none;stroke:#081d58;stroke-dasharray:5.55,2.4;stroke-dashoffset:0;stroke-width:1.5;"/>
    </g>
    <g id="line2d_19">
     <g>
      <use style="fill:#081d58;stroke:#081d58;stroke-linejoin:miter;" x="292.085938" xlink:href="#me4720d4739" y="62.336562"/>
     </g>
    </g>
    <g id="text_17">
     <text style="font-family:DejaVu Sans;font-size:10px;font-style:normal;font-weight:normal;text-anchor:start;" transform="rotate(-0, 310.085938, 65.836562)" x="310.085938" y="65.836562">reconstructed</text>
    </g>
   </g>
  </g>
  <g id="text_18">
   <text style="font-family:DejaVu Sans;font-size:12px;font-style:normal;font-weight:normal;text-anchor:middle;" transform="rotate(-0, 216, 14.878125)" x="216" y="14.878125">Reconstruction of the weight curve</text>
  </g>
 </g>
 <defs>
  <clipPath id="p13737bfb6c">
   <rect height="217.44" width="334.8" x="54" y="34.56"/>
  </clipPath>
 </defs>
</svg>
