<?xml version="1.0" encoding="utf-8" standalone="no"?>
<!DOCTYPE svg PUBLIC "-//W3C//DTD SVG 1.1//EN"
  "http://www.w3.org/Graphics/SVG/1.1/DTD/svg11.dtd">
<!-- Created with matplotlib (https://matplotlib.org/) -->
<svg height="288pt" version="1.1" viewBox="0 0 432 288" width="432pt" xmlns="http://www.w3.org/2000/svg" xmlns:xlink="http://www.w3.org/1999/xlink">
 <defs>
  <style type="text/css">
*{stroke-linecap:butt;stroke-linejoin:round;}
  </style>
 </defs>
 <g id="figure_1">
  <g id="patch_1">
   <path d="M 0 288 
L 432 288 
L 432 0 
L 0 0 
z
" style="fill:#ffffff;"/>
  </g>
  <g id="axes_1">
   <g id="patch_2">
    <path d="M 54 252 
L 388.8 252 
L 388.8 34.56 
L 54 34.56 
z
" style="fill:#ffffff;"/>
   </g>
   <g id="matplotlib.axis_1">
    <g id="xtick_1">
     <g id="line2d_1">
      <defs>
       <path d="M 0 0 
L 0 3.5 
" id="m0b9559a1a4" style="stroke:#000000;stroke-width:0.8;"/>
      </defs>
      <g>
       <use style="stroke:#000000;stroke-width:0.8;" x="69.218182" xlink:href="#m0b9559a1a4" y="252"/>
      </g>
     </g>
     <g id="text_1">
      <text style="font-family:DejaVu Sans;font-size:10px;font-style:normal;font-weight:normal;text-anchor:middle;" transform="rotate(-0, 69.218182, 266.598437)" x="69.218182" y="266.598437">0</text>
     </g>
    </g>
    <g id="xtick_2">
     <g id="line2d_2">
      <g>
       <use style="stroke:#000000;stroke-width:0.8;" x="119.962369" xlink:href="#m0b9559a1a4" y="252"/>
      </g>
     </g>
     <g id="text_2">
      <text style="font-family:DejaVu Sans;font-size:10px;font-style:normal;font-weight:normal;text-anchor:middle;" transform="rotate(-0, 119.962369, 266.598437)" x="119.962369" y="266.598437">500</text>
     </g>
    </g>
    <g id="xtick_3">
     <g id="line2d_3">
      <g>
       <use style="stroke:#000000;stroke-width:0.8;" x="170.706557" xlink:href="#m0b9559a1a4" y="252"/>
      </g>
     </g>
     <g id="text_3">
      <text style="font-family:DejaVu Sans;font-size:10px;font-style:normal;font-weight:normal;text-anchor:middle;" transform="rotate(-0, 170.706557, 266.598437)" x="170.706557" y="266.598437">1000</text>
     </g>
    </g>
    <g id="xtick_4">
     <g id="line2d_4">
      <g>
       <use style="stroke:#000000;stroke-width:0.8;" x="221.450744" xlink:href="#m0b9559a1a4" y="252"/>
      </g>
     </g>
     <g id="text_4">
      <text style="font-family:DejaVu Sans;font-size:10px;font-style:normal;font-weight:normal;text-anchor:middle;" transform="rotate(-0, 221.450744, 266.598437)" x="221.450744" y="266.598437">1500</text>
     </g>
    </g>
    <g id="xtick_5">
     <g id="line2d_5">
      <g>
       <use style="stroke:#000000;stroke-width:0.8;" x="272.194932" xlink:href="#m0b9559a1a4" y="252"/>
      </g>
     </g>
     <g id="text_5">
      <text style="font-family:DejaVu Sans;font-size:10px;font-style:normal;font-weight:normal;text-anchor:middle;" transform="rotate(-0, 272.194932, 266.598437)" x="272.194932" y="266.598437">2000</text>
     </g>
    </g>
    <g id="xtick_6">
     <g id="line2d_6">
      <g>
       <use style="stroke:#000000;stroke-width:0.8;" x="322.939119" xlink:href="#m0b9559a1a4" y="252"/>
      </g>
     </g>
     <g id="text_6">
      <text style="font-family:DejaVu Sans;font-size:10px;font-style:normal;font-weight:normal;text-anchor:middle;" transform="rotate(-0, 322.939119, 266.598437)" x="322.939119" y="266.598437">2500</text>
     </g>
    </g>
    <g id="xtick_7">
     <g id="line2d_7">
      <g>
       <use style="stroke:#000000;stroke-width:0.8;" x="373.683307" xlink:href="#m0b9559a1a4" y="252"/>
      </g>
     </g>
     <g id="text_7">
      <text style="font-family:DejaVu Sans;font-size:10px;font-style:normal;font-weight:normal;text-anchor:middle;" transform="rotate(-0, 373.683307, 266.598437)" x="373.683307" y="266.598437">3000</text>
     </g>
    </g>
    <g id="text_8">
     <text style="font-family:DejaVu Sans;font-size:10px;font-style:normal;font-weight:normal;text-anchor:middle;" transform="rotate(-0, 221.4, 280.276563)" x="221.4" y="280.276563">Time</text>
    </g>
   </g>
   <g id="matplotlib.axis_2">
    <g id="ytick_1">
     <g id="line2d_8">
      <defs>
       <path d="M 0 0 
L -3.5 0 
" id="me7f306a925" style="stroke:#000000;stroke-width:0.8;"/>
      </defs>
      <g>
       <use style="stroke:#000000;stroke-width:0.8;" x="54" xlink:href="#me7f306a925" y="225.716241"/>
      </g>
     </g>
     <g id="text_9">
      <text style="font-family:DejaVu Sans;font-size:10px;font-style:normal;font-weight:normal;text-anchor:end;" transform="rotate(-0, 47, 229.51546)" x="47" y="229.51546">70</text>
     </g>
    </g>
    <g id="ytick_2">
     <g id="line2d_9">
      <g>
       <use style="stroke:#000000;stroke-width:0.8;" x="54" xlink:href="#me7f306a925" y="190.590081"/>
      </g>
     </g>
     <g id="text_10">
      <text style="font-family:DejaVu Sans;font-size:10px;font-style:normal;font-weight:normal;text-anchor:end;" transform="rotate(-0, 47, 194.3893)" x="47" y="194.3893">75</text>
     </g>
    </g>
    <g id="ytick_3">
     <g id="line2d_10">
      <g>
       <use style="stroke:#000000;stroke-width:0.8;" x="54" xlink:href="#me7f306a925" y="155.463922"/>
      </g>
     </g>
     <g id="text_11">
      <text style="font-family:DejaVu Sans;font-size:10px;font-style:normal;font-weight:normal;text-anchor:end;" transform="rotate(-0, 47, 159.263141)" x="47" y="159.263141">80</text>
     </g>
    </g>
    <g id="ytick_4">
     <g id="line2d_11">
      <g>
       <use style="stroke:#000000;stroke-width:0.8;" x="54" xlink:href="#me7f306a925" y="120.337762"/>
      </g>
     </g>
     <g id="text_12">
      <text style="font-family:DejaVu Sans;font-size:10px;font-style:normal;font-weight:normal;text-anchor:end;" transform="rotate(-0, 47, 124.136981)" x="47" y="124.136981">85</text>
     </g>
    </g>
    <g id="ytick_5">
     <g id="line2d_12">
      <g>
       <use style="stroke:#000000;stroke-width:0.8;" x="54" xlink:href="#me7f306a925" y="85.211603"/>
      </g>
     </g>
     <g id="text_13">
      <text style="font-family:DejaVu Sans;font-size:10px;font-style:normal;font-weight:normal;text-anchor:end;" transform="rotate(-0, 47, 89.010822)" x="47" y="89.010822">90</text>
     </g>
    </g>
    <g id="ytick_6">
     <g id="line2d_13">
      <g>
       <use style="stroke:#000000;stroke-width:0.8;" x="54" xlink:href="#me7f306a925" y="50.085443"/>
      </g>
     </g>
     <g id="text_14">
      <text style="font-family:DejaVu Sans;font-size:10px;font-style:normal;font-weight:normal;text-anchor:end;" transform="rotate(-0, 47, 53.884662)" x="47" y="53.884662">95</text>
     </g>
    </g>
    <g id="text_15">
     <text style="font-family:DejaVu Sans;font-size:10px;font-style:normal;font-weight:normal;text-anchor:middle;" transform="rotate(-90, 28.195312, 143.28)" x="28.195312" y="143.28">weight (\%)</text>
    </g>
   </g>
   <g id="line2d_14">
    <path clip-path="url(#pfc080d35a3)" d="M 69.218182 199.973684 
L 87.892043 200.198421 
L 93.981345 200.545186 
L 131.227579 203.5144 
L 136.200509 204.211022 
L 140.158556 204.975649 
L 143.203207 205.771607 
L 145.943393 206.709827 
L 148.074649 207.658795 
L 150.205905 208.830815 
L 152.235672 210.194834 
L 154.468417 211.959923 
L 156.904138 214.17519 
L 159.23837 216.594609 
L 161.369626 219.114771 
L 163.399394 221.874563 
L 165.429161 225.03662 
L 168.169347 229.768535 
L 171.011022 234.579344 
L 172.330371 236.3908 
L 173.446743 237.55193 
L 174.360138 238.187713 
L 175.375022 238.616112 
L 177.100324 239.061723 
L 180.449441 239.654722 
L 185.422371 240.30273 
L 192.222092 240.92369 
L 200.442651 241.398806 
L 211.606372 241.814068 
L 225.307302 242.074493 
L 240.023117 242.086436 
L 253.318094 241.874696 
L 273.818746 241.253525 
L 355.922841 238.408376 
L 373.581818 238.068074 
L 373.581818 238.068074 
" style="fill:none;stroke:#40b5c4;stroke-dasharray:5.55,2.4;stroke-dashoffset:0;stroke-width:1.5;"/>
    <defs>
     <path d="M 0 3 
C 0.795609 3 1.55874 2.683901 2.12132 2.12132 
C 2.683901 1.55874 3 0.795609 3 0 
C 3 -0.795609 2.683901 -1.55874 2.12132 -2.12132 
C 1.55874 -2.683901 0.795609 -3 0 -3 
C -0.795609 -3 -1.55874 -2.683901 -2.12132 -2.12132 
C -2.683901 -1.55874 -3 -0.795609 -3 0 
C -3 0.795609 -2.683901 1.55874 -2.12132 2.12132 
C -1.55874 2.683901 -0.795609 3 0 3 
z
" id="mfb736bdfed" style="stroke:#40b5c4;"/>
    </defs>
    <g clip-path="url(#pfc080d35a3)">
     <use style="fill:#40b5c4;stroke:#40b5c4;" x="69.218182" xlink:href="#mfb736bdfed" y="199.973684"/>
     <use style="fill:#40b5c4;stroke:#40b5c4;" x="77.337252" xlink:href="#mfb736bdfed" y="200.021034"/>
     <use style="fill:#40b5c4;stroke:#40b5c4;" x="85.456322" xlink:href="#mfb736bdfed" y="200.124586"/>
     <use style="fill:#40b5c4;stroke:#40b5c4;" x="93.575392" xlink:href="#mfb736bdfed" y="200.514064"/>
     <use style="fill:#40b5c4;stroke:#40b5c4;" x="101.694462" xlink:href="#mfb736bdfed" y="201.213777"/>
     <use style="fill:#40b5c4;stroke:#40b5c4;" x="109.813532" xlink:href="#mfb736bdfed" y="201.845838"/>
     <use style="fill:#40b5c4;stroke:#40b5c4;" x="117.932602" xlink:href="#mfb736bdfed" y="202.389661"/>
     <use style="fill:#40b5c4;stroke:#40b5c4;" x="126.051672" xlink:href="#mfb736bdfed" y="202.995376"/>
     <use style="fill:#40b5c4;stroke:#40b5c4;" x="134.170742" xlink:href="#mfb736bdfed" y="203.897838"/>
     <use style="fill:#40b5c4;stroke:#40b5c4;" x="142.289812" xlink:href="#mfb736bdfed" y="205.508934"/>
     <use style="fill:#40b5c4;stroke:#40b5c4;" x="150.408882" xlink:href="#mfb736bdfed" y="208.956075"/>
     <use style="fill:#40b5c4;stroke:#40b5c4;" x="158.527952" xlink:href="#mfb736bdfed" y="215.825557"/>
     <use style="fill:#40b5c4;stroke:#40b5c4;" x="166.647022" xlink:href="#mfb736bdfed" y="227.098666"/>
     <use style="fill:#40b5c4;stroke:#40b5c4;" x="174.766092" xlink:href="#mfb736bdfed" y="238.385966"/>
     <use style="fill:#40b5c4;stroke:#40b5c4;" x="182.885162" xlink:href="#mfb736bdfed" y="239.994392"/>
     <use style="fill:#40b5c4;stroke:#40b5c4;" x="191.004232" xlink:href="#mfb736bdfed" y="240.832081"/>
     <use style="fill:#40b5c4;stroke:#40b5c4;" x="199.123302" xlink:href="#mfb736bdfed" y="241.334736"/>
     <use style="fill:#40b5c4;stroke:#40b5c4;" x="207.242372" xlink:href="#mfb736bdfed" y="241.675179"/>
     <use style="fill:#40b5c4;stroke:#40b5c4;" x="215.361442" xlink:href="#mfb736bdfed" y="241.909822"/>
     <use style="fill:#40b5c4;stroke:#40b5c4;" x="223.480512" xlink:href="#mfb736bdfed" y="242.052013"/>
     <use style="fill:#40b5c4;stroke:#40b5c4;" x="231.599582" xlink:href="#mfb736bdfed" y="242.112992"/>
     <use style="fill:#40b5c4;stroke:#40b5c4;" x="239.718652" xlink:href="#mfb736bdfed" y="242.088544"/>
     <use style="fill:#40b5c4;stroke:#40b5c4;" x="247.837722" xlink:href="#mfb736bdfed" y="241.98176"/>
     <use style="fill:#40b5c4;stroke:#40b5c4;" x="255.956792" xlink:href="#mfb736bdfed" y="241.81196"/>
     <use style="fill:#40b5c4;stroke:#40b5c4;" x="264.075862" xlink:href="#mfb736bdfed" y="241.585607"/>
     <use style="fill:#40b5c4;stroke:#40b5c4;" x="272.194932" xlink:href="#mfb736bdfed" y="241.312607"/>
     <use style="fill:#40b5c4;stroke:#40b5c4;" x="280.314002" xlink:href="#mfb736bdfed" y="241.002794"/>
     <use style="fill:#40b5c4;stroke:#40b5c4;" x="288.433072" xlink:href="#mfb736bdfed" y="240.671273"/>
     <use style="fill:#40b5c4;stroke:#40b5c4;" x="296.552142" xlink:href="#mfb736bdfed" y="240.336451"/>
     <use style="fill:#40b5c4;stroke:#40b5c4;" x="304.671212" xlink:href="#mfb736bdfed" y="240.045466"/>
     <use style="fill:#40b5c4;stroke:#40b5c4;" x="312.790282" xlink:href="#mfb736bdfed" y="239.760803"/>
     <use style="fill:#40b5c4;stroke:#40b5c4;" x="320.909352" xlink:href="#mfb736bdfed" y="239.464339"/>
     <use style="fill:#40b5c4;stroke:#40b5c4;" x="329.028422" xlink:href="#mfb736bdfed" y="239.186772"/>
     <use style="fill:#40b5c4;stroke:#40b5c4;" x="337.147492" xlink:href="#mfb736bdfed" y="238.918478"/>
     <use style="fill:#40b5c4;stroke:#40b5c4;" x="345.266562" xlink:href="#mfb736bdfed" y="238.679339"/>
     <use style="fill:#40b5c4;stroke:#40b5c4;" x="353.385632" xlink:href="#mfb736bdfed" y="238.468863"/>
     <use style="fill:#40b5c4;stroke:#40b5c4;" x="361.504702" xlink:href="#mfb736bdfed" y="238.284381"/>
     <use style="fill:#40b5c4;stroke:#40b5c4;" x="369.623772" xlink:href="#mfb736bdfed" y="238.130247"/>
    </g>
   </g>
   <g id="line2d_15">
    <path clip-path="url(#pfc080d35a3)" d="M 69.218182 50.117656 
L 69.31967 50.179401 
L 69.421159 50.657283 
L 69.522647 50.321758 
L 69.624135 50.472798 
L 69.725624 49.824581 
L 69.827112 50.771448 
L 69.9286 50.024073 
L 70.131577 50.624749 
L 70.233066 49.851219 
L 70.334554 50.926079 
L 70.537531 50.153192 
L 70.639019 50.609152 
L 70.740507 49.935583 
L 70.841996 50.830835 
L 70.943484 50.156461 
L 71.044973 50.322777 
L 71.146461 50.815345 
L 71.247949 49.968706 
L 71.349438 51.055197 
L 71.552414 50.302034 
L 71.653903 50.623034 
L 71.755391 50.040314 
L 71.85688 50.86294 
L 71.958368 50.300426 
L 72.059856 50.325081 
L 72.161345 50.63831 
L 72.262833 50.191675 
L 72.364321 50.84611 
L 72.46581 50.251812 
L 72.567298 50.369729 
L 72.668787 50.830138 
L 72.770275 50.218367 
L 72.871763 50.665484 
L 73.07474 50.066309 
L 73.176228 50.795996 
L 73.277717 49.999311 
L 73.480694 50.547568 
L 73.582182 50.060306 
L 73.68367 50.772198 
L 73.785159 50.033239 
L 73.886647 50.610331 
L 74.089624 49.588266 
L 74.191112 50.74765 
L 74.292601 50.028736 
L 74.394089 50.084907 
L 74.495577 50.111492 
L 74.597066 49.689995 
L 74.698554 50.412714 
L 74.800042 49.725745 
L 74.901531 50.116048 
L 75.003019 50.020804 
L 75.104508 49.483053 
L 75.205996 50.312539 
L 75.307484 49.484232 
L 75.408973 49.52845 
L 75.510461 49.859848 
L 75.611949 49.131609 
L 75.713438 49.992611 
L 75.814926 49.132841 
L 76.017903 49.551497 
L 76.119391 48.942675 
L 76.22088 49.745523 
L 76.423856 48.86008 
L 76.525345 49.218438 
L 76.626833 48.470152 
L 76.728322 49.260459 
L 76.931298 48.241502 
L 77.032787 49.034917 
L 77.134275 48.080493 
L 77.235763 48.911749 
L 77.43874 47.934706 
L 77.540229 48.596644 
L 77.641717 47.74947 
L 77.743205 48.390184 
L 77.844694 47.728728 
L 78.04767 48.283684 
L 78.149159 47.54435 
L 78.250647 48.152422 
L 78.453624 47.713291 
L 78.555112 48.15269 
L 78.656601 47.644793 
L 78.758089 48.03815 
L 78.961066 47.339068 
L 79.062554 48.009207 
L 79.164043 47.329421 
L 79.265531 47.593285 
L 79.367019 47.526233 
L 79.468508 47.168465 
L 79.569996 47.736231 
L 79.671484 47.431472 
L 79.772973 47.639219 
L 79.97595 46.783469 
L 80.077438 47.575222 
L 80.280415 47.034255 
L 80.381903 47.238893 
L 80.483391 46.551871 
L 80.58488 47.317039 
L 80.686368 46.67922 
L 80.787857 47.038972 
L 80.889345 46.913766 
L 80.990833 46.458878 
L 81.092322 47.290401 
L 81.295298 46.433418 
L 81.396787 46.755973 
L 81.498275 46.260671 
L 81.599764 46.656977 
L 81.701252 46.171698 
L 81.904229 46.497361 
L 82.005717 46.129355 
L 82.107205 46.701088 
L 82.310182 45.802996 
L 82.411671 46.570148 
L 82.513159 45.78638 
L 82.614647 46.468311 
L 82.817624 45.678755 
L 82.919112 46.332654 
L 83.020601 45.730316 
L 83.122089 46.529091 
L 83.325066 45.779198 
L 83.426554 46.283504 
L 83.528043 45.800048 
L 83.629531 46.095213 
L 83.731019 45.67988 
L 83.832508 45.722277 
L 83.933996 46.127372 
L 84.035485 45.49904 
L 84.136973 46.112204 
L 84.238461 45.710646 
L 84.441438 46.071576 
L 84.542926 45.489553 
L 84.644415 45.98941 
L 84.847392 45.320182 
L 84.94888 45.84298 
L 85.050368 45.781717 
L 85.354833 45.332832 
L 85.456322 46.030306 
L 85.55781 45.486283 
L 85.760787 45.678326 
L 85.862275 44.985622 
L 85.963764 45.914534 
L 86.065252 45.340657 
L 86.268229 45.461521 
L 86.369717 44.961181 
L 86.471206 45.845231 
L 86.572694 45.143415 
L 86.674182 45.582278 
L 86.877159 44.883142 
L 86.978647 45.651044 
L 87.181624 45.244662 
L 87.283113 45.372012 
L 87.384601 44.876657 
L 87.486089 45.486069 
L 87.689066 45.022658 
L 87.790554 45.533182 
L 87.892043 44.443636 
L 87.993531 45.622959 
L 88.196508 44.979351 
L 88.297996 45.583725 
L 88.399485 44.836029 
L 88.500973 45.348857 
L 88.70395 44.742232 
L 88.805438 45.311339 
L 88.906927 44.771283 
L 89.008415 45.415373 
L 89.211392 44.740946 
L 89.31288 45.364026 
L 89.414368 44.84155 
L 89.515857 45.257955 
L 89.617345 44.846642 
L 89.718834 44.920768 
L 89.820322 45.38718 
L 89.92181 44.979887 
L 90.023299 45.365312 
L 90.226275 44.788434 
L 90.327764 45.26846 
L 90.429252 44.919053 
L 90.530741 45.291025 
L 90.733717 44.633803 
L 90.835206 45.44587 
L 90.936694 44.873494 
L 91.038182 45.521176 
L 91.241159 45.066234 
L 91.342648 45.285451 
L 91.444136 44.987498 
L 91.545624 45.34339 
L 91.748601 44.762707 
L 91.850089 45.353842 
L 91.951578 45.05262 
L 92.053066 45.142022 
L 92.154555 45.606987 
L 92.256043 45.005185 
L 92.357531 45.669161 
L 92.45902 44.908869 
L 92.661996 45.389378 
L 92.763485 44.914819 
L 92.864973 45.861578 
L 92.966462 44.914712 
L 93.169438 45.557623 
L 93.270927 45.176914 
L 93.372415 45.966792 
L 93.473903 45.101394 
L 93.67688 45.530288 
L 93.778369 45.06334 
L 93.879857 45.76805 
L 93.981345 45.605218 
L 94.082834 45.127979 
L 94.184322 45.598143 
L 94.28581 45.306408 
L 94.387299 46.040061 
L 94.590276 45.460503 
L 94.691764 46.023177 
L 94.793252 45.076042 
L 94.894741 46.069593 
L 94.996229 45.466666 
L 95.097717 45.774803 
L 95.300694 45.499737 
L 95.402183 45.853807 
L 95.605159 45.722223 
L 95.706648 46.149026 
L 95.808136 45.526536 
L 95.909624 46.039471 
L 96.112601 45.52675 
L 96.21409 46.465202 
L 96.315578 45.435579 
L 96.417066 46.312233 
L 96.620043 45.699444 
L 96.721531 46.418947 
L 96.82302 45.688617 
L 96.924508 46.308106 
L 97.127485 45.783486 
L 97.228973 46.3244 
L 97.330462 46.235748 
L 97.43195 46.420394 
L 97.634927 45.83896 
L 97.736415 46.498647 
L 97.837904 46.203911 
L 97.939392 46.239821 
L 98.04088 46.439636 
L 98.142369 45.737016 
L 98.243857 46.772159 
L 98.345345 46.064662 
L 98.446834 46.611954 
L 98.548322 46.557391 
L 98.649811 45.962504 
L 98.751299 46.629534 
L 98.954276 46.259546 
L 99.055764 46.48707 
L 99.157252 46.051102 
L 99.258741 46.559053 
L 99.360229 46.127747 
L 99.461718 46.209431 
L 99.664694 46.59968 
L 99.766183 46.367171 
L 99.867671 46.440922 
L 100.070648 46.281039 
L 100.273625 46.446711 
L 100.375113 46.123888 
L 100.679578 46.892327 
L 100.781066 46.364437 
L 100.882555 46.54367 
L 101.085532 46.247218 
L 101.288508 46.469008 
L 101.389997 46.139485 
L 101.592973 46.509474 
L 101.694462 46.538149 
L 101.79595 46.738607 
L 101.998927 46.418464 
L 102.100415 46.331689 
L 102.201904 46.527912 
L 102.303392 46.420716 
L 102.40488 46.583011 
L 102.506369 46.353289 
L 102.709346 46.704358 
L 102.810834 46.562858 
L 102.912322 46.778538 
L 103.013811 46.588532 
L 103.115299 46.801156 
L 103.318276 46.517943 
L 103.419764 46.619351 
L 103.521253 46.896883 
L 103.622741 46.586441 
L 103.724229 46.942816 
L 103.825718 46.821041 
L 104.028694 46.850466 
L 104.130183 46.865581 
L 104.231671 47.09332 
L 104.33316 46.485248 
L 104.434648 47.032969 
L 104.536136 46.773499 
L 104.637625 47.42177 
L 104.739113 46.707734 
L 104.840601 47.296511 
L 104.94209 46.885359 
L 105.043578 47.234016 
L 105.145067 46.862419 
L 105.55102 47.365867 
L 105.652508 47.43919 
L 105.753997 47.179077 
L 105.855485 47.267943 
L 105.956974 47.113527 
L 106.15995 47.358953 
L 106.261439 47.162408 
L 106.464415 47.39733 
L 106.565904 47.938886 
L 106.768881 47.539794 
L 106.971857 47.389451 
L 107.174834 47.633323 
L 107.377811 47.416947 
L 107.479299 47.549924 
L 107.580788 48.124068 
L 107.885253 47.757778 
L 108.088229 47.726959 
L 108.189718 47.981604 
L 108.291206 47.875319 
L 108.392695 47.56595 
L 108.595671 48.18576 
L 108.69716 48.234802 
L 109.001625 47.996076 
L 109.204602 48.259458 
L 109.407578 47.976405 
L 109.610555 48.452197 
L 109.712043 48.337926 
L 109.813532 48.538705 
L 109.91502 48.223976 
L 110.016509 48.429632 
L 110.117997 48.299764 
L 110.422462 48.516301 
L 110.52395 48.455842 
L 110.625439 48.688512 
L 110.726927 48.490788 
L 110.828416 48.679454 
L 110.929904 48.607846 
L 111.031392 48.830815 
L 111.132881 48.725923 
L 111.335857 49.021196 
L 111.437346 48.910355 
L 111.741811 49.201501 
L 111.843299 49.521536 
L 112.046276 49.431437 
L 112.249253 49.679758 
L 112.350741 49.636826 
L 112.553718 49.814075 
L 112.655206 49.643419 
L 112.959671 50.231767 
L 113.06116 50.258941 
L 113.264137 50.48325 
L 113.365625 50.232517 
L 113.467113 50.476496 
L 113.568602 50.422041 
L 113.67009 50.82526 
L 113.771578 50.647475 
L 113.873067 50.803875 
L 113.974555 50.621212 
L 114.27902 51.230463 
L 114.380509 50.949662 
L 114.684974 51.642044 
L 114.786462 51.508263 
L 114.887951 51.321098 
L 115.192416 51.926329 
L 115.293904 51.934048 
L 115.395392 51.720995 
L 115.801346 52.390062 
L 115.902834 52.06472 
L 116.004323 52.141151 
L 116.207299 52.71535 
L 116.308788 52.585267 
L 116.410276 52.653551 
L 116.511765 52.473621 
L 116.81623 53.347541 
L 116.917718 52.703826 
L 117.019206 53.109672 
L 117.120695 52.890509 
L 117.222183 53.52806 
L 117.323672 53.290834 
L 117.42516 53.577853 
L 117.526648 53.189748 
L 117.831113 53.876127 
L 117.932602 53.794175 
L 118.03409 53.942589 
L 118.135579 53.722515 
L 118.237067 54.230626 
L 118.338555 54.024809 
L 118.440044 54.331873 
L 118.541532 53.960598 
L 118.845997 54.59563 
L 118.947486 54.424062 
L 119.353439 55.071636 
L 119.556416 54.970925 
L 119.962369 55.241275 
L 120.063858 55.232056 
L 120.266834 55.673063 
L 120.368323 55.930763 
L 120.469811 55.653714 
L 120.5713 55.924974 
L 120.672788 55.81826 
L 120.875765 56.072477 
L 120.977253 55.67124 
L 121.078741 56.374986 
L 121.281718 55.964423 
L 121.383207 56.39412 
L 121.484695 55.979645 
L 121.586183 56.575497 
L 121.687672 56.002692 
L 121.890648 56.592219 
L 121.992137 55.915005 
L 122.093625 56.688643 
L 122.296602 56.322406 
L 122.39809 56.788228 
L 122.499579 56.308899 
L 122.601067 56.922009 
L 122.702555 56.401195 
L 122.804044 56.487435 
L 122.905532 56.92694 
L 123.007021 56.350384 
L 123.108509 57.011143 
L 123.311486 56.50137 
L 123.412974 57.266217 
L 123.514462 56.647372 
L 123.615951 57.171992 
L 123.717439 56.649945 
L 123.818928 56.829445 
L 123.920416 57.275919 
L 124.021904 56.763895 
L 124.123393 57.342434 
L 124.326369 56.893442 
L 124.427858 57.470963 
L 124.529346 57.153876 
L 124.630835 57.500174 
L 124.732323 57.042659 
L 124.833811 57.158592 
L 124.9353 57.632883 
L 125.036788 56.965746 
L 125.138276 57.851779 
L 125.341253 57.302343 
L 125.442742 57.89128 
L 125.54423 57.375987 
L 125.645718 57.863785 
L 125.747207 57.384134 
L 125.848695 57.579124 
L 125.950183 58.047144 
L 126.051672 57.337128 
L 126.15316 58.179693 
L 126.356137 57.672171 
L 126.457625 58.223375 
L 126.559114 57.89455 
L 126.660602 58.103047 
L 126.863579 57.833448 
L 126.965067 58.489437 
L 127.066556 57.859229 
L 127.168044 58.523418 
L 127.371021 57.991938 
L 127.472509 58.691127 
L 127.573997 58.299914 
L 127.675486 58.512109 
L 127.878463 58.209815 
L 127.979951 58.76847 
L 128.081439 58.346437 
L 128.182928 58.837665 
L 128.284416 58.517308 
L 128.385904 58.556167 
L 128.487393 59.019846 
L 128.588881 58.769756 
L 128.791858 58.813063 
L 128.893346 58.480915 
L 128.994835 59.117394 
L 129.096323 59.061384 
L 129.197811 59.032388 
L 129.2993 58.881348 
L 129.603765 59.335754 
L 129.705253 59.097617 
L 130.111207 59.589863 
L 130.314184 59.34315 
L 130.51716 59.631884 
L 130.923114 59.695023 
L 131.024602 60.016291 
L 131.126091 59.98365 
L 131.227579 59.758215 
L 131.633532 60.153342 
L 131.836509 60.017148 
L 131.937998 60.092132 
L 132.039486 60.613483 
L 132.242463 60.282138 
L 132.343951 60.402681 
L 132.445439 60.30004 
L 132.648416 60.67094 
L 132.851393 60.519847 
L 132.952881 60.661882 
L 133.05437 61.010003 
L 133.155858 60.955333 
L 133.358835 60.777547 
L 133.6633 60.968518 
L 133.764788 60.737027 
L 133.866277 60.837577 
L 133.967765 60.767042 
L 134.069253 61.065155 
L 134.27223 60.950562 
L 134.678184 61.046771 
L 134.779672 60.788803 
L 134.88116 60.987063 
L 134.982649 60.920654 
L 135.185626 61.162865 
L 135.388602 60.982292 
L 135.591579 61.029352 
L 135.693067 61.198347 
L 135.794556 60.833396 
L 136.099021 61.448865 
L 136.301998 61.207727 
L 136.403486 61.226057 
L 136.504974 61.125453 
L 136.707951 61.555258 
L 136.80944 61.351156 
L 137.012416 61.586131 
L 137.113905 61.975361 
L 137.316881 61.847583 
L 137.621347 61.919673 
L 137.722835 62.350495 
L 137.824323 61.942773 
L 138.128788 62.683287 
L 138.331765 62.577591 
L 138.63623 62.713463 
L 138.737719 63.10055 
L 138.839207 62.601925 
L 139.143672 63.490584 
L 139.346649 63.385424 
L 139.448137 63.280318 
L 139.549626 63.570392 
L 139.651114 63.491174 
L 139.752602 63.756967 
L 139.854091 63.599496 
L 140.158556 64.327575 
L 140.260044 64.113289 
L 140.767486 64.595512 
L 140.868975 64.427589 
L 141.17344 65.09001 
L 141.274928 64.950226 
L 141.376416 65.116863 
L 141.477905 65.032606 
L 141.78237 65.434647 
L 141.883858 65.222451 
L 142.188323 66.101516 
L 142.289812 65.845853 
L 142.594277 66.230045 
L 142.695765 66.014312 
L 142.797254 66.309102 
L 142.898742 66.161814 
L 143.203207 66.615095 
L 143.304696 66.436774 
L 143.609161 66.601159 
L 143.710649 66.441276 
L 143.812137 66.737674 
L 143.913626 66.518565 
L 144.116603 66.801188 
L 144.218091 66.980528 
L 144.319579 66.822359 
L 144.624044 66.977955 
L 144.725533 67.00454 
L 144.827021 67.15692 
L 144.92851 66.991248 
L 145.029998 67.266957 
L 145.131486 67.108521 
L 145.232975 67.475883 
L 145.435951 67.284055 
L 145.53744 67.53259 
L 145.638928 67.218183 
L 145.841905 67.598891 
L 145.943393 67.489497 
L 146.349347 67.833008 
L 146.552324 67.74709 
L 146.653812 67.77196 
L 146.856789 68.143074 
L 146.958277 67.911262 
L 147.059765 68.042792 
L 147.161254 67.970863 
L 147.262742 68.348088 
L 147.364231 68.170731 
L 147.465719 68.38298 
L 147.567207 68.090494 
L 147.668696 68.343425 
L 147.770184 68.257453 
L 147.871672 68.603644 
L 147.973161 68.331365 
L 148.176138 68.572128 
L 148.277626 68.781269 
L 148.379114 68.574326 
L 148.988044 68.877746 
L 149.596975 70.279072 
L 149.799951 70.672537 
L 150.51037 72.176719 
L 150.611858 72.26044 
L 151.728231 74.9567 
L 152.235672 75.949662 
L 152.438649 76.751438 
L 152.743114 77.226426 
L 154.975859 82.060829 
L 155.077347 82.001174 
L 155.381812 83.029993 
L 155.4833 83.014556 
L 155.584789 83.254355 
L 155.686277 83.092595 
L 155.889254 83.557239 
L 156.295207 84.161613 
L 156.498184 84.540177 
L 156.599673 84.691539 
L 156.701161 84.6217 
L 156.802649 85.04368 
L 156.904138 84.980273 
L 157.005626 85.077714 
L 157.208603 85.656468 
L 157.513068 85.774599 
L 157.716045 86.283086 
L 157.817533 86.017935 
L 158.121998 87.013577 
L 158.223487 86.690272 
L 158.426463 86.832522 
L 158.527952 86.832414 
L 158.62944 87.214302 
L 158.730928 87.0385 
L 158.933905 87.716089 
L 159.035394 87.59485 
L 159.441347 87.831325 
L 159.542835 88.056599 
L 159.644324 87.924694 
L 160.151766 88.548631 
L 160.253254 88.390945 
L 160.557719 88.910366 
L 160.659208 88.582827 
L 160.963673 89.321357 
L 161.065161 89.043504 
L 161.166649 89.349067 
L 161.268138 88.964768 
L 161.369626 89.360752 
L 161.471115 89.316426 
L 161.572603 89.582327 
L 161.674091 89.14861 
L 161.978556 90.06439 
L 162.181533 90.076985 
L 162.891952 91.337295 
L 162.99344 91.868132 
L 163.094929 91.637553 
L 163.399394 92.271781 
L 163.500882 92.325111 
L 163.60237 92.750038 
L 163.703859 92.649541 
L 163.906836 93.202729 
L 164.008324 93.655688 
L 164.109812 93.364489 
L 164.312789 93.752969 
L 164.414277 93.832134 
L 164.617254 94.50983 
L 164.718743 94.284878 
L 165.226184 95.340335 
L 165.429161 95.546849 
L 166.13958 96.853575 
L 166.241068 96.72569 
L 166.545533 97.321059 
L 166.647022 97.539526 
L 166.74851 97.223403 
L 167.052975 98.177559 
L 167.154464 97.924897 
L 167.458929 98.371371 
L 167.763394 98.745058 
L 167.864882 98.644079 
L 168.067859 99.188369 
L 168.169347 99.125981 
L 168.473812 99.457593 
L 168.575301 99.392203 
L 168.676789 99.747345 
L 168.778278 99.563825 
L 169.082743 100.305839 
L 169.184231 100.113636 
L 169.387208 100.395992 
L 169.590185 100.414376 
L 169.691673 100.862029 
L 169.793161 100.461971 
L 170.097626 101.442069 
L 170.199115 101.179705 
L 170.300603 101.225264 
L 170.50358 101.164484 
L 170.706557 101.714455 
L 170.808045 101.514695 
L 171.011022 101.790511 
L 171.11251 102.414663 
L 171.315487 102.206809 
L 171.924417 102.790816 
L 172.127394 103.464492 
L 172.228882 103.136953 
L 172.330371 103.348345 
L 172.431859 103.232626 
L 172.533347 103.526398 
L 172.634836 103.484056 
L 172.837813 103.630379 
L 172.939301 103.932244 
L 173.040789 103.676205 
L 173.142278 104.296123 
L 173.243766 104.061202 
L 173.446743 104.144226 
L 173.548231 104.075298 
L 173.751208 104.525416 
L 173.852696 104.355081 
L 174.360138 105.028061 
L 174.461627 104.974087 
L 175.172045 106.338646 
L 175.273534 106.210224 
L 175.375022 106.148425 
L 175.780975 106.979467 
L 175.882464 106.718925 
L 176.288417 107.678656 
L 176.592882 107.99912 
L 176.998836 108.551611 
L 177.100324 108.660791 
L 177.201813 109.241742 
L 177.303301 108.963942 
L 177.506278 109.441985 
L 177.607766 109.729058 
L 177.709255 109.626256 
L 177.912231 110.235347 
L 178.419673 111.661865 
L 178.825627 112.872917 
L 178.927115 112.599138 
L 179.23158 114.098549 
L 179.434557 114.31932 
L 180.855394 117.878728 
L 180.956883 118.065357 
L 181.159859 118.804691 
L 181.464324 119.565251 
L 181.76879 120.237641 
L 181.971766 120.678969 
L 183.189627 123.577938 
L 183.392604 124.122711 
L 184.711952 127.190033 
L 184.813441 127.283722 
L 185.016418 127.866228 
L 185.117906 127.952361 
L 185.625348 129.244401 
L 185.726836 129.389277 
L 185.929813 129.950719 
L 186.031301 129.86882 
L 186.335766 131.132775 
L 186.944697 132.09481 
L 188.061069 134.596831 
L 188.467022 134.584342 
L 188.568511 134.307775 
L 188.669999 134.493332 
L 188.771487 134.420332 
L 188.872976 134.738491 
L 188.974464 134.46782 
L 189.075953 134.513968 
L 189.278929 134.280386 
L 189.481906 134.531923 
L 189.583394 134.178871 
L 189.786371 134.475163 
L 190.192325 134.272615 
L 190.801255 134.249139 
L 190.902743 134.393532 
L 191.004232 134.154431 
L 191.10572 134.223036 
L 191.207208 134.024187 
L 191.308697 134.159147 
L 191.410185 134.057686 
L 191.511674 134.216122 
L 191.613162 133.979325 
L 191.71465 134.023222 
L 191.816139 134.033298 
L 191.917627 134.260609 
L 192.120604 133.964693 
L 192.526557 133.999317 
L 192.628046 133.77533 
L 192.831022 133.978092 
L 193.236976 133.745905 
L 193.845906 133.787122 
L 193.947395 133.882366 
L 194.048883 133.765843 
L 194.150371 133.843453 
L 194.353348 133.676334 
L 194.556325 133.837826 
L 194.657813 133.631901 
L 194.962278 134.121789 
L 195.063767 133.857818 
L 195.165255 133.970374 
L 195.266743 133.751854 
L 195.46972 133.896891 
L 195.672697 133.905359 
L 195.774185 134.083681 
L 195.875674 133.951561 
L 195.977162 134.184767 
L 196.281627 133.98849 
L 196.484604 134.051147 
L 196.890557 134.052111 
L 196.992046 134.43952 
L 197.093534 134.128328 
L 197.195023 134.212638 
L 197.296511 134.126881 
L 197.499488 134.19404 
L 197.702464 134.220571 
L 198.108418 134.391335 
L 198.311395 134.292607 
L 198.920325 134.418027 
L 199.021813 134.652144 
L 199.123302 134.365768 
L 199.22479 134.603048 
L 199.326278 134.385653 
L 199.529255 134.464336 
L 199.630744 134.43014 
L 199.83372 134.547252 
L 200.239674 134.691539 
L 200.341162 134.52919 
L 201.051581 134.958351 
L 201.153069 134.680873 
L 201.254558 134.766737 
L 201.356046 134.578446 
L 201.457534 134.813207 
L 201.559023 134.671332 
L 202.066465 134.99528 
L 202.269441 134.768559 
L 202.573906 134.918742 
L 202.776883 134.793161 
L 202.97986 134.981023 
L 203.182837 135.028779 
L 203.385813 134.859248 
L 203.487302 135.053327 
L 203.791767 134.904163 
L 204.096232 135.110302 
L 204.299209 134.98842 
L 204.502186 135.05322 
L 204.705162 135.010448 
L 204.806651 134.940127 
L 205.111116 135.192039 
L 205.212604 135.186304 
L 205.314093 135.021168 
L 205.618558 135.179444 
L 205.821534 135.020793 
L 206.024511 135.403967 
L 206.126 135.27233 
L 206.227488 135.068656 
L 206.430465 135.132116 
L 206.73493 135.056114 
L 206.836418 134.979897 
L 207.039395 135.192575 
L 207.34386 134.924745 
L 207.546837 134.972018 
L 207.749814 134.767219 
L 207.851302 134.907915 
L 207.95279 134.825534 
L 208.054279 134.993994 
L 208.257255 134.789141 
L 208.561721 134.714264 
L 208.663209 134.767541 
L 208.866186 134.586754 
L 208.967674 134.615429 
L 209.069162 134.781798 
L 209.272139 134.558508 
L 209.475116 134.479772 
L 209.678093 134.573515 
L 209.779581 134.240134 
L 210.084046 134.611785 
L 210.287023 134.338701 
L 210.388511 134.196988 
L 210.591488 134.207386 
L 210.692976 134.222822 
L 210.794465 133.986668 
L 210.895953 134.203848 
L 210.997442 134.147463 
L 211.09893 134.252676 
L 211.403395 133.982594 
L 212.31679 133.868966 
L 212.418279 133.683891 
L 212.722744 133.986668 
L 212.925721 133.828714 
L 213.128697 133.662238 
L 213.331674 133.914096 
L 213.433163 133.516182 
L 213.737628 133.897641 
L 213.940604 133.676924 
L 214.042093 133.552147 
L 214.143581 133.641978 
L 214.24507 133.579589 
L 214.346558 133.727949 
L 214.448046 133.304952 
L 214.549535 133.656235 
L 214.651023 133.457814 
L 214.752511 133.713263 
L 215.056977 133.260143 
L 215.158465 133.489866 
L 215.46293 133.269416 
L 215.767395 133.475555 
L 216.07186 133.148605 
L 216.680791 133.087343 
L 216.782279 133.263413 
L 216.985256 133.002282 
L 217.086744 133.108675 
L 217.188232 133.015307 
L 217.289721 133.102404 
L 217.492698 132.934534 
L 217.797163 133.071746 
L 218.000139 133.024418 
L 218.101628 133.106799 
L 218.203116 132.92494 
L 218.710558 133.046126 
L 219.015023 132.954151 
L 219.218 133.1232 
L 219.420977 132.944342 
L 219.82693 132.890155 
L 219.928419 132.824926 
L 220.131395 133.041463 
L 220.334372 132.934909 
L 220.638837 132.897015 
L 220.740326 132.976394 
L 220.841814 132.695861 
L 221.146279 133.159968 
L 221.247767 132.826748 
L 221.349256 132.935016 
L 221.450744 132.756749 
L 221.755209 132.905216 
L 221.856698 132.738096 
L 222.262651 132.943003 
L 222.465628 132.695754 
L 222.770093 132.870002 
L 222.871581 132.697201 
L 223.074558 132.852904 
L 223.176047 132.558542 
L 223.277535 132.737668 
L 223.379023 132.650731 
L 223.480512 133.010751 
L 223.582 132.700149 
L 223.784977 132.740455 
L 223.987954 132.651589 
L 224.089442 132.778777 
L 224.19093 132.536352 
L 224.495395 132.91138 
L 224.799861 132.503872 
L 224.901349 132.693556 
L 225.104326 132.603618 
L 225.307302 132.640172 
L 225.510279 132.766021 
L 225.713256 132.559561 
L 225.814744 132.530832 
L 225.916233 132.679406 
L 226.626651 132.405412 
L 226.829628 132.709421 
L 227.032605 132.517271 
L 227.235582 132.448023 
L 227.438558 132.564545 
L 227.540047 132.158163 
L 227.641535 132.502746 
L 227.743023 132.378023 
L 227.844512 132.675226 
L 227.946 132.35787 
L 228.047489 132.457617 
L 228.250465 132.353743 
L 228.757907 132.396247 
L 228.859396 132.477341 
L 229.062372 132.268093 
L 229.366837 132.300413 
L 229.569814 132.165613 
L 229.772791 132.400856 
L 230.077256 132.225161 
L 230.178744 132.136777 
L 230.381721 132.29307 
L 230.48321 132.017092 
L 230.787675 132.360121 
L 230.990651 132.152589 
L 231.09214 132.074335 
L 231.193628 132.179763 
L 231.295117 132.067743 
L 231.396605 132.210421 
L 231.498093 131.939053 
L 231.802558 132.311293 
L 232.005535 132.109871 
L 232.107024 131.953257 
L 232.31 132.03017 
L 232.512977 131.998333 
L 232.817442 132.172313 
L 233.020419 131.983594 
L 233.426372 131.99024 
L 233.527861 131.929459 
L 233.730838 132.269755 
L 234.238279 132.237328 
L 234.339768 132.37545 
L 234.441256 132.162558 
L 234.745721 132.723839 
L 234.84721 132.410129 
L 234.948698 132.504622 
L 235.050186 132.372717 
L 235.354652 132.720516 
L 235.45614 132.361354 
L 235.760605 132.894282 
L 235.862093 132.721749 
L 235.963582 132.820155 
L 236.06507 132.652982 
L 236.369535 132.837682 
L 236.471024 132.790891 
L 236.775489 133.130811 
L 236.978466 133.050467 
L 237.181442 133.081768 
L 237.282931 133.172778 
L 237.485907 133.098598 
L 237.587396 133.14673 
L 237.688884 133.499192 
L 237.891861 133.278903 
L 238.297814 133.500317 
L 238.399303 133.332448 
L 238.703768 133.82732 
L 238.805256 133.612338 
L 238.906745 133.735506 
L 239.008233 133.555845 
L 239.21121 133.736364 
L 239.414187 133.668669 
L 239.617163 133.915436 
L 239.718652 133.954402 
L 239.921628 133.873415 
L 240.530559 133.898445 
L 240.632047 134.278778 
L 240.835024 134.181015 
L 241.139489 134.154806 
L 241.240977 134.381687 
L 241.342466 134.093543 
L 241.646931 134.612749 
L 241.849908 134.413042 
L 241.951396 134.315225 
L 242.255861 134.531119 
L 242.357349 134.411917 
L 242.560326 134.69111 
L 242.661815 134.579626 
L 242.864791 134.710405 
L 242.96628 134.544358 
L 243.169256 134.727074 
L 243.473722 134.768399 
L 243.676698 134.958083 
L 243.778187 134.810902 
L 243.981163 134.880097 
L 244.18414 135.041696 
L 244.285629 134.770971 
L 244.590094 135.280852 
L 244.79307 135.12413 
L 244.894559 135.038909 
L 245.199024 135.364143 
L 245.300512 135.026528 
L 245.402001 135.27517 
L 245.503489 135.202277 
L 245.604977 135.516738 
L 245.706466 135.331341 
L 245.807954 135.406057 
L 245.909443 135.299986 
L 246.112419 135.483239 
L 246.315396 135.360445 
L 246.619861 135.655236 
L 246.924326 135.513897 
L 247.127303 135.684125 
L 247.228791 135.587219 
L 247.634745 135.880455 
L 247.93921 135.751444 
L 248.142187 135.837523 
L 248.852605 136.014719 
L 249.055582 136.051273 
L 249.157071 136.147804 
L 249.258559 135.98926 
L 249.563024 136.368307 
L 249.766001 136.254464 
L 249.968978 136.252588 
L 250.476419 136.433911 
L 250.577908 136.560671 
L 250.780885 136.405611 
L 251.389815 136.420029 
L 251.491303 136.789268 
L 251.69428 136.65077 
L 251.795768 136.540572 
L 252.100233 136.784819 
L 252.201722 136.562976 
L 252.506187 137.008217 
L 252.709164 136.804704 
L 252.810652 136.730953 
L 253.013629 136.970591 
L 253.115117 136.709942 
L 253.419582 137.026869 
L 253.622559 137.056133 
L 253.724047 136.869665 
L 254.028513 137.116646 
L 254.130001 136.917957 
L 254.434466 137.357677 
L 254.738931 137.090865 
L 255.043396 137.342027 
L 255.144885 137.102442 
L 255.44935 137.505769 
L 255.753815 137.214784 
L 255.956792 137.434001 
L 256.159768 137.366843 
L 256.464234 137.612323 
L 256.66721 137.413419 
L 256.870187 137.544199 
L 256.971675 137.609696 
L 257.073164 137.476719 
L 257.174652 137.551596 
L 257.276141 137.476344 
L 257.377629 138.02117 
L 257.580606 137.657077 
L 258.189536 137.713141 
L 258.392513 137.892588 
L 258.595489 137.847994 
L 258.696978 137.815996 
L 258.899955 137.922067 
L 259.102931 137.833951 
L 259.407396 138.042342 
L 259.81335 137.959103 
L 259.914838 138.193757 
L 260.117815 138.006109 
L 260.219303 138.101675 
L 260.320792 138.387943 
L 260.42228 138.155059 
L 260.523769 138.263327 
L 260.625257 138.065121 
L 260.828234 138.249016 
L 261.03121 138.211122 
L 261.538652 138.33397 
L 261.741629 138.304169 
L 261.843117 138.480079 
L 261.944606 138.247462 
L 262.249071 138.613806 
L 262.553536 138.422621 
L 262.756513 138.596012 
L 262.858001 138.403808 
L 263.060978 138.617397 
L 263.365443 138.688951 
L 263.56842 138.643607 
L 263.771397 138.780604 
L 263.872885 138.587811 
L 264.17735 138.998374 
L 264.278838 138.711141 
L 264.380327 138.783177 
L 264.583304 138.703583 
L 264.887769 138.601318 
L 264.989257 138.763453 
L 265.090745 138.701332 
L 265.192234 138.867862 
L 265.395211 138.650467 
L 265.598187 138.739441 
L 265.699676 138.804241 
L 265.801164 138.5936 
L 266.308606 138.783123 
L 266.410094 138.598424 
L 266.714559 138.828253 
L 266.816048 138.460944 
L 267.120513 138.894125 
L 267.222001 138.675605 
L 267.32349 138.819731 
L 267.424978 138.665046 
L 267.627955 138.753859 
L 267.830932 138.629243 
L 267.93242 139.048274 
L 268.033908 138.661723 
L 268.135397 138.778621 
L 268.338373 138.648163 
L 268.54135 138.789609 
L 268.642839 138.714893 
L 268.744327 139.009897 
L 268.947304 138.74464 
L 269.353257 138.723522 
L 269.454746 138.700743 
L 269.657722 138.967126 
L 269.759211 138.816193 
L 269.860699 138.895304 
L 269.962187 138.73451 
L 270.165164 138.845404 
L 270.266653 138.726309 
L 270.469629 138.798291 
L 270.672606 139.009093 
L 270.875583 138.822625 
L 270.977071 138.757289 
L 271.180048 138.922479 
L 271.281536 138.742764 
L 271.586001 139.045326 
L 271.68749 138.869631 
L 271.788978 138.909186 
L 271.890467 138.753269 
L 272.093443 138.893214 
L 272.194932 138.704548 
L 272.29642 139.184735 
L 272.397908 138.843957 
L 272.499397 138.968091 
L 272.600885 138.790841 
L 272.803862 138.906399 
L 273.006839 138.806546 
L 273.209815 139.011077 
L 273.412792 138.93754 
L 273.615769 138.922639 
L 273.717257 138.862449 
L 273.818746 139.012363 
L 273.920234 138.760773 
L 274.224699 139.112002 
L 274.427676 138.980043 
L 274.529164 138.840259 
L 274.732141 138.940541 
L 275.138095 139.007325 
L 275.239583 139.115968 
L 275.44256 138.940273 
L 275.645536 138.965518 
L 275.747025 139.03064 
L 275.848513 138.79663 
L 276.152978 139.208854 
L 276.254467 138.909025 
L 276.355955 139.005234 
L 276.457443 138.857464 
L 276.66042 138.990763 
L 276.964885 138.898681 
L 277.066374 139.112431 
L 277.26935 138.915779 
L 277.573816 139.088044 
L 277.675304 138.930572 
L 277.878281 138.949117 
L 277.979769 138.942578 
L 278.081257 139.081719 
L 278.182746 138.81957 
L 278.487211 139.191328 
L 278.690188 139.001107 
L 278.893164 138.982187 
L 279.096141 138.938665 
L 279.502095 139.117791 
L 279.705071 138.923979 
L 279.80656 138.903451 
L 280.009537 139.080915 
L 280.111025 138.82091 
L 280.41549 139.151236 
L 280.618467 138.966751 
L 281.125909 138.893911 
L 281.328885 139.146519 
L 281.531862 138.967019 
L 281.633351 138.935503 
L 281.836327 138.989155 
L 282.039304 138.931698 
L 282.343769 139.123955 
L 282.546746 138.941828 
L 282.648234 139.008879 
L 282.749723 138.937111 
L 282.851211 139.058779 
L 282.952699 138.776745 
L 283.054188 138.963803 
L 283.155676 138.915404 
L 283.257165 139.164689 
L 283.358653 138.955763 
L 283.460141 139.061834 
L 283.56163 138.866254 
L 283.764606 138.991996 
L 283.967583 138.863145 
L 284.272048 139.00293 
L 284.373537 139.011505 
L 284.475025 138.858429 
L 284.77949 139.0725 
L 284.880979 138.734402 
L 285.185444 139.093457 
L 285.489909 138.911384 
L 285.591397 138.898467 
L 285.692886 139.006467 
L 285.895862 138.84385 
L 286.098839 139.166297 
L 286.200327 138.879278 
L 286.301816 139.004806 
L 286.403304 138.772725 
L 286.606281 138.935342 
L 286.707769 138.818712 
L 286.910746 138.977846 
L 287.519676 138.859447 
L 287.621165 139.057064 
L 287.722653 138.702726 
L 287.824141 138.894554 
L 287.92563 138.816408 
L 288.027118 139.188701 
L 288.128607 138.891124 
L 288.230095 138.989691 
L 288.331583 138.796094 
L 288.53456 138.95721 
L 288.737537 138.776477 
L 288.940514 139.086329 
L 289.14349 138.871453 
L 289.447955 138.833827 
L 289.549444 138.927249 
L 289.650932 138.768437 
L 289.955397 138.988887 
L 290.158374 138.832112 
L 290.361351 138.889945 
L 290.462839 138.888069 
L 290.564328 138.763185 
L 290.868793 139.057761 
L 291.071769 138.891981 
L 291.274746 138.813299 
L 291.477723 138.842832 
L 291.6807 138.811477 
L 291.782188 139.050954 
L 291.985165 138.874347 
L 292.188142 138.845029 
L 292.391118 138.88973 
L 292.594095 138.790627 
L 292.797072 138.997141 
L 292.89856 138.831254 
L 293.000049 138.887693 
L 293.203025 138.838169 
L 293.304514 138.875687 
L 293.406002 138.723843 
L 293.710467 139.009361 
L 293.811956 138.821232 
L 293.913444 138.87617 
L 294.014932 138.708997 
L 294.116421 138.885925 
L 294.420886 138.736064 
L 294.522374 138.753537 
L 294.623862 139.010112 
L 295.029816 138.739762 
L 295.232793 138.84176 
L 295.334281 138.58347 
L 295.537258 138.874455 
L 295.638746 138.951904 
L 295.841723 138.74673 
L 296.0447 138.798827 
L 296.450653 138.725934 
L 296.552142 139.02721 
L 296.755118 138.771921 
L 296.958095 138.713499 
L 297.059583 138.790413 
L 297.161072 138.643928 
L 297.465537 138.911223 
L 297.770002 138.69281 
L 298.277444 138.683913 
L 298.480421 138.809654 
L 298.581909 138.667619 
L 298.784886 138.68193 
L 298.886374 138.651754 
L 298.987863 138.751125 
L 299.089351 138.480132 
L 299.190839 138.751125 
L 299.292328 138.666976 
L 299.393816 138.862234 
L 299.596793 138.65036 
L 299.79977 138.662259 
L 299.901258 138.791699 
L 300.002746 138.504466 
L 300.205723 138.704495 
L 300.307211 138.9079 
L 300.510188 138.662581 
L 300.611677 138.581004 
L 300.814653 138.625866 
L 300.916142 138.61177 
L 301.01763 138.471932 
L 301.220607 138.826538 
L 301.423584 138.605927 
L 301.728049 138.582612 
L 302.032514 138.554527 
L 302.134002 138.72304 
L 302.235491 138.606249 
L 302.336979 138.684234 
L 302.539956 138.524619 
L 302.742932 138.636371 
L 302.844421 138.377759 
L 303.148886 138.707335 
L 303.351863 138.528639 
L 303.656328 138.61327 
L 303.757816 138.36838 
L 303.960793 138.504573 
L 304.062281 138.812334 
L 304.16377 138.522046 
L 304.265258 138.580361 
L 304.366746 138.386335 
L 304.569723 138.528799 
L 304.7727 138.441756 
L 304.874188 138.489833 
L 304.975677 138.704227 
L 305.178653 138.473968 
L 305.787584 138.411205 
L 305.889072 138.60984 
L 306.396514 138.419298 
L 306.498002 138.46968 
L 306.599491 138.316121 
L 306.700979 138.486886 
L 307.005444 138.328074 
L 307.309909 138.560154 
L 307.512886 138.365968 
L 307.715863 138.341527 
L 307.817351 138.534266 
L 307.91884 138.220931 
L 308.223305 138.59644 
L 308.426281 138.316925 
L 308.730747 138.431679 
L 308.832235 138.179339 
L 309.1367 138.553401 
L 309.238188 138.257914 
L 309.339677 138.416886 
L 309.441165 138.266704 
L 309.644142 138.363985 
L 309.74563 138.223075 
L 310.050095 138.564121 
L 310.253072 138.341527 
L 310.557537 138.349192 
L 310.862002 138.317033 
L 310.963491 138.612627 
L 311.166468 138.420692 
L 311.673909 138.348173 
L 311.775398 138.4007 
L 311.876886 138.581004 
L 312.181351 138.38462 
L 312.993258 138.495408 
L 313.196235 138.387943 
L 313.399212 138.537 
L 313.5007 138.30224 
L 313.703677 138.526441 
L 314.008142 138.540591 
L 314.10963 138.410347 
L 314.312607 138.542735 
L 314.414096 138.340133 
L 314.617072 138.545897 
L 314.718561 138.674372 
L 314.921537 138.426373 
L 315.226003 138.566747 
L 315.327491 138.34946 
L 315.631956 138.704119 
L 315.834933 138.497284 
L 316.139398 138.579021 
L 316.240886 138.439129 
L 316.545351 138.791967 
L 316.748328 138.606838 
L 316.951305 138.474719 
L 317.052793 138.727006 
L 317.25577 138.49589 
L 317.458747 138.815121 
L 317.560235 138.587757 
L 317.661724 138.663492 
L 317.763212 138.430607 
L 317.966189 138.626938 
L 318.270654 138.59971 
L 318.372142 138.84578 
L 318.473631 138.643446 
L 318.575119 138.69415 
L 318.778096 138.572911 
L 318.879584 138.68268 
L 319.184049 138.600782 
L 319.285538 138.92891 
L 319.387026 138.661026 
L 319.488514 138.744104 
L 319.590003 138.58899 
L 319.894468 138.701868 
L 320.097445 138.612413 
L 320.198933 138.966536 
L 320.40191 138.738208 
L 320.604886 138.635353 
L 320.807863 138.761523 
L 320.909352 138.61386 
L 321.112328 138.954906 
L 321.315305 138.751125 
L 321.822747 138.75627 
L 322.025724 138.83983 
L 322.127212 138.645536 
L 322.431677 139.000947 
L 322.634654 138.775351 
L 322.939119 138.877081 
L 323.040607 138.743353 
L 323.345073 139.105088 
L 323.548049 138.823107 
L 323.751026 138.934431 
L 324.055491 138.88437 
L 324.15698 138.932394 
L 324.258468 139.130762 
L 324.461445 138.889837 
L 324.562933 138.884906 
L 324.76591 138.980579 
L 325.37484 139.081933 
L 325.476328 138.769831 
L 325.679305 139.025709 
L 325.780794 139.145126 
L 326.085259 138.981544 
L 326.288235 139.142124 
L 326.389724 138.865021 
L 326.592701 139.031283 
L 326.694189 139.221664 
L 326.897166 138.982402 
L 326.998654 139.12374 
L 327.100142 139.060655 
L 327.201631 139.135317 
L 327.303119 138.904738 
L 327.404608 139.153755 
L 327.506096 139.050846 
L 327.607584 139.297774 
L 327.810561 138.935342 
L 327.912049 139.352069 
L 328.013538 139.108197 
L 328.115026 139.206228 
L 328.216515 138.96257 
L 328.419491 139.195723 
L 328.52098 139.037018 
L 328.723956 139.160884 
L 328.825445 139.359412 
L 328.926933 139.184199 
L 329.028422 139.255163 
L 329.12991 139.084453 
L 329.332887 139.32066 
L 329.434375 139.053473 
L 329.73884 139.438844 
L 329.941817 139.193579 
L 330.043305 139.307689 
L 330.144794 139.203012 
L 330.246282 139.304152 
L 330.449259 139.145983 
L 330.652236 139.453423 
L 330.753724 139.248303 
L 330.855212 139.338562 
L 331.058189 139.252966 
L 331.159677 139.295362 
L 331.362654 139.258272 
L 331.464143 139.278157 
L 331.565631 139.530605 
L 331.768608 139.337919 
L 331.870096 139.27135 
L 332.073073 139.37458 
L 332.174561 139.198403 
L 332.27605 139.363271 
L 332.377538 139.315408 
L 332.479026 139.576056 
L 332.783491 139.313639 
L 332.986468 139.429572 
L 333.087957 139.245891 
L 333.392422 139.649218 
L 333.595398 139.392482 
L 333.696887 139.358501 
L 333.899864 139.493461 
L 334.001352 139.281855 
L 334.305817 139.659884 
L 334.508794 139.392107 
L 334.813259 139.544326 
L 334.914747 139.326181 
L 335.219212 139.709516 
L 335.422189 139.497802 
L 335.726654 139.566462 
L 335.828143 139.381816 
L 335.929631 139.589831 
L 336.031119 139.531516 
L 336.132608 139.729508 
L 336.335585 139.381977 
L 336.538561 139.703137 
L 336.741538 139.592618 
L 336.944515 139.548828 
L 337.046003 139.72061 
L 337.147492 139.510505 
L 337.451957 139.734385 
L 337.654933 139.620435 
L 337.85791 139.604195 
L 337.959399 139.72597 
L 338.060887 139.585489 
L 338.365352 139.817194 
L 338.568329 139.63764 
L 338.771306 139.694883 
L 338.974282 139.69081 
L 339.177259 139.829683 
L 339.278747 139.74607 
L 339.380236 139.848817 
L 339.481724 139.612664 
L 339.684701 139.756414 
L 339.887678 139.69349 
L 340.090654 139.834668 
L 340.293631 139.836704 
L 340.39512 139.680358 
L 340.699585 139.777317 
L 340.902561 139.745802 
L 341.00405 139.965126 
L 341.410003 139.738727 
L 341.61298 139.847102 
L 341.714468 139.694937 
L 341.815957 139.796452 
L 341.917445 140.110163 
L 342.120422 139.818695 
L 342.323399 139.842546 
L 342.729352 139.871114 
L 342.830841 140.14677 
L 342.932329 139.856857 
L 343.033817 139.939184 
L 343.135306 139.760434 
L 343.338282 139.925677 
L 343.541259 139.82845 
L 343.744236 140.069589 
L 343.845724 139.869935 
L 343.947213 140.025156 
L 344.150189 139.832095 
L 344.251678 140.06246 
L 344.353166 139.785143 
L 344.657631 140.20739 
L 344.860608 139.913832 
L 345.165073 140.031909 
L 345.266562 139.838259 
L 345.469538 139.957622 
L 345.571027 140.176249 
L 345.774003 139.952369 
L 346.078469 140.046702 
L 346.179957 139.857447 
L 346.484422 140.207819 
L 346.687399 139.9357 
L 346.890376 140.025102 
L 346.991864 140.13128 
L 347.093352 139.846727 
L 347.397817 140.156204 
L 347.600794 140.023655 
L 347.702283 140.068195 
L 347.905259 140.021993 
L 348.717166 140.054367 
L 349.021631 140.080737 
L 349.12312 140.238745 
L 349.427585 139.989567 
L 349.529073 140.146449 
L 349.630562 140.0489 
L 349.73205 140.199457 
L 349.935027 140.036143 
L 350.036515 140.408544 
L 350.138004 140.144358 
L 350.239492 140.218538 
L 350.34098 140.041557 
L 350.645445 140.145162 
L 350.746934 140.049543 
L 350.949911 140.389678 
L 351.051399 140.203638 
L 351.152887 140.278676 
L 351.254376 140.015937 
L 351.355864 140.281891 
L 351.558841 140.061549 
L 351.863306 140.447939 
L 352.066283 140.176624 
L 352.370748 140.272673 
L 352.472236 140.136962 
L 352.87819 140.324984 
L 352.979678 140.197957 
L 353.284143 140.393108 
L 353.385632 140.174481 
L 353.690097 140.510702 
L 353.893073 140.334632 
L 354.09605 140.283071 
L 354.603492 140.493337 
L 354.806469 140.317427 
L 354.907957 140.396538 
L 355.110934 140.304724 
L 355.212422 140.446277 
L 355.313911 140.339992 
L 355.415399 140.593137 
L 355.516887 140.434003 
L 355.618376 140.519653 
L 355.719864 140.327075 
L 355.922841 140.435772 
L 356.227306 140.41637 
L 356.328794 140.685915 
L 356.430283 140.416852 
L 356.531771 140.605143 
L 356.734748 140.460266 
L 356.836236 140.580863 
L 356.937725 140.349425 
L 357.24219 140.784161 
L 357.445167 140.485136 
L 357.546655 140.597639 
L 357.648143 140.520297 
L 357.749632 140.630173 
L 357.85112 140.466484 
L 358.155585 140.700119 
L 358.46005 140.568696 
L 358.663027 140.723273 
L 358.764515 140.511024 
L 358.967492 140.692293 
L 359.068981 140.456139 
L 359.170469 140.714751 
L 359.271957 140.637784 
L 359.373446 140.863165 
L 359.576422 140.667906 
L 359.677911 140.71175 
L 359.779399 140.609806 
L 359.880888 140.771672 
L 359.982376 140.552563 
L 360.083864 140.781642 
L 360.185353 140.704996 
L 360.286841 140.879351 
L 360.591306 140.704407 
L 360.794283 140.781267 
L 360.895771 140.643358 
L 361.098748 141.010506 
L 361.301725 140.82452 
L 361.707678 140.755379 
L 361.809167 140.846174 
L 361.910655 140.774352 
L 362.012143 141.064373 
L 362.113632 140.86563 
L 362.21512 140.957766 
L 362.316609 140.814712 
L 362.519585 140.923838 
L 362.722562 140.875814 
L 362.82405 140.892001 
L 362.925539 141.118024 
L 363.230004 140.897896 
L 364.041911 141.134157 
L 364.143399 140.915798 
L 364.549353 141.196707 
L 364.650841 141.012757 
L 364.75233 141.158973 
L 364.853818 141.026639 
L 365.056795 141.085169 
L 365.158283 141.138017 
L 365.259771 141.474292 
L 365.36126 141.13866 
L 365.462748 141.219754 
L 365.564237 141.119525 
L 365.767213 141.269332 
L 365.868702 141.032374 
L 365.97019 141.500502 
L 366.071678 141.159349 
L 366.173167 141.297686 
L 366.274655 141.200619 
L 366.477632 141.234761 
L 366.57912 141.537752 
L 366.782097 141.264455 
L 366.985074 141.376368 
L 367.086562 141.52789 
L 367.188051 141.166477 
L 367.391027 141.452263 
L 367.492516 141.526765 
L 367.695492 141.419568 
L 368.507399 141.658885 
L 368.710376 141.402095 
L 368.811865 141.712161 
L 369.014841 141.306208 
L 369.11633 141.89863 
L 369.319306 141.463304 
L 369.420795 141.874296 
L 369.522283 141.517599 
L 369.623772 141.771923 
L 369.826748 141.569268 
L 369.928237 141.884801 
L 370.029725 141.472255 
L 370.232702 141.802045 
L 370.33419 141.520333 
L 370.435679 142.109324 
L 370.537167 141.588885 
L 370.638655 141.900666 
L 370.740144 141.841601 
L 370.841632 141.527301 
L 370.94312 142.159171 
L 371.146097 141.717628 
L 371.247586 142.095335 
L 371.349074 141.707873 
L 371.450562 142.091315 
L 371.653539 141.603035 
L 371.755027 142.20012 
L 371.856516 141.841279 
L 372.059493 142.041576 
L 372.160981 141.871938 
L 372.262469 142.216467 
L 372.363958 141.855537 
L 372.465446 141.952871 
L 372.566934 142.209499 
L 372.668423 141.730867 
L 372.769911 142.28041 
L 372.972888 141.879709 
L 373.074376 142.367078 
L 373.175865 142.015527 
L 373.277353 142.269905 
L 373.48033 141.870222 
L 373.581818 142.491319 
L 373.581818 142.491319 
" style="fill:none;stroke:#081d58;stroke-dasharray:5.55,2.4;stroke-dashoffset:0;stroke-width:1.5;"/>
    <defs>
     <path d="M -0 4.242641 
L 4.242641 0 
L 0 -4.242641 
L -4.242641 -0 
z
" id="m89a8b3ea7f" style="stroke:#081d58;stroke-linejoin:miter;"/>
    </defs>
    <g clip-path="url(#pfc080d35a3)">
     <use style="fill:#081d58;stroke:#081d58;stroke-linejoin:miter;" x="69.218182" xlink:href="#m89a8b3ea7f" y="50.117656"/>
     <use style="fill:#081d58;stroke:#081d58;stroke-linejoin:miter;" x="77.337252" xlink:href="#m89a8b3ea7f" y="48.455252"/>
     <use style="fill:#081d58;stroke:#081d58;stroke-linejoin:miter;" x="85.456322" xlink:href="#m89a8b3ea7f" y="46.030306"/>
     <use style="fill:#081d58;stroke:#081d58;stroke-linejoin:miter;" x="93.575392" xlink:href="#m89a8b3ea7f" y="45.489714"/>
     <use style="fill:#081d58;stroke:#081d58;stroke-linejoin:miter;" x="101.694462" xlink:href="#m89a8b3ea7f" y="46.538149"/>
     <use style="fill:#081d58;stroke:#081d58;stroke-linejoin:miter;" x="109.813532" xlink:href="#m89a8b3ea7f" y="48.538705"/>
     <use style="fill:#081d58;stroke:#081d58;stroke-linejoin:miter;" x="117.932602" xlink:href="#m89a8b3ea7f" y="53.794175"/>
     <use style="fill:#081d58;stroke:#081d58;stroke-linejoin:miter;" x="126.051672" xlink:href="#m89a8b3ea7f" y="57.337128"/>
     <use style="fill:#081d58;stroke:#081d58;stroke-linejoin:miter;" x="134.170742" xlink:href="#m89a8b3ea7f" y="60.970715"/>
     <use style="fill:#081d58;stroke:#081d58;stroke-linejoin:miter;" x="142.289812" xlink:href="#m89a8b3ea7f" y="65.845853"/>
     <use style="fill:#081d58;stroke:#081d58;stroke-linejoin:miter;" x="150.408882" xlink:href="#m89a8b3ea7f" y="71.848269"/>
     <use style="fill:#081d58;stroke:#081d58;stroke-linejoin:miter;" x="158.527952" xlink:href="#m89a8b3ea7f" y="86.832414"/>
     <use style="fill:#081d58;stroke:#081d58;stroke-linejoin:miter;" x="166.647022" xlink:href="#m89a8b3ea7f" y="97.539526"/>
     <use style="fill:#081d58;stroke:#081d58;stroke-linejoin:miter;" x="174.766092" xlink:href="#m89a8b3ea7f" y="105.68271"/>
     <use style="fill:#081d58;stroke:#081d58;stroke-linejoin:miter;" x="182.885162" xlink:href="#m89a8b3ea7f" y="122.975923"/>
     <use style="fill:#081d58;stroke:#081d58;stroke-linejoin:miter;" x="191.004232" xlink:href="#m89a8b3ea7f" y="134.154431"/>
     <use style="fill:#081d58;stroke:#081d58;stroke-linejoin:miter;" x="199.123302" xlink:href="#m89a8b3ea7f" y="134.365768"/>
     <use style="fill:#081d58;stroke:#081d58;stroke-linejoin:miter;" x="207.242372" xlink:href="#m89a8b3ea7f" y="135.025563"/>
     <use style="fill:#081d58;stroke:#081d58;stroke-linejoin:miter;" x="215.361442" xlink:href="#m89a8b3ea7f" y="133.40577"/>
     <use style="fill:#081d58;stroke:#081d58;stroke-linejoin:miter;" x="223.480512" xlink:href="#m89a8b3ea7f" y="133.010751"/>
     <use style="fill:#081d58;stroke:#081d58;stroke-linejoin:miter;" x="231.599582" xlink:href="#m89a8b3ea7f" y="132.077873"/>
     <use style="fill:#081d58;stroke:#081d58;stroke-linejoin:miter;" x="239.718652" xlink:href="#m89a8b3ea7f" y="133.954402"/>
     <use style="fill:#081d58;stroke:#081d58;stroke-linejoin:miter;" x="247.837722" xlink:href="#m89a8b3ea7f" y="135.833825"/>
     <use style="fill:#081d58;stroke:#081d58;stroke-linejoin:miter;" x="255.956792" xlink:href="#m89a8b3ea7f" y="137.434001"/>
     <use style="fill:#081d58;stroke:#081d58;stroke-linejoin:miter;" x="264.075862" xlink:href="#m89a8b3ea7f" y="138.702833"/>
     <use style="fill:#081d58;stroke:#081d58;stroke-linejoin:miter;" x="272.194932" xlink:href="#m89a8b3ea7f" y="138.704548"/>
     <use style="fill:#081d58;stroke:#081d58;stroke-linejoin:miter;" x="280.314002" xlink:href="#m89a8b3ea7f" y="139.042539"/>
     <use style="fill:#081d58;stroke:#081d58;stroke-linejoin:miter;" x="288.433072" xlink:href="#m89a8b3ea7f" y="138.883727"/>
     <use style="fill:#081d58;stroke:#081d58;stroke-linejoin:miter;" x="296.552142" xlink:href="#m89a8b3ea7f" y="139.02721"/>
     <use style="fill:#081d58;stroke:#081d58;stroke-linejoin:miter;" x="304.671212" xlink:href="#m89a8b3ea7f" y="138.433234"/>
     <use style="fill:#081d58;stroke:#081d58;stroke-linejoin:miter;" x="312.790282" xlink:href="#m89a8b3ea7f" y="138.548416"/>
     <use style="fill:#081d58;stroke:#081d58;stroke-linejoin:miter;" x="320.909352" xlink:href="#m89a8b3ea7f" y="138.61386"/>
     <use style="fill:#081d58;stroke:#081d58;stroke-linejoin:miter;" x="329.028422" xlink:href="#m89a8b3ea7f" y="139.255163"/>
     <use style="fill:#081d58;stroke:#081d58;stroke-linejoin:miter;" x="337.147492" xlink:href="#m89a8b3ea7f" y="139.510505"/>
     <use style="fill:#081d58;stroke:#081d58;stroke-linejoin:miter;" x="345.266562" xlink:href="#m89a8b3ea7f" y="139.838259"/>
     <use style="fill:#081d58;stroke:#081d58;stroke-linejoin:miter;" x="353.385632" xlink:href="#m89a8b3ea7f" y="140.174481"/>
     <use style="fill:#081d58;stroke:#081d58;stroke-linejoin:miter;" x="361.504702" xlink:href="#m89a8b3ea7f" y="140.766259"/>
     <use style="fill:#081d58;stroke:#081d58;stroke-linejoin:miter;" x="369.623772" xlink:href="#m89a8b3ea7f" y="141.771923"/>
    </g>
   </g>
   <g id="patch_3">
    <path d="M 54 252 
L 54 34.56 
" style="fill:none;stroke:#000000;stroke-linecap:square;stroke-linejoin:miter;stroke-width:0.8;"/>
   </g>
   <g id="patch_4">
    <path d="M 388.8 252 
L 388.8 34.56 
" style="fill:none;stroke:#000000;stroke-linecap:square;stroke-linejoin:miter;stroke-width:0.8;"/>
   </g>
   <g id="patch_5">
    <path d="M 54 252 
L 388.8 252 
" style="fill:none;stroke:#000000;stroke-linecap:square;stroke-linejoin:miter;stroke-width:0.8;"/>
   </g>
   <g id="patch_6">
    <path d="M 54 34.56 
L 388.8 34.56 
" style="fill:none;stroke:#000000;stroke-linecap:square;stroke-linejoin:miter;stroke-width:0.8;"/>
   </g>
   <g id="legend_1">
    <g id="patch_7">
     <path d="M 280.085938 71.91625 
L 381.8 71.91625 
Q 383.8 71.91625 383.8 69.91625 
L 383.8 41.56 
Q 383.8 39.56 381.8 39.56 
L 280.085938 39.56 
Q 278.085938 39.56 278.085938 41.56 
L 278.085938 69.91625 
Q 278.085938 71.91625 280.085938 71.91625 
z
" style="fill:#ffffff;opacity:0.8;stroke:#cccccc;stroke-linejoin:miter;"/>
    </g>
    <g id="line2d_16">
     <path d="M 282.085938 47.658437 
L 302.085938 47.658437 
" style="fill:none;stroke:#40b5c4;stroke-dasharray:5.55,2.4;stroke-dashoffset:0;stroke-width:1.5;"/>
    </g>
    <g id="line2d_17">
     <g>
      <use style="fill:#40b5c4;stroke:#40b5c4;" x="292.085938" xlink:href="#mfb736bdfed" y="47.658437"/>
     </g>
    </g>
    <g id="text_16">
     <text style="font-family:DejaVu Sans;font-size:10px;font-style:normal;font-weight:normal;text-anchor:start;" transform="rotate(-0, 310.085938, 51.158437)" x="310.085938" y="51.158437">original</text>
    </g>
    <g id="line2d_18">
     <path d="M 282.085938 62.336562 
L 302.085938 62.336562 
" style="fill:none;stroke:#081d58;stroke-dasharray:5.55,2.4;stroke-dashoffset:0;stroke-width:1.5;"/>
    </g>
    <g id="line2d_19">
     <g>
      <use style="fill:#081d58;stroke:#081d58;stroke-linejoin:miter;" x="292.085938" xlink:href="#m89a8b3ea7f" y="62.336562"/>
     </g>
    </g>
    <g id="text_17">
     <text style="font-family:DejaVu Sans;font-size:10px;font-style:normal;font-weight:normal;text-anchor:start;" transform="rotate(-0, 310.085938, 65.836562)" x="310.085938" y="65.836562">reconstructed</text>
    </g>
   </g>
  </g>
  <g id="text_18">
   <text style="font-family:DejaVu Sans;font-size:12px;font-style:normal;font-weight:normal;text-anchor:middle;" transform="rotate(-0, 216, 14.878125)" x="216" y="14.878125">Reconstruction of the weight curve</text>
  </g>
 </g>
 <defs>
  <clipPath id="pfc080d35a3">
   <rect height="217.44" width="334.8" x="54" y="34.56"/>
  </clipPath>
 </defs>
</svg>
