<?xml version="1.0" encoding="utf-8" standalone="no"?>
<!DOCTYPE svg PUBLIC "-//W3C//DTD SVG 1.1//EN"
  "http://www.w3.org/Graphics/SVG/1.1/DTD/svg11.dtd">
<!-- Created with matplotlib (https://matplotlib.org/) -->
<svg height="288pt" version="1.1" viewBox="0 0 432 288" width="432pt" xmlns="http://www.w3.org/2000/svg" xmlns:xlink="http://www.w3.org/1999/xlink">
 <defs>
  <style type="text/css">
*{stroke-linecap:butt;stroke-linejoin:round;}
  </style>
 </defs>
 <g id="figure_1">
  <g id="patch_1">
   <path d="M 0 288 
L 432 288 
L 432 0 
L 0 0 
z
" style="fill:#ffffff;"/>
  </g>
  <g id="axes_1">
   <g id="patch_2">
    <path d="M 54 252 
L 388.8 252 
L 388.8 34.56 
L 54 34.56 
z
" style="fill:#ffffff;"/>
   </g>
   <g id="matplotlib.axis_1">
    <g id="xtick_1">
     <g id="line2d_1">
      <defs>
       <path d="M 0 0 
L 0 3.5 
" id="m911bf563d7" style="stroke:#000000;stroke-width:0.8;"/>
      </defs>
      <g>
       <use style="stroke:#000000;stroke-width:0.8;" x="69.218182" xlink:href="#m911bf563d7" y="252"/>
      </g>
     </g>
     <g id="text_1">
      <text style="font-family:DejaVu Sans;font-size:10px;font-style:normal;font-weight:normal;text-anchor:middle;" transform="rotate(-0, 69.218182, 266.598437)" x="69.218182" y="266.598437">0</text>
     </g>
    </g>
    <g id="xtick_2">
     <g id="line2d_2">
      <g>
       <use style="stroke:#000000;stroke-width:0.8;" x="119.962369" xlink:href="#m911bf563d7" y="252"/>
      </g>
     </g>
     <g id="text_2">
      <text style="font-family:DejaVu Sans;font-size:10px;font-style:normal;font-weight:normal;text-anchor:middle;" transform="rotate(-0, 119.962369, 266.598437)" x="119.962369" y="266.598437">500</text>
     </g>
    </g>
    <g id="xtick_3">
     <g id="line2d_3">
      <g>
       <use style="stroke:#000000;stroke-width:0.8;" x="170.706557" xlink:href="#m911bf563d7" y="252"/>
      </g>
     </g>
     <g id="text_3">
      <text style="font-family:DejaVu Sans;font-size:10px;font-style:normal;font-weight:normal;text-anchor:middle;" transform="rotate(-0, 170.706557, 266.598437)" x="170.706557" y="266.598437">1000</text>
     </g>
    </g>
    <g id="xtick_4">
     <g id="line2d_4">
      <g>
       <use style="stroke:#000000;stroke-width:0.8;" x="221.450744" xlink:href="#m911bf563d7" y="252"/>
      </g>
     </g>
     <g id="text_4">
      <text style="font-family:DejaVu Sans;font-size:10px;font-style:normal;font-weight:normal;text-anchor:middle;" transform="rotate(-0, 221.450744, 266.598437)" x="221.450744" y="266.598437">1500</text>
     </g>
    </g>
    <g id="xtick_5">
     <g id="line2d_5">
      <g>
       <use style="stroke:#000000;stroke-width:0.8;" x="272.194932" xlink:href="#m911bf563d7" y="252"/>
      </g>
     </g>
     <g id="text_5">
      <text style="font-family:DejaVu Sans;font-size:10px;font-style:normal;font-weight:normal;text-anchor:middle;" transform="rotate(-0, 272.194932, 266.598437)" x="272.194932" y="266.598437">2000</text>
     </g>
    </g>
    <g id="xtick_6">
     <g id="line2d_6">
      <g>
       <use style="stroke:#000000;stroke-width:0.8;" x="322.939119" xlink:href="#m911bf563d7" y="252"/>
      </g>
     </g>
     <g id="text_6">
      <text style="font-family:DejaVu Sans;font-size:10px;font-style:normal;font-weight:normal;text-anchor:middle;" transform="rotate(-0, 322.939119, 266.598437)" x="322.939119" y="266.598437">2500</text>
     </g>
    </g>
    <g id="xtick_7">
     <g id="line2d_7">
      <g>
       <use style="stroke:#000000;stroke-width:0.8;" x="373.683307" xlink:href="#m911bf563d7" y="252"/>
      </g>
     </g>
     <g id="text_7">
      <text style="font-family:DejaVu Sans;font-size:10px;font-style:normal;font-weight:normal;text-anchor:middle;" transform="rotate(-0, 373.683307, 266.598437)" x="373.683307" y="266.598437">3000</text>
     </g>
    </g>
    <g id="text_8">
     <text style="font-family:DejaVu Sans;font-size:10px;font-style:normal;font-weight:normal;text-anchor:middle;" transform="rotate(-0, 221.4, 280.276563)" x="221.4" y="280.276563">Time</text>
    </g>
   </g>
   <g id="matplotlib.axis_2">
    <g id="ytick_1">
     <g id="line2d_8">
      <defs>
       <path d="M 0 0 
L -3.5 0 
" id="mf60332e85b" style="stroke:#000000;stroke-width:0.8;"/>
      </defs>
      <g>
       <use style="stroke:#000000;stroke-width:0.8;" x="54" xlink:href="#mf60332e85b" y="244.078386"/>
      </g>
     </g>
     <g id="text_9">
      <text style="font-family:DejaVu Sans;font-size:10px;font-style:normal;font-weight:normal;text-anchor:end;" transform="rotate(-0, 47, 247.877605)" x="47" y="247.877605">−10</text>
     </g>
    </g>
    <g id="ytick_2">
     <g id="line2d_9">
      <g>
       <use style="stroke:#000000;stroke-width:0.8;" x="54" xlink:href="#mf60332e85b" y="209.315326"/>
      </g>
     </g>
     <g id="text_10">
      <text style="font-family:DejaVu Sans;font-size:10px;font-style:normal;font-weight:normal;text-anchor:end;" transform="rotate(-0, 47, 213.114545)" x="47" y="213.114545">−8</text>
     </g>
    </g>
    <g id="ytick_3">
     <g id="line2d_10">
      <g>
       <use style="stroke:#000000;stroke-width:0.8;" x="54" xlink:href="#mf60332e85b" y="174.552265"/>
      </g>
     </g>
     <g id="text_11">
      <text style="font-family:DejaVu Sans;font-size:10px;font-style:normal;font-weight:normal;text-anchor:end;" transform="rotate(-0, 47, 178.351484)" x="47" y="178.351484">−6</text>
     </g>
    </g>
    <g id="ytick_4">
     <g id="line2d_11">
      <g>
       <use style="stroke:#000000;stroke-width:0.8;" x="54" xlink:href="#mf60332e85b" y="139.789204"/>
      </g>
     </g>
     <g id="text_12">
      <text style="font-family:DejaVu Sans;font-size:10px;font-style:normal;font-weight:normal;text-anchor:end;" transform="rotate(-0, 47, 143.588423)" x="47" y="143.588423">−4</text>
     </g>
    </g>
    <g id="ytick_5">
     <g id="line2d_12">
      <g>
       <use style="stroke:#000000;stroke-width:0.8;" x="54" xlink:href="#mf60332e85b" y="105.026144"/>
      </g>
     </g>
     <g id="text_13">
      <text style="font-family:DejaVu Sans;font-size:10px;font-style:normal;font-weight:normal;text-anchor:end;" transform="rotate(-0, 47, 108.825362)" x="47" y="108.825362">−2</text>
     </g>
    </g>
    <g id="ytick_6">
     <g id="line2d_13">
      <g>
       <use style="stroke:#000000;stroke-width:0.8;" x="54" xlink:href="#mf60332e85b" y="70.263083"/>
      </g>
     </g>
     <g id="text_14">
      <text style="font-family:DejaVu Sans;font-size:10px;font-style:normal;font-weight:normal;text-anchor:end;" transform="rotate(-0, 47, 74.062302)" x="47" y="74.062302">0</text>
     </g>
    </g>
    <g id="ytick_7">
     <g id="line2d_14">
      <g>
       <use style="stroke:#000000;stroke-width:0.8;" x="54" xlink:href="#mf60332e85b" y="35.500022"/>
      </g>
     </g>
     <g id="text_15">
      <text style="font-family:DejaVu Sans;font-size:10px;font-style:normal;font-weight:normal;text-anchor:end;" transform="rotate(-0, 47, 39.299241)" x="47" y="39.299241">2</text>
     </g>
    </g>
    <g id="text_16">
     <text style="font-family:DejaVu Sans;font-size:10px;font-style:normal;font-weight:normal;text-anchor:middle;" transform="rotate(-90, 19.815625, 143.28)" x="19.815625" y="143.28">temperature (°C)</text>
    </g>
   </g>
   <g id="line2d_15">
    <path clip-path="url(#p4002a3bb56)" d="M 69.218182 66.894454 
L 72.161345 66.049223 
L 73.277717 65.961599 
L 74.191112 66.11262 
L 75.003019 66.497103 
L 75.814926 67.142342 
L 76.626833 68.080425 
L 77.540229 69.509901 
L 78.555112 71.553548 
L 79.671484 74.340586 
L 80.990833 78.2991 
L 82.513159 83.623949 
L 84.441438 91.258164 
L 87.486089 104.337904 
L 91.444136 121.162565 
L 93.67688 129.716555 
L 95.503671 135.950928 
L 97.127485 140.758225 
L 98.649811 144.61018 
L 100.070648 147.618124 
L 101.288508 149.708461 
L 102.506369 151.361097 
L 103.622741 152.506749 
L 104.739113 153.360547 
L 105.753997 153.87537 
L 106.768881 154.153023 
L 107.885253 154.219942 
L 109.001625 154.067784 
L 110.320974 153.655251 
L 111.944788 152.909044 
L 113.873067 151.699133 
L 116.308788 149.896373 
L 123.615951 144.435096 
L 126.356137 142.756544 
L 128.893346 141.424424 
L 131.126091 140.493852 
L 133.460323 139.75239 
L 135.591579 139.290389 
L 138.331765 138.946252 
L 140.564509 138.866401 
L 142.289812 139.024869 
L 143.913626 139.393653 
L 145.435951 139.963193 
L 147.059765 140.832774 
L 148.176138 141.616368 
L 149.29251 142.674191 
L 150.408882 144.056822 
L 151.626742 145.953981 
L 154.163952 150.546407 
L 155.889254 154.315749 
L 161.877068 168.577642 
L 163.297905 172.604925 
L 164.718743 177.249879 
L 166.444045 183.759644 
L 169.691673 196.314462 
L 170.605068 198.910081 
L 171.213999 200.111962 
L 171.72144 200.693635 
L 172.127394 200.861227 
L 172.431859 200.762535 
L 172.736324 200.443202 
L 173.142278 199.619421 
L 173.64972 197.975077 
L 174.25865 195.116232 
L 174.969068 190.649144 
L 175.882464 183.412222 
L 177.303301 170.104957 
L 180.550929 139.331305 
L 182.174743 126.294323 
L 183.59558 116.557155 
L 185.016418 108.322029 
L 186.335766 101.894513 
L 187.655115 96.513817 
L 188.974464 92.057801 
L 190.192325 88.670349 
L 191.410185 85.888197 
L 192.628046 83.623405 
L 193.845906 81.796808 
L 195.165255 80.213215 
L 196.586092 78.865957 
L 198.209906 77.646308 
L 200.341162 76.345657 
L 204.19772 74.316214 
L 212.113814 70.122902 
L 233.020419 58.788304 
L 237.282931 56.421588 
L 240.936512 54.492247 
L 244.79307 52.690182 
L 248.852605 51.018252 
L 253.115117 49.509118 
L 257.174652 48.288066 
L 261.335676 47.271507 
L 265.496699 46.484993 
L 274.935118 45.045263 
L 279.400606 44.646687 
L 284.576513 44.453666 
L 289.853909 44.499049 
L 297.059583 44.863313 
L 301.322095 45.336056 
L 308.832235 46.484437 
L 322.330189 48.549606 
L 329.332887 49.686375 
L 333.087957 50.52778 
L 336.843026 51.604027 
L 341.207027 53.087245 
L 347.194841 55.397904 
L 352.167771 57.229069 
L 356.024329 58.398673 
L 359.982376 59.342963 
L 363.940423 60.060761 
L 369.826748 60.879709 
L 373.581818 61.345092 
L 373.581818 61.345092 
" style="fill:none;stroke:#40b5c4;stroke-dasharray:5.55,2.4;stroke-dashoffset:0;stroke-width:1.5;"/>
    <defs>
     <path d="M 0 3 
C 0.795609 3 1.55874 2.683901 2.12132 2.12132 
C 2.683901 1.55874 3 0.795609 3 0 
C 3 -0.795609 2.683901 -1.55874 2.12132 -2.12132 
C 1.55874 -2.683901 0.795609 -3 0 -3 
C -0.795609 -3 -1.55874 -2.683901 -2.12132 -2.12132 
C -2.683901 -1.55874 -3 -0.795609 -3 0 
C -3 0.795609 -2.683901 1.55874 -2.12132 2.12132 
C -1.55874 2.683901 -0.795609 3 0 3 
z
" id="mc756a4285e" style="stroke:#40b5c4;"/>
    </defs>
    <g clip-path="url(#p4002a3bb56)">
     <use style="fill:#40b5c4;stroke:#40b5c4;" x="69.218182" xlink:href="#mc756a4285e" y="66.894454"/>
     <use style="fill:#40b5c4;stroke:#40b5c4;" x="77.337252" xlink:href="#mc756a4285e" y="69.15871"/>
     <use style="fill:#40b5c4;stroke:#40b5c4;" x="85.456322" xlink:href="#mc756a4285e" y="95.536906"/>
     <use style="fill:#40b5c4;stroke:#40b5c4;" x="93.575392" xlink:href="#mc756a4285e" y="129.346033"/>
     <use style="fill:#40b5c4;stroke:#40b5c4;" x="101.694462" xlink:href="#mc756a4285e" y="150.307637"/>
     <use style="fill:#40b5c4;stroke:#40b5c4;" x="109.813532" xlink:href="#mc756a4285e" y="153.836192"/>
     <use style="fill:#40b5c4;stroke:#40b5c4;" x="117.932602" xlink:href="#mc756a4285e" y="148.648466"/>
     <use style="fill:#40b5c4;stroke:#40b5c4;" x="126.051672" xlink:href="#mc756a4285e" y="142.932758"/>
     <use style="fill:#40b5c4;stroke:#40b5c4;" x="134.170742" xlink:href="#mc756a4285e" y="139.573517"/>
     <use style="fill:#40b5c4;stroke:#40b5c4;" x="142.289812" xlink:href="#mc756a4285e" y="139.024869"/>
     <use style="fill:#40b5c4;stroke:#40b5c4;" x="150.408882" xlink:href="#mc756a4285e" y="144.056822"/>
     <use style="fill:#40b5c4;stroke:#40b5c4;" x="158.527952" xlink:href="#mc756a4285e" y="160.542752"/>
     <use style="fill:#40b5c4;stroke:#40b5c4;" x="166.647022" xlink:href="#mc756a4285e" y="184.573812"/>
     <use style="fill:#40b5c4;stroke:#40b5c4;" x="174.766092" xlink:href="#mc756a4285e" y="192.040866"/>
     <use style="fill:#40b5c4;stroke:#40b5c4;" x="182.885162" xlink:href="#mc756a4285e" y="121.232126"/>
     <use style="fill:#40b5c4;stroke:#40b5c4;" x="191.004232" xlink:href="#mc756a4285e" y="86.752956"/>
     <use style="fill:#40b5c4;stroke:#40b5c4;" x="199.123302" xlink:href="#mc756a4285e" y="77.0568"/>
     <use style="fill:#40b5c4;stroke:#40b5c4;" x="207.242372" xlink:href="#mc756a4285e" y="72.740582"/>
     <use style="fill:#40b5c4;stroke:#40b5c4;" x="215.361442" xlink:href="#mc756a4285e" y="68.326332"/>
     <use style="fill:#40b5c4;stroke:#40b5c4;" x="223.480512" xlink:href="#mc756a4285e" y="63.830919"/>
     <use style="fill:#40b5c4;stroke:#40b5c4;" x="231.599582" xlink:href="#mc756a4285e" y="59.528239"/>
     <use style="fill:#40b5c4;stroke:#40b5c4;" x="239.718652" xlink:href="#mc756a4285e" y="55.112486"/>
     <use style="fill:#40b5c4;stroke:#40b5c4;" x="247.837722" xlink:href="#mc756a4285e" y="51.412761"/>
     <use style="fill:#40b5c4;stroke:#40b5c4;" x="255.956792" xlink:href="#mc756a4285e" y="48.63408"/>
     <use style="fill:#40b5c4;stroke:#40b5c4;" x="264.075862" xlink:href="#mc756a4285e" y="46.730507"/>
     <use style="fill:#40b5c4;stroke:#40b5c4;" x="272.194932" xlink:href="#mc756a4285e" y="45.395744"/>
     <use style="fill:#40b5c4;stroke:#40b5c4;" x="280.314002" xlink:href="#mc756a4285e" y="44.594838"/>
     <use style="fill:#40b5c4;stroke:#40b5c4;" x="288.433072" xlink:href="#mc756a4285e" y="44.461018"/>
     <use style="fill:#40b5c4;stroke:#40b5c4;" x="296.552142" xlink:href="#mc756a4285e" y="44.821667"/>
     <use style="fill:#40b5c4;stroke:#40b5c4;" x="304.671212" xlink:href="#mc756a4285e" y="45.819106"/>
     <use style="fill:#40b5c4;stroke:#40b5c4;" x="312.790282" xlink:href="#mc756a4285e" y="47.110189"/>
     <use style="fill:#40b5c4;stroke:#40b5c4;" x="320.909352" xlink:href="#mc756a4285e" y="48.342731"/>
     <use style="fill:#40b5c4;stroke:#40b5c4;" x="329.028422" xlink:href="#mc756a4285e" y="49.627991"/>
     <use style="fill:#40b5c4;stroke:#40b5c4;" x="337.147492" xlink:href="#mc756a4285e" y="51.700356"/>
     <use style="fill:#40b5c4;stroke:#40b5c4;" x="345.266562" xlink:href="#mc756a4285e" y="54.635599"/>
     <use style="fill:#40b5c4;stroke:#40b5c4;" x="353.385632" xlink:href="#mc756a4285e" y="57.625629"/>
     <use style="fill:#40b5c4;stroke:#40b5c4;" x="361.504702" xlink:href="#mc756a4285e" y="59.643042"/>
     <use style="fill:#40b5c4;stroke:#40b5c4;" x="369.623772" xlink:href="#mc756a4285e" y="60.853051"/>
    </g>
   </g>
   <g id="line2d_16">
    <path clip-path="url(#p4002a3bb56)" d="M 69.218182 82.731736 
L 69.421159 82.791577 
L 69.624135 82.807987 
L 69.725624 82.456437 
L 69.827112 82.691423 
L 69.9286 82.547872 
L 70.131577 82.651474 
L 70.334554 82.521515 
L 70.740507 82.231297 
L 70.841996 82.430677 
L 70.943484 82.098023 
L 71.349438 82.260173 
L 71.450926 82.094377 
L 71.552414 82.168241 
L 71.653903 81.960042 
L 71.755391 82.060031 
L 71.85688 82.001582 
L 71.958368 82.190751 
L 72.161345 81.866684 
L 72.262833 82.049786 
L 72.364321 81.867579 
L 72.567298 82.254935 
L 72.668787 82.025253 
L 72.770275 82.125507 
L 72.871763 81.962661 
L 73.07474 82.195492 
L 73.277717 81.973237 
L 73.480694 82.292961 
L 73.582182 82.280595 
L 73.68367 82.542401 
L 73.886647 82.443109 
L 73.988135 82.609701 
L 74.089624 82.491313 
L 74.394089 82.900583 
L 74.495577 82.770293 
L 74.800042 83.29848 
L 74.901531 83.568343 
L 75.003019 83.448662 
L 75.814926 84.375908 
L 76.119391 85.440671 
L 76.22088 85.282533 
L 76.322368 85.373471 
L 76.82981 86.580293 
L 76.931298 86.465419 
L 77.235763 87.477304 
L 77.337252 87.826368 
L 77.43874 87.755587 
L 77.540229 88.179212 
L 77.641717 88.141318 
L 78.04767 89.154248 
L 78.352136 89.915117 
L 78.758089 90.990009 
L 78.859577 91.140621 
L 79.367019 92.624898 
L 81.904229 101.662406 
L 82.208694 102.921461 
L 82.310182 103.166442 
L 82.614647 104.715748 
L 85.354833 117.831661 
L 85.659299 119.547426 
L 86.572694 124.319599 
L 86.877159 125.958433 
L 87.790554 131.21432 
L 87.892043 131.375939 
L 88.297996 133.939069 
L 88.500973 134.882411 
L 89.820322 141.499648 
L 90.835206 146.554862 
L 91.342648 148.994565 
L 92.763485 155.940192 
L 93.06795 157.439105 
L 94.488787 164.069882 
L 94.996229 166.034954 
L 95.503671 168.178455 
L 95.909624 169.410821 
L 96.21409 170.776279 
L 96.315578 170.883163 
L 96.620043 172.111551 
L 97.837904 176.451729 
L 98.345345 177.799118 
L 98.649811 178.317045 
L 98.751299 178.335511 
L 99.157252 179.124296 
L 99.258741 179.058189 
L 99.563206 179.720413 
L 99.664694 179.743289 
L 100.172136 180.441135 
L 100.476601 180.819589 
L 101.592973 182.16857 
L 102.303392 183.010547 
L 102.506369 183.249594 
L 102.607857 183.281023 
L 102.912322 183.869217 
L 103.318276 184.338974 
L 104.739113 185.957071 
L 105.043578 186.441398 
L 105.145067 186.42023 
L 105.55102 186.988151 
L 105.652508 186.984372 
L 105.956974 187.40904 
L 106.464415 187.910607 
L 106.667392 188.104649 
L 107.073346 188.560332 
L 107.479299 188.99188 
L 107.580788 189.03347 
L 107.783764 189.272484 
L 108.291206 189.862236 
L 108.392695 189.815176 
L 109.103113 190.58619 
L 109.204602 190.612083 
L 109.30609 190.801964 
L 109.407578 190.747528 
L 109.813532 191.283705 
L 110.117997 191.443319 
L 110.422462 191.821342 
L 110.52395 191.752086 
L 110.929904 192.241452 
L 111.843299 191.221677 
L 111.944788 191.247088 
L 112.350741 190.633996 
L 112.959671 190.135314 
L 113.264137 189.652712 
L 113.467113 189.521659 
L 113.771578 189.141796 
L 113.873067 189.130077 
L 114.583485 188.345022 
L 114.684974 188.354719 
L 114.989439 187.961065 
L 116.105811 186.834555 
L 116.308788 186.613924 
L 117.120695 185.790728 
L 117.323672 185.586607 
L 117.831113 185.268872 
L 118.03409 184.878234 
L 118.64302 184.218845 
L 119.048974 183.83933 
L 119.251951 183.598145 
L 119.353439 183.589359 
L 120.063858 182.733093 
L 120.266834 182.519673 
L 120.368323 182.586989 
L 120.672788 182.098717 
L 120.977253 181.988219 
L 121.078741 181.489388 
L 121.18023 181.54661 
L 121.281718 181.534724 
L 121.890648 180.698615 
L 121.992137 180.883623 
L 122.093625 180.359629 
L 122.195114 180.503213 
L 122.499579 180.262409 
L 122.601067 179.951205 
L 122.702555 180.04332 
L 122.905532 179.673154 
L 123.007021 179.816672 
L 123.108509 179.343037 
L 123.209997 179.470956 
L 123.920416 178.584007 
L 124.021904 178.763197 
L 124.123393 178.330456 
L 124.224881 178.36079 
L 124.529346 178.169019 
L 124.630835 177.871888 
L 124.732323 177.939205 
L 124.9353 177.557568 
L 125.036788 177.69782 
L 125.138276 177.241823 
L 125.239765 177.33223 
L 126.051672 176.592263 
L 126.15316 176.220655 
L 126.254649 176.251172 
L 126.356137 176.207361 
L 126.457625 176.005163 
L 126.559114 176.054643 
L 126.76209 175.74387 
L 126.863579 175.699048 
L 126.965067 175.407354 
L 127.066556 175.493402 
L 127.269532 175.197183 
L 127.371021 175.14888 
L 127.472509 174.932227 
L 127.573997 174.977564 
L 127.776974 174.686483 
L 128.081439 174.419489 
L 128.182928 174.100991 
L 128.284416 174.134674 
L 128.487393 173.931565 
L 129.90823 172.442381 
L 130.212695 172.134095 
L 131.126091 171.651409 
L 131.329067 171.509864 
L 131.532044 171.543961 
L 131.735021 171.348808 
L 132.242463 170.943948 
L 132.546928 171.012293 
L 132.648416 170.763615 
L 132.749905 170.868907 
L 132.851393 170.646271 
L 132.952881 170.696116 
L 133.05437 170.513843 
L 133.155858 170.65741 
L 133.257346 170.373176 
L 133.358835 170.622749 
L 133.460323 170.571578 
L 133.561812 170.724743 
L 133.6633 170.545039 
L 133.764788 170.734407 
L 133.967765 170.550609 
L 134.475207 170.682573 
L 134.576695 170.777489 
L 134.779672 170.680849 
L 135.084137 170.613947 
L 135.185626 170.921372 
L 135.287114 170.671964 
L 135.388602 170.879284 
L 135.490091 170.683634 
L 135.794556 170.883511 
L 135.896044 170.753984 
L 136.099021 170.908028 
L 136.504974 171.03182 
L 136.80944 171.519992 
L 136.910928 171.463931 
L 137.215393 172.095804 
L 137.41837 172.297886 
L 137.925812 172.953728 
L 138.63623 173.92631 
L 138.737719 174.271346 
L 138.839207 173.93493 
L 139.042184 174.445149 
L 139.245161 174.860435 
L 139.854091 175.673123 
L 140.260044 176.329992 
L 140.361533 176.376655 
L 141.274928 177.874193 
L 141.579393 178.36694 
L 141.680882 178.657987 
L 141.78237 178.423316 
L 142.086835 179.367056 
L 142.188323 179.351143 
L 142.3913 179.58767 
L 142.594277 180.103741 
L 142.695765 179.955001 
L 143.101719 180.652367 
L 143.406184 180.910775 
L 143.710649 181.235655 
L 143.913626 181.584437 
L 144.015114 181.926075 
L 144.116603 181.856172 
L 144.624044 182.370403 
L 145.029998 183.05585 
L 145.232975 183.145064 
L 145.53744 183.62218 
L 145.638928 183.560649 
L 145.943393 184.320458 
L 146.044882 184.172083 
L 146.14637 184.412373 
L 146.247858 184.333885 
L 146.450835 184.749055 
L 146.552324 184.728036 
L 146.856789 185.315932 
L 147.059765 185.48448 
L 147.161254 185.525772 
L 147.465719 186.0129 
L 147.567207 185.999606 
L 148.074649 186.775245 
L 148.176138 186.725765 
L 148.379114 187.047179 
L 148.480603 187.087576 
L 148.683579 187.533694 
L 148.886556 187.631047 
L 149.191021 188.000417 
L 149.29251 187.819255 
L 149.596975 188.501503 
L 149.90144 188.499679 
L 150.104417 188.688583 
L 150.51037 189.152223 
L 151.1193 190.169064 
L 151.220789 190.170407 
L 151.728231 191.101896 
L 151.829719 191.099078 
L 152.540138 192.256288 
L 152.946091 192.707313 
L 153.453533 193.462331 
L 153.65651 193.503225 
L 153.960975 193.999337 
L 154.062463 193.980457 
L 154.569905 194.697118 
L 154.671393 194.630232 
L 154.87437 194.85252 
L 155.381812 195.581149 
L 155.787766 196.786596 
L 156.701161 199.834102 
L 157.005626 200.887478 
L 157.41158 202.468013 
L 157.513068 202.528019 
L 157.716045 203.452878 
L 157.919021 204.126863 
L 159.644324 210.310866 
L 159.745812 210.349738 
L 160.050277 211.793817 
L 160.456231 212.993064 
L 160.963673 215.072547 
L 161.065161 215.065369 
L 161.369626 216.200018 
L 162.283022 219.021739 
L 162.38451 219.155708 
L 162.99344 220.994685 
L 163.399394 222.037137 
L 164.008324 223.746404 
L 164.109812 223.90194 
L 164.718743 225.704813 
L 164.820231 225.793828 
L 166.13958 228.974376 
L 166.241068 228.942467 
L 166.545533 229.951749 
L 166.74851 230.107914 
L 167.052975 231.139923 
L 167.154464 231.089995 
L 167.560417 232.212245 
L 167.661905 232.32818 
L 167.966371 233.071197 
L 168.067859 233.055416 
L 168.372324 234.011422 
L 168.473812 233.878513 
L 169.488696 235.327267 
L 169.590185 235.339351 
L 169.691673 235.627481 
L 169.793161 235.562153 
L 170.199115 236.263995 
L 170.402092 236.211978 
L 170.50358 236.195352 
L 170.706557 236.459695 
L 170.808045 236.314851 
L 171.011022 236.398379 
L 171.11251 236.799907 
L 171.315487 236.523414 
L 171.416975 236.52789 
L 171.619952 236.706019 
L 171.72144 236.510451 
L 172.025906 236.957001 
L 172.228882 236.66113 
L 172.330371 236.756626 
L 172.634836 236.60177 
L 172.837813 236.671938 
L 172.939301 236.913554 
L 173.142278 236.783148 
L 173.345254 236.850465 
L 173.446743 237.047126 
L 173.548231 236.746979 
L 173.751208 237.076284 
L 173.852696 237.242462 
L 174.055673 237.06599 
L 174.664603 237.869494 
L 174.766092 238.28798 
L 174.86758 238.153098 
L 175.172045 238.587613 
L 175.273534 238.912857 
L 175.375022 238.516153 
L 175.679487 239.41333 
L 175.780975 239.366021 
L 176.085441 239.804912 
L 176.389906 240.300063 
L 176.592882 240.687551 
L 177.303301 241.65153 
L 177.404789 242.116364 
L 178.01372 241.550448 
L 178.62265 237.498168 
L 181.565813 219.65507 
L 186.234278 198.265916 
L 188.162557 190.624399 
L 194.86079 152.923799 
L 195.165255 151.927363 
L 196.180139 148.557033 
L 198.108418 142.278155 
L 199.326278 138.358581 
L 200.442651 134.820763 
L 206.227488 116.702797 
L 210.794465 104.953369 
L 211.70786 102.64888 
L 213.534651 98.133275 
L 214.24507 96.766657 
L 214.955488 95.831371 
L 215.564418 95.003135 
L 216.07186 94.455785 
L 216.680791 94.229054 
L 216.883767 94.157097 
L 219.015023 93.477584 
L 219.319488 93.379303 
L 221.044791 92.812674 
L 221.146279 92.845545 
L 221.450744 92.656542 
L 221.958186 92.504305 
L 223.379023 92.000435 
L 223.480512 92.056247 
L 223.784977 91.892423 
L 225.408791 91.322248 
L 225.713256 91.188626 
L 233.121907 88.272304 
L 234.339768 87.517253 
L 234.644233 87.299606 
L 234.84721 87.168454 
L 235.354652 86.868323 
L 235.557628 86.709589 
L 237.282931 85.589792 
L 237.993349 85.107852 
L 239.21121 84.438102 
L 239.921628 84.338976 
L 241.545442 84.184452 
L 241.646931 84.281456 
L 241.951396 84.130844 
L 242.560326 84.14752 
L 242.96628 84.029695 
L 243.270745 84.045409 
L 243.473722 84.012058 
L 243.676698 84.031684 
L 243.981163 83.954339 
L 244.18414 83.965843 
L 244.387117 83.911274 
L 247.634745 83.444551 
L 248.142187 83.286645 
L 249.157071 83.093962 
L 249.461536 82.998018 
L 249.664512 82.958334 
L 250.577908 82.782592 
L 250.882373 82.637185 
L 252.100233 82.343983 
L 252.30321 82.252017 
L 252.404699 82.196454 
L 252.506187 82.276153 
L 252.810652 82.079889 
L 253.622559 81.889958 
L 253.825536 81.786289 
L 254.231489 81.672012 
L 254.84042 81.473826 
L 256.565722 80.933703 
L 256.870187 80.812132 
L 257.580606 80.560702 
L 263.771397 78.293958 
L 263.974373 78.182664 
L 264.075862 78.148285 
L 264.17735 78.235675 
L 264.380327 78.103197 
L 264.684792 77.982323 
L 264.989257 77.92835 
L 265.598187 77.764576 
L 266.308606 77.594901 
L 266.511583 77.511356 
L 266.714559 77.515269 
L 266.816048 77.356666 
L 267.120513 77.445018 
L 267.424978 77.283101 
L 267.93242 77.305976 
L 268.135397 77.158281 
L 268.642839 77.012045 
L 268.744327 77.102253 
L 268.947304 76.955221 
L 270.875583 76.526226 
L 271.383025 76.393781 
L 271.788978 76.33888 
L 271.991955 76.27357 
L 275.747025 75.441903 
L 275.950002 75.351926 
L 276.863397 75.138755 
L 277.979769 74.888718 
L 278.081257 74.919682 
L 278.284234 74.825263 
L 280.009537 74.490322 
L 280.212513 74.396699 
L 280.41549 74.42342 
L 280.719955 74.292898 
L 281.531862 74.128528 
L 282.242281 74.001785 
L 282.445258 73.924904 
L 283.764606 73.700229 
L 284.069072 73.619966 
L 284.272048 73.613999 
L 290.767304 72.590046 
L 290.868793 72.658274 
L 291.173258 72.535444 
L 291.6807 72.475603 
L 291.782188 72.560176 
L 292.086653 72.439368 
L 293.304514 72.357945 
L 293.50749 72.306028 
L 299.089351 71.958323 
L 299.292328 72.022407 
L 299.495304 72.042464 
L 300.104235 71.998106 
L 300.307211 72.13433 
L 300.510188 72.041602 
L 301.01763 71.99131 
L 301.322095 72.067494 
L 302.032514 72.049592 
L 302.235491 72.075318 
L 302.742932 72.103034 
L 302.844421 72.004902 
L 303.148886 72.14169 
L 303.351863 72.087353 
L 304.265258 72.141292 
L 304.468235 72.125279 
L 305.483119 72.15336 
L 306.599491 72.173218 
L 306.802467 72.227489 
L 307.817351 72.330096 
L 308.020328 72.271483 
L 308.730747 72.346606 
L 308.933723 72.31047 
L 309.644142 72.391429 
L 309.847119 72.398159 
L 311.470933 72.556993 
L 311.775398 72.587527 
L 311.978375 72.633775 
L 313.297723 72.733465 
L 313.399212 72.779315 
L 313.5007 72.692488 
L 313.805165 72.810743 
L 314.10963 72.783625 
L 314.312607 72.857621 
L 314.515584 72.818667 
L 314.820049 72.890044 
L 315.124514 72.916998 
L 316.139398 73.020434 
L 316.443863 73.005084 
L 316.545351 73.135208 
L 316.748328 73.082098 
L 316.951305 73.046094 
L 317.052793 73.151188 
L 317.25577 73.084319 
L 317.661724 73.187821 
L 317.763212 73.10683 
L 317.966189 73.205392 
L 318.270654 73.216996 
L 318.372142 73.325405 
L 318.676607 73.235528 
L 322.025724 73.671552 
L 322.127212 73.608528 
L 322.431677 73.77638 
L 322.736142 73.736431 
L 323.852514 73.888469 
L 324.055491 73.906173 
L 325.37484 74.123256 
L 325.476328 74.016903 
L 325.780794 74.196325 
L 326.186747 74.191882 
L 326.288235 74.257259 
L 326.389724 74.158531 
L 326.694189 74.330261 
L 326.998654 74.32804 
L 327.506096 74.367127 
L 327.607584 74.473017 
L 327.810561 74.355557 
L 327.912049 74.531995 
L 328.115026 74.496654 
L 328.216515 74.420171 
L 328.419491 74.528017 
L 328.622468 74.515518 
L 329.028422 74.627541 
L 329.231398 74.614247 
L 329.332887 74.68884 
L 329.535863 74.655986 
L 330.246282 74.80451 
L 330.449259 74.783458 
L 330.855212 74.900387 
L 331.261166 74.905791 
L 332.073073 75.095723 
L 332.174561 75.034158 
L 332.479026 75.224355 
L 332.783491 75.173333 
L 332.986468 75.251374 
L 333.189445 75.24849 
L 333.899864 75.408153 
L 334.10284 75.409744 
L 334.407305 75.490637 
L 334.610282 75.522066 
L 335.117724 75.602527 
L 335.320701 75.649173 
L 335.828143 75.678314 
L 336.132608 75.858366 
L 336.335585 75.767495 
L 336.538561 75.923809 
L 336.843026 75.934915 
L 337.350468 76.084334 
L 339.989166 76.63185 
L 340.598096 76.767875 
L 341.815957 77.061144 
L 341.917445 77.201744 
L 342.120422 77.148401 
L 342.627864 77.245605 
L 343.033817 77.418927 
L 343.236794 77.452146 
L 344.251678 77.760598 
L 344.353166 77.687695 
L 344.657631 77.925499 
L 344.860608 77.862808 
L 346.991864 78.493437 
L 347.093352 78.419507 
L 347.499306 78.591967 
L 348.209724 78.796883 
L 348.51419 78.84522 
L 349.326097 79.103313 
L 349.529073 79.13746 
L 349.935027 79.195576 
L 350.036515 79.365716 
L 350.239492 79.331966 
L 350.442469 79.351858 
L 350.645445 79.398868 
L 350.848422 79.463682 
L 351.051399 79.519312 
L 351.152887 79.569405 
L 351.254376 79.486358 
L 351.457352 79.617609 
L 351.558841 79.568709 
L 351.863306 79.784201 
L 352.066283 79.73182 
L 352.87819 79.957391 
L 353.081166 79.985372 
L 353.48712 80.083802 
L 354.502004 80.338414 
L 355.009446 80.393182 
L 355.313911 80.444801 
L 355.516887 80.526854 
L 356.024329 80.61988 
L 356.227306 80.645905 
L 356.328794 80.76963 
L 356.430283 80.677831 
L 356.63326 80.728919 
L 358.967492 81.210826 
L 359.068981 81.138553 
L 359.373446 81.345227 
L 359.576422 81.288171 
L 359.880888 81.376058 
L 359.982376 81.306504 
L 360.286841 81.473196 
L 360.591306 81.438054 
L 361.098748 81.615155 
L 361.301725 81.571361 
L 361.910655 81.624107 
L 362.012143 81.74581 
L 362.21512 81.729996 
L 362.418097 81.731985 
L 363.635957 81.883625 
L 364.244888 81.929774 
L 364.549353 82.005229 
L 364.75233 82.00808 
L 365.056795 81.985072 
L 365.767213 82.085691 
L 365.868702 81.999759 
L 365.97019 82.182961 
L 366.071678 82.050483 
L 366.376144 82.104256 
L 366.477632 82.093415 
L 366.57912 82.211638 
L 366.883585 82.131474 
L 367.086562 82.218765 
L 367.188051 82.08274 
L 367.492516 82.21923 
L 367.999958 82.17265 
L 368.608888 82.221815 
L 368.710376 82.176463 
L 368.913353 82.250194 
L 369.014841 82.136878 
L 369.11633 82.369444 
L 369.319306 82.206433 
L 369.420795 82.358106 
L 369.522283 82.22281 
L 369.623772 82.323826 
L 369.826748 82.246348 
L 369.928237 82.361918 
L 370.029725 82.203117 
L 370.232702 82.330854 
L 370.33419 82.219196 
L 370.435679 82.438203 
L 370.537167 82.243033 
L 370.740144 82.337485 
L 370.841632 82.213991 
L 370.94312 82.450038 
L 371.146097 82.282286 
L 371.247586 82.427992 
L 371.349074 82.274031 
L 371.450562 82.420831 
L 371.653539 82.232855 
L 371.755027 82.464294 
L 371.958004 82.344215 
L 372.262469 82.460083 
L 372.465446 82.353663 
L 372.566934 82.451895 
L 372.668423 82.263754 
L 372.769911 82.469234 
L 372.972888 82.31146 
L 373.074376 82.493767 
L 373.175865 82.357078 
L 373.277353 82.445529 
L 373.48033 82.289049 
L 373.581818 82.522112 
L 373.581818 82.522112 
" style="fill:none;stroke:#081d58;stroke-dasharray:5.55,2.4;stroke-dashoffset:0;stroke-width:1.5;"/>
    <defs>
     <path d="M -0 4.242641 
L 4.242641 0 
L 0 -4.242641 
L -4.242641 -0 
z
" id="m224ad5a34c" style="stroke:#081d58;stroke-linejoin:miter;"/>
    </defs>
    <g clip-path="url(#p4002a3bb56)">
     <use style="fill:#081d58;stroke:#081d58;stroke-linejoin:miter;" x="69.218182" xlink:href="#m224ad5a34c" y="82.731736"/>
     <use style="fill:#081d58;stroke:#081d58;stroke-linejoin:miter;" x="77.337252" xlink:href="#m224ad5a34c" y="87.826368"/>
     <use style="fill:#081d58;stroke:#081d58;stroke-linejoin:miter;" x="85.456322" xlink:href="#m224ad5a34c" y="118.60614"/>
     <use style="fill:#081d58;stroke:#081d58;stroke-linejoin:miter;" x="93.575392" xlink:href="#m224ad5a34c" y="159.899677"/>
     <use style="fill:#081d58;stroke:#081d58;stroke-linejoin:miter;" x="101.694462" xlink:href="#m224ad5a34c" y="182.270382"/>
     <use style="fill:#081d58;stroke:#081d58;stroke-linejoin:miter;" x="109.813532" xlink:href="#m224ad5a34c" y="191.283705"/>
     <use style="fill:#081d58;stroke:#081d58;stroke-linejoin:miter;" x="117.932602" xlink:href="#m224ad5a34c" y="184.945368"/>
     <use style="fill:#081d58;stroke:#081d58;stroke-linejoin:miter;" x="126.051672" xlink:href="#m224ad5a34c" y="176.592263"/>
     <use style="fill:#081d58;stroke:#081d58;stroke-linejoin:miter;" x="134.170742" xlink:href="#m224ad5a34c" y="170.605825"/>
     <use style="fill:#081d58;stroke:#081d58;stroke-linejoin:miter;" x="142.289812" xlink:href="#m224ad5a34c" y="179.462685"/>
     <use style="fill:#081d58;stroke:#081d58;stroke-linejoin:miter;" x="150.408882" xlink:href="#m224ad5a34c" y="189.026525"/>
     <use style="fill:#081d58;stroke:#081d58;stroke-linejoin:miter;" x="158.527952" xlink:href="#m224ad5a34c" y="206.271972"/>
     <use style="fill:#081d58;stroke:#081d58;stroke-linejoin:miter;" x="166.647022" xlink:href="#m224ad5a34c" y="230.022314"/>
     <use style="fill:#081d58;stroke:#081d58;stroke-linejoin:miter;" x="174.766092" xlink:href="#m224ad5a34c" y="238.28798"/>
     <use style="fill:#081d58;stroke:#081d58;stroke-linejoin:miter;" x="182.885162" xlink:href="#m224ad5a34c" y="213.072183"/>
     <use style="fill:#081d58;stroke:#081d58;stroke-linejoin:miter;" x="191.004232" xlink:href="#m224ad5a34c" y="174.156141"/>
     <use style="fill:#081d58;stroke:#081d58;stroke-linejoin:miter;" x="199.123302" xlink:href="#m224ad5a34c" y="139.081971"/>
     <use style="fill:#081d58;stroke:#081d58;stroke-linejoin:miter;" x="207.242372" xlink:href="#m224ad5a34c" y="114.053006"/>
     <use style="fill:#081d58;stroke:#081d58;stroke-linejoin:miter;" x="215.361442" xlink:href="#m224ad5a34c" y="95.281717"/>
     <use style="fill:#081d58;stroke:#081d58;stroke-linejoin:miter;" x="223.480512" xlink:href="#m224ad5a34c" y="92.056247"/>
     <use style="fill:#081d58;stroke:#081d58;stroke-linejoin:miter;" x="231.599582" xlink:href="#m224ad5a34c" y="88.889971"/>
     <use style="fill:#081d58;stroke:#081d58;stroke-linejoin:miter;" x="239.718652" xlink:href="#m224ad5a34c" y="84.401867"/>
     <use style="fill:#081d58;stroke:#081d58;stroke-linejoin:miter;" x="247.837722" xlink:href="#m224ad5a34c" y="83.370024"/>
     <use style="fill:#081d58;stroke:#081d58;stroke-linejoin:miter;" x="255.956792" xlink:href="#m224ad5a34c" y="81.13484"/>
     <use style="fill:#081d58;stroke:#081d58;stroke-linejoin:miter;" x="264.075862" xlink:href="#m224ad5a34c" y="78.148285"/>
     <use style="fill:#081d58;stroke:#081d58;stroke-linejoin:miter;" x="272.194932" xlink:href="#m224ad5a34c" y="76.161348"/>
     <use style="fill:#081d58;stroke:#081d58;stroke-linejoin:miter;" x="280.314002" xlink:href="#m224ad5a34c" y="74.41374"/>
     <use style="fill:#081d58;stroke:#081d58;stroke-linejoin:miter;" x="288.433072" xlink:href="#m224ad5a34c" y="72.898764"/>
     <use style="fill:#081d58;stroke:#081d58;stroke-linejoin:miter;" x="296.552142" xlink:href="#m224ad5a34c" y="72.193242"/>
     <use style="fill:#081d58;stroke:#081d58;stroke-linejoin:miter;" x="304.671212" xlink:href="#m224ad5a34c" y="72.104393"/>
     <use style="fill:#081d58;stroke:#081d58;stroke-linejoin:miter;" x="312.790282" xlink:href="#m224ad5a34c" y="72.73194"/>
     <use style="fill:#081d58;stroke:#081d58;stroke-linejoin:miter;" x="320.909352" xlink:href="#m224ad5a34c" y="73.471509"/>
     <use style="fill:#081d58;stroke:#081d58;stroke-linejoin:miter;" x="329.028422" xlink:href="#m224ad5a34c" y="74.627541"/>
     <use style="fill:#081d58;stroke:#081d58;stroke-linejoin:miter;" x="337.147492" xlink:href="#m224ad5a34c" y="75.956034"/>
     <use style="fill:#081d58;stroke:#081d58;stroke-linejoin:miter;" x="345.266562" xlink:href="#m224ad5a34c" y="77.933688"/>
     <use style="fill:#081d58;stroke:#081d58;stroke-linejoin:miter;" x="353.385632" xlink:href="#m224ad5a34c" y="80.010369"/>
     <use style="fill:#081d58;stroke:#081d58;stroke-linejoin:miter;" x="361.504702" xlink:href="#m224ad5a34c" y="81.571294"/>
     <use style="fill:#081d58;stroke:#081d58;stroke-linejoin:miter;" x="369.623772" xlink:href="#m224ad5a34c" y="82.323826"/>
    </g>
   </g>
   <g id="patch_3">
    <path d="M 54 252 
L 54 34.56 
" style="fill:none;stroke:#000000;stroke-linecap:square;stroke-linejoin:miter;stroke-width:0.8;"/>
   </g>
   <g id="patch_4">
    <path d="M 388.8 252 
L 388.8 34.56 
" style="fill:none;stroke:#000000;stroke-linecap:square;stroke-linejoin:miter;stroke-width:0.8;"/>
   </g>
   <g id="patch_5">
    <path d="M 54 252 
L 388.8 252 
" style="fill:none;stroke:#000000;stroke-linecap:square;stroke-linejoin:miter;stroke-width:0.8;"/>
   </g>
   <g id="patch_6">
    <path d="M 54 34.56 
L 388.8 34.56 
" style="fill:none;stroke:#000000;stroke-linecap:square;stroke-linejoin:miter;stroke-width:0.8;"/>
   </g>
   <g id="legend_1">
    <g id="patch_7">
     <path d="M 280.085938 247 
L 381.8 247 
Q 383.8 247 383.8 245 
L 383.8 216.64375 
Q 383.8 214.64375 381.8 214.64375 
L 280.085938 214.64375 
Q 278.085938 214.64375 278.085938 216.64375 
L 278.085938 245 
Q 278.085938 247 280.085938 247 
z
" style="fill:#ffffff;opacity:0.8;stroke:#cccccc;stroke-linejoin:miter;"/>
    </g>
    <g id="line2d_17">
     <path d="M 282.085938 222.742188 
L 302.085938 222.742188 
" style="fill:none;stroke:#40b5c4;stroke-dasharray:5.55,2.4;stroke-dashoffset:0;stroke-width:1.5;"/>
    </g>
    <g id="line2d_18">
     <g>
      <use style="fill:#40b5c4;stroke:#40b5c4;" x="292.085938" xlink:href="#mc756a4285e" y="222.742188"/>
     </g>
    </g>
    <g id="text_17">
     <text style="font-family:DejaVu Sans;font-size:10px;font-style:normal;font-weight:normal;text-anchor:start;" transform="rotate(-0, 310.085938, 226.242188)" x="310.085938" y="226.242188">original</text>
    </g>
    <g id="line2d_19">
     <path d="M 282.085938 237.420312 
L 302.085938 237.420312 
" style="fill:none;stroke:#081d58;stroke-dasharray:5.55,2.4;stroke-dashoffset:0;stroke-width:1.5;"/>
    </g>
    <g id="line2d_20">
     <g>
      <use style="fill:#081d58;stroke:#081d58;stroke-linejoin:miter;" x="292.085938" xlink:href="#m224ad5a34c" y="237.420312"/>
     </g>
    </g>
    <g id="text_18">
     <text style="font-family:DejaVu Sans;font-size:10px;font-style:normal;font-weight:normal;text-anchor:start;" transform="rotate(-0, 310.085938, 240.920312)" x="310.085938" y="240.920312">reconstructed</text>
    </g>
   </g>
  </g>
  <g id="text_19">
   <text style="font-family:DejaVu Sans;font-size:12px;font-style:normal;font-weight:normal;text-anchor:middle;" transform="rotate(-0, 216, 14.878125)" x="216" y="14.878125">Reconstruction of the temperature curve</text>
  </g>
 </g>
 <defs>
  <clipPath id="p4002a3bb56">
   <rect height="217.44" width="334.8" x="54" y="34.56"/>
  </clipPath>
 </defs>
</svg>
