<?xml version="1.0" encoding="utf-8" standalone="no"?>
<!DOCTYPE svg PUBLIC "-//W3C//DTD SVG 1.1//EN"
  "http://www.w3.org/Graphics/SVG/1.1/DTD/svg11.dtd">
<!-- Created with matplotlib (https://matplotlib.org/) -->
<svg height="288pt" version="1.1" viewBox="0 0 432 288" width="432pt" xmlns="http://www.w3.org/2000/svg" xmlns:xlink="http://www.w3.org/1999/xlink">
 <defs>
  <style type="text/css">
*{stroke-linecap:butt;stroke-linejoin:round;}
  </style>
 </defs>
 <g id="figure_1">
  <g id="patch_1">
   <path d="M 0 288 
L 432 288 
L 432 0 
L 0 0 
z
" style="fill:#ffffff;"/>
  </g>
  <g id="axes_1">
   <g id="patch_2">
    <path d="M 54 252 
L 388.8 252 
L 388.8 34.56 
L 54 34.56 
z
" style="fill:#ffffff;"/>
   </g>
   <g id="PathCollection_1">
    <path clip-path="url(#p07e7aa586b)" d="M 69.346638 245.382188 
L 73.589279 241.139548 
L 69.346638 236.896907 
L 65.103997 241.139548 
z
" style="fill:#40b5c4;stroke:#40b5c4;stroke-dasharray:3.7,1.6;stroke-dashoffset:0;"/>
    <path clip-path="url(#p07e7aa586b)" d="M 120.031092 193.754842 
L 124.273733 189.512201 
L 120.031092 185.269561 
L 115.788451 189.512201 
z
" style="fill:#40b5c4;stroke:#40b5c4;stroke-dasharray:3.7,1.6;stroke-dashoffset:0;"/>
    <path clip-path="url(#p07e7aa586b)" d="M 170.715546 243.084042 
L 174.958187 238.841401 
L 170.715546 234.598761 
L 166.472905 238.841401 
z
" style="fill:#40b5c4;stroke:#40b5c4;stroke-dasharray:3.7,1.6;stroke-dashoffset:0;"/>
    <path clip-path="url(#p07e7aa586b)" d="M 221.4 232.520075 
L 225.642641 228.277434 
L 221.4 224.034793 
L 217.157359 228.277434 
z
" style="fill:#40b5c4;stroke:#40b5c4;stroke-dasharray:3.7,1.6;stroke-dashoffset:0;"/>
    <path clip-path="url(#p07e7aa586b)" d="M 272.084454 203.332584 
L 276.327095 199.089943 
L 272.084454 194.847302 
L 267.841813 199.089943 
z
" style="fill:#40b5c4;stroke:#40b5c4;stroke-dasharray:3.7,1.6;stroke-dashoffset:0;"/>
    <path clip-path="url(#p07e7aa586b)" d="M 373.453362 49.48387 
L 377.696003 45.241229 
L 373.453362 40.998588 
L 369.210721 45.241229 
z
" style="fill:#40b5c4;stroke:#40b5c4;stroke-dasharray:3.7,1.6;stroke-dashoffset:0;"/>
   </g>
   <g id="matplotlib.axis_1">
    <g id="xtick_1">
     <g id="line2d_1">
      <defs>
       <path d="M 0 0 
L 0 3.5 
" id="m593d9c74b9" style="stroke:#000000;stroke-width:0.8;"/>
      </defs>
      <g>
       <use style="stroke:#000000;stroke-width:0.8;" x="69.346638" xlink:href="#m593d9c74b9" y="252"/>
      </g>
     </g>
     <g id="text_1">
      <text style="font-family:DejaVu Sans;font-size:10px;font-style:normal;font-weight:normal;text-anchor:middle;" transform="rotate(-0, 69.346638, 266.598437)" x="69.346638" y="266.598437">5</text>
     </g>
    </g>
    <g id="xtick_2">
     <g id="line2d_2">
      <g>
       <use style="stroke:#000000;stroke-width:0.8;" x="120.031092" xlink:href="#m593d9c74b9" y="252"/>
      </g>
     </g>
     <g id="text_2">
      <text style="font-family:DejaVu Sans;font-size:10px;font-style:normal;font-weight:normal;text-anchor:middle;" transform="rotate(-0, 120.031092, 266.598437)" x="120.031092" y="266.598437">10</text>
     </g>
    </g>
    <g id="xtick_3">
     <g id="line2d_3">
      <g>
       <use style="stroke:#000000;stroke-width:0.8;" x="170.715546" xlink:href="#m593d9c74b9" y="252"/>
      </g>
     </g>
     <g id="text_3">
      <text style="font-family:DejaVu Sans;font-size:10px;font-style:normal;font-weight:normal;text-anchor:middle;" transform="rotate(-0, 170.715546, 266.598437)" x="170.715546" y="266.598437">15</text>
     </g>
    </g>
    <g id="xtick_4">
     <g id="line2d_4">
      <g>
       <use style="stroke:#000000;stroke-width:0.8;" x="221.4" xlink:href="#m593d9c74b9" y="252"/>
      </g>
     </g>
     <g id="text_4">
      <text style="font-family:DejaVu Sans;font-size:10px;font-style:normal;font-weight:normal;text-anchor:middle;" transform="rotate(-0, 221.4, 266.598437)" x="221.4" y="266.598437">20</text>
     </g>
    </g>
    <g id="xtick_5">
     <g id="line2d_5">
      <g>
       <use style="stroke:#000000;stroke-width:0.8;" x="272.084454" xlink:href="#m593d9c74b9" y="252"/>
      </g>
     </g>
     <g id="text_5">
      <text style="font-family:DejaVu Sans;font-size:10px;font-style:normal;font-weight:normal;text-anchor:middle;" transform="rotate(-0, 272.084454, 266.598437)" x="272.084454" y="266.598437">25</text>
     </g>
    </g>
    <g id="xtick_6">
     <g id="line2d_6">
      <g>
       <use style="stroke:#000000;stroke-width:0.8;" x="322.768908" xlink:href="#m593d9c74b9" y="252"/>
      </g>
     </g>
     <g id="text_6">
      <text style="font-family:DejaVu Sans;font-size:10px;font-style:normal;font-weight:normal;text-anchor:middle;" transform="rotate(-0, 322.768908, 266.598437)" x="322.768908" y="266.598437">30</text>
     </g>
    </g>
    <g id="xtick_7">
     <g id="line2d_7">
      <g>
       <use style="stroke:#000000;stroke-width:0.8;" x="373.453362" xlink:href="#m593d9c74b9" y="252"/>
      </g>
     </g>
     <g id="text_7">
      <text style="font-family:DejaVu Sans;font-size:10px;font-style:normal;font-weight:normal;text-anchor:middle;" transform="rotate(-0, 373.453362, 266.598437)" x="373.453362" y="266.598437">35</text>
     </g>
    </g>
    <g id="text_8">
     <text style="font-family:DejaVu Sans;font-size:10px;font-style:normal;font-weight:normal;text-anchor:middle;" transform="rotate(-0, 221.4, 280.276563)" x="221.4" y="280.276563">Additional calamine oxide (\%)</text>
    </g>
   </g>
   <g id="matplotlib.axis_2">
    <g id="ytick_1">
     <g id="line2d_8">
      <defs>
       <path d="M 0 0 
L -3.5 0 
" id="mfaa6e11c0b" style="stroke:#000000;stroke-width:0.8;"/>
      </defs>
      <g>
       <use style="stroke:#000000;stroke-width:0.8;" x="54" xlink:href="#mfaa6e11c0b" y="242.967822"/>
      </g>
     </g>
     <g id="text_9">
      <text style="font-family:DejaVu Sans;font-size:10px;font-style:normal;font-weight:normal;text-anchor:end;" transform="rotate(-0, 47, 246.767041)" x="47" y="246.767041">0</text>
     </g>
    </g>
    <g id="ytick_2">
     <g id="line2d_9">
      <g>
       <use style="stroke:#000000;stroke-width:0.8;" x="54" xlink:href="#mfaa6e11c0b" y="202.090321"/>
      </g>
     </g>
     <g id="text_10">
      <text style="font-family:DejaVu Sans;font-size:10px;font-style:normal;font-weight:normal;text-anchor:end;" transform="rotate(-0, 47, 205.88954)" x="47" y="205.88954">1</text>
     </g>
    </g>
    <g id="ytick_3">
     <g id="line2d_10">
      <g>
       <use style="stroke:#000000;stroke-width:0.8;" x="54" xlink:href="#mfaa6e11c0b" y="161.21282"/>
      </g>
     </g>
     <g id="text_11">
      <text style="font-family:DejaVu Sans;font-size:10px;font-style:normal;font-weight:normal;text-anchor:end;" transform="rotate(-0, 47, 165.012039)" x="47" y="165.012039">2</text>
     </g>
    </g>
    <g id="ytick_4">
     <g id="line2d_11">
      <g>
       <use style="stroke:#000000;stroke-width:0.8;" x="54" xlink:href="#mfaa6e11c0b" y="120.335319"/>
      </g>
     </g>
     <g id="text_12">
      <text style="font-family:DejaVu Sans;font-size:10px;font-style:normal;font-weight:normal;text-anchor:end;" transform="rotate(-0, 47, 124.134537)" x="47" y="124.134537">3</text>
     </g>
    </g>
    <g id="ytick_5">
     <g id="line2d_12">
      <g>
       <use style="stroke:#000000;stroke-width:0.8;" x="54" xlink:href="#mfaa6e11c0b" y="79.457817"/>
      </g>
     </g>
     <g id="text_13">
      <text style="font-family:DejaVu Sans;font-size:10px;font-style:normal;font-weight:normal;text-anchor:end;" transform="rotate(-0, 47, 83.257036)" x="47" y="83.257036">4</text>
     </g>
    </g>
    <g id="ytick_6">
     <g id="line2d_13">
      <g>
       <use style="stroke:#000000;stroke-width:0.8;" x="54" xlink:href="#mfaa6e11c0b" y="38.580316"/>
      </g>
     </g>
     <g id="text_14">
      <text style="font-family:DejaVu Sans;font-size:10px;font-style:normal;font-weight:normal;text-anchor:end;" transform="rotate(-0, 47, 42.379535)" x="47" y="42.379535">5</text>
     </g>
    </g>
    <g id="text_15">
     <text style="font-family:DejaVu Sans;font-size:10px;font-style:normal;font-weight:normal;text-anchor:middle;" transform="rotate(-90, 34.557812, 143.28)" x="34.557812" y="143.28">Mean squared error</text>
    </g>
   </g>
   <g id="line2d_14">
    <path clip-path="url(#p07e7aa586b)" d="M 69.346638 241.139548 
L 79.483529 212.286235 
L 89.62042 194.438731 
L 99.757311 185.855148 
L 109.894201 184.7936 
L 120.031092 189.512201 
L 130.167983 198.269064 
L 140.304874 209.322302 
L 150.441764 220.930028 
L 160.578655 231.350357 
L 170.715546 238.841401 
L 180.852437 242.116364 
L 190.989328 241.708801 
L 201.126218 238.607361 
L 211.263109 233.80069 
L 221.4 228.277434 
L 231.536891 222.822839 
L 241.673782 217.408549 
L 251.810672 211.802808 
L 261.947563 205.773858 
L 272.084454 199.089943 
L 282.221345 191.519306 
L 292.358236 182.830191 
L 302.495126 172.79084 
L 312.632017 161.169497 
L 322.768908 147.734405 
L 332.905799 132.253808 
L 343.042689 114.495948 
L 353.17958 94.22907 
L 363.316471 71.221416 
L 373.453362 45.241229 
" style="fill:none;stroke:#40b5c4;stroke-linecap:square;stroke-width:1.5;"/>
   </g>
   <g id="patch_3">
    <path d="M 54 252 
L 54 34.56 
" style="fill:none;stroke:#000000;stroke-linecap:square;stroke-linejoin:miter;stroke-width:0.8;"/>
   </g>
   <g id="patch_4">
    <path d="M 388.8 252 
L 388.8 34.56 
" style="fill:none;stroke:#000000;stroke-linecap:square;stroke-linejoin:miter;stroke-width:0.8;"/>
   </g>
   <g id="patch_5">
    <path d="M 54 252 
L 388.8 252 
" style="fill:none;stroke:#000000;stroke-linecap:square;stroke-linejoin:miter;stroke-width:0.8;"/>
   </g>
   <g id="patch_6">
    <path d="M 54 34.56 
L 388.8 34.56 
" style="fill:none;stroke:#000000;stroke-linecap:square;stroke-linejoin:miter;stroke-width:0.8;"/>
   </g>
   <g id="legend_1">
    <g id="patch_7">
     <path d="M 61 57.238125 
L 193.225 57.238125 
Q 195.225 57.238125 195.225 55.238125 
L 195.225 41.56 
Q 195.225 39.56 193.225 39.56 
L 61 39.56 
Q 59 39.56 59 41.56 
L 59 55.238125 
Q 59 57.238125 61 57.238125 
z
" style="fill:#ffffff;opacity:0.8;stroke:#cccccc;stroke-linejoin:miter;"/>
    </g>
    <g id="PathCollection_2">
     <path d="M 73 52.776078 
L 77.242641 48.533437 
L 73 44.290797 
L 68.757359 48.533437 
z
" style="fill:#40b5c4;stroke:#40b5c4;stroke-dasharray:3.7,1.6;stroke-dashoffset:0;"/>
    </g>
    <g id="text_16">
     <text style="font-family:DejaVu Sans;font-size:10px;font-style:normal;font-weight:normal;text-anchor:start;" transform="rotate(-0, 91, 51.158437)" x="91" y="51.158437">reconstruction error</text>
    </g>
   </g>
  </g>
  <g id="text_17">
   <text style="font-family:DejaVu Sans;font-size:12px;font-style:normal;font-weight:normal;text-anchor:middle;" transform="rotate(-0, 216, 14.878125)" x="216" y="14.878125">Evolution of the temperature reconstruction error</text>
  </g>
 </g>
 <defs>
  <clipPath id="p07e7aa586b">
   <rect height="217.44" width="334.8" x="54" y="34.56"/>
  </clipPath>
 </defs>
</svg>
