<?xml version="1.0" encoding="utf-8" standalone="no"?>
<!DOCTYPE svg PUBLIC "-//W3C//DTD SVG 1.1//EN"
  "http://www.w3.org/Graphics/SVG/1.1/DTD/svg11.dtd">
<!-- Created with matplotlib (https://matplotlib.org/) -->
<svg height="288pt" version="1.1" viewBox="0 0 432 288" width="432pt" xmlns="http://www.w3.org/2000/svg" xmlns:xlink="http://www.w3.org/1999/xlink">
 <defs>
  <style type="text/css">
*{stroke-linecap:butt;stroke-linejoin:round;}
  </style>
 </defs>
 <g id="figure_1">
  <g id="patch_1">
   <path d="M 0 288 
L 432 288 
L 432 0 
L 0 0 
z
" style="fill:#ffffff;"/>
  </g>
  <g id="axes_1">
   <g id="patch_2">
    <path d="M 54 252 
L 388.8 252 
L 388.8 34.56 
L 54 34.56 
z
" style="fill:#ffffff;"/>
   </g>
   <g id="matplotlib.axis_1">
    <g id="xtick_1">
     <g id="line2d_1">
      <defs>
       <path d="M 0 0 
L 0 3.5 
" id="m17a0a64450" style="stroke:#000000;stroke-width:0.8;"/>
      </defs>
      <g>
       <use style="stroke:#000000;stroke-width:0.8;" x="69.218182" xlink:href="#m17a0a64450" y="252"/>
      </g>
     </g>
     <g id="text_1">
      <text style="font-family:DejaVu Sans;font-size:10px;font-style:normal;font-weight:normal;text-anchor:middle;" transform="rotate(-0, 69.218182, 266.598437)" x="69.218182" y="266.598437">0</text>
     </g>
    </g>
    <g id="xtick_2">
     <g id="line2d_2">
      <g>
       <use style="stroke:#000000;stroke-width:0.8;" x="119.962369" xlink:href="#m17a0a64450" y="252"/>
      </g>
     </g>
     <g id="text_2">
      <text style="font-family:DejaVu Sans;font-size:10px;font-style:normal;font-weight:normal;text-anchor:middle;" transform="rotate(-0, 119.962369, 266.598437)" x="119.962369" y="266.598437">500</text>
     </g>
    </g>
    <g id="xtick_3">
     <g id="line2d_3">
      <g>
       <use style="stroke:#000000;stroke-width:0.8;" x="170.706557" xlink:href="#m17a0a64450" y="252"/>
      </g>
     </g>
     <g id="text_3">
      <text style="font-family:DejaVu Sans;font-size:10px;font-style:normal;font-weight:normal;text-anchor:middle;" transform="rotate(-0, 170.706557, 266.598437)" x="170.706557" y="266.598437">1000</text>
     </g>
    </g>
    <g id="xtick_4">
     <g id="line2d_4">
      <g>
       <use style="stroke:#000000;stroke-width:0.8;" x="221.450744" xlink:href="#m17a0a64450" y="252"/>
      </g>
     </g>
     <g id="text_4">
      <text style="font-family:DejaVu Sans;font-size:10px;font-style:normal;font-weight:normal;text-anchor:middle;" transform="rotate(-0, 221.450744, 266.598437)" x="221.450744" y="266.598437">1500</text>
     </g>
    </g>
    <g id="xtick_5">
     <g id="line2d_5">
      <g>
       <use style="stroke:#000000;stroke-width:0.8;" x="272.194932" xlink:href="#m17a0a64450" y="252"/>
      </g>
     </g>
     <g id="text_5">
      <text style="font-family:DejaVu Sans;font-size:10px;font-style:normal;font-weight:normal;text-anchor:middle;" transform="rotate(-0, 272.194932, 266.598437)" x="272.194932" y="266.598437">2000</text>
     </g>
    </g>
    <g id="xtick_6">
     <g id="line2d_6">
      <g>
       <use style="stroke:#000000;stroke-width:0.8;" x="322.939119" xlink:href="#m17a0a64450" y="252"/>
      </g>
     </g>
     <g id="text_6">
      <text style="font-family:DejaVu Sans;font-size:10px;font-style:normal;font-weight:normal;text-anchor:middle;" transform="rotate(-0, 322.939119, 266.598437)" x="322.939119" y="266.598437">2500</text>
     </g>
    </g>
    <g id="xtick_7">
     <g id="line2d_7">
      <g>
       <use style="stroke:#000000;stroke-width:0.8;" x="373.683307" xlink:href="#m17a0a64450" y="252"/>
      </g>
     </g>
     <g id="text_7">
      <text style="font-family:DejaVu Sans;font-size:10px;font-style:normal;font-weight:normal;text-anchor:middle;" transform="rotate(-0, 373.683307, 266.598437)" x="373.683307" y="266.598437">3000</text>
     </g>
    </g>
    <g id="text_8">
     <text style="font-family:DejaVu Sans;font-size:10px;font-style:normal;font-weight:normal;text-anchor:middle;" transform="rotate(-0, 221.4, 280.276563)" x="221.4" y="280.276563">Time</text>
    </g>
   </g>
   <g id="matplotlib.axis_2">
    <g id="ytick_1">
     <g id="line2d_8">
      <defs>
       <path d="M 0 0 
L -3.5 0 
" id="mcac7190fa5" style="stroke:#000000;stroke-width:0.8;"/>
      </defs>
      <g>
       <use style="stroke:#000000;stroke-width:0.8;" x="54" xlink:href="#mcac7190fa5" y="234.016632"/>
      </g>
     </g>
     <g id="text_9">
      <text style="font-family:DejaVu Sans;font-size:10px;font-style:normal;font-weight:normal;text-anchor:end;" transform="rotate(-0, 47, 237.815851)" x="47" y="237.815851">−10</text>
     </g>
    </g>
    <g id="ytick_2">
     <g id="line2d_9">
      <g>
       <use style="stroke:#000000;stroke-width:0.8;" x="54" xlink:href="#mcac7190fa5" y="197.228259"/>
      </g>
     </g>
     <g id="text_10">
      <text style="font-family:DejaVu Sans;font-size:10px;font-style:normal;font-weight:normal;text-anchor:end;" transform="rotate(-0, 47, 201.027478)" x="47" y="201.027478">−8</text>
     </g>
    </g>
    <g id="ytick_3">
     <g id="line2d_10">
      <g>
       <use style="stroke:#000000;stroke-width:0.8;" x="54" xlink:href="#mcac7190fa5" y="160.439887"/>
      </g>
     </g>
     <g id="text_11">
      <text style="font-family:DejaVu Sans;font-size:10px;font-style:normal;font-weight:normal;text-anchor:end;" transform="rotate(-0, 47, 164.239106)" x="47" y="164.239106">−6</text>
     </g>
    </g>
    <g id="ytick_4">
     <g id="line2d_11">
      <g>
       <use style="stroke:#000000;stroke-width:0.8;" x="54" xlink:href="#mcac7190fa5" y="123.651515"/>
      </g>
     </g>
     <g id="text_12">
      <text style="font-family:DejaVu Sans;font-size:10px;font-style:normal;font-weight:normal;text-anchor:end;" transform="rotate(-0, 47, 127.450733)" x="47" y="127.450733">−4</text>
     </g>
    </g>
    <g id="ytick_5">
     <g id="line2d_12">
      <g>
       <use style="stroke:#000000;stroke-width:0.8;" x="54" xlink:href="#mcac7190fa5" y="86.863142"/>
      </g>
     </g>
     <g id="text_13">
      <text style="font-family:DejaVu Sans;font-size:10px;font-style:normal;font-weight:normal;text-anchor:end;" transform="rotate(-0, 47, 90.662361)" x="47" y="90.662361">−2</text>
     </g>
    </g>
    <g id="ytick_6">
     <g id="line2d_13">
      <g>
       <use style="stroke:#000000;stroke-width:0.8;" x="54" xlink:href="#mcac7190fa5" y="50.07477"/>
      </g>
     </g>
     <g id="text_14">
      <text style="font-family:DejaVu Sans;font-size:10px;font-style:normal;font-weight:normal;text-anchor:end;" transform="rotate(-0, 47, 53.873989)" x="47" y="53.873989">0</text>
     </g>
    </g>
    <g id="text_15">
     <text style="font-family:DejaVu Sans;font-size:10px;font-style:normal;font-weight:normal;text-anchor:middle;" transform="rotate(-90, 19.815625, 143.28)" x="19.815625" y="143.28">temperature (°C)</text>
    </g>
   </g>
   <g id="line2d_14">
    <path clip-path="url(#p13f23954c4)" d="M 69.218182 46.713271 
L 71.958368 46.118971 
L 73.07474 46.129223 
L 73.988135 46.380568 
L 74.800042 46.841105 
L 75.611949 47.55853 
L 76.423856 48.558512 
L 77.337252 50.029753 
L 78.352136 52.091369 
L 79.569996 55.140374 
L 80.889345 59.069365 
L 82.513159 64.654092 
L 84.644415 72.843627 
L 92.053066 102.013422 
L 94.184322 109.115436 
L 95.909624 114.114736 
L 97.43195 117.846475 
L 98.954276 120.96177 
L 100.172136 122.982242 
L 101.389997 124.573744 
L 102.506369 125.670976 
L 103.622741 126.456628 
L 104.739113 126.981543 
L 105.855485 127.25718 
L 106.870369 127.292901 
L 108.088229 127.118341 
L 109.509067 126.668492 
L 111.335857 125.846309 
L 113.568602 124.55798 
L 120.5713 120.309622 
L 122.905532 119.225726 
L 125.138276 118.464354 
L 127.371021 117.954523 
L 129.197811 117.746061 
L 131.024602 117.780458 
L 132.851393 118.037296 
L 134.678184 118.518967 
L 136.606463 119.272632 
L 138.433254 120.204536 
L 139.955579 121.209392 
L 141.376416 122.408123 
L 142.898742 123.999882 
L 144.522556 126.045334 
L 145.943393 128.173946 
L 147.262742 130.52029 
L 148.582091 133.328659 
L 149.90144 136.649031 
L 151.423765 141.088559 
L 153.453533 147.778985 
L 157.107114 159.934231 
L 160.456231 171.378174 
L 162.283022 178.49036 
L 163.906836 185.902481 
L 168.270836 206.494846 
L 169.082743 209.008595 
L 169.691673 210.253863 
L 170.097626 210.710793 
L 170.50358 210.834145 
L 170.808045 210.687046 
L 171.213999 210.146699 
L 171.619952 209.194156 
L 172.127394 207.407952 
L 172.736324 204.384518 
L 173.446743 199.700548 
L 174.360138 192.119569 
L 175.882464 177.204348 
L 178.419673 152.651899 
L 180.043487 139.111203 
L 181.565813 128.128733 
L 183.088138 118.674011 
L 184.610464 110.561494 
L 186.13279 103.613955 
L 187.655115 97.660309 
L 189.177441 92.556364 
L 190.801255 87.889703 
L 192.425069 83.921471 
L 194.048883 80.516909 
L 195.774185 77.409598 
L 197.600976 74.590229 
L 199.529255 72.037152 
L 201.457534 69.835773 
L 203.58879 67.736351 
L 205.821534 65.846626 
L 208.155767 64.152722 
L 210.794465 62.522228 
L 213.534651 61.0896 
L 216.376325 59.837385 
L 219.623953 58.631606 
L 223.277535 57.511611 
L 227.438558 56.460569 
L 254.941908 50.119078 
L 266.105629 47.855202 
L 275.341071 46.240244 
L 283.358653 45.191687 
L 289.244979 44.695339 
L 293.406002 44.48552 
L 298.581909 44.456391 
L 307.512886 44.693981 
L 332.682003 45.815398 
L 336.437073 46.379584 
L 341.00405 47.330424 
L 354.70498 50.422145 
L 358.866004 50.94107 
L 363.635957 51.274768 
L 369.522283 51.470646 
L 373.581818 51.477771 
L 373.581818 51.477771 
" style="fill:none;stroke:#40b5c4;stroke-dasharray:5.55,2.4;stroke-dashoffset:0;stroke-width:1.5;"/>
    <defs>
     <path d="M 0 3 
C 0.795609 3 1.55874 2.683901 2.12132 2.12132 
C 2.683901 1.55874 3 0.795609 3 0 
C 3 -0.795609 2.683901 -1.55874 2.12132 -2.12132 
C 1.55874 -2.683901 0.795609 -3 0 -3 
C -0.795609 -3 -1.55874 -2.683901 -2.12132 -2.12132 
C -2.683901 -1.55874 -3 -0.795609 -3 0 
C -3 0.795609 -2.683901 1.55874 -2.12132 2.12132 
C -1.55874 2.683901 -0.795609 3 0 3 
z
" id="m3ac9a1e1d1" style="stroke:#40b5c4;"/>
    </defs>
    <g clip-path="url(#p13f23954c4)">
     <use style="fill:#40b5c4;stroke:#40b5c4;" x="69.218182" xlink:href="#m3ac9a1e1d1" y="46.713271"/>
     <use style="fill:#40b5c4;stroke:#40b5c4;" x="77.337252" xlink:href="#m3ac9a1e1d1" y="50.029753"/>
     <use style="fill:#40b5c4;stroke:#40b5c4;" x="85.456322" xlink:href="#m3ac9a1e1d1" y="76.111354"/>
     <use style="fill:#40b5c4;stroke:#40b5c4;" x="93.575392" xlink:href="#m3ac9a1e1d1" y="107.197363"/>
     <use style="fill:#40b5c4;stroke:#40b5c4;" x="101.694462" xlink:href="#m3ac9a1e1d1" y="124.905833"/>
     <use style="fill:#40b5c4;stroke:#40b5c4;" x="109.813532" xlink:href="#m3ac9a1e1d1" y="126.547863"/>
     <use style="fill:#40b5c4;stroke:#40b5c4;" x="117.932602" xlink:href="#m3ac9a1e1d1" y="121.790207"/>
     <use style="fill:#40b5c4;stroke:#40b5c4;" x="126.051672" xlink:href="#m3ac9a1e1d1" y="118.225193"/>
     <use style="fill:#40b5c4;stroke:#40b5c4;" x="134.170742" xlink:href="#m3ac9a1e1d1" y="118.363131"/>
     <use style="fill:#40b5c4;stroke:#40b5c4;" x="142.289812" xlink:href="#m3ac9a1e1d1" y="123.325239"/>
     <use style="fill:#40b5c4;stroke:#40b5c4;" x="150.408882" xlink:href="#m3ac9a1e1d1" y="138.061925"/>
     <use style="fill:#40b5c4;stroke:#40b5c4;" x="158.527952" xlink:href="#m3ac9a1e1d1" y="164.663082"/>
     <use style="fill:#40b5c4;stroke:#40b5c4;" x="166.647022" xlink:href="#m3ac9a1e1d1" y="199.519954"/>
     <use style="fill:#40b5c4;stroke:#40b5c4;" x="174.766092" xlink:href="#m3ac9a1e1d1" y="188.316552"/>
     <use style="fill:#40b5c4;stroke:#40b5c4;" x="182.885162" xlink:href="#m3ac9a1e1d1" y="119.852159"/>
     <use style="fill:#40b5c4;stroke:#40b5c4;" x="191.004232" xlink:href="#m3ac9a1e1d1" y="87.359528"/>
     <use style="fill:#40b5c4;stroke:#40b5c4;" x="199.123302" xlink:href="#m3ac9a1e1d1" y="72.543636"/>
     <use style="fill:#40b5c4;stroke:#40b5c4;" x="207.242372" xlink:href="#m3ac9a1e1d1" y="64.785476"/>
     <use style="fill:#40b5c4;stroke:#40b5c4;" x="215.361442" xlink:href="#m3ac9a1e1d1" y="60.26129"/>
     <use style="fill:#40b5c4;stroke:#40b5c4;" x="223.480512" xlink:href="#m3ac9a1e1d1" y="57.454823"/>
     <use style="fill:#40b5c4;stroke:#40b5c4;" x="231.599582" xlink:href="#m3ac9a1e1d1" y="55.528448"/>
     <use style="fill:#40b5c4;stroke:#40b5c4;" x="239.718652" xlink:href="#m3ac9a1e1d1" y="53.658289"/>
     <use style="fill:#40b5c4;stroke:#40b5c4;" x="247.837722" xlink:href="#m3ac9a1e1d1" y="51.733397"/>
     <use style="fill:#40b5c4;stroke:#40b5c4;" x="255.956792" xlink:href="#m3ac9a1e1d1" y="49.902123"/>
     <use style="fill:#40b5c4;stroke:#40b5c4;" x="264.075862" xlink:href="#m3ac9a1e1d1" y="48.241696"/>
     <use style="fill:#40b5c4;stroke:#40b5c4;" x="272.194932" xlink:href="#m3ac9a1e1d1" y="46.756054"/>
     <use style="fill:#40b5c4;stroke:#40b5c4;" x="280.314002" xlink:href="#m3ac9a1e1d1" y="45.548248"/>
     <use style="fill:#40b5c4;stroke:#40b5c4;" x="288.433072" xlink:href="#m3ac9a1e1d1" y="44.757035"/>
     <use style="fill:#40b5c4;stroke:#40b5c4;" x="296.552142" xlink:href="#m3ac9a1e1d1" y="44.443636"/>
     <use style="fill:#40b5c4;stroke:#40b5c4;" x="304.671212" xlink:href="#m3ac9a1e1d1" y="44.605643"/>
     <use style="fill:#40b5c4;stroke:#40b5c4;" x="312.790282" xlink:href="#m3ac9a1e1d1" y="44.931732"/>
     <use style="fill:#40b5c4;stroke:#40b5c4;" x="320.909352" xlink:href="#m3ac9a1e1d1" y="45.233089"/>
     <use style="fill:#40b5c4;stroke:#40b5c4;" x="329.028422" xlink:href="#m3ac9a1e1d1" y="45.481613"/>
     <use style="fill:#40b5c4;stroke:#40b5c4;" x="337.147492" xlink:href="#m3ac9a1e1d1" y="46.511193"/>
     <use style="fill:#40b5c4;stroke:#40b5c4;" x="345.266562" xlink:href="#m3ac9a1e1d1" y="48.386838"/>
     <use style="fill:#40b5c4;stroke:#40b5c4;" x="353.385632" xlink:href="#m3ac9a1e1d1" y="50.205095"/>
     <use style="fill:#40b5c4;stroke:#40b5c4;" x="361.504702" xlink:href="#m3ac9a1e1d1" y="51.161099"/>
     <use style="fill:#40b5c4;stroke:#40b5c4;" x="369.623772" xlink:href="#m3ac9a1e1d1" y="51.471597"/>
    </g>
   </g>
   <g id="line2d_15">
    <path clip-path="url(#p13f23954c4)" d="M 69.218182 45.823236 
L 69.421159 45.902526 
L 69.624135 45.882563 
L 69.725624 45.586733 
L 69.827112 45.823516 
L 69.9286 45.662392 
L 70.131577 45.76754 
L 70.233066 45.589435 
L 70.334554 45.695757 
L 70.537531 45.447397 
L 70.639019 45.572945 
L 70.740507 45.404033 
L 70.841996 45.606135 
L 70.943484 45.321866 
L 71.349438 45.503689 
L 71.450926 45.324199 
L 71.552414 45.370457 
L 71.755391 45.269257 
L 72.059856 45.266573 
L 72.161345 45.180494 
L 72.262833 45.272222 
L 72.364321 45.194072 
L 72.567298 45.419435 
L 72.770275 45.319971 
L 72.871763 45.244084 
L 73.176228 45.36823 
L 73.277717 45.209123 
L 73.480694 45.47564 
L 73.582182 45.433819 
L 73.68367 45.672883 
L 73.886647 45.605714 
L 73.988135 45.687127 
L 74.089624 45.567613 
L 74.191112 45.805343 
L 74.292601 45.759996 
L 74.394089 45.9314 
L 74.495577 45.826042 
L 74.597066 45.90828 
L 74.901531 46.632697 
L 75.003019 46.515182 
L 75.408973 46.98659 
L 75.713438 47.39939 
L 75.814926 47.396566 
L 76.119391 48.318068 
L 76.322368 48.314717 
L 76.82981 49.373065 
L 76.931298 49.28253 
L 77.235763 50.277411 
L 77.337252 50.678072 
L 77.43874 50.598992 
L 77.540229 51.065804 
L 77.641717 51.024545 
L 78.149159 52.430015 
L 79.367019 56.183122 
L 81.092322 62.903662 
L 81.295298 63.726876 
L 81.904229 66.330048 
L 82.208694 67.738623 
L 82.310182 67.983861 
L 82.716136 70.16362 
L 82.817624 70.31243 
L 83.426554 73.595585 
L 84.238461 77.82059 
L 84.542926 79.462282 
L 85.253345 83.429034 
L 87.790554 98.770831 
L 87.892043 98.996457 
L 88.297996 101.761735 
L 88.70395 103.714254 
L 89.414368 107.882862 
L 89.617345 108.808732 
L 90.124787 111.783235 
L 90.327764 112.767765 
L 92.154555 122.326979 
L 92.45902 123.344524 
L 92.864973 125.253342 
L 92.966462 125.363155 
L 93.372415 127.391351 
L 93.778369 128.981136 
L 94.996229 133.91342 
L 95.503671 136.135157 
L 95.909624 137.42099 
L 96.21409 138.8386 
L 96.315578 138.931327 
L 96.518555 139.70937 
L 99.157252 146.666482 
L 99.258741 146.743158 
L 99.664694 147.819873 
L 100.882555 150.639619 
L 101.694462 152.364784 
L 101.998927 153.042724 
L 102.607857 154.203026 
L 102.912322 154.949406 
L 103.622741 155.786662 
L 104.028694 156.413028 
L 104.33316 156.622611 
L 105.043578 156.144274 
L 105.246555 155.937945 
L 105.55102 155.760682 
L 105.855485 155.486456 
L 106.15995 155.306088 
L 106.464415 155.075919 
L 106.565904 155.093172 
L 106.768881 154.898797 
L 107.580788 154.337854 
L 107.682276 154.350011 
L 107.986741 154.070838 
L 108.494183 153.77164 
L 109.001625 153.475837 
L 109.30609 153.337185 
L 109.509067 153.18991 
L 109.712043 153.089228 
L 110.016509 152.929665 
L 110.320974 152.711003 
L 110.422462 152.707942 
L 110.625439 152.534688 
L 113.568602 151.000336 
L 113.67009 151.047612 
L 113.873067 150.900452 
L 114.380509 150.589703 
L 114.684974 150.543839 
L 114.989439 150.344368 
L 116.105811 149.922263 
L 116.308788 149.745132 
L 119.048974 147.517447 
L 119.251951 147.324362 
L 119.454927 147.199287 
L 119.962369 146.768708 
L 120.266834 146.490333 
L 120.368323 146.538653 
L 120.672788 146.204915 
L 120.977253 146.144228 
L 121.078741 145.800518 
L 121.281718 145.853478 
L 121.890648 145.29657 
L 121.992137 145.435301 
L 122.093625 145.047902 
L 122.195114 145.161926 
L 122.499579 144.995653 
L 122.601067 144.772685 
L 122.702555 144.843546 
L 122.905532 144.580573 
L 123.007021 144.691018 
L 123.108509 144.342211 
L 123.209997 144.443429 
L 123.717439 144.155669 
L 123.818928 144.16644 
L 123.920416 144.024419 
L 124.021904 144.172597 
L 124.123393 143.931745 
L 124.427858 143.971004 
L 124.529346 143.974512 
L 124.630835 143.82051 
L 124.732323 143.89245 
L 124.9353 143.727695 
L 125.036788 143.845385 
L 125.138276 143.597095 
L 125.341253 143.652177 
L 125.54423 143.656738 
L 125.645718 143.498192 
L 125.848695 143.496947 
L 125.950183 143.422148 
L 126.051672 143.501859 
L 126.15316 143.30958 
L 126.356137 143.369223 
L 126.457625 143.286793 
L 126.559114 143.352172 
L 126.76209 143.221502 
L 126.863579 143.231097 
L 126.965067 143.09062 
L 127.066556 143.173366 
L 127.269532 143.058869 
L 127.573997 143.039643 
L 127.776974 142.924128 
L 128.081439 142.869748 
L 128.182928 142.706537 
L 128.487393 142.864047 
L 128.791858 142.796703 
L 129.096323 142.840541 
L 129.2993 142.789476 
L 129.705253 142.901569 
L 130.009718 142.875432 
L 130.314184 142.858662 
L 130.51716 142.969001 
L 130.720137 142.943407 
L 131.329067 142.927111 
L 131.735021 143.02189 
L 132.039486 143.015698 
L 132.140974 143.088182 
L 132.242463 142.947916 
L 132.546928 143.259919 
L 132.648416 143.069377 
L 132.749905 143.217309 
L 132.851393 143.052361 
L 132.952881 143.187312 
L 133.05437 143.114776 
L 133.155858 143.272145 
L 133.257346 143.056554 
L 133.460323 143.243622 
L 133.561812 143.380661 
L 133.6633 143.250078 
L 133.764788 143.416815 
L 133.866277 143.249692 
L 134.576695 143.570764 
L 134.779672 143.524137 
L 135.084137 143.518682 
L 135.185626 143.782462 
L 135.287114 143.59841 
L 135.388602 143.781725 
L 135.490091 143.640687 
L 135.794556 143.852507 
L 135.896044 143.765832 
L 136.099021 143.926394 
L 136.403486 144.047382 
L 136.504974 143.992002 
L 136.80944 144.174097 
L 136.910928 144.086869 
L 137.215393 144.361122 
L 137.519858 144.429913 
L 138.331765 144.814286 
L 138.63623 144.956341 
L 138.737719 145.128376 
L 138.839207 144.887208 
L 139.042184 145.122438 
L 139.245161 145.326646 
L 139.752602 145.647946 
L 140.158556 146.294117 
L 140.463021 146.426507 
L 140.665998 146.69704 
L 140.767486 146.652975 
L 140.970463 146.890003 
L 141.071951 147.473005 
L 141.17344 147.406047 
L 141.680882 148.475411 
L 141.78237 148.058953 
L 142.086835 148.77702 
L 142.188323 148.729341 
L 142.492789 149.155569 
L 142.594277 149.373687 
L 142.695765 149.246174 
L 143.101719 150.003877 
L 143.406184 150.311117 
L 144.015114 151.407347 
L 144.116603 151.357291 
L 144.522556 151.886202 
L 144.827021 152.630161 
L 145.232975 153.589948 
L 146.7553 157.169292 
L 147.059765 157.934898 
L 147.161254 158.100223 
L 147.465719 158.990948 
L 147.567207 159.036373 
L 147.973161 159.734828 
L 148.379114 160.296823 
L 148.480603 160.383709 
L 148.683579 160.854573 
L 148.988044 161.210773 
L 149.191021 161.571657 
L 149.29251 161.517978 
L 149.596975 162.284786 
L 149.90144 162.54161 
L 150.611858 163.750355 
L 151.322277 164.742262 
L 151.423765 164.879029 
L 151.525254 165.278137 
L 151.626742 165.250245 
L 152.032696 165.881865 
L 152.337161 166.297164 
L 152.540138 166.717192 
L 152.844603 167.11087 
L 153.757998 168.591026 
L 155.178835 173.504759 
L 155.4833 174.545749 
L 157.107114 180.250174 
L 157.41158 181.421668 
L 157.513068 181.449428 
L 157.716045 182.387639 
L 158.02051 183.482974 
L 158.324975 184.718172 
L 158.426463 184.788823 
L 158.832417 186.548643 
L 161.471115 195.784039 
L 161.674091 196.354472 
L 161.77558 196.704708 
L 161.877068 197.468112 
L 161.978556 197.453236 
L 163.399394 203.820339 
L 166.13958 219.08567 
L 166.241068 219.332434 
L 166.647022 221.709787 
L 166.849998 222.704141 
L 168.676789 230.267735 
L 169.184231 231.851117 
L 169.387208 232.608916 
L 169.590185 232.965196 
L 169.89465 233.91559 
L 169.996138 234.105553 
L 170.300603 234.9989 
L 170.605068 235.641325 
L 170.808045 235.993815 
L 171.011022 236.469205 
L 171.11251 237.142277 
L 171.213999 237.097825 
L 171.416975 237.322469 
L 171.619952 237.868676 
L 171.72144 237.812015 
L 172.127394 238.83163 
L 172.228882 238.841857 
L 172.431859 239.192418 
L 172.837813 239.888206 
L 172.939301 240.311356 
L 173.040789 240.172142 
L 173.446743 240.955062 
L 173.548231 240.696211 
L 173.852696 241.587751 
L 174.055673 241.629799 
L 174.360138 242.078087 
L 174.461627 241.938522 
L 174.563115 242.116364 
L 174.664603 242.05209 
L 175.577999 234.876596 
L 178.521162 211.796732 
L 179.333069 204.754296 
L 181.464324 183.684568 
L 183.900045 160.496127 
L 186.843208 136.149761 
L 187.249162 133.538827 
L 188.467022 126.105202 
L 189.177441 121.865377 
L 190.49679 114.72153 
L 191.004232 112.00323 
L 192.019115 107.210528 
L 192.120604 107.076208 
L 192.628046 105.576818 
L 194.25186 101.093224 
L 194.657813 100.100747 
L 195.571209 97.699607 
L 198.61586 90.404074 
L 199.22479 89.089892 
L 199.630744 88.130833 
L 200.138185 86.989072 
L 201.153069 84.783719 
L 201.559023 83.968487 
L 202.066465 82.858794 
L 206.430465 73.811264 
L 206.836418 73.484 
L 207.648325 73.12123 
L 207.851302 73.004803 
L 208.155767 72.838364 
L 208.358744 72.730621 
L 208.866186 72.461052 
L 209.272139 72.313681 
L 209.576604 72.162784 
L 209.678093 72.168397 
L 209.881069 72.019904 
L 209.982558 71.955226 
L 210.084046 72.032534 
L 210.388511 71.729986 
L 210.591488 71.67194 
L 212.31679 70.74535 
L 212.621256 70.55965 
L 212.722744 70.57528 
L 213.128697 70.2624 
L 213.737628 70.020126 
L 214.042093 69.75803 
L 214.346558 69.659058 
L 214.448046 69.487233 
L 214.549535 69.539421 
L 214.854 69.350598 
L 216.173349 68.58515 
L 217.594186 67.786145 
L 217.898651 67.589989 
L 219.82693 66.443896 
L 220.334372 66.153189 
L 222.059674 65.067563 
L 222.262651 65.001658 
L 222.567116 64.73565 
L 222.770093 64.666587 
L 223.176047 64.315518 
L 223.480512 64.262576 
L 223.784977 63.987937 
L 225.104326 63.14376 
L 226.220698 63.090222 
L 226.525163 63.081819 
L 226.72814 63.095081 
L 226.931116 63.083503 
L 229.265349 62.979532 
L 230.686186 62.691912 
L 230.889163 62.660231 
L 231.295117 62.555698 
L 231.599582 62.502335 
L 234.644233 61.850138 
L 234.745721 61.901116 
L 235.050186 61.743851 
L 235.963582 61.590832 
L 236.268047 61.49528 
L 238.60228 60.948213 
L 238.805256 60.902621 
L 239.312698 60.787967 
L 239.617163 60.739691 
L 240.124605 60.604091 
L 240.530559 60.468683 
L 240.733535 60.482507 
L 241.545442 60.253565 
L 241.646931 60.303121 
L 241.951396 60.15247 
L 242.864791 59.968893 
L 243.169256 59.874043 
L 260.523769 55.21473 
L 260.828234 55.108916 
L 261.741629 54.815122 
L 262.046094 54.734007 
L 269.556234 52.611347 
L 269.860699 52.596261 
L 270.165164 52.546126 
L 270.571118 52.504621 
L 270.875583 52.459609 
L 271.383025 52.39123 
L 271.788978 52.375617 
L 272.194932 52.269207 
L 272.29642 52.383722 
L 272.499397 52.303309 
L 272.702374 52.266997 
L 274.123211 52.107504 
L 274.326188 52.086033 
L 275.239583 52.03053 
L 275.645536 51.949766 
L 276.152978 51.97243 
L 276.355955 51.895877 
L 276.66042 51.858372 
L 277.370839 51.789923 
L 277.776792 51.755996 
L 278.284234 51.69509 
L 282.851211 51.377649 
L 283.054188 51.337373 
L 283.967583 51.255767 
L 284.77949 51.275274 
L 284.982467 51.220086 
L 285.692886 51.218402 
L 285.997351 51.193773 
L 286.098839 51.245733 
L 286.403304 51.133183 
L 286.910746 51.165531 
L 287.92563 51.08624 
L 288.027118 51.185809 
L 288.331583 51.070979 
L 289.042002 51.089258 
L 289.752421 51.053753 
L 290.056886 51.062138 
L 290.767304 51.043297 
L 290.970281 51.053402 
L 294.522374 51.049367 
L 294.725351 51.101256 
L 295.029816 51.05705 
L 295.232793 51.091503 
L 295.334281 51.020528 
L 295.638746 51.13806 
L 295.943211 51.108589 
L 298.277444 51.222928 
L 298.480421 51.275519 
L 298.784886 51.260609 
L 300.205723 51.397402 
L 300.4087 51.399191 
L 302.742932 51.645095 
L 302.945909 51.630606 
L 303.250374 51.666041 
L 304.569723 51.821393 
L 304.874188 51.850688 
L 305.077165 51.875458 
L 307.208421 52.129291 
L 307.411398 52.140904 
L 310.253072 52.467783 
L 310.862002 52.513077 
L 311.064979 52.56044 
L 313.297723 52.757788 
L 313.805165 52.828062 
L 314.211119 52.850972 
L 314.820049 52.911422 
L 315.327491 52.903703 
L 315.733444 52.997273 
L 316.240886 53.011692 
L 316.748328 53.09814 
L 317.25577 53.11098 
L 317.661724 53.191569 
L 317.8647 53.196726 
L 319.488514 53.360639 
L 319.792979 53.372006 
L 322.330189 53.612403 
L 322.533166 53.630471 
L 323.243584 53.695061 
L 323.446561 53.71776 
L 324.15698 53.79042 
L 324.359956 53.813715 
L 325.070375 53.867184 
L 326.288235 54.038184 
L 326.389724 53.968226 
L 326.694189 54.090529 
L 327.100142 54.088284 
L 327.607584 54.201851 
L 327.810561 54.120702 
L 327.912049 54.247285 
L 328.216515 54.172451 
L 328.52098 54.214797 
L 329.332887 54.36401 
L 329.535863 54.348222 
L 331.159677 54.577953 
L 331.464143 54.610932 
L 331.667119 54.646472 
L 332.986468 54.852311 
L 333.189445 54.848311 
L 333.899864 54.979386 
L 334.10284 54.985245 
L 334.610282 55.079902 
L 335.828143 55.213993 
L 336.132608 55.344366 
L 336.437073 55.362925 
L 336.843026 55.418779 
L 338.162375 55.642791 
L 338.568329 55.713345 
L 340.090654 56.02584 
L 349.833538 58.139307 
L 349.935027 58.14664 
L 350.036515 58.272206 
L 350.34098 58.231754 
L 351.152887 58.472993 
L 351.355864 58.528461 
L 352.269259 58.764857 
L 354.70498 59.433561 
L 355.313911 59.575617 
L 355.618376 59.688588 
L 355.922841 59.745845 
L 361.403213 61.019855 
L 363.940423 60.985438 
L 364.143399 60.921093 
L 364.447864 60.963335 
L 364.650841 60.898394 
L 364.853818 60.903692 
L 365.868702 60.837347 
L 366.173167 60.820612 
L 366.57912 60.775178 
L 366.883585 60.763355 
L 367.289539 60.710694 
L 367.695492 60.671821 
L 373.581818 59.907478 
L 373.581818 59.907478 
" style="fill:none;stroke:#081d58;stroke-dasharray:5.55,2.4;stroke-dashoffset:0;stroke-width:1.5;"/>
    <defs>
     <path d="M -0 4.242641 
L 4.242641 0 
L 0 -4.242641 
L -4.242641 -0 
z
" id="me0ae7c9fcb" style="stroke:#081d58;stroke-linejoin:miter;"/>
    </defs>
    <g clip-path="url(#p13f23954c4)">
     <use style="fill:#081d58;stroke:#081d58;stroke-linejoin:miter;" x="69.218182" xlink:href="#me0ae7c9fcb" y="45.823236"/>
     <use style="fill:#081d58;stroke:#081d58;stroke-linejoin:miter;" x="77.337252" xlink:href="#me0ae7c9fcb" y="50.678072"/>
     <use style="fill:#081d58;stroke:#081d58;stroke-linejoin:miter;" x="85.456322" xlink:href="#me0ae7c9fcb" y="84.876131"/>
     <use style="fill:#081d58;stroke:#081d58;stroke-linejoin:miter;" x="93.575392" xlink:href="#me0ae7c9fcb" y="128.155746"/>
     <use style="fill:#081d58;stroke:#081d58;stroke-linejoin:miter;" x="101.694462" xlink:href="#me0ae7c9fcb" y="152.364784"/>
     <use style="fill:#081d58;stroke:#081d58;stroke-linejoin:miter;" x="109.813532" xlink:href="#me0ae7c9fcb" y="153.063879"/>
     <use style="fill:#081d58;stroke:#081d58;stroke-linejoin:miter;" x="117.932602" xlink:href="#me0ae7c9fcb" y="148.402164"/>
     <use style="fill:#081d58;stroke:#081d58;stroke-linejoin:miter;" x="126.051672" xlink:href="#me0ae7c9fcb" y="143.501859"/>
     <use style="fill:#081d58;stroke:#081d58;stroke-linejoin:miter;" x="134.170742" xlink:href="#me0ae7c9fcb" y="143.37217"/>
     <use style="fill:#081d58;stroke:#081d58;stroke-linejoin:miter;" x="142.289812" xlink:href="#me0ae7c9fcb" y="148.832953"/>
     <use style="fill:#081d58;stroke:#081d58;stroke-linejoin:miter;" x="150.408882" xlink:href="#me0ae7c9fcb" y="163.36864"/>
     <use style="fill:#081d58;stroke:#081d58;stroke-linejoin:miter;" x="158.527952" xlink:href="#me0ae7c9fcb" y="185.348046"/>
     <use style="fill:#081d58;stroke:#081d58;stroke-linejoin:miter;" x="166.647022" xlink:href="#me0ae7c9fcb" y="221.709787"/>
     <use style="fill:#081d58;stroke:#081d58;stroke-linejoin:miter;" x="174.766092" xlink:href="#me0ae7c9fcb" y="241.149129"/>
     <use style="fill:#081d58;stroke:#081d58;stroke-linejoin:miter;" x="182.885162" xlink:href="#me0ae7c9fcb" y="169.962517"/>
     <use style="fill:#081d58;stroke:#081d58;stroke-linejoin:miter;" x="191.004232" xlink:href="#me0ae7c9fcb" y="112.00323"/>
     <use style="fill:#081d58;stroke:#081d58;stroke-linejoin:miter;" x="199.123302" xlink:href="#me0ae7c9fcb" y="89.328078"/>
     <use style="fill:#081d58;stroke:#081d58;stroke-linejoin:miter;" x="207.242372" xlink:href="#me0ae7c9fcb" y="73.302351"/>
     <use style="fill:#081d58;stroke:#081d58;stroke-linejoin:miter;" x="215.361442" xlink:href="#me0ae7c9fcb" y="69.060558"/>
     <use style="fill:#081d58;stroke:#081d58;stroke-linejoin:miter;" x="223.480512" xlink:href="#me0ae7c9fcb" y="64.262576"/>
     <use style="fill:#081d58;stroke:#081d58;stroke-linejoin:miter;" x="231.599582" xlink:href="#me0ae7c9fcb" y="62.502335"/>
     <use style="fill:#081d58;stroke:#081d58;stroke-linejoin:miter;" x="239.718652" xlink:href="#me0ae7c9fcb" y="60.728832"/>
     <use style="fill:#081d58;stroke:#081d58;stroke-linejoin:miter;" x="247.837722" xlink:href="#me0ae7c9fcb" y="58.717161"/>
     <use style="fill:#081d58;stroke:#081d58;stroke-linejoin:miter;" x="255.956792" xlink:href="#me0ae7c9fcb" y="56.511053"/>
     <use style="fill:#081d58;stroke:#081d58;stroke-linejoin:miter;" x="264.075862" xlink:href="#me0ae7c9fcb" y="54.105826"/>
     <use style="fill:#081d58;stroke:#081d58;stroke-linejoin:miter;" x="272.194932" xlink:href="#me0ae7c9fcb" y="52.269207"/>
     <use style="fill:#081d58;stroke:#081d58;stroke-linejoin:miter;" x="280.314002" xlink:href="#me0ae7c9fcb" y="51.550298"/>
     <use style="fill:#081d58;stroke:#081d58;stroke-linejoin:miter;" x="288.433072" xlink:href="#me0ae7c9fcb" y="51.086591"/>
     <use style="fill:#081d58;stroke:#081d58;stroke-linejoin:miter;" x="296.552142" xlink:href="#me0ae7c9fcb" y="51.194756"/>
     <use style="fill:#081d58;stroke:#081d58;stroke-linejoin:miter;" x="304.671212" xlink:href="#me0ae7c9fcb" y="51.803079"/>
     <use style="fill:#081d58;stroke:#081d58;stroke-linejoin:miter;" x="312.790282" xlink:href="#me0ae7c9fcb" y="52.743053"/>
     <use style="fill:#081d58;stroke:#081d58;stroke-linejoin:miter;" x="320.909352" xlink:href="#me0ae7c9fcb" y="53.445367"/>
     <use style="fill:#081d58;stroke:#081d58;stroke-linejoin:miter;" x="329.028422" xlink:href="#me0ae7c9fcb" y="54.320541"/>
     <use style="fill:#081d58;stroke:#081d58;stroke-linejoin:miter;" x="337.147492" xlink:href="#me0ae7c9fcb" y="55.438216"/>
     <use style="fill:#081d58;stroke:#081d58;stroke-linejoin:miter;" x="345.266562" xlink:href="#me0ae7c9fcb" y="57.090327"/>
     <use style="fill:#081d58;stroke:#081d58;stroke-linejoin:miter;" x="353.385632" xlink:href="#me0ae7c9fcb" y="59.043671"/>
     <use style="fill:#081d58;stroke:#081d58;stroke-linejoin:miter;" x="361.504702" xlink:href="#me0ae7c9fcb" y="61.020066"/>
     <use style="fill:#081d58;stroke:#081d58;stroke-linejoin:miter;" x="369.623772" xlink:href="#me0ae7c9fcb" y="60.387043"/>
    </g>
   </g>
   <g id="patch_3">
    <path d="M 54 252 
L 54 34.56 
" style="fill:none;stroke:#000000;stroke-linecap:square;stroke-linejoin:miter;stroke-width:0.8;"/>
   </g>
   <g id="patch_4">
    <path d="M 388.8 252 
L 388.8 34.56 
" style="fill:none;stroke:#000000;stroke-linecap:square;stroke-linejoin:miter;stroke-width:0.8;"/>
   </g>
   <g id="patch_5">
    <path d="M 54 252 
L 388.8 252 
" style="fill:none;stroke:#000000;stroke-linecap:square;stroke-linejoin:miter;stroke-width:0.8;"/>
   </g>
   <g id="patch_6">
    <path d="M 54 34.56 
L 388.8 34.56 
" style="fill:none;stroke:#000000;stroke-linecap:square;stroke-linejoin:miter;stroke-width:0.8;"/>
   </g>
   <g id="legend_1">
    <g id="patch_7">
     <path d="M 61 247 
L 162.714063 247 
Q 164.714063 247 164.714063 245 
L 164.714063 216.64375 
Q 164.714063 214.64375 162.714063 214.64375 
L 61 214.64375 
Q 59 214.64375 59 216.64375 
L 59 245 
Q 59 247 61 247 
z
" style="fill:#ffffff;opacity:0.8;stroke:#cccccc;stroke-linejoin:miter;"/>
    </g>
    <g id="line2d_16">
     <path d="M 63 222.742188 
L 83 222.742188 
" style="fill:none;stroke:#40b5c4;stroke-dasharray:5.55,2.4;stroke-dashoffset:0;stroke-width:1.5;"/>
    </g>
    <g id="line2d_17">
     <g>
      <use style="fill:#40b5c4;stroke:#40b5c4;" x="73" xlink:href="#m3ac9a1e1d1" y="222.742188"/>
     </g>
    </g>
    <g id="text_16">
     <text style="font-family:DejaVu Sans;font-size:10px;font-style:normal;font-weight:normal;text-anchor:start;" transform="rotate(-0, 91, 226.242188)" x="91" y="226.242188">original</text>
    </g>
    <g id="line2d_18">
     <path d="M 63 237.420312 
L 83 237.420312 
" style="fill:none;stroke:#081d58;stroke-dasharray:5.55,2.4;stroke-dashoffset:0;stroke-width:1.5;"/>
    </g>
    <g id="line2d_19">
     <g>
      <use style="fill:#081d58;stroke:#081d58;stroke-linejoin:miter;" x="73" xlink:href="#me0ae7c9fcb" y="237.420312"/>
     </g>
    </g>
    <g id="text_17">
     <text style="font-family:DejaVu Sans;font-size:10px;font-style:normal;font-weight:normal;text-anchor:start;" transform="rotate(-0, 91, 240.920312)" x="91" y="240.920312">reconstructed</text>
    </g>
   </g>
  </g>
  <g id="text_18">
   <text style="font-family:DejaVu Sans;font-size:12px;font-style:normal;font-weight:normal;text-anchor:middle;" transform="rotate(-0, 216, 14.878125)" x="216" y="14.878125">Reconstruction of the temperature curve</text>
  </g>
 </g>
 <defs>
  <clipPath id="p13f23954c4">
   <rect height="217.44" width="334.8" x="54" y="34.56"/>
  </clipPath>
 </defs>
</svg>
