<?xml version="1.0" encoding="utf-8" standalone="no"?>
<!DOCTYPE svg PUBLIC "-//W3C//DTD SVG 1.1//EN"
  "http://www.w3.org/Graphics/SVG/1.1/DTD/svg11.dtd">
<!-- Created with matplotlib (https://matplotlib.org/) -->
<svg height="288pt" version="1.1" viewBox="0 0 432 288" width="432pt" xmlns="http://www.w3.org/2000/svg" xmlns:xlink="http://www.w3.org/1999/xlink">
 <defs>
  <style type="text/css">
*{stroke-linecap:butt;stroke-linejoin:round;}
  </style>
 </defs>
 <g id="figure_1">
  <g id="patch_1">
   <path d="M 0 288 
L 432 288 
L 432 0 
L 0 0 
z
" style="fill:#ffffff;"/>
  </g>
  <g id="axes_1">
   <g id="patch_2">
    <path d="M 54 252 
L 388.8 252 
L 388.8 34.56 
L 54 34.56 
z
" style="fill:#ffffff;"/>
   </g>
   <g id="matplotlib.axis_1">
    <g id="xtick_1">
     <g id="line2d_1">
      <defs>
       <path d="M 0 0 
L 0 3.5 
" id="mca47a3c175" style="stroke:#000000;stroke-width:0.8;"/>
      </defs>
      <g>
       <use style="stroke:#000000;stroke-width:0.8;" x="69.218182" xlink:href="#mca47a3c175" y="252"/>
      </g>
     </g>
     <g id="text_1">
      <text style="font-family:DejaVu Sans;font-size:10px;font-style:normal;font-weight:normal;text-anchor:middle;" transform="rotate(-0, 69.218182, 266.598437)" x="69.218182" y="266.598437">0</text>
     </g>
    </g>
    <g id="xtick_2">
     <g id="line2d_2">
      <g>
       <use style="stroke:#000000;stroke-width:0.8;" x="119.962369" xlink:href="#mca47a3c175" y="252"/>
      </g>
     </g>
     <g id="text_2">
      <text style="font-family:DejaVu Sans;font-size:10px;font-style:normal;font-weight:normal;text-anchor:middle;" transform="rotate(-0, 119.962369, 266.598437)" x="119.962369" y="266.598437">500</text>
     </g>
    </g>
    <g id="xtick_3">
     <g id="line2d_3">
      <g>
       <use style="stroke:#000000;stroke-width:0.8;" x="170.706557" xlink:href="#mca47a3c175" y="252"/>
      </g>
     </g>
     <g id="text_3">
      <text style="font-family:DejaVu Sans;font-size:10px;font-style:normal;font-weight:normal;text-anchor:middle;" transform="rotate(-0, 170.706557, 266.598437)" x="170.706557" y="266.598437">1000</text>
     </g>
    </g>
    <g id="xtick_4">
     <g id="line2d_4">
      <g>
       <use style="stroke:#000000;stroke-width:0.8;" x="221.450744" xlink:href="#mca47a3c175" y="252"/>
      </g>
     </g>
     <g id="text_4">
      <text style="font-family:DejaVu Sans;font-size:10px;font-style:normal;font-weight:normal;text-anchor:middle;" transform="rotate(-0, 221.450744, 266.598437)" x="221.450744" y="266.598437">1500</text>
     </g>
    </g>
    <g id="xtick_5">
     <g id="line2d_5">
      <g>
       <use style="stroke:#000000;stroke-width:0.8;" x="272.194932" xlink:href="#mca47a3c175" y="252"/>
      </g>
     </g>
     <g id="text_5">
      <text style="font-family:DejaVu Sans;font-size:10px;font-style:normal;font-weight:normal;text-anchor:middle;" transform="rotate(-0, 272.194932, 266.598437)" x="272.194932" y="266.598437">2000</text>
     </g>
    </g>
    <g id="xtick_6">
     <g id="line2d_6">
      <g>
       <use style="stroke:#000000;stroke-width:0.8;" x="322.939119" xlink:href="#mca47a3c175" y="252"/>
      </g>
     </g>
     <g id="text_6">
      <text style="font-family:DejaVu Sans;font-size:10px;font-style:normal;font-weight:normal;text-anchor:middle;" transform="rotate(-0, 322.939119, 266.598437)" x="322.939119" y="266.598437">2500</text>
     </g>
    </g>
    <g id="xtick_7">
     <g id="line2d_7">
      <g>
       <use style="stroke:#000000;stroke-width:0.8;" x="373.683307" xlink:href="#mca47a3c175" y="252"/>
      </g>
     </g>
     <g id="text_7">
      <text style="font-family:DejaVu Sans;font-size:10px;font-style:normal;font-weight:normal;text-anchor:middle;" transform="rotate(-0, 373.683307, 266.598437)" x="373.683307" y="266.598437">3000</text>
     </g>
    </g>
    <g id="text_8">
     <text style="font-family:DejaVu Sans;font-size:10px;font-style:normal;font-weight:normal;text-anchor:middle;" transform="rotate(-0, 221.4, 280.276563)" x="221.4" y="280.276563">Time</text>
    </g>
   </g>
   <g id="matplotlib.axis_2">
    <g id="ytick_1">
     <g id="line2d_8">
      <defs>
       <path d="M 0 0 
L -3.5 0 
" id="md8015f3514" style="stroke:#000000;stroke-width:0.8;"/>
      </defs>
      <g>
       <use style="stroke:#000000;stroke-width:0.8;" x="54" xlink:href="#md8015f3514" y="219.00951"/>
      </g>
     </g>
     <g id="text_9">
      <text style="font-family:DejaVu Sans;font-size:10px;font-style:normal;font-weight:normal;text-anchor:end;" transform="rotate(-0, 47, 222.808729)" x="47" y="222.808729">−10</text>
     </g>
    </g>
    <g id="ytick_2">
     <g id="line2d_9">
      <g>
       <use style="stroke:#000000;stroke-width:0.8;" x="54" xlink:href="#md8015f3514" y="185.092189"/>
      </g>
     </g>
     <g id="text_10">
      <text style="font-family:DejaVu Sans;font-size:10px;font-style:normal;font-weight:normal;text-anchor:end;" transform="rotate(-0, 47, 188.891407)" x="47" y="188.891407">−8</text>
     </g>
    </g>
    <g id="ytick_3">
     <g id="line2d_10">
      <g>
       <use style="stroke:#000000;stroke-width:0.8;" x="54" xlink:href="#md8015f3514" y="151.174867"/>
      </g>
     </g>
     <g id="text_11">
      <text style="font-family:DejaVu Sans;font-size:10px;font-style:normal;font-weight:normal;text-anchor:end;" transform="rotate(-0, 47, 154.974086)" x="47" y="154.974086">−6</text>
     </g>
    </g>
    <g id="ytick_4">
     <g id="line2d_11">
      <g>
       <use style="stroke:#000000;stroke-width:0.8;" x="54" xlink:href="#md8015f3514" y="117.257546"/>
      </g>
     </g>
     <g id="text_12">
      <text style="font-family:DejaVu Sans;font-size:10px;font-style:normal;font-weight:normal;text-anchor:end;" transform="rotate(-0, 47, 121.056764)" x="47" y="121.056764">−4</text>
     </g>
    </g>
    <g id="ytick_5">
     <g id="line2d_12">
      <g>
       <use style="stroke:#000000;stroke-width:0.8;" x="54" xlink:href="#md8015f3514" y="83.340224"/>
      </g>
     </g>
     <g id="text_13">
      <text style="font-family:DejaVu Sans;font-size:10px;font-style:normal;font-weight:normal;text-anchor:end;" transform="rotate(-0, 47, 87.139443)" x="47" y="87.139443">−2</text>
     </g>
    </g>
    <g id="ytick_6">
     <g id="line2d_13">
      <g>
       <use style="stroke:#000000;stroke-width:0.8;" x="54" xlink:href="#md8015f3514" y="49.422903"/>
      </g>
     </g>
     <g id="text_14">
      <text style="font-family:DejaVu Sans;font-size:10px;font-style:normal;font-weight:normal;text-anchor:end;" transform="rotate(-0, 47, 53.222121)" x="47" y="53.222121">0</text>
     </g>
    </g>
    <g id="text_15">
     <text style="font-family:DejaVu Sans;font-size:10px;font-style:normal;font-weight:normal;text-anchor:middle;" transform="rotate(-90, 19.815625, 143.28)" x="19.815625" y="143.28">temperature (°C)</text>
    </g>
   </g>
   <g id="line2d_14">
    <path clip-path="url(#p45a84e15c0)" d="M 69.218182 44.92639 
L 71.755391 44.510698 
L 72.871763 44.544807 
L 73.785159 44.818172 
L 74.597066 45.320387 
L 75.408973 46.114695 
L 76.22088 47.237908 
L 77.134275 48.919138 
L 78.149159 51.322683 
L 79.265531 54.593992 
L 80.483391 58.862186 
L 82.005717 65.095954 
L 83.933996 74.077014 
L 87.080136 90.040184 
L 90.936694 109.31533 
L 93.06795 118.86733 
L 94.996229 126.589422 
L 96.620043 132.235723 
L 98.142369 136.752035 
L 99.563206 140.330278 
L 100.781066 142.848843 
L 101.998927 144.865346 
L 103.115299 146.283345 
L 104.231671 147.328371 
L 105.246555 148.001206 
L 106.261439 148.405721 
L 107.276322 148.561198 
L 108.291206 148.5042 
L 109.509067 148.186073 
L 111.031392 147.515985 
L 112.655206 146.555158 
L 114.684974 145.089455 
L 121.281718 140.140867 
L 123.615951 138.732196 
L 125.848695 137.682675 
L 127.979951 136.921265 
L 129.806742 136.482053 
L 131.735021 136.255926 
L 133.561812 136.261675 
L 135.388602 136.506355 
L 137.113905 136.983114 
L 138.940695 137.703568 
L 140.564509 138.563254 
L 141.883858 139.488043 
L 143.304696 140.745545 
L 144.725533 142.303741 
L 146.14637 144.203603 
L 147.465719 146.334781 
L 148.785068 148.911378 
L 150.002928 151.759466 
L 151.322277 155.423826 
L 152.844603 159.710042 
L 154.569905 164.381865 
L 155.889254 168.30905 
L 157.310091 173.363714 
L 159.339859 181.522865 
L 161.674091 191.812329 
L 164.211301 203.988461 
L 166.241068 214.802846 
L 168.169347 226.334464 
L 169.488696 233.38401 
L 170.50358 237.749169 
L 171.315487 240.280589 
L 171.924417 241.524506 
L 172.330371 241.982221 
L 172.736324 242.116364 
L 173.040789 241.995957 
L 173.446743 241.527389 
L 173.852696 240.693871 
L 174.360138 239.124347 
L 174.969068 236.466247 
L 175.679487 232.331895 
L 176.592882 225.527402 
L 177.709255 215.263562 
L 179.434557 196.775587 
L 182.073255 168.754062 
L 183.798557 152.815261 
L 185.422371 139.815142 
L 187.046185 128.613845 
L 188.669999 119.010478 
L 190.293813 110.795821 
L 191.917627 103.766354 
L 193.541441 97.744554 
L 195.165255 92.571824 
L 196.789069 88.114274 
L 198.514371 84.00424 
L 200.341162 80.269486 
L 202.167953 77.04054 
L 204.096232 74.092565 
L 206.024511 71.546544 
L 208.054279 69.230788 
L 210.185535 67.145229 
L 212.418279 65.277592 
L 214.752511 63.614841 
L 217.188232 62.146104 
L 220.029907 60.697609 
L 223.074558 59.403402 
L 226.322186 58.248397 
L 231.802558 56.581789 
L 236.471024 55.139703 
L 247.127303 51.693087 
L 258.494001 48.377236 
L 262.452048 47.642058 
L 267.424978 46.966951 
L 280.111025 45.271263 
L 285.38842 44.68867 
L 289.14349 44.4848 
L 292.797072 44.461604 
L 296.450653 44.644385 
L 300.713165 45.069245 
L 305.686095 45.774281 
L 319.792979 48.095116 
L 333.290933 49.891135 
L 338.568329 50.9244 
L 351.964794 53.753629 
L 356.125818 54.334643 
L 361.200236 54.833775 
L 367.796981 55.194508 
L 373.581818 55.3245 
L 373.581818 55.3245 
" style="fill:none;stroke:#40b5c4;stroke-dasharray:5.55,2.4;stroke-dashoffset:0;stroke-width:1.5;"/>
    <defs>
     <path d="M 0 3 
C 0.795609 3 1.55874 2.683901 2.12132 2.12132 
C 2.683901 1.55874 3 0.795609 3 0 
C 3 -0.795609 2.683901 -1.55874 2.12132 -2.12132 
C 1.55874 -2.683901 0.795609 -3 0 -3 
C -0.795609 -3 -1.55874 -2.683901 -2.12132 -2.12132 
C -2.683901 -1.55874 -3 -0.795609 -3 0 
C -3 0.795609 -2.683901 1.55874 -2.12132 2.12132 
C -1.55874 2.683901 -0.795609 3 0 3 
z
" id="md2c35bed0c" style="stroke:#40b5c4;"/>
    </defs>
    <g clip-path="url(#p45a84e15c0)">
     <use style="fill:#40b5c4;stroke:#40b5c4;" x="69.218182" xlink:href="#md2c35bed0c" y="44.92639"/>
     <use style="fill:#40b5c4;stroke:#40b5c4;" x="77.337252" xlink:href="#md2c35bed0c" y="49.354392"/>
     <use style="fill:#40b5c4;stroke:#40b5c4;" x="85.456322" xlink:href="#md2c35bed0c" y="81.703612"/>
     <use style="fill:#40b5c4;stroke:#40b5c4;" x="93.575392" xlink:href="#md2c35bed0c" y="120.995574"/>
     <use style="fill:#40b5c4;stroke:#40b5c4;" x="101.694462" xlink:href="#md2c35bed0c" y="144.407242"/>
     <use style="fill:#40b5c4;stroke:#40b5c4;" x="109.813532" xlink:href="#md2c35bed0c" y="148.069652"/>
     <use style="fill:#40b5c4;stroke:#40b5c4;" x="117.932602" xlink:href="#md2c35bed0c" y="142.552456"/>
     <use style="fill:#40b5c4;stroke:#40b5c4;" x="126.051672" xlink:href="#md2c35bed0c" y="137.600375"/>
     <use style="fill:#40b5c4;stroke:#40b5c4;" x="134.170742" xlink:href="#md2c35bed0c" y="136.316197"/>
     <use style="fill:#40b5c4;stroke:#40b5c4;" x="142.289812" xlink:href="#md2c35bed0c" y="139.818229"/>
     <use style="fill:#40b5c4;stroke:#40b5c4;" x="150.408882" xlink:href="#md2c35bed0c" y="152.821723"/>
     <use style="fill:#40b5c4;stroke:#40b5c4;" x="158.527952" xlink:href="#md2c35bed0c" y="178.168968"/>
     <use style="fill:#40b5c4;stroke:#40b5c4;" x="166.647022" xlink:href="#md2c35bed0c" y="217.132763"/>
     <use style="fill:#40b5c4;stroke:#40b5c4;" x="174.766092" xlink:href="#md2c35bed0c" y="237.445948"/>
     <use style="fill:#40b5c4;stroke:#40b5c4;" x="182.885162" xlink:href="#md2c35bed0c" y="160.9795"/>
     <use style="fill:#40b5c4;stroke:#40b5c4;" x="191.004232" xlink:href="#md2c35bed0c" y="107.585004"/>
     <use style="fill:#40b5c4;stroke:#40b5c4;" x="199.123302" xlink:href="#md2c35bed0c" y="82.700035"/>
     <use style="fill:#40b5c4;stroke:#40b5c4;" x="207.242372" xlink:href="#md2c35bed0c" y="70.117743"/>
     <use style="fill:#40b5c4;stroke:#40b5c4;" x="215.361442" xlink:href="#md2c35bed0c" y="63.224303"/>
     <use style="fill:#40b5c4;stroke:#40b5c4;" x="223.480512" xlink:href="#md2c35bed0c" y="59.247447"/>
     <use style="fill:#40b5c4;stroke:#40b5c4;" x="231.599582" xlink:href="#md2c35bed0c" y="56.640407"/>
     <use style="fill:#40b5c4;stroke:#40b5c4;" x="239.718652" xlink:href="#md2c35bed0c" y="54.034695"/>
     <use style="fill:#40b5c4;stroke:#40b5c4;" x="247.837722" xlink:href="#md2c35bed0c" y="51.478343"/>
     <use style="fill:#40b5c4;stroke:#40b5c4;" x="255.956792" xlink:href="#md2c35bed0c" y="48.997907"/>
     <use style="fill:#40b5c4;stroke:#40b5c4;" x="264.075862" xlink:href="#md2c35bed0c" y="47.401697"/>
     <use style="fill:#40b5c4;stroke:#40b5c4;" x="272.194932" xlink:href="#md2c35bed0c" y="46.346463"/>
     <use style="fill:#40b5c4;stroke:#40b5c4;" x="280.314002" xlink:href="#md2c35bed0c" y="45.24494"/>
     <use style="fill:#40b5c4;stroke:#40b5c4;" x="288.433072" xlink:href="#md2c35bed0c" y="44.511844"/>
     <use style="fill:#40b5c4;stroke:#40b5c4;" x="296.552142" xlink:href="#md2c35bed0c" y="44.651875"/>
     <use style="fill:#40b5c4;stroke:#40b5c4;" x="304.671212" xlink:href="#md2c35bed0c" y="45.613258"/>
     <use style="fill:#40b5c4;stroke:#40b5c4;" x="312.790282" xlink:href="#md2c35bed0c" y="47.055692"/>
     <use style="fill:#40b5c4;stroke:#40b5c4;" x="320.909352" xlink:href="#md2c35bed0c" y="48.235474"/>
     <use style="fill:#40b5c4;stroke:#40b5c4;" x="329.028422" xlink:href="#md2c35bed0c" y="49.242647"/>
     <use style="fill:#40b5c4;stroke:#40b5c4;" x="337.147492" xlink:href="#md2c35bed0c" y="50.621492"/>
     <use style="fill:#40b5c4;stroke:#40b5c4;" x="345.266562" xlink:href="#md2c35bed0c" y="52.448808"/>
     <use style="fill:#40b5c4;stroke:#40b5c4;" x="353.385632" xlink:href="#md2c35bed0c" y="53.978046"/>
     <use style="fill:#40b5c4;stroke:#40b5c4;" x="361.504702" xlink:href="#md2c35bed0c" y="54.856186"/>
     <use style="fill:#40b5c4;stroke:#40b5c4;" x="369.623772" xlink:href="#md2c35bed0c" y="55.264022"/>
    </g>
   </g>
   <g id="line2d_15">
    <path clip-path="url(#p45a84e15c0)" d="M 69.218182 47.989255 
L 69.421159 48.094364 
L 69.624135 48.075603 
L 69.725624 47.731408 
L 69.827112 47.98505 
L 69.9286 47.813648 
L 70.131577 47.925841 
L 70.233066 47.735808 
L 70.334554 47.846658 
L 70.537531 47.580514 
L 70.639019 47.715316 
L 70.740507 47.534955 
L 70.841996 47.750994 
L 70.943484 47.452925 
L 71.349438 47.639141 
L 71.552414 47.498403 
L 71.755391 47.395349 
L 72.059856 47.397322 
L 72.161345 47.32553 
L 72.567298 47.55226 
L 72.770275 47.444483 
L 72.973252 47.43363 
L 73.176228 47.500312 
L 73.277717 47.341056 
L 73.480694 47.611502 
L 73.582182 47.568061 
L 73.68367 47.824759 
L 73.886647 47.751592 
L 73.988135 47.842161 
L 74.089624 47.714427 
L 74.191112 47.967664 
L 74.292601 47.920859 
L 74.394089 48.13533 
L 74.495577 48.007644 
L 74.698554 48.358696 
L 74.901531 48.869942 
L 75.003019 48.749453 
L 75.408973 49.246741 
L 75.713438 49.73803 
L 75.814926 49.741717 
L 76.119391 50.845285 
L 76.322368 50.848438 
L 76.82981 51.965995 
L 76.931298 51.872822 
L 77.235763 52.93007 
L 77.337252 53.347254 
L 77.43874 53.26406 
L 77.540229 53.761995 
L 77.641717 53.715158 
L 78.04767 54.9255 
L 78.453624 56.302505 
L 79.265531 58.58575 
L 79.569996 59.426506 
L 79.772973 60.072942 
L 80.280415 61.501102 
L 80.58488 62.524775 
L 83.020601 71.989011 
L 84.136973 76.997348 
L 84.745903 79.826708 
L 86.369717 87.784312 
L 86.674182 89.662617 
L 86.775671 89.875875 
L 88.500973 99.49141 
L 91.748601 115.841382 
L 92.053066 117.38118 
L 92.357531 118.794348 
L 93.169438 122.693927 
L 93.575392 124.297031 
L 94.28581 127.037439 
L 95.808136 132.460485 
L 95.909624 132.644664 
L 96.21409 133.928124 
L 96.315578 134.027087 
L 96.620043 135.177459 
L 97.634927 138.347957 
L 97.939392 139.076504 
L 98.446834 140.416181 
L 98.751299 140.948388 
L 99.157252 142.025124 
L 99.258741 142.021081 
L 99.563206 143.012989 
L 99.664694 143.055702 
L 100.375113 144.613166 
L 102.40488 148.7299 
L 102.607857 148.954818 
L 102.912322 149.672481 
L 103.318276 150.287784 
L 105.55102 153.791172 
L 105.956974 153.704484 
L 106.464415 153.433165 
L 106.565904 153.464541 
L 106.768881 153.318191 
L 107.580788 152.906086 
L 107.682276 152.947942 
L 107.986741 152.727859 
L 108.494183 152.521798 
L 108.798648 152.41166 
L 109.30609 152.241196 
L 109.509067 152.120755 
L 109.712043 152.056484 
L 110.016509 151.94937 
L 110.320974 151.78062 
L 110.422462 151.796631 
L 110.625439 151.649877 
L 112.147764 151.11366 
L 112.350741 151.013436 
L 113.162648 150.755136 
L 113.568602 150.571928 
L 113.67009 150.615514 
L 113.873067 150.479871 
L 114.887951 149.706978 
L 115.395392 149.149105 
L 115.902834 148.837046 
L 116.207299 148.412472 
L 116.410276 148.305827 
L 116.917718 147.892476 
L 118.135579 146.756676 
L 118.64302 146.298833 
L 119.048974 145.968256 
L 119.251951 145.760934 
L 119.454927 145.621943 
L 119.962369 145.153297 
L 120.266834 144.833491 
L 120.368323 144.877692 
L 120.672788 144.498887 
L 120.977253 144.442152 
L 121.078741 144.09013 
L 121.281718 144.155113 
L 121.78916 143.763952 
L 121.890648 143.608545 
L 121.992137 143.753876 
L 122.093625 143.355841 
L 122.195114 143.481765 
L 122.499579 143.322121 
L 122.601067 143.09924 
L 122.702555 143.173749 
L 122.905532 142.913266 
L 123.007021 143.029502 
L 123.108509 142.671059 
L 123.209997 142.782135 
L 123.920416 142.16887 
L 124.021904 142.318988 
L 124.123393 141.992212 
L 124.224881 142.024946 
L 124.529346 141.918511 
L 124.630835 141.697701 
L 124.732323 141.75353 
L 124.9353 141.488777 
L 125.036788 141.600339 
L 125.138276 141.264457 
L 125.239765 141.339872 
L 126.254649 140.718827 
L 126.559114 140.714558 
L 126.76209 140.572089 
L 126.863579 140.582747 
L 126.965067 140.4396 
L 127.066556 140.520886 
L 127.269532 140.399361 
L 127.573997 140.382978 
L 127.776974 140.256424 
L 128.081439 140.198266 
L 128.182928 140.027107 
L 128.385904 140.09065 
L 128.994835 139.857742 
L 129.197811 139.865311 
L 129.400788 139.898596 
L 129.502277 140.033527 
L 129.705253 139.957837 
L 130.009718 139.919637 
L 130.314184 139.904272 
L 130.51716 140.005985 
L 130.720137 139.982404 
L 131.329067 139.96725 
L 131.735021 140.054746 
L 132.039486 140.049037 
L 132.140974 140.115767 
L 132.242463 139.986528 
L 132.546928 140.274069 
L 132.648416 140.098575 
L 132.749905 140.23493 
L 132.851393 140.08279 
L 132.952881 140.207242 
L 133.05437 140.140366 
L 133.155858 140.285374 
L 133.257346 140.086656 
L 133.460323 140.259044 
L 133.561812 140.385485 
L 133.6633 140.265238 
L 133.764788 140.418737 
L 133.967765 140.308695 
L 135.084137 140.512718 
L 135.185626 140.756025 
L 135.287114 140.586241 
L 135.388602 140.755281 
L 135.490091 140.625347 
L 135.794556 140.820475 
L 135.896044 140.740613 
L 136.099021 140.888644 
L 136.403486 141.000335 
L 136.504974 140.94918 
L 136.80944 141.11704 
L 136.910928 141.036595 
L 137.215393 141.289428 
L 137.519858 141.352827 
L 138.331765 141.707227 
L 138.63623 141.838293 
L 138.737719 141.99674 
L 138.839207 141.774426 
L 139.042184 141.991387 
L 139.245161 142.132303 
L 139.752602 142.225071 
L 140.158556 142.960783 
L 140.970463 143.859276 
L 141.071951 144.208047 
L 141.17344 144.136498 
L 141.680882 144.871352 
L 141.78237 144.664321 
L 142.086835 145.409591 
L 142.188323 145.36573 
L 142.492789 145.758751 
L 142.594277 145.959814 
L 142.695765 145.842398 
L 143.101719 146.540976 
L 143.406184 146.825945 
L 144.015114 147.888837 
L 144.116603 147.852011 
L 144.624044 148.437588 
L 145.029998 149.152712 
L 145.232975 149.284538 
L 145.53744 149.784608 
L 145.638928 149.747863 
L 145.943393 150.459768 
L 146.044882 150.370768 
L 146.247858 150.542145 
L 146.450835 150.761072 
L 146.552324 150.662998 
L 146.653812 150.840279 
L 146.7553 150.768811 
L 147.059765 150.945703 
L 147.161254 151.006336 
L 147.465719 151.530585 
L 147.567207 151.522482 
L 147.973161 152.166525 
L 148.379114 152.684483 
L 148.480603 152.76458 
L 148.683579 153.198737 
L 148.988044 153.527066 
L 149.191021 153.859915 
L 149.29251 153.810417 
L 149.596975 154.517543 
L 149.90144 154.75388 
L 150.611858 155.868607 
L 151.423765 156.909139 
L 151.626742 157.251377 
L 152.032696 157.833744 
L 152.337161 158.216584 
L 152.540138 158.603807 
L 152.844603 158.966738 
L 154.163952 160.954308 
L 154.569905 162.430292 
L 154.671393 162.542063 
L 154.975859 163.58964 
L 155.077347 163.806407 
L 155.4833 165.262757 
L 157.107114 170.522124 
L 157.41158 171.602095 
L 157.513068 171.627697 
L 157.716045 172.49276 
L 158.02051 173.502475 
L 158.324975 174.641454 
L 158.426463 174.706267 
L 158.832417 176.328924 
L 159.948789 180.247029 
L 160.151766 181.007299 
L 160.354742 181.66496 
L 162.080045 187.564044 
L 162.181533 187.744955 
L 162.485998 188.783749 
L 162.688975 189.422649 
L 162.99344 190.378815 
L 163.906836 193.367609 
L 165.124696 198.80568 
L 165.632138 201.227917 
L 165.733626 201.396601 
L 167.052975 206.987767 
L 167.154464 207.096061 
L 167.560417 208.762143 
L 167.864882 209.743329 
L 168.676789 212.437499 
L 169.184231 213.897293 
L 169.387208 214.596001 
L 169.590185 214.924427 
L 169.89465 215.800811 
L 169.996138 215.975868 
L 170.300603 216.799464 
L 170.605068 217.391818 
L 170.808045 217.716783 
L 171.011022 218.15504 
L 171.11251 218.775696 
L 171.213999 218.734698 
L 171.416975 218.941826 
L 171.619952 219.44547 
L 171.72144 219.392973 
L 172.127394 220.333095 
L 172.228882 220.342427 
L 172.431859 220.665759 
L 173.142278 221.647446 
L 173.345254 221.747638 
L 173.446743 222.009754 
L 173.548231 221.678547 
L 173.751208 222.20637 
L 173.954185 222.362763 
L 174.055673 222.330223 
L 174.360138 222.743574 
L 174.461627 222.614933 
L 174.664603 222.912727 
L 174.766092 223.321598 
L 174.86758 223.059773 
L 175.172045 223.467948 
L 175.273534 223.717838 
L 175.375022 223.243628 
L 175.679487 224.106071 
L 175.882464 224.017103 
L 177.912231 215.721644 
L 178.419673 213.84486 
L 179.028603 209.796765 
L 180.449441 197.216307 
L 183.900045 168.470315 
L 185.219394 158.292266 
L 186.640232 147.041337 
L 188.974464 129.030168 
L 192.729534 110.601673 
L 194.86079 101.076869 
L 195.266743 100.238038 
L 197.702464 95.26499 
L 198.514371 93.451362 
L 200.645627 88.783159 
L 203.690279 82.450493 
L 204.096232 81.813437 
L 204.400697 81.090097 
L 205.009627 80.023017 
L 205.517069 79.044709 
L 208.155767 74.486791 
L 208.663209 74.214615 
L 208.866186 74.035854 
L 209.373628 73.729844 
L 210.287023 73.220863 
L 210.591488 73.016096 
L 210.692976 72.981421 
L 210.895953 72.863649 
L 212.215302 72.033001 
L 212.519767 71.873875 
L 213.636139 71.246086 
L 213.839116 71.144196 
L 215.665907 70.204364 
L 215.868884 70.104156 
L 216.782279 69.678773 
L 217.086744 69.449504 
L 218.304605 68.788221 
L 218.507581 68.695727 
L 219.116512 68.388148 
L 219.319488 68.243351 
L 220.029907 67.877565 
L 220.43586 67.622484 
L 222.059674 66.68317 
L 222.262651 66.622586 
L 222.668605 66.364723 
L 223.784977 65.68793 
L 226.72814 63.853859 
L 226.829628 63.845724 
L 227.235582 63.50237 
L 227.438558 63.428071 
L 227.641535 63.267344 
L 228.757907 62.514861 
L 228.960884 62.36615 
L 230.280233 61.469387 
L 230.787675 61.197777 
L 231.09214 60.904721 
L 231.396605 60.737799 
L 231.70107 60.49839 
L 231.802558 60.497258 
L 232.208512 60.160745 
L 232.512977 60.084635 
L 233.020419 60.047938 
L 233.832326 60.01776 
L 235.253163 59.450264 
L 235.963582 59.172605 
L 236.471024 58.945859 
L 236.978466 58.764381 
L 237.587396 58.53246 
L 237.790373 58.529775 
L 238.196326 58.406909 
L 238.703768 58.348718 
L 239.008233 58.220272 
L 239.82014 58.063992 
L 246.518373 56.667288 
L 247.837722 56.384453 
L 248.446652 56.243198 
L 249.157071 56.104628 
L 249.461536 56.019331 
L 249.664512 55.981648 
L 252.100233 55.436099 
L 252.404699 55.330392 
L 252.607675 55.295749 
L 255.652327 54.558356 
L 256.05828 54.430718 
L 262.756513 52.65398 
L 263.060978 52.566484 
L 264.380327 52.2001 
L 264.887769 52.014272 
L 265.293722 51.926679 
L 266.004141 51.722543 
L 266.308606 51.647111 
L 266.613071 51.554569 
L 267.120513 51.445369 
L 267.424978 51.304502 
L 268.236885 51.085098 
L 268.642839 50.959369 
L 268.744327 50.998346 
L 269.048792 50.855215 
L 272.194932 49.922904 
L 272.29642 49.992965 
L 272.600885 49.815353 
L 272.90535 49.743221 
L 273.717257 49.510362 
L 274.021722 49.430597 
L 275.44256 49.035845 
L 276.05149 48.867969 
L 276.152978 48.89763 
L 276.457443 48.732406 
L 276.863397 48.634689 
L 279.299118 48.029364 
L 279.502095 48.068115 
L 279.908048 48.015197 
L 280.516978 47.955809 
L 284.373537 47.74349 
L 284.678002 47.706745 
L 284.77949 47.742034 
L 284.982467 47.691024 
L 285.692886 47.689731 
L 285.997351 47.666862 
L 286.200327 47.642441 
L 286.606281 47.635357 
L 286.910746 47.640823 
L 288.839025 47.563516 
L 289.042002 47.5706 
L 289.752421 47.537801 
L 290.056886 47.545532 
L 290.767304 47.527968 
L 290.970281 47.537251 
L 294.522374 47.533661 
L 294.725351 47.581695 
L 295.029816 47.541068 
L 295.232793 47.572767 
L 295.334281 47.506878 
L 295.638746 47.615658 
L 295.943211 47.588423 
L 298.277444 47.693741 
L 298.581909 47.709268 
L 299.495304 47.793723 
L 300.205723 47.854631 
L 300.4087 47.856183 
L 303.656328 48.167935 
L 303.859305 48.149368 
L 304.569723 48.245695 
L 304.874188 48.272542 
L 305.077165 48.295379 
L 307.715863 48.565501 
L 307.91884 48.564207 
L 308.426281 48.64394 
L 309.339677 48.774974 
L 309.644142 48.790047 
L 309.948607 48.813304 
L 310.151584 48.843806 
L 310.862002 48.883301 
L 311.064979 48.926839 
L 313.297723 49.109012 
L 313.805165 49.173639 
L 314.414096 49.17406 
L 315.226003 49.292155 
L 315.428979 49.286365 
L 316.342375 49.374444 
L 316.951305 49.402391 
L 317.154282 49.417529 
L 318.575119 49.589286 
L 318.879584 49.604036 
L 319.184049 49.609212 
L 319.387026 49.637159 
L 319.894468 49.680632 
L 321.01084 49.778382 
L 321.213817 49.806943 
L 322.330189 49.896736 
L 322.533166 49.913523 
L 323.243584 49.972976 
L 323.446561 49.993968 
L 324.15698 50.060666 
L 324.359956 50.082596 
L 325.171863 50.147741 
L 327.201631 50.365495 
L 327.404608 50.381183 
L 327.810561 50.365301 
L 327.912049 50.482071 
L 328.216515 50.41327 
L 328.52098 50.452053 
L 329.73884 50.667705 
L 329.941817 50.614754 
L 330.246282 50.673398 
L 330.550747 50.695813 
L 330.855212 50.741486 
L 331.464143 50.790878 
L 331.667119 50.819958 
L 333.899864 51.091374 
L 334.10284 51.093994 
L 334.711771 51.177479 
L 335.726654 51.307413 
L 335.929631 51.34377 
L 336.437073 51.405001 
L 336.843026 51.449768 
L 338.263864 51.673862 
L 339.177259 51.817737 
L 339.684701 51.8659 
L 340.496608 52.006929 
L 355.618376 54.789307 
L 355.922841 54.816833 
L 358.967492 55.262303 
L 359.170469 55.288439 
L 359.779399 55.3312 
L 360.083864 55.399839 
L 360.692795 55.452498 
L 362.21512 55.620407 
L 362.621074 55.619145 
L 363.635957 55.714404 
L 364.447864 55.775603 
L 367.086562 55.879369 
L 367.289539 55.844921 
L 367.898469 55.837028 
L 368.710376 55.815486 
L 368.913353 55.857795 
L 369.014841 55.778385 
L 369.11633 55.9308 
L 369.319306 55.820629 
L 369.420795 55.914174 
L 369.522283 55.823184 
L 369.72526 55.834764 
L 370.33419 55.799345 
L 370.435679 55.936072 
L 370.537167 55.809275 
L 370.740144 55.864975 
L 370.841632 55.797372 
L 370.94312 55.929538 
L 371.146097 55.862808 
L 371.247586 55.945226 
L 371.349074 55.880696 
L 371.552051 55.933873 
L 371.653539 55.889882 
L 371.755027 56.015223 
L 371.958004 55.978737 
L 372.363958 56.007783 
L 373.074376 56.168867 
L 373.277353 56.166991 
L 373.48033 56.104789 
L 373.581818 56.23288 
L 373.581818 56.23288 
" style="fill:none;stroke:#081d58;stroke-dasharray:5.55,2.4;stroke-dashoffset:0;stroke-width:1.5;"/>
    <defs>
     <path d="M -0 4.242641 
L 4.242641 0 
L 0 -4.242641 
L -4.242641 -0 
z
" id="ma29ba1ae15" style="stroke:#081d58;stroke-linejoin:miter;"/>
    </defs>
    <g clip-path="url(#p45a84e15c0)">
     <use style="fill:#081d58;stroke:#081d58;stroke-linejoin:miter;" x="69.218182" xlink:href="#ma29ba1ae15" y="47.989255"/>
     <use style="fill:#081d58;stroke:#081d58;stroke-linejoin:miter;" x="77.337252" xlink:href="#ma29ba1ae15" y="53.347254"/>
     <use style="fill:#081d58;stroke:#081d58;stroke-linejoin:miter;" x="85.456322" xlink:href="#ma29ba1ae15" y="83.478677"/>
     <use style="fill:#081d58;stroke:#081d58;stroke-linejoin:miter;" x="93.575392" xlink:href="#ma29ba1ae15" y="124.297031"/>
     <use style="fill:#081d58;stroke:#081d58;stroke-linejoin:miter;" x="101.694462" xlink:href="#ma29ba1ae15" y="147.271496"/>
     <use style="fill:#081d58;stroke:#081d58;stroke-linejoin:miter;" x="109.813532" xlink:href="#ma29ba1ae15" y="152.046246"/>
     <use style="fill:#081d58;stroke:#081d58;stroke-linejoin:miter;" x="117.932602" xlink:href="#ma29ba1ae15" y="146.932655"/>
     <use style="fill:#081d58;stroke:#081d58;stroke-linejoin:miter;" x="126.051672" xlink:href="#ma29ba1ae15" y="140.866439"/>
     <use style="fill:#081d58;stroke:#081d58;stroke-linejoin:miter;" x="134.170742" xlink:href="#ma29ba1ae15" y="140.377722"/>
     <use style="fill:#081d58;stroke:#081d58;stroke-linejoin:miter;" x="142.289812" xlink:href="#ma29ba1ae15" y="145.461361"/>
     <use style="fill:#081d58;stroke:#081d58;stroke-linejoin:miter;" x="150.408882" xlink:href="#ma29ba1ae15" y="155.516714"/>
     <use style="fill:#081d58;stroke:#081d58;stroke-linejoin:miter;" x="158.527952" xlink:href="#ma29ba1ae15" y="175.22192"/>
     <use style="fill:#081d58;stroke:#081d58;stroke-linejoin:miter;" x="166.647022" xlink:href="#ma29ba1ae15" y="205.267731"/>
     <use style="fill:#081d58;stroke:#081d58;stroke-linejoin:miter;" x="174.766092" xlink:href="#ma29ba1ae15" y="223.321598"/>
     <use style="fill:#081d58;stroke:#081d58;stroke-linejoin:miter;" x="182.885162" xlink:href="#ma29ba1ae15" y="176.663763"/>
     <use style="fill:#081d58;stroke:#081d58;stroke-linejoin:miter;" x="191.004232" xlink:href="#ma29ba1ae15" y="118.748902"/>
     <use style="fill:#081d58;stroke:#081d58;stroke-linejoin:miter;" x="199.123302" xlink:href="#ma29ba1ae15" y="92.147701"/>
     <use style="fill:#081d58;stroke:#081d58;stroke-linejoin:miter;" x="207.242372" xlink:href="#ma29ba1ae15" y="75.8391"/>
     <use style="fill:#081d58;stroke:#081d58;stroke-linejoin:miter;" x="215.361442" xlink:href="#ma29ba1ae15" y="70.364769"/>
     <use style="fill:#081d58;stroke:#081d58;stroke-linejoin:miter;" x="223.480512" xlink:href="#ma29ba1ae15" y="65.941184"/>
     <use style="fill:#081d58;stroke:#081d58;stroke-linejoin:miter;" x="231.599582" xlink:href="#ma29ba1ae15" y="60.573012"/>
     <use style="fill:#081d58;stroke:#081d58;stroke-linejoin:miter;" x="239.718652" xlink:href="#ma29ba1ae15" y="58.116603"/>
     <use style="fill:#081d58;stroke:#081d58;stroke-linejoin:miter;" x="247.837722" xlink:href="#ma29ba1ae15" y="56.384453"/>
     <use style="fill:#081d58;stroke:#081d58;stroke-linejoin:miter;" x="255.956792" xlink:href="#ma29ba1ae15" y="54.478105"/>
     <use style="fill:#081d58;stroke:#081d58;stroke-linejoin:miter;" x="264.075862" xlink:href="#ma29ba1ae15" y="52.260458"/>
     <use style="fill:#081d58;stroke:#081d58;stroke-linejoin:miter;" x="272.194932" xlink:href="#ma29ba1ae15" y="49.922904"/>
     <use style="fill:#081d58;stroke:#081d58;stroke-linejoin:miter;" x="280.314002" xlink:href="#ma29ba1ae15" y="47.995724"/>
     <use style="fill:#081d58;stroke:#081d58;stroke-linejoin:miter;" x="288.433072" xlink:href="#ma29ba1ae15" y="47.568045"/>
     <use style="fill:#081d58;stroke:#081d58;stroke-linejoin:miter;" x="296.552142" xlink:href="#ma29ba1ae15" y="47.667671"/>
     <use style="fill:#081d58;stroke:#081d58;stroke-linejoin:miter;" x="304.671212" xlink:href="#ma29ba1ae15" y="48.228681"/>
     <use style="fill:#081d58;stroke:#081d58;stroke-linejoin:miter;" x="312.790282" xlink:href="#ma29ba1ae15" y="49.095135"/>
     <use style="fill:#081d58;stroke:#081d58;stroke-linejoin:miter;" x="320.909352" xlink:href="#ma29ba1ae15" y="49.74293"/>
     <use style="fill:#081d58;stroke:#081d58;stroke-linejoin:miter;" x="329.028422" xlink:href="#ma29ba1ae15" y="50.549641"/>
     <use style="fill:#081d58;stroke:#081d58;stroke-linejoin:miter;" x="337.147492" xlink:href="#ma29ba1ae15" y="51.46345"/>
     <use style="fill:#081d58;stroke:#081d58;stroke-linejoin:miter;" x="345.266562" xlink:href="#ma29ba1ae15" y="52.857987"/>
     <use style="fill:#081d58;stroke:#081d58;stroke-linejoin:miter;" x="353.385632" xlink:href="#ma29ba1ae15" y="54.384301"/>
     <use style="fill:#081d58;stroke:#081d58;stroke-linejoin:miter;" x="361.504702" xlink:href="#ma29ba1ae15" y="55.515832"/>
     <use style="fill:#081d58;stroke:#081d58;stroke-linejoin:miter;" x="369.623772" xlink:href="#ma29ba1ae15" y="55.888879"/>
    </g>
   </g>
   <g id="patch_3">
    <path d="M 54 252 
L 54 34.56 
" style="fill:none;stroke:#000000;stroke-linecap:square;stroke-linejoin:miter;stroke-width:0.8;"/>
   </g>
   <g id="patch_4">
    <path d="M 388.8 252 
L 388.8 34.56 
" style="fill:none;stroke:#000000;stroke-linecap:square;stroke-linejoin:miter;stroke-width:0.8;"/>
   </g>
   <g id="patch_5">
    <path d="M 54 252 
L 388.8 252 
" style="fill:none;stroke:#000000;stroke-linecap:square;stroke-linejoin:miter;stroke-width:0.8;"/>
   </g>
   <g id="patch_6">
    <path d="M 54 34.56 
L 388.8 34.56 
" style="fill:none;stroke:#000000;stroke-linecap:square;stroke-linejoin:miter;stroke-width:0.8;"/>
   </g>
   <g id="legend_1">
    <g id="patch_7">
     <path d="M 61 247 
L 162.714063 247 
Q 164.714063 247 164.714063 245 
L 164.714063 216.64375 
Q 164.714063 214.64375 162.714063 214.64375 
L 61 214.64375 
Q 59 214.64375 59 216.64375 
L 59 245 
Q 59 247 61 247 
z
" style="fill:#ffffff;opacity:0.8;stroke:#cccccc;stroke-linejoin:miter;"/>
    </g>
    <g id="line2d_16">
     <path d="M 63 222.742188 
L 83 222.742188 
" style="fill:none;stroke:#40b5c4;stroke-dasharray:5.55,2.4;stroke-dashoffset:0;stroke-width:1.5;"/>
    </g>
    <g id="line2d_17">
     <g>
      <use style="fill:#40b5c4;stroke:#40b5c4;" x="73" xlink:href="#md2c35bed0c" y="222.742188"/>
     </g>
    </g>
    <g id="text_16">
     <text style="font-family:DejaVu Sans;font-size:10px;font-style:normal;font-weight:normal;text-anchor:start;" transform="rotate(-0, 91, 226.242188)" x="91" y="226.242188">original</text>
    </g>
    <g id="line2d_18">
     <path d="M 63 237.420312 
L 83 237.420312 
" style="fill:none;stroke:#081d58;stroke-dasharray:5.55,2.4;stroke-dashoffset:0;stroke-width:1.5;"/>
    </g>
    <g id="line2d_19">
     <g>
      <use style="fill:#081d58;stroke:#081d58;stroke-linejoin:miter;" x="73" xlink:href="#ma29ba1ae15" y="237.420312"/>
     </g>
    </g>
    <g id="text_17">
     <text style="font-family:DejaVu Sans;font-size:10px;font-style:normal;font-weight:normal;text-anchor:start;" transform="rotate(-0, 91, 240.920312)" x="91" y="240.920312">reconstructed</text>
    </g>
   </g>
  </g>
  <g id="text_18">
   <text style="font-family:DejaVu Sans;font-size:12px;font-style:normal;font-weight:normal;text-anchor:middle;" transform="rotate(-0, 216, 14.878125)" x="216" y="14.878125">Reconstruction of the temperature curve</text>
  </g>
 </g>
 <defs>
  <clipPath id="p45a84e15c0">
   <rect height="217.44" width="334.8" x="54" y="34.56"/>
  </clipPath>
 </defs>
</svg>
