<?xml version="1.0" encoding="utf-8" standalone="no"?>
<!DOCTYPE svg PUBLIC "-//W3C//DTD SVG 1.1//EN"
  "http://www.w3.org/Graphics/SVG/1.1/DTD/svg11.dtd">
<!-- Created with matplotlib (https://matplotlib.org/) -->
<svg height="288pt" version="1.1" viewBox="0 0 432 288" width="432pt" xmlns="http://www.w3.org/2000/svg" xmlns:xlink="http://www.w3.org/1999/xlink">
 <defs>
  <style type="text/css">
*{stroke-linecap:butt;stroke-linejoin:round;}
  </style>
 </defs>
 <g id="figure_1">
  <g id="patch_1">
   <path d="M 0 288 
L 432 288 
L 432 0 
L 0 0 
z
" style="fill:#ffffff;"/>
  </g>
  <g id="axes_1">
   <g id="patch_2">
    <path d="M 54 252 
L 388.8 252 
L 388.8 34.56 
L 54 34.56 
z
" style="fill:#ffffff;"/>
   </g>
   <g id="matplotlib.axis_1">
    <g id="xtick_1">
     <g id="line2d_1">
      <defs>
       <path d="M 0 0 
L 0 3.5 
" id="m1b369b607f" style="stroke:#000000;stroke-width:0.8;"/>
      </defs>
      <g>
       <use style="stroke:#000000;stroke-width:0.8;" x="69.218182" xlink:href="#m1b369b607f" y="252"/>
      </g>
     </g>
     <g id="text_1">
      <text style="font-family:DejaVu Sans;font-size:10px;font-style:normal;font-weight:normal;text-anchor:middle;" transform="rotate(-0, 69.218182, 266.598437)" x="69.218182" y="266.598437">0</text>
     </g>
    </g>
    <g id="xtick_2">
     <g id="line2d_2">
      <g>
       <use style="stroke:#000000;stroke-width:0.8;" x="119.962369" xlink:href="#m1b369b607f" y="252"/>
      </g>
     </g>
     <g id="text_2">
      <text style="font-family:DejaVu Sans;font-size:10px;font-style:normal;font-weight:normal;text-anchor:middle;" transform="rotate(-0, 119.962369, 266.598437)" x="119.962369" y="266.598437">500</text>
     </g>
    </g>
    <g id="xtick_3">
     <g id="line2d_3">
      <g>
       <use style="stroke:#000000;stroke-width:0.8;" x="170.706557" xlink:href="#m1b369b607f" y="252"/>
      </g>
     </g>
     <g id="text_3">
      <text style="font-family:DejaVu Sans;font-size:10px;font-style:normal;font-weight:normal;text-anchor:middle;" transform="rotate(-0, 170.706557, 266.598437)" x="170.706557" y="266.598437">1000</text>
     </g>
    </g>
    <g id="xtick_4">
     <g id="line2d_4">
      <g>
       <use style="stroke:#000000;stroke-width:0.8;" x="221.450744" xlink:href="#m1b369b607f" y="252"/>
      </g>
     </g>
     <g id="text_4">
      <text style="font-family:DejaVu Sans;font-size:10px;font-style:normal;font-weight:normal;text-anchor:middle;" transform="rotate(-0, 221.450744, 266.598437)" x="221.450744" y="266.598437">1500</text>
     </g>
    </g>
    <g id="xtick_5">
     <g id="line2d_5">
      <g>
       <use style="stroke:#000000;stroke-width:0.8;" x="272.194932" xlink:href="#m1b369b607f" y="252"/>
      </g>
     </g>
     <g id="text_5">
      <text style="font-family:DejaVu Sans;font-size:10px;font-style:normal;font-weight:normal;text-anchor:middle;" transform="rotate(-0, 272.194932, 266.598437)" x="272.194932" y="266.598437">2000</text>
     </g>
    </g>
    <g id="xtick_6">
     <g id="line2d_6">
      <g>
       <use style="stroke:#000000;stroke-width:0.8;" x="322.939119" xlink:href="#m1b369b607f" y="252"/>
      </g>
     </g>
     <g id="text_6">
      <text style="font-family:DejaVu Sans;font-size:10px;font-style:normal;font-weight:normal;text-anchor:middle;" transform="rotate(-0, 322.939119, 266.598437)" x="322.939119" y="266.598437">2500</text>
     </g>
    </g>
    <g id="xtick_7">
     <g id="line2d_7">
      <g>
       <use style="stroke:#000000;stroke-width:0.8;" x="373.683307" xlink:href="#m1b369b607f" y="252"/>
      </g>
     </g>
     <g id="text_7">
      <text style="font-family:DejaVu Sans;font-size:10px;font-style:normal;font-weight:normal;text-anchor:middle;" transform="rotate(-0, 373.683307, 266.598437)" x="373.683307" y="266.598437">3000</text>
     </g>
    </g>
    <g id="text_8">
     <text style="font-family:DejaVu Sans;font-size:10px;font-style:normal;font-weight:normal;text-anchor:middle;" transform="rotate(-0, 221.4, 280.276563)" x="221.4" y="280.276563">Time</text>
    </g>
   </g>
   <g id="matplotlib.axis_2">
    <g id="ytick_1">
     <g id="line2d_8">
      <defs>
       <path d="M 0 0 
L -3.5 0 
" id="m94a2fcb255" style="stroke:#000000;stroke-width:0.8;"/>
      </defs>
      <g>
       <use style="stroke:#000000;stroke-width:0.8;" x="54" xlink:href="#m94a2fcb255" y="237.166688"/>
      </g>
     </g>
     <g id="text_9">
      <text style="font-family:DejaVu Sans;font-size:10px;font-style:normal;font-weight:normal;text-anchor:end;" transform="rotate(-0, 47, 240.965906)" x="47" y="240.965906">−10</text>
     </g>
    </g>
    <g id="ytick_2">
     <g id="line2d_9">
      <g>
       <use style="stroke:#000000;stroke-width:0.8;" x="54" xlink:href="#m94a2fcb255" y="203.607184"/>
      </g>
     </g>
     <g id="text_10">
      <text style="font-family:DejaVu Sans;font-size:10px;font-style:normal;font-weight:normal;text-anchor:end;" transform="rotate(-0, 47, 207.406403)" x="47" y="207.406403">−8</text>
     </g>
    </g>
    <g id="ytick_3">
     <g id="line2d_10">
      <g>
       <use style="stroke:#000000;stroke-width:0.8;" x="54" xlink:href="#m94a2fcb255" y="170.04768"/>
      </g>
     </g>
     <g id="text_11">
      <text style="font-family:DejaVu Sans;font-size:10px;font-style:normal;font-weight:normal;text-anchor:end;" transform="rotate(-0, 47, 173.846899)" x="47" y="173.846899">−6</text>
     </g>
    </g>
    <g id="ytick_4">
     <g id="line2d_11">
      <g>
       <use style="stroke:#000000;stroke-width:0.8;" x="54" xlink:href="#m94a2fcb255" y="136.488177"/>
      </g>
     </g>
     <g id="text_12">
      <text style="font-family:DejaVu Sans;font-size:10px;font-style:normal;font-weight:normal;text-anchor:end;" transform="rotate(-0, 47, 140.287395)" x="47" y="140.287395">−4</text>
     </g>
    </g>
    <g id="ytick_5">
     <g id="line2d_12">
      <g>
       <use style="stroke:#000000;stroke-width:0.8;" x="54" xlink:href="#m94a2fcb255" y="102.928673"/>
      </g>
     </g>
     <g id="text_13">
      <text style="font-family:DejaVu Sans;font-size:10px;font-style:normal;font-weight:normal;text-anchor:end;" transform="rotate(-0, 47, 106.727892)" x="47" y="106.727892">−2</text>
     </g>
    </g>
    <g id="ytick_6">
     <g id="line2d_13">
      <g>
       <use style="stroke:#000000;stroke-width:0.8;" x="54" xlink:href="#m94a2fcb255" y="69.369169"/>
      </g>
     </g>
     <g id="text_14">
      <text style="font-family:DejaVu Sans;font-size:10px;font-style:normal;font-weight:normal;text-anchor:end;" transform="rotate(-0, 47, 73.168388)" x="47" y="73.168388">0</text>
     </g>
    </g>
    <g id="ytick_7">
     <g id="line2d_14">
      <g>
       <use style="stroke:#000000;stroke-width:0.8;" x="54" xlink:href="#m94a2fcb255" y="35.809665"/>
      </g>
     </g>
     <g id="text_15">
      <text style="font-family:DejaVu Sans;font-size:10px;font-style:normal;font-weight:normal;text-anchor:end;" transform="rotate(-0, 47, 39.608884)" x="47" y="39.608884">2</text>
     </g>
    </g>
    <g id="text_16">
     <text style="font-family:DejaVu Sans;font-size:10px;font-style:normal;font-weight:normal;text-anchor:middle;" transform="rotate(-90, 19.815625, 143.28)" x="19.815625" y="143.28">temperature (°C)</text>
    </g>
   </g>
   <g id="line2d_15">
    <path clip-path="url(#p0c6510ae4a)" d="M 69.218182 66.117168 
L 72.161345 65.3012 
L 73.277717 65.21661 
L 74.191112 65.362403 
L 75.003019 65.733574 
L 75.814926 66.356474 
L 76.626833 67.262079 
L 77.540229 68.642063 
L 78.555112 70.614956 
L 79.671484 73.305503 
L 80.990833 77.126965 
L 82.513159 82.267459 
L 84.441438 89.637364 
L 87.587578 102.692884 
L 91.342648 118.110489 
L 93.575392 126.406566 
L 95.402183 132.470366 
L 97.127485 137.423648 
L 98.649811 141.142242 
L 100.070648 144.046045 
L 101.288508 146.064012 
L 102.506369 147.659431 
L 103.622741 148.765418 
L 104.739113 149.589656 
L 105.753997 150.086655 
L 106.768881 150.354695 
L 107.885253 150.419297 
L 109.001625 150.272407 
L 110.422462 149.836066 
L 112.046276 149.098731 
L 113.974555 147.918476 
L 116.511765 146.094618 
L 123.615951 140.97322 
L 126.457625 139.296771 
L 129.096323 137.975131 
L 131.430556 137.061742 
L 133.6633 136.400955 
L 135.896044 135.959564 
L 138.737719 135.643937 
L 140.970463 135.615059 
L 142.797254 135.838028 
L 144.421068 136.262908 
L 145.943393 136.895941 
L 147.668696 137.877406 
L 148.785068 138.772706 
L 149.90144 139.960796 
L 151.017812 141.476965 
L 152.438649 143.824636 
L 154.062463 146.673117 
L 155.889254 150.511787 
L 161.877068 164.279909 
L 163.297905 168.167761 
L 164.718743 172.651898 
L 166.444045 178.936284 
L 169.691673 191.056433 
L 170.605068 193.562187 
L 171.213999 194.722456 
L 171.72144 195.283991 
L 172.127394 195.445781 
L 172.431859 195.350506 
L 172.736324 195.042228 
L 173.142278 194.246968 
L 173.64972 192.659554 
L 174.25865 189.899687 
L 174.969068 185.587257 
L 175.882464 178.60089 
L 177.303301 165.754346 
L 180.550929 136.046131 
L 182.174743 123.460511 
L 183.59558 114.060461 
L 185.016418 106.110449 
L 186.335766 99.905465 
L 187.655115 94.711058 
L 188.974464 90.409317 
L 190.293813 86.894244 
L 191.511674 84.253304 
L 192.729534 82.104942 
L 193.947395 80.372881 
L 195.266743 78.871579 
L 196.687581 77.592231 
L 198.311395 76.431203 
L 200.442651 75.186405 
L 204.400697 73.181212 
L 212.113814 69.233842 
L 233.223396 58.1882 
L 244.18414 52.66646 
L 248.243675 51.016785 
L 252.709164 49.463584 
L 256.66721 48.290361 
L 260.523769 47.347154 
L 265.090745 46.480765 
L 274.224699 45.104658 
L 278.893164 44.672479 
L 283.358653 44.478287 
L 288.839025 44.469511 
L 295.537258 44.738272 
L 299.698281 45.111219 
L 304.671212 45.771485 
L 331.159677 49.870745 
L 334.711771 50.742067 
L 338.771306 51.963096 
L 343.744236 53.708546 
L 353.385632 57.169246 
L 357.24219 58.221395 
L 360.99726 59.023382 
L 365.36126 59.726792 
L 373.581818 60.759935 
L 373.581818 60.759935 
" style="fill:none;stroke:#40b5c4;stroke-dasharray:5.55,2.4;stroke-dashoffset:0;stroke-width:1.5;"/>
    <defs>
     <path d="M 0 3 
C 0.795609 3 1.55874 2.683901 2.12132 2.12132 
C 2.683901 1.55874 3 0.795609 3 0 
C 3 -0.795609 2.683901 -1.55874 2.12132 -2.12132 
C 1.55874 -2.683901 0.795609 -3 0 -3 
C -0.795609 -3 -1.55874 -2.683901 -2.12132 -2.12132 
C -2.683901 -1.55874 -3 -0.795609 -3 0 
C -3 0.795609 -2.683901 1.55874 -2.12132 2.12132 
C -1.55874 2.683901 -0.795609 3 0 3 
z
" id="m9c7a0c7079" style="stroke:#40b5c4;"/>
    </defs>
    <g clip-path="url(#p0c6510ae4a)">
     <use style="fill:#40b5c4;stroke:#40b5c4;" x="69.218182" xlink:href="#m9c7a0c7079" y="66.117168"/>
     <use style="fill:#40b5c4;stroke:#40b5c4;" x="77.337252" xlink:href="#m9c7a0c7079" y="68.303032"/>
     <use style="fill:#40b5c4;stroke:#40b5c4;" x="85.456322" xlink:href="#m9c7a0c7079" y="93.767969"/>
     <use style="fill:#40b5c4;stroke:#40b5c4;" x="93.575392" xlink:href="#m9c7a0c7079" y="126.406566"/>
     <use style="fill:#40b5c4;stroke:#40b5c4;" x="101.694462" xlink:href="#m9c7a0c7079" y="146.642443"/>
     <use style="fill:#40b5c4;stroke:#40b5c4;" x="109.813532" xlink:href="#m9c7a0c7079" y="150.048834"/>
     <use style="fill:#40b5c4;stroke:#40b5c4;" x="117.932602" xlink:href="#m9c7a0c7079" y="145.040715"/>
     <use style="fill:#40b5c4;stroke:#40b5c4;" x="126.051672" xlink:href="#m9c7a0c7079" y="139.522895"/>
     <use style="fill:#40b5c4;stroke:#40b5c4;" x="134.170742" xlink:href="#m9c7a0c7079" y="136.279957"/>
     <use style="fill:#40b5c4;stroke:#40b5c4;" x="142.289812" xlink:href="#m9c7a0c7079" y="135.750304"/>
     <use style="fill:#40b5c4;stroke:#40b5c4;" x="150.408882" xlink:href="#m9c7a0c7079" y="140.608042"/>
     <use style="fill:#40b5c4;stroke:#40b5c4;" x="158.527952" xlink:href="#m9c7a0c7079" y="156.5232"/>
     <use style="fill:#40b5c4;stroke:#40b5c4;" x="166.647022" xlink:href="#m9c7a0c7079" y="179.722264"/>
     <use style="fill:#40b5c4;stroke:#40b5c4;" x="174.766092" xlink:href="#m9c7a0c7079" y="186.930795"/>
     <use style="fill:#40b5c4;stroke:#40b5c4;" x="182.885162" xlink:href="#m9c7a0c7079" y="118.573576"/>
     <use style="fill:#40b5c4;stroke:#40b5c4;" x="191.004232" xlink:href="#m9c7a0c7079" y="85.288135"/>
     <use style="fill:#40b5c4;stroke:#40b5c4;" x="199.123302" xlink:href="#m9c7a0c7079" y="75.927676"/>
     <use style="fill:#40b5c4;stroke:#40b5c4;" x="207.242372" xlink:href="#m9c7a0c7079" y="71.760893"/>
     <use style="fill:#40b5c4;stroke:#40b5c4;" x="215.361442" xlink:href="#m9c7a0c7079" y="67.499472"/>
     <use style="fill:#40b5c4;stroke:#40b5c4;" x="223.480512" xlink:href="#m9c7a0c7079" y="63.159698"/>
     <use style="fill:#40b5c4;stroke:#40b5c4;" x="231.599582" xlink:href="#m9c7a0c7079" y="59.005984"/>
     <use style="fill:#40b5c4;stroke:#40b5c4;" x="239.718652" xlink:href="#m9c7a0c7079" y="54.743112"/>
     <use style="fill:#40b5c4;stroke:#40b5c4;" x="247.837722" xlink:href="#m9c7a0c7079" y="51.171478"/>
     <use style="fill:#40b5c4;stroke:#40b5c4;" x="255.956792" xlink:href="#m9c7a0c7079" y="48.489"/>
     <use style="fill:#40b5c4;stroke:#40b5c4;" x="264.075862" xlink:href="#m9c7a0c7079" y="46.651332"/>
     <use style="fill:#40b5c4;stroke:#40b5c4;" x="272.194932" xlink:href="#m9c7a0c7079" y="45.362781"/>
     <use style="fill:#40b5c4;stroke:#40b5c4;" x="280.314002" xlink:href="#m9c7a0c7079" y="44.589603"/>
     <use style="fill:#40b5c4;stroke:#40b5c4;" x="288.433072" xlink:href="#m9c7a0c7079" y="44.460416"/>
     <use style="fill:#40b5c4;stroke:#40b5c4;" x="296.552142" xlink:href="#m9c7a0c7079" y="44.808579"/>
     <use style="fill:#40b5c4;stroke:#40b5c4;" x="304.671212" xlink:href="#m9c7a0c7079" y="45.771485"/>
     <use style="fill:#40b5c4;stroke:#40b5c4;" x="312.790282" xlink:href="#m9c7a0c7079" y="47.017868"/>
     <use style="fill:#40b5c4;stroke:#40b5c4;" x="320.909352" xlink:href="#m9c7a0c7079" y="48.207737"/>
     <use style="fill:#40b5c4;stroke:#40b5c4;" x="329.028422" xlink:href="#m9c7a0c7079" y="49.448499"/>
     <use style="fill:#40b5c4;stroke:#40b5c4;" x="337.147492" xlink:href="#m9c7a0c7079" y="51.449116"/>
     <use style="fill:#40b5c4;stroke:#40b5c4;" x="345.266562" xlink:href="#m9c7a0c7079" y="54.282736"/>
     <use style="fill:#40b5c4;stroke:#40b5c4;" x="353.385632" xlink:href="#m9c7a0c7079" y="57.169246"/>
     <use style="fill:#40b5c4;stroke:#40b5c4;" x="361.504702" xlink:href="#m9c7a0c7079" y="59.116813"/>
     <use style="fill:#40b5c4;stroke:#40b5c4;" x="369.623772" xlink:href="#m9c7a0c7079" y="60.284929"/>
    </g>
   </g>
   <g id="line2d_16">
    <path clip-path="url(#p0c6510ae4a)" d="M 69.218182 70.564897 
L 69.421159 70.636204 
L 69.624135 70.635244 
L 69.725624 70.312283 
L 69.827112 70.548159 
L 69.9286 70.403177 
L 70.131577 70.503544 
L 70.233066 70.338015 
L 70.436042 70.331838 
L 70.537531 70.150563 
L 70.639019 70.28079 
L 70.740507 70.120062 
L 70.841996 70.315356 
L 70.943484 70.007853 
L 71.349438 70.187496 
L 71.450926 70.015534 
L 71.552414 70.079672 
L 71.653903 69.907582 
L 71.958368 70.097275 
L 72.161345 69.837523 
L 72.262833 69.976264 
L 72.364321 69.840628 
L 72.567298 70.151619 
L 72.668787 69.966119 
L 72.770275 70.034961 
L 72.871763 69.908062 
L 73.07474 70.093434 
L 73.277717 69.905854 
L 73.480694 70.191049 
L 73.582182 70.168741 
L 73.68367 70.415115 
L 73.886647 70.33027 
L 73.988135 70.459057 
L 74.089624 70.343296 
L 74.292601 70.539229 
L 74.394089 70.714744 
L 74.495577 70.599623 
L 74.698554 70.871472 
L 74.901531 71.305073 
L 75.003019 71.199201 
L 75.510461 71.767223 
L 75.713438 71.976535 
L 75.814926 72.006875 
L 76.119391 72.945737 
L 76.22088 72.804852 
L 76.322368 72.871838 
L 76.82981 74.090582 
L 76.931298 73.955554 
L 77.337252 75.514829 
L 77.43874 75.438242 
L 77.641717 75.854721 
L 79.062554 79.922088 
L 79.265531 80.645973 
L 79.569996 81.632874 
L 79.772973 82.468873 
L 81.396787 88.938619 
L 81.80274 90.790418 
L 84.441438 103.115033 
L 84.847392 104.949102 
L 85.862275 109.742867 
L 86.268229 111.823725 
L 86.978647 115.448593 
L 87.283113 117.05914 
L 88.09502 121.154079 
L 88.906927 125.042411 
L 95.097717 152.751842 
L 95.199206 152.952913 
L 95.808136 155.345594 
L 96.112601 156.286361 
L 96.417066 157.364347 
L 96.620043 157.843412 
L 97.43195 160.317946 
L 97.736415 161.130901 
L 98.649811 163.736238 
L 99.867671 166.384911 
L 101.694462 169.788001 
L 101.998927 170.435683 
L 102.607857 171.466175 
L 102.912322 172.232818 
L 103.216787 172.644177 
L 103.521253 173.285025 
L 103.622741 173.282849 
L 104.028694 174.20454 
L 104.33316 174.578837 
L 104.637625 175.190593 
L 104.739113 175.218998 
L 105.043578 175.911166 
L 105.145067 175.890379 
L 105.55102 176.708023 
L 105.652508 176.761855 
L 106.15995 177.606991 
L 106.464415 178.036624 
L 106.667392 178.339997 
L 107.174834 179.148152 
L 107.580788 179.724559 
L 107.783764 180.002393 
L 107.885253 180.156608 
L 108.088229 180.08951 
L 108.291206 180.148431 
L 108.392695 179.923853 
L 108.69716 180.071315 
L 108.900136 179.912699 
L 109.204602 179.790889 
L 109.30609 179.842977 
L 109.407578 179.643906 
L 109.509067 179.753731 
L 109.712043 179.7332 
L 109.813532 179.775254 
L 110.117997 179.536402 
L 110.219485 179.609021 
L 110.320974 179.521648 
L 110.422462 179.596331 
L 110.52395 179.381979 
L 110.828416 179.558053 
L 111.234369 179.186141 
L 111.335857 179.238933 
L 111.741811 178.884064 
L 111.944788 178.986783 
L 112.350741 178.511095 
L 112.553718 178.4897 
L 112.655206 178.23715 
L 112.858183 178.228156 
L 112.959671 178.233405 
L 113.264137 177.852244 
L 113.467113 177.756869 
L 113.771578 177.460376 
L 113.974555 177.359097 
L 114.583485 176.843259 
L 114.684974 176.851804 
L 114.989439 176.546622 
L 116.105811 175.67337 
L 116.308788 175.501152 
L 117.120695 174.864656 
L 117.323672 174.704184 
L 117.831113 174.467956 
L 118.03409 174.157765 
L 118.64302 173.645 
L 119.048974 173.355148 
L 119.251951 173.163343 
L 119.353439 173.162095 
L 120.165346 172.413822 
L 120.266834 172.328337 
L 120.368323 172.38985 
L 120.672788 172.009185 
L 120.977253 171.95404 
L 121.078741 171.543098 
L 121.281718 171.61927 
L 121.890648 170.976885 
L 121.992137 171.152383 
L 122.093625 170.688345 
L 122.195114 170.830895 
L 122.499579 170.644866 
L 122.601067 170.377434 
L 122.702555 170.4702 
L 122.905532 170.159289 
L 123.007021 170.299358 
L 123.108509 169.881407 
L 123.209997 170.008162 
L 123.920416 169.282229 
L 124.021904 169.457023 
L 124.123393 169.079718 
L 124.224881 169.128621 
L 124.529346 169.034447 
L 124.630835 168.798411 
L 124.732323 168.876119 
L 124.9353 168.593596 
L 125.036788 168.735474 
L 125.138276 168.36329 
L 125.239765 168.462633 
L 126.051672 168.001043 
L 126.15316 167.701958 
L 126.356137 167.734731 
L 126.457625 167.58578 
L 126.559114 167.64995 
L 126.76209 167.421931 
L 126.863579 167.405545 
L 126.965067 167.177895 
L 127.066556 167.271397 
L 127.168044 167.016974 
L 127.269532 167.05818 
L 127.371021 167.037473 
L 127.472509 166.877257 
L 127.573997 166.937906 
L 127.776974 166.727266 
L 128.081439 166.563178 
L 128.182928 166.307923 
L 128.385904 166.334199 
L 128.791858 166.001141 
L 128.893346 166.015943 
L 129.096323 165.798886 
L 129.400788 165.581333 
L 129.502277 165.611242 
L 129.705253 165.440128 
L 129.90823 165.271206 
L 131.024602 165.234657 
L 131.126091 165.269558 
L 131.329067 165.229504 
L 131.735021 165.304923 
L 132.039486 165.266486 
L 132.140974 165.340385 
L 132.242463 165.20214 
L 132.546928 165.48015 
L 132.648416 165.286265 
L 132.749905 165.431039 
L 132.851393 165.261797 
L 132.952881 165.383271 
L 133.05437 165.292986 
L 133.155858 165.441104 
L 133.257346 165.229072 
L 133.460323 165.389688 
L 133.561812 165.514139 
L 133.6633 165.371958 
L 133.764788 165.533166 
L 133.967765 165.393817 
L 134.475207 165.506634 
L 134.576695 165.581077 
L 134.779672 165.514779 
L 135.084137 165.450946 
L 135.185626 165.694726 
L 135.287114 165.504778 
L 135.388602 165.670355 
L 135.490091 165.515499 
L 135.794556 165.679636 
L 135.896044 165.567907 
L 136.099021 165.674371 
L 136.403486 165.74667 
L 136.504974 165.678324 
L 136.80944 165.793125 
L 136.910928 165.683989 
L 137.215393 165.878434 
L 137.519858 165.878962 
L 137.824323 166.071695 
L 138.230277 166.73738 
L 138.63623 167.259939 
L 138.737719 167.562433 
L 138.839207 167.308186 
L 139.143672 168.08616 
L 139.448137 168.320275 
L 139.651114 168.698924 
L 139.752602 168.767719 
L 140.158556 169.449518 
L 140.970463 170.355367 
L 141.071951 170.707996 
L 141.17344 170.646819 
L 141.680882 171.411846 
L 141.78237 171.216937 
L 142.086835 171.976652 
L 142.188323 171.944055 
L 142.492789 172.355429 
L 142.594277 172.563124 
L 142.695765 172.454772 
L 143.101719 173.180338 
L 143.406184 173.4868 
L 144.015114 174.538367 
L 144.116603 174.502073 
L 145.029998 175.367548 
L 145.232975 175.285072 
L 145.53744 175.517155 
L 145.638928 175.398993 
L 145.943393 175.89486 
L 146.044882 175.662281 
L 146.14637 175.81776 
L 146.247858 175.645398 
L 146.450835 175.902397 
L 146.552324 175.802718 
L 146.653812 176.029712 
L 146.7553 175.967575 
L 146.958277 176.207499 
L 147.161254 176.096234 
L 147.465719 176.292744 
L 147.668696 176.310651 
L 147.770184 176.346592 
L 147.871672 176.518154 
L 148.176138 176.38391 
L 148.379114 176.504696 
L 148.480603 176.469747 
L 148.683579 176.675858 
L 148.886556 176.618473 
L 149.191021 176.760207 
L 149.29251 176.576403 
L 149.495486 176.750973 
L 149.596975 176.954012 
L 149.90144 176.813879 
L 150.104417 176.87336 
L 150.307393 176.979312 
L 151.017812 177.981783 
L 151.931207 179.73552 
L 152.641626 181.264919 
L 153.352045 182.779836 
L 153.960975 183.998837 
L 154.062463 184.065151 
L 154.87437 186.205682 
L 155.584789 188.872917 
L 155.787766 189.598243 
L 163.500882 216.000817 
L 165.53065 221.467259 
L 165.733626 221.949604 
L 166.951487 225.478665 
L 167.255952 226.355006 
L 168.676789 229.873489 
L 169.184231 230.804238 
L 169.387208 231.292328 
L 169.590185 231.438302 
L 169.793161 231.771232 
L 170.199115 232.6718 
L 170.402092 232.707166 
L 170.50358 232.741283 
L 170.706557 233.165859 
L 170.808045 233.066804 
L 171.011022 233.244143 
L 171.11251 233.776671 
L 171.315487 233.481779 
L 171.416975 233.505686 
L 171.619952 233.840489 
L 171.72144 233.681713 
L 172.025906 234.649875 
L 172.228882 234.502893 
L 172.431859 234.778839 
L 172.837813 235.298853 
L 172.939301 235.708515 
L 173.040789 235.504132 
L 173.446743 236.136724 
L 173.548231 235.803538 
L 173.852696 236.848143 
L 174.055673 236.859761 
L 174.360138 237.524582 
L 174.461627 237.473102 
L 174.969068 238.432047 
L 175.070557 238.534046 
L 175.273534 239.206884 
L 175.375022 238.724139 
L 175.679487 239.834179 
L 175.780975 239.778282 
L 176.085441 240.295064 
L 176.998836 241.680554 
L 177.404789 242.076326 
L 178.01372 238.909895 
L 180.144976 228.037148 
L 181.464324 222.1368 
L 183.088138 215.478994 
L 184.001534 211.474357 
L 185.422371 200.30074 
L 185.828325 197.453478 
L 187.756604 183.523389 
L 191.10572 161.343477 
L 192.222092 153.985821 
L 193.033999 148.604512 
L 193.744418 144.774221 
L 199.83372 118.14236 
L 200.442651 117.001404 
L 204.806651 109.076302 
L 205.009627 108.753229 
L 205.618558 107.693245 
L 210.388511 99.238415 
L 210.692976 99.06943 
L 210.895953 98.952548 
L 212.215302 98.130952 
L 212.31679 98.125191 
L 212.621256 97.907142 
L 212.722744 97.932042 
L 213.128697 97.599383 
L 213.940604 97.147635 
L 214.24507 96.943396 
L 214.346558 96.94458 
L 214.448046 96.735557 
L 214.549535 96.8064 
L 214.854 96.603089 
L 216.985256 95.229121 
L 217.492698 94.836598 
L 217.695674 94.771196 
L 218.304605 94.297588 
L 218.507581 94.178514 
L 219.015023 93.813739 
L 219.319488 93.596939 
L 219.928419 93.11821 
L 220.131395 93.073899 
L 220.43586 92.801746 
L 221.044791 92.322682 
L 221.146279 92.350238 
L 221.450744 92.020876 
L 221.755209 91.855651 
L 222.059674 91.598348 
L 222.262651 91.511951 
L 222.567116 91.246951 
L 222.770093 91.183998 
L 223.176047 90.863693 
L 223.480512 90.815398 
L 223.784977 90.564784 
L 226.72814 88.749886 
L 226.931116 88.622715 
L 228.453442 87.625972 
L 230.686186 86.150933 
L 230.889163 86.024578 
L 231.70107 85.476783 
L 231.904047 85.349692 
L 234.339768 83.859579 
L 234.644233 83.652156 
L 234.745721 83.670686 
L 235.050186 83.388836 
L 235.963582 82.896233 
L 236.268047 82.694571 
L 237.587396 81.928519 
L 237.790373 81.861581 
L 238.196326 81.610247 
L 238.703768 81.414377 
L 239.008233 81.183463 
L 239.718652 80.90422 
L 240.226094 80.631059 
L 241.545442 80.059485 
L 241.646931 80.096866 
L 241.951396 79.878209 
L 242.255861 79.766256 
L 242.661815 79.451521 
L 243.676698 78.705296 
L 244.285629 78.172159 
L 244.590094 78.000421 
L 245.300512 77.360612 
L 257.276141 72.690274 
L 257.377629 72.771631 
L 257.682094 72.610294 
L 261.538652 71.5887 
L 263.669908 71.000643 
L 264.380327 70.812519 
L 264.887769 70.628747 
L 265.293722 70.542238 
L 266.004141 70.340127 
L 266.308606 70.265492 
L 266.613071 70.17399 
L 267.120513 70.065686 
L 267.424978 69.926433 
L 268.236885 69.709408 
L 268.642839 69.585261 
L 268.845815 69.543495 
L 270.571118 69.06355 
L 270.875583 68.968688 
L 271.484513 68.805655 
L 271.788978 68.723595 
L 272.194932 68.559666 
L 272.29642 68.628701 
L 272.600885 68.452866 
L 272.90535 68.381559 
L 273.717257 68.151061 
L 274.021722 68.072265 
L 275.44256 67.68171 
L 276.05149 67.515636 
L 276.152978 67.545209 
L 276.457443 67.381504 
L 276.863397 67.28469 
L 280.314002 66.390826 
L 280.922932 66.223441 
L 281.227397 66.145221 
L 281.531862 66.061881 
L 282.749723 65.748937 
L 283.054188 65.6848 
L 284.069072 65.431033 
L 284.373537 65.38117 
L 284.678002 65.289828 
L 284.982467 65.219353 
L 285.794374 65.029053 
L 287.519676 64.650147 
L 287.722653 64.576824 
L 288.230095 64.527825 
L 288.53456 64.453382 
L 289.244979 64.281868 
L 289.853909 64.188318 
L 291.071769 63.93692 
L 291.6807 63.806308 
L 291.883676 63.785729 
L 294.522374 63.362561 
L 294.725351 63.409896 
L 295.029816 63.369762 
L 295.232793 63.401063 
L 295.334281 63.336317 
L 295.638746 63.443725 
L 295.943211 63.416553 
L 298.277444 63.520601 
L 298.581909 63.536283 
L 299.495304 63.619752 
L 300.205723 63.680177 
L 300.4087 63.681553 
L 303.656328 63.990016 
L 303.859305 63.971901 
L 304.569723 64.066827 
L 304.874188 64.093583 
L 305.077165 64.116211 
L 307.715863 64.383355 
L 307.91884 64.382171 
L 308.426281 64.461031 
L 309.339677 64.59049 
L 309.74563 64.578521 
L 310.253072 64.656452 
L 310.862002 64.697771 
L 311.064979 64.741137 
L 313.297723 64.921068 
L 313.805165 64.985206 
L 314.414096 64.985814 
L 315.226003 65.102184 
L 315.428979 65.096711 
L 316.342375 65.183668 
L 316.951305 65.21148 
L 317.154282 65.226459 
L 318.575119 65.396468 
L 318.879584 65.410838 
L 319.184049 65.416087 
L 319.387026 65.443835 
L 319.894468 65.486722 
L 321.01084 65.583376 
L 321.213817 65.611573 
L 322.330189 65.700674 
L 322.533166 65.717221 
L 323.243584 65.776014 
L 323.446561 65.796785 
L 324.15698 65.863067 
L 324.359956 65.884318 
L 325.171863 65.949096 
L 327.201631 66.164584 
L 327.404608 66.179787 
L 327.810561 66.164424 
L 327.912049 66.27961 
L 328.216515 66.211663 
L 328.52098 66.250133 
L 329.73884 66.463317 
L 329.941817 66.41099 
L 330.246282 66.469078 
L 330.550747 66.49145 
L 330.855212 66.536192 
L 331.464143 66.585128 
L 331.667119 66.614028 
L 333.595398 66.831533 
L 335.117724 67.013161 
L 335.320701 67.048782 
L 336.031119 67.125882 
L 336.234096 67.161503 
L 336.437073 67.193156 
L 336.843026 67.237194 
L 338.263864 67.458988 
L 339.177259 67.601345 
L 339.684701 67.649001 
L 340.598096 67.807521 
L 341.815957 68.016224 
L 342.018934 68.066408 
L 342.729352 68.194683 
L 342.830841 68.2826 
L 343.033817 68.26615 
L 343.338282 68.311405 
L 343.642748 68.367189 
L 343.947213 68.440288 
L 344.150189 68.438144 
L 344.454655 68.516588 
L 345.063585 68.635518 
L 346.078469 68.841501 
L 346.281445 68.851678 
L 346.991864 69.022136 
L 347.194841 69.027961 
L 347.499306 69.095683 
L 348.818655 69.334983 
L 350.239492 69.609553 
L 350.442469 69.630932 
L 350.949911 69.769513 
L 351.254376 69.721186 
L 351.457352 69.810703 
L 351.660329 69.842932 
L 355.313911 70.364451 
L 355.516887 70.421932 
L 356.63326 70.554944 
L 361.60619 71.094865 
L 361.910655 71.102803 
L 362.113632 71.132631 
L 362.519585 71.177246 
L 362.82405 71.185599 
L 363.027027 71.219844 
L 365.158283 71.279277 
L 365.259771 71.366298 
L 365.462748 71.302161 
L 365.868702 71.250985 
L 365.97019 71.364346 
L 366.173167 71.31221 
L 366.477632 71.289807 
L 366.680609 71.319539 
L 366.985074 71.312562 
L 367.086562 71.350456 
L 367.289539 71.313971 
L 367.898469 71.297296 
L 368.710376 71.265003 
L 368.913353 71.303537 
L 369.014841 71.224773 
L 369.11633 71.371771 
L 369.319306 71.261067 
L 369.420795 71.351192 
L 369.522283 71.261483 
L 369.72526 71.269388 
L 373.581818 71.268332 
L 373.581818 71.268332 
" style="fill:none;stroke:#081d58;stroke-dasharray:5.55,2.4;stroke-dashoffset:0;stroke-width:1.5;"/>
    <defs>
     <path d="M -0 4.242641 
L 4.242641 0 
L 0 -4.242641 
L -4.242641 -0 
z
" id="m11d336ea52" style="stroke:#081d58;stroke-linejoin:miter;"/>
    </defs>
    <g clip-path="url(#p0c6510ae4a)">
     <use style="fill:#081d58;stroke:#081d58;stroke-linejoin:miter;" x="69.218182" xlink:href="#m11d336ea52" y="70.564897"/>
     <use style="fill:#081d58;stroke:#081d58;stroke-linejoin:miter;" x="77.337252" xlink:href="#m11d336ea52" y="75.514829"/>
     <use style="fill:#081d58;stroke:#081d58;stroke-linejoin:miter;" x="85.456322" xlink:href="#m11d336ea52" y="108.043586"/>
     <use style="fill:#081d58;stroke:#081d58;stroke-linejoin:miter;" x="93.575392" xlink:href="#m11d336ea52" y="146.203893"/>
     <use style="fill:#081d58;stroke:#081d58;stroke-linejoin:miter;" x="101.694462" xlink:href="#m11d336ea52" y="169.788001"/>
     <use style="fill:#081d58;stroke:#081d58;stroke-linejoin:miter;" x="109.813532" xlink:href="#m11d336ea52" y="179.775254"/>
     <use style="fill:#081d58;stroke:#081d58;stroke-linejoin:miter;" x="117.932602" xlink:href="#m11d336ea52" y="174.206573"/>
     <use style="fill:#081d58;stroke:#081d58;stroke-linejoin:miter;" x="126.051672" xlink:href="#m11d336ea52" y="168.001043"/>
     <use style="fill:#081d58;stroke:#081d58;stroke-linejoin:miter;" x="134.170742" xlink:href="#m11d336ea52" y="165.435695"/>
     <use style="fill:#081d58;stroke:#081d58;stroke-linejoin:miter;" x="142.289812" xlink:href="#m11d336ea52" y="172.044806"/>
     <use style="fill:#081d58;stroke:#081d58;stroke-linejoin:miter;" x="150.408882" xlink:href="#m11d336ea52" y="177.098562"/>
     <use style="fill:#081d58;stroke:#081d58;stroke-linejoin:miter;" x="158.527952" xlink:href="#m11d336ea52" y="199.105632"/>
     <use style="fill:#081d58;stroke:#081d58;stroke-linejoin:miter;" x="166.647022" xlink:href="#m11d336ea52" y="224.596884"/>
     <use style="fill:#081d58;stroke:#081d58;stroke-linejoin:miter;" x="174.766092" xlink:href="#m11d336ea52" y="238.439008"/>
     <use style="fill:#081d58;stroke:#081d58;stroke-linejoin:miter;" x="182.885162" xlink:href="#m11d336ea52" y="216.335443"/>
     <use style="fill:#081d58;stroke:#081d58;stroke-linejoin:miter;" x="191.004232" xlink:href="#m11d336ea52" y="161.954321"/>
     <use style="fill:#081d58;stroke:#081d58;stroke-linejoin:miter;" x="199.123302" xlink:href="#m11d336ea52" y="120.850273"/>
     <use style="fill:#081d58;stroke:#081d58;stroke-linejoin:miter;" x="207.242372" xlink:href="#m11d336ea52" y="104.889989"/>
     <use style="fill:#081d58;stroke:#081d58;stroke-linejoin:miter;" x="215.361442" xlink:href="#m11d336ea52" y="96.286497"/>
     <use style="fill:#081d58;stroke:#081d58;stroke-linejoin:miter;" x="223.480512" xlink:href="#m11d336ea52" y="90.815398"/>
     <use style="fill:#081d58;stroke:#081d58;stroke-linejoin:miter;" x="231.599582" xlink:href="#m11d336ea52" y="85.540873"/>
     <use style="fill:#081d58;stroke:#081d58;stroke-linejoin:miter;" x="239.718652" xlink:href="#m11d336ea52" y="80.90422"/>
     <use style="fill:#081d58;stroke:#081d58;stroke-linejoin:miter;" x="247.837722" xlink:href="#m11d336ea52" y="76.419414"/>
     <use style="fill:#081d58;stroke:#081d58;stroke-linejoin:miter;" x="255.956792" xlink:href="#m11d336ea52" y="73.156713"/>
     <use style="fill:#081d58;stroke:#081d58;stroke-linejoin:miter;" x="264.075862" xlink:href="#m11d336ea52" y="70.872304"/>
     <use style="fill:#081d58;stroke:#081d58;stroke-linejoin:miter;" x="272.194932" xlink:href="#m11d336ea52" y="68.559666"/>
     <use style="fill:#081d58;stroke:#081d58;stroke-linejoin:miter;" x="280.314002" xlink:href="#m11d336ea52" y="66.390826"/>
     <use style="fill:#081d58;stroke:#081d58;stroke-linejoin:miter;" x="288.433072" xlink:href="#m11d336ea52" y="64.456422"/>
     <use style="fill:#081d58;stroke:#081d58;stroke-linejoin:miter;" x="296.552142" xlink:href="#m11d336ea52" y="63.495253"/>
     <use style="fill:#081d58;stroke:#081d58;stroke-linejoin:miter;" x="304.671212" xlink:href="#m11d336ea52" y="64.050217"/>
     <use style="fill:#081d58;stroke:#081d58;stroke-linejoin:miter;" x="312.790282" xlink:href="#m11d336ea52" y="64.90753"/>
     <use style="fill:#081d58;stroke:#081d58;stroke-linejoin:miter;" x="320.909352" xlink:href="#m11d336ea52" y="65.548427"/>
     <use style="fill:#081d58;stroke:#081d58;stroke-linejoin:miter;" x="329.028422" xlink:href="#m11d336ea52" y="66.34682"/>
     <use style="fill:#081d58;stroke:#081d58;stroke-linejoin:miter;" x="337.147492" xlink:href="#m11d336ea52" y="67.250892"/>
     <use style="fill:#081d58;stroke:#081d58;stroke-linejoin:miter;" x="345.266562" xlink:href="#m11d336ea52" y="68.630685"/>
     <use style="fill:#081d58;stroke:#081d58;stroke-linejoin:miter;" x="353.385632" xlink:href="#m11d336ea52" y="70.077912"/>
     <use style="fill:#081d58;stroke:#081d58;stroke-linejoin:miter;" x="361.504702" xlink:href="#m11d336ea52" y="71.072942"/>
     <use style="fill:#081d58;stroke:#081d58;stroke-linejoin:miter;" x="369.623772" xlink:href="#m11d336ea52" y="71.323572"/>
    </g>
   </g>
   <g id="patch_3">
    <path d="M 54 252 
L 54 34.56 
" style="fill:none;stroke:#000000;stroke-linecap:square;stroke-linejoin:miter;stroke-width:0.8;"/>
   </g>
   <g id="patch_4">
    <path d="M 388.8 252 
L 388.8 34.56 
" style="fill:none;stroke:#000000;stroke-linecap:square;stroke-linejoin:miter;stroke-width:0.8;"/>
   </g>
   <g id="patch_5">
    <path d="M 54 252 
L 388.8 252 
" style="fill:none;stroke:#000000;stroke-linecap:square;stroke-linejoin:miter;stroke-width:0.8;"/>
   </g>
   <g id="patch_6">
    <path d="M 54 34.56 
L 388.8 34.56 
" style="fill:none;stroke:#000000;stroke-linecap:square;stroke-linejoin:miter;stroke-width:0.8;"/>
   </g>
   <g id="legend_1">
    <g id="patch_7">
     <path d="M 280.085938 247 
L 381.8 247 
Q 383.8 247 383.8 245 
L 383.8 216.64375 
Q 383.8 214.64375 381.8 214.64375 
L 280.085938 214.64375 
Q 278.085938 214.64375 278.085938 216.64375 
L 278.085938 245 
Q 278.085938 247 280.085938 247 
z
" style="fill:#ffffff;opacity:0.8;stroke:#cccccc;stroke-linejoin:miter;"/>
    </g>
    <g id="line2d_17">
     <path d="M 282.085938 222.742188 
L 302.085938 222.742188 
" style="fill:none;stroke:#40b5c4;stroke-dasharray:5.55,2.4;stroke-dashoffset:0;stroke-width:1.5;"/>
    </g>
    <g id="line2d_18">
     <g>
      <use style="fill:#40b5c4;stroke:#40b5c4;" x="292.085938" xlink:href="#m9c7a0c7079" y="222.742188"/>
     </g>
    </g>
    <g id="text_17">
     <text style="font-family:DejaVu Sans;font-size:10px;font-style:normal;font-weight:normal;text-anchor:start;" transform="rotate(-0, 310.085938, 226.242188)" x="310.085938" y="226.242188">original</text>
    </g>
    <g id="line2d_19">
     <path d="M 282.085938 237.420312 
L 302.085938 237.420312 
" style="fill:none;stroke:#081d58;stroke-dasharray:5.55,2.4;stroke-dashoffset:0;stroke-width:1.5;"/>
    </g>
    <g id="line2d_20">
     <g>
      <use style="fill:#081d58;stroke:#081d58;stroke-linejoin:miter;" x="292.085938" xlink:href="#m11d336ea52" y="237.420312"/>
     </g>
    </g>
    <g id="text_18">
     <text style="font-family:DejaVu Sans;font-size:10px;font-style:normal;font-weight:normal;text-anchor:start;" transform="rotate(-0, 310.085938, 240.920312)" x="310.085938" y="240.920312">reconstructed</text>
    </g>
   </g>
  </g>
  <g id="text_19">
   <text style="font-family:DejaVu Sans;font-size:12px;font-style:normal;font-weight:normal;text-anchor:middle;" transform="rotate(-0, 216, 14.878125)" x="216" y="14.878125">Reconstruction of the temperature curve</text>
  </g>
 </g>
 <defs>
  <clipPath id="p0c6510ae4a">
   <rect height="217.44" width="334.8" x="54" y="34.56"/>
  </clipPath>
 </defs>
</svg>
