<?xml version="1.0" encoding="utf-8" standalone="no"?>
<!DOCTYPE svg PUBLIC "-//W3C//DTD SVG 1.1//EN"
  "http://www.w3.org/Graphics/SVG/1.1/DTD/svg11.dtd">
<!-- Created with matplotlib (https://matplotlib.org/) -->
<svg height="288pt" version="1.1" viewBox="0 0 432 288" width="432pt" xmlns="http://www.w3.org/2000/svg" xmlns:xlink="http://www.w3.org/1999/xlink">
 <defs>
  <style type="text/css">
*{stroke-linecap:butt;stroke-linejoin:round;}
  </style>
 </defs>
 <g id="figure_1">
  <g id="patch_1">
   <path d="M 0 288 
L 432 288 
L 432 0 
L 0 0 
z
" style="fill:#ffffff;"/>
  </g>
  <g id="axes_1">
   <g id="patch_2">
    <path d="M 54 252 
L 388.8 252 
L 388.8 34.56 
L 54 34.56 
z
" style="fill:#ffffff;"/>
   </g>
   <g id="matplotlib.axis_1">
    <g id="xtick_1">
     <g id="line2d_1">
      <defs>
       <path d="M 0 0 
L 0 3.5 
" id="m35b1bf8ca0" style="stroke:#000000;stroke-width:0.8;"/>
      </defs>
      <g>
       <use style="stroke:#000000;stroke-width:0.8;" x="69.218182" xlink:href="#m35b1bf8ca0" y="252"/>
      </g>
     </g>
     <g id="text_1">
      <text style="font-family:DejaVu Sans;font-size:10px;font-style:normal;font-weight:normal;text-anchor:middle;" transform="rotate(-0, 69.218182, 266.598437)" x="69.218182" y="266.598437">0</text>
     </g>
    </g>
    <g id="xtick_2">
     <g id="line2d_2">
      <g>
       <use style="stroke:#000000;stroke-width:0.8;" x="119.962369" xlink:href="#m35b1bf8ca0" y="252"/>
      </g>
     </g>
     <g id="text_2">
      <text style="font-family:DejaVu Sans;font-size:10px;font-style:normal;font-weight:normal;text-anchor:middle;" transform="rotate(-0, 119.962369, 266.598437)" x="119.962369" y="266.598437">500</text>
     </g>
    </g>
    <g id="xtick_3">
     <g id="line2d_3">
      <g>
       <use style="stroke:#000000;stroke-width:0.8;" x="170.706557" xlink:href="#m35b1bf8ca0" y="252"/>
      </g>
     </g>
     <g id="text_3">
      <text style="font-family:DejaVu Sans;font-size:10px;font-style:normal;font-weight:normal;text-anchor:middle;" transform="rotate(-0, 170.706557, 266.598437)" x="170.706557" y="266.598437">1000</text>
     </g>
    </g>
    <g id="xtick_4">
     <g id="line2d_4">
      <g>
       <use style="stroke:#000000;stroke-width:0.8;" x="221.450744" xlink:href="#m35b1bf8ca0" y="252"/>
      </g>
     </g>
     <g id="text_4">
      <text style="font-family:DejaVu Sans;font-size:10px;font-style:normal;font-weight:normal;text-anchor:middle;" transform="rotate(-0, 221.450744, 266.598437)" x="221.450744" y="266.598437">1500</text>
     </g>
    </g>
    <g id="xtick_5">
     <g id="line2d_5">
      <g>
       <use style="stroke:#000000;stroke-width:0.8;" x="272.194932" xlink:href="#m35b1bf8ca0" y="252"/>
      </g>
     </g>
     <g id="text_5">
      <text style="font-family:DejaVu Sans;font-size:10px;font-style:normal;font-weight:normal;text-anchor:middle;" transform="rotate(-0, 272.194932, 266.598437)" x="272.194932" y="266.598437">2000</text>
     </g>
    </g>
    <g id="xtick_6">
     <g id="line2d_6">
      <g>
       <use style="stroke:#000000;stroke-width:0.8;" x="322.939119" xlink:href="#m35b1bf8ca0" y="252"/>
      </g>
     </g>
     <g id="text_6">
      <text style="font-family:DejaVu Sans;font-size:10px;font-style:normal;font-weight:normal;text-anchor:middle;" transform="rotate(-0, 322.939119, 266.598437)" x="322.939119" y="266.598437">2500</text>
     </g>
    </g>
    <g id="xtick_7">
     <g id="line2d_7">
      <g>
       <use style="stroke:#000000;stroke-width:0.8;" x="373.683307" xlink:href="#m35b1bf8ca0" y="252"/>
      </g>
     </g>
     <g id="text_7">
      <text style="font-family:DejaVu Sans;font-size:10px;font-style:normal;font-weight:normal;text-anchor:middle;" transform="rotate(-0, 373.683307, 266.598437)" x="373.683307" y="266.598437">3000</text>
     </g>
    </g>
    <g id="text_8">
     <text style="font-family:DejaVu Sans;font-size:10px;font-style:normal;font-weight:normal;text-anchor:middle;" transform="rotate(-0, 221.4, 280.276563)" x="221.4" y="280.276563">Time</text>
    </g>
   </g>
   <g id="matplotlib.axis_2">
    <g id="ytick_1">
     <g id="line2d_8">
      <defs>
       <path d="M 0 0 
L -3.5 0 
" id="m7cd65994e2" style="stroke:#000000;stroke-width:0.8;"/>
      </defs>
      <g>
       <use style="stroke:#000000;stroke-width:0.8;" x="54" xlink:href="#m7cd65994e2" y="218.533285"/>
      </g>
     </g>
     <g id="text_9">
      <text style="font-family:DejaVu Sans;font-size:10px;font-style:normal;font-weight:normal;text-anchor:end;" transform="rotate(-0, 47, 222.332504)" x="47" y="222.332504">68</text>
     </g>
    </g>
    <g id="ytick_2">
     <g id="line2d_9">
      <g>
       <use style="stroke:#000000;stroke-width:0.8;" x="54" xlink:href="#m7cd65994e2" y="184.761864"/>
      </g>
     </g>
     <g id="text_10">
      <text style="font-family:DejaVu Sans;font-size:10px;font-style:normal;font-weight:normal;text-anchor:end;" transform="rotate(-0, 47, 188.561083)" x="47" y="188.561083">70</text>
     </g>
    </g>
    <g id="ytick_3">
     <g id="line2d_10">
      <g>
       <use style="stroke:#000000;stroke-width:0.8;" x="54" xlink:href="#m7cd65994e2" y="150.990443"/>
      </g>
     </g>
     <g id="text_11">
      <text style="font-family:DejaVu Sans;font-size:10px;font-style:normal;font-weight:normal;text-anchor:end;" transform="rotate(-0, 47, 154.789662)" x="47" y="154.789662">72</text>
     </g>
    </g>
    <g id="ytick_4">
     <g id="line2d_11">
      <g>
       <use style="stroke:#000000;stroke-width:0.8;" x="54" xlink:href="#m7cd65994e2" y="117.219022"/>
      </g>
     </g>
     <g id="text_12">
      <text style="font-family:DejaVu Sans;font-size:10px;font-style:normal;font-weight:normal;text-anchor:end;" transform="rotate(-0, 47, 121.018241)" x="47" y="121.018241">74</text>
     </g>
    </g>
    <g id="ytick_5">
     <g id="line2d_12">
      <g>
       <use style="stroke:#000000;stroke-width:0.8;" x="54" xlink:href="#m7cd65994e2" y="83.447601"/>
      </g>
     </g>
     <g id="text_13">
      <text style="font-family:DejaVu Sans;font-size:10px;font-style:normal;font-weight:normal;text-anchor:end;" transform="rotate(-0, 47, 87.24682)" x="47" y="87.24682">76</text>
     </g>
    </g>
    <g id="ytick_6">
     <g id="line2d_13">
      <g>
       <use style="stroke:#000000;stroke-width:0.8;" x="54" xlink:href="#m7cd65994e2" y="49.67618"/>
      </g>
     </g>
     <g id="text_14">
      <text style="font-family:DejaVu Sans;font-size:10px;font-style:normal;font-weight:normal;text-anchor:end;" transform="rotate(-0, 47, 53.475399)" x="47" y="53.475399">78</text>
     </g>
    </g>
    <g id="text_15">
     <text style="font-family:DejaVu Sans;font-size:10px;font-style:normal;font-weight:normal;text-anchor:middle;" transform="rotate(-90, 28.195312, 143.28)" x="28.195312" y="143.28">weight (\%)</text>
    </g>
   </g>
   <g id="line2d_14">
    <path clip-path="url(#pf4fc548322)" d="M 69.218182 44.443636 
L 84.644415 45.166007 
L 88.805438 45.687776 
L 91.951578 46.310183 
L 95.402183 47.217283 
L 109.509067 51.282349 
L 116.613253 52.872645 
L 124.224881 54.619641 
L 128.284416 55.746762 
L 131.735021 56.909006 
L 134.678184 58.129674 
L 137.41837 59.512951 
L 139.752602 60.931351 
L 141.883858 62.475549 
L 143.913626 64.235884 
L 145.841905 66.215734 
L 147.364231 68.02166 
L 149.089533 70.378061 
L 150.713347 72.992814 
L 152.337161 76.050647 
L 154.062463 79.796235 
L 155.990742 84.510388 
L 157.005626 87.766291 
L 159.035394 95.188405 
L 161.369626 104.566222 
L 163.703859 114.908719 
L 166.342557 127.684786 
L 171.72144 154.049796 
L 173.446743 161.182489 
L 175.375022 167.522567 
L 176.491394 170.395839 
L 177.404789 172.178295 
L 178.216696 173.278061 
L 179.23158 174.237001 
L 180.753906 175.31127 
L 182.783673 176.462537 
L 185.523859 177.718497 
L 188.467022 178.824511 
L 192.222092 179.987936 
L 196.992046 181.213839 
L 203.385813 182.590193 
L 211.606372 184.07985 
L 219.928419 185.339187 
L 229.874279 186.585521 
L 238.60228 187.490595 
L 248.751117 188.358689 
L 258.798466 189.049821 
L 271.07856 189.67493 
L 278.994653 189.945777 
L 288.940514 190.133546 
L 314.211119 190.58068 
L 326.897166 190.72404 
L 349.73205 190.76541 
L 362.113632 190.875336 
L 372.160981 191.119334 
L 373.581818 191.169822 
L 373.581818 191.169822 
" style="fill:none;stroke:#40b5c4;stroke-dasharray:5.55,2.4;stroke-dashoffset:0;stroke-width:1.5;"/>
    <defs>
     <path d="M 0 3 
C 0.795609 3 1.55874 2.683901 2.12132 2.12132 
C 2.683901 1.55874 3 0.795609 3 0 
C 3 -0.795609 2.683901 -1.55874 2.12132 -2.12132 
C 1.55874 -2.683901 0.795609 -3 0 -3 
C -0.795609 -3 -1.55874 -2.683901 -2.12132 -2.12132 
C -2.683901 -1.55874 -3 -0.795609 -3 0 
C -3 0.795609 -2.683901 1.55874 -2.12132 2.12132 
C -1.55874 2.683901 -0.795609 3 0 3 
z
" id="m9fc04ee5d0" style="stroke:#40b5c4;"/>
    </defs>
    <g clip-path="url(#pf4fc548322)">
     <use style="fill:#40b5c4;stroke:#40b5c4;" x="69.218182" xlink:href="#m9fc04ee5d0" y="44.443636"/>
     <use style="fill:#40b5c4;stroke:#40b5c4;" x="77.337252" xlink:href="#m9fc04ee5d0" y="44.74302"/>
     <use style="fill:#40b5c4;stroke:#40b5c4;" x="85.456322" xlink:href="#m9fc04ee5d0" y="45.24689"/>
     <use style="fill:#40b5c4;stroke:#40b5c4;" x="93.575392" xlink:href="#m9fc04ee5d0" y="46.711725"/>
     <use style="fill:#40b5c4;stroke:#40b5c4;" x="101.694462" xlink:href="#m9fc04ee5d0" y="49.164543"/>
     <use style="fill:#40b5c4;stroke:#40b5c4;" x="109.813532" xlink:href="#m9fc04ee5d0" y="51.355295"/>
     <use style="fill:#40b5c4;stroke:#40b5c4;" x="117.932602" xlink:href="#m9fc04ee5d0" y="53.161222"/>
     <use style="fill:#40b5c4;stroke:#40b5c4;" x="126.051672" xlink:href="#m9fc04ee5d0" y="55.099195"/>
     <use style="fill:#40b5c4;stroke:#40b5c4;" x="134.170742" xlink:href="#m9fc04ee5d0" y="57.902561"/>
     <use style="fill:#40b5c4;stroke:#40b5c4;" x="142.289812" xlink:href="#m9fc04ee5d0" y="62.804314"/>
     <use style="fill:#40b5c4;stroke:#40b5c4;" x="150.408882" xlink:href="#m9fc04ee5d0" y="72.470201"/>
     <use style="fill:#40b5c4;stroke:#40b5c4;" x="158.527952" xlink:href="#m9fc04ee5d0" y="93.260056"/>
     <use style="fill:#40b5c4;stroke:#40b5c4;" x="166.647022" xlink:href="#m9fc04ee5d0" y="129.210578"/>
     <use style="fill:#40b5c4;stroke:#40b5c4;" x="174.766092" xlink:href="#m9fc04ee5d0" y="165.651968"/>
     <use style="fill:#40b5c4;stroke:#40b5c4;" x="182.885162" xlink:href="#m9fc04ee5d0" y="176.513532"/>
     <use style="fill:#40b5c4;stroke:#40b5c4;" x="191.004232" xlink:href="#m9fc04ee5d0" y="179.635025"/>
     <use style="fill:#40b5c4;stroke:#40b5c4;" x="199.123302" xlink:href="#m9fc04ee5d0" y="181.698796"/>
     <use style="fill:#40b5c4;stroke:#40b5c4;" x="207.242372" xlink:href="#m9fc04ee5d0" y="183.324384"/>
     <use style="fill:#40b5c4;stroke:#40b5c4;" x="215.361442" xlink:href="#m9fc04ee5d0" y="184.677436"/>
     <use style="fill:#40b5c4;stroke:#40b5c4;" x="223.480512" xlink:href="#m9fc04ee5d0" y="185.814688"/>
     <use style="fill:#40b5c4;stroke:#40b5c4;" x="231.599582" xlink:href="#m9fc04ee5d0" y="186.777849"/>
     <use style="fill:#40b5c4;stroke:#40b5c4;" x="239.718652" xlink:href="#m9fc04ee5d0" y="187.593935"/>
     <use style="fill:#40b5c4;stroke:#40b5c4;" x="247.837722" xlink:href="#m9fc04ee5d0" y="188.287938"/>
     <use style="fill:#40b5c4;stroke:#40b5c4;" x="255.956792" xlink:href="#m9fc04ee5d0" y="188.871508"/>
     <use style="fill:#40b5c4;stroke:#40b5c4;" x="264.075862" xlink:href="#m9fc04ee5d0" y="189.352076"/>
     <use style="fill:#40b5c4;stroke:#40b5c4;" x="272.194932" xlink:href="#m9fc04ee5d0" y="189.719846"/>
     <use style="fill:#40b5c4;stroke:#40b5c4;" x="280.314002" xlink:href="#m9fc04ee5d0" y="189.9809"/>
     <use style="fill:#40b5c4;stroke:#40b5c4;" x="288.433072" xlink:href="#m9fc04ee5d0" y="190.128818"/>
     <use style="fill:#40b5c4;stroke:#40b5c4;" x="296.552142" xlink:href="#m9fc04ee5d0" y="190.199907"/>
     <use style="fill:#40b5c4;stroke:#40b5c4;" x="304.671212" xlink:href="#m9fc04ee5d0" y="190.286024"/>
     <use style="fill:#40b5c4;stroke:#40b5c4;" x="312.790282" xlink:href="#m9fc04ee5d0" y="190.544207"/>
     <use style="fill:#40b5c4;stroke:#40b5c4;" x="320.909352" xlink:href="#m9fc04ee5d0" y="190.673889"/>
     <use style="fill:#40b5c4;stroke:#40b5c4;" x="329.028422" xlink:href="#m9fc04ee5d0" y="190.740419"/>
     <use style="fill:#40b5c4;stroke:#40b5c4;" x="337.147492" xlink:href="#m9fc04ee5d0" y="190.777567"/>
     <use style="fill:#40b5c4;stroke:#40b5c4;" x="345.266562" xlink:href="#m9fc04ee5d0" y="190.769124"/>
     <use style="fill:#40b5c4;stroke:#40b5c4;" x="353.385632" xlink:href="#m9fc04ee5d0" y="190.776216"/>
     <use style="fill:#40b5c4;stroke:#40b5c4;" x="361.504702" xlink:href="#m9fc04ee5d0" y="190.864698"/>
     <use style="fill:#40b5c4;stroke:#40b5c4;" x="369.623772" xlink:href="#m9fc04ee5d0" y="191.039971"/>
    </g>
   </g>
   <g id="line2d_15">
    <path clip-path="url(#pf4fc548322)" d="M 69.218182 117.890086 
L 69.31967 118.162557 
L 69.421159 118.989888 
L 69.522647 118.449843 
L 69.624135 118.764053 
L 69.725624 117.257413 
L 69.827112 119.236594 
L 69.9286 117.794367 
L 70.131577 119.05018 
L 70.233066 117.531816 
L 70.334554 119.504169 
L 70.537531 117.939685 
L 70.639019 118.907696 
L 70.740507 117.623413 
L 70.841996 119.406517 
L 70.943484 117.929636 
L 71.044973 118.315604 
L 71.146461 119.184418 
L 71.247949 117.958236 
L 71.349438 119.764916 
L 71.450926 118.395606 
L 71.552414 118.442886 
L 71.653903 118.791623 
L 71.755391 117.939813 
L 71.85688 119.2831 
L 72.059856 118.441082 
L 72.161345 118.811848 
L 72.262833 118.26111 
L 72.364321 119.182099 
L 72.46581 118.527397 
L 72.668787 119.317369 
L 72.770275 118.384527 
L 72.871763 118.960773 
L 73.07474 118.163845 
L 73.176228 119.288253 
L 73.277717 117.76989 
L 73.480694 118.956651 
L 73.582182 118.086291 
L 73.68367 119.543719 
L 73.785159 118.166293 
L 73.886647 119.058554 
L 74.089624 117.252775 
L 74.191112 119.440657 
L 74.292601 118.111283 
L 74.394089 118.39522 
L 74.495577 118.197855 
L 74.597066 117.534521 
L 74.698554 118.991434 
L 74.800042 118.044164 
L 74.901531 119.065381 
L 75.104508 117.770405 
L 75.205996 119.325227 
L 75.307484 117.764865 
L 75.408973 118.085775 
L 75.510461 118.800769 
L 75.611949 117.868958 
L 75.713438 119.129022 
L 75.814926 117.616069 
L 76.017903 118.815069 
L 76.119391 118.654163 
L 76.22088 119.564718 
L 76.423856 118.284685 
L 76.525345 119.174241 
L 76.626833 118.029606 
L 76.728322 119.525941 
L 76.931298 117.665024 
L 77.032787 119.695993 
L 77.134275 118.240626 
L 77.235763 119.912424 
L 77.337252 119.623979 
L 77.43874 118.352835 
L 77.540229 120.000284 
L 77.641717 118.257503 
L 77.743205 119.662369 
L 77.844694 118.630073 
L 78.04767 119.820183 
L 78.149159 118.572358 
L 78.250647 119.787848 
L 78.352136 119.351508 
L 78.453624 119.431381 
L 78.555112 120.354947 
L 78.656601 119.450061 
L 78.758089 120.260903 
L 78.859577 119.080326 
L 78.961066 119.184161 
L 79.062554 120.525 
L 79.164043 119.432283 
L 79.265531 119.969237 
L 79.367019 119.894259 
L 79.468508 119.412315 
L 79.569996 120.587353 
L 79.671484 120.4316 
L 79.772973 120.744651 
L 79.97595 119.246127 
L 80.077438 120.975124 
L 80.178926 120.112493 
L 80.280415 120.132591 
L 80.381903 120.888036 
L 80.483391 119.357692 
L 80.58488 121.09429 
L 80.686368 120.120996 
L 80.787857 121.074064 
L 80.889345 120.799532 
L 80.990833 120.095231 
L 81.092322 121.67891 
L 81.19381 120.071784 
L 81.295298 120.13594 
L 81.396787 120.791029 
L 81.498275 120.000542 
L 81.599764 120.630896 
L 81.701252 119.8502 
L 81.904229 120.596757 
L 82.005717 120.065214 
L 82.107205 121.100216 
L 82.310182 119.227189 
L 82.411671 120.903496 
L 82.513159 119.305388 
L 82.614647 120.688998 
L 82.817624 118.992207 
L 82.919112 120.404675 
L 83.020601 119.237882 
L 83.122089 120.846683 
L 83.325066 119.308093 
L 83.426554 120.346573 
L 83.528043 119.339527 
L 83.629531 119.947336 
L 83.731019 119.109441 
L 83.832508 119.188154 
L 83.933996 119.963955 
L 84.035485 118.716001 
L 84.136973 119.987531 
L 84.238461 119.15234 
L 84.441438 120.056711 
L 84.542926 118.824602 
L 84.644415 119.980574 
L 84.847392 118.640121 
L 85.050368 119.787976 
L 85.151857 119.256691 
L 85.253345 119.409352 
L 85.354833 118.905764 
L 85.456322 120.531312 
L 85.55781 119.392217 
L 85.760787 119.868494 
L 85.862275 118.394962 
L 85.963764 120.491762 
L 86.065252 119.298173 
L 86.16674 119.676798 
L 86.268229 119.642401 
L 86.369717 118.61281 
L 86.471206 120.625099 
L 86.572694 119.145512 
L 86.674182 120.231917 
L 86.877159 118.757483 
L 86.978647 120.435722 
L 87.080136 120.216329 
L 87.181624 119.721372 
L 87.283113 120.035712 
L 87.384601 119.01385 
L 87.486089 120.347604 
L 87.689066 119.496697 
L 87.790554 120.689899 
L 87.892043 118.28417 
L 87.993531 120.955027 
L 88.196508 119.718023 
L 88.297996 121.086818 
L 88.399485 119.491286 
L 88.500973 120.64919 
L 88.70395 119.390285 
L 88.805438 120.707935 
L 88.906927 119.644978 
L 89.008415 121.052292 
L 89.109903 120.664134 
L 89.211392 119.68208 
L 89.31288 121.099829 
L 89.414368 120.077452 
L 89.515857 120.93931 
L 89.617345 120.126536 
L 89.718834 120.384449 
L 89.820322 121.421641 
L 89.92181 120.661557 
L 90.023299 121.466087 
L 90.226275 120.307281 
L 90.327764 121.427954 
L 90.429252 120.737308 
L 90.530741 121.579197 
L 90.733717 120.261289 
L 90.835206 122.067583 
L 90.936694 120.883914 
L 91.038182 122.30424 
L 91.241159 121.233552 
L 91.342648 121.641808 
L 91.444136 120.974222 
L 91.545624 121.72065 
L 91.748601 120.403515 
L 91.850089 121.613852 
L 91.951578 120.947684 
L 92.053066 121.124307 
L 92.154555 122.125169 
L 92.256043 120.768613 
L 92.357531 122.140757 
L 92.45902 120.472438 
L 92.661996 121.445088 
L 92.763485 120.401454 
L 92.864973 122.414774 
L 92.966462 120.290533 
L 93.169438 121.643354 
L 93.270927 120.828003 
L 93.372415 122.479832 
L 93.473903 120.573053 
L 93.67688 121.42177 
L 93.778369 120.399522 
L 93.879857 121.865968 
L 93.981345 121.524188 
L 94.082834 120.418717 
L 94.184322 121.402703 
L 94.28581 120.77995 
L 94.387299 122.328975 
L 94.590276 121.005399 
L 94.691764 122.193835 
L 94.793252 120.108113 
L 94.894741 122.223594 
L 94.996229 120.908005 
L 95.097717 121.57778 
L 95.300694 120.91406 
L 95.402183 121.652758 
L 95.605159 121.352718 
L 95.706648 122.248071 
L 95.808136 120.890613 
L 95.909624 121.938627 
L 96.112601 120.817697 
L 96.21409 122.849181 
L 96.315578 120.555919 
L 96.417066 122.483826 
L 96.620043 121.095191 
L 96.721531 122.627211 
L 96.82302 121.029876 
L 96.924508 122.388236 
L 97.127485 121.183438 
L 97.228973 122.323306 
L 97.330462 122.178375 
L 97.43195 122.517192 
L 97.634927 121.222473 
L 97.736415 122.614972 
L 97.837904 121.980882 
L 97.939392 122.036149 
L 98.04088 122.468753 
L 98.142369 120.880951 
L 98.243857 123.202942 
L 98.345345 121.702614 
L 98.446834 122.99656 
L 98.548322 122.867346 
L 98.649811 121.603159 
L 98.751299 123.069863 
L 98.852787 122.318282 
L 98.954276 122.345465 
L 99.055764 122.875333 
L 99.157252 121.99763 
L 99.258741 123.059557 
L 99.360229 122.213674 
L 99.461718 122.409492 
L 99.563206 123.425299 
L 99.664694 123.359081 
L 99.766183 122.9087 
L 99.867671 123.107996 
L 99.969159 122.738389 
L 100.172136 123.068446 
L 100.273625 123.282815 
L 100.375113 122.635971 
L 100.679578 124.51647 
L 100.781066 123.358051 
L 100.882555 123.79774 
L 101.085532 123.198047 
L 101.288508 123.807917 
L 101.389997 123.098592 
L 101.592973 124.024734 
L 101.694462 124.120067 
L 101.79595 124.51093 
L 101.998927 123.510196 
L 102.100415 123.153086 
L 102.201904 123.335248 
L 102.506369 122.344434 
L 102.607857 122.65594 
L 102.709346 122.537032 
L 102.810834 122.036407 
L 102.912322 122.144751 
L 103.013811 121.620165 
L 103.115299 121.839687 
L 103.318276 120.84037 
L 103.419764 120.838695 
L 103.521253 121.12611 
L 103.622741 120.501682 
L 103.724229 121.006429 
L 103.825718 120.680237 
L 103.927206 120.720947 
L 104.028694 120.546901 
L 104.130183 120.625743 
L 104.231671 121.015705 
L 104.33316 119.823919 
L 104.434648 120.813832 
L 104.536136 120.242223 
L 104.637625 121.48219 
L 104.739113 120.137744 
L 104.840601 121.067751 
L 104.94209 120.298392 
L 105.043578 120.824267 
L 105.145067 120.251885 
L 105.246555 120.44036 
L 105.348043 120.37878 
L 105.55102 120.880693 
L 105.652508 121.130619 
L 105.753997 120.475916 
L 105.855485 120.675084 
L 105.956974 120.261032 
L 106.058462 120.682814 
L 106.15995 120.656147 
L 106.261439 120.284994 
L 106.362927 120.333304 
L 106.464415 120.648546 
L 106.565904 121.489276 
L 106.768881 120.745038 
L 106.971857 120.456077 
L 107.073346 120.887392 
L 107.276322 120.520877 
L 107.377811 120.317072 
L 107.479299 120.498848 
L 107.580788 121.63382 
L 107.783764 120.904269 
L 107.986741 120.703942 
L 108.088229 120.645583 
L 108.189718 121.072131 
L 108.392695 120.301355 
L 108.595671 121.42061 
L 109.001625 120.840886 
L 109.204602 121.312009 
L 109.30609 120.605646 
L 109.407578 120.778018 
L 109.610555 121.574302 
L 109.712043 121.208431 
L 109.813532 121.500999 
L 109.91502 120.958376 
L 110.016509 121.258674 
L 110.219485 121.13384 
L 110.625439 121.680456 
L 110.726927 121.255969 
L 110.828416 121.409918 
L 110.929904 121.31291 
L 111.031392 121.624802 
L 111.132881 121.390465 
L 111.234369 121.885807 
L 111.538834 121.442898 
L 111.640323 121.376809 
L 111.843299 122.063461 
L 111.944788 121.61514 
L 112.046276 121.638458 
L 112.249253 122.000464 
L 112.350741 121.635753 
L 112.45223 121.762648 
L 112.655206 121.198898 
L 112.756695 121.397293 
L 112.858183 121.303892 
L 113.06116 121.561677 
L 113.264137 121.683548 
L 113.365625 121.00089 
L 113.467113 121.251975 
L 113.568602 121.048685 
L 113.67009 121.435297 
L 113.974555 120.682299 
L 114.076044 120.918955 
L 114.177532 121.445603 
L 114.27902 121.330431 
L 114.380509 120.70523 
L 114.583485 120.818469 
L 114.684974 121.297838 
L 114.887951 120.404031 
L 114.989439 120.751608 
L 115.090927 120.531441 
L 115.192416 121.223762 
L 115.395392 120.492922 
L 115.496881 120.571893 
L 115.598369 120.435465 
L 115.801346 120.9701 
L 115.902834 120.097678 
L 116.105811 120.439845 
L 116.207299 121.019827 
L 116.511765 120.018836 
L 116.613253 120.336654 
L 116.714741 120.189146 
L 116.81623 121.08102 
L 116.917718 119.696251 
L 117.019206 120.260903 
L 117.120695 119.78759 
L 117.222183 120.915348 
L 117.323672 120.210016 
L 117.42516 120.550508 
L 117.526648 119.728716 
L 117.831113 120.284994 
L 118.03409 120.322998 
L 118.135579 119.810392 
L 118.237067 120.639657 
L 118.338555 120.059416 
L 118.440044 120.405448 
L 118.541532 119.662885 
L 118.744509 119.943471 
L 118.845997 120.147921 
L 118.947486 119.87442 
L 119.048974 119.963053 
L 119.150462 120.33704 
L 119.251951 120.219034 
L 119.353439 120.337298 
L 119.556416 119.87545 
L 119.657904 120.006855 
L 119.759393 119.794675 
L 119.860881 119.926595 
L 120.063858 119.716219 
L 120.165346 120.348764 
L 120.266834 120.213623 
L 120.368323 120.326992 
L 120.469811 119.81838 
L 120.5713 120.083378 
L 120.672788 119.863727 
L 120.875765 120.117775 
L 120.977253 119.07762 
L 121.078741 120.676501 
L 121.281718 119.52826 
L 121.383207 120.418202 
L 121.484695 119.413732 
L 121.586183 120.701623 
L 121.687672 119.322779 
L 121.890648 120.532472 
L 121.992137 118.85784 
L 122.093625 120.64919 
L 122.296602 119.641628 
L 122.39809 120.652926 
L 122.499579 119.509193 
L 122.601067 120.920501 
L 122.702555 119.634929 
L 122.804044 119.822245 
L 122.905532 120.792189 
L 123.007021 119.362716 
L 123.108509 120.937893 
L 123.311486 119.625525 
L 123.412974 121.317548 
L 123.514462 119.835385 
L 123.615951 121.044562 
L 123.717439 119.800344 
L 123.818928 120.144958 
L 123.920416 121.171586 
L 124.021904 119.876739 
L 124.123393 121.253778 
L 124.326369 120.094844 
L 124.427858 121.351043 
L 124.529346 120.573568 
L 124.630835 121.379772 
L 124.732323 120.248278 
L 124.833811 120.507222 
L 124.9353 121.558585 
L 125.036788 119.928141 
L 125.138276 122.009224 
L 125.341253 120.623038 
L 125.442742 121.910285 
L 125.54423 120.679207 
L 125.645718 121.812891 
L 125.747207 120.641074 
L 125.848695 121.059249 
L 125.950183 122.106103 
L 126.051672 120.401583 
L 126.15316 122.358992 
L 126.356137 121.072389 
L 126.457625 122.315448 
L 126.559114 121.485024 
L 126.660602 121.983072 
L 126.863579 121.254551 
L 126.965067 122.765959 
L 127.066556 121.244632 
L 127.168044 122.785025 
L 127.371021 121.455394 
L 127.472509 123.040233 
L 127.573997 122.072994 
L 127.675486 122.57233 
L 127.878463 121.79975 
L 127.979951 122.946317 
L 128.081439 121.911573 
L 128.182928 122.943354 
L 128.385904 122.061013 
L 128.487393 122.881904 
L 128.588881 122.312485 
L 128.69037 122.37342 
L 128.791858 122.243433 
L 128.893346 121.438002 
L 128.994835 122.715973 
L 129.2993 121.939786 
L 129.603765 122.551074 
L 129.705253 121.922523 
L 130.111207 122.614328 
L 130.314184 121.953313 
L 130.51716 122.299473 
L 130.720137 122.21084 
L 130.821625 122.065909 
L 130.923114 122.154413 
L 131.024602 122.720225 
L 131.126091 122.548368 
L 131.227579 122.084589 
L 131.329067 122.241887 
L 131.430556 122.134831 
L 131.633532 122.489494 
L 131.836509 122.064363 
L 131.937998 122.134831 
L 132.039486 123.107352 
L 132.242463 122.334257 
L 132.343951 122.403308 
L 132.445439 122.127488 
L 132.648416 122.738905 
L 132.749905 122.243433 
L 132.851393 122.300633 
L 132.952881 122.414645 
L 133.05437 123.106708 
L 133.358835 122.511008 
L 133.6633 123.004548 
L 133.764788 122.447883 
L 133.866277 122.739034 
L 133.967765 122.582121 
L 134.069253 123.282687 
L 134.27223 123.039975 
L 134.373719 123.051827 
L 134.475207 122.892467 
L 134.678184 123.324169 
L 134.779672 122.74715 
L 134.88116 123.221365 
L 134.982649 123.082875 
L 135.084137 123.751877 
L 135.287114 123.423109 
L 135.388602 123.291576 
L 135.591579 123.468199 
L 135.693067 123.891655 
L 135.794556 123.067673 
L 136.099021 124.6033 
L 136.200509 124.083609 
L 136.301998 124.104865 
L 136.403486 124.110276 
L 136.504974 123.83948 
L 136.707951 124.630225 
L 136.80944 124.092111 
L 137.012416 124.47576 
L 137.113905 125.252463 
L 137.316881 124.845754 
L 137.519858 124.898315 
L 137.621347 124.784947 
L 137.722835 125.682361 
L 137.824323 124.723238 
L 138.128788 126.122437 
L 138.331765 125.773185 
L 138.63623 125.878308 
L 138.737719 126.639422 
L 138.839207 125.555723 
L 139.143672 127.270034 
L 139.346649 126.927224 
L 139.448137 126.656943 
L 139.549626 127.162334 
L 139.651114 126.897336 
L 139.752602 127.401696 
L 139.854091 126.932634 
L 139.955579 127.474999 
L 140.057068 127.302756 
L 140.158556 128.196692 
L 140.260044 127.642218 
L 140.361533 127.816135 
L 140.463021 127.597901 
L 140.767486 128.24088 
L 140.868975 127.769371 
L 141.17344 128.911686 
L 141.274928 128.51013 
L 141.376416 128.787883 
L 141.477905 128.515283 
L 141.78237 129.262999 
L 141.883858 128.779122 
L 142.188323 130.796307 
L 142.289812 130.242477 
L 142.594277 131.052546 
L 142.695765 130.561326 
L 142.797254 131.255192 
L 142.898742 130.911995 
L 143.203207 131.985387 
L 143.304696 131.54879 
L 143.609161 131.805157 
L 143.710649 131.405405 
L 143.812137 132.032281 
L 143.913626 131.506792 
L 144.015114 132.158017 
L 144.116603 132.063715 
L 144.218091 132.429843 
L 144.319579 132.036017 
L 144.421068 132.179531 
L 144.522556 132.078401 
L 144.827021 132.584694 
L 144.92851 132.169225 
L 145.029998 132.744183 
L 145.131486 132.353319 
L 145.232975 133.145739 
L 145.435951 132.660831 
L 145.53744 133.186706 
L 145.638928 132.476865 
L 145.841905 133.262972 
L 145.943393 132.976975 
L 146.247858 133.706784 
L 146.349347 133.651259 
L 146.552324 133.413829 
L 146.653812 133.431092 
L 146.856789 134.200709 
L 146.958277 133.655768 
L 147.059765 133.929398 
L 147.161254 133.745561 
L 147.262742 134.461328 
L 147.364231 133.946275 
L 147.465719 134.26332 
L 147.567207 133.502463 
L 147.668696 133.90505 
L 147.770184 133.584269 
L 147.871672 134.186281 
L 148.074649 133.473219 
L 148.277626 134.327347 
L 148.379114 133.931331 
L 148.886556 135.122085 
L 148.988044 134.82153 
L 149.393998 136.067037 
L 149.495486 136.046682 
L 149.90144 136.934563 
L 150.002928 136.730113 
L 150.205905 137.224554 
L 150.307393 138.04158 
L 150.408882 137.712425 
L 150.51037 138.156752 
L 150.611858 138.02947 
L 150.916324 138.61525 
L 151.017812 138.58665 
L 151.220789 138.866206 
L 151.322277 139.703715 
L 151.423765 139.507124 
L 151.525254 139.814894 
L 151.626742 139.729094 
L 151.931207 140.17793 
L 152.235672 140.393974 
L 152.438649 141.43194 
L 152.540138 141.356962 
L 152.641626 141.116956 
L 152.946091 142.00226 
L 153.149068 141.654683 
L 153.453533 142.866694 
L 153.65651 142.707334 
L 153.960975 144.33984 
L 154.062463 143.907236 
L 154.26544 144.86288 
L 154.366928 146.112123 
L 154.468417 145.818911 
L 154.87437 146.775457 
L 154.975859 147.443042 
L 155.077347 147.171989 
L 155.381812 149.153875 
L 155.4833 149.063695 
L 155.584789 149.56767 
L 155.686277 149.16534 
L 155.889254 150.244917 
L 155.990742 150.398609 
L 156.396696 152.34365 
L 156.498184 152.255789 
L 156.599673 152.597827 
L 156.701161 152.391703 
L 156.802649 153.372984 
L 156.904138 153.092654 
L 157.005626 153.32944 
L 157.208603 154.710473 
L 157.310091 154.616042 
L 157.41158 154.81521 
L 157.513068 154.739331 
L 157.716045 156.018977 
L 157.817533 155.426884 
L 158.121998 157.919444 
L 158.223487 157.160004 
L 158.324975 157.528709 
L 158.426463 157.476147 
L 158.527952 157.595313 
L 158.62944 158.518493 
L 158.730928 158.1199 
L 158.933905 159.808574 
L 159.035394 159.623448 
L 159.23837 160.020109 
L 159.745812 162.227572 
L 159.847301 162.67293 
L 159.948789 164.045589 
L 160.050277 163.989034 
L 160.151766 164.468917 
L 160.253254 164.29165 
L 160.557719 166.440755 
L 160.659208 165.841964 
L 160.963673 168.634949 
L 161.065161 168.132521 
L 161.166649 169.245335 
L 161.268138 168.490662 
L 161.471115 170.013792 
L 161.572603 170.970467 
L 161.674091 170.155245 
L 161.978556 172.853671 
L 162.181533 172.993449 
L 162.587487 174.532039 
L 162.688975 174.876009 
L 162.99344 177.117097 
L 163.094929 176.633477 
L 163.399394 178.034222 
L 163.500882 178.258897 
L 163.60237 179.237473 
L 163.703859 179.182463 
L 164.312789 182.177837 
L 164.414277 182.31929 
L 164.617254 184.111155 
L 164.718743 183.817557 
L 164.921719 185.050825 
L 165.023208 186.26348 
L 165.124696 186.124733 
L 165.632138 189.335378 
L 165.733626 189.038559 
L 166.13958 192.000953 
L 166.241068 191.792638 
L 166.647022 194.54646 
L 166.74851 194.02883 
L 167.052975 196.967649 
L 167.154464 196.502066 
L 167.560417 198.854718 
L 167.661905 199.169315 
L 168.067859 201.418519 
L 168.270836 202.096926 
L 168.473812 203.086065 
L 168.575301 203.210899 
L 168.676789 204.307352 
L 168.778278 204.133048 
L 169.082743 206.619037 
L 169.184231 206.41768 
L 169.387208 207.628016 
L 169.590185 208.071699 
L 169.691673 209.410735 
L 169.793161 208.676932 
L 170.097626 211.715721 
L 170.199115 211.415294 
L 170.50358 211.944905 
L 170.706557 213.641051 
L 170.808045 213.314988 
L 171.11251 215.992158 
L 171.213999 215.633115 
L 171.315487 215.760783 
L 172.025906 218.559179 
L 172.127394 219.40648 
L 172.228882 218.597312 
L 172.330371 218.823663 
L 172.431859 218.469 
L 172.533347 219.005954 
L 172.736324 218.757445 
L 172.837813 218.828945 
L 172.939301 219.16029 
L 173.040789 218.685946 
L 173.142278 219.891902 
L 173.345254 219.265156 
L 173.446743 219.058773 
L 173.64972 219.254205 
L 173.751208 219.572796 
L 173.852696 218.969882 
L 174.157161 219.788969 
L 174.461627 219.502714 
L 174.664603 219.846684 
L 174.766092 220.046109 
L 174.86758 219.651639 
L 174.969068 219.754057 
L 175.172045 220.73946 
L 175.273534 220.081923 
L 175.577999 220.28676 
L 175.679487 220.3142 
L 175.780975 220.75376 
L 175.882464 219.869229 
L 175.983952 220.3142 
L 176.085441 220.145307 
L 176.186929 221.148102 
L 176.491394 220.537974 
L 176.795859 220.704161 
L 177.100324 220.667832 
L 177.201813 221.572847 
L 177.303301 220.725032 
L 177.404789 221.18237 
L 177.709255 220.65817 
L 177.810743 221.255415 
L 177.912231 220.880011 
L 178.115208 220.997889 
L 178.216696 221.687632 
L 178.62265 221.024814 
L 178.825627 221.585343 
L 178.927115 220.674789 
L 179.130092 221.35384 
L 179.23158 221.898266 
L 179.434557 221.562541 
L 179.536045 221.721385 
L 179.637534 221.451491 
L 179.84051 221.84171 
L 179.941999 221.51642 
L 180.246464 222.692489 
L 180.550929 222.312576 
L 180.652417 222.369775 
L 180.753906 222.804311 
L 180.956883 222.223556 
L 181.058371 223.101259 
L 181.159859 222.939065 
L 181.261348 223.333922 
L 181.565813 223.127927 
L 181.667301 223.025637 
L 181.870278 223.639502 
L 181.971766 223.187832 
L 182.276231 224.112686 
L 182.37772 223.952553 
L 182.479208 223.729939 
L 182.580697 223.967755 
L 182.682185 223.722982 
L 182.885162 224.185731 
L 182.98665 223.893679 
L 183.189627 224.115907 
L 183.291115 224.83863 
L 183.494092 224.502905 
L 183.59558 224.276813 
L 183.697069 224.634954 
L 183.798557 224.586901 
L 183.900045 224.828453 
L 184.001534 224.49247 
L 184.103022 224.607385 
L 184.305999 225.115996 
L 184.407487 225.216869 
L 184.508976 225.058539 
L 184.610464 225.224341 
L 184.711952 225.151939 
L 184.813441 224.913995 
L 184.914929 225.25629 
L 185.016418 225.181827 
L 185.117906 224.815055 
L 185.320883 225.645994 
L 185.422371 225.495008 
L 185.523859 225.09036 
L 185.625348 225.149621 
L 185.726836 225.01448 
L 185.828325 225.37494 
L 186.031301 224.708643 
L 186.13279 225.094869 
L 186.234278 225.033933 
L 186.335766 225.611983 
L 186.437255 225.557876 
L 186.640232 225.004045 
L 186.74172 225.097574 
L 186.843208 225.024915 
L 186.944697 225.139958 
L 187.147673 224.986911 
L 187.249162 225.153743 
L 187.35065 225.580936 
L 187.655115 224.942852 
L 187.756604 224.93319 
L 188.061069 225.159283 
L 188.162557 225.159154 
L 188.264046 224.996058 
L 188.467022 225.226144 
L 188.568511 224.51334 
L 188.669999 225.047975 
L 188.771487 224.866071 
L 188.872976 225.706414 
L 188.974464 225.064208 
L 189.075953 225.276516 
L 189.278929 224.880499 
L 189.481906 225.704997 
L 189.583394 224.939245 
L 189.786371 225.88162 
L 189.88786 225.824163 
L 189.989348 225.973732 
L 190.192325 225.855983 
L 190.49679 226.083493 
L 190.598278 225.998982 
L 190.801255 226.329812 
L 190.902743 226.787021 
L 191.004232 226.25419 
L 191.10572 226.511459 
L 191.207208 226.085554 
L 191.308697 226.523053 
L 191.410185 226.321309 
L 191.511674 226.786892 
L 191.613162 226.291292 
L 191.816139 226.606534 
L 191.917627 227.260077 
L 192.120604 226.705344 
L 192.222092 226.727632 
L 192.526557 227.09157 
L 192.628046 226.619545 
L 192.831022 227.29821 
L 192.932511 227.179946 
L 193.033999 227.332478 
L 193.236976 227.021617 
L 193.338464 227.128157 
L 193.439953 227.407456 
L 193.642929 227.216533 
L 193.845906 227.575833 
L 193.947395 227.827434 
L 194.048883 227.562307 
L 194.150371 227.760572 
L 194.353348 227.378469 
L 194.556325 227.807337 
L 194.657813 227.311865 
L 194.962278 228.532122 
L 195.063767 227.890044 
L 195.165255 228.162644 
L 195.266743 227.6378 
L 195.46972 227.998131 
L 195.672697 228.023252 
L 195.774185 228.473119 
L 195.875674 228.146283 
L 195.977162 228.71261 
L 196.180139 228.374437 
L 196.383116 228.212758 
L 196.586092 228.469512 
L 196.789069 228.619596 
L 196.890557 228.430606 
L 196.992046 229.378778 
L 197.093534 228.630933 
L 197.195023 228.834996 
L 197.296511 228.636601 
L 197.499488 228.815028 
L 197.600976 228.781532 
L 198.108418 229.320676 
L 198.311395 229.10154 
L 198.514371 229.331112 
L 198.61586 229.099222 
L 198.818837 229.449891 
L 198.920325 229.436879 
L 199.021813 230.012997 
L 199.123302 229.319388 
L 199.22479 229.905426 
L 199.326278 229.389213 
L 199.427767 229.661812 
L 199.630744 229.515593 
L 199.83372 229.814087 
L 199.935209 229.892414 
L 200.036697 230.19181 
L 200.138185 230.000501 
L 200.239674 230.199926 
L 200.341162 229.810093 
L 200.544139 229.975637 
L 200.848604 230.163725 
L 200.950092 230.364181 
L 201.051581 230.934888 
L 201.153069 230.28186 
L 201.254558 230.510916 
L 201.356046 230.084883 
L 201.457534 230.677104 
L 201.559023 230.354261 
L 202.066465 231.271902 
L 202.269441 230.774884 
L 202.37093 231.028932 
L 202.472418 230.963488 
L 202.573906 231.217794 
L 202.776883 230.966966 
L 202.97986 231.467977 
L 203.182837 231.645502 
L 203.284325 231.197439 
L 203.385813 231.282465 
L 203.487302 231.783992 
L 203.791767 231.497608 
L 204.096232 232.183616 
L 204.299209 232.301106 
L 204.400697 232.673676 
L 204.502186 232.602563 
L 204.705162 232.719539 
L 204.806651 232.694031 
L 204.908139 232.96341 
L 205.111116 233.638725 
L 205.212604 233.75351 
L 205.314093 233.459783 
L 205.618558 234.097352 
L 205.720046 233.814188 
L 205.821534 233.890841 
L 206.024511 235.177186 
L 206.126 234.894151 
L 206.227488 234.448021 
L 206.430465 234.744711 
L 206.531953 234.79753 
L 206.633441 235.005458 
L 206.73493 234.85692 
L 207.039395 235.600771 
L 207.140883 235.428915 
L 207.242372 235.478772 
L 207.34386 235.267881 
L 207.648325 235.988414 
L 207.749814 235.409462 
L 207.851302 235.914854 
L 207.95279 235.754592 
L 208.054279 236.368714 
L 208.155767 236.029253 
L 208.257255 236.479892 
L 208.460232 235.990604 
L 208.663209 236.589524 
L 208.866186 236.232027 
L 208.967674 236.571617 
L 209.069162 237.404489 
L 209.170651 236.651362 
L 209.272139 236.868823 
L 209.373628 236.699543 
L 209.678093 237.302328 
L 209.779581 236.60099 
L 210.084046 237.734545 
L 210.185535 237.086155 
L 210.287023 237.275403 
L 210.388511 236.939549 
L 210.692976 237.495055 
L 210.794465 236.851302 
L 210.997442 237.429224 
L 211.09893 237.757992 
L 211.200418 237.426132 
L 211.301907 237.49222 
L 211.403395 237.375503 
L 211.504883 237.552641 
L 211.606372 237.39882 
L 211.809349 237.690873 
L 212.012325 237.585749 
L 212.113814 237.65158 
L 212.215302 237.523139 
L 212.31679 237.981251 
L 212.418279 237.480755 
L 212.722744 238.278199 
L 212.824232 237.894292 
L 212.925721 237.984729 
L 213.027209 237.705044 
L 213.331674 238.365028 
L 213.433163 237.581756 
L 213.737628 238.496562 
L 213.839116 238.131721 
L 213.940604 238.299197 
L 214.042093 237.99014 
L 214.346558 238.60658 
L 214.448046 237.645139 
L 214.549535 238.513567 
L 214.651023 238.226539 
L 214.752511 238.868616 
L 215.056977 238.076197 
L 215.158465 238.594986 
L 215.259953 238.355624 
L 215.361442 238.569478 
L 215.46293 238.385254 
L 215.767395 238.925687 
L 215.868884 238.690963 
L 215.970372 238.853414 
L 216.07186 238.4869 
L 216.274837 238.695214 
L 216.376325 238.793252 
L 216.477814 238.647548 
L 216.782279 239.287822 
L 216.985256 238.780627 
L 217.086744 239.091746 
L 217.188232 238.890388 
L 217.289721 239.100893 
L 217.492698 238.8176 
L 217.695674 239.345665 
L 217.797163 239.21761 
L 217.898651 239.097285 
L 218.101628 239.384958 
L 218.203116 239.023338 
L 218.304605 239.166852 
L 218.406093 239.505412 
L 218.60907 239.332654 
L 218.710558 239.473978 
L 218.812046 239.382896 
L 218.913535 239.070232 
L 219.218 239.789348 
L 219.319488 239.450145 
L 219.725442 239.688991 
L 219.928419 239.408533 
L 220.131395 239.930286 
L 220.232884 239.988645 
L 220.43586 239.708831 
L 220.638837 239.805452 
L 220.740326 240.023042 
L 220.841814 239.431593 
L 221.146279 240.582412 
L 221.247767 239.858529 
L 221.349256 240.075088 
L 221.450744 239.650729 
L 221.755209 239.903361 
L 221.856698 239.505669 
L 221.958186 239.606928 
L 222.059674 239.519067 
L 222.161163 240.067616 
L 222.465628 239.253296 
L 222.567116 239.400675 
L 222.770093 239.562611 
L 222.871581 239.151522 
L 223.074558 239.447182 
L 223.176047 238.764523 
L 223.277535 239.13967 
L 223.379023 238.920405 
L 223.480512 239.590309 
L 223.582 238.847102 
L 223.683488 238.928006 
L 223.987954 238.391825 
L 224.089442 238.619463 
L 224.19093 237.988336 
L 224.292419 238.205797 
L 224.393907 238.019126 
L 224.495395 238.492697 
L 224.799861 237.37138 
L 224.901349 237.729779 
L 225.104326 237.330413 
L 225.205814 237.151729 
L 225.510279 237.288415 
L 225.713256 236.717837 
L 225.814744 236.630234 
L 225.916233 236.951402 
L 226.220698 236.502308 
L 226.423675 236.69993 
L 226.626651 236.329035 
L 226.829628 237.040035 
L 227.032605 236.598156 
L 227.134093 236.418184 
L 227.438558 236.700574 
L 227.540047 235.811276 
L 227.641535 236.610008 
L 227.743023 236.253928 
L 227.844512 236.980517 
L 227.946 236.321563 
L 228.047489 236.493548 
L 228.148977 236.181913 
L 228.351954 236.231126 
L 228.55493 236.179079 
L 228.859396 236.550876 
L 228.960884 236.060042 
L 229.062372 236.086967 
L 229.163861 236.18114 
L 229.569814 235.849796 
L 229.772791 236.386234 
L 229.975768 236.145455 
L 230.178744 235.8306 
L 230.381721 236.166841 
L 230.48321 235.517033 
L 230.787675 236.274412 
L 230.990651 235.907639 
L 231.09214 235.662609 
L 231.193628 235.912019 
L 231.295117 235.653204 
L 231.396605 235.993567 
L 231.498093 235.344533 
L 231.802558 236.24388 
L 232.005535 235.761935 
L 232.107024 235.408045 
L 232.31 235.593042 
L 232.512977 235.577583 
L 232.614465 235.754463 
L 232.715954 235.623574 
L 232.817442 235.939331 
L 233.020419 235.483538 
L 233.324884 235.6295 
L 233.527861 235.21738 
L 233.730838 235.817073 
L 234.238279 235.42067 
L 234.339768 235.670467 
L 234.441256 235.151034 
L 234.644233 235.477612 
L 234.745721 236.194796 
L 234.84721 235.44708 
L 234.948698 235.558774 
L 235.050186 235.226527 
L 235.354652 235.776235 
L 235.45614 235.006747 
L 235.659117 235.535585 
L 235.760605 235.899781 
L 235.862093 235.476453 
L 235.963582 235.598453 
L 236.06507 235.20205 
L 236.268047 235.502991 
L 236.471024 235.240183 
L 236.674 235.589563 
L 236.775489 235.768248 
L 236.876977 235.498482 
L 236.978466 235.541768 
L 237.181442 235.441669 
L 237.282931 235.5866 
L 237.485907 235.30756 
L 237.587396 235.34814 
L 237.688884 236.057595 
L 237.891861 235.475937 
L 237.993349 235.61739 
L 238.094838 235.442829 
L 238.196326 235.502347 
L 238.297814 235.696104 
L 238.399303 235.29648 
L 238.60228 235.570368 
L 238.703768 236.209354 
L 238.805256 235.685025 
L 238.906745 235.887284 
L 239.008233 235.403665 
L 239.21121 235.744801 
L 239.414187 235.560448 
L 239.617163 236.022038 
L 239.718652 236.036338 
L 239.921628 235.806509 
L 240.42907 235.952987 
L 240.530559 235.696362 
L 240.632047 236.504369 
L 240.733535 236.169546 
L 240.936512 236.192477 
L 241.038001 235.93727 
L 241.139489 236.077949 
L 241.240977 236.541085 
L 241.342466 235.902357 
L 241.545442 236.204458 
L 241.646931 236.966217 
L 241.748419 236.418184 
L 241.849908 236.444722 
L 241.951396 236.180883 
L 242.052884 236.390486 
L 242.154373 236.272093 
L 242.255861 236.580249 
L 242.357349 236.336764 
L 242.560326 236.845892 
L 242.661815 236.572777 
L 242.864791 236.797324 
L 242.96628 236.395381 
L 243.169256 236.772073 
L 243.270745 236.795262 
L 243.372233 236.571489 
L 243.676698 237.094658 
L 243.778187 236.768853 
L 243.879675 237.026251 
L 243.981163 236.856198 
L 244.18414 237.142582 
L 244.285629 236.515964 
L 244.590094 237.583559 
L 244.79307 237.106639 
L 244.894559 236.901674 
L 245.199024 237.554187 
L 245.300512 236.794103 
L 245.402001 237.292924 
L 245.503489 237.06039 
L 245.604977 237.734803 
L 245.706466 237.28017 
L 245.807954 237.418531 
L 245.909443 237.169378 
L 246.112419 237.497245 
L 246.315396 237.181746 
L 246.619861 237.718056 
L 246.72135 237.623238 
L 246.924326 237.280943 
L 247.025815 237.621821 
L 247.127303 237.558824 
L 247.228791 237.358755 
L 247.634745 237.882697 
L 247.93921 237.436825 
L 248.040698 237.7187 
L 248.142187 237.551739 
L 248.649629 237.973779 
L 248.852605 237.695382 
L 248.954094 237.657893 
L 249.157071 237.890556 
L 249.258559 237.51863 
L 249.461536 237.755544 
L 249.563024 238.197037 
L 249.664512 237.841988 
L 249.766001 237.926241 
L 249.867489 237.764434 
L 250.070466 237.820602 
L 250.171954 237.584719 
L 250.577908 238.281162 
L 250.679396 237.79664 
L 250.983861 237.889396 
L 251.08535 237.921217 
L 251.186838 237.77139 
L 251.288326 237.840055 
L 251.389815 237.647329 
L 251.491303 238.402389 
L 251.795768 237.751422 
L 251.897257 237.965276 
L 251.998745 237.905371 
L 252.100233 238.179259 
L 252.201722 237.63071 
L 252.30321 237.934357 
L 252.404699 237.754127 
L 252.506187 238.510217 
L 252.709164 237.979962 
L 252.810652 237.762759 
L 252.91214 237.880507 
L 253.013629 238.240452 
L 253.115117 237.566683 
L 253.419582 238.186087 
L 253.622559 238.153364 
L 253.724047 237.73841 
L 254.028513 238.197681 
L 254.130001 237.671033 
L 254.231489 237.941314 
L 254.332978 237.803726 
L 254.434466 238.509187 
L 254.637443 238.025567 
L 254.84042 237.878188 
L 254.941908 237.918254 
L 255.043396 238.209018 
L 255.144885 237.630839 
L 255.44935 238.402517 
L 255.753815 237.623238 
L 255.956792 238.049658 
L 256.159768 237.817639 
L 256.464234 238.221386 
L 256.66721 237.702854 
L 256.768699 237.988078 
L 256.870187 237.921475 
L 256.971675 238.010623 
L 257.073164 237.670518 
L 257.174652 237.804757 
L 257.276141 237.646556 
L 257.377629 238.754088 
L 257.580606 237.850877 
L 257.783582 237.83078 
L 257.986559 237.941829 
L 258.189536 237.707878 
L 258.291024 238.109821 
L 258.392513 238.043346 
L 258.494001 237.808879 
L 258.595489 237.890814 
L 258.696978 237.753741 
L 258.798466 237.956258 
L 259.001443 237.772421 
L 259.102931 237.578793 
L 259.305908 238.138163 
L 259.508885 237.81867 
L 259.711862 237.811584 
L 259.81335 237.549034 
L 259.914838 238.029432 
L 260.117815 237.552512 
L 260.219303 237.713933 
L 260.320792 238.290308 
L 260.42228 237.734545 
L 260.523769 237.948786 
L 260.625257 237.469031 
L 260.828234 237.794708 
L 261.03121 237.61641 
L 261.132699 237.649648 
L 261.335676 238.003409 
L 261.741629 237.527648 
L 261.843117 237.819443 
L 261.944606 237.313794 
L 262.046094 237.687652 
L 262.147583 237.613963 
L 262.249071 237.958577 
L 262.553536 237.411445 
L 262.756513 237.778733 
L 262.858001 237.269606 
L 263.060978 237.632643 
L 263.263955 237.704271 
L 263.365443 237.692548 
L 263.56842 237.476503 
L 263.771397 237.727073 
L 263.872885 237.222069 
L 264.17735 238.194332 
L 264.278838 237.537439 
L 264.380327 237.698087 
L 264.481815 237.422138 
L 264.78628 237.678119 
L 264.887769 237.337112 
L 264.989257 237.739827 
L 265.090745 237.585492 
L 265.192234 237.986533 
L 265.395211 237.496085 
L 265.496699 237.496601 
L 265.699676 237.912843 
L 265.801164 237.407452 
L 266.308606 237.914518 
L 266.410094 237.473927 
L 266.714559 238.047339 
L 266.816048 237.175304 
L 267.120513 238.227827 
L 267.222001 237.716381 
L 267.32349 238.109177 
L 267.424978 237.727718 
L 267.627955 237.953166 
L 267.830932 237.671033 
L 267.93242 238.682074 
L 268.033908 237.781696 
L 268.135397 238.060866 
L 268.338373 237.768556 
L 268.54135 238.115876 
L 268.642839 237.969141 
L 268.744327 238.655664 
L 268.947304 238.043346 
L 269.048792 238.11652 
L 269.15028 238.022862 
L 269.251769 238.467447 
L 269.454746 238.000575 
L 269.657722 238.638014 
L 269.759211 238.281806 
L 269.860699 238.4869 
L 269.962187 238.126568 
L 270.165164 238.398008 
L 270.266653 238.110336 
L 270.368141 238.373402 
L 270.469629 238.297136 
L 270.672606 238.851997 
L 270.875583 238.396205 
L 270.977071 238.256942 
L 271.180048 238.660688 
L 271.281536 238.270855 
L 271.484513 238.633248 
L 271.586001 238.988168 
L 271.68749 238.594471 
L 271.788978 238.673571 
L 271.890467 238.327926 
L 272.093443 238.68684 
L 272.194932 238.230661 
L 272.29642 239.385344 
L 272.397908 238.590864 
L 272.499397 238.885879 
L 272.600885 238.498365 
L 272.702374 238.835894 
L 273.006839 238.558657 
L 273.209815 239.045368 
L 273.412792 238.911516 
L 273.615769 238.882143 
L 273.717257 238.753831 
L 273.818746 239.108493 
L 273.920234 238.545903 
L 274.224699 239.382768 
L 274.326188 239.025786 
L 274.427676 239.084403 
L 274.529164 238.764652 
L 274.630653 239.06933 
L 274.732141 239.032099 
L 275.036606 238.985849 
L 275.239583 239.512884 
L 275.44256 239.093807 
L 275.544048 238.981727 
L 275.747025 239.31552 
L 275.848513 238.798405 
L 276.152978 239.780845 
L 276.254467 239.098058 
L 276.355955 239.322219 
L 276.457443 238.994996 
L 276.66042 239.328531 
L 276.964885 239.123051 
L 277.066374 239.648153 
L 277.26935 239.216838 
L 277.573816 239.644932 
L 277.675304 239.267467 
L 277.776792 239.439194 
L 277.979769 239.337163 
L 278.081257 239.665802 
L 278.182746 239.0616 
L 278.487211 239.984393 
L 278.690188 239.53092 
L 278.791676 239.379676 
L 278.893164 239.515847 
L 279.096141 239.433526 
L 279.19763 239.5496 
L 279.299118 239.386633 
L 279.502095 239.891122 
L 279.705071 239.456199 
L 279.80656 239.426054 
L 280.009537 239.847192 
L 280.111025 239.249044 
L 280.41549 240.075474 
L 280.618467 239.634884 
L 280.719955 239.609118 
L 280.821444 239.756626 
L 280.922932 239.700972 
L 281.125909 239.528987 
L 281.328885 240.117086 
L 281.531862 239.71772 
L 281.633351 239.653564 
L 281.734839 239.890864 
L 282.039304 239.689635 
L 282.343769 240.187168 
L 282.445258 239.711407 
L 282.546746 239.757785 
L 282.648234 239.92758 
L 282.749723 239.78033 
L 282.851211 240.055764 
L 282.952699 239.406858 
L 283.054188 239.860332 
L 283.155676 239.762552 
L 283.257165 240.334418 
L 283.358653 239.873988 
L 283.460141 240.140146 
L 283.56163 239.675207 
L 283.764606 239.995988 
L 283.967583 239.710248 
L 284.17056 240.265882 
L 284.475025 239.742197 
L 284.576513 240.040304 
L 284.678002 239.99354 
L 284.77949 240.270906 
L 284.880979 239.481192 
L 285.185444 240.351166 
L 285.38842 240.001012 
L 285.591397 239.938144 
L 285.692886 240.210486 
L 285.794374 239.796562 
L 285.895862 239.8441 
L 286.098839 240.624409 
L 286.200327 239.943941 
L 286.301816 240.262275 
L 286.403304 239.704837 
L 286.606281 240.138471 
L 286.707769 239.862393 
L 286.910746 240.244368 
L 287.519676 240.02317 
L 287.621165 240.50679 
L 287.722653 239.660778 
L 287.824141 240.153158 
L 287.92563 239.969063 
L 288.027118 240.849085 
L 288.128607 240.156378 
L 288.230095 240.392004 
L 288.331583 239.947549 
L 288.53456 240.356705 
L 288.737537 239.942524 
L 288.940514 240.675168 
L 289.14349 240.214351 
L 289.244979 240.181242 
L 289.346467 240.325143 
L 289.447955 240.146201 
L 289.549444 240.363791 
L 289.650932 239.999724 
L 289.955397 240.545052 
L 290.158374 240.193867 
L 290.361351 240.378091 
L 290.462839 240.369975 
L 290.564328 240.065297 
L 290.868793 240.792787 
L 291.071769 240.430266 
L 291.274746 240.262017 
L 291.477723 240.341375 
L 291.6807 240.300923 
L 291.782188 240.854496 
L 291.985165 240.465436 
L 292.086653 240.302598 
L 292.391118 240.534874 
L 292.492607 240.196315 
L 292.695583 240.498158 
L 292.797072 240.832724 
L 292.89856 240.460541 
L 293.000049 240.589111 
L 293.101537 240.365723 
L 293.304514 240.569658 
L 293.406002 240.240245 
L 293.710467 240.928958 
L 293.811956 240.504857 
L 293.913444 240.632268 
L 294.014932 240.253257 
L 294.116421 240.705442 
L 294.319397 240.504471 
L 294.522374 240.404372 
L 294.623862 241.025321 
L 294.725351 240.896751 
L 294.826839 240.492876 
L 294.928328 240.535647 
L 295.029816 240.42099 
L 295.232793 240.679161 
L 295.334281 240.094412 
L 295.537258 240.775911 
L 295.638746 240.970827 
L 295.841723 240.504471 
L 295.943211 240.70789 
L 296.146188 240.605858 
L 296.247676 240.3111 
L 296.349165 240.622091 
L 296.450653 240.508465 
L 296.552142 241.251285 
L 296.755118 240.644764 
L 296.958095 240.530236 
L 297.059583 240.713687 
L 297.161072 240.388139 
L 297.465537 241.063326 
L 297.668514 240.738293 
L 297.87149 240.536034 
L 298.074467 240.581252 
L 298.277444 240.571204 
L 298.378932 240.950344 
L 298.480421 240.877298 
L 298.581909 240.5694 
L 298.683397 240.755556 
L 298.886374 240.546469 
L 298.987863 240.799744 
L 299.089351 240.157667 
L 299.190839 240.810566 
L 299.292328 240.647727 
L 299.393816 241.105323 
L 299.596793 240.611656 
L 299.79977 240.657261 
L 299.901258 240.989507 
L 300.002746 240.307493 
L 300.104235 240.426272 
L 300.307211 241.279627 
L 300.4087 240.627759 
L 300.510188 240.741643 
L 300.611677 240.542604 
L 300.713165 240.751047 
L 300.916142 240.625569 
L 301.01763 240.308524 
L 301.220607 241.170253 
L 301.423584 240.670143 
L 301.525072 240.552008 
L 301.728049 240.660224 
L 301.829537 240.556388 
L 301.931025 240.688695 
L 302.032514 240.59581 
L 302.134002 240.998139 
L 302.235491 240.731208 
L 302.336979 240.961036 
L 302.539956 240.565793 
L 302.742932 240.841355 
L 302.844421 240.261888 
L 303.148886 241.061393 
L 303.351863 240.637163 
L 303.453351 240.786346 
L 303.554839 240.692302 
L 303.656328 240.88258 
L 303.757816 240.309426 
L 303.960793 240.633041 
L 304.062281 241.396345 
L 304.16377 240.718969 
L 304.265258 240.859262 
L 304.366746 240.401537 
L 304.569723 240.760838 
L 304.7727 240.587178 
L 304.874188 240.685345 
L 304.975677 241.208643 
L 305.178653 240.672205 
L 305.38163 240.689468 
L 305.686095 240.571719 
L 305.787584 240.582283 
L 305.889072 241.085098 
L 306.295026 240.64747 
L 306.396514 240.65842 
L 306.498002 240.812369 
L 306.599491 240.438253 
L 306.700979 240.839423 
L 307.005444 240.498802 
L 307.309909 241.063712 
L 307.512886 240.625569 
L 307.715863 240.609208 
L 307.817351 241.061264 
L 307.91884 240.318959 
L 308.223305 241.249868 
L 308.426281 240.599417 
L 308.730747 240.896107 
L 308.832235 240.324499 
L 309.1367 241.218821 
L 309.238188 240.523409 
L 309.339677 240.896107 
L 309.441165 240.556904 
L 309.644142 240.754139 
L 309.74563 240.425499 
L 310.050095 241.222686 
L 310.253072 240.659322 
L 310.354561 240.596969 
L 310.557537 240.667824 
L 310.659026 240.683541 
L 310.862002 240.574811 
L 310.963491 241.270996 
L 311.064979 240.775396 
L 311.166468 240.806443 
L 311.673909 240.597356 
L 311.775398 240.739582 
L 311.876886 241.138175 
L 312.079863 240.824737 
L 312.181351 240.650819 
L 312.384328 240.70016 
L 312.688793 240.671174 
L 312.790282 241.001102 
L 312.89177 240.957172 
L 312.993258 240.890439 
L 313.196235 240.603539 
L 313.399212 240.933725 
L 313.5007 240.402182 
L 313.703677 240.901904 
L 313.805165 240.922646 
L 313.906654 240.717938 
L 314.008142 240.912597 
L 314.10963 240.628146 
L 314.312607 240.90126 
L 314.414096 240.430008 
L 314.515584 240.564891 
L 314.718561 241.20684 
L 314.921537 240.595681 
L 315.124514 240.816363 
L 315.226003 240.912468 
L 315.327491 240.413003 
L 315.631956 241.194343 
L 315.834933 240.7343 
L 316.139398 240.885801 
L 316.240886 240.552652 
L 316.342375 240.771917 
L 316.443863 240.683541 
L 316.545351 241.360789 
L 316.64684 240.858103 
L 316.748328 240.91672 
L 316.951305 240.608177 
L 317.052793 241.193055 
L 317.154282 240.55072 
L 317.25577 240.630078 
L 317.357258 240.857974 
L 317.458747 241.360918 
L 317.560235 240.847024 
L 317.661724 240.995691 
L 317.763212 240.450106 
L 317.966189 240.88155 
L 318.169165 240.725282 
L 318.270654 240.822418 
L 318.372142 241.371224 
L 318.473631 240.91453 
L 318.575119 241.000587 
L 318.778096 240.734815 
L 318.879584 240.975207 
L 319.082561 240.82216 
L 319.184049 240.755041 
L 319.285538 241.547203 
L 319.387026 240.891341 
L 319.488514 241.08265 
L 319.590003 240.720386 
L 319.894468 240.976496 
L 320.097445 240.726956 
L 320.198933 241.57606 
L 320.300421 240.95073 
L 320.40191 241.02983 
L 320.604886 240.754654 
L 320.807863 241.032793 
L 320.909352 240.675812 
L 321.112328 241.460759 
L 321.315305 240.9716 
L 321.518282 241.074534 
L 321.61977 241.167161 
L 321.721259 240.790726 
L 322.025724 241.1222 
L 322.127212 240.656101 
L 322.431677 241.457281 
L 322.634654 240.915174 
L 322.939119 241.117433 
L 323.040607 240.83427 
L 323.142096 241.068092 
L 323.243584 241.001102 
L 323.345073 241.625143 
L 323.548049 240.965159 
L 323.751026 241.212766 
L 323.852514 241.096177 
L 323.954003 240.796266 
L 324.258468 241.622825 
L 324.461445 241.038462 
L 324.562933 241.012052 
L 324.76591 241.242912 
L 324.968887 241.261849 
L 325.171863 241.062553 
L 325.37484 241.413093 
L 325.476328 240.675296 
L 325.679305 241.248193 
L 325.780794 241.530455 
L 326.085259 241.113697 
L 326.186747 241.181976 
L 326.288235 241.477764 
L 326.389724 240.842901 
L 326.491212 241.297277 
L 326.592701 241.166774 
L 326.694189 241.645885 
L 326.897166 241.0431 
L 326.998654 241.395444 
L 327.100142 241.228998 
L 327.201631 241.383591 
L 327.303119 240.835301 
L 327.404608 241.432804 
L 327.506096 241.157756 
L 327.607584 241.728592 
L 327.810561 240.877814 
L 327.912049 241.816968 
L 328.013538 241.280014 
L 328.115026 241.478666 
L 328.216515 240.884255 
L 328.419491 241.43757 
L 328.52098 241.055596 
L 328.723956 241.32549 
L 328.825445 241.755259 
L 328.926933 241.376248 
L 329.028422 241.532903 
L 329.12991 241.103133 
L 329.231398 241.237887 
L 329.332887 241.675257 
L 329.434375 241.013083 
L 329.637352 241.406394 
L 329.73884 241.874554 
L 329.840329 241.297277 
L 329.941817 241.32987 
L 330.043305 241.554803 
L 330.144794 241.306681 
L 330.246282 241.552871 
L 330.449259 241.115887 
L 330.652236 241.860769 
L 330.753724 241.358212 
L 330.855212 241.574385 
L 331.058189 241.34971 
L 331.159677 241.431 
L 331.261166 241.271511 
L 331.464143 241.365556 
L 331.565631 241.986248 
L 331.768608 241.477507 
L 331.870096 241.34971 
L 332.073073 241.529682 
L 332.174561 241.152603 
L 332.27605 241.518474 
L 332.377538 241.387456 
L 332.479026 242.006216 
L 332.783491 241.353188 
L 332.88498 241.627205 
L 332.986468 241.589072 
L 333.087957 241.161621 
L 333.392422 242.069599 
L 333.595398 241.466814 
L 333.696887 241.364911 
L 333.899864 241.696128 
L 334.001352 241.178369 
L 334.305817 242.017682 
L 334.508794 241.422626 
L 334.813259 241.75191 
L 334.914747 241.204134 
L 335.219212 242.078359 
L 335.422189 241.591906 
L 335.523678 241.57941 
L 335.625166 241.787853 
L 335.726654 241.721635 
L 335.828143 241.267518 
L 335.929631 241.729623 
L 336.031119 241.599249 
L 336.132608 242.071532 
L 336.335585 241.213152 
L 336.538561 241.952495 
L 336.64005 241.651038 
L 336.843026 241.660571 
L 336.944515 241.540761 
L 337.046003 241.973365 
L 337.147492 241.459857 
L 337.451957 241.930208 
L 337.654933 241.62437 
L 337.85791 241.546301 
L 337.959399 241.819287 
L 338.060887 241.492837 
L 338.365352 241.984573 
L 338.568329 241.493224 
L 338.771306 241.626174 
L 338.872794 241.456121 
L 339.177259 241.865407 
L 339.278747 241.66508 
L 339.380236 241.886793 
L 339.481724 241.287744 
L 339.684701 241.631198 
L 339.887678 241.432804 
L 340.090654 241.732586 
L 340.293631 241.722924 
L 340.39512 241.319435 
L 340.699585 241.523885 
L 340.902561 241.401627 
L 341.00405 241.90689 
L 341.410003 241.290578 
L 341.511492 241.594611 
L 341.61298 241.546301 
L 341.714468 241.153247 
L 341.815957 241.370193 
L 341.917445 242.116364 
L 342.120422 241.367101 
L 342.22191 241.302816 
L 342.424887 241.386426 
L 342.627864 241.184037 
L 342.729352 241.413479 
L 342.830841 242.047054 
L 342.932329 241.363108 
L 343.033817 241.528394 
L 343.135306 241.071828 
L 343.338282 241.464238 
L 343.541259 241.198981 
L 343.744236 241.721378 
L 343.845724 241.241623 
L 343.947213 241.61342 
L 344.048701 241.061522 
L 344.150189 241.099913 
L 344.251678 241.663148 
L 344.353166 240.96284 
L 344.454655 241.283235 
L 344.556143 241.217532 
L 344.657631 241.92338 
L 344.75912 241.155051 
L 344.860608 241.200656 
L 345.165073 241.428166 
L 345.266562 240.969668 
L 345.469538 241.195632 
L 345.571027 241.726917 
L 345.774003 241.127095 
L 346.078469 241.316214 
L 346.179957 240.868152 
L 346.484422 241.644468 
L 346.687399 240.961938 
L 346.788887 240.981134 
L 346.991864 241.408584 
L 347.093352 240.686891 
L 347.296329 241.340048 
L 347.397817 241.374702 
L 347.600794 241.062295 
L 347.702283 241.122844 
L 347.803771 240.913241 
L 348.108236 241.107256 
L 348.311213 241.304105 
L 348.51419 240.937203 
L 348.615678 241.036143 
L 348.818655 240.869182 
L 348.920143 241.04413 
L 349.021631 240.965288 
L 349.12312 241.318533 
L 349.427585 240.663702 
L 349.529073 241.06178 
L 349.630562 240.812756 
L 349.73205 241.13431 
L 349.935027 240.72657 
L 350.036515 241.58598 
L 350.138004 240.942356 
L 350.239492 241.126065 
L 350.34098 240.665119 
L 350.543957 240.904739 
L 350.848422 240.505373 
L 351.051399 240.407464 
L 351.152887 240.125975 
L 351.254376 239.073066 
L 351.355864 239.80893 
L 351.457352 239.633853 
L 351.558841 238.337331 
L 351.761818 238.848519 
L 351.964794 238.072976 
L 352.066283 238.14396 
L 352.269259 236.907343 
L 352.370748 237.368546 
L 352.472236 237.197463 
L 352.675213 236.178435 
L 352.776701 236.597512 
L 352.979678 235.736169 
L 353.081166 236.093538 
L 353.284143 234.810156 
L 353.385632 235.075412 
L 353.48712 234.777176 
L 353.588608 233.857346 
L 353.690097 234.261092 
L 353.791585 234.165759 
L 353.994562 233.35131 
L 354.09605 233.847684 
L 354.299027 232.304585 
L 354.400515 232.847078 
L 354.502004 232.610164 
L 354.603492 231.560218 
L 354.70498 231.977362 
L 354.907957 231.142816 
L 355.009446 231.262755 
L 355.110934 231.35564 
L 355.313911 229.832509 
L 355.415399 230.908994 
L 355.618376 229.262318 
L 355.719864 229.589025 
L 356.227306 228.573218 
L 356.328794 228.800857 
L 356.531771 227.398824 
L 356.63326 227.864408 
L 356.836236 226.691045 
L 356.937725 226.864447 
L 357.039213 226.818584 
L 357.140701 226.048452 
L 357.343678 226.594424 
L 357.546655 225.08598 
L 357.648143 225.667766 
L 357.749632 225.32766 
L 357.85112 224.234171 
L 358.054097 224.637273 
L 358.155585 223.895611 
L 358.358562 224.39353 
L 358.561539 222.728818 
L 358.663027 223.52433 
L 358.866004 222.029155 
L 358.967492 222.433932 
L 359.271957 221.800228 
L 359.373446 222.299178 
L 359.576422 220.50319 
L 359.677911 221.236607 
L 359.982376 220.011326 
L 360.185353 219.518302 
L 360.286841 219.654602 
L 360.591306 218.201296 
L 360.692795 218.335534 
L 360.794283 218.419273 
L 360.895771 217.820868 
L 360.99726 217.930242 
L 361.200236 217.263945 
L 361.504702 216.496905 
L 361.707678 215.912156 
L 361.910655 215.662874 
L 362.012143 215.510471 
L 362.113632 214.799986 
L 362.21512 214.859118 
L 362.621074 213.411996 
L 362.722562 213.634352 
L 363.027027 212.958522 
L 363.128516 212.402115 
L 363.230004 212.552457 
L 363.331492 212.113927 
L 363.432981 212.298409 
L 363.635957 211.410785 
L 363.737446 211.321121 
L 363.838934 210.98166 
L 363.940423 211.131873 
L 364.143399 210.197743 
L 364.244888 210.200449 
L 364.346376 209.925788 
L 364.447864 210.055518 
L 364.650841 209.116363 
L 364.75233 209.276754 
L 365.056795 207.853851 
L 365.158283 207.939651 
L 365.259771 208.409357 
L 365.564237 206.808801 
L 365.665725 206.951155 
L 365.868702 206.460193 
L 365.97019 206.625994 
L 366.071678 205.631959 
L 366.173167 205.910356 
L 366.274655 205.460103 
L 366.376144 205.611476 
L 366.57912 204.962184 
L 366.782097 204.598374 
L 367.188051 203.386363 
L 367.289539 203.218758 
L 367.391027 203.273123 
L 367.594004 202.503506 
L 367.796981 202.155414 
L 368.202934 201.108044 
L 368.405911 200.704427 
L 368.608888 199.939576 
L 368.710376 199.69738 
L 368.811865 199.79632 
L 369.014841 198.409618 
L 369.11633 198.933174 
L 369.522283 197.395744 
L 369.623772 197.562833 
L 369.72526 196.913155 
L 369.826748 196.967134 
L 370.029725 196.062119 
L 370.131213 196.223153 
L 370.232702 196.022955 
L 370.435679 195.244836 
L 370.740144 194.74099 
L 370.94312 193.980391 
L 371.146097 193.41458 
L 371.247586 193.602668 
L 371.349074 192.711567 
L 371.450562 192.758718 
L 371.653539 191.964366 
L 371.755027 192.387823 
L 371.958004 191.183798 
L 372.059493 191.425608 
L 372.363958 189.930047 
L 372.465446 190.088376 
L 372.566934 190.20226 
L 372.8714 188.778842 
L 373.074376 188.877009 
L 373.48033 187.500484 
L 373.581818 187.58886 
L 373.581818 187.58886 
" style="fill:none;stroke:#081d58;stroke-dasharray:5.55,2.4;stroke-dashoffset:0;stroke-width:1.5;"/>
    <defs>
     <path d="M -0 4.242641 
L 4.242641 0 
L 0 -4.242641 
L -4.242641 -0 
z
" id="m86c27923a3" style="stroke:#081d58;stroke-linejoin:miter;"/>
    </defs>
    <g clip-path="url(#pf4fc548322)">
     <use style="fill:#081d58;stroke:#081d58;stroke-linejoin:miter;" x="69.218182" xlink:href="#m86c27923a3" y="117.890086"/>
     <use style="fill:#081d58;stroke:#081d58;stroke-linejoin:miter;" x="77.337252" xlink:href="#m86c27923a3" y="119.623979"/>
     <use style="fill:#081d58;stroke:#081d58;stroke-linejoin:miter;" x="85.456322" xlink:href="#m86c27923a3" y="120.531312"/>
     <use style="fill:#081d58;stroke:#081d58;stroke-linejoin:miter;" x="93.575392" xlink:href="#m86c27923a3" y="121.378613"/>
     <use style="fill:#081d58;stroke:#081d58;stroke-linejoin:miter;" x="101.694462" xlink:href="#m86c27923a3" y="124.120067"/>
     <use style="fill:#081d58;stroke:#081d58;stroke-linejoin:miter;" x="109.813532" xlink:href="#m86c27923a3" y="121.500999"/>
     <use style="fill:#081d58;stroke:#081d58;stroke-linejoin:miter;" x="117.932602" xlink:href="#m86c27923a3" y="120.246345"/>
     <use style="fill:#081d58;stroke:#081d58;stroke-linejoin:miter;" x="126.051672" xlink:href="#m86c27923a3" y="120.401583"/>
     <use style="fill:#081d58;stroke:#081d58;stroke-linejoin:miter;" x="134.170742" xlink:href="#m86c27923a3" y="123.072311"/>
     <use style="fill:#081d58;stroke:#081d58;stroke-linejoin:miter;" x="142.289812" xlink:href="#m86c27923a3" y="130.242477"/>
     <use style="fill:#081d58;stroke:#081d58;stroke-linejoin:miter;" x="150.408882" xlink:href="#m86c27923a3" y="137.712425"/>
     <use style="fill:#081d58;stroke:#081d58;stroke-linejoin:miter;" x="158.527952" xlink:href="#m86c27923a3" y="157.595313"/>
     <use style="fill:#081d58;stroke:#081d58;stroke-linejoin:miter;" x="166.647022" xlink:href="#m86c27923a3" y="194.54646"/>
     <use style="fill:#081d58;stroke:#081d58;stroke-linejoin:miter;" x="174.766092" xlink:href="#m86c27923a3" y="220.046109"/>
     <use style="fill:#081d58;stroke:#081d58;stroke-linejoin:miter;" x="182.885162" xlink:href="#m86c27923a3" y="224.185731"/>
     <use style="fill:#081d58;stroke:#081d58;stroke-linejoin:miter;" x="191.004232" xlink:href="#m86c27923a3" y="226.25419"/>
     <use style="fill:#081d58;stroke:#081d58;stroke-linejoin:miter;" x="199.123302" xlink:href="#m86c27923a3" y="229.319388"/>
     <use style="fill:#081d58;stroke:#081d58;stroke-linejoin:miter;" x="207.242372" xlink:href="#m86c27923a3" y="235.478772"/>
     <use style="fill:#081d58;stroke:#081d58;stroke-linejoin:miter;" x="215.361442" xlink:href="#m86c27923a3" y="238.569478"/>
     <use style="fill:#081d58;stroke:#081d58;stroke-linejoin:miter;" x="223.480512" xlink:href="#m86c27923a3" y="239.590309"/>
     <use style="fill:#081d58;stroke:#081d58;stroke-linejoin:miter;" x="231.599582" xlink:href="#m86c27923a3" y="235.680774"/>
     <use style="fill:#081d58;stroke:#081d58;stroke-linejoin:miter;" x="239.718652" xlink:href="#m86c27923a3" y="236.036338"/>
     <use style="fill:#081d58;stroke:#081d58;stroke-linejoin:miter;" x="247.837722" xlink:href="#m86c27923a3" y="237.666653"/>
     <use style="fill:#081d58;stroke:#081d58;stroke-linejoin:miter;" x="255.956792" xlink:href="#m86c27923a3" y="238.049658"/>
     <use style="fill:#081d58;stroke:#081d58;stroke-linejoin:miter;" x="264.075862" xlink:href="#m86c27923a3" y="237.504073"/>
     <use style="fill:#081d58;stroke:#081d58;stroke-linejoin:miter;" x="272.194932" xlink:href="#m86c27923a3" y="238.230661"/>
     <use style="fill:#081d58;stroke:#081d58;stroke-linejoin:miter;" x="280.314002" xlink:href="#m86c27923a3" y="239.772343"/>
     <use style="fill:#081d58;stroke:#081d58;stroke-linejoin:miter;" x="288.433072" xlink:href="#m86c27923a3" y="240.182659"/>
     <use style="fill:#081d58;stroke:#081d58;stroke-linejoin:miter;" x="296.552142" xlink:href="#m86c27923a3" y="241.251285"/>
     <use style="fill:#081d58;stroke:#081d58;stroke-linejoin:miter;" x="304.671212" xlink:href="#m86c27923a3" y="240.560382"/>
     <use style="fill:#081d58;stroke:#081d58;stroke-linejoin:miter;" x="312.790282" xlink:href="#m86c27923a3" y="241.001102"/>
     <use style="fill:#081d58;stroke:#081d58;stroke-linejoin:miter;" x="320.909352" xlink:href="#m86c27923a3" y="240.675812"/>
     <use style="fill:#081d58;stroke:#081d58;stroke-linejoin:miter;" x="329.028422" xlink:href="#m86c27923a3" y="241.532903"/>
     <use style="fill:#081d58;stroke:#081d58;stroke-linejoin:miter;" x="337.147492" xlink:href="#m86c27923a3" y="241.459857"/>
     <use style="fill:#081d58;stroke:#081d58;stroke-linejoin:miter;" x="345.266562" xlink:href="#m86c27923a3" y="240.969668"/>
     <use style="fill:#081d58;stroke:#081d58;stroke-linejoin:miter;" x="353.385632" xlink:href="#m86c27923a3" y="235.075412"/>
     <use style="fill:#081d58;stroke:#081d58;stroke-linejoin:miter;" x="361.504702" xlink:href="#m86c27923a3" y="216.496905"/>
     <use style="fill:#081d58;stroke:#081d58;stroke-linejoin:miter;" x="369.623772" xlink:href="#m86c27923a3" y="197.562833"/>
    </g>
   </g>
   <g id="patch_3">
    <path d="M 54 252 
L 54 34.56 
" style="fill:none;stroke:#000000;stroke-linecap:square;stroke-linejoin:miter;stroke-width:0.8;"/>
   </g>
   <g id="patch_4">
    <path d="M 388.8 252 
L 388.8 34.56 
" style="fill:none;stroke:#000000;stroke-linecap:square;stroke-linejoin:miter;stroke-width:0.8;"/>
   </g>
   <g id="patch_5">
    <path d="M 54 252 
L 388.8 252 
" style="fill:none;stroke:#000000;stroke-linecap:square;stroke-linejoin:miter;stroke-width:0.8;"/>
   </g>
   <g id="patch_6">
    <path d="M 54 34.56 
L 388.8 34.56 
" style="fill:none;stroke:#000000;stroke-linecap:square;stroke-linejoin:miter;stroke-width:0.8;"/>
   </g>
   <g id="legend_1">
    <g id="patch_7">
     <path d="M 280.085938 71.91625 
L 381.8 71.91625 
Q 383.8 71.91625 383.8 69.91625 
L 383.8 41.56 
Q 383.8 39.56 381.8 39.56 
L 280.085938 39.56 
Q 278.085938 39.56 278.085938 41.56 
L 278.085938 69.91625 
Q 278.085938 71.91625 280.085938 71.91625 
z
" style="fill:#ffffff;opacity:0.8;stroke:#cccccc;stroke-linejoin:miter;"/>
    </g>
    <g id="line2d_16">
     <path d="M 282.085938 47.658437 
L 302.085938 47.658437 
" style="fill:none;stroke:#40b5c4;stroke-dasharray:5.55,2.4;stroke-dashoffset:0;stroke-width:1.5;"/>
    </g>
    <g id="line2d_17">
     <g>
      <use style="fill:#40b5c4;stroke:#40b5c4;" x="292.085938" xlink:href="#m9fc04ee5d0" y="47.658437"/>
     </g>
    </g>
    <g id="text_16">
     <text style="font-family:DejaVu Sans;font-size:10px;font-style:normal;font-weight:normal;text-anchor:start;" transform="rotate(-0, 310.085938, 51.158437)" x="310.085938" y="51.158437">original</text>
    </g>
    <g id="line2d_18">
     <path d="M 282.085938 62.336562 
L 302.085938 62.336562 
" style="fill:none;stroke:#081d58;stroke-dasharray:5.55,2.4;stroke-dashoffset:0;stroke-width:1.5;"/>
    </g>
    <g id="line2d_19">
     <g>
      <use style="fill:#081d58;stroke:#081d58;stroke-linejoin:miter;" x="292.085938" xlink:href="#m86c27923a3" y="62.336562"/>
     </g>
    </g>
    <g id="text_17">
     <text style="font-family:DejaVu Sans;font-size:10px;font-style:normal;font-weight:normal;text-anchor:start;" transform="rotate(-0, 310.085938, 65.836562)" x="310.085938" y="65.836562">reconstructed</text>
    </g>
   </g>
  </g>
  <g id="text_18">
   <text style="font-family:DejaVu Sans;font-size:12px;font-style:normal;font-weight:normal;text-anchor:middle;" transform="rotate(-0, 216, 14.878125)" x="216" y="14.878125">Reconstruction of the weight curve</text>
  </g>
 </g>
 <defs>
  <clipPath id="pf4fc548322">
   <rect height="217.44" width="334.8" x="54" y="34.56"/>
  </clipPath>
 </defs>
</svg>
