<?xml version="1.0" encoding="utf-8" standalone="no"?>
<!DOCTYPE svg PUBLIC "-//W3C//DTD SVG 1.1//EN"
  "http://www.w3.org/Graphics/SVG/1.1/DTD/svg11.dtd">
<!-- Created with matplotlib (https://matplotlib.org/) -->
<svg height="288pt" version="1.1" viewBox="0 0 432 288" width="432pt" xmlns="http://www.w3.org/2000/svg" xmlns:xlink="http://www.w3.org/1999/xlink">
 <defs>
  <style type="text/css">
*{stroke-linecap:butt;stroke-linejoin:round;}
  </style>
 </defs>
 <g id="figure_1">
  <g id="patch_1">
   <path d="M 0 288 
L 432 288 
L 432 0 
L 0 0 
z
" style="fill:#ffffff;"/>
  </g>
  <g id="axes_1">
   <g id="patch_2">
    <path d="M 54 252 
L 388.8 252 
L 388.8 34.56 
L 54 34.56 
z
" style="fill:#ffffff;"/>
   </g>
   <g id="matplotlib.axis_1">
    <g id="xtick_1">
     <g id="line2d_1">
      <defs>
       <path d="M 0 0 
L 0 3.5 
" id="mde01a06c95" style="stroke:#000000;stroke-width:0.8;"/>
      </defs>
      <g>
       <use style="stroke:#000000;stroke-width:0.8;" x="69.218182" xlink:href="#mde01a06c95" y="252"/>
      </g>
     </g>
     <g id="text_1">
      <text style="font-family:DejaVu Sans;font-size:10px;font-style:normal;font-weight:normal;text-anchor:middle;" transform="rotate(-0, 69.218182, 266.598437)" x="69.218182" y="266.598437">0</text>
     </g>
    </g>
    <g id="xtick_2">
     <g id="line2d_2">
      <g>
       <use style="stroke:#000000;stroke-width:0.8;" x="119.962369" xlink:href="#mde01a06c95" y="252"/>
      </g>
     </g>
     <g id="text_2">
      <text style="font-family:DejaVu Sans;font-size:10px;font-style:normal;font-weight:normal;text-anchor:middle;" transform="rotate(-0, 119.962369, 266.598437)" x="119.962369" y="266.598437">500</text>
     </g>
    </g>
    <g id="xtick_3">
     <g id="line2d_3">
      <g>
       <use style="stroke:#000000;stroke-width:0.8;" x="170.706557" xlink:href="#mde01a06c95" y="252"/>
      </g>
     </g>
     <g id="text_3">
      <text style="font-family:DejaVu Sans;font-size:10px;font-style:normal;font-weight:normal;text-anchor:middle;" transform="rotate(-0, 170.706557, 266.598437)" x="170.706557" y="266.598437">1000</text>
     </g>
    </g>
    <g id="xtick_4">
     <g id="line2d_4">
      <g>
       <use style="stroke:#000000;stroke-width:0.8;" x="221.450744" xlink:href="#mde01a06c95" y="252"/>
      </g>
     </g>
     <g id="text_4">
      <text style="font-family:DejaVu Sans;font-size:10px;font-style:normal;font-weight:normal;text-anchor:middle;" transform="rotate(-0, 221.450744, 266.598437)" x="221.450744" y="266.598437">1500</text>
     </g>
    </g>
    <g id="xtick_5">
     <g id="line2d_5">
      <g>
       <use style="stroke:#000000;stroke-width:0.8;" x="272.194932" xlink:href="#mde01a06c95" y="252"/>
      </g>
     </g>
     <g id="text_5">
      <text style="font-family:DejaVu Sans;font-size:10px;font-style:normal;font-weight:normal;text-anchor:middle;" transform="rotate(-0, 272.194932, 266.598437)" x="272.194932" y="266.598437">2000</text>
     </g>
    </g>
    <g id="xtick_6">
     <g id="line2d_6">
      <g>
       <use style="stroke:#000000;stroke-width:0.8;" x="322.939119" xlink:href="#mde01a06c95" y="252"/>
      </g>
     </g>
     <g id="text_6">
      <text style="font-family:DejaVu Sans;font-size:10px;font-style:normal;font-weight:normal;text-anchor:middle;" transform="rotate(-0, 322.939119, 266.598437)" x="322.939119" y="266.598437">2500</text>
     </g>
    </g>
    <g id="xtick_7">
     <g id="line2d_7">
      <g>
       <use style="stroke:#000000;stroke-width:0.8;" x="373.683307" xlink:href="#mde01a06c95" y="252"/>
      </g>
     </g>
     <g id="text_7">
      <text style="font-family:DejaVu Sans;font-size:10px;font-style:normal;font-weight:normal;text-anchor:middle;" transform="rotate(-0, 373.683307, 266.598437)" x="373.683307" y="266.598437">3000</text>
     </g>
    </g>
    <g id="text_8">
     <text style="font-family:DejaVu Sans;font-size:10px;font-style:normal;font-weight:normal;text-anchor:middle;" transform="rotate(-0, 221.4, 280.276563)" x="221.4" y="280.276563">Time</text>
    </g>
   </g>
   <g id="matplotlib.axis_2">
    <g id="ytick_1">
     <g id="line2d_8">
      <defs>
       <path d="M 0 0 
L -3.5 0 
" id="me6885dd6ec" style="stroke:#000000;stroke-width:0.8;"/>
      </defs>
      <g>
       <use style="stroke:#000000;stroke-width:0.8;" x="54" xlink:href="#me6885dd6ec" y="236.558419"/>
      </g>
     </g>
     <g id="text_9">
      <text style="font-family:DejaVu Sans;font-size:10px;font-style:normal;font-weight:normal;text-anchor:end;" transform="rotate(-0, 47, 240.357638)" x="47" y="240.357638">−10</text>
     </g>
    </g>
    <g id="ytick_2">
     <g id="line2d_9">
      <g>
       <use style="stroke:#000000;stroke-width:0.8;" x="54" xlink:href="#me6885dd6ec" y="199.169713"/>
      </g>
     </g>
     <g id="text_10">
      <text style="font-family:DejaVu Sans;font-size:10px;font-style:normal;font-weight:normal;text-anchor:end;" transform="rotate(-0, 47, 202.968932)" x="47" y="202.968932">−8</text>
     </g>
    </g>
    <g id="ytick_3">
     <g id="line2d_10">
      <g>
       <use style="stroke:#000000;stroke-width:0.8;" x="54" xlink:href="#me6885dd6ec" y="161.781007"/>
      </g>
     </g>
     <g id="text_11">
      <text style="font-family:DejaVu Sans;font-size:10px;font-style:normal;font-weight:normal;text-anchor:end;" transform="rotate(-0, 47, 165.580226)" x="47" y="165.580226">−6</text>
     </g>
    </g>
    <g id="ytick_4">
     <g id="line2d_11">
      <g>
       <use style="stroke:#000000;stroke-width:0.8;" x="54" xlink:href="#me6885dd6ec" y="124.392301"/>
      </g>
     </g>
     <g id="text_12">
      <text style="font-family:DejaVu Sans;font-size:10px;font-style:normal;font-weight:normal;text-anchor:end;" transform="rotate(-0, 47, 128.19152)" x="47" y="128.19152">−4</text>
     </g>
    </g>
    <g id="ytick_5">
     <g id="line2d_12">
      <g>
       <use style="stroke:#000000;stroke-width:0.8;" x="54" xlink:href="#me6885dd6ec" y="87.003595"/>
      </g>
     </g>
     <g id="text_13">
      <text style="font-family:DejaVu Sans;font-size:10px;font-style:normal;font-weight:normal;text-anchor:end;" transform="rotate(-0, 47, 90.802814)" x="47" y="90.802814">−2</text>
     </g>
    </g>
    <g id="ytick_6">
     <g id="line2d_13">
      <g>
       <use style="stroke:#000000;stroke-width:0.8;" x="54" xlink:href="#me6885dd6ec" y="49.614889"/>
      </g>
     </g>
     <g id="text_14">
      <text style="font-family:DejaVu Sans;font-size:10px;font-style:normal;font-weight:normal;text-anchor:end;" transform="rotate(-0, 47, 53.414108)" x="47" y="53.414108">0</text>
     </g>
    </g>
    <g id="text_15">
     <text style="font-family:DejaVu Sans;font-size:10px;font-style:normal;font-weight:normal;text-anchor:middle;" transform="rotate(-90, 19.815625, 143.28)" x="19.815625" y="143.28">temperature (°C)</text>
    </g>
   </g>
   <g id="line2d_14">
    <path clip-path="url(#pf421e42296)" d="M 69.218182 51.088756 
L 71.653903 49.769914 
L 72.770275 49.426626 
L 73.582182 49.416922 
L 74.292601 49.632527 
L 75.003019 50.106782 
L 75.713438 50.86456 
L 76.525345 52.107991 
L 77.337252 53.773086 
L 78.250647 56.150757 
L 79.367019 59.757021 
L 80.58488 64.504145 
L 82.005717 70.978628 
L 83.832508 80.439073 
L 86.572694 95.95806 
L 91.038182 121.175994 
L 93.169438 131.887914 
L 94.996229 140.063104 
L 96.620043 146.316403 
L 98.04088 150.94176 
L 99.461718 154.806668 
L 100.679578 157.471622 
L 101.79595 159.376259 
L 102.810834 160.680602 
L 103.724229 161.525605 
L 104.739113 162.157269 
L 105.652508 162.464398 
L 106.565904 162.532988 
L 107.479299 162.3799 
L 108.595671 161.940881 
L 109.813532 161.189312 
L 111.640323 159.720123 
L 113.467113 157.95618 
L 116.714741 154.474525 
L 119.657904 151.464416 
L 122.093625 149.246668 
L 124.021904 147.760355 
L 126.051672 146.484316 
L 127.979951 145.522491 
L 129.806742 144.859832 
L 131.633532 144.472224 
L 133.257346 144.348878 
L 134.88116 144.455137 
L 136.301998 144.771576 
L 137.925812 145.355775 
L 139.549626 146.17541 
L 141.17344 147.264356 
L 142.594277 148.514672 
L 144.218091 150.261472 
L 146.044882 152.273919 
L 146.856789 152.625635 
L 147.770184 153.356005 
L 148.886556 154.508455 
L 149.799951 155.857496 
L 151.220789 158.431166 
L 152.032696 160.295031 
L 153.250556 163.659977 
L 157.614556 177.054499 
L 160.557719 186.591554 
L 163.297905 195.688582 
L 165.327673 203.28978 
L 168.372324 214.800791 
L 169.488696 218.133901 
L 170.300603 219.961554 
L 171.011022 221.055716 
L 171.518464 221.506175 
L 172.025906 221.672573 
L 172.736324 221.754025 
L 173.243766 222.746153 
L 173.64972 223.519893 
L 174.969068 223.983494 
L 175.375022 223.58637 
L 175.882464 222.883481 
L 176.288417 222.044367 
L 176.694371 220.646515 
L 177.303301 217.61431 
L 178.01372 212.86572 
L 178.927115 205.199801 
L 180.246464 192.057035 
L 183.494092 159.029572 
L 185.117906 145.121497 
L 186.640232 134.028455 
L 188.061069 125.240988 
L 189.481906 117.800448 
L 190.902743 111.525726 
L 192.323581 106.247861 
L 193.744418 101.808065 
L 195.165255 98.068746 
L 196.687581 94.685236 
L 198.209906 91.842816 
L 199.935209 89.084314 
L 201.660511 86.74939 
L 203.690279 84.391134 
L 205.821534 82.25022 
L 208.155767 80.205431 
L 210.895953 78.092745 
L 214.042093 75.95856 
L 217.797163 73.712733 
L 221.755209 71.600159 
L 228.55493 68.29353 
L 245.402001 60.500688 
L 252.100233 57.86568 
L 258.392513 55.636198 
L 266.207118 53.103502 
L 273.514281 50.946121 
L 277.573816 49.973689 
L 281.430374 49.288895 
L 286.606281 48.684335 
L 294.522374 48.119617 
L 299.190839 48.047612 
L 303.453351 48.179439 
L 308.223305 48.571686 
L 315.631956 49.220414 
L 319.691491 49.232443 
L 333.696887 49.198813 
L 336.843026 49.558569 
L 340.090654 50.116829 
L 343.033817 50.817567 
L 345.97698 51.74813 
L 349.529073 53.125465 
L 356.836236 55.941593 
L 359.982376 56.839649 
L 363.331492 57.547861 
L 366.57912 58.015117 
L 370.33419 58.384261 
L 373.581818 58.618426 
L 373.581818 58.618426 
" style="fill:none;stroke:#40b5c4;stroke-dasharray:5.55,2.4;stroke-dashoffset:0;stroke-width:1.5;"/>
    <defs>
     <path d="M 0 3 
C 0.795609 3 1.55874 2.683901 2.12132 2.12132 
C 2.683901 1.55874 3 0.795609 3 0 
C 3 -0.795609 2.683901 -1.55874 2.12132 -2.12132 
C 1.55874 -2.683901 0.795609 -3 0 -3 
C -0.795609 -3 -1.55874 -2.683901 -2.12132 -2.12132 
C -2.683901 -1.55874 -3 -0.795609 -3 0 
C -3 0.795609 -2.683901 1.55874 -2.12132 2.12132 
C -1.55874 2.683901 -0.795609 3 0 3 
z
" id="m4ca5db8631" style="stroke:#40b5c4;"/>
    </defs>
    <g clip-path="url(#pf421e42296)">
     <use style="fill:#40b5c4;stroke:#40b5c4;" x="69.218182" xlink:href="#m4ca5db8631" y="51.088756"/>
     <use style="fill:#40b5c4;stroke:#40b5c4;" x="77.337252" xlink:href="#m4ca5db8631" y="53.773086"/>
     <use style="fill:#40b5c4;stroke:#40b5c4;" x="85.456322" xlink:href="#m4ca5db8631" y="89.53182"/>
     <use style="fill:#40b5c4;stroke:#40b5c4;" x="93.575392" xlink:href="#m4ca5db8631" y="133.797056"/>
     <use style="fill:#40b5c4;stroke:#40b5c4;" x="101.694462" xlink:href="#m4ca5db8631" y="159.223994"/>
     <use style="fill:#40b5c4;stroke:#40b5c4;" x="109.813532" xlink:href="#m4ca5db8631" y="161.189312"/>
     <use style="fill:#40b5c4;stroke:#40b5c4;" x="117.932602" xlink:href="#m4ca5db8631" y="153.196168"/>
     <use style="fill:#40b5c4;stroke:#40b5c4;" x="126.051672" xlink:href="#m4ca5db8631" y="146.484316"/>
     <use style="fill:#40b5c4;stroke:#40b5c4;" x="134.170742" xlink:href="#m4ca5db8631" y="144.377219"/>
     <use style="fill:#40b5c4;stroke:#40b5c4;" x="142.289812" xlink:href="#m4ca5db8631" y="148.222872"/>
     <use style="fill:#40b5c4;stroke:#40b5c4;" x="150.408882" xlink:href="#m4ca5db8631" y="156.92055"/>
     <use style="fill:#40b5c4;stroke:#40b5c4;" x="158.527952" xlink:href="#m4ca5db8631" y="180.085583"/>
     <use style="fill:#40b5c4;stroke:#40b5c4;" x="166.647022" xlink:href="#m4ca5db8631" y="208.462583"/>
     <use style="fill:#40b5c4;stroke:#40b5c4;" x="174.766092" xlink:href="#m4ca5db8631" y="223.986467"/>
     <use style="fill:#40b5c4;stroke:#40b5c4;" x="182.885162" xlink:href="#m4ca5db8631" y="164.796369"/>
     <use style="fill:#40b5c4;stroke:#40b5c4;" x="191.004232" xlink:href="#m4ca5db8631" y="111.117815"/>
     <use style="fill:#40b5c4;stroke:#40b5c4;" x="199.123302" xlink:href="#m4ca5db8631" y="90.328835"/>
     <use style="fill:#40b5c4;stroke:#40b5c4;" x="207.242372" xlink:href="#m4ca5db8631" y="80.974816"/>
     <use style="fill:#40b5c4;stroke:#40b5c4;" x="215.361442" xlink:href="#m4ca5db8631" y="75.13728"/>
     <use style="fill:#40b5c4;stroke:#40b5c4;" x="223.480512" xlink:href="#m4ca5db8631" y="70.73719"/>
     <use style="fill:#40b5c4;stroke:#40b5c4;" x="231.599582" xlink:href="#m4ca5db8631" y="66.849006"/>
     <use style="fill:#40b5c4;stroke:#40b5c4;" x="239.718652" xlink:href="#m4ca5db8631" y="63.006116"/>
     <use style="fill:#40b5c4;stroke:#40b5c4;" x="247.837722" xlink:href="#m4ca5db8631" y="59.506363"/>
     <use style="fill:#40b5c4;stroke:#40b5c4;" x="255.956792" xlink:href="#m4ca5db8631" y="56.473408"/>
     <use style="fill:#40b5c4;stroke:#40b5c4;" x="264.075862" xlink:href="#m4ca5db8631" y="53.781208"/>
     <use style="fill:#40b5c4;stroke:#40b5c4;" x="272.194932" xlink:href="#m4ca5db8631" y="51.305457"/>
     <use style="fill:#40b5c4;stroke:#40b5c4;" x="280.314002" xlink:href="#m4ca5db8631" y="49.457581"/>
     <use style="fill:#40b5c4;stroke:#40b5c4;" x="288.433072" xlink:href="#m4ca5db8631" y="48.520876"/>
     <use style="fill:#40b5c4;stroke:#40b5c4;" x="296.552142" xlink:href="#m4ca5db8631" y="48.066176"/>
     <use style="fill:#40b5c4;stroke:#40b5c4;" x="304.671212" xlink:href="#m4ca5db8631" y="48.25373"/>
     <use style="fill:#40b5c4;stroke:#40b5c4;" x="312.790282" xlink:href="#m4ca5db8631" y="49.055288"/>
     <use style="fill:#40b5c4;stroke:#40b5c4;" x="320.909352" xlink:href="#m4ca5db8631" y="49.214723"/>
     <use style="fill:#40b5c4;stroke:#40b5c4;" x="329.028422" xlink:href="#m4ca5db8631" y="49.039488"/>
     <use style="fill:#40b5c4;stroke:#40b5c4;" x="337.147492" xlink:href="#m4ca5db8631" y="49.601767"/>
     <use style="fill:#40b5c4;stroke:#40b5c4;" x="345.266562" xlink:href="#m4ca5db8631" y="51.502978"/>
     <use style="fill:#40b5c4;stroke:#40b5c4;" x="353.385632" xlink:href="#m4ca5db8631" y="54.697604"/>
     <use style="fill:#40b5c4;stroke:#40b5c4;" x="361.504702" xlink:href="#m4ca5db8631" y="57.198923"/>
     <use style="fill:#40b5c4;stroke:#40b5c4;" x="369.623772" xlink:href="#m4ca5db8631" y="58.321384"/>
    </g>
   </g>
   <g id="line2d_15">
    <path clip-path="url(#pf421e42296)" d="M 69.218182 44.674959 
L 69.522647 44.705392 
L 69.624135 44.707139 
L 69.725624 44.581342 
L 69.9286 44.620957 
L 70.131577 44.657024 
L 70.537531 44.535506 
L 70.841996 44.583696 
L 71.044973 44.523846 
L 71.146461 44.498583 
L 71.247949 44.604573 
L 71.450926 44.520708 
L 71.755391 44.540551 
L 71.85688 44.4725 
L 72.059856 44.520548 
L 72.161345 44.454726 
L 72.262833 44.539196 
L 72.364321 44.443636 
L 72.567298 44.586833 
L 72.668787 44.489491 
L 72.770275 44.557042 
L 72.871763 44.479436 
L 73.07474 44.582305 
L 73.277717 44.515164 
L 73.785159 44.635202 
L 73.988135 44.657041 
L 74.292601 44.685745 
L 74.394089 44.779058 
L 74.495577 44.70311 
L 74.698554 44.887455 
L 74.901531 45.201162 
L 75.003019 45.113161 
L 76.017903 46.159434 
L 76.119391 46.756469 
L 76.22088 46.609118 
L 76.322368 46.691984 
L 76.82981 47.905701 
L 76.931298 47.783095 
L 77.337252 49.368141 
L 77.43874 49.275201 
L 77.641717 49.747884 
L 78.758089 53.374183 
L 79.062554 54.395906 
L 79.468508 55.984659 
L 79.569996 56.306015 
L 79.772973 57.229594 
L 80.686368 61.182633 
L 80.990833 62.566753 
L 81.19381 63.090263 
L 81.701252 65.24544 
L 82.919112 70.562988 
L 83.426554 73.033887 
L 84.238461 76.980061 
L 84.542926 78.618146 
L 85.253345 82.649647 
L 87.790554 98.241889 
L 87.892043 98.471233 
L 88.297996 101.28144 
L 88.70395 103.266018 
L 89.414368 107.502545 
L 89.617345 108.443524 
L 90.124787 111.466601 
L 90.327764 112.46702 
L 91.342648 117.579684 
L 93.981345 129.202981 
L 94.082834 129.367393 
L 95.097717 133.668869 
L 95.199206 133.862538 
L 95.909624 136.538159 
L 96.417066 138.146167 
L 96.82302 139.157621 
L 97.127485 140.002007 
L 101.288508 150.290037 
L 101.694462 151.14881 
L 101.998927 151.708485 
L 103.419764 153.709964 
L 103.622741 153.921275 
L 103.825718 153.857209 
L 104.536136 153.302293 
L 105.348043 152.696068 
L 105.55102 152.560991 
L 105.855485 152.282299 
L 106.15995 152.099033 
L 106.464415 151.865081 
L 106.565904 151.882454 
L 106.768881 151.684925 
L 107.580788 151.1149 
L 107.682276 151.127469 
L 107.986741 150.843705 
L 108.494183 150.539545 
L 109.001625 150.238941 
L 109.30609 150.097955 
L 109.509067 149.948233 
L 109.712043 149.845871 
L 110.016509 149.683856 
L 110.320974 149.461653 
L 110.422462 149.458399 
L 110.625439 149.282389 
L 112.45223 148.363615 
L 112.553718 148.365461 
L 112.756695 148.249755 
L 117.120695 146.582807 
L 117.323672 146.414855 
L 117.831113 146.143864 
L 118.03409 145.838251 
L 118.744509 145.248918 
L 118.845997 145.259205 
L 119.150462 144.854787 
L 119.556416 144.603194 
L 119.860881 144.316862 
L 120.875765 143.506511 
L 120.977253 143.607883 
L 121.078741 143.258635 
L 121.281718 143.31253 
L 121.890648 142.746454 
L 121.992137 142.887387 
L 122.093625 142.503196 
L 122.296602 142.61202 
L 123.007021 142.463296 
L 123.108509 142.191931 
L 123.311486 142.265491 
L 124.021904 142.134345 
L 124.123393 141.889661 
L 124.427858 141.929587 
L 124.529346 141.933117 
L 124.630835 141.776611 
L 124.732323 141.849868 
L 124.9353 141.682424 
L 125.036788 141.801919 
L 125.138276 141.549559 
L 125.341253 141.605611 
L 125.54423 141.610228 
L 125.645718 141.449087 
L 125.848695 141.447955 
L 125.950183 141.371587 
L 126.051672 141.452778 
L 126.15316 141.257522 
L 126.356137 141.318067 
L 126.457625 141.234184 
L 126.559114 141.300702 
L 126.76209 141.167899 
L 126.863579 141.177606 
L 126.965067 141.034917 
L 127.066556 141.118889 
L 127.269532 141.002621 
L 127.573997 140.983126 
L 127.776974 140.865548 
L 128.284416 140.81718 
L 128.588881 140.870995 
L 129.400788 140.877538 
L 129.502277 141.014299 
L 129.705253 140.950999 
L 130.009718 140.932092 
L 130.314184 140.933652 
L 130.51716 141.045115 
L 130.720137 141.034293 
L 131.329067 141.058424 
L 131.735021 141.170421 
L 132.039486 141.187858 
L 132.140974 141.258939 
L 132.242463 141.140381 
L 132.546928 141.442794 
L 132.648416 141.280075 
L 132.749905 141.419367 
L 132.851393 141.279477 
L 132.952881 141.408251 
L 133.05437 141.352529 
L 133.155858 141.50111 
L 133.257346 141.315491 
L 133.460323 141.49972 
L 133.561812 141.630847 
L 133.6633 141.523075 
L 133.764788 141.679768 
L 133.866277 141.539459 
L 134.678184 141.834179 
L 135.084137 141.86167 
L 135.185626 142.169966 
L 135.287114 141.942638 
L 135.388602 142.179879 
L 135.490091 141.98588 
L 135.794556 142.355319 
L 135.896044 142.256327 
L 136.099021 142.629928 
L 136.403486 142.852809 
L 136.504974 142.748834 
L 136.707951 143.070377 
L 136.80944 143.122971 
L 136.910928 142.994313 
L 137.215393 143.545769 
L 137.316881 143.534707 
L 137.722835 143.949483 
L 137.824323 143.825433 
L 138.128788 144.456895 
L 138.331765 144.473876 
L 138.534742 144.610753 
L 138.63623 144.740312 
L 138.737719 145.096762 
L 138.839207 144.598247 
L 139.042184 145.086404 
L 139.245161 145.439681 
L 139.346649 145.498096 
L 139.448137 145.42738 
L 139.651114 145.725826 
L 139.752602 145.714068 
L 140.158556 146.316665 
L 140.463021 146.451251 
L 140.665998 146.726235 
L 140.767486 146.681246 
L 140.970463 146.922008 
L 141.071951 147.362172 
L 141.17344 147.20432 
L 141.579393 147.627065 
L 141.680882 147.949722 
L 141.78237 147.639224 
L 142.086835 148.967862 
L 142.289812 149.118681 
L 142.594277 149.883551 
L 142.695765 149.573918 
L 143.00023 150.171488 
L 143.203207 150.093346 
L 143.507672 150.547951 
L 143.609161 150.831555 
L 143.710649 150.737608 
L 144.218091 151.800667 
L 144.319579 151.825537 
L 144.725533 152.573418 
L 144.827021 152.679113 
L 145.029998 153.147329 
L 145.131486 153.135545 
L 146.450835 156.256473 
L 146.552324 156.379809 
L 146.958277 157.515197 
L 147.364231 158.392913 
L 147.668696 159.188689 
L 148.785068 161.373389 
L 149.29251 161.971895 
L 149.596975 162.751225 
L 149.90144 163.012089 
L 150.51037 164.061357 
L 151.1193 164.999367 
L 151.220789 165.015146 
L 151.728231 165.973587 
L 151.829719 165.990141 
L 152.540138 167.255916 
L 152.844603 167.656064 
L 153.65651 168.917124 
L 153.960975 170.245931 
L 154.062463 170.334877 
L 154.772882 173.021623 
L 155.077347 173.91476 
L 155.4833 175.520174 
L 157.107114 181.317651 
L 157.41158 182.508262 
L 157.513068 182.536466 
L 157.716045 183.490068 
L 158.02051 184.603125 
L 158.324975 185.858569 
L 158.426463 185.930382 
L 158.832417 187.718946 
L 159.644324 190.653355 
L 159.745812 190.564284 
L 160.050277 192.038428 
L 160.253254 192.420997 
L 161.166649 195.738073 
L 161.268138 195.801167 
L 161.572603 196.891637 
L 161.77558 197.606668 
L 162.080045 199.262848 
L 162.38451 200.674852 
L 163.196417 205.014908 
L 163.500882 206.849763 
L 165.226184 217.790542 
L 165.429161 218.849937 
L 166.13958 223.100958 
L 166.241068 223.351838 
L 166.647022 225.768076 
L 166.849998 226.77871 
L 168.575301 233.981727 
L 169.387208 236.436081 
L 169.590185 236.726754 
L 169.89465 237.629652 
L 169.996138 237.778411 
L 170.300603 238.637576 
L 170.605068 239.229013 
L 170.808045 239.582656 
L 171.011022 240.045408 
L 171.11251 240.722367 
L 171.213999 240.675336 
L 171.315487 240.716234 
L 171.518464 241.251476 
L 171.619952 241.463544 
L 171.72144 241.356396 
L 172.025906 242.116364 
L 172.330371 241.631505 
L 173.446743 239.938242 
L 173.751208 239.387881 
L 173.954185 239.063905 
L 174.25865 238.303438 
L 176.795859 218.435838 
L 179.637534 194.552988 
L 183.494092 156.517266 
L 185.422371 139.994599 
L 186.031301 136.089206 
L 186.843208 130.57438 
L 187.147673 128.546461 
L 190.293813 109.230537 
L 191.816139 104.743505 
L 194.556325 97.234838 
L 194.86079 96.473195 
L 195.774185 94.045779 
L 195.977162 93.728221 
L 196.789069 91.622001 
L 197.195023 90.748751 
L 197.702464 89.476183 
L 203.994744 75.512362 
L 204.19772 75.156384 
L 205.314093 73.236185 
L 205.618558 72.772737 
L 206.024511 72.129491 
L 206.531953 71.760053 
L 207.140883 71.475923 
L 208.561721 70.762077 
L 209.069162 70.592173 
L 209.373628 70.328902 
L 209.678093 70.229295 
L 209.881069 70.042882 
L 210.692976 69.618907 
L 210.895953 69.526235 
L 212.215302 68.752432 
L 212.519767 68.600927 
L 213.636139 67.987276 
L 213.737628 67.990878 
L 214.042093 67.72454 
L 214.346558 67.624042 
L 214.448046 67.449235 
L 214.549535 67.502292 
L 214.854 67.31046 
L 216.173349 66.532592 
L 217.594186 65.720547 
L 217.898651 65.521227 
L 219.82693 64.356253 
L 220.232884 64.131527 
L 221.044791 63.603434 
L 221.146279 63.635044 
L 221.349256 63.524151 
L 221.552233 63.490902 
L 221.958186 63.492417 
L 223.379023 63.466512 
L 223.480512 63.602846 
L 223.683488 63.571628 
L 224.393907 63.706589 
L 224.596884 63.769095 
L 225.713256 63.981163 
L 230.381721 63.14398 
L 230.584698 63.073451 
L 232.005535 62.79713 
L 232.411489 62.685097 
L 233.629349 62.446144 
L 233.933814 62.364544 
L 234.644233 62.204534 
L 234.745721 62.256397 
L 235.050186 62.096513 
L 235.963582 61.941139 
L 236.268047 61.844046 
L 238.60228 61.287873 
L 238.805256 61.241645 
L 239.312698 61.125065 
L 239.617163 61.075984 
L 240.124605 60.938046 
L 240.530559 60.800679 
L 240.733535 60.814674 
L 241.545442 60.58205 
L 241.646931 60.632308 
L 241.951396 60.479216 
L 242.864791 60.292625 
L 243.169256 60.196049 
L 254.028513 57.24177 
L 254.332978 57.13127 
L 254.535954 57.114333 
L 255.246373 56.84969 
L 255.753815 56.684635 
L 258.595489 55.875015 
L 259.81335 55.498731 
L 260.016327 55.43437 
L 264.075862 54.282732 
L 264.17735 54.360428 
L 264.380327 54.285798 
L 264.684792 54.227357 
L 265.192234 54.233526 
L 265.496699 54.14606 
L 266.105629 54.127269 
L 272.093443 53.440593 
L 272.194932 53.381581 
L 272.29642 53.498143 
L 272.499397 53.416382 
L 272.702374 53.379335 
L 274.123211 53.217418 
L 274.326188 53.195489 
L 275.239583 53.139081 
L 275.645536 53.057106 
L 276.152978 53.079962 
L 276.355955 53.002123 
L 276.66042 52.96422 
L 277.370839 52.894119 
L 277.776792 52.859996 
L 278.284234 52.798132 
L 282.851211 52.475617 
L 283.054188 52.434648 
L 283.967583 52.351782 
L 284.77949 52.371429 
L 284.982467 52.315198 
L 285.692886 52.313807 
L 285.997351 52.288563 
L 286.098839 52.34137 
L 286.403304 52.226698 
L 286.910746 52.259788 
L 287.92563 52.179239 
L 288.027118 52.280647 
L 288.331583 52.163907 
L 289.042002 52.182555 
L 289.752421 52.146293 
L 290.056886 52.154708 
L 290.767304 52.135453 
L 290.970281 52.145972 
L 294.522374 52.141693 
L 294.725351 52.194607 
L 295.029816 52.150001 
L 295.232793 52.184873 
L 295.334281 52.112383 
L 295.638746 52.232296 
L 295.943211 52.202024 
L 298.277444 52.317944 
L 298.480421 52.37175 
L 298.784886 52.356631 
L 300.205723 52.495763 
L 300.307211 52.563868 
L 300.510188 52.509919 
L 301.119118 52.567718 
L 301.322095 52.601485 
L 302.032514 52.647554 
L 302.336979 52.705674 
L 302.844421 52.680964 
L 303.250374 52.768394 
L 304.569723 52.926496 
L 304.874188 52.956269 
L 305.077165 52.981514 
L 307.208421 53.239311 
L 307.411398 53.251221 
L 310.253072 53.583576 
L 310.862002 53.62936 
L 311.064979 53.677674 
L 313.297723 53.878279 
L 313.703677 53.937647 
L 316.849817 54.208673 
L 317.357258 54.274923 
L 317.560235 54.283481 
L 317.966189 54.340104 
L 318.270654 54.350872 
L 318.473631 54.378791 
L 318.981072 54.414876 
L 323.243584 54.88376 
L 323.446561 54.91036 
L 324.15698 54.996828 
L 324.359956 55.024747 
L 325.070375 55.091496 
L 326.288235 55.287608 
L 326.389724 55.216829 
L 326.694189 55.34826 
L 327.100142 55.352574 
L 327.607584 55.478157 
L 327.810561 55.397715 
L 327.912049 55.530358 
L 328.216515 55.458118 
L 328.52098 55.506361 
L 329.332887 55.673092 
L 329.535863 55.660683 
L 330.956701 55.858542 
L 334.204329 56.350675 
L 334.407305 56.37945 
L 334.711771 56.416461 
L 335.726654 56.577487 
L 335.929631 56.621345 
L 336.437073 56.696901 
L 336.843026 56.75388 
L 337.654933 56.945784 
L 339.278747 57.398446 
L 339.786189 57.524349 
L 350.746934 60.830256 
L 352.167771 60.890694 
L 352.269259 60.839527 
L 352.472236 60.939508 
L 352.675213 60.868444 
L 352.87819 60.884383 
L 353.182655 60.883099 
L 353.994562 60.926351 
L 354.09605 61.01403 
L 354.299027 60.88777 
L 354.502004 60.977803 
L 354.603492 60.882493 
L 354.806469 60.9665 
L 355.009446 60.971813 
L 355.212422 60.946675 
L 355.313911 60.890444 
L 355.516887 60.996273 
L 355.618376 60.897683 
L 355.821353 60.971991 
L 356.227306 60.98957 
L 356.328794 61.02815 
L 356.531771 60.924817 
L 356.734748 60.985398 
L 356.937725 60.98743 
L 357.445167 60.953985 
L 357.546655 60.930522 
L 357.749632 61.011035 
L 357.85112 60.921145 
L 358.054097 61.014779 
L 358.257074 61.001764 
L 358.358562 61.066766 
L 358.561539 60.921751 
L 358.764515 61.016205 
L 358.866004 60.918435 
L 359.068981 61.00344 
L 359.271957 60.997272 
L 359.373446 61.064128 
L 359.576422 60.92225 
L 359.779399 60.983615 
L 360.895771 60.876966 
L 361.301725 60.847621 
L 362.82405 60.700394 
L 363.432981 60.652187 
L 363.635957 60.593318 
L 364.244888 60.537622 
L 365.158283 60.398739 
L 365.462748 60.3879 
L 365.767213 60.330278 
L 369.522283 60.102539 
L 369.72526 60.120403 
L 369.928237 60.157308 
L 370.131213 60.199775 
L 370.740144 60.243348 
L 370.94312 60.204981 
L 371.552051 60.254151 
L 371.653539 60.218388 
L 371.755027 60.329886 
L 371.958004 60.227088 
L 372.160981 60.30375 
L 372.262469 60.323254 
L 372.363958 60.211898 
L 372.566934 60.353206 
L 372.8714 60.254651 
L 373.175865 60.344256 
L 373.48033 60.329423 
L 373.581818 60.379378 
L 373.581818 60.379378 
" style="fill:none;stroke:#081d58;stroke-dasharray:5.55,2.4;stroke-dashoffset:0;stroke-width:1.5;"/>
    <defs>
     <path d="M -0 4.242641 
L 4.242641 0 
L 0 -4.242641 
L -4.242641 -0 
z
" id="m15cf4cbfe4" style="stroke:#081d58;stroke-linejoin:miter;"/>
    </defs>
    <g clip-path="url(#pf421e42296)">
     <use style="fill:#081d58;stroke:#081d58;stroke-linejoin:miter;" x="69.218182" xlink:href="#m15cf4cbfe4" y="44.674959"/>
     <use style="fill:#081d58;stroke:#081d58;stroke-linejoin:miter;" x="77.337252" xlink:href="#m15cf4cbfe4" y="49.368141"/>
     <use style="fill:#081d58;stroke:#081d58;stroke-linejoin:miter;" x="85.456322" xlink:href="#m15cf4cbfe4" y="84.120394"/>
     <use style="fill:#081d58;stroke:#081d58;stroke-linejoin:miter;" x="93.575392" xlink:href="#m15cf4cbfe4" y="127.378929"/>
     <use style="fill:#081d58;stroke:#081d58;stroke-linejoin:miter;" x="101.694462" xlink:href="#m15cf4cbfe4" y="151.14881"/>
     <use style="fill:#081d58;stroke:#081d58;stroke-linejoin:miter;" x="109.813532" xlink:href="#m15cf4cbfe4" y="149.820074"/>
     <use style="fill:#081d58;stroke:#081d58;stroke-linejoin:miter;" x="117.932602" xlink:href="#m15cf4cbfe4" y="145.893412"/>
     <use style="fill:#081d58;stroke:#081d58;stroke-linejoin:miter;" x="126.051672" xlink:href="#m15cf4cbfe4" y="141.452778"/>
     <use style="fill:#081d58;stroke:#081d58;stroke-linejoin:miter;" x="134.170742" xlink:href="#m15cf4cbfe4" y="141.675953"/>
     <use style="fill:#081d58;stroke:#081d58;stroke-linejoin:miter;" x="142.289812" xlink:href="#m15cf4cbfe4" y="149.118681"/>
     <use style="fill:#081d58;stroke:#081d58;stroke-linejoin:miter;" x="150.408882" xlink:href="#m15cf4cbfe4" y="163.85281"/>
     <use style="fill:#081d58;stroke:#081d58;stroke-linejoin:miter;" x="158.527952" xlink:href="#m15cf4cbfe4" y="186.498606"/>
     <use style="fill:#081d58;stroke:#081d58;stroke-linejoin:miter;" x="166.647022" xlink:href="#m15cf4cbfe4" y="225.768076"/>
     <use style="fill:#081d58;stroke:#081d58;stroke-linejoin:miter;" x="174.766092" xlink:href="#m15cf4cbfe4" y="234.456674"/>
     <use style="fill:#081d58;stroke:#081d58;stroke-linejoin:miter;" x="182.885162" xlink:href="#m15cf4cbfe4" y="162.314395"/>
     <use style="fill:#081d58;stroke:#081d58;stroke-linejoin:miter;" x="191.004232" xlink:href="#m15cf4cbfe4" y="107.061579"/>
     <use style="fill:#081d58;stroke:#081d58;stroke-linejoin:miter;" x="199.123302" xlink:href="#m15cf4cbfe4" y="86.199747"/>
     <use style="fill:#081d58;stroke:#081d58;stroke-linejoin:miter;" x="207.242372" xlink:href="#m15cf4cbfe4" y="71.417232"/>
     <use style="fill:#081d58;stroke:#081d58;stroke-linejoin:miter;" x="215.361442" xlink:href="#m15cf4cbfe4" y="67.015686"/>
     <use style="fill:#081d58;stroke:#081d58;stroke-linejoin:miter;" x="223.480512" xlink:href="#m15cf4cbfe4" y="63.602846"/>
     <use style="fill:#081d58;stroke:#081d58;stroke-linejoin:miter;" x="231.599582" xlink:href="#m15cf4cbfe4" y="62.867463"/>
     <use style="fill:#081d58;stroke:#081d58;stroke-linejoin:miter;" x="239.718652" xlink:href="#m15cf4cbfe4" y="61.064859"/>
     <use style="fill:#081d58;stroke:#081d58;stroke-linejoin:miter;" x="247.837722" xlink:href="#m15cf4cbfe4" y="59.020538"/>
     <use style="fill:#081d58;stroke:#081d58;stroke-linejoin:miter;" x="255.956792" xlink:href="#m15cf4cbfe4" y="56.659818"/>
     <use style="fill:#081d58;stroke:#081d58;stroke-linejoin:miter;" x="264.075862" xlink:href="#m15cf4cbfe4" y="54.282732"/>
     <use style="fill:#081d58;stroke:#081d58;stroke-linejoin:miter;" x="272.194932" xlink:href="#m15cf4cbfe4" y="53.381581"/>
     <use style="fill:#081d58;stroke:#081d58;stroke-linejoin:miter;" x="280.314002" xlink:href="#m15cf4cbfe4" y="52.651012"/>
     <use style="fill:#081d58;stroke:#081d58;stroke-linejoin:miter;" x="288.433072" xlink:href="#m15cf4cbfe4" y="52.17981"/>
     <use style="fill:#081d58;stroke:#081d58;stroke-linejoin:miter;" x="296.552142" xlink:href="#m15cf4cbfe4" y="52.28949"/>
     <use style="fill:#081d58;stroke:#081d58;stroke-linejoin:miter;" x="304.671212" xlink:href="#m15cf4cbfe4" y="52.908097"/>
     <use style="fill:#081d58;stroke:#081d58;stroke-linejoin:miter;" x="312.790282" xlink:href="#m15cf4cbfe4" y="53.863125"/>
     <use style="fill:#081d58;stroke:#081d58;stroke-linejoin:miter;" x="320.909352" xlink:href="#m15cf4cbfe4" y="54.587382"/>
     <use style="fill:#081d58;stroke:#081d58;stroke-linejoin:miter;" x="329.028422" xlink:href="#m15cf4cbfe4" y="55.623885"/>
     <use style="fill:#081d58;stroke:#081d58;stroke-linejoin:miter;" x="337.147492" xlink:href="#m15cf4cbfe4" y="56.792104"/>
     <use style="fill:#081d58;stroke:#081d58;stroke-linejoin:miter;" x="345.266562" xlink:href="#m15cf4cbfe4" y="59.167372"/>
     <use style="fill:#081d58;stroke:#081d58;stroke-linejoin:miter;" x="353.385632" xlink:href="#m15cf4cbfe4" y="60.956837"/>
     <use style="fill:#081d58;stroke:#081d58;stroke-linejoin:miter;" x="361.504702" xlink:href="#m15cf4cbfe4" y="60.823731"/>
     <use style="fill:#081d58;stroke:#081d58;stroke-linejoin:miter;" x="369.623772" xlink:href="#m15cf4cbfe4" y="60.178595"/>
    </g>
   </g>
   <g id="patch_3">
    <path d="M 54 252 
L 54 34.56 
" style="fill:none;stroke:#000000;stroke-linecap:square;stroke-linejoin:miter;stroke-width:0.8;"/>
   </g>
   <g id="patch_4">
    <path d="M 388.8 252 
L 388.8 34.56 
" style="fill:none;stroke:#000000;stroke-linecap:square;stroke-linejoin:miter;stroke-width:0.8;"/>
   </g>
   <g id="patch_5">
    <path d="M 54 252 
L 388.8 252 
" style="fill:none;stroke:#000000;stroke-linecap:square;stroke-linejoin:miter;stroke-width:0.8;"/>
   </g>
   <g id="patch_6">
    <path d="M 54 34.56 
L 388.8 34.56 
" style="fill:none;stroke:#000000;stroke-linecap:square;stroke-linejoin:miter;stroke-width:0.8;"/>
   </g>
   <g id="legend_1">
    <g id="patch_7">
     <path d="M 280.085938 247 
L 381.8 247 
Q 383.8 247 383.8 245 
L 383.8 216.64375 
Q 383.8 214.64375 381.8 214.64375 
L 280.085938 214.64375 
Q 278.085938 214.64375 278.085938 216.64375 
L 278.085938 245 
Q 278.085938 247 280.085938 247 
z
" style="fill:#ffffff;opacity:0.8;stroke:#cccccc;stroke-linejoin:miter;"/>
    </g>
    <g id="line2d_16">
     <path d="M 282.085938 222.742188 
L 302.085938 222.742188 
" style="fill:none;stroke:#40b5c4;stroke-dasharray:5.55,2.4;stroke-dashoffset:0;stroke-width:1.5;"/>
    </g>
    <g id="line2d_17">
     <g>
      <use style="fill:#40b5c4;stroke:#40b5c4;" x="292.085938" xlink:href="#m4ca5db8631" y="222.742188"/>
     </g>
    </g>
    <g id="text_16">
     <text style="font-family:DejaVu Sans;font-size:10px;font-style:normal;font-weight:normal;text-anchor:start;" transform="rotate(-0, 310.085938, 226.242188)" x="310.085938" y="226.242188">original</text>
    </g>
    <g id="line2d_18">
     <path d="M 282.085938 237.420312 
L 302.085938 237.420312 
" style="fill:none;stroke:#081d58;stroke-dasharray:5.55,2.4;stroke-dashoffset:0;stroke-width:1.5;"/>
    </g>
    <g id="line2d_19">
     <g>
      <use style="fill:#081d58;stroke:#081d58;stroke-linejoin:miter;" x="292.085938" xlink:href="#m15cf4cbfe4" y="237.420312"/>
     </g>
    </g>
    <g id="text_17">
     <text style="font-family:DejaVu Sans;font-size:10px;font-style:normal;font-weight:normal;text-anchor:start;" transform="rotate(-0, 310.085938, 240.920312)" x="310.085938" y="240.920312">reconstructed</text>
    </g>
   </g>
  </g>
  <g id="text_18">
   <text style="font-family:DejaVu Sans;font-size:12px;font-style:normal;font-weight:normal;text-anchor:middle;" transform="rotate(-0, 216, 14.878125)" x="216" y="14.878125">Reconstruction of the temperature curve</text>
  </g>
 </g>
 <defs>
  <clipPath id="pf421e42296">
   <rect height="217.44" width="334.8" x="54" y="34.56"/>
  </clipPath>
 </defs>
</svg>
