<?xml version="1.0" encoding="utf-8" standalone="no"?>
<!DOCTYPE svg PUBLIC "-//W3C//DTD SVG 1.1//EN"
  "http://www.w3.org/Graphics/SVG/1.1/DTD/svg11.dtd">
<!-- Created with matplotlib (https://matplotlib.org/) -->
<svg height="288pt" version="1.1" viewBox="0 0 432 288" width="432pt" xmlns="http://www.w3.org/2000/svg" xmlns:xlink="http://www.w3.org/1999/xlink">
 <defs>
  <style type="text/css">
*{stroke-linecap:butt;stroke-linejoin:round;}
  </style>
 </defs>
 <g id="figure_1">
  <g id="patch_1">
   <path d="M 0 288 
L 432 288 
L 432 0 
L 0 0 
z
" style="fill:#ffffff;"/>
  </g>
  <g id="axes_1">
   <g id="patch_2">
    <path d="M 54 252 
L 388.8 252 
L 388.8 34.56 
L 54 34.56 
z
" style="fill:#ffffff;"/>
   </g>
   <g id="matplotlib.axis_1">
    <g id="xtick_1">
     <g id="line2d_1">
      <defs>
       <path d="M 0 0 
L 0 3.5 
" id="mdc164793dd" style="stroke:#000000;stroke-width:0.8;"/>
      </defs>
      <g>
       <use style="stroke:#000000;stroke-width:0.8;" x="69.218182" xlink:href="#mdc164793dd" y="252"/>
      </g>
     </g>
     <g id="text_1">
      <text style="font-family:DejaVu Sans;font-size:10px;font-style:normal;font-weight:normal;text-anchor:middle;" transform="rotate(-0, 69.218182, 266.598437)" x="69.218182" y="266.598437">0</text>
     </g>
    </g>
    <g id="xtick_2">
     <g id="line2d_2">
      <g>
       <use style="stroke:#000000;stroke-width:0.8;" x="119.962369" xlink:href="#mdc164793dd" y="252"/>
      </g>
     </g>
     <g id="text_2">
      <text style="font-family:DejaVu Sans;font-size:10px;font-style:normal;font-weight:normal;text-anchor:middle;" transform="rotate(-0, 119.962369, 266.598437)" x="119.962369" y="266.598437">500</text>
     </g>
    </g>
    <g id="xtick_3">
     <g id="line2d_3">
      <g>
       <use style="stroke:#000000;stroke-width:0.8;" x="170.706557" xlink:href="#mdc164793dd" y="252"/>
      </g>
     </g>
     <g id="text_3">
      <text style="font-family:DejaVu Sans;font-size:10px;font-style:normal;font-weight:normal;text-anchor:middle;" transform="rotate(-0, 170.706557, 266.598437)" x="170.706557" y="266.598437">1000</text>
     </g>
    </g>
    <g id="xtick_4">
     <g id="line2d_4">
      <g>
       <use style="stroke:#000000;stroke-width:0.8;" x="221.450744" xlink:href="#mdc164793dd" y="252"/>
      </g>
     </g>
     <g id="text_4">
      <text style="font-family:DejaVu Sans;font-size:10px;font-style:normal;font-weight:normal;text-anchor:middle;" transform="rotate(-0, 221.450744, 266.598437)" x="221.450744" y="266.598437">1500</text>
     </g>
    </g>
    <g id="xtick_5">
     <g id="line2d_5">
      <g>
       <use style="stroke:#000000;stroke-width:0.8;" x="272.194932" xlink:href="#mdc164793dd" y="252"/>
      </g>
     </g>
     <g id="text_5">
      <text style="font-family:DejaVu Sans;font-size:10px;font-style:normal;font-weight:normal;text-anchor:middle;" transform="rotate(-0, 272.194932, 266.598437)" x="272.194932" y="266.598437">2000</text>
     </g>
    </g>
    <g id="xtick_6">
     <g id="line2d_6">
      <g>
       <use style="stroke:#000000;stroke-width:0.8;" x="322.939119" xlink:href="#mdc164793dd" y="252"/>
      </g>
     </g>
     <g id="text_6">
      <text style="font-family:DejaVu Sans;font-size:10px;font-style:normal;font-weight:normal;text-anchor:middle;" transform="rotate(-0, 322.939119, 266.598437)" x="322.939119" y="266.598437">2500</text>
     </g>
    </g>
    <g id="xtick_7">
     <g id="line2d_7">
      <g>
       <use style="stroke:#000000;stroke-width:0.8;" x="373.683307" xlink:href="#mdc164793dd" y="252"/>
      </g>
     </g>
     <g id="text_7">
      <text style="font-family:DejaVu Sans;font-size:10px;font-style:normal;font-weight:normal;text-anchor:middle;" transform="rotate(-0, 373.683307, 266.598437)" x="373.683307" y="266.598437">3000</text>
     </g>
    </g>
    <g id="text_8">
     <text style="font-family:DejaVu Sans;font-size:10px;font-style:normal;font-weight:normal;text-anchor:middle;" transform="rotate(-0, 221.4, 280.276563)" x="221.4" y="280.276563">Time</text>
    </g>
   </g>
   <g id="matplotlib.axis_2">
    <g id="ytick_1">
     <g id="line2d_8">
      <defs>
       <path d="M 0 0 
L -3.5 0 
" id="m9d9396029d" style="stroke:#000000;stroke-width:0.8;"/>
      </defs>
      <g>
       <use style="stroke:#000000;stroke-width:0.8;" x="54" xlink:href="#m9d9396029d" y="227.867114"/>
      </g>
     </g>
     <g id="text_9">
      <text style="font-family:DejaVu Sans;font-size:10px;font-style:normal;font-weight:normal;text-anchor:end;" transform="rotate(-0, 47, 231.666333)" x="47" y="231.666333">−8</text>
     </g>
    </g>
    <g id="ytick_2">
     <g id="line2d_9">
      <g>
       <use style="stroke:#000000;stroke-width:0.8;" x="54" xlink:href="#m9d9396029d" y="189.345425"/>
      </g>
     </g>
     <g id="text_10">
      <text style="font-family:DejaVu Sans;font-size:10px;font-style:normal;font-weight:normal;text-anchor:end;" transform="rotate(-0, 47, 193.144644)" x="47" y="193.144644">−6</text>
     </g>
    </g>
    <g id="ytick_3">
     <g id="line2d_10">
      <g>
       <use style="stroke:#000000;stroke-width:0.8;" x="54" xlink:href="#m9d9396029d" y="150.823737"/>
      </g>
     </g>
     <g id="text_11">
      <text style="font-family:DejaVu Sans;font-size:10px;font-style:normal;font-weight:normal;text-anchor:end;" transform="rotate(-0, 47, 154.622955)" x="47" y="154.622955">−4</text>
     </g>
    </g>
    <g id="ytick_4">
     <g id="line2d_11">
      <g>
       <use style="stroke:#000000;stroke-width:0.8;" x="54" xlink:href="#m9d9396029d" y="112.302048"/>
      </g>
     </g>
     <g id="text_12">
      <text style="font-family:DejaVu Sans;font-size:10px;font-style:normal;font-weight:normal;text-anchor:end;" transform="rotate(-0, 47, 116.101267)" x="47" y="116.101267">−2</text>
     </g>
    </g>
    <g id="ytick_5">
     <g id="line2d_12">
      <g>
       <use style="stroke:#000000;stroke-width:0.8;" x="54" xlink:href="#m9d9396029d" y="73.780359"/>
      </g>
     </g>
     <g id="text_13">
      <text style="font-family:DejaVu Sans;font-size:10px;font-style:normal;font-weight:normal;text-anchor:end;" transform="rotate(-0, 47, 77.579578)" x="47" y="77.579578">0</text>
     </g>
    </g>
    <g id="ytick_6">
     <g id="line2d_13">
      <g>
       <use style="stroke:#000000;stroke-width:0.8;" x="54" xlink:href="#m9d9396029d" y="35.25867"/>
      </g>
     </g>
     <g id="text_14">
      <text style="font-family:DejaVu Sans;font-size:10px;font-style:normal;font-weight:normal;text-anchor:end;" transform="rotate(-0, 47, 39.057889)" x="47" y="39.057889">2</text>
     </g>
    </g>
    <g id="text_15">
     <text style="font-family:DejaVu Sans;font-size:10px;font-style:normal;font-weight:normal;text-anchor:middle;" transform="rotate(-90, 26.178125, 143.28)" x="26.178125" y="143.28">temperature (°C)</text>
    </g>
   </g>
   <g id="line2d_14">
    <path clip-path="url(#p1b45503113)" d="M 69.218182 70.26048 
L 71.958368 69.63818 
L 72.973252 69.635895 
L 73.785159 69.829829 
L 74.597066 70.249687 
L 75.408973 70.931314 
L 76.22088 71.903046 
L 77.134275 73.35712 
L 78.149159 75.42424 
L 79.265531 78.23149 
L 80.58488 82.193207 
L 82.107205 87.516902 
L 84.035485 95.094487 
L 87.993531 111.867542 
L 91.038182 124.336551 
L 93.270927 132.552977 
L 95.097717 138.471988 
L 96.620043 142.744698 
L 98.142369 146.34482 
L 99.461718 148.944148 
L 100.679578 150.869577 
L 101.79595 152.247074 
L 102.912322 153.273427 
L 104.028694 153.992839 
L 105.145067 154.444506 
L 106.15995 154.63228 
L 107.276322 154.601 
L 108.494183 154.344446 
L 110.016509 153.768527 
L 111.741811 152.896242 
L 113.974555 151.504396 
L 119.454927 147.950905 
L 121.992137 146.600315 
L 123.920416 145.798197 
L 126.15316 145.115978 
L 128.081439 144.742279 
L 129.806742 144.625212 
L 131.532044 144.725984 
L 133.358835 145.062587 
L 135.185626 145.634133 
L 137.215393 146.536812 
L 138.940695 147.534793 
L 140.361533 148.594486 
L 141.78237 149.934059 
L 143.304696 151.688683 
L 144.827021 153.775923 
L 146.247858 156.086993 
L 147.567207 158.649572 
L 148.886556 161.710158 
L 150.307393 165.610518 
L 151.931207 170.766839 
L 154.26544 179.03001 
L 156.193719 185.6615 
L 160.050277 199.26033 
L 161.978556 206.925299 
L 163.399394 213.482403 
L 165.53065 224.477205 
L 167.560417 234.633025 
L 168.575301 238.660525 
L 169.285719 240.708242 
L 169.793161 241.656761 
L 170.199115 242.051397 
L 170.50358 242.114052 
L 170.808045 241.960023 
L 171.11251 241.575423 
L 171.518464 240.68744 
L 172.025906 238.955967 
L 172.634836 235.957728 
L 173.345254 231.231078 
L 174.25865 223.476219 
L 175.679487 209.048113 
L 178.419673 181.190499 
L 180.043487 167.011821 
L 181.565813 155.511903 
L 183.088138 145.611714 
L 184.610464 137.116969 
L 186.13279 129.84209 
L 187.655115 123.607932 
L 189.177441 118.26351 
L 190.801255 113.376976 
L 192.425069 109.221777 
L 194.048883 105.656806 
L 195.774185 102.403091 
L 197.600976 99.450885 
L 199.529255 96.777518 
L 201.457534 94.472419 
L 203.487302 92.371793 
L 205.618558 90.463432 
L 207.851302 88.73808 
L 210.287023 87.119669 
L 212.925721 85.627787 
L 215.868884 84.222037 
L 219.116512 82.922835 
L 222.770093 81.716736 
L 226.72814 80.640999 
L 254.231489 73.988333 
L 262.655024 72.149183 
L 273.311304 70.100617 
L 279.19763 69.189335 
L 284.982467 68.497587 
L 291.985165 67.982941 
L 297.465537 67.885724 
L 304.062281 68.037802 
L 313.399212 68.4256 
L 320.807863 68.708436 
L 329.434375 68.999217 
L 333.290933 69.400143 
L 337.350468 70.087816 
L 341.00405 70.906711 
L 348.412701 72.835878 
L 352.675213 73.784913 
L 356.531771 74.411976 
L 360.286841 74.822248 
L 364.346376 75.073239 
L 370.33419 75.251667 
L 373.581818 75.249464 
L 373.581818 75.249464 
" style="fill:none;stroke:#40b5c4;stroke-dasharray:5.55,2.4;stroke-dashoffset:0;stroke-width:1.5;"/>
    <defs>
     <path d="M 0 3 
C 0.795609 3 1.55874 2.683901 2.12132 2.12132 
C 2.683901 1.55874 3 0.795609 3 0 
C 3 -0.795609 2.683901 -1.55874 2.12132 -2.12132 
C 1.55874 -2.683901 0.795609 -3 0 -3 
C -0.795609 -3 -1.55874 -2.683901 -2.12132 -2.12132 
C -2.683901 -1.55874 -3 -0.795609 -3 0 
C -3 0.795609 -2.683901 1.55874 -2.12132 2.12132 
C -1.55874 2.683901 -0.795609 3 0 3 
z
" id="m43ae1d5e49" style="stroke:#40b5c4;"/>
    </defs>
    <g clip-path="url(#p1b45503113)">
     <use style="fill:#40b5c4;stroke:#40b5c4;" x="69.218182" xlink:href="#m43ae1d5e49" y="70.26048"/>
     <use style="fill:#40b5c4;stroke:#40b5c4;" x="77.337252" xlink:href="#m43ae1d5e49" y="73.733221"/>
     <use style="fill:#40b5c4;stroke:#40b5c4;" x="85.456322" xlink:href="#m43ae1d5e49" y="101.04368"/>
     <use style="fill:#40b5c4;stroke:#40b5c4;" x="93.575392" xlink:href="#m43ae1d5e49" y="133.594333"/>
     <use style="fill:#40b5c4;stroke:#40b5c4;" x="101.694462" xlink:href="#m43ae1d5e49" y="152.137153"/>
     <use style="fill:#40b5c4;stroke:#40b5c4;" x="109.813532" xlink:href="#m43ae1d5e49" y="153.856549"/>
     <use style="fill:#40b5c4;stroke:#40b5c4;" x="117.932602" xlink:href="#m43ae1d5e49" y="148.874732"/>
     <use style="fill:#40b5c4;stroke:#40b5c4;" x="126.051672" xlink:href="#m43ae1d5e49" y="145.141749"/>
     <use style="fill:#40b5c4;stroke:#40b5c4;" x="134.170742" xlink:href="#m43ae1d5e49" y="145.286186"/>
     <use style="fill:#40b5c4;stroke:#40b5c4;" x="142.289812" xlink:href="#m43ae1d5e49" y="150.482088"/>
     <use style="fill:#40b5c4;stroke:#40b5c4;" x="150.408882" xlink:href="#m43ae1d5e49" y="165.913106"/>
     <use style="fill:#40b5c4;stroke:#40b5c4;" x="158.527952" xlink:href="#m43ae1d5e49" y="193.7676"/>
     <use style="fill:#40b5c4;stroke:#40b5c4;" x="166.647022" xlink:href="#m43ae1d5e49" y="230.266784"/>
     <use style="fill:#40b5c4;stroke:#40b5c4;" x="174.766092" xlink:href="#m43ae1d5e49" y="218.535524"/>
     <use style="fill:#40b5c4;stroke:#40b5c4;" x="182.885162" xlink:href="#m43ae1d5e49" y="146.845371"/>
     <use style="fill:#40b5c4;stroke:#40b5c4;" x="191.004232" xlink:href="#m43ae1d5e49" y="112.821821"/>
     <use style="fill:#40b5c4;stroke:#40b5c4;" x="199.123302" xlink:href="#m43ae1d5e49" y="97.307866"/>
     <use style="fill:#40b5c4;stroke:#40b5c4;" x="207.242372" xlink:href="#m43ae1d5e49" y="89.184173"/>
     <use style="fill:#40b5c4;stroke:#40b5c4;" x="215.361442" xlink:href="#m43ae1d5e49" y="84.446826"/>
     <use style="fill:#40b5c4;stroke:#40b5c4;" x="223.480512" xlink:href="#m43ae1d5e49" y="81.50813"/>
     <use style="fill:#40b5c4;stroke:#40b5c4;" x="231.599582" xlink:href="#m43ae1d5e49" y="79.490991"/>
     <use style="fill:#40b5c4;stroke:#40b5c4;" x="239.718652" xlink:href="#m43ae1d5e49" y="77.532718"/>
     <use style="fill:#40b5c4;stroke:#40b5c4;" x="247.837722" xlink:href="#m43ae1d5e49" y="75.517133"/>
     <use style="fill:#40b5c4;stroke:#40b5c4;" x="255.956792" xlink:href="#m43ae1d5e49" y="73.599577"/>
     <use style="fill:#40b5c4;stroke:#40b5c4;" x="264.075862" xlink:href="#m43ae1d5e49" y="71.860918"/>
     <use style="fill:#40b5c4;stroke:#40b5c4;" x="272.194932" xlink:href="#m43ae1d5e49" y="70.305279"/>
     <use style="fill:#40b5c4;stroke:#40b5c4;" x="280.314002" xlink:href="#m43ae1d5e49" y="69.040566"/>
     <use style="fill:#40b5c4;stroke:#40b5c4;" x="288.433072" xlink:href="#m43ae1d5e49" y="68.212074"/>
     <use style="fill:#40b5c4;stroke:#40b5c4;" x="296.552142" xlink:href="#m43ae1d5e49" y="67.88391"/>
     <use style="fill:#40b5c4;stroke:#40b5c4;" x="304.671212" xlink:href="#m43ae1d5e49" y="68.05355"/>
     <use style="fill:#40b5c4;stroke:#40b5c4;" x="312.790282" xlink:href="#m43ae1d5e49" y="68.395002"/>
     <use style="fill:#40b5c4;stroke:#40b5c4;" x="320.909352" xlink:href="#m43ae1d5e49" y="68.710558"/>
     <use style="fill:#40b5c4;stroke:#40b5c4;" x="329.028422" xlink:href="#m43ae1d5e49" y="68.970791"/>
     <use style="fill:#40b5c4;stroke:#40b5c4;" x="337.147492" xlink:href="#m43ae1d5e49" y="70.048881"/>
     <use style="fill:#40b5c4;stroke:#40b5c4;" x="345.266562" xlink:href="#m43ae1d5e49" y="72.012899"/>
     <use style="fill:#40b5c4;stroke:#40b5c4;" x="353.385632" xlink:href="#m43ae1d5e49" y="73.916824"/>
     <use style="fill:#40b5c4;stroke:#40b5c4;" x="361.504702" xlink:href="#m43ae1d5e49" y="74.917871"/>
     <use style="fill:#40b5c4;stroke:#40b5c4;" x="369.623772" xlink:href="#m43ae1d5e49" y="75.242999"/>
    </g>
   </g>
   <g id="line2d_15">
    <path clip-path="url(#p1b45503113)" d="M 69.218182 60.232615 
L 69.31967 60.072563 
L 69.421159 60.299164 
L 69.624135 60.088445 
L 69.827112 60.266774 
L 70.030089 60.026501 
L 70.131577 60.095184 
L 70.233066 59.900615 
L 70.334554 60.301803 
L 70.436042 60.053411 
L 70.639019 60.174171 
L 70.740507 60.019771 
L 70.943484 60.210513 
L 71.044973 60.159777 
L 71.146461 60.341683 
L 71.247949 59.711914 
L 71.349438 60.261757 
L 71.552414 59.972959 
L 71.653903 60.359294 
L 71.755391 59.937306 
L 71.85688 60.371649 
L 71.958368 59.853403 
L 72.161345 60.395712 
L 72.262833 59.948729 
L 72.364321 60.479466 
L 72.567298 59.777993 
L 72.668787 60.295665 
L 72.770275 59.904056 
L 72.871763 60.336335 
L 73.07474 59.819501 
L 73.176228 60.292265 
L 73.379205 60.104547 
L 73.480694 60.104552 
L 73.582182 59.954694 
L 73.68367 60.021601 
L 73.785159 59.817635 
L 73.886647 60.222859 
L 74.089624 59.863342 
L 74.191112 60.23717 
L 74.394089 59.902647 
L 74.495577 60.204456 
L 74.597066 59.985943 
L 74.698554 60.237269 
L 74.901531 59.75809 
L 75.003019 60.030131 
L 75.104508 59.79502 
L 75.205996 60.155841 
L 75.408973 59.918512 
L 75.510461 60.058706 
L 75.611949 59.608917 
L 75.713438 60.25952 
L 75.916415 59.913034 
L 76.017903 60.099167 
L 76.119391 59.321412 
L 76.22088 60.153341 
L 76.423856 59.86447 
L 76.525345 59.978449 
L 76.626833 59.693633 
L 76.728322 60.107401 
L 76.82981 59.700131 
L 77.032787 60.105307 
L 77.134275 59.668094 
L 77.235763 60.070689 
L 77.337252 59.538106 
L 77.540229 59.856231 
L 77.641717 59.847079 
L 77.743205 60.111562 
L 77.946182 59.661775 
L 78.04767 60.142783 
L 78.149159 59.680644 
L 78.250647 60.114422 
L 78.453624 59.523241 
L 78.555112 59.822121 
L 78.656601 59.656191 
L 78.758089 59.976318 
L 78.961066 59.547605 
L 79.062554 60.0952 
L 79.164043 59.508854 
L 79.367019 59.941462 
L 79.468508 59.582126 
L 79.569996 60.027741 
L 79.671484 59.314384 
L 79.772973 59.843807 
L 79.97595 59.544684 
L 80.077438 59.929038 
L 80.178926 59.651475 
L 80.280415 59.760749 
L 80.381903 59.509017 
L 80.58488 60.025656 
L 80.686368 59.442631 
L 80.787857 59.50518 
L 80.889345 59.685812 
L 80.990833 59.193163 
L 81.092322 59.888579 
L 81.295298 59.463913 
L 81.396787 59.747141 
L 81.498275 59.255219 
L 81.599764 59.955601 
L 81.701252 59.466995 
L 81.904229 59.620769 
L 82.005717 58.971796 
L 82.107205 59.706293 
L 82.208694 59.417833 
L 82.411671 59.595549 
L 82.513159 59.252355 
L 82.614647 59.684219 
L 82.716136 59.148449 
L 82.919112 59.650503 
L 83.020601 59.042012 
L 83.122089 59.612568 
L 83.325066 59.191165 
L 83.426554 59.465082 
L 83.528043 59.259505 
L 83.629531 59.415891 
L 83.731019 59.118467 
L 83.832508 59.176514 
L 83.933996 59.627896 
L 84.035485 59.114961 
L 84.136973 59.38893 
L 84.238461 59.206955 
L 84.33995 58.758477 
L 84.441438 59.258931 
L 84.542926 59.074782 
L 84.644415 59.195548 
L 84.745903 59.098592 
L 84.847392 58.80548 
L 84.94888 59.297921 
L 85.050368 58.774965 
L 85.151857 59.238193 
L 85.253345 59.127895 
L 85.456322 58.851255 
L 85.55781 58.647132 
L 85.760787 58.931599 
L 85.862275 58.713566 
L 85.963764 58.985988 
L 86.16674 58.591468 
L 86.268229 58.863293 
L 86.369717 58.609104 
L 86.471206 58.797561 
L 86.674182 58.282913 
L 86.775671 58.888414 
L 86.877159 58.267938 
L 86.978647 58.806401 
L 87.080136 58.13367 
L 87.283113 58.411532 
L 87.384601 58.170575 
L 87.486089 58.656323 
L 87.587578 58.130819 
L 87.689066 58.166137 
L 87.993531 58.393296 
L 88.196508 57.739984 
L 88.297996 57.953661 
L 88.399485 57.679243 
L 88.500973 57.902881 
L 88.602461 57.619823 
L 88.805438 57.805966 
L 88.906927 57.216165 
L 89.008415 57.660276 
L 89.211392 57.261485 
L 89.31288 57.401866 
L 89.414368 56.793302 
L 89.515857 57.389392 
L 89.718834 56.720824 
L 89.820322 56.987377 
L 89.92181 56.368806 
L 90.023299 56.901619 
L 90.124787 56.388768 
L 90.327764 56.57946 
L 90.429252 56.267938 
L 90.530741 56.466996 
L 90.632229 56.350394 
L 90.733717 55.998517 
L 90.835206 56.334818 
L 91.038182 55.701896 
L 91.139671 55.956473 
L 91.241159 55.610419 
L 91.342648 55.981041 
L 91.545624 55.617024 
L 91.647113 55.51101 
L 91.748601 55.183926 
L 91.850089 55.69958 
L 92.154555 54.846688 
L 92.256043 54.778899 
L 92.357531 55.275523 
L 92.560508 54.749578 
L 92.661996 54.8291 
L 92.763485 54.379923 
L 92.966462 54.699698 
L 93.06795 54.205185 
L 93.169438 54.45942 
L 93.270927 53.760691 
L 93.372415 54.243578 
L 93.473903 53.848093 
L 93.67688 54.004566 
L 93.778369 53.49999 
L 93.879857 53.951951 
L 93.981345 53.334211 
L 94.184322 53.637566 
L 94.28581 52.99012 
L 94.387299 53.269552 
L 94.488787 52.793291 
L 94.691764 53.01371 
L 94.793252 52.629614 
L 94.894741 53.050178 
L 95.097717 52.356971 
L 95.199206 52.640777 
L 95.300694 52.299416 
L 95.402183 52.432535 
L 95.503671 51.720039 
L 95.706648 52.048368 
L 95.808136 51.572498 
L 95.909624 52.12445 
L 96.112601 51.440249 
L 96.315578 51.505071 
L 96.518555 51.1654 
L 96.620043 51.14125 
L 96.721531 51.339088 
L 96.924508 50.775231 
L 97.025997 51.439121 
L 97.127485 50.906212 
L 97.228973 51.162766 
L 97.330462 50.326631 
L 97.533438 50.825457 
L 97.634927 50.562134 
L 97.736415 50.896006 
L 97.939392 50.543945 
L 98.04088 50.351171 
L 98.243857 50.729624 
L 98.446834 50.113096 
L 98.548322 50.421101 
L 98.649811 50.153959 
L 98.751299 50.63666 
L 98.954276 50.354795 
L 99.055764 50.472452 
L 99.157252 49.983354 
L 99.258741 50.815749 
L 99.360229 50.165458 
L 99.461718 50.327361 
L 99.563206 49.805942 
L 99.664694 50.361591 
L 99.766183 50.17439 
L 99.969159 50.200285 
L 100.172136 50.09752 
L 100.273625 50.285621 
L 100.476601 50.079803 
L 100.781066 49.966313 
L 101.085532 50.090981 
L 101.18702 49.802151 
L 101.389997 49.966205 
L 101.592973 49.878787 
L 101.694462 49.942659 
L 101.79595 49.547379 
L 102.100415 49.742425 
L 102.201904 49.783626 
L 102.40488 49.49526 
L 102.607857 49.935266 
L 102.810834 49.535161 
L 102.912322 49.277997 
L 103.216787 49.573898 
L 103.419764 49.400735 
L 103.521253 49.269223 
L 103.622741 49.734247 
L 103.825718 49.273623 
L 104.028694 49.018885 
L 104.130183 49.212529 
L 104.231671 49.151244 
L 104.33316 49.284924 
L 104.536136 49.096187 
L 104.637625 49.055553 
L 104.739113 49.314635 
L 104.840601 48.844058 
L 104.94209 49.037508 
L 105.043578 48.733651 
L 105.145067 49.188266 
L 105.449532 48.572804 
L 105.55102 48.638463 
L 105.652508 48.940786 
L 105.753997 48.707882 
L 105.855485 48.823843 
L 106.058462 48.672309 
L 106.15995 48.577029 
L 106.261439 48.69026 
L 106.362927 48.46735 
L 106.464415 48.589138 
L 106.565904 48.121727 
L 106.667392 48.567778 
L 106.870369 48.414029 
L 106.971857 48.527852 
L 107.174834 48.24403 
L 107.580788 48.253894 
L 107.682276 47.892561 
L 107.783764 48.158522 
L 107.885253 48.085695 
L 107.986741 48.236193 
L 108.291206 47.757348 
L 108.392695 48.22081 
L 108.494183 48.010657 
L 108.595671 48.064668 
L 108.69716 47.573627 
L 108.798648 47.827766 
L 109.103113 47.645915 
L 109.204602 47.805834 
L 109.30609 47.56034 
L 109.407578 47.976797 
L 109.509067 47.61312 
L 109.610555 47.732555 
L 109.813532 47.281445 
L 109.91502 47.521162 
L 110.016509 47.323562 
L 110.117997 47.601943 
L 110.219485 47.324885 
L 110.320974 47.459524 
L 110.422462 47.175771 
L 110.52395 47.632476 
L 110.828416 46.910499 
L 110.929904 47.069936 
L 111.031392 47.01742 
L 111.234369 47.306778 
L 111.335857 47.021229 
L 111.437346 47.125432 
L 111.640323 47.024223 
L 111.741811 47.10617 
L 111.944788 46.499663 
L 112.249253 47.084663 
L 112.553718 46.511837 
L 112.655206 46.932009 
L 112.959671 46.266327 
L 113.06116 46.544471 
L 113.162648 46.40374 
L 113.264137 46.561498 
L 113.568602 46.496143 
L 113.67009 45.99069 
L 113.771578 46.438498 
L 113.873067 46.155502 
L 114.076044 46.218378 
L 114.380509 46.309844 
L 114.481997 46.029333 
L 114.583485 46.131699 
L 114.684974 45.712322 
L 114.786462 45.96593 
L 114.887951 45.824932 
L 115.192416 46.086049 
L 115.293904 45.680535 
L 115.395392 46.061611 
L 115.699858 45.386215 
L 115.801346 45.647568 
L 115.902834 45.475011 
L 116.004323 45.784331 
L 116.105811 45.606098 
L 116.207299 45.756982 
L 116.410276 45.519125 
L 116.511765 45.652626 
L 116.714741 45.301896 
L 116.917718 45.448296 
L 117.019206 45.322221 
L 117.222183 45.630161 
L 117.42516 45.328535 
L 117.628137 45.512795 
L 117.729625 45.475778 
L 117.831113 44.87868 
L 117.932602 45.471686 
L 118.03409 45.350231 
L 118.237067 45.48611 
L 118.338555 45.462748 
L 118.440044 45.251619 
L 118.541532 45.568415 
L 118.744509 45.354513 
L 118.845997 44.963942 
L 118.947486 45.437617 
L 119.048974 45.334 
L 119.150462 45.451623 
L 119.251951 45.359154 
L 119.353439 45.070021 
L 119.657904 45.449589 
L 119.860881 45.279305 
L 119.962369 45.291431 
L 120.063858 45.462461 
L 120.266834 45.36198 
L 120.368323 44.867776 
L 120.469811 45.293187 
L 120.5713 45.065638 
L 120.672788 45.389813 
L 120.774276 45.243836 
L 120.875765 45.345536 
L 120.977253 44.843541 
L 121.078741 45.515677 
L 121.383207 44.697646 
L 121.586183 44.875459 
L 121.687672 44.929487 
L 121.78916 44.719613 
L 121.890648 44.873222 
L 121.992137 44.521919 
L 122.093625 45.141373 
L 122.195114 44.639312 
L 122.296602 44.660946 
L 122.39809 44.443636 
L 122.601067 44.708164 
L 122.702555 44.637719 
L 122.804044 44.81377 
L 123.007021 44.571075 
L 123.108509 44.948892 
L 123.209997 44.696868 
L 123.311486 44.84231 
L 123.412974 44.492065 
L 123.717439 44.90716 
L 123.818928 44.722767 
L 123.920416 44.846471 
L 124.021904 44.598263 
L 124.123393 44.942731 
L 124.529346 44.636201 
L 124.732323 44.816482 
L 124.833811 44.980068 
L 125.036788 44.886415 
L 125.239765 45.035564 
L 125.341253 45.104524 
L 125.442742 44.826309 
L 125.747207 45.200043 
L 126.660602 45.502371 
L 126.863579 45.521399 
L 127.066556 45.609634 
L 127.371021 45.749812 
L 127.573997 45.636023 
L 127.878463 45.959269 
L 128.081439 45.94242 
L 128.284416 46.087343 
L 128.487393 45.918458 
L 128.791858 46.227636 
L 128.994835 46.316326 
L 129.096323 46.257418 
L 129.400788 46.53493 
L 129.502277 46.398831 
L 129.806742 46.875915 
L 130.821625 47.708384 
L 131.430556 48.227151 
L 131.532044 48.106536 
L 131.836509 48.64094 
L 132.445439 49.174646 
L 132.546928 48.969304 
L 132.648416 49.334413 
L 132.749905 49.306124 
L 132.851393 49.644193 
L 132.952881 49.561584 
L 133.05437 49.696674 
L 133.155858 49.626572 
L 133.257346 50.089153 
L 133.358835 49.918105 
L 133.460323 50.055224 
L 133.561812 49.99576 
L 133.866277 50.551097 
L 135.084137 51.669729 
L 135.185626 51.458266 
L 135.287114 51.858763 
L 135.388602 51.760707 
L 135.591579 52.070224 
L 135.693067 52.083459 
L 135.997533 52.335997 
L 136.099021 52.353045 
L 136.504974 52.877654 
L 136.707951 52.678506 
L 136.910928 52.890204 
L 137.113905 52.505607 
L 137.41837 52.647918 
L 137.621347 52.665058 
L 137.722835 52.550314 
L 137.824323 52.795376 
L 138.128788 52.396112 
L 138.331765 52.560575 
L 138.534742 52.591951 
L 138.63623 52.570634 
L 138.737719 52.302309 
L 138.839207 52.873592 
L 138.940695 52.508551 
L 139.042184 52.559618 
L 139.143672 52.30075 
L 139.448137 52.620691 
L 139.549626 52.437253 
L 139.752602 52.544691 
L 140.260044 52.391392 
L 140.463021 52.47003 
L 140.665998 52.378529 
L 140.868975 52.492788 
L 140.970463 52.456203 
L 141.071951 52.137733 
L 141.274928 52.369744 
L 141.376416 52.383066 
L 141.579393 52.564768 
L 141.680882 52.547869 
L 141.78237 52.994542 
L 141.883858 52.947626 
L 142.086835 52.944299 
L 143.609161 56.089742 
L 143.913626 56.892311 
L 144.015114 56.917106 
L 144.827021 59.477697 
L 145.53744 61.839204 
L 145.841905 62.917092 
L 146.14637 63.938824 
L 146.958277 66.701197 
L 148.176138 70.929606 
L 148.683579 72.560359 
L 149.495486 75.355206 
L 149.698463 75.980321 
L 153.250556 87.716213 
L 153.960975 89.871903 
L 154.26544 90.83836 
L 154.468417 91.450805 
L 155.381812 94.098815 
L 156.193719 96.499266 
L 156.599673 97.693922 
L 157.107114 99.170241 
L 157.208603 99.36266 
L 157.513068 100.463866 
L 157.614556 100.593933 
L 158.02051 101.771758 
L 158.121998 101.900421 
L 158.62944 103.342423 
L 159.035394 104.348272 
L 159.644324 105.879077 
L 159.847301 106.432081 
L 162.587487 113.773669 
L 162.891952 113.289689 
L 162.99344 113.782913 
L 163.196417 113.534712 
L 163.297905 113.463199 
L 163.399394 113.558183 
L 163.500882 113.277878 
L 163.60237 113.47788 
L 163.805347 113.107909 
L 164.008324 113.60229 
L 164.109812 113.549825 
L 164.211301 113.539121 
L 164.312789 113.367113 
L 164.414277 113.716685 
L 164.718743 113.358865 
L 164.921719 113.773086 
L 165.023208 113.93613 
L 165.226184 113.71978 
L 165.327673 113.999745 
L 165.632138 113.730094 
L 165.936603 114.073361 
L 166.13958 114.05587 
L 166.241068 114.298473 
L 166.342557 114.068981 
L 166.444045 114.129716 
L 166.545533 113.896619 
L 166.647022 114.201941 
L 166.74851 114.163 
L 167.052975 114.268174 
L 167.154464 114.427654 
L 167.458929 113.836026 
L 167.661905 114.275742 
L 167.864882 114.042883 
L 167.966371 114.044665 
L 168.067859 114.500624 
L 168.169347 114.09415 
L 168.270836 114.2014 
L 168.372324 113.647298 
L 168.473812 114.124536 
L 168.575301 113.966241 
L 168.676789 114.060673 
L 168.879766 113.887201 
L 168.981254 114.142312 
L 169.082743 114.097553 
L 169.285719 113.568221 
L 169.387208 113.728937 
L 169.691673 113.844852 
L 169.89465 113.630132 
L 170.097626 113.808234 
L 170.199115 113.347289 
L 170.402092 113.523971 
L 171.011022 113.411877 
L 171.11251 113.094555 
L 171.416975 113.300986 
L 171.619952 113.014588 
L 171.72144 113.366511 
L 171.822929 113.015134 
L 171.924417 113.069491 
L 172.025906 112.636742 
L 172.127394 113.105604 
L 172.431859 112.79996 
L 172.533347 112.91216 
L 172.939301 112.367339 
L 173.142278 112.747049 
L 173.446743 112.211748 
L 173.548231 112.685083 
L 173.852696 111.924698 
L 174.055673 112.296941 
L 174.25865 112.104122 
L 174.360138 112.003563 
L 174.461627 112.159315 
L 174.664603 111.976557 
L 174.766092 111.573734 
L 174.969068 111.783645 
L 175.172045 111.861762 
L 175.273534 111.409951 
L 175.375022 112.112484 
L 175.577999 111.465235 
L 175.679487 111.336247 
L 175.780975 111.638929 
L 175.882464 111.303059 
L 175.983952 111.510812 
L 176.085441 111.391127 
L 176.186929 111.560104 
L 176.491394 111.04459 
L 176.592882 111.120834 
L 176.897348 111.178621 
L 177.100324 111.086384 
L 177.201813 111.193656 
L 177.303301 111.057168 
L 177.404789 110.707045 
L 177.506278 110.988759 
L 177.607766 110.721382 
L 177.709255 111.067634 
L 178.01372 110.577519 
L 178.115208 111.03699 
L 178.419673 110.57289 
L 178.62265 110.647875 
L 178.724138 110.691703 
L 178.825627 110.532158 
L 178.927115 110.70794 
L 179.23158 110.324772 
L 179.333069 110.444007 
L 179.536045 110.541728 
L 179.739022 110.400299 
L 180.043487 110.336445 
L 180.144976 109.927037 
L 180.347952 110.446188 
L 180.550929 110.202814 
L 180.652417 110.105865 
L 180.753906 110.331086 
L 180.855394 110.281546 
L 181.058371 109.944175 
L 181.159859 109.962117 
L 181.565813 109.113333 
L 181.667301 109.285024 
L 181.870278 108.178267 
L 181.971766 108.255842 
L 182.174743 107.98024 
L 182.37772 107.247063 
L 182.479208 107.386925 
L 182.580697 106.798511 
L 182.682185 106.882892 
L 182.783673 106.129588 
L 182.885162 106.188156 
L 183.088138 106.09089 
L 183.494092 104.968147 
L 183.59558 105.005628 
L 183.697069 104.225024 
L 183.798557 104.38562 
L 183.900045 104.010451 
L 184.001534 104.123367 
L 184.610464 102.443479 
L 184.813441 102.456098 
L 185.016418 101.887288 
L 185.117906 101.85968 
L 185.219394 101.601468 
L 185.422371 100.541294 
L 185.523859 100.848931 
L 185.929813 99.993929 
L 186.031301 100.30658 
L 186.335766 98.785846 
L 186.437255 98.738561 
L 186.538743 98.940243 
L 187.249162 97.31231 
L 187.35065 97.020686 
L 187.452139 97.106637 
L 187.858092 96.510352 
L 188.061069 95.740245 
L 188.162557 95.817779 
L 188.264046 95.774902 
L 188.467022 95.246337 
L 188.568511 95.300033 
L 188.771487 94.953579 
L 188.872976 94.185777 
L 188.974464 94.265354 
L 189.075953 94.15393 
L 189.278929 94.36859 
L 189.481906 93.431182 
L 189.583394 93.883481 
L 189.786371 92.651228 
L 189.88786 92.91468 
L 189.989348 92.566783 
L 190.090836 92.710045 
L 190.293813 92.209685 
L 190.395301 92.265286 
L 190.902743 90.96256 
L 191.004232 91.081046 
L 191.10572 90.816419 
L 191.207208 90.905103 
L 191.511674 89.777966 
L 191.613162 90.136681 
L 191.816139 89.791609 
L 192.019115 89.108114 
L 192.120604 89.511419 
L 192.425069 88.59064 
L 192.526557 88.435191 
L 192.628046 88.612595 
L 192.831022 88.21075 
L 192.932511 88.2514 
L 193.439953 87.708746 
L 193.541441 87.808437 
L 193.744418 87.610212 
L 193.845906 87.555768 
L 194.048883 87.145648 
L 194.25186 87.049264 
L 194.353348 87.25507 
L 194.556325 86.765084 
L 194.657813 87.095658 
L 194.962278 86.218554 
L 195.165255 86.480334 
L 195.672697 86.150278 
L 195.774185 85.495549 
L 195.875674 85.862264 
L 196.180139 85.588613 
L 196.281627 85.405451 
L 196.383116 85.790286 
L 196.586092 85.161879 
L 196.687581 85.186139 
L 196.789069 85.01223 
L 196.890557 85.217026 
L 197.093534 84.871651 
L 197.195023 84.976219 
L 197.499488 84.390794 
L 197.600976 84.538206 
L 198.209906 84.106885 
L 198.311395 83.701647 
L 198.412883 83.902686 
L 198.61586 83.705187 
L 198.818837 83.639974 
L 199.021813 83.245638 
L 199.123302 83.525887 
L 199.427767 82.924858 
L 199.529255 83.047289 
L 200.138185 82.432713 
L 200.239674 82.245919 
L 200.442651 82.368474 
L 200.950092 81.96088 
L 201.051581 81.482034 
L 201.254558 81.784078 
L 201.457534 81.51293 
L 201.559023 81.676902 
L 201.660511 81.380989 
L 201.761999 81.441995 
L 201.863488 80.86722 
L 201.964976 81.153609 
L 202.066465 80.999391 
L 202.167953 81.094163 
L 202.37093 80.787275 
L 202.472418 81.022241 
L 202.675395 80.465237 
L 202.776883 80.553576 
L 202.878372 80.361216 
L 202.97986 80.528609 
L 203.182837 80.053758 
L 203.284325 80.414044 
L 203.690279 79.843617 
L 203.791767 79.951583 
L 203.994744 79.541606 
L 204.096232 79.842405 
L 204.299209 79.302699 
L 204.400697 79.192157 
L 204.502186 79.301317 
L 204.806651 79.047826 
L 204.908139 79.168044 
L 205.212604 78.573802 
L 205.517069 78.563415 
L 205.720046 78.443734 
L 205.821534 78.502881 
L 206.024511 77.895185 
L 206.227488 78.109004 
L 206.531953 77.916184 
L 206.73493 77.845553 
L 206.836418 77.648283 
L 207.039395 77.808788 
L 207.546837 77.722575 
L 207.648325 77.484923 
L 207.851302 77.633524 
L 208.054279 77.624413 
L 208.257255 77.374426 
L 208.460232 77.562608 
L 208.663209 77.484835 
L 208.764697 77.414332 
L 208.866186 77.507245 
L 209.069162 77.222201 
L 209.170651 77.372424 
L 210.287023 77.125647 
L 210.388511 77.210831 
L 210.692976 76.860873 
L 210.895953 77.058882 
L 211.09893 76.987286 
L 211.200418 77.03413 
L 211.504883 76.749009 
L 211.70786 76.898396 
L 212.519767 76.712134 
L 213.027209 76.633718 
L 213.128697 76.430599 
L 213.331674 76.577382 
L 214.042093 76.385063 
L 214.143581 76.452379 
L 214.346558 76.286672 
L 214.448046 76.41899 
L 214.752511 76.195844 
L 214.955488 76.289767 
L 215.158465 76.214727 
L 215.259953 76.264864 
L 215.564418 76.04321 
L 215.868884 76.108901 
L 216.477814 75.929651 
L 216.579302 76.07446 
L 216.680791 75.940984 
L 216.883767 75.959431 
L 216.985256 75.966457 
L 217.086744 75.711304 
L 217.289721 75.920508 
L 217.492698 75.774914 
L 217.594186 75.911324 
L 217.898651 75.728185 
L 218.000139 75.682957 
L 218.203116 75.721723 
L 218.812046 75.607531 
L 219.015023 75.61536 
L 219.116512 75.534598 
L 219.218 75.660074 
L 219.522465 75.473518 
L 220.131395 75.517878 
L 220.232884 75.217561 
L 220.43586 75.413682 
L 220.740326 75.32397 
L 220.943302 75.312384 
L 221.044791 75.127045 
L 221.247767 75.303999 
L 221.450744 75.173408 
L 221.552233 75.30562 
L 221.755209 75.177058 
L 221.856698 75.045608 
L 222.059674 75.136565 
L 222.465628 75.011043 
L 222.567116 74.876967 
L 222.770093 75.071246 
L 222.97307 74.962197 
L 223.176047 74.970683 
L 223.379023 74.817085 
L 223.582 74.944774 
L 223.784977 74.876259 
L 223.987954 74.875929 
L 224.089442 74.65771 
L 224.19093 74.787369 
L 224.292419 74.731501 
L 224.393907 74.861261 
L 224.596884 74.768822 
L 224.799861 74.751004 
L 224.901349 74.530329 
L 225.002837 74.720576 
L 225.205814 74.653122 
L 225.510279 74.65062 
L 225.713256 74.50059 
L 226.017721 74.550575 
L 226.525163 74.434504 
L 226.626651 74.512557 
L 226.829628 74.45499 
L 227.134093 74.330139 
L 227.235582 74.250033 
L 227.438558 74.417316 
L 227.641535 74.246745 
L 227.743023 74.443248 
L 227.946 74.089024 
L 228.148977 74.305681 
L 228.351954 74.206109 
L 228.656419 74.155559 
L 228.757907 74.049857 
L 228.960884 74.185096 
L 229.163861 74.082801 
L 229.265349 74.166603 
L 229.468326 73.920317 
L 229.671303 74.032421 
L 230.077256 74.022764 
L 230.280233 73.882956 
L 230.889163 73.863044 
L 230.990651 73.654947 
L 231.193628 73.813858 
L 231.599582 73.776363 
L 231.70107 73.605489 
L 232.005535 73.728219 
L 232.411489 73.631045 
L 232.512977 73.494075 
L 232.715954 73.610738 
L 233.121907 73.541971 
L 233.223396 73.368177 
L 233.426372 73.483582 
L 233.832326 73.51569 
L 233.933814 73.265138 
L 234.238279 73.419103 
L 234.441256 73.32546 
L 234.542745 73.372893 
L 234.745721 73.178507 
L 235.050186 73.220498 
L 235.151675 73.119916 
L 235.253163 73.340045 
L 235.45614 72.970153 
L 235.659117 73.13507 
L 236.06507 73.063042 
L 236.268047 72.967999 
L 236.775489 73.049036 
L 236.978466 72.788079 
L 237.181442 72.913288 
L 237.688884 72.770045 
L 237.790373 72.907732 
L 237.993349 72.576142 
L 238.196326 72.692893 
L 238.500791 72.728675 
L 238.805256 72.514107 
L 238.906745 72.513418 
L 239.008233 72.636869 
L 239.21121 72.529477 
L 239.312698 72.553517 
L 239.515675 72.350172 
L 239.718652 72.503269 
L 239.921628 72.423444 
L 240.226094 72.154487 
L 240.42907 72.32925 
L 240.632047 72.229559 
L 240.733535 72.345033 
L 240.936512 72.013894 
L 241.139489 72.133684 
L 241.443954 72.222598 
L 241.646931 71.963238 
L 242.154373 72.006257 
L 242.458838 71.82957 
L 242.763303 71.862202 
L 243.270745 71.684839 
L 243.57521 71.774914 
L 245.199024 71.728396 
L 245.300512 71.632232 
L 245.604977 71.780774 
L 246.315396 71.682447 
L 246.518373 71.777541 
L 247.025815 71.720713 
L 247.127303 71.81251 
L 247.33028 71.738664 
L 247.533257 71.792906 
L 247.736233 71.693922 
L 247.93921 71.773826 
L 248.446652 71.732414 
L 248.954094 71.776861 
L 249.055582 71.713095 
L 249.258559 71.724258 
L 249.563024 71.860397 
L 249.766001 71.742273 
L 250.070466 71.780792 
L 251.795768 71.799101 
L 251.897257 71.710188 
L 252.100233 71.825157 
L 252.810652 71.827907 
L 253.216606 71.814384 
L 253.318094 71.761514 
L 253.521071 71.852843 
L 253.622559 71.880639 
L 253.724047 71.783736 
L 253.927024 71.868497 
L 254.130001 71.803523 
L 254.535954 71.938831 
L 254.84042 71.837216 
L 255.144885 71.876254 
L 255.246373 71.766956 
L 255.44935 71.936764 
L 255.652327 71.920972 
L 255.753815 71.899393 
L 255.855303 71.747591 
L 256.05828 71.903214 
L 256.261257 71.849403 
L 256.464234 71.941265 
L 256.565722 71.797576 
L 256.768699 71.909331 
L 257.276141 71.791281 
L 257.479117 71.944259 
L 258.189536 71.949269 
L 258.392513 71.936383 
L 258.899955 71.941384 
L 259.305908 71.882053 
L 259.508885 71.975793 
L 260.219303 71.975572 
L 260.42228 72.003093 
L 261.132699 72.024855 
L 261.640141 72.005706 
L 261.741629 71.969364 
L 261.843117 72.093466 
L 262.046094 71.92111 
L 262.350559 72.021746 
L 262.553536 72.037474 
L 262.95949 72.056243 
L 267.019025 72.079644 
L 267.222001 72.171211 
L 267.32349 72.004255 
L 267.627955 72.121038 
L 267.93242 72.160399 
L 268.033908 72.059843 
L 268.236885 72.170633 
L 268.338373 72.094936 
L 268.54135 72.15527 
L 268.642839 72.040994 
L 268.744327 72.197798 
L 269.048792 72.113628 
L 269.251769 72.208481 
L 269.454746 72.079754 
L 269.657722 72.184478 
L 269.860699 72.166971 
L 270.063676 72.144354 
L 271.180048 72.223015 
L 271.281536 72.066961 
L 271.586001 72.247919 
L 271.68749 72.154785 
L 271.788978 72.273527 
L 271.991955 72.099397 
L 272.29642 72.266547 
L 272.397908 72.186857 
L 272.499397 72.250467 
L 272.600885 72.108979 
L 272.803862 72.205795 
L 275.036606 72.220878 
L 275.138095 72.310087 
L 275.239583 72.181059 
L 275.544048 72.273924 
L 275.645536 72.183647 
L 275.747025 72.364607 
L 275.950002 72.179124 
L 276.355955 72.318224 
L 276.558932 72.218384 
L 276.964885 72.324869 
L 277.776792 72.341056 
L 277.878281 72.176086 
L 278.081257 72.351001 
L 278.284234 72.307844 
L 278.690188 72.350567 
L 278.893164 72.296678 
L 278.994653 72.38926 
L 279.19763 72.262724 
L 279.299118 72.260563 
L 279.400606 72.42219 
L 279.80656 72.243487 
L 280.009537 72.368986 
L 280.212513 72.328334 
L 280.314002 72.428121 
L 280.516978 72.321177 
L 280.719955 72.386634 
L 280.821444 72.294354 
L 280.922932 72.439248 
L 281.125909 72.267086 
L 281.328885 72.451879 
L 281.531862 72.393455 
L 282.546746 72.388277 
L 283.866095 72.453743 
L 284.069072 72.330311 
L 284.272048 72.479314 
L 284.678002 72.312294 
L 284.77949 72.484589 
L 284.982467 72.415511 
L 285.185444 72.53028 
L 285.38842 72.396311 
L 285.591397 72.449847 
L 286.301816 72.46222 
L 286.504793 72.462943 
L 286.707769 72.417265 
L 287.012234 72.502144 
L 288.839025 72.492264 
L 288.940514 72.637158 
L 289.244979 72.433763 
L 289.346467 72.57254 
L 289.447955 72.495245 
L 289.650932 72.53208 
L 289.752421 72.432302 
L 289.955397 72.599551 
L 290.158374 72.569047 
L 290.259862 72.56676 
L 290.361351 72.449162 
L 290.665816 72.52812 
L 290.868793 72.627188 
L 290.970281 72.485645 
L 291.376235 72.590391 
L 292.594095 72.545581 
L 292.797072 72.610374 
L 292.89856 72.527194 
L 293.101537 72.606831 
L 293.203025 72.575433 
L 293.304514 72.692179 
L 293.50749 72.495373 
L 293.710467 72.697115 
L 293.811956 72.606616 
L 294.014932 72.606494 
L 294.217909 72.589014 
L 294.319397 72.67722 
L 294.522374 72.626539 
L 294.928328 72.680074 
L 295.131304 72.673594 
L 295.435769 72.617561 
L 295.638746 72.699726 
L 296.0447 72.61904 
L 296.247676 72.637151 
L 296.65363 72.743337 
L 296.958095 72.660805 
L 297.059583 72.715732 
L 297.161072 72.633633 
L 297.364049 72.692888 
L 297.567025 72.684767 
L 297.972979 72.691885 
L 298.074467 72.593197 
L 298.480421 72.792717 
L 298.683397 72.612771 
L 298.987863 72.709411 
L 299.190839 72.73284 
L 299.292328 72.607929 
L 299.596793 72.695535 
L 300.4087 72.685215 
L 300.611677 72.636099 
L 300.916142 72.698761 
L 301.423584 72.626805 
L 301.62656 72.630688 
L 301.829537 72.575118 
L 302.134002 72.662481 
L 302.235491 72.644661 
L 302.336979 72.49986 
L 302.539956 72.624242 
L 302.945909 72.509274 
L 303.148886 72.581772 
L 303.250374 72.547875 
L 303.351863 72.638591 
L 303.554839 72.530147 
L 303.757816 72.548787 
L 303.859305 72.509032 
L 303.960793 72.623007 
L 304.16377 72.50484 
L 304.569723 72.536363 
L 304.7727 72.46203 
L 304.975677 72.545547 
L 305.584607 72.487401 
L 306.295026 72.492813 
L 308.020328 72.390783 
L 308.121816 72.474934 
L 308.324793 72.371867 
L 308.730747 72.396865 
L 308.832235 72.301488 
L 309.1367 72.397189 
L 310.963491 72.305001 
L 311.064979 72.388374 
L 311.267956 72.219101 
L 311.470933 72.318651 
L 312.28284 72.314032 
L 312.384328 72.169623 
L 312.587305 72.271729 
L 314.820049 72.184832 
L 315.124514 72.245241 
L 315.428979 72.164688 
L 315.733444 72.158682 
L 315.936421 72.141406 
L 316.342375 72.165556 
L 316.443863 72.043245 
L 316.64684 72.149424 
L 317.458747 72.149447 
L 317.560235 72.022975 
L 317.763212 72.079826 
L 318.067677 72.074669 
L 318.270654 72.04856 
L 318.372142 72.157552 
L 318.473631 72.038338 
L 318.575119 72.158778 
L 318.778096 72.014778 
L 319.184049 72.097657 
L 319.285538 71.98455 
L 319.488514 72.054808 
L 319.590003 72.013276 
L 319.691491 72.110115 
L 319.995956 71.966721 
L 320.097445 72.081901 
L 320.198933 71.988272 
L 320.300421 72.138203 
L 320.503398 71.978831 
L 320.909352 72.027431 
L 321.01084 71.891449 
L 321.213817 72.129875 
L 321.416793 71.89994 
L 321.61977 72.077603 
L 321.721259 71.976417 
L 321.822747 72.048238 
L 321.924235 71.887573 
L 322.127212 71.983246 
L 322.431677 72.118243 
L 322.533166 71.828752 
L 322.736142 72.074395 
L 322.837631 71.970372 
L 322.939119 72.157049 
L 323.040607 71.839702 
L 323.345073 72.157821 
L 323.649538 71.982488 
L 323.751026 71.978819 
L 323.852514 72.111913 
L 323.954003 71.976801 
L 324.055491 72.163258 
L 324.15698 71.95435 
L 324.359956 72.088447 
L 324.76591 71.954412 
L 324.968887 72.176789 
L 325.070375 71.991937 
L 325.171863 72.18649 
L 325.273352 71.945278 
L 325.37484 72.119692 
L 325.577817 72.095799 
L 325.780794 72.117663 
L 325.98377 72.023728 
L 326.085259 72.147298 
L 326.186747 72.046429 
L 326.288235 72.148772 
L 326.389724 71.922352 
L 326.592701 72.331656 
L 326.795677 71.971933 
L 326.897166 72.200089 
L 326.998654 72.015037 
L 327.303119 72.135099 
L 327.404608 72.024683 
L 327.607584 72.249333 
L 327.709073 71.960044 
L 327.810561 72.053517 
L 327.912049 72.361099 
L 328.013538 71.993117 
L 328.216515 72.249501 
L 328.318003 72.018573 
L 328.52098 72.098288 
L 328.622468 72.044781 
L 328.825445 72.41369 
L 328.926933 72.087244 
L 329.028422 72.123912 
L 329.231398 72.198578 
L 329.332887 72.064235 
L 329.535863 72.266728 
L 329.637352 72.069429 
L 329.73884 72.433811 
L 329.941817 72.044099 
L 330.043305 72.325234 
L 330.34777 72.213907 
L 330.449259 72.483121 
L 330.550747 72.12675 
L 330.753724 72.341454 
L 330.956701 72.279754 
L 331.159677 72.412891 
L 331.261166 72.146311 
L 331.464143 72.425451 
L 331.565631 72.247802 
L 331.768608 72.481774 
L 331.870096 72.21292 
L 332.073073 72.575322 
L 332.174561 72.219541 
L 332.377538 72.429134 
L 332.580515 72.477918 
L 332.682003 72.531424 
L 332.88498 72.290026 
L 332.986468 72.609385 
L 333.189445 72.270207 
L 333.392422 72.705259 
L 333.49391 72.357887 
L 333.696887 72.618358 
L 333.899864 72.456505 
L 334.204329 72.571864 
L 334.305817 72.776059 
L 334.508794 72.361767 
L 334.610282 72.703799 
L 334.813259 72.442504 
L 334.914747 72.577756 
L 335.016236 72.685672 
L 335.117724 72.485149 
L 335.320701 72.790062 
L 335.422189 72.468553 
L 335.625166 72.715537 
L 335.828143 72.592938 
L 335.929631 72.785131 
L 336.132608 72.622908 
L 336.234096 72.793681 
L 336.437073 72.506555 
L 336.64005 72.807017 
L 336.741538 72.580665 
L 336.944515 72.898313 
L 337.147492 72.603739 
L 337.24898 72.80642 
L 337.350468 72.737315 
L 337.553445 72.855204 
L 337.756422 72.65664 
L 337.959399 72.909557 
L 338.060887 72.620041 
L 338.263864 72.933627 
L 338.46684 72.834294 
L 338.568329 73.053394 
L 338.669817 72.747277 
L 338.771306 72.796294 
L 338.872794 72.970812 
L 338.974282 72.724236 
L 339.177259 73.025481 
L 339.278747 72.840002 
L 339.481724 73.062377 
L 339.684701 72.800023 
L 339.887678 72.943015 
L 339.989166 72.853898 
L 340.192143 73.071106 
L 340.293631 72.88957 
L 340.496608 73.1516 
L 340.699585 72.829332 
L 340.801073 73.102333 
L 340.902561 72.978588 
L 341.105538 73.169617 
L 341.308515 72.863606 
L 341.511492 73.116373 
L 341.61298 72.925381 
L 342.120422 73.265019 
L 342.22191 72.968982 
L 342.323399 73.015447 
L 342.424887 73.205642 
L 342.627864 73.02574 
L 342.830841 73.372032 
L 342.932329 73.048286 
L 343.135306 73.317257 
L 343.236794 73.061878 
L 343.642748 73.23992 
L 343.744236 73.427475 
L 343.947213 73.1322 
L 344.150189 73.293648 
L 344.251678 73.100661 
L 344.454655 73.381191 
L 344.556143 73.183269 
L 344.75912 73.48095 
L 344.962096 73.166632 
L 345.063585 73.456846 
L 345.165073 73.374504 
L 345.266562 73.127989 
L 345.469538 73.462175 
L 345.571027 73.308988 
L 345.774003 73.573429 
L 345.97698 73.249382 
L 346.078469 73.532072 
L 346.179957 73.28226 
L 346.484422 73.574655 
L 346.58591 73.253779 
L 346.788887 73.522911 
L 346.991864 73.357155 
L 347.093352 73.523813 
L 347.194841 73.339579 
L 347.397817 73.704482 
L 347.600794 73.334183 
L 347.702283 73.652265 
L 347.905259 73.328443 
L 348.108236 73.649443 
L 348.209724 73.449818 
L 348.412701 73.802726 
L 348.615678 73.439665 
L 348.717166 73.683928 
L 348.818655 73.631035 
L 348.920143 73.429755 
L 349.12312 73.771231 
L 349.224608 73.514838 
L 349.427585 73.828176 
L 349.630562 73.48543 
L 349.73205 73.782693 
L 349.935027 73.589153 
L 350.036515 73.866438 
L 350.239492 73.563423 
L 350.442469 73.874952 
L 350.645445 73.598695 
L 350.746934 73.777617 
L 350.848422 73.70696 
L 351.051399 73.837124 
L 351.152887 73.83649 
L 351.254376 73.558705 
L 351.457352 73.913363 
L 351.558841 73.548051 
L 351.761818 73.905384 
L 351.964794 73.823575 
L 352.066283 73.916561 
L 352.269259 73.639262 
L 352.472236 73.931763 
L 352.675213 73.729032 
L 352.776701 74.009047 
L 352.87819 73.764729 
L 352.979678 73.84415 
L 353.081166 74.072591 
L 353.284143 73.743357 
L 353.48712 73.933864 
L 353.588608 73.637795 
L 353.791585 73.972133 
L 353.893073 73.769043 
L 353.994562 73.825334 
L 354.09605 74.1404 
L 354.299027 73.658067 
L 354.502004 74.00681 
L 354.603492 73.611537 
L 354.806469 73.910022 
L 354.907957 73.745042 
L 355.110934 74.068832 
L 355.313911 73.555249 
L 355.415399 74.138674 
L 355.516887 73.97887 
L 355.618376 73.579681 
L 355.821353 73.857919 
L 355.922841 73.780478 
L 356.024329 73.891865 
L 356.125818 73.814606 
L 356.328794 74.075865 
L 356.531771 73.631125 
L 356.63326 73.97838 
L 356.836236 73.613512 
L 357.039213 73.896335 
L 357.140701 73.636013 
L 357.343678 74.100913 
L 357.546655 73.584664 
L 357.648143 73.974137 
L 357.749632 73.904362 
L 357.85112 73.51195 
L 358.054097 73.895453 
L 358.155585 73.634372 
L 358.358562 74.093733 
L 358.561539 73.504228 
L 358.663027 73.972434 
L 358.764515 73.865717 
L 358.866004 73.481483 
L 359.068981 73.798178 
L 359.170469 73.661334 
L 359.271957 73.786856 
L 359.373446 74.109018 
L 359.576422 73.478905 
L 359.677911 73.950387 
L 359.880888 73.732625 
L 360.185353 73.676619 
L 360.286841 73.855892 
L 360.489818 73.761106 
L 360.591306 73.483952 
L 360.794283 73.847364 
L 360.895771 73.67289 
L 360.99726 73.839565 
L 361.098748 73.610438 
L 361.301725 73.749684 
L 361.707678 73.646618 
L 362.012143 73.735249 
L 362.113632 73.503647 
L 362.316609 73.627597 
L 362.418097 73.73769 
L 362.519585 73.672087 
L 362.621074 73.357283 
L 362.82405 73.626015 
L 362.925539 73.702645 
L 363.128516 73.370607 
L 363.230004 73.632287 
L 363.331492 73.489773 
L 363.432981 73.697648 
L 363.534469 73.328007 
L 363.737446 73.533433 
L 363.838934 73.433975 
L 363.940423 73.666847 
L 364.041911 73.227764 
L 364.244888 73.491571 
L 364.346376 73.403331 
L 364.447864 73.629616 
L 364.549353 73.196916 
L 364.75233 73.543354 
L 365.056795 73.090792 
L 365.259771 73.566268 
L 365.36126 73.30478 
L 365.462748 73.424488 
L 365.564237 73.092615 
L 365.767213 73.284284 
L 365.97019 73.377011 
L 366.071678 73.010599 
L 366.173167 73.263824 
L 366.274655 73.149214 
L 366.376144 73.350629 
L 366.57912 73.12815 
L 366.782097 73.256459 
L 366.985074 72.985699 
L 367.188051 73.101143 
L 367.289539 73.077307 
L 367.391027 73.261219 
L 367.492516 72.943066 
L 367.796981 73.152463 
L 367.898469 73.077562 
L 367.999958 72.783685 
L 368.202934 73.074882 
L 368.405911 73.121296 
L 368.507399 72.787319 
L 368.811865 73.135233 
L 369.014841 72.606709 
L 369.11633 73.006148 
L 369.217818 72.907937 
L 369.319306 73.015098 
L 369.522283 72.723993 
L 369.623772 72.958517 
L 369.72526 72.718593 
L 369.826748 72.942547 
L 370.029725 72.674264 
L 370.232702 72.912472 
L 370.435679 72.610965 
L 370.537167 72.80625 
L 370.638655 72.719814 
L 370.740144 72.86371 
L 370.94312 72.574603 
L 371.044609 72.700855 
L 371.146097 72.648992 
L 371.247586 72.857001 
L 371.349074 72.496914 
L 371.552051 72.649513 
L 371.653539 72.522533 
L 371.755027 72.800754 
L 371.958004 72.38925 
L 372.160981 72.66205 
L 372.262469 72.568756 
L 372.363958 72.186736 
L 372.566934 72.58462 
L 372.8714 72.076704 
L 372.972888 72.442957 
L 373.175865 72.409088 
L 373.277353 72.104444 
L 373.581818 72.272151 
L 373.581818 72.272151 
" style="fill:none;stroke:#081d58;stroke-dasharray:5.55,2.4;stroke-dashoffset:0;stroke-width:1.5;"/>
    <defs>
     <path d="M -0 4.242641 
L 4.242641 0 
L 0 -4.242641 
L -4.242641 -0 
z
" id="m0634fefedc" style="stroke:#081d58;stroke-linejoin:miter;"/>
    </defs>
    <g clip-path="url(#p1b45503113)">
     <use style="fill:#081d58;stroke:#081d58;stroke-linejoin:miter;" x="69.218182" xlink:href="#m0634fefedc" y="60.232615"/>
     <use style="fill:#081d58;stroke:#081d58;stroke-linejoin:miter;" x="77.337252" xlink:href="#m0634fefedc" y="59.538106"/>
     <use style="fill:#081d58;stroke:#081d58;stroke-linejoin:miter;" x="85.456322" xlink:href="#m0634fefedc" y="58.851255"/>
     <use style="fill:#081d58;stroke:#081d58;stroke-linejoin:miter;" x="93.575392" xlink:href="#m0634fefedc" y="53.940958"/>
     <use style="fill:#081d58;stroke:#081d58;stroke-linejoin:miter;" x="101.694462" xlink:href="#m0634fefedc" y="49.942659"/>
     <use style="fill:#081d58;stroke:#081d58;stroke-linejoin:miter;" x="109.813532" xlink:href="#m0634fefedc" y="47.281445"/>
     <use style="fill:#081d58;stroke:#081d58;stroke-linejoin:miter;" x="117.932602" xlink:href="#m0634fefedc" y="45.471686"/>
     <use style="fill:#081d58;stroke:#081d58;stroke-linejoin:miter;" x="126.051672" xlink:href="#m0634fefedc" y="45.281004"/>
     <use style="fill:#081d58;stroke:#081d58;stroke-linejoin:miter;" x="134.170742" xlink:href="#m0634fefedc" y="50.736652"/>
     <use style="fill:#081d58;stroke:#081d58;stroke-linejoin:miter;" x="142.289812" xlink:href="#m0634fefedc" y="53.372753"/>
     <use style="fill:#081d58;stroke:#081d58;stroke-linejoin:miter;" x="150.408882" xlink:href="#m0634fefedc" y="78.392394"/>
     <use style="fill:#081d58;stroke:#081d58;stroke-linejoin:miter;" x="158.527952" xlink:href="#m0634fefedc" y="103.100422"/>
     <use style="fill:#081d58;stroke:#081d58;stroke-linejoin:miter;" x="166.647022" xlink:href="#m0634fefedc" y="114.201941"/>
     <use style="fill:#081d58;stroke:#081d58;stroke-linejoin:miter;" x="174.766092" xlink:href="#m0634fefedc" y="111.573734"/>
     <use style="fill:#081d58;stroke:#081d58;stroke-linejoin:miter;" x="182.885162" xlink:href="#m0634fefedc" y="106.188156"/>
     <use style="fill:#081d58;stroke:#081d58;stroke-linejoin:miter;" x="191.004232" xlink:href="#m0634fefedc" y="91.081046"/>
     <use style="fill:#081d58;stroke:#081d58;stroke-linejoin:miter;" x="199.123302" xlink:href="#m0634fefedc" y="83.525887"/>
     <use style="fill:#081d58;stroke:#081d58;stroke-linejoin:miter;" x="207.242372" xlink:href="#m0634fefedc" y="77.729757"/>
     <use style="fill:#081d58;stroke:#081d58;stroke-linejoin:miter;" x="215.361442" xlink:href="#m0634fefedc" y="76.166394"/>
     <use style="fill:#081d58;stroke:#081d58;stroke-linejoin:miter;" x="223.480512" xlink:href="#m0634fefedc" y="74.934515"/>
     <use style="fill:#081d58;stroke:#081d58;stroke-linejoin:miter;" x="231.599582" xlink:href="#m0634fefedc" y="73.776363"/>
     <use style="fill:#081d58;stroke:#081d58;stroke-linejoin:miter;" x="239.718652" xlink:href="#m0634fefedc" y="72.503269"/>
     <use style="fill:#081d58;stroke:#081d58;stroke-linejoin:miter;" x="247.837722" xlink:href="#m0634fefedc" y="71.772797"/>
     <use style="fill:#081d58;stroke:#081d58;stroke-linejoin:miter;" x="255.956792" xlink:href="#m0634fefedc" y="71.895554"/>
     <use style="fill:#081d58;stroke:#081d58;stroke-linejoin:miter;" x="264.075862" xlink:href="#m0634fefedc" y="71.97571"/>
     <use style="fill:#081d58;stroke:#081d58;stroke-linejoin:miter;" x="272.194932" xlink:href="#m0634fefedc" y="72.215119"/>
     <use style="fill:#081d58;stroke:#081d58;stroke-linejoin:miter;" x="280.314002" xlink:href="#m0634fefedc" y="72.428121"/>
     <use style="fill:#081d58;stroke:#081d58;stroke-linejoin:miter;" x="288.433072" xlink:href="#m0634fefedc" y="72.43168"/>
     <use style="fill:#081d58;stroke:#081d58;stroke-linejoin:miter;" x="296.552142" xlink:href="#m0634fefedc" y="72.648191"/>
     <use style="fill:#081d58;stroke:#081d58;stroke-linejoin:miter;" x="304.671212" xlink:href="#m0634fefedc" y="72.452202"/>
     <use style="fill:#081d58;stroke:#081d58;stroke-linejoin:miter;" x="312.790282" xlink:href="#m0634fefedc" y="72.305607"/>
     <use style="fill:#081d58;stroke:#081d58;stroke-linejoin:miter;" x="320.909352" xlink:href="#m0634fefedc" y="72.027431"/>
     <use style="fill:#081d58;stroke:#081d58;stroke-linejoin:miter;" x="329.028422" xlink:href="#m0634fefedc" y="72.123912"/>
     <use style="fill:#081d58;stroke:#081d58;stroke-linejoin:miter;" x="337.147492" xlink:href="#m0634fefedc" y="72.603739"/>
     <use style="fill:#081d58;stroke:#081d58;stroke-linejoin:miter;" x="345.266562" xlink:href="#m0634fefedc" y="73.127989"/>
     <use style="fill:#081d58;stroke:#081d58;stroke-linejoin:miter;" x="353.385632" xlink:href="#m0634fefedc" y="73.965123"/>
     <use style="fill:#081d58;stroke:#081d58;stroke-linejoin:miter;" x="361.504702" xlink:href="#m0634fefedc" y="73.706342"/>
     <use style="fill:#081d58;stroke:#081d58;stroke-linejoin:miter;" x="369.623772" xlink:href="#m0634fefedc" y="72.958517"/>
    </g>
   </g>
   <g id="patch_3">
    <path d="M 54 252 
L 54 34.56 
" style="fill:none;stroke:#000000;stroke-linecap:square;stroke-linejoin:miter;stroke-width:0.8;"/>
   </g>
   <g id="patch_4">
    <path d="M 388.8 252 
L 388.8 34.56 
" style="fill:none;stroke:#000000;stroke-linecap:square;stroke-linejoin:miter;stroke-width:0.8;"/>
   </g>
   <g id="patch_5">
    <path d="M 54 252 
L 388.8 252 
" style="fill:none;stroke:#000000;stroke-linecap:square;stroke-linejoin:miter;stroke-width:0.8;"/>
   </g>
   <g id="patch_6">
    <path d="M 54 34.56 
L 388.8 34.56 
" style="fill:none;stroke:#000000;stroke-linecap:square;stroke-linejoin:miter;stroke-width:0.8;"/>
   </g>
   <g id="legend_1">
    <g id="patch_7">
     <path d="M 280.085938 247 
L 381.8 247 
Q 383.8 247 383.8 245 
L 383.8 216.64375 
Q 383.8 214.64375 381.8 214.64375 
L 280.085938 214.64375 
Q 278.085938 214.64375 278.085938 216.64375 
L 278.085938 245 
Q 278.085938 247 280.085938 247 
z
" style="fill:#ffffff;opacity:0.8;stroke:#cccccc;stroke-linejoin:miter;"/>
    </g>
    <g id="line2d_16">
     <path d="M 282.085938 222.742188 
L 302.085938 222.742188 
" style="fill:none;stroke:#40b5c4;stroke-dasharray:5.55,2.4;stroke-dashoffset:0;stroke-width:1.5;"/>
    </g>
    <g id="line2d_17">
     <g>
      <use style="fill:#40b5c4;stroke:#40b5c4;" x="292.085938" xlink:href="#m43ae1d5e49" y="222.742188"/>
     </g>
    </g>
    <g id="text_16">
     <text style="font-family:DejaVu Sans;font-size:10px;font-style:normal;font-weight:normal;text-anchor:start;" transform="rotate(-0, 310.085938, 226.242188)" x="310.085938" y="226.242188">original</text>
    </g>
    <g id="line2d_18">
     <path d="M 282.085938 237.420312 
L 302.085938 237.420312 
" style="fill:none;stroke:#081d58;stroke-dasharray:5.55,2.4;stroke-dashoffset:0;stroke-width:1.5;"/>
    </g>
    <g id="line2d_19">
     <g>
      <use style="fill:#081d58;stroke:#081d58;stroke-linejoin:miter;" x="292.085938" xlink:href="#m0634fefedc" y="237.420312"/>
     </g>
    </g>
    <g id="text_17">
     <text style="font-family:DejaVu Sans;font-size:10px;font-style:normal;font-weight:normal;text-anchor:start;" transform="rotate(-0, 310.085938, 240.920312)" x="310.085938" y="240.920312">reconstructed</text>
    </g>
   </g>
  </g>
  <g id="text_18">
   <text style="font-family:DejaVu Sans;font-size:12px;font-style:normal;font-weight:normal;text-anchor:middle;" transform="rotate(-0, 216, 14.878125)" x="216" y="14.878125">Reconstruction of the temperature curve</text>
  </g>
 </g>
 <defs>
  <clipPath id="p1b45503113">
   <rect height="217.44" width="334.8" x="54" y="34.56"/>
  </clipPath>
 </defs>
</svg>
