<?xml version="1.0" encoding="utf-8" standalone="no"?>
<!DOCTYPE svg PUBLIC "-//W3C//DTD SVG 1.1//EN"
  "http://www.w3.org/Graphics/SVG/1.1/DTD/svg11.dtd">
<!-- Created with matplotlib (https://matplotlib.org/) -->
<svg height="288pt" version="1.1" viewBox="0 0 432 288" width="432pt" xmlns="http://www.w3.org/2000/svg" xmlns:xlink="http://www.w3.org/1999/xlink">
 <defs>
  <style type="text/css">
*{stroke-linecap:butt;stroke-linejoin:round;}
  </style>
 </defs>
 <g id="figure_1">
  <g id="patch_1">
   <path d="M 0 288 
L 432 288 
L 432 0 
L 0 0 
z
" style="fill:#ffffff;"/>
  </g>
  <g id="axes_1">
   <g id="patch_2">
    <path d="M 54 252 
L 388.8 252 
L 388.8 34.56 
L 54 34.56 
z
" style="fill:#ffffff;"/>
   </g>
   <g id="matplotlib.axis_1">
    <g id="xtick_1">
     <g id="line2d_1">
      <defs>
       <path d="M 0 0 
L 0 3.5 
" id="m8c13c4bc86" style="stroke:#000000;stroke-width:0.8;"/>
      </defs>
      <g>
       <use style="stroke:#000000;stroke-width:0.8;" x="69.218182" xlink:href="#m8c13c4bc86" y="252"/>
      </g>
     </g>
     <g id="text_1">
      <text style="font-family:DejaVu Sans;font-size:10px;font-style:normal;font-weight:normal;text-anchor:middle;" transform="rotate(-0, 69.218182, 266.598437)" x="69.218182" y="266.598437">0</text>
     </g>
    </g>
    <g id="xtick_2">
     <g id="line2d_2">
      <g>
       <use style="stroke:#000000;stroke-width:0.8;" x="119.962369" xlink:href="#m8c13c4bc86" y="252"/>
      </g>
     </g>
     <g id="text_2">
      <text style="font-family:DejaVu Sans;font-size:10px;font-style:normal;font-weight:normal;text-anchor:middle;" transform="rotate(-0, 119.962369, 266.598437)" x="119.962369" y="266.598437">500</text>
     </g>
    </g>
    <g id="xtick_3">
     <g id="line2d_3">
      <g>
       <use style="stroke:#000000;stroke-width:0.8;" x="170.706557" xlink:href="#m8c13c4bc86" y="252"/>
      </g>
     </g>
     <g id="text_3">
      <text style="font-family:DejaVu Sans;font-size:10px;font-style:normal;font-weight:normal;text-anchor:middle;" transform="rotate(-0, 170.706557, 266.598437)" x="170.706557" y="266.598437">1000</text>
     </g>
    </g>
    <g id="xtick_4">
     <g id="line2d_4">
      <g>
       <use style="stroke:#000000;stroke-width:0.8;" x="221.450744" xlink:href="#m8c13c4bc86" y="252"/>
      </g>
     </g>
     <g id="text_4">
      <text style="font-family:DejaVu Sans;font-size:10px;font-style:normal;font-weight:normal;text-anchor:middle;" transform="rotate(-0, 221.450744, 266.598437)" x="221.450744" y="266.598437">1500</text>
     </g>
    </g>
    <g id="xtick_5">
     <g id="line2d_5">
      <g>
       <use style="stroke:#000000;stroke-width:0.8;" x="272.194932" xlink:href="#m8c13c4bc86" y="252"/>
      </g>
     </g>
     <g id="text_5">
      <text style="font-family:DejaVu Sans;font-size:10px;font-style:normal;font-weight:normal;text-anchor:middle;" transform="rotate(-0, 272.194932, 266.598437)" x="272.194932" y="266.598437">2000</text>
     </g>
    </g>
    <g id="xtick_6">
     <g id="line2d_6">
      <g>
       <use style="stroke:#000000;stroke-width:0.8;" x="322.939119" xlink:href="#m8c13c4bc86" y="252"/>
      </g>
     </g>
     <g id="text_6">
      <text style="font-family:DejaVu Sans;font-size:10px;font-style:normal;font-weight:normal;text-anchor:middle;" transform="rotate(-0, 322.939119, 266.598437)" x="322.939119" y="266.598437">2500</text>
     </g>
    </g>
    <g id="xtick_7">
     <g id="line2d_7">
      <g>
       <use style="stroke:#000000;stroke-width:0.8;" x="373.683307" xlink:href="#m8c13c4bc86" y="252"/>
      </g>
     </g>
     <g id="text_7">
      <text style="font-family:DejaVu Sans;font-size:10px;font-style:normal;font-weight:normal;text-anchor:middle;" transform="rotate(-0, 373.683307, 266.598437)" x="373.683307" y="266.598437">3000</text>
     </g>
    </g>
    <g id="text_8">
     <text style="font-family:DejaVu Sans;font-size:10px;font-style:normal;font-weight:normal;text-anchor:middle;" transform="rotate(-0, 221.4, 280.276563)" x="221.4" y="280.276563">Time</text>
    </g>
   </g>
   <g id="matplotlib.axis_2">
    <g id="ytick_1">
     <g id="line2d_8">
      <defs>
       <path d="M 0 0 
L -3.5 0 
" id="m25f5d72655" style="stroke:#000000;stroke-width:0.8;"/>
      </defs>
      <g>
       <use style="stroke:#000000;stroke-width:0.8;" x="54" xlink:href="#m25f5d72655" y="222.734985"/>
      </g>
     </g>
     <g id="text_9">
      <text style="font-family:DejaVu Sans;font-size:10px;font-style:normal;font-weight:normal;text-anchor:end;" transform="rotate(-0, 47, 226.534203)" x="47" y="226.534203">50</text>
     </g>
    </g>
    <g id="ytick_2">
     <g id="line2d_9">
      <g>
       <use style="stroke:#000000;stroke-width:0.8;" x="54" xlink:href="#m25f5d72655" y="191.399186"/>
      </g>
     </g>
     <g id="text_10">
      <text style="font-family:DejaVu Sans;font-size:10px;font-style:normal;font-weight:normal;text-anchor:end;" transform="rotate(-0, 47, 195.198405)" x="47" y="195.198405">55</text>
     </g>
    </g>
    <g id="ytick_3">
     <g id="line2d_10">
      <g>
       <use style="stroke:#000000;stroke-width:0.8;" x="54" xlink:href="#m25f5d72655" y="160.063388"/>
      </g>
     </g>
     <g id="text_11">
      <text style="font-family:DejaVu Sans;font-size:10px;font-style:normal;font-weight:normal;text-anchor:end;" transform="rotate(-0, 47, 163.862607)" x="47" y="163.862607">60</text>
     </g>
    </g>
    <g id="ytick_4">
     <g id="line2d_11">
      <g>
       <use style="stroke:#000000;stroke-width:0.8;" x="54" xlink:href="#m25f5d72655" y="128.72759"/>
      </g>
     </g>
     <g id="text_12">
      <text style="font-family:DejaVu Sans;font-size:10px;font-style:normal;font-weight:normal;text-anchor:end;" transform="rotate(-0, 47, 132.526809)" x="47" y="132.526809">65</text>
     </g>
    </g>
    <g id="ytick_5">
     <g id="line2d_12">
      <g>
       <use style="stroke:#000000;stroke-width:0.8;" x="54" xlink:href="#m25f5d72655" y="97.391792"/>
      </g>
     </g>
     <g id="text_13">
      <text style="font-family:DejaVu Sans;font-size:10px;font-style:normal;font-weight:normal;text-anchor:end;" transform="rotate(-0, 47, 101.191011)" x="47" y="101.191011">70</text>
     </g>
    </g>
    <g id="ytick_6">
     <g id="line2d_13">
      <g>
       <use style="stroke:#000000;stroke-width:0.8;" x="54" xlink:href="#m25f5d72655" y="66.055994"/>
      </g>
     </g>
     <g id="text_14">
      <text style="font-family:DejaVu Sans;font-size:10px;font-style:normal;font-weight:normal;text-anchor:end;" transform="rotate(-0, 47, 69.855213)" x="47" y="69.855213">75</text>
     </g>
    </g>
    <g id="ytick_7">
     <g id="line2d_14">
      <g>
       <use style="stroke:#000000;stroke-width:0.8;" x="54" xlink:href="#m25f5d72655" y="34.720196"/>
      </g>
     </g>
     <g id="text_15">
      <text style="font-family:DejaVu Sans;font-size:10px;font-style:normal;font-weight:normal;text-anchor:end;" transform="rotate(-0, 47, 38.519415)" x="47" y="38.519415">80</text>
     </g>
    </g>
    <g id="text_16">
     <text style="font-family:DejaVu Sans;font-size:10px;font-style:normal;font-weight:normal;text-anchor:middle;" transform="rotate(-90, 28.195312, 143.28)" x="28.195312" y="143.28">weight (\%)</text>
    </g>
   </g>
   <g id="line2d_15">
    <path clip-path="url(#p6b988fc0e3)" d="M 69.218182 207.671866 
L 89.92181 207.910269 
L 97.025997 208.293255 
L 114.786462 209.344947 
L 128.385904 210.185499 
L 134.170742 210.76847 
L 139.042184 211.482863 
L 142.594277 212.222326 
L 145.638928 213.076602 
L 148.277626 214.058729 
L 150.51037 215.128721 
L 152.844603 216.505177 
L 155.381812 218.272516 
L 157.817533 220.216965 
L 160.151766 222.363217 
L 162.181533 224.52827 
L 164.211301 227.01464 
L 166.951487 230.764845 
L 169.996138 234.859557 
L 171.416975 236.393193 
L 172.533347 237.279934 
L 173.548231 237.812705 
L 174.86758 238.225774 
L 177.303301 238.704271 
L 181.565813 239.28461 
L 188.061069 239.901111 
L 198.61586 240.651666 
L 210.794465 241.293736 
L 222.567116 241.677098 
L 240.226094 241.980492 
L 260.625257 242.109094 
L 291.782188 242.036583 
L 373.581818 241.686875 
L 373.581818 241.686875 
" style="fill:none;stroke:#40b5c4;stroke-dasharray:5.55,2.4;stroke-dashoffset:0;stroke-width:1.5;"/>
    <defs>
     <path d="M 0 3 
C 0.795609 3 1.55874 2.683901 2.12132 2.12132 
C 2.683901 1.55874 3 0.795609 3 0 
C 3 -0.795609 2.683901 -1.55874 2.12132 -2.12132 
C 1.55874 -2.683901 0.795609 -3 0 -3 
C -0.795609 -3 -1.55874 -2.683901 -2.12132 -2.12132 
C -2.683901 -1.55874 -3 -0.795609 -3 0 
C -3 0.795609 -2.683901 1.55874 -2.12132 2.12132 
C -1.55874 2.683901 -0.795609 3 0 3 
z
" id="m44586cc89e" style="stroke:#40b5c4;"/>
    </defs>
    <g clip-path="url(#p6b988fc0e3)">
     <use style="fill:#40b5c4;stroke:#40b5c4;" x="69.218182" xlink:href="#m44586cc89e" y="207.671866"/>
     <use style="fill:#40b5c4;stroke:#40b5c4;" x="77.337252" xlink:href="#m44586cc89e" y="207.715486"/>
     <use style="fill:#40b5c4;stroke:#40b5c4;" x="85.456322" xlink:href="#m44586cc89e" y="207.792885"/>
     <use style="fill:#40b5c4;stroke:#40b5c4;" x="93.575392" xlink:href="#m44586cc89e" y="208.079608"/>
     <use style="fill:#40b5c4;stroke:#40b5c4;" x="101.694462" xlink:href="#m44586cc89e" y="208.604545"/>
     <use style="fill:#40b5c4;stroke:#40b5c4;" x="109.813532" xlink:href="#m44586cc89e" y="209.08298"/>
     <use style="fill:#40b5c4;stroke:#40b5c4;" x="117.932602" xlink:href="#m44586cc89e" y="209.510275"/>
     <use style="fill:#40b5c4;stroke:#40b5c4;" x="126.051672" xlink:href="#m44586cc89e" y="210.00513"/>
     <use style="fill:#40b5c4;stroke:#40b5c4;" x="134.170742" xlink:href="#m44586cc89e" y="210.76847"/>
     <use style="fill:#40b5c4;stroke:#40b5c4;" x="142.289812" xlink:href="#m44586cc89e" y="212.149627"/>
     <use style="fill:#40b5c4;stroke:#40b5c4;" x="150.408882" xlink:href="#m44586cc89e" y="215.074886"/>
     <use style="fill:#40b5c4;stroke:#40b5c4;" x="158.527952" xlink:href="#m44586cc89e" y="220.837226"/>
     <use style="fill:#40b5c4;stroke:#40b5c4;" x="166.647022" xlink:href="#m44586cc89e" y="230.336673"/>
     <use style="fill:#40b5c4;stroke:#40b5c4;" x="174.766092" xlink:href="#m44586cc89e" y="238.200705"/>
     <use style="fill:#40b5c4;stroke:#40b5c4;" x="182.885162" xlink:href="#m44586cc89e" y="239.428442"/>
     <use style="fill:#40b5c4;stroke:#40b5c4;" x="191.004232" xlink:href="#m44586cc89e" y="240.130363"/>
     <use style="fill:#40b5c4;stroke:#40b5c4;" x="199.123302" xlink:href="#m44586cc89e" y="240.683252"/>
     <use style="fill:#40b5c4;stroke:#40b5c4;" x="207.242372" xlink:href="#m44586cc89e" y="241.133736"/>
     <use style="fill:#40b5c4;stroke:#40b5c4;" x="215.361442" xlink:href="#m44586cc89e" y="241.466898"/>
     <use style="fill:#40b5c4;stroke:#40b5c4;" x="223.480512" xlink:href="#m44586cc89e" y="241.699033"/>
     <use style="fill:#40b5c4;stroke:#40b5c4;" x="231.599582" xlink:href="#m44586cc89e" y="241.861541"/>
     <use style="fill:#40b5c4;stroke:#40b5c4;" x="239.718652" xlink:href="#m44586cc89e" y="241.974789"/>
     <use style="fill:#40b5c4;stroke:#40b5c4;" x="247.837722" xlink:href="#m44586cc89e" y="242.050997"/>
     <use style="fill:#40b5c4;stroke:#40b5c4;" x="255.956792" xlink:href="#m44586cc89e" y="242.09587"/>
     <use style="fill:#40b5c4;stroke:#40b5c4;" x="264.075862" xlink:href="#m44586cc89e" y="242.114922"/>
     <use style="fill:#40b5c4;stroke:#40b5c4;" x="272.194932" xlink:href="#m44586cc89e" y="242.109031"/>
     <use style="fill:#40b5c4;stroke:#40b5c4;" x="280.314002" xlink:href="#m44586cc89e" y="242.083649"/>
     <use style="fill:#40b5c4;stroke:#40b5c4;" x="288.433072" xlink:href="#m44586cc89e" y="242.04824"/>
     <use style="fill:#40b5c4;stroke:#40b5c4;" x="296.552142" xlink:href="#m44586cc89e" y="242.027871"/>
     <use style="fill:#40b5c4;stroke:#40b5c4;" x="304.671212" xlink:href="#m44586cc89e" y="242.017468"/>
     <use style="fill:#40b5c4;stroke:#40b5c4;" x="312.790282" xlink:href="#m44586cc89e" y="241.973472"/>
     <use style="fill:#40b5c4;stroke:#40b5c4;" x="320.909352" xlink:href="#m44586cc89e" y="241.929602"/>
     <use style="fill:#40b5c4;stroke:#40b5c4;" x="329.028422" xlink:href="#m44586cc89e" y="241.885481"/>
     <use style="fill:#40b5c4;stroke:#40b5c4;" x="337.147492" xlink:href="#m44586cc89e" y="241.837914"/>
     <use style="fill:#40b5c4;stroke:#40b5c4;" x="345.266562" xlink:href="#m44586cc89e" y="241.789281"/>
     <use style="fill:#40b5c4;stroke:#40b5c4;" x="353.385632" xlink:href="#m44586cc89e" y="241.743781"/>
     <use style="fill:#40b5c4;stroke:#40b5c4;" x="361.504702" xlink:href="#m44586cc89e" y="241.706554"/>
     <use style="fill:#40b5c4;stroke:#40b5c4;" x="369.623772" xlink:href="#m44586cc89e" y="241.686875"/>
    </g>
   </g>
   <g id="line2d_16">
    <path clip-path="url(#p6b988fc0e3)" d="M 69.218182 44.681514 
L 69.31967 44.764186 
L 69.421159 45.036873 
L 69.522647 44.84877 
L 69.624135 44.949085 
L 69.725624 44.447796 
L 69.827112 45.098649 
L 69.9286 44.613044 
L 70.131577 45.019755 
L 70.233066 44.510386 
L 70.334554 45.165685 
L 70.537531 44.630018 
L 70.639019 44.952049 
L 70.740507 44.503978 
L 70.841996 45.110746 
L 70.943484 44.599942 
L 71.146461 45.026066 
L 71.247949 44.590188 
L 71.349438 45.213452 
L 71.552414 44.746303 
L 71.653903 44.866413 
L 71.755391 44.562886 
L 71.85688 45.03276 
L 72.059856 44.732389 
L 72.161345 44.863688 
L 72.262833 44.668652 
L 72.364321 44.992931 
L 72.46581 44.762751 
L 72.668787 45.046053 
L 72.770275 44.721726 
L 72.871763 44.928477 
L 73.07474 44.657081 
L 73.176228 45.060302 
L 73.277717 44.535249 
L 73.480694 44.968498 
L 73.582182 44.67286 
L 73.68367 45.183137 
L 73.785159 44.722204 
L 73.886647 45.04218 
L 74.089624 44.443636 
L 74.191112 45.198295 
L 74.292601 44.763468 
L 74.495577 44.819794 
L 74.597066 44.603003 
L 74.698554 45.081005 
L 74.800042 44.747498 
L 74.901531 45.062358 
L 75.003019 44.950041 
L 75.104508 44.661289 
L 75.205996 45.192987 
L 75.307484 44.680797 
L 75.408973 44.767389 
L 75.510461 45.006797 
L 75.611949 44.647996 
L 75.713438 45.130494 
L 75.814926 44.622415 
L 76.017903 44.99666 
L 76.119391 44.826393 
L 76.22088 45.220815 
L 76.423856 44.770545 
L 76.525345 45.054229 
L 76.626833 44.652395 
L 76.728322 45.163438 
L 76.931298 44.56762 
L 77.032787 45.191457 
L 77.134275 44.669752 
L 77.235763 45.232578 
L 77.43874 44.690216 
L 77.540229 45.198868 
L 77.641717 44.650148 
L 77.743205 45.109981 
L 77.844694 44.720053 
L 78.04767 45.130159 
L 78.149159 44.664636 
L 78.250647 45.088895 
L 78.453624 44.86737 
L 78.555112 45.184524 
L 78.656601 44.865409 
L 78.758089 45.149476 
L 78.961066 44.742573 
L 79.062554 45.207858 
L 79.164043 44.796461 
L 79.367019 44.970123 
L 79.468508 44.772075 
L 79.569996 45.174626 
L 79.671484 45.034434 
L 79.772973 45.182133 
L 79.97595 44.668317 
L 80.077438 45.233821 
L 80.280415 44.934645 
L 80.381903 45.128007 
L 80.483391 44.67219 
L 80.58488 45.225358 
L 80.686368 44.850061 
L 80.787857 45.135371 
L 80.889345 45.075363 
L 80.990833 44.824576 
L 81.092322 45.403993 
L 81.295298 44.908825 
L 81.396787 45.157079 
L 81.498275 44.881188 
L 81.599764 45.157126 
L 81.701252 44.884583 
L 81.904229 45.169941 
L 82.005717 44.962616 
L 82.107205 45.373248 
L 82.310182 44.802772 
L 82.411671 45.357278 
L 82.513159 44.838872 
L 82.614647 45.334949 
L 82.817624 44.82601 
L 82.919112 45.301766 
L 83.020601 44.897063 
L 83.122089 45.478632 
L 83.325066 44.995178 
L 83.426554 45.368945 
L 83.528043 45.05203 
L 83.629531 45.279101 
L 83.731019 45.010049 
L 83.832508 45.062358 
L 83.933996 45.379417 
L 84.035485 44.950232 
L 84.136973 45.411596 
L 84.238461 45.152106 
L 84.441438 45.461801 
L 84.542926 45.078615 
L 84.644415 45.459554 
L 84.847392 45.034721 
L 84.94888 45.456159 
L 85.050368 45.41217 
L 85.354833 45.199681 
L 85.456322 45.712541 
L 85.55781 45.355748 
L 85.760787 45.569814 
L 85.862275 45.110937 
L 85.963764 45.801046 
L 86.065252 45.421207 
L 86.268229 45.57933 
L 86.369717 45.251321 
L 86.471206 45.906429 
L 86.572694 45.438229 
L 86.674182 45.76179 
L 86.775671 45.662623 
L 86.877159 45.346185 
L 86.978647 45.943868 
L 87.181624 45.702309 
L 87.283113 45.832747 
L 87.384601 45.511337 
L 87.486089 45.996512 
L 87.689066 45.719474 
L 87.790554 46.114758 
L 87.892043 45.401842 
L 87.993531 46.267382 
L 88.196508 45.865404 
L 88.297996 46.338339 
L 88.399485 45.850199 
L 88.500973 46.262505 
L 88.70395 45.925842 
L 88.805438 46.368128 
L 88.906927 46.00684 
L 89.008415 46.524912 
L 89.211392 46.130345 
L 89.31288 46.61662 
L 89.414368 46.266808 
L 89.515857 46.637467 
L 89.617345 46.37726 
L 89.718834 46.460458 
L 89.820322 46.84766 
L 89.92181 46.573778 
L 90.023299 46.919143 
L 90.226275 46.586688 
L 90.327764 46.962942 
L 90.429252 46.746007 
L 90.530741 47.059623 
L 90.733717 46.664148 
L 90.835206 47.291093 
L 90.936694 46.916514 
L 91.038182 47.389974 
L 91.241159 47.160559 
L 91.342648 47.382706 
L 91.444136 47.202063 
L 91.545624 47.488568 
L 91.748601 47.150901 
L 91.850089 47.640618 
L 91.951578 47.451081 
L 92.053066 47.543459 
L 92.154555 47.894275 
L 92.256043 47.522229 
L 92.357531 48.06024 
L 92.45902 47.551396 
L 92.661996 47.977472 
L 92.763485 47.666821 
L 92.864973 48.384901 
L 92.966462 47.783536 
L 93.169438 48.30419 
L 93.270927 48.040683 
L 93.372415 48.665573 
L 93.473903 48.090267 
L 93.67688 48.491336 
L 93.778369 48.183171 
L 93.879857 48.749822 
L 94.082834 48.374477 
L 94.184322 48.756229 
L 94.28581 48.557799 
L 94.387299 49.131957 
L 94.488787 48.746953 
L 94.590276 48.806865 
L 94.691764 49.250633 
L 94.793252 48.617902 
L 94.894741 49.384992 
L 94.996229 48.987509 
L 95.199206 49.199949 
L 95.300694 49.150126 
L 95.402183 49.457001 
L 95.503671 49.417123 
L 95.605159 49.435484 
L 95.706648 49.795146 
L 95.808136 49.384418 
L 95.909624 49.829716 
L 96.112601 49.520307 
L 96.21409 50.233606 
L 96.315578 49.554064 
L 96.417066 50.201857 
L 96.620043 49.848029 
L 96.721531 50.423908 
L 96.82302 49.919846 
L 96.924508 50.39259 
L 97.127485 50.103741 
L 97.228973 50.552769 
L 97.330462 50.480043 
L 97.43195 50.685359 
L 97.634927 50.332582 
L 97.736415 50.872505 
L 97.837904 50.678808 
L 98.04088 50.923045 
L 98.142369 50.462064 
L 98.243857 51.279408 
L 98.345345 50.774103 
L 98.548322 51.245507 
L 98.649811 50.830667 
L 98.751299 51.405495 
L 98.852787 51.162453 
L 98.954276 51.207447 
L 99.055764 51.431745 
L 99.157252 51.126544 
L 99.258741 51.597231 
L 99.360229 51.287775 
L 99.461718 51.404252 
L 99.664694 51.797144 
L 99.766183 51.663407 
L 99.867671 51.771564 
L 99.969159 51.679234 
L 100.273625 51.975158 
L 100.375113 51.770751 
L 100.679578 52.491843 
L 100.781066 52.1449 
L 100.882555 52.330469 
L 101.085532 52.207011 
L 101.288508 52.463824 
L 101.389997 52.265537 
L 101.592973 52.638443 
L 101.79595 52.894729 
L 101.998927 52.753246 
L 102.100415 52.73761 
L 102.303392 52.895542 
L 102.40488 53.04635 
L 102.506369 52.930256 
L 102.709346 53.265006 
L 102.810834 53.194145 
L 102.912322 53.374358 
L 103.013811 53.282841 
L 103.115299 53.489591 
L 103.318276 53.344283 
L 103.724229 53.829219 
L 103.825718 53.765051 
L 104.231671 54.111707 
L 104.33316 53.692803 
L 104.434648 54.132029 
L 104.536136 53.961761 
L 104.637625 54.49169 
L 104.739113 54.005511 
L 104.840601 54.439142 
L 104.94209 54.179317 
L 105.043578 54.447175 
L 105.145067 54.248409 
L 105.652508 54.835717 
L 105.753997 54.641876 
L 105.855485 54.758353 
L 105.956974 54.654403 
L 106.15995 54.902514 
L 106.261439 54.798708 
L 106.464415 55.026019 
L 106.565904 55.415612 
L 106.768881 55.193944 
L 106.971857 55.153158 
L 107.174834 55.363112 
L 107.377811 55.264375 
L 107.479299 55.379751 
L 107.580788 55.855077 
L 107.783764 55.653921 
L 108.088229 55.670464 
L 108.189718 55.880705 
L 108.392695 55.644166 
L 108.595671 56.159656 
L 108.798648 56.144403 
L 109.001625 56.09611 
L 109.204602 56.352731 
L 109.30609 56.128959 
L 109.407578 56.210579 
L 109.610555 56.603137 
L 109.712043 56.511811 
L 109.813532 56.671033 
L 109.91502 56.4847 
L 110.117997 56.608205 
L 111.031392 57.158599 
L 111.132881 57.092998 
L 111.335857 57.287842 
L 111.538834 57.260158 
L 111.640323 57.271537 
L 111.843299 57.618337 
L 112.046276 57.528685 
L 112.249253 57.751501 
L 112.350741 57.688003 
L 112.553718 57.778468 
L 112.655206 57.689724 
L 112.959671 58.052637 
L 113.264137 58.263309 
L 113.365625 58.061531 
L 113.67009 58.445769 
L 113.771578 58.354826 
L 113.873067 58.439745 
L 113.974555 58.307824 
L 114.27902 58.726824 
L 114.380509 58.517061 
L 114.684974 58.957816 
L 114.786462 58.862187 
L 114.887951 58.701482 
L 115.192416 59.131622 
L 115.598369 59.060952 
L 115.801346 59.374855 
L 115.902834 59.108958 
L 116.105811 59.321829 
L 116.207299 59.574242 
L 116.511765 59.345545 
L 116.81623 59.884272 
L 116.917718 59.369452 
L 117.019206 59.633198 
L 117.120695 59.448203 
L 117.222183 59.898043 
L 117.323672 59.674271 
L 117.42516 59.847742 
L 117.526648 59.532405 
L 117.831113 59.90555 
L 117.932602 59.843152 
L 118.03409 59.912531 
L 118.135579 59.72132 
L 118.237067 60.067689 
L 118.338555 59.874996 
L 118.440044 60.058413 
L 118.541532 59.761341 
L 118.845997 60.097478 
L 118.947486 59.959867 
L 119.353439 60.281995 
L 119.556416 60.14032 
L 119.962369 60.203818 
L 120.063858 60.16963 
L 120.266834 60.422187 
L 120.368323 60.550426 
L 120.469811 60.328853 
L 120.5713 60.482577 
L 120.672788 60.383457 
L 120.875765 60.530678 
L 120.977253 60.218019 
L 121.078741 60.761002 
L 121.281718 60.44203 
L 121.383207 60.825264 
L 121.484695 60.438922 
L 121.586183 60.949152 
L 121.687672 60.43548 
L 121.890648 60.941741 
L 121.992137 60.503711 
L 122.093625 60.987069 
L 122.296602 60.82579 
L 122.39809 61.254735 
L 122.499579 60.91769 
L 122.601067 61.309627 
L 122.804044 61.073853 
L 122.905532 61.437196 
L 123.007021 61.175698 
L 123.108509 61.472961 
L 123.311486 61.281464 
L 123.412974 61.956415 
L 123.514462 61.556207 
L 123.615951 61.879481 
L 123.717439 61.516903 
L 123.920416 62.023212 
L 124.021904 61.849358 
L 124.123393 62.10947 
L 124.326369 61.937624 
L 124.427858 62.483811 
L 124.529346 62.294656 
L 124.630835 62.46808 
L 124.833811 62.302976 
L 124.9353 62.711217 
L 125.036788 62.457799 
L 125.138276 62.893152 
L 125.341253 62.741914 
L 125.442742 63.33625 
L 125.54423 63.031001 
L 125.645718 63.281646 
L 125.747207 63.083024 
L 125.950183 63.636 
L 126.051672 63.280402 
L 126.15316 63.774901 
L 126.254649 63.586464 
L 126.356137 63.66598 
L 126.457625 64.099228 
L 126.76209 64.000682 
L 126.863579 64.112186 
L 126.965067 64.535537 
L 127.066556 64.251518 
L 127.168044 64.64771 
L 127.269532 64.439333 
L 127.371021 64.504935 
L 127.472509 65.055282 
L 127.573997 64.939283 
L 127.675486 65.009236 
L 127.878463 64.950424 
L 127.979951 65.355032 
L 128.081439 65.229088 
L 128.182928 65.47299 
L 128.284416 65.406528 
L 128.385904 65.565464 
L 128.487393 65.994122 
L 128.588881 65.845514 
L 128.791858 65.974374 
L 128.893346 65.865214 
L 129.096323 66.396673 
L 129.2993 66.297984 
L 129.603765 66.729033 
L 129.806742 66.684135 
L 130.212695 66.911541 
L 130.314184 66.884526 
L 130.51716 67.234768 
L 130.720137 67.27259 
L 130.923114 67.317583 
L 131.126091 67.60514 
L 131.227579 67.381655 
L 131.532044 67.929276 
L 131.633532 67.8467 
L 131.836509 67.783919 
L 131.937998 67.861331 
L 132.039486 68.254081 
L 132.140974 68.201102 
L 132.242463 67.994782 
L 132.343951 68.220754 
L 132.445439 68.156539 
L 132.546928 68.592465 
L 132.648416 68.435728 
L 132.749905 68.484499 
L 132.851393 68.341486 
L 133.155858 68.914448 
L 133.257346 68.56631 
L 133.561812 69.106663 
L 133.967765 69.100065 
L 134.170742 69.412868 
L 134.475207 69.561715 
L 134.678184 69.779415 
L 134.779672 69.641374 
L 135.185626 70.347023 
L 135.287114 70.074049 
L 135.388602 70.267124 
L 135.490091 70.161837 
L 135.693067 70.520494 
L 135.794556 70.344345 
L 135.997533 70.674649 
L 136.099021 70.984153 
L 136.200509 70.88489 
L 136.403486 70.996059 
L 136.504974 70.868346 
L 136.707951 71.372838 
L 136.910928 71.292844 
L 137.113905 71.97908 
L 137.215393 71.905541 
L 137.41837 72.027898 
L 137.621347 72.149826 
L 137.722835 72.532438 
L 137.824323 72.194532 
L 138.128788 73.090674 
L 138.331765 73.044151 
L 138.63623 73.312343 
L 138.737719 73.790537 
L 138.839207 73.161344 
L 139.143672 74.277242 
L 139.448137 74.134037 
L 139.651114 74.477538 
L 140.158556 75.450661 
L 140.260044 75.329212 
L 140.564509 75.654017 
L 140.767486 75.89505 
L 140.868975 75.865788 
L 141.376416 76.698097 
L 141.477905 76.688678 
L 141.680882 77.218368 
L 141.78237 77.034712 
L 141.883858 77.123886 
L 142.086835 77.764172 
L 142.188323 77.973887 
L 142.289812 77.833169 
L 142.492789 78.181355 
L 142.594277 78.547806 
L 142.695765 78.271103 
L 143.00023 79.328858 
L 143.406184 79.894553 
L 144.522556 82.024073 
L 144.827021 82.627016 
L 145.53744 84.019521 
L 145.638928 83.744253 
L 145.943393 84.760505 
L 146.044882 84.715511 
L 146.349347 85.385968 
L 146.7553 86.029218 
L 146.958277 86.452999 
L 147.161254 86.604907 
L 147.262742 87.118197 
L 147.364231 87.070717 
L 147.465719 87.472168 
L 147.567207 87.262692 
L 147.871672 88.373426 
L 147.973161 88.154531 
L 148.379114 88.872133 
L 148.480603 88.981389 
L 148.683579 89.585384 
L 148.785068 89.636832 
L 149.191021 90.432803 
L 149.29251 90.37925 
L 149.596975 91.271949 
L 149.698463 91.271997 
L 151.1193 93.660673 
L 151.220789 93.624764 
L 151.525254 94.613045 
L 151.626742 94.476104 
L 151.728231 94.722158 
L 151.829719 94.667792 
L 152.134184 95.210489 
L 152.235672 95.241233 
L 152.540138 96.042463 
L 152.641626 96.018986 
L 153.250556 96.982164 
L 153.453533 97.519027 
L 153.65651 97.413022 
L 153.960975 98.191348 
L 154.062463 97.971306 
L 154.569905 99.030256 
L 154.671393 98.942516 
L 154.975859 99.48373 
L 155.077347 99.41612 
L 155.381812 100.252781 
L 155.4833 100.230882 
L 155.584789 100.388574 
L 155.686277 100.298061 
L 155.889254 100.750579 
L 155.990742 100.674936 
L 156.193719 101.093601 
L 156.396696 101.543585 
L 156.498184 101.520825 
L 156.802649 102.082073 
L 156.904138 101.820049 
L 157.107114 102.385505 
L 157.208603 102.734121 
L 157.310091 102.492896 
L 157.41158 102.747222 
L 157.513068 102.508101 
L 157.716045 103.05467 
L 157.817533 102.905298 
L 158.121998 103.783939 
L 158.223487 103.484046 
L 158.324975 103.617975 
L 158.426463 103.406921 
L 158.62944 103.84103 
L 158.730928 103.658282 
L 158.933905 104.185391 
L 159.441347 104.313725 
L 159.644324 104.602239 
L 159.745812 104.402708 
L 160.050277 105.043424 
L 160.151766 105.011197 
L 160.253254 104.847289 
L 160.557719 105.355415 
L 160.659208 105.093486 
L 160.862184 105.427328 
L 160.963673 105.881998 
L 161.065161 105.477868 
L 161.166649 105.841403 
L 161.268138 105.439664 
L 161.471115 105.836526 
L 161.572603 105.926848 
L 161.674091 105.717659 
L 161.877068 106.412979 
L 161.978556 106.275416 
L 162.080045 106.331981 
L 162.181533 106.200252 
L 162.283022 106.403942 
L 162.38451 106.317684 
L 162.99344 107.118006 
L 163.094929 107.032131 
L 164.008324 108.088117 
L 164.109812 107.93511 
L 164.312789 108.352819 
L 164.414277 108.145303 
L 164.617254 108.712146 
L 164.921719 108.801463 
L 165.226184 109.224527 
L 165.327673 109.047374 
L 165.632138 109.743699 
L 165.733626 109.494297 
L 166.13958 110.068647 
L 166.241068 109.804088 
L 166.545533 110.544594 
L 166.74851 110.298444 
L 166.951487 110.631425 
L 167.052975 110.84487 
L 167.255952 110.305234 
L 167.458929 110.048565 
L 168.575301 108.28387 
L 168.676789 108.362095 
L 168.879766 107.995452 
L 169.387208 107.363869 
L 169.590185 106.914076 
L 169.691673 107.099645 
L 169.793161 106.524722 
L 169.89465 106.550303 
L 169.996138 106.454912 
L 170.097626 106.746199 
L 170.402092 105.920823 
L 170.50358 105.650431 
L 170.706557 105.69509 
L 170.909533 105.244294 
L 171.011022 105.083828 
L 171.11251 105.416618 
L 171.416975 104.621126 
L 171.619952 104.380809 
L 172.025906 104.003791 
L 172.127394 104.102624 
L 172.330371 103.576376 
L 172.431859 103.263477 
L 172.533347 103.330943 
L 172.837813 102.883542 
L 172.939301 102.958133 
L 173.040789 102.548983 
L 173.142278 102.894635 
L 173.345254 102.363366 
L 173.64972 101.978554 
L 173.751208 101.984053 
L 173.954185 101.624057 
L 174.360138 101.250911 
L 174.563115 100.901147 
L 174.766092 100.9 
L 174.969068 100.422857 
L 175.070557 100.410617 
L 175.172045 100.557838 
L 175.47651 99.915688 
L 175.780975 99.768849 
L 175.983952 99.316905 
L 176.085441 99.125981 
L 176.186929 99.405123 
L 176.592882 98.712002 
L 176.795859 98.448496 
L 177.100324 98.055268 
L 177.201813 98.305482 
L 177.303301 97.815239 
L 177.404789 97.967146 
L 177.709255 97.242037 
L 177.810743 97.421868 
L 178.115208 96.865831 
L 178.216696 97.092616 
L 178.724138 96.24907 
L 178.825627 96.312664 
L 178.927115 95.724831 
L 179.028603 95.930194 
L 179.130092 95.82242 
L 179.23158 95.972224 
L 179.637534 95.126956 
L 179.739022 95.132359 
L 180.144976 94.705949 
L 180.246464 94.732725 
L 180.652417 93.999726 
L 180.753906 94.001209 
L 180.956883 93.487297 
L 181.058371 93.749943 
L 181.159859 93.554955 
L 181.261348 93.905293 
L 181.667301 93.470371 
L 181.870278 94.005799 
L 181.971766 93.534538 
L 182.276231 94.342414 
L 182.37772 94.157658 
L 182.479208 93.912991 
L 182.580697 94.114386 
L 182.682185 93.848441 
L 182.885162 94.24339 
L 182.98665 93.931591 
L 183.088138 93.97142 
L 183.189627 94.096121 
L 183.291115 94.774467 
L 183.494092 94.398166 
L 183.59558 94.155076 
L 183.697069 94.478351 
L 183.798557 94.408972 
L 183.900045 94.620791 
L 184.001534 94.270835 
L 184.103022 94.358527 
L 184.305999 94.810902 
L 184.407487 94.885684 
L 184.508976 94.709965 
L 184.610464 94.84858 
L 184.813441 94.53898 
L 184.914929 94.906435 
L 185.016418 94.864358 
L 185.117906 94.531569 
L 185.320883 95.415518 
L 185.422371 95.295216 
L 185.523859 94.93039 
L 185.625348 95.022242 
L 185.726836 94.921497 
L 185.828325 95.310517 
L 186.031301 94.719863 
L 186.335766 95.710008 
L 186.437255 95.689878 
L 186.640232 95.21068 
L 186.944697 95.446406 
L 187.046185 95.292778 
L 187.249162 95.560922 
L 187.35065 96.021042 
L 187.553627 95.663293 
L 187.756604 95.521618 
L 188.061069 95.851205 
L 188.162557 95.889648 
L 188.264046 95.764039 
L 188.467022 96.06245 
L 188.568511 95.390224 
L 188.669999 95.959409 
L 188.771487 95.814005 
L 188.872976 96.68141 
L 188.974464 96.027354 
L 189.075953 96.22019 
L 189.278929 95.763178 
L 189.481906 96.516402 
L 189.583394 95.680554 
L 189.786371 96.525056 
L 189.88786 96.412166 
L 189.989348 96.506648 
L 190.192325 96.272978 
L 190.49679 96.405472 
L 190.598278 96.308647 
L 190.801255 96.611601 
L 190.902743 97.058954 
L 191.004232 96.50397 
L 191.10572 96.749259 
L 191.207208 96.301093 
L 191.308697 96.72736 
L 191.410185 96.510186 
L 191.511674 96.968824 
L 191.613162 96.448983 
L 191.816139 96.736875 
L 191.917627 97.384237 
L 192.120604 96.789041 
L 192.222092 96.800373 
L 192.526557 97.115328 
L 192.628046 96.62781 
L 192.831022 97.242371 
L 192.932511 97.102179 
L 193.033999 97.225588 
L 193.236976 96.880893 
L 193.338464 96.956583 
L 193.439953 97.204024 
L 193.642929 96.970306 
L 193.845906 97.267952 
L 193.947395 97.489143 
L 194.048883 97.209714 
L 194.150371 97.376396 
L 194.353348 96.953714 
L 194.556325 97.322317 
L 194.657813 96.812996 
L 194.962278 97.928272 
L 195.063767 97.276559 
L 195.165255 97.513098 
L 195.266743 96.980538 
L 195.46972 97.280384 
L 195.672697 97.251887 
L 195.774185 97.6684 
L 195.875674 97.319783 
L 195.977162 97.841298 
L 196.180139 97.46294 
L 196.383116 97.24677 
L 196.586092 97.447114 
L 196.789069 97.535762 
L 196.890557 97.321839 
L 196.992046 98.214586 
L 197.093534 97.462367 
L 197.195023 97.629144 
L 197.296511 97.411826 
L 197.499488 97.530024 
L 197.600976 97.465905 
L 198.108418 97.844788 
L 198.311395 97.578843 
L 198.514371 97.740456 
L 198.61586 97.48766 
L 198.818837 97.768763 
L 198.920325 97.72812 
L 199.021813 98.258432 
L 199.123302 97.554792 
L 199.22479 98.09658 
L 199.326278 97.568945 
L 199.427767 97.806154 
L 199.630744 97.605093 
L 199.83372 97.836755 
L 199.935209 97.88304 
L 200.036697 98.145494 
L 200.138185 97.933532 
L 200.239674 98.100357 
L 200.341162 97.692642 
L 200.544139 97.7964 
L 200.848604 97.896619 
L 200.950092 98.059332 
L 201.051581 98.575587 
L 201.153069 97.894324 
L 201.254558 98.071477 
L 201.356046 97.615995 
L 201.457534 98.149319 
L 201.559023 97.791475 
L 202.066465 98.47575 
L 202.269441 97.90929 
L 202.37093 98.116279 
L 202.472418 98.008553 
L 202.573906 98.217599 
L 202.776883 97.891933 
L 202.878372 98.330059 
L 202.97986 98.297258 
L 203.182837 98.3948 
L 203.284325 97.915649 
L 203.385813 97.959782 
L 203.487302 98.412204 
L 203.791767 98.016395 
L 203.994744 98.421432 
L 204.096232 98.461358 
L 204.299209 98.171984 
L 204.400697 98.425831 
L 204.806651 98.011326 
L 205.009627 98.739448 
L 205.111116 98.582281 
L 205.212604 98.56349 
L 205.314093 98.168206 
L 205.517069 98.415982 
L 205.618558 98.512567 
L 205.821534 98.125221 
L 205.923023 98.404219 
L 206.024511 99.064396 
L 206.227488 98.260106 
L 206.328976 98.43549 
L 206.531953 98.415264 
L 206.633441 98.576639 
L 206.73493 98.319731 
L 206.937907 98.54905 
L 207.039395 98.881887 
L 207.34386 98.341678 
L 207.648325 98.743942 
L 207.749814 98.204641 
L 207.851302 98.656489 
L 207.95279 98.449595 
L 208.054279 99.001472 
L 208.155767 98.556604 
L 208.257255 98.850186 
L 208.460232 98.371466 
L 208.663209 98.821498 
L 208.764697 98.347846 
L 208.866186 98.370988 
L 208.967674 98.609535 
L 209.069162 99.404788 
L 209.170651 98.552971 
L 209.272139 98.700431 
L 209.373628 98.478953 
L 209.576604 98.679918 
L 209.678093 99.045318 
L 209.779581 98.197134 
L 209.881069 98.69149 
L 209.982558 98.594904 
L 210.084046 99.438258 
L 210.185535 98.643245 
L 210.287023 98.854776 
L 210.388511 98.386241 
L 210.49 98.729502 
L 210.591488 98.672172 
L 210.692976 99.085147 
L 210.794465 98.211574 
L 210.997442 98.848274 
L 211.09893 99.201911 
L 211.200418 98.755752 
L 211.301907 98.834886 
L 211.403395 98.674611 
L 211.504883 98.92449 
L 211.606372 98.6661 
L 211.809349 98.936826 
L 212.012325 98.748198 
L 212.113814 98.826853 
L 212.215302 98.634925 
L 212.31679 99.234616 
L 212.418279 98.541591 
L 212.722744 99.416168 
L 212.824232 98.922865 
L 212.925721 98.996069 
L 213.027209 98.651516 
L 213.331674 99.355922 
L 213.433163 98.418372 
L 213.737628 99.406031 
L 213.839116 98.961786 
L 213.940604 99.214725 
L 214.042093 98.770957 
L 214.24507 98.910289 
L 214.346558 99.444809 
L 214.448046 98.22391 
L 214.549535 99.250108 
L 214.651023 98.920426 
L 214.752511 99.65811 
L 215.056977 98.647835 
L 215.158465 99.18924 
L 215.259953 98.857598 
L 215.361442 99.110059 
L 215.46293 98.897666 
L 215.665907 99.106951 
L 215.767395 99.342342 
L 215.868884 99.086725 
L 215.970372 99.25269 
L 216.07186 98.766319 
L 216.274837 99.028774 
L 216.376325 99.078406 
L 216.477814 98.907659 
L 216.782279 99.471394 
L 216.985256 98.854059 
L 217.086744 99.297779 
L 217.188232 98.962407 
L 217.289721 99.125599 
L 217.492698 98.812269 
L 217.594186 98.919087 
L 217.695674 99.314801 
L 217.898651 99.002476 
L 218.101628 99.232464 
L 218.203116 98.81466 
L 218.406093 99.261631 
L 218.507581 99.051056 
L 218.710558 99.215729 
L 218.812046 99.0632 
L 218.913535 98.666626 
L 219.218 99.349754 
L 219.319488 98.986362 
L 219.522465 99.061144 
L 219.725442 99.12928 
L 219.928419 98.816525 
L 220.232884 99.45552 
L 220.43586 98.972018 
L 220.638837 99.031021 
L 220.740326 99.267512 
L 220.841814 98.551536 
L 221.146279 99.809922 
L 221.247767 98.934483 
L 221.349256 99.243079 
L 221.450744 98.867447 
L 221.552233 98.933336 
L 221.755209 99.246856 
L 221.856698 98.936157 
L 222.059674 98.956622 
L 222.161163 99.608622 
L 222.465628 98.892789 
L 222.668605 99.260388 
L 222.770093 99.30017 
L 222.871581 98.92755 
L 223.074558 99.31088 
L 223.176047 98.637937 
L 223.277535 99.155148 
L 223.379023 98.992339 
L 223.480512 99.803323 
L 223.582 99.039102 
L 223.683488 99.28267 
L 223.987954 99.004102 
L 224.089442 99.484208 
L 224.19093 98.802276 
L 224.292419 99.203202 
L 224.393907 99.048426 
L 224.495395 99.76225 
L 224.799861 98.809783 
L 224.901349 99.447295 
L 225.002837 99.062531 
L 225.104326 99.175804 
L 225.205814 99.078071 
L 225.510279 99.609674 
L 225.713256 99.23452 
L 225.814744 99.138509 
L 225.916233 99.481674 
L 226.017721 99.412199 
L 226.220698 99.056506 
L 226.423675 99.387623 
L 226.626651 98.969006 
L 226.829628 99.788883 
L 226.931116 99.318483 
L 227.032605 99.357117 
L 227.134093 99.221037 
L 227.438558 99.547897 
L 227.540047 98.663327 
L 227.641535 99.550671 
L 227.743023 99.117183 
L 227.844512 99.967232 
L 227.946 99.35726 
L 228.047489 99.504912 
L 228.148977 99.169875 
L 228.351954 99.298114 
L 228.55493 99.288599 
L 228.859396 99.771383 
L 228.960884 99.247335 
L 229.163861 99.456524 
L 229.265349 99.365293 
L 229.468326 99.47082 
L 229.569814 99.206262 
L 229.772791 99.825844 
L 229.874279 99.55593 
L 229.975768 99.626074 
L 230.178744 99.379494 
L 230.381721 99.765406 
L 230.48321 99.073672 
L 230.787675 99.925968 
L 230.889163 99.611539 
L 230.990651 99.692776 
L 231.09214 99.38265 
L 231.193628 99.678049 
L 231.295117 99.420567 
L 231.396605 99.820297 
L 231.498093 99.115366 
L 231.802558 100.185362 
L 232.005535 99.682735 
L 232.107024 99.323742 
L 232.31 99.560377 
L 232.411489 99.510172 
L 232.614465 99.793521 
L 232.715954 99.657489 
L 232.817442 100.012608 
L 233.020419 99.515431 
L 233.223396 99.738247 
L 233.324884 99.753644 
L 233.527861 99.310163 
L 233.730838 99.965176 
L 234.035303 99.62158 
L 234.136791 99.690672 
L 234.238279 99.562481 
L 234.339768 99.857593 
L 234.441256 99.308776 
L 234.644233 99.697796 
L 234.745721 100.483391 
L 234.84721 99.671881 
L 234.948698 99.76402 
L 235.050186 99.427978 
L 235.354652 100.024418 
L 235.45614 99.278653 
L 235.760605 100.173839 
L 235.862093 99.734183 
L 235.963582 99.835263 
L 236.06507 99.44261 
L 236.268047 99.791417 
L 236.471024 99.474884 
L 236.674 99.866104 
L 236.775489 100.016098 
L 236.876977 99.77932 
L 236.978466 99.849177 
L 237.181442 99.675515 
L 237.282931 99.835885 
L 237.485907 99.520547 
L 237.587396 99.551675 
L 237.688884 100.319004 
L 237.891861 99.681348 
L 237.993349 99.862566 
L 238.094838 99.601832 
L 238.297814 99.836602 
L 238.399303 99.412343 
L 238.60228 99.668056 
L 238.703768 100.363424 
L 238.805256 99.773009 
L 238.906745 99.962642 
L 239.008233 99.369358 
L 239.21121 99.71477 
L 239.414187 99.499748 
L 239.617163 99.923242 
L 239.718652 99.870407 
L 239.921628 99.57979 
L 240.124605 99.624879 
L 240.226094 99.743507 
L 240.530559 99.290607 
L 240.632047 100.120525 
L 240.733535 99.677762 
L 240.936512 99.734805 
L 241.038001 99.368353 
L 241.139489 99.482104 
L 241.240977 99.934527 
L 241.342466 99.241979 
L 241.443954 99.314945 
L 241.545442 99.483491 
L 241.646931 100.277644 
L 241.849908 99.622584 
L 241.951396 99.283913 
L 242.052884 99.483778 
L 242.154373 99.294145 
L 242.255861 99.608335 
L 242.357349 99.358982 
L 242.560326 99.781711 
L 242.661815 99.454802 
L 242.864791 99.616225 
L 242.96628 99.143768 
L 243.169256 99.505725 
L 243.270745 99.496449 
L 243.372233 99.180585 
L 243.676698 99.628656 
L 243.778187 99.272868 
L 243.879675 99.529776 
L 243.981163 99.290129 
L 244.18414 99.51787 
L 244.285629 98.823888 
L 244.590094 99.88456 
L 244.79307 99.261727 
L 244.894559 99.027196 
L 245.199024 99.651846 
L 245.300512 98.833356 
L 245.402001 99.317048 
L 245.503489 99.009983 
L 245.604977 99.707646 
L 245.706466 99.188379 
L 245.807954 99.311884 
L 245.909443 99.037381 
L 246.112419 99.32446 
L 246.315396 98.960064 
L 246.619861 99.446817 
L 246.72135 99.340334 
L 246.924326 98.90197 
L 247.025815 99.264452 
L 247.228791 98.938787 
L 247.33028 99.028726 
L 247.533257 99.254555 
L 247.634745 99.432855 
L 247.93921 98.864865 
L 248.040698 99.171788 
L 248.142187 98.950501 
L 248.649629 99.321591 
L 248.852605 98.999033 
L 248.954094 98.946915 
L 249.157071 99.172935 
L 249.258559 98.778225 
L 249.461536 99.002811 
L 249.563024 99.420615 
L 249.664512 99.05665 
L 249.766001 99.158065 
L 249.867489 98.94376 
L 249.968978 99.055598 
L 250.070466 98.990713 
L 250.171954 98.72037 
L 250.577908 99.438067 
L 250.679396 98.888534 
L 250.882373 98.939695 
L 251.288326 98.914832 
L 251.389815 98.698423 
L 251.491303 99.474311 
L 251.795768 98.78229 
L 251.897257 99.054642 
L 251.998745 98.938309 
L 252.100233 99.226248 
L 252.201722 98.626892 
L 252.30321 98.965993 
L 252.404699 98.734092 
L 252.506187 99.558464 
L 252.709164 98.991096 
L 252.810652 98.747863 
L 252.91214 98.869982 
L 253.013629 99.27215 
L 253.115117 98.509459 
L 253.318094 99.149123 
L 253.521071 99.202963 
L 253.622559 99.14133 
L 253.724047 98.732084 
L 253.927024 99.025809 
L 254.028513 99.246713 
L 254.130001 98.651277 
L 254.231489 98.929176 
L 254.332978 98.775643 
L 254.434466 99.533027 
L 254.637443 99.019833 
L 254.84042 98.875863 
L 254.941908 98.898527 
L 255.043396 99.210756 
L 255.144885 98.594569 
L 255.246373 99.029348 
L 255.347861 98.935392 
L 255.44935 99.423771 
L 255.753815 98.598299 
L 255.855303 99.121104 
L 255.956792 99.076923 
L 256.05828 98.792617 
L 256.159768 98.840623 
L 256.362745 99.156104 
L 256.464234 99.270573 
L 256.565722 99.163946 
L 256.66721 98.737726 
L 256.768699 99.049047 
L 256.870187 98.9932 
L 256.971675 99.080605 
L 257.073164 98.725581 
L 257.174652 98.883083 
L 257.276141 98.769953 
L 257.377629 99.89551 
L 257.580606 98.944285 
L 257.885071 99.077497 
L 257.986559 99.11441 
L 258.189536 98.832877 
L 258.291024 99.257758 
L 258.392513 99.227013 
L 258.494001 98.969675 
L 258.595489 99.112689 
L 258.696978 98.956813 
L 258.899955 99.102169 
L 259.102931 98.769045 
L 259.305908 99.447678 
L 259.508885 99.067838 
L 259.711862 99.096049 
L 259.81335 98.793382 
L 259.914838 99.31351 
L 260.117815 98.851477 
L 260.219303 99.024949 
L 260.320792 99.629182 
L 260.42228 99.053733 
L 260.523769 99.306529 
L 260.625257 98.811839 
L 260.726745 99.226966 
L 260.828234 99.179055 
L 261.03121 99.004388 
L 261.132699 99.027722 
L 261.335676 99.473259 
L 261.741629 98.991957 
L 261.843117 99.261536 
L 261.944606 98.784776 
L 262.046094 99.228113 
L 262.147583 99.118139 
L 262.249071 99.46427 
L 262.553536 98.926451 
L 262.655024 99.065878 
L 262.756513 99.402111 
L 262.858001 98.83828 
L 263.060978 99.22271 
L 263.162466 99.369453 
L 263.56842 99.111159 
L 263.771397 99.405123 
L 263.872885 98.836081 
L 264.17735 99.867969 
L 264.278838 99.208318 
L 264.380327 99.326229 
L 264.481815 99.077497 
L 264.78628 99.290894 
L 264.887769 98.982107 
L 264.989257 99.422288 
L 265.090745 99.215108 
L 265.192234 99.622871 
L 265.395211 99.108624 
L 265.496699 99.081274 
L 265.699676 99.582372 
L 265.801164 99.00458 
L 266.004141 99.237628 
L 266.207118 99.527481 
L 266.308606 99.50998 
L 266.410094 99.005823 
L 266.714559 99.568936 
L 266.816048 98.613217 
L 267.019025 99.52356 
L 267.120513 99.667147 
L 267.222001 99.107477 
L 267.32349 99.60451 
L 267.424978 99.129902 
L 267.627955 99.323073 
L 267.830932 98.978712 
L 267.93242 100.043831 
L 268.033908 99.095571 
L 268.135397 99.35267 
L 268.338373 99.007353 
L 268.54135 99.318005 
L 268.642839 99.198181 
L 268.744327 99.8465 
L 268.947304 99.162129 
L 269.048792 99.245374 
L 269.15028 99.078501 
L 269.251769 99.541777 
L 269.454746 99.060284 
L 269.556234 99.195217 
L 269.657722 99.661935 
L 269.759211 99.249486 
L 269.860699 99.46819 
L 269.962187 99.098057 
L 270.165164 99.322499 
L 270.266653 98.967284 
L 270.368141 99.269855 
L 270.469629 99.120721 
L 270.571118 99.308059 
L 270.672606 99.75876 
L 270.875583 99.162894 
L 270.977071 99.015529 
L 271.180048 99.390587 
L 271.281536 99.027339 
L 271.383025 99.100305 
L 271.586001 99.662174 
L 271.788978 99.271051 
L 271.890467 98.926977 
L 271.991955 99.343107 
L 272.093443 99.289746 
L 272.194932 98.748245 
L 272.29642 99.963454 
L 272.397908 99.120865 
L 272.499397 99.393361 
L 272.600885 99.027722 
L 272.702374 99.337656 
L 273.006839 98.989422 
L 273.209815 99.427405 
L 273.615769 99.214725 
L 273.717257 99.075393 
L 273.818746 99.411434 
L 273.920234 98.862283 
L 274.224699 99.638602 
L 274.529164 98.939408 
L 274.630653 99.331584 
L 274.935118 99.117088 
L 275.036606 99.130332 
L 275.239583 99.699613 
L 275.44256 99.182594 
L 275.544048 99.035038 
L 275.747025 99.327185 
L 275.848513 98.840145 
L 276.152978 99.777981 
L 276.254467 99.09385 
L 276.355955 99.285443 
L 276.457443 98.96126 
L 276.558932 99.33211 
L 276.66042 99.285299 
L 276.964885 98.995399 
L 277.066374 99.558751 
L 277.26935 99.119383 
L 277.573816 99.513327 
L 277.675304 99.072524 
L 277.878281 99.23452 
L 277.979769 99.145585 
L 278.081257 99.453033 
L 278.182746 98.825992 
L 278.487211 99.792995 
L 278.690188 99.242792 
L 278.791676 99.107333 
L 278.893164 99.233468 
L 278.994653 99.058993 
L 279.19763 99.258715 
L 279.299118 99.07415 
L 279.502095 99.562481 
L 279.705071 99.100831 
L 279.80656 99.083856 
L 280.009537 99.464126 
L 280.111025 98.848035 
L 280.41549 99.727967 
L 280.618467 99.195599 
L 280.719955 99.145776 
L 280.821444 99.346311 
L 281.125909 99.088877 
L 281.328885 99.619763 
L 281.531862 99.199424 
L 281.633351 99.127129 
L 281.734839 99.425588 
L 281.937816 99.035611 
L 282.039304 99.152279 
L 282.343769 99.685556 
L 282.445258 99.150653 
L 282.546746 99.179964 
L 282.648234 99.353579 
L 282.749723 99.226248 
L 282.851211 99.453368 
L 282.952699 98.789031 
L 283.054188 99.259527 
L 283.155676 99.167628 
L 283.257165 99.691533 
L 283.358653 99.261583 
L 283.460141 99.546176 
L 283.56163 99.026479 
L 283.764606 99.355204 
L 283.967583 99.04374 
L 284.17056 99.604988 
L 284.272048 99.344924 
L 284.373537 99.398142 
L 284.475025 99.030591 
L 284.678002 99.339999 
L 284.77949 99.548184 
L 284.880979 98.717692 
L 285.185444 99.591313 
L 285.489909 99.182115 
L 285.591397 99.159308 
L 285.692886 99.456571 
L 285.794374 98.965802 
L 285.895862 99.057989 
L 286.098839 99.856302 
L 286.200327 99.11178 
L 286.301816 99.465178 
L 286.403304 98.835364 
L 286.606281 99.347745 
L 286.707769 99.027913 
L 286.910746 99.37959 
L 287.3167 99.232082 
L 287.519676 99.114697 
L 287.621165 99.629374 
L 287.722653 98.695267 
L 287.824141 99.274541 
L 287.92563 99.054737 
L 288.027118 99.943133 
L 288.128607 99.215968 
L 288.230095 99.438689 
L 288.331583 98.976082 
L 288.53456 99.412534 
L 288.737537 98.954279 
L 288.940514 99.659784 
L 289.14349 99.233803 
L 289.447955 99.123782 
L 289.549444 99.312888 
L 289.650932 98.931615 
L 289.853909 99.471872 
L 289.955397 99.472446 
L 290.158374 99.091937 
L 290.361351 99.342486 
L 290.462839 99.29558 
L 290.564328 98.924729 
L 290.868793 99.67212 
L 291.173258 99.098296 
L 291.6807 99.144246 
L 291.782188 99.663561 
L 291.985165 99.265169 
L 292.086653 99.063966 
L 292.28963 99.250634 
L 292.391118 99.299453 
L 292.492607 98.941034 
L 292.797072 99.600494 
L 292.89856 99.231604 
L 293.000049 99.326516 
L 293.101537 99.075824 
L 293.304514 99.240927 
L 293.406002 98.93807 
L 293.50749 99.22161 
L 293.608979 99.149554 
L 293.710467 99.602167 
L 293.811956 99.179486 
L 293.913444 99.278032 
L 294.014932 98.892024 
L 294.116421 99.417698 
L 294.319397 99.111206 
L 294.522374 99.013712 
L 294.623862 99.66992 
L 294.725351 99.558178 
L 294.928328 99.105564 
L 295.029816 99.009313 
L 295.232793 99.262922 
L 295.334281 98.688812 
L 295.537258 99.329958 
L 295.638746 99.535466 
L 295.841723 99.040393 
L 295.943211 99.301317 
L 296.146188 99.120243 
L 296.247676 98.826853 
L 296.349165 99.143816 
L 296.450653 99.015195 
L 296.552142 99.836315 
L 296.755118 99.143242 
L 296.856607 99.144724 
L 296.958095 99.032169 
L 297.059583 99.201528 
L 297.161072 98.885999 
L 297.364049 99.000994 
L 297.465537 99.619046 
L 297.668514 99.211713 
L 297.87149 98.97503 
L 298.074467 99.088829 
L 298.277444 99.00611 
L 298.378932 99.409092 
L 298.581909 99.014286 
L 298.683397 99.249582 
L 298.886374 98.94988 
L 298.987863 99.240067 
L 299.089351 98.535757 
L 299.190839 99.233134 
L 299.292328 99.117374 
L 299.393816 99.57606 
L 299.596793 99.024232 
L 299.79977 99.068556 
L 299.901258 99.459345 
L 300.002746 98.704113 
L 300.104235 98.81619 
L 300.307211 99.720126 
L 300.4087 99.023371 
L 300.510188 99.195743 
L 300.611677 98.95098 
L 300.713165 99.153044 
L 300.916142 99.001281 
L 301.01763 98.672077 
L 301.220607 99.602215 
L 301.423584 99.07372 
L 301.525072 98.923008 
L 301.728049 99.099348 
L 301.829537 98.963507 
L 301.931025 99.073146 
L 302.032514 98.971779 
L 302.134002 99.388053 
L 302.235491 99.104178 
L 302.336979 99.42487 
L 302.539956 98.923104 
L 302.742932 99.200094 
L 302.844421 98.6289 
L 303.148886 99.4647 
L 303.351863 98.967332 
L 303.453351 99.186706 
L 303.554839 99.078692 
L 303.656328 99.266078 
L 303.757816 98.64597 
L 303.960793 98.954279 
L 304.062281 99.826035 
L 304.16377 99.102743 
L 304.265258 99.236863 
L 304.366746 98.729598 
L 304.569723 99.120339 
L 304.7727 98.964463 
L 304.874188 99.016294 
L 304.975677 99.592174 
L 305.178653 98.995112 
L 305.280142 99.123064 
L 305.686095 98.907659 
L 305.787584 98.908472 
L 305.889072 99.499366 
L 306.295026 98.983446 
L 306.396514 98.996786 
L 306.498002 99.218072 
L 306.599491 98.773539 
L 306.700979 99.176808 
L 307.005444 98.830774 
L 307.106933 99.145824 
L 307.208421 99.108051 
L 307.309909 99.410239 
L 307.512886 98.948445 
L 307.715863 98.980577 
L 307.817351 99.433525 
L 307.91884 98.618046 
L 308.223305 99.645487 
L 308.426281 98.930897 
L 308.730747 99.243462 
L 308.832235 98.669734 
L 309.1367 99.582802 
L 309.238188 98.827713 
L 309.339677 99.229117 
L 309.441165 98.902974 
L 309.644142 99.067217 
L 309.74563 98.731319 
L 309.948607 99.014334 
L 310.050095 99.61589 
L 310.253072 98.936779 
L 310.557537 98.954087 
L 310.659026 99.032743 
L 310.862002 98.844592 
L 310.963491 99.611634 
L 311.064979 99.024375 
L 311.267956 99.073672 
L 311.572421 98.773539 
L 311.673909 98.836846 
L 311.876886 99.428743 
L 312.079863 99.094997 
L 312.181351 98.875767 
L 312.384328 99.003815 
L 312.587305 98.919135 
L 312.688793 98.913875 
L 312.790282 99.248339 
L 312.89177 99.206836 
L 312.993258 99.184124 
L 313.196235 98.816381 
L 313.399212 99.150701 
L 313.5007 98.632869 
L 313.703677 99.134636 
L 313.805165 99.155339 
L 313.906654 98.940986 
L 314.008142 99.12842 
L 314.10963 98.880692 
L 314.312607 99.114506 
L 314.414096 98.624549 
L 314.515584 98.755561 
L 314.718561 99.474502 
L 314.921537 98.77244 
L 315.023026 99.045031 
L 315.124514 98.991526 
L 315.226003 99.121152 
L 315.327491 98.616373 
L 315.631956 99.380737 
L 315.834933 98.960351 
L 315.936421 98.971205 
L 316.03791 98.86783 
L 316.139398 99.06081 
L 316.240886 98.698853 
L 316.545351 99.554735 
L 316.64684 99.011943 
L 316.748328 99.06999 
L 316.951305 98.755991 
L 317.052793 99.380307 
L 317.154282 98.662849 
L 317.25577 98.741934 
L 317.357258 98.969101 
L 317.458747 99.507637 
L 317.560235 99.005584 
L 317.661724 99.10982 
L 317.763212 98.52892 
L 317.8647 98.989422 
L 317.966189 98.945911 
L 318.169165 98.834694 
L 318.270654 98.911485 
L 318.372142 99.45069 
L 318.473631 99.000515 
L 318.575119 99.028678 
L 318.778096 98.78994 
L 318.879584 99.018828 
L 319.082561 98.838711 
L 319.184049 98.737296 
L 319.285538 99.646969 
L 319.387026 98.885473 
L 319.488514 99.089977 
L 319.590003 98.704878 
L 319.995956 98.868404 
L 320.097445 98.635977 
L 320.198933 99.598485 
L 320.300421 98.852386 
L 320.40191 98.99975 
L 320.604886 98.657063 
L 320.706375 98.980146 
L 320.807863 98.947059 
L 320.909352 98.548667 
L 321.112328 99.410335 
L 321.315305 98.860227 
L 321.61977 99.053255 
L 321.721259 98.635116 
L 321.924235 99.060858 
L 322.025724 98.983446 
L 322.127212 98.455333 
L 322.2287 98.914832 
L 322.330189 98.852864 
L 322.431677 99.324842 
L 322.634654 98.710472 
L 322.939119 98.911246 
L 323.040607 98.621776 
L 323.142096 98.864722 
L 323.243584 98.775452 
L 323.345073 99.461496 
L 323.548049 98.727446 
L 323.751026 98.994634 
L 323.954003 98.514528 
L 324.258468 99.413443 
L 324.461445 98.748819 
L 324.562933 98.708512 
L 324.664421 99.006492 
L 324.76591 98.971157 
L 324.968887 98.957339 
L 325.171863 98.719652 
L 325.37484 99.108624 
L 325.476328 98.279997 
L 325.679305 98.899101 
L 325.780794 99.216351 
L 326.085259 98.724195 
L 326.186747 98.805575 
L 326.288235 99.121678 
L 326.389724 98.425688 
L 326.491212 98.905317 
L 326.592701 98.73481 
L 326.694189 99.297349 
L 326.897166 98.594235 
L 326.998654 99.005488 
L 327.100142 98.806771 
L 327.201631 98.962455 
L 327.303119 98.346411 
L 327.404608 99.024423 
L 327.506096 98.690581 
L 327.607584 99.321925 
L 327.810561 98.375483 
L 327.912049 99.392739 
L 328.013538 98.821832 
L 328.115026 99.018159 
L 328.216515 98.338426 
L 328.419491 98.964655 
L 328.52098 98.532841 
L 328.723956 98.816525 
L 328.825445 99.26909 
L 328.926933 98.87505 
L 329.028422 99.044648 
L 329.12991 98.538865 
L 329.231398 98.691155 
L 329.332887 99.19995 
L 329.434375 98.427887 
L 329.637352 98.880166 
L 329.73884 99.363524 
L 329.840329 98.72013 
L 329.941817 98.783724 
L 330.043305 99.000898 
L 330.144794 98.7219 
L 330.246282 99.008501 
L 330.449259 98.465518 
L 330.652236 99.325129 
L 330.753724 98.744133 
L 330.855212 98.991574 
L 331.058189 98.72123 
L 331.159677 98.797208 
L 331.362654 98.671264 
L 331.464143 98.705882 
L 331.565631 99.428504 
L 331.768608 98.811074 
L 331.870096 98.695458 
L 332.073073 98.844735 
L 332.174561 98.45562 
L 332.27605 98.849182 
L 332.377538 98.686469 
L 332.479026 99.388818 
L 332.783491 98.629952 
L 332.88498 98.953944 
L 332.986468 98.865583 
L 333.087957 98.390975 
L 333.392422 99.379925 
L 333.595398 98.707746 
L 333.696887 98.573961 
L 333.899864 98.956 
L 334.001352 98.35717 
L 334.305817 99.255989 
L 334.508794 98.618859 
L 334.813259 98.963937 
L 334.914747 98.319061 
L 335.219212 99.278844 
L 335.320701 98.696319 
L 335.422189 98.741025 
L 335.523678 98.699714 
L 335.625166 98.918179 
L 335.726654 98.85645 
L 335.828143 98.328146 
L 335.929631 98.822263 
L 336.031119 98.682022 
L 336.132608 99.216255 
L 336.335585 98.21583 
L 336.538561 99.033651 
L 336.64005 98.685035 
L 336.741538 98.770145 
L 336.944515 98.532841 
L 337.046003 99.044696 
L 337.147492 98.485361 
L 337.350468 99.054929 
L 337.451957 98.985884 
L 337.654933 98.65625 
L 337.85791 98.56765 
L 337.959399 98.870268 
L 338.060887 98.559186 
L 338.365352 99.090168 
L 338.568329 98.507786 
L 338.771306 98.707173 
L 338.872794 98.489281 
L 339.177259 98.949593 
L 339.278747 98.761012 
L 339.380236 98.994347 
L 339.481724 98.30969 
L 339.684701 98.751832 
L 339.887678 98.517205 
L 340.090654 98.84813 
L 340.293631 98.882174 
L 340.39512 98.421432 
L 340.699585 98.697562 
L 340.801073 98.492198 
L 340.902561 98.547281 
L 341.00405 99.10107 
L 341.410003 98.420141 
L 341.61298 98.758287 
L 341.714468 98.310742 
L 341.815957 98.53657 
L 341.917445 99.379351 
L 342.120422 98.531645 
L 342.22191 98.518592 
L 342.323399 98.649891 
L 342.627864 98.402737 
L 342.729352 98.638846 
L 342.830841 99.321495 
L 342.932329 98.61819 
L 343.033817 98.777747 
L 343.135306 98.256854 
L 343.338282 98.743225 
L 343.439771 98.391883 
L 343.642748 98.64946 
L 343.744236 98.998985 
L 343.845724 98.501426 
L 343.947213 98.942851 
L 344.048701 98.300366 
L 344.150189 98.352532 
L 344.251678 99.022701 
L 344.353166 98.221854 
L 344.657631 99.285586 
L 344.75912 98.418755 
L 345.165073 98.766224 
L 345.266562 98.301896 
L 345.469538 98.509603 
L 345.571027 99.138269 
L 345.774003 98.43592 
L 345.97698 98.551727 
L 346.078469 98.676237 
L 346.179957 98.225966 
L 346.484422 99.066308 
L 346.788887 98.352818 
L 346.991864 98.872611 
L 347.093352 98.041211 
L 347.296329 98.775978 
L 347.397817 98.796204 
L 347.600794 98.521652 
L 347.702283 98.540061 
L 347.803771 98.332354 
L 348.006748 98.452273 
L 348.311213 98.783102 
L 348.51419 98.417034 
L 348.615678 98.534371 
L 348.818655 98.327094 
L 348.920143 98.563824 
L 349.021631 98.445435 
L 349.12312 98.821402 
L 349.326097 98.638846 
L 349.427585 98.092468 
L 349.529073 98.597964 
L 349.630562 98.327285 
L 349.73205 98.639993 
L 349.935027 98.226444 
L 350.036515 99.144294 
L 350.138004 98.447061 
L 350.239492 98.691872 
L 350.34098 98.152953 
L 350.442469 98.310646 
L 350.543957 98.772248 
L 350.746934 98.110303 
L 350.949911 98.999942 
L 351.051399 98.472833 
L 351.152887 98.661892 
L 351.254376 98.015104 
L 351.355864 98.625697 
L 351.558841 98.092516 
L 351.660329 98.585054 
L 351.761818 98.430135 
L 351.863306 99.024853 
L 352.066283 98.236533 
L 352.269259 98.453277 
L 352.370748 98.454951 
L 352.472236 98.069421 
L 352.776701 98.722904 
L 352.979678 98.176813 
L 353.081166 98.292955 
L 353.284143 98.670642 
L 353.385632 98.027775 
L 353.690097 98.887864 
L 353.791585 98.319396 
L 353.893073 98.413495 
L 354.09605 98.172414 
L 354.299027 98.479193 
L 354.400515 98.318774 
L 354.603492 98.782576 
L 354.806469 98.204067 
L 354.907957 98.443858 
L 355.110934 98.086013 
L 355.212422 98.518831 
L 355.313911 98.275072 
L 355.415399 98.807918 
L 355.516887 98.398051 
L 355.618376 98.710328 
L 355.719864 98.102987 
L 355.821353 98.459875 
L 356.227306 98.256376 
L 356.328794 98.929272 
L 356.430283 98.277558 
L 356.531771 98.783772 
L 356.63326 98.236725 
L 356.734748 98.306247 
L 356.836236 98.671312 
L 356.937725 97.974318 
L 357.24219 99.078119 
L 357.343678 98.265987 
L 357.445167 98.299218 
L 357.546655 98.609631 
L 357.648143 98.288221 
L 357.749632 98.586393 
L 357.85112 98.220707 
L 358.155585 98.773109 
L 358.358562 98.248678 
L 358.663027 98.665622 
L 358.764515 98.096245 
L 358.967492 98.5764 
L 359.068981 97.910963 
L 359.170469 98.629283 
L 359.271957 98.371657 
L 359.373446 98.889107 
L 359.474934 98.448782 
L 359.576422 98.472785 
L 359.677911 98.460258 
L 359.779399 98.209661 
L 359.880888 98.636646 
L 359.982376 98.030261 
L 360.083864 98.645587 
L 360.185353 98.411248 
L 360.286841 98.822645 
L 360.489818 98.304669 
L 360.794283 98.455046 
L 360.895771 98.1027 
L 361.098748 99.071998 
L 361.200236 98.465231 
L 361.301725 98.486795 
L 361.504702 98.294198 
L 361.60619 98.519883 
L 361.707678 98.234477 
L 361.809167 98.440941 
L 361.910655 98.212817 
L 362.012143 98.94156 
L 362.113632 98.431521 
L 362.21512 98.623449 
L 362.316609 98.233282 
L 362.519585 98.448974 
L 362.722562 98.27445 
L 362.82405 98.285926 
L 362.925539 98.823362 
L 363.230004 98.176526 
L 363.331492 98.233712 
L 363.534469 98.496454 
L 363.737446 98.183698 
L 363.838934 98.384854 
L 363.940423 98.234573 
L 364.041911 98.572957 
L 364.143399 97.963177 
L 364.346376 98.610683 
L 364.447864 98.407423 
L 364.549353 98.569945 
L 364.650841 98.047665 
L 364.75233 98.365442 
L 364.853818 98.006593 
L 364.955306 98.233569 
L 365.056795 98.123452 
L 365.158283 98.205454 
L 365.259771 98.994826 
L 365.36126 98.132393 
L 365.462748 98.290994 
L 365.564237 98.037194 
L 365.767213 98.327668 
L 365.868702 97.686474 
L 365.97019 98.83785 
L 366.071678 97.972357 
L 366.173167 98.261684 
L 366.274655 97.991196 
L 366.376144 98.078362 
L 366.477632 98.013669 
L 366.57912 98.749297 
L 366.782097 97.965759 
L 366.985074 98.21057 
L 367.086562 98.544316 
L 367.188051 97.588549 
L 367.391027 98.229839 
L 367.492516 98.419424 
L 367.695492 98.048765 
L 367.796981 98.080466 
L 367.999958 97.945247 
L 368.202934 98.091511 
L 368.304423 98.392122 
L 368.405911 98.043601 
L 368.507399 98.405319 
L 368.710376 97.652525 
L 368.811865 98.387675 
L 368.913353 98.065835 
L 369.014841 97.334319 
L 369.11633 98.764502 
L 369.319306 97.573918 
L 369.420795 98.596099 
L 369.522283 97.671173 
L 369.623772 98.256663 
L 369.826748 97.663571 
L 369.928237 98.409144 
L 370.029725 97.362816 
L 370.131213 98.154627 
L 370.232702 98.07578 
L 370.33419 97.349524 
L 370.435679 98.738922 
L 370.537167 97.426171 
L 370.638655 98.141526 
L 370.740144 97.950745 
L 370.841632 97.146312 
L 370.94312 98.639706 
L 371.146097 97.473651 
L 371.247586 98.344212 
L 371.349074 97.363916 
L 371.450562 98.247578 
L 371.653539 96.974418 
L 371.755027 98.368071 
L 371.856516 97.467722 
L 372.059493 97.854829 
L 372.160981 97.406232 
L 372.262469 98.182025 
L 372.363958 97.278471 
L 372.465446 97.465714 
L 372.566934 98.031169 
L 372.668423 96.845701 
L 372.769911 98.109346 
L 372.972888 97.061154 
L 373.074376 98.174709 
L 373.175865 97.289325 
L 373.277353 97.847609 
L 373.48033 96.796643 
L 373.581818 98.216212 
L 373.581818 98.216212 
" style="fill:none;stroke:#081d58;stroke-dasharray:5.55,2.4;stroke-dashoffset:0;stroke-width:1.5;"/>
    <defs>
     <path d="M -0 4.242641 
L 4.242641 0 
L 0 -4.242641 
L -4.242641 -0 
z
" id="m3e8e1cbd8d" style="stroke:#081d58;stroke-linejoin:miter;"/>
    </defs>
    <g clip-path="url(#p6b988fc0e3)">
     <use style="fill:#081d58;stroke:#081d58;stroke-linejoin:miter;" x="69.218182" xlink:href="#m3e8e1cbd8d" y="44.681514"/>
     <use style="fill:#081d58;stroke:#081d58;stroke-linejoin:miter;" x="77.337252" xlink:href="#m3e8e1cbd8d" y="45.056955"/>
     <use style="fill:#081d58;stroke:#081d58;stroke-linejoin:miter;" x="85.456322" xlink:href="#m3e8e1cbd8d" y="45.712541"/>
     <use style="fill:#081d58;stroke:#081d58;stroke-linejoin:miter;" x="93.575392" xlink:href="#m3e8e1cbd8d" y="48.411008"/>
     <use style="fill:#081d58;stroke:#081d58;stroke-linejoin:miter;" x="101.694462" xlink:href="#m3e8e1cbd8d" y="52.710452"/>
     <use style="fill:#081d58;stroke:#081d58;stroke-linejoin:miter;" x="109.813532" xlink:href="#m3e8e1cbd8d" y="56.671033"/>
     <use style="fill:#081d58;stroke:#081d58;stroke-linejoin:miter;" x="117.932602" xlink:href="#m3e8e1cbd8d" y="59.843152"/>
     <use style="fill:#081d58;stroke:#081d58;stroke-linejoin:miter;" x="126.051672" xlink:href="#m3e8e1cbd8d" y="63.280402"/>
     <use style="fill:#081d58;stroke:#081d58;stroke-linejoin:miter;" x="134.170742" xlink:href="#m3e8e1cbd8d" y="69.412868"/>
     <use style="fill:#081d58;stroke:#081d58;stroke-linejoin:miter;" x="142.289812" xlink:href="#m3e8e1cbd8d" y="77.833169"/>
     <use style="fill:#081d58;stroke:#081d58;stroke-linejoin:miter;" x="150.408882" xlink:href="#m3e8e1cbd8d" y="92.453162"/>
     <use style="fill:#081d58;stroke:#081d58;stroke-linejoin:miter;" x="158.527952" xlink:href="#m3e8e1cbd8d" y="103.586513"/>
     <use style="fill:#081d58;stroke:#081d58;stroke-linejoin:miter;" x="166.647022" xlink:href="#m3e8e1cbd8d" y="110.473302"/>
     <use style="fill:#081d58;stroke:#081d58;stroke-linejoin:miter;" x="174.766092" xlink:href="#m3e8e1cbd8d" y="100.9"/>
     <use style="fill:#081d58;stroke:#081d58;stroke-linejoin:miter;" x="182.885162" xlink:href="#m3e8e1cbd8d" y="94.24339"/>
     <use style="fill:#081d58;stroke:#081d58;stroke-linejoin:miter;" x="191.004232" xlink:href="#m3e8e1cbd8d" y="96.50397"/>
     <use style="fill:#081d58;stroke:#081d58;stroke-linejoin:miter;" x="199.123302" xlink:href="#m3e8e1cbd8d" y="97.554792"/>
     <use style="fill:#081d58;stroke:#081d58;stroke-linejoin:miter;" x="207.242372" xlink:href="#m3e8e1cbd8d" y="98.599446"/>
     <use style="fill:#081d58;stroke:#081d58;stroke-linejoin:miter;" x="215.361442" xlink:href="#m3e8e1cbd8d" y="99.110059"/>
     <use style="fill:#081d58;stroke:#081d58;stroke-linejoin:miter;" x="223.480512" xlink:href="#m3e8e1cbd8d" y="99.803323"/>
     <use style="fill:#081d58;stroke:#081d58;stroke-linejoin:miter;" x="231.599582" xlink:href="#m3e8e1cbd8d" y="99.514188"/>
     <use style="fill:#081d58;stroke:#081d58;stroke-linejoin:miter;" x="239.718652" xlink:href="#m3e8e1cbd8d" y="99.870407"/>
     <use style="fill:#081d58;stroke:#081d58;stroke-linejoin:miter;" x="247.837722" xlink:href="#m3e8e1cbd8d" y="99.134779"/>
     <use style="fill:#081d58;stroke:#081d58;stroke-linejoin:miter;" x="255.956792" xlink:href="#m3e8e1cbd8d" y="99.076923"/>
     <use style="fill:#081d58;stroke:#081d58;stroke-linejoin:miter;" x="264.075862" xlink:href="#m3e8e1cbd8d" y="99.193734"/>
     <use style="fill:#081d58;stroke:#081d58;stroke-linejoin:miter;" x="272.194932" xlink:href="#m3e8e1cbd8d" y="98.748245"/>
     <use style="fill:#081d58;stroke:#081d58;stroke-linejoin:miter;" x="280.314002" xlink:href="#m3e8e1cbd8d" y="99.33015"/>
     <use style="fill:#081d58;stroke:#081d58;stroke-linejoin:miter;" x="288.433072" xlink:href="#m3e8e1cbd8d" y="99.259193"/>
     <use style="fill:#081d58;stroke:#081d58;stroke-linejoin:miter;" x="296.552142" xlink:href="#m3e8e1cbd8d" y="99.836315"/>
     <use style="fill:#081d58;stroke:#081d58;stroke-linejoin:miter;" x="304.671212" xlink:href="#m3e8e1cbd8d" y="98.943807"/>
     <use style="fill:#081d58;stroke:#081d58;stroke-linejoin:miter;" x="312.790282" xlink:href="#m3e8e1cbd8d" y="99.248339"/>
     <use style="fill:#081d58;stroke:#081d58;stroke-linejoin:miter;" x="320.909352" xlink:href="#m3e8e1cbd8d" y="98.548667"/>
     <use style="fill:#081d58;stroke:#081d58;stroke-linejoin:miter;" x="329.028422" xlink:href="#m3e8e1cbd8d" y="99.044648"/>
     <use style="fill:#081d58;stroke:#081d58;stroke-linejoin:miter;" x="337.147492" xlink:href="#m3e8e1cbd8d" y="98.485361"/>
     <use style="fill:#081d58;stroke:#081d58;stroke-linejoin:miter;" x="345.266562" xlink:href="#m3e8e1cbd8d" y="98.301896"/>
     <use style="fill:#081d58;stroke:#081d58;stroke-linejoin:miter;" x="353.385632" xlink:href="#m3e8e1cbd8d" y="98.027775"/>
     <use style="fill:#081d58;stroke:#081d58;stroke-linejoin:miter;" x="361.504702" xlink:href="#m3e8e1cbd8d" y="98.294198"/>
     <use style="fill:#081d58;stroke:#081d58;stroke-linejoin:miter;" x="369.623772" xlink:href="#m3e8e1cbd8d" y="98.256663"/>
    </g>
   </g>
   <g id="patch_3">
    <path d="M 54 252 
L 54 34.56 
" style="fill:none;stroke:#000000;stroke-linecap:square;stroke-linejoin:miter;stroke-width:0.8;"/>
   </g>
   <g id="patch_4">
    <path d="M 388.8 252 
L 388.8 34.56 
" style="fill:none;stroke:#000000;stroke-linecap:square;stroke-linejoin:miter;stroke-width:0.8;"/>
   </g>
   <g id="patch_5">
    <path d="M 54 252 
L 388.8 252 
" style="fill:none;stroke:#000000;stroke-linecap:square;stroke-linejoin:miter;stroke-width:0.8;"/>
   </g>
   <g id="patch_6">
    <path d="M 54 34.56 
L 388.8 34.56 
" style="fill:none;stroke:#000000;stroke-linecap:square;stroke-linejoin:miter;stroke-width:0.8;"/>
   </g>
   <g id="legend_1">
    <g id="patch_7">
     <path d="M 280.085938 71.91625 
L 381.8 71.91625 
Q 383.8 71.91625 383.8 69.91625 
L 383.8 41.56 
Q 383.8 39.56 381.8 39.56 
L 280.085938 39.56 
Q 278.085938 39.56 278.085938 41.56 
L 278.085938 69.91625 
Q 278.085938 71.91625 280.085938 71.91625 
z
" style="fill:#ffffff;opacity:0.8;stroke:#cccccc;stroke-linejoin:miter;"/>
    </g>
    <g id="line2d_17">
     <path d="M 282.085938 47.658437 
L 302.085938 47.658437 
" style="fill:none;stroke:#40b5c4;stroke-dasharray:5.55,2.4;stroke-dashoffset:0;stroke-width:1.5;"/>
    </g>
    <g id="line2d_18">
     <g>
      <use style="fill:#40b5c4;stroke:#40b5c4;" x="292.085938" xlink:href="#m44586cc89e" y="47.658437"/>
     </g>
    </g>
    <g id="text_17">
     <text style="font-family:DejaVu Sans;font-size:10px;font-style:normal;font-weight:normal;text-anchor:start;" transform="rotate(-0, 310.085938, 51.158437)" x="310.085938" y="51.158437">original</text>
    </g>
    <g id="line2d_19">
     <path d="M 282.085938 62.336562 
L 302.085938 62.336562 
" style="fill:none;stroke:#081d58;stroke-dasharray:5.55,2.4;stroke-dashoffset:0;stroke-width:1.5;"/>
    </g>
    <g id="line2d_20">
     <g>
      <use style="fill:#081d58;stroke:#081d58;stroke-linejoin:miter;" x="292.085938" xlink:href="#m3e8e1cbd8d" y="62.336562"/>
     </g>
    </g>
    <g id="text_18">
     <text style="font-family:DejaVu Sans;font-size:10px;font-style:normal;font-weight:normal;text-anchor:start;" transform="rotate(-0, 310.085938, 65.836562)" x="310.085938" y="65.836562">reconstructed</text>
    </g>
   </g>
  </g>
  <g id="text_19">
   <text style="font-family:DejaVu Sans;font-size:12px;font-style:normal;font-weight:normal;text-anchor:middle;" transform="rotate(-0, 216, 14.878125)" x="216" y="14.878125">Reconstruction of the weight curve</text>
  </g>
 </g>
 <defs>
  <clipPath id="p6b988fc0e3">
   <rect height="217.44" width="334.8" x="54" y="34.56"/>
  </clipPath>
 </defs>
</svg>
