<?xml version="1.0" encoding="utf-8" standalone="no"?>
<!DOCTYPE svg PUBLIC "-//W3C//DTD SVG 1.1//EN"
  "http://www.w3.org/Graphics/SVG/1.1/DTD/svg11.dtd">
<!-- Created with matplotlib (https://matplotlib.org/) -->
<svg height="288pt" version="1.1" viewBox="0 0 432 288" width="432pt" xmlns="http://www.w3.org/2000/svg" xmlns:xlink="http://www.w3.org/1999/xlink">
 <defs>
  <style type="text/css">
*{stroke-linecap:butt;stroke-linejoin:round;}
  </style>
 </defs>
 <g id="figure_1">
  <g id="patch_1">
   <path d="M 0 288 
L 432 288 
L 432 0 
L 0 0 
z
" style="fill:#ffffff;"/>
  </g>
  <g id="axes_1">
   <g id="patch_2">
    <path d="M 54 252 
L 388.8 252 
L 388.8 34.56 
L 54 34.56 
z
" style="fill:#ffffff;"/>
   </g>
   <g id="matplotlib.axis_1">
    <g id="xtick_1">
     <g id="line2d_1">
      <defs>
       <path d="M 0 0 
L 0 3.5 
" id="m9b674204e2" style="stroke:#000000;stroke-width:0.8;"/>
      </defs>
      <g>
       <use style="stroke:#000000;stroke-width:0.8;" x="69.218182" xlink:href="#m9b674204e2" y="252"/>
      </g>
     </g>
     <g id="text_1">
      <text style="font-family:DejaVu Sans;font-size:10px;font-style:normal;font-weight:normal;text-anchor:middle;" transform="rotate(-0, 69.218182, 266.598437)" x="69.218182" y="266.598437">0</text>
     </g>
    </g>
    <g id="xtick_2">
     <g id="line2d_2">
      <g>
       <use style="stroke:#000000;stroke-width:0.8;" x="119.962369" xlink:href="#m9b674204e2" y="252"/>
      </g>
     </g>
     <g id="text_2">
      <text style="font-family:DejaVu Sans;font-size:10px;font-style:normal;font-weight:normal;text-anchor:middle;" transform="rotate(-0, 119.962369, 266.598437)" x="119.962369" y="266.598437">500</text>
     </g>
    </g>
    <g id="xtick_3">
     <g id="line2d_3">
      <g>
       <use style="stroke:#000000;stroke-width:0.8;" x="170.706557" xlink:href="#m9b674204e2" y="252"/>
      </g>
     </g>
     <g id="text_3">
      <text style="font-family:DejaVu Sans;font-size:10px;font-style:normal;font-weight:normal;text-anchor:middle;" transform="rotate(-0, 170.706557, 266.598437)" x="170.706557" y="266.598437">1000</text>
     </g>
    </g>
    <g id="xtick_4">
     <g id="line2d_4">
      <g>
       <use style="stroke:#000000;stroke-width:0.8;" x="221.450744" xlink:href="#m9b674204e2" y="252"/>
      </g>
     </g>
     <g id="text_4">
      <text style="font-family:DejaVu Sans;font-size:10px;font-style:normal;font-weight:normal;text-anchor:middle;" transform="rotate(-0, 221.450744, 266.598437)" x="221.450744" y="266.598437">1500</text>
     </g>
    </g>
    <g id="xtick_5">
     <g id="line2d_5">
      <g>
       <use style="stroke:#000000;stroke-width:0.8;" x="272.194932" xlink:href="#m9b674204e2" y="252"/>
      </g>
     </g>
     <g id="text_5">
      <text style="font-family:DejaVu Sans;font-size:10px;font-style:normal;font-weight:normal;text-anchor:middle;" transform="rotate(-0, 272.194932, 266.598437)" x="272.194932" y="266.598437">2000</text>
     </g>
    </g>
    <g id="xtick_6">
     <g id="line2d_6">
      <g>
       <use style="stroke:#000000;stroke-width:0.8;" x="322.939119" xlink:href="#m9b674204e2" y="252"/>
      </g>
     </g>
     <g id="text_6">
      <text style="font-family:DejaVu Sans;font-size:10px;font-style:normal;font-weight:normal;text-anchor:middle;" transform="rotate(-0, 322.939119, 266.598437)" x="322.939119" y="266.598437">2500</text>
     </g>
    </g>
    <g id="xtick_7">
     <g id="line2d_7">
      <g>
       <use style="stroke:#000000;stroke-width:0.8;" x="373.683307" xlink:href="#m9b674204e2" y="252"/>
      </g>
     </g>
     <g id="text_7">
      <text style="font-family:DejaVu Sans;font-size:10px;font-style:normal;font-weight:normal;text-anchor:middle;" transform="rotate(-0, 373.683307, 266.598437)" x="373.683307" y="266.598437">3000</text>
     </g>
    </g>
    <g id="text_8">
     <text style="font-family:DejaVu Sans;font-size:10px;font-style:normal;font-weight:normal;text-anchor:middle;" transform="rotate(-0, 221.4, 280.276563)" x="221.4" y="280.276563">Time</text>
    </g>
   </g>
   <g id="matplotlib.axis_2">
    <g id="ytick_1">
     <g id="line2d_8">
      <defs>
       <path d="M 0 0 
L -3.5 0 
" id="m0ddbbc18da" style="stroke:#000000;stroke-width:0.8;"/>
      </defs>
      <g>
       <use style="stroke:#000000;stroke-width:0.8;" x="54" xlink:href="#m0ddbbc18da" y="246.313017"/>
      </g>
     </g>
     <g id="text_9">
      <text style="font-family:DejaVu Sans;font-size:10px;font-style:normal;font-weight:normal;text-anchor:end;" transform="rotate(-0, 47, 250.112236)" x="47" y="250.112236">66</text>
     </g>
    </g>
    <g id="ytick_2">
     <g id="line2d_9">
      <g>
       <use style="stroke:#000000;stroke-width:0.8;" x="54" xlink:href="#m0ddbbc18da" y="219.474092"/>
      </g>
     </g>
     <g id="text_10">
      <text style="font-family:DejaVu Sans;font-size:10px;font-style:normal;font-weight:normal;text-anchor:end;" transform="rotate(-0, 47, 223.27331)" x="47" y="223.27331">68</text>
     </g>
    </g>
    <g id="ytick_3">
     <g id="line2d_10">
      <g>
       <use style="stroke:#000000;stroke-width:0.8;" x="54" xlink:href="#m0ddbbc18da" y="192.635166"/>
      </g>
     </g>
     <g id="text_11">
      <text style="font-family:DejaVu Sans;font-size:10px;font-style:normal;font-weight:normal;text-anchor:end;" transform="rotate(-0, 47, 196.434385)" x="47" y="196.434385">70</text>
     </g>
    </g>
    <g id="ytick_4">
     <g id="line2d_11">
      <g>
       <use style="stroke:#000000;stroke-width:0.8;" x="54" xlink:href="#m0ddbbc18da" y="165.796241"/>
      </g>
     </g>
     <g id="text_12">
      <text style="font-family:DejaVu Sans;font-size:10px;font-style:normal;font-weight:normal;text-anchor:end;" transform="rotate(-0, 47, 169.595459)" x="47" y="169.595459">72</text>
     </g>
    </g>
    <g id="ytick_5">
     <g id="line2d_12">
      <g>
       <use style="stroke:#000000;stroke-width:0.8;" x="54" xlink:href="#m0ddbbc18da" y="138.957315"/>
      </g>
     </g>
     <g id="text_13">
      <text style="font-family:DejaVu Sans;font-size:10px;font-style:normal;font-weight:normal;text-anchor:end;" transform="rotate(-0, 47, 142.756534)" x="47" y="142.756534">74</text>
     </g>
    </g>
    <g id="ytick_6">
     <g id="line2d_13">
      <g>
       <use style="stroke:#000000;stroke-width:0.8;" x="54" xlink:href="#m0ddbbc18da" y="112.11839"/>
      </g>
     </g>
     <g id="text_14">
      <text style="font-family:DejaVu Sans;font-size:10px;font-style:normal;font-weight:normal;text-anchor:end;" transform="rotate(-0, 47, 115.917608)" x="47" y="115.917608">76</text>
     </g>
    </g>
    <g id="ytick_7">
     <g id="line2d_14">
      <g>
       <use style="stroke:#000000;stroke-width:0.8;" x="54" xlink:href="#m0ddbbc18da" y="85.279464"/>
      </g>
     </g>
     <g id="text_15">
      <text style="font-family:DejaVu Sans;font-size:10px;font-style:normal;font-weight:normal;text-anchor:end;" transform="rotate(-0, 47, 89.078683)" x="47" y="89.078683">78</text>
     </g>
    </g>
    <g id="ytick_8">
     <g id="line2d_15">
      <g>
       <use style="stroke:#000000;stroke-width:0.8;" x="54" xlink:href="#m0ddbbc18da" y="58.440539"/>
      </g>
     </g>
     <g id="text_16">
      <text style="font-family:DejaVu Sans;font-size:10px;font-style:normal;font-weight:normal;text-anchor:end;" transform="rotate(-0, 47, 62.239757)" x="47" y="62.239757">80</text>
     </g>
    </g>
    <g id="text_17">
     <text style="font-family:DejaVu Sans;font-size:10px;font-style:normal;font-weight:normal;text-anchor:middle;" transform="rotate(-90, 28.195312, 143.28)" x="28.195312" y="143.28">weight (\%)</text>
    </g>
   </g>
   <g id="line2d_16">
    <path clip-path="url(#pb4872fac51)" d="M 69.218182 44.443636 
L 77.134275 44.585748 
L 86.572694 44.869436 
L 90.835206 45.198079 
L 94.793252 45.723182 
L 99.461718 46.585248 
L 109.610555 48.485444 
L 127.573997 51.538372 
L 131.735021 52.549663 
L 135.084137 53.588061 
L 138.0273 54.727642 
L 140.665998 55.980214 
L 142.898742 57.280023 
L 145.029998 58.785285 
L 146.958277 60.423935 
L 148.683579 62.174907 
L 150.307393 64.133343 
L 151.931207 66.450616 
L 153.960975 69.84735 
L 155.990742 73.748388 
L 158.02051 78.152924 
L 159.948789 82.851078 
L 161.877068 88.146264 
L 163.805347 94.135907 
L 165.835115 101.215613 
L 168.270836 110.560658 
L 172.228882 126.022832 
L 173.64972 130.617924 
L 174.766092 133.512234 
L 175.679487 135.322519 
L 176.491394 136.502895 
L 177.404789 137.444405 
L 178.62265 138.345656 
L 180.449441 139.412101 
L 182.885162 140.578386 
L 185.828325 141.731252 
L 189.481906 142.9072 
L 194.556325 144.282695 
L 202.167953 146.100629 
L 207.445348 147.161975 
L 212.621256 148.010487 
L 218.507581 148.762782 
L 226.423675 149.501658 
L 235.253163 150.091443 
L 246.822838 150.62272 
L 257.377629 150.917009 
L 267.830932 151.0559 
L 298.074467 151.064891 
L 310.050095 150.953912 
L 335.016236 150.635737 
L 356.024329 150.3028 
L 370.435679 150.146597 
L 373.581818 150.137875 
L 373.581818 150.137875 
" style="fill:none;stroke:#40b5c4;stroke-dasharray:5.55,2.4;stroke-dashoffset:0;stroke-width:1.5;"/>
    <defs>
     <path d="M 0 3 
C 0.795609 3 1.55874 2.683901 2.12132 2.12132 
C 2.683901 1.55874 3 0.795609 3 0 
C 3 -0.795609 2.683901 -1.55874 2.12132 -2.12132 
C 1.55874 -2.683901 0.795609 -3 0 -3 
C -0.795609 -3 -1.55874 -2.683901 -2.12132 -2.12132 
C -2.683901 -1.55874 -3 -0.795609 -3 0 
C -3 0.795609 -2.683901 1.55874 -2.12132 2.12132 
C -1.55874 2.683901 -0.795609 3 0 3 
z
" id="m8046d88e48" style="stroke:#40b5c4;"/>
    </defs>
    <g clip-path="url(#pb4872fac51)">
     <use style="fill:#40b5c4;stroke:#40b5c4;" x="69.218182" xlink:href="#m8046d88e48" y="44.443636"/>
     <use style="fill:#40b5c4;stroke:#40b5c4;" x="77.337252" xlink:href="#m8046d88e48" y="44.589238"/>
     <use style="fill:#40b5c4;stroke:#40b5c4;" x="85.456322" xlink:href="#m8046d88e48" y="44.815624"/>
     <use style="fill:#40b5c4;stroke:#40b5c4;" x="93.575392" xlink:href="#m8046d88e48" y="45.535712"/>
     <use style="fill:#40b5c4;stroke:#40b5c4;" x="101.694462" xlink:href="#m8046d88e48" y="47.031043"/>
     <use style="fill:#40b5c4;stroke:#40b5c4;" x="109.813532" xlink:href="#m8046d88e48" y="48.518456"/>
     <use style="fill:#40b5c4;stroke:#40b5c4;" x="117.932602" xlink:href="#m8046d88e48" y="49.807664"/>
     <use style="fill:#40b5c4;stroke:#40b5c4;" x="126.051672" xlink:href="#m8046d88e48" y="51.220733"/>
     <use style="fill:#40b5c4;stroke:#40b5c4;" x="134.170742" xlink:href="#m8046d88e48" y="53.279816"/>
     <use style="fill:#40b5c4;stroke:#40b5c4;" x="142.289812" xlink:href="#m8046d88e48" y="56.899179"/>
     <use style="fill:#40b5c4;stroke:#40b5c4;" x="150.408882" xlink:href="#m8046d88e48" y="64.267404"/>
     <use style="fill:#40b5c4;stroke:#40b5c4;" x="158.527952" xlink:href="#m8046d88e48" y="79.337058"/>
     <use style="fill:#40b5c4;stroke:#40b5c4;" x="166.647022" xlink:href="#m8046d88e48" y="104.236066"/>
     <use style="fill:#40b5c4;stroke:#40b5c4;" x="174.766092" xlink:href="#m8046d88e48" y="133.512234"/>
     <use style="fill:#40b5c4;stroke:#40b5c4;" x="182.885162" xlink:href="#m8046d88e48" y="140.578386"/>
     <use style="fill:#40b5c4;stroke:#40b5c4;" x="191.004232" xlink:href="#m8046d88e48" y="143.343064"/>
     <use style="fill:#40b5c4;stroke:#40b5c4;" x="199.123302" xlink:href="#m8046d88e48" y="145.402415"/>
     <use style="fill:#40b5c4;stroke:#40b5c4;" x="207.242372" xlink:href="#m8046d88e48" y="147.124803"/>
     <use style="fill:#40b5c4;stroke:#40b5c4;" x="215.361442" xlink:href="#m8046d88e48" y="148.386635"/>
     <use style="fill:#40b5c4;stroke:#40b5c4;" x="223.480512" xlink:href="#m8046d88e48" y="149.256619"/>
     <use style="fill:#40b5c4;stroke:#40b5c4;" x="231.599582" xlink:href="#m8046d88e48" y="149.869754"/>
     <use style="fill:#40b5c4;stroke:#40b5c4;" x="239.718652" xlink:href="#m8046d88e48" y="150.326552"/>
     <use style="fill:#40b5c4;stroke:#40b5c4;" x="247.837722" xlink:href="#m8046d88e48" y="150.657208"/>
     <use style="fill:#40b5c4;stroke:#40b5c4;" x="255.956792" xlink:href="#m8046d88e48" y="150.886547"/>
     <use style="fill:#40b5c4;stroke:#40b5c4;" x="264.075862" xlink:href="#m8046d88e48" y="151.024096"/>
     <use style="fill:#40b5c4;stroke:#40b5c4;" x="272.194932" xlink:href="#m8046d88e48" y="151.067575"/>
     <use style="fill:#40b5c4;stroke:#40b5c4;" x="280.314002" xlink:href="#m8046d88e48" y="151.052009"/>
     <use style="fill:#40b5c4;stroke:#40b5c4;" x="288.433072" xlink:href="#m8046d88e48" y="151.033892"/>
     <use style="fill:#40b5c4;stroke:#40b5c4;" x="296.552142" xlink:href="#m8046d88e48" y="151.063013"/>
     <use style="fill:#40b5c4;stroke:#40b5c4;" x="304.671212" xlink:href="#m8046d88e48" y="151.02678"/>
     <use style="fill:#40b5c4;stroke:#40b5c4;" x="312.790282" xlink:href="#m8046d88e48" y="150.916204"/>
     <use style="fill:#40b5c4;stroke:#40b5c4;" x="320.909352" xlink:href="#m8046d88e48" y="150.809385"/>
     <use style="fill:#40b5c4;stroke:#40b5c4;" x="329.028422" xlink:href="#m8046d88e48" y="150.714375"/>
     <use style="fill:#40b5c4;stroke:#40b5c4;" x="337.147492" xlink:href="#m8046d88e48" y="150.605946"/>
     <use style="fill:#40b5c4;stroke:#40b5c4;" x="345.266562" xlink:href="#m8046d88e48" y="150.48933"/>
     <use style="fill:#40b5c4;stroke:#40b5c4;" x="353.385632" xlink:href="#m8046d88e48" y="150.348963"/>
     <use style="fill:#40b5c4;stroke:#40b5c4;" x="361.504702" xlink:href="#m8046d88e48" y="150.222954"/>
     <use style="fill:#40b5c4;stroke:#40b5c4;" x="369.623772" xlink:href="#m8046d88e48" y="150.149415"/>
    </g>
   </g>
   <g id="line2d_17">
    <path clip-path="url(#pb4872fac51)" d="M 69.218182 88.950384 
L 69.31967 89.140713 
L 69.421159 89.72419 
L 69.522647 89.326025 
L 69.624135 89.544714 
L 69.725624 88.443284 
L 69.827112 89.861997 
L 69.9286 88.812782 
L 70.131577 89.700028 
L 70.233066 88.597984 
L 70.334554 90.00738 
L 70.537531 88.844009 
L 70.639019 89.548707 
L 70.740507 88.577917 
L 70.841996 89.897216 
L 70.943484 88.776539 
L 71.044973 89.060957 
L 71.146461 89.701257 
L 71.247949 88.784934 
L 71.349438 90.1157 
L 71.450926 89.078055 
L 71.552414 89.111227 
L 71.653903 89.350802 
L 71.755391 88.712038 
L 71.85688 89.713542 
L 72.059856 89.075188 
L 72.161345 89.341894 
L 72.262833 88.941784 
L 72.364321 89.619044 
L 72.46581 89.156173 
L 72.668787 89.744667 
L 72.770275 89.0585 
L 72.871763 89.48482 
L 73.07474 88.92141 
L 73.176228 89.77446 
L 73.277717 88.634023 
L 73.480694 89.583107 
L 73.582182 88.945163 
L 73.68367 90.056728 
L 73.785159 89.060445 
L 73.886647 89.735145 
L 74.089624 88.446765 
L 74.191112 90.073928 
L 74.292601 89.136003 
L 74.394089 89.352133 
L 74.495577 89.246167 
L 74.597066 88.784525 
L 74.698554 89.814287 
L 74.800042 89.112251 
L 74.901531 89.800465 
L 75.003019 89.53765 
L 75.104508 88.919465 
L 75.205996 90.060107 
L 75.307484 88.950179 
L 75.408973 89.142556 
L 75.510461 89.656823 
L 75.611949 88.898476 
L 75.713438 89.9137 
L 75.814926 88.81657 
L 76.017903 89.627848 
L 76.119391 89.300737 
L 76.22088 90.113141 
L 76.423856 89.144092 
L 76.525345 89.756236 
L 76.626833 88.89346 
L 76.728322 89.985777 
L 76.931298 88.683678 
L 77.032787 90.043623 
L 77.134275 88.928167 
L 77.235763 90.133822 
L 77.337252 89.780398 
L 77.43874 88.962875 
L 77.540229 90.069219 
L 77.641717 88.868888 
L 77.743205 89.857492 
L 77.844694 89.028707 
L 78.04767 89.895681 
L 78.149159 88.904415 
L 78.250647 89.805072 
L 78.453624 89.353054 
L 78.555112 90.02714 
L 78.656601 89.338209 
L 78.758089 89.938988 
L 78.961066 89.071503 
L 79.062554 90.054885 
L 79.164043 89.18873 
L 79.265531 89.593243 
L 79.367019 89.539697 
L 79.468508 89.126175 
L 79.569996 89.978406 
L 79.671484 89.712723 
L 79.772973 90.002158 
L 79.97595 88.893152 
L 80.077438 90.104745 
L 80.280415 89.456972 
L 80.381903 89.892404 
L 80.483391 88.881481 
L 80.58488 90.071164 
L 80.686368 89.283229 
L 80.787857 89.901107 
L 80.889345 89.75726 
L 80.990833 89.235826 
L 81.092322 90.4595 
L 81.19381 89.351211 
L 81.295298 89.39759 
L 81.396787 89.921788 
L 81.498275 89.344863 
L 81.599764 89.90469 
L 81.701252 89.335137 
L 81.904229 89.945541 
L 82.005717 89.528128 
L 82.107205 90.379745 
L 82.310182 89.136515 
L 82.411671 90.343501 
L 82.513159 89.227738 
L 82.614647 90.284427 
L 82.817624 89.172656 
L 82.919112 90.204875 
L 83.020601 89.353771 
L 83.122089 90.588093 
L 83.325066 89.550038 
L 83.426554 90.348108 
L 83.528043 89.664194 
L 83.629531 90.148463 
L 83.731019 89.57461 
L 83.832508 89.682009 
L 83.933996 90.324049 
L 84.035485 89.433936 
L 84.136973 90.403088 
L 84.238461 89.845513 
L 84.441438 90.485096 
L 84.542926 89.65457 
L 84.644415 90.456838 
L 84.847392 89.551471 
L 84.94888 90.375854 
L 85.050368 90.353228 
L 85.151857 90.05294 
L 85.253345 90.162182 
L 85.354833 89.815311 
L 85.456322 90.927081 
L 85.55781 90.156858 
L 85.760787 90.539461 
L 85.862275 89.545738 
L 85.963764 91.000079 
L 86.065252 90.189211 
L 86.268229 90.471889 
L 86.369717 89.772822 
L 86.471206 91.164096 
L 86.572694 90.160646 
L 86.674182 90.892271 
L 86.877159 89.933665 
L 86.978647 91.135634 
L 87.181624 90.646451 
L 87.283113 90.889302 
L 87.384601 90.198323 
L 87.486089 91.161127 
L 87.587578 90.563726 
L 87.689066 90.586455 
L 87.790554 91.422611 
L 87.892043 89.830361 
L 87.993531 91.676417 
L 88.196508 90.844356 
L 88.297996 91.819753 
L 88.399485 90.758559 
L 88.500973 91.596969 
L 88.70395 90.813641 
L 88.805438 91.747266 
L 88.906927 91.017996 
L 89.008415 92.049192 
L 89.109903 91.798457 
L 89.211392 91.176894 
L 89.31288 92.189353 
L 89.414368 91.487419 
L 89.515857 92.166215 
L 89.617345 91.625738 
L 89.718834 91.818524 
L 89.820322 92.589054 
L 89.92181 92.063525 
L 90.023299 92.697374 
L 90.226275 91.9765 
L 90.327764 92.77713 
L 90.429252 92.330948 
L 90.530741 92.958961 
L 90.733717 92.121371 
L 90.835206 93.414256 
L 90.936694 92.630212 
L 91.038182 93.6998 
L 91.241159 93.155024 
L 91.342648 93.54551 
L 91.444136 93.176012 
L 91.545624 93.792968 
L 91.748601 93.073322 
L 91.850089 94.025581 
L 91.951578 93.653831 
L 92.053066 93.873748 
L 92.154555 94.664345 
L 92.256043 93.825321 
L 92.357531 94.887743 
L 92.45902 93.822352 
L 92.661996 94.700793 
L 92.763485 94.071346 
L 92.864973 95.575445 
L 92.966462 94.20516 
L 93.169438 95.340068 
L 93.270927 94.862864 
L 93.372415 96.118277 
L 93.473903 94.891941 
L 93.67688 95.684995 
L 93.778369 95.069881 
L 93.879857 96.200797 
L 93.981345 96.051114 
L 94.082834 95.389724 
L 94.184322 96.179399 
L 94.28581 95.834882 
L 94.387299 97.016682 
L 94.488787 96.226188 
L 94.590276 96.296729 
L 94.691764 97.229023 
L 94.793252 95.8743 
L 94.894741 97.453752 
L 94.996229 96.637663 
L 95.097717 97.201585 
L 95.300694 96.947881 
L 95.503671 97.582652 
L 95.605159 97.555828 
L 95.706648 98.285712 
L 95.808136 97.43819 
L 95.909624 98.279159 
L 96.112601 97.695272 
L 96.21409 99.209405 
L 96.315578 97.722301 
L 96.417066 99.159852 
L 96.620043 98.397616 
L 96.721531 99.571327 
L 96.82302 98.556615 
L 96.924508 99.600199 
L 97.127485 98.965633 
L 97.228973 99.861786 
L 97.330462 99.822983 
L 97.43195 100.174359 
L 97.634927 99.451233 
L 97.736415 100.527374 
L 97.837904 100.165554 
L 97.939392 100.299573 
L 98.04088 100.686271 
L 98.142369 99.691114 
L 98.243857 101.398341 
L 98.345345 100.429291 
L 98.548322 101.427827 
L 98.649811 100.627401 
L 98.751299 101.762515 
L 98.852787 101.32012 
L 98.954276 101.428543 
L 99.055764 101.891721 
L 99.157252 101.323397 
L 99.258741 102.209823 
L 99.360229 101.654194 
L 99.461718 101.885169 
L 99.664694 102.721633 
L 99.766183 102.47356 
L 99.867671 102.701156 
L 99.969159 102.519837 
L 100.273625 103.154915 
L 100.375113 102.764838 
L 100.679578 104.327808 
L 100.781066 103.595569 
L 100.882555 103.990765 
L 101.085532 103.748119 
L 101.288508 104.321255 
L 101.389997 103.931895 
L 101.592973 104.733344 
L 101.694462 104.893368 
L 101.79595 105.316821 
L 101.897439 104.94804 
L 102.303392 105.353884 
L 102.40488 105.671781 
L 102.506369 105.415006 
L 102.709346 106.108339 
L 102.810834 105.961318 
L 102.912322 106.348017 
L 103.013811 106.14663 
L 103.115299 106.567217 
L 103.216787 106.230379 
L 103.318276 106.272868 
L 103.521253 107.018007 
L 103.622741 106.672057 
L 103.724229 107.266079 
L 103.825718 107.141173 
L 104.231671 107.87935 
L 104.33316 107.019747 
L 104.434648 107.944874 
L 104.536136 107.611517 
L 104.637625 108.711514 
L 104.739113 107.701614 
L 104.840601 108.648139 
L 104.94209 108.108174 
L 105.043578 108.698409 
L 105.145067 108.256834 
L 105.652508 109.54163 
L 105.753997 109.180118 
L 105.855485 109.418157 
L 105.956974 109.234585 
L 106.15995 109.773321 
L 106.261439 109.561287 
L 106.464415 110.053235 
L 106.565904 110.905261 
L 106.768881 110.443312 
L 106.971857 110.360587 
L 107.174834 110.835846 
L 107.377811 110.640295 
L 107.479299 110.897275 
L 107.580788 111.875641 
L 107.783764 111.490069 
L 107.986741 111.489659 
L 108.088229 111.555389 
L 108.189718 112.006895 
L 108.291206 111.871341 
L 108.392695 111.516074 
L 108.595671 112.604501 
L 108.798648 112.614535 
L 108.900136 112.457173 
L 109.001625 112.533243 
L 109.204602 113.078532 
L 109.30609 112.653747 
L 109.407578 112.788585 
L 109.610555 113.634263 
L 109.712043 113.482021 
L 109.813532 113.836264 
L 109.91502 113.440044 
L 110.016509 113.810668 
L 110.117997 113.703576 
L 110.422462 114.346537 
L 110.52395 114.287156 
L 110.625439 114.770298 
L 110.726927 114.568502 
L 110.828416 115.01448 
L 110.929904 114.97322 
L 111.031392 115.347325 
L 111.132881 115.191294 
L 111.335857 115.724809 
L 111.437346 115.564478 
L 111.741811 116.094819 
L 111.843299 116.663758 
L 112.046276 116.596288 
L 112.249253 116.971007 
L 112.350741 116.971314 
L 112.553718 117.351255 
L 112.655206 117.051275 
L 112.959671 118.145845 
L 113.06116 118.17359 
L 113.264137 118.573906 
L 113.365625 118.281809 
L 113.467113 118.772527 
L 113.568602 118.712941 
L 113.67009 119.632232 
L 113.771578 119.225365 
L 113.873067 119.69315 
L 113.974555 119.489921 
L 114.27902 120.641825 
L 114.380509 120.270689 
L 114.684974 121.81482 
L 114.887951 121.530299 
L 115.293904 122.805267 
L 115.395392 122.403314 
L 115.801346 123.910894 
L 116.004323 123.707972 
L 116.308788 124.712855 
L 116.410276 124.927961 
L 116.511765 124.717258 
L 116.81623 126.361519 
L 116.917718 125.589351 
L 117.019206 126.302649 
L 117.120695 125.983113 
L 117.222183 126.886843 
L 117.323672 126.788965 
L 117.42516 127.358416 
L 117.526648 126.841897 
L 117.831113 128.468548 
L 117.932602 128.127 
L 118.03409 128.50561 
L 118.135579 128.235014 
L 118.237067 129.025918 
L 118.338555 128.889442 
L 118.440044 129.526977 
L 118.541532 128.975545 
L 118.845997 130.500121 
L 118.947486 130.11414 
L 119.353439 131.63329 
L 119.454927 131.527836 
L 119.759393 131.959787 
L 119.962369 132.422453 
L 120.063858 132.42747 
L 120.368323 134.03518 
L 120.469811 133.544052 
L 120.5713 134.147289 
L 120.672788 133.936995 
L 120.875765 134.557228 
L 120.977253 134.495491 
L 121.18023 135.053168 
L 121.281718 135.169474 
L 121.383207 136.083032 
L 121.484695 135.394511 
L 121.586183 136.382398 
L 121.687672 135.562623 
L 121.890648 136.698555 
L 121.992137 136.243363 
L 122.195114 136.983895 
L 122.296602 137.025872 
L 122.39809 138.033314 
L 122.499579 137.374893 
L 122.601067 138.166002 
L 122.702555 137.78258 
L 122.804044 137.814523 
L 122.905532 138.641261 
L 123.007021 138.282513 
L 123.209997 138.853909 
L 123.311486 138.588534 
L 123.412974 140.135634 
L 123.514462 139.384045 
L 123.615951 140.028542 
L 123.717439 139.323332 
L 123.920416 140.485167 
L 124.021904 140.348794 
L 124.123393 140.763033 
L 124.326369 140.619288 
L 124.427858 141.907156 
L 124.529346 141.58588 
L 124.630835 141.900911 
L 124.732323 141.581785 
L 124.833811 141.655603 
L 124.9353 142.554827 
L 125.036788 142.020903 
L 125.138276 142.974185 
L 125.239765 142.612366 
L 125.341253 142.646459 
L 125.442742 143.826826 
L 125.54423 143.046262 
L 125.645718 143.619501 
L 125.747207 143.028755 
L 125.848695 143.348802 
L 125.950183 144.121073 
L 126.051672 143.17035 
L 126.15316 144.31908 
L 126.254649 143.768058 
L 126.356137 143.8343 
L 126.457625 144.753181 
L 126.559114 144.470708 
L 126.660602 144.58251 
L 126.76209 144.314882 
L 126.863579 144.449413 
L 126.965067 145.376895 
L 127.066556 144.611484 
L 127.168044 145.462589 
L 127.269532 144.881467 
L 127.371021 144.914843 
L 127.472509 146.049035 
L 127.573997 145.656092 
L 127.675486 145.78407 
L 127.878463 145.456446 
L 127.979951 146.287279 
L 128.081439 145.865873 
L 128.182928 146.39048 
L 128.284416 146.106676 
L 128.385904 146.320246 
L 128.487393 147.148212 
L 128.588881 146.730902 
L 128.791858 146.821203 
L 128.893346 146.432764 
L 129.096323 147.407445 
L 129.2993 147.106031 
L 129.502277 148.124735 
L 129.603765 148.028803 
L 129.705253 147.822605 
L 129.90823 148.102007 
L 130.111207 148.635931 
L 130.314184 148.361751 
L 130.51716 149.111599 
L 130.618649 149.034096 
L 130.821625 149.157159 
L 130.923114 149.28913 
L 131.126091 149.905063 
L 131.227579 149.426323 
L 131.532044 150.598908 
L 131.836509 150.28787 
L 131.937998 150.45332 
L 132.039486 151.294289 
L 132.140974 151.180952 
L 132.242463 150.739069 
L 132.343951 151.223031 
L 132.445439 151.085736 
L 132.546928 152.019156 
L 132.648416 151.683547 
L 132.749905 151.787772 
L 132.851393 151.481444 
L 133.155858 152.708497 
L 133.257346 151.962846 
L 133.460323 152.723547 
L 133.561812 153.119972 
L 133.6633 153.092328 
L 133.764788 153.187851 
L 133.866277 153.033049 
L 133.967765 153.106048 
L 134.170742 153.775935 
L 134.27223 153.863984 
L 134.576695 154.499165 
L 134.678184 154.560492 
L 134.779672 154.264811 
L 135.185626 155.76758 
L 135.287114 155.177857 
L 135.388602 155.589025 
L 135.490091 155.358665 
L 135.693067 156.119775 
L 135.794556 155.739937 
L 135.997533 156.439515 
L 136.099021 157.097834 
L 136.200509 156.882422 
L 136.403486 157.224993 
L 136.504974 156.968218 
L 136.707951 158.04098 
L 136.910928 157.861607 
L 137.113905 159.324855 
L 137.215393 159.163603 
L 137.316881 159.171487 
L 137.621347 159.686675 
L 137.722835 160.513515 
L 137.824323 159.805336 
L 138.128788 161.779268 
L 138.230277 161.589656 
L 138.433254 161.835169 
L 138.63623 162.329062 
L 138.737719 163.377662 
L 138.839207 162.020686 
L 139.143672 164.476941 
L 139.245161 164.30197 
L 139.346649 164.442439 
L 139.448137 164.219859 
L 139.549626 165.02612 
L 139.651114 165.002777 
L 140.158556 167.185774 
L 140.260044 167.034044 
L 140.463021 167.518517 
L 140.767486 168.806385 
L 140.868975 168.89771 
L 141.376416 171.291 
L 141.477905 171.39369 
L 141.680882 172.785681 
L 141.78237 172.364992 
L 141.883858 172.732647 
L 142.086835 174.251489 
L 142.188323 174.696443 
L 142.289812 174.481747 
L 142.492789 175.298042 
L 142.594277 176.02465 
L 142.695765 175.41957 
L 143.00023 177.514006 
L 143.101719 177.709044 
L 143.304696 178.280031 
L 143.507672 178.965276 
L 143.609161 179.623083 
L 143.710649 179.307336 
L 144.015114 181.516338 
L 144.116603 181.388155 
L 144.218091 181.915936 
L 144.319579 181.80997 
L 144.725533 183.57965 
L 145.53744 186.965333 
L 145.638928 186.376224 
L 145.943393 188.552055 
L 146.044882 188.455918 
L 146.349347 189.891319 
L 146.7553 191.268669 
L 146.958277 192.176084 
L 147.161254 192.501455 
L 147.262742 193.600734 
L 147.364231 193.498966 
L 147.465719 194.358364 
L 147.567207 193.909929 
L 147.871672 196.288374 
L 147.973161 195.819668 
L 148.277626 197.391647 
L 148.379114 197.35612 
L 148.480603 197.590064 
L 148.683579 198.883255 
L 148.785068 198.993419 
L 149.191021 200.697676 
L 149.29251 200.58311 
L 149.596975 202.494589 
L 149.698463 202.494896 
L 150.002928 203.392073 
L 150.104417 203.558649 
L 150.713347 206.212707 
L 150.916324 206.732707 
L 151.423765 208.533921 
L 151.525254 209.629105 
L 151.626742 209.335882 
L 151.728231 209.862639 
L 151.829719 209.74623 
L 152.134184 210.908475 
L 152.235672 210.974204 
L 152.540138 212.689928 
L 152.641626 212.639659 
L 153.047579 213.975544 
L 153.149068 213.832413 
L 153.453533 215.851496 
L 153.65651 215.624719 
L 153.960975 217.291095 
L 154.062463 216.820033 
L 154.26544 217.909177 
L 154.366928 218.984397 
L 154.468417 218.610394 
L 154.569905 219.087598 
L 154.671393 218.899522 
L 154.975859 220.058286 
L 155.077347 219.913619 
L 155.381812 221.476793 
L 155.4833 221.338168 
L 155.584789 221.609583 
L 155.686277 221.301924 
L 155.889254 222.099892 
L 155.990742 221.905878 
L 156.092231 222.613954 
L 156.193719 222.56348 
L 156.396696 223.42298 
L 156.498184 223.291214 
L 156.599673 223.570718 
L 156.701161 223.393187 
L 156.802649 224.220641 
L 156.904138 223.638495 
L 157.005626 223.960078 
L 157.208603 225.270777 
L 157.310091 224.756408 
L 157.41158 225.160102 
L 157.513068 224.652592 
L 157.614556 225.702933 
L 157.716045 225.665461 
L 157.817533 225.273132 
L 158.121998 227.164953 
L 158.223487 226.52834 
L 158.324975 226.819003 
L 158.426463 226.37405 
L 158.62944 227.310336 
L 158.730928 226.924457 
L 158.933905 228.060492 
L 159.136882 228.320339 
L 159.23837 228.107178 
L 159.644324 229.344265 
L 159.745812 228.854877 
L 160.050277 230.670219 
L 160.151766 230.641245 
L 160.253254 230.39307 
L 160.557719 231.774617 
L 160.659208 231.348604 
L 160.862184 232.220186 
L 160.963673 233.346085 
L 161.065161 232.521292 
L 161.166649 233.418059 
L 161.268138 232.649782 
L 161.471115 233.702887 
L 161.572603 233.902533 
L 161.674091 233.657532 
L 161.77558 234.188589 
L 161.877068 235.397623 
L 161.978556 235.038568 
L 162.080045 235.308448 
L 162.181533 235.095287 
L 162.283022 235.673236 
L 162.38451 235.533382 
L 162.587487 235.958371 
L 162.99344 237.391212 
L 163.094929 237.210098 
L 163.906836 239.279962 
L 164.008324 239.50162 
L 164.109812 239.178399 
L 164.312789 240.077931 
L 164.414277 239.639427 
L 164.617254 240.858289 
L 164.718743 240.934154 
L 164.820231 240.795119 
L 165.226184 241.956033 
L 165.327673 241.576809 
L 165.53065 242.053808 
L 165.632138 242.116364 
L 165.835115 241.057525 
L 165.936603 240.690689 
L 166.038091 241.025479 
L 166.444045 238.970051 
L 166.545533 239.053697 
L 166.647022 238.829787 
L 166.74851 237.666826 
L 166.849998 237.999159 
L 166.951487 237.435134 
L 167.052975 237.868724 
L 167.255952 236.713339 
L 167.35744 236.137028 
L 167.458929 236.163648 
L 168.575301 232.385124 
L 168.676789 232.552519 
L 168.778278 231.721379 
L 168.879766 231.767553 
L 168.981254 231.540776 
L 169.082743 231.641623 
L 169.184231 230.80434 
L 169.285719 230.961701 
L 169.590185 229.451869 
L 169.691673 229.849317 
L 169.793161 228.618169 
L 169.89465 228.673148 
L 169.996138 228.468793 
L 170.097626 229.092506 
L 170.402092 227.325079 
L 170.50358 226.746209 
L 170.605068 226.951281 
L 170.706557 226.841937 
L 170.909533 225.876471 
L 171.011022 225.533081 
L 171.11251 226.24556 
L 171.416975 224.542122 
L 171.518464 224.410663 
L 171.924417 223.093923 
L 172.127394 223.43199 
L 172.330371 222.305374 
L 172.431859 221.635179 
L 172.533347 221.77964 
L 172.837813 220.821649 
L 172.939301 220.946657 
L 173.040789 220.094119 
L 173.142278 220.845299 
L 173.345254 219.698719 
L 173.64972 218.83543 
L 173.751208 218.846181 
L 173.954185 218.04381 
L 174.25865 217.559337 
L 174.664603 216.393406 
L 174.766092 216.396273 
L 174.969068 215.407566 
L 175.070557 215.398045 
L 175.172045 215.710413 
L 175.375022 214.480084 
L 175.679487 213.948003 
L 175.780975 213.979639 
L 175.882464 212.920903 
L 175.983952 212.988271 
L 176.085441 212.558469 
L 176.186929 213.185766 
L 176.592882 211.624742 
L 176.694371 211.46779 
L 177.100324 210.209408 
L 177.201813 210.764321 
L 177.303301 209.68951 
L 177.404789 209.956524 
L 177.709255 208.461127 
L 177.810743 208.815165 
L 178.01372 208.040949 
L 178.115208 207.64862 
L 178.216696 208.099819 
L 178.724138 206.266765 
L 178.825627 206.376519 
L 178.927115 205.144552 
L 179.028603 205.569951 
L 179.130092 205.314712 
L 179.23158 205.611313 
L 179.637534 203.805902 
L 179.739022 203.821567 
L 180.144976 202.826922 
L 180.246464 202.958279 
L 180.652417 201.341252 
L 180.753906 201.382204 
L 180.956883 200.219653 
L 181.058371 200.747946 
L 181.261348 200.255179 
L 181.667301 198.622488 
L 181.870278 198.679003 
L 182.073255 197.793293 
L 182.174743 197.488807 
L 182.276231 197.816022 
L 182.682185 196.177596 
L 182.783673 196.369666 
L 183.189627 195.016478 
L 183.291115 195.386488 
L 183.59558 193.913308 
L 183.697069 194.06166 
L 184.103022 192.755465 
L 184.204511 192.798364 
L 184.711952 191.477017 
L 184.813441 190.972784 
L 184.914929 191.07619 
L 185.219394 190.154748 
L 185.320883 190.474591 
L 185.422371 190.170003 
L 185.625348 189.269346 
L 185.726836 188.8849 
L 185.828325 189.017178 
L 186.031301 187.839985 
L 186.335766 189.820879 
L 186.437255 189.804396 
L 186.640232 188.774429 
L 186.74172 189.049326 
L 186.843208 188.951858 
L 186.944697 189.332516 
L 187.046185 188.946329 
L 187.147673 189.073795 
L 187.249162 189.508818 
L 187.35065 190.534689 
L 187.553627 189.774398 
L 187.655115 189.382478 
L 187.756604 189.461415 
L 187.95958 189.997796 
L 188.162557 190.249862 
L 188.264046 189.986841 
L 188.467022 190.625503 
L 188.568511 189.131948 
L 188.669999 190.439781 
L 188.771487 190.095162 
L 188.872976 191.952992 
L 188.974464 190.50551 
L 189.075953 190.95671 
L 189.278929 190.021856 
L 189.481906 191.614926 
L 189.583394 189.830094 
L 189.786371 191.569775 
L 189.88786 191.399923 
L 189.989348 191.575816 
L 190.192325 191.054792 
L 190.293813 191.183179 
L 190.395301 191.072606 
L 190.49679 191.383951 
L 190.598278 191.115607 
L 190.801255 191.803617 
L 190.902743 192.785566 
L 191.004232 191.576635 
L 191.10572 192.111276 
L 191.207208 191.139462 
L 191.308697 192.079639 
L 191.410185 191.549503 
L 191.511674 192.470842 
L 191.613162 191.409854 
L 191.816139 192.038482 
L 191.917627 193.390339 
L 192.120604 192.177517 
L 192.222092 192.111787 
L 192.323581 192.38392 
L 192.425069 192.303754 
L 192.526557 192.764168 
L 192.628046 191.728058 
L 192.831022 193.093123 
L 192.932511 192.815052 
L 193.033999 193.097218 
L 193.236976 192.266692 
L 193.338464 192.512307 
L 193.439953 193.065684 
L 193.642929 192.576501 
L 193.845906 193.299628 
L 193.947395 193.757584 
L 194.048883 193.122813 
L 194.150371 193.5305 
L 194.353348 192.661376 
L 194.556325 193.440096 
L 194.657813 192.393749 
L 194.962278 194.751615 
L 195.063767 193.399451 
L 195.165255 193.928665 
L 195.266743 192.758127 
L 195.46972 193.370579 
L 195.672697 193.326862 
L 195.774185 194.087153 
L 195.875674 193.425046 
L 195.977162 194.56446 
L 196.180139 193.70455 
L 196.383116 193.304133 
L 196.586092 193.610256 
L 196.789069 193.79137 
L 196.890557 193.384708 
L 196.992046 195.270796 
L 197.093534 193.630732 
L 197.195023 194.034733 
L 197.296511 193.514938 
L 197.397999 193.811335 
L 197.600976 193.614658 
L 197.905441 194.082546 
L 198.00693 194.469449 
L 198.108418 194.401467 
L 198.311395 193.736698 
L 198.514371 194.128823 
L 198.61586 193.572886 
L 198.818837 194.197112 
L 198.920325 194.080498 
L 199.021813 195.196978 
L 199.123302 193.734651 
L 199.22479 194.861369 
L 199.326278 193.679364 
L 199.427767 194.171516 
L 199.630744 193.763215 
L 199.732232 194.298265 
L 199.83372 194.254343 
L 199.935209 194.372697 
L 200.036697 194.919624 
L 200.138185 194.411091 
L 200.239674 194.7424 
L 200.341162 193.9001 
L 200.544139 194.12268 
L 200.747116 194.15964 
L 200.950092 194.663463 
L 201.051581 195.688618 
L 201.153069 194.273796 
L 201.254558 194.681585 
L 201.356046 193.66114 
L 201.457534 194.807925 
L 201.559023 194.075379 
L 201.761999 194.403412 
L 201.863488 194.853178 
L 201.964976 194.61176 
L 202.066465 195.466448 
L 202.269441 194.244208 
L 202.37093 194.659778 
L 202.472418 194.493713 
L 202.573906 194.867716 
L 202.776883 194.156056 
L 202.878372 195.081184 
L 202.97986 195.062243 
L 203.182837 195.181313 
L 203.284325 194.231 
L 203.385813 194.293454 
L 203.487302 195.203735 
L 203.791767 194.395324 
L 204.096232 195.379321 
L 204.299209 194.632851 
L 204.400697 195.17384 
L 204.806651 194.27441 
L 205.009627 195.85632 
L 205.111116 195.474025 
L 205.212604 195.414336 
L 205.314093 194.563129 
L 205.517069 195.122444 
L 205.618558 195.321782 
L 205.720046 194.447437 
L 205.821534 194.503747 
L 205.923023 195.038183 
L 206.024511 196.436317 
L 206.227488 194.747519 
L 206.328976 195.117734 
L 206.531953 195.069717 
L 206.633441 195.433891 
L 206.73493 194.855942 
L 206.836418 195.003987 
L 207.039395 196.094155 
L 207.34386 194.920341 
L 207.648325 195.740321 
L 207.749814 194.622818 
L 207.851302 195.613879 
L 207.95279 195.175375 
L 208.054279 196.379392 
L 208.155767 195.392631 
L 208.257255 195.986551 
L 208.460232 195.019856 
L 208.663209 195.992284 
L 208.764697 194.946141 
L 208.866186 195.034088 
L 208.967674 195.536785 
L 209.069162 197.213092 
L 209.170651 195.413005 
L 209.272139 195.733257 
L 209.373628 195.258715 
L 209.576604 195.710733 
L 209.678093 196.491194 
L 209.779581 194.639711 
L 209.881069 195.679097 
L 209.982558 195.51334 
L 210.084046 197.359601 
L 210.185535 195.631591 
L 210.287023 196.0832 
L 210.388511 195.097769 
L 210.49 195.82448 
L 210.591488 195.700392 
L 210.692976 196.533989 
L 210.794465 194.698273 
L 210.895953 196.131115 
L 210.997442 196.083712 
L 211.09893 196.861818 
L 211.200418 195.912733 
L 211.301907 196.067023 
L 211.403395 195.71749 
L 211.504883 196.214147 
L 211.606372 195.69128 
L 211.70786 196.346937 
L 211.809349 196.301377 
L 212.012325 195.90485 
L 212.113814 196.058116 
L 212.215302 195.653603 
L 212.31679 196.899495 
L 212.418279 195.44976 
L 212.519767 196.075316 
L 212.621256 195.980715 
L 212.722744 197.355198 
L 212.824232 196.29421 
L 212.925721 196.462015 
L 213.027209 195.706126 
L 213.331674 197.247799 
L 213.433163 195.199435 
L 213.737628 197.371682 
L 213.839116 196.398538 
L 213.940604 196.89284 
L 214.042093 195.969043 
L 214.143581 196.339565 
L 214.24507 196.286634 
L 214.346558 197.43045 
L 214.448046 194.820211 
L 214.549535 197.039349 
L 214.651023 196.299739 
L 214.752511 197.922704 
L 215.056977 195.71708 
L 215.158465 196.977203 
L 215.259953 196.273119 
L 215.361442 196.828134 
L 215.46293 196.331682 
L 215.767395 197.479593 
L 215.868884 196.896525 
L 215.970372 197.286193 
L 216.07186 196.225614 
L 216.274837 196.787591 
L 216.376325 196.9599 
L 216.477814 196.563271 
L 216.782279 197.95905 
L 216.985256 196.589276 
L 217.086744 197.520239 
L 217.188232 196.849839 
L 217.289721 197.265204 
L 217.492698 196.556411 
L 217.594186 196.863968 
L 217.695674 197.755923 
L 217.898651 197.070883 
L 218.101628 197.652722 
L 218.203116 196.713056 
L 218.304605 197.055525 
L 218.406093 197.789095 
L 218.507581 197.312403 
L 218.60907 197.399735 
L 218.710558 197.688658 
L 218.812046 197.377927 
L 218.913535 196.514946 
L 219.218 198.12194 
L 219.319488 197.281586 
L 219.522465 197.450414 
L 219.623953 197.459628 
L 219.725442 197.667362 
L 219.928419 196.943928 
L 220.131395 198.051091 
L 220.232884 198.360593 
L 220.43586 197.396766 
L 220.638837 197.551465 
L 220.740326 198.079759 
L 220.841814 196.505937 
L 221.146279 199.332202 
L 221.247767 197.417959 
L 221.349256 198.109449 
L 221.450744 197.248618 
L 221.552233 197.473143 
L 221.755209 198.160538 
L 221.856698 197.424102 
L 221.958186 197.655486 
L 222.059674 197.547165 
L 222.161163 199.025055 
L 222.465628 197.425228 
L 222.668605 198.312371 
L 222.770093 198.424173 
L 222.871581 197.577778 
L 223.074558 198.487548 
L 223.176047 196.966453 
L 223.277535 198.107709 
L 223.379023 197.73473 
L 223.480512 199.628087 
L 223.582 197.93284 
L 223.683488 198.468812 
L 223.987954 197.899258 
L 224.089442 198.903527 
L 224.19093 197.444988 
L 224.292419 198.340936 
L 224.393907 198.067473 
L 224.495395 199.655935 
L 224.596884 198.53536 
L 224.698372 198.600987 
L 224.799861 197.557916 
L 224.901349 198.914584 
L 225.002837 198.150505 
L 225.104326 198.38496 
L 225.205814 198.193403 
L 225.510279 199.443389 
L 225.611768 198.52205 
L 225.713256 198.571399 
L 225.814744 198.396632 
L 225.916233 199.209036 
L 226.017721 199.048091 
L 226.220698 198.302133 
L 226.423675 198.982362 
L 226.626651 198.146409 
L 226.829628 200.001681 
L 226.931116 198.95349 
L 227.032605 199.059763 
L 227.134093 198.725689 
L 227.438558 199.553962 
L 227.540047 197.522287 
L 227.641535 199.522531 
L 227.743023 198.651257 
L 227.844512 200.52035 
L 227.946 199.073891 
L 228.047489 199.492635 
L 228.148977 198.783125 
L 228.351954 199.064779 
L 228.453442 199.146583 
L 228.55493 199.073584 
L 228.859396 200.189552 
L 228.960884 199.050651 
L 229.366837 199.603413 
L 229.468326 199.529186 
L 229.569814 198.999152 
L 229.772791 200.426158 
L 229.874279 199.849745 
L 229.975768 199.992876 
L 230.178744 199.416053 
L 230.381721 200.34118 
L 230.48321 198.821314 
L 230.787675 200.820125 
L 230.889163 200.075089 
L 230.990651 200.185559 
L 231.09214 199.58693 
L 231.193628 200.257944 
L 231.295117 199.695148 
L 231.396605 200.593041 
L 231.498093 199.056896 
L 231.802558 201.451824 
L 231.904047 200.336061 
L 232.005535 200.37855 
L 232.107024 199.580889 
L 232.208512 200.190678 
L 232.31 200.135187 
L 232.411489 200.022669 
L 232.614465 200.682933 
L 232.715954 200.401791 
L 232.817442 201.210202 
L 233.020419 200.155868 
L 233.223396 200.573077 
L 233.324884 200.667268 
L 233.527861 199.718388 
L 233.730838 201.220543 
L 234.035303 200.445099 
L 234.136791 200.614644 
L 234.238279 200.392474 
L 234.339768 201.043933 
L 234.441256 199.820259 
L 234.644233 200.688871 
L 234.745721 202.455786 
L 234.84721 200.661433 
L 234.948698 200.921074 
L 235.050186 200.159145 
L 235.354652 201.539361 
L 235.45614 199.792411 
L 235.659117 201.010556 
L 235.760605 201.829001 
L 235.862093 200.888517 
L 235.963582 201.108434 
L 236.06507 200.260298 
L 236.268047 200.975951 
L 236.471024 200.307087 
L 236.572512 201.154506 
L 236.674 201.113655 
L 236.775489 201.439436 
L 236.876977 200.911246 
L 236.978466 201.041885 
L 237.181442 200.682933 
L 237.282931 201.011068 
L 237.485907 200.331045 
L 237.587396 200.39145 
L 237.688884 202.000696 
L 237.891861 200.635427 
L 237.993349 200.995199 
L 238.094838 200.460456 
L 238.196326 200.568981 
L 238.297814 200.945441 
L 238.399303 200.033726 
L 238.60228 200.560995 
L 238.703768 202.012061 
L 238.805256 200.760027 
L 238.906745 201.155837 
L 239.008233 199.913939 
L 239.21121 200.62007 
L 239.414187 200.137951 
L 239.617163 201.02489 
L 239.718652 200.921484 
L 239.921628 200.286099 
L 240.124605 200.365957 
L 240.226094 200.580755 
L 240.530559 199.620716 
L 240.632047 201.368178 
L 240.733535 200.443256 
L 240.936512 200.508269 
L 241.038001 199.748079 
L 241.139489 199.980692 
L 241.240977 200.932746 
L 241.342466 199.44984 
L 241.545442 199.948339 
L 241.646931 201.613998 
L 241.849908 200.221905 
L 241.951396 199.505433 
L 242.052884 199.915065 
L 242.154373 199.516183 
L 242.255861 200.164366 
L 242.357349 199.610375 
L 242.560326 200.507552 
L 242.661815 199.807768 
L 242.864791 200.135699 
L 242.96628 199.13143 
L 243.067768 199.903291 
L 243.169256 199.873703 
L 243.270745 199.853943 
L 243.372233 199.182826 
L 243.57521 200.209721 
L 243.676698 200.13703 
L 243.778187 199.3751 
L 243.879675 199.925098 
L 243.981163 199.412265 
L 244.18414 199.899708 
L 244.285629 198.41373 
L 244.590094 200.685083 
L 244.79307 199.351348 
L 244.894559 198.84906 
L 245.199024 200.186685 
L 245.300512 198.434206 
L 245.402001 199.469804 
L 245.503489 198.812202 
L 245.604977 200.306063 
L 245.706466 199.194293 
L 245.807954 199.458542 
L 245.909443 198.87097 
L 246.112419 199.485673 
L 246.315396 198.705315 
L 246.619861 199.747567 
L 246.72135 199.519664 
L 246.924326 198.581023 
L 247.025815 199.357081 
L 247.228791 198.659959 
L 247.533257 199.33599 
L 247.634745 199.717877 
L 247.93921 198.501472 
L 248.040698 199.158664 
L 248.142187 198.684634 
L 248.345164 198.93332 
L 248.446652 198.826638 
L 248.649629 199.479326 
L 248.852605 198.788654 
L 248.954094 198.67716 
L 249.157071 199.161224 
L 249.258559 198.316364 
L 249.461536 198.797152 
L 249.563024 199.69136 
L 249.664512 198.912127 
L 249.766001 199.12928 
L 249.867489 198.6703 
L 249.968978 198.909977 
L 250.070466 198.770942 
L 250.171954 198.192277 
L 250.476419 199.337526 
L 250.577908 199.728934 
L 250.679396 198.552356 
L 250.780885 198.762342 
L 250.983861 198.687193 
L 251.08535 198.807697 
L 251.186838 198.540991 
L 251.288326 198.608461 
L 251.389815 198.145386 
L 251.491303 199.80654 
L 251.795768 198.324657 
L 251.897257 198.907622 
L 251.998745 198.658833 
L 252.100233 199.27538 
L 252.201722 197.991812 
L 252.30321 198.71801 
L 252.404699 198.221661 
L 252.506187 199.98663 
L 252.709164 198.771659 
L 252.810652 198.251044 
L 252.91214 198.512222 
L 253.013629 199.373462 
L 253.115117 197.740361 
L 253.318094 199.110135 
L 253.521071 199.225417 
L 253.622559 199.093344 
L 253.724047 198.217258 
L 253.825536 198.391615 
L 254.028513 199.3192 
L 254.130001 198.044334 
L 254.231489 198.639381 
L 254.332978 198.310631 
L 254.434466 199.93206 
L 254.637443 198.833293 
L 254.84042 198.525429 
L 254.941908 198.573958 
L 255.043396 199.242106 
L 255.144885 197.922704 
L 255.246373 198.853769 
L 255.347861 198.652281 
L 255.44935 199.698322 
L 255.753815 197.930895 
L 255.855303 199.050343 
L 255.956792 198.955537 
L 256.05828 198.346772 
L 256.159768 198.449768 
L 256.362745 199.12498 
L 256.464234 199.370391 
L 256.565722 199.141976 
L 256.66721 198.229134 
L 256.768699 198.895746 
L 256.870187 198.776266 
L 256.971675 198.963523 
L 257.073164 198.203027 
L 257.174652 198.540582 
L 257.276141 198.298243 
L 257.377629 200.708324 
L 257.580606 198.671426 
L 257.783582 198.668867 
L 257.986559 199.035805 
L 258.189536 198.432875 
L 258.291024 199.34285 
L 258.392513 199.277018 
L 258.494001 198.725996 
L 258.595489 199.032324 
L 258.696978 198.698148 
L 258.798466 199.093549 
L 259.001443 198.789678 
L 259.102931 198.296297 
L 259.305908 199.749513 
L 259.508885 198.93629 
L 259.610373 198.87097 
L 259.711862 198.99649 
L 259.81335 198.348615 
L 259.914838 199.46233 
L 260.117815 198.472907 
L 260.219303 198.844453 
L 260.320792 200.138054 
L 260.42228 198.905984 
L 260.523769 199.447178 
L 260.625257 198.388237 
L 260.726745 199.277018 
L 260.828234 199.174226 
L 260.929722 198.737156 
L 261.132699 198.850084 
L 261.335676 199.804185 
L 261.741629 198.773706 
L 261.843117 199.350631 
L 261.944606 198.330186 
L 262.046094 199.27927 
L 262.147583 199.043996 
L 262.249071 199.784937 
L 262.553536 198.633647 
L 262.655024 198.931785 
L 262.756513 199.652045 
L 262.858001 198.444649 
L 263.060978 199.267496 
L 263.162466 199.581913 
L 263.263955 199.422708 
L 263.365443 199.532872 
L 263.56842 199.028741 
L 263.669908 199.196853 
L 263.771397 199.658495 
L 263.872885 198.439837 
L 264.17735 200.649556 
L 264.278838 199.236782 
L 264.380327 199.489461 
L 264.481815 198.956766 
L 264.78628 199.414006 
L 264.887769 198.752616 
L 264.989257 199.694841 
L 265.090745 199.25132 
L 265.192234 200.124539 
L 265.395211 199.023315 
L 265.496699 198.964957 
L 265.699676 200.037924 
L 265.801164 198.800838 
L 266.004141 199.299849 
L 266.105629 199.945473 
L 266.207118 199.920389 
L 266.308606 199.882712 
L 266.410094 198.803295 
L 266.714559 200.00895 
L 266.816048 197.962838 
L 267.019025 199.912198 
L 267.120513 200.219243 
L 267.222001 199.02096 
L 267.32349 200.085429 
L 267.424978 199.069079 
L 267.627955 199.482602 
L 267.830932 198.745346 
L 267.93242 201.026119 
L 268.033908 198.995467 
L 268.135397 199.545874 
L 268.338373 198.806469 
L 268.54135 199.471647 
L 268.642839 199.215281 
L 268.744327 200.603484 
L 268.947304 199.137983 
L 269.048792 199.316231 
L 269.15028 198.959018 
L 269.251769 199.950899 
L 269.454746 198.919908 
L 269.556234 199.208831 
L 269.657722 200.207879 
L 269.759211 199.325035 
L 269.860699 199.793537 
L 269.962187 199.000688 
L 270.165164 199.481373 
L 270.266653 198.720672 
L 270.368141 199.36865 
L 270.469629 199.049524 
L 270.571118 199.450249 
L 270.672606 200.41551 
L 270.875583 199.139826 
L 270.977071 198.823976 
L 271.180048 199.627166 
L 271.281536 198.849572 
L 271.383025 199.005807 
L 271.586001 200.208698 
L 271.68749 199.355648 
L 271.788978 199.371107 
L 271.890467 198.634671 
L 271.991955 199.525705 
L 272.093443 199.411344 
L 272.194932 198.25217 
L 272.29642 200.853911 
L 272.397908 199.049524 
L 272.499397 199.633002 
L 272.600885 198.850084 
L 272.702374 199.513931 
L 273.006839 198.768178 
L 273.209815 199.706103 
L 273.615769 199.250501 
L 273.717257 198.952364 
L 273.818746 199.671907 
L 273.920234 198.495636 
L 274.224699 200.158121 
L 274.529164 198.66129 
L 274.630653 199.49929 
L 274.935118 199.041334 
L 275.036606 199.069182 
L 275.239583 200.286918 
L 275.44256 199.180881 
L 275.544048 198.865134 
L 275.747025 199.490997 
L 275.848513 198.446799 
L 276.152978 200.455644 
L 276.254467 198.989631 
L 276.355955 199.400389 
L 276.457443 198.705622 
L 276.558932 199.498983 
L 276.66042 199.39916 
L 276.964885 198.779133 
L 277.066374 199.984685 
L 277.26935 199.04287 
L 277.573816 199.886603 
L 277.675304 198.943456 
L 277.878281 199.288075 
L 277.979769 199.09877 
L 278.081257 199.757601 
L 278.182746 198.414651 
L 278.487211 200.483697 
L 278.690188 199.306811 
L 278.791676 199.015738 
L 278.893164 199.285721 
L 278.994653 198.913765 
L 279.19763 199.339267 
L 279.299118 198.944173 
L 279.502095 199.989907 
L 279.705071 199.0012 
L 279.80656 198.96424 
L 280.009537 199.779306 
L 280.111025 198.4597 
L 280.41549 200.342614 
L 280.618467 199.203508 
L 280.719955 199.097235 
L 280.821444 199.5255 
L 281.02442 198.850698 
L 281.125909 198.973557 
L 281.328885 200.111742 
L 281.531862 199.211084 
L 281.633351 199.056077 
L 281.734839 199.694021 
L 281.937816 198.859912 
L 282.039304 199.109316 
L 282.242281 199.487926 
L 282.343769 200.249958 
L 282.445258 199.105323 
L 282.546746 199.167878 
L 282.648234 199.539936 
L 282.749723 199.26637 
L 282.851211 199.753813 
L 282.952699 198.330493 
L 283.054188 199.338038 
L 283.155676 199.140338 
L 283.257165 200.263882 
L 283.358653 199.341724 
L 283.460141 199.950899 
L 283.56163 198.83831 
L 283.764606 199.542188 
L 283.967583 198.87486 
L 284.17056 200.076624 
L 284.272048 199.520381 
L 284.373537 199.633616 
L 284.475025 198.8465 
L 284.678002 199.507583 
L 284.77949 199.954482 
L 284.880979 198.176408 
L 285.185444 200.046934 
L 285.489909 199.169926 
L 285.591397 199.121192 
L 285.692886 199.757191 
L 285.794374 198.707158 
L 285.895862 198.903425 
L 286.098839 200.612494 
L 286.200327 199.019014 
L 286.301816 199.774904 
L 286.403304 198.427347 
L 286.606281 199.522531 
L 286.707769 198.83831 
L 286.910746 199.591946 
L 287.012234 199.537684 
L 287.113723 199.715419 
L 287.215211 199.609146 
L 287.418188 199.065906 
L 287.519676 199.023417 
L 287.621165 200.125154 
L 287.722653 198.125831 
L 287.824141 199.364657 
L 287.92563 198.894313 
L 288.027118 200.796987 
L 288.128607 199.239648 
L 288.230095 199.717262 
L 288.331583 198.726098 
L 288.53456 199.659928 
L 288.737537 198.678593 
L 288.940514 200.190371 
L 289.14349 199.276813 
L 289.244979 199.218148 
L 289.346467 199.388103 
L 289.447955 199.040617 
L 289.549444 199.446256 
L 289.650932 198.629859 
L 289.853909 199.785756 
L 289.955397 199.787394 
L 290.158374 198.972738 
L 290.361351 199.507174 
L 290.462839 199.407658 
L 290.564328 198.614297 
L 290.665816 199.200538 
L 290.767304 199.109111 
L 290.868793 200.213817 
L 291.173258 198.985126 
L 291.274746 199.024953 
L 291.376235 199.247122 
L 291.579211 199.080239 
L 291.6807 199.082184 
L 291.782188 200.195081 
L 291.985165 199.341212 
L 292.086653 198.910899 
L 292.28963 199.309268 
L 292.391118 199.414722 
L 292.492607 198.646855 
L 292.695583 199.248965 
L 292.797072 200.058298 
L 292.89856 199.268111 
L 293.000049 199.471545 
L 293.101537 198.935163 
L 293.304514 199.289202 
L 293.406002 198.639483 
L 293.50749 199.245177 
L 293.608979 199.092115 
L 293.710467 200.061574 
L 293.811956 199.156002 
L 293.913444 199.367115 
L 294.014932 198.540479 
L 294.116421 199.66474 
L 294.319397 199.01021 
L 294.420886 198.756097 
L 294.522374 198.80053 
L 294.623862 200.205217 
L 294.725351 199.965232 
L 294.826839 198.985945 
L 294.928328 198.997207 
L 295.029816 198.790292 
L 295.232793 199.333226 
L 295.334281 198.102795 
L 295.537258 199.476868 
L 295.638746 199.916703 
L 295.841723 198.856226 
L 295.943211 199.414006 
L 296.146188 199.027512 
L 296.247676 198.398475 
L 296.349165 199.077372 
L 296.450653 198.802271 
L 296.552142 200.558845 
L 296.65363 199.060172 
L 296.755118 199.076041 
L 296.856607 199.077577 
L 296.958095 198.837491 
L 297.059583 199.200129 
L 297.161072 198.524303 
L 297.26256 198.84261 
L 297.364049 198.770737 
L 297.465537 200.092494 
L 297.668514 199.221527 
L 297.87149 198.714939 
L 298.074467 198.956561 
L 298.175956 198.92902 
L 298.277444 198.780464 
L 298.378932 199.643035 
L 298.480421 199.399877 
L 298.581909 198.797254 
L 298.683397 199.300259 
L 298.886374 198.659857 
L 298.987863 199.268418 
L 299.089351 197.773123 
L 299.190839 199.239239 
L 299.292328 199.008162 
L 299.393816 199.955404 
L 299.596793 198.782306 
L 299.698281 198.716475 
L 299.79977 198.864622 
L 299.901258 199.687981 
L 300.002746 198.093887 
L 300.104235 198.319538 
L 300.307211 200.200712 
L 300.4087 198.73603 
L 300.510188 199.106347 
L 300.611677 198.578975 
L 300.713165 198.991986 
L 300.916142 198.658731 
L 301.01763 197.966524 
L 301.220607 199.907693 
L 301.423584 198.791828 
L 301.525072 198.464204 
L 301.728049 198.841074 
L 301.829537 198.544779 
L 301.931025 198.760601 
L 302.032514 198.542732 
L 302.134002 199.406429 
L 302.235491 198.807083 
L 302.336979 199.495195 
L 302.539956 198.412092 
L 302.742932 198.977652 
L 302.844421 197.789505 
L 303.148886 199.520893 
L 303.351863 198.456628 
L 303.453351 198.927792 
L 303.554839 198.69436 
L 303.656328 199.077372 
L 303.757816 197.771792 
L 303.960793 198.396734 
L 304.062281 200.233474 
L 304.16377 198.713403 
L 304.265258 198.985024 
L 304.366746 197.912056 
L 304.569723 198.722617 
L 304.671212 198.358341 
L 304.7727 198.394072 
L 304.874188 198.482838 
L 304.975677 199.688698 
L 305.178653 198.421101 
L 305.280142 198.705212 
L 305.686095 198.217156 
L 305.787584 198.210603 
L 305.889072 199.457825 
L 306.193537 198.236813 
L 306.295026 198.342881 
L 306.396514 198.36602 
L 306.498002 198.84046 
L 306.599491 197.891375 
L 306.700979 198.723846 
L 307.005444 197.987922 
L 307.106933 198.654636 
L 307.208421 198.560239 
L 307.309909 199.179345 
L 307.512886 198.203334 
L 307.614374 198.345543 
L 307.715863 198.274183 
L 307.817351 199.209855 
L 307.91884 197.490138 
L 308.020328 198.262921 
L 308.121816 198.14856 
L 308.223305 199.63638 
L 308.426281 198.124295 
L 308.730747 198.762239 
L 308.832235 197.553104 
L 309.1367 199.451682 
L 309.238188 197.861172 
L 309.339677 198.697841 
L 309.441165 198.005736 
L 309.644142 198.341755 
L 309.74563 197.630095 
L 309.948607 198.212344 
L 310.050095 199.461409 
L 310.253072 198.031844 
L 310.354561 197.959152 
L 310.659026 198.199955 
L 310.760514 197.764626 
L 310.862002 197.800664 
L 310.963491 199.39957 
L 311.064979 198.168319 
L 311.166468 198.309505 
L 311.267956 198.249304 
L 311.572421 197.608492 
L 311.673909 197.735344 
L 311.876886 198.961885 
L 312.079863 198.248792 
L 312.181351 197.786638 
L 312.384328 198.033379 
L 312.587305 197.85032 
L 312.688793 197.832915 
L 312.790282 198.529831 
L 312.993258 198.375951 
L 313.196235 197.599176 
L 313.399212 198.28954 
L 313.5007 197.19108 
L 313.703677 198.234151 
L 313.805165 198.271214 
L 313.906654 197.814691 
L 314.008142 198.204153 
L 314.10963 197.671048 
L 314.312607 198.155726 
L 314.414096 197.119719 
L 314.515584 197.389189 
L 314.718561 198.87957 
L 314.921537 197.400656 
L 315.023026 197.961712 
L 315.124514 197.848784 
L 315.226003 198.110985 
L 315.327491 197.04283 
L 315.631956 198.634876 
L 315.834933 197.731351 
L 315.936421 197.751828 
L 316.03791 197.531091 
L 316.139398 197.929154 
L 316.240886 197.163948 
L 316.342375 197.637671 
L 316.443863 197.545527 
L 316.545351 198.939156 
L 316.64684 197.794828 
L 316.748328 197.91052 
L 316.951305 197.236025 
L 317.052793 198.538636 
L 317.154282 197.030851 
L 317.25577 197.19067 
L 317.357258 197.661936 
L 317.458747 198.806264 
L 317.560235 197.720192 
L 317.661724 197.951678 
L 317.763212 196.71193 
L 317.8647 197.690398 
L 317.966189 197.60665 
L 318.169165 197.343732 
L 318.270654 197.517475 
L 318.372142 198.684736 
L 318.473631 197.706165 
L 318.575119 197.782747 
L 318.676607 197.202649 
L 318.778096 197.252611 
L 318.879584 197.748756 
L 318.981072 197.325712 
L 319.082561 197.362672 
L 319.184049 197.151355 
L 319.285538 199.079727 
L 319.387026 197.463212 
L 319.488514 197.898849 
L 319.590003 197.069961 
L 319.894468 197.654053 
L 320.097445 196.931438 
L 320.198933 198.976219 
L 320.300421 197.38448 
L 320.40191 197.692344 
L 320.604886 196.968295 
L 320.706375 197.656305 
L 320.807863 197.588426 
L 320.909352 196.737014 
L 321.112328 198.544165 
L 321.315305 197.396868 
L 321.518282 197.600916 
L 321.61977 197.766366 
L 321.721259 196.908197 
L 321.822747 197.19323 
L 321.924235 197.811619 
L 322.025724 197.620778 
L 322.127212 196.509725 
L 322.2287 197.465055 
L 322.330189 197.320388 
L 322.431677 198.292509 
L 322.634654 197.008941 
L 322.939119 197.389497 
L 323.040607 196.858951 
L 323.142096 197.328681 
L 323.243584 197.115521 
L 323.345073 198.530855 
L 323.548049 197.024503 
L 323.649538 197.598152 
L 323.751026 197.576856 
L 323.954003 196.557128 
L 324.258468 198.408611 
L 324.461445 197.008532 
L 324.562933 196.907071 
L 324.664421 197.535289 
L 324.76591 197.490036 
L 324.968887 197.393387 
L 325.171863 196.881475 
L 325.37484 197.709953 
L 325.476328 195.980613 
L 325.679305 197.241554 
L 325.780794 197.919837 
L 326.085259 196.861715 
L 326.186747 197.055628 
L 326.288235 197.689682 
L 326.389724 196.279569 
L 326.491212 197.221692 
L 326.592701 196.814005 
L 326.694189 198.065015 
L 326.897166 196.539416 
L 326.998654 197.449697 
L 327.100142 197.010375 
L 327.201631 197.304826 
L 327.303119 196.016754 
L 327.404608 197.469662 
L 327.506096 196.717459 
L 327.607584 198.028465 
L 327.810561 196.077671 
L 327.912049 198.135045 
L 328.013538 197.028087 
L 328.115026 197.38233 
L 328.216515 195.930445 
L 328.419491 197.295817 
L 328.52098 196.374785 
L 328.825445 197.852777 
L 328.926933 197.129343 
L 329.028422 197.485019 
L 329.12991 196.352875 
L 329.231398 196.696266 
L 329.332887 197.853493 
L 329.434375 196.139203 
L 329.637352 197.168043 
L 329.73884 198.075868 
L 329.840329 196.737423 
L 330.043305 197.341274 
L 330.144794 196.766193 
L 330.246282 197.422361 
L 330.449259 196.132548 
L 330.652236 198.069111 
L 330.753724 196.799467 
L 330.855212 197.361137 
L 331.058189 196.767524 
L 331.159677 196.898573 
L 331.362654 196.635143 
L 331.464143 196.704866 
L 331.565631 198.341755 
L 331.768608 196.919664 
L 331.870096 196.776943 
L 332.073073 196.964917 
L 332.174561 196.263802 
L 332.27605 197.063921 
L 332.377538 196.688075 
L 332.479026 198.223094 
L 332.682003 196.562042 
L 332.783491 196.578423 
L 332.88498 197.335951 
L 332.986468 197.023377 
L 333.087957 196.050028 
L 333.189445 196.961948 
L 333.290933 196.862637 
L 333.392422 198.111702 
L 333.595398 196.731485 
L 333.696887 196.409288 
L 333.899864 197.305338 
L 334.001352 196.000168 
L 334.305817 197.842743 
L 334.508794 196.630331 
L 334.711771 196.797419 
L 334.813259 197.354687 
L 334.914747 195.908536 
L 335.219212 197.94533 
L 335.320701 196.654903 
L 335.422189 196.879837 
L 335.523678 196.731587 
L 335.625166 197.17306 
L 335.726654 197.105078 
L 335.828143 195.948772 
L 335.929631 196.947205 
L 336.031119 196.692682 
L 336.132608 197.86967 
L 336.335585 195.671725 
L 336.437073 197.450721 
L 336.538561 197.416526 
L 336.64005 196.662377 
L 336.741538 196.937478 
L 336.944515 196.306189 
L 337.046003 197.499046 
L 337.147492 196.323696 
L 337.24898 196.629819 
L 337.350468 197.511639 
L 337.451957 197.329705 
L 337.553445 196.573202 
L 337.654933 196.631765 
L 337.756422 196.623267 
L 337.85791 196.421778 
L 337.959399 197.062078 
L 338.060887 196.503991 
L 338.263864 197.078766 
L 338.365352 197.52802 
L 338.568329 196.238821 
L 338.771306 196.695651 
L 338.872794 196.236159 
L 339.177259 197.114293 
L 339.278747 196.724625 
L 339.380236 197.17521 
L 339.481724 195.778408 
L 339.684701 196.645279 
L 339.786189 196.077569 
L 339.887678 196.13777 
L 340.090654 196.769571 
L 340.293631 196.812162 
L 340.39512 195.866354 
L 340.496608 196.031292 
L 340.598096 196.43601 
L 340.699585 196.380211 
L 340.801073 195.943038 
L 340.902561 196.042349 
L 341.00405 197.13866 
L 341.410003 195.703873 
L 341.511492 196.398026 
L 341.61298 196.360349 
L 341.714468 195.44116 
L 341.815957 195.875978 
L 341.917445 197.557506 
L 342.120422 195.816084 
L 342.22191 195.783117 
L 342.323399 196.030268 
L 342.627864 195.486208 
L 342.729352 195.941298 
L 342.830841 197.294281 
L 342.932329 195.872702 
L 343.033817 196.172682 
L 343.135306 195.106165 
L 343.338282 196.060369 
L 343.439771 195.333556 
L 343.541259 195.45406 
L 343.744236 196.503889 
L 343.845724 195.492351 
L 343.947213 196.368335 
L 344.048701 195.054359 
L 344.150189 195.144251 
L 344.251678 196.483617 
L 344.353166 194.851847 
L 344.454655 195.517128 
L 344.556143 195.440853 
L 344.657631 196.941778 
L 344.75912 195.179061 
L 344.962096 195.508528 
L 345.063585 195.435836 
L 345.165073 195.819668 
L 345.266562 194.876726 
L 345.469538 195.2538 
L 345.571027 196.464574 
L 345.774003 195.055997 
L 345.875492 195.311953 
L 345.97698 195.219195 
L 346.078469 195.494501 
L 346.179957 194.555245 
L 346.484422 196.119546 
L 346.687399 194.65302 
L 346.788887 194.672166 
L 346.991864 195.528595 
L 347.093352 193.991835 
L 347.296329 195.314615 
L 347.397817 195.362735 
L 347.600794 194.670425 
L 347.702283 194.770043 
L 347.803771 194.309732 
L 348.108236 194.652713 
L 348.209724 194.742605 
L 348.311213 195.023235 
L 348.51419 194.201514 
L 348.615678 194.357443 
L 348.818655 194.009035 
L 348.920143 194.263865 
L 349.021631 194.165066 
L 349.12312 194.87949 
L 349.427585 193.435796 
L 349.529073 194.113056 
L 349.630562 193.572682 
L 349.73205 194.312394 
L 349.935027 193.341605 
L 350.036515 195.125003 
L 350.138004 193.771508 
L 350.239492 193.999923 
L 350.34098 193.141242 
L 350.543957 194.033812 
L 350.746934 192.922349 
L 350.949911 194.412319 
L 351.051399 193.467637 
L 351.152887 193.752056 
L 351.254376 192.351772 
L 351.355864 193.644452 
L 351.457352 193.282939 
L 351.558841 192.360679 
L 351.660329 193.311709 
L 351.761818 193.126294 
L 351.863306 194.066062 
L 352.066283 192.65769 
L 352.167771 192.869417 
L 352.269259 192.774816 
L 352.370748 192.906889 
L 352.472236 192.193796 
L 352.573725 192.446373 
L 352.776701 193.263692 
L 352.979678 192.109842 
L 353.284143 192.817407 
L 353.385632 191.747716 
L 353.48712 192.361396 
L 353.588608 192.248877 
L 353.690097 193.136635 
L 353.791585 192.112607 
L 353.893073 192.126838 
L 354.09605 191.822557 
L 354.299027 192.008074 
L 354.400515 191.890744 
L 354.603492 192.386684 
L 354.806469 191.459817 
L 354.907957 191.739525 
L 355.110934 191.21932 
L 355.212422 191.779761 
L 355.313911 191.148779 
L 355.415399 192.411051 
L 355.516887 191.542234 
L 355.618376 191.804231 
L 355.719864 190.861596 
L 355.821353 191.446916 
L 356.125818 190.832929 
L 356.227306 190.935824 
L 356.328794 192.195639 
L 356.430283 190.752252 
L 356.531771 191.574894 
L 356.734748 190.77539 
L 356.836236 191.233859 
L 356.937725 190.089838 
L 357.039213 190.645365 
L 357.140701 190.56479 
L 357.24219 191.987188 
L 357.445167 190.350811 
L 357.546655 190.802624 
L 357.648143 190.430874 
L 357.749632 190.872449 
L 357.85112 189.937595 
L 358.155585 190.861084 
L 358.358562 190.129972 
L 358.46005 190.006089 
L 358.561539 190.203482 
L 358.663027 190.66277 
L 358.764515 189.544242 
L 358.967492 190.248633 
L 359.068981 189.043388 
L 359.170469 190.187204 
L 359.271957 189.765081 
L 359.373446 190.838048 
L 359.576422 189.622258 
L 359.677911 189.849239 
L 359.779399 189.244262 
L 359.880888 189.938926 
L 359.982376 188.803199 
L 360.083864 189.816477 
L 360.185353 189.374595 
L 360.286841 190.17031 
L 360.591306 189.018304 
L 360.794283 189.295555 
L 360.895771 188.519599 
L 361.098748 190.11011 
L 361.301725 189.072157 
L 361.504702 188.616453 
L 361.60619 188.901998 
L 361.707678 188.386502 
L 361.809167 188.753748 
L 361.910655 188.334287 
L 362.012143 189.648263 
L 362.113632 188.563726 
L 362.21512 188.955544 
L 362.316609 188.178564 
L 362.519585 188.546116 
L 362.621074 188.055603 
L 362.82405 188.132492 
L 362.925539 189.150684 
L 363.230004 187.811932 
L 363.331492 187.83589 
L 363.432981 188.368585 
L 363.635957 187.957623 
L 363.737446 187.641978 
L 363.838934 187.95537 
L 363.940423 187.731767 
L 364.041911 188.173137 
L 364.143399 187.054405 
L 364.346376 188.225455 
L 364.447864 187.89906 
L 364.549353 188.010042 
L 364.650841 187.055429 
L 364.75233 187.699107 
L 364.853818 186.941785 
L 364.955306 187.320804 
L 365.056795 186.977618 
L 365.158283 187.168152 
L 365.259771 188.75385 
L 365.36126 186.990109 
L 365.462748 187.308006 
L 365.564237 186.669857 
L 365.767213 187.23552 
L 365.868702 185.995157 
L 365.97019 188.179383 
L 366.071678 186.369058 
L 366.173167 186.985809 
L 366.274655 186.400182 
L 366.376144 186.614059 
L 366.477632 186.367317 
L 366.57912 187.740162 
L 366.782097 186.24753 
L 366.985074 186.548432 
L 367.086562 187.2132 
L 367.188051 185.356905 
L 367.391027 186.574846 
L 367.492516 186.781044 
L 367.695492 186.105935 
L 367.796981 186.133066 
L 367.999958 185.676236 
L 368.202934 186.006726 
L 368.304423 186.529081 
L 368.405911 185.870046 
L 368.507399 186.396803 
L 368.710376 184.981981 
L 368.811865 186.393322 
L 368.913353 185.690467 
L 369.014841 184.160977 
L 369.11633 186.971271 
L 369.319306 184.664698 
L 369.420795 186.524372 
L 369.522283 184.688144 
L 369.623772 185.845577 
L 369.826748 184.65917 
L 369.928237 186.052594 
L 370.029725 183.944336 
L 370.131213 185.530751 
L 370.232702 185.362229 
L 370.33419 183.873692 
L 370.435679 186.594196 
L 370.537167 183.999827 
L 370.638655 185.388234 
L 370.740144 185.013925 
L 370.841632 183.363316 
L 370.94312 186.299642 
L 371.146097 183.958465 
L 371.247586 185.702548 
L 371.349074 183.679268 
L 371.450562 185.43789 
L 371.653539 182.85468 
L 371.755027 185.674905 
L 371.856516 183.7752 
L 371.958004 184.003718 
L 372.059493 184.577468 
L 372.160981 183.647632 
L 372.262469 185.204253 
L 372.363958 183.300555 
L 372.465446 183.703532 
L 372.566934 184.862808 
L 372.668423 182.41935 
L 372.769911 184.973893 
L 372.972888 182.818642 
L 373.074376 185.069416 
L 373.175865 183.254586 
L 373.277353 184.340863 
L 373.48033 182.200047 
L 373.581818 185.09624 
L 373.581818 185.09624 
" style="fill:none;stroke:#081d58;stroke-dasharray:5.55,2.4;stroke-dashoffset:0;stroke-width:1.5;"/>
    <defs>
     <path d="M -0 4.242641 
L 4.242641 0 
L 0 -4.242641 
L -4.242641 -0 
z
" id="mea359c4021" style="stroke:#081d58;stroke-linejoin:miter;"/>
    </defs>
    <g clip-path="url(#pb4872fac51)">
     <use style="fill:#081d58;stroke:#081d58;stroke-linejoin:miter;" x="69.218182" xlink:href="#mea359c4021" y="88.950384"/>
     <use style="fill:#081d58;stroke:#081d58;stroke-linejoin:miter;" x="77.337252" xlink:href="#mea359c4021" y="89.780398"/>
     <use style="fill:#081d58;stroke:#081d58;stroke-linejoin:miter;" x="85.456322" xlink:href="#mea359c4021" y="90.927081"/>
     <use style="fill:#081d58;stroke:#081d58;stroke-linejoin:miter;" x="93.575392" xlink:href="#mea359c4021" y="95.551386"/>
     <use style="fill:#081d58;stroke:#081d58;stroke-linejoin:miter;" x="101.694462" xlink:href="#mea359c4021" y="104.893368"/>
     <use style="fill:#081d58;stroke:#081d58;stroke-linejoin:miter;" x="109.813532" xlink:href="#mea359c4021" y="113.836264"/>
     <use style="fill:#081d58;stroke:#081d58;stroke-linejoin:miter;" x="117.932602" xlink:href="#mea359c4021" y="128.127"/>
     <use style="fill:#081d58;stroke:#081d58;stroke-linejoin:miter;" x="126.051672" xlink:href="#mea359c4021" y="143.17035"/>
     <use style="fill:#081d58;stroke:#081d58;stroke-linejoin:miter;" x="134.170742" xlink:href="#mea359c4021" y="153.775935"/>
     <use style="fill:#081d58;stroke:#081d58;stroke-linejoin:miter;" x="142.289812" xlink:href="#mea359c4021" y="174.481747"/>
     <use style="fill:#081d58;stroke:#081d58;stroke-linejoin:miter;" x="150.408882" xlink:href="#mea359c4021" y="205.020362"/>
     <use style="fill:#081d58;stroke:#081d58;stroke-linejoin:miter;" x="158.527952" xlink:href="#mea359c4021" y="226.761157"/>
     <use style="fill:#081d58;stroke:#081d58;stroke-linejoin:miter;" x="166.647022" xlink:href="#mea359c4021" y="238.829787"/>
     <use style="fill:#081d58;stroke:#081d58;stroke-linejoin:miter;" x="174.766092" xlink:href="#mea359c4021" y="216.396273"/>
     <use style="fill:#081d58;stroke:#081d58;stroke-linejoin:miter;" x="182.885162" xlink:href="#mea359c4021" y="196.008973"/>
     <use style="fill:#081d58;stroke:#081d58;stroke-linejoin:miter;" x="191.004232" xlink:href="#mea359c4021" y="191.576635"/>
     <use style="fill:#081d58;stroke:#081d58;stroke-linejoin:miter;" x="199.123302" xlink:href="#mea359c4021" y="193.734651"/>
     <use style="fill:#081d58;stroke:#081d58;stroke-linejoin:miter;" x="207.242372" xlink:href="#mea359c4021" y="195.470339"/>
     <use style="fill:#081d58;stroke:#081d58;stroke-linejoin:miter;" x="215.361442" xlink:href="#mea359c4021" y="196.828134"/>
     <use style="fill:#081d58;stroke:#081d58;stroke-linejoin:miter;" x="223.480512" xlink:href="#mea359c4021" y="199.628087"/>
     <use style="fill:#081d58;stroke:#081d58;stroke-linejoin:miter;" x="231.599582" xlink:href="#mea359c4021" y="199.946804"/>
     <use style="fill:#081d58;stroke:#081d58;stroke-linejoin:miter;" x="239.718652" xlink:href="#mea359c4021" y="200.921484"/>
     <use style="fill:#081d58;stroke:#081d58;stroke-linejoin:miter;" x="247.837722" xlink:href="#mea359c4021" y="199.07983"/>
     <use style="fill:#081d58;stroke:#081d58;stroke-linejoin:miter;" x="255.956792" xlink:href="#mea359c4021" y="198.955537"/>
     <use style="fill:#081d58;stroke:#081d58;stroke-linejoin:miter;" x="264.075862" xlink:href="#mea359c4021" y="199.20576"/>
     <use style="fill:#081d58;stroke:#081d58;stroke-linejoin:miter;" x="272.194932" xlink:href="#mea359c4021" y="198.25217"/>
     <use style="fill:#081d58;stroke:#081d58;stroke-linejoin:miter;" x="280.314002" xlink:href="#mea359c4021" y="199.492635"/>
     <use style="fill:#081d58;stroke:#081d58;stroke-linejoin:miter;" x="288.433072" xlink:href="#mea359c4021" y="199.331281"/>
     <use style="fill:#081d58;stroke:#081d58;stroke-linejoin:miter;" x="296.552142" xlink:href="#mea359c4021" y="200.558845"/>
     <use style="fill:#081d58;stroke:#081d58;stroke-linejoin:miter;" x="304.671212" xlink:href="#mea359c4021" y="198.358341"/>
     <use style="fill:#081d58;stroke:#081d58;stroke-linejoin:miter;" x="312.790282" xlink:href="#mea359c4021" y="198.529831"/>
     <use style="fill:#081d58;stroke:#081d58;stroke-linejoin:miter;" x="320.909352" xlink:href="#mea359c4021" y="196.737014"/>
     <use style="fill:#081d58;stroke:#081d58;stroke-linejoin:miter;" x="329.028422" xlink:href="#mea359c4021" y="197.485019"/>
     <use style="fill:#081d58;stroke:#081d58;stroke-linejoin:miter;" x="337.147492" xlink:href="#mea359c4021" y="196.323696"/>
     <use style="fill:#081d58;stroke:#081d58;stroke-linejoin:miter;" x="345.266562" xlink:href="#mea359c4021" y="194.876726"/>
     <use style="fill:#081d58;stroke:#081d58;stroke-linejoin:miter;" x="353.385632" xlink:href="#mea359c4021" y="191.747716"/>
     <use style="fill:#081d58;stroke:#081d58;stroke-linejoin:miter;" x="361.504702" xlink:href="#mea359c4021" y="188.616453"/>
     <use style="fill:#081d58;stroke:#081d58;stroke-linejoin:miter;" x="369.623772" xlink:href="#mea359c4021" y="185.845577"/>
    </g>
   </g>
   <g id="patch_3">
    <path d="M 54 252 
L 54 34.56 
" style="fill:none;stroke:#000000;stroke-linecap:square;stroke-linejoin:miter;stroke-width:0.8;"/>
   </g>
   <g id="patch_4">
    <path d="M 388.8 252 
L 388.8 34.56 
" style="fill:none;stroke:#000000;stroke-linecap:square;stroke-linejoin:miter;stroke-width:0.8;"/>
   </g>
   <g id="patch_5">
    <path d="M 54 252 
L 388.8 252 
" style="fill:none;stroke:#000000;stroke-linecap:square;stroke-linejoin:miter;stroke-width:0.8;"/>
   </g>
   <g id="patch_6">
    <path d="M 54 34.56 
L 388.8 34.56 
" style="fill:none;stroke:#000000;stroke-linecap:square;stroke-linejoin:miter;stroke-width:0.8;"/>
   </g>
   <g id="legend_1">
    <g id="patch_7">
     <path d="M 280.085938 71.91625 
L 381.8 71.91625 
Q 383.8 71.91625 383.8 69.91625 
L 383.8 41.56 
Q 383.8 39.56 381.8 39.56 
L 280.085938 39.56 
Q 278.085938 39.56 278.085938 41.56 
L 278.085938 69.91625 
Q 278.085938 71.91625 280.085938 71.91625 
z
" style="fill:#ffffff;opacity:0.8;stroke:#cccccc;stroke-linejoin:miter;"/>
    </g>
    <g id="line2d_18">
     <path d="M 282.085938 47.658437 
L 302.085938 47.658437 
" style="fill:none;stroke:#40b5c4;stroke-dasharray:5.55,2.4;stroke-dashoffset:0;stroke-width:1.5;"/>
    </g>
    <g id="line2d_19">
     <g>
      <use style="fill:#40b5c4;stroke:#40b5c4;" x="292.085938" xlink:href="#m8046d88e48" y="47.658437"/>
     </g>
    </g>
    <g id="text_18">
     <text style="font-family:DejaVu Sans;font-size:10px;font-style:normal;font-weight:normal;text-anchor:start;" transform="rotate(-0, 310.085938, 51.158437)" x="310.085938" y="51.158437">original</text>
    </g>
    <g id="line2d_20">
     <path d="M 282.085938 62.336562 
L 302.085938 62.336562 
" style="fill:none;stroke:#081d58;stroke-dasharray:5.55,2.4;stroke-dashoffset:0;stroke-width:1.5;"/>
    </g>
    <g id="line2d_21">
     <g>
      <use style="fill:#081d58;stroke:#081d58;stroke-linejoin:miter;" x="292.085938" xlink:href="#mea359c4021" y="62.336562"/>
     </g>
    </g>
    <g id="text_19">
     <text style="font-family:DejaVu Sans;font-size:10px;font-style:normal;font-weight:normal;text-anchor:start;" transform="rotate(-0, 310.085938, 65.836562)" x="310.085938" y="65.836562">reconstructed</text>
    </g>
   </g>
  </g>
  <g id="text_20">
   <text style="font-family:DejaVu Sans;font-size:12px;font-style:normal;font-weight:normal;text-anchor:middle;" transform="rotate(-0, 216, 14.878125)" x="216" y="14.878125">Reconstruction of the weight curve</text>
  </g>
 </g>
 <defs>
  <clipPath id="pb4872fac51">
   <rect height="217.44" width="334.8" x="54" y="34.56"/>
  </clipPath>
 </defs>
</svg>
