<?xml version="1.0" encoding="utf-8" standalone="no"?>
<!DOCTYPE svg PUBLIC "-//W3C//DTD SVG 1.1//EN"
  "http://www.w3.org/Graphics/SVG/1.1/DTD/svg11.dtd">
<!-- Created with matplotlib (https://matplotlib.org/) -->
<svg height="288pt" version="1.1" viewBox="0 0 432 288" width="432pt" xmlns="http://www.w3.org/2000/svg" xmlns:xlink="http://www.w3.org/1999/xlink">
 <defs>
  <style type="text/css">
*{stroke-linecap:butt;stroke-linejoin:round;}
  </style>
 </defs>
 <g id="figure_1">
  <g id="patch_1">
   <path d="M 0 288 
L 432 288 
L 432 0 
L 0 0 
z
" style="fill:#ffffff;"/>
  </g>
  <g id="axes_1">
   <g id="patch_2">
    <path d="M 54 252 
L 388.8 252 
L 388.8 34.56 
L 54 34.56 
z
" style="fill:#ffffff;"/>
   </g>
   <g id="matplotlib.axis_1">
    <g id="xtick_1">
     <g id="line2d_1">
      <defs>
       <path d="M 0 0 
L 0 3.5 
" id="m4e26dd3727" style="stroke:#000000;stroke-width:0.8;"/>
      </defs>
      <g>
       <use style="stroke:#000000;stroke-width:0.8;" x="69.218182" xlink:href="#m4e26dd3727" y="252"/>
      </g>
     </g>
     <g id="text_1">
      <text style="font-family:DejaVu Sans;font-size:10px;font-style:normal;font-weight:normal;text-anchor:middle;" transform="rotate(-0, 69.218182, 266.598437)" x="69.218182" y="266.598437">0</text>
     </g>
    </g>
    <g id="xtick_2">
     <g id="line2d_2">
      <g>
       <use style="stroke:#000000;stroke-width:0.8;" x="119.962369" xlink:href="#m4e26dd3727" y="252"/>
      </g>
     </g>
     <g id="text_2">
      <text style="font-family:DejaVu Sans;font-size:10px;font-style:normal;font-weight:normal;text-anchor:middle;" transform="rotate(-0, 119.962369, 266.598437)" x="119.962369" y="266.598437">500</text>
     </g>
    </g>
    <g id="xtick_3">
     <g id="line2d_3">
      <g>
       <use style="stroke:#000000;stroke-width:0.8;" x="170.706557" xlink:href="#m4e26dd3727" y="252"/>
      </g>
     </g>
     <g id="text_3">
      <text style="font-family:DejaVu Sans;font-size:10px;font-style:normal;font-weight:normal;text-anchor:middle;" transform="rotate(-0, 170.706557, 266.598437)" x="170.706557" y="266.598437">1000</text>
     </g>
    </g>
    <g id="xtick_4">
     <g id="line2d_4">
      <g>
       <use style="stroke:#000000;stroke-width:0.8;" x="221.450744" xlink:href="#m4e26dd3727" y="252"/>
      </g>
     </g>
     <g id="text_4">
      <text style="font-family:DejaVu Sans;font-size:10px;font-style:normal;font-weight:normal;text-anchor:middle;" transform="rotate(-0, 221.450744, 266.598437)" x="221.450744" y="266.598437">1500</text>
     </g>
    </g>
    <g id="xtick_5">
     <g id="line2d_5">
      <g>
       <use style="stroke:#000000;stroke-width:0.8;" x="272.194932" xlink:href="#m4e26dd3727" y="252"/>
      </g>
     </g>
     <g id="text_5">
      <text style="font-family:DejaVu Sans;font-size:10px;font-style:normal;font-weight:normal;text-anchor:middle;" transform="rotate(-0, 272.194932, 266.598437)" x="272.194932" y="266.598437">2000</text>
     </g>
    </g>
    <g id="xtick_6">
     <g id="line2d_6">
      <g>
       <use style="stroke:#000000;stroke-width:0.8;" x="322.939119" xlink:href="#m4e26dd3727" y="252"/>
      </g>
     </g>
     <g id="text_6">
      <text style="font-family:DejaVu Sans;font-size:10px;font-style:normal;font-weight:normal;text-anchor:middle;" transform="rotate(-0, 322.939119, 266.598437)" x="322.939119" y="266.598437">2500</text>
     </g>
    </g>
    <g id="xtick_7">
     <g id="line2d_7">
      <g>
       <use style="stroke:#000000;stroke-width:0.8;" x="373.683307" xlink:href="#m4e26dd3727" y="252"/>
      </g>
     </g>
     <g id="text_7">
      <text style="font-family:DejaVu Sans;font-size:10px;font-style:normal;font-weight:normal;text-anchor:middle;" transform="rotate(-0, 373.683307, 266.598437)" x="373.683307" y="266.598437">3000</text>
     </g>
    </g>
    <g id="text_8">
     <text style="font-family:DejaVu Sans;font-size:10px;font-style:normal;font-weight:normal;text-anchor:middle;" transform="rotate(-0, 221.4, 280.276563)" x="221.4" y="280.276563">Time</text>
    </g>
   </g>
   <g id="matplotlib.axis_2">
    <g id="ytick_1">
     <g id="line2d_8">
      <defs>
       <path d="M 0 0 
L -3.5 0 
" id="mc82886b2d2" style="stroke:#000000;stroke-width:0.8;"/>
      </defs>
      <g>
       <use style="stroke:#000000;stroke-width:0.8;" x="54" xlink:href="#mc82886b2d2" y="250.819548"/>
      </g>
     </g>
     <g id="text_9">
      <text style="font-family:DejaVu Sans;font-size:10px;font-style:normal;font-weight:normal;text-anchor:end;" transform="rotate(-0, 47, 254.618767)" x="47" y="254.618767">−12</text>
     </g>
    </g>
    <g id="ytick_2">
     <g id="line2d_9">
      <g>
       <use style="stroke:#000000;stroke-width:0.8;" x="54" xlink:href="#mc82886b2d2" y="223.513727"/>
      </g>
     </g>
     <g id="text_10">
      <text style="font-family:DejaVu Sans;font-size:10px;font-style:normal;font-weight:normal;text-anchor:end;" transform="rotate(-0, 47, 227.312946)" x="47" y="227.312946">−10</text>
     </g>
    </g>
    <g id="ytick_3">
     <g id="line2d_10">
      <g>
       <use style="stroke:#000000;stroke-width:0.8;" x="54" xlink:href="#mc82886b2d2" y="196.207907"/>
      </g>
     </g>
     <g id="text_11">
      <text style="font-family:DejaVu Sans;font-size:10px;font-style:normal;font-weight:normal;text-anchor:end;" transform="rotate(-0, 47, 200.007126)" x="47" y="200.007126">−8</text>
     </g>
    </g>
    <g id="ytick_4">
     <g id="line2d_11">
      <g>
       <use style="stroke:#000000;stroke-width:0.8;" x="54" xlink:href="#mc82886b2d2" y="168.902087"/>
      </g>
     </g>
     <g id="text_12">
      <text style="font-family:DejaVu Sans;font-size:10px;font-style:normal;font-weight:normal;text-anchor:end;" transform="rotate(-0, 47, 172.701306)" x="47" y="172.701306">−6</text>
     </g>
    </g>
    <g id="ytick_5">
     <g id="line2d_12">
      <g>
       <use style="stroke:#000000;stroke-width:0.8;" x="54" xlink:href="#mc82886b2d2" y="141.596266"/>
      </g>
     </g>
     <g id="text_13">
      <text style="font-family:DejaVu Sans;font-size:10px;font-style:normal;font-weight:normal;text-anchor:end;" transform="rotate(-0, 47, 145.395485)" x="47" y="145.395485">−4</text>
     </g>
    </g>
    <g id="ytick_6">
     <g id="line2d_13">
      <g>
       <use style="stroke:#000000;stroke-width:0.8;" x="54" xlink:href="#mc82886b2d2" y="114.290446"/>
      </g>
     </g>
     <g id="text_14">
      <text style="font-family:DejaVu Sans;font-size:10px;font-style:normal;font-weight:normal;text-anchor:end;" transform="rotate(-0, 47, 118.089665)" x="47" y="118.089665">−2</text>
     </g>
    </g>
    <g id="ytick_7">
     <g id="line2d_14">
      <g>
       <use style="stroke:#000000;stroke-width:0.8;" x="54" xlink:href="#mc82886b2d2" y="86.984626"/>
      </g>
     </g>
     <g id="text_15">
      <text style="font-family:DejaVu Sans;font-size:10px;font-style:normal;font-weight:normal;text-anchor:end;" transform="rotate(-0, 47, 90.783845)" x="47" y="90.783845">0</text>
     </g>
    </g>
    <g id="ytick_8">
     <g id="line2d_15">
      <g>
       <use style="stroke:#000000;stroke-width:0.8;" x="54" xlink:href="#mc82886b2d2" y="59.678805"/>
      </g>
     </g>
     <g id="text_16">
      <text style="font-family:DejaVu Sans;font-size:10px;font-style:normal;font-weight:normal;text-anchor:end;" transform="rotate(-0, 47, 63.478024)" x="47" y="63.478024">2</text>
     </g>
    </g>
    <g id="text_17">
     <text style="font-family:DejaVu Sans;font-size:10px;font-style:normal;font-weight:normal;text-anchor:middle;" transform="rotate(-90, 19.815625, 143.28)" x="19.815625" y="143.28">temperature (°C)</text>
    </g>
   </g>
   <g id="line2d_16">
    <path clip-path="url(#pbeea1fa7ce)" d="M 69.218182 83.364618 
L 71.958368 83.019634 
L 73.07474 83.089038 
L 73.988135 83.357671 
L 74.800042 83.818508 
L 75.611949 84.522891 
L 76.525345 85.635645 
L 77.43874 87.111397 
L 78.453624 89.180661 
L 79.569996 91.953418 
L 80.889345 95.849673 
L 82.411671 101.055124 
L 84.441438 108.849884 
L 92.763485 141.841363 
L 94.793252 148.494222 
L 96.518555 153.390756 
L 98.04088 157.066652 
L 99.563206 160.171433 
L 100.882555 162.349222 
L 102.100415 163.939827 
L 103.216787 165.052417 
L 104.33316 165.869065 
L 105.449532 166.428821 
L 106.565904 166.730632 
L 107.682276 166.799225 
L 108.900136 166.647991 
L 110.320974 166.229748 
L 112.046276 165.495262 
L 114.177532 164.313685 
L 122.601067 159.344749 
L 124.732323 158.435206 
L 127.066556 157.667435 
L 129.2993 157.151491 
L 131.532044 156.90167 
L 133.561812 156.895922 
L 135.490091 157.110601 
L 137.41837 157.559973 
L 139.448137 158.251861 
L 141.17344 159.067022 
L 142.695765 160.043696 
L 144.218091 161.282643 
L 145.740417 162.821872 
L 147.161254 164.579357 
L 148.480603 166.566251 
L 149.799951 168.962542 
L 151.1193 171.837121 
L 153.453533 177.101629 
L 155.990742 182.966359 
L 157.513068 187.391513 
L 159.644324 194.369816 
L 162.080045 203.125796 
L 164.515766 212.665521 
L 166.444045 221.053814 
L 169.89465 236.604411 
L 170.808045 239.452135 
L 171.518464 241.029046 
L 172.127394 241.855593 
L 172.533347 242.095202 
L 172.939301 242.069261 
L 173.345254 241.763436 
L 173.751208 241.167213 
L 174.25865 239.998115 
L 174.86758 237.97134 
L 175.577999 234.767275 
L 176.491394 229.431718 
L 177.506278 222.110905 
L 179.028603 209.222762 
L 182.174743 182.25081 
L 183.900045 169.523185 
L 185.523859 159.152407 
L 187.147673 150.220045 
L 188.771487 142.563589 
L 190.395301 136.013865 
L 192.019115 130.409495 
L 193.642929 125.607821 
L 195.266743 121.481639 
L 196.890557 117.92638 
L 198.717348 114.469504 
L 200.645627 111.357746 
L 202.472418 108.821391 
L 204.502186 106.390135 
L 206.633441 104.207635 
L 208.764697 102.341719 
L 210.997442 100.676638 
L 213.433163 99.140724 
L 216.07186 97.745157 
L 218.913535 96.495216 
L 222.059674 95.344705 
L 225.916233 94.198739 
L 231.193628 92.889971 
L 237.384419 91.338099 
L 245.300512 89.259435 
L 258.088048 86.214971 
L 262.147583 85.589825 
L 267.627955 84.986453 
L 287.012234 83.082395 
L 291.883676 82.979338 
L 296.349165 83.131889 
L 300.916142 83.49921 
L 306.700979 84.195478 
L 315.834933 85.468196 
L 323.751026 86.307884 
L 332.783491 87.292941 
L 337.85791 88.069867 
L 352.269259 90.511297 
L 357.546655 91.077345 
L 362.621074 91.419167 
L 372.363958 91.72996 
L 373.581818 91.735825 
L 373.581818 91.735825 
" style="fill:none;stroke:#40b5c4;stroke-dasharray:5.55,2.4;stroke-dashoffset:0;stroke-width:1.5;"/>
    <defs>
     <path d="M 0 3 
C 0.795609 3 1.55874 2.683901 2.12132 2.12132 
C 2.683901 1.55874 3 0.795609 3 0 
C 3 -0.795609 2.683901 -1.55874 2.12132 -2.12132 
C 1.55874 -2.683901 0.795609 -3 0 -3 
C -0.795609 -3 -1.55874 -2.683901 -2.12132 -2.12132 
C -2.683901 -1.55874 -3 -0.795609 -3 0 
C -3 0.795609 -2.683901 1.55874 -2.12132 2.12132 
C -1.55874 2.683901 -0.795609 3 0 3 
z
" id="mf2175d0816" style="stroke:#40b5c4;"/>
    </defs>
    <g clip-path="url(#pbeea1fa7ce)">
     <use style="fill:#40b5c4;stroke:#40b5c4;" x="69.218182" xlink:href="#mf2175d0816" y="83.364618"/>
     <use style="fill:#40b5c4;stroke:#40b5c4;" x="77.337252" xlink:href="#mf2175d0816" y="86.92947"/>
     <use style="fill:#40b5c4;stroke:#40b5c4;" x="85.456322" xlink:href="#mf2175d0816" y="112.972858"/>
     <use style="fill:#40b5c4;stroke:#40b5c4;" x="93.575392" xlink:href="#mf2175d0816" y="144.605641"/>
     <use style="fill:#40b5c4;stroke:#40b5c4;" x="101.694462" xlink:href="#mf2175d0816" y="163.453675"/>
     <use style="fill:#40b5c4;stroke:#40b5c4;" x="109.813532" xlink:href="#mf2175d0816" y="166.402171"/>
     <use style="fill:#40b5c4;stroke:#40b5c4;" x="117.932602" xlink:href="#mf2175d0816" y="161.960442"/>
     <use style="fill:#40b5c4;stroke:#40b5c4;" x="126.051672" xlink:href="#mf2175d0816" y="157.973669"/>
     <use style="fill:#40b5c4;stroke:#40b5c4;" x="134.170742" xlink:href="#mf2175d0816" y="156.939816"/>
     <use style="fill:#40b5c4;stroke:#40b5c4;" x="142.289812" xlink:href="#mf2175d0816" y="159.759197"/>
     <use style="fill:#40b5c4;stroke:#40b5c4;" x="150.408882" xlink:href="#mf2175d0816" y="170.227921"/>
     <use style="fill:#40b5c4;stroke:#40b5c4;" x="158.527952" xlink:href="#mf2175d0816" y="190.634229"/>
     <use style="fill:#40b5c4;stroke:#40b5c4;" x="166.647022" xlink:href="#mf2175d0816" y="222.002814"/>
     <use style="fill:#40b5c4;stroke:#40b5c4;" x="174.766092" xlink:href="#mf2175d0816" y="238.356352"/>
     <use style="fill:#40b5c4;stroke:#40b5c4;" x="182.885162" xlink:href="#mf2175d0816" y="176.795503"/>
     <use style="fill:#40b5c4;stroke:#40b5c4;" x="191.004232" xlink:href="#mf2175d0816" y="133.809193"/>
     <use style="fill:#40b5c4;stroke:#40b5c4;" x="199.123302" xlink:href="#mf2175d0816" y="113.775049"/>
     <use style="fill:#40b5c4;stroke:#40b5c4;" x="207.242372" xlink:href="#mf2175d0816" y="103.645422"/>
     <use style="fill:#40b5c4;stroke:#40b5c4;" x="215.361442" xlink:href="#mf2175d0816" y="98.09572"/>
     <use style="fill:#40b5c4;stroke:#40b5c4;" x="223.480512" xlink:href="#mf2175d0816" y="94.894072"/>
     <use style="fill:#40b5c4;stroke:#40b5c4;" x="231.599582" xlink:href="#mf2175d0816" y="92.795222"/>
     <use style="fill:#40b5c4;stroke:#40b5c4;" x="239.718652" xlink:href="#mf2175d0816" y="90.697442"/>
     <use style="fill:#40b5c4;stroke:#40b5c4;" x="247.837722" xlink:href="#mf2175d0816" y="88.639399"/>
     <use style="fill:#40b5c4;stroke:#40b5c4;" x="255.956792" xlink:href="#mf2175d0816" y="86.642475"/>
     <use style="fill:#40b5c4;stroke:#40b5c4;" x="264.075862" xlink:href="#mf2175d0816" y="85.357413"/>
     <use style="fill:#40b5c4;stroke:#40b5c4;" x="272.194932" xlink:href="#mf2175d0816" y="84.507876"/>
     <use style="fill:#40b5c4;stroke:#40b5c4;" x="280.314002" xlink:href="#mf2175d0816" y="83.621073"/>
     <use style="fill:#40b5c4;stroke:#40b5c4;" x="288.433072" xlink:href="#mf2175d0816" y="83.03088"/>
     <use style="fill:#40b5c4;stroke:#40b5c4;" x="296.552142" xlink:href="#mf2175d0816" y="83.143614"/>
     <use style="fill:#40b5c4;stroke:#40b5c4;" x="304.671212" xlink:href="#mf2175d0816" y="83.917595"/>
     <use style="fill:#40b5c4;stroke:#40b5c4;" x="312.790282" xlink:href="#mf2175d0816" y="85.078856"/>
     <use style="fill:#40b5c4;stroke:#40b5c4;" x="320.909352" xlink:href="#mf2175d0816" y="86.028662"/>
     <use style="fill:#40b5c4;stroke:#40b5c4;" x="329.028422" xlink:href="#mf2175d0816" y="86.839508"/>
     <use style="fill:#40b5c4;stroke:#40b5c4;" x="337.147492" xlink:href="#mf2175d0816" y="87.949574"/>
     <use style="fill:#40b5c4;stroke:#40b5c4;" x="345.266562" xlink:href="#mf2175d0816" y="89.420691"/>
     <use style="fill:#40b5c4;stroke:#40b5c4;" x="353.385632" xlink:href="#mf2175d0816" y="90.651836"/>
     <use style="fill:#40b5c4;stroke:#40b5c4;" x="361.504702" xlink:href="#mf2175d0816" y="91.3588"/>
     <use style="fill:#40b5c4;stroke:#40b5c4;" x="369.623772" xlink:href="#mf2175d0816" y="91.687136"/>
    </g>
   </g>
   <g id="line2d_17">
    <path clip-path="url(#pbeea1fa7ce)" d="M 69.218182 63.625864 
L 69.31967 63.567604 
L 69.421159 63.803614 
L 69.624135 63.650106 
L 69.725624 63.506026 
L 69.827112 63.811215 
L 69.9286 63.499462 
L 70.131577 63.684114 
L 70.233066 63.373592 
L 70.334554 63.857659 
L 70.537531 63.576749 
L 70.639019 63.703703 
L 70.740507 63.439828 
L 70.841996 63.746697 
L 71.044973 63.606456 
L 71.146461 63.827793 
L 71.247949 63.299281 
L 71.349438 63.855732 
L 71.552414 63.506667 
L 71.653903 63.770744 
L 71.755391 63.412679 
L 71.85688 63.841012 
L 71.958368 63.444864 
L 72.161345 63.78416 
L 72.262833 63.454222 
L 72.364321 63.880098 
L 72.46581 63.397496 
L 72.567298 63.426586 
L 72.668787 63.792197 
L 72.770275 63.441573 
L 72.871763 63.766001 
L 73.07474 63.365835 
L 73.176228 63.788462 
L 73.277717 63.502004 
L 73.480694 63.641892 
L 73.582182 63.440142 
L 73.68367 63.676442 
L 73.785159 63.380774 
L 73.886647 63.732659 
L 74.089624 63.292972 
L 74.191112 63.797278 
L 74.394089 63.474952 
L 74.495577 63.62861 
L 74.597066 63.419866 
L 74.698554 63.748342 
L 74.800042 63.350685 
L 75.003019 63.577605 
L 75.104508 63.331913 
L 75.205996 63.744072 
L 75.408973 63.444682 
L 75.510461 63.617155 
L 75.611949 63.224163 
L 75.713438 63.779683 
L 75.814926 63.444981 
L 75.916415 63.489817 
L 76.017903 63.637024 
L 76.119391 63.131835 
L 76.22088 63.758145 
L 76.423856 63.420205 
L 76.525345 63.595932 
L 76.626833 63.278534 
L 76.728322 63.715401 
L 76.82981 63.337175 
L 77.032787 63.728044 
L 77.134275 63.278656 
L 77.235763 63.72866 
L 77.43874 63.357031 
L 77.540229 63.599122 
L 77.641717 63.381449 
L 77.743205 63.713026 
L 77.844694 63.327005 
L 77.946182 63.376966 
L 78.04767 63.745011 
L 78.149159 63.304508 
L 78.250647 63.718931 
L 78.453624 63.303582 
L 78.555112 63.597989 
L 78.656601 63.383463 
L 78.758089 63.677777 
L 78.961066 63.281568 
L 79.062554 63.776499 
L 79.164043 63.286822 
L 79.367019 63.604735 
L 79.468508 63.327506 
L 79.569996 63.739646 
L 79.671484 63.285435 
L 79.772973 63.644758 
L 79.97595 63.280627 
L 80.077438 63.720944 
L 80.178926 63.447354 
L 80.381903 63.451579 
L 80.483391 63.393811 
L 80.58488 63.787223 
L 80.686368 63.314269 
L 80.889345 63.54525 
L 80.990833 63.171637 
L 81.092322 63.794339 
L 81.295298 63.36601 
L 81.396787 63.627007 
L 81.498275 63.241949 
L 81.599764 63.750414 
L 81.701252 63.369357 
L 81.904229 63.572433 
L 82.005717 63.126731 
L 82.107205 63.704942 
L 82.310182 63.394882 
L 82.411671 63.641191 
L 82.513159 63.245513 
L 82.614647 63.685685 
L 82.716136 63.264282 
L 82.919112 63.656957 
L 83.020601 63.156487 
L 83.122089 63.707504 
L 83.325066 63.280956 
L 83.426554 63.583614 
L 83.528043 63.34376 
L 83.629531 63.522723 
L 83.731019 63.247814 
L 83.832508 63.300555 
L 83.933996 63.679515 
L 84.035485 63.222315 
L 84.136973 63.554813 
L 84.33995 63.147301 
L 84.441438 63.49705 
L 84.542926 63.241276 
L 84.644415 63.457157 
L 84.847392 63.065582 
L 84.94888 63.503034 
L 85.050368 63.190536 
L 85.151857 63.411237 
L 85.253345 63.365073 
L 85.354833 63.135183 
L 85.456322 63.336347 
L 85.55781 63.078248 
L 85.760787 63.31172 
L 85.862275 63.004539 
L 85.963764 63.422404 
L 86.16674 63.088236 
L 86.268229 63.249585 
L 86.369717 62.972881 
L 86.471206 63.328647 
L 86.674182 62.972248 
L 86.775671 63.262571 
L 86.877159 62.794257 
L 86.978647 63.320553 
L 87.080136 62.896665 
L 87.181624 62.931446 
L 87.283113 63.046598 
L 87.384601 62.782884 
L 87.486089 63.235588 
L 87.689066 62.845044 
L 87.790554 63.030765 
L 87.892043 62.714525 
L 87.993531 63.153826 
L 88.196508 62.605294 
L 88.297996 62.890039 
L 88.399485 62.526675 
L 88.500973 62.79025 
L 88.70395 62.534576 
L 88.805438 62.708951 
L 88.906927 62.216814 
L 89.008415 62.638261 
L 89.211392 62.208406 
L 89.31288 62.448588 
L 89.414368 61.948397 
L 89.515857 62.392795 
L 89.718834 61.896546 
L 89.820322 62.164018 
L 89.92181 61.680919 
L 90.023299 62.078897 
L 90.226275 61.675558 
L 90.327764 61.795887 
L 90.429252 61.493944 
L 90.530741 61.689008 
L 90.733717 61.186822 
L 90.835206 61.58027 
L 91.038182 61.176184 
L 91.139671 61.208644 
L 91.241159 60.946502 
L 91.342648 61.19669 
L 91.545624 60.942593 
L 91.748601 60.472493 
L 91.850089 60.906101 
L 92.053066 60.425189 
L 92.154555 60.38254 
L 92.256043 60.147932 
L 92.357531 60.588603 
L 92.45902 60.081605 
L 92.560508 60.102708 
L 92.661996 60.151945 
L 92.763485 59.72527 
L 92.864973 60.10175 
L 93.06795 59.577725 
L 93.169438 59.806681 
L 93.270927 59.256758 
L 93.372415 59.718462 
L 93.473903 59.213765 
L 93.67688 59.347992 
L 93.778369 58.886135 
L 93.879857 59.303586 
L 94.082834 58.80713 
L 94.184322 58.955866 
L 94.28581 58.456682 
L 94.387299 58.780041 
L 94.488787 58.302315 
L 94.590276 58.348632 
L 94.691764 58.501768 
L 94.793252 57.979597 
L 94.894741 58.455562 
L 95.097717 57.887035 
L 95.199206 57.967872 
L 95.300694 57.694609 
L 95.402183 57.826496 
L 95.503671 57.347143 
L 95.605159 57.388548 
L 95.706648 57.551127 
L 95.808136 57.057184 
L 95.909624 57.477038 
L 96.112601 56.806827 
L 96.21409 57.064039 
L 96.315578 56.685138 
L 96.417066 56.723217 
L 96.620043 56.329586 
L 96.721531 56.622022 
L 96.924508 56.096075 
L 97.025997 56.242659 
L 97.127485 55.796501 
L 97.228973 56.054373 
L 97.330462 55.455688 
L 97.43195 55.703457 
L 97.634927 55.161872 
L 97.736415 55.505839 
L 97.939392 55.02115 
L 98.142369 54.711092 
L 98.243857 55.025457 
L 98.446834 54.402572 
L 98.548322 54.445612 
L 98.649811 53.948394 
L 98.751299 54.37909 
L 98.954276 53.858839 
L 99.055764 53.911696 
L 99.157252 53.406868 
L 99.258741 53.930992 
L 99.360229 53.342957 
L 99.461718 53.363659 
L 99.563206 53.143233 
L 99.664694 53.335779 
L 99.867671 53.026339 
L 100.172136 52.642699 
L 100.273625 52.676936 
L 100.476601 52.339557 
L 100.57809 52.19199 
L 100.679578 52.241031 
L 100.984043 51.774467 
L 101.085532 51.755526 
L 101.288508 51.519882 
L 101.592973 51.260163 
L 101.694462 51.222254 
L 101.897439 50.845762 
L 102.506369 50.456848 
L 102.607857 50.59589 
L 102.912322 50.028268 
L 103.216787 50.019629 
L 103.419764 49.828232 
L 103.521253 49.741239 
L 103.622741 49.961161 
L 103.927206 49.499277 
L 104.028694 49.33756 
L 104.231671 49.382481 
L 104.94209 48.963294 
L 105.043578 48.773525 
L 105.145067 48.972627 
L 105.449532 48.502576 
L 105.55102 48.510353 
L 105.652508 48.682639 
L 105.753997 48.435671 
L 105.855485 48.484849 
L 106.058462 48.303693 
L 106.362927 48.020182 
L 106.464415 48.087407 
L 106.565904 47.826048 
L 106.667392 48.020101 
L 106.870369 47.82234 
L 106.971857 47.844761 
L 107.276322 47.570528 
L 107.580788 47.544849 
L 107.682276 47.22952 
L 107.783764 47.345265 
L 108.291206 46.882239 
L 108.392695 47.10027 
L 108.900136 46.666416 
L 109.001625 46.660189 
L 109.103113 46.525424 
L 109.204602 46.60951 
L 109.30609 46.353317 
L 109.407578 46.592463 
L 109.509067 46.35969 
L 109.610555 46.426762 
L 109.813532 46.05331 
L 109.91502 46.118744 
L 110.016509 45.982449 
L 110.117997 46.101541 
L 110.219485 45.914535 
L 110.320974 45.965161 
L 110.422462 45.786541 
L 110.52395 46.005284 
L 110.929904 45.583168 
L 111.132881 45.597256 
L 111.234369 45.662277 
L 111.437346 45.490303 
L 111.843299 45.241173 
L 111.944788 45.048321 
L 112.249253 45.308727 
L 112.553718 44.923853 
L 112.655206 45.117356 
L 112.959671 44.711096 
L 113.06116 44.839282 
L 113.162648 44.746999 
L 113.365625 44.761156 
L 113.67009 44.588459 
L 113.771578 44.746247 
L 113.974555 44.708527 
L 115.090927 44.615259 
L 115.192416 44.64712 
L 115.293904 44.531355 
L 115.395392 44.668128 
L 115.902834 44.501896 
L 116.004323 44.596705 
L 116.308788 44.52102 
L 116.410276 44.534298 
L 116.511765 44.66141 
L 116.714741 44.558158 
L 116.81623 44.537618 
L 116.917718 44.711135 
L 117.019206 44.642445 
L 117.222183 44.77444 
L 117.729625 44.924754 
L 117.831113 44.685523 
L 118.03409 44.934741 
L 118.135579 45.074076 
L 118.440044 45.003736 
L 118.64302 45.186673 
L 118.744509 45.169519 
L 118.845997 45.022056 
L 119.048974 45.24811 
L 119.251951 45.297692 
L 119.353439 45.199323 
L 119.657904 45.471254 
L 119.962369 45.511247 
L 120.063858 45.620071 
L 120.368323 45.41885 
L 120.469811 45.664383 
L 120.5713 45.580808 
L 120.774276 45.727386 
L 120.875765 45.803138 
L 120.977253 45.730341 
L 121.18023 45.924105 
L 121.383207 45.820736 
L 121.586183 46.007462 
L 121.687672 46.205847 
L 121.78916 46.130664 
L 122.093625 46.458476 
L 122.195114 46.32764 
L 122.296602 46.387404 
L 122.39809 46.276509 
L 122.601067 46.524522 
L 122.702555 46.545004 
L 122.905532 46.65807 
L 123.007021 46.637175 
L 123.108509 46.891353 
L 123.209997 46.790419 
L 123.311486 46.933481 
L 123.412974 46.728019 
L 123.717439 47.145655 
L 123.818928 47.06793 
L 123.920416 47.171748 
L 124.021904 47.081973 
L 124.224881 47.32552 
L 124.326369 47.390947 
L 124.427858 47.211418 
L 124.9353 47.607698 
L 125.036788 47.626324 
L 125.341253 47.879676 
L 125.442742 47.739862 
L 125.747207 48.17964 
L 126.356137 48.559537 
L 126.559114 48.552122 
L 126.76209 48.785435 
L 127.168044 48.945437 
L 127.371021 49.097431 
L 127.472509 49.016239 
L 128.385904 49.602253 
L 128.487393 49.543752 
L 128.791858 49.853963 
L 128.994835 49.967996 
L 129.096323 49.976863 
L 129.400788 50.202309 
L 129.502277 50.105844 
L 129.806742 50.443994 
L 131.126091 51.165365 
L 131.329067 51.372149 
L 131.735021 51.579828 
L 131.937998 51.75645 
L 132.140974 51.784486 
L 132.242463 52.01928 
L 132.343951 51.961014 
L 132.445439 52.073354 
L 132.546928 51.927858 
L 132.851393 52.406241 
L 132.952881 52.347747 
L 133.460323 52.69759 
L 133.561812 52.655465 
L 133.866277 53.049092 
L 135.185626 53.723935 
L 135.287114 54.027509 
L 135.388602 53.966225 
L 135.591579 54.216563 
L 135.794556 54.350829 
L 135.997533 54.458043 
L 136.403486 54.631394 
L 136.504974 54.765204 
L 136.707951 54.651705 
L 137.012416 54.717162 
L 137.113905 54.584377 
L 137.519858 54.765133 
L 137.722835 54.728002 
L 137.824323 54.933077 
L 138.128788 54.748919 
L 138.433254 54.989009 
L 138.63623 55.029975 
L 138.737719 54.876796 
L 138.839207 55.299742 
L 138.940695 55.084407 
L 139.042184 55.146143 
L 139.143672 55.001183 
L 139.448137 55.279469 
L 139.549626 55.171927 
L 139.854091 55.273317 
L 140.158556 55.16929 
L 141.883858 57.977856 
L 142.188323 58.60142 
L 142.898742 60.262241 
L 143.304696 61.206019 
L 145.435951 66.255031 
L 146.450835 68.711514 
L 147.161254 70.477828 
L 147.465719 71.146389 
L 147.770184 71.933421 
L 147.871672 72.074919 
L 148.379114 73.395022 
L 149.495486 76.056718 
L 149.698463 76.499829 
L 152.337161 82.639551 
L 152.641626 83.335233 
L 154.26544 86.901441 
L 154.468417 87.335483 
L 155.889254 90.165487 
L 156.193719 90.731879 
L 156.599673 91.470137 
L 157.107114 92.379022 
L 157.208603 92.482241 
L 157.513068 93.181021 
L 157.614556 93.246641 
L 158.02051 94.003473 
L 158.121998 94.087237 
L 158.62944 95.034828 
L 159.035394 95.696106 
L 159.542835 96.333368 
L 159.644324 96.118567 
L 159.745812 96.520505 
L 159.847301 96.239625 
L 159.948789 96.420179 
L 160.050277 96.179701 
L 160.253254 96.394151 
L 160.862184 96.450142 
L 160.963673 96.267273 
L 161.065161 96.497729 
L 161.166649 96.401068 
L 161.369626 96.503122 
L 161.471115 96.471222 
L 161.572603 96.659257 
L 161.674091 96.515391 
L 161.77558 96.605258 
L 161.877068 96.290479 
L 161.978556 96.666678 
L 162.080045 96.571323 
L 162.181533 96.675851 
L 162.283022 96.557564 
L 162.38451 96.701023 
L 162.485998 96.644413 
L 162.587487 96.725361 
L 162.891952 96.596257 
L 162.99344 96.824014 
L 163.196417 96.783179 
L 163.703859 96.722233 
L 163.805347 96.669927 
L 164.109812 96.940745 
L 164.312789 96.794445 
L 164.414277 97.022986 
L 164.718743 96.751087 
L 164.921719 97.044609 
L 165.023208 97.160302 
L 165.226184 97.006974 
L 165.327673 97.205382 
L 165.733626 97.101222 
L 166.241068 97.309386 
L 166.545533 96.960781 
L 166.647022 97.175107 
L 166.951487 97.110219 
L 167.255952 97.18412 
L 167.35744 97.121225 
L 167.458929 96.863163 
L 167.661905 97.174791 
L 167.966371 97.011036 
L 168.067859 97.334278 
L 168.169347 97.046146 
L 168.270836 97.1221 
L 168.372324 96.729339 
L 168.473812 97.067623 
L 168.575301 96.955468 
L 168.676789 97.022439 
L 168.879766 96.899425 
L 169.082743 97.048603 
L 169.285719 96.673231 
L 169.387208 96.787296 
L 169.691673 96.869501 
L 169.89465 96.717149 
L 170.097626 96.843434 
L 170.199115 96.516608 
L 170.402092 96.64194 
L 171.011022 96.562547 
L 171.11251 96.337551 
L 171.416975 96.483872 
L 171.619952 96.280821 
L 171.72144 96.530361 
L 172.025906 96.013108 
L 172.127394 96.345406 
L 172.431859 96.128687 
L 172.533347 96.208281 
L 172.939301 95.816125 
L 173.142278 96.091205 
L 173.446743 95.701272 
L 173.548231 96.047345 
L 173.852696 95.489778 
L 174.055673 95.763292 
L 174.25865 95.621535 
L 174.360138 95.547491 
L 174.461627 95.661827 
L 174.664603 95.527326 
L 174.766092 95.231196 
L 174.969068 95.385159 
L 175.172045 95.442712 
L 175.273534 95.110268 
L 175.375022 95.626554 
L 175.577999 95.150615 
L 175.679487 95.055758 
L 175.780975 95.278209 
L 175.882464 95.031023 
L 175.983952 95.183717 
L 176.085441 95.095617 
L 176.186929 95.22004 
L 176.592882 94.896652 
L 176.897348 94.938727 
L 177.100324 94.870819 
L 177.201813 94.949801 
L 177.303301 94.849104 
L 177.404789 94.591814 
L 177.506278 94.798706 
L 177.607766 94.602061 
L 177.709255 94.856302 
L 178.01372 94.495912 
L 178.115208 94.833584 
L 178.419673 94.492195 
L 178.62265 94.547099 
L 178.724138 94.579269 
L 178.825627 94.46202 
L 178.927115 94.590916 
L 179.333069 94.39684 
L 179.536045 94.468374 
L 179.739022 94.364165 
L 180.043487 94.316943 
L 180.144976 94.015966 
L 180.347952 94.397445 
L 180.550929 94.218255 
L 180.652417 94.146909 
L 180.855394 94.275724 
L 181.058371 94.043397 
L 181.362836 94.147144 
L 181.565813 94.035565 
L 181.667301 94.290027 
L 181.971766 93.871137 
L 182.174743 94.102477 
L 182.37772 94.038485 
L 182.479208 94.181143 
L 182.580697 93.927597 
L 182.682185 93.999443 
L 182.783673 93.718648 
L 182.885162 93.954031 
L 182.98665 93.865209 
L 183.088138 94.020924 
L 183.189627 93.903235 
L 183.392604 94.000895 
L 183.59558 93.967455 
L 183.697069 93.608179 
L 183.798557 93.888893 
L 183.900045 93.844653 
L 184.103022 93.808961 
L 184.204511 93.74837 
L 184.305999 94.138544 
L 184.508976 93.745535 
L 184.610464 93.680993 
L 184.813441 93.818391 
L 185.117906 93.742212 
L 185.219394 93.874324 
L 185.320883 93.81415 
L 185.422371 93.499316 
L 185.625348 93.761973 
L 185.828325 93.737544 
L 185.929813 93.654946 
L 186.031301 93.872087 
L 186.335766 92.807869 
L 186.437255 92.774686 
L 186.538743 92.92158 
L 187.249162 91.734413 
L 187.35065 91.489876 
L 187.452139 91.554444 
L 187.858092 91.085364 
L 188.162557 90.54774 
L 188.264046 90.511967 
L 188.467022 90.097308 
L 188.568511 90.160633 
L 188.771487 89.867094 
L 188.872976 89.264548 
L 188.974464 89.345353 
L 189.075953 89.243198 
L 189.278929 89.394615 
L 189.481906 88.66676 
L 189.583394 89.019874 
L 189.786371 88.079936 
L 189.88786 88.258651 
L 189.989348 87.996042 
L 190.090836 88.095668 
L 190.293813 87.717516 
L 190.395301 87.755747 
L 190.902743 86.760605 
L 191.004232 86.850684 
L 191.10572 86.648792 
L 191.207208 86.716355 
L 191.511674 86.106758 
L 191.613162 86.279797 
L 192.019115 85.756864 
L 192.120604 85.927373 
L 192.425069 85.483207 
L 192.526557 85.361521 
L 192.628046 85.484183 
L 192.932511 85.094898 
L 193.236976 84.77872 
L 193.338464 84.779286 
L 193.541441 84.646553 
L 194.25186 83.951574 
L 194.353348 84.039407 
L 194.556325 83.654272 
L 194.657813 83.859461 
L 194.962278 83.25919 
L 195.165255 83.384053 
L 195.571209 83.30027 
L 195.672697 83.27251 
L 195.774185 82.996887 
L 195.977162 83.198082 
L 196.281627 83.013026 
L 196.383116 83.219722 
L 196.586092 82.973128 
L 196.890557 83.055691 
L 197.093534 82.94421 
L 197.195023 83.036896 
L 197.499488 82.803244 
L 197.702464 82.887392 
L 198.209906 82.834418 
L 198.311395 82.647357 
L 198.514371 82.737862 
L 199.021813 82.651595 
L 199.123302 82.739063 
L 199.427767 82.534542 
L 199.630744 82.577073 
L 200.036697 82.572148 
L 200.239674 82.409467 
L 200.544139 82.469182 
L 200.950092 82.42129 
L 201.051581 82.260198 
L 201.254558 82.402736 
L 201.457534 82.320788 
L 201.559023 82.387092 
L 201.660511 82.273954 
L 201.761999 82.33263 
L 201.863488 82.097123 
L 202.066465 82.23488 
L 202.269441 82.214945 
L 202.37093 82.1587 
L 202.472418 82.286672 
L 202.675395 82.051991 
L 202.97986 82.183628 
L 203.182837 82.002348 
L 203.284325 82.153183 
L 203.690279 81.977469 
L 203.893255 81.998565 
L 203.994744 81.929228 
L 204.096232 82.105574 
L 204.299209 81.850627 
L 205.923023 81.653322 
L 206.126 81.660412 
L 206.430465 81.652372 
L 206.73493 81.592767 
L 206.836418 81.424888 
L 207.039395 81.585798 
L 207.546837 81.526239 
L 207.648325 81.324068 
L 207.851302 81.462729 
L 208.155767 81.395954 
L 208.257255 81.256056 
L 208.460232 81.421552 
L 208.663209 81.371241 
L 208.764697 81.303541 
L 208.866186 81.3907 
L 209.272139 81.27057 
L 209.779581 81.177722 
L 209.881069 81.064079 
L 210.084046 81.190003 
L 210.591488 81.11067 
L 210.692976 80.916242 
L 210.895953 81.095839 
L 211.09893 81.048757 
L 211.301907 81.018283 
L 211.403395 80.996145 
L 211.504883 80.850281 
L 211.70786 80.992275 
L 212.519767 80.861045 
L 213.027209 80.810549 
L 213.128697 80.641228 
L 213.331674 80.789124 
L 213.636139 80.747689 
L 213.839116 80.716811 
L 213.940604 80.545573 
L 214.143581 80.705611 
L 214.346558 80.578902 
L 214.549535 80.630079 
L 214.752511 80.518237 
L 214.955488 80.598544 
L 215.158465 80.538627 
L 215.259953 80.581184 
L 215.564418 80.399526 
L 215.868884 80.4604 
L 216.477814 80.317462 
L 216.579302 80.421235 
L 216.782279 80.367512 
L 216.985256 80.341188 
L 217.086744 80.144531 
L 217.289721 80.299376 
L 217.492698 80.199764 
L 217.594186 80.289048 
L 217.898651 80.156409 
L 218.304605 80.117276 
L 218.507581 80.115163 
L 218.710558 80.058511 
L 219.319488 80.078254 
L 219.522465 80.056392 
L 220.943302 80.068537 
L 221.146279 80.075239 
L 222.36414 80.076431 
L 222.567116 79.988904 
L 222.770093 80.085793 
L 223.176047 80.041139 
L 223.784977 80.058759 
L 224.698372 80.071076 
L 225.205814 80.041334 
L 225.611768 80.017325 
L 226.72814 80.044518 
L 227.032605 80.064533 
L 227.33707 80.040716 
L 227.438558 80.086121 
L 227.641535 80.026546 
L 227.844512 80.077472 
L 227.946 79.970103 
L 228.148977 80.064159 
L 228.55493 80.043753 
L 235.354652 80.043867 
L 235.45614 79.925186 
L 235.760605 80.057138 
L 236.166559 79.975187 
L 236.775489 80.095714 
L 236.978466 79.987645 
L 237.384419 80.012797 
L 237.891861 80.022113 
L 238.094838 80.043323 
L 239.617163 80.055032 
L 239.82014 80.049247 
L 240.124605 80.073291 
L 240.327582 80.032184 
L 240.733535 80.116251 
L 241.139489 80.049646 
L 241.443954 80.109119 
L 241.646931 80.063261 
L 242.458838 80.040138 
L 242.763303 80.083429 
L 244.691582 80.045504 
L 244.894559 80.06522 
L 247.634745 80.05815 
L 248.040698 80.074429 
L 248.243675 80.098413 
L 248.446652 80.066641 
L 248.954094 80.098001 
L 249.258559 80.060814 
L 249.664512 80.101607 
L 250.070466 80.100898 
L 254.637443 80.160328 
L 254.738931 80.06025 
L 255.043396 80.191951 
L 255.550838 80.170453 
L 255.753815 80.184927 
L 255.855303 80.0773 
L 256.05828 80.187607 
L 256.66721 80.180039 
L 257.174652 80.181408 
L 257.276141 80.10832 
L 257.479117 80.216799 
L 258.696978 80.185744 
L 258.899955 80.214724 
L 259.305908 80.172652 
L 259.508885 80.239069 
L 260.219303 80.238965 
L 260.42228 80.258422 
L 261.741629 80.234562 
L 261.843117 80.322514 
L 262.046094 80.200348 
L 262.452048 80.301795 
L 263.060978 80.296286 
L 263.771397 80.284081 
L 263.974373 80.280438 
L 264.075862 80.239045 
L 264.17735 80.346751 
L 264.278838 80.268531 
L 264.380327 80.346878 
L 264.583304 80.313172 
L 264.989257 80.265209 
L 265.293722 80.307171 
L 267.222001 80.37761 
L 267.32349 80.259257 
L 267.729443 80.368303 
L 268.135397 80.338459 
L 268.439862 80.380302 
L 269.048792 80.336839 
L 269.251769 80.4041 
L 269.454746 80.312771 
L 269.657722 80.387015 
L 270.571118 80.389427 
L 270.672606 80.317781 
L 270.875583 80.403403 
L 271.281536 80.303774 
L 271.586001 80.432017 
L 271.68749 80.36593 
L 271.788978 80.450225 
L 272.093443 80.371775 
L 272.499397 80.433765 
L 272.600885 80.3335 
L 272.90535 80.401102 
L 273.108327 80.438962 
L 273.209815 80.466461 
L 273.311304 80.323463 
L 273.615769 80.425369 
L 274.021722 80.393548 
L 274.529164 80.439608 
L 274.630653 80.293252 
L 274.833629 80.446963 
L 275.645536 80.331996 
L 275.747025 80.504653 
L 275.950002 80.320095 
L 276.355955 80.441857 
L 276.558932 80.33668 
L 276.964885 80.437248 
L 277.573816 80.37288 
L 277.776792 80.421391 
L 277.878281 80.257333 
L 278.081257 80.416209 
L 278.284234 80.375743 
L 278.690188 80.402453 
L 278.893164 80.344007 
L 278.994653 80.435889 
L 279.19763 80.30074 
L 279.299118 80.300311 
L 279.400606 80.44378 
L 279.80656 80.267831 
L 280.009537 80.374164 
L 280.212513 80.336324 
L 280.314002 80.42622 
L 280.41549 80.269765 
L 280.719955 80.378026 
L 280.821444 80.279455 
L 280.922932 80.42169 
L 281.125909 80.250439 
L 281.328885 80.410688 
L 281.531862 80.358502 
L 282.749723 80.251007 
L 282.851211 80.369011 
L 283.155676 80.266305 
L 283.257165 80.425598 
L 283.460141 80.270922 
L 283.866095 80.349362 
L 284.069072 80.21703 
L 284.272048 80.354515 
L 284.678002 80.178934 
L 284.77949 80.338726 
L 285.083955 80.314881 
L 285.185444 80.369765 
L 285.38842 80.241183 
L 285.591397 80.290125 
L 286.098839 80.298742 
L 286.504793 80.27317 
L 286.707769 80.227318 
L 287.012234 80.292228 
L 288.839025 80.22931 
L 288.940514 80.356401 
L 289.244979 80.160387 
L 289.346467 80.290728 
L 289.447955 80.216355 
L 289.650932 80.251152 
L 289.752421 80.141097 
L 289.955397 80.293174 
L 290.158374 80.267157 
L 291.6807 80.16391 
L 291.782188 80.295299 
L 291.883676 80.166684 
L 292.086653 80.257984 
L 292.28963 80.156401 
L 292.492607 80.209988 
L 292.594095 80.168266 
L 292.797072 80.211882 
L 292.89856 80.137277 
L 293.101537 80.212948 
L 293.203025 80.175072 
L 293.304514 80.285545 
L 293.50749 80.087495 
L 293.710467 80.268153 
L 293.913444 80.246175 
L 294.217909 80.158583 
L 294.319397 80.242563 
L 294.522374 80.189241 
L 295.232793 80.178828 
L 295.334281 80.061203 
L 295.638746 80.212107 
L 296.552142 80.125144 
L 296.755118 80.187145 
L 296.856607 80.030907 
L 297.059583 80.192163 
L 297.161072 80.117183 
L 297.364049 80.165665 
L 297.465537 80.077699 
L 297.770002 80.159615 
L 297.972979 80.143172 
L 298.074467 80.043623 
L 298.480421 80.2203 
L 298.683397 80.039463 
L 298.987863 80.136912 
L 299.190839 80.168362 
L 299.292328 80.027835 
L 299.495304 80.18612 
L 299.901258 80.072897 
L 300.4087 80.142584 
L 300.510188 80.033621 
L 300.916142 80.170622 
L 301.220607 80.150769 
L 302.032514 80.118371 
L 302.235491 80.144684 
L 302.336979 79.988138 
L 302.539956 80.126654 
L 302.641444 80.084303 
L 302.742932 80.17243 
L 302.945909 80.008884 
L 303.148886 80.102358 
L 303.250374 80.059843 
L 303.351863 80.164478 
L 303.554839 80.048496 
L 303.757816 80.068291 
L 303.859305 80.030122 
L 303.960793 80.162227 
L 304.16377 80.035858 
L 304.569723 80.082204 
L 304.7727 80.00099 
L 304.975677 80.110157 
L 305.38163 80.049913 
L 305.787584 80.089746 
L 305.889072 80.00255 
L 306.193537 80.066447 
L 306.396514 80.069177 
L 306.498002 79.952455 
L 306.802467 80.036059 
L 307.005444 80.037684 
L 307.106933 79.956031 
L 307.309909 80.116107 
L 307.512886 80.074032 
L 308.020328 80.00419 
L 308.121816 80.101529 
L 308.324793 79.990965 
L 308.730747 80.033389 
L 308.832235 79.910494 
L 309.035212 80.065232 
L 309.74563 79.97694 
L 309.948607 80.016488 
L 310.050095 79.920816 
L 310.253072 80.061186 
L 310.354561 79.961957 
L 310.557537 80.014306 
L 310.659026 79.855505 
L 310.862002 80.003855 
L 310.963491 79.977796 
L 311.064979 80.080091 
L 311.267956 79.868887 
L 311.470933 79.999708 
L 311.673909 80.009164 
L 311.775398 79.879564 
L 311.978375 80.017932 
L 312.181351 80.021587 
L 312.28284 80.013515 
L 312.384328 79.83178 
L 312.587305 79.966576 
L 313.297723 79.925402 
L 313.399212 80.038325 
L 313.602189 79.907556 
L 313.805165 79.971607 
L 314.211119 79.92786 
L 314.312607 79.983444 
L 314.515584 79.940511 
L 315.226003 79.926696 
L 315.327491 79.821475 
L 315.631956 80.023247 
L 315.834933 79.801825 
L 316.139398 79.925741 
L 316.748328 79.91188 
L 316.849817 79.960373 
L 317.052793 79.849882 
L 317.458747 79.92506 
L 317.560235 79.77895 
L 317.661724 79.896052 
L 317.8647 79.86631 
L 317.966189 79.939228 
L 318.169165 79.774966 
L 318.575119 79.941328 
L 318.778096 79.78949 
L 319.082561 79.837436 
L 319.184049 79.879915 
L 319.285538 79.761275 
L 319.488514 79.83664 
L 319.590003 79.792695 
L 319.691491 79.896427 
L 319.995956 79.746062 
L 320.097445 79.868757 
L 320.198933 79.770797 
L 320.300421 79.909821 
L 320.503398 79.761979 
L 320.807863 79.812268 
L 320.909352 79.815895 
L 321.01084 79.67241 
L 321.213817 79.865345 
L 321.416793 79.683925 
L 321.61977 79.810607 
L 321.924235 79.674033 
L 322.127212 79.752777 
L 322.431677 79.791126 
L 322.533166 79.615371 
L 322.736142 79.770669 
L 322.837631 79.699245 
L 322.939119 79.807395 
L 323.040607 79.621751 
L 323.345073 79.771584 
L 323.751026 79.662552 
L 323.852514 79.743788 
L 323.954003 79.669331 
L 324.055491 79.768603 
L 324.15698 79.632702 
L 324.461445 79.686087 
L 324.664421 79.68578 
L 324.867398 79.650938 
L 324.968887 79.731451 
L 325.070375 79.622288 
L 325.171863 79.736919 
L 325.273352 79.5793 
L 325.476328 79.650926 
L 326.085259 79.674217 
L 326.389724 79.53603 
L 326.592701 79.763427 
L 326.795677 79.529587 
L 326.897166 79.676035 
L 327.100142 79.586152 
L 327.303119 79.62824 
L 327.404608 79.5338 
L 327.607584 79.650323 
L 327.709073 79.486334 
L 327.912049 79.702303 
L 328.013538 79.494396 
L 328.216515 79.658471 
L 328.318003 79.482886 
L 328.52098 79.543732 
L 328.723956 79.557699 
L 328.825445 79.68232 
L 329.028422 79.477008 
L 329.231398 79.538025 
L 329.332887 79.38813 
L 329.535863 79.557602 
L 329.637352 79.386669 
L 329.73884 79.588142 
L 329.840329 79.539834 
L 329.941817 79.344124 
L 330.144794 79.477864 
L 330.246282 79.382492 
L 330.449259 79.623811 
L 330.550747 79.321851 
L 330.753724 79.466972 
L 330.956701 79.400653 
L 331.159677 79.467756 
L 331.261166 79.283467 
L 331.464143 79.451143 
L 331.565631 79.252136 
L 331.768608 79.448021 
L 331.870096 79.258841 
L 332.073073 79.47703 
L 332.174561 79.251048 
L 332.377538 79.355218 
L 332.479026 79.261734 
L 332.682003 79.397286 
L 332.88498 79.178758 
L 332.986468 79.398812 
L 333.290933 79.293546 
L 333.392422 79.376081 
L 333.49391 79.171642 
L 333.696887 79.352567 
L 333.899864 79.183211 
L 334.001352 79.245526 
L 334.10284 79.170879 
L 334.305817 79.335796 
L 334.508794 79.079442 
L 334.610282 79.295556 
L 334.914747 79.212371 
L 335.016236 79.238115 
L 335.117724 79.083691 
L 335.320701 79.282996 
L 335.422189 79.042636 
L 335.625166 79.177586 
L 335.726654 79.058559 
L 336.031119 79.11905 
L 336.132608 79.03044 
L 336.335585 79.162564 
L 336.437073 78.934682 
L 336.64005 79.149989 
L 336.741538 78.972968 
L 336.944515 79.193789 
L 337.147492 78.969392 
L 337.24898 79.084491 
L 337.350468 78.990429 
L 337.654933 79.0372 
L 337.756422 78.926882 
L 337.959399 79.060082 
L 338.060887 78.873645 
L 338.263864 79.042687 
L 338.365352 78.914021 
L 338.568329 79.125315 
L 338.771306 78.872033 
L 338.872794 79.03367 
L 338.974282 78.77637 
L 339.177259 78.954211 
L 339.380236 78.848344 
L 339.481724 79.025299 
L 339.684701 78.698792 
L 339.786189 78.879756 
L 339.989166 78.677116 
L 340.192143 78.8194 
L 340.293631 78.642524 
L 340.496608 78.882877 
L 340.699585 78.544264 
L 340.801073 78.788011 
L 341.00405 78.646835 
L 341.105538 78.726735 
L 341.308515 78.498793 
L 341.410003 78.726653 
L 341.61298 78.447647 
L 341.714468 78.565463 
L 341.815957 78.630028 
L 341.917445 78.479605 
L 342.120422 78.67575 
L 342.323399 78.408863 
L 342.424887 78.561073 
L 342.627864 78.398671 
L 342.830841 78.51604 
L 342.932329 78.328887 
L 343.135306 78.573518 
L 343.338282 78.285746 
L 343.439771 78.442294 
L 343.541259 78.291776 
L 343.744236 78.442378 
L 343.947213 78.163058 
L 344.150189 78.351238 
L 344.251678 78.068096 
L 344.454655 78.337599 
L 344.556143 78.156162 
L 344.75912 78.387609 
L 344.962096 78.057211 
L 345.063585 78.288107 
L 345.266562 78.012222 
L 345.469538 78.226412 
L 345.571027 77.979316 
L 345.774003 78.275668 
L 345.97698 77.941632 
L 346.078469 78.148093 
L 346.281445 77.985147 
L 346.382934 78.119763 
L 346.484422 78.042023 
L 346.58591 77.79697 
L 346.788887 78.052301 
L 346.991864 77.781613 
L 347.093352 78.043352 
L 347.194841 77.785982 
L 347.397817 78.017619 
L 347.600794 77.696846 
L 347.702283 77.952702 
L 347.905259 77.637357 
L 348.108236 77.86799 
L 348.209724 77.656727 
L 348.412701 77.939389 
L 348.615678 77.599077 
L 348.717166 77.802611 
L 348.818655 77.746319 
L 348.920143 77.539603 
L 349.12312 77.727853 
L 349.224608 77.537524 
L 349.427585 77.83578 
L 349.630562 77.496552 
L 349.73205 77.656932 
L 349.935027 77.536259 
L 350.138004 77.598804 
L 350.239492 77.410271 
L 350.442469 77.652486 
L 350.645445 77.403807 
L 350.746934 77.558648 
L 350.949911 77.434119 
L 351.152887 77.466508 
L 351.254376 77.330498 
L 351.457352 77.502279 
L 351.660329 77.325391 
L 351.761818 77.448838 
L 351.964794 77.350124 
L 352.066283 77.432807 
L 352.269259 77.212267 
L 352.472236 77.400213 
L 352.675213 77.192949 
L 352.776701 77.325534 
L 352.87819 77.199103 
L 353.081166 77.376928 
L 353.284143 77.128858 
L 353.385632 77.294831 
L 353.690097 77.14867 
L 353.791585 77.224011 
L 353.994562 77.12632 
L 354.09605 77.291983 
L 354.299027 76.992771 
L 354.502004 77.137017 
L 354.603492 76.919484 
L 354.806469 77.087645 
L 354.907957 76.980479 
L 355.110934 77.144798 
L 355.313911 76.862541 
L 355.415399 77.097602 
L 355.516887 77.04031 
L 355.618376 76.814113 
L 355.821353 76.948532 
L 356.125818 76.917567 
L 356.328794 76.972432 
L 356.531771 76.747957 
L 356.63326 76.947128 
L 356.836236 76.718937 
L 357.039213 76.865061 
L 357.140701 76.723952 
L 357.343678 76.937628 
L 357.546655 76.642663 
L 357.648143 76.845685 
L 357.952608 76.724906 
L 358.054097 76.760792 
L 358.155585 76.597611 
L 358.358562 76.839904 
L 358.561539 76.512629 
L 358.764515 76.702057 
L 358.866004 76.472531 
L 359.068981 76.654154 
L 359.170469 76.525638 
L 359.373446 76.705188 
L 359.576422 76.41026 
L 359.677911 76.630613 
L 360.083864 76.432856 
L 360.489818 76.473544 
L 360.591306 76.324166 
L 360.794283 76.475648 
L 361.098748 76.286915 
L 361.301725 76.377939 
L 361.809167 76.319179 
L 362.012143 76.28683 
L 362.21512 76.251949 
L 362.519585 76.249373 
L 362.621074 76.112432 
L 362.82405 76.216709 
L 363.027027 76.169871 
L 363.128516 76.071369 
L 363.230004 76.197574 
L 363.331492 76.124981 
L 363.432981 76.197271 
L 363.534469 76.026573 
L 363.940423 76.162076 
L 364.041911 75.944358 
L 364.244888 76.065709 
L 364.346376 75.999469 
L 364.447864 76.102809 
L 364.549353 75.896499 
L 364.75233 76.046308 
L 365.158283 75.89968 
L 365.259771 75.990583 
L 365.564237 75.808486 
L 365.868702 75.893628 
L 366.680609 75.79163 
L 366.883585 75.741142 
L 367.086562 75.704115 
L 367.391027 75.749926 
L 367.492516 75.59291 
L 367.796981 75.681908 
L 368.304423 75.576216 
L 368.405911 75.621432 
L 368.608888 75.52994 
L 368.913353 75.539366 
L 369.014841 75.44913 
L 369.217818 75.527829 
L 369.623772 75.555817 
L 369.826748 75.539224 
L 370.537167 75.513945 
L 371.755027 75.567447 
L 371.958004 75.457197 
L 372.160981 75.510011 
L 372.262469 75.531066 
L 372.363958 75.417243 
L 372.566934 75.537961 
L 372.8714 75.432827 
L 373.175865 75.490771 
L 373.48033 75.45794 
L 373.581818 75.514192 
L 373.581818 75.514192 
" style="fill:none;stroke:#081d58;stroke-dasharray:5.55,2.4;stroke-dashoffset:0;stroke-width:1.5;"/>
    <defs>
     <path d="M -0 4.242641 
L 4.242641 0 
L 0 -4.242641 
L -4.242641 -0 
z
" id="m2e9c040ce6" style="stroke:#081d58;stroke-linejoin:miter;"/>
    </defs>
    <g clip-path="url(#pbeea1fa7ce)">
     <use style="fill:#081d58;stroke:#081d58;stroke-linejoin:miter;" x="69.218182" xlink:href="#m2e9c040ce6" y="63.625864"/>
     <use style="fill:#081d58;stroke:#081d58;stroke-linejoin:miter;" x="77.337252" xlink:href="#m2e9c040ce6" y="63.360174"/>
     <use style="fill:#081d58;stroke:#081d58;stroke-linejoin:miter;" x="85.456322" xlink:href="#m2e9c040ce6" y="63.336347"/>
     <use style="fill:#081d58;stroke:#081d58;stroke-linejoin:miter;" x="93.575392" xlink:href="#m2e9c040ce6" y="59.337221"/>
     <use style="fill:#081d58;stroke:#081d58;stroke-linejoin:miter;" x="101.694462" xlink:href="#m2e9c040ce6" y="51.222254"/>
     <use style="fill:#081d58;stroke:#081d58;stroke-linejoin:miter;" x="109.813532" xlink:href="#m2e9c040ce6" y="46.05331"/>
     <use style="fill:#081d58;stroke:#081d58;stroke-linejoin:miter;" x="117.932602" xlink:href="#m2e9c040ce6" y="44.961833"/>
     <use style="fill:#081d58;stroke:#081d58;stroke-linejoin:miter;" x="126.051672" xlink:href="#m2e9c040ce6" y="48.416007"/>
     <use style="fill:#081d58;stroke:#081d58;stroke-linejoin:miter;" x="134.170742" xlink:href="#m2e9c040ce6" y="53.180677"/>
     <use style="fill:#081d58;stroke:#081d58;stroke-linejoin:miter;" x="142.289812" xlink:href="#m2e9c040ce6" y="58.881242"/>
     <use style="fill:#081d58;stroke:#081d58;stroke-linejoin:miter;" x="150.408882" xlink:href="#m2e9c040ce6" y="78.185503"/>
     <use style="fill:#081d58;stroke:#081d58;stroke-linejoin:miter;" x="158.527952" xlink:href="#m2e9c040ce6" y="94.877144"/>
     <use style="fill:#081d58;stroke:#081d58;stroke-linejoin:miter;" x="166.647022" xlink:href="#m2e9c040ce6" y="97.175107"/>
     <use style="fill:#081d58;stroke:#081d58;stroke-linejoin:miter;" x="174.766092" xlink:href="#m2e9c040ce6" y="95.231196"/>
     <use style="fill:#081d58;stroke:#081d58;stroke-linejoin:miter;" x="182.885162" xlink:href="#m2e9c040ce6" y="93.954031"/>
     <use style="fill:#081d58;stroke:#081d58;stroke-linejoin:miter;" x="191.004232" xlink:href="#m2e9c040ce6" y="86.850684"/>
     <use style="fill:#081d58;stroke:#081d58;stroke-linejoin:miter;" x="199.123302" xlink:href="#m2e9c040ce6" y="82.739063"/>
     <use style="fill:#081d58;stroke:#081d58;stroke-linejoin:miter;" x="207.242372" xlink:href="#m2e9c040ce6" y="81.519163"/>
     <use style="fill:#081d58;stroke:#081d58;stroke-linejoin:miter;" x="215.361442" xlink:href="#m2e9c040ce6" y="80.500636"/>
     <use style="fill:#081d58;stroke:#081d58;stroke-linejoin:miter;" x="223.480512" xlink:href="#m2e9c040ce6" y="80.088999"/>
     <use style="fill:#081d58;stroke:#081d58;stroke-linejoin:miter;" x="231.599582" xlink:href="#m2e9c040ce6" y="80.047272"/>
     <use style="fill:#081d58;stroke:#081d58;stroke-linejoin:miter;" x="239.718652" xlink:href="#m2e9c040ce6" y="80.103137"/>
     <use style="fill:#081d58;stroke:#081d58;stroke-linejoin:miter;" x="247.837722" xlink:href="#m2e9c040ce6" y="80.095096"/>
     <use style="fill:#081d58;stroke:#081d58;stroke-linejoin:miter;" x="255.956792" xlink:href="#m2e9c040ce6" y="80.18218"/>
     <use style="fill:#081d58;stroke:#081d58;stroke-linejoin:miter;" x="264.075862" xlink:href="#m2e9c040ce6" y="80.239045"/>
     <use style="fill:#081d58;stroke:#081d58;stroke-linejoin:miter;" x="272.194932" xlink:href="#m2e9c040ce6" y="80.408733"/>
     <use style="fill:#081d58;stroke:#081d58;stroke-linejoin:miter;" x="280.314002" xlink:href="#m2e9c040ce6" y="80.42622"/>
     <use style="fill:#081d58;stroke:#081d58;stroke-linejoin:miter;" x="288.433072" xlink:href="#m2e9c040ce6" y="80.182079"/>
     <use style="fill:#081d58;stroke:#081d58;stroke-linejoin:miter;" x="296.552142" xlink:href="#m2e9c040ce6" y="80.125144"/>
     <use style="fill:#081d58;stroke:#081d58;stroke-linejoin:miter;" x="304.671212" xlink:href="#m2e9c040ce6" y="79.986884"/>
     <use style="fill:#081d58;stroke:#081d58;stroke-linejoin:miter;" x="312.790282" xlink:href="#m2e9c040ce6" y="80.018623"/>
     <use style="fill:#081d58;stroke:#081d58;stroke-linejoin:miter;" x="320.909352" xlink:href="#m2e9c040ce6" y="79.815895"/>
     <use style="fill:#081d58;stroke:#081d58;stroke-linejoin:miter;" x="329.028422" xlink:href="#m2e9c040ce6" y="79.477008"/>
     <use style="fill:#081d58;stroke:#081d58;stroke-linejoin:miter;" x="337.147492" xlink:href="#m2e9c040ce6" y="78.969392"/>
     <use style="fill:#081d58;stroke:#081d58;stroke-linejoin:miter;" x="345.266562" xlink:href="#m2e9c040ce6" y="78.012222"/>
     <use style="fill:#081d58;stroke:#081d58;stroke-linejoin:miter;" x="353.385632" xlink:href="#m2e9c040ce6" y="77.294831"/>
     <use style="fill:#081d58;stroke:#081d58;stroke-linejoin:miter;" x="361.504702" xlink:href="#m2e9c040ce6" y="76.35183"/>
     <use style="fill:#081d58;stroke:#081d58;stroke-linejoin:miter;" x="369.623772" xlink:href="#m2e9c040ce6" y="75.555817"/>
    </g>
   </g>
   <g id="patch_3">
    <path d="M 54 252 
L 54 34.56 
" style="fill:none;stroke:#000000;stroke-linecap:square;stroke-linejoin:miter;stroke-width:0.8;"/>
   </g>
   <g id="patch_4">
    <path d="M 388.8 252 
L 388.8 34.56 
" style="fill:none;stroke:#000000;stroke-linecap:square;stroke-linejoin:miter;stroke-width:0.8;"/>
   </g>
   <g id="patch_5">
    <path d="M 54 252 
L 388.8 252 
" style="fill:none;stroke:#000000;stroke-linecap:square;stroke-linejoin:miter;stroke-width:0.8;"/>
   </g>
   <g id="patch_6">
    <path d="M 54 34.56 
L 388.8 34.56 
" style="fill:none;stroke:#000000;stroke-linecap:square;stroke-linejoin:miter;stroke-width:0.8;"/>
   </g>
   <g id="legend_1">
    <g id="patch_7">
     <path d="M 280.085938 71.91625 
L 381.8 71.91625 
Q 383.8 71.91625 383.8 69.91625 
L 383.8 41.56 
Q 383.8 39.56 381.8 39.56 
L 280.085938 39.56 
Q 278.085938 39.56 278.085938 41.56 
L 278.085938 69.91625 
Q 278.085938 71.91625 280.085938 71.91625 
z
" style="fill:#ffffff;opacity:0.8;stroke:#cccccc;stroke-linejoin:miter;"/>
    </g>
    <g id="line2d_18">
     <path d="M 282.085938 47.658437 
L 302.085938 47.658437 
" style="fill:none;stroke:#40b5c4;stroke-dasharray:5.55,2.4;stroke-dashoffset:0;stroke-width:1.5;"/>
    </g>
    <g id="line2d_19">
     <g>
      <use style="fill:#40b5c4;stroke:#40b5c4;" x="292.085938" xlink:href="#mf2175d0816" y="47.658437"/>
     </g>
    </g>
    <g id="text_18">
     <text style="font-family:DejaVu Sans;font-size:10px;font-style:normal;font-weight:normal;text-anchor:start;" transform="rotate(-0, 310.085938, 51.158437)" x="310.085938" y="51.158437">original</text>
    </g>
    <g id="line2d_20">
     <path d="M 282.085938 62.336562 
L 302.085938 62.336562 
" style="fill:none;stroke:#081d58;stroke-dasharray:5.55,2.4;stroke-dashoffset:0;stroke-width:1.5;"/>
    </g>
    <g id="line2d_21">
     <g>
      <use style="fill:#081d58;stroke:#081d58;stroke-linejoin:miter;" x="292.085938" xlink:href="#m2e9c040ce6" y="62.336562"/>
     </g>
    </g>
    <g id="text_19">
     <text style="font-family:DejaVu Sans;font-size:10px;font-style:normal;font-weight:normal;text-anchor:start;" transform="rotate(-0, 310.085938, 65.836562)" x="310.085938" y="65.836562">reconstructed</text>
    </g>
   </g>
  </g>
  <g id="text_20">
   <text style="font-family:DejaVu Sans;font-size:12px;font-style:normal;font-weight:normal;text-anchor:middle;" transform="rotate(-0, 216, 14.878125)" x="216" y="14.878125">Reconstruction of the temperature curve</text>
  </g>
 </g>
 <defs>
  <clipPath id="pbeea1fa7ce">
   <rect height="217.44" width="334.8" x="54" y="34.56"/>
  </clipPath>
 </defs>
</svg>
