<?xml version="1.0" encoding="utf-8" standalone="no"?>
<!DOCTYPE svg PUBLIC "-//W3C//DTD SVG 1.1//EN"
  "http://www.w3.org/Graphics/SVG/1.1/DTD/svg11.dtd">
<!-- Created with matplotlib (https://matplotlib.org/) -->
<svg height="288pt" version="1.1" viewBox="0 0 432 288" width="432pt" xmlns="http://www.w3.org/2000/svg" xmlns:xlink="http://www.w3.org/1999/xlink">
 <defs>
  <style type="text/css">
*{stroke-linecap:butt;stroke-linejoin:round;}
  </style>
 </defs>
 <g id="figure_1">
  <g id="patch_1">
   <path d="M 0 288 
L 432 288 
L 432 0 
L 0 0 
z
" style="fill:#ffffff;"/>
  </g>
  <g id="axes_1">
   <g id="patch_2">
    <path d="M 54 252 
L 388.8 252 
L 388.8 34.56 
L 54 34.56 
z
" style="fill:#ffffff;"/>
   </g>
   <g id="matplotlib.axis_1">
    <g id="xtick_1">
     <g id="line2d_1">
      <defs>
       <path d="M 0 0 
L 0 3.5 
" id="m0fe75539da" style="stroke:#000000;stroke-width:0.8;"/>
      </defs>
      <g>
       <use style="stroke:#000000;stroke-width:0.8;" x="69.218182" xlink:href="#m0fe75539da" y="252"/>
      </g>
     </g>
     <g id="text_1">
      <text style="font-family:DejaVu Sans;font-size:10px;font-style:normal;font-weight:normal;text-anchor:middle;" transform="rotate(-0, 69.218182, 266.598437)" x="69.218182" y="266.598437">0</text>
     </g>
    </g>
    <g id="xtick_2">
     <g id="line2d_2">
      <g>
       <use style="stroke:#000000;stroke-width:0.8;" x="119.962369" xlink:href="#m0fe75539da" y="252"/>
      </g>
     </g>
     <g id="text_2">
      <text style="font-family:DejaVu Sans;font-size:10px;font-style:normal;font-weight:normal;text-anchor:middle;" transform="rotate(-0, 119.962369, 266.598437)" x="119.962369" y="266.598437">500</text>
     </g>
    </g>
    <g id="xtick_3">
     <g id="line2d_3">
      <g>
       <use style="stroke:#000000;stroke-width:0.8;" x="170.706557" xlink:href="#m0fe75539da" y="252"/>
      </g>
     </g>
     <g id="text_3">
      <text style="font-family:DejaVu Sans;font-size:10px;font-style:normal;font-weight:normal;text-anchor:middle;" transform="rotate(-0, 170.706557, 266.598437)" x="170.706557" y="266.598437">1000</text>
     </g>
    </g>
    <g id="xtick_4">
     <g id="line2d_4">
      <g>
       <use style="stroke:#000000;stroke-width:0.8;" x="221.450744" xlink:href="#m0fe75539da" y="252"/>
      </g>
     </g>
     <g id="text_4">
      <text style="font-family:DejaVu Sans;font-size:10px;font-style:normal;font-weight:normal;text-anchor:middle;" transform="rotate(-0, 221.450744, 266.598437)" x="221.450744" y="266.598437">1500</text>
     </g>
    </g>
    <g id="xtick_5">
     <g id="line2d_5">
      <g>
       <use style="stroke:#000000;stroke-width:0.8;" x="272.194932" xlink:href="#m0fe75539da" y="252"/>
      </g>
     </g>
     <g id="text_5">
      <text style="font-family:DejaVu Sans;font-size:10px;font-style:normal;font-weight:normal;text-anchor:middle;" transform="rotate(-0, 272.194932, 266.598437)" x="272.194932" y="266.598437">2000</text>
     </g>
    </g>
    <g id="xtick_6">
     <g id="line2d_6">
      <g>
       <use style="stroke:#000000;stroke-width:0.8;" x="322.939119" xlink:href="#m0fe75539da" y="252"/>
      </g>
     </g>
     <g id="text_6">
      <text style="font-family:DejaVu Sans;font-size:10px;font-style:normal;font-weight:normal;text-anchor:middle;" transform="rotate(-0, 322.939119, 266.598437)" x="322.939119" y="266.598437">2500</text>
     </g>
    </g>
    <g id="xtick_7">
     <g id="line2d_7">
      <g>
       <use style="stroke:#000000;stroke-width:0.8;" x="373.683307" xlink:href="#m0fe75539da" y="252"/>
      </g>
     </g>
     <g id="text_7">
      <text style="font-family:DejaVu Sans;font-size:10px;font-style:normal;font-weight:normal;text-anchor:middle;" transform="rotate(-0, 373.683307, 266.598437)" x="373.683307" y="266.598437">3000</text>
     </g>
    </g>
    <g id="text_8">
     <text style="font-family:DejaVu Sans;font-size:10px;font-style:normal;font-weight:normal;text-anchor:middle;" transform="rotate(-0, 221.4, 280.276563)" x="221.4" y="280.276563">Time</text>
    </g>
   </g>
   <g id="matplotlib.axis_2">
    <g id="ytick_1">
     <g id="line2d_8">
      <defs>
       <path d="M 0 0 
L -3.5 0 
" id="m03f2b20035" style="stroke:#000000;stroke-width:0.8;"/>
      </defs>
      <g>
       <use style="stroke:#000000;stroke-width:0.8;" x="54" xlink:href="#m03f2b20035" y="241.496704"/>
      </g>
     </g>
     <g id="text_9">
      <text style="font-family:DejaVu Sans;font-size:10px;font-style:normal;font-weight:normal;text-anchor:end;" transform="rotate(-0, 47, 245.295922)" x="47" y="245.295922">−10</text>
     </g>
    </g>
    <g id="ytick_2">
     <g id="line2d_9">
      <g>
       <use style="stroke:#000000;stroke-width:0.8;" x="54" xlink:href="#m03f2b20035" y="212.363656"/>
      </g>
     </g>
     <g id="text_10">
      <text style="font-family:DejaVu Sans;font-size:10px;font-style:normal;font-weight:normal;text-anchor:end;" transform="rotate(-0, 47, 216.162875)" x="47" y="216.162875">−8</text>
     </g>
    </g>
    <g id="ytick_3">
     <g id="line2d_10">
      <g>
       <use style="stroke:#000000;stroke-width:0.8;" x="54" xlink:href="#m03f2b20035" y="183.230608"/>
      </g>
     </g>
     <g id="text_11">
      <text style="font-family:DejaVu Sans;font-size:10px;font-style:normal;font-weight:normal;text-anchor:end;" transform="rotate(-0, 47, 187.029827)" x="47" y="187.029827">−6</text>
     </g>
    </g>
    <g id="ytick_4">
     <g id="line2d_11">
      <g>
       <use style="stroke:#000000;stroke-width:0.8;" x="54" xlink:href="#m03f2b20035" y="154.097561"/>
      </g>
     </g>
     <g id="text_12">
      <text style="font-family:DejaVu Sans;font-size:10px;font-style:normal;font-weight:normal;text-anchor:end;" transform="rotate(-0, 47, 157.89678)" x="47" y="157.89678">−4</text>
     </g>
    </g>
    <g id="ytick_5">
     <g id="line2d_12">
      <g>
       <use style="stroke:#000000;stroke-width:0.8;" x="54" xlink:href="#m03f2b20035" y="124.964513"/>
      </g>
     </g>
     <g id="text_13">
      <text style="font-family:DejaVu Sans;font-size:10px;font-style:normal;font-weight:normal;text-anchor:end;" transform="rotate(-0, 47, 128.763732)" x="47" y="128.763732">−2</text>
     </g>
    </g>
    <g id="ytick_6">
     <g id="line2d_13">
      <g>
       <use style="stroke:#000000;stroke-width:0.8;" x="54" xlink:href="#m03f2b20035" y="95.831465"/>
      </g>
     </g>
     <g id="text_14">
      <text style="font-family:DejaVu Sans;font-size:10px;font-style:normal;font-weight:normal;text-anchor:end;" transform="rotate(-0, 47, 99.630684)" x="47" y="99.630684">0</text>
     </g>
    </g>
    <g id="ytick_7">
     <g id="line2d_14">
      <g>
       <use style="stroke:#000000;stroke-width:0.8;" x="54" xlink:href="#m03f2b20035" y="66.698418"/>
      </g>
     </g>
     <g id="text_15">
      <text style="font-family:DejaVu Sans;font-size:10px;font-style:normal;font-weight:normal;text-anchor:end;" transform="rotate(-0, 47, 70.497637)" x="47" y="70.497637">2</text>
     </g>
    </g>
    <g id="ytick_8">
     <g id="line2d_15">
      <g>
       <use style="stroke:#000000;stroke-width:0.8;" x="54" xlink:href="#m03f2b20035" y="37.56537"/>
      </g>
     </g>
     <g id="text_16">
      <text style="font-family:DejaVu Sans;font-size:10px;font-style:normal;font-weight:normal;text-anchor:end;" transform="rotate(-0, 47, 41.364589)" x="47" y="41.364589">4</text>
     </g>
    </g>
    <g id="text_17">
     <text style="font-family:DejaVu Sans;font-size:10px;font-style:normal;font-weight:normal;text-anchor:middle;" transform="rotate(-90, 19.815625, 143.28)" x="19.815625" y="143.28">temperature (°C)</text>
    </g>
   </g>
   <g id="line2d_16">
    <path clip-path="url(#p1b05445040)" d="M 69.218182 92.893399 
L 72.059856 92.342964 
L 73.176228 92.338748 
L 74.089624 92.550164 
L 75.003019 93.020973 
L 75.814926 93.693457 
L 76.626833 94.634849 
L 77.540229 96.023484 
L 78.555112 97.977579 
L 79.772973 100.857141 
L 81.092322 104.574841 
L 82.716136 109.867208 
L 84.94888 118.017884 
L 91.951578 144.236636 
L 94.184322 151.372193 
L 95.909624 156.183982 
L 97.533438 160.05189 
L 99.055764 163.095652 
L 100.375113 165.256887 
L 101.592973 166.840283 
L 102.709346 167.959065 
L 103.825718 168.775315 
L 105.043578 169.384399 
L 106.15995 169.688373 
L 107.276322 169.767193 
L 108.494183 169.632423 
L 109.91502 169.240365 
L 111.741811 168.489184 
L 113.974555 167.296769 
L 122.39809 162.536531 
L 124.529346 161.667652 
L 127.168044 160.854913 
L 129.400788 160.407182 
L 131.430556 160.236506 
L 133.460323 160.287605 
L 135.388602 160.55981 
L 137.41837 161.093105 
L 139.448137 161.857061 
L 140.868975 162.595059 
L 142.695765 163.833315 
L 144.218091 165.136306 
L 145.740417 166.728427 
L 147.770184 169.240715 
L 149.393998 171.645269 
L 150.713347 173.881755 
L 151.931207 176.353753 
L 153.453533 180.004779 
L 155.178835 184.80943 
L 157.614556 192.256493 
L 161.268138 204.253103 
L 163.500882 212.42638 
L 165.53065 220.741286 
L 169.387208 236.745672 
L 170.300603 239.608445 
L 171.011022 241.182329 
L 171.518464 241.864654 
L 171.924417 242.102817 
L 172.228882 242.085337 
L 172.634836 241.784538 
L 173.040789 241.150909 
L 173.548231 239.874867 
L 174.157161 237.619212 
L 174.86758 234.017639 
L 175.780975 228.014934 
L 176.998836 218.211795 
L 181.362836 181.335096 
L 182.98665 170.080883 
L 184.508976 160.958102 
L 186.031301 153.073622 
L 187.553627 146.28112 
L 189.075953 140.431729 
L 190.699767 135.089806 
L 192.323581 130.534198 
L 194.048883 126.414144 
L 195.672697 123.11171 
L 197.397999 120.092535 
L 199.22479 117.352179 
L 201.051581 114.991819 
L 203.081348 112.734838 
L 205.212604 110.703143 
L 207.546837 108.794664 
L 209.982558 107.100813 
L 212.519767 105.608771 
L 215.056977 104.349313 
L 218.101628 103.09535 
L 221.146279 102.08102 
L 224.596884 101.168576 
L 229.671303 100.105739 
L 237.891861 98.358585 
L 247.127303 96.234898 
L 259.20442 93.739605 
L 263.365443 93.236732 
L 284.678002 91.248796 
L 289.853909 90.992423 
L 294.319397 90.966866 
L 299.190839 91.188252 
L 304.671212 91.676516 
L 320.40191 93.209673 
L 332.580515 94.163517 
L 338.669817 94.956401 
L 353.081166 97.0542 
L 358.155585 97.473092 
L 364.549353 97.766991 
L 370.537167 97.83357 
L 373.581818 97.803196 
L 373.581818 97.803196 
" style="fill:none;stroke:#40b5c4;stroke-dasharray:5.55,2.4;stroke-dashoffset:0;stroke-width:1.5;"/>
    <defs>
     <path d="M 0 3 
C 0.795609 3 1.55874 2.683901 2.12132 2.12132 
C 2.683901 1.55874 3 0.795609 3 0 
C 3 -0.795609 2.683901 -1.55874 2.12132 -2.12132 
C 1.55874 -2.683901 0.795609 -3 0 -3 
C -0.795609 -3 -1.55874 -2.683901 -2.12132 -2.12132 
C -2.683901 -1.55874 -3 -0.795609 -3 0 
C -3 0.795609 -2.683901 1.55874 -2.12132 2.12132 
C -1.55874 2.683901 -0.795609 3 0 3 
z
" id="m195309e078" style="stroke:#40b5c4;"/>
    </defs>
    <g clip-path="url(#p1b05445040)">
     <use style="fill:#40b5c4;stroke:#40b5c4;" x="69.218182" xlink:href="#m195309e078" y="92.893399"/>
     <use style="fill:#40b5c4;stroke:#40b5c4;" x="77.337252" xlink:href="#m195309e078" y="95.685682"/>
     <use style="fill:#40b5c4;stroke:#40b5c4;" x="85.456322" xlink:href="#m195309e078" y="119.956469"/>
     <use style="fill:#40b5c4;stroke:#40b5c4;" x="93.575392" xlink:href="#m195309e078" y="149.516768"/>
     <use style="fill:#40b5c4;stroke:#40b5c4;" x="101.694462" xlink:href="#m195309e078" y="166.954936"/>
     <use style="fill:#40b5c4;stroke:#40b5c4;" x="109.813532" xlink:href="#m195309e078" y="169.27499"/>
     <use style="fill:#40b5c4;stroke:#40b5c4;" x="117.932602" xlink:href="#m195309e078" y="164.912826"/>
     <use style="fill:#40b5c4;stroke:#40b5c4;" x="126.051672" xlink:href="#m195309e078" y="161.163665"/>
     <use style="fill:#40b5c4;stroke:#40b5c4;" x="134.170742" xlink:href="#m195309e078" y="160.359797"/>
     <use style="fill:#40b5c4;stroke:#40b5c4;" x="142.289812" xlink:href="#m195309e078" y="163.530521"/>
     <use style="fill:#40b5c4;stroke:#40b5c4;" x="150.408882" xlink:href="#m195309e078" y="173.327208"/>
     <use style="fill:#40b5c4;stroke:#40b5c4;" x="158.527952" xlink:href="#m195309e078" y="195.189666"/>
     <use style="fill:#40b5c4;stroke:#40b5c4;" x="166.647022" xlink:href="#m195309e078" y="225.526841"/>
     <use style="fill:#40b5c4;stroke:#40b5c4;" x="174.766092" xlink:href="#m195309e078" y="234.593395"/>
     <use style="fill:#40b5c4;stroke:#40b5c4;" x="182.885162" xlink:href="#m195309e078" y="170.737542"/>
     <use style="fill:#40b5c4;stroke:#40b5c4;" x="191.004232" xlink:href="#m195309e078" y="134.180112"/>
     <use style="fill:#40b5c4;stroke:#40b5c4;" x="199.123302" xlink:href="#m195309e078" y="117.494028"/>
     <use style="fill:#40b5c4;stroke:#40b5c4;" x="207.242372" xlink:href="#m195309e078" y="109.026349"/>
     <use style="fill:#40b5c4;stroke:#40b5c4;" x="215.361442" xlink:href="#m195309e078" y="104.212868"/>
     <use style="fill:#40b5c4;stroke:#40b5c4;" x="223.480512" xlink:href="#m195309e078" y="101.440447"/>
     <use style="fill:#40b5c4;stroke:#40b5c4;" x="231.599582" xlink:href="#m195309e078" y="99.735952"/>
     <use style="fill:#40b5c4;stroke:#40b5c4;" x="239.718652" xlink:href="#m195309e078" y="97.918239"/>
     <use style="fill:#40b5c4;stroke:#40b5c4;" x="247.837722" xlink:href="#m195309e078" y="96.082273"/>
     <use style="fill:#40b5c4;stroke:#40b5c4;" x="255.956792" xlink:href="#m195309e078" y="94.303309"/>
     <use style="fill:#40b5c4;stroke:#40b5c4;" x="264.075862" xlink:href="#m195309e078" y="93.168245"/>
     <use style="fill:#40b5c4;stroke:#40b5c4;" x="272.194932" xlink:href="#m195309e078" y="92.42163"/>
     <use style="fill:#40b5c4;stroke:#40b5c4;" x="280.314002" xlink:href="#m195309e078" y="91.627227"/>
     <use style="fill:#40b5c4;stroke:#40b5c4;" x="288.433072" xlink:href="#m195309e078" y="91.046351"/>
     <use style="fill:#40b5c4;stroke:#40b5c4;" x="296.552142" xlink:href="#m195309e078" y="91.02883"/>
     <use style="fill:#40b5c4;stroke:#40b5c4;" x="304.671212" xlink:href="#m195309e078" y="91.676516"/>
     <use style="fill:#40b5c4;stroke:#40b5c4;" x="312.790282" xlink:href="#m195309e078" y="92.562877"/>
     <use style="fill:#40b5c4;stroke:#40b5c4;" x="320.909352" xlink:href="#m195309e078" y="93.244215"/>
     <use style="fill:#40b5c4;stroke:#40b5c4;" x="329.028422" xlink:href="#m195309e078" y="93.825211"/>
     <use style="fill:#40b5c4;stroke:#40b5c4;" x="337.147492" xlink:href="#m195309e078" y="94.732593"/>
     <use style="fill:#40b5c4;stroke:#40b5c4;" x="345.266562" xlink:href="#m195309e078" y="96.002074"/>
     <use style="fill:#40b5c4;stroke:#40b5c4;" x="353.385632" xlink:href="#m195309e078" y="97.08666"/>
     <use style="fill:#40b5c4;stroke:#40b5c4;" x="361.504702" xlink:href="#m195309e078" y="97.662218"/>
     <use style="fill:#40b5c4;stroke:#40b5c4;" x="369.623772" xlink:href="#m195309e078" y="97.833478"/>
    </g>
   </g>
   <g id="line2d_17">
    <path clip-path="url(#p1b05445040)" d="M 69.218182 68.462685 
L 69.31967 68.400551 
L 69.421159 68.652252 
L 69.522647 68.441995 
L 69.624135 68.488578 
L 69.725624 68.334842 
L 69.827112 68.660526 
L 69.9286 68.327809 
L 70.131577 68.524887 
L 70.233066 68.193472 
L 70.334554 68.710024 
L 70.537531 68.41018 
L 70.639019 68.545728 
L 70.740507 68.264232 
L 70.841996 68.591597 
L 71.044973 68.441962 
L 71.146461 68.678162 
L 71.247949 68.114274 
L 71.349438 68.707879 
L 71.552414 68.335413 
L 71.653903 68.617267 
L 71.755391 68.235184 
L 71.85688 68.692329 
L 71.958368 68.269524 
L 72.161345 68.631576 
L 72.262833 68.279565 
L 72.364321 68.733892 
L 72.46581 68.219026 
L 72.567298 68.250052 
L 72.668787 68.640114 
L 72.770275 68.266045 
L 72.871763 68.612209 
L 73.07474 68.185162 
L 73.176228 68.636123 
L 73.277717 68.330546 
L 73.480694 68.479795 
L 73.582182 68.264499 
L 73.68367 68.516655 
L 73.785159 68.201248 
L 73.886647 68.576658 
L 74.089624 68.107564 
L 74.191112 68.645547 
L 74.394089 68.301597 
L 74.495577 68.465564 
L 74.597066 68.24284 
L 74.698554 68.59337 
L 74.800042 68.169077 
L 75.003019 68.411142 
L 75.104508 68.149055 
L 75.205996 68.588812 
L 75.408973 68.269335 
L 75.510461 68.45331 
L 75.611949 68.034167 
L 75.713438 68.626882 
L 75.814926 68.269764 
L 75.916415 68.317548 
L 76.017903 68.474528 
L 76.119391 67.935647 
L 76.22088 68.603768 
L 76.423856 68.243274 
L 76.525345 68.430799 
L 76.626833 68.092066 
L 76.728322 68.55821 
L 76.82981 68.154682 
L 77.032787 68.571676 
L 77.134275 68.092184 
L 77.235763 68.572286 
L 77.43874 68.175825 
L 77.540229 68.434152 
L 77.641717 68.201983 
L 77.743205 68.555616 
L 77.844694 68.143867 
L 77.946182 68.197176 
L 78.04767 68.589682 
L 78.149159 68.119862 
L 78.250647 68.561983 
L 78.453624 68.118858 
L 78.555112 68.432924 
L 78.656601 68.204046 
L 78.758089 68.518082 
L 78.961066 68.095317 
L 79.062554 68.623355 
L 79.164043 68.10107 
L 79.367019 68.440134 
L 79.468508 68.144339 
L 79.569996 68.584078 
L 79.671484 68.099474 
L 79.772973 68.482884 
L 79.97595 68.094372 
L 80.077438 68.564121 
L 80.178926 68.272126 
L 80.280415 68.345281 
L 80.483391 68.215086 
L 80.58488 68.634851 
L 80.686368 68.130284 
L 80.889345 68.376713 
L 80.990833 67.978151 
L 81.092322 68.642488 
L 81.295298 68.185424 
L 81.396787 68.463941 
L 81.498275 68.053001 
L 81.599764 68.595622 
L 81.701252 68.188935 
L 81.904229 68.405705 
L 82.005717 67.930162 
L 82.107205 68.547093 
L 82.310182 68.216257 
L 82.411671 68.479031 
L 82.513159 68.056844 
L 82.614647 68.526454 
L 82.716136 68.076917 
L 82.919112 68.495895 
L 83.020601 67.961913 
L 83.122089 68.549819 
L 83.325066 68.094741 
L 83.426554 68.417574 
L 83.528043 68.161718 
L 83.629531 68.352614 
L 83.731019 68.059306 
L 83.832508 68.115712 
L 83.933996 68.519954 
L 84.035485 68.032129 
L 84.136973 68.386923 
L 84.33995 67.955292 
L 84.441438 68.326451 
L 84.542926 68.059254 
L 84.644415 68.292519 
L 84.847392 67.886924 
L 84.94888 68.352442 
L 85.050368 68.029401 
L 85.253345 68.219478 
L 85.354833 67.981631 
L 85.456322 68.201186 
L 85.55781 67.931902 
L 85.760787 68.186448 
L 85.862275 67.864914 
L 85.963764 68.312797 
L 86.16674 67.96935 
L 86.268229 68.142764 
L 86.369717 67.854591 
L 86.471206 68.23752 
L 86.674182 67.868813 
L 86.775671 68.178568 
L 86.877159 67.678793 
L 86.978647 68.240387 
L 87.080136 67.788083 
L 87.181624 67.825248 
L 87.283113 67.948054 
L 87.384601 67.666688 
L 87.486089 68.149745 
L 87.587578 67.70794 
L 87.689066 67.733035 
L 87.790554 67.93116 
L 87.892043 67.593729 
L 87.993531 68.062482 
L 88.196508 67.477221 
L 88.297996 67.781055 
L 88.399485 67.393315 
L 88.500973 67.674599 
L 88.70395 67.401813 
L 88.805438 67.587887 
L 88.906927 67.062666 
L 89.008415 67.512377 
L 89.211392 67.053818 
L 89.31288 67.310041 
L 89.414368 66.776423 
L 89.515857 67.250522 
L 89.718834 66.721087 
L 89.820322 67.006378 
L 89.92181 66.490955 
L 90.023299 66.915601 
L 90.226275 66.485333 
L 90.327764 66.613689 
L 90.429252 66.291554 
L 90.530741 66.499686 
L 90.733717 65.963841 
L 90.835206 66.383677 
L 91.038182 65.952492 
L 91.139671 65.987256 
L 91.241159 65.707476 
L 91.342648 65.97434 
L 91.545624 65.703264 
L 91.748601 65.201679 
L 91.850089 65.664398 
L 92.053066 65.151155 
L 92.154555 65.105701 
L 92.256043 64.855483 
L 92.357531 65.325635 
L 92.45902 64.784622 
L 92.560508 64.807203 
L 92.661996 64.859741 
L 92.763485 64.40452 
L 92.864973 64.806126 
L 93.06795 64.24713 
L 93.169438 64.491274 
L 93.270927 63.898712 
L 93.372415 64.393493 
L 93.473903 63.848945 
L 93.67688 63.988161 
L 93.778369 63.486906 
L 93.879857 63.934191 
L 94.082834 63.395123 
L 94.184322 63.551381 
L 94.28581 63.008287 
L 94.387299 63.352795 
L 94.488787 62.83529 
L 94.590276 62.884088 
L 94.691764 63.044392 
L 94.793252 62.481513 
L 94.894741 62.990284 
L 95.097717 62.369692 
L 95.199206 62.457252 
L 95.300694 62.158795 
L 95.402183 62.297757 
L 95.503671 61.774265 
L 95.605159 61.818198 
L 95.706648 61.990024 
L 95.808136 61.455256 
L 95.909624 61.906681 
L 96.112601 61.177303 
L 96.21409 61.448098 
L 96.315578 61.042005 
L 96.417066 61.074623 
L 96.620043 60.647317 
L 96.721531 60.958297 
L 96.924508 60.382919 
L 97.025997 60.543785 
L 97.127485 60.05852 
L 97.228973 60.333767 
L 97.330462 59.694991 
L 97.43195 59.959374 
L 97.634927 59.381521 
L 97.736415 59.748522 
L 97.939392 59.231448 
L 98.142369 58.900593 
L 98.243857 59.235928 
L 98.446834 58.598535 
L 98.548322 58.619469 
L 98.649811 58.141851 
L 98.751299 58.546448 
L 98.954276 58.034118 
L 99.055764 58.07688 
L 99.157252 57.552353 
L 99.258741 58.053125 
L 99.461718 57.452954 
L 99.563206 57.253913 
L 99.664694 57.408494 
L 99.969159 56.859847 
L 100.172136 56.628355 
L 100.273625 56.64265 
L 100.476601 56.297413 
L 100.57809 56.156759 
L 100.679578 56.217164 
L 100.984043 55.748791 
L 101.288508 55.494513 
L 101.491485 55.261761 
L 101.694462 55.1449 
L 101.998927 54.690558 
L 102.506369 54.168104 
L 102.607857 54.255087 
L 102.912322 53.703051 
L 104.536136 52.060699 
L 104.637625 52.18312 
L 104.94209 51.751292 
L 105.55102 51.247321 
L 105.652508 51.33014 
L 105.855485 51.055157 
L 106.058462 50.84401 
L 106.565904 50.416569 
L 106.667392 50.415666 
L 106.971857 50.123801 
L 107.377811 49.758435 
L 107.479299 49.67316 
L 107.580788 49.811647 
L 107.783764 49.513451 
L 108.088229 49.240815 
L 108.189718 49.194629 
L 108.392695 49.014728 
L 109.204602 48.695669 
L 109.407578 48.585373 
L 112.147764 47.384454 
L 112.249253 47.43003 
L 112.553718 47.249458 
L 112.756695 47.225193 
L 115.090927 46.636059 
L 115.192416 46.687962 
L 115.395392 46.601569 
L 116.105811 46.385727 
L 116.207299 46.426242 
L 116.613253 46.239679 
L 117.120695 46.119443 
L 117.222183 46.17194 
L 117.526648 46.012748 
L 117.729625 45.967367 
L 117.831113 45.859862 
L 118.03409 45.890577 
L 121.890648 44.911843 
L 121.992137 44.69814 
L 122.093625 44.925835 
L 122.296602 44.70751 
L 122.601067 44.730042 
L 122.804044 44.598189 
L 122.905532 44.622013 
L 123.007021 44.443636 
L 123.108509 44.656423 
L 123.311486 44.509629 
L 123.615951 44.611334 
L 123.818928 44.567189 
L 123.920416 44.667849 
L 124.021904 44.543719 
L 124.123393 44.709065 
L 124.326369 44.638117 
L 125.036788 44.819581 
L 125.239765 45.006487 
L 126.457625 45.691543 
L 126.559114 45.685039 
L 126.76209 45.886528 
L 127.066556 46.036475 
L 127.371021 46.300445 
L 127.573997 46.34285 
L 127.878463 46.726567 
L 128.69037 47.282222 
L 129.2993 47.69417 
L 129.603765 47.7776 
L 130.111207 48.069063 
L 130.314184 48.232749 
L 130.51716 48.226456 
L 130.821625 48.469228 
L 131.430556 48.812919 
L 131.532044 48.727884 
L 131.836509 49.086756 
L 132.445439 49.437237 
L 132.546928 49.296757 
L 132.648416 49.569611 
L 132.749905 49.519956 
L 132.851393 49.777827 
L 132.952881 49.713439 
L 133.05437 49.84274 
L 133.155858 49.773049 
L 133.257346 50.107999 
L 133.358835 49.969037 
L 133.6633 50.2373 
L 133.764788 50.179555 
L 133.967765 50.486444 
L 134.576695 50.754988 
L 134.88116 51.079426 
L 135.084137 51.286524 
L 135.185626 51.127116 
L 135.287114 51.43537 
L 135.388602 51.389079 
L 135.591579 51.672693 
L 135.794556 51.827488 
L 135.997533 51.984222 
L 136.504974 52.275899 
L 136.707951 52.205663 
L 137.012416 52.304134 
L 137.113905 52.197616 
L 137.519858 52.441127 
L 138.0273 52.548288 
L 138.128788 52.431212 
L 138.433254 52.687309 
L 138.63623 52.731037 
L 138.737719 52.567677 
L 138.839207 53.018918 
L 138.940695 52.789261 
L 139.042184 52.890097 
L 139.143672 52.831707 
L 139.448137 53.352486 
L 139.549626 53.338532 
L 140.361533 54.718369 
L 145.53744 67.525338 
L 145.841905 68.340586 
L 146.14637 69.113271 
L 147.161254 71.795021 
L 147.465719 72.508324 
L 147.770184 73.347967 
L 147.871672 73.498951 
L 148.379114 74.907363 
L 149.495486 77.747251 
L 149.698463 78.219995 
L 152.337161 84.701004 
L 152.641626 85.443195 
L 154.26544 89.184329 
L 154.468417 89.620282 
L 154.975859 90.696491 
L 155.686277 92.171726 
L 156.295207 93.291367 
L 157.107114 94.897642 
L 157.208603 95.007745 
L 157.513068 95.753289 
L 157.614556 95.823289 
L 157.919021 96.448139 
L 158.02051 96.482014 
L 158.223487 96.427628 
L 158.324975 96.40007 
L 158.426463 96.671122 
L 158.527952 96.447354 
L 158.730928 96.578332 
L 158.832417 96.488439 
L 158.933905 96.637223 
L 159.136882 96.419328 
L 159.339859 96.554688 
L 159.542835 96.639973 
L 159.644324 96.41084 
L 159.745812 96.839694 
L 159.847301 96.539974 
L 159.948789 96.732669 
L 160.050277 96.476065 
L 160.253254 96.704889 
L 160.862184 96.764578 
L 160.963673 96.56949 
L 161.065161 96.815325 
L 161.166649 96.712155 
L 161.369626 96.810737 
L 161.471115 96.736097 
L 161.572603 96.952624 
L 161.674091 96.724254 
L 161.77558 96.816429 
L 161.877068 96.38523 
L 161.978556 96.842115 
L 162.080045 96.686045 
L 162.181533 96.786972 
L 162.283022 96.606067 
L 162.38451 96.759286 
L 162.485998 96.657539 
L 162.587487 96.730697 
L 162.891952 96.479236 
L 162.99344 96.750218 
L 163.196417 96.632482 
L 163.703859 96.408843 
L 163.805347 96.31424 
L 164.008324 96.679492 
L 164.109812 96.578138 
L 164.211301 96.532243 
L 164.312789 96.336008 
L 164.414277 96.600066 
L 164.718743 96.168863 
L 164.921719 96.476645 
L 165.023208 96.597517 
L 165.226184 96.375253 
L 165.327673 96.586712 
L 165.632138 96.309045 
L 165.936603 96.535035 
L 166.13958 96.48706 
L 166.241068 96.666107 
L 166.545533 96.28016 
L 166.647022 96.517184 
L 166.951487 96.444972 
L 167.255952 96.526506 
L 167.35744 96.456637 
L 167.458929 96.171103 
L 167.661905 96.515611 
L 167.966371 96.334098 
L 168.067859 96.691741 
L 168.169347 96.372679 
L 168.270836 96.456668 
L 168.372324 96.021917 
L 168.473812 96.396177 
L 168.575301 96.271808 
L 168.676789 96.345955 
L 168.879766 96.209594 
L 169.082743 96.374447 
L 169.285719 95.959025 
L 169.387208 96.085002 
L 169.691673 96.175733 
L 169.89465 96.006809 
L 170.097626 96.14665 
L 170.199115 95.784657 
L 170.402092 95.923042 
L 171.011022 95.83442 
L 171.11251 95.585755 
L 171.416975 95.747097 
L 171.619952 95.542482 
L 171.72144 95.798239 
L 171.924417 95.570106 
L 172.025906 95.351429 
L 172.127394 95.593479 
L 172.431859 95.433793 
L 172.634836 95.425955 
L 172.837813 95.353979 
L 172.939301 95.21502 
L 173.243766 95.323695 
L 173.345254 95.301218 
L 173.446743 95.136267 
L 173.548231 95.375525 
L 173.852696 94.99103 
L 174.157161 95.156789 
L 174.360138 95.030947 
L 174.461627 95.109564 
L 174.969068 94.919578 
L 175.172045 94.959027 
L 175.273534 94.730549 
L 175.375022 95.085702 
L 175.577999 94.758527 
L 175.679487 94.693299 
L 175.780975 94.846257 
L 175.882464 94.676413 
L 175.983952 94.781456 
L 176.085441 94.720905 
L 176.186929 94.806429 
L 176.592882 94.584256 
L 176.998836 94.585878 
L 177.303301 94.551916 
L 177.404789 94.374918 
L 177.506278 94.517339 
L 177.607766 94.382058 
L 177.709255 94.557049 
L 178.01372 94.309314 
L 178.115208 94.541556 
L 178.419673 94.30688 
L 178.724138 94.366944 
L 178.825627 94.286219 
L 179.028603 94.328617 
L 179.333069 94.24163 
L 179.739022 94.219379 
L 180.043487 94.187074 
L 180.144976 93.98006 
L 180.347952 94.242547 
L 180.550929 94.119366 
L 180.652417 94.070356 
L 180.855394 94.159086 
L 181.058371 93.999296 
L 181.362836 94.07078 
L 181.565813 93.994184 
L 181.667301 94.169188 
L 181.971766 93.881269 
L 182.174743 94.040447 
L 182.37772 93.9965 
L 182.479208 94.094729 
L 182.580697 93.920353 
L 182.682185 93.969919 
L 182.783673 93.776737 
L 182.885162 93.938676 
L 182.98665 93.877698 
L 183.088138 93.984793 
L 183.291115 93.958288 
L 183.59558 93.948261 
L 183.697069 93.701152 
L 183.900045 93.863779 
L 184.103022 93.839441 
L 184.204511 93.797804 
L 184.305999 94.066112 
L 184.508976 93.795956 
L 184.610464 93.751603 
L 184.813441 93.846209 
L 185.117906 93.793994 
L 185.320883 93.843369 
L 185.422371 93.626984 
L 185.625348 93.807726 
L 185.828325 93.790938 
L 185.929813 93.734249 
L 186.031301 93.883627 
L 186.234278 93.743609 
L 186.335766 93.687149 
L 186.538743 93.801839 
L 186.843208 93.709588 
L 186.944697 93.878306 
L 187.147673 93.642119 
L 187.35065 93.754857 
L 187.553627 93.775278 
L 187.655115 93.685173 
L 187.858092 93.780314 
L 188.162557 93.720757 
L 188.365534 93.722615 
L 188.771487 93.498527 
L 188.872976 93.080567 
L 188.974464 93.137947 
L 189.177441 93.119627 
L 189.278929 93.17011 
L 189.481906 92.665927 
L 189.583394 92.910737 
L 189.786371 92.260598 
L 189.88786 92.382828 
L 189.989348 92.201371 
L 190.090836 92.266492 
L 190.293813 92.008456 
L 190.395301 92.02845 
L 190.902743 91.317555 
L 191.004232 91.389424 
L 191.10572 91.241606 
L 191.207208 91.294373 
L 191.511674 90.693098 
L 191.613162 90.879205 
L 191.816139 90.681189 
L 192.019115 90.324804 
L 192.120604 90.515138 
L 192.425069 90.037659 
L 192.526557 89.910796 
L 192.628046 90.041597 
L 192.932511 89.631927 
L 193.236976 89.290319 
L 193.338464 89.296376 
L 193.439953 89.110592 
L 193.541441 89.158296 
L 194.25186 88.421458 
L 194.353348 88.518596 
L 194.556325 88.107543 
L 194.657813 88.32913 
L 194.962278 87.52017 
L 195.063767 87.739288 
L 195.571209 87.398555 
L 195.672697 87.302716 
L 195.774185 86.852329 
L 195.875674 87.054961 
L 196.07865 86.837055 
L 196.281627 86.646051 
L 196.383116 86.797481 
L 196.586092 86.5339 
L 196.890557 86.59933 
L 197.093534 86.48032 
L 197.195023 86.558839 
L 197.499488 86.324586 
L 197.702464 86.393698 
L 198.209906 86.314939 
L 198.311395 86.134697 
L 198.514371 86.206205 
L 199.021813 86.086819 
L 199.123302 86.180547 
L 199.427767 85.965895 
L 199.630744 86.000458 
L 200.036697 85.962662 
L 200.239674 85.799476 
L 200.442651 85.865142 
L 200.950092 85.775648 
L 201.051581 85.606315 
L 201.254558 85.742305 
L 201.457534 85.652797 
L 201.559023 85.718564 
L 201.863488 85.419214 
L 202.066465 85.533387 
L 202.269441 85.517262 
L 202.37093 85.454208 
L 202.472418 85.572489 
L 202.675395 85.340976 
L 202.97986 85.44307 
L 203.182837 85.259123 
L 203.284325 85.407722 
L 203.690279 85.217135 
L 203.893255 85.222726 
L 203.994744 85.14867 
L 204.096232 85.309324 
L 204.299209 85.064854 
L 204.806651 85.012152 
L 204.908139 85.103681 
L 205.314093 84.901282 
L 205.517069 84.961322 
L 206.73493 84.919578 
L 206.836418 84.822315 
L 207.039395 84.959478 
L 207.95279 84.929767 
L 208.155767 84.89724 
L 208.257255 84.826667 
L 208.460232 84.926083 
L 208.764697 84.869269 
L 208.967674 84.909812 
L 209.170651 84.895618 
L 210.591488 84.893493 
L 210.692976 84.790229 
L 210.997442 84.887141 
L 211.301907 84.896747 
L 211.910837 84.904019 
L 212.215302 84.88837 
L 212.31679 84.807784 
L 212.621256 84.88786 
L 213.027209 84.886231 
L 213.128697 84.792986 
L 213.331674 84.93173 
L 213.534651 84.866828 
L 213.839116 84.903686 
L 214.042093 84.857041 
L 214.24507 84.883852 
L 215.158465 84.901147 
L 215.46293 84.849862 
L 215.665907 84.882782 
L 215.868884 84.90231 
L 217.492698 84.847824 
L 217.695674 84.912042 
L 218.000139 84.858659 
L 218.203116 84.88506 
L 219.116512 84.894587 
L 219.218 84.976725 
L 219.522465 84.879771 
L 220.131395 84.975567 
L 220.232884 84.819861 
L 220.43586 84.926201 
L 220.841814 84.910725 
L 221.755209 84.927727 
L 221.856698 84.84231 
L 222.161163 84.95347 
L 222.36414 84.944645 
L 222.567116 84.824364 
L 222.770093 84.963865 
L 222.97307 84.91307 
L 223.176047 84.904398 
L 223.379023 84.853722 
L 223.582 84.950169 
L 224.292419 84.900373 
L 224.495395 84.979045 
L 225.104326 84.914684 
L 225.611768 84.902937 
L 226.119209 84.943189 
L 226.322186 84.934022 
L 226.525163 84.927314 
L 226.829628 85.004264 
L 227.33707 84.957933 
L 227.438558 85.023715 
L 227.641535 84.942131 
L 227.844512 85.017504 
L 227.946 84.86585 
L 228.148977 85.000481 
L 228.453442 84.973401 
L 230.077256 85.023613 
L 230.280233 84.964231 
L 230.889163 85.01231 
L 230.990651 84.904007 
L 231.193628 85.01466 
L 232.512977 84.94479 
L 232.817442 85.051558 
L 232.918931 84.988578 
L 233.121907 85.031778 
L 233.223396 84.943701 
L 233.527861 85.016014 
L 234.339768 85.043874 
L 234.745721 85.020552 
L 235.151675 84.978652 
L 235.253163 85.119634 
L 235.557628 85.021646 
L 236.06507 85.019876 
L 236.268047 85.003878 
L 236.876977 84.996458 
L 237.079954 85.000285 
L 237.282931 85.0323 
L 237.485907 85.011074 
L 237.891861 84.957125 
L 237.993349 84.864351 
L 238.196326 84.975202 
L 238.500791 85.034799 
L 238.805256 84.897297 
L 239.312698 84.978027 
L 239.515675 84.843911 
L 239.718652 84.997146 
L 239.921628 84.937882 
L 240.226094 84.753485 
L 240.42907 84.916798 
L 240.632047 84.883986 
L 240.733535 84.97113 
L 240.936512 84.716853 
L 241.038001 84.828082 
L 242.255861 84.792446 
L 242.357349 84.657004 
L 242.661815 84.757232 
L 242.96628 84.75194 
L 243.270745 84.668013 
L 243.372233 84.760427 
L 243.57521 84.762909 
L 243.778187 84.660756 
L 243.981163 84.661576 
L 244.18414 84.685551 
L 244.590094 84.593416 
L 245.199024 84.601447 
L 245.300512 84.506037 
L 245.706466 84.646619 
L 245.909443 84.567485 
L 246.010931 84.487351 
L 246.213908 84.63138 
L 246.315396 84.519333 
L 246.518373 84.631455 
L 246.822838 84.522132 
L 247.127303 84.664838 
L 247.33028 84.557528 
L 247.533257 84.617235 
L 247.736233 84.473827 
L 247.93921 84.590676 
L 248.142187 84.599077 
L 248.852605 84.566813 
L 249.461536 84.491756 
L 249.563024 84.631122 
L 249.766001 84.468142 
L 249.867489 84.54836 
L 249.968978 84.451519 
L 250.273443 84.5428 
L 250.577908 84.51552 
L 250.679396 84.560057 
L 250.882373 84.49803 
L 250.983861 84.594421 
L 251.288326 84.478113 
L 251.795768 84.489931 
L 251.897257 84.351011 
L 252.100233 84.498464 
L 252.506187 84.523289 
L 252.607675 84.373651 
L 252.810652 84.495785 
L 253.216606 84.45711 
L 253.318094 84.369139 
L 253.521071 84.488263 
L 253.622559 84.526029 
L 253.724047 84.402471 
L 253.825536 84.567284 
L 254.130001 84.419356 
L 254.535954 84.578974 
L 254.738931 84.27529 
L 254.941908 84.499923 
L 255.144885 84.48832 
L 255.246373 84.314347 
L 255.44935 84.530415 
L 255.652327 84.515551 
L 255.753815 84.499669 
L 255.855303 84.262548 
L 256.05828 84.486853 
L 256.261257 84.392868 
L 256.362745 84.564573 
L 256.464234 84.50774 
L 256.565722 84.306592 
L 256.768699 84.461205 
L 257.276141 84.288875 
L 257.479117 84.486031 
L 258.189536 84.477035 
L 258.291024 84.52755 
L 258.595489 84.34093 
L 258.899955 84.431277 
L 259.001443 84.393656 
L 259.20442 84.440355 
L 259.305908 84.320671 
L 259.508885 84.46021 
L 259.81335 84.482989 
L 259.914838 84.508647 
L 260.016327 84.243732 
L 260.219303 84.437516 
L 260.42228 84.468186 
L 260.828234 84.406524 
L 261.234187 84.479384 
L 261.437164 84.398881 
L 261.640141 84.431465 
L 261.741629 84.378624 
L 261.843117 84.538959 
L 262.046094 84.291405 
L 262.249071 84.507023 
L 262.350559 84.419245 
L 262.553536 84.449414 
L 262.858001 84.361509 
L 263.060978 84.447475 
L 263.162466 84.411908 
L 263.263955 84.52107 
L 263.466931 84.305448 
L 263.669908 84.450409 
L 264.075862 84.300886 
L 264.17735 84.484576 
L 264.278838 84.351995 
L 264.380327 84.499133 
L 264.481815 84.36194 
L 264.78628 84.512068 
L 264.989257 84.312892 
L 265.192234 84.470816 
L 265.395211 84.405683 
L 265.598187 84.447506 
L 265.699676 84.278103 
L 266.105629 84.433316 
L 266.207118 84.449618 
L 266.410094 84.366816 
L 266.917536 84.369077 
L 267.019025 84.332396 
L 267.222001 84.47 
L 267.32349 84.212583 
L 267.526466 84.41576 
L 267.830932 84.387205 
L 267.93242 84.392938 
L 268.033908 84.285081 
L 268.236885 84.431845 
L 268.338373 84.326754 
L 268.54135 84.392085 
L 268.642839 84.232599 
L 268.744327 84.423954 
L 269.048792 84.318268 
L 269.251769 84.432593 
L 269.454746 84.263187 
L 269.556234 84.455101 
L 269.962187 84.251928 
L 270.266653 84.400816 
L 270.368141 84.290519 
L 270.469629 84.423635 
L 270.774094 84.366015 
L 271.180048 84.389571 
L 271.281536 84.181077 
L 271.484513 84.352841 
L 271.586001 84.399517 
L 271.68749 84.280399 
L 271.788978 84.443443 
L 271.991955 84.188741 
L 272.29642 84.38832 
L 272.397908 84.305606 
L 272.499397 84.380749 
L 272.600885 84.192732 
L 272.803862 84.312819 
L 273.209815 84.418604 
L 273.311304 84.145215 
L 273.615769 84.330982 
L 273.717257 84.286091 
L 273.818746 84.367787 
L 273.920234 84.167405 
L 274.224699 84.37248 
L 274.326188 84.248917 
L 274.529164 84.337484 
L 274.630653 84.113577 
L 274.833629 84.336513 
L 275.645536 84.178305 
L 275.747025 84.427547 
L 275.950002 84.164056 
L 276.152978 84.414923 
L 276.254467 84.242627 
L 276.355955 84.342627 
L 276.558932 84.193294 
L 276.761909 84.289581 
L 276.863397 84.23103 
L 277.066374 84.310218 
L 277.26935 84.171613 
L 277.472327 84.291544 
L 277.675304 84.317507 
L 277.776792 84.326 
L 277.878281 84.090978 
L 278.081257 84.320925 
L 278.284234 84.264965 
L 278.385723 84.287612 
L 278.588699 84.217296 
L 278.690188 84.306831 
L 278.893164 84.224601 
L 278.994653 84.357797 
L 279.19763 84.165167 
L 279.299118 84.165584 
L 279.400606 84.372307 
L 279.705071 84.192513 
L 279.80656 84.123499 
L 280.009537 84.277756 
L 280.212513 84.225424 
L 280.314002 84.355355 
L 280.41549 84.130945 
L 280.719955 84.289823 
L 280.821444 84.148914 
L 280.922932 84.35448 
L 281.125909 84.109982 
L 281.328885 84.341677 
L 281.430374 84.20504 
L 281.633351 84.254336 
L 281.734839 84.109145 
L 281.937816 84.245559 
L 282.039304 84.204272 
L 282.242281 84.279763 
L 282.445258 84.188382 
L 282.648234 84.229906 
L 282.749723 84.125097 
L 282.851211 84.295373 
L 283.054188 84.208594 
L 283.155676 84.150675 
L 283.257165 84.380187 
L 283.460141 84.159722 
L 283.866095 84.276455 
L 284.069072 84.087943 
L 284.272048 84.287241 
L 284.678002 84.038529 
L 284.77949 84.268855 
L 284.982467 84.179389 
L 285.185444 84.317132 
L 285.286932 84.06961 
L 285.591397 84.206571 
L 285.692886 84.177388 
L 285.794374 84.28635 
L 285.997351 84.092647 
L 286.200327 84.239493 
L 286.606281 84.085415 
L 287.113723 84.216011 
L 287.3167 84.157766 
L 287.722653 84.235202 
L 287.92563 84.118085 
L 288.027118 84.253281 
L 288.230095 84.246302 
L 288.53456 84.149723 
L 288.737537 84.145873 
L 288.839025 84.148013 
L 288.940514 84.331333 
L 289.244979 84.052634 
L 289.346467 84.240919 
L 289.447955 84.135013 
L 289.650932 84.186956 
L 289.752421 84.029362 
L 289.955397 84.249585 
L 290.056886 84.146 
L 290.259862 84.201003 
L 290.361351 84.029079 
L 290.564328 84.212679 
L 290.767304 84.181799 
L 290.868793 84.248207 
L 290.970281 84.056503 
L 291.173258 84.190063 
L 291.274746 84.125676 
L 291.477723 84.187957 
L 291.6807 84.079605 
L 291.782188 84.268999 
L 291.883676 84.085243 
L 292.086653 84.218623 
L 292.28963 84.074244 
L 292.492607 84.153349 
L 292.594095 84.0942 
L 292.695583 84.233214 
L 292.89856 84.052273 
L 293.101537 84.162901 
L 293.203025 84.109345 
L 293.304514 84.268992 
L 293.50749 83.986051 
L 293.710467 84.247299 
L 293.811956 84.132921 
L 293.913444 84.217966 
L 294.217909 84.094866 
L 294.319397 84.216502 
L 294.522374 84.141838 
L 295.232793 84.133159 
L 295.334281 83.965436 
L 295.638746 84.184359 
L 295.841723 84.138603 
L 295.943211 84.006703 
L 296.349165 84.1372 
L 296.755118 84.155219 
L 296.856607 83.935148 
L 297.059583 84.159298 
L 297.161072 84.062183 
L 297.364049 84.127021 
L 297.465537 84.007468 
L 297.668514 84.129142 
L 297.972979 84.096228 
L 298.074467 83.964508 
L 298.277444 84.117489 
L 298.581909 84.058923 
L 298.683397 83.963874 
L 298.886374 84.121665 
L 299.292328 83.949939 
L 299.495304 84.139896 
L 299.901258 83.999189 
L 300.4087 84.083065 
L 300.510188 83.95032 
L 300.916142 84.114449 
L 301.01763 84.066493 
L 301.119118 83.871227 
L 301.322095 84.069603 
L 301.829537 83.968587 
L 302.134002 84.100883 
L 302.235491 84.075757 
L 302.336979 83.884525 
L 302.539956 84.053506 
L 302.641444 84.000913 
L 302.742932 84.106053 
L 302.945909 83.908634 
L 303.148886 84.017885 
L 303.250374 83.968691 
L 303.351863 84.094582 
L 303.554839 83.953016 
L 303.757816 83.978379 
L 303.859305 83.930262 
L 303.960793 84.088796 
L 304.16377 83.934594 
L 304.468235 84.032246 
L 304.7727 83.890073 
L 304.975677 84.017026 
L 305.38163 83.945506 
L 305.686095 83.967155 
L 305.787584 83.99224 
L 305.889072 83.883102 
L 306.092049 83.970605 
L 306.396514 83.963755 
L 306.498002 83.821204 
L 306.700979 83.999394 
L 306.802467 83.921144 
L 306.903956 83.996097 
L 307.106933 83.82286 
L 307.309909 84.013063 
L 307.411398 83.906278 
L 307.614374 83.921889 
L 307.715863 83.824671 
L 307.91884 83.932236 
L 308.020328 83.876961 
L 308.121816 83.994029 
L 308.324793 83.859428 
L 308.730747 83.90699 
L 308.832235 83.77221 
L 309.035212 83.945121 
L 309.74563 83.843069 
L 309.847119 83.942565 
L 310.151584 83.884083 
L 310.253072 83.934401 
L 310.354561 83.82705 
L 310.456049 83.939718 
L 310.659026 83.713448 
L 310.862002 83.8717 
L 310.963491 83.843923 
L 311.064979 83.9531 
L 311.267956 83.727871 
L 311.470933 83.867316 
L 311.673909 83.877425 
L 311.775398 83.745345 
L 311.978375 83.89402 
L 312.181351 83.898372 
L 312.28284 83.895183 
L 312.384328 83.71663 
L 312.587305 83.857625 
L 313.297723 83.842616 
L 313.399212 83.964258 
L 313.602189 83.837667 
L 313.805165 83.91071 
L 314.211119 83.876602 
L 314.312607 83.93892 
L 314.515584 83.89284 
L 314.921537 83.917893 
L 315.023026 83.850134 
L 315.124514 83.975136 
L 315.428979 83.884877 
L 315.631956 84.03143 
L 315.834933 83.822771 
L 316.139398 83.946044 
L 316.443863 83.822761 
L 316.64684 83.956983 
L 317.458747 84.040479 
L 317.560235 83.88874 
L 317.661724 84.005391 
L 317.8647 83.983301 
L 317.966189 84.057579 
L 318.169165 83.906639 
L 318.575119 84.101692 
L 318.778096 83.943382 
L 318.981072 84.022304 
L 319.590003 83.97169 
L 319.691491 84.086166 
L 319.995956 83.940456 
L 320.097445 84.067017 
L 320.198933 83.992613 
L 320.300421 84.122501 
L 320.503398 83.972852 
L 320.807863 84.039553 
L 320.909352 84.03645 
L 321.01084 83.901028 
L 321.213817 84.107003 
L 321.416793 83.923823 
L 321.61977 84.06767 
L 321.924235 83.935106 
L 322.127212 84.008738 
L 322.431677 84.081397 
L 322.533166 83.892388 
L 322.736142 84.056102 
L 322.837631 83.988041 
L 322.939119 84.104617 
L 323.040607 83.906456 
L 323.345073 84.094846 
L 323.751026 83.982361 
L 323.852514 84.066828 
L 323.954003 83.983846 
L 324.055491 84.097626 
L 324.15698 83.96309 
L 324.359956 84.045836 
L 324.867398 84.006215 
L 324.968887 84.093996 
L 325.070375 83.978414 
L 325.171863 84.100345 
L 325.273352 83.944818 
L 325.476328 84.009387 
L 325.780794 84.045068 
L 325.98377 83.987475 
L 326.085259 84.06544 
L 326.389724 83.92343 
L 326.592701 84.175977 
L 326.795677 83.918563 
L 326.897166 84.091006 
L 326.998654 83.934787 
L 327.303119 84.044597 
L 327.404608 83.910076 
L 327.607584 84.016567 
L 327.709073 83.839317 
L 327.912049 84.052278 
L 328.013538 83.833213 
L 328.216515 84.038852 
L 328.318003 83.804383 
L 328.52098 83.874728 
L 328.723956 83.871901 
L 328.825445 83.987781 
L 329.028422 83.763685 
L 329.12991 83.890714 
L 329.434375 83.821076 
L 329.535863 83.843394 
L 329.637352 83.645381 
L 329.840329 83.808344 
L 329.941817 83.589622 
L 330.144794 83.728073 
L 330.246282 83.61073 
L 330.449259 83.882037 
L 330.550747 83.534511 
L 330.753724 83.689634 
L 330.956701 83.608887 
L 331.159677 83.671576 
L 331.261166 83.472313 
L 331.464143 83.64357 
L 331.565631 83.399373 
L 331.768608 83.623694 
L 331.870096 83.41787 
L 332.073073 83.641229 
L 332.27605 83.444495 
L 332.377538 83.501337 
L 332.479026 83.372314 
L 332.682003 83.5354 
L 332.88498 83.279415 
L 332.986468 83.516828 
L 333.087957 83.460678 
L 333.189445 83.237938 
L 333.392422 83.457707 
L 333.49391 83.250439 
L 333.696887 83.445844 
L 333.899864 83.238678 
L 334.001352 83.323916 
L 334.10284 83.224462 
L 334.305817 83.376976 
L 334.508794 83.107446 
L 334.610282 83.336746 
L 334.813259 83.071433 
L 335.016236 83.253458 
L 335.117724 83.07635 
L 335.320701 83.290959 
L 335.422189 83.018201 
L 335.625166 83.151204 
L 335.726654 83.016793 
L 335.929631 83.166394 
L 336.132608 82.952676 
L 336.335585 83.126793 
L 336.437073 82.840076 
L 336.64005 83.080564 
L 336.741538 82.876514 
L 336.944515 83.120285 
L 337.147492 82.8638 
L 337.24898 82.979784 
L 337.350468 82.855785 
L 337.553445 82.968698 
L 337.756422 82.782237 
L 337.959399 82.910741 
L 338.060887 82.711141 
L 338.263864 82.876667 
L 338.46684 82.796173 
L 338.568329 82.967495 
L 338.771306 82.706653 
L 338.872794 82.853906 
L 338.974282 82.6188 
L 339.177259 82.78204 
L 339.380236 82.685165 
L 339.481724 82.845201 
L 339.684701 82.547647 
L 339.786189 82.712205 
L 340.090654 82.662448 
L 340.192143 82.657604 
L 340.293631 82.495909 
L 340.496608 82.714616 
L 340.699585 82.405241 
L 340.801073 82.627509 
L 341.00405 82.499822 
L 341.105538 82.572305 
L 341.308515 82.362617 
L 341.410003 82.570692 
L 341.714468 82.422848 
L 341.815957 82.482333 
L 341.917445 82.346966 
L 342.120422 82.523802 
L 342.323399 82.279975 
L 342.424887 82.419002 
L 342.627864 82.269847 
L 342.830841 82.379343 
L 342.932329 82.206272 
L 343.135306 82.428894 
L 343.338282 82.166837 
L 343.439771 82.309089 
L 343.541259 82.171475 
L 343.744236 82.310432 
L 343.947213 82.054691 
L 344.150189 82.225162 
L 344.251678 81.967793 
L 344.454655 82.213023 
L 344.556143 82.046884 
L 344.75912 82.258063 
L 344.962096 81.956175 
L 345.063585 82.167177 
L 345.266562 81.913971 
L 345.469538 82.110332 
L 345.571027 81.889536 
L 345.774003 82.154877 
L 345.97698 81.853525 
L 346.078469 82.038692 
L 346.281445 81.893035 
L 346.382934 82.013483 
L 346.484422 81.95016 
L 346.58591 81.731164 
L 346.788887 81.954724 
L 346.991864 81.721618 
L 347.093352 81.94594 
L 347.194841 81.723441 
L 347.397817 81.932054 
L 347.600794 81.64755 
L 347.702283 81.874362 
L 347.905259 81.596356 
L 348.108236 81.802185 
L 348.209724 81.617022 
L 348.412701 81.867444 
L 348.615678 81.555399 
L 348.717166 81.746963 
L 348.818655 81.697343 
L 348.920143 81.492014 
L 349.12312 81.687358 
L 349.224608 81.489876 
L 349.427585 81.778169 
L 349.630562 81.446076 
L 349.73205 81.617232 
L 349.935027 81.488498 
L 350.138004 81.555235 
L 350.239492 81.354002 
L 350.442469 81.612359 
L 350.645445 81.347105 
L 350.746934 81.512363 
L 350.949911 81.379426 
L 351.152887 81.414068 
L 351.254376 81.268957 
L 351.457352 81.452165 
L 351.558841 81.215242 
L 352.066283 81.378101 
L 352.269259 81.142767 
L 352.472236 81.343295 
L 352.675213 81.12218 
L 352.776701 81.26357 
L 352.87819 81.128693 
L 353.081166 81.318446 
L 353.284143 81.066453 
L 353.385632 81.230771 
L 353.690097 81.128825 
L 353.893073 81.079255 
L 353.994562 81.09051 
L 354.09605 81.227807 
L 354.299027 81.068705 
L 354.502004 81.163525 
L 354.70498 81.145119 
L 355.313911 81.071373 
L 355.415399 81.240386 
L 355.719864 81.151505 
L 356.328794 81.265097 
L 356.531771 81.159246 
L 356.734748 81.194413 
L 356.937725 81.181598 
L 357.343678 81.275743 
L 357.546655 81.176953 
L 357.749632 81.259534 
L 357.85112 81.151731 
L 358.054097 81.259774 
L 358.257074 81.256171 
L 358.358562 81.310495 
L 358.561539 81.192087 
L 358.764515 81.263582 
L 358.866004 81.198202 
L 359.068981 81.249544 
L 359.271957 81.277058 
L 359.373446 81.383134 
L 359.576422 81.219873 
L 359.677911 81.335389 
L 359.982376 81.266294 
L 360.489818 81.312473 
L 360.692795 81.308366 
L 360.99726 81.356752 
L 361.707678 81.326821 
L 362.012143 81.405068 
L 362.21512 81.378149 
L 362.621074 81.31652 
L 362.925539 81.441489 
L 363.331492 81.38157 
L 363.432981 81.44707 
L 363.635957 81.395655 
L 364.447864 81.484499 
L 364.650841 81.416259 
L 364.853818 81.436898 
L 365.97019 81.5392 
L 366.071678 81.417984 
L 366.376144 81.512978 
L 366.57912 81.488185 
L 367.086562 81.493295 
L 367.289539 81.469406 
L 367.492516 81.448921 
L 367.898469 81.471498 
L 368.101446 81.448634 
L 368.405911 81.490673 
L 368.608888 81.448075 
L 371.755027 81.488022 
L 371.958004 81.370398 
L 372.160981 81.42693 
L 372.262469 81.449186 
L 372.363958 81.327938 
L 372.566934 81.456744 
L 372.8714 81.344393 
L 373.175865 81.406389 
L 373.48033 81.371326 
L 373.581818 81.431389 
L 373.581818 81.431389 
" style="fill:none;stroke:#081d58;stroke-dasharray:5.55,2.4;stroke-dashoffset:0;stroke-width:1.5;"/>
    <defs>
     <path d="M -0 4.242641 
L 4.242641 0 
L 0 -4.242641 
L -4.242641 -0 
z
" id="mfbe9aeb835" style="stroke:#081d58;stroke-linejoin:miter;"/>
    </defs>
    <g clip-path="url(#p1b05445040)">
     <use style="fill:#081d58;stroke:#081d58;stroke-linejoin:miter;" x="69.218182" xlink:href="#mfbe9aeb835" y="68.462685"/>
     <use style="fill:#081d58;stroke:#081d58;stroke-linejoin:miter;" x="77.337252" xlink:href="#mfbe9aeb835" y="68.179181"/>
     <use style="fill:#081d58;stroke:#081d58;stroke-linejoin:miter;" x="85.456322" xlink:href="#mfbe9aeb835" y="68.201186"/>
     <use style="fill:#081d58;stroke:#081d58;stroke-linejoin:miter;" x="93.575392" xlink:href="#mfbe9aeb835" y="63.978523"/>
     <use style="fill:#081d58;stroke:#081d58;stroke-linejoin:miter;" x="101.694462" xlink:href="#mfbe9aeb835" y="55.1449"/>
     <use style="fill:#081d58;stroke:#081d58;stroke-linejoin:miter;" x="109.813532" xlink:href="#mfbe9aeb835" y="48.396404"/>
     <use style="fill:#081d58;stroke:#081d58;stroke-linejoin:miter;" x="117.932602" xlink:href="#mfbe9aeb835" y="45.931308"/>
     <use style="fill:#081d58;stroke:#081d58;stroke-linejoin:miter;" x="126.051672" xlink:href="#mfbe9aeb835" y="45.428927"/>
     <use style="fill:#081d58;stroke:#081d58;stroke-linejoin:miter;" x="134.170742" xlink:href="#mfbe9aeb835" y="50.573733"/>
     <use style="fill:#081d58;stroke:#081d58;stroke-linejoin:miter;" x="142.289812" xlink:href="#mfbe9aeb835" y="59.422262"/>
     <use style="fill:#081d58;stroke:#081d58;stroke-linejoin:miter;" x="150.408882" xlink:href="#mfbe9aeb835" y="80.018493"/>
     <use style="fill:#081d58;stroke:#081d58;stroke-linejoin:miter;" x="158.527952" xlink:href="#mfbe9aeb835" y="96.447354"/>
     <use style="fill:#081d58;stroke:#081d58;stroke-linejoin:miter;" x="166.647022" xlink:href="#mfbe9aeb835" y="96.517184"/>
     <use style="fill:#081d58;stroke:#081d58;stroke-linejoin:miter;" x="174.766092" xlink:href="#mfbe9aeb835" y="94.813528"/>
     <use style="fill:#081d58;stroke:#081d58;stroke-linejoin:miter;" x="182.885162" xlink:href="#mfbe9aeb835" y="93.938676"/>
     <use style="fill:#081d58;stroke:#081d58;stroke-linejoin:miter;" x="191.004232" xlink:href="#mfbe9aeb835" y="91.389424"/>
     <use style="fill:#081d58;stroke:#081d58;stroke-linejoin:miter;" x="199.123302" xlink:href="#mfbe9aeb835" y="86.180547"/>
     <use style="fill:#081d58;stroke:#081d58;stroke-linejoin:miter;" x="207.242372" xlink:href="#mfbe9aeb835" y="84.917911"/>
     <use style="fill:#081d58;stroke:#081d58;stroke-linejoin:miter;" x="215.361442" xlink:href="#mfbe9aeb835" y="84.888071"/>
     <use style="fill:#081d58;stroke:#081d58;stroke-linejoin:miter;" x="223.480512" xlink:href="#mfbe9aeb835" y="84.978703"/>
     <use style="fill:#081d58;stroke:#081d58;stroke-linejoin:miter;" x="231.599582" xlink:href="#mfbe9aeb835" y="85.020095"/>
     <use style="fill:#081d58;stroke:#081d58;stroke-linejoin:miter;" x="239.718652" xlink:href="#mfbe9aeb835" y="84.997146"/>
     <use style="fill:#081d58;stroke:#081d58;stroke-linejoin:miter;" x="247.837722" xlink:href="#mfbe9aeb835" y="84.582426"/>
     <use style="fill:#081d58;stroke:#081d58;stroke-linejoin:miter;" x="255.956792" xlink:href="#mfbe9aeb835" y="84.468587"/>
     <use style="fill:#081d58;stroke:#081d58;stroke-linejoin:miter;" x="264.075862" xlink:href="#mfbe9aeb835" y="84.300886"/>
     <use style="fill:#081d58;stroke:#081d58;stroke-linejoin:miter;" x="272.194932" xlink:href="#mfbe9aeb835" y="84.367236"/>
     <use style="fill:#081d58;stroke:#081d58;stroke-linejoin:miter;" x="280.314002" xlink:href="#mfbe9aeb835" y="84.355355"/>
     <use style="fill:#081d58;stroke:#081d58;stroke-linejoin:miter;" x="288.433072" xlink:href="#mfbe9aeb835" y="84.076604"/>
     <use style="fill:#081d58;stroke:#081d58;stroke-linejoin:miter;" x="296.552142" xlink:href="#mfbe9aeb835" y="84.067401"/>
     <use style="fill:#081d58;stroke:#081d58;stroke-linejoin:miter;" x="304.671212" xlink:href="#mfbe9aeb835" y="83.873759"/>
     <use style="fill:#081d58;stroke:#081d58;stroke-linejoin:miter;" x="312.790282" xlink:href="#mfbe9aeb835" y="83.926329"/>
     <use style="fill:#081d58;stroke:#081d58;stroke-linejoin:miter;" x="320.909352" xlink:href="#mfbe9aeb835" y="84.03645"/>
     <use style="fill:#081d58;stroke:#081d58;stroke-linejoin:miter;" x="329.028422" xlink:href="#mfbe9aeb835" y="83.763685"/>
     <use style="fill:#081d58;stroke:#081d58;stroke-linejoin:miter;" x="337.147492" xlink:href="#mfbe9aeb835" y="82.8638"/>
     <use style="fill:#081d58;stroke:#081d58;stroke-linejoin:miter;" x="345.266562" xlink:href="#mfbe9aeb835" y="81.913971"/>
     <use style="fill:#081d58;stroke:#081d58;stroke-linejoin:miter;" x="353.385632" xlink:href="#mfbe9aeb835" y="81.230771"/>
     <use style="fill:#081d58;stroke:#081d58;stroke-linejoin:miter;" x="361.504702" xlink:href="#mfbe9aeb835" y="81.336492"/>
     <use style="fill:#081d58;stroke:#081d58;stroke-linejoin:miter;" x="369.623772" xlink:href="#mfbe9aeb835" y="81.475689"/>
    </g>
   </g>
   <g id="patch_3">
    <path d="M 54 252 
L 54 34.56 
" style="fill:none;stroke:#000000;stroke-linecap:square;stroke-linejoin:miter;stroke-width:0.8;"/>
   </g>
   <g id="patch_4">
    <path d="M 388.8 252 
L 388.8 34.56 
" style="fill:none;stroke:#000000;stroke-linecap:square;stroke-linejoin:miter;stroke-width:0.8;"/>
   </g>
   <g id="patch_5">
    <path d="M 54 252 
L 388.8 252 
" style="fill:none;stroke:#000000;stroke-linecap:square;stroke-linejoin:miter;stroke-width:0.8;"/>
   </g>
   <g id="patch_6">
    <path d="M 54 34.56 
L 388.8 34.56 
" style="fill:none;stroke:#000000;stroke-linecap:square;stroke-linejoin:miter;stroke-width:0.8;"/>
   </g>
   <g id="legend_1">
    <g id="patch_7">
     <path d="M 280.085938 71.91625 
L 381.8 71.91625 
Q 383.8 71.91625 383.8 69.91625 
L 383.8 41.56 
Q 383.8 39.56 381.8 39.56 
L 280.085938 39.56 
Q 278.085938 39.56 278.085938 41.56 
L 278.085938 69.91625 
Q 278.085938 71.91625 280.085938 71.91625 
z
" style="fill:#ffffff;opacity:0.8;stroke:#cccccc;stroke-linejoin:miter;"/>
    </g>
    <g id="line2d_18">
     <path d="M 282.085938 47.658437 
L 302.085938 47.658437 
" style="fill:none;stroke:#40b5c4;stroke-dasharray:5.55,2.4;stroke-dashoffset:0;stroke-width:1.5;"/>
    </g>
    <g id="line2d_19">
     <g>
      <use style="fill:#40b5c4;stroke:#40b5c4;" x="292.085938" xlink:href="#m195309e078" y="47.658437"/>
     </g>
    </g>
    <g id="text_18">
     <text style="font-family:DejaVu Sans;font-size:10px;font-style:normal;font-weight:normal;text-anchor:start;" transform="rotate(-0, 310.085938, 51.158437)" x="310.085938" y="51.158437">original</text>
    </g>
    <g id="line2d_20">
     <path d="M 282.085938 62.336562 
L 302.085938 62.336562 
" style="fill:none;stroke:#081d58;stroke-dasharray:5.55,2.4;stroke-dashoffset:0;stroke-width:1.5;"/>
    </g>
    <g id="line2d_21">
     <g>
      <use style="fill:#081d58;stroke:#081d58;stroke-linejoin:miter;" x="292.085938" xlink:href="#mfbe9aeb835" y="62.336562"/>
     </g>
    </g>
    <g id="text_19">
     <text style="font-family:DejaVu Sans;font-size:10px;font-style:normal;font-weight:normal;text-anchor:start;" transform="rotate(-0, 310.085938, 65.836562)" x="310.085938" y="65.836562">reconstructed</text>
    </g>
   </g>
  </g>
  <g id="text_20">
   <text style="font-family:DejaVu Sans;font-size:12px;font-style:normal;font-weight:normal;text-anchor:middle;" transform="rotate(-0, 216, 14.878125)" x="216" y="14.878125">Reconstruction of the temperature curve</text>
  </g>
 </g>
 <defs>
  <clipPath id="p1b05445040">
   <rect height="217.44" width="334.8" x="54" y="34.56"/>
  </clipPath>
 </defs>
</svg>
