<?xml version="1.0" encoding="utf-8" standalone="no"?>
<!DOCTYPE svg PUBLIC "-//W3C//DTD SVG 1.1//EN"
  "http://www.w3.org/Graphics/SVG/1.1/DTD/svg11.dtd">
<!-- Created with matplotlib (https://matplotlib.org/) -->
<svg height="288pt" version="1.1" viewBox="0 0 432 288" width="432pt" xmlns="http://www.w3.org/2000/svg" xmlns:xlink="http://www.w3.org/1999/xlink">
 <defs>
  <style type="text/css">
*{stroke-linecap:butt;stroke-linejoin:round;}
  </style>
 </defs>
 <g id="figure_1">
  <g id="patch_1">
   <path d="M 0 288 
L 432 288 
L 432 0 
L 0 0 
z
" style="fill:#ffffff;"/>
  </g>
  <g id="axes_1">
   <g id="patch_2">
    <path d="M 54 252 
L 388.8 252 
L 388.8 34.56 
L 54 34.56 
z
" style="fill:#ffffff;"/>
   </g>
   <g id="matplotlib.axis_1">
    <g id="xtick_1">
     <g id="line2d_1">
      <defs>
       <path d="M 0 0 
L 0 3.5 
" id="m546e96fee8" style="stroke:#000000;stroke-width:0.8;"/>
      </defs>
      <g>
       <use style="stroke:#000000;stroke-width:0.8;" x="69.218182" xlink:href="#m546e96fee8" y="252"/>
      </g>
     </g>
     <g id="text_1">
      <text style="font-family:DejaVu Sans;font-size:10px;font-style:normal;font-weight:normal;text-anchor:middle;" transform="rotate(-0, 69.218182, 266.598437)" x="69.218182" y="266.598437">0</text>
     </g>
    </g>
    <g id="xtick_2">
     <g id="line2d_2">
      <g>
       <use style="stroke:#000000;stroke-width:0.8;" x="119.962369" xlink:href="#m546e96fee8" y="252"/>
      </g>
     </g>
     <g id="text_2">
      <text style="font-family:DejaVu Sans;font-size:10px;font-style:normal;font-weight:normal;text-anchor:middle;" transform="rotate(-0, 119.962369, 266.598437)" x="119.962369" y="266.598437">500</text>
     </g>
    </g>
    <g id="xtick_3">
     <g id="line2d_3">
      <g>
       <use style="stroke:#000000;stroke-width:0.8;" x="170.706557" xlink:href="#m546e96fee8" y="252"/>
      </g>
     </g>
     <g id="text_3">
      <text style="font-family:DejaVu Sans;font-size:10px;font-style:normal;font-weight:normal;text-anchor:middle;" transform="rotate(-0, 170.706557, 266.598437)" x="170.706557" y="266.598437">1000</text>
     </g>
    </g>
    <g id="xtick_4">
     <g id="line2d_4">
      <g>
       <use style="stroke:#000000;stroke-width:0.8;" x="221.450744" xlink:href="#m546e96fee8" y="252"/>
      </g>
     </g>
     <g id="text_4">
      <text style="font-family:DejaVu Sans;font-size:10px;font-style:normal;font-weight:normal;text-anchor:middle;" transform="rotate(-0, 221.450744, 266.598437)" x="221.450744" y="266.598437">1500</text>
     </g>
    </g>
    <g id="xtick_5">
     <g id="line2d_5">
      <g>
       <use style="stroke:#000000;stroke-width:0.8;" x="272.194932" xlink:href="#m546e96fee8" y="252"/>
      </g>
     </g>
     <g id="text_5">
      <text style="font-family:DejaVu Sans;font-size:10px;font-style:normal;font-weight:normal;text-anchor:middle;" transform="rotate(-0, 272.194932, 266.598437)" x="272.194932" y="266.598437">2000</text>
     </g>
    </g>
    <g id="xtick_6">
     <g id="line2d_6">
      <g>
       <use style="stroke:#000000;stroke-width:0.8;" x="322.939119" xlink:href="#m546e96fee8" y="252"/>
      </g>
     </g>
     <g id="text_6">
      <text style="font-family:DejaVu Sans;font-size:10px;font-style:normal;font-weight:normal;text-anchor:middle;" transform="rotate(-0, 322.939119, 266.598437)" x="322.939119" y="266.598437">2500</text>
     </g>
    </g>
    <g id="xtick_7">
     <g id="line2d_7">
      <g>
       <use style="stroke:#000000;stroke-width:0.8;" x="373.683307" xlink:href="#m546e96fee8" y="252"/>
      </g>
     </g>
     <g id="text_7">
      <text style="font-family:DejaVu Sans;font-size:10px;font-style:normal;font-weight:normal;text-anchor:middle;" transform="rotate(-0, 373.683307, 266.598437)" x="373.683307" y="266.598437">3000</text>
     </g>
    </g>
    <g id="text_8">
     <text style="font-family:DejaVu Sans;font-size:10px;font-style:normal;font-weight:normal;text-anchor:middle;" transform="rotate(-0, 221.4, 280.276563)" x="221.4" y="280.276563">Time</text>
    </g>
   </g>
   <g id="matplotlib.axis_2">
    <g id="ytick_1">
     <g id="line2d_8">
      <defs>
       <path d="M 0 0 
L -3.5 0 
" id="m1a5cde4542" style="stroke:#000000;stroke-width:0.8;"/>
      </defs>
      <g>
       <use style="stroke:#000000;stroke-width:0.8;" x="54" xlink:href="#m1a5cde4542" y="251.032033"/>
      </g>
     </g>
     <g id="text_9">
      <text style="font-family:DejaVu Sans;font-size:10px;font-style:normal;font-weight:normal;text-anchor:end;" transform="rotate(-0, 47, 254.831252)" x="47" y="254.831252">62</text>
     </g>
    </g>
    <g id="ytick_2">
     <g id="line2d_9">
      <g>
       <use style="stroke:#000000;stroke-width:0.8;" x="54" xlink:href="#m1a5cde4542" y="224.081005"/>
      </g>
     </g>
     <g id="text_10">
      <text style="font-family:DejaVu Sans;font-size:10px;font-style:normal;font-weight:normal;text-anchor:end;" transform="rotate(-0, 47, 227.880224)" x="47" y="227.880224">64</text>
     </g>
    </g>
    <g id="ytick_3">
     <g id="line2d_10">
      <g>
       <use style="stroke:#000000;stroke-width:0.8;" x="54" xlink:href="#m1a5cde4542" y="197.129976"/>
      </g>
     </g>
     <g id="text_11">
      <text style="font-family:DejaVu Sans;font-size:10px;font-style:normal;font-weight:normal;text-anchor:end;" transform="rotate(-0, 47, 200.929195)" x="47" y="200.929195">66</text>
     </g>
    </g>
    <g id="ytick_4">
     <g id="line2d_11">
      <g>
       <use style="stroke:#000000;stroke-width:0.8;" x="54" xlink:href="#m1a5cde4542" y="170.178948"/>
      </g>
     </g>
     <g id="text_12">
      <text style="font-family:DejaVu Sans;font-size:10px;font-style:normal;font-weight:normal;text-anchor:end;" transform="rotate(-0, 47, 173.978167)" x="47" y="173.978167">68</text>
     </g>
    </g>
    <g id="ytick_5">
     <g id="line2d_12">
      <g>
       <use style="stroke:#000000;stroke-width:0.8;" x="54" xlink:href="#m1a5cde4542" y="143.227919"/>
      </g>
     </g>
     <g id="text_13">
      <text style="font-family:DejaVu Sans;font-size:10px;font-style:normal;font-weight:normal;text-anchor:end;" transform="rotate(-0, 47, 147.027138)" x="47" y="147.027138">70</text>
     </g>
    </g>
    <g id="ytick_6">
     <g id="line2d_13">
      <g>
       <use style="stroke:#000000;stroke-width:0.8;" x="54" xlink:href="#m1a5cde4542" y="116.276891"/>
      </g>
     </g>
     <g id="text_14">
      <text style="font-family:DejaVu Sans;font-size:10px;font-style:normal;font-weight:normal;text-anchor:end;" transform="rotate(-0, 47, 120.07611)" x="47" y="120.07611">72</text>
     </g>
    </g>
    <g id="ytick_7">
     <g id="line2d_14">
      <g>
       <use style="stroke:#000000;stroke-width:0.8;" x="54" xlink:href="#m1a5cde4542" y="89.325862"/>
      </g>
     </g>
     <g id="text_15">
      <text style="font-family:DejaVu Sans;font-size:10px;font-style:normal;font-weight:normal;text-anchor:end;" transform="rotate(-0, 47, 93.125081)" x="47" y="93.125081">74</text>
     </g>
    </g>
    <g id="ytick_8">
     <g id="line2d_15">
      <g>
       <use style="stroke:#000000;stroke-width:0.8;" x="54" xlink:href="#m1a5cde4542" y="62.374834"/>
      </g>
     </g>
     <g id="text_16">
      <text style="font-family:DejaVu Sans;font-size:10px;font-style:normal;font-weight:normal;text-anchor:end;" transform="rotate(-0, 47, 66.174053)" x="47" y="66.174053">76</text>
     </g>
    </g>
    <g id="ytick_9">
     <g id="line2d_16">
      <g>
       <use style="stroke:#000000;stroke-width:0.8;" x="54" xlink:href="#m1a5cde4542" y="35.423805"/>
      </g>
     </g>
     <g id="text_17">
      <text style="font-family:DejaVu Sans;font-size:10px;font-style:normal;font-weight:normal;text-anchor:end;" transform="rotate(-0, 47, 39.223024)" x="47" y="39.223024">78</text>
     </g>
    </g>
    <g id="text_18">
     <text style="font-family:DejaVu Sans;font-size:10px;font-style:normal;font-weight:normal;text-anchor:middle;" transform="rotate(-90, 28.195312, 143.28)" x="28.195312" y="143.28">weight (\%)</text>
    </g>
   </g>
   <g id="line2d_17">
    <path clip-path="url(#pd3437c25fb)" d="M 69.218182 150.370885 
L 83.629531 150.652523 
L 88.906927 150.921629 
L 93.169438 151.359449 
L 97.43195 152.010586 
L 110.422462 154.123816 
L 126.559114 156.483783 
L 130.923114 157.382195 
L 134.475207 158.327233 
L 137.722835 159.425622 
L 140.260044 160.494365 
L 142.797254 161.831271 
L 144.92851 163.191085 
L 146.958277 164.757209 
L 148.683579 166.355944 
L 150.307393 168.145088 
L 152.032696 170.383102 
L 153.859486 173.131972 
L 155.787766 176.456112 
L 157.817533 180.428694 
L 159.847301 184.900273 
L 161.77558 189.683138 
L 163.60237 194.820273 
L 165.632138 201.225859 
L 168.270836 210.423841 
L 171.416975 221.270147 
L 172.736324 225.048008 
L 173.751208 227.357711 
L 174.664603 228.898501 
L 175.47651 229.859575 
L 176.389906 230.614743 
L 177.810743 231.472324 
L 179.941999 232.486492 
L 182.682185 233.554696 
L 185.726836 234.521294 
L 189.989348 235.62413 
L 196.586092 237.045123 
L 203.284325 238.293765 
L 209.779581 239.303485 
L 216.477814 240.099888 
L 223.987954 240.746443 
L 233.020419 241.28452 
L 244.387117 241.733255 
L 258.088048 242.042114 
L 273.108327 242.110973 
L 336.64005 241.494064 
L 373.581818 241.047621 
L 373.581818 241.047621 
" style="fill:none;stroke:#40b5c4;stroke-dasharray:5.55,2.4;stroke-dashoffset:0;stroke-width:1.5;"/>
    <defs>
     <path d="M 0 3 
C 0.795609 3 1.55874 2.683901 2.12132 2.12132 
C 2.683901 1.55874 3 0.795609 3 0 
C 3 -0.795609 2.683901 -1.55874 2.12132 -2.12132 
C 1.55874 -2.683901 0.795609 -3 0 -3 
C -0.795609 -3 -1.55874 -2.683901 -2.12132 -2.12132 
C -2.683901 -1.55874 -3 -0.795609 -3 0 
C -3 0.795609 -2.683901 1.55874 -2.12132 2.12132 
C -1.55874 2.683901 -0.795609 3 0 3 
z
" id="m05961fa088" style="stroke:#40b5c4;"/>
    </defs>
    <g clip-path="url(#pd3437c25fb)">
     <use style="fill:#40b5c4;stroke:#40b5c4;" x="69.218182" xlink:href="#m05961fa088" y="150.370885"/>
     <use style="fill:#40b5c4;stroke:#40b5c4;" x="77.337252" xlink:href="#m05961fa088" y="150.509818"/>
     <use style="fill:#40b5c4;stroke:#40b5c4;" x="85.456322" xlink:href="#m05961fa088" y="150.72071"/>
     <use style="fill:#40b5c4;stroke:#40b5c4;" x="93.575392" xlink:href="#m05961fa088" y="151.412677"/>
     <use style="fill:#40b5c4;stroke:#40b5c4;" x="101.694462" xlink:href="#m05961fa088" y="152.755108"/>
     <use style="fill:#40b5c4;stroke:#40b5c4;" x="109.813532" xlink:href="#m05961fa088" y="154.036629"/>
     <use style="fill:#40b5c4;stroke:#40b5c4;" x="117.932602" xlink:href="#m05961fa088" y="155.151324"/>
     <use style="fill:#40b5c4;stroke:#40b5c4;" x="126.051672" xlink:href="#m05961fa088" y="156.394305"/>
     <use style="fill:#40b5c4;stroke:#40b5c4;" x="134.170742" xlink:href="#m05961fa088" y="158.236678"/>
     <use style="fill:#40b5c4;stroke:#40b5c4;" x="142.289812" xlink:href="#m05961fa088" y="161.543704"/>
     <use style="fill:#40b5c4;stroke:#40b5c4;" x="150.408882" xlink:href="#m05961fa088" y="168.267042"/>
     <use style="fill:#40b5c4;stroke:#40b5c4;" x="158.527952" xlink:href="#m05961fa088" y="181.935526"/>
     <use style="fill:#40b5c4;stroke:#40b5c4;" x="166.647022" xlink:href="#m05961fa088" y="204.684619"/>
     <use style="fill:#40b5c4;stroke:#40b5c4;" x="174.766092" xlink:href="#m05961fa088" y="229.038647"/>
     <use style="fill:#40b5c4;stroke:#40b5c4;" x="182.885162" xlink:href="#m05961fa088" y="233.626655"/>
     <use style="fill:#40b5c4;stroke:#40b5c4;" x="191.004232" xlink:href="#m05961fa088" y="235.859143"/>
     <use style="fill:#40b5c4;stroke:#40b5c4;" x="199.123302" xlink:href="#m05961fa088" y="237.537788"/>
     <use style="fill:#40b5c4;stroke:#40b5c4;" x="207.242372" xlink:href="#m05961fa088" y="238.936681"/>
     <use style="fill:#40b5c4;stroke:#40b5c4;" x="215.361442" xlink:href="#m05961fa088" y="239.983324"/>
     <use style="fill:#40b5c4;stroke:#40b5c4;" x="223.480512" xlink:href="#m05961fa088" y="240.708981"/>
     <use style="fill:#40b5c4;stroke:#40b5c4;" x="231.599582" xlink:href="#m05961fa088" y="241.210001"/>
     <use style="fill:#40b5c4;stroke:#40b5c4;" x="239.718652" xlink:href="#m05961fa088" y="241.57357"/>
     <use style="fill:#40b5c4;stroke:#40b5c4;" x="247.837722" xlink:href="#m05961fa088" y="241.829605"/>
     <use style="fill:#40b5c4;stroke:#40b5c4;" x="255.956792" xlink:href="#m05961fa088" y="242.009368"/>
     <use style="fill:#40b5c4;stroke:#40b5c4;" x="264.075862" xlink:href="#m05961fa088" y="242.101541"/>
     <use style="fill:#40b5c4;stroke:#40b5c4;" x="272.194932" xlink:href="#m05961fa088" y="242.114477"/>
     <use style="fill:#40b5c4;stroke:#40b5c4;" x="280.314002" xlink:href="#m05961fa088" y="242.076746"/>
     <use style="fill:#40b5c4;stroke:#40b5c4;" x="288.433072" xlink:href="#m05961fa088" y="242.020822"/>
     <use style="fill:#40b5c4;stroke:#40b5c4;" x="296.552142" xlink:href="#m05961fa088" y="241.998453"/>
     <use style="fill:#40b5c4;stroke:#40b5c4;" x="304.671212" xlink:href="#m05961fa088" y="241.930806"/>
     <use style="fill:#40b5c4;stroke:#40b5c4;" x="312.790282" xlink:href="#m05961fa088" y="241.809122"/>
     <use style="fill:#40b5c4;stroke:#40b5c4;" x="320.909352" xlink:href="#m05961fa088" y="241.69458"/>
     <use style="fill:#40b5c4;stroke:#40b5c4;" x="329.028422" xlink:href="#m05961fa088" y="241.593244"/>
     <use style="fill:#40b5c4;stroke:#40b5c4;" x="337.147492" xlink:href="#m05961fa088" y="241.486249"/>
     <use style="fill:#40b5c4;stroke:#40b5c4;" x="345.266562" xlink:href="#m05961fa088" y="241.42224"/>
     <use style="fill:#40b5c4;stroke:#40b5c4;" x="353.385632" xlink:href="#m05961fa088" y="241.283307"/>
     <use style="fill:#40b5c4;stroke:#40b5c4;" x="361.504702" xlink:href="#m05961fa088" y="241.157985"/>
     <use style="fill:#40b5c4;stroke:#40b5c4;" x="369.623772" xlink:href="#m05961fa088" y="241.070933"/>
    </g>
   </g>
   <g id="line2d_18">
    <path clip-path="url(#pd3437c25fb)" d="M 69.218182 44.952443 
L 69.31967 45.14367 
L 69.421159 45.729584 
L 69.522647 45.329859 
L 69.624135 45.549667 
L 69.725624 44.443636 
L 69.827112 45.868172 
L 69.9286 44.814678 
L 70.131577 45.705732 
L 70.233066 44.598879 
L 70.334554 46.014059 
L 70.537531 44.845829 
L 70.639019 45.55347 
L 70.740507 44.578934 
L 70.841996 45.903744 
L 70.943484 44.77818 
L 71.044973 45.063786 
L 71.146461 45.70676 
L 71.247949 44.786919 
L 71.349438 46.123141 
L 71.450926 45.080956 
L 71.552414 45.114266 
L 71.653903 45.355047 
L 71.755391 44.713513 
L 71.85688 45.718995 
L 72.059856 45.07818 
L 72.161345 45.345794 
L 72.262833 44.944116 
L 72.364321 45.624307 
L 72.46581 45.1594 
L 72.668787 45.750557 
L 72.770275 45.061422 
L 72.871763 45.48942 
L 73.07474 44.923862 
L 73.176228 45.780269 
L 73.277717 44.635274 
L 73.480694 45.58822 
L 73.582182 44.947508 
L 73.68367 46.063717 
L 73.785159 45.062964 
L 73.886647 45.740893 
L 74.089624 44.447132 
L 74.191112 46.080783 
L 74.292601 45.139146 
L 74.394089 45.356281 
L 74.495577 45.24977 
L 74.597066 44.786199 
L 74.698554 45.820057 
L 74.800042 45.115397 
L 74.901531 45.806692 
L 75.003019 45.542675 
L 75.104508 44.921909 
L 75.205996 46.066904 
L 75.307484 44.952546 
L 75.408973 45.145726 
L 75.510461 45.662346 
L 75.611949 44.900627 
L 75.713438 45.919988 
L 75.814926 44.81807 
L 76.017903 45.633148 
L 76.119391 45.304362 
L 76.22088 46.120365 
L 76.423856 45.147268 
L 76.525345 45.762175 
L 76.626833 44.895384 
L 76.728322 45.992572 
L 76.931298 44.684829 
L 77.032787 46.050763 
L 77.134275 44.930442 
L 77.235763 46.141235 
L 77.337252 45.786027 
L 77.43874 44.965089 
L 77.540229 46.076362 
L 77.641717 44.871018 
L 77.743205 45.863751 
L 77.844694 45.031093 
L 78.04767 45.902202 
L 78.149159 44.906281 
L 78.250647 45.810907 
L 78.453624 45.357206 
L 78.555112 46.034004 
L 78.656601 45.34199 
L 78.758089 45.945485 
L 78.961066 45.074273 
L 79.062554 46.061866 
L 79.164043 45.192093 
L 79.265531 45.59809 
L 79.367019 45.544218 
L 79.468508 45.129482 
L 79.569996 45.985067 
L 79.671484 45.718378 
L 79.772973 46.008816 
L 79.97595 44.895178 
L 80.077438 46.111832 
L 80.280415 45.461764 
L 80.381903 45.899015 
L 80.483391 44.883663 
L 80.58488 46.078213 
L 80.686368 45.286884 
L 80.787857 45.90724 
L 80.889345 45.762997 
L 80.990833 45.239591 
L 81.092322 46.467966 
L 81.19381 45.35515 
L 81.295298 45.401826 
L 81.396787 45.928419 
L 81.498275 45.349084 
L 81.599764 45.911352 
L 81.701252 45.339214 
L 81.904229 45.952065 
L 82.005717 45.532806 
L 82.107205 46.388288 
L 82.310182 45.139455 
L 82.411671 46.351893 
L 82.513159 45.231058 
L 82.614647 46.29216 
L 82.817624 45.175952 
L 82.919112 46.21238 
L 83.020601 45.357515 
L 83.122089 46.597506 
L 83.325066 45.555013 
L 83.426554 46.356417 
L 83.528043 45.669851 
L 83.629531 46.155732 
L 83.731019 45.579584 
L 83.832508 45.687638 
L 83.933996 46.332256 
L 84.035485 45.438426 
L 84.136973 46.41142 
L 84.238461 45.851414 
L 84.441438 46.493976 
L 84.542926 45.658131 
L 84.644415 46.463442 
L 84.847392 45.551209 
L 84.94888 46.379446 
L 85.050368 46.354155 
L 85.151857 46.053024 
L 85.253345 46.161386 
L 85.354833 45.811318 
L 85.456322 46.926704 
L 85.55781 46.152133 
L 85.760787 46.534998 
L 85.862275 45.535376 
L 85.963764 46.995689 
L 86.065252 46.179583 
L 86.268229 46.461694 
L 86.369717 45.75796 
L 86.471206 47.154428 
L 86.572694 46.144936 
L 86.674182 46.879206 
L 86.877159 45.916595 
L 86.978647 47.123482 
L 87.181624 46.632256 
L 87.283113 46.875504 
L 87.384601 46.182359 
L 87.486089 47.148979 
L 87.587578 46.548877 
L 87.689066 46.571906 
L 87.790554 47.41135 
L 87.892043 45.812449 
L 87.993531 47.666113 
L 88.196508 46.830782 
L 88.297996 47.810047 
L 88.399485 46.74473 
L 88.500973 47.586539 
L 88.70395 46.799836 
L 88.805438 47.737772 
L 88.906927 47.005251 
L 89.008415 48.040959 
L 89.109903 47.788971 
L 89.211392 47.164709 
L 89.31288 48.1815 
L 89.414368 47.476737 
L 89.515857 48.158059 
L 89.617345 47.615428 
L 89.718834 47.809019 
L 89.820322 48.582768 
L 89.92181 48.055147 
L 90.023299 48.691746 
L 90.226275 47.967758 
L 90.327764 48.771527 
L 90.429252 48.323789 
L 90.530741 48.95422 
L 90.733717 48.113029 
L 90.835206 49.411313 
L 90.936694 48.6242 
L 91.038182 49.698256 
L 91.241159 49.150999 
L 91.342648 49.543219 
L 91.444136 49.17228 
L 91.545624 49.791916 
L 91.748601 49.069162 
L 91.850089 50.025192 
L 91.951578 49.651889 
L 92.053066 49.872622 
L 92.154555 50.666521 
L 92.256043 49.824096 
L 92.357531 50.891161 
L 92.45902 49.821423 
L 92.661996 50.703224 
L 92.763485 50.070737 
L 92.864973 51.581633 
L 92.966462 50.205624 
L 93.169438 51.345478 
L 93.270927 50.853327 
L 93.372415 52.118712 
L 93.473903 50.874197 
L 93.67688 51.661927 
L 93.778369 51.026356 
L 93.879857 52.166108 
L 93.981345 51.99349 
L 94.082834 51.331188 
L 94.184322 52.119329 
L 94.28581 51.750653 
L 94.387299 52.936669 
L 94.488787 52.126115 
L 94.590276 52.195614 
L 94.691764 53.125531 
L 94.793252 51.752503 
L 94.894741 53.340404 
L 94.996229 52.503736 
L 95.097717 53.057265 
L 95.300694 52.790576 
L 95.503671 53.398697 
L 95.605159 53.371452 
L 95.706648 54.100992 
L 95.808136 53.232967 
L 95.909624 54.085057 
L 96.112601 53.468505 
L 96.21409 54.981046 
L 96.315578 53.483618 
L 96.417066 54.909901 
L 96.620043 54.129059 
L 96.721531 55.305309 
L 96.82302 54.271246 
L 96.924508 55.304178 
L 97.127485 54.656783 
L 97.228973 55.556885 
L 97.330462 55.517611 
L 97.43195 55.870455 
L 97.634927 55.144514 
L 97.736415 56.225047 
L 97.837904 55.861922 
L 97.939392 55.996295 
L 98.04088 56.384403 
L 98.142369 55.385603 
L 98.243857 57.099549 
L 98.345345 56.147631 
L 98.446834 57.18262 
L 98.548322 57.13471 
L 98.649811 56.464492 
L 98.751299 57.465553 
L 98.852787 57.124635 
L 98.954276 57.257774 
L 99.055764 57.69667 
L 99.157252 57.341564 
L 99.258741 57.965929 
L 99.360229 57.671995 
L 99.461718 57.877718 
L 99.563206 58.79941 
L 99.664694 58.733406 
L 99.766183 58.590192 
L 99.867671 58.824907 
L 99.969159 58.699479 
L 100.273625 59.386764 
L 100.375113 59.113597 
L 100.679578 60.745501 
L 100.781066 60.037243 
L 100.882555 60.436351 
L 101.085532 60.21058 
L 101.288508 60.875453 
L 101.389997 60.47912 
L 101.592973 61.338303 
L 101.694462 61.491387 
L 101.79595 62.06003 
L 101.897439 61.667398 
L 102.303392 62.192346 
L 102.40488 62.591043 
L 102.506369 62.304717 
L 102.709346 63.112701 
L 102.810834 63.011125 
L 102.912322 63.516128 
L 103.013811 63.304956 
L 103.115299 63.746319 
L 103.216787 63.408177 
L 103.419764 63.820137 
L 103.521253 64.396696 
L 103.622741 63.9322 
L 103.724229 64.678601 
L 103.825718 64.622878 
L 104.028694 64.94128 
L 104.130183 65.015612 
L 104.231671 65.476612 
L 104.33316 64.572295 
L 104.434648 65.557832 
L 104.536136 65.240457 
L 104.637625 66.36633 
L 104.739113 65.269347 
L 104.840601 66.382574 
L 104.94209 65.780416 
L 105.043578 66.480243 
L 105.145067 65.890936 
L 105.55102 67.145527 
L 105.652508 67.291928 
L 105.753997 67.010435 
L 105.855485 67.21698 
L 105.956974 67.093094 
L 106.15995 67.672223 
L 106.261439 67.427021 
L 106.464415 67.985279 
L 106.565904 69.015744 
L 106.667392 68.398164 
L 106.870369 68.463346 
L 106.971857 68.395183 
L 107.174834 69.000734 
L 107.377811 68.801899 
L 107.479299 69.118965 
L 107.580788 70.106969 
L 107.885253 69.804194 
L 107.986741 69.789081 
L 108.088229 69.915332 
L 108.291206 70.422288 
L 108.392695 69.886031 
L 108.69716 71.540758 
L 108.900136 71.35241 
L 109.001625 71.452753 
L 109.204602 72.079688 
L 109.407578 71.854123 
L 109.610555 72.907 
L 109.712043 73.04857 
L 109.813532 73.572078 
L 109.91502 73.129173 
L 110.016509 73.661317 
L 110.117997 73.443771 
L 110.422462 74.399904 
L 110.52395 74.162413 
L 110.625439 74.761487 
L 110.726927 74.643359 
L 110.828416 75.315428 
L 110.929904 75.246134 
L 111.031392 75.650485 
L 111.132881 75.46882 
L 111.335857 76.127524 
L 111.437346 75.988936 
L 111.741811 76.617208 
L 111.944788 77.439071 
L 112.046276 77.431669 
L 112.249253 77.663917 
L 112.45223 78.248803 
L 112.553718 78.464498 
L 112.655206 78.057062 
L 112.959671 79.51316 
L 113.06116 79.457335 
L 113.264137 79.913605 
L 113.365625 79.714977 
L 113.467113 80.209698 
L 113.568602 80.137834 
L 113.67009 81.078751 
L 113.771578 80.645716 
L 113.873067 81.121315 
L 113.974555 80.905105 
L 114.27902 82.056577 
L 114.380509 81.667647 
L 114.684974 83.230771 
L 114.887951 82.924705 
L 115.293904 84.194306 
L 115.395392 83.768467 
L 115.801346 85.281933 
L 116.004323 85.05791 
L 116.308788 86.062261 
L 116.410276 86.275592 
L 116.511765 86.053625 
L 116.81623 87.712054 
L 116.917718 86.923501 
L 117.019206 87.643993 
L 117.120695 87.309038 
L 117.222183 88.217776 
L 117.323672 88.118359 
L 117.42516 88.6943 
L 117.526648 88.160408 
L 117.831113 89.811126 
L 117.932602 89.444916 
L 118.03409 89.826753 
L 118.135579 89.543511 
L 118.237067 90.340803 
L 118.338555 90.198308 
L 118.440044 90.844469 
L 118.541532 90.273257 
L 118.845997 91.818286 
L 118.947486 91.410233 
L 119.353439 92.938503 
L 119.454927 92.822945 
L 119.759393 93.244055 
L 119.962369 93.702999 
L 120.063858 93.698681 
L 120.368323 95.326883 
L 120.469811 94.814067 
L 120.5713 95.425786 
L 120.672788 95.199604 
L 120.875765 95.817492 
L 120.977253 95.810398 
L 121.18023 96.440624 
L 121.281718 96.60512 
L 121.383207 97.562487 
L 121.484695 96.913447 
L 121.586183 97.939902 
L 121.687672 97.16235 
L 121.890648 98.380135 
L 121.992137 97.98298 
L 122.195114 98.800216 
L 122.296602 98.885857 
L 122.39809 99.938735 
L 122.499579 99.323828 
L 122.601067 100.147645 
L 122.702555 99.817727 
L 122.804044 99.885582 
L 122.905532 100.754224 
L 123.007021 100.428521 
L 123.209997 100.987911 
L 123.311486 100.656246 
L 123.412974 102.12499 
L 123.514462 101.215738 
L 123.615951 101.868479 
L 123.717439 101.033867 
L 123.920416 102.072556 
L 124.021904 101.696272 
L 124.123393 102.185339 
L 124.326369 101.758575 
L 124.427858 102.945413 
L 124.529346 102.497059 
L 124.630835 102.814742 
L 124.732323 102.312515 
L 124.833811 102.342947 
L 124.9353 103.178689 
L 125.036788 102.417073 
L 125.138276 103.454734 
L 125.341253 102.853193 
L 125.442742 104.060799 
L 125.54423 103.263508 
L 125.645718 103.824028 
L 125.747207 103.228758 
L 125.848695 103.546749 
L 125.950183 104.324713 
L 126.051672 103.364775 
L 126.15316 104.489311 
L 126.254649 103.920361 
L 126.356137 103.974747 
L 126.457625 104.881532 
L 126.559114 104.591402 
L 126.660602 104.653705 
L 126.76209 104.368098 
L 126.863579 104.492396 
L 126.965067 105.419331 
L 127.066556 104.616899 
L 127.168044 105.497261 
L 127.269532 104.905589 
L 127.371021 104.936741 
L 127.472509 106.078549 
L 127.573997 105.676253 
L 127.675486 105.827075 
L 127.878463 105.503738 
L 127.979951 106.347602 
L 128.081439 105.915184 
L 128.182928 106.466656 
L 128.284416 106.173751 
L 128.385904 106.38482 
L 128.487393 107.214599 
L 128.588881 106.812509 
L 128.791858 106.950378 
L 128.893346 106.572345 
L 129.096323 107.593968 
L 129.2993 107.342906 
L 129.502277 108.374091 
L 129.603765 108.323919 
L 129.705253 108.125804 
L 129.90823 108.458498 
L 130.111207 109.039169 
L 130.314184 108.805687 
L 130.51716 109.582211 
L 130.618649 109.538003 
L 131.126091 110.51295 
L 131.227579 110.070867 
L 131.532044 111.272305 
L 131.633532 111.140605 
L 131.836509 111.051572 
L 131.937998 111.23992 
L 132.039486 112.108048 
L 132.140974 112.002153 
L 132.242463 111.607568 
L 132.343951 112.092626 
L 132.445439 111.979638 
L 132.546928 112.908012 
L 132.648416 112.59876 
L 132.749905 112.715038 
L 132.851393 112.406402 
L 133.155858 113.634982 
L 133.257346 112.892591 
L 133.460323 113.65832 
L 133.561812 114.059999 
L 133.6633 114.026996 
L 133.764788 114.136078 
L 133.866277 113.975797 
L 133.967765 114.054241 
L 134.170742 114.722815 
L 134.27223 114.814007 
L 134.576695 115.459654 
L 134.678184 115.517947 
L 134.779672 115.233369 
L 135.185626 116.749508 
L 135.287114 116.156398 
L 135.388602 116.614211 
L 135.490091 116.37785 
L 135.693067 117.182339 
L 135.794556 116.849748 
L 135.997533 117.575895 
L 136.099021 118.234085 
L 136.200509 118.109377 
L 136.403486 118.510027 
L 136.504974 118.269246 
L 136.707951 119.379286 
L 136.910928 119.23638 
L 137.113905 120.751491 
L 137.215393 120.615576 
L 137.316881 120.637783 
L 137.621347 121.201593 
L 137.722835 122.031476 
L 137.824323 121.320442 
L 138.128788 123.302516 
L 138.230277 123.112215 
L 138.433254 123.358753 
L 138.63623 123.854811 
L 138.737719 124.907997 
L 138.839207 123.545148 
L 139.143672 126.191169 
L 139.245161 126.098537 
L 139.346649 126.324719 
L 139.448137 126.167317 
L 139.651114 127.158097 
L 140.361533 129.872282 
L 140.463021 130.093015 
L 140.767486 131.241917 
L 140.868975 131.298668 
L 140.970463 131.824747 
L 141.17344 133.012099 
L 141.274928 133.056822 
L 141.680882 134.829472 
L 141.78237 134.402811 
L 141.883858 134.771796 
L 142.086835 136.297085 
L 142.188323 136.744103 
L 142.289812 136.528408 
L 142.492789 137.348112 
L 142.594277 138.077857 
L 142.695765 137.47025 
L 143.00023 139.573332 
L 143.101719 139.769185 
L 143.304696 140.342762 
L 143.507672 141.030561 
L 143.609161 141.691115 
L 143.710649 141.374255 
L 144.015114 143.592484 
L 144.116603 143.463457 
L 144.218091 143.99334 
L 144.319579 143.887137 
L 144.725533 145.664311 
L 145.53744 149.064135 
L 145.638928 148.472567 
L 145.943393 150.657485 
L 146.044882 150.560844 
L 146.349347 152.002343 
L 146.7553 153.385343 
L 146.958277 154.29696 
L 147.161254 154.623279 
L 147.262742 155.727253 
L 147.364231 155.625059 
L 147.465719 156.488252 
L 147.567207 156.037739 
L 147.871672 158.426015 
L 147.973161 157.955351 
L 148.277626 159.533896 
L 148.379114 159.498221 
L 148.480603 159.733039 
L 148.683579 161.031838 
L 148.785068 161.142462 
L 149.191021 162.85394 
L 149.29251 162.738793 
L 149.596975 164.658153 
L 149.698463 164.658564 
L 150.002928 165.559694 
L 150.104417 165.726966 
L 150.713347 168.391904 
L 150.916324 168.913973 
L 151.423765 170.719112 
L 151.525254 171.816197 
L 151.626742 171.520207 
L 151.728231 172.047211 
L 151.829719 171.930316 
L 152.134184 173.097519 
L 152.235672 173.163523 
L 152.540138 174.886413 
L 152.641626 174.835933 
L 153.047579 176.177295 
L 153.149068 176.03367 
L 153.453533 178.061289 
L 153.65651 177.833256 
L 153.960975 179.444803 
L 154.062463 178.896723 
L 154.26544 179.767318 
L 154.366928 180.763445 
L 154.468417 180.318072 
L 154.569905 180.662691 
L 154.671393 180.443294 
L 154.772882 180.902341 
L 154.87437 180.839832 
L 154.975859 181.327357 
L 155.077347 181.077632 
L 155.381812 182.609501 
L 155.4833 182.470399 
L 155.584789 182.742743 
L 155.686277 182.43421 
L 155.889254 183.235408 
L 155.990742 183.040378 
L 156.092231 183.751412 
L 156.193719 183.700932 
L 156.396696 184.564022 
L 156.498184 184.431603 
L 156.599673 184.712274 
L 156.701161 184.534105 
L 156.802649 185.364912 
L 156.904138 184.780232 
L 157.005626 185.103261 
L 157.208603 186.419332 
L 157.310091 185.902917 
L 157.41158 186.308194 
L 157.513068 185.798668 
L 157.614556 186.853293 
L 157.716045 186.815664 
L 157.817533 186.421799 
L 158.02051 187.290235 
L 158.121998 188.513161 
L 158.223487 188.007233 
L 158.324975 188.414669 
L 158.426463 187.978343 
L 158.62944 189.170836 
L 158.730928 188.894689 
L 159.035394 190.440232 
L 159.136882 190.761204 
L 159.23837 190.597839 
L 159.644324 191.960278 
L 159.745812 191.468743 
L 160.050277 193.291667 
L 160.151766 193.262675 
L 160.253254 193.013258 
L 160.557719 194.400782 
L 160.659208 193.972989 
L 160.862184 194.848108 
L 160.963673 195.978607 
L 161.065161 195.150575 
L 161.166649 196.050882 
L 161.268138 195.279602 
L 161.471115 196.23923 
L 161.572603 196.470039 
L 161.674091 196.080595 
L 161.877068 197.637755 
L 161.978556 197.383609 
L 162.080045 197.550572 
L 162.181533 197.31596 
L 162.283022 197.791353 
L 162.38451 197.651326 
L 162.587487 197.973327 
L 162.688975 198.252662 
L 162.891952 198.96678 
L 162.99344 199.247349 
L 163.094929 198.962154 
L 163.196417 199.222057 
L 163.297905 199.149988 
L 163.60237 200.060884 
L 163.703859 200.108177 
L 164.008324 200.89015 
L 164.109812 200.472638 
L 164.312789 201.210711 
L 164.414277 200.809136 
L 164.617254 201.901081 
L 164.921719 201.325139 
L 165.023208 201.573014 
L 165.226184 200.410747 
L 165.53065 199.232338 
L 165.632138 199.271303 
L 165.835115 198.242792 
L 165.936603 197.885116 
L 166.038091 198.223464 
L 166.444045 196.143514 
L 166.545533 196.182788 
L 166.647022 196.008422 
L 166.74851 194.825798 
L 166.849998 195.161679 
L 166.951487 194.589335 
L 167.052975 195.039849 
L 167.255952 193.88046 
L 167.458929 193.251057 
L 167.763394 192.364835 
L 167.966371 191.63036 
L 168.067859 191.627996 
L 168.372324 190.379471 
L 168.473812 190.104968 
L 168.575301 189.469911 
L 168.676789 189.654249 
L 168.778278 188.79157 
L 168.879766 188.834956 
L 168.981254 188.649795 
L 169.082743 188.743866 
L 169.184231 187.871523 
L 169.285719 187.970324 
L 169.590185 186.500141 
L 169.691673 186.897398 
L 169.793161 185.630985 
L 169.89465 185.677146 
L 169.996138 185.49178 
L 170.097626 186.129408 
L 170.300603 184.772932 
L 170.50358 183.719849 
L 170.605068 183.9339 
L 170.706557 183.801275 
L 170.909533 182.83373 
L 171.011022 182.479858 
L 171.11251 183.143599 
L 171.416975 181.464095 
L 171.518464 181.297645 
L 171.924417 179.966358 
L 172.025906 179.995351 
L 172.127394 180.313753 
L 172.330371 179.121774 
L 172.431859 178.436957 
L 172.533347 178.607724 
L 172.837813 177.582297 
L 172.939301 177.680583 
L 173.040789 176.833532 
L 173.142278 177.630001 
L 173.345254 176.43761 
L 173.64972 175.557762 
L 173.751208 175.568146 
L 173.954185 174.751937 
L 174.25865 174.263898 
L 174.664603 173.085593 
L 174.766092 173.064722 
L 174.969068 172.084223 
L 175.070557 172.080522 
L 175.172045 172.392962 
L 175.375022 171.17199 
L 175.679487 170.592244 
L 175.780975 170.641901 
L 175.882464 169.559209 
L 175.983952 169.638681 
L 176.085441 169.199991 
L 176.186929 169.839983 
L 176.592882 168.246736 
L 176.694371 168.091802 
L 177.100324 166.823229 
L 177.201813 167.387039 
L 177.303301 166.299618 
L 177.404789 166.547287 
L 177.709255 165.066514 
L 177.810743 165.411236 
L 178.01372 164.616206 
L 178.115208 164.248763 
L 178.216696 164.689716 
L 178.724138 162.841397 
L 178.825627 162.941945 
L 178.927115 161.715011 
L 179.028603 162.13684 
L 179.130092 161.872104 
L 179.23158 162.161412 
L 179.637534 160.351236 
L 179.739022 160.368508 
L 180.144976 159.34195 
L 180.246464 159.499558 
L 180.652417 157.86056 
L 180.753906 157.914741 
L 180.956883 156.726566 
L 181.058371 157.256551 
L 181.159859 156.750418 
L 181.261348 156.777354 
L 181.667301 155.141749 
L 181.870278 155.171256 
L 182.073255 154.289352 
L 182.174743 153.988118 
L 182.276231 154.31382 
L 182.682185 152.663411 
L 182.783673 152.833973 
L 183.189627 151.489938 
L 183.291115 151.867559 
L 183.59558 150.387095 
L 183.697069 150.507485 
L 184.103022 149.211771 
L 184.204511 149.24981 
L 184.711952 147.927057 
L 184.813441 147.422465 
L 184.914929 147.523527 
L 185.219394 146.605023 
L 185.320883 146.921575 
L 186.234278 144.17079 
L 186.335766 144.520138 
L 186.437255 144.207185 
L 186.640232 143.183505 
L 186.944697 142.567571 
L 187.147673 142.016715 
L 187.249162 141.947935 
L 187.35065 142.10472 
L 187.655115 140.790602 
L 187.95958 140.251878 
L 188.162557 139.836937 
L 188.365534 139.396396 
L 188.467022 139.408733 
L 188.568511 138.310928 
L 188.669999 139.216581 
L 188.771487 138.858391 
L 188.872976 140.676689 
L 188.974464 139.229432 
L 189.075953 139.674805 
L 189.278929 138.747665 
L 189.481906 140.290843 
L 189.583394 138.525698 
L 189.786371 140.199239 
L 189.88786 140.042968 
L 189.989348 140.198931 
L 190.192325 139.66072 
L 190.293813 139.782653 
L 190.395301 139.676861 
L 190.49679 139.974085 
L 190.598278 139.678404 
L 190.801255 140.355099 
L 190.902743 141.326448 
L 191.004232 140.116169 
L 191.10572 140.639883 
L 191.207208 139.667197 
L 191.308697 140.602049 
L 191.410185 140.06939 
L 191.511674 140.994783 
L 191.613162 139.929363 
L 191.816139 140.561542 
L 191.917627 141.919456 
L 192.120604 140.70198 
L 192.222092 140.635462 
L 192.323581 140.908217 
L 192.425069 140.828025 
L 192.526557 141.29067 
L 192.628046 140.25013 
L 192.831022 141.621821 
L 192.932511 141.342589 
L 193.033999 141.626242 
L 193.236976 140.791425 
L 193.338464 141.038889 
L 193.439953 141.594782 
L 193.642929 141.103762 
L 193.845906 141.830628 
L 193.947395 142.290292 
L 194.048883 141.652767 
L 194.150371 142.062876 
L 194.353348 141.190019 
L 194.556325 141.972095 
L 194.657813 140.921788 
L 194.962278 143.349338 
L 195.063767 141.951225 
L 195.165255 142.529839 
L 195.266743 141.32028 
L 195.46972 142.005508 
L 195.571209 141.924494 
L 195.672697 142.002424 
L 195.774185 142.81781 
L 195.875674 142.146769 
L 195.977162 143.362806 
L 196.180139 142.500127 
L 196.383116 142.121889 
L 196.586092 142.424665 
L 196.789069 142.608283 
L 196.890557 142.201773 
L 196.992046 144.098515 
L 197.093534 142.448722 
L 197.195023 142.857392 
L 197.296511 142.333575 
L 197.397999 142.632033 
L 197.600976 142.435563 
L 197.905441 142.907666 
L 198.00693 143.297933 
L 198.108418 143.229873 
L 198.311395 142.559346 
L 198.514371 142.957015 
L 198.61586 142.398037 
L 198.818837 143.028365 
L 198.920325 142.910648 
L 199.021813 144.033847 
L 199.123302 142.565309 
L 199.22479 143.697967 
L 199.326278 142.508146 
L 199.427767 143.003177 
L 199.630744 142.595124 
L 199.732232 143.134362 
L 199.83372 143.09036 
L 199.935209 143.210956 
L 200.036697 143.761092 
L 200.138185 143.248481 
L 200.239674 143.581483 
L 200.341162 142.736385 
L 200.544139 142.961744 
L 200.747116 142.999784 
L 200.950092 143.507768 
L 201.051581 144.536896 
L 201.153069 143.116165 
L 201.254558 143.528022 
L 201.356046 142.501053 
L 201.457534 143.655198 
L 201.559023 142.920312 
L 201.761999 143.251052 
L 201.863488 143.700126 
L 201.964976 143.460476 
L 202.066465 144.32079 
L 202.269441 143.092519 
L 202.37093 143.510544 
L 202.472418 143.346254 
L 202.573906 143.720688 
L 202.776883 143.00585 
L 202.878372 143.936589 
L 202.97986 143.920242 
L 203.182837 144.038371 
L 203.284325 143.085939 
L 203.385813 143.148242 
L 203.487302 144.062634 
L 203.791767 143.253211 
L 204.096232 144.246458 
L 204.299209 143.492552 
L 204.400697 144.03724 
L 204.806651 143.135185 
L 205.009627 144.728534 
L 205.111116 144.3431 
L 205.212604 144.271749 
L 205.314093 143.421819 
L 205.517069 143.975657 
L 205.618558 144.16565 
L 205.720046 143.288577 
L 205.821534 143.348824 
L 205.923023 143.851462 
L 206.024511 145.225929 
L 206.227488 143.554238 
L 206.328976 143.914176 
L 206.531953 143.851976 
L 206.633441 144.211092 
L 206.73493 143.620654 
L 206.836418 143.733333 
L 207.039395 144.831242 
L 207.34386 143.64358 
L 207.648325 144.405814 
L 207.749814 143.316542 
L 207.851302 144.294676 
L 207.95279 143.857014 
L 208.054279 145.04447 
L 208.155767 144.048857 
L 208.257255 144.608247 
L 208.460232 143.66918 
L 208.663209 144.61421 
L 208.764697 143.560818 
L 208.866186 143.658488 
L 208.967674 144.140461 
L 209.069162 145.769074 
L 209.170651 144.001359 
L 209.272139 144.310406 
L 209.373628 143.83491 
L 209.576604 144.276787 
L 209.678093 145.037067 
L 209.779581 143.186076 
L 209.881069 144.192174 
L 209.982558 144.043408 
L 210.084046 145.876819 
L 210.185535 144.153209 
L 210.287023 144.58933 
L 210.388511 143.620654 
L 210.49 144.324697 
L 210.591488 144.194231 
L 210.692976 144.979802 
L 210.794465 143.183197 
L 210.895953 144.606807 
L 210.997442 144.544916 
L 211.09893 145.315065 
L 211.200418 144.375999 
L 211.301907 144.512222 
L 211.403395 144.156808 
L 211.504883 144.617705 
L 211.606372 144.111469 
L 211.70786 144.769041 
L 211.809349 144.714141 
L 212.012325 144.312462 
L 212.113814 144.447863 
L 212.215302 144.045362 
L 212.31679 145.244332 
L 212.418279 143.827096 
L 212.519767 144.442106 
L 212.621256 144.342483 
L 212.722744 145.699575 
L 212.824232 144.64423 
L 212.925721 144.808109 
L 213.027209 144.045979 
L 213.331674 145.56037 
L 213.433163 143.5126 
L 213.737628 145.661432 
L 213.839116 144.683401 
L 213.940604 145.136896 
L 214.042093 144.233915 
L 214.143581 144.610714 
L 214.24507 144.542243 
L 214.346558 145.661227 
L 214.448046 143.084911 
L 214.549535 145.27497 
L 214.651023 144.520447 
L 214.752511 146.122433 
L 215.056977 143.917466 
L 215.158465 145.172057 
L 215.259953 144.477369 
L 215.361442 145.008794 
L 215.46293 144.501941 
L 215.767395 145.673872 
L 215.868884 145.04961 
L 215.970372 145.425895 
L 216.07186 144.39543 
L 216.173349 144.926032 
L 216.274837 144.899302 
L 216.376325 145.073873 
L 216.477814 144.66726 
L 216.782279 146.105777 
L 216.985256 144.710645 
L 217.086744 145.560473 
L 217.188232 144.926855 
L 217.289721 145.380967 
L 217.492698 144.604957 
L 217.594186 144.982578 
L 217.695674 145.833845 
L 217.898651 145.115511 
L 218.101628 145.7261 
L 218.203116 144.761845 
L 218.304605 145.092687 
L 218.406093 145.871987 
L 218.507581 145.360919 
L 218.60907 145.403174 
L 218.710558 145.708725 
L 218.812046 145.40852 
L 218.913535 144.543168 
L 219.218 146.214962 
L 219.319488 145.332852 
L 219.522465 145.491282 
L 219.623953 145.507526 
L 219.725442 145.746662 
L 219.928419 144.980008 
L 220.131395 146.163968 
L 220.232884 146.389533 
L 220.43586 145.484291 
L 220.638837 145.644983 
L 220.740326 146.17466 
L 220.841814 144.588713 
L 221.146279 147.449504 
L 221.247767 145.529938 
L 221.349256 146.22699 
L 221.450744 145.329459 
L 221.755209 146.28333 
L 221.856698 145.496422 
L 221.958186 145.772981 
L 222.059674 145.66647 
L 222.161163 147.177058 
L 222.465628 145.53035 
L 222.668605 146.46808 
L 222.770093 146.591863 
L 222.871581 145.714791 
L 223.074558 146.665372 
L 223.176047 145.100604 
L 223.277535 146.242412 
L 223.379023 145.849678 
L 223.480512 147.827331 
L 223.582 146.107833 
L 223.683488 146.638847 
L 223.987954 146.080075 
L 224.089442 147.041554 
L 224.19093 145.602214 
L 224.292419 146.506017 
L 224.393907 146.276339 
L 224.495395 147.877914 
L 224.596884 146.738367 
L 224.698372 146.814447 
L 224.799861 145.749541 
L 224.901349 147.069313 
L 225.002837 146.358896 
L 225.104326 146.576339 
L 225.205814 146.395085 
L 225.510279 147.691622 
L 225.611768 146.718731 
L 225.713256 146.76736 
L 225.814744 146.612939 
L 225.916233 147.465748 
L 226.017721 147.291485 
L 226.220698 146.55701 
L 226.423675 147.189909 
L 226.626651 146.401767 
L 226.829628 148.291004 
L 226.931116 147.221574 
L 227.032605 147.338367 
L 227.134093 146.96969 
L 227.438558 147.864651 
L 227.540047 145.753139 
L 227.641535 147.79145 
L 227.743023 146.973185 
L 227.844512 148.842271 
L 227.946 147.30372 
L 228.047489 147.789497 
L 228.148977 147.09152 
L 228.351954 147.360574 
L 228.453442 147.44827 
L 228.55493 147.379182 
L 228.859396 148.521093 
L 228.960884 147.381958 
L 229.366837 147.930038 
L 229.468326 147.819312 
L 229.569814 147.320786 
L 229.772791 148.789427 
L 229.874279 148.217187 
L 229.975768 148.345905 
L 230.178744 147.727297 
L 230.381721 148.701216 
L 230.48321 147.170375 
L 230.787675 149.252072 
L 230.889163 148.45694 
L 230.990651 148.508653 
L 231.09214 147.964994 
L 231.193628 148.648269 
L 231.295117 148.079935 
L 231.396605 148.988467 
L 231.498093 147.451149 
L 231.802558 149.867184 
L 231.904047 148.735143 
L 232.005535 148.800736 
L 232.107024 147.986995 
L 232.208512 148.598098 
L 232.31 148.556151 
L 232.411489 148.434835 
L 232.512977 148.631819 
L 232.614465 149.112559 
L 232.715954 148.837337 
L 232.817442 149.662901 
L 233.020419 148.620613 
L 233.223396 148.970064 
L 233.324884 149.10382 
L 233.527861 148.157865 
L 233.730838 149.698782 
L 234.035303 148.884218 
L 234.136791 149.061257 
L 234.238279 148.877021 
L 234.339768 149.52565 
L 234.441256 148.277742 
L 234.644233 149.145767 
L 234.745721 150.942577 
L 234.84721 149.126644 
L 234.948698 149.423662 
L 235.050186 148.634801 
L 235.354652 150.068178 
L 235.45614 148.204027 
L 235.659117 149.551763 
L 235.760605 150.472119 
L 235.862093 149.454197 
L 235.963582 149.772085 
L 236.06507 148.822121 
L 236.268047 149.604916 
L 236.369535 149.419036 
L 236.471024 148.985794 
L 236.572512 149.894532 
L 236.674 149.876026 
L 236.775489 150.32181 
L 236.876977 149.672668 
L 236.978466 149.781852 
L 237.079954 149.48031 
L 237.181442 149.548371 
L 237.282931 149.908103 
L 237.485907 149.215061 
L 237.587396 149.311291 
L 237.688884 151.0495 
L 237.891861 149.591654 
L 237.993349 149.919412 
L 238.094838 149.484012 
L 238.196326 149.611907 
L 238.297814 150.071365 
L 238.399303 149.060229 
L 238.60228 149.68336 
L 238.703768 151.221604 
L 238.805256 149.900495 
L 238.906745 150.365916 
L 239.008233 149.144224 
L 239.21121 149.903888 
L 239.414187 149.355807 
L 239.617163 150.40046 
L 239.718652 150.392955 
L 239.921628 149.71811 
L 240.023117 149.705978 
L 240.226094 149.95118 
L 240.327582 149.654882 
L 240.42907 149.781955 
L 240.530559 149.083772 
L 240.632047 151.009609 
L 240.733535 150.127602 
L 240.835024 150.175717 
L 240.936512 150.029624 
L 241.038001 149.343676 
L 241.139489 149.619618 
L 241.240977 150.694702 
L 241.342466 149.046144 
L 241.545442 149.651078 
L 241.646931 151.455394 
L 241.849908 150.032092 
L 241.951396 149.314375 
L 242.052884 149.755738 
L 242.154373 149.396417 
L 242.255861 150.07959 
L 242.357349 149.398782 
L 242.560326 150.521056 
L 242.661815 149.777123 
L 242.864791 150.191242 
L 242.96628 149.133121 
L 243.169256 149.918898 
L 243.270745 149.909439 
L 243.372233 149.302243 
L 243.57521 150.451351 
L 243.676698 150.395936 
L 243.778187 149.527295 
L 243.879675 150.096142 
L 243.981163 149.620955 
L 244.18414 150.213757 
L 244.285629 148.613211 
L 244.590094 151.075511 
L 244.79307 149.809611 
L 244.894559 149.252278 
L 245.199024 150.70961 
L 245.300512 148.786343 
L 245.402001 149.972873 
L 245.503489 149.360537 
L 245.604977 150.884387 
L 245.706466 149.763758 
L 245.807954 150.027362 
L 245.909443 149.402792 
L 246.112419 150.046794 
L 246.315396 149.220612 
L 246.518373 150.03898 
L 246.619861 150.30495 
L 246.72135 150.047822 
L 246.924326 149.140523 
L 247.025815 149.89957 
L 247.228791 149.198714 
L 247.33028 149.410502 
L 247.431768 149.552894 
L 247.634745 150.260741 
L 247.93921 149.087165 
L 248.040698 149.720989 
L 248.142187 149.280242 
L 248.345164 149.461805 
L 248.446652 149.383052 
L 248.649629 150.09203 
L 248.852605 149.383566 
L 248.954094 149.267185 
L 249.157071 149.752963 
L 249.258559 148.87075 
L 249.461536 149.366705 
L 249.563024 150.339391 
L 249.664512 149.506733 
L 249.766001 149.695183 
L 249.867489 149.276747 
L 249.968978 149.470235 
L 250.070466 149.366397 
L 250.171954 148.791997 
L 250.476419 149.895046 
L 250.577908 150.339597 
L 250.679396 149.180825 
L 250.780885 149.347274 
L 250.882373 149.263381 
L 251.08535 149.419755 
L 251.186838 149.085109 
L 251.288326 149.208378 
L 251.389815 148.745424 
L 251.491303 150.471913 
L 251.795768 148.939221 
L 251.897257 149.457384 
L 251.998745 149.279111 
L 252.100233 149.906458 
L 252.201722 148.61794 
L 252.30321 149.327226 
L 252.404699 148.878358 
L 252.506187 150.642783 
L 252.709164 149.402894 
L 252.810652 148.889153 
L 252.91214 149.157487 
L 253.013629 150.002997 
L 253.115117 148.407694 
L 253.318094 149.699399 
L 253.521071 149.880036 
L 253.622559 149.768384 
L 253.724047 148.826027 
L 254.028513 149.911804 
L 254.130001 148.669139 
L 254.231489 149.292888 
L 254.332978 148.970784 
L 254.434466 150.615436 
L 254.637443 149.500461 
L 254.84042 149.174245 
L 254.941908 149.259166 
L 255.043396 149.940899 
L 255.144885 148.602416 
L 255.246373 149.452655 
L 255.347861 149.332984 
L 255.44935 150.416293 
L 255.753815 148.628529 
L 255.956792 149.647788 
L 256.05828 149.046761 
L 256.159768 149.132607 
L 256.362745 149.874998 
L 256.464234 150.095114 
L 256.565722 149.764786 
L 256.66721 148.923286 
L 256.768699 149.599981 
L 256.870187 149.466637 
L 256.971675 149.677294 
L 257.073164 148.904369 
L 257.174652 149.236548 
L 257.276141 148.921332 
L 257.377629 151.461151 
L 257.580606 149.397034 
L 257.783582 149.389735 
L 257.986559 149.711839 
L 258.189536 149.170647 
L 258.291024 150.113826 
L 258.392513 150.003202 
L 258.494001 149.467768 
L 258.595489 149.712558 
L 258.696978 149.401558 
L 258.798466 149.862455 
L 259.001443 149.503237 
L 259.102931 149.051284 
L 259.305908 150.437574 
L 259.508885 149.694361 
L 259.610373 149.61931 
L 259.711862 149.733017 
L 259.81335 149.120989 
L 259.914838 150.256526 
L 260.117815 149.21393 
L 260.219303 149.604711 
L 260.320792 150.948437 
L 260.42228 149.686136 
L 260.523769 150.217458 
L 260.625257 149.132401 
L 260.726745 149.986136 
L 260.828234 149.932572 
L 260.929722 149.515266 
L 261.03121 149.56297 
L 261.132699 149.647994 
L 261.335676 150.55231 
L 261.741629 149.533566 
L 261.843117 150.197513 
L 261.944606 149.086548 
L 262.046094 150.003819 
L 262.147583 149.826266 
L 262.249071 150.626334 
L 262.553536 149.444533 
L 262.655024 149.725307 
L 262.756513 150.394908 
L 262.858001 149.21578 
L 263.060978 150.091208 
L 263.162466 150.391413 
L 263.56842 149.852997 
L 263.669908 150.03384 
L 263.771397 150.470268 
L 263.872885 149.281373 
L 264.17735 151.522426 
L 264.278838 150.03569 
L 264.380327 150.366841 
L 264.481815 149.763038 
L 264.583304 150.009474 
L 264.684792 149.963003 
L 264.78628 150.305361 
L 264.887769 149.556595 
L 264.989257 150.490727 
L 265.090745 150.099638 
L 265.192234 151.007348 
L 265.395211 149.870783 
L 265.496699 149.846006 
L 265.699676 150.832468 
L 265.801164 149.626609 
L 266.004141 150.177054 
L 266.207118 150.811494 
L 266.308606 150.708684 
L 266.410094 149.649947 
L 266.714559 150.88634 
L 266.816048 148.834869 
L 267.019025 150.760192 
L 267.120513 151.15087 
L 267.222001 149.938021 
L 267.32349 150.87976 
L 267.424978 149.926609 
L 267.627955 150.363346 
L 267.830932 149.631544 
L 267.93242 151.930479 
L 268.033908 149.835108 
L 268.135397 150.424209 
L 268.338373 149.672668 
L 268.54135 150.379281 
L 268.642839 150.04227 
L 268.744327 151.538156 
L 268.947304 150.049261 
L 269.048792 150.195971 
L 269.15028 149.904607 
L 269.251769 150.897032 
L 269.454746 149.777945 
L 269.556234 150.168212 
L 269.657722 151.136785 
L 269.759211 150.263414 
L 269.860699 150.711974 
L 269.962187 149.863997 
L 270.165164 150.390076 
L 270.266653 149.664443 
L 270.368141 150.262386 
L 270.469629 150.011119 
L 270.571118 150.386375 
L 270.672606 151.27671 
L 270.875583 150.09203 
L 270.977071 149.747205 
L 271.180048 150.589733 
L 271.281536 149.703511 
L 271.484513 150.418246 
L 271.586001 151.187985 
L 271.68749 150.271433 
L 271.788978 150.37229 
L 271.890467 149.569652 
L 271.991955 150.402413 
L 272.093443 150.333839 
L 272.194932 149.216397 
L 272.29642 151.84638 
L 272.397908 149.991379 
L 272.499397 150.618623 
L 272.600885 149.737644 
L 272.702374 150.456183 
L 273.006839 149.707109 
L 273.209815 150.725957 
L 273.412792 150.393058 
L 273.514281 150.401385 
L 273.717257 149.910776 
L 273.818746 150.678664 
L 273.920234 149.395492 
L 274.224699 151.178526 
L 274.326188 150.351934 
L 274.427676 150.42133 
L 274.529164 149.661153 
L 274.630653 150.39388 
L 274.935118 150.043195 
L 275.036606 150.04299 
L 275.239583 151.230034 
L 275.44256 150.17582 
L 275.544048 149.878905 
L 275.747025 150.567526 
L 275.848513 149.404539 
L 276.152978 151.540417 
L 276.254467 149.980995 
L 276.355955 150.44693 
L 276.457443 149.692613 
L 276.558932 150.475511 
L 276.66042 150.408376 
L 276.964885 149.834182 
L 277.066374 151.033667 
L 277.26935 150.020885 
L 277.573816 150.9178 
L 277.675304 150.002791 
L 277.776792 150.375683 
L 277.979769 150.120303 
L 278.081257 150.832365 
L 278.182746 149.435794 
L 278.487211 151.508238 
L 278.690188 150.385039 
L 278.791676 150.041447 
L 278.893164 150.327054 
L 278.994653 150.0214 
L 279.096141 150.099432 
L 279.19763 150.357691 
L 279.299118 149.962284 
L 279.502095 151.06708 
L 279.705071 150.041756 
L 279.80656 149.972256 
L 280.009537 150.874003 
L 280.111025 149.49933 
L 280.41549 151.376024 
L 280.618467 150.294463 
L 280.719955 150.209131 
L 280.821444 150.571536 
L 280.922932 150.371468 
L 281.02442 149.920132 
L 281.125909 150.003099 
L 281.328885 151.268793 
L 281.531862 150.330755 
L 281.633351 150.169343 
L 281.734839 150.740761 
L 281.836327 150.512934 
L 281.937816 149.97421 
L 282.242281 150.629726 
L 282.343769 151.331919 
L 282.445258 150.203373 
L 282.546746 150.28778 
L 282.648234 150.665504 
L 282.749723 150.340316 
L 282.851211 150.918006 
L 282.952699 149.431681 
L 283.054188 150.460604 
L 283.155676 150.234936 
L 283.257165 151.482433 
L 283.358653 150.455361 
L 283.460141 151.061528 
L 283.56163 149.962181 
L 283.764606 150.674037 
L 283.967583 149.990968 
L 284.17056 151.231473 
L 284.272048 150.709507 
L 284.373537 150.799157 
L 284.475025 149.987369 
L 284.576513 150.648952 
L 284.678002 150.58048 
L 284.77949 151.148197 
L 284.880979 149.326712 
L 285.185444 151.274037 
L 285.489909 150.349672 
L 285.591397 150.295799 
L 285.692886 150.923352 
L 285.794374 149.923627 
L 285.895862 150.05543 
L 286.098839 151.815537 
L 286.200327 150.222702 
L 286.301816 150.959232 
L 286.403304 149.639769 
L 286.606281 150.660672 
L 286.707769 149.99508 
L 286.910746 150.816121 
L 287.012234 150.753304 
L 287.113723 150.93096 
L 287.519676 150.233497 
L 287.621165 151.339424 
L 287.722653 149.354471 
L 287.824141 150.523524 
L 287.92563 150.073524 
L 288.027118 152.05786 
L 288.128607 150.458136 
L 288.230095 150.972495 
L 288.331583 149.945423 
L 288.53456 150.872872 
L 288.737537 149.888055 
L 288.940514 151.506387 
L 289.14349 150.474278 
L 289.244979 150.395114 
L 289.346467 150.662728 
L 289.447955 150.262181 
L 289.549444 150.723798 
L 289.650932 149.879213 
L 289.853909 151.033461 
L 289.955397 151.081988 
L 290.158374 150.249124 
L 290.361351 150.698506 
L 290.462839 150.642578 
L 290.564328 149.896485 
L 290.665816 150.449398 
L 290.767304 150.383085 
L 290.868793 151.530651 
L 291.071769 150.696553 
L 291.274746 150.281509 
L 291.376235 150.542441 
L 291.6807 150.324586 
L 291.782188 151.541857 
L 291.985165 150.63682 
L 292.086653 150.231029 
L 292.28963 150.563722 
L 292.391118 150.729144 
L 292.492607 149.941311 
L 292.695583 150.591789 
L 292.797072 151.370781 
L 292.89856 150.524552 
L 293.000049 150.782296 
L 293.101537 150.249329 
L 293.304514 150.663345 
L 293.406002 149.929179 
L 293.50749 150.481783 
L 293.608979 150.390179 
L 293.710467 151.438636 
L 293.811956 150.472324 
L 293.913444 150.729658 
L 294.014932 149.859062 
L 294.116421 150.925716 
L 294.319397 150.378356 
L 294.420886 150.062832 
L 294.522374 150.134593 
L 294.623862 151.556147 
L 294.725351 151.268896 
L 294.826839 150.308342 
L 294.928328 150.370131 
L 295.029816 150.116704 
L 295.232793 150.681645 
L 295.334281 149.361976 
L 295.537258 150.860226 
L 295.638746 151.303235 
L 295.841723 150.217972 
L 295.943211 150.715059 
L 296.146188 150.417424 
L 296.247676 149.748028 
L 296.349165 150.450529 
L 296.450653 150.178596 
L 296.552142 151.911048 
L 296.755118 150.460501 
L 296.958095 150.204813 
L 297.059583 150.583565 
L 297.161072 149.874176 
L 297.26256 150.224861 
L 297.364049 150.147239 
L 297.465537 151.431542 
L 297.668514 150.596724 
L 297.87149 150.092133 
L 297.972979 150.336718 
L 298.277444 150.149912 
L 298.378932 151.011768 
L 298.480421 150.778698 
L 298.581909 150.156286 
L 298.683397 150.639288 
L 298.886374 150.026232 
L 298.987863 150.628698 
L 299.089351 149.133327 
L 299.190839 150.603818 
L 299.292328 150.346279 
L 299.393816 151.309815 
L 299.596793 150.137575 
L 299.698281 150.072599 
L 299.79977 150.218692 
L 299.901258 151.030891 
L 300.002746 149.437336 
L 300.104235 149.66907 
L 300.307211 151.560363 
L 300.4087 150.087095 
L 300.510188 150.437574 
L 300.611677 149.919412 
L 300.713165 150.341344 
L 300.916142 150.011427 
L 301.01763 149.310674 
L 301.220607 151.255325 
L 301.423584 150.128939 
L 301.525072 149.80848 
L 301.728049 150.159371 
L 301.829537 149.869858 
L 301.931025 150.098096 
L 302.032514 149.878185 
L 302.134002 150.75022 
L 302.235491 150.145697 
L 302.336979 150.805326 
L 302.539956 149.745457 
L 302.742932 150.318212 
L 302.844421 149.103203 
L 303.148886 150.846141 
L 303.351863 149.790899 
L 303.453351 150.23946 
L 303.554839 150.006492 
L 303.656328 150.39645 
L 303.757816 149.085417 
L 303.960793 149.726849 
L 304.062281 151.548642 
L 304.16377 150.019241 
L 304.265258 150.297239 
L 304.366746 149.22493 
L 304.569723 150.03384 
L 304.671212 149.651283 
L 304.7727 149.689118 
L 304.874188 149.798507 
L 304.975677 151.002721 
L 305.178653 149.735896 
L 305.280142 149.989528 
L 305.686095 149.518144 
L 305.787584 149.514443 
L 305.889072 150.745902 
L 306.193537 149.533566 
L 306.295026 149.640386 
L 306.396514 149.66249 
L 306.498002 150.114751 
L 306.599491 149.177741 
L 306.700979 150.023661 
L 307.005444 149.273662 
L 307.106933 149.925478 
L 307.208421 149.844258 
L 307.309909 150.477876 
L 307.512886 149.492236 
L 307.614374 149.62774 
L 307.715863 149.541174 
L 307.817351 150.491858 
L 307.91884 148.77123 
L 308.020328 149.535519 
L 308.121816 149.437953 
L 308.223305 150.911631 
L 308.426281 149.396212 
L 308.730747 150.035587 
L 308.832235 148.816775 
L 309.1367 150.725237 
L 309.238188 149.130551 
L 309.339677 149.968864 
L 309.441165 149.270989 
L 309.644142 149.609543 
L 309.74563 148.893985 
L 309.948607 149.478563 
L 310.050095 150.73305 
L 310.253072 149.299056 
L 310.354561 149.224108 
L 310.659026 149.466225 
L 310.760514 149.028974 
L 310.862002 149.065164 
L 310.963491 150.670953 
L 311.064979 149.434766 
L 311.166468 149.576232 
L 311.267956 149.515574 
L 311.572421 148.872395 
L 311.673909 148.999674 
L 311.876886 150.233291 
L 312.079863 149.517219 
L 312.181351 149.05221 
L 312.384328 149.30358 
L 312.587305 149.119242 
L 312.688793 149.102278 
L 312.790282 149.803545 
L 312.993258 149.650975 
L 313.196235 148.869825 
L 313.399212 149.565129 
L 313.5007 148.461772 
L 313.703677 149.511462 
L 313.805165 149.549604 
L 313.906654 149.090969 
L 314.008142 149.482778 
L 314.10963 148.948474 
L 314.312607 149.435794 
L 314.414096 148.394739 
L 314.515584 148.666158 
L 314.718561 150.16739 
L 314.921537 148.679832 
L 315.023026 149.245287 
L 315.124514 149.131784 
L 315.226003 149.396417 
L 315.327491 148.31938 
L 315.631956 149.925169 
L 315.834933 148.958036 
L 315.936421 149.017048 
L 316.03791 148.817494 
L 316.139398 149.204882 
L 316.240886 148.440798 
L 316.342375 148.906939 
L 316.443863 148.726816 
L 316.545351 150.181578 
L 316.64684 149.039358 
L 316.748328 149.14844 
L 316.951305 148.431031 
L 317.052793 149.714717 
L 317.154282 148.246487 
L 317.25577 148.399366 
L 317.357258 148.876096 
L 317.458747 149.977088 
L 317.560235 148.842066 
L 317.661724 149.119858 
L 317.763212 147.884493 
L 317.8647 148.831785 
L 317.966189 148.77781 
L 318.169165 148.419208 
L 318.270654 148.599229 
L 318.372142 149.776198 
L 318.473631 148.768043 
L 318.575119 148.882162 
L 318.676607 148.256357 
L 318.778096 148.299743 
L 318.879584 148.800222 
L 318.981072 148.383225 
L 319.082561 148.408208 
L 319.184049 148.209373 
L 319.285538 150.060365 
L 319.387026 148.494465 
L 319.488514 148.914444 
L 319.590003 148.080552 
L 319.894468 148.622875 
L 320.097445 147.943815 
L 320.198933 149.915814 
L 320.300421 148.391964 
L 320.40191 148.63439 
L 320.604886 147.934151 
L 320.706375 148.600051 
L 320.807863 148.534972 
L 320.909352 147.6945 
L 321.112328 149.458309 
L 321.315305 148.308379 
L 321.416793 148.334904 
L 321.61977 148.668317 
L 321.721259 147.803171 
L 321.924235 148.652381 
L 322.025724 148.485418 
L 322.127212 147.388743 
L 322.2287 148.321744 
L 322.330189 148.1811 
L 322.431677 149.137645 
L 322.634654 147.855809 
L 322.939119 148.229729 
L 323.040607 147.642581 
L 323.142096 148.122601 
L 323.243584 147.923356 
L 323.345073 149.318693 
L 323.548049 147.797413 
L 323.649538 148.353513 
L 323.751026 148.32524 
L 323.954003 147.315337 
L 324.258468 149.126233 
L 324.461445 147.738298 
L 324.562933 147.641759 
L 324.664421 148.245459 
L 324.968887 148.105638 
L 325.171863 147.593849 
L 325.37484 148.377262 
L 325.476328 146.665372 
L 325.679305 147.90999 
L 325.780794 148.555329 
L 326.085259 147.507797 
L 326.186747 147.670649 
L 326.288235 148.30365 
L 326.389724 146.874796 
L 326.491212 147.835967 
L 326.592701 147.463692 
L 326.694189 148.551319 
L 326.897166 147.14971 
L 326.998654 147.893129 
L 327.100142 147.505433 
L 327.201631 147.807283 
L 327.303119 146.58919 
L 327.404608 147.817153 
L 327.506096 147.206873 
L 327.607584 148.435452 
L 327.810561 146.47137 
L 327.912049 148.546693 
L 328.013538 147.273699 
L 328.115026 147.706632 
L 328.216515 146.381103 
L 328.419491 147.509648 
L 328.52098 146.635146 
L 328.723956 147.168833 
L 328.825445 148.117666 
L 328.926933 147.198648 
L 329.028422 147.513349 
L 329.12991 146.557216 
L 329.231398 146.811774 
L 329.332887 147.708791 
L 329.434375 146.245907 
L 329.637352 147.017394 
L 329.73884 148.070991 
L 329.941817 146.742583 
L 330.043305 147.249642 
L 330.144794 146.65982 
L 330.246282 147.14971 
L 330.449259 146.180006 
L 330.652236 147.707043 
L 330.753724 146.578601 
L 330.855212 147.003926 
L 331.058189 146.446798 
L 331.159677 146.604817 
L 331.261166 146.172912 
L 331.464143 146.355606 
L 331.565631 147.645666 
L 331.667119 146.491418 
L 331.768608 146.501596 
L 331.870096 146.142275 
L 332.073073 146.526167 
L 332.174561 145.604681 
L 332.27605 146.392926 
L 332.377538 146.082542 
L 332.479026 147.394501 
L 332.783491 145.867464 
L 332.88498 146.407833 
L 332.986468 146.343166 
L 333.087957 145.34889 
L 333.392422 147.266297 
L 333.595398 145.847416 
L 333.696887 145.60098 
L 333.899864 146.163351 
L 334.001352 145.049918 
L 334.305817 146.763556 
L 334.508794 145.219349 
L 334.610282 145.686724 
L 334.711771 145.54464 
L 334.813259 145.752728 
L 334.914747 144.680728 
L 335.016236 145.493749 
L 335.117724 145.343647 
L 335.219212 146.33566 
L 335.422189 145.105744 
L 335.523678 145.114072 
L 335.625166 145.522947 
L 335.726654 145.238678 
L 335.828143 144.294676 
L 335.929631 145.272091 
L 336.031119 144.883572 
L 336.132608 145.743064 
L 336.335585 143.966198 
L 336.538561 145.379939 
L 336.741538 144.648034 
L 336.843026 144.615649 
L 336.944515 144.39286 
L 337.046003 145.079939 
L 337.147492 143.981311 
L 337.350468 144.998616 
L 337.451957 144.902489 
L 337.654933 144.211092 
L 337.85791 144.012668 
L 337.959399 144.535252 
L 338.060887 143.710715 
L 338.365352 144.670549 
L 338.568329 143.736315 
L 338.771306 143.789262 
L 338.872794 143.498824 
L 338.974282 143.602456 
L 339.177259 144.214279 
L 339.278747 143.687994 
L 339.380236 144.14262 
L 339.481724 142.97953 
L 339.684701 143.455644 
L 339.887678 143.065582 
L 340.090654 143.644608 
L 340.192143 143.624355 
L 340.293631 143.48114 
L 340.39512 142.701429 
L 340.598096 143.065377 
L 340.902561 142.687858 
L 341.00405 143.704752 
L 341.207027 143.004513 
L 341.308515 142.233335 
L 341.410003 142.372026 
L 341.511492 142.918256 
L 341.61298 142.695055 
L 341.714468 141.926756 
L 341.815957 142.388681 
L 341.917445 143.821339 
L 342.120422 142.337687 
L 342.22191 142.032342 
L 342.424887 142.246392 
L 342.627864 141.69019 
L 342.729352 142.183164 
L 342.830841 143.491627 
L 342.932329 141.949271 
L 343.033817 142.333061 
L 343.135306 141.436352 
L 343.338282 142.033164 
L 343.541259 141.439025 
L 343.744236 142.554719 
L 343.845724 141.483542 
L 343.947213 142.127647 
L 344.048701 141.091013 
L 344.150189 141.12638 
L 344.251678 142.10544 
L 344.353166 140.755339 
L 344.454655 141.427202 
L 344.556143 141.165242 
L 344.657631 142.632444 
L 344.860608 141.047113 
L 345.063585 141.224666 
L 345.165073 141.459484 
L 345.266562 140.39941 
L 345.469538 140.940191 
L 345.571027 141.878127 
L 345.774003 140.762124 
L 345.97698 140.614694 
L 346.078469 141.014214 
L 346.179957 139.97645 
L 346.484422 141.551294 
L 346.687399 140.108869 
L 346.788887 140.116991 
L 346.991864 140.806949 
L 347.093352 139.431351 
L 347.397817 140.766545 
L 347.600794 139.89523 
L 347.702283 140.136114 
L 347.803771 139.622681 
L 348.006748 139.771344 
L 348.311213 140.269972 
L 348.51419 139.386629 
L 348.615678 139.543414 
L 348.818655 139.239816 
L 348.920143 139.449549 
L 349.021631 139.355169 
L 349.12312 140.084092 
L 349.427585 138.708905 
L 349.529073 139.297698 
L 349.630562 138.755375 
L 349.73205 139.498178 
L 349.935027 138.523127 
L 350.036515 140.314078 
L 350.138004 138.955032 
L 350.239492 139.184196 
L 350.34098 138.32234 
L 350.543957 139.218123 
L 350.746934 138.10212 
L 350.949911 139.59852 
L 351.051399 138.649584 
L 351.152887 138.935601 
L 351.254376 137.528955 
L 351.355864 138.827137 
L 351.457352 138.464217 
L 351.558841 137.538105 
L 351.660329 138.493004 
L 351.761818 138.306918 
L 351.863306 139.250508 
L 352.066283 137.836357 
L 352.167771 138.049173 
L 352.269259 137.953663 
L 352.370748 138.087007 
L 352.472236 137.370422 
L 352.573725 137.623951 
L 352.776701 138.444992 
L 352.979678 137.285809 
L 353.284143 137.999619 
L 353.385632 136.92289 
L 353.48712 137.538927 
L 353.588608 137.43951 
L 353.690097 138.328919 
L 353.791585 137.288893 
L 353.893073 137.316652 
L 354.09605 136.997735 
L 354.299027 137.218777 
L 354.400515 137.076899 
L 354.603492 137.619427 
L 354.806469 136.660518 
L 354.907957 136.961135 
L 355.110934 136.415008 
L 355.212422 137.008736 
L 355.313911 136.386838 
L 355.415399 137.636391 
L 355.516887 136.765385 
L 355.618376 137.064459 
L 355.719864 136.086839 
L 355.821353 136.688174 
L 356.125818 136.076043 
L 356.227306 136.178648 
L 356.328794 137.454315 
L 356.430283 136.014049 
L 356.531771 136.860381 
L 356.734748 136.037387 
L 356.836236 136.524809 
L 356.937725 135.346606 
L 357.24219 137.284575 
L 357.445167 135.642596 
L 357.546655 136.113055 
L 357.648143 135.710245 
L 357.749632 136.169189 
L 357.85112 135.247086 
L 358.155585 136.191602 
L 358.358562 135.421144 
L 358.46005 135.329334 
L 358.663027 135.983617 
L 358.764515 134.854558 
L 358.967492 135.586976 
L 359.068981 134.359733 
L 359.170469 135.539684 
L 359.271957 135.103975 
L 359.373446 136.178854 
L 359.576422 134.990987 
L 359.677911 135.193008 
L 359.779399 134.593317 
L 359.880888 135.30723 
L 359.982376 134.15473 
L 360.083864 135.195681 
L 360.185353 134.746607 
L 360.286841 135.549656 
L 360.489818 134.479096 
L 360.591306 134.411961 
L 360.794283 134.676182 
L 360.895771 133.9012 
L 361.098748 135.53516 
L 361.301725 134.474366 
L 361.504702 134.020049 
L 361.60619 134.324161 
L 361.707678 133.797054 
L 361.809167 134.170254 
L 361.910655 133.742873 
L 362.012143 135.086189 
L 362.113632 133.999898 
L 362.21512 134.39253 
L 362.316609 133.606547 
L 362.519585 133.984168 
L 362.621074 133.507952 
L 362.82405 133.576115 
L 362.925539 134.610692 
L 363.230004 133.262031 
L 363.331492 133.298528 
L 363.432981 133.830776 
L 363.635957 133.435368 
L 363.737446 133.111311 
L 363.838934 133.439583 
L 363.940423 133.200859 
L 364.041911 133.680776 
L 364.143399 132.535061 
L 364.346376 133.732489 
L 364.447864 133.389515 
L 364.549353 133.532832 
L 364.650841 132.554492 
L 364.75233 133.200961 
L 364.853818 132.44099 
L 364.955306 132.833724 
L 365.056795 132.504629 
L 365.158283 132.691435 
L 365.259771 134.289103 
L 365.36126 132.513779 
L 365.462748 132.832799 
L 365.564237 132.207303 
L 365.767213 132.77759 
L 365.868702 131.518064 
L 365.97019 133.734134 
L 366.071678 131.922622 
L 366.173167 132.537528 
L 366.274655 131.952025 
L 366.376144 132.160421 
L 366.477632 131.925912 
L 366.57912 133.30007 
L 366.782097 131.797913 
L 366.985074 132.108913 
L 367.086562 132.76772 
L 367.188051 130.908504 
L 367.391027 132.120942 
L 367.492516 132.339928 
L 367.695492 131.652745 
L 367.796981 131.679682 
L 367.999958 131.235542 
L 368.202934 131.554356 
L 368.304423 132.090202 
L 368.405911 131.419161 
L 368.507399 131.960353 
L 368.710376 130.534378 
L 368.811865 131.956652 
L 368.913353 131.251067 
L 369.014841 129.714982 
L 369.11633 132.537117 
L 369.319306 130.220602 
L 369.420795 132.088146 
L 369.522283 130.244248 
L 369.623772 131.406618 
L 369.826748 130.21505 
L 369.928237 131.614397 
L 370.029725 129.497231 
L 370.131213 131.090683 
L 370.232702 130.921252 
L 370.33419 129.426292 
L 370.435679 132.158468 
L 370.537167 129.552851 
L 370.638655 130.947572 
L 370.740144 130.57139 
L 370.841632 128.913887 
L 370.94312 131.862478 
L 371.146097 129.511624 
L 371.247586 131.262787 
L 371.349074 129.231056 
L 371.450562 130.997023 
L 371.653539 128.402921 
L 371.755027 131.235234 
L 371.856516 129.327491 
L 371.958004 129.557169 
L 372.059493 130.133316 
L 372.160981 129.199287 
L 372.262469 130.762411 
L 372.363958 128.851275 
L 372.465446 129.25573 
L 372.566934 130.419745 
L 372.668423 127.965978 
L 372.769911 130.531088 
L 372.972888 128.366835 
L 373.074376 130.626907 
L 373.175865 128.804908 
L 373.277353 129.895517 
L 373.48033 127.745862 
L 373.581818 130.654049 
L 373.581818 130.654049 
" style="fill:none;stroke:#081d58;stroke-dasharray:5.55,2.4;stroke-dashoffset:0;stroke-width:1.5;"/>
    <defs>
     <path d="M -0 4.242641 
L 4.242641 0 
L 0 -4.242641 
L -4.242641 -0 
z
" id="ma83f440a1f" style="stroke:#081d58;stroke-linejoin:miter;"/>
    </defs>
    <g clip-path="url(#pd3437c25fb)">
     <use style="fill:#081d58;stroke:#081d58;stroke-linejoin:miter;" x="69.218182" xlink:href="#ma83f440a1f" y="44.952443"/>
     <use style="fill:#081d58;stroke:#081d58;stroke-linejoin:miter;" x="77.337252" xlink:href="#ma83f440a1f" y="45.786027"/>
     <use style="fill:#081d58;stroke:#081d58;stroke-linejoin:miter;" x="85.456322" xlink:href="#ma83f440a1f" y="46.926704"/>
     <use style="fill:#081d58;stroke:#081d58;stroke-linejoin:miter;" x="93.575392" xlink:href="#ma83f440a1f" y="51.531873"/>
     <use style="fill:#081d58;stroke:#081d58;stroke-linejoin:miter;" x="101.694462" xlink:href="#ma83f440a1f" y="61.491387"/>
     <use style="fill:#081d58;stroke:#081d58;stroke-linejoin:miter;" x="109.813532" xlink:href="#ma83f440a1f" y="73.572078"/>
     <use style="fill:#081d58;stroke:#081d58;stroke-linejoin:miter;" x="117.932602" xlink:href="#ma83f440a1f" y="89.444916"/>
     <use style="fill:#081d58;stroke:#081d58;stroke-linejoin:miter;" x="126.051672" xlink:href="#ma83f440a1f" y="103.364775"/>
     <use style="fill:#081d58;stroke:#081d58;stroke-linejoin:miter;" x="134.170742" xlink:href="#ma83f440a1f" y="114.722815"/>
     <use style="fill:#081d58;stroke:#081d58;stroke-linejoin:miter;" x="142.289812" xlink:href="#ma83f440a1f" y="136.528408"/>
     <use style="fill:#081d58;stroke:#081d58;stroke-linejoin:miter;" x="150.408882" xlink:href="#ma83f440a1f" y="167.194373"/>
     <use style="fill:#081d58;stroke:#081d58;stroke-linejoin:miter;" x="158.527952" xlink:href="#ma83f440a1f" y="188.569398"/>
     <use style="fill:#081d58;stroke:#081d58;stroke-linejoin:miter;" x="166.647022" xlink:href="#ma83f440a1f" y="196.008422"/>
     <use style="fill:#081d58;stroke:#081d58;stroke-linejoin:miter;" x="174.766092" xlink:href="#ma83f440a1f" y="173.064722"/>
     <use style="fill:#081d58;stroke:#081d58;stroke-linejoin:miter;" x="182.885162" xlink:href="#ma83f440a1f" y="152.490382"/>
     <use style="fill:#081d58;stroke:#081d58;stroke-linejoin:miter;" x="191.004232" xlink:href="#ma83f440a1f" y="140.116169"/>
     <use style="fill:#081d58;stroke:#081d58;stroke-linejoin:miter;" x="199.123302" xlink:href="#ma83f440a1f" y="142.565309"/>
     <use style="fill:#081d58;stroke:#081d58;stroke-linejoin:miter;" x="207.242372" xlink:href="#ma83f440a1f" y="144.19166"/>
     <use style="fill:#081d58;stroke:#081d58;stroke-linejoin:miter;" x="215.361442" xlink:href="#ma83f440a1f" y="145.008794"/>
     <use style="fill:#081d58;stroke:#081d58;stroke-linejoin:miter;" x="223.480512" xlink:href="#ma83f440a1f" y="147.827331"/>
     <use style="fill:#081d58;stroke:#081d58;stroke-linejoin:miter;" x="231.599582" xlink:href="#ma83f440a1f" y="148.347138"/>
     <use style="fill:#081d58;stroke:#081d58;stroke-linejoin:miter;" x="239.718652" xlink:href="#ma83f440a1f" y="150.392955"/>
     <use style="fill:#081d58;stroke:#081d58;stroke-linejoin:miter;" x="247.837722" xlink:href="#ma83f440a1f" y="149.662387"/>
     <use style="fill:#081d58;stroke:#081d58;stroke-linejoin:miter;" x="255.956792" xlink:href="#ma83f440a1f" y="149.647788"/>
     <use style="fill:#081d58;stroke:#081d58;stroke-linejoin:miter;" x="264.075862" xlink:href="#ma83f440a1f" y="149.974313"/>
     <use style="fill:#081d58;stroke:#081d58;stroke-linejoin:miter;" x="272.194932" xlink:href="#ma83f440a1f" y="149.216397"/>
     <use style="fill:#081d58;stroke:#081d58;stroke-linejoin:miter;" x="280.314002" xlink:href="#ma83f440a1f" y="150.631371"/>
     <use style="fill:#081d58;stroke:#081d58;stroke-linejoin:miter;" x="288.433072" xlink:href="#ma83f440a1f" y="150.503373"/>
     <use style="fill:#081d58;stroke:#081d58;stroke-linejoin:miter;" x="296.552142" xlink:href="#ma83f440a1f" y="151.911048"/>
     <use style="fill:#081d58;stroke:#081d58;stroke-linejoin:miter;" x="304.671212" xlink:href="#ma83f440a1f" y="149.651283"/>
     <use style="fill:#081d58;stroke:#081d58;stroke-linejoin:miter;" x="312.790282" xlink:href="#ma83f440a1f" y="149.803545"/>
     <use style="fill:#081d58;stroke:#081d58;stroke-linejoin:miter;" x="320.909352" xlink:href="#ma83f440a1f" y="147.6945"/>
     <use style="fill:#081d58;stroke:#081d58;stroke-linejoin:miter;" x="329.028422" xlink:href="#ma83f440a1f" y="147.513349"/>
     <use style="fill:#081d58;stroke:#081d58;stroke-linejoin:miter;" x="337.147492" xlink:href="#ma83f440a1f" y="143.981311"/>
     <use style="fill:#081d58;stroke:#081d58;stroke-linejoin:miter;" x="345.266562" xlink:href="#ma83f440a1f" y="140.39941"/>
     <use style="fill:#081d58;stroke:#081d58;stroke-linejoin:miter;" x="353.385632" xlink:href="#ma83f440a1f" y="136.92289"/>
     <use style="fill:#081d58;stroke:#081d58;stroke-linejoin:miter;" x="361.504702" xlink:href="#ma83f440a1f" y="134.020049"/>
     <use style="fill:#081d58;stroke:#081d58;stroke-linejoin:miter;" x="369.623772" xlink:href="#ma83f440a1f" y="131.406618"/>
    </g>
   </g>
   <g id="patch_3">
    <path d="M 54 252 
L 54 34.56 
" style="fill:none;stroke:#000000;stroke-linecap:square;stroke-linejoin:miter;stroke-width:0.8;"/>
   </g>
   <g id="patch_4">
    <path d="M 388.8 252 
L 388.8 34.56 
" style="fill:none;stroke:#000000;stroke-linecap:square;stroke-linejoin:miter;stroke-width:0.8;"/>
   </g>
   <g id="patch_5">
    <path d="M 54 252 
L 388.8 252 
" style="fill:none;stroke:#000000;stroke-linecap:square;stroke-linejoin:miter;stroke-width:0.8;"/>
   </g>
   <g id="patch_6">
    <path d="M 54 34.56 
L 388.8 34.56 
" style="fill:none;stroke:#000000;stroke-linecap:square;stroke-linejoin:miter;stroke-width:0.8;"/>
   </g>
   <g id="legend_1">
    <g id="patch_7">
     <path d="M 280.085938 71.91625 
L 381.8 71.91625 
Q 383.8 71.91625 383.8 69.91625 
L 383.8 41.56 
Q 383.8 39.56 381.8 39.56 
L 280.085938 39.56 
Q 278.085938 39.56 278.085938 41.56 
L 278.085938 69.91625 
Q 278.085938 71.91625 280.085938 71.91625 
z
" style="fill:#ffffff;opacity:0.8;stroke:#cccccc;stroke-linejoin:miter;"/>
    </g>
    <g id="line2d_19">
     <path d="M 282.085938 47.658437 
L 302.085938 47.658437 
" style="fill:none;stroke:#40b5c4;stroke-dasharray:5.55,2.4;stroke-dashoffset:0;stroke-width:1.5;"/>
    </g>
    <g id="line2d_20">
     <g>
      <use style="fill:#40b5c4;stroke:#40b5c4;" x="292.085938" xlink:href="#m05961fa088" y="47.658437"/>
     </g>
    </g>
    <g id="text_19">
     <text style="font-family:DejaVu Sans;font-size:10px;font-style:normal;font-weight:normal;text-anchor:start;" transform="rotate(-0, 310.085938, 51.158437)" x="310.085938" y="51.158437">original</text>
    </g>
    <g id="line2d_21">
     <path d="M 282.085938 62.336562 
L 302.085938 62.336562 
" style="fill:none;stroke:#081d58;stroke-dasharray:5.55,2.4;stroke-dashoffset:0;stroke-width:1.5;"/>
    </g>
    <g id="line2d_22">
     <g>
      <use style="fill:#081d58;stroke:#081d58;stroke-linejoin:miter;" x="292.085938" xlink:href="#ma83f440a1f" y="62.336562"/>
     </g>
    </g>
    <g id="text_20">
     <text style="font-family:DejaVu Sans;font-size:10px;font-style:normal;font-weight:normal;text-anchor:start;" transform="rotate(-0, 310.085938, 65.836562)" x="310.085938" y="65.836562">reconstructed</text>
    </g>
   </g>
  </g>
  <g id="text_21">
   <text style="font-family:DejaVu Sans;font-size:12px;font-style:normal;font-weight:normal;text-anchor:middle;" transform="rotate(-0, 216, 14.878125)" x="216" y="14.878125">Reconstruction of the weight curve</text>
  </g>
 </g>
 <defs>
  <clipPath id="pd3437c25fb">
   <rect height="217.44" width="334.8" x="54" y="34.56"/>
  </clipPath>
 </defs>
</svg>
