<?xml version="1.0" encoding="utf-8" standalone="no"?>
<!DOCTYPE svg PUBLIC "-//W3C//DTD SVG 1.1//EN"
  "http://www.w3.org/Graphics/SVG/1.1/DTD/svg11.dtd">
<!-- Created with matplotlib (https://matplotlib.org/) -->
<svg height="288pt" version="1.1" viewBox="0 0 432 288" width="432pt" xmlns="http://www.w3.org/2000/svg" xmlns:xlink="http://www.w3.org/1999/xlink">
 <defs>
  <style type="text/css">
*{stroke-linecap:butt;stroke-linejoin:round;}
  </style>
 </defs>
 <g id="figure_1">
  <g id="patch_1">
   <path d="M 0 288 
L 432 288 
L 432 0 
L 0 0 
z
" style="fill:#ffffff;"/>
  </g>
  <g id="axes_1">
   <g id="patch_2">
    <path d="M 54 252 
L 388.8 252 
L 388.8 34.56 
L 54 34.56 
z
" style="fill:#ffffff;"/>
   </g>
   <g id="matplotlib.axis_1">
    <g id="xtick_1">
     <g id="line2d_1">
      <defs>
       <path d="M 0 0 
L 0 3.5 
" id="mf754063d3a" style="stroke:#000000;stroke-width:0.8;"/>
      </defs>
      <g>
       <use style="stroke:#000000;stroke-width:0.8;" x="69.218182" xlink:href="#mf754063d3a" y="252"/>
      </g>
     </g>
     <g id="text_1">
      <text style="font-family:DejaVu Sans;font-size:10px;font-style:normal;font-weight:normal;text-anchor:middle;" transform="rotate(-0, 69.218182, 266.598437)" x="69.218182" y="266.598437">0</text>
     </g>
    </g>
    <g id="xtick_2">
     <g id="line2d_2">
      <g>
       <use style="stroke:#000000;stroke-width:0.8;" x="119.962369" xlink:href="#mf754063d3a" y="252"/>
      </g>
     </g>
     <g id="text_2">
      <text style="font-family:DejaVu Sans;font-size:10px;font-style:normal;font-weight:normal;text-anchor:middle;" transform="rotate(-0, 119.962369, 266.598437)" x="119.962369" y="266.598437">500</text>
     </g>
    </g>
    <g id="xtick_3">
     <g id="line2d_3">
      <g>
       <use style="stroke:#000000;stroke-width:0.8;" x="170.706557" xlink:href="#mf754063d3a" y="252"/>
      </g>
     </g>
     <g id="text_3">
      <text style="font-family:DejaVu Sans;font-size:10px;font-style:normal;font-weight:normal;text-anchor:middle;" transform="rotate(-0, 170.706557, 266.598437)" x="170.706557" y="266.598437">1000</text>
     </g>
    </g>
    <g id="xtick_4">
     <g id="line2d_4">
      <g>
       <use style="stroke:#000000;stroke-width:0.8;" x="221.450744" xlink:href="#mf754063d3a" y="252"/>
      </g>
     </g>
     <g id="text_4">
      <text style="font-family:DejaVu Sans;font-size:10px;font-style:normal;font-weight:normal;text-anchor:middle;" transform="rotate(-0, 221.450744, 266.598437)" x="221.450744" y="266.598437">1500</text>
     </g>
    </g>
    <g id="xtick_5">
     <g id="line2d_5">
      <g>
       <use style="stroke:#000000;stroke-width:0.8;" x="272.194932" xlink:href="#mf754063d3a" y="252"/>
      </g>
     </g>
     <g id="text_5">
      <text style="font-family:DejaVu Sans;font-size:10px;font-style:normal;font-weight:normal;text-anchor:middle;" transform="rotate(-0, 272.194932, 266.598437)" x="272.194932" y="266.598437">2000</text>
     </g>
    </g>
    <g id="xtick_6">
     <g id="line2d_6">
      <g>
       <use style="stroke:#000000;stroke-width:0.8;" x="322.939119" xlink:href="#mf754063d3a" y="252"/>
      </g>
     </g>
     <g id="text_6">
      <text style="font-family:DejaVu Sans;font-size:10px;font-style:normal;font-weight:normal;text-anchor:middle;" transform="rotate(-0, 322.939119, 266.598437)" x="322.939119" y="266.598437">2500</text>
     </g>
    </g>
    <g id="xtick_7">
     <g id="line2d_7">
      <g>
       <use style="stroke:#000000;stroke-width:0.8;" x="373.683307" xlink:href="#mf754063d3a" y="252"/>
      </g>
     </g>
     <g id="text_7">
      <text style="font-family:DejaVu Sans;font-size:10px;font-style:normal;font-weight:normal;text-anchor:middle;" transform="rotate(-0, 373.683307, 266.598437)" x="373.683307" y="266.598437">3000</text>
     </g>
    </g>
    <g id="text_8">
     <text style="font-family:DejaVu Sans;font-size:10px;font-style:normal;font-weight:normal;text-anchor:middle;" transform="rotate(-0, 221.4, 280.276563)" x="221.4" y="280.276563">Time</text>
    </g>
   </g>
   <g id="matplotlib.axis_2">
    <g id="ytick_1">
     <g id="line2d_8">
      <defs>
       <path d="M 0 0 
L -3.5 0 
" id="md9dccf8ed3" style="stroke:#000000;stroke-width:0.8;"/>
      </defs>
      <g>
       <use style="stroke:#000000;stroke-width:0.8;" x="54" xlink:href="#md9dccf8ed3" y="251.776848"/>
      </g>
     </g>
     <g id="text_9">
      <text style="font-family:DejaVu Sans;font-size:10px;font-style:normal;font-weight:normal;text-anchor:end;" transform="rotate(-0, 47, 255.576066)" x="47" y="255.576066">64</text>
     </g>
    </g>
    <g id="ytick_2">
     <g id="line2d_9">
      <g>
       <use style="stroke:#000000;stroke-width:0.8;" x="54" xlink:href="#md9dccf8ed3" y="218.295821"/>
      </g>
     </g>
     <g id="text_10">
      <text style="font-family:DejaVu Sans;font-size:10px;font-style:normal;font-weight:normal;text-anchor:end;" transform="rotate(-0, 47, 222.095039)" x="47" y="222.095039">66</text>
     </g>
    </g>
    <g id="ytick_3">
     <g id="line2d_10">
      <g>
       <use style="stroke:#000000;stroke-width:0.8;" x="54" xlink:href="#md9dccf8ed3" y="184.814794"/>
      </g>
     </g>
     <g id="text_11">
      <text style="font-family:DejaVu Sans;font-size:10px;font-style:normal;font-weight:normal;text-anchor:end;" transform="rotate(-0, 47, 188.614012)" x="47" y="188.614012">68</text>
     </g>
    </g>
    <g id="ytick_4">
     <g id="line2d_11">
      <g>
       <use style="stroke:#000000;stroke-width:0.8;" x="54" xlink:href="#md9dccf8ed3" y="151.333767"/>
      </g>
     </g>
     <g id="text_12">
      <text style="font-family:DejaVu Sans;font-size:10px;font-style:normal;font-weight:normal;text-anchor:end;" transform="rotate(-0, 47, 155.132985)" x="47" y="155.132985">70</text>
     </g>
    </g>
    <g id="ytick_5">
     <g id="line2d_12">
      <g>
       <use style="stroke:#000000;stroke-width:0.8;" x="54" xlink:href="#md9dccf8ed3" y="117.85274"/>
      </g>
     </g>
     <g id="text_13">
      <text style="font-family:DejaVu Sans;font-size:10px;font-style:normal;font-weight:normal;text-anchor:end;" transform="rotate(-0, 47, 121.651958)" x="47" y="121.651958">72</text>
     </g>
    </g>
    <g id="ytick_6">
     <g id="line2d_13">
      <g>
       <use style="stroke:#000000;stroke-width:0.8;" x="54" xlink:href="#md9dccf8ed3" y="84.371713"/>
      </g>
     </g>
     <g id="text_14">
      <text style="font-family:DejaVu Sans;font-size:10px;font-style:normal;font-weight:normal;text-anchor:end;" transform="rotate(-0, 47, 88.170931)" x="47" y="88.170931">74</text>
     </g>
    </g>
    <g id="ytick_7">
     <g id="line2d_14">
      <g>
       <use style="stroke:#000000;stroke-width:0.8;" x="54" xlink:href="#md9dccf8ed3" y="50.890686"/>
      </g>
     </g>
     <g id="text_15">
      <text style="font-family:DejaVu Sans;font-size:10px;font-style:normal;font-weight:normal;text-anchor:end;" transform="rotate(-0, 47, 54.689904)" x="47" y="54.689904">76</text>
     </g>
    </g>
    <g id="text_16">
     <text style="font-family:DejaVu Sans;font-size:10px;font-style:normal;font-weight:normal;text-anchor:middle;" transform="rotate(-90, 28.195312, 143.28)" x="28.195312" y="143.28">weight (\%)</text>
    </g>
   </g>
   <g id="line2d_15">
    <path clip-path="url(#p51df792258)" d="M 69.218182 89.991503 
L 85.253345 90.338701 
L 89.820322 90.725575 
L 93.879857 91.334594 
L 99.563206 92.496219 
L 106.971857 93.96319 
L 120.063858 96.096433 
L 126.559114 97.297733 
L 130.821625 98.317063 
L 134.170742 99.342419 
L 137.215393 100.503708 
L 139.854091 101.748868 
L 142.086835 103.049941 
L 144.116603 104.489457 
L 145.943393 106.043144 
L 147.465719 107.612233 
L 149.191021 109.690065 
L 150.916324 112.167661 
L 152.641626 115.064272 
L 154.569905 118.759741 
L 156.701161 123.363884 
L 158.832417 128.54072 
L 160.760696 133.801594 
L 162.688975 139.77009 
L 164.515766 146.210332 
L 166.647022 154.627965 
L 171.416975 173.895794 
L 172.533347 177.335132 
L 173.548231 179.739907 
L 174.25865 180.916598 
L 175.070557 181.81774 
L 176.085441 182.567212 
L 177.607766 183.38281 
L 180.043487 184.397955 
L 183.291115 185.481066 
L 188.264046 186.786491 
L 191.917627 187.519224 
L 197.702464 188.380356 
L 204.096232 189.081616 
L 214.854 189.8942 
L 223.176047 190.252782 
L 229.366837 190.384195 
L 237.181442 190.391393 
L 244.996047 190.205239 
L 254.84042 189.754919 
L 267.222001 188.909523 
L 278.994653 187.886678 
L 324.359956 183.807015 
L 343.236794 182.360969 
L 362.519585 181.231654 
L 373.581818 180.767105 
L 373.581818 180.767105 
" style="fill:none;stroke:#40b5c4;stroke-dasharray:5.55,2.4;stroke-dashoffset:0;stroke-width:1.5;"/>
    <defs>
     <path d="M 0 3 
C 0.795609 3 1.55874 2.683901 2.12132 2.12132 
C 2.683901 1.55874 3 0.795609 3 0 
C 3 -0.795609 2.683901 -1.55874 2.12132 -2.12132 
C 1.55874 -2.683901 0.795609 -3 0 -3 
C -0.795609 -3 -1.55874 -2.683901 -2.12132 -2.12132 
C -2.683901 -1.55874 -3 -0.795609 -3 0 
C -3 0.795609 -2.683901 1.55874 -2.12132 2.12132 
C -1.55874 2.683901 -0.795609 3 0 3 
z
" id="mab770dff57" style="stroke:#40b5c4;"/>
    </defs>
    <g clip-path="url(#p51df792258)">
     <use style="fill:#40b5c4;stroke:#40b5c4;" x="69.218182" xlink:href="#mab770dff57" y="89.991503"/>
     <use style="fill:#40b5c4;stroke:#40b5c4;" x="77.337252" xlink:href="#mab770dff57" y="90.104334"/>
     <use style="fill:#40b5c4;stroke:#40b5c4;" x="85.456322" xlink:href="#mab770dff57" y="90.351089"/>
     <use style="fill:#40b5c4;stroke:#40b5c4;" x="93.575392" xlink:href="#mab770dff57" y="91.279183"/>
     <use style="fill:#40b5c4;stroke:#40b5c4;" x="101.694462" xlink:href="#mab770dff57" y="92.946538"/>
     <use style="fill:#40b5c4;stroke:#40b5c4;" x="109.813532" xlink:href="#mab770dff57" y="94.452682"/>
     <use style="fill:#40b5c4;stroke:#40b5c4;" x="117.932602" xlink:href="#mab770dff57" y="95.748566"/>
     <use style="fill:#40b5c4;stroke:#40b5c4;" x="126.051672" xlink:href="#mab770dff57" y="97.191933"/>
     <use style="fill:#40b5c4;stroke:#40b5c4;" x="134.170742" xlink:href="#mab770dff57" y="99.342419"/>
     <use style="fill:#40b5c4;stroke:#40b5c4;" x="142.289812" xlink:href="#mab770dff57" y="103.181521"/>
     <use style="fill:#40b5c4;stroke:#40b5c4;" x="150.408882" xlink:href="#mab770dff57" y="111.395756"/>
     <use style="fill:#40b5c4;stroke:#40b5c4;" x="158.527952" xlink:href="#mab770dff57" y="127.765132"/>
     <use style="fill:#40b5c4;stroke:#40b5c4;" x="166.647022" xlink:href="#mab770dff57" y="154.627965"/>
     <use style="fill:#40b5c4;stroke:#40b5c4;" x="174.766092" xlink:href="#mab770dff57" y="181.524613"/>
     <use style="fill:#40b5c4;stroke:#40b5c4;" x="182.885162" xlink:href="#mab770dff57" y="185.357354"/>
     <use style="fill:#40b5c4;stroke:#40b5c4;" x="191.004232" xlink:href="#mab770dff57" y="187.353493"/>
     <use style="fill:#40b5c4;stroke:#40b5c4;" x="199.123302" xlink:href="#mab770dff57" y="188.551276"/>
     <use style="fill:#40b5c4;stroke:#40b5c4;" x="207.242372" xlink:href="#mab770dff57" y="189.362522"/>
     <use style="fill:#40b5c4;stroke:#40b5c4;" x="215.361442" xlink:href="#mab770dff57" y="189.921655"/>
     <use style="fill:#40b5c4;stroke:#40b5c4;" x="223.480512" xlink:href="#mab770dff57" y="190.260483"/>
     <use style="fill:#40b5c4;stroke:#40b5c4;" x="231.599582" xlink:href="#mab770dff57" y="190.40579"/>
     <use style="fill:#40b5c4;stroke:#40b5c4;" x="239.718652" xlink:href="#mab770dff57" y="190.347533"/>
     <use style="fill:#40b5c4;stroke:#40b5c4;" x="247.837722" xlink:href="#mab770dff57" y="190.093078"/>
     <use style="fill:#40b5c4;stroke:#40b5c4;" x="255.956792" xlink:href="#mab770dff57" y="189.688459"/>
     <use style="fill:#40b5c4;stroke:#40b5c4;" x="264.075862" xlink:href="#mab770dff57" y="189.14908"/>
     <use style="fill:#40b5c4;stroke:#40b5c4;" x="272.194932" xlink:href="#mab770dff57" y="188.498544"/>
     <use style="fill:#40b5c4;stroke:#40b5c4;" x="280.314002" xlink:href="#mab770dff57" y="187.760287"/>
     <use style="fill:#40b5c4;stroke:#40b5c4;" x="288.433072" xlink:href="#mab770dff57" y="186.970302"/>
     <use style="fill:#40b5c4;stroke:#40b5c4;" x="296.552142" xlink:href="#mab770dff57" y="186.172449"/>
     <use style="fill:#40b5c4;stroke:#40b5c4;" x="304.671212" xlink:href="#mab770dff57" y="185.479057"/>
     <use style="fill:#40b5c4;stroke:#40b5c4;" x="312.790282" xlink:href="#mab770dff57" y="184.800732"/>
     <use style="fill:#40b5c4;stroke:#40b5c4;" x="320.909352" xlink:href="#mab770dff57" y="184.094282"/>
     <use style="fill:#40b5c4;stroke:#40b5c4;" x="329.028422" xlink:href="#mab770dff57" y="183.432864"/>
     <use style="fill:#40b5c4;stroke:#40b5c4;" x="337.147492" xlink:href="#mab770dff57" y="182.793544"/>
     <use style="fill:#40b5c4;stroke:#40b5c4;" x="345.266562" xlink:href="#mab770dff57" y="182.223697"/>
     <use style="fill:#40b5c4;stroke:#40b5c4;" x="353.385632" xlink:href="#mab770dff57" y="181.722151"/>
     <use style="fill:#40b5c4;stroke:#40b5c4;" x="361.504702" xlink:href="#mab770dff57" y="181.282545"/>
     <use style="fill:#40b5c4;stroke:#40b5c4;" x="369.623772" xlink:href="#mab770dff57" y="180.915258"/>
    </g>
   </g>
   <g id="line2d_16">
    <path clip-path="url(#p51df792258)" d="M 69.218182 45.957374 
L 69.421159 46.689081 
L 69.522647 46.457142 
L 69.624135 46.672733 
L 69.725624 45.500391 
L 69.827112 46.861376 
L 69.9286 45.972828 
L 70.131577 46.835448 
L 70.233066 45.878187 
L 70.334554 46.993055 
L 70.537531 45.924933 
L 70.639019 46.6348 
L 70.740507 45.779587 
L 70.841996 47.012341 
L 70.943484 45.839488 
L 71.146461 46.671839 
L 71.247949 46.228523 
L 71.349438 47.1513 
L 71.450926 46.222776 
L 71.653903 46.315245 
L 71.755391 45.993007 
L 71.85688 46.672478 
L 72.262833 46.21971 
L 72.567298 46.765586 
L 72.668787 46.764436 
L 72.770275 46.369781 
L 72.871763 46.470808 
L 73.07474 46.291489 
L 73.176228 46.789725 
L 73.277717 45.748551 
L 73.480694 46.731484 
L 73.582182 46.200808 
L 73.68367 47.261778 
L 73.785159 46.41129 
L 73.886647 46.779252 
L 73.988135 46.589715 
L 74.089624 45.746763 
L 74.191112 47.092421 
L 74.292601 46.313457 
L 74.394089 46.607085 
L 74.597066 45.959673 
L 74.698554 46.7956 
L 74.800042 46.437984 
L 74.901531 47.125756 
L 75.104508 46.194166 
L 75.205996 47.056532 
L 75.307484 46.062998 
L 75.510461 46.690359 
L 75.611949 46.255217 
L 75.713438 46.771461 
L 75.814926 45.8377 
L 76.017903 46.562639 
L 76.22088 46.977984 
L 76.423856 46.189185 
L 76.525345 46.700448 
L 76.626833 46.026726 
L 76.728322 46.796622 
L 76.931298 45.491451 
L 77.032787 46.805179 
L 77.134275 45.97832 
L 77.337252 46.882322 
L 77.43874 45.862222 
L 77.540229 46.90314 
L 77.641717 45.674729 
L 77.743205 46.467359 
L 77.844694 45.89709 
L 78.04767 46.414611 
L 78.149159 45.709852 
L 78.250647 46.293149 
L 78.352136 46.093779 
L 78.453624 46.197487 
L 78.555112 46.644763 
L 78.656601 46.036688 
L 78.758089 46.394304 
L 78.859577 45.606016 
L 78.961066 45.760174 
L 79.062554 46.344237 
L 79.164043 45.847662 
L 79.265531 45.989942 
L 79.468508 45.643949 
L 79.671484 46.36033 
L 79.772973 46.252534 
L 79.97595 45.275221 
L 80.077438 46.199658 
L 80.280415 45.594904 
L 80.381903 46.175902 
L 80.483391 44.974313 
L 80.58488 45.926849 
L 80.686368 45.500775 
L 80.787857 46.046139 
L 80.990833 45.5184 
L 81.092322 46.23376 
L 81.19381 45.201399 
L 81.396787 45.675751 
L 81.701252 45.161934 
L 81.904229 45.592861 
L 82.005717 45.583026 
L 82.107205 45.892236 
L 82.310182 44.664975 
L 82.411671 45.811645 
L 82.513159 44.881588 
L 82.614647 45.607293 
L 82.716136 45.291058 
L 82.817624 44.482719 
L 82.919112 45.424781 
L 83.020601 44.945704 
L 83.122089 45.82148 
L 83.325066 44.912496 
L 83.426554 45.53577 
L 83.528043 44.893338 
L 83.629531 45.292591 
L 83.731019 44.81428 
L 83.832508 44.83893 
L 83.933996 45.420311 
L 84.035485 44.543003 
L 84.136973 45.520571 
L 84.238461 44.907898 
L 84.441438 45.59516 
L 84.542926 44.674682 
L 84.644415 45.546882 
L 84.847392 44.562288 
L 85.050368 45.445089 
L 85.151857 45.020931 
L 85.253345 45.148778 
L 85.354833 44.78963 
L 85.456322 46.029025 
L 85.55781 45.180198 
L 85.760787 45.542156 
L 85.862275 44.443636 
L 85.963764 46.027875 
L 86.065252 45.143797 
L 86.268229 45.415075 
L 86.369717 44.654757 
L 86.471206 46.181522 
L 86.572694 45.083003 
L 86.674182 45.93349 
L 86.877159 44.834204 
L 86.978647 46.092501 
L 87.080136 45.973339 
L 87.181624 45.604611 
L 87.283113 45.84779 
L 87.384601 45.098457 
L 87.486089 46.095694 
L 87.689066 45.507672 
L 87.790554 46.430065 
L 87.892043 44.635472 
L 87.993531 46.677459 
L 88.196508 45.835018 
L 88.297996 46.896754 
L 88.399485 45.741399 
L 88.500973 46.648339 
L 88.70395 45.784313 
L 88.805438 46.828935 
L 88.906927 46.101059 
L 89.008415 47.19217 
L 89.109903 46.971343 
L 89.211392 46.273864 
L 89.31288 47.393585 
L 89.414368 46.700832 
L 89.515857 47.371489 
L 89.617345 46.828679 
L 89.718834 47.089739 
L 89.820322 47.917748 
L 89.92181 47.428325 
L 90.023299 48.059644 
L 90.226275 47.314271 
L 90.327764 48.218911 
L 90.429252 47.773679 
L 90.530741 48.454427 
L 90.733717 47.600236 
L 90.835206 49.009115 
L 90.936694 48.192729 
L 91.038182 49.45026 
L 91.241159 48.866324 
L 91.342648 49.253826 
L 91.444136 48.894805 
L 91.545624 49.609526 
L 91.748601 48.887653 
L 91.850089 49.886168 
L 91.951578 49.539664 
L 92.053066 49.835335 
L 92.154555 50.77561 
L 92.256043 49.851428 
L 92.357531 50.978046 
L 92.45902 49.863051 
L 92.661996 50.87421 
L 92.763485 50.25017 
L 92.864973 51.914872 
L 92.966462 50.372909 
L 93.169438 51.717289 
L 93.270927 51.30667 
L 93.372415 52.655776 
L 93.473903 51.35201 
L 93.67688 52.247072 
L 93.778369 51.651386 
L 93.879857 52.866769 
L 93.981345 52.814149 
L 94.082834 52.05 
L 94.184322 52.938676 
L 94.28581 52.671996 
L 94.387299 53.973335 
L 94.488787 53.190284 
L 94.590276 53.246992 
L 94.691764 54.30298 
L 94.793252 52.957323 
L 94.894741 54.581793 
L 94.996229 53.785076 
L 95.097717 54.509248 
L 95.199206 54.216003 
L 95.300694 54.301065 
L 95.503671 55.380554 
L 95.605159 55.229844 
L 95.706648 55.860909 
L 95.808136 55.360246 
L 96.011113 55.979433 
L 96.112601 55.78632 
L 96.21409 57.268383 
L 96.315578 55.834215 
L 96.417066 57.493042 
L 96.518555 56.863511 
L 96.620043 56.905914 
L 96.721531 57.922309 
L 96.82302 57.228662 
L 96.924508 58.475337 
L 97.025997 57.626893 
L 97.127485 57.930228 
L 97.43195 59.350602 
L 97.634927 59.010483 
L 97.837904 59.855734 
L 97.939392 60.044249 
L 98.04088 60.621288 
L 98.142369 59.550356 
L 98.243857 61.205224 
L 98.345345 60.716056 
L 98.446834 61.883161 
L 98.548322 61.781369 
L 98.649811 61.354528 
L 98.751299 62.149074 
L 98.852787 62.060437 
L 99.461718 63.316563 
L 99.563206 64.518535 
L 99.766183 64.330915 
L 100.273625 65.494061 
L 100.375113 65.44425 
L 100.679578 67.36899 
L 100.781066 66.775348 
L 100.882555 67.243441 
L 101.085532 67.204104 
L 101.288508 68.135054 
L 101.389997 67.845002 
L 101.592973 68.909548 
L 101.694462 69.132292 
L 101.79595 69.966176 
L 101.897439 69.656199 
L 102.303392 70.60848 
L 102.40488 71.165211 
L 102.506369 70.911431 
L 103.115299 73.060831 
L 103.216787 72.785594 
L 103.419764 73.454719 
L 103.521253 74.163693 
L 103.622741 73.610282 
L 103.825718 74.676872 
L 104.231671 76.005287 
L 104.33316 75.22594 
L 104.434648 76.346555 
L 104.536136 76.195463 
L 104.637625 77.401267 
L 104.739113 76.384105 
L 104.840601 77.772293 
L 104.94209 77.251196 
L 105.043578 78.177038 
L 105.145067 77.549294 
L 105.55102 79.501239 
L 105.956974 79.977634 
L 106.15995 80.821991 
L 106.261439 80.675496 
L 106.464415 81.514617 
L 106.565904 82.828855 
L 106.667392 82.181443 
L 106.870369 82.585166 
L 106.971857 82.605601 
L 107.174834 83.574868 
L 107.377811 83.615738 
L 107.479299 84.107332 
L 107.682276 85.322332 
L 107.783764 85.168685 
L 108.088229 85.627839 
L 108.291206 86.434007 
L 108.392695 85.852881 
L 108.69716 87.817087 
L 108.900136 87.689111 
L 109.001625 87.840587 
L 109.204602 88.616231 
L 109.407578 88.44432 
L 109.610555 89.682054 
L 109.712043 89.853071 
L 109.813532 90.462934 
L 109.91502 90.016936 
L 110.016509 90.635739 
L 110.117997 90.449013 
L 110.422462 91.596321 
L 110.52395 91.402825 
L 110.625439 92.093535 
L 110.726927 91.992125 
L 110.828416 92.747078 
L 110.929904 92.717447 
L 111.031392 93.20521 
L 111.132881 93.050541 
L 111.335857 93.850451 
L 111.437346 93.737547 
L 111.741811 94.552911 
L 111.944788 95.498422 
L 112.046276 95.54223 
L 112.249253 95.902273 
L 112.45223 96.593876 
L 112.553718 96.849827 
L 112.655206 96.446232 
L 112.959671 98.137628 
L 113.06116 98.124856 
L 113.264137 98.7033 
L 113.365625 98.49767 
L 113.67009 100.097491 
L 113.771578 99.667458 
L 113.873067 100.215504 
L 113.974555 100.004128 
L 114.27902 101.393976 
L 114.380509 100.990637 
L 114.684974 102.812179 
L 114.887951 102.525959 
L 115.293904 104.078523 
L 115.395392 103.650916 
L 115.801346 105.459303 
L 115.902834 105.215869 
L 116.004323 105.270278 
L 116.308788 106.486172 
L 116.410276 106.754895 
L 116.511765 106.540325 
L 116.81623 108.478221 
L 116.917718 107.623774 
L 117.019206 108.462511 
L 117.120695 108.128779 
L 117.222183 109.188599 
L 117.323672 109.089999 
L 117.42516 109.718637 
L 117.526648 109.208013 
L 117.831113 110.979106 
L 117.932602 110.706296 
L 118.03409 111.130582 
L 118.135579 110.88421 
L 118.237067 111.767521 
L 118.338555 111.643377 
L 118.440044 112.338302 
L 118.541532 111.80456 
L 118.845997 113.46211 
L 118.947486 113.136552 
L 119.353439 114.363685 
L 119.454927 114.223576 
L 119.759393 114.481826 
L 119.962369 114.831268 
L 120.063858 114.821178 
L 120.266834 115.588009 
L 120.368323 116.134906 
L 120.469811 115.667578 
L 120.5713 116.169263 
L 120.672788 115.978066 
L 120.875765 116.505932 
L 120.977253 116.188421 
L 121.078741 117.096254 
L 121.281718 116.917191 
L 121.383207 117.842139 
L 121.484695 117.126524 
L 121.586183 118.225554 
L 121.687672 117.30597 
L 121.890648 118.526335 
L 121.992137 117.753501 
L 122.093625 118.722513 
L 122.195114 118.643071 
L 122.296602 118.645625 
L 122.39809 119.660871 
L 122.499579 118.91422 
L 122.601067 119.90852 
L 122.702555 119.300829 
L 122.804044 119.418331 
L 122.905532 120.301132 
L 123.007021 119.666236 
L 123.108509 120.497437 
L 123.311486 120.066638 
L 123.412974 121.647045 
L 123.514462 120.736274 
L 123.615951 121.57169 
L 123.717439 120.763478 
L 123.920416 122.029694 
L 124.021904 121.583313 
L 124.123393 122.31783 
L 124.326369 121.946931 
L 124.427858 123.223493 
L 124.529346 122.811723 
L 124.630835 123.306255 
L 124.732323 122.788606 
L 124.833811 122.955792 
L 124.9353 123.911648 
L 125.036788 123.099476 
L 125.138276 124.405669 
L 125.239765 123.819179 
L 125.341253 123.862348 
L 125.442742 125.158961 
L 125.54423 124.392386 
L 125.645718 125.144529 
L 125.747207 124.550248 
L 125.848695 124.977343 
L 125.950183 125.887987 
L 126.051672 124.905309 
L 126.15316 126.259269 
L 126.254649 125.6996 
L 126.356137 125.807779 
L 126.457625 126.857509 
L 126.559114 126.571289 
L 126.660602 126.810891 
L 126.76209 126.564264 
L 126.863579 126.744733 
L 126.965067 127.845423 
L 127.066556 126.926606 
L 127.168044 127.952197 
L 127.371021 127.267618 
L 127.472509 128.536388 
L 127.573997 128.035726 
L 127.675486 128.256426 
L 127.878463 127.884633 
L 127.979951 128.839979 
L 128.081439 128.320158 
L 128.182928 129.005504 
L 128.284416 128.644823 
L 128.385904 128.854283 
L 128.487393 129.757391 
L 128.588881 129.331573 
L 128.791858 129.474619 
L 128.893346 129.02811 
L 129.096323 130.131866 
L 129.2993 129.858801 
L 129.603765 130.883754 
L 129.705253 130.627165 
L 129.90823 130.994359 
L 130.111207 131.616611 
L 130.314184 131.337543 
L 130.51716 132.125064 
L 130.618649 132.095433 
L 130.923114 132.413712 
L 131.126091 133.097524 
L 131.227579 132.641947 
L 131.532044 133.832297 
L 131.633532 133.736763 
L 131.836509 133.679417 
L 131.937998 133.903565 
L 132.039486 134.872577 
L 132.140974 134.753159 
L 132.242463 134.38507 
L 132.343951 134.895822 
L 132.445439 134.795817 
L 132.546928 135.778367 
L 132.648416 135.557922 
L 132.749905 135.641451 
L 132.851393 135.440292 
L 133.155858 136.841508 
L 133.257346 136.220406 
L 133.561812 137.544606 
L 133.967765 137.902095 
L 134.170742 138.767525 
L 134.475207 139.307781 
L 134.678184 139.987507 
L 134.779672 139.727213 
L 135.185626 141.595246 
L 135.287114 141.141201 
L 135.490091 141.633434 
L 135.693067 142.733486 
L 135.794556 142.4571 
L 136.403486 144.896296 
L 136.504974 144.759764 
L 136.707951 146.285379 
L 136.80944 146.276694 
L 136.910928 146.503525 
L 137.215393 148.480758 
L 137.316881 148.696349 
L 137.722835 151.003866 
L 137.824323 150.244443 
L 138.128788 152.908426 
L 138.230277 152.76538 
L 138.534742 153.689689 
L 138.63623 154.033001 
L 138.737719 155.402798 
L 138.839207 153.825711 
L 139.143672 157.095215 
L 139.245161 156.977074 
L 139.346649 157.234941 
L 139.448137 157.048214 
L 139.651114 158.186582 
L 140.158556 161.27383 
L 140.260044 161.093745 
L 140.463021 161.621739 
L 140.767486 163.04786 
L 140.868975 163.094861 
L 141.376416 165.741219 
L 141.477905 165.815169 
L 141.680882 167.397109 
L 141.78237 166.940127 
L 141.883858 167.334143 
L 142.086835 169.184167 
L 142.188323 169.777809 
L 142.289812 169.500529 
L 142.492789 170.492147 
L 142.594277 171.37648 
L 142.695765 170.662781 
L 143.00023 173.191381 
L 143.101719 173.448992 
L 143.304696 174.155156 
L 143.507672 174.993766 
L 143.609161 175.792399 
L 143.710649 175.421883 
L 144.015114 178.199409 
L 144.116603 178.153558 
L 144.421068 179.569079 
L 144.725533 181.16826 
L 145.53744 185.764136 
L 145.638928 185.14942 
L 145.943393 187.874326 
L 146.044882 187.894506 
L 146.450835 190.186824 
L 146.552324 190.271885 
L 146.856789 192.870093 
L 146.958277 192.865878 
L 147.161254 193.286077 
L 147.262742 194.647061 
L 147.364231 194.520107 
L 147.465719 195.578395 
L 147.567207 195.0269 
L 147.871672 197.949517 
L 147.973161 197.376054 
L 148.277626 199.333618 
L 148.379114 199.282019 
L 148.480603 199.579224 
L 148.683579 201.159247 
L 148.785068 201.302038 
L 149.191021 203.407502 
L 149.29251 203.292171 
L 149.596975 205.627786 
L 149.698463 205.638387 
L 150.002928 206.759769 
L 150.104417 206.979575 
L 150.713347 210.285607 
L 150.916324 210.948856 
L 151.423765 213.198516 
L 151.525254 214.529869 
L 151.626742 214.143005 
L 151.728231 214.648266 
L 151.829719 214.457707 
L 152.134184 215.480745 
L 152.235672 215.471166 
L 152.438649 217.221568 
L 152.540138 217.187083 
L 152.641626 217.003678 
L 153.047579 218.16644 
L 153.149068 217.948167 
L 153.453533 220.03575 
L 153.65651 219.603929 
L 153.960975 221.275911 
L 154.062463 220.608319 
L 154.26544 221.434667 
L 154.366928 222.562051 
L 154.468417 221.981053 
L 154.569905 222.232661 
L 154.671393 221.994208 
L 154.772882 222.38286 
L 154.87437 222.276597 
L 154.975859 222.789904 
L 155.077347 222.379156 
L 155.381812 224.058929 
L 155.4833 223.955476 
L 155.584789 224.35243 
L 155.686277 224.039388 
L 155.889254 225.086564 
L 155.990742 224.929086 
L 156.092231 225.758755 
L 156.193719 225.737298 
L 156.396696 226.881286 
L 156.498184 226.75612 
L 156.599673 227.119483 
L 156.701161 226.93033 
L 156.802649 227.954644 
L 156.904138 227.330094 
L 157.005626 227.723599 
L 157.208603 229.333382 
L 157.310091 228.804876 
L 157.41158 229.278973 
L 157.513068 228.760174 
L 157.716045 230.043377 
L 157.817533 229.575028 
L 158.121998 231.968117 
L 158.223487 231.221849 
L 158.324975 231.5999 
L 158.426463 231.150071 
L 158.62944 232.320624 
L 158.730928 231.885099 
L 158.933905 233.352346 
L 159.035394 233.427062 
L 159.136882 233.670241 
L 159.23837 233.474702 
L 159.644324 234.613964 
L 159.745812 234.235019 
L 160.050277 235.917985 
L 160.151766 235.908917 
L 160.253254 235.525629 
L 160.557719 236.947281 
L 160.659208 236.286968 
L 160.862184 237.238865 
L 160.963673 238.401628 
L 161.065161 237.438364 
L 161.166649 238.389495 
L 161.268138 237.398387 
L 161.471115 238.475195 
L 161.572603 238.800497 
L 161.674091 238.226652 
L 161.877068 240.034145 
L 161.978556 239.820086 
L 162.080045 239.962366 
L 162.181533 239.67423 
L 162.283022 240.195966 
L 162.38451 240.040658 
L 162.485998 240.424202 
L 162.587487 240.389973 
L 162.688975 240.682451 
L 162.891952 241.496155 
L 162.99344 241.899623 
L 163.094929 241.484788 
L 163.196417 241.791316 
L 163.297905 241.671515 
L 163.399394 242.116364 
L 163.500882 241.539963 
L 163.60237 241.702551 
L 163.805347 240.211931 
L 163.906836 240.192134 
L 164.008324 240.441699 
L 164.211301 238.873426 
L 164.414277 237.51027 
L 164.617254 237.447815 
L 164.820231 235.926415 
L 164.921719 235.721807 
L 165.023208 236.053879 
L 165.226184 234.566197 
L 165.53065 233.113127 
L 165.632138 233.138543 
L 165.835115 231.89736 
L 165.936603 231.464389 
L 166.038091 231.885482 
L 166.444045 229.293788 
L 166.545533 229.299919 
L 166.647022 229.131712 
L 166.74851 227.652587 
L 166.849998 228.070869 
L 166.951487 227.356021 
L 167.052975 227.928462 
L 167.255952 226.492761 
L 167.458929 225.639081 
L 167.763394 224.586668 
L 167.966371 223.661465 
L 168.067859 223.7312 
L 168.372324 222.045552 
L 168.473812 221.781299 
L 168.575301 220.967467 
L 168.676789 221.211285 
L 168.778278 220.115703 
L 168.879766 220.166663 
L 168.981254 219.977637 
L 169.082743 220.087349 
L 169.184231 218.976951 
L 169.285719 219.042472 
L 169.590185 217.265376 
L 169.691673 217.755182 
L 169.793161 216.15766 
L 169.89465 216.206322 
L 169.996138 215.995711 
L 170.097626 216.79626 
L 170.300603 215.069103 
L 170.50358 213.760229 
L 170.605068 214.033294 
L 170.706557 213.846951 
L 170.909533 212.649959 
L 171.011022 212.203833 
L 171.11251 212.965683 
L 171.416975 210.925484 
L 171.72144 209.9695 
L 171.924417 209.023733 
L 172.025906 208.995252 
L 172.127394 209.460919 
L 172.330371 207.943733 
L 172.431859 207.088264 
L 172.533347 207.316883 
L 172.837813 206.00571 
L 172.939301 206.086812 
L 173.040789 205.059688 
L 173.142278 206.080171 
L 173.345254 204.571542 
L 173.64972 203.447734 
L 173.751208 203.459868 
L 173.954185 202.422143 
L 174.25865 201.812918 
L 174.664603 200.333793 
L 174.766092 200.248093 
L 174.969068 199.064129 
L 175.070557 199.074346 
L 175.172045 199.458273 
L 175.375022 197.982852 
L 175.679487 197.148457 
L 175.780975 197.255103 
L 175.882464 195.863338 
L 175.983952 195.992846 
L 176.085441 195.431517 
L 176.186929 196.249947 
L 176.592882 194.209748 
L 176.694371 194.024937 
L 177.100324 192.440443 
L 177.201813 193.155292 
L 177.303301 191.787155 
L 177.404789 192.042084 
L 177.709255 190.260646 
L 177.810743 190.659643 
L 178.01372 189.629454 
L 178.115208 189.242845 
L 178.216696 189.757557 
L 178.724138 187.446719 
L 178.825627 187.547874 
L 178.927115 186.053677 
L 179.028603 186.562514 
L 179.130092 186.213327 
L 179.23158 186.54987 
L 179.637534 184.314259 
L 179.739022 184.339292 
L 180.144976 182.996572 
L 180.246464 183.257248 
L 180.652417 181.187291 
L 180.753906 181.287934 
L 180.956883 179.762319 
L 181.058371 180.417778 
L 181.159859 179.802806 
L 181.261348 179.864112 
L 181.667301 177.84703 
L 181.870278 177.813823 
L 182.073255 176.740975 
L 182.174743 176.379655 
L 182.276231 176.77597 
L 182.682185 174.717124 
L 182.783673 174.871665 
L 183.189627 173.243363 
L 183.291115 173.727677 
L 183.59558 171.889915 
L 183.697069 171.966163 
L 184.103022 170.40121 
L 184.204511 170.436206 
L 184.407487 170.012048 
L 184.813441 168.185652 
L 184.914929 168.304304 
L 185.117906 167.146139 
L 185.219394 167.184455 
L 185.320883 167.564167 
L 185.726836 165.579526 
L 185.828325 165.727681 
L 186.031301 164.303092 
L 186.13279 164.49365 
L 186.234278 164.125817 
L 186.335766 164.542056 
L 186.437255 164.1755 
L 186.640232 162.90558 
L 186.944697 162.178981 
L 187.147673 161.426327 
L 187.249162 161.343054 
L 187.35065 161.568735 
L 187.655115 159.919742 
L 187.95958 159.263773 
L 188.162557 158.74855 
L 188.365534 158.20293 
L 188.467022 157.971885 
L 188.568511 156.814487 
L 188.669999 157.170314 
L 188.771487 156.674122 
L 188.872976 157.42154 
L 189.075953 156.197088 
L 189.278929 154.958971 
L 189.481906 155.251705 
L 189.583394 153.879737 
L 189.786371 154.3053 
L 190.192325 152.685172 
L 190.801255 151.156747 
L 190.902743 151.382556 
L 191.10572 150.357603 
L 191.207208 149.479528 
L 191.308697 149.674301 
L 191.410185 149.098795 
L 191.511674 149.355512 
L 191.71465 148.282664 
L 191.816139 148.08176 
L 191.917627 148.567224 
L 192.222092 146.879788 
L 192.323581 146.758454 
L 192.628046 145.382143 
L 192.729534 145.434508 
L 192.831022 145.556864 
L 193.236976 143.880539 
L 193.744418 142.567833 
L 193.947395 143.44974 
L 194.048883 142.643316 
L 194.150371 143.149215 
L 194.353348 142.089777 
L 194.556325 142.981008 
L 194.657813 141.73395 
L 194.962278 144.602668 
L 195.063767 142.912294 
L 195.165255 143.630975 
L 195.266743 142.121707 
L 195.46972 142.931069 
L 195.571209 142.844603 
L 195.672697 142.927876 
L 195.774185 143.833155 
L 195.875674 143.061471 
L 195.977162 144.559882 
L 196.180139 143.457403 
L 196.383116 143.023283 
L 196.687581 143.616542 
L 196.789069 143.626632 
L 196.890557 143.158921 
L 196.992046 145.576405 
L 197.093534 143.471197 
L 197.195023 144.039551 
L 197.296511 143.353056 
L 197.397999 143.742985 
L 197.600976 143.522413 
L 197.905441 144.159735 
L 198.00693 144.681982 
L 198.108418 144.60203 
L 198.311395 143.71859 
L 198.514371 144.273789 
L 198.61586 143.573373 
L 198.818837 144.342119 
L 198.920325 144.170081 
L 199.021813 145.520464 
L 199.123302 143.749499 
L 199.22479 145.101798 
L 199.326278 143.605558 
L 199.427767 144.191665 
L 199.630744 143.69228 
L 199.732232 144.351698 
L 199.83372 144.277876 
L 199.935209 144.429991 
L 200.036697 145.083406 
L 200.138185 144.41211 
L 200.239674 144.793482 
L 200.341162 143.774149 
L 200.544139 144.033803 
L 200.747116 144.055643 
L 200.950092 144.653501 
L 201.051581 145.847299 
L 201.153069 144.134702 
L 201.254558 144.648392 
L 201.356046 143.355993 
L 201.457534 144.760402 
L 201.559023 143.87824 
L 201.761999 144.248245 
L 201.863488 144.708293 
L 201.964976 144.459239 
L 202.066465 145.497985 
L 202.269441 143.976202 
L 202.37093 144.459366 
L 202.472418 144.294863 
L 202.573906 144.693732 
L 202.776883 143.795478 
L 202.97986 144.922607 
L 203.182837 144.989532 
L 203.284325 143.870705 
L 203.385813 143.916556 
L 203.487302 144.985317 
L 203.791767 143.999958 
L 204.096232 145.21036 
L 204.299209 144.187706 
L 204.400697 144.843293 
L 204.806651 143.702753 
L 205.009627 145.647801 
L 205.111116 145.138453 
L 205.212604 145.043685 
L 205.314093 143.987952 
L 205.517069 144.681982 
L 205.618558 144.914433 
L 205.720046 143.822299 
L 205.821534 143.904295 
L 205.923023 144.508155 
L 206.024511 146.20632 
L 206.227488 144.143515 
L 206.328976 144.587214 
L 206.531953 144.505601 
L 206.633441 144.953004 
L 206.73493 144.209674 
L 206.836418 144.323983 
L 207.039395 145.707957 
L 207.34386 144.225766 
L 207.648325 145.138837 
L 207.749814 143.807484 
L 207.851302 145.020951 
L 207.95279 144.479674 
L 208.054279 145.95088 
L 208.155767 144.704972 
L 208.257255 145.377162 
L 208.460232 144.237006 
L 208.663209 145.400024 
L 208.764697 144.083742 
L 208.866186 144.217337 
L 208.967674 144.804977 
L 209.069162 146.799707 
L 209.170651 144.625785 
L 209.272139 145.00588 
L 209.373628 144.416069 
L 209.576604 144.960923 
L 209.678093 145.893023 
L 209.779581 143.596618 
L 209.881069 144.825412 
L 209.982558 144.652734 
L 210.084046 146.921808 
L 210.185535 144.785052 
L 210.287023 145.318283 
L 210.388511 144.126911 
L 210.49 144.987616 
L 210.591488 144.822602 
L 210.692976 145.768879 
L 210.794465 143.563283 
L 210.895953 145.326202 
L 210.997442 145.241396 
L 211.09893 146.193293 
L 211.200418 145.034617 
L 211.301907 145.193245 
L 211.403395 144.749929 
L 211.504883 145.299892 
L 211.606372 144.683132 
L 211.70786 145.503988 
L 211.809349 145.431188 
L 212.012325 144.932569 
L 212.113814 145.090686 
L 212.215302 144.593345 
L 212.31679 146.054206 
L 212.418279 144.316703 
L 212.519767 145.077148 
L 212.621256 144.951982 
L 212.722744 146.631372 
L 212.824232 145.324286 
L 212.925721 145.527872 
L 213.027209 144.577124 
L 213.331674 146.450265 
L 213.433163 143.90404 
L 213.737628 146.570067 
L 213.839116 145.35098 
L 213.940604 145.888297 
L 214.042093 144.782115 
L 214.143581 145.258255 
L 214.24507 145.164253 
L 214.346558 146.541841 
L 214.448046 143.361485 
L 214.549535 146.069788 
L 214.651023 145.121594 
L 214.752511 147.103425 
L 215.056977 144.366769 
L 215.158465 145.926613 
L 215.259953 145.071784 
L 215.361442 145.718558 
L 215.46293 145.08264 
L 215.767395 146.546055 
L 215.868884 145.761599 
L 215.970372 146.223179 
L 216.07186 144.954409 
L 216.173349 145.593392 
L 216.274837 145.554565 
L 216.376325 145.776159 
L 216.477814 145.265407 
L 216.782279 147.05834 
L 216.985256 145.323392 
L 217.086744 146.345535 
L 217.188232 145.577299 
L 217.289721 146.148335 
L 217.492698 145.168212 
L 217.594186 145.65291 
L 217.695674 146.695105 
L 217.898651 145.795062 
L 218.000139 146.029939 
L 218.101628 146.556528 
L 218.203116 145.355577 
L 218.304605 145.760961 
L 218.406093 146.736869 
L 218.507581 146.094182 
L 218.60907 146.132115 
L 218.710558 146.511699 
L 218.812046 146.143099 
L 218.913535 145.072678 
L 219.218 147.149277 
L 219.319488 146.04335 
L 219.522465 146.228799 
L 219.623953 146.248468 
L 219.725442 146.552186 
L 219.928419 145.58509 
L 220.131395 147.067664 
L 220.232884 147.310715 
L 220.43586 146.212068 
L 220.638837 146.40633 
L 220.740326 147.056935 
L 220.841814 145.094901 
L 221.146279 148.624826 
L 221.247767 146.254471 
L 221.349256 147.112621 
L 221.450744 145.989707 
L 221.755209 147.172905 
L 221.856698 146.181159 
L 221.958186 146.536349 
L 222.059674 146.402626 
L 222.161163 148.273979 
L 222.465628 146.218581 
L 222.668605 147.387475 
L 222.770093 147.541633 
L 222.871581 146.446178 
L 223.074558 147.62746 
L 223.176047 145.679986 
L 223.277535 147.08414 
L 223.379023 146.589736 
L 223.480512 149.056392 
L 223.582 146.925384 
L 223.683488 147.574712 
L 223.987954 146.88247 
L 224.089442 148.047531 
L 224.19093 146.278865 
L 224.292419 147.3922 
L 224.393907 147.123605 
L 224.495395 149.099178 
L 224.596884 147.685062 
L 224.698372 147.779703 
L 224.799861 146.456396 
L 224.901349 148.066179 
L 225.002837 147.208156 
L 225.104326 147.466406 
L 225.205814 147.244556 
L 225.510279 148.85204 
L 225.611768 147.63027 
L 225.713256 147.687233 
L 225.814744 147.501784 
L 225.916233 148.565308 
L 226.017721 148.343331 
L 226.220698 147.436902 
L 226.322186 148.221103 
L 226.423675 148.193132 
L 226.626651 147.234849 
L 226.829628 149.569826 
L 226.931116 148.241283 
L 227.032605 148.3865 
L 227.134093 147.916363 
L 227.438558 149.03634 
L 227.540047 146.401093 
L 227.641535 148.92484 
L 227.743023 147.933733 
L 227.844512 150.234353 
L 227.946 148.300034 
L 228.047489 148.92203 
L 228.148977 148.063624 
L 228.351954 148.384968 
L 228.453442 148.492508 
L 228.55493 148.405786 
L 228.859396 149.814921 
L 228.960884 148.408213 
L 229.366837 149.071335 
L 229.468326 148.917815 
L 229.569814 148.313061 
L 229.772791 150.133199 
L 229.874279 149.426907 
L 229.975768 149.577106 
L 230.178744 148.793161 
L 230.381721 150.006884 
L 230.48321 148.11369 
L 230.787675 150.702319 
L 230.889163 149.700228 
L 230.990651 149.739183 
L 231.09214 149.087555 
L 231.193628 149.931274 
L 231.295117 149.226004 
L 231.396605 150.34713 
L 231.498093 148.449466 
L 231.802558 151.426236 
L 231.904047 150.022593 
L 232.005535 150.109571 
L 232.107024 149.097517 
L 232.208512 149.848511 
L 232.31 149.799466 
L 232.411489 149.643648 
L 232.512977 149.871117 
L 232.614465 150.479959 
L 232.715954 150.13984 
L 232.817442 151.160706 
L 233.020419 149.875588 
L 233.223396 150.274457 
L 233.324884 150.451477 
L 233.527861 149.281179 
L 233.730838 151.189315 
L 234.035303 150.161936 
L 234.136791 150.380082 
L 234.238279 150.164362 
L 234.339768 150.959547 
L 234.441256 149.409793 
L 234.644233 150.473062 
L 234.745721 152.695517 
L 234.84721 150.447262 
L 234.948698 150.824675 
L 235.050186 149.83906 
L 235.354652 151.613729 
L 235.45614 149.280796 
L 235.659117 150.965167 
L 235.760605 152.106345 
L 235.862093 150.838341 
L 235.963582 151.242064 
L 236.06507 150.051458 
L 236.268047 151.010507 
L 236.369535 150.782783 
L 236.471024 150.250701 
L 236.572512 151.368634 
L 236.674 151.344367 
L 236.775489 151.908762 
L 236.876977 151.086884 
L 236.978466 151.222906 
L 237.079954 150.845749 
L 237.181442 150.932726 
L 237.282931 151.374126 
L 237.485907 150.512783 
L 237.587396 150.631179 
L 237.688884 152.786326 
L 237.891861 150.977683 
L 237.993349 151.386004 
L 238.094838 150.841662 
L 238.196326 150.999523 
L 238.297814 151.567494 
L 238.399303 150.314433 
L 238.60228 151.085096 
L 238.703768 152.992721 
L 238.805256 151.353946 
L 238.906745 151.92958 
L 239.008233 150.410862 
L 239.21121 151.352541 
L 239.414187 150.673454 
L 239.617163 151.965981 
L 239.718652 151.953081 
L 239.921628 151.115621 
L 240.023117 151.101316 
L 240.226094 151.406567 
L 240.327582 151.035668 
L 240.42907 151.190337 
L 240.530559 150.325545 
L 240.632047 152.711993 
L 240.733535 151.614623 
L 240.835024 151.675928 
L 240.936512 151.497759 
L 241.038001 150.642802 
L 241.139489 150.984197 
L 241.240977 152.315295 
L 241.342466 150.272924 
L 241.545442 151.020342 
L 241.646931 153.257357 
L 241.849908 151.489968 
L 241.951396 150.5981 
L 242.052884 151.145124 
L 242.154373 150.696955 
L 242.255861 151.544377 
L 242.357349 150.702702 
L 242.560326 152.08923 
L 242.661815 151.16607 
L 242.864791 151.677333 
L 242.96628 150.3645 
L 243.169256 151.338748 
L 243.270745 151.326742 
L 243.372233 150.569873 
L 243.57521 151.993057 
L 243.676698 151.923705 
L 243.778187 150.847664 
L 243.879675 151.553828 
L 243.981163 150.961846 
L 244.18414 151.694576 
L 244.285629 149.709552 
L 244.590094 152.761804 
L 244.79307 151.186761 
L 244.894559 150.495668 
L 245.199024 152.301756 
L 245.300512 149.917863 
L 245.402001 151.386643 
L 245.503489 150.624282 
L 245.604977 152.630763 
L 245.706466 151.189188 
L 245.807954 151.556383 
L 245.909443 150.741785 
L 246.112419 151.648724 
L 246.315396 150.589415 
L 246.518373 151.751794 
L 246.619861 152.105962 
L 246.72135 151.772996 
L 246.924326 150.662854 
L 247.025815 151.664817 
L 247.127303 151.452035 
L 247.228791 150.796321 
L 247.634745 152.282854 
L 247.93921 150.85686 
L 248.040698 151.690744 
L 248.142187 151.164282 
L 248.345164 151.400947 
L 248.446652 151.342707 
L 248.649629 152.357825 
L 248.852605 151.468639 
L 248.954094 151.337215 
L 249.157071 152.019878 
L 249.258559 150.86529 
L 249.461536 151.571326 
L 249.563024 152.922731 
L 249.664512 151.820507 
L 249.766001 152.068667 
L 249.867489 151.576945 
L 249.968978 151.818975 
L 250.070466 151.733402 
L 250.171954 151.010891 
L 250.577908 153.132575 
L 250.679396 151.657409 
L 250.780885 151.865593 
L 250.882373 151.792665 
L 251.08535 152.051042 
L 251.186838 151.587546 
L 251.288326 151.813611 
L 251.389815 151.233123 
L 251.491303 153.557372 
L 251.69428 152.369703 
L 251.795768 151.590228 
L 251.897257 152.240579 
L 251.998745 152.084249 
L 252.100233 152.93397 
L 252.201722 151.272716 
L 252.30321 152.208904 
L 252.404699 151.682059 
L 252.506187 154.00618 
L 252.709164 152.416832 
L 252.810652 151.774784 
L 252.91214 152.153346 
L 253.013629 153.267703 
L 253.115117 151.237593 
L 253.419582 153.186217 
L 253.521071 153.240754 
L 253.622559 153.133724 
L 253.724047 151.878492 
L 254.028513 153.351231 
L 254.130001 151.7767 
L 254.231489 152.635233 
L 254.332978 152.243005 
L 254.434466 154.428294 
L 254.637443 153.007154 
L 254.738931 152.536889 
L 254.941908 152.775087 
L 255.043396 153.696459 
L 255.144885 151.95985 
L 255.44935 154.421908 
L 255.753815 152.143384 
L 255.956792 153.513691 
L 256.05828 152.7581 
L 256.159768 152.880711 
L 256.464234 154.234798 
L 256.66721 152.728852 
L 256.768699 153.641411 
L 256.870187 153.479718 
L 256.971675 153.79442 
L 257.073164 152.799481 
L 257.174652 153.250971 
L 257.276141 152.808805 
L 257.377629 156.241152 
L 257.580606 153.572953 
L 257.783582 153.604883 
L 257.986559 154.036321 
L 258.189536 153.421477 
L 258.291024 154.698805 
L 258.392513 154.544008 
L 258.494001 153.87897 
L 258.595489 154.175153 
L 258.696978 153.809491 
L 258.798466 154.481809 
L 259.001443 154.016397 
L 259.102931 153.480101 
L 259.305908 155.192826 
L 259.508885 154.394448 
L 259.610373 154.294699 
L 259.711862 154.428422 
L 259.81335 153.728644 
L 259.914838 155.204065 
L 260.117815 153.826605 
L 260.219303 154.360986 
L 260.320792 156.145745 
L 260.42228 154.518081 
L 260.523769 155.180948 
L 260.625257 153.783691 
L 260.828234 154.835976 
L 260.929722 154.353706 
L 261.03121 154.399174 
L 261.132699 154.574661 
L 261.335676 155.653129 
L 261.437164 155.386194 
L 261.640141 154.617064 
L 261.741629 154.433403 
L 261.843117 155.423744 
L 261.944606 153.886889 
L 262.046094 154.999458 
L 262.147583 154.882083 
L 262.249071 155.996823 
L 262.553536 154.492026 
L 262.655024 154.827547 
L 262.756513 155.597826 
L 262.858001 154.170555 
L 263.060978 155.380957 
L 263.263955 155.721076 
L 263.365443 155.657471 
L 263.56842 155.135863 
L 263.771397 155.914699 
L 263.872885 154.477466 
L 264.17735 157.382202 
L 264.278838 155.400626 
L 264.380327 155.95723 
L 264.481815 155.091289 
L 264.583304 155.475726 
L 264.684792 155.389132 
L 264.78628 155.946629 
L 264.887769 154.870972 
L 264.989257 156.044335 
L 265.090745 155.649297 
L 265.192234 156.859827 
L 265.395211 155.392069 
L 265.496699 155.427958 
L 265.699676 156.549084 
L 265.801164 155.094737 
L 266.207118 156.567476 
L 266.308606 156.371426 
L 266.410094 155.110191 
L 266.714559 156.592765 
L 266.816048 154.114486 
L 267.019025 156.382793 
L 267.120513 156.920494 
L 267.222001 155.440347 
L 267.32349 156.443843 
L 267.424978 155.3489 
L 267.627955 155.874467 
L 267.830932 154.979534 
L 267.93242 157.747353 
L 268.033908 155.159491 
L 268.135397 155.892731 
L 268.338373 154.957821 
L 268.54135 155.824784 
L 268.642839 155.332935 
L 268.744327 157.221019 
L 268.947304 155.38977 
L 269.048792 155.525409 
L 269.15028 155.228077 
L 269.251769 156.408976 
L 269.454746 154.960759 
L 269.657722 156.638999 
L 269.759211 155.588886 
L 269.860699 156.097467 
L 269.962187 155.016445 
L 270.165164 155.670499 
L 270.266653 154.821672 
L 270.368141 155.481728 
L 270.469629 155.233952 
L 270.571118 155.650191 
L 270.672606 156.636956 
L 270.875583 155.280442 
L 270.977071 154.827674 
L 271.180048 155.856076 
L 271.281536 154.678114 
L 271.484513 155.605872 
L 271.586001 156.548701 
L 271.68749 155.377126 
L 271.788978 155.56845 
L 271.890467 154.531492 
L 271.991955 155.46538 
L 272.093443 155.416591 
L 272.194932 154.103502 
L 272.29642 157.277855 
L 272.397908 154.991795 
L 272.499397 155.776251 
L 272.600885 154.614893 
L 272.702374 155.51915 
L 272.90535 154.890768 
L 273.006839 154.584751 
L 273.209815 155.864633 
L 273.412792 155.365503 
L 273.514281 155.419784 
L 273.717257 154.775437 
L 273.818746 155.732187 
L 273.920234 154.079619 
L 274.224699 156.303862 
L 274.326188 155.238805 
L 274.427676 155.375338 
L 274.529164 154.430976 
L 274.630653 155.198956 
L 275.036606 154.811837 
L 275.239583 156.185849 
L 275.44256 154.95003 
L 275.544048 154.600971 
L 275.747025 155.466913 
L 275.848513 153.945768 
L 276.152978 156.600939 
L 276.254467 154.628431 
L 276.355955 155.23012 
L 276.457443 154.256511 
L 276.558932 155.175967 
L 276.66042 155.116322 
L 276.964885 154.440427 
L 277.066374 155.863611 
L 277.26935 154.558568 
L 277.573816 155.655045 
L 277.675304 154.573384 
L 277.776792 155.018999 
L 277.979769 154.646695 
L 278.081257 155.542268 
L 278.182746 153.802977 
L 278.487211 156.262225 
L 278.690188 154.945305 
L 278.791676 154.471591 
L 278.893164 154.819373 
L 279.096141 154.517187 
L 279.19763 154.802386 
L 279.299118 154.317561 
L 279.502095 155.679694 
L 279.705071 154.393043 
L 279.80656 154.267495 
L 280.009537 155.412887 
L 280.111025 153.699141 
L 280.41549 155.914444 
L 280.516978 154.627154 
L 280.618467 154.651549 
L 280.719955 154.558313 
L 280.821444 154.91925 
L 280.922932 154.768668 
L 281.02442 154.139647 
L 281.125909 154.190352 
L 281.328885 155.812012 
L 281.430374 154.616553 
L 281.531862 154.628048 
L 281.633351 154.41846 
L 281.734839 155.029472 
L 281.836327 154.788975 
L 281.937816 154.153696 
L 282.242281 154.936364 
L 282.343769 155.710475 
L 282.445258 154.360858 
L 282.546746 154.472868 
L 282.648234 154.92206 
L 282.749723 154.470569 
L 282.851211 155.241487 
L 282.952699 153.385844 
L 283.054188 154.631241 
L 283.155676 154.322925 
L 283.257165 155.92977 
L 283.358653 154.585134 
L 283.460141 155.299217 
L 283.56163 153.981785 
L 283.764606 154.822566 
L 283.967583 153.96748 
L 284.17056 155.473171 
L 284.272048 154.869311 
L 284.373537 154.943644 
L 284.475025 153.934273 
L 284.576513 154.747339 
L 284.678002 154.560229 
L 284.77949 155.347878 
L 284.880979 153.108947 
L 285.185444 155.489136 
L 285.38842 154.432892 
L 285.591397 154.22292 
L 285.692886 154.957055 
L 285.794374 153.795314 
L 285.895862 153.880503 
L 286.098839 156.021856 
L 286.200327 154.100181 
L 286.301816 154.954628 
L 286.403304 153.388143 
L 286.606281 154.520891 
L 286.707769 153.728899 
L 286.910746 154.759344 
L 287.012234 154.664576 
L 287.113723 154.868034 
L 287.519676 153.982679 
L 287.621165 155.303815 
L 287.722653 152.924647 
L 287.824141 154.249742 
L 287.92563 153.719193 
L 288.027118 156.169884 
L 288.128607 154.197376 
L 288.230095 154.839936 
L 288.331583 153.562353 
L 288.53456 154.6481 
L 288.737537 153.441657 
L 288.940514 155.466147 
L 289.14349 154.09188 
L 289.244979 153.965948 
L 289.346467 154.371459 
L 289.447955 153.828649 
L 289.549444 154.426123 
L 289.650932 153.374477 
L 289.955397 154.830357 
L 290.158374 153.791738 
L 290.361351 154.228029 
L 290.462839 154.192906 
L 290.564328 153.33169 
L 290.868793 155.29513 
L 291.071769 154.217173 
L 291.274746 153.695181 
L 291.376235 154.035683 
L 291.6807 153.691222 
L 291.782188 155.242381 
L 291.985165 154.085238 
L 292.086653 153.611525 
L 292.391118 154.172599 
L 292.492607 153.196307 
L 292.695583 154.002603 
L 292.797072 154.897793 
L 292.89856 153.817282 
L 293.000049 154.168639 
L 293.101537 153.521993 
L 293.304514 154.055352 
L 293.406002 153.081615 
L 293.710467 154.946326 
L 293.811956 153.717022 
L 293.913444 154.059439 
L 294.014932 152.961813 
L 294.116421 154.175664 
L 294.217909 153.56976 
L 294.319397 153.600924 
L 294.420886 153.152627 
L 294.522374 153.254037 
L 294.623862 154.966251 
L 294.725351 154.56521 
L 294.826839 153.419817 
L 294.928328 153.531572 
L 295.029816 153.17204 
L 295.131304 153.869647 
L 295.232793 153.850106 
L 295.334281 152.168672 
L 295.537258 154.066974 
L 295.638746 154.590754 
L 295.841723 153.242542 
L 295.943211 153.770025 
L 296.146188 153.477419 
L 296.247676 152.624249 
L 296.349165 153.480101 
L 296.450653 153.146113 
L 296.552142 155.191293 
L 296.755118 153.478696 
L 296.958095 153.115588 
L 297.059583 153.622892 
L 297.161072 152.680574 
L 297.26256 153.181364 
L 297.364049 153.045981 
L 297.465537 154.50748 
L 297.668514 153.584831 
L 297.87149 152.991827 
L 297.972979 153.221596 
L 298.074467 153.04713 
L 298.175956 153.132064 
L 298.277444 153.008176 
L 298.378932 154.046667 
L 298.480421 153.841165 
L 298.581909 152.940101 
L 298.683397 153.428247 
L 298.886374 152.841884 
L 298.987863 153.527357 
L 299.089351 151.719864 
L 299.190839 153.531317 
L 299.292328 153.026056 
L 299.393816 154.311941 
L 299.596793 152.902807 
L 299.698281 152.832177 
L 299.79977 152.99617 
L 299.901258 153.892636 
L 300.002746 151.975176 
L 300.104235 152.300735 
L 300.307211 154.669685 
L 300.4087 152.821704 
L 300.510188 153.100517 
L 300.611677 152.543403 
L 300.713165 153.124018 
L 300.916142 152.751842 
L 301.01763 151.842348 
L 301.220607 154.229817 
L 301.423584 152.789902 
L 301.525072 152.454893 
L 301.728049 152.728852 
L 301.829537 152.42143 
L 301.931025 152.791563 
L 302.032514 152.515304 
L 302.134002 153.661974 
L 302.235491 152.888757 
L 302.336979 153.537703 
L 302.539956 152.383497 
L 302.742932 153.159013 
L 302.844421 151.487797 
L 303.148886 153.689179 
L 303.250374 152.508024 
L 303.351863 152.522329 
L 303.453351 152.82081 
L 303.554839 152.549278 
L 303.656328 153.062201 
L 303.757816 151.482816 
L 303.960793 152.369831 
L 304.062281 154.317433 
L 304.16377 152.442504 
L 304.265258 152.82196 
L 304.366746 151.578095 
L 304.569723 152.480053 
L 304.671212 151.84222 
L 304.7727 151.896245 
L 304.874188 152.226402 
L 304.975677 153.592367 
L 305.178653 152.116179 
L 305.38163 152.051425 
L 305.686095 151.676439 
L 305.787584 151.695342 
L 305.889072 152.947892 
L 306.193537 151.609003 
L 306.295026 151.733275 
L 306.396514 151.73072 
L 306.498002 152.023582 
L 306.599491 151.052527 
L 306.700979 152.160498 
L 307.005444 151.122901 
L 307.309909 152.618757 
L 307.512886 151.363015 
L 307.614374 151.440285 
L 307.715863 151.174372 
L 307.817351 152.420919 
L 307.91884 150.410862 
L 308.223305 152.799226 
L 308.426281 150.995309 
L 308.730747 151.722419 
L 308.832235 150.078024 
L 309.1367 152.488355 
L 309.238188 150.588648 
L 309.339677 151.566217 
L 309.441165 150.545734 
L 309.644142 151.089311 
L 309.74563 150.137669 
L 310.050095 151.909911 
L 310.253072 150.610872 
L 310.354561 150.262707 
L 310.456049 150.584689 
L 310.862002 150.004585 
L 310.963491 151.646297 
L 311.166468 150.380848 
L 311.369444 149.990408 
L 311.470933 149.899599 
L 311.572421 149.534958 
L 311.775398 149.774689 
L 311.876886 150.876785 
L 312.079863 149.945834 
L 312.181351 149.55897 
L 312.28284 149.629216 
L 312.384328 149.319623 
L 312.587305 149.357428 
L 312.688793 149.285777 
L 312.790282 150.14265 
L 312.993258 149.55897 
L 313.196235 148.915006 
L 313.297723 149.160356 
L 313.399212 149.709935 
L 313.5007 148.114457 
L 313.703677 149.390635 
L 313.805165 149.391657 
L 313.906654 148.795971 
L 314.008142 149.306978 
L 314.10963 148.328132 
L 314.312607 149.111567 
L 314.414096 147.785961 
L 314.515584 148.107815 
L 314.718561 149.515545 
L 314.921537 148.00002 
L 315.124514 148.515114 
L 315.226003 148.606817 
L 315.327491 147.168052 
L 315.631956 149.252314 
L 315.834933 147.689149 
L 315.936421 147.858506 
L 316.03791 147.687233 
L 316.139398 148.079334 
L 316.240886 147.17265 
L 316.342375 147.681103 
L 316.443863 147.190147 
L 316.545351 149.060734 
L 316.64684 147.714949 
L 316.748328 147.808184 
L 316.951305 146.80852 
L 317.052793 148.238984 
L 317.154282 146.624859 
L 317.25577 146.766883 
L 317.357258 147.326169 
L 317.458747 148.544873 
L 317.560235 146.981836 
L 317.661724 147.475346 
L 317.763212 145.979745 
L 317.966189 147.092058 
L 318.169165 146.313733 
L 318.270654 146.577474 
L 318.372142 148.079461 
L 318.473631 146.672881 
L 318.575119 147.03816 
L 318.778096 146.005928 
L 318.879584 146.634948 
L 319.082561 146.120748 
L 319.184049 145.960076 
L 319.285538 147.681614 
L 319.387026 146.125857 
L 319.488514 146.526387 
L 319.590003 145.488534 
L 319.792979 145.976552 
L 319.894468 145.863392 
L 320.097445 145.325436 
L 320.198933 147.223227 
L 320.40191 145.692886 
L 320.604886 145.002687 
L 320.706375 145.657891 
L 320.807863 145.595308 
L 320.909352 144.65299 
L 321.112328 146.490497 
L 321.315305 145.0843 
L 321.416793 144.883397 
L 321.61977 145.448813 
L 321.721259 144.360894 
L 321.924235 145.026698 
L 322.025724 144.980208 
L 322.127212 143.749754 
L 322.2287 144.726557 
L 322.330189 144.581339 
L 322.431677 145.627493 
L 322.634654 144.093321 
L 322.939119 144.494106 
L 323.040607 143.41666 
L 323.142096 144.061135 
L 323.243584 143.908638 
L 323.345073 145.461202 
L 323.548049 143.529182 
L 323.649538 144.090383 
L 323.751026 144.013368 
L 323.852514 143.78079 
L 323.954003 142.848945 
L 324.258468 144.786968 
L 324.461445 143.180634 
L 324.562933 143.092252 
L 324.664421 143.670568 
L 324.867398 143.374257 
L 324.968887 143.509257 
L 325.070375 142.83132 
L 325.171863 142.890454 
L 325.273352 143.054319 
L 325.37484 143.558685 
L 325.476328 141.59333 
L 325.679305 142.995568 
L 325.780794 143.57465 
L 326.085259 142.36578 
L 326.186747 142.372677 
L 326.288235 143.13044 
L 326.389724 141.287696 
L 326.491212 142.565151 
L 326.592701 142.331551 
L 326.694189 143.197876 
L 326.897166 141.707512 
L 326.998654 142.340875 
L 327.100142 141.923103 
L 327.201631 142.338576 
L 327.303119 140.871712 
L 327.404608 142.176499 
L 327.506096 141.58771 
L 327.607584 142.981518 
L 327.810561 140.56876 
L 327.912049 143.103108 
L 328.013538 141.369437 
L 328.115026 141.973169 
L 328.216515 140.498003 
L 328.419491 141.617214 
L 328.52098 140.585619 
L 328.723956 141.180283 
L 328.825445 142.397583 
L 328.926933 141.086409 
L 329.028422 141.430742 
L 329.12991 140.419966 
L 329.231398 140.645648 
L 329.332887 141.499839 
L 329.434375 139.938207 
L 329.637352 140.637984 
L 329.73884 142.061807 
L 329.941817 140.212932 
L 330.043305 140.965586 
L 330.144794 140.22596 
L 330.246282 140.667999 
L 330.34777 139.615841 
L 330.449259 139.771788 
L 330.652236 141.255766 
L 330.753724 140.001173 
L 330.855212 140.392762 
L 331.058189 139.737686 
L 331.159677 139.953278 
L 331.261166 139.228978 
L 331.464143 139.586977 
L 331.565631 140.842081 
L 331.667119 139.65007 
L 331.768608 139.69324 
L 331.870096 139.047488 
L 332.073073 139.694645 
L 332.174561 138.356522 
L 332.27605 139.309186 
L 332.377538 138.986437 
L 332.479026 140.383439 
L 332.783491 138.612473 
L 332.986468 139.218121 
L 333.087957 137.977066 
L 333.290933 138.688594 
L 333.392422 140.254825 
L 333.595398 138.443627 
L 333.696887 138.207856 
L 333.899864 138.747346 
L 334.001352 137.407563 
L 334.305817 139.598599 
L 334.508794 137.572066 
L 334.610282 138.244384 
L 334.711771 138.051272 
L 334.813259 138.277847 
L 334.914747 136.966674 
L 335.016236 138.019725 
L 335.117724 137.790467 
L 335.219212 139.094616 
L 335.422189 137.504119 
L 335.523678 137.557123 
L 335.625166 138.097251 
L 335.726654 137.707577 
L 335.828143 136.535235 
L 335.929631 137.814351 
L 336.031119 137.304237 
L 336.132608 138.380534 
L 336.335585 136.179408 
L 336.538561 137.987667 
L 336.741538 137.027341 
L 336.843026 137.037047 
L 336.944515 136.791314 
L 337.046003 137.612043 
L 337.147492 136.216702 
L 337.350468 137.53822 
L 337.451957 137.443452 
L 337.654933 136.579682 
L 337.756422 136.277497 
L 337.85791 136.355789 
L 337.959399 137.029001 
L 338.060887 135.930865 
L 338.365352 137.201678 
L 338.568329 136.091281 
L 338.771306 136.109417 
L 338.872794 135.7905 
L 338.974282 135.86892 
L 339.177259 136.719535 
L 339.278747 136.020141 
L 339.380236 136.623873 
L 339.481724 135.192388 
L 339.583213 135.762402 
L 339.684701 135.741328 
L 339.887678 135.294947 
L 340.090654 136.060245 
L 340.192143 136.04428 
L 340.293631 135.827667 
L 340.39512 134.874876 
L 340.598096 135.324195 
L 340.902561 134.884582 
L 341.00405 136.19384 
L 341.207027 135.318958 
L 341.308515 134.308438 
L 341.410003 134.554554 
L 341.511492 135.239644 
L 341.61298 134.920216 
L 341.714468 133.978665 
L 341.815957 134.597468 
L 341.917445 136.403428 
L 342.120422 134.577671 
L 342.22191 134.130651 
L 342.424887 134.465661 
L 342.627864 133.735869 
L 342.729352 134.397331 
L 342.830841 136.09243 
L 342.932329 134.08365 
L 343.033817 134.615221 
L 343.135306 133.511976 
L 343.338282 134.225547 
L 343.541259 133.489752 
L 343.744236 134.97769 
L 343.845724 133.592823 
L 343.947213 134.383409 
L 344.048701 133.125878 
L 344.150189 133.173007 
L 344.251678 134.364762 
L 344.353166 132.703636 
L 344.454655 133.58848 
L 344.556143 133.218348 
L 344.657631 135.121631 
L 344.860608 133.097908 
L 344.962096 133.130732 
L 345.165073 133.666517 
L 345.266562 132.281649 
L 345.469538 133.050651 
L 345.571027 134.200003 
L 345.774003 132.869161 
L 345.97698 132.619979 
L 346.078469 133.193442 
L 346.179957 131.836162 
L 346.484422 133.900755 
L 346.687399 132.083939 
L 346.788887 132.102075 
L 346.991864 132.942345 
L 347.093352 131.256824 
L 347.397817 132.994454 
L 347.600794 131.824412 
L 347.702283 132.206422 
L 347.803771 131.537042 
L 347.905259 131.581105 
L 348.311213 132.403239 
L 348.412701 132.07768 
L 348.51419 131.260272 
L 348.615678 131.46207 
L 348.717166 131.393612 
L 348.818655 131.136129 
L 348.920143 131.358745 
L 349.021631 131.292075 
L 349.12312 132.246654 
L 349.427585 130.547212 
L 349.529073 131.219785 
L 349.630562 130.537505 
L 349.73205 131.545854 
L 349.935027 130.286408 
L 350.036515 132.608229 
L 350.138004 130.879667 
L 350.239492 131.128338 
L 350.34098 130.088697 
L 350.543957 131.196668 
L 350.746934 129.845774 
L 350.949911 131.744459 
L 351.051399 130.564326 
L 351.152887 130.929478 
L 351.254376 129.102443 
L 351.355864 130.818489 
L 351.457352 130.371469 
L 351.558841 129.132841 
L 351.660329 130.378749 
L 351.761818 130.189085 
L 351.863306 131.364237 
L 352.066283 129.616516 
L 352.167771 129.870424 
L 352.269259 129.724312 
L 352.370748 129.949227 
L 352.472236 129.056592 
L 352.573725 129.342429 
L 352.776701 130.442609 
L 352.979678 128.965272 
L 353.284143 129.868252 
L 353.385632 128.555036 
L 353.48712 129.335916 
L 353.588608 129.15136 
L 353.690097 130.329322 
L 353.893073 129.039988 
L 354.09605 128.729756 
L 354.299027 128.902178 
L 354.400515 128.816606 
L 354.603492 129.400925 
L 354.806469 128.28312 
L 354.907957 128.62145 
L 355.110934 128.025253 
L 355.212422 128.706384 
L 355.313911 127.873905 
L 355.415399 129.575518 
L 355.516887 128.454137 
L 355.618376 128.735248 
L 355.719864 127.587684 
L 355.821353 128.339061 
L 356.125818 127.575934 
L 356.227306 127.726516 
L 356.328794 129.363886 
L 356.430283 127.47644 
L 356.531771 128.523872 
L 356.734748 127.555244 
L 356.836236 128.111464 
L 356.937725 126.696838 
L 357.039213 127.421648 
L 357.140701 127.287926 
L 357.24219 129.152126 
L 357.445167 127.045769 
L 357.546655 127.614761 
L 357.648143 127.209378 
L 357.749632 127.76828 
L 357.85112 126.528119 
L 358.155585 127.745802 
L 358.358562 126.901189 
L 358.46005 126.685215 
L 358.561539 126.921752 
L 358.663027 127.583981 
L 358.764515 126.153517 
L 358.967492 127.051899 
L 359.068981 125.530882 
L 359.170469 126.973096 
L 359.271957 126.462599 
L 359.373446 127.883995 
L 359.576422 126.258758 
L 359.677911 126.626592 
L 359.779399 125.837154 
L 359.880888 126.72417 
L 359.982376 125.283105 
L 360.083864 126.572055 
L 360.185353 126.022093 
L 360.286841 127.06978 
L 360.591306 125.572263 
L 360.794283 125.996038 
L 360.895771 124.990882 
L 361.098748 127.020352 
L 361.200236 125.720801 
L 361.301725 125.737788 
L 361.504702 125.167774 
L 361.60619 125.51977 
L 361.707678 124.882447 
L 361.809167 125.368677 
L 361.910655 124.849879 
L 362.012143 126.530163 
L 362.113632 125.124477 
L 362.21512 125.653748 
L 362.316609 124.668133 
L 362.519585 125.161771 
L 362.621074 124.502991 
L 362.82405 124.653062 
L 362.925539 125.949676 
L 363.230004 124.26837 
L 363.331492 124.280375 
L 363.432981 124.987306 
L 363.737446 124.06108 
L 363.838934 124.443346 
L 363.940423 124.204254 
L 364.041911 124.693422 
L 364.143399 123.318389 
L 364.346376 124.800196 
L 364.447864 124.430319 
L 364.549353 124.505546 
L 364.650841 123.336142 
L 364.75233 124.177944 
L 364.853818 123.210465 
L 364.955306 123.68239 
L 365.056795 123.212509 
L 365.158283 123.482892 
L 365.259771 125.529349 
L 365.36126 123.275602 
L 365.462748 123.698355 
L 365.564237 122.847868 
L 365.767213 123.598223 
L 365.868702 122.04502 
L 365.97019 124.807731 
L 366.071678 122.479013 
L 366.173167 123.298464 
L 366.274655 122.548876 
L 366.376144 122.853616 
L 366.477632 122.508899 
L 366.57912 124.24257 
L 366.782097 122.395867 
L 366.985074 122.739689 
L 367.086562 123.605248 
L 367.188051 121.269249 
L 367.391027 122.834202 
L 367.492516 123.047111 
L 367.695492 122.242092 
L 367.796981 122.279386 
L 367.999958 121.655091 
L 368.202934 122.126889 
L 368.304423 122.801634 
L 368.405911 121.977712 
L 368.507399 122.590896 
L 368.710376 120.85186 
L 368.811865 122.675702 
L 368.913353 121.75599 
L 369.014841 119.763431 
L 369.11633 123.392594 
L 369.319306 120.499992 
L 369.420795 122.764339 
L 369.522283 120.478918 
L 369.623772 121.991506 
L 369.826748 120.50459 
L 369.928237 122.068649 
L 370.029725 119.557929 
L 370.131213 121.494675 
L 370.232702 121.297603 
L 370.33419 119.499306 
L 370.435679 122.467007 
L 370.537167 119.631496 
L 370.638655 121.115347 
L 370.740144 120.742787 
L 370.841632 118.752399 
L 370.94312 121.978861 
L 371.146097 119.336335 
L 371.247586 121.371553 
L 371.349074 118.88906 
L 371.450562 120.886089 
L 371.653539 117.893865 
L 371.755027 121.193383 
L 371.856516 118.795441 
L 371.958004 119.037087 
L 372.059493 119.817839 
L 372.160981 118.720214 
L 372.262469 120.428469 
L 372.363958 118.044447 
L 372.465446 118.608203 
L 372.566934 119.979022 
L 372.668423 117.110814 
L 372.769911 119.970848 
L 372.972888 117.484906 
L 373.074376 120.006226 
L 373.175865 117.921198 
L 373.277353 118.987915 
L 373.48033 116.596614 
L 373.581818 119.846576 
L 373.581818 119.846576 
" style="fill:none;stroke:#081d58;stroke-dasharray:5.55,2.4;stroke-dashoffset:0;stroke-width:1.5;"/>
    <defs>
     <path d="M -0 4.242641 
L 4.242641 0 
L 0 -4.242641 
L -4.242641 -0 
z
" id="mf4d9e238f5" style="stroke:#081d58;stroke-linejoin:miter;"/>
    </defs>
    <g clip-path="url(#p51df792258)">
     <use style="fill:#081d58;stroke:#081d58;stroke-linejoin:miter;" x="69.218182" xlink:href="#mf4d9e238f5" y="45.957374"/>
     <use style="fill:#081d58;stroke:#081d58;stroke-linejoin:miter;" x="77.337252" xlink:href="#mf4d9e238f5" y="46.882322"/>
     <use style="fill:#081d58;stroke:#081d58;stroke-linejoin:miter;" x="85.456322" xlink:href="#mf4d9e238f5" y="46.029025"/>
     <use style="fill:#081d58;stroke:#081d58;stroke-linejoin:miter;" x="93.575392" xlink:href="#mf4d9e238f5" y="52.093552"/>
     <use style="fill:#081d58;stroke:#081d58;stroke-linejoin:miter;" x="101.694462" xlink:href="#mf4d9e238f5" y="69.132292"/>
     <use style="fill:#081d58;stroke:#081d58;stroke-linejoin:miter;" x="109.813532" xlink:href="#mf4d9e238f5" y="90.462934"/>
     <use style="fill:#081d58;stroke:#081d58;stroke-linejoin:miter;" x="117.932602" xlink:href="#mf4d9e238f5" y="110.706296"/>
     <use style="fill:#081d58;stroke:#081d58;stroke-linejoin:miter;" x="126.051672" xlink:href="#mf4d9e238f5" y="124.905309"/>
     <use style="fill:#081d58;stroke:#081d58;stroke-linejoin:miter;" x="134.170742" xlink:href="#mf4d9e238f5" y="138.767525"/>
     <use style="fill:#081d58;stroke:#081d58;stroke-linejoin:miter;" x="142.289812" xlink:href="#mf4d9e238f5" y="169.500529"/>
     <use style="fill:#081d58;stroke:#081d58;stroke-linejoin:miter;" x="150.408882" xlink:href="#mf4d9e238f5" y="208.799201"/>
     <use style="fill:#081d58;stroke:#081d58;stroke-linejoin:miter;" x="158.527952" xlink:href="#mf4d9e238f5" y="231.595941"/>
     <use style="fill:#081d58;stroke:#081d58;stroke-linejoin:miter;" x="166.647022" xlink:href="#mf4d9e238f5" y="229.131712"/>
     <use style="fill:#081d58;stroke:#081d58;stroke-linejoin:miter;" x="174.766092" xlink:href="#mf4d9e238f5" y="200.248093"/>
     <use style="fill:#081d58;stroke:#081d58;stroke-linejoin:miter;" x="182.885162" xlink:href="#mf4d9e238f5" y="174.493359"/>
     <use style="fill:#081d58;stroke:#081d58;stroke-linejoin:miter;" x="191.004232" xlink:href="#mf4d9e238f5" y="150.375228"/>
     <use style="fill:#081d58;stroke:#081d58;stroke-linejoin:miter;" x="199.123302" xlink:href="#mf4d9e238f5" y="143.749499"/>
     <use style="fill:#081d58;stroke:#081d58;stroke-linejoin:miter;" x="207.242372" xlink:href="#mf4d9e238f5" y="144.904343"/>
     <use style="fill:#081d58;stroke:#081d58;stroke-linejoin:miter;" x="215.361442" xlink:href="#mf4d9e238f5" y="145.718558"/>
     <use style="fill:#081d58;stroke:#081d58;stroke-linejoin:miter;" x="223.480512" xlink:href="#mf4d9e238f5" y="149.056392"/>
     <use style="fill:#081d58;stroke:#081d58;stroke-linejoin:miter;" x="231.599582" xlink:href="#mf4d9e238f5" y="149.553222"/>
     <use style="fill:#081d58;stroke:#081d58;stroke-linejoin:miter;" x="239.718652" xlink:href="#mf4d9e238f5" y="151.953081"/>
     <use style="fill:#081d58;stroke:#081d58;stroke-linejoin:miter;" x="247.837722" xlink:href="#mf4d9e238f5" y="151.58116"/>
     <use style="fill:#081d58;stroke:#081d58;stroke-linejoin:miter;" x="255.956792" xlink:href="#mf4d9e238f5" y="153.513691"/>
     <use style="fill:#081d58;stroke:#081d58;stroke-linejoin:miter;" x="264.075862" xlink:href="#mf4d9e238f5" y="155.252088"/>
     <use style="fill:#081d58;stroke:#081d58;stroke-linejoin:miter;" x="272.194932" xlink:href="#mf4d9e238f5" y="154.103502"/>
     <use style="fill:#081d58;stroke:#081d58;stroke-linejoin:miter;" x="280.314002" xlink:href="#mf4d9e238f5" y="155.13267"/>
     <use style="fill:#081d58;stroke:#081d58;stroke-linejoin:miter;" x="288.433072" xlink:href="#mf4d9e238f5" y="154.175153"/>
     <use style="fill:#081d58;stroke:#081d58;stroke-linejoin:miter;" x="296.552142" xlink:href="#mf4d9e238f5" y="155.191293"/>
     <use style="fill:#081d58;stroke:#081d58;stroke-linejoin:miter;" x="304.671212" xlink:href="#mf4d9e238f5" y="151.84222"/>
     <use style="fill:#081d58;stroke:#081d58;stroke-linejoin:miter;" x="312.790282" xlink:href="#mf4d9e238f5" y="150.14265"/>
     <use style="fill:#081d58;stroke:#081d58;stroke-linejoin:miter;" x="320.909352" xlink:href="#mf4d9e238f5" y="144.65299"/>
     <use style="fill:#081d58;stroke:#081d58;stroke-linejoin:miter;" x="329.028422" xlink:href="#mf4d9e238f5" y="141.430742"/>
     <use style="fill:#081d58;stroke:#081d58;stroke-linejoin:miter;" x="337.147492" xlink:href="#mf4d9e238f5" y="136.216702"/>
     <use style="fill:#081d58;stroke:#081d58;stroke-linejoin:miter;" x="345.266562" xlink:href="#mf4d9e238f5" y="132.281649"/>
     <use style="fill:#081d58;stroke:#081d58;stroke-linejoin:miter;" x="353.385632" xlink:href="#mf4d9e238f5" y="128.555036"/>
     <use style="fill:#081d58;stroke:#081d58;stroke-linejoin:miter;" x="361.504702" xlink:href="#mf4d9e238f5" y="125.167774"/>
     <use style="fill:#081d58;stroke:#081d58;stroke-linejoin:miter;" x="369.623772" xlink:href="#mf4d9e238f5" y="121.991506"/>
    </g>
   </g>
   <g id="patch_3">
    <path d="M 54 252 
L 54 34.56 
" style="fill:none;stroke:#000000;stroke-linecap:square;stroke-linejoin:miter;stroke-width:0.8;"/>
   </g>
   <g id="patch_4">
    <path d="M 388.8 252 
L 388.8 34.56 
" style="fill:none;stroke:#000000;stroke-linecap:square;stroke-linejoin:miter;stroke-width:0.8;"/>
   </g>
   <g id="patch_5">
    <path d="M 54 252 
L 388.8 252 
" style="fill:none;stroke:#000000;stroke-linecap:square;stroke-linejoin:miter;stroke-width:0.8;"/>
   </g>
   <g id="patch_6">
    <path d="M 54 34.56 
L 388.8 34.56 
" style="fill:none;stroke:#000000;stroke-linecap:square;stroke-linejoin:miter;stroke-width:0.8;"/>
   </g>
   <g id="legend_1">
    <g id="patch_7">
     <path d="M 280.085938 71.91625 
L 381.8 71.91625 
Q 383.8 71.91625 383.8 69.91625 
L 383.8 41.56 
Q 383.8 39.56 381.8 39.56 
L 280.085938 39.56 
Q 278.085938 39.56 278.085938 41.56 
L 278.085938 69.91625 
Q 278.085938 71.91625 280.085938 71.91625 
z
" style="fill:#ffffff;opacity:0.8;stroke:#cccccc;stroke-linejoin:miter;"/>
    </g>
    <g id="line2d_17">
     <path d="M 282.085938 47.658437 
L 302.085938 47.658437 
" style="fill:none;stroke:#40b5c4;stroke-dasharray:5.55,2.4;stroke-dashoffset:0;stroke-width:1.5;"/>
    </g>
    <g id="line2d_18">
     <g>
      <use style="fill:#40b5c4;stroke:#40b5c4;" x="292.085938" xlink:href="#mab770dff57" y="47.658437"/>
     </g>
    </g>
    <g id="text_17">
     <text style="font-family:DejaVu Sans;font-size:10px;font-style:normal;font-weight:normal;text-anchor:start;" transform="rotate(-0, 310.085938, 51.158437)" x="310.085938" y="51.158437">original</text>
    </g>
    <g id="line2d_19">
     <path d="M 282.085938 62.336562 
L 302.085938 62.336562 
" style="fill:none;stroke:#081d58;stroke-dasharray:5.55,2.4;stroke-dashoffset:0;stroke-width:1.5;"/>
    </g>
    <g id="line2d_20">
     <g>
      <use style="fill:#081d58;stroke:#081d58;stroke-linejoin:miter;" x="292.085938" xlink:href="#mf4d9e238f5" y="62.336562"/>
     </g>
    </g>
    <g id="text_18">
     <text style="font-family:DejaVu Sans;font-size:10px;font-style:normal;font-weight:normal;text-anchor:start;" transform="rotate(-0, 310.085938, 65.836562)" x="310.085938" y="65.836562">reconstructed</text>
    </g>
   </g>
  </g>
  <g id="text_19">
   <text style="font-family:DejaVu Sans;font-size:12px;font-style:normal;font-weight:normal;text-anchor:middle;" transform="rotate(-0, 216, 14.878125)" x="216" y="14.878125">Reconstruction of the weight curve</text>
  </g>
 </g>
 <defs>
  <clipPath id="p51df792258">
   <rect height="217.44" width="334.8" x="54" y="34.56"/>
  </clipPath>
 </defs>
</svg>
