<?xml version="1.0" encoding="utf-8" standalone="no"?>
<!DOCTYPE svg PUBLIC "-//W3C//DTD SVG 1.1//EN"
  "http://www.w3.org/Graphics/SVG/1.1/DTD/svg11.dtd">
<!-- Created with matplotlib (https://matplotlib.org/) -->
<svg height="288pt" version="1.1" viewBox="0 0 432 288" width="432pt" xmlns="http://www.w3.org/2000/svg" xmlns:xlink="http://www.w3.org/1999/xlink">
 <defs>
  <style type="text/css">
*{stroke-linecap:butt;stroke-linejoin:round;}
  </style>
 </defs>
 <g id="figure_1">
  <g id="patch_1">
   <path d="M 0 288 
L 432 288 
L 432 0 
L 0 0 
z
" style="fill:#ffffff;"/>
  </g>
  <g id="axes_1">
   <g id="patch_2">
    <path d="M 54 252 
L 388.8 252 
L 388.8 34.56 
L 54 34.56 
z
" style="fill:#ffffff;"/>
   </g>
   <g id="matplotlib.axis_1">
    <g id="xtick_1">
     <g id="line2d_1">
      <defs>
       <path d="M 0 0 
L 0 3.5 
" id="m730faa32bb" style="stroke:#000000;stroke-width:0.8;"/>
      </defs>
      <g>
       <use style="stroke:#000000;stroke-width:0.8;" x="69.218182" xlink:href="#m730faa32bb" y="252"/>
      </g>
     </g>
     <g id="text_1">
      <text style="font-family:DejaVu Sans;font-size:10px;font-style:normal;font-weight:normal;text-anchor:middle;" transform="rotate(-0, 69.218182, 266.598437)" x="69.218182" y="266.598437">0</text>
     </g>
    </g>
    <g id="xtick_2">
     <g id="line2d_2">
      <g>
       <use style="stroke:#000000;stroke-width:0.8;" x="119.962369" xlink:href="#m730faa32bb" y="252"/>
      </g>
     </g>
     <g id="text_2">
      <text style="font-family:DejaVu Sans;font-size:10px;font-style:normal;font-weight:normal;text-anchor:middle;" transform="rotate(-0, 119.962369, 266.598437)" x="119.962369" y="266.598437">500</text>
     </g>
    </g>
    <g id="xtick_3">
     <g id="line2d_3">
      <g>
       <use style="stroke:#000000;stroke-width:0.8;" x="170.706557" xlink:href="#m730faa32bb" y="252"/>
      </g>
     </g>
     <g id="text_3">
      <text style="font-family:DejaVu Sans;font-size:10px;font-style:normal;font-weight:normal;text-anchor:middle;" transform="rotate(-0, 170.706557, 266.598437)" x="170.706557" y="266.598437">1000</text>
     </g>
    </g>
    <g id="xtick_4">
     <g id="line2d_4">
      <g>
       <use style="stroke:#000000;stroke-width:0.8;" x="221.450744" xlink:href="#m730faa32bb" y="252"/>
      </g>
     </g>
     <g id="text_4">
      <text style="font-family:DejaVu Sans;font-size:10px;font-style:normal;font-weight:normal;text-anchor:middle;" transform="rotate(-0, 221.450744, 266.598437)" x="221.450744" y="266.598437">1500</text>
     </g>
    </g>
    <g id="xtick_5">
     <g id="line2d_5">
      <g>
       <use style="stroke:#000000;stroke-width:0.8;" x="272.194932" xlink:href="#m730faa32bb" y="252"/>
      </g>
     </g>
     <g id="text_5">
      <text style="font-family:DejaVu Sans;font-size:10px;font-style:normal;font-weight:normal;text-anchor:middle;" transform="rotate(-0, 272.194932, 266.598437)" x="272.194932" y="266.598437">2000</text>
     </g>
    </g>
    <g id="xtick_6">
     <g id="line2d_6">
      <g>
       <use style="stroke:#000000;stroke-width:0.8;" x="322.939119" xlink:href="#m730faa32bb" y="252"/>
      </g>
     </g>
     <g id="text_6">
      <text style="font-family:DejaVu Sans;font-size:10px;font-style:normal;font-weight:normal;text-anchor:middle;" transform="rotate(-0, 322.939119, 266.598437)" x="322.939119" y="266.598437">2500</text>
     </g>
    </g>
    <g id="xtick_7">
     <g id="line2d_7">
      <g>
       <use style="stroke:#000000;stroke-width:0.8;" x="373.683307" xlink:href="#m730faa32bb" y="252"/>
      </g>
     </g>
     <g id="text_7">
      <text style="font-family:DejaVu Sans;font-size:10px;font-style:normal;font-weight:normal;text-anchor:middle;" transform="rotate(-0, 373.683307, 266.598437)" x="373.683307" y="266.598437">3000</text>
     </g>
    </g>
    <g id="text_8">
     <text style="font-family:DejaVu Sans;font-size:10px;font-style:normal;font-weight:normal;text-anchor:middle;" transform="rotate(-0, 221.4, 280.276563)" x="221.4" y="280.276563">Time</text>
    </g>
   </g>
   <g id="matplotlib.axis_2">
    <g id="ytick_1">
     <g id="line2d_8">
      <defs>
       <path d="M 0 0 
L -3.5 0 
" id="m8615e83f9a" style="stroke:#000000;stroke-width:0.8;"/>
      </defs>
      <g>
       <use style="stroke:#000000;stroke-width:0.8;" x="54" xlink:href="#m8615e83f9a" y="250.671482"/>
      </g>
     </g>
     <g id="text_9">
      <text style="font-family:DejaVu Sans;font-size:10px;font-style:normal;font-weight:normal;text-anchor:end;" transform="rotate(-0, 47, 254.4707)" x="47" y="254.4707">−8</text>
     </g>
    </g>
    <g id="ytick_2">
     <g id="line2d_9">
      <g>
       <use style="stroke:#000000;stroke-width:0.8;" x="54" xlink:href="#m8615e83f9a" y="215.49303"/>
      </g>
     </g>
     <g id="text_10">
      <text style="font-family:DejaVu Sans;font-size:10px;font-style:normal;font-weight:normal;text-anchor:end;" transform="rotate(-0, 47, 219.292249)" x="47" y="219.292249">−6</text>
     </g>
    </g>
    <g id="ytick_3">
     <g id="line2d_10">
      <g>
       <use style="stroke:#000000;stroke-width:0.8;" x="54" xlink:href="#m8615e83f9a" y="180.314579"/>
      </g>
     </g>
     <g id="text_11">
      <text style="font-family:DejaVu Sans;font-size:10px;font-style:normal;font-weight:normal;text-anchor:end;" transform="rotate(-0, 47, 184.113797)" x="47" y="184.113797">−4</text>
     </g>
    </g>
    <g id="ytick_4">
     <g id="line2d_11">
      <g>
       <use style="stroke:#000000;stroke-width:0.8;" x="54" xlink:href="#m8615e83f9a" y="145.136127"/>
      </g>
     </g>
     <g id="text_12">
      <text style="font-family:DejaVu Sans;font-size:10px;font-style:normal;font-weight:normal;text-anchor:end;" transform="rotate(-0, 47, 148.935346)" x="47" y="148.935346">−2</text>
     </g>
    </g>
    <g id="ytick_5">
     <g id="line2d_12">
      <g>
       <use style="stroke:#000000;stroke-width:0.8;" x="54" xlink:href="#m8615e83f9a" y="109.957676"/>
      </g>
     </g>
     <g id="text_13">
      <text style="font-family:DejaVu Sans;font-size:10px;font-style:normal;font-weight:normal;text-anchor:end;" transform="rotate(-0, 47, 113.756894)" x="47" y="113.756894">0</text>
     </g>
    </g>
    <g id="ytick_6">
     <g id="line2d_13">
      <g>
       <use style="stroke:#000000;stroke-width:0.8;" x="54" xlink:href="#m8615e83f9a" y="74.779224"/>
      </g>
     </g>
     <g id="text_14">
      <text style="font-family:DejaVu Sans;font-size:10px;font-style:normal;font-weight:normal;text-anchor:end;" transform="rotate(-0, 47, 78.578443)" x="47" y="78.578443">2</text>
     </g>
    </g>
    <g id="ytick_7">
     <g id="line2d_14">
      <g>
       <use style="stroke:#000000;stroke-width:0.8;" x="54" xlink:href="#m8615e83f9a" y="39.600773"/>
      </g>
     </g>
     <g id="text_15">
      <text style="font-family:DejaVu Sans;font-size:10px;font-style:normal;font-weight:normal;text-anchor:end;" transform="rotate(-0, 47, 43.399991)" x="47" y="43.399991">4</text>
     </g>
    </g>
    <g id="text_16">
     <text style="font-family:DejaVu Sans;font-size:10px;font-style:normal;font-weight:normal;text-anchor:middle;" transform="rotate(-90, 26.178125, 143.28)" x="26.178125" y="143.28">temperature (°C)</text>
    </g>
   </g>
   <g id="line2d_15">
    <path clip-path="url(#pd9b05df9a2)" d="M 69.218182 106.548794 
L 72.161345 105.693463 
L 73.277717 105.604793 
L 74.191112 105.757618 
L 75.003019 106.146696 
L 75.814926 106.799645 
L 76.626833 107.748937 
L 77.540229 109.195494 
L 78.555112 111.263561 
L 79.671484 114.083902 
L 80.889345 117.758184 
L 82.411671 123.096933 
L 84.238461 130.355707 
L 87.181624 143.093191 
L 91.545624 161.879329 
L 93.67688 170.12157 
L 95.503671 176.430438 
L 97.127485 181.295178 
L 98.649811 185.193161 
L 100.070648 188.237047 
L 101.288508 190.352363 
L 102.506369 192.024746 
L 103.622741 193.184087 
L 104.739113 194.048088 
L 105.753997 194.569063 
L 106.768881 194.850033 
L 107.885253 194.917752 
L 109.001625 194.763776 
L 110.320974 194.346313 
L 111.944788 193.59119 
L 113.771578 192.437917 
L 116.511765 190.384446 
L 123.615951 185.015985 
L 126.356137 183.317376 
L 128.893346 181.969338 
L 131.126091 181.027646 
L 133.358835 180.304869 
L 135.591579 179.809803 
L 138.331765 179.461554 
L 140.564509 179.380749 
L 142.289812 179.54111 
L 143.913626 179.914301 
L 145.435951 180.490647 
L 147.059765 181.370618 
L 148.176138 182.163576 
L 149.29251 183.234038 
L 150.408882 184.633191 
L 151.626742 186.55302 
L 154.163952 191.200322 
L 155.889254 195.014704 
L 161.877068 209.447015 
L 163.297905 213.522421 
L 164.718743 218.222878 
L 166.444045 224.81043 
L 169.691673 237.515268 
L 170.605068 240.141903 
L 171.213999 241.358145 
L 171.72144 241.946768 
L 172.127394 242.116364 
L 172.431859 242.016492 
L 172.736324 241.693343 
L 173.142278 240.859719 
L 173.64972 239.195725 
L 174.25865 236.30272 
L 174.969068 231.782254 
L 175.882464 224.458857 
L 177.303301 210.99258 
L 180.550929 179.851208 
L 182.174743 166.658444 
L 183.59558 156.804925 
L 185.016418 148.471396 
L 186.335766 141.967076 
L 187.655115 136.522085 
L 188.974464 132.012823 
L 190.192325 128.584894 
L 191.410185 125.769498 
L 192.628046 123.477643 
L 193.845906 121.629219 
L 195.165255 120.026704 
L 196.586092 118.663347 
L 198.209906 117.429125 
L 200.341162 116.112932 
L 204.19772 114.059239 
L 212.113814 109.81582 
L 233.020419 98.345782 
L 237.181442 96.007998 
L 241.240977 93.846026 
L 245.503489 91.860209 
L 249.664512 90.175601 
L 254.130001 88.629174 
L 258.494001 87.369698 
L 262.452048 86.454513 
L 268.135397 85.442411 
L 273.920234 84.5601 
L 278.284234 84.115691 
L 282.749723 83.881138 
L 288.331583 83.845626 
L 294.014932 84.047585 
L 298.683397 84.411577 
L 304.366746 85.175371 
L 328.926933 89.056381 
L 332.88498 89.934189 
L 336.538561 90.979288 
L 340.902561 92.463623 
L 347.600794 95.076158 
L 352.573725 96.904191 
L 356.024329 97.951495 
L 359.880888 98.88543 
L 363.838934 99.617575 
L 370.638655 100.570612 
L 373.581818 100.933122 
L 373.581818 100.933122 
" style="fill:none;stroke:#40b5c4;stroke-dasharray:5.55,2.4;stroke-dashoffset:0;stroke-width:1.5;"/>
    <defs>
     <path d="M 0 3 
C 0.795609 3 1.55874 2.683901 2.12132 2.12132 
C 2.683901 1.55874 3 0.795609 3 0 
C 3 -0.795609 2.683901 -1.55874 2.12132 -2.12132 
C 1.55874 -2.683901 0.795609 -3 0 -3 
C -0.795609 -3 -1.55874 -2.683901 -2.12132 -2.12132 
C -2.683901 -1.55874 -3 -0.795609 -3 0 
C -3 0.795609 -2.683901 1.55874 -2.12132 2.12132 
C -1.55874 2.683901 -0.795609 3 0 3 
z
" id="m94131c9e1f" style="stroke:#40b5c4;"/>
    </defs>
    <g clip-path="url(#pd9b05df9a2)">
     <use style="fill:#40b5c4;stroke:#40b5c4;" x="69.218182" xlink:href="#m94131c9e1f" y="106.548794"/>
     <use style="fill:#40b5c4;stroke:#40b5c4;" x="77.337252" xlink:href="#m94131c9e1f" y="108.840107"/>
     <use style="fill:#40b5c4;stroke:#40b5c4;" x="85.456322" xlink:href="#m94131c9e1f" y="135.5335"/>
     <use style="fill:#40b5c4;stroke:#40b5c4;" x="93.575392" xlink:href="#m94131c9e1f" y="169.74662"/>
     <use style="fill:#40b5c4;stroke:#40b5c4;" x="101.694462" xlink:href="#m94131c9e1f" y="190.958699"/>
     <use style="fill:#40b5c4;stroke:#40b5c4;" x="109.813532" xlink:href="#m94131c9e1f" y="194.529417"/>
     <use style="fill:#40b5c4;stroke:#40b5c4;" x="117.932602" xlink:href="#m94131c9e1f" y="189.279701"/>
     <use style="fill:#40b5c4;stroke:#40b5c4;" x="126.051672" xlink:href="#m94131c9e1f" y="183.495696"/>
     <use style="fill:#40b5c4;stroke:#40b5c4;" x="134.170742" xlink:href="#m94131c9e1f" y="180.096314"/>
     <use style="fill:#40b5c4;stroke:#40b5c4;" x="142.289812" xlink:href="#m94131c9e1f" y="179.54111"/>
     <use style="fill:#40b5c4;stroke:#40b5c4;" x="150.408882" xlink:href="#m94131c9e1f" y="184.633191"/>
     <use style="fill:#40b5c4;stroke:#40b5c4;" x="158.527952" xlink:href="#m94131c9e1f" y="201.316114"/>
     <use style="fill:#40b5c4;stroke:#40b5c4;" x="166.647022" xlink:href="#m94131c9e1f" y="225.634327"/>
     <use style="fill:#40b5c4;stroke:#40b5c4;" x="174.766092" xlink:href="#m94131c9e1f" y="233.190605"/>
     <use style="fill:#40b5c4;stroke:#40b5c4;" x="182.885162" xlink:href="#m94131c9e1f" y="161.535758"/>
     <use style="fill:#40b5c4;stroke:#40b5c4;" x="191.004232" xlink:href="#m94131c9e1f" y="126.64459"/>
     <use style="fill:#40b5c4;stroke:#40b5c4;" x="199.123302" xlink:href="#m94131c9e1f" y="116.832572"/>
     <use style="fill:#40b5c4;stroke:#40b5c4;" x="207.242372" xlink:href="#m94131c9e1f" y="112.464779"/>
     <use style="fill:#40b5c4;stroke:#40b5c4;" x="215.361442" xlink:href="#m94131c9e1f" y="107.997782"/>
     <use style="fill:#40b5c4;stroke:#40b5c4;" x="223.480512" xlink:href="#m94131c9e1f" y="103.448653"/>
     <use style="fill:#40b5c4;stroke:#40b5c4;" x="231.599582" xlink:href="#m94131c9e1f" y="99.094559"/>
     <use style="fill:#40b5c4;stroke:#40b5c4;" x="239.718652" xlink:href="#m94131c9e1f" y="94.626041"/>
     <use style="fill:#40b5c4;stroke:#40b5c4;" x="247.837722" xlink:href="#m94131c9e1f" y="90.882108"/>
     <use style="fill:#40b5c4;stroke:#40b5c4;" x="255.956792" xlink:href="#m94131c9e1f" y="88.070224"/>
     <use style="fill:#40b5c4;stroke:#40b5c4;" x="264.075862" xlink:href="#m94131c9e1f" y="86.143904"/>
     <use style="fill:#40b5c4;stroke:#40b5c4;" x="272.194932" xlink:href="#m94131c9e1f" y="84.793193"/>
     <use style="fill:#40b5c4;stroke:#40b5c4;" x="280.314002" xlink:href="#m94131c9e1f" y="83.982716"/>
     <use style="fill:#40b5c4;stroke:#40b5c4;" x="288.433072" xlink:href="#m94131c9e1f" y="83.847297"/>
     <use style="fill:#40b5c4;stroke:#40b5c4;" x="296.552142" xlink:href="#m94131c9e1f" y="84.212256"/>
     <use style="fill:#40b5c4;stroke:#40b5c4;" x="304.671212" xlink:href="#m94131c9e1f" y="85.221613"/>
     <use style="fill:#40b5c4;stroke:#40b5c4;" x="312.790282" xlink:href="#m94131c9e1f" y="86.528123"/>
     <use style="fill:#40b5c4;stroke:#40b5c4;" x="320.909352" xlink:href="#m94131c9e1f" y="87.775393"/>
     <use style="fill:#40b5c4;stroke:#40b5c4;" x="329.028422" xlink:href="#m94131c9e1f" y="89.076011"/>
     <use style="fill:#40b5c4;stroke:#40b5c4;" x="337.147492" xlink:href="#m94131c9e1f" y="91.173139"/>
     <use style="fill:#40b5c4;stroke:#40b5c4;" x="345.266562" xlink:href="#m94131c9e1f" y="94.143456"/>
     <use style="fill:#40b5c4;stroke:#40b5c4;" x="353.385632" xlink:href="#m94131c9e1f" y="97.169215"/>
     <use style="fill:#40b5c4;stroke:#40b5c4;" x="361.504702" xlink:href="#m94131c9e1f" y="99.210734"/>
     <use style="fill:#40b5c4;stroke:#40b5c4;" x="369.623772" xlink:href="#m94131c9e1f" y="100.435201"/>
    </g>
   </g>
   <g id="line2d_16">
    <path clip-path="url(#pd9b05df9a2)" d="M 69.218182 74.204991 
L 69.31967 74.184383 
L 69.421159 74.364901 
L 69.725624 74.103187 
L 69.827112 74.382673 
L 69.9286 74.127191 
L 70.131577 74.299087 
L 70.233066 74.039989 
L 70.334554 74.423448 
L 70.537531 74.179007 
L 70.639019 74.303985 
L 70.740507 74.081456 
L 70.841996 74.353415 
L 71.044973 74.214183 
L 71.146461 74.390356 
L 71.247949 74.015343 
L 71.349438 74.436045 
L 71.552414 74.160262 
L 71.653903 74.331646 
L 71.755391 74.076683 
L 71.85688 74.397577 
L 71.958368 74.126746 
L 72.161345 74.336334 
L 72.262833 74.114149 
L 72.364321 74.410821 
L 72.567298 74.124197 
L 72.668787 74.364599 
L 72.770275 74.109234 
L 72.871763 74.328618 
L 73.07474 74.052159 
L 73.176228 74.357872 
L 73.277717 74.108496 
L 73.480694 74.25336 
L 73.582182 74.088836 
L 73.68367 74.302886 
L 73.785159 74.059062 
L 73.886647 74.310015 
L 74.089624 73.958118 
L 74.191112 74.364213 
L 74.394089 74.120792 
L 74.495577 74.201124 
L 74.597066 74.04407 
L 74.698554 74.306119 
L 74.800042 74.020942 
L 75.003019 74.178068 
L 75.104508 73.988333 
L 75.205996 74.307038 
L 75.408973 74.062282 
L 75.510461 74.195958 
L 75.611949 73.910105 
L 75.713438 74.303121 
L 75.814926 74.026821 
L 76.017903 74.188602 
L 76.119391 73.860386 
L 76.22088 74.287126 
L 76.423856 74.013519 
L 76.525345 74.155087 
L 76.626833 73.904112 
L 76.728322 74.233859 
L 76.931298 73.981858 
L 77.032787 74.220062 
L 77.134275 73.893494 
L 77.235763 74.212749 
L 77.43874 73.932994 
L 77.540229 74.125321 
L 77.641717 73.930591 
L 77.743205 74.144804 
L 77.946182 73.942513 
L 78.04767 74.135771 
L 78.149159 73.855324 
L 78.250647 74.100344 
L 78.453624 73.861048 
L 78.555112 74.03289 
L 78.656601 73.87659 
L 78.758089 74.043361 
L 78.961066 73.779667 
L 79.062554 74.065453 
L 79.164043 73.769611 
L 79.367019 73.916463 
L 79.468508 73.749784 
L 79.569996 73.986957 
L 79.671484 73.751419 
L 79.772973 73.922464 
L 79.97595 73.651784 
L 80.077438 73.926594 
L 80.280415 73.761404 
L 80.483391 73.636729 
L 80.58488 73.888684 
L 80.686368 73.603662 
L 80.889345 73.714658 
L 80.990833 73.493329 
L 81.092322 73.850254 
L 81.295298 73.548802 
L 81.396787 73.691166 
L 81.498275 73.458002 
L 81.599764 73.715162 
L 81.701252 73.484694 
L 81.904229 73.58911 
L 82.005717 73.340816 
L 82.107205 73.648383 
L 82.310182 73.381242 
L 82.411671 73.565282 
L 82.513159 73.286328 
L 82.614647 73.545665 
L 82.817624 73.306839 
L 82.919112 73.471522 
L 83.020601 73.164907 
L 83.122089 73.529192 
L 83.325066 73.177727 
L 83.426554 73.387147 
L 83.528043 73.176083 
L 83.629531 73.313876 
L 83.832508 73.097126 
L 83.933996 73.483931 
L 84.035485 73.002854 
L 84.136973 73.353514 
L 84.33995 72.958754 
L 84.441438 73.292908 
L 84.542926 72.988654 
L 84.644415 73.247722 
L 84.847392 72.795589 
L 84.94888 73.288807 
L 85.050368 72.957164 
L 85.151857 73.176733 
L 85.253345 73.131027 
L 85.354833 72.873033 
L 85.456322 73.128444 
L 85.55781 72.823879 
L 85.760787 73.082272 
L 85.862275 72.716599 
L 85.963764 73.213993 
L 86.16674 72.836016 
L 86.268229 73.00506 
L 86.369717 72.683285 
L 86.471206 73.112537 
L 86.674182 72.717685 
L 86.775671 73.011258 
L 86.877159 72.478683 
L 86.978647 73.080712 
L 87.181624 72.630521 
L 87.283113 72.756094 
L 87.384601 72.440362 
L 87.486089 72.954703 
L 87.689066 72.498825 
L 87.790554 72.720868 
L 87.892043 72.314902 
L 87.993531 72.843832 
L 88.196508 72.203747 
L 88.297996 72.534148 
L 88.399485 72.093665 
L 88.500973 72.395612 
L 88.70395 72.069116 
L 88.805438 72.277571 
L 88.906927 71.709087 
L 89.008415 72.186423 
L 89.211392 71.666371 
L 89.31288 71.947518 
L 89.414368 71.371032 
L 89.515857 71.859771 
L 89.718834 71.285932 
L 89.820322 71.587019 
L 89.92181 71.034412 
L 90.023299 71.47149 
L 90.226275 70.982626 
L 90.327764 71.126231 
L 90.429252 70.770178 
L 90.530741 70.988165 
L 90.733717 70.387684 
L 90.835206 70.842278 
L 91.038182 70.386703 
L 91.139671 70.389936 
L 91.241159 70.089016 
L 91.342648 70.356211 
L 91.444136 70.021973 
L 91.545624 70.05995 
L 91.748601 69.495882 
L 91.850089 69.980062 
L 92.053066 69.424465 
L 92.154555 69.390153 
L 92.256043 69.090608 
L 92.357531 69.58609 
L 92.45902 68.985546 
L 92.560508 69.012796 
L 92.661996 69.058099 
L 92.763485 68.559082 
L 92.864973 69.000144 
L 93.06795 68.367686 
L 93.169438 68.621399 
L 93.270927 67.994817 
L 93.372415 68.51853 
L 93.473903 67.91326 
L 93.67688 68.049866 
L 93.778369 67.512251 
L 93.879857 67.983012 
L 94.082834 67.383113 
L 94.184322 67.55217 
L 94.28581 66.98426 
L 94.387299 67.355528 
L 94.488787 66.803579 
L 94.590276 66.827764 
L 94.691764 67.00621 
L 94.793252 66.443613 
L 94.894741 66.926716 
L 95.097717 66.308818 
L 95.199206 66.328256 
L 95.300694 66.075218 
L 95.402183 66.156343 
L 95.605159 65.786929 
L 95.706648 65.849313 
L 95.808136 65.496816 
L 95.909624 65.705641 
L 96.112601 65.204715 
L 96.21409 65.367628 
L 96.315578 65.018968 
L 96.417066 65.074596 
L 96.620043 64.706667 
L 96.721531 64.858567 
L 96.924508 64.486046 
L 97.025997 64.451998 
L 97.127485 64.170025 
L 97.228973 64.287382 
L 97.330462 63.949118 
L 97.43195 64.019458 
L 97.634927 63.590272 
L 97.736415 63.758867 
L 97.939392 63.390288 
L 98.142369 63.07004 
L 98.243857 63.273157 
L 98.446834 62.860842 
L 98.548322 62.8134 
L 98.649811 62.463603 
L 98.751299 62.672948 
L 98.954276 62.275873 
L 99.055764 62.266089 
L 99.157252 61.90593 
L 99.258741 62.153185 
L 99.461718 61.708911 
L 100.57809 60.443195 
L 100.679578 60.476635 
L 100.984043 59.978351 
L 101.79595 59.0939 
L 102.100415 58.672331 
L 102.201904 58.625782 
L 102.506369 58.199716 
L 102.607857 58.21023 
L 103.013811 57.596111 
L 103.216787 57.416977 
L 103.521253 57.152428 
L 103.927206 56.742655 
L 104.33316 56.277878 
L 104.434648 56.284253 
L 104.536136 56.114689 
L 104.637625 56.167427 
L 104.94209 55.737726 
L 105.652508 55.165375 
L 105.956974 54.726574 
L 106.15995 54.572904 
L 106.464415 54.314159 
L 106.768881 54.049136 
L 107.479299 53.420495 
L 107.580788 53.482824 
L 107.783764 53.213993 
L 108.291206 52.881751 
L 108.798648 52.690322 
L 109.103113 52.501702 
L 109.204602 52.503397 
L 109.407578 52.370187 
L 112.147764 50.917827 
L 112.249253 50.932273 
L 112.553718 50.658381 
L 112.858183 50.507126 
L 114.076044 49.85555 
L 114.27902 49.791531 
L 114.684974 49.536342 
L 115.801346 48.952836 
L 116.004323 48.792314 
L 120.063858 46.82027 
L 120.266834 46.81151 
L 121.992137 46.09258 
L 122.093625 46.29576 
L 122.296602 46.088382 
L 122.39809 46.160022 
L 122.499579 45.996157 
L 122.601067 46.130193 
L 122.804044 45.930326 
L 122.905532 46.002439 
L 123.007021 45.78828 
L 123.108509 45.956074 
L 123.311486 45.719362 
L 123.412974 45.863962 
L 123.514462 45.656123 
L 123.615951 45.767086 
L 123.818928 45.582915 
L 123.920416 45.672294 
L 124.021904 45.467252 
L 124.123393 45.60905 
L 124.326369 45.38993 
L 124.427858 45.48307 
L 124.529346 45.354972 
L 124.630835 45.421378 
L 124.833811 45.244303 
L 124.9353 45.322652 
L 125.036788 45.084678 
L 125.138276 45.30228 
L 125.341253 45.05508 
L 125.442742 45.1504 
L 125.54423 44.970738 
L 125.645718 45.071603 
L 125.848695 44.899908 
L 125.950183 44.978689 
L 126.051672 44.73676 
L 126.15316 44.931142 
L 126.356137 44.690832 
L 126.457625 44.79111 
L 126.660602 44.674377 
L 126.863579 44.497528 
L 126.965067 44.640719 
L 127.066556 44.455169 
L 127.168044 44.622384 
L 127.371021 44.443636 
L 127.472509 44.601035 
L 127.573997 44.474363 
L 127.776974 44.468395 
L 127.878463 44.475134 
L 127.979951 44.600984 
L 128.081439 44.515993 
L 128.182928 44.663381 
L 128.385904 44.605757 
L 128.588881 44.679136 
L 129.603765 44.958157 
L 129.806742 44.972021 
L 132.445439 45.818508 
L 133.155858 46.20257 
L 133.561812 46.201031 
L 133.866277 46.22225 
L 134.576695 46.265453 
L 135.185626 46.326814 
L 135.388602 46.219 
L 135.693067 46.025734 
L 135.896044 45.838507 
L 136.504974 45.305085 
L 136.80944 45.279169 
L 137.012416 45.266798 
L 137.215393 45.267947 
L 137.621347 45.152187 
L 139.651114 47.240154 
L 141.680882 50.097236 
L 142.188323 51.067731 
L 143.406184 53.454945 
L 144.015114 54.802294 
L 144.624044 56.771331 
L 145.334463 58.890532 
L 147.262742 64.833137 
L 147.770184 66.537894 
L 147.871672 66.709873 
L 148.277626 68.117366 
L 149.089533 70.724782 
L 150.002928 73.756049 
L 151.017812 76.965255 
L 153.65651 84.359164 
L 153.960975 85.050042 
L 154.26544 85.749149 
L 154.366928 85.863068 
L 154.671393 86.694346 
L 154.772882 86.810842 
L 155.178835 87.633752 
L 155.584789 87.905551 
L 155.787766 87.835902 
L 156.802649 88.713012 
L 157.005626 88.98061 
L 157.107114 89.06661 
L 157.208603 88.997745 
L 157.513068 89.521349 
L 157.614556 89.445323 
L 157.919021 89.779972 
L 159.035394 90.713797 
L 159.136882 90.763965 
L 159.441347 91.154366 
L 159.644324 91.178235 
L 159.745812 91.519292 
L 159.847301 91.417392 
L 159.948789 91.596467 
L 160.050277 91.53106 
L 160.354742 91.9215 
L 160.862184 92.317588 
L 160.963673 92.238901 
L 161.166649 92.478678 
L 161.369626 92.695302 
L 161.471115 92.745135 
L 161.674091 92.927244 
L 161.77558 93.046053 
L 161.877068 92.874094 
L 162.080045 93.212452 
L 162.38451 93.512561 
L 162.790463 93.660348 
L 163.60237 94.278738 
L 163.805347 94.09238 
L 164.109812 94.326547 
L 164.312789 94.173397 
L 164.414277 94.389614 
L 164.718743 94.103722 
L 164.921719 94.350744 
L 165.023208 94.447492 
L 165.226184 94.269969 
L 165.327673 94.440023 
L 165.632138 94.217782 
L 165.936603 94.399863 
L 166.444045 94.364503 
L 166.545533 94.196738 
L 166.74851 94.34199 
L 167.052975 94.38232 
L 167.154464 94.48302 
L 167.458929 94.111199 
L 167.661905 94.387998 
L 167.966371 94.243092 
L 168.067859 94.529813 
L 168.169347 94.274456 
L 168.270836 94.341939 
L 168.372324 93.993607 
L 168.473812 94.293919 
L 168.575301 94.194585 
L 168.676789 94.253899 
L 168.879766 94.145142 
L 169.082743 94.277463 
L 169.285719 93.944843 
L 169.387208 94.046081 
L 169.691673 94.119238 
L 169.89465 93.984632 
L 170.097626 94.096522 
L 170.199115 93.806924 
L 170.402092 93.918461 
L 171.011022 93.848688 
L 171.11251 93.670624 
L 171.416975 93.779356 
L 171.619952 93.623148 
L 171.72144 93.820889 
L 172.025906 93.42862 
L 172.127394 93.667609 
L 172.431859 93.506709 
L 172.634836 93.497923 
L 172.837813 93.424162 
L 172.939301 93.284805 
L 173.243766 93.391117 
L 173.345254 93.367649 
L 173.446743 93.200782 
L 173.548231 93.439829 
L 173.852696 93.051429 
L 174.157161 93.217283 
L 174.360138 93.088792 
L 174.461627 93.166189 
L 174.969068 92.971492 
L 175.172045 93.012061 
L 175.273534 92.780225 
L 175.375022 93.135634 
L 175.577999 92.80604 
L 175.679487 92.739815 
L 175.780975 92.893554 
L 175.882464 92.719885 
L 175.983952 92.825463 
L 176.085441 92.763465 
L 176.186929 92.851182 
L 176.592882 92.623397 
L 176.998836 92.621797 
L 177.303301 92.585094 
L 177.404789 92.408179 
L 177.506278 92.549617 
L 177.607766 92.413115 
L 177.709255 92.586621 
L 178.01372 92.336545 
L 178.115208 92.568618 
L 178.419673 92.331217 
L 178.724138 92.389123 
L 178.825627 92.308456 
L 179.028603 92.348551 
L 179.333069 92.259548 
L 179.739022 92.233638 
L 180.043487 92.19853 
L 180.144976 91.990334 
L 180.347952 92.252757 
L 180.550929 92.126563 
L 180.652417 92.0765 
L 180.855394 92.163911 
L 181.058371 92.003368 
L 181.362836 92.072487 
L 181.565813 91.99332 
L 181.667301 92.167686 
L 181.971766 91.876491 
L 182.174743 92.034983 
L 182.37772 91.990343 
L 182.479208 92.087286 
L 182.580697 91.912119 
L 182.682185 91.960203 
L 182.783673 91.766752 
L 182.885162 91.928298 
L 182.98665 91.865247 
L 183.088138 91.972058 
L 183.291115 91.946121 
L 183.59558 91.931787 
L 183.697069 91.683845 
L 183.900045 91.845869 
L 184.103022 91.818954 
L 184.204511 91.777157 
L 184.305999 92.045933 
L 184.508976 91.772959 
L 184.610464 91.7281 
L 184.813441 91.820368 
L 185.117906 91.765507 
L 185.320883 91.81604 
L 185.422371 91.597813 
L 185.625348 91.776649 
L 185.828325 91.759154 
L 185.929813 91.700687 
L 186.031301 91.848674 
L 186.234278 91.707761 
L 186.335766 91.652179 
L 186.538743 91.764127 
L 186.843208 91.669251 
L 186.944697 91.838195 
L 187.147673 91.599424 
L 187.35065 91.712898 
L 187.553627 91.730797 
L 187.655115 91.638978 
L 187.858092 91.733371 
L 188.162557 91.671897 
L 188.467022 91.671818 
L 188.568511 91.520555 
L 188.669999 91.771479 
L 188.974464 91.516047 
L 189.278929 91.758093 
L 189.380418 91.480523 
L 189.583394 91.702372 
L 189.786371 91.465426 
L 189.88786 91.68132 
L 189.989348 91.595301 
L 190.090836 91.726196 
L 190.192325 91.529185 
L 190.49679 91.663452 
L 190.598278 91.465971 
L 190.902743 91.661753 
L 191.207208 91.588428 
L 191.308697 91.684608 
L 191.511674 91.437685 
L 191.816139 91.631341 
L 191.917627 91.618957 
L 192.019115 91.461228 
L 192.120604 91.758881 
L 192.323581 91.466709 
L 192.932511 91.616605 
L 193.135488 91.607882 
L 193.236976 91.385252 
L 193.439953 91.533379 
L 193.642929 91.535132 
L 193.845906 91.526166 
L 194.048883 91.247321 
L 194.25186 91.11581 
L 194.353348 91.212392 
L 194.556325 90.803458 
L 194.657813 91.022443 
L 194.962278 90.220753 
L 195.063767 90.435822 
L 195.672697 90.000371 
L 195.774185 89.5514 
L 195.875674 89.752957 
L 196.07865 89.537123 
L 196.281627 89.344104 
L 196.383116 89.495349 
L 196.586092 89.058042 
L 196.890557 88.967765 
L 196.992046 88.564615 
L 197.195023 88.643119 
L 198.311395 87.521131 
L 198.412883 87.559003 
L 198.61586 87.427106 
L 198.818837 87.470797 
L 199.021813 87.375099 
L 199.123302 87.457889 
L 199.529255 87.327611 
L 199.83372 87.286037 
L 200.036697 87.294007 
L 200.239674 87.131856 
L 200.544139 87.189138 
L 200.950092 87.142256 
L 201.051581 86.985071 
L 201.254558 87.123466 
L 201.457534 87.042232 
L 201.559023 87.105855 
L 201.660511 86.994081 
L 201.761999 87.05254 
L 201.863488 86.819969 
L 202.066465 86.957788 
L 202.269441 86.934532 
L 202.37093 86.87969 
L 202.472418 87.005874 
L 202.675395 86.772523 
L 202.97986 86.904525 
L 203.182837 86.724739 
L 203.284325 86.871704 
L 203.690279 86.697604 
L 203.893255 86.71922 
L 203.994744 86.651062 
L 204.096232 86.826222 
L 204.299209 86.571115 
L 205.821534 86.49862 
L 206.024511 86.344627 
L 206.328976 86.395227 
L 206.73493 86.312217 
L 206.836418 86.146016 
L 207.039395 86.308067 
L 207.546837 86.246608 
L 207.648325 86.046649 
L 207.851302 86.18354 
L 208.155767 86.116124 
L 208.257255 85.978912 
L 208.460232 86.140172 
L 208.663209 86.092579 
L 208.764697 86.022538 
L 208.866186 86.109027 
L 209.272139 85.991069 
L 209.779581 85.8954 
L 209.881069 85.78536 
L 210.084046 85.914205 
L 210.591488 85.830421 
L 210.692976 85.639614 
L 210.895953 85.816353 
L 211.09893 85.771241 
L 211.301907 85.738765 
L 211.403395 85.715633 
L 211.504883 85.572265 
L 211.809349 85.703304 
L 212.215302 85.665252 
L 212.31679 85.498564 
L 212.519767 85.640744 
L 213.027209 85.617493 
L 213.128697 85.442982 
L 213.331674 85.648454 
L 213.534651 85.551689 
L 213.737628 85.648752 
L 214.042093 85.508952 
L 214.143581 85.601345 
L 214.346558 85.494675 
L 214.549535 85.561917 
L 214.752511 85.468058 
L 214.955488 85.55418 
L 215.056977 85.428676 
L 215.259953 85.548519 
L 215.564418 85.377762 
L 215.868884 85.471811 
L 216.477814 85.35113 
L 216.579302 85.512254 
L 216.680791 85.393408 
L 216.782279 85.492314 
L 217.188232 85.35373 
L 217.289721 85.439686 
L 217.492698 85.301375 
L 217.594186 85.452108 
L 218.000139 85.279088 
L 218.203116 85.324224 
L 218.304605 85.30473 
L 218.406093 85.407069 
L 218.710558 85.257265 
L 219.015023 85.3127 
L 219.116512 85.264985 
L 219.218 85.398354 
L 219.522465 85.231267 
L 220.131395 85.349507 
L 220.232884 85.073996 
L 220.43586 85.262997 
L 220.638837 85.249712 
L 221.146279 85.192109 
L 221.349256 85.215241 
L 221.450744 85.12629 
L 221.552233 85.270424 
L 221.856698 85.045979 
L 222.059674 85.157495 
L 222.36414 85.187318 
L 222.567116 84.966137 
L 222.770093 85.1843 
L 222.97307 85.092565 
L 223.074558 85.176737 
L 223.379023 84.98024 
L 223.582 85.129148 
L 223.784977 85.091144 
L 223.987954 85.10076 
L 224.089442 84.921383 
L 224.393907 85.130039 
L 224.901349 84.876526 
L 225.002837 85.054056 
L 225.205814 85.008901 
L 225.510279 85.064955 
L 225.713256 84.917852 
L 226.017721 85.006938 
L 226.525163 84.929342 
L 226.72814 84.957242 
L 226.931116 84.979221 
L 227.032605 84.99441 
L 227.235582 84.829759 
L 227.438558 85.025162 
L 227.641535 84.877444 
L 227.743023 85.058237 
L 227.844512 84.975002 
L 227.946 84.741928 
L 228.148977 84.96573 
L 228.351954 84.894485 
L 229.366837 84.85106 
L 229.468326 84.732197 
L 229.671303 84.864566 
L 230.077256 84.891963 
L 230.178744 84.718614 
L 230.48321 84.820485 
L 230.686186 84.807162 
L 230.787675 84.9578 
L 230.990651 84.632637 
L 231.193628 84.808611 
L 231.599582 84.803578 
L 231.70107 84.656804 
L 231.904047 84.749372 
L 232.107024 84.776421 
L 232.512977 84.623476 
L 232.715954 84.760764 
L 233.121907 84.735126 
L 233.223396 84.578338 
L 233.426372 84.701751 
L 233.832326 84.792182 
L 233.933814 84.557087 
L 234.339768 84.679565 
L 234.84721 84.58281 
L 234.948698 84.672663 
L 235.151675 84.533043 
L 235.253163 84.762496 
L 235.45614 84.396778 
L 235.557628 84.579856 
L 235.963582 84.669937 
L 236.166559 84.454201 
L 236.471024 84.57951 
L 236.674 84.540583 
L 236.775489 84.653915 
L 236.978466 84.409967 
L 237.282931 84.519697 
L 237.485907 84.494214 
L 237.891861 84.424018 
L 237.993349 84.313428 
L 238.196326 84.440276 
L 238.297814 84.481579 
L 238.399303 84.395661 
L 238.500791 84.505252 
L 238.805256 84.339267 
L 239.312698 84.425913 
L 239.515675 84.264825 
L 239.718652 84.439113 
L 239.921628 84.369166 
L 240.226094 84.148765 
L 240.42907 84.336032 
L 240.632047 84.290554 
L 240.733535 84.393103 
L 240.936512 84.094198 
L 241.139489 84.223274 
L 241.240977 84.263965 
L 241.342466 84.138868 
L 241.443954 84.338651 
L 241.646931 84.158016 
L 242.255861 84.160165 
L 242.357349 84.003182 
L 242.661815 84.113377 
L 242.864791 84.12354 
L 243.473722 84.029773 
L 243.676698 84.094787 
L 243.879675 83.921998 
L 244.18414 84.003492 
L 244.285629 83.94699 
L 244.387117 84.025054 
L 244.691582 83.907874 
L 244.79307 84.023907 
L 244.996047 83.943916 
L 245.097536 83.98569 
L 245.300512 83.781257 
L 245.604977 83.931119 
L 245.909443 83.834125 
L 246.010931 83.734366 
L 246.213908 83.893456 
L 246.315396 83.764306 
L 246.416884 83.926665 
L 246.822838 83.746381 
L 247.127303 83.902573 
L 247.33028 83.773599 
L 247.533257 83.834088 
L 247.736233 83.662871 
L 247.93921 83.798123 
L 248.040698 83.722873 
L 248.243675 83.774193 
L 248.345164 83.627721 
L 248.751117 83.744537 
L 248.954094 83.727381 
L 249.055582 83.609307 
L 249.157071 83.706351 
L 249.258559 83.63048 
L 249.360047 83.704134 
L 249.461536 83.640132 
L 249.563024 83.793443 
L 249.766001 83.602265 
L 249.867489 83.696093 
L 249.968978 83.579134 
L 250.273443 83.680333 
L 250.577908 83.631906 
L 250.679396 83.689438 
L 250.882373 83.611041 
L 250.983861 83.720546 
L 251.186838 83.458576 
L 251.491303 83.688446 
L 251.592792 83.548938 
L 251.69428 83.679423 
L 251.897257 83.411754 
L 252.100233 83.575644 
L 252.506187 83.589232 
L 252.607675 83.419529 
L 252.810652 83.561483 
L 253.216606 83.504081 
L 253.318094 83.394951 
L 253.521071 83.527781 
L 253.622559 83.57008 
L 253.724047 83.429632 
L 253.825536 83.617803 
L 254.130001 83.440246 
L 254.535954 83.609642 
L 254.738931 83.253069 
L 254.941908 83.509717 
L 255.144885 83.495715 
L 255.246373 83.283984 
L 255.44935 83.524453 
L 255.550838 83.440757 
L 255.753815 83.49345 
L 255.855303 83.206973 
L 256.05828 83.467993 
L 256.261257 83.349012 
L 256.362745 83.545428 
L 256.464234 83.475 
L 256.565722 83.239796 
L 256.768699 83.416506 
L 257.276141 83.207191 
L 257.479117 83.427585 
L 258.189536 83.402747 
L 258.291024 83.452621 
L 258.595489 83.229979 
L 258.899955 83.327623 
L 259.001443 83.283007 
L 259.20442 83.331254 
L 259.305908 83.21258 
L 259.508885 83.352109 
L 259.81335 83.373756 
L 259.914838 83.407261 
L 260.016327 83.132121 
L 260.320792 83.422138 
L 260.726745 83.209829 
L 260.929722 83.344334 
L 261.132699 83.376688 
L 261.234187 83.383527 
L 261.437164 83.303644 
L 261.640141 83.334345 
L 261.741629 83.280111 
L 261.843117 83.448532 
L 262.046094 83.195384 
L 262.249071 83.42072 
L 262.350559 83.329325 
L 262.553536 83.356521 
L 262.858001 83.26692 
L 263.060978 83.361142 
L 263.162466 83.327111 
L 263.263955 83.438801 
L 263.466931 83.217226 
L 263.669908 83.367105 
L 264.075862 83.216186 
L 264.17735 83.413732 
L 264.278838 83.269973 
L 264.380327 83.422914 
L 264.481815 83.279719 
L 264.78628 83.438094 
L 264.989257 83.23658 
L 265.192234 83.402409 
L 265.395211 83.330162 
L 265.598187 83.377539 
L 265.699676 83.206985 
L 266.105629 83.380864 
L 266.207118 83.400551 
L 266.410094 83.305216 
L 266.917536 83.325851 
L 267.019025 83.297492 
L 267.222001 83.438568 
L 267.32349 83.180557 
L 267.526466 83.392066 
L 267.830932 83.363924 
L 267.93242 83.398893 
L 268.033908 83.263913 
L 268.236885 83.425809 
L 268.338373 83.314151 
L 268.54135 83.396511 
L 268.642839 83.227177 
L 268.744327 83.448862 
L 269.048792 83.33008 
L 269.251769 83.464074 
L 269.353257 83.229977 
L 269.454746 83.278102 
L 269.556234 83.48755 
L 269.962187 83.28065 
L 270.266653 83.443588 
L 270.368141 83.336767 
L 270.469629 83.477019 
L 270.774094 83.427824 
L 271.180048 83.466456 
L 271.281536 83.23918 
L 271.484513 83.433865 
L 271.586001 83.494645 
L 271.68749 83.361301 
L 271.788978 83.537013 
L 271.991955 83.274114 
L 272.29642 83.509302 
L 272.397908 83.403455 
L 272.499397 83.492615 
L 272.600885 83.286961 
L 272.803862 83.425159 
L 273.108327 83.499212 
L 273.209815 83.552592 
L 273.311304 83.26432 
L 273.615769 83.46534 
L 273.717257 83.417011 
L 273.818746 83.514707 
L 273.920234 83.291507 
L 274.224699 83.536061 
L 274.326188 83.399067 
L 274.529164 83.489818 
L 274.630653 83.264926 
L 274.833629 83.502368 
L 275.645536 83.359544 
L 275.747025 83.627268 
L 275.950002 83.350767 
L 276.152978 83.635907 
L 276.254467 83.439013 
L 276.355955 83.55242 
L 276.558932 83.400608 
L 276.761909 83.503387 
L 276.863397 83.443884 
L 277.066374 83.543576 
L 277.26935 83.391176 
L 277.472327 83.532052 
L 277.675304 83.555477 
L 277.776792 83.571275 
L 277.878281 83.324838 
L 278.081257 83.579188 
L 278.284234 83.517752 
L 278.487211 83.462858 
L 279.096141 83.472341 
L 279.299118 83.437382 
L 279.400606 83.669766 
L 279.705071 83.4773 
L 279.80656 83.406395 
L 280.009537 83.584577 
L 280.111025 83.46846 
L 280.314002 83.671552 
L 280.41549 83.446159 
L 280.719955 83.608256 
L 280.821444 83.466464 
L 280.922932 83.683537 
L 281.125909 83.426986 
L 281.328885 83.690956 
L 281.430374 83.538951 
L 281.633351 83.594333 
L 281.734839 83.450373 
L 281.937816 83.590624 
L 282.039304 83.552544 
L 282.242281 83.642222 
L 282.445258 83.546247 
L 282.648234 83.600659 
L 282.749723 83.489042 
L 282.851211 83.677905 
L 283.054188 83.58638 
L 283.155676 83.525422 
L 283.257165 83.784312 
L 283.460141 83.552244 
L 283.866095 83.67505 
L 284.069072 83.485564 
L 284.272048 83.703998 
L 284.678002 83.450872 
L 284.77949 83.702878 
L 284.982467 83.604058 
L 285.185444 83.765856 
L 285.286932 83.502026 
L 285.591397 83.648714 
L 285.692886 83.627769 
L 285.794374 83.733915 
L 285.997351 83.545149 
L 286.200327 83.698584 
L 286.707769 83.589936 
L 286.910746 83.728157 
L 287.621165 83.691912 
L 287.722653 83.724102 
L 287.92563 83.614106 
L 288.027118 83.782032 
L 288.128607 83.692455 
L 288.230095 83.767552 
L 288.53456 83.67254 
L 288.737537 83.662775 
L 288.839025 83.674601 
L 288.940514 83.882083 
L 289.244979 83.583658 
L 289.346467 83.787799 
L 289.447955 83.674184 
L 289.549444 83.789889 
L 289.853909 83.720668 
L 289.955397 83.817863 
L 290.056886 83.706216 
L 290.259862 83.769351 
L 290.361351 83.591624 
L 290.564328 83.781483 
L 290.767304 83.759731 
L 290.868793 83.845725 
L 290.970281 83.638309 
L 291.173258 83.778011 
L 291.274746 83.712846 
L 291.477723 83.785664 
L 291.6807 83.675662 
L 291.782188 83.89193 
L 291.883676 83.691807 
L 292.086653 83.831882 
L 292.28963 83.688842 
L 292.492607 83.770567 
L 292.594095 83.714398 
L 292.695583 83.867601 
L 293.000049 83.793846 
L 293.406002 83.74259 
L 293.50749 83.627408 
L 293.710467 83.919205 
L 293.811956 83.790308 
L 293.913444 83.885459 
L 294.116421 83.666973 
L 294.319397 83.890953 
L 294.420886 83.75958 
L 294.623862 83.845893 
L 294.826839 83.784312 
L 294.928328 83.888281 
L 295.029816 83.788828 
L 295.232793 83.83072 
L 295.334281 83.641534 
L 295.638746 83.902607 
L 296.0447 83.782926 
L 296.146188 83.90111 
L 296.349165 83.861908 
L 296.755118 83.895842 
L 296.856607 83.661466 
L 297.059583 83.915921 
L 297.161072 83.797956 
L 297.364049 83.88189 
L 297.465537 83.766208 
L 297.668514 83.904318 
L 297.972979 83.872065 
L 298.074467 83.723947 
L 298.277444 83.909455 
L 298.581909 83.848971 
L 298.683397 83.743705 
L 298.886374 83.939431 
L 299.089351 83.901724 
L 299.190839 83.958099 
L 299.292328 83.745078 
L 299.495304 83.993103 
L 299.698281 83.931532 
L 300.205723 83.92139 
L 300.307211 84.046953 
L 300.611677 83.894888 
L 300.916142 84.036724 
L 301.119118 83.774652 
L 301.220607 84.064329 
L 301.322095 84.027131 
L 301.728049 83.855991 
L 302.235491 84.083357 
L 302.336979 83.854278 
L 302.539956 84.063209 
L 302.641444 84.006224 
L 302.742932 84.148909 
L 302.945909 83.894758 
L 303.047398 84.109429 
L 303.250374 83.978528 
L 303.351863 84.155359 
L 303.554839 83.949183 
L 303.757816 83.992872 
L 303.859305 83.914057 
L 303.960793 84.144282 
L 304.16377 83.911109 
L 304.468235 84.051083 
L 304.7727 83.838627 
L 304.975677 84.006969 
L 305.077165 83.960176 
L 305.178653 84.047844 
L 305.280142 83.747483 
L 305.483119 83.97278 
L 305.686095 83.937386 
L 305.787584 83.972451 
L 305.889072 83.796897 
L 306.092049 83.931845 
L 306.396514 83.918069 
L 306.498002 83.702081 
L 306.700979 83.961099 
L 306.802467 83.846918 
L 306.903956 83.955666 
L 307.106933 83.695732 
L 307.309909 83.96536 
L 307.411398 83.816546 
L 307.512886 83.900558 
L 307.817351 83.825851 
L 307.91884 83.854429 
L 308.020328 83.763302 
L 308.121816 83.934422 
L 308.324793 83.731502 
L 308.730747 83.789136 
L 308.832235 83.602739 
L 309.035212 83.845305 
L 309.441165 83.616251 
L 309.644142 83.780613 
L 309.74563 83.689687 
L 309.847119 83.829596 
L 310.050095 83.57805 
L 310.253072 83.810788 
L 310.354561 83.652853 
L 310.456049 83.815028 
L 310.557537 83.730371 
L 310.659026 83.479137 
L 310.760514 83.751813 
L 310.862002 83.711569 
L 310.963491 83.652794 
L 311.064979 83.823742 
L 311.267956 83.489818 
L 311.470933 83.69421 
L 311.673909 83.707548 
L 311.775398 83.499204 
L 311.978375 83.710649 
L 312.079863 83.612125 
L 312.28284 83.702857 
L 312.384328 83.416131 
L 312.587305 83.625087 
L 312.89177 83.660739 
L 312.993258 83.460155 
L 313.196235 83.650223 
L 313.297723 83.547969 
L 313.399212 83.719546 
L 313.602189 83.513181 
L 313.805165 83.608923 
L 314.211119 83.537225 
L 314.312607 83.620396 
L 314.515584 83.557996 
L 315.226003 83.517488 
L 315.327491 83.362465 
L 315.631956 83.656231 
L 315.834933 83.31657 
L 316.03791 83.511552 
L 316.342375 83.496897 
L 316.443863 83.254843 
L 316.64684 83.471333 
L 316.849817 83.552248 
L 317.052793 83.363482 
L 317.458747 83.483157 
L 317.560235 83.239379 
L 317.661724 83.435964 
L 317.8647 83.384274 
L 317.966189 83.516995 
L 318.169165 83.221548 
L 318.372142 83.512351 
L 318.473631 83.28897 
L 318.575119 83.521736 
L 318.778096 83.250232 
L 318.981072 83.373289 
L 319.285538 83.190597 
L 319.488514 83.334043 
L 319.590003 83.259462 
L 319.691491 83.44667 
L 319.995956 83.174131 
L 320.097445 83.399356 
L 320.198933 83.211143 
L 320.300421 83.471792 
L 320.40191 83.164821 
L 320.503398 83.205239 
L 320.706375 83.257776 
L 320.909352 83.307126 
L 321.01084 83.042273 
L 321.213817 83.393955 
L 321.416793 83.065688 
L 321.61977 83.294046 
L 321.721259 83.20691 
L 321.822747 83.267075 
L 321.924235 83.047385 
L 322.127212 83.197694 
L 322.431677 83.258518 
L 322.533166 82.943734 
L 322.736142 83.228484 
L 322.837631 83.097927 
L 322.939119 83.294237 
L 323.040607 82.961178 
L 323.345073 83.254241 
L 323.649538 83.138378 
L 324.15698 83.175739 
L 324.359956 83.274232 
L 324.562933 83.286836 
L 324.968887 83.407372 
L 325.070375 83.290648 
L 325.171863 83.412266 
L 325.273352 83.306506 
L 325.37484 83.438902 
L 325.476328 83.315765 
L 325.780794 83.498449 
L 325.98377 83.428382 
L 326.288235 83.568073 
L 326.389724 83.372452 
L 326.592701 83.671254 
L 326.795677 83.5097 
L 326.998654 83.562615 
L 327.607584 83.808033 
L 327.810561 83.616037 
L 327.912049 83.918492 
L 328.013538 83.652868 
L 328.216515 83.776589 
L 328.318003 83.715421 
L 328.52098 83.745185 
L 328.723956 83.841089 
L 328.825445 84.044271 
L 328.926933 83.81612 
L 329.231398 83.897837 
L 329.434375 83.883375 
L 329.535863 83.962613 
L 329.637352 83.867446 
L 329.73884 84.144376 
L 329.941817 83.870312 
L 330.043305 84.073464 
L 330.34777 83.991232 
L 330.449259 84.164807 
L 330.550747 83.987863 
L 330.753724 84.124966 
L 331.058189 84.136228 
L 331.159677 84.209687 
L 331.261166 84.038723 
L 331.464143 84.236843 
L 331.667119 84.246989 
L 331.768608 84.307555 
L 331.870096 84.138205 
L 332.073073 84.395673 
L 332.174561 84.14962 
L 332.479026 84.365219 
L 332.783491 84.347449 
L 332.88498 84.296541 
L 332.986468 84.498871 
L 333.189445 84.290286 
L 333.392422 84.582563 
L 333.49391 84.349852 
L 333.696887 84.51332 
L 333.899864 84.419455 
L 334.204329 84.494034 
L 334.305817 84.63335 
L 334.508794 84.357396 
L 334.610282 84.57976 
L 334.914747 84.493044 
L 335.016236 84.571918 
L 335.117724 84.445235 
L 335.320701 84.640076 
L 335.422189 84.436219 
L 335.625166 84.599625 
L 335.828143 84.511031 
L 335.929631 84.644943 
L 336.132608 84.550839 
L 336.234096 84.650747 
L 336.437073 84.474821 
L 336.64005 84.662367 
L 336.741538 84.520278 
L 336.944515 84.72043 
L 337.147492 84.532787 
L 337.350468 84.631628 
L 337.553445 84.700328 
L 337.85791 84.707333 
L 337.959399 84.743358 
L 338.060887 84.552757 
L 338.263864 84.761634 
L 338.46684 84.695121 
L 338.568329 84.833533 
L 338.771306 84.674858 
L 338.872794 84.782851 
L 338.974282 84.630167 
L 339.177259 84.829874 
L 339.278747 84.708497 
L 339.481724 84.843292 
L 339.684701 84.686323 
L 339.887678 84.774808 
L 339.989166 84.72498 
L 340.192143 84.866136 
L 340.39512 84.804167 
L 340.496608 84.913562 
L 340.699585 84.712871 
L 340.801073 84.884183 
L 340.902561 84.806977 
L 341.105538 84.938312 
L 341.308515 84.735145 
L 341.511492 84.905214 
L 341.714468 84.827691 
L 341.917445 84.9361 
L 342.120422 85.000761 
L 342.323399 84.845321 
L 342.424887 84.966512 
L 342.627864 84.849595 
L 342.830841 85.091383 
L 342.932329 84.87107 
L 343.135306 85.037522 
L 343.338282 84.915688 
L 343.439771 85.001724 
L 343.541259 84.912109 
L 343.744236 85.128473 
L 343.947213 84.940334 
L 344.150189 85.033371 
L 344.251678 84.924566 
L 344.454655 85.096298 
L 344.556143 84.96993 
L 344.75912 85.159908 
L 344.962096 84.964229 
L 345.063585 85.150246 
L 345.36805 85.087787 
L 345.469538 85.155952 
L 345.672515 85.123032 
L 345.774003 85.228279 
L 345.97698 85.025248 
L 346.078469 85.209464 
L 346.179957 85.041395 
L 346.484422 85.248194 
L 346.58591 85.03699 
L 346.788887 85.203203 
L 346.991864 85.109675 
L 347.093352 85.200345 
L 347.194841 85.092708 
L 347.397817 85.333808 
L 347.600794 85.093293 
L 347.702283 85.297884 
L 347.905259 85.091551 
L 348.108236 85.299754 
L 348.209724 85.175204 
L 348.412701 85.400849 
L 348.615678 85.169981 
L 348.818655 85.289876 
L 348.920143 85.166861 
L 349.12312 85.392359 
L 349.224608 85.226433 
L 349.427585 85.416489 
L 349.630562 85.20405 
L 349.73205 85.401344 
L 349.935027 85.270942 
L 350.036515 85.467859 
L 350.34098 85.362432 
L 350.442469 85.459983 
L 350.645445 85.287572 
L 350.848422 85.359767 
L 351.152887 85.448736 
L 351.254376 85.258955 
L 351.457352 85.496103 
L 351.558841 85.270483 
L 351.863306 85.460663 
L 352.269259 85.3646 
L 352.472236 85.509438 
L 352.675213 85.436625 
L 352.776701 85.575318 
L 352.979678 85.479651 
L 353.081166 85.609456 
L 353.284143 85.471665 
L 353.48712 85.556719 
L 353.588608 85.425493 
L 353.791585 85.584642 
L 353.994562 85.522889 
L 354.09605 85.67012 
L 354.299027 85.476682 
L 354.502004 85.646439 
L 354.603492 85.49557 
L 354.806469 85.600314 
L 355.009446 85.615924 
L 355.110934 85.680776 
L 355.313911 85.483285 
L 355.415399 85.777235 
L 355.719864 85.63177 
L 356.328794 85.815789 
L 356.531771 85.626421 
L 356.734748 85.701486 
L 356.937725 85.685804 
L 357.039213 85.741657 
L 357.140701 85.639784 
L 357.343678 85.848331 
L 357.546655 85.659613 
L 357.749632 85.809612 
L 357.85112 85.62232 
L 358.054097 85.813449 
L 358.155585 85.73059 
L 358.358562 85.908638 
L 358.561539 85.685257 
L 358.663027 85.902376 
L 358.866004 85.695156 
L 359.068981 85.803913 
L 359.271957 85.841607 
L 359.373446 86.02134 
L 359.576422 85.734165 
L 359.677911 85.944097 
L 359.880888 85.874271 
L 360.185353 85.854674 
L 360.388329 85.929262 
L 360.692795 85.891201 
L 360.794283 85.970382 
L 360.895771 85.878335 
L 361.098748 85.927031 
L 361.504702 85.944413 
L 361.707678 85.92757 
L 362.012143 86.050234 
L 362.113632 85.924781 
L 362.418097 86.040178 
L 362.519585 86.029983 
L 362.621074 85.902913 
L 362.925539 86.085012 
L 363.128516 85.945852 
L 363.432981 86.08986 
L 363.635957 85.987947 
L 363.940423 86.088224 
L 364.143399 85.974594 
L 364.447864 86.104235 
L 364.650841 85.987676 
L 364.75233 86.081219 
L 365.056795 85.900649 
L 365.259771 86.143278 
L 365.36126 86.00123 
L 365.462748 86.061771 
L 365.564237 85.920159 
L 365.767213 86.020579 
L 365.868702 85.99776 
L 365.97019 86.091315 
L 366.071678 85.906943 
L 366.173167 86.027528 
L 366.274655 85.972955 
L 366.376144 86.062977 
L 366.57912 86.014287 
L 366.883585 86.000941 
L 366.985074 85.949399 
L 367.188051 85.975672 
L 367.796981 86.047295 
L 368.202934 86.034676 
L 368.405911 86.060337 
L 368.608888 85.989163 
L 368.913353 86.013658 
L 369.014841 85.846482 
L 369.11633 86.080288 
L 369.319306 86.0365 
L 369.522283 85.93283 
L 369.623772 86.059909 
L 369.72526 85.944539 
L 369.826748 86.0345 
L 370.029725 85.921394 
L 370.232702 86.030464 
L 370.435679 85.856654 
L 370.537167 85.987182 
L 370.638655 85.919296 
L 370.740144 85.990375 
L 370.94312 85.821671 
L 371.247586 85.954417 
L 371.450562 85.825372 
L 371.755027 85.924722 
L 371.958004 85.730762 
L 372.160981 85.856163 
L 372.262469 85.818815 
L 372.363958 85.63714 
L 372.566934 85.826399 
L 372.8714 85.59156 
L 373.074376 85.740309 
L 373.175865 85.743076 
L 373.378841 85.637681 
L 373.581818 85.671278 
L 373.581818 85.671278 
" style="fill:none;stroke:#081d58;stroke-dasharray:5.55,2.4;stroke-dashoffset:0;stroke-width:1.5;"/>
    <defs>
     <path d="M -0 4.242641 
L 4.242641 0 
L 0 -4.242641 
L -4.242641 -0 
z
" id="m86e91f4f8a" style="stroke:#081d58;stroke-linejoin:miter;"/>
    </defs>
    <g clip-path="url(#pd9b05df9a2)">
     <use style="fill:#081d58;stroke:#081d58;stroke-linejoin:miter;" x="69.218182" xlink:href="#m86e91f4f8a" y="74.204991"/>
     <use style="fill:#081d58;stroke:#081d58;stroke-linejoin:miter;" x="77.337252" xlink:href="#m86e91f4f8a" y="73.995185"/>
     <use style="fill:#081d58;stroke:#081d58;stroke-linejoin:miter;" x="85.456322" xlink:href="#m86e91f4f8a" y="73.128444"/>
     <use style="fill:#081d58;stroke:#081d58;stroke-linejoin:miter;" x="93.575392" xlink:href="#m86e91f4f8a" y="68.05185"/>
     <use style="fill:#081d58;stroke:#081d58;stroke-linejoin:miter;" x="101.694462" xlink:href="#m86e91f4f8a" y="59.245755"/>
     <use style="fill:#081d58;stroke:#081d58;stroke-linejoin:miter;" x="109.813532" xlink:href="#m86e91f4f8a" y="52.141934"/>
     <use style="fill:#081d58;stroke:#081d58;stroke-linejoin:miter;" x="117.932602" xlink:href="#m86e91f4f8a" y="47.755157"/>
     <use style="fill:#081d58;stroke:#081d58;stroke-linejoin:miter;" x="126.051672" xlink:href="#m86e91f4f8a" y="44.73676"/>
     <use style="fill:#081d58;stroke:#081d58;stroke-linejoin:miter;" x="134.170742" xlink:href="#m86e91f4f8a" y="46.256713"/>
     <use style="fill:#081d58;stroke:#081d58;stroke-linejoin:miter;" x="142.289812" xlink:href="#m86e91f4f8a" y="51.287136"/>
     <use style="fill:#081d58;stroke:#081d58;stroke-linejoin:miter;" x="150.408882" xlink:href="#m86e91f4f8a" y="75.045845"/>
     <use style="fill:#081d58;stroke:#081d58;stroke-linejoin:miter;" x="158.527952" xlink:href="#m86e91f4f8a" y="90.291549"/>
     <use style="fill:#081d58;stroke:#081d58;stroke-linejoin:miter;" x="166.647022" xlink:href="#m86e91f4f8a" y="94.38687"/>
     <use style="fill:#081d58;stroke:#081d58;stroke-linejoin:miter;" x="174.766092" xlink:href="#m86e91f4f8a" y="92.867997"/>
     <use style="fill:#081d58;stroke:#081d58;stroke-linejoin:miter;" x="182.885162" xlink:href="#m86e91f4f8a" y="91.928298"/>
     <use style="fill:#081d58;stroke:#081d58;stroke-linejoin:miter;" x="191.004232" xlink:href="#m86e91f4f8a" y="91.597453"/>
     <use style="fill:#081d58;stroke:#081d58;stroke-linejoin:miter;" x="199.123302" xlink:href="#m86e91f4f8a" y="87.457889"/>
     <use style="fill:#081d58;stroke:#081d58;stroke-linejoin:miter;" x="207.242372" xlink:href="#m86e91f4f8a" y="86.240118"/>
     <use style="fill:#081d58;stroke:#081d58;stroke-linejoin:miter;" x="215.361442" xlink:href="#m86e91f4f8a" y="85.47559"/>
     <use style="fill:#081d58;stroke:#081d58;stroke-linejoin:miter;" x="223.480512" xlink:href="#m86e91f4f8a" y="85.148604"/>
     <use style="fill:#081d58;stroke:#081d58;stroke-linejoin:miter;" x="231.599582" xlink:href="#m86e91f4f8a" y="84.803578"/>
     <use style="fill:#081d58;stroke:#081d58;stroke-linejoin:miter;" x="239.718652" xlink:href="#m86e91f4f8a" y="84.439113"/>
     <use style="fill:#081d58;stroke:#081d58;stroke-linejoin:miter;" x="247.837722" xlink:href="#m86e91f4f8a" y="83.787153"/>
     <use style="fill:#081d58;stroke:#081d58;stroke-linejoin:miter;" x="255.956792" xlink:href="#m86e91f4f8a" y="83.44493"/>
     <use style="fill:#081d58;stroke:#081d58;stroke-linejoin:miter;" x="264.075862" xlink:href="#m86e91f4f8a" y="83.216186"/>
     <use style="fill:#081d58;stroke:#081d58;stroke-linejoin:miter;" x="272.194932" xlink:href="#m86e91f4f8a" y="83.454252"/>
     <use style="fill:#081d58;stroke:#081d58;stroke-linejoin:miter;" x="280.314002" xlink:href="#m86e91f4f8a" y="83.671552"/>
     <use style="fill:#081d58;stroke:#081d58;stroke-linejoin:miter;" x="288.433072" xlink:href="#m86e91f4f8a" y="83.588561"/>
     <use style="fill:#081d58;stroke:#081d58;stroke-linejoin:miter;" x="296.552142" xlink:href="#m86e91f4f8a" y="83.810566"/>
     <use style="fill:#081d58;stroke:#081d58;stroke-linejoin:miter;" x="304.671212" xlink:href="#m86e91f4f8a" y="83.816737"/>
     <use style="fill:#081d58;stroke:#081d58;stroke-linejoin:miter;" x="312.790282" xlink:href="#m86e91f4f8a" y="83.696104"/>
     <use style="fill:#081d58;stroke:#081d58;stroke-linejoin:miter;" x="320.909352" xlink:href="#m86e91f4f8a" y="83.307126"/>
     <use style="fill:#081d58;stroke:#081d58;stroke-linejoin:miter;" x="329.028422" xlink:href="#m86e91f4f8a" y="83.86165"/>
     <use style="fill:#081d58;stroke:#081d58;stroke-linejoin:miter;" x="337.147492" xlink:href="#m86e91f4f8a" y="84.532787"/>
     <use style="fill:#081d58;stroke:#081d58;stroke-linejoin:miter;" x="345.266562" xlink:href="#m86e91f4f8a" y="84.936314"/>
     <use style="fill:#081d58;stroke:#081d58;stroke-linejoin:miter;" x="353.385632" xlink:href="#m86e91f4f8a" y="85.547688"/>
     <use style="fill:#081d58;stroke:#081d58;stroke-linejoin:miter;" x="361.504702" xlink:href="#m86e91f4f8a" y="85.944413"/>
     <use style="fill:#081d58;stroke:#081d58;stroke-linejoin:miter;" x="369.623772" xlink:href="#m86e91f4f8a" y="86.059909"/>
    </g>
   </g>
   <g id="patch_3">
    <path d="M 54 252 
L 54 34.56 
" style="fill:none;stroke:#000000;stroke-linecap:square;stroke-linejoin:miter;stroke-width:0.8;"/>
   </g>
   <g id="patch_4">
    <path d="M 388.8 252 
L 388.8 34.56 
" style="fill:none;stroke:#000000;stroke-linecap:square;stroke-linejoin:miter;stroke-width:0.8;"/>
   </g>
   <g id="patch_5">
    <path d="M 54 252 
L 388.8 252 
" style="fill:none;stroke:#000000;stroke-linecap:square;stroke-linejoin:miter;stroke-width:0.8;"/>
   </g>
   <g id="patch_6">
    <path d="M 54 34.56 
L 388.8 34.56 
" style="fill:none;stroke:#000000;stroke-linecap:square;stroke-linejoin:miter;stroke-width:0.8;"/>
   </g>
   <g id="legend_1">
    <g id="patch_7">
     <path d="M 280.085938 71.91625 
L 381.8 71.91625 
Q 383.8 71.91625 383.8 69.91625 
L 383.8 41.56 
Q 383.8 39.56 381.8 39.56 
L 280.085938 39.56 
Q 278.085938 39.56 278.085938 41.56 
L 278.085938 69.91625 
Q 278.085938 71.91625 280.085938 71.91625 
z
" style="fill:#ffffff;opacity:0.8;stroke:#cccccc;stroke-linejoin:miter;"/>
    </g>
    <g id="line2d_17">
     <path d="M 282.085938 47.658437 
L 302.085938 47.658437 
" style="fill:none;stroke:#40b5c4;stroke-dasharray:5.55,2.4;stroke-dashoffset:0;stroke-width:1.5;"/>
    </g>
    <g id="line2d_18">
     <g>
      <use style="fill:#40b5c4;stroke:#40b5c4;" x="292.085938" xlink:href="#m94131c9e1f" y="47.658437"/>
     </g>
    </g>
    <g id="text_17">
     <text style="font-family:DejaVu Sans;font-size:10px;font-style:normal;font-weight:normal;text-anchor:start;" transform="rotate(-0, 310.085938, 51.158437)" x="310.085938" y="51.158437">original</text>
    </g>
    <g id="line2d_19">
     <path d="M 282.085938 62.336562 
L 302.085938 62.336562 
" style="fill:none;stroke:#081d58;stroke-dasharray:5.55,2.4;stroke-dashoffset:0;stroke-width:1.5;"/>
    </g>
    <g id="line2d_20">
     <g>
      <use style="fill:#081d58;stroke:#081d58;stroke-linejoin:miter;" x="292.085938" xlink:href="#m86e91f4f8a" y="62.336562"/>
     </g>
    </g>
    <g id="text_18">
     <text style="font-family:DejaVu Sans;font-size:10px;font-style:normal;font-weight:normal;text-anchor:start;" transform="rotate(-0, 310.085938, 65.836562)" x="310.085938" y="65.836562">reconstructed</text>
    </g>
   </g>
  </g>
  <g id="text_19">
   <text style="font-family:DejaVu Sans;font-size:12px;font-style:normal;font-weight:normal;text-anchor:middle;" transform="rotate(-0, 216, 14.878125)" x="216" y="14.878125">Reconstruction of the temperature curve</text>
  </g>
 </g>
 <defs>
  <clipPath id="pd9b05df9a2">
   <rect height="217.44" width="334.8" x="54" y="34.56"/>
  </clipPath>
 </defs>
</svg>
