<?xml version="1.0" encoding="utf-8" standalone="no"?>
<!DOCTYPE svg PUBLIC "-//W3C//DTD SVG 1.1//EN"
  "http://www.w3.org/Graphics/SVG/1.1/DTD/svg11.dtd">
<!-- Created with matplotlib (https://matplotlib.org/) -->
<svg height="288pt" version="1.1" viewBox="0 0 432 288" width="432pt" xmlns="http://www.w3.org/2000/svg" xmlns:xlink="http://www.w3.org/1999/xlink">
 <defs>
  <style type="text/css">
*{stroke-linecap:butt;stroke-linejoin:round;}
  </style>
 </defs>
 <g id="figure_1">
  <g id="patch_1">
   <path d="M 0 288 
L 432 288 
L 432 0 
L 0 0 
z
" style="fill:#ffffff;"/>
  </g>
  <g id="axes_1">
   <g id="patch_2">
    <path d="M 54 252 
L 388.8 252 
L 388.8 34.56 
L 54 34.56 
z
" style="fill:#ffffff;"/>
   </g>
   <g id="matplotlib.axis_1">
    <g id="xtick_1">
     <g id="line2d_1">
      <defs>
       <path d="M 0 0 
L 0 3.5 
" id="m10e6ca1f2a" style="stroke:#000000;stroke-width:0.8;"/>
      </defs>
      <g>
       <use style="stroke:#000000;stroke-width:0.8;" x="69.218182" xlink:href="#m10e6ca1f2a" y="252"/>
      </g>
     </g>
     <g id="text_1">
      <text style="font-family:DejaVu Sans;font-size:10px;font-style:normal;font-weight:normal;text-anchor:middle;" transform="rotate(-0, 69.218182, 266.598437)" x="69.218182" y="266.598437">0</text>
     </g>
    </g>
    <g id="xtick_2">
     <g id="line2d_2">
      <g>
       <use style="stroke:#000000;stroke-width:0.8;" x="119.962369" xlink:href="#m10e6ca1f2a" y="252"/>
      </g>
     </g>
     <g id="text_2">
      <text style="font-family:DejaVu Sans;font-size:10px;font-style:normal;font-weight:normal;text-anchor:middle;" transform="rotate(-0, 119.962369, 266.598437)" x="119.962369" y="266.598437">500</text>
     </g>
    </g>
    <g id="xtick_3">
     <g id="line2d_3">
      <g>
       <use style="stroke:#000000;stroke-width:0.8;" x="170.706557" xlink:href="#m10e6ca1f2a" y="252"/>
      </g>
     </g>
     <g id="text_3">
      <text style="font-family:DejaVu Sans;font-size:10px;font-style:normal;font-weight:normal;text-anchor:middle;" transform="rotate(-0, 170.706557, 266.598437)" x="170.706557" y="266.598437">1000</text>
     </g>
    </g>
    <g id="xtick_4">
     <g id="line2d_4">
      <g>
       <use style="stroke:#000000;stroke-width:0.8;" x="221.450744" xlink:href="#m10e6ca1f2a" y="252"/>
      </g>
     </g>
     <g id="text_4">
      <text style="font-family:DejaVu Sans;font-size:10px;font-style:normal;font-weight:normal;text-anchor:middle;" transform="rotate(-0, 221.450744, 266.598437)" x="221.450744" y="266.598437">1500</text>
     </g>
    </g>
    <g id="xtick_5">
     <g id="line2d_5">
      <g>
       <use style="stroke:#000000;stroke-width:0.8;" x="272.194932" xlink:href="#m10e6ca1f2a" y="252"/>
      </g>
     </g>
     <g id="text_5">
      <text style="font-family:DejaVu Sans;font-size:10px;font-style:normal;font-weight:normal;text-anchor:middle;" transform="rotate(-0, 272.194932, 266.598437)" x="272.194932" y="266.598437">2000</text>
     </g>
    </g>
    <g id="xtick_6">
     <g id="line2d_6">
      <g>
       <use style="stroke:#000000;stroke-width:0.8;" x="322.939119" xlink:href="#m10e6ca1f2a" y="252"/>
      </g>
     </g>
     <g id="text_6">
      <text style="font-family:DejaVu Sans;font-size:10px;font-style:normal;font-weight:normal;text-anchor:middle;" transform="rotate(-0, 322.939119, 266.598437)" x="322.939119" y="266.598437">2500</text>
     </g>
    </g>
    <g id="xtick_7">
     <g id="line2d_7">
      <g>
       <use style="stroke:#000000;stroke-width:0.8;" x="373.683307" xlink:href="#m10e6ca1f2a" y="252"/>
      </g>
     </g>
     <g id="text_7">
      <text style="font-family:DejaVu Sans;font-size:10px;font-style:normal;font-weight:normal;text-anchor:middle;" transform="rotate(-0, 373.683307, 266.598437)" x="373.683307" y="266.598437">3000</text>
     </g>
    </g>
    <g id="text_8">
     <text style="font-family:DejaVu Sans;font-size:10px;font-style:normal;font-weight:normal;text-anchor:middle;" transform="rotate(-0, 221.4, 280.276563)" x="221.4" y="280.276563">Time</text>
    </g>
   </g>
   <g id="matplotlib.axis_2">
    <g id="ytick_1">
     <g id="line2d_8">
      <defs>
       <path d="M 0 0 
L -3.5 0 
" id="m90a1f9dbad" style="stroke:#000000;stroke-width:0.8;"/>
      </defs>
      <g>
       <use style="stroke:#000000;stroke-width:0.8;" x="54" xlink:href="#m90a1f9dbad" y="213.239584"/>
      </g>
     </g>
     <g id="text_9">
      <text style="font-family:DejaVu Sans;font-size:10px;font-style:normal;font-weight:normal;text-anchor:end;" transform="rotate(-0, 47, 217.038803)" x="47" y="217.038803">−8</text>
     </g>
    </g>
    <g id="ytick_2">
     <g id="line2d_9">
      <g>
       <use style="stroke:#000000;stroke-width:0.8;" x="54" xlink:href="#m90a1f9dbad" y="171.478963"/>
      </g>
     </g>
     <g id="text_10">
      <text style="font-family:DejaVu Sans;font-size:10px;font-style:normal;font-weight:normal;text-anchor:end;" transform="rotate(-0, 47, 175.278182)" x="47" y="175.278182">−6</text>
     </g>
    </g>
    <g id="ytick_3">
     <g id="line2d_10">
      <g>
       <use style="stroke:#000000;stroke-width:0.8;" x="54" xlink:href="#m90a1f9dbad" y="129.718343"/>
      </g>
     </g>
     <g id="text_11">
      <text style="font-family:DejaVu Sans;font-size:10px;font-style:normal;font-weight:normal;text-anchor:end;" transform="rotate(-0, 47, 133.517562)" x="47" y="133.517562">−4</text>
     </g>
    </g>
    <g id="ytick_4">
     <g id="line2d_11">
      <g>
       <use style="stroke:#000000;stroke-width:0.8;" x="54" xlink:href="#m90a1f9dbad" y="87.957723"/>
      </g>
     </g>
     <g id="text_12">
      <text style="font-family:DejaVu Sans;font-size:10px;font-style:normal;font-weight:normal;text-anchor:end;" transform="rotate(-0, 47, 91.756941)" x="47" y="91.756941">−2</text>
     </g>
    </g>
    <g id="ytick_5">
     <g id="line2d_12">
      <g>
       <use style="stroke:#000000;stroke-width:0.8;" x="54" xlink:href="#m90a1f9dbad" y="46.197102"/>
      </g>
     </g>
     <g id="text_13">
      <text style="font-family:DejaVu Sans;font-size:10px;font-style:normal;font-weight:normal;text-anchor:end;" transform="rotate(-0, 47, 49.996321)" x="47" y="49.996321">0</text>
     </g>
    </g>
    <g id="text_14">
     <text style="font-family:DejaVu Sans;font-size:10px;font-style:normal;font-weight:normal;text-anchor:middle;" transform="rotate(-90, 26.178125, 143.28)" x="26.178125" y="143.28">temperature (°C)</text>
    </g>
   </g>
   <g id="line2d_13">
    <path clip-path="url(#pd6608bbeb2)" d="M 69.218182 47.84331 
L 71.552414 46.419422 
L 72.567298 46.030377 
L 73.379205 45.951936 
L 74.089624 46.120004 
L 74.698554 46.481632 
L 75.408973 47.188621 
L 76.119391 48.230329 
L 76.931298 49.852111 
L 77.844694 52.243635 
L 78.859577 55.591463 
L 79.97595 60.063817 
L 81.295298 66.313212 
L 82.919112 75.195802 
L 85.050368 88.199329 
L 92.154555 132.564914 
L 94.28581 143.818921 
L 95.909624 151.288622 
L 97.43195 157.267094 
L 98.852787 161.943302 
L 100.070648 165.262478 
L 101.18702 167.702509 
L 102.201904 169.429791 
L 103.216787 170.711508 
L 104.130183 171.515567 
L 105.043578 172.044695 
L 105.956974 172.297764 
L 106.870369 172.287386 
L 107.783764 172.043191 
L 108.798648 171.536572 
L 110.016509 170.651853 
L 111.843299 168.973452 
L 113.771578 166.855896 
L 121.281718 158.269035 
L 123.412974 156.305472 
L 125.442742 154.790083 
L 127.269532 153.682967 
L 129.096323 152.826937 
L 130.720137 152.328545 
L 132.343951 152.055285 
L 133.967765 152.025363 
L 135.388602 152.22667 
L 136.80944 152.657055 
L 138.433254 153.390309 
L 139.955579 154.322155 
L 141.376416 155.44443 
L 142.797254 156.887552 
L 144.522556 159.028661 
L 145.841905 160.754251 
L 147.567207 161.866086 
L 148.785068 163.217523 
L 149.596975 164.498175 
L 150.814835 166.868215 
L 151.728231 168.986481 
L 152.844603 172.256985 
L 156.498184 184.265815 
L 160.253254 198.106976 
L 163.196417 208.950643 
L 165.226184 217.400174 
L 168.473812 231.073269 
L 169.590185 234.70993 
L 170.402092 236.672199 
L 171.011022 237.684748 
L 171.518464 238.18788 
L 172.025906 238.373735 
L 172.736324 238.464711 
L 173.243766 239.57285 
L 173.64972 240.437065 
L 174.969068 240.954876 
L 175.375022 240.511315 
L 175.882464 239.726236 
L 176.288417 238.789003 
L 176.694371 237.227698 
L 177.303301 233.840933 
L 178.01372 228.537084 
L 178.927115 219.974778 
L 180.246464 205.29521 
L 183.494092 168.405799 
L 185.117906 152.871433 
L 186.640232 140.481266 
L 188.061069 130.666267 
L 189.481906 122.355695 
L 190.902743 115.347261 
L 192.323581 109.452248 
L 193.744418 104.4933 
L 195.165255 100.316737 
L 196.687581 96.537588 
L 198.209906 93.3628 
L 199.935209 90.281743 
L 201.660511 87.673792 
L 203.58879 85.162768 
L 205.618558 82.862656 
L 207.95279 80.552312 
L 210.591488 78.251511 
L 213.737628 75.838937 
L 217.188232 73.499904 
L 221.044791 71.159137 
L 226.220698 68.302022 
L 241.849908 60.067817 
L 246.518373 57.84182 
L 251.288326 55.753887 
L 257.479117 53.269742 
L 263.669908 50.995709 
L 271.07856 48.440721 
L 275.138095 47.216164 
L 278.893164 46.300487 
L 282.140792 45.72361 
L 287.215211 45.09938 
L 293.913444 44.556441 
L 298.886374 44.444277 
L 303.250374 44.581733 
L 307.309909 44.927549 
L 315.428979 45.748292 
L 318.879584 45.7809 
L 332.986468 45.674952 
L 335.929631 45.993363 
L 339.786189 46.68896 
L 342.932329 47.508977 
L 345.774003 48.499986 
L 348.920143 49.843097 
L 356.63326 53.188814 
L 359.474934 54.124331 
L 362.418097 54.87 
L 365.868702 55.47901 
L 369.623772 55.92166 
L 373.581818 56.253436 
L 373.581818 56.253436 
" style="fill:none;stroke:#40b5c4;stroke-dasharray:5.55,2.4;stroke-dashoffset:0;stroke-width:1.5;"/>
    <defs>
     <path d="M 0 3 
C 0.795609 3 1.55874 2.683901 2.12132 2.12132 
C 2.683901 1.55874 3 0.795609 3 0 
C 3 -0.795609 2.683901 -1.55874 2.12132 -2.12132 
C 1.55874 -2.683901 0.795609 -3 0 -3 
C -0.795609 -3 -1.55874 -2.683901 -2.12132 -2.12132 
C -2.683901 -1.55874 -3 -0.795609 -3 0 
C -3 0.795609 -2.683901 1.55874 -2.12132 2.12132 
C -1.55874 2.683901 -0.795609 3 0 3 
z
" id="mfe8977739d" style="stroke:#40b5c4;"/>
    </defs>
    <g clip-path="url(#pd6608bbeb2)">
     <use style="fill:#40b5c4;stroke:#40b5c4;" x="69.218182" xlink:href="#mfe8977739d" y="47.84331"/>
     <use style="fill:#40b5c4;stroke:#40b5c4;" x="77.337252" xlink:href="#mfe8977739d" y="50.841522"/>
     <use style="fill:#40b5c4;stroke:#40b5c4;" x="85.456322" xlink:href="#mfe8977739d" y="90.781576"/>
     <use style="fill:#40b5c4;stroke:#40b5c4;" x="93.575392" xlink:href="#mfe8977739d" y="140.22281"/>
     <use style="fill:#40b5c4;stroke:#40b5c4;" x="101.694462" xlink:href="#mfe8977739d" y="168.622955"/>
     <use style="fill:#40b5c4;stroke:#40b5c4;" x="109.813532" xlink:href="#mfe8977739d" y="170.818081"/>
     <use style="fill:#40b5c4;stroke:#40b5c4;" x="117.932602" xlink:href="#mfe8977739d" y="161.890287"/>
     <use style="fill:#40b5c4;stroke:#40b5c4;" x="126.051672" xlink:href="#mfe8977739d" y="154.393608"/>
     <use style="fill:#40b5c4;stroke:#40b5c4;" x="134.170742" xlink:href="#mfe8977739d" y="152.040125"/>
     <use style="fill:#40b5c4;stroke:#40b5c4;" x="142.289812" xlink:href="#mfe8977739d" y="156.335456"/>
     <use style="fill:#40b5c4;stroke:#40b5c4;" x="150.408882" xlink:href="#mfe8977739d" y="166.050166"/>
     <use style="fill:#40b5c4;stroke:#40b5c4;" x="158.527952" xlink:href="#mfe8977739d" y="191.923919"/>
     <use style="fill:#40b5c4;stroke:#40b5c4;" x="166.647022" xlink:href="#mfe8977739d" y="223.619082"/>
     <use style="fill:#40b5c4;stroke:#40b5c4;" x="174.766092" xlink:href="#mfe8977739d" y="240.958196"/>
     <use style="fill:#40b5c4;stroke:#40b5c4;" x="182.885162" xlink:href="#mfe8977739d" y="174.846916"/>
     <use style="fill:#40b5c4;stroke:#40b5c4;" x="191.004232" xlink:href="#mfe8977739d" y="114.891652"/>
     <use style="fill:#40b5c4;stroke:#40b5c4;" x="199.123302" xlink:href="#mfe8977739d" y="91.671787"/>
     <use style="fill:#40b5c4;stroke:#40b5c4;" x="207.242372" xlink:href="#mfe8977739d" y="81.22399"/>
     <use style="fill:#40b5c4;stroke:#40b5c4;" x="215.361442" xlink:href="#mfe8977739d" y="74.703862"/>
     <use style="fill:#40b5c4;stroke:#40b5c4;" x="223.480512" xlink:href="#mfe8977739d" y="69.789264"/>
     <use style="fill:#40b5c4;stroke:#40b5c4;" x="231.599582" xlink:href="#mfe8977739d" y="65.446429"/>
     <use style="fill:#40b5c4;stroke:#40b5c4;" x="239.718652" xlink:href="#mfe8977739d" y="61.154184"/>
     <use style="fill:#40b5c4;stroke:#40b5c4;" x="247.837722" xlink:href="#mfe8977739d" y="57.2452"/>
     <use style="fill:#40b5c4;stroke:#40b5c4;" x="255.956792" xlink:href="#mfe8977739d" y="53.857597"/>
     <use style="fill:#40b5c4;stroke:#40b5c4;" x="264.075862" xlink:href="#mfe8977739d" y="50.850595"/>
     <use style="fill:#40b5c4;stroke:#40b5c4;" x="272.194932" xlink:href="#mfe8977739d" y="48.08535"/>
     <use style="fill:#40b5c4;stroke:#40b5c4;" x="280.314002" xlink:href="#mfe8977739d" y="46.0214"/>
     <use style="fill:#40b5c4;stroke:#40b5c4;" x="288.433072" xlink:href="#mfe8977739d" y="44.975165"/>
     <use style="fill:#40b5c4;stroke:#40b5c4;" x="296.552142" xlink:href="#mfe8977739d" y="44.467296"/>
     <use style="fill:#40b5c4;stroke:#40b5c4;" x="304.671212" xlink:href="#mfe8977739d" y="44.676781"/>
     <use style="fill:#40b5c4;stroke:#40b5c4;" x="312.790282" xlink:href="#mfe8977739d" y="45.572066"/>
     <use style="fill:#40b5c4;stroke:#40b5c4;" x="320.909352" xlink:href="#mfe8977739d" y="45.750143"/>
     <use style="fill:#40b5c4;stroke:#40b5c4;" x="329.028422" xlink:href="#mfe8977739d" y="45.554419"/>
     <use style="fill:#40b5c4;stroke:#40b5c4;" x="337.147492" xlink:href="#mfe8977739d" y="46.182445"/>
     <use style="fill:#40b5c4;stroke:#40b5c4;" x="345.266562" xlink:href="#mfe8977739d" y="48.305968"/>
     <use style="fill:#40b5c4;stroke:#40b5c4;" x="353.385632" xlink:href="#mfe8977739d" y="51.874146"/>
     <use style="fill:#40b5c4;stroke:#40b5c4;" x="361.504702" xlink:href="#mfe8977739d" y="54.667948"/>
     <use style="fill:#40b5c4;stroke:#40b5c4;" x="369.623772" xlink:href="#mfe8977739d" y="55.92166"/>
    </g>
   </g>
   <g id="line2d_14">
    <path clip-path="url(#pd6608bbeb2)" d="M 69.218182 46.491533 
L 69.31967 46.17382 
L 69.421159 46.263317 
L 69.624135 45.925264 
L 69.725624 46.262053 
L 70.030089 45.68349 
L 70.233066 45.611482 
L 70.334554 45.726634 
L 70.436042 45.559745 
L 70.537531 45.73546 
L 70.841996 45.335293 
L 70.943484 45.611888 
L 71.146461 45.480093 
L 71.247949 44.904617 
L 71.450926 45.233463 
L 71.552414 45.02595 
L 71.653903 45.392528 
L 71.755391 45.005265 
L 71.85688 45.26575 
L 71.958368 44.74894 
L 72.161345 45.298325 
L 72.262833 44.841911 
L 72.364321 45.299639 
L 72.567298 44.510407 
L 72.668787 45.025146 
L 72.770275 44.711207 
L 72.871763 45.121908 
L 73.07474 44.649803 
L 73.277717 45.127396 
L 73.480694 44.908157 
L 73.582182 44.898601 
L 73.785159 44.778095 
L 73.886647 45.147904 
L 73.988135 44.904239 
L 74.191112 45.240042 
L 74.394089 45.127894 
L 74.495577 45.572885 
L 74.597066 45.494359 
L 74.698554 45.645916 
L 74.901531 45.266905 
L 75.003019 45.740543 
L 75.104508 45.703774 
L 75.307484 46.146911 
L 75.408973 46.149051 
L 75.510461 46.345672 
L 75.611949 46.094415 
L 75.814926 46.979757 
L 75.916415 46.861228 
L 76.017903 47.228633 
L 76.119391 46.471605 
L 76.322368 47.762578 
L 76.423856 47.824791 
L 76.728322 48.593157 
L 76.82981 48.499053 
L 76.931298 49.336819 
L 77.032787 49.304562 
L 77.134275 49.270944 
L 77.235763 49.754076 
L 77.337252 49.416025 
L 77.540229 50.325809 
L 77.743205 51.307535 
L 77.844694 51.276682 
L 77.946182 51.451917 
L 78.04767 52.280087 
L 78.149159 52.252826 
L 78.352136 52.915319 
L 78.453624 52.959947 
L 78.859577 54.881608 
L 78.961066 54.925023 
L 79.062554 55.786507 
L 79.164043 55.635661 
L 79.367019 56.934351 
L 79.468508 56.984935 
L 79.569996 57.779494 
L 79.671484 57.339969 
L 79.874461 58.720302 
L 81.498275 66.063495 
L 81.701252 67.37727 
L 81.904229 68.486014 
L 82.005717 68.326399 
L 82.310182 70.806879 
L 82.513159 71.547138 
L 82.919112 74.130466 
L 83.020601 74.178648 
L 83.325066 76.123525 
L 83.933996 80.21143 
L 84.035485 80.424462 
L 84.238461 81.726298 
L 84.33995 81.728633 
L 84.644415 84.183236 
L 86.674182 97.392873 
L 86.877159 99.217194 
L 86.978647 100.372487 
L 87.080136 100.31568 
L 87.486089 104.184625 
L 87.587578 104.459504 
L 88.09502 108.021774 
L 88.297996 109.030622 
L 89.008415 113.382741 
L 89.109903 113.787966 
L 89.31288 115.217043 
L 89.414368 115.545792 
L 89.617345 117.159787 
L 89.92181 118.459375 
L 90.226275 120.838557 
L 90.530741 122.456236 
L 90.936694 124.830529 
L 91.038182 124.784739 
L 91.342648 127.271058 
L 92.256043 132.02211 
L 92.661996 134.467348 
L 92.864973 135.260145 
L 92.966462 136.568789 
L 93.06795 136.497002 
L 93.67688 139.86965 
L 93.778369 140.207773 
L 94.184322 142.555458 
L 94.28581 142.600501 
L 96.315578 152.502746 
L 96.417066 152.214107 
L 96.721531 153.872831 
L 96.82302 154.375953 
L 96.924508 154.262489 
L 97.025997 155.615429 
L 97.127485 155.574209 
L 97.228973 156.093501 
L 97.330462 155.68159 
L 97.634927 157.452544 
L 97.939392 158.618122 
L 98.04088 158.72402 
L 98.243857 159.833902 
L 98.345345 159.878676 
L 98.446834 159.791069 
L 98.751299 161.531685 
L 98.852787 161.558697 
L 99.055764 162.31134 
L 99.157252 162.049145 
L 99.258741 163.399745 
L 99.360229 162.90183 
L 99.461718 163.408268 
L 99.563206 162.886288 
L 99.766183 164.034732 
L 100.273625 165.534381 
L 100.375113 165.546986 
L 100.57809 165.941721 
L 100.679578 165.872105 
L 100.984043 166.829762 
L 101.085532 167.262084 
L 101.18702 167.052061 
L 101.491485 167.745622 
L 101.694462 168.269065 
L 101.79595 167.870138 
L 102.201904 169.137203 
L 102.40488 169.190321 
L 102.607857 170.140192 
L 102.709346 169.76501 
L 102.810834 169.937895 
L 102.912322 169.691721 
L 103.216787 170.591311 
L 103.318276 170.486091 
L 103.419764 170.606126 
L 103.521253 170.484796 
L 103.622741 171.311077 
L 103.724229 170.853526 
L 103.825718 170.878775 
L 104.028694 170.760054 
L 104.33316 171.527462 
L 104.434648 171.280321 
L 104.536136 171.396434 
L 104.637625 171.251945 
L 104.739113 171.874536 
L 104.840601 171.1798 
L 104.94209 171.627803 
L 105.043578 171.21195 
L 105.145067 171.981807 
L 105.449532 171.249356 
L 105.55102 171.382276 
L 105.652508 171.816101 
L 105.753997 171.636027 
L 105.855485 171.812596 
L 106.15995 171.593573 
L 106.261439 171.831942 
L 106.362927 171.552213 
L 106.464415 171.705952 
L 106.565904 170.980093 
L 106.667392 171.69963 
L 106.768881 171.477201 
L 106.971857 171.773955 
L 107.174834 171.37216 
L 107.377811 171.590755 
L 107.682276 170.872572 
L 107.783764 171.255838 
L 107.885253 171.172671 
L 107.986741 171.376033 
L 108.291206 170.679068 
L 108.392695 171.355015 
L 108.69716 170.272474 
L 108.798648 170.610806 
L 109.001625 170.596747 
L 109.103113 170.294936 
L 109.204602 170.448057 
L 109.30609 170.180943 
L 109.407578 170.696631 
L 109.509067 170.105921 
L 109.610555 170.186041 
L 109.813532 169.511169 
L 109.91502 169.876633 
L 110.016509 169.526084 
L 110.117997 169.885912 
L 110.219485 169.459395 
L 110.320974 169.580267 
L 110.422462 169.136267 
L 110.52395 169.698242 
L 110.828416 168.537234 
L 110.929904 168.709451 
L 111.031392 168.5334 
L 111.234369 168.768006 
L 111.335857 168.341479 
L 111.437346 168.458926 
L 111.741811 168.198244 
L 111.944788 167.239542 
L 112.249253 167.762966 
L 112.553718 166.80513 
L 112.655206 167.34074 
L 112.959671 166.12293 
L 113.06116 166.417214 
L 113.162648 166.123487 
L 113.264137 166.254186 
L 113.365625 166.176516 
L 113.467113 165.864011 
L 113.568602 165.994242 
L 113.67009 165.157905 
L 113.771578 165.727298 
L 113.873067 165.248539 
L 113.974555 165.365518 
L 114.27902 164.813589 
L 114.380509 165.044501 
L 114.684974 163.858382 
L 114.786462 164.146264 
L 114.989439 163.94351 
L 115.192416 163.890014 
L 115.293904 163.298129 
L 115.395392 163.774379 
L 115.699858 162.531627 
L 115.801346 162.774058 
L 115.902834 162.576243 
L 116.004323 162.88139 
L 116.207299 162.545228 
L 116.410276 162.123321 
L 116.511765 162.272529 
L 116.714741 161.535867 
L 116.81623 161.36807 
L 116.917718 161.562889 
L 117.019206 161.198172 
L 117.120695 161.485348 
L 117.42516 160.707267 
L 117.526648 161.003503 
L 117.729625 160.639901 
L 117.831113 159.690687 
L 117.932602 160.378782 
L 118.03409 160.094852 
L 118.135579 160.284155 
L 118.440044 159.514636 
L 118.541532 159.93049 
L 118.744509 159.394859 
L 118.845997 158.737511 
L 118.947486 159.305639 
L 119.353439 158.339529 
L 119.454927 158.493118 
L 119.556416 158.371589 
L 119.657904 158.595989 
L 119.860881 158.184526 
L 119.962369 158.121223 
L 120.063858 158.269774 
L 120.368323 157.112808 
L 120.469811 157.660774 
L 120.5713 157.230295 
L 120.672788 157.606113 
L 120.774276 157.313063 
L 120.875765 157.392307 
L 120.977253 156.795813 
L 121.078741 157.504109 
L 121.383207 156.32485 
L 121.484695 156.68193 
L 121.586183 156.500184 
L 121.687672 156.740913 
L 121.78916 156.349124 
L 121.890648 156.474815 
L 121.992137 155.938478 
L 122.093625 156.810668 
L 122.296602 155.99979 
L 122.39809 155.531794 
L 122.601067 155.888138 
L 122.702555 155.518482 
L 122.804044 155.797832 
L 123.007021 155.027109 
L 123.108509 155.849088 
L 123.209997 155.139587 
L 123.311486 155.302396 
L 123.412974 154.598212 
L 123.514462 154.631955 
L 123.717439 155.04962 
L 123.818928 154.588266 
L 123.920416 154.838901 
L 124.021904 154.109069 
L 124.123393 154.859292 
L 124.529346 153.781122 
L 124.630835 154.196497 
L 124.732323 153.89375 
L 124.833811 154.203487 
L 125.036788 153.545909 
L 125.138276 154.101442 
L 125.442742 153.104388 
L 125.54423 153.23209 
L 125.645718 153.582878 
L 125.950183 153.244924 
L 126.051672 153.114952 
L 126.15316 153.405144 
L 126.457625 152.870002 
L 126.559114 152.448184 
L 126.660602 153.044041 
L 126.863579 152.582816 
L 126.965067 152.77429 
L 127.066556 152.483908 
L 127.168044 152.804826 
L 127.472509 152.241985 
L 127.573997 151.913101 
L 127.675486 152.376647 
L 127.878463 152.260703 
L 127.979951 152.301326 
L 128.081439 151.944464 
L 128.182928 152.44002 
L 128.487393 151.591626 
L 128.69037 151.802544 
L 128.791858 151.86774 
L 128.893346 151.698758 
L 128.994835 151.918717 
L 129.096323 151.542431 
L 129.2993 151.741571 
L 129.400788 151.519939 
L 129.502277 150.833776 
L 129.603765 151.36624 
L 129.705253 151.115257 
L 129.806742 151.314038 
L 130.111207 151.202764 
L 130.314184 151.195058 
L 130.51716 150.673855 
L 130.618649 150.939783 
L 130.720137 150.76183 
L 131.024602 150.805261 
L 131.126091 150.656431 
L 131.227579 151.082669 
L 131.430556 150.635582 
L 131.532044 150.05232 
L 131.633532 150.609775 
L 131.735021 150.52168 
L 131.937998 150.691358 
L 132.039486 150.626701 
L 132.140974 150.359269 
L 132.242463 151.015164 
L 132.343951 150.477114 
L 132.445439 150.573583 
L 132.546928 149.807897 
L 132.648416 150.689646 
L 132.749905 150.117057 
L 132.851393 150.898732 
L 132.952881 150.376155 
L 133.05437 150.746328 
L 133.155858 150.139927 
L 133.257346 151.160847 
L 133.358835 150.311358 
L 133.460323 150.509911 
L 133.561812 150.004937 
L 133.6633 150.660453 
L 133.764788 150.044185 
L 133.866277 150.866752 
L 134.170742 150.663858 
L 134.27223 150.698905 
L 134.373719 150.488445 
L 134.475207 150.575574 
L 134.576695 150.299858 
L 134.779672 150.784033 
L 134.982649 150.803867 
L 135.084137 151.23113 
L 135.185626 150.24218 
L 135.287114 151.208499 
L 135.388602 150.580045 
L 135.490091 151.362915 
L 135.693067 151.097992 
L 135.794556 150.988361 
L 135.896044 151.541345 
L 135.997533 151.097295 
L 136.200509 151.194859 
L 136.403486 151.309339 
L 136.504974 151.769549 
L 136.606463 151.486704 
L 136.80944 151.645988 
L 136.910928 152.255327 
L 137.113905 151.592582 
L 137.519858 152.277788 
L 137.722835 152.33924 
L 137.824323 152.805702 
L 137.925812 152.569325 
L 138.0273 152.682162 
L 138.128788 152.380231 
L 138.433254 153.165451 
L 138.534742 153.265116 
L 138.63623 153.12226 
L 138.737719 152.371619 
L 138.839207 153.721392 
L 138.940695 152.566139 
L 139.042184 152.798952 
L 139.143672 152.025451 
L 139.448137 152.777665 
L 139.549626 152.439731 
L 139.651114 152.570928 
L 139.752602 152.925459 
L 139.955579 152.569574 
L 140.158556 152.586201 
L 140.260044 152.732741 
L 140.361533 153.11525 
L 140.665998 152.986234 
L 140.767486 153.447021 
L 140.868975 153.372755 
L 140.970463 153.450346 
L 141.071951 152.704405 
L 141.274928 153.507975 
L 141.477905 153.846844 
L 141.680882 153.677753 
L 141.78237 154.813313 
L 141.985347 154.39718 
L 142.086835 154.345277 
L 142.3913 155.631678 
L 142.594277 155.571341 
L 142.695765 156.584775 
L 143.00023 156.368569 
L 143.406184 157.872071 
L 143.609161 158.031575 
L 143.812137 158.925808 
L 143.913626 159.087183 
L 144.015114 158.692079 
L 144.116603 159.485484 
L 144.218091 159.045267 
L 144.319579 159.438021 
L 144.522556 159.100207 
L 145.029998 157.964806 
L 145.131486 158.496902 
L 145.232975 157.800623 
L 145.435951 158.266986 
L 145.53744 157.786734 
L 145.638928 158.773932 
L 145.841905 157.962218 
L 146.14637 158.100862 
L 146.349347 157.926653 
L 146.552324 158.474838 
L 146.7553 158.211927 
L 146.856789 157.743483 
L 146.958277 158.369459 
L 147.059765 158.327144 
L 147.161254 158.715865 
L 147.262742 157.929998 
L 147.364231 158.540979 
L 147.465719 158.112501 
L 147.567207 159.071353 
L 147.668696 158.585585 
L 147.770184 158.946757 
L 147.871672 158.113118 
L 147.973161 159.064174 
L 148.074649 159.051808 
L 148.176138 159.019808 
L 148.277626 158.672634 
L 148.480603 159.573778 
L 148.582091 159.431141 
L 148.683579 159.576546 
L 148.988044 160.519109 
L 149.191021 160.415133 
L 149.495486 161.152293 
L 149.596975 160.990828 
L 149.799951 161.518702 
L 149.90144 161.722253 
L 150.104417 162.477165 
L 150.205905 162.525106 
L 150.307393 162.041379 
L 150.408882 162.732958 
L 150.51037 162.630973 
L 150.814835 163.688783 
L 150.916324 163.79934 
L 151.220789 164.912179 
L 151.322277 164.511608 
L 151.626742 165.834052 
L 151.728231 166.02437 
L 152.032696 167.212431 
L 152.235672 168.068531 
L 152.337161 167.753467 
L 152.438649 167.829714 
L 152.844603 169.65283 
L 152.946091 169.732204 
L 153.149068 171.090192 
L 153.250556 171.018126 
L 153.352045 170.727795 
L 153.555021 171.849256 
L 153.757998 172.635342 
L 153.859486 172.987763 
L 153.960975 172.879376 
L 154.163952 174.163736 
L 154.26544 174.344138 
L 154.366928 173.816483 
L 154.671393 175.738029 
L 154.975859 176.569756 
L 155.077347 177.484022 
L 155.178835 177.421535 
L 155.280324 177.432587 
L 155.381812 177.599119 
L 155.686277 179.612544 
L 155.787766 179.430589 
L 156.193719 181.351936 
L 156.396696 181.424031 
L 156.701161 183.460018 
L 156.802649 183.224327 
L 157.005626 184.726545 
L 157.107114 184.470852 
L 157.208603 184.806426 
L 157.513068 186.919466 
L 157.614556 186.162741 
L 157.716045 186.236181 
L 157.817533 187.800338 
L 158.02051 187.306207 
L 158.121998 185.916188 
L 158.324975 187.803564 
L 158.527952 188.987433 
L 158.62944 188.194138 
L 158.730928 189.452103 
L 158.933905 188.193998 
L 159.23837 190.292392 
L 159.542835 191.459295 
L 159.644324 192.822898 
L 159.745812 192.577451 
L 159.847301 193.626588 
L 159.948789 193.10174 
L 160.151766 194.739208 
L 160.456231 196.586737 
L 160.557719 196.722156 
L 160.659208 198.111756 
L 160.760696 198.014839 
L 161.166649 199.852332 
L 161.268138 201.165795 
L 161.369626 201.010015 
L 161.471115 201.826947 
L 161.572603 201.614515 
L 161.674091 203.448842 
L 161.77558 203.242264 
L 161.877068 203.960457 
L 161.978556 203.613821 
L 162.283022 205.863713 
L 162.587487 207.186455 
L 162.891952 208.623777 
L 162.99344 208.076696 
L 163.196417 209.720536 
L 163.500882 211.360701 
L 163.60237 211.176994 
L 163.805347 212.834424 
L 163.906836 212.756803 
L 164.008324 212.390503 
L 164.211301 213.937814 
L 164.414277 215.086357 
L 164.617254 215.432047 
L 164.718743 216.880838 
L 164.820231 216.771735 
L 164.921719 216.951888 
L 165.023208 216.608806 
L 165.226184 218.19665 
L 165.632138 219.653327 
L 165.835115 220.567275 
L 165.936603 220.90261 
L 166.038091 220.590553 
L 166.444045 222.893772 
L 166.545533 223.146548 
L 166.647022 223.038799 
L 166.74851 224.329142 
L 166.849998 223.993528 
L 166.951487 224.612226 
L 167.052975 224.077282 
L 167.35744 225.925429 
L 167.458929 226.321041 
L 167.560417 226.26863 
L 167.763394 226.879123 
L 167.864882 227.683888 
L 167.966371 227.664712 
L 168.067859 227.177978 
L 168.372324 229.200125 
L 168.473812 228.954776 
L 168.575301 229.712785 
L 168.676789 229.381234 
L 168.778278 230.36187 
L 168.879766 230.281003 
L 169.082743 230.040175 
L 169.285719 231.226971 
L 169.590185 232.200518 
L 169.691673 231.735271 
L 169.793161 233.101941 
L 169.89465 233.024419 
L 169.996138 233.004427 
L 170.097626 232.208006 
L 170.300603 233.674141 
L 170.50358 234.559076 
L 170.605068 234.193712 
L 170.706557 234.359726 
L 170.909533 235.104194 
L 171.011022 235.399723 
L 171.11251 234.934217 
L 171.315487 235.862482 
L 171.619952 236.705121 
L 171.72144 236.441612 
L 171.822929 237.281683 
L 171.924417 237.217304 
L 172.025906 237.469582 
L 172.127394 236.567721 
L 172.330371 237.756568 
L 172.431859 238.358359 
L 172.533347 237.941281 
L 172.736324 238.649468 
L 172.939301 238.837287 
L 173.040789 239.406242 
L 173.142278 238.234958 
L 173.345254 239.346384 
L 173.446743 239.922248 
L 173.548231 239.761411 
L 173.64972 239.996085 
L 173.751208 239.837279 
L 173.852696 240.818075 
L 174.157161 240.213257 
L 174.563115 241.290631 
L 174.664603 241.260881 
L 174.969068 241.846702 
L 175.172045 241.099944 
L 175.273534 242.116364 
L 175.375022 241.675748 
L 175.47651 241.859784 
L 175.780975 239.944332 
L 175.882464 239.956319 
L 176.491394 236.386553 
L 176.897348 233.913993 
L 177.607766 228.655145 
L 177.709255 228.661816 
L 177.912231 226.985021 
L 178.419673 223.37053 
L 178.927115 220.01901 
L 179.333069 213.557933 
L 179.941999 206.42526 
L 180.449441 199.640269 
L 182.885162 172.619989 
L 183.59558 166.156742 
L 183.798557 163.970781 
L 184.204511 159.939381 
L 184.305999 159.817553 
L 184.610464 156.22184 
L 184.813441 155.109081 
L 185.117906 152.495239 
L 185.320883 150.347859 
L 185.523859 148.931575 
L 186.234278 143.420101 
L 186.437255 141.556113 
L 186.538743 141.329264 
L 187.452139 134.74633 
L 187.95958 131.290884 
L 188.162557 129.92274 
L 188.365534 128.605574 
L 189.177441 123.811466 
L 189.278929 123.676759 
L 189.481906 122.011757 
L 189.583394 122.011289 
L 189.786371 119.912129 
L 189.88786 120.135931 
L 190.192325 118.318455 
L 190.49679 117.268985 
L 190.699767 116.01907 
L 191.410185 112.810246 
L 191.511674 111.887885 
L 191.613162 112.025748 
L 191.917627 110.560758 
L 192.019115 109.894319 
L 192.120604 110.448812 
L 192.425069 108.416305 
L 193.135488 105.893122 
L 193.236976 104.936884 
L 193.338464 104.997549 
L 193.642929 103.841798 
L 193.845906 103.269985 
L 194.048883 102.046246 
L 194.25186 101.425727 
L 194.353348 101.575258 
L 194.556325 100.273574 
L 194.657813 100.629131 
L 194.962278 98.994074 
L 195.063767 99.103595 
L 195.165255 99.036209 
L 195.46972 98.159141 
L 195.571209 98.148074 
L 195.672697 97.913927 
L 195.774185 96.937846 
L 195.875674 97.28489 
L 195.977162 97.195017 
L 196.281627 96.192626 
L 196.383116 96.628905 
L 196.586092 95.55173 
L 196.687581 95.501301 
L 196.789069 95.152932 
L 196.890557 95.309862 
L 197.093534 94.650537 
L 197.195023 94.744088 
L 197.499488 93.604676 
L 197.600976 93.7171 
L 198.209906 92.62726 
L 198.311395 91.947285 
L 198.412883 92.170884 
L 198.717348 91.660095 
L 198.920325 91.21373 
L 199.021813 90.909887 
L 199.123302 91.104855 
L 199.427767 90.089287 
L 199.529255 90.184839 
L 199.83372 89.668286 
L 199.935209 89.649179 
L 200.442651 88.695505 
L 200.950092 87.904958 
L 201.051581 87.268409 
L 201.254558 87.50956 
L 201.457534 87.044547 
L 201.559023 87.167295 
L 201.660511 86.719661 
L 201.761999 86.778061 
L 201.863488 85.961075 
L 201.964976 86.308288 
L 202.37093 85.641899 
L 202.472418 85.925425 
L 202.675395 85.04863 
L 202.776883 85.125027 
L 202.878372 84.903176 
L 202.97986 85.107742 
L 203.182837 84.380678 
L 203.284325 84.780128 
L 203.690279 83.894153 
L 203.791767 84.015374 
L 203.994744 83.465117 
L 204.096232 83.89159 
L 204.299209 83.017966 
L 204.400697 82.892947 
L 204.502186 83.012146 
L 204.806651 82.552813 
L 204.908139 82.768037 
L 205.212604 81.952291 
L 205.314093 81.895106 
L 205.415581 82.106691 
L 205.720046 81.655159 
L 205.821534 81.741163 
L 206.024511 81.047324 
L 206.227488 81.197349 
L 206.73493 80.611582 
L 206.836418 80.053933 
L 206.937907 80.436412 
L 207.546837 79.939175 
L 207.648325 79.280333 
L 207.749814 79.667247 
L 208.155767 79.254007 
L 208.257255 78.767134 
L 208.460232 79.203702 
L 208.561721 78.833669 
L 208.663209 78.915362 
L 208.764697 78.722574 
L 208.866186 78.928853 
L 208.967674 78.676391 
L 209.069162 78.085109 
L 209.170651 78.479605 
L 209.475116 78.27814 
L 209.576604 78.25312 
L 209.881069 77.50779 
L 209.982558 77.780021 
L 210.287023 77.517677 
L 210.388511 77.733579 
L 210.692976 76.729231 
L 210.794465 77.230875 
L 210.895953 77.20448 
L 211.09893 76.960008 
L 211.200418 77.078033 
L 211.504883 76.27277 
L 211.70786 76.613656 
L 211.910837 76.463507 
L 212.012325 76.442802 
L 212.31679 75.63748 
L 212.418279 76.071579 
L 212.824232 75.827565 
L 213.027209 75.696234 
L 213.128697 75.142408 
L 213.331674 75.463854 
L 213.839116 75.139998 
L 213.940604 74.583126 
L 214.143581 75.019609 
L 214.346558 74.535459 
L 214.448046 74.915902 
L 214.752511 74.217443 
L 214.955488 74.453343 
L 215.158465 74.213839 
L 215.259953 74.346305 
L 215.564418 73.703045 
L 215.767395 74.008058 
L 215.970372 73.656952 
L 216.07186 73.866452 
L 216.274837 73.301694 
L 216.376325 73.377731 
L 216.477814 73.235612 
L 216.579302 73.555614 
L 216.680791 73.200794 
L 216.782279 73.312452 
L 216.985256 73.217949 
L 217.086744 72.522612 
L 217.289721 73.008166 
L 217.492698 72.631426 
L 217.594186 72.933995 
L 217.797163 72.455958 
L 218.000139 72.252307 
L 218.101628 72.415076 
L 218.304605 72.19337 
L 218.406093 72.330282 
L 218.710558 71.816382 
L 218.913535 71.95186 
L 219.015023 71.864014 
L 219.116512 71.602401 
L 219.218 71.886844 
L 219.420977 71.280956 
L 219.522465 71.377987 
L 219.623953 71.34869 
L 219.725442 71.467282 
L 219.928419 71.113437 
L 220.131395 71.31776 
L 220.232884 70.535079 
L 220.43586 71.015455 
L 220.537349 70.808549 
L 220.638837 70.86433 
L 220.740326 70.688553 
L 220.841814 70.826939 
L 220.943302 70.636994 
L 221.044791 70.130446 
L 221.247767 70.545414 
L 221.450744 70.17986 
L 221.552233 70.473025 
L 221.653721 70.023279 
L 221.755209 70.072942 
L 221.856698 69.751596 
L 221.958186 69.967652 
L 222.36414 69.82172 
L 222.567116 69.119079 
L 222.770093 69.534733 
L 222.97307 69.219769 
L 223.074558 69.351698 
L 223.176047 69.238283 
L 223.379023 68.771234 
L 223.582 69.024408 
L 223.784977 68.780005 
L 223.886465 68.829071 
L 223.987954 68.739094 
L 224.089442 68.124295 
L 224.19093 68.478771 
L 224.292419 68.269779 
L 224.393907 68.572975 
L 224.596884 68.261341 
L 224.799861 68.194812 
L 224.901349 67.559198 
L 225.002837 68.034258 
L 225.205814 67.802226 
L 225.408791 67.77399 
L 225.713256 67.247405 
L 225.814744 67.350345 
L 225.916233 67.406306 
L 226.119209 67.16049 
L 226.220698 67.30583 
L 226.423675 66.629667 
L 226.626651 66.98392 
L 226.829628 66.692229 
L 227.032605 66.61654 
L 227.235582 66.079804 
L 227.438558 66.395774 
L 227.641535 65.897157 
L 227.743023 66.383109 
L 227.946 65.406485 
L 228.148977 65.878016 
L 228.351954 65.538837 
L 228.757907 65.200256 
L 228.960884 65.383187 
L 229.163861 65.243213 
L 229.265349 65.37 
L 229.468326 64.983005 
L 229.671303 65.169247 
L 229.874279 65.203024 
L 229.975768 65.088275 
L 230.077256 65.144928 
L 230.178744 64.841349 
L 230.48321 64.949297 
L 230.686186 64.899166 
L 230.787675 65.135872 
L 230.990651 64.559072 
L 231.193628 64.808821 
L 231.599582 64.71853 
L 231.70107 64.461155 
L 231.802558 64.629375 
L 231.904047 64.57098 
L 232.005535 64.642184 
L 232.512977 64.235575 
L 232.715954 64.419278 
L 232.817442 64.41865 
L 232.918931 64.231488 
L 233.020419 64.453259 
L 233.223396 64.012505 
L 233.324884 64.160443 
L 233.832326 64.227899 
L 233.933814 63.818582 
L 234.238279 64.019987 
L 234.441256 63.832979 
L 234.542745 63.93108 
L 234.745721 63.701468 
L 234.84721 63.651014 
L 234.948698 63.775022 
L 235.151675 63.494418 
L 235.253163 63.847331 
L 235.45614 63.184392 
L 235.557628 63.467943 
L 235.760605 63.518866 
L 235.862093 63.387559 
L 235.963582 63.513773 
L 236.166559 63.105168 
L 236.471024 63.229251 
L 236.674 63.116225 
L 236.775489 63.27759 
L 236.978466 62.816887 
L 237.181442 62.982056 
L 237.688884 62.76236 
L 237.790373 62.922108 
L 237.993349 62.366983 
L 238.094838 62.571081 
L 238.399303 62.371548 
L 238.500791 62.524146 
L 238.805256 62.163611 
L 238.906745 62.170974 
L 239.008233 62.297382 
L 239.21121 62.139113 
L 239.312698 62.151434 
L 239.515675 61.829928 
L 239.718652 62.055339 
L 239.921628 61.871477 
L 240.023117 61.721238 
L 240.124605 61.782635 
L 240.226094 61.413936 
L 240.42907 61.656143 
L 240.530559 61.472973 
L 240.733535 61.656133 
L 240.936512 61.101162 
L 241.139489 61.245815 
L 241.240977 61.289041 
L 241.342466 61.038376 
L 241.443954 61.336688 
L 241.646931 60.993323 
L 242.255861 60.786676 
L 242.357349 60.489623 
L 242.560326 60.666496 
L 242.864791 60.523938 
L 243.270745 60.179383 
L 243.372233 60.317515 
L 243.473722 60.159455 
L 243.676698 60.203423 
L 243.879675 59.850918 
L 244.082652 60.00037 
L 244.285629 59.746469 
L 244.387117 59.850012 
L 244.691582 59.55854 
L 244.79307 59.712458 
L 244.996047 59.513084 
L 245.097536 59.547972 
L 245.300512 59.134269 
L 245.604977 59.292428 
L 245.807954 59.181647 
L 246.010931 58.820858 
L 246.213908 59.006651 
L 246.315396 58.758734 
L 246.416884 58.988142 
L 246.822838 58.548517 
L 246.924326 58.615579 
L 247.025815 58.478712 
L 247.127303 58.678081 
L 247.33028 58.395814 
L 247.533257 58.41391 
L 247.736233 58.063307 
L 247.93921 58.197565 
L 248.040698 58.041617 
L 248.142187 58.123962 
L 248.243675 58.042348 
L 248.345164 57.77082 
L 248.649629 57.897526 
L 249.055582 57.445371 
L 249.157071 57.55557 
L 249.258559 57.389226 
L 249.360047 57.463248 
L 249.461536 57.319984 
L 249.563024 57.520478 
L 249.766001 57.133026 
L 249.867489 57.236673 
L 249.968978 57.008709 
L 250.171954 57.060637 
L 250.374931 56.937236 
L 250.476419 56.704413 
L 250.679396 56.874385 
L 250.882373 56.663925 
L 250.983861 56.792155 
L 251.186838 56.289879 
L 251.389815 56.392326 
L 251.491303 56.523125 
L 251.592792 56.255051 
L 251.69428 56.416675 
L 251.897257 55.902939 
L 252.100233 56.074494 
L 252.506187 55.921518 
L 252.607675 55.606081 
L 252.810652 55.737014 
L 253.115117 55.686002 
L 253.318094 55.245675 
L 253.419582 55.417699 
L 253.622559 55.380093 
L 253.724047 55.108873 
L 253.825536 55.36004 
L 254.028513 54.843537 
L 254.130001 54.938751 
L 254.535954 55.024506 
L 254.738931 54.367481 
L 254.941908 54.67677 
L 255.144885 54.557521 
L 255.246373 54.17773 
L 255.44935 54.464014 
L 255.550838 54.280441 
L 255.652327 54.335556 
L 255.753815 54.259747 
L 255.855303 53.76217 
L 256.05828 54.073943 
L 256.261257 53.789979 
L 256.362745 54.050775 
L 256.464234 53.89053 
L 256.565722 53.469399 
L 256.768699 53.650264 
L 257.073164 53.475298 
L 257.174652 53.383758 
L 257.276141 53.067121 
L 257.377629 53.402541 
L 258.088048 52.824028 
L 258.291024 52.953841 
L 258.595489 52.452994 
L 258.696978 52.486209 
L 258.798466 52.649177 
L 259.001443 52.334064 
L 259.102931 52.437009 
L 259.305908 52.026432 
L 259.407396 52.230182 
L 259.914838 52.029648 
L 260.016327 51.489398 
L 260.219303 51.729484 
L 260.320792 51.806767 
L 260.726745 51.204418 
L 260.929722 51.337298 
L 261.03121 51.21893 
L 261.234187 51.276399 
L 261.437164 51.124602 
L 261.640141 51.084671 
L 261.741629 50.982184 
L 261.843117 51.194168 
L 262.046094 50.8011 
L 262.249071 51.056215 
L 262.452048 50.938714 
L 262.858001 50.635379 
L 263.060978 50.73006 
L 263.162466 50.666334 
L 263.263955 50.777294 
L 263.466931 50.419815 
L 263.669908 50.556329 
L 264.075862 50.235924 
L 264.17735 50.515273 
L 264.278838 50.246741 
L 264.380327 50.42563 
L 264.481815 50.189332 
L 264.583304 50.261079 
L 264.684792 50.162798 
L 264.78628 50.3214 
L 264.989257 50.00663 
L 265.192234 50.177449 
L 265.395211 49.98263 
L 265.598187 49.996933 
L 265.801164 49.776481 
L 266.004141 49.85443 
L 266.207118 49.834492 
L 266.410094 49.613378 
L 266.714559 49.620422 
L 267.019025 49.431045 
L 267.120513 49.623638 
L 267.222001 49.516287 
L 267.32349 49.18133 
L 267.526466 49.359452 
L 267.830932 49.204539 
L 267.93242 49.280945 
L 268.033908 49.014499 
L 268.236885 49.154079 
L 268.338373 48.982106 
L 268.439862 49.09324 
L 268.642839 48.852596 
L 268.744327 49.050596 
L 268.947304 48.906028 
L 269.048792 48.835262 
L 269.251769 48.890277 
L 269.454746 48.703015 
L 269.556234 48.833455 
L 270.063676 48.628286 
L 271.180048 48.450045 
L 271.281536 48.256665 
L 271.586001 48.379732 
L 271.68749 48.254768 
L 271.788978 48.359438 
L 271.991955 48.121759 
L 272.29642 48.229556 
L 272.600885 47.987647 
L 272.803862 48.043877 
L 274.123211 47.770414 
L 274.224699 47.811686 
L 274.326188 47.685111 
L 274.529164 47.702294 
L 274.630653 47.520998 
L 274.833629 47.648342 
L 275.645536 47.373226 
L 275.747025 47.547117 
L 275.950002 47.301577 
L 276.152978 47.472849 
L 276.254467 47.300116 
L 276.355955 47.363195 
L 276.558932 47.211336 
L 276.761909 47.241004 
L 276.964885 47.238072 
L 277.776792 47.081538 
L 277.878281 46.881835 
L 278.081257 47.028383 
L 278.284234 46.938582 
L 278.690188 46.898936 
L 278.893164 46.797755 
L 278.994653 46.87623 
L 279.19763 46.697724 
L 279.299118 46.675255 
L 279.400606 46.830216 
L 279.80656 46.55628 
L 280.009537 46.65353 
L 280.212513 46.569898 
L 280.314002 46.658496 
L 280.516978 46.503217 
L 280.719955 46.535506 
L 280.821444 46.416237 
L 280.922932 46.553499 
L 281.125909 46.328403 
L 281.328885 46.490992 
L 281.531862 46.390053 
L 282.546746 46.200352 
L 283.663118 46.052418 
L 284.069072 45.878622 
L 284.272048 46.006745 
L 284.678002 45.762007 
L 284.77949 45.933169 
L 284.982467 45.828559 
L 285.185444 45.923043 
L 285.38842 45.747622 
L 285.591397 45.776392 
L 286.301816 45.684505 
L 286.504793 45.656304 
L 286.707769 45.576552 
L 286.910746 45.653127 
L 287.92563 45.436135 
L 288.027118 45.556009 
L 288.331583 45.440561 
L 288.53456 45.407369 
L 288.940514 45.515178 
L 289.244979 45.257884 
L 289.346467 45.395734 
L 289.447955 45.299067 
L 289.650932 45.314069 
L 289.752421 45.194384 
L 289.955397 45.35385 
L 290.158374 45.298437 
L 290.259862 45.284996 
L 290.361351 45.146722 
L 290.665816 45.199803 
L 290.868793 45.284976 
L 290.970281 45.120693 
L 291.173258 45.200241 
L 291.376235 45.194344 
L 292.594095 45.03731 
L 292.797072 45.091429 
L 292.89856 44.993004 
L 293.101537 45.062858 
L 293.203025 45.020715 
L 293.304514 45.138991 
L 293.50749 44.909165 
L 293.710467 45.110393 
L 293.811956 45.004546 
L 293.913444 45.068409 
L 294.217909 44.956767 
L 294.319397 45.044986 
L 294.522374 44.976423 
L 294.928328 45.008473 
L 295.131304 44.989758 
L 295.435769 44.912844 
L 295.638746 44.992633 
L 296.0447 44.886409 
L 296.146188 44.967774 
L 296.349165 44.933133 
L 296.755118 44.949334 
L 296.856607 44.776621 
L 297.059583 44.958848 
L 297.161072 44.867788 
L 297.364049 44.928162 
L 297.465537 44.850957 
L 297.770002 44.931686 
L 297.972979 44.921623 
L 298.074467 44.814302 
L 298.480421 45.031072 
L 298.683397 44.836462 
L 298.987863 44.957852 
L 300.205723 44.93027 
L 300.4087 44.953862 
L 300.510188 44.846981 
L 300.916142 44.981954 
L 301.01763 44.94795 
L 301.119118 44.788243 
L 301.322095 44.948538 
L 301.829537 44.873157 
L 302.134002 44.975052 
L 302.235491 44.958514 
L 302.336979 44.804363 
L 302.539956 44.944095 
L 302.641444 44.901817 
L 302.742932 44.985424 
L 302.945909 44.832684 
L 303.148886 44.918795 
L 303.250374 44.885665 
L 303.351863 44.987241 
L 303.554839 44.8781 
L 303.757816 44.905954 
L 303.859305 44.867146 
L 303.960793 44.994644 
L 304.16377 44.874235 
L 304.569723 44.926273 
L 304.7727 44.855151 
L 304.975677 44.95496 
L 305.38163 44.914402 
L 305.787584 44.965125 
L 305.889072 44.875766 
L 306.193537 44.954253 
L 306.396514 44.962472 
L 306.498002 44.850942 
L 306.700979 44.999388 
L 307.106933 44.875253 
L 307.309909 45.031067 
L 307.512886 45.003682 
L 308.020328 44.949402 
L 308.121816 45.045865 
L 308.324793 44.943186 
L 308.730747 44.992926 
L 308.832235 44.894748 
L 309.1367 45.013469 
L 313.297723 44.966736 
L 313.399212 45.066724 
L 313.602189 44.954895 
L 313.805165 45.013808 
L 314.211119 44.983898 
L 314.312607 45.052484 
L 314.515584 44.99943 
L 314.921537 45.047411 
L 315.023026 44.951492 
L 315.124514 45.149244 
L 315.327491 44.90445 
L 315.428979 45.026298 
L 315.631956 45.272308 
L 315.834933 44.926815 
L 316.139398 45.160096 
L 316.443863 44.935442 
L 316.545351 45.250327 
L 316.748328 45.20442 
L 316.849817 45.274447 
L 316.951305 45.077153 
L 317.458747 45.341775 
L 317.560235 45.0739 
L 317.661724 45.292577 
L 317.763212 45.184614 
L 317.966189 45.40237 
L 318.169165 45.123167 
L 318.372142 45.487068 
L 318.473631 45.24055 
L 318.575119 45.486816 
L 318.778096 45.221941 
L 318.981072 45.371587 
L 319.285538 45.289192 
L 319.488514 45.417432 
L 319.590003 45.327602 
L 319.691491 45.533503 
L 319.995956 45.306345 
L 320.097445 45.52777 
L 320.198933 45.425206 
L 320.300421 45.643074 
L 320.40191 45.359129 
L 320.503398 45.397676 
L 320.807863 45.5382 
L 320.909352 45.533692 
L 321.01084 45.317041 
L 321.213817 45.685678 
L 321.416793 45.387572 
L 321.61977 45.653907 
L 321.721259 45.550523 
L 321.822747 45.633886 
L 321.924235 45.44872 
L 322.127212 45.578242 
L 322.431677 45.741305 
L 322.533166 45.419085 
L 322.736142 45.712797 
L 322.837631 45.606407 
L 322.939119 45.815284 
L 323.040607 45.478266 
L 323.345073 45.843498 
L 323.649538 45.670482 
L 323.751026 45.67252 
L 323.852514 45.82319 
L 323.954003 45.682143 
L 324.055491 45.889821 
L 324.15698 45.669416 
L 324.359956 45.826635 
L 324.76591 45.706696 
L 324.968887 45.962163 
L 325.070375 45.769484 
L 325.171863 45.986924 
L 325.273352 45.732322 
L 325.37484 45.928544 
L 325.476328 45.850408 
L 325.780794 45.960365 
L 325.98377 45.874545 
L 326.085259 46.015987 
L 326.186747 45.914543 
L 326.288235 46.033852 
L 326.389724 45.795951 
L 326.592701 46.253634 
L 326.795677 45.879531 
L 326.897166 46.135353 
L 326.998654 45.942327 
L 327.303119 46.09727 
L 327.404608 45.985448 
L 327.607584 46.245512 
L 327.709073 45.940134 
L 327.810561 46.049162 
L 327.912049 46.389964 
L 328.013538 45.999539 
L 328.216515 46.293839 
L 328.318003 46.052224 
L 328.52098 46.156767 
L 328.622468 46.108103 
L 328.825445 46.523207 
L 328.926933 46.168436 
L 329.028422 46.205661 
L 329.231398 46.314849 
L 329.332887 46.139692 
L 329.535863 46.407938 
L 329.637352 46.171757 
L 329.73884 46.572915 
L 329.840329 46.452115 
L 329.941817 46.157671 
L 330.043305 46.475625 
L 330.34777 46.383101 
L 330.449259 46.700923 
L 330.550747 46.292343 
L 330.753724 46.544001 
L 330.956701 46.496429 
L 331.159677 46.660671 
L 331.261166 46.382103 
L 331.464143 46.705814 
L 331.565631 46.523675 
L 331.768608 46.800697 
L 331.870096 46.522131 
L 332.073073 46.938717 
L 332.174561 46.565054 
L 332.377538 46.815604 
L 332.479026 46.796252 
L 332.682003 46.963337 
L 332.88498 46.724799 
L 332.986468 47.082553 
L 333.189445 46.73887 
L 333.392422 47.235314 
L 333.49391 46.870537 
L 333.696887 47.177802 
L 333.899864 47.026244 
L 334.204329 47.18742 
L 334.305817 47.420905 
L 334.508794 46.997744 
L 334.610282 47.380738 
L 334.813259 47.124015 
L 335.016236 47.415922 
L 335.117724 47.211779 
L 335.320701 47.569892 
L 335.422189 47.2345 
L 335.625166 47.529085 
L 335.726654 47.367778 
L 335.828143 47.423604 
L 335.929631 47.645522 
L 336.132608 47.49777 
L 336.234096 47.697256 
L 336.335585 47.629569 
L 336.437073 47.415646 
L 336.64005 47.772305 
L 336.741538 47.543301 
L 336.944515 47.920884 
L 337.147492 47.63496 
L 337.24898 47.870658 
L 337.350468 47.813344 
L 337.553445 47.973942 
L 337.756422 47.794292 
L 337.959399 48.103733 
L 338.060887 47.806922 
L 338.263864 48.184873 
L 338.46684 48.112972 
L 338.568329 48.369524 
L 338.669817 48.055118 
L 338.771306 48.126073 
L 338.872794 48.332944 
L 338.974282 48.083994 
L 339.177259 48.450062 
L 339.278747 48.267714 
L 339.481724 48.550645 
L 339.684701 48.309768 
L 339.887678 48.510282 
L 339.989166 48.438037 
L 340.192143 48.721499 
L 340.293631 48.550225 
L 340.496608 48.885015 
L 340.699585 48.583559 
L 340.801073 48.90391 
L 340.902561 48.794217 
L 341.105538 49.049618 
L 341.308515 48.764461 
L 341.511492 49.087137 
L 341.61298 48.906105 
L 342.120422 49.407948 
L 342.22191 49.114594 
L 342.323399 49.192499 
L 342.424887 49.425892 
L 342.627864 49.284948 
L 342.830841 49.715572 
L 342.932329 49.391928 
L 343.135306 49.73775 
L 343.236794 49.488205 
L 343.744236 50.019887 
L 343.845724 49.843311 
L 343.947213 49.752901 
L 344.150189 49.982951 
L 344.251678 49.799886 
L 344.454655 50.158494 
L 344.556143 49.972201 
L 344.75912 50.349801 
L 344.962096 50.0646 
L 345.063585 50.406827 
L 345.165073 50.344811 
L 345.266562 50.106631 
L 345.469538 50.525718 
L 345.571027 50.387397 
L 345.774003 50.732054 
L 345.97698 50.43879 
L 346.078469 50.773948 
L 346.179957 50.532839 
L 346.484422 50.937805 
L 346.58591 50.619384 
L 346.788887 50.968434 
L 346.991864 50.84562 
L 347.093352 51.054441 
L 347.194841 50.882006 
L 347.397817 51.334348 
L 347.600794 50.988987 
L 347.702283 51.361119 
L 347.905259 51.065958 
L 348.108236 51.47114 
L 348.209724 51.284229 
L 348.412701 51.721303 
L 348.615678 51.382182 
L 348.818655 51.645123 
L 348.920143 51.453624 
L 349.12312 51.875915 
L 349.224608 51.62297 
L 349.427585 52.014823 
L 349.630562 51.694495 
L 349.73205 52.042943 
L 349.935027 51.882175 
L 350.036515 52.206946 
L 350.239492 51.92632 
L 350.442469 52.311878 
L 350.645445 52.060996 
L 350.746934 52.27824 
L 350.848422 52.224856 
L 351.051399 52.412098 
L 351.152887 52.43397 
L 351.254376 52.156444 
L 351.457352 52.58435 
L 351.558841 52.232109 
L 351.761818 52.637394 
L 351.964794 52.591992 
L 352.066283 52.715502 
L 352.269259 52.51981 
L 352.472236 52.818433 
L 352.573725 52.660256 
L 352.675213 52.715256 
L 352.776701 52.968057 
L 352.87819 52.791055 
L 352.979678 52.8608 
L 353.081166 53.094997 
L 353.284143 52.885774 
L 353.48712 53.07476 
L 353.588608 52.866998 
L 353.791585 53.177661 
L 353.893073 53.048338 
L 353.994562 53.113245 
L 354.09605 53.38441 
L 354.299027 53.080799 
L 354.502004 53.401638 
L 354.603492 53.157427 
L 354.806469 53.387318 
L 354.907957 53.311031 
L 355.110934 53.575423 
L 355.313911 53.264596 
L 355.415399 53.759051 
L 355.618376 53.392129 
L 355.821353 53.628736 
L 355.922841 53.591503 
L 356.125818 53.650341 
L 356.328794 53.947872 
L 356.531771 53.659575 
L 356.63326 53.897497 
L 356.836236 53.710337 
L 357.039213 53.937043 
L 357.140701 53.775822 
L 357.343678 54.158444 
L 357.546655 53.853826 
L 357.749632 54.134413 
L 357.85112 53.842845 
L 358.054097 54.184298 
L 358.155585 54.042265 
L 358.358562 54.382064 
L 358.561539 54.01568 
L 358.663027 54.389547 
L 358.866004 54.063382 
L 359.068981 54.28999 
L 359.170469 54.266019 
L 359.271957 54.358851 
L 359.373446 54.655147 
L 359.576422 54.200408 
L 359.677911 54.564659 
L 359.880888 54.456027 
L 360.083864 54.430706 
L 360.185353 54.450028 
L 360.388329 54.584287 
L 360.489818 54.554087 
L 360.591306 54.372697 
L 360.794283 54.675051 
L 360.895771 54.535001 
L 360.99726 54.69721 
L 361.098748 54.591069 
L 361.403213 54.648375 
L 361.910655 54.752339 
L 362.012143 54.831402 
L 362.113632 54.641076 
L 362.316609 54.740067 
L 362.519585 54.833239 
L 362.621074 54.626293 
L 362.925539 54.967783 
L 363.128516 54.746805 
L 363.230004 54.888597 
L 363.331492 54.816363 
L 363.432981 54.995668 
L 363.534469 54.769756 
L 363.940423 55.003606 
L 364.041911 54.768786 
L 364.447864 55.04771 
L 364.549353 54.79527 
L 364.955306 54.892767 
L 365.056795 54.711001 
L 365.158283 54.834149 
L 365.259771 55.138223 
L 365.36126 54.871595 
L 365.462748 54.974701 
L 365.564237 54.733572 
L 365.767213 54.904299 
L 365.868702 54.838195 
L 365.97019 55.038252 
L 366.071678 54.702024 
L 366.173167 54.907693 
L 366.274655 54.805633 
L 366.376144 54.952146 
L 366.477632 54.788275 
L 366.680609 54.917607 
L 367.289539 54.814895 
L 367.391027 54.944985 
L 367.492516 54.76255 
L 367.796981 54.861465 
L 368.101446 54.726937 
L 368.304423 54.840357 
L 368.405911 54.83673 
L 368.608888 54.706819 
L 368.710376 54.691889 
L 368.811865 54.889528 
L 369.014841 54.422411 
L 369.11633 54.855087 
L 369.319306 54.718993 
L 369.420795 54.705755 
L 369.522283 54.543833 
L 369.623772 54.766395 
L 369.72526 54.551313 
L 369.928237 54.652812 
L 370.029725 54.470005 
L 370.232702 54.711926 
L 370.33419 54.50676 
L 370.537167 54.553652 
L 370.740144 54.655851 
L 370.841632 54.414748 
L 370.94312 54.561023 
L 371.146097 54.453142 
L 371.247586 54.696158 
L 371.349074 54.341146 
L 371.552051 54.47858 
L 371.653539 54.304268 
L 371.755027 54.686377 
L 371.958004 54.287354 
L 372.059493 54.5376 
L 372.262469 54.501035 
L 372.363958 54.092867 
L 372.566934 54.483172 
L 372.668423 54.215226 
L 372.769911 54.359146 
L 372.8714 54.06383 
L 373.074376 54.346918 
L 373.378841 54.033771 
L 373.581818 54.142852 
L 373.581818 54.142852 
" style="fill:none;stroke:#081d58;stroke-dasharray:5.55,2.4;stroke-dashoffset:0;stroke-width:1.5;"/>
    <defs>
     <path d="M -0 4.242641 
L 4.242641 0 
L 0 -4.242641 
L -4.242641 -0 
z
" id="m3f6acf6211" style="stroke:#081d58;stroke-linejoin:miter;"/>
    </defs>
    <g clip-path="url(#pd6608bbeb2)">
     <use style="fill:#081d58;stroke:#081d58;stroke-linejoin:miter;" x="69.218182" xlink:href="#m3f6acf6211" y="46.491533"/>
     <use style="fill:#081d58;stroke:#081d58;stroke-linejoin:miter;" x="77.337252" xlink:href="#m3f6acf6211" y="49.416025"/>
     <use style="fill:#081d58;stroke:#081d58;stroke-linejoin:miter;" x="85.456322" xlink:href="#m3f6acf6211" y="89.050927"/>
     <use style="fill:#081d58;stroke:#081d58;stroke-linejoin:miter;" x="93.575392" xlink:href="#m3f6acf6211" y="139.183587"/>
     <use style="fill:#081d58;stroke:#081d58;stroke-linejoin:miter;" x="101.694462" xlink:href="#m3f6acf6211" y="168.269065"/>
     <use style="fill:#081d58;stroke:#081d58;stroke-linejoin:miter;" x="109.813532" xlink:href="#m3f6acf6211" y="169.511169"/>
     <use style="fill:#081d58;stroke:#081d58;stroke-linejoin:miter;" x="117.932602" xlink:href="#m3f6acf6211" y="160.378782"/>
     <use style="fill:#081d58;stroke:#081d58;stroke-linejoin:miter;" x="126.051672" xlink:href="#m3f6acf6211" y="153.114952"/>
     <use style="fill:#081d58;stroke:#081d58;stroke-linejoin:miter;" x="134.170742" xlink:href="#m3f6acf6211" y="150.663858"/>
     <use style="fill:#081d58;stroke:#081d58;stroke-linejoin:miter;" x="142.289812" xlink:href="#m3f6acf6211" y="155.322449"/>
     <use style="fill:#081d58;stroke:#081d58;stroke-linejoin:miter;" x="150.408882" xlink:href="#m3f6acf6211" y="162.732958"/>
     <use style="fill:#081d58;stroke:#081d58;stroke-linejoin:miter;" x="158.527952" xlink:href="#m3f6acf6211" y="188.987433"/>
     <use style="fill:#081d58;stroke:#081d58;stroke-linejoin:miter;" x="166.647022" xlink:href="#m3f6acf6211" y="223.038799"/>
     <use style="fill:#081d58;stroke:#081d58;stroke-linejoin:miter;" x="174.766092" xlink:href="#m3f6acf6211" y="241.455729"/>
     <use style="fill:#081d58;stroke:#081d58;stroke-linejoin:miter;" x="182.885162" xlink:href="#m3f6acf6211" y="172.619989"/>
     <use style="fill:#081d58;stroke:#081d58;stroke-linejoin:miter;" x="191.004232" xlink:href="#m3f6acf6211" y="114.767452"/>
     <use style="fill:#081d58;stroke:#081d58;stroke-linejoin:miter;" x="199.123302" xlink:href="#m3f6acf6211" y="91.104855"/>
     <use style="fill:#081d58;stroke:#081d58;stroke-linejoin:miter;" x="207.242372" xlink:href="#m3f6acf6211" y="80.079213"/>
     <use style="fill:#081d58;stroke:#081d58;stroke-linejoin:miter;" x="215.361442" xlink:href="#m3f6acf6211" y="74.056835"/>
     <use style="fill:#081d58;stroke:#081d58;stroke-linejoin:miter;" x="223.480512" xlink:href="#m3f6acf6211" y="68.954757"/>
     <use style="fill:#081d58;stroke:#081d58;stroke-linejoin:miter;" x="231.599582" xlink:href="#m3f6acf6211" y="64.71853"/>
     <use style="fill:#081d58;stroke:#081d58;stroke-linejoin:miter;" x="239.718652" xlink:href="#m3f6acf6211" y="62.055339"/>
     <use style="fill:#081d58;stroke:#081d58;stroke-linejoin:miter;" x="247.837722" xlink:href="#m3f6acf6211" y="58.220978"/>
     <use style="fill:#081d58;stroke:#081d58;stroke-linejoin:miter;" x="255.956792" xlink:href="#m3f6acf6211" y="54.088878"/>
     <use style="fill:#081d58;stroke:#081d58;stroke-linejoin:miter;" x="264.075862" xlink:href="#m3f6acf6211" y="50.235924"/>
     <use style="fill:#081d58;stroke:#081d58;stroke-linejoin:miter;" x="272.194932" xlink:href="#m3f6acf6211" y="48.197829"/>
     <use style="fill:#081d58;stroke:#081d58;stroke-linejoin:miter;" x="280.314002" xlink:href="#m3f6acf6211" y="46.658496"/>
     <use style="fill:#081d58;stroke:#081d58;stroke-linejoin:miter;" x="288.433072" xlink:href="#m3f6acf6211" y="45.356112"/>
     <use style="fill:#081d58;stroke:#081d58;stroke-linejoin:miter;" x="296.552142" xlink:href="#m3f6acf6211" y="44.899151"/>
     <use style="fill:#081d58;stroke:#081d58;stroke-linejoin:miter;" x="304.671212" xlink:href="#m3f6acf6211" y="44.839927"/>
     <use style="fill:#081d58;stroke:#081d58;stroke-linejoin:miter;" x="312.790282" xlink:href="#m3f6acf6211" y="45.039884"/>
     <use style="fill:#081d58;stroke:#081d58;stroke-linejoin:miter;" x="320.909352" xlink:href="#m3f6acf6211" y="45.533692"/>
     <use style="fill:#081d58;stroke:#081d58;stroke-linejoin:miter;" x="329.028422" xlink:href="#m3f6acf6211" y="46.205661"/>
     <use style="fill:#081d58;stroke:#081d58;stroke-linejoin:miter;" x="337.147492" xlink:href="#m3f6acf6211" y="47.63496"/>
     <use style="fill:#081d58;stroke:#081d58;stroke-linejoin:miter;" x="345.266562" xlink:href="#m3f6acf6211" y="50.106631"/>
     <use style="fill:#081d58;stroke:#081d58;stroke-linejoin:miter;" x="353.385632" xlink:href="#m3f6acf6211" y="53.054579"/>
     <use style="fill:#081d58;stroke:#081d58;stroke-linejoin:miter;" x="361.504702" xlink:href="#m3f6acf6211" y="54.656276"/>
     <use style="fill:#081d58;stroke:#081d58;stroke-linejoin:miter;" x="369.623772" xlink:href="#m3f6acf6211" y="54.766395"/>
    </g>
   </g>
   <g id="patch_3">
    <path d="M 54 252 
L 54 34.56 
" style="fill:none;stroke:#000000;stroke-linecap:square;stroke-linejoin:miter;stroke-width:0.8;"/>
   </g>
   <g id="patch_4">
    <path d="M 388.8 252 
L 388.8 34.56 
" style="fill:none;stroke:#000000;stroke-linecap:square;stroke-linejoin:miter;stroke-width:0.8;"/>
   </g>
   <g id="patch_5">
    <path d="M 54 252 
L 388.8 252 
" style="fill:none;stroke:#000000;stroke-linecap:square;stroke-linejoin:miter;stroke-width:0.8;"/>
   </g>
   <g id="patch_6">
    <path d="M 54 34.56 
L 388.8 34.56 
" style="fill:none;stroke:#000000;stroke-linecap:square;stroke-linejoin:miter;stroke-width:0.8;"/>
   </g>
   <g id="legend_1">
    <g id="patch_7">
     <path d="M 280.085938 247 
L 381.8 247 
Q 383.8 247 383.8 245 
L 383.8 216.64375 
Q 383.8 214.64375 381.8 214.64375 
L 280.085938 214.64375 
Q 278.085938 214.64375 278.085938 216.64375 
L 278.085938 245 
Q 278.085938 247 280.085938 247 
z
" style="fill:#ffffff;opacity:0.8;stroke:#cccccc;stroke-linejoin:miter;"/>
    </g>
    <g id="line2d_15">
     <path d="M 282.085938 222.742188 
L 302.085938 222.742188 
" style="fill:none;stroke:#40b5c4;stroke-dasharray:5.55,2.4;stroke-dashoffset:0;stroke-width:1.5;"/>
    </g>
    <g id="line2d_16">
     <g>
      <use style="fill:#40b5c4;stroke:#40b5c4;" x="292.085938" xlink:href="#mfe8977739d" y="222.742188"/>
     </g>
    </g>
    <g id="text_15">
     <text style="font-family:DejaVu Sans;font-size:10px;font-style:normal;font-weight:normal;text-anchor:start;" transform="rotate(-0, 310.085938, 226.242188)" x="310.085938" y="226.242188">original</text>
    </g>
    <g id="line2d_17">
     <path d="M 282.085938 237.420312 
L 302.085938 237.420312 
" style="fill:none;stroke:#081d58;stroke-dasharray:5.55,2.4;stroke-dashoffset:0;stroke-width:1.5;"/>
    </g>
    <g id="line2d_18">
     <g>
      <use style="fill:#081d58;stroke:#081d58;stroke-linejoin:miter;" x="292.085938" xlink:href="#m3f6acf6211" y="237.420312"/>
     </g>
    </g>
    <g id="text_16">
     <text style="font-family:DejaVu Sans;font-size:10px;font-style:normal;font-weight:normal;text-anchor:start;" transform="rotate(-0, 310.085938, 240.920312)" x="310.085938" y="240.920312">reconstructed</text>
    </g>
   </g>
  </g>
  <g id="text_17">
   <text style="font-family:DejaVu Sans;font-size:12px;font-style:normal;font-weight:normal;text-anchor:middle;" transform="rotate(-0, 216, 14.878125)" x="216" y="14.878125">Reconstruction of the temperature curve</text>
  </g>
 </g>
 <defs>
  <clipPath id="pd6608bbeb2">
   <rect height="217.44" width="334.8" x="54" y="34.56"/>
  </clipPath>
 </defs>
</svg>
