<?xml version="1.0" encoding="utf-8" standalone="no"?>
<!DOCTYPE svg PUBLIC "-//W3C//DTD SVG 1.1//EN"
  "http://www.w3.org/Graphics/SVG/1.1/DTD/svg11.dtd">
<!-- Created with matplotlib (https://matplotlib.org/) -->
<svg height="288pt" version="1.1" viewBox="0 0 432 288" width="432pt" xmlns="http://www.w3.org/2000/svg" xmlns:xlink="http://www.w3.org/1999/xlink">
 <defs>
  <style type="text/css">
*{stroke-linecap:butt;stroke-linejoin:round;}
  </style>
 </defs>
 <g id="figure_1">
  <g id="patch_1">
   <path d="M 0 288 
L 432 288 
L 432 0 
L 0 0 
z
" style="fill:#ffffff;"/>
  </g>
  <g id="axes_1">
   <g id="patch_2">
    <path d="M 54 252 
L 388.8 252 
L 388.8 34.56 
L 54 34.56 
z
" style="fill:#ffffff;"/>
   </g>
   <g id="matplotlib.axis_1">
    <g id="xtick_1">
     <g id="line2d_1">
      <defs>
       <path d="M 0 0 
L 0 3.5 
" id="m5f7ae666fa" style="stroke:#000000;stroke-width:0.8;"/>
      </defs>
      <g>
       <use style="stroke:#000000;stroke-width:0.8;" x="69.218182" xlink:href="#m5f7ae666fa" y="252"/>
      </g>
     </g>
     <g id="text_1">
      <text style="font-family:DejaVu Sans;font-size:10px;font-style:normal;font-weight:normal;text-anchor:middle;" transform="rotate(-0, 69.218182, 266.598437)" x="69.218182" y="266.598437">0</text>
     </g>
    </g>
    <g id="xtick_2">
     <g id="line2d_2">
      <g>
       <use style="stroke:#000000;stroke-width:0.8;" x="119.962369" xlink:href="#m5f7ae666fa" y="252"/>
      </g>
     </g>
     <g id="text_2">
      <text style="font-family:DejaVu Sans;font-size:10px;font-style:normal;font-weight:normal;text-anchor:middle;" transform="rotate(-0, 119.962369, 266.598437)" x="119.962369" y="266.598437">500</text>
     </g>
    </g>
    <g id="xtick_3">
     <g id="line2d_3">
      <g>
       <use style="stroke:#000000;stroke-width:0.8;" x="170.706557" xlink:href="#m5f7ae666fa" y="252"/>
      </g>
     </g>
     <g id="text_3">
      <text style="font-family:DejaVu Sans;font-size:10px;font-style:normal;font-weight:normal;text-anchor:middle;" transform="rotate(-0, 170.706557, 266.598437)" x="170.706557" y="266.598437">1000</text>
     </g>
    </g>
    <g id="xtick_4">
     <g id="line2d_4">
      <g>
       <use style="stroke:#000000;stroke-width:0.8;" x="221.450744" xlink:href="#m5f7ae666fa" y="252"/>
      </g>
     </g>
     <g id="text_4">
      <text style="font-family:DejaVu Sans;font-size:10px;font-style:normal;font-weight:normal;text-anchor:middle;" transform="rotate(-0, 221.450744, 266.598437)" x="221.450744" y="266.598437">1500</text>
     </g>
    </g>
    <g id="xtick_5">
     <g id="line2d_5">
      <g>
       <use style="stroke:#000000;stroke-width:0.8;" x="272.194932" xlink:href="#m5f7ae666fa" y="252"/>
      </g>
     </g>
     <g id="text_5">
      <text style="font-family:DejaVu Sans;font-size:10px;font-style:normal;font-weight:normal;text-anchor:middle;" transform="rotate(-0, 272.194932, 266.598437)" x="272.194932" y="266.598437">2000</text>
     </g>
    </g>
    <g id="xtick_6">
     <g id="line2d_6">
      <g>
       <use style="stroke:#000000;stroke-width:0.8;" x="322.939119" xlink:href="#m5f7ae666fa" y="252"/>
      </g>
     </g>
     <g id="text_6">
      <text style="font-family:DejaVu Sans;font-size:10px;font-style:normal;font-weight:normal;text-anchor:middle;" transform="rotate(-0, 322.939119, 266.598437)" x="322.939119" y="266.598437">2500</text>
     </g>
    </g>
    <g id="xtick_7">
     <g id="line2d_7">
      <g>
       <use style="stroke:#000000;stroke-width:0.8;" x="373.683307" xlink:href="#m5f7ae666fa" y="252"/>
      </g>
     </g>
     <g id="text_7">
      <text style="font-family:DejaVu Sans;font-size:10px;font-style:normal;font-weight:normal;text-anchor:middle;" transform="rotate(-0, 373.683307, 266.598437)" x="373.683307" y="266.598437">3000</text>
     </g>
    </g>
    <g id="text_8">
     <text style="font-family:DejaVu Sans;font-size:10px;font-style:normal;font-weight:normal;text-anchor:middle;" transform="rotate(-0, 221.4, 280.276563)" x="221.4" y="280.276563">Time</text>
    </g>
   </g>
   <g id="matplotlib.axis_2">
    <g id="ytick_1">
     <g id="line2d_8">
      <defs>
       <path d="M 0 0 
L -3.5 0 
" id="m830f79e9f4" style="stroke:#000000;stroke-width:0.8;"/>
      </defs>
      <g>
       <use style="stroke:#000000;stroke-width:0.8;" x="54" xlink:href="#m830f79e9f4" y="233.586027"/>
      </g>
     </g>
     <g id="text_9">
      <text style="font-family:DejaVu Sans;font-size:10px;font-style:normal;font-weight:normal;text-anchor:end;" transform="rotate(-0, 47, 237.385246)" x="47" y="237.385246">70</text>
     </g>
    </g>
    <g id="ytick_2">
     <g id="line2d_9">
      <g>
       <use style="stroke:#000000;stroke-width:0.8;" x="54" xlink:href="#m830f79e9f4" y="190.038287"/>
      </g>
     </g>
     <g id="text_10">
      <text style="font-family:DejaVu Sans;font-size:10px;font-style:normal;font-weight:normal;text-anchor:end;" transform="rotate(-0, 47, 193.837505)" x="47" y="193.837505">72</text>
     </g>
    </g>
    <g id="ytick_3">
     <g id="line2d_10">
      <g>
       <use style="stroke:#000000;stroke-width:0.8;" x="54" xlink:href="#m830f79e9f4" y="146.490546"/>
      </g>
     </g>
     <g id="text_11">
      <text style="font-family:DejaVu Sans;font-size:10px;font-style:normal;font-weight:normal;text-anchor:end;" transform="rotate(-0, 47, 150.289765)" x="47" y="150.289765">74</text>
     </g>
    </g>
    <g id="ytick_4">
     <g id="line2d_11">
      <g>
       <use style="stroke:#000000;stroke-width:0.8;" x="54" xlink:href="#m830f79e9f4" y="102.942806"/>
      </g>
     </g>
     <g id="text_12">
      <text style="font-family:DejaVu Sans;font-size:10px;font-style:normal;font-weight:normal;text-anchor:end;" transform="rotate(-0, 47, 106.742024)" x="47" y="106.742024">76</text>
     </g>
    </g>
    <g id="ytick_5">
     <g id="line2d_12">
      <g>
       <use style="stroke:#000000;stroke-width:0.8;" x="54" xlink:href="#m830f79e9f4" y="59.395065"/>
      </g>
     </g>
     <g id="text_13">
      <text style="font-family:DejaVu Sans;font-size:10px;font-style:normal;font-weight:normal;text-anchor:end;" transform="rotate(-0, 47, 63.194284)" x="47" y="63.194284">78</text>
     </g>
    </g>
    <g id="text_14">
     <text style="font-family:DejaVu Sans;font-size:10px;font-style:normal;font-weight:normal;text-anchor:middle;" transform="rotate(-90, 28.195312, 143.28)" x="28.195312" y="143.28">weight (\%)</text>
    </g>
   </g>
   <g id="line2d_13">
    <path clip-path="url(#pd22c429143)" d="M 69.218182 52.647778 
L 84.238461 53.531797 
L 87.993531 54.088773 
L 90.835206 54.737416 
L 93.372415 55.50451 
L 96.417066 56.61563 
L 107.174834 60.723053 
L 112.553718 62.373295 
L 125.239765 66.106643 
L 129.096323 67.549815 
L 132.140974 68.921133 
L 134.779672 70.356031 
L 137.316881 72.007362 
L 139.448137 73.650853 
L 141.477905 75.492487 
L 143.304696 77.445168 
L 145.131486 79.73861 
L 146.856789 82.238032 
L 148.683579 85.329704 
L 150.205905 88.352571 
L 151.728231 91.856422 
L 153.352045 96.168084 
L 155.381812 102.278485 
L 156.295207 105.482728 
L 157.716045 111.737925 
L 159.948789 122.673851 
L 162.181533 134.669294 
L 164.515766 148.444533 
L 167.661905 168.569904 
L 171.11251 190.450902 
L 173.040789 201.176275 
L 174.25865 206.815054 
L 175.679487 212.454704 
L 176.694371 215.640439 
L 177.506278 217.566991 
L 178.318185 218.922197 
L 179.23158 220.014374 
L 180.550929 221.231969 
L 182.276231 222.540143 
L 184.305999 223.823495 
L 186.944697 225.224426 
L 189.88786 226.533906 
L 193.541441 227.899563 
L 197.702464 229.224721 
L 205.009627 231.196998 
L 210.692976 232.509963 
L 216.579302 233.711445 
L 223.886465 235.010909 
L 232.107024 236.256593 
L 241.139489 237.405817 
L 251.288326 238.470124 
L 260.523769 239.251153 
L 268.744327 239.793758 
L 280.922932 240.335709 
L 289.447955 240.517739 
L 307.817351 240.824751 
L 318.778096 241.184455 
L 348.209724 241.326638 
L 360.489818 241.436379 
L 370.638655 241.720528 
L 373.581818 241.848993 
L 373.581818 241.848993 
" style="fill:none;stroke:#40b5c4;stroke-dasharray:5.55,2.4;stroke-dashoffset:0;stroke-width:1.5;"/>
    <defs>
     <path d="M 0 3 
C 0.795609 3 1.55874 2.683901 2.12132 2.12132 
C 2.683901 1.55874 3 0.795609 3 0 
C 3 -0.795609 2.683901 -1.55874 2.12132 -2.12132 
C 1.55874 -2.683901 0.795609 -3 0 -3 
C -0.795609 -3 -1.55874 -2.683901 -2.12132 -2.12132 
C -2.683901 -1.55874 -3 -0.795609 -3 0 
C -3 0.795609 -2.683901 1.55874 -2.12132 2.12132 
C -1.55874 2.683901 -0.795609 3 0 3 
z
" id="mbfd160b1b5" style="stroke:#40b5c4;"/>
    </defs>
    <g clip-path="url(#pd22c429143)">
     <use style="fill:#40b5c4;stroke:#40b5c4;" x="69.218182" xlink:href="#mbfd160b1b5" y="52.647778"/>
     <use style="fill:#40b5c4;stroke:#40b5c4;" x="77.337252" xlink:href="#mbfd160b1b5" y="53.033829"/>
     <use style="fill:#40b5c4;stroke:#40b5c4;" x="85.456322" xlink:href="#mbfd160b1b5" y="53.683561"/>
     <use style="fill:#40b5c4;stroke:#40b5c4;" x="93.575392" xlink:href="#mbfd160b1b5" y="55.572444"/>
     <use style="fill:#40b5c4;stroke:#40b5c4;" x="101.694462" xlink:href="#mbfd160b1b5" y="58.735317"/>
     <use style="fill:#40b5c4;stroke:#40b5c4;" x="109.813532" xlink:href="#mbfd160b1b5" y="61.560259"/>
     <use style="fill:#40b5c4;stroke:#40b5c4;" x="117.932602" xlink:href="#mbfd160b1b5" y="63.888974"/>
     <use style="fill:#40b5c4;stroke:#40b5c4;" x="126.051672" xlink:href="#mbfd160b1b5" y="66.387961"/>
     <use style="fill:#40b5c4;stroke:#40b5c4;" x="134.170742" xlink:href="#mbfd160b1b5" y="70.002859"/>
     <use style="fill:#40b5c4;stroke:#40b5c4;" x="142.289812" xlink:href="#mbfd160b1b5" y="76.323596"/>
     <use style="fill:#40b5c4;stroke:#40b5c4;" x="150.408882" xlink:href="#mbfd160b1b5" y="88.787612"/>
     <use style="fill:#40b5c4;stroke:#40b5c4;" x="158.527952" xlink:href="#mbfd160b1b5" y="115.595819"/>
     <use style="fill:#40b5c4;stroke:#40b5c4;" x="166.647022" xlink:href="#mbfd160b1b5" y="161.953478"/>
     <use style="fill:#40b5c4;stroke:#40b5c4;" x="174.766092" xlink:href="#mbfd160b1b5" y="208.944103"/>
     <use style="fill:#40b5c4;stroke:#40b5c4;" x="182.885162" xlink:href="#mbfd160b1b5" y="222.949927"/>
     <use style="fill:#40b5c4;stroke:#40b5c4;" x="191.004232" xlink:href="#mbfd160b1b5" y="226.975045"/>
     <use style="fill:#40b5c4;stroke:#40b5c4;" x="199.123302" xlink:href="#mbfd160b1b5" y="229.636247"/>
     <use style="fill:#40b5c4;stroke:#40b5c4;" x="207.242372" xlink:href="#mbfd160b1b5" y="231.732418"/>
     <use style="fill:#40b5c4;stroke:#40b5c4;" x="215.361442" xlink:href="#mbfd160b1b5" y="233.477158"/>
     <use style="fill:#40b5c4;stroke:#40b5c4;" x="223.480512" xlink:href="#mbfd160b1b5" y="234.943628"/>
     <use style="fill:#40b5c4;stroke:#40b5c4;" x="231.599582" xlink:href="#mbfd160b1b5" y="236.18561"/>
     <use style="fill:#40b5c4;stroke:#40b5c4;" x="239.718652" xlink:href="#mbfd160b1b5" y="237.237941"/>
     <use style="fill:#40b5c4;stroke:#40b5c4;" x="247.837722" xlink:href="#mbfd160b1b5" y="238.132847"/>
     <use style="fill:#40b5c4;stroke:#40b5c4;" x="255.956792" xlink:href="#mbfd160b1b5" y="238.885352"/>
     <use style="fill:#40b5c4;stroke:#40b5c4;" x="264.075862" xlink:href="#mbfd160b1b5" y="239.505036"/>
     <use style="fill:#40b5c4;stroke:#40b5c4;" x="272.194932" xlink:href="#mbfd160b1b5" y="239.979271"/>
     <use style="fill:#40b5c4;stroke:#40b5c4;" x="280.314002" xlink:href="#mbfd160b1b5" y="240.315895"/>
     <use style="fill:#40b5c4;stroke:#40b5c4;" x="288.433072" xlink:href="#mbfd160b1b5" y="240.506634"/>
     <use style="fill:#40b5c4;stroke:#40b5c4;" x="296.552142" xlink:href="#mbfd160b1b5" y="240.598302"/>
     <use style="fill:#40b5c4;stroke:#40b5c4;" x="304.671212" xlink:href="#mbfd160b1b5" y="240.709349"/>
     <use style="fill:#40b5c4;stroke:#40b5c4;" x="312.790282" xlink:href="#mbfd160b1b5" y="241.042271"/>
     <use style="fill:#40b5c4;stroke:#40b5c4;" x="320.909352" xlink:href="#mbfd160b1b5" y="241.209495"/>
     <use style="fill:#40b5c4;stroke:#40b5c4;" x="329.028422" xlink:href="#mbfd160b1b5" y="241.295284"/>
     <use style="fill:#40b5c4;stroke:#40b5c4;" x="337.147492" xlink:href="#mbfd160b1b5" y="241.343186"/>
     <use style="fill:#40b5c4;stroke:#40b5c4;" x="345.266562" xlink:href="#mbfd160b1b5" y="241.332299"/>
     <use style="fill:#40b5c4;stroke:#40b5c4;" x="353.385632" xlink:href="#mbfd160b1b5" y="241.341444"/>
     <use style="fill:#40b5c4;stroke:#40b5c4;" x="361.504702" xlink:href="#mbfd160b1b5" y="241.45554"/>
     <use style="fill:#40b5c4;stroke:#40b5c4;" x="369.623772" xlink:href="#mbfd160b1b5" y="241.681552"/>
    </g>
   </g>
   <g id="line2d_14">
    <path clip-path="url(#pd22c429143)" d="M 69.218182 45.591536 
L 69.31967 45.813806 
L 69.421159 46.852065 
L 69.522647 46.115316 
L 69.624135 46.481282 
L 69.725624 44.782358 
L 69.827112 47.077326 
L 69.9286 45.313448 
L 70.131577 46.791597 
L 70.233066 44.948313 
L 70.334554 47.381494 
L 70.537531 45.471264 
L 70.639019 46.624977 
L 70.740507 45.008615 
L 70.841996 47.203412 
L 70.943484 45.415945 
L 71.044973 45.869789 
L 71.146461 46.978151 
L 71.247949 45.291354 
L 71.349438 47.644132 
L 71.450926 45.92029 
L 71.552414 45.935573 
L 71.653903 46.462178 
L 71.755391 45.292849 
L 71.85688 47.071844 
L 72.059856 45.944544 
L 72.161345 46.498393 
L 72.262833 45.706658 
L 72.364321 46.987454 
L 72.46581 46.010826 
L 72.567298 46.339747 
L 72.668787 47.144439 
L 72.770275 45.903346 
L 72.871763 46.741096 
L 73.07474 45.655825 
L 73.176228 47.199259 
L 73.277717 45.29966 
L 73.480694 46.820004 
L 73.582182 45.729749 
L 73.68367 47.552765 
L 73.785159 45.86032 
L 73.886647 47.084801 
L 74.089624 44.856614 
L 74.191112 47.614729 
L 74.292601 46.005012 
L 74.394089 46.307519 
L 74.495577 46.222963 
L 74.597066 45.385379 
L 74.698554 47.125169 
L 74.800042 45.81148 
L 74.901531 46.908546 
L 75.003019 46.553545 
L 75.104508 45.449502 
L 75.205996 47.398937 
L 75.307484 45.527579 
L 75.408973 45.79221 
L 75.510461 46.668335 
L 75.611949 45.235039 
L 75.713438 47.160885 
L 75.814926 45.300159 
L 76.017903 46.60388 
L 76.119391 45.682238 
L 76.22088 47.377673 
L 76.423856 45.68174 
L 76.525345 46.69508 
L 76.626833 45.178225 
L 76.728322 47.098423 
L 76.931298 44.994661 
L 77.032787 47.151748 
L 77.134275 45.15663 
L 77.235763 47.248597 
L 77.43874 45.226235 
L 77.540229 46.994099 
L 77.641717 45.080546 
L 77.743205 46.758705 
L 77.844694 45.222414 
L 78.04767 46.785284 
L 78.149159 44.967583 
L 78.250647 46.590922 
L 78.453624 45.539207 
L 78.555112 46.736278 
L 78.656601 45.544357 
L 78.758089 46.635609 
L 78.961066 45.007785 
L 79.062554 46.816515 
L 79.164043 45.13005 
L 79.265531 45.919625 
L 79.367019 45.860486 
L 79.468508 45.002967 
L 79.569996 46.550887 
L 79.671484 45.744367 
L 79.772973 46.447559 
L 79.97595 44.498124 
L 80.077438 46.580955 
L 80.178926 45.377405 
L 80.280415 45.423919 
L 80.381903 45.956837 
L 80.483391 44.443636 
L 80.58488 46.450383 
L 80.686368 44.883692 
L 80.787857 45.86331 
L 80.889345 45.73739 
L 80.990833 44.626536 
L 81.092322 46.985461 
L 81.295298 45.08337 
L 81.396787 46.090897 
L 81.498275 44.897148 
L 81.599764 46.218146 
L 81.701252 45.03669 
L 81.904229 46.11432 
L 82.005717 45.071742 
L 82.107205 46.873993 
L 82.310182 44.857611 
L 82.411671 46.790766 
L 82.513159 44.844986 
L 82.614647 46.781297 
L 82.817624 44.99815 
L 82.919112 46.681292 
L 83.020601 44.985857 
L 83.122089 47.288466 
L 83.325066 45.433554 
L 83.426554 46.868677 
L 83.528043 45.686391 
L 83.629531 46.556701 
L 83.731019 45.492029 
L 83.832508 45.713801 
L 83.933996 47.018187 
L 84.035485 45.320093 
L 84.136973 47.029483 
L 84.238461 46.060995 
L 84.33995 46.305193 
L 84.441438 47.239626 
L 84.542926 45.825933 
L 84.644415 47.274346 
L 84.847392 45.636887 
L 84.94888 47.43648 
L 85.151857 47.008053 
L 85.253345 47.158891 
L 85.354833 46.437592 
L 85.456322 48.285527 
L 85.55781 46.955393 
L 85.760787 47.874376 
L 85.862275 46.116479 
L 85.963764 48.729237 
L 86.065252 47.228829 
L 86.268229 47.867566 
L 86.369717 46.559691 
L 86.471206 49.003006 
L 86.572694 47.1765 
L 86.674182 48.214759 
L 86.775671 48.171069 
L 86.877159 46.714517 
L 86.978647 49.132248 
L 87.181624 47.993319 
L 87.283113 48.534377 
L 87.384601 47.26604 
L 87.486089 49.27777 
L 87.587578 47.926705 
L 87.689066 48.043156 
L 87.790554 49.505025 
L 87.892043 46.937452 
L 87.993531 50.151902 
L 88.196508 48.358288 
L 88.297996 50.163198 
L 88.399485 48.244993 
L 88.500973 49.796236 
L 88.70395 48.391346 
L 88.805438 49.811353 
L 88.906927 48.243498 
L 89.008415 50.025483 
L 89.211392 48.232036 
L 89.31288 49.827632 
L 89.414368 48.296325 
L 89.515857 49.590909 
L 89.617345 48.422743 
L 89.718834 48.499658 
L 89.820322 49.771982 
L 89.92181 48.512283 
L 90.023299 49.70354 
L 90.226275 48.162597 
L 90.327764 49.350698 
L 90.429252 48.369418 
L 90.530741 49.375284 
L 90.733717 47.583166 
L 90.835206 49.725136 
L 90.936694 48.176718 
L 91.038182 49.64357 
L 91.241159 48.520257 
L 91.342648 49.2384 
L 91.444136 48.389187 
L 91.545624 49.240227 
L 91.748601 47.658419 
L 91.850089 49.35103 
L 91.951578 48.452479 
L 92.053066 48.580725 
L 92.154555 49.620811 
L 92.256043 48.143659 
L 92.357531 50.004386 
L 92.45902 47.96076 
L 92.661996 49.171785 
L 92.763485 47.829856 
L 92.864973 50.274001 
L 92.966462 48.015081 
L 93.06795 48.33553 
L 93.169438 49.507516 
L 93.270927 48.278218 
L 93.372415 50.442448 
L 93.473903 48.176219 
L 93.67688 49.334086 
L 93.778369 47.988336 
L 93.879857 49.937937 
L 94.082834 48.230707 
L 94.184322 49.453029 
L 94.28581 48.467264 
L 94.387299 50.410054 
L 94.488787 48.801666 
L 94.590276 48.899346 
L 94.691764 50.334303 
L 94.793252 47.874376 
L 94.894741 50.528997 
L 94.996229 48.87476 
L 95.097717 49.578284 
L 95.300694 48.961309 
L 95.402183 49.930129 
L 95.605159 49.451367 
L 95.706648 50.611393 
L 95.808136 48.915958 
L 95.909624 50.46421 
L 96.112601 48.961807 
L 96.21409 51.338341 
L 96.315578 48.827249 
L 96.417066 50.86938 
L 96.620043 49.306509 
L 96.721531 51.211424 
L 96.82302 49.233748 
L 96.924508 50.653921 
L 97.127485 49.373955 
L 97.228973 50.855924 
L 97.330462 50.236956 
L 97.43195 50.922539 
L 97.634927 49.308337 
L 97.736415 51.148132 
L 97.837904 50.222337 
L 97.939392 50.318189 
L 98.04088 50.70276 
L 98.142369 49.046363 
L 98.243857 51.815442 
L 98.345345 49.713341 
L 98.548322 51.171057 
L 98.649811 49.399704 
L 98.751299 51.556957 
L 98.852787 50.40208 
L 98.954276 50.418194 
L 99.055764 51.142151 
L 99.157252 49.665996 
L 99.258741 51.606793 
L 99.360229 50.042427 
L 99.461718 50.392944 
L 99.664694 51.545162 
L 99.766183 50.83084 
L 99.867671 51.104608 
L 99.969159 50.610064 
L 100.070648 50.655416 
L 100.273625 51.288671 
L 100.375113 50.297258 
L 100.476601 50.933005 
L 100.57809 50.829511 
L 100.679578 52.400355 
L 100.781066 51.037661 
L 100.882555 51.577057 
L 101.085532 50.885992 
L 101.288508 51.44416 
L 101.389997 50.610563 
L 101.592973 51.635698 
L 101.694462 51.782217 
L 101.79595 52.127916 
L 101.998927 51.370901 
L 102.100415 51.128031 
L 102.201904 51.662444 
L 102.303392 51.247306 
L 102.40488 51.527221 
L 102.506369 50.977525 
L 102.709346 51.70414 
L 102.810834 51.217072 
L 102.912322 51.548817 
L 103.013811 51.059091 
L 103.115299 51.61294 
L 103.318276 50.618204 
L 103.419764 50.843465 
L 103.521253 51.455955 
L 103.622741 50.877354 
L 103.724229 51.577888 
L 103.825718 51.157102 
L 103.927206 51.237837 
L 104.028694 51.0257 
L 104.130183 51.153282 
L 104.231671 51.712446 
L 104.33316 50.105055 
L 104.434648 51.486355 
L 104.536136 50.730004 
L 104.637625 52.451521 
L 104.739113 50.63083 
L 104.840601 51.939036 
L 104.94209 50.907256 
L 105.043578 51.658291 
L 105.145067 50.888816 
L 105.246555 51.176206 
L 105.348043 51.12039 
L 105.55102 51.859962 
L 105.652508 52.217123 
L 105.753997 51.352129 
L 105.855485 51.644669 
L 105.956974 51.107432 
L 106.15995 51.696665 
L 106.261439 51.211424 
L 106.362927 51.296811 
L 106.464415 51.734873 
L 106.565904 52.903205 
L 106.768881 51.900496 
L 106.971857 51.521074 
L 107.073346 52.124594 
L 107.276322 51.642509 
L 107.377811 51.372396 
L 107.479299 51.631711 
L 107.580788 53.192921 
L 107.783764 52.215296 
L 107.986741 51.958971 
L 108.088229 51.890362 
L 108.189718 52.485243 
L 108.392695 51.445157 
L 108.595671 52.996399 
L 109.001625 52.243204 
L 109.204602 52.904534 
L 109.30609 51.95 
L 109.407578 52.187055 
L 109.610555 53.294255 
L 109.712043 52.805193 
L 109.813532 53.215015 
L 109.91502 52.475941 
L 110.016509 52.897058 
L 110.117997 52.686416 
L 110.422462 52.960185 
L 110.52395 53.047232 
L 110.625439 53.515861 
L 110.726927 52.94324 
L 110.828416 53.168003 
L 110.929904 53.039258 
L 111.031392 53.473334 
L 111.132881 53.156208 
L 111.234369 53.839133 
L 111.437346 53.204383 
L 111.538834 53.257376 
L 111.640323 53.173651 
L 111.843299 54.128683 
L 111.944788 53.525994 
L 112.046276 53.560381 
L 112.249253 54.184334 
L 112.350741 53.803251 
L 112.45223 54.086322 
L 112.655206 53.476988 
L 112.959671 54.302612 
L 113.06116 54.397966 
L 113.264137 54.750642 
L 113.365625 53.908074 
L 113.467113 54.361087 
L 113.568602 54.159249 
L 113.67009 54.834865 
L 113.771578 54.475046 
L 113.873067 54.610933 
L 113.974555 54.045788 
L 114.177532 55.281898 
L 114.27902 55.225084 
L 114.380509 54.437503 
L 114.583485 54.791674 
L 114.684974 55.583408 
L 114.887951 54.518404 
L 114.989439 55.075243 
L 115.090927 54.862774 
L 115.192416 55.887078 
L 115.395392 55.056969 
L 115.496881 55.269439 
L 115.598369 55.180065 
L 115.801346 56.099548 
L 115.902834 54.997664 
L 116.105811 55.627098 
L 116.207299 56.495415 
L 116.511765 55.380242 
L 116.613253 55.928276 
L 116.714741 55.818969 
L 116.81623 57.128504 
L 116.917718 55.295852 
L 117.019206 56.169817 
L 117.120695 55.566132 
L 117.222183 57.162393 
L 117.323672 56.286767 
L 117.42516 56.831645 
L 117.526648 55.751689 
L 117.831113 56.782473 
L 117.932602 56.725659 
L 118.03409 56.905735 
L 118.135579 56.251881 
L 118.237067 57.448786 
L 118.338555 56.725327 
L 118.440044 57.282 
L 118.541532 56.297564 
L 118.845997 57.214223 
L 118.947486 56.847593 
L 119.048974 57.038632 
L 119.150462 57.594641 
L 119.251951 57.506098 
L 119.353439 57.758769 
L 119.556416 57.23316 
L 119.657904 57.439317 
L 119.759393 57.225353 
L 119.860881 57.464568 
L 120.063858 57.269541 
L 120.165346 58.202313 
L 120.266834 58.073403 
L 120.368323 58.337868 
L 120.469811 57.65378 
L 120.5713 58.094832 
L 120.672788 57.813589 
L 120.875765 58.267433 
L 120.977253 56.959392 
L 121.078741 59.10319 
L 121.281718 57.705776 
L 121.383207 58.984745 
L 121.484695 57.640989 
L 121.586183 59.439087 
L 121.687672 57.598462 
L 121.890648 59.337089 
L 121.992137 57.162227 
L 122.093625 59.538428 
L 122.296602 58.254475 
L 122.39809 59.624977 
L 122.499579 58.079881 
L 122.601067 59.931637 
L 122.702555 58.264775 
L 122.804044 58.476247 
L 122.905532 59.793923 
L 123.007021 57.954958 
L 123.108509 59.944262 
L 123.311486 58.257964 
L 123.412974 60.592136 
L 123.514462 58.610141 
L 123.615951 60.182148 
L 123.717439 58.498508 
L 123.818928 59.006839 
L 123.920416 60.333319 
L 124.021904 58.693866 
L 124.123393 60.422194 
L 124.326369 58.911818 
L 124.427858 60.658252 
L 124.529346 59.610524 
L 124.630835 60.620045 
L 124.732323 59.139736 
L 124.833811 59.432442 
L 124.9353 60.848628 
L 125.036788 58.715462 
L 125.138276 61.399154 
L 125.341253 59.565007 
L 125.442742 61.34151 
L 125.54423 59.669331 
L 125.645718 61.113425 
L 125.747207 59.556701 
L 125.848695 60.095267 
L 125.950183 61.484042 
L 126.051672 59.216817 
L 126.15316 61.753325 
L 126.356137 60.068023 
L 126.457625 61.69784 
L 126.559114 60.655096 
L 126.660602 61.195821 
L 126.863579 60.270857 
L 126.965067 62.201687 
L 127.066556 60.227832 
L 127.168044 62.174443 
L 127.371021 60.43864 
L 127.472509 62.518647 
L 127.573997 61.274231 
L 127.675486 61.827914 
L 127.878463 60.772046 
L 127.979951 62.407345 
L 128.081439 61.066247 
L 128.182928 62.46881 
L 128.284416 61.437528 
L 128.385904 61.497996 
L 128.487393 62.856371 
L 128.588881 62.007823 
L 128.69037 62.147365 
L 128.791858 61.989716 
L 128.893346 60.917734 
L 128.994835 62.77846 
L 129.197811 62.386912 
L 129.2993 61.856985 
L 129.603765 63.049571 
L 129.705253 62.264148 
L 130.111207 63.458894 
L 130.314184 62.582603 
L 130.51716 63.375335 
L 130.821625 63.119508 
L 130.923114 63.277489 
L 131.024602 64.182187 
L 131.126091 64.027029 
L 131.227579 63.233799 
L 131.532044 64.233518 
L 131.633532 64.17305 
L 131.836509 63.596276 
L 131.937998 63.74346 
L 132.039486 65.241045 
L 132.242463 64.038492 
L 132.343951 64.369239 
L 132.445439 63.963903 
L 132.546928 65.023758 
L 132.648416 64.895512 
L 132.851393 64.239 
L 132.952881 64.62706 
L 133.05437 65.547871 
L 133.155858 65.473947 
L 133.257346 64.603803 
L 133.6633 65.59505 
L 133.764788 65.016449 
L 133.866277 65.179248 
L 133.967765 65.00482 
L 134.069253 66.064675 
L 134.27223 65.771803 
L 134.373719 65.884267 
L 134.475207 65.634919 
L 134.678184 66.241927 
L 134.779672 65.39371 
L 134.88116 66.090756 
L 134.982649 65.912342 
L 135.185626 66.959737 
L 135.287114 66.305551 
L 135.388602 66.326482 
L 135.490091 66.251728 
L 135.591579 66.40024 
L 135.693067 67.022863 
L 135.794556 65.84473 
L 136.099021 67.972081 
L 136.301998 67.202773 
L 136.403486 67.172373 
L 136.504974 66.622012 
L 136.707951 67.779381 
L 136.80944 66.956083 
L 137.012416 67.402451 
L 137.113905 68.580086 
L 137.316881 67.776723 
L 137.41837 67.825562 
L 137.621347 67.528205 
L 137.722835 68.779764 
L 137.824323 67.206095 
L 138.128788 69.243409 
L 138.331765 68.485064 
L 138.433254 68.417951 
L 138.63623 68.524934 
L 138.737719 70.012053 
L 138.839207 68.018928 
L 139.143672 71.435049 
L 139.448137 69.932647 
L 139.549626 70.651953 
L 139.651114 70.094615 
L 139.752602 70.71076 
L 139.854091 69.891116 
L 139.955579 70.634676 
L 140.057068 70.233493 
L 140.158556 71.513292 
L 140.260044 70.484004 
L 140.361533 70.562745 
L 140.463021 70.094615 
L 140.767486 70.626204 
L 140.868975 69.75091 
L 141.17344 71.096327 
L 141.274928 70.307251 
L 141.376416 70.56125 
L 141.477905 69.956402 
L 141.680882 70.921734 
L 141.883858 70.079664 
L 142.086835 71.486713 
L 142.188323 72.243728 
L 142.289812 71.374581 
L 142.492789 71.726924 
L 142.594277 72.368153 
L 142.695765 71.317601 
L 142.797254 72.414501 
L 142.898742 72.175286 
L 143.203207 73.553098 
L 143.304696 73.06171 
L 143.507672 73.254079 
L 143.609161 73.760251 
L 143.710649 73.01719 
L 143.812137 73.986508 
L 143.913626 73.45492 
L 144.015114 74.756315 
L 144.116603 74.401978 
L 144.218091 74.968452 
L 144.319579 74.388356 
L 144.421068 74.792862 
L 144.522556 74.763458 
L 144.827021 75.702211 
L 144.92851 75.464159 
L 145.029998 76.346264 
L 145.131486 75.72281 
L 145.232975 76.868882 
L 145.334463 76.382478 
L 145.435951 76.478662 
L 145.53744 77.319071 
L 145.638928 76.06203 
L 145.841905 77.54782 
L 146.044882 77.535859 
L 146.349347 78.491556 
L 146.552324 78.099675 
L 146.7553 78.879283 
L 146.856789 79.759561 
L 146.958277 79.073645 
L 147.059765 79.354723 
L 147.161254 79.017995 
L 147.262742 80.372715 
L 147.364231 79.72534 
L 147.465719 80.566579 
L 147.567207 79.432302 
L 147.668696 80.373047 
L 147.770184 80.101439 
L 147.871672 81.5452 
L 147.973161 80.433682 
L 148.176138 81.027566 
L 148.277626 81.898707 
L 148.379114 81.396688 
L 148.480603 81.538888 
L 148.683579 82.783802 
L 148.785068 82.69692 
L 148.886556 83.152259 
L 148.988044 82.887628 
L 149.191021 84.10264 
L 149.29251 83.881034 
L 149.393998 84.718951 
L 149.495486 84.497511 
L 149.596975 85.530786 
L 149.698463 85.286588 
L 149.90144 85.762193 
L 150.104417 85.778141 
L 150.205905 86.260558 
L 150.307393 87.533546 
L 150.408882 87.107777 
L 150.51037 87.832731 
L 150.611858 87.78439 
L 150.713347 87.958817 
L 150.814835 87.907486 
L 151.1193 88.964683 
L 151.220789 88.706696 
L 151.322277 90.076367 
L 151.423765 89.940646 
L 151.525254 91.326265 
L 151.626742 90.702645 
L 151.728231 91.303506 
L 151.829719 90.956811 
L 152.134184 92.050555 
L 152.235672 91.934436 
L 152.438649 94.15631 
L 152.540138 93.992182 
L 152.641626 93.61409 
L 152.946091 94.925951 
L 153.047579 94.756839 
L 153.149068 94.354327 
L 153.453533 96.887347 
L 153.65651 96.042287 
L 153.960975 97.975774 
L 154.062463 96.903959 
L 154.26544 98.100531 
L 154.366928 99.69347 
L 154.468417 98.800733 
L 154.569905 99.205571 
L 154.671393 98.739102 
L 154.772882 99.342788 
L 154.87437 99.109221 
L 154.975859 99.804273 
L 155.077347 99.197764 
L 155.381812 101.36515 
L 155.4833 100.949847 
L 155.584789 101.27179 
L 155.686277 100.531719 
L 155.889254 101.560177 
L 155.990742 101.09105 
L 156.092231 102.054554 
L 156.193719 101.775138 
L 156.396696 102.92935 
L 156.498184 102.489626 
L 156.599673 102.753593 
L 156.701161 102.214197 
L 156.802649 103.429541 
L 156.904138 102.24576 
L 157.005626 102.535476 
L 157.208603 104.280582 
L 157.310091 103.064074 
L 157.41158 103.246974 
L 157.513068 102.783495 
L 157.716045 106.382184 
L 157.817533 104.575779 
L 158.121998 111.6587 
L 158.223487 109.389481 
L 158.324975 110.390861 
L 158.426463 110.211782 
L 158.527952 110.463954 
L 158.62944 113.100634 
L 158.730928 111.871501 
L 158.933905 116.665434 
L 159.035394 116.038491 
L 159.441347 117.812502 
L 159.542835 119.438997 
L 159.644324 118.809896 
L 159.847301 120.346353 
L 159.948789 123.332054 
L 160.050277 122.733684 
L 160.151766 123.403154 
L 160.253254 122.393634 
L 160.557719 126.359119 
L 160.659208 124.250539 
L 160.963673 129.865112 
L 161.065161 127.926308 
L 161.166649 130.267126 
L 161.268138 127.71035 
L 161.369626 130.611828 
L 161.471115 130.519796 
L 161.572603 132.363578 
L 161.674091 129.718593 
L 161.978556 135.050593 
L 162.080045 134.875501 
L 162.181533 134.37996 
L 162.485998 136.303481 
L 162.688975 136.99953 
L 162.99344 141.526505 
L 163.094929 139.749504 
L 163.196417 140.808694 
L 163.297905 140.365648 
L 163.60237 143.960517 
L 163.703859 143.081568 
L 163.906836 145.395972 
L 164.008324 147.442422 
L 164.109812 145.306765 
L 164.312789 146.985754 
L 164.414277 146.731256 
L 164.617254 150.129436 
L 164.718743 148.600122 
L 164.921719 150.622153 
L 165.023208 152.949348 
L 165.124696 151.724867 
L 165.226184 152.780735 
L 165.327673 152.44002 
L 165.53065 153.953054 
L 165.632138 155.833881 
L 165.733626 154.310879 
L 166.038091 158.854135 
L 166.13958 158.794996 
L 166.241068 157.536792 
L 166.444045 158.826891 
L 166.647022 161.631021 
L 166.74851 159.566796 
L 167.052975 165.042823 
L 167.154464 163.212497 
L 167.255952 164.614064 
L 167.35744 164.429669 
L 167.560417 166.627788 
L 167.661905 166.833779 
L 167.763394 168.024371 
L 167.864882 167.411051 
L 168.067859 170.313524 
L 168.169347 170.238271 
L 168.473812 172.225748 
L 168.575301 171.962114 
L 168.676789 174.102755 
L 168.778278 173.114 
L 169.082743 177.593797 
L 169.184231 176.525636 
L 169.285719 178.454638 
L 169.488696 178.203296 
L 169.590185 178.235026 
L 169.691673 180.888151 
L 169.793161 178.626076 
L 170.097626 184.388164 
L 170.199115 183.176474 
L 170.402092 183.39725 
L 170.50358 183.099394 
L 170.706557 186.27331 
L 170.808045 185.095841 
L 171.011022 186.654891 
L 171.11251 190.261222 
L 171.315487 188.974113 
L 171.416975 189.447061 
L 171.619952 190.789654 
L 171.72144 191.404636 
L 171.822929 191.228713 
L 172.025906 194.117399 
L 172.127394 196.179631 
L 172.228882 194.369903 
L 172.330371 195.641729 
L 172.431859 195.046682 
L 172.533347 196.792951 
L 172.634836 196.669357 
L 172.837813 197.793334 
L 172.939301 199.669178 
L 173.040789 198.387551 
L 173.142278 201.99438 
L 173.243766 200.871731 
L 173.446743 201.742373 
L 173.548231 201.489703 
L 173.751208 204.445169 
L 173.852696 203.755267 
L 174.360138 207.640848 
L 174.461627 207.243983 
L 174.664603 209.202721 
L 174.766092 210.840014 
L 174.86758 209.77285 
L 175.070557 211.876778 
L 175.172045 214.19683 
L 175.375022 213.17103 
L 175.577999 214.421593 
L 175.679487 214.307966 
L 175.780975 215.480617 
L 175.882464 212.492424 
L 175.983952 213.697303 
L 176.085441 212.978496 
L 176.186929 215.974496 
L 176.491394 213.600122 
L 176.592882 213.724713 
L 176.694371 214.167095 
L 176.897348 213.596634 
L 176.998836 213.784019 
L 177.100324 213.541149 
L 177.201813 216.470036 
L 177.303301 213.633679 
L 177.404789 215.165318 
L 177.709255 213.238476 
L 177.810743 215.216318 
L 177.912231 213.940671 
L 178.115208 214.233543 
L 178.216696 216.529009 
L 178.62265 214.273579 
L 178.825627 216.129155 
L 178.927115 213.117373 
L 179.130092 215.486597 
L 179.23158 217.351643 
L 179.434557 216.002903 
L 179.536045 216.352588 
L 179.637534 215.267815 
L 179.739022 216.332654 
L 179.84051 216.206235 
L 179.941999 214.969794 
L 180.246464 218.34073 
L 180.550929 216.586986 
L 180.652417 216.611572 
L 180.753906 217.907984 
L 180.956883 215.656041 
L 181.058371 218.40153 
L 181.159859 217.724253 
L 181.261348 218.905211 
L 181.565813 217.778243 
L 181.667301 217.339184 
L 181.870278 219.056713 
L 181.971766 217.425567 
L 182.276231 220.115738 
L 182.37772 219.460887 
L 182.479208 218.627123 
L 182.580697 219.250245 
L 182.682185 218.334916 
L 182.885162 219.617207 
L 182.98665 218.525125 
L 183.088138 218.656859 
L 183.189627 219.039271 
L 183.291115 221.32344 
L 183.494092 219.992475 
L 183.59558 219.150904 
L 183.697069 220.172551 
L 183.798557 219.952274 
L 183.900045 220.639186 
L 184.001534 219.435802 
L 184.103022 219.698274 
L 184.305999 221.228585 
L 184.407487 221.413146 
L 184.508976 220.784709 
L 184.610464 221.221774 
L 184.711952 220.905147 
L 184.813441 220.144144 
L 184.914929 221.36115 
L 185.016418 221.200677 
L 185.117906 220.03766 
L 185.320883 222.995287 
L 185.422371 222.521176 
L 185.523859 221.290715 
L 185.625348 221.585248 
L 185.726836 221.224598 
L 185.828325 222.511541 
L 186.031301 220.488016 
L 186.335766 223.806292 
L 186.437255 223.742667 
L 186.640232 222.123149 
L 186.74172 222.545596 
L 186.843208 222.407383 
L 186.944697 222.919037 
L 187.046185 222.385289 
L 187.147673 222.608224 
L 187.249162 223.278192 
L 187.35065 224.824782 
L 187.553627 223.611597 
L 187.655115 223.03283 
L 187.756604 223.120708 
L 188.061069 224.197175 
L 188.162557 224.328577 
L 188.264046 223.900316 
L 188.467022 224.887078 
L 188.568511 222.610549 
L 188.669999 224.531246 
L 188.771487 224.028562 
L 188.872976 226.93303 
L 188.974464 224.719129 
L 189.075953 225.365674 
L 189.278929 223.82008 
L 189.481906 226.183157 
L 189.583394 223.450792 
L 189.786371 226.078002 
L 189.88786 225.695092 
L 189.989348 225.953079 
L 190.192325 225.116325 
L 190.293813 225.250385 
L 190.395301 225.004692 
L 190.49679 225.439265 
L 190.598278 225.068981 
L 190.801255 225.978662 
L 190.902743 227.389033 
L 191.004232 225.552726 
L 191.10572 226.307416 
L 191.207208 224.817805 
L 191.308697 226.160731 
L 191.410185 225.405709 
L 191.511674 226.836181 
L 191.613162 225.128286 
L 191.816139 225.983812 
L 191.917627 228.030262 
L 192.120604 226.039794 
L 192.222092 226.016704 
L 192.323581 226.4546 
L 192.425069 226.281335 
L 192.526557 226.935189 
L 192.628046 225.296235 
L 192.831022 227.332385 
L 192.932511 226.853457 
L 193.033999 227.257132 
L 193.236976 226.048765 
L 193.338464 226.308413 
L 193.439953 227.129219 
L 193.642929 226.31755 
L 193.845906 227.306637 
L 193.947395 228.029099 
L 194.048883 227.066591 
L 194.150371 227.6226 
L 194.353348 226.183157 
L 194.556325 227.383883 
L 194.657813 225.670008 
L 194.962278 229.364549 
L 195.063767 227.163606 
L 195.165255 227.957334 
L 195.266743 226.137142 
L 195.46972 227.115929 
L 195.571209 226.913593 
L 195.672697 226.99898 
L 195.774185 228.355694 
L 195.875674 227.188857 
L 195.977162 228.942767 
L 196.180139 227.624261 
L 196.383116 226.884024 
L 196.586092 227.498341 
L 196.789069 227.766627 
L 196.890557 227.044497 
L 196.992046 230.036178 
L 197.093534 227.474087 
L 197.195023 228.035744 
L 197.296511 227.271917 
L 197.397999 227.738054 
L 197.600976 227.405147 
L 197.905441 228.125615 
L 198.00693 228.703884 
L 198.108418 228.600889 
L 198.311395 227.645857 
L 198.412883 227.80334 
L 198.514371 228.172628 
L 198.61586 227.299493 
L 198.818837 228.222963 
L 198.920325 228.060994 
L 199.021813 229.830021 
L 199.123302 227.450996 
L 199.22479 229.254078 
L 199.326278 227.442026 
L 199.427767 228.221634 
L 199.630744 227.516282 
L 199.732232 228.32629 
L 199.83372 228.263828 
L 199.935209 228.408354 
L 200.036697 229.273182 
L 200.138185 228.525968 
L 200.239674 229.064866 
L 200.341162 227.680576 
L 200.544139 227.997037 
L 200.747116 228.036907 
L 200.950092 228.809537 
L 201.051581 230.512116 
L 201.153069 228.207845 
L 201.254558 228.796082 
L 201.356046 227.228061 
L 201.457534 229.012206 
L 201.559023 227.796529 
L 201.863488 229.155734 
L 201.964976 228.659364 
L 202.066465 229.996475 
L 202.269441 228.045046 
L 202.37093 228.718337 
L 202.472418 228.354863 
L 202.573906 229.021841 
L 202.776883 227.881749 
L 202.878372 229.339465 
L 202.97986 229.224509 
L 203.182837 229.492297 
L 203.284325 227.877264 
L 203.385813 227.998699 
L 203.487302 229.490801 
L 203.791767 228.109335 
L 203.994744 229.423356 
L 204.096232 229.563563 
L 204.299209 228.513343 
L 204.400697 229.350595 
L 204.806651 227.870619 
L 205.009627 230.296324 
L 205.111116 229.733339 
L 205.212604 229.64463 
L 205.314093 228.289577 
L 205.517069 229.094436 
L 205.618558 229.398604 
L 205.720046 228.020294 
L 205.821534 228.055014 
L 205.923023 228.959047 
L 206.024511 231.164143 
L 206.227488 228.418321 
L 206.328976 228.988782 
L 206.531953 228.889774 
L 206.633441 229.430499 
L 206.73493 228.547232 
L 206.937907 229.312221 
L 207.039395 230.441016 
L 207.34386 228.565173 
L 207.648325 229.92687 
L 207.749814 228.059997 
L 207.851302 229.595624 
L 207.95279 228.87582 
L 208.054279 230.754986 
L 208.155767 229.226834 
L 208.257255 230.2327 
L 208.460232 228.558196 
L 208.663209 230.081529 
L 208.764697 228.454868 
L 208.866186 228.516001 
L 208.967674 229.32684 
L 209.069162 232.050899 
L 209.170651 229.114038 
L 209.272139 229.609578 
L 209.373628 228.84027 
L 209.576604 229.505586 
L 209.678093 230.74967 
L 209.779581 227.837893 
L 209.881069 229.528677 
L 209.982558 229.178161 
L 210.084046 232.052062 
L 210.185535 229.320859 
L 210.287023 230.037009 
L 210.388511 228.41583 
L 210.49 229.585158 
L 210.591488 229.379002 
L 210.692976 230.797014 
L 210.794465 227.78191 
L 210.895953 230.001293 
L 210.997442 229.941157 
L 211.09893 231.139557 
L 211.200418 229.598116 
L 211.301907 229.862747 
L 211.403395 229.304413 
L 211.504883 230.159606 
L 211.606372 229.256404 
L 211.70786 230.2327 
L 211.809349 230.157779 
L 212.012325 229.489306 
L 212.113814 229.75211 
L 212.215302 229.082641 
L 212.31679 231.137896 
L 212.418279 228.742424 
L 212.519767 229.713736 
L 212.621256 229.548778 
L 212.722744 231.70437 
L 212.824232 230.00312 
L 212.925721 230.241504 
L 213.027209 229.05357 
L 213.331674 231.431432 
L 213.433163 228.214989 
L 213.737628 231.558847 
L 213.839116 230.029699 
L 213.940604 230.898016 
L 214.042093 229.359565 
L 214.143581 229.877698 
L 214.24507 229.812579 
L 214.346558 231.635928 
L 214.448046 227.437042 
L 214.549535 230.942205 
L 214.651023 229.808426 
L 214.752511 232.363373 
L 215.056977 228.831964 
L 215.158465 230.771432 
L 215.259953 229.611572 
L 215.361442 230.517266 
L 215.46293 229.74613 
L 215.767395 231.479275 
L 215.868884 230.542018 
L 215.970372 231.155172 
L 216.07186 229.442626 
L 216.173349 230.390017 
L 216.274837 230.369584 
L 216.376325 230.594014 
L 216.477814 229.977039 
L 216.782279 232.140106 
L 216.985256 229.929196 
L 217.086744 231.46665 
L 217.188232 230.329881 
L 217.289721 230.977422 
L 217.492698 229.831184 
L 217.594186 230.301806 
L 217.695674 231.723308 
L 217.898651 230.610128 
L 218.101628 231.514493 
L 218.203116 230.003286 
L 218.304605 230.542018 
L 218.406093 231.698057 
L 218.507581 230.928915 
L 218.60907 231.075932 
L 218.710558 231.536089 
L 218.812046 231.019119 
L 218.913535 229.611572 
L 219.218 232.187119 
L 219.319488 230.851668 
L 219.522465 231.140886 
L 219.623953 231.15185 
L 219.725442 231.464158 
L 219.928419 230.324399 
L 220.131395 232.069671 
L 220.232884 232.654917 
L 220.43586 231.026594 
L 220.638837 231.278434 
L 220.740326 232.144259 
L 220.841814 229.580839 
L 221.146279 234.181074 
L 221.247767 231.054004 
L 221.349256 232.183132 
L 221.450744 230.809141 
L 221.552233 231.128261 
L 221.755209 232.269183 
L 221.856698 231.111981 
L 221.958186 231.451367 
L 222.059674 231.274281 
L 222.161163 233.665932 
L 222.465628 231.095202 
L 222.668605 232.506072 
L 222.770093 232.679336 
L 222.871581 231.323952 
L 223.074558 232.779508 
L 223.176047 230.331708 
L 223.277535 232.201737 
L 223.379023 231.61184 
L 223.480512 234.635084 
L 223.582 231.884611 
L 223.683488 232.768211 
L 223.987954 231.832615 
L 224.089442 233.517419 
L 224.19093 231.114306 
L 224.292419 232.576507 
L 224.393907 232.091765 
L 224.495395 234.681764 
L 224.596884 232.86722 
L 224.698372 232.966893 
L 224.799861 231.282421 
L 224.901349 233.538517 
L 225.002837 232.241274 
L 225.104326 232.642458 
L 225.205814 232.321677 
L 225.510279 234.332245 
L 225.611768 232.873865 
L 225.713256 232.95759 
L 225.814744 232.655249 
L 225.916233 233.950166 
L 226.017721 233.701648 
L 226.220698 232.474841 
L 226.423675 233.637027 
L 226.626651 232.229313 
L 226.829628 235.240099 
L 226.931116 233.546158 
L 227.032605 233.713442 
L 227.134093 233.200792 
L 227.438558 234.503184 
L 227.540047 231.254014 
L 227.641535 234.496041 
L 227.743023 233.023706 
L 227.844512 236.085657 
L 227.946 233.80564 
L 228.047489 234.432748 
L 228.148977 233.263419 
L 228.250465 233.781885 
L 228.351954 233.741351 
L 228.453442 233.872753 
L 228.55493 233.752315 
L 228.859396 235.506724 
L 228.960884 233.670251 
L 229.163861 234.391052 
L 229.265349 234.129244 
L 229.366837 234.511324 
L 229.468326 234.390886 
L 229.569814 233.521904 
L 229.772791 235.774511 
L 229.874279 234.837919 
L 229.975768 235.059691 
L 230.178744 234.123929 
L 230.381721 235.570182 
L 230.48321 233.126037 
L 230.787675 236.272045 
L 230.889163 235.08029 
L 230.990651 235.261694 
L 231.09214 234.275265 
L 231.193628 235.335785 
L 231.295117 234.423944 
L 231.396605 235.848768 
L 231.498093 233.375219 
L 231.802558 237.172755 
L 231.904047 235.377647 
L 232.005535 235.427484 
L 232.107024 234.141039 
L 232.208512 235.106537 
L 232.411489 234.812336 
L 232.614465 235.841957 
L 232.715954 235.377315 
L 232.817442 236.65645 
L 233.020419 234.938754 
L 233.223396 235.602077 
L 233.324884 235.729492 
L 233.527861 234.184065 
L 233.730838 236.556279 
L 234.035303 235.286945 
L 234.136791 235.544599 
L 234.238279 235.165676 
L 234.339768 236.198121 
L 234.441256 234.231409 
L 234.644233 235.599087 
L 234.745721 238.410526 
L 234.84721 235.527987 
L 234.948698 235.92103 
L 235.050186 234.695552 
L 235.354652 236.873072 
L 235.45614 234.073926 
L 235.760605 237.437553 
L 235.862093 235.846774 
L 235.963582 236.272211 
L 236.06507 234.818482 
L 236.268047 236.047449 
L 236.369535 235.716535 
L 236.471024 234.984936 
L 236.572512 236.422551 
L 236.674 236.373711 
L 236.775489 236.986866 
L 236.876977 236.050605 
L 236.978466 236.263739 
L 237.079954 235.703577 
L 237.181442 235.749593 
L 237.282931 236.31424 
L 237.485907 235.196741 
L 237.587396 235.322495 
L 237.688884 238.059678 
L 237.891861 235.767202 
L 237.993349 236.355106 
L 238.094838 235.527156 
L 238.196326 235.724343 
L 238.297814 236.397467 
L 238.399303 234.845228 
L 238.60228 235.782817 
L 238.703768 238.237096 
L 238.805256 236.136822 
L 238.906745 236.835197 
L 239.008233 234.797219 
L 239.21121 236.008576 
L 239.414187 235.193252 
L 239.617163 236.757452 
L 239.718652 236.642496 
L 239.921628 235.586794 
L 240.023117 235.604237 
L 240.226094 236.068214 
L 240.327582 235.495427 
L 240.42907 235.604901 
L 240.530559 234.549532 
L 240.632047 237.540881 
L 240.733535 236.039309 
L 240.835024 236.186825 
L 240.936512 236.081504 
L 241.038001 234.868319 
L 241.139489 235.283789 
L 241.240977 236.930218 
L 241.342466 234.39969 
L 241.545442 235.295085 
L 241.646931 238.131608 
L 241.849908 235.82684 
L 241.951396 234.648374 
L 242.052884 235.351234 
L 242.154373 234.718643 
L 242.255861 235.817869 
L 242.357349 234.845062 
L 242.560326 236.460261 
L 242.661815 235.287775 
L 242.864791 235.890298 
L 242.96628 234.208651 
L 243.067768 235.502072 
L 243.169256 235.475825 
L 243.270745 235.456389 
L 243.372233 234.385404 
L 243.57521 236.1639 
L 243.676698 236.06024 
L 243.778187 234.752864 
L 243.879675 235.681982 
L 243.981163 234.859514 
L 244.18414 235.735639 
L 244.285629 233.225378 
L 244.590094 237.106805 
L 244.79307 234.948722 
L 244.894559 234.097349 
L 245.199024 236.396304 
L 245.300512 233.415919 
L 245.402001 235.214682 
L 245.503489 234.156655 
L 245.604977 236.700971 
L 245.706466 234.842736 
L 245.807954 235.304886 
L 245.909443 234.304336 
L 246.112419 235.397914 
L 246.315396 234.084059 
L 246.619861 235.924685 
L 246.72135 235.534798 
L 246.924326 234.018608 
L 247.025815 235.326482 
L 247.228791 234.186224 
L 247.33028 234.543717 
L 247.431768 234.777949 
L 247.634745 236.03881 
L 247.93921 234.0819 
L 248.040698 235.18478 
L 248.142187 234.432416 
L 248.345164 234.829945 
L 248.446652 234.690901 
L 248.649629 235.869699 
L 248.852605 234.72778 
L 248.954094 234.553519 
L 249.157071 235.402565 
L 249.258559 233.968605 
L 249.461536 234.8233 
L 249.563024 236.409095 
L 249.664512 235.071319 
L 249.766001 235.429643 
L 249.867489 234.709008 
L 249.968978 235.089925 
L 250.070466 234.902872 
L 250.171954 233.950332 
L 250.476419 235.89063 
L 250.577908 236.609604 
L 250.679396 234.663325 
L 250.780885 234.996897 
L 250.882373 234.858351 
L 251.08535 235.145908 
L 251.186838 234.658009 
L 251.288326 234.834762 
L 251.389815 234.072265 
L 251.491303 236.935866 
L 251.795768 234.452185 
L 251.897257 235.394758 
L 251.998745 235.051385 
L 252.100233 236.113897 
L 252.201722 233.968439 
L 252.30321 235.191757 
L 252.404699 234.413312 
L 252.506187 237.396189 
L 252.709164 235.366185 
L 252.810652 234.512819 
L 252.91214 234.974138 
L 253.013629 236.425541 
L 253.115117 233.727895 
L 253.318094 235.998443 
L 253.521071 236.278856 
L 253.622559 236.089976 
L 253.724047 234.578271 
L 253.927024 235.717532 
L 254.028513 236.465743 
L 254.130001 234.365469 
L 254.231489 235.406552 
L 254.332978 234.87513 
L 254.434466 237.636733 
L 254.637443 235.807902 
L 254.84042 235.307544 
L 254.941908 235.43579 
L 255.043396 236.585848 
L 255.144885 234.368293 
L 255.246373 235.882324 
L 255.347861 235.627826 
L 255.44935 237.433234 
L 255.753815 234.492884 
L 255.855303 236.297794 
L 255.956792 236.242974 
L 256.05828 235.242092 
L 256.159768 235.416686 
L 256.362745 236.639506 
L 256.464234 237.046835 
L 256.565722 236.594321 
L 256.66721 235.134778 
L 256.768699 236.27952 
L 256.870187 236.082833 
L 256.971675 236.433017 
L 257.073164 235.160194 
L 257.174652 235.738795 
L 257.276141 235.287111 
L 257.377629 239.462241 
L 257.580606 236.046784 
L 257.783582 236.070041 
L 257.986559 236.681036 
L 258.189536 235.750424 
L 258.291024 237.323095 
L 258.392513 237.191361 
L 258.494001 236.293973 
L 258.595489 236.773233 
L 258.696978 236.246462 
L 258.798466 236.98155 
L 258.899955 236.825728 
L 259.102931 235.676832 
L 259.305908 238.095394 
L 259.508885 236.817422 
L 259.610373 236.715091 
L 259.711862 236.931879 
L 259.81335 235.887806 
L 259.914838 237.793884 
L 260.117815 236.117718 
L 260.219303 236.77423 
L 260.320792 239.005573 
L 260.42228 236.925401 
L 260.523769 237.842059 
L 260.625257 236.055921 
L 260.726745 237.536561 
L 260.828234 237.42011 
L 260.929722 236.717417 
L 261.132699 236.952478 
L 261.335676 238.452721 
L 261.741629 236.758282 
L 261.843117 237.826942 
L 261.944606 236.016052 
L 262.046094 237.5349 
L 262.147583 237.223256 
L 262.249071 238.523821 
L 262.553536 236.574054 
L 262.655024 237.039692 
L 262.756513 238.15553 
L 262.858001 236.199284 
L 263.060978 237.623609 
L 263.162466 238.119648 
L 263.263955 237.931432 
L 263.365443 238.009509 
L 263.56842 237.215283 
L 263.669908 237.506327 
L 263.771397 238.230617 
L 263.872885 236.257592 
L 264.17735 239.936684 
L 264.278838 237.501676 
L 264.380327 238.022633 
L 264.481815 237.043513 
L 264.583304 237.436224 
L 264.684792 237.3623 
L 264.78628 237.90452 
L 264.887769 236.690837 
L 264.989257 238.230617 
L 265.090745 237.568291 
L 265.192234 239.052586 
L 265.395211 237.180729 
L 265.496699 237.127404 
L 265.699676 238.771841 
L 265.801164 236.771074 
L 266.004141 237.658162 
L 266.105629 238.724994 
L 266.207118 238.694096 
L 266.308606 238.539271 
L 266.410094 236.783865 
L 266.714559 238.805231 
L 266.816048 235.41951 
L 267.019025 238.59542 
L 267.120513 239.213724 
L 267.222001 237.213455 
L 267.32349 238.797922 
L 267.424978 237.205149 
L 267.627955 237.91183 
L 267.830932 236.696818 
L 267.93242 240.48123 
L 268.033908 237.040523 
L 268.135397 237.996552 
L 268.338373 236.77124 
L 268.54135 237.901863 
L 268.642839 237.471276 
L 268.744327 239.798803 
L 268.947304 237.384228 
L 269.048792 237.685739 
L 269.15028 237.118766 
L 269.251769 238.741274 
L 269.454746 237.093017 
L 269.556234 237.574769 
L 269.657722 239.209072 
L 269.759211 237.789398 
L 269.860699 238.562029 
L 269.962187 237.287878 
L 270.165164 238.092902 
L 270.266653 236.871577 
L 270.368141 237.935917 
L 270.469629 237.430244 
L 270.571118 238.093068 
L 270.672606 239.671554 
L 270.875583 237.626599 
L 270.977071 237.127404 
L 271.180048 238.455711 
L 271.281536 237.206644 
L 271.383025 237.472937 
L 271.586001 239.450281 
L 271.68749 238.078948 
L 271.788978 238.116824 
L 271.890467 236.934205 
L 271.991955 238.39325 
L 272.093443 238.220483 
L 272.194932 236.35278 
L 272.29642 240.586883 
L 272.397908 237.672117 
L 272.499397 238.631468 
L 272.600885 237.373762 
L 272.702374 238.462855 
L 273.006839 237.2912 
L 273.209815 238.83696 
L 273.615769 238.147556 
L 273.717257 237.67627 
L 273.818746 238.855898 
L 273.920234 236.960286 
L 274.224699 239.694479 
L 274.529164 237.30233 
L 274.630653 238.676985 
L 274.935118 237.967148 
L 275.036606 238.025291 
L 275.239583 240.02639 
L 275.44256 238.253874 
L 275.544048 237.75335 
L 275.747025 238.791775 
L 275.848513 237.111124 
L 276.152978 240.404814 
L 276.254467 238.039245 
L 276.355955 238.716688 
L 276.457443 237.602179 
L 276.558932 238.902246 
L 276.66042 238.751574 
L 276.964885 237.778767 
L 277.066374 239.747638 
L 277.167862 238.230783 
L 277.26935 238.244073 
L 277.573816 239.647301 
L 277.675304 238.127289 
L 277.776792 238.729646 
L 277.878281 238.712037 
L 277.979769 238.414347 
L 278.081257 239.494137 
L 278.182746 237.326916 
L 278.487211 240.720611 
L 278.690188 238.831478 
L 278.791676 238.371986 
L 278.893164 238.821511 
L 278.994653 238.227128 
L 279.19763 238.942281 
L 279.299118 238.312183 
L 279.502095 240.029878 
L 279.705071 238.447239 
L 279.80656 238.399064 
L 280.009537 239.740329 
L 280.111025 237.610319 
L 280.41549 240.698683 
L 280.618467 238.86952 
L 280.719955 238.706389 
L 280.821444 239.4139 
L 281.02442 238.338928 
L 281.125909 238.549404 
L 281.328885 240.413951 
L 281.531862 238.973014 
L 281.633351 238.732138 
L 281.734839 239.778869 
L 281.937816 238.443418 
L 282.039304 238.858058 
L 282.242281 239.492309 
L 282.343769 240.739881 
L 282.445258 238.891282 
L 282.546746 239.002251 
L 282.648234 239.615073 
L 282.749723 239.181662 
L 282.851211 239.979876 
L 282.952699 237.680423 
L 283.054188 239.32436 
L 283.155676 239.014212 
L 283.257165 240.843707 
L 283.358653 239.359246 
L 283.460141 240.35747 
L 283.56163 238.560202 
L 283.764606 239.720892 
L 283.967583 238.656718 
L 284.17056 240.624427 
L 284.272048 239.729697 
L 284.373537 239.922896 
L 284.475025 238.654227 
L 284.678002 239.745977 
L 284.77949 240.477077 
L 284.880979 237.60002 
L 285.185444 240.658482 
L 285.489909 239.260902 
L 285.591397 239.18947 
L 285.692886 240.230055 
L 285.794374 238.532626 
L 285.895862 238.861214 
L 286.098839 241.650559 
L 286.200327 239.072188 
L 286.301816 240.307467 
L 286.403304 238.126625 
L 286.606281 239.92273 
L 286.707769 238.819185 
L 286.910746 240.05679 
L 287.012234 239.976886 
L 287.113723 240.273412 
L 287.215211 240.109783 
L 287.418188 239.241964 
L 287.519676 239.180665 
L 287.621165 240.975774 
L 287.722653 237.737568 
L 287.824141 239.757937 
L 287.92563 239.001088 
L 288.027118 242.094602 
L 288.128607 239.575204 
L 288.230095 240.356971 
L 288.331583 238.756225 
L 288.53456 240.28637 
L 288.737537 238.707219 
L 288.940514 241.172462 
L 289.14349 239.705609 
L 289.244979 239.617731 
L 289.346467 239.89831 
L 289.447955 239.3428 
L 289.549444 240.006289 
L 289.650932 238.688281 
L 289.853909 240.577415 
L 289.955397 240.584392 
L 290.158374 239.274524 
L 290.361351 240.156463 
L 290.462839 239.999478 
L 290.564328 238.716522 
L 290.665816 239.674378 
L 290.767304 239.53168 
L 290.868793 241.330941 
L 291.173258 239.353764 
L 291.274746 239.424199 
L 291.376235 239.789002 
L 291.579211 239.530185 
L 291.6807 239.538657 
L 291.782188 241.347554 
L 291.985165 239.973231 
L 292.086653 239.278843 
L 292.28963 239.936518 
L 292.391118 240.110613 
L 292.492607 238.870184 
L 292.695583 239.855119 
L 292.797072 241.174289 
L 292.89856 239.896815 
L 293.000049 240.230885 
L 293.101537 239.364396 
L 293.304514 239.946818 
L 293.406002 238.898757 
L 293.50749 239.887512 
L 293.608979 239.642483 
L 293.710467 241.219308 
L 293.811956 239.75528 
L 293.913444 240.100812 
L 294.014932 238.763867 
L 294.116421 240.593861 
L 294.319397 239.536331 
L 294.420886 239.129168 
L 294.522374 239.205418 
L 294.623862 241.488757 
L 294.725351 241.103687 
L 294.826839 239.517227 
L 294.928328 239.537993 
L 295.029816 239.206746 
L 295.232793 240.093835 
L 295.334281 238.102205 
L 295.537258 240.335043 
L 295.638746 241.051193 
L 295.841723 239.336155 
L 295.943211 240.245006 
L 296.146188 239.620555 
L 296.247676 238.60356 
L 296.349165 239.706772 
L 296.450653 239.261733 
L 296.552142 242.116364 
L 296.65363 239.683681 
L 296.755118 239.711091 
L 296.856607 239.718234 
L 296.958095 239.327849 
L 297.059583 239.917746 
L 297.161072 238.823172 
L 297.26256 239.339644 
L 297.364049 239.224854 
L 297.465537 241.37214 
L 297.668514 239.95828 
L 297.87149 239.136477 
L 298.074467 239.532012 
L 298.175956 239.486163 
L 298.277444 239.244954 
L 298.378932 240.645026 
L 298.480421 240.248992 
L 298.581909 239.272863 
L 298.683397 240.090679 
L 298.886374 239.048267 
L 298.987863 240.035693 
L 299.089351 237.607994 
L 299.190839 240.011439 
L 299.292328 239.613412 
L 299.393816 241.201865 
L 299.596793 239.283495 
L 299.698281 239.184652 
L 299.79977 239.436326 
L 299.901258 240.793539 
L 300.002746 238.168654 
L 300.104235 238.55771 
L 300.307211 241.696575 
L 300.4087 239.27469 
L 300.510188 239.87306 
L 300.611677 239.021189 
L 300.713165 239.72272 
L 300.916142 239.193623 
L 301.01763 238.048216 
L 301.220607 241.278115 
L 301.423584 239.439317 
L 301.525072 238.915203 
L 301.728049 239.525866 
L 301.829537 239.053084 
L 301.931025 239.432838 
L 302.032514 239.079497 
L 302.134002 240.525419 
L 302.235491 239.537827 
L 302.336979 240.651006 
L 302.539956 238.905734 
L 302.742932 239.865916 
L 302.844421 237.880433 
L 303.148886 240.780249 
L 303.351863 239.049928 
L 303.453351 239.8101 
L 303.554839 239.433502 
L 303.656328 240.083037 
L 303.757816 237.927113 
L 303.960793 238.996104 
L 304.062281 242.022837 
L 304.16377 239.508755 
L 304.265258 239.973231 
L 304.366746 238.208523 
L 304.569723 239.562911 
L 304.671212 238.947929 
L 304.874188 239.196447 
L 304.975677 241.195552 
L 305.178653 239.117705 
L 305.280142 239.560253 
L 305.686095 238.805065 
L 305.787584 238.805729 
L 305.889072 240.856831 
L 306.193537 238.872344 
L 306.295026 239.056739 
L 306.396514 239.100429 
L 306.498002 239.867744 
L 306.599491 238.321153 
L 306.700979 239.71973 
L 307.005444 238.510698 
L 307.106933 239.603278 
L 307.208421 239.470547 
L 307.309909 240.517943 
L 307.512886 238.909223 
L 307.614374 239.144451 
L 307.715863 239.017036 
L 307.817351 240.589375 
L 307.91884 237.754347 
L 308.020328 239.029163 
L 308.121816 238.867693 
L 308.223305 241.318316 
L 308.426281 238.83181 
L 308.52777 239.131493 
L 308.629258 239.074182 
L 308.730747 239.911434 
L 308.832235 237.916647 
L 309.1367 241.083088 
L 309.238188 238.458203 
L 309.339677 239.850467 
L 309.441165 238.71619 
L 309.644142 239.283162 
L 309.74563 238.115329 
L 309.948607 239.095611 
L 310.050095 241.18409 
L 310.253072 238.821677 
L 310.354561 238.714861 
L 310.659026 239.149933 
L 310.760514 238.423318 
L 310.862002 238.494584 
L 310.963491 241.158009 
L 311.064979 239.116376 
L 311.166468 239.368549 
L 311.267956 239.28582 
L 311.572421 238.240086 
L 311.673909 238.459366 
L 311.876886 240.513292 
L 312.079863 239.352435 
L 312.181351 238.589107 
L 312.384328 239.032153 
L 312.587305 238.736124 
L 312.688793 238.716854 
L 312.790282 239.885519 
L 312.993258 239.651952 
L 313.196235 238.379794 
L 313.399212 239.548292 
L 313.5007 237.732585 
L 313.703677 239.487492 
L 313.805165 239.559588 
L 313.906654 238.810547 
L 314.008142 239.468388 
L 314.10963 238.592928 
L 314.312607 239.440978 
L 314.414096 237.707002 
L 314.515584 238.165996 
L 314.718561 240.674263 
L 314.921537 238.26733 
L 315.023026 239.178506 
L 315.124514 239.107572 
L 315.226003 239.519553 
L 315.327491 237.673778 
L 315.631956 240.576252 
L 315.834933 238.909887 
L 315.936421 239.031156 
L 316.03791 238.71702 
L 316.139398 239.413402 
L 316.240886 238.123635 
L 316.342375 238.960222 
L 316.443863 238.701571 
L 316.545351 241.226949 
L 316.64684 239.284657 
L 316.748328 239.504934 
L 316.951305 238.337433 
L 317.052793 240.58788 
L 317.154282 238.07413 
L 317.25577 238.369827 
L 317.357258 239.221531 
L 317.458747 241.157345 
L 317.560235 239.247612 
L 317.661724 239.741824 
L 317.763212 237.643045 
L 317.8647 239.312067 
L 317.966189 239.237977 
L 318.169165 238.706721 
L 318.270654 239.041788 
L 318.372142 241.078437 
L 318.473631 239.372536 
L 318.575119 239.604773 
L 318.676607 238.544586 
L 318.778096 238.638611 
L 318.879584 239.514736 
L 318.981072 238.832641 
L 319.082561 238.891946 
L 319.184049 238.584289 
L 319.285538 241.714516 
L 319.387026 239.102256 
L 319.488514 239.831861 
L 319.590003 238.435611 
L 319.894468 239.407587 
L 320.097445 238.322814 
L 320.198933 241.661357 
L 320.300421 239.129832 
L 320.40191 239.531182 
L 320.604886 238.401057 
L 320.706375 239.545302 
L 320.807863 239.459749 
L 320.909352 238.060509 
L 321.112328 241.085414 
L 321.315305 239.177177 
L 321.416793 239.228508 
L 321.61977 239.856614 
L 321.721259 238.406872 
L 321.924235 239.8709 
L 322.025724 239.622382 
L 322.127212 237.789564 
L 322.2287 239.387985 
L 322.330189 239.174685 
L 322.431677 240.816629 
L 322.634654 238.687119 
L 322.939119 239.39247 
L 323.040607 238.388931 
L 323.142096 239.235652 
L 323.243584 238.927995 
L 323.345073 241.313997 
L 323.548049 238.768186 
L 323.649538 239.728036 
L 323.751026 239.701456 
L 323.852514 239.176679 
L 323.954003 238.037252 
L 324.258468 241.168309 
L 324.461445 238.863207 
L 324.562933 238.725493 
L 324.664421 239.763586 
L 324.867398 239.556764 
L 324.968887 239.600288 
L 325.171863 238.779648 
L 325.37484 240.137193 
L 325.476328 237.260966 
L 325.679305 239.418717 
L 325.780794 240.524422 
L 326.085259 238.823172 
L 326.186747 239.108569 
L 326.288235 240.209622 
L 326.389724 237.795213 
L 326.491212 239.464401 
L 326.592701 238.874171 
L 326.694189 240.831414 
L 326.897166 238.395908 
L 326.998654 239.82721 
L 327.100142 239.140298 
L 327.201631 239.683847 
L 327.303119 237.546861 
L 327.404608 239.905786 
L 327.506096 238.748916 
L 327.607584 240.945374 
L 327.810561 237.663312 
L 327.912049 241.200536 
L 328.013538 239.220036 
L 328.115026 239.904955 
L 328.216515 237.547027 
L 328.419491 239.729032 
L 328.52098 238.232444 
L 328.723956 239.225352 
L 328.825445 240.80035 
L 328.926933 239.430346 
L 329.028422 240.017751 
L 329.12991 238.274805 
L 329.231398 238.80141 
L 329.332887 240.556982 
L 329.434375 237.893889 
L 329.637352 239.456593 
L 329.73884 241.138074 
L 329.840329 238.911881 
L 329.941817 239.126011 
L 330.043305 239.885353 
L 330.144794 238.921848 
L 330.246282 239.912929 
L 330.449259 238.046554 
L 330.652236 241.027604 
L 330.753724 239.012551 
L 330.855212 239.876216 
L 331.058189 238.944607 
L 331.159677 239.212229 
L 331.261166 238.682467 
L 331.464143 238.907063 
L 331.565631 241.421478 
L 331.667119 239.275355 
L 331.768608 239.285322 
L 331.870096 238.88879 
L 332.073073 239.416558 
L 332.174561 238.069147 
L 332.27605 239.440812 
L 332.377538 238.879986 
L 332.479026 241.324795 
L 332.783491 238.702402 
L 332.88498 239.832028 
L 332.986468 239.52952 
L 333.087957 237.884918 
L 333.392422 241.335261 
L 333.595398 239.00956 
L 333.696887 238.549404 
L 333.899864 239.885186 
L 334.001352 237.810496 
L 334.305817 240.946536 
L 334.508794 238.7436 
L 334.813259 239.956286 
L 334.914747 237.720956 
L 335.219212 241.071958 
L 335.320701 239.052918 
L 335.422189 239.213557 
L 335.523678 239.075178 
L 335.625166 239.839005 
L 335.726654 239.629692 
L 335.828143 237.799033 
L 335.929631 239.521547 
L 336.031119 239.039462 
L 336.132608 240.901351 
L 336.335585 237.435892 
L 336.538561 240.289194 
L 336.64005 239.084149 
L 336.741538 239.385659 
L 336.944515 238.574156 
L 337.046003 240.358633 
L 337.147492 238.421823 
L 337.24898 239.040791 
L 337.350468 240.413951 
L 337.451957 240.180052 
L 337.553445 238.985805 
L 337.654933 239.047934 
L 337.85791 238.753401 
L 337.959399 239.811262 
L 338.060887 238.737287 
L 338.365352 240.603496 
L 338.568329 238.594257 
L 338.771306 239.300439 
L 338.872794 238.550235 
L 339.177259 240.171414 
L 339.278747 239.523872 
L 339.380236 240.34202 
L 339.481724 237.9718 
L 339.684701 239.524371 
L 339.786189 238.589439 
L 339.887678 238.726988 
L 340.090654 239.894157 
L 340.293631 240.031706 
L 340.39512 238.440761 
L 340.496608 238.770512 
L 340.598096 239.491645 
L 340.699585 239.428353 
L 340.801073 238.723665 
L 340.902561 238.924672 
L 341.00405 240.85816 
L 341.410003 238.528307 
L 341.511492 239.76126 
L 341.61298 239.72272 
L 341.714468 238.177956 
L 341.815957 238.972183 
L 341.917445 241.911038 
L 342.120422 238.986469 
L 342.22191 238.95175 
L 342.323399 239.417721 
L 342.627864 238.59027 
L 342.729352 239.421043 
L 342.830841 241.803557 
L 342.932329 239.370708 
L 343.033817 239.935521 
L 343.135306 238.135762 
L 343.338282 239.846812 
L 343.439771 238.636285 
L 343.541259 238.874171 
L 343.744236 240.77676 
L 343.845724 239.057902 
L 343.947213 240.601502 
L 344.048701 238.380126 
L 344.150189 238.571498 
L 344.251678 240.90999 
L 344.353166 238.138087 
L 344.657631 241.865852 
L 344.75912 238.864204 
L 344.962096 239.491977 
L 345.063585 239.418385 
L 345.165073 240.113936 
L 345.266562 238.511528 
L 345.469538 239.254756 
L 345.571027 241.449386 
L 345.774003 239.031654 
L 345.875492 239.556931 
L 345.97698 239.456261 
L 346.078469 239.900304 
L 346.179957 238.347068 
L 346.484422 241.300043 
L 346.687399 238.753899 
L 346.788887 238.854735 
L 346.991864 240.681573 
L 347.093352 237.803851 
L 347.296329 240.378235 
L 347.397817 240.459302 
L 347.600794 239.527361 
L 347.702283 239.601285 
L 347.803771 238.890119 
L 347.905259 239.433668 
L 348.006748 239.328015 
L 348.311213 240.5108 
L 348.51419 239.259573 
L 348.615678 239.677867 
L 348.818655 238.978496 
L 348.920143 239.811429 
L 349.021631 239.409747 
L 349.12312 240.726592 
L 349.326097 240.111278 
L 349.427585 238.222809 
L 349.529073 239.989511 
L 349.630562 239.058566 
L 349.73205 240.154635 
L 349.935027 238.736623 
L 350.036515 241.935291 
L 350.138004 239.521713 
L 350.239492 240.381557 
L 350.34098 238.517509 
L 350.442469 239.075178 
L 350.543957 240.688384 
L 350.746934 238.406706 
L 350.949911 241.51517 
L 351.051399 239.692818 
L 351.152887 240.3583 
L 351.254376 238.120146 
L 351.355864 240.249989 
L 351.558841 238.417171 
L 351.660329 240.132874 
L 351.761818 239.602614 
L 351.863306 241.678634 
L 352.066283 238.954574 
L 352.269259 239.733518 
L 352.370748 239.738335 
L 352.472236 238.40737 
L 352.776701 240.702836 
L 352.87819 240.116095 
L 352.979678 238.824999 
L 353.081166 239.230668 
L 353.284143 240.574923 
L 353.385632 238.334941 
L 353.690097 241.35669 
L 353.791585 239.383167 
L 353.893073 239.728202 
L 354.09605 238.890617 
L 354.299027 239.951801 
L 354.400515 239.430678 
L 354.603492 240.972617 
L 354.806469 239.048267 
L 354.907957 239.835184 
L 355.110934 238.664692 
L 355.212422 240.092008 
L 355.313911 239.220036 
L 355.415399 241.122625 
L 355.516887 239.699961 
L 355.618376 240.695195 
L 355.719864 238.672168 
L 355.821353 239.883027 
L 356.125818 238.989792 
L 356.227306 239.183323 
L 356.328794 241.497229 
L 356.430283 239.214056 
L 356.531771 240.924774 
L 356.63326 239.116709 
L 356.734748 239.32868 
L 356.836236 240.528741 
L 356.937725 238.189585 
L 357.24219 241.952236 
L 357.343678 239.211232 
L 357.445167 239.252264 
L 357.546655 240.290689 
L 357.648143 239.256251 
L 357.749632 240.255637 
L 357.85112 238.945437 
L 358.155585 240.831414 
L 358.358562 239.112556 
L 358.561539 240.020243 
L 358.663027 240.497012 
L 358.764515 238.539769 
L 358.967492 240.148323 
L 359.068981 237.885084 
L 359.170469 240.301487 
L 359.271957 239.440479 
L 359.373446 241.246552 
L 359.474934 239.675707 
L 359.576422 239.71973 
L 359.677911 239.747804 
L 359.779399 238.859719 
L 359.880888 240.301487 
L 359.982376 238.228956 
L 360.083864 240.306803 
L 360.185353 239.508091 
L 360.286841 240.929426 
L 360.489818 239.139966 
L 360.692795 239.722387 
L 360.794283 239.64431 
L 360.895771 238.411025 
L 361.098748 241.682454 
L 361.200236 239.630855 
L 361.301725 239.699961 
L 361.504702 239.022019 
L 361.60619 239.780364 
L 361.707678 238.79543 
L 361.809167 239.501446 
L 361.910655 238.726489 
L 362.012143 241.318648 
L 362.113632 239.549787 
L 362.21512 240.225735 
L 362.316609 238.847924 
L 362.519585 239.640988 
L 362.722562 239.053416 
L 362.82405 239.107074 
L 362.925539 241.029597 
L 363.230004 238.764531 
L 363.331492 239.007069 
L 363.534469 240.000973 
L 363.737446 238.867194 
L 363.838934 239.61607 
L 363.940423 239.047602 
L 364.041911 240.348001 
L 364.143399 238.146559 
L 364.346376 240.483224 
L 364.447864 239.726042 
L 364.549353 240.395844 
L 364.650841 238.506877 
L 364.75233 239.62205 
L 364.853818 238.369494 
L 364.955306 239.201431 
L 365.056795 238.865533 
L 365.158283 239.139301 
L 365.259771 241.918679 
L 365.36126 238.888292 
L 365.462748 239.4443 
L 365.564237 238.603726 
L 365.767213 239.627532 
L 365.868702 237.340538 
L 365.97019 241.455699 
L 366.071678 238.432621 
L 366.173167 239.432173 
L 366.274655 238.493753 
L 366.376144 238.778485 
L 366.477632 238.599739 
L 366.57912 241.237249 
L 366.782097 238.425976 
L 366.985074 239.367386 
L 367.086562 240.541034 
L 367.188051 237.136707 
L 367.391027 239.418551 
L 367.492516 240.161613 
L 367.695492 238.810879 
L 367.796981 238.932978 
L 367.898469 238.498072 
L 367.999958 238.529469 
L 368.202934 239.014876 
L 368.304423 240.099815 
L 368.405911 238.848921 
L 368.507399 240.210785 
L 368.710376 237.498021 
L 368.811865 240.105962 
L 368.913353 238.996271 
L 369.014841 236.44614 
L 369.11633 241.501216 
L 369.319306 237.252328 
L 369.420795 241.016307 
L 369.522283 237.667133 
L 369.623772 239.728368 
L 369.826748 237.621948 
L 369.928237 240.482891 
L 370.029725 236.616747 
L 370.131213 239.515732 
L 370.232702 239.227512 
L 370.33419 236.615086 
L 370.435679 241.929809 
L 370.537167 236.923739 
L 370.638655 239.683681 
L 370.740144 238.919855 
L 370.841632 236.036817 
L 370.94312 241.713685 
L 371.146097 237.349509 
L 371.247586 240.539705 
L 371.349074 237.071421 
L 371.450562 240.375079 
L 371.653539 235.677829 
L 371.755027 240.813639 
L 371.856516 237.685739 
L 372.059493 239.028 
L 372.160981 237.367616 
L 372.262469 240.4701 
L 372.363958 237.32376 
L 372.465446 237.895052 
L 372.566934 240.010608 
L 372.668423 235.574003 
L 372.769911 240.53904 
L 372.972888 236.559269 
L 373.074376 240.899026 
L 373.175865 237.553007 
L 373.277353 239.843656 
L 373.48033 235.869367 
L 373.581818 241.136413 
L 373.581818 241.136413 
" style="fill:none;stroke:#081d58;stroke-dasharray:5.55,2.4;stroke-dashoffset:0;stroke-width:1.5;"/>
    <defs>
     <path d="M -0 4.242641 
L 4.242641 0 
L 0 -4.242641 
L -4.242641 -0 
z
" id="m71acf3592d" style="stroke:#081d58;stroke-linejoin:miter;"/>
    </defs>
    <g clip-path="url(#pd22c429143)">
     <use style="fill:#081d58;stroke:#081d58;stroke-linejoin:miter;" x="69.218182" xlink:href="#m71acf3592d" y="45.591536"/>
     <use style="fill:#081d58;stroke:#081d58;stroke-linejoin:miter;" x="77.337252" xlink:href="#m71acf3592d" y="46.405697"/>
     <use style="fill:#081d58;stroke:#081d58;stroke-linejoin:miter;" x="85.456322" xlink:href="#m71acf3592d" y="48.285527"/>
     <use style="fill:#081d58;stroke:#081d58;stroke-linejoin:miter;" x="93.575392" xlink:href="#m71acf3592d" y="49.183081"/>
     <use style="fill:#081d58;stroke:#081d58;stroke-linejoin:miter;" x="101.694462" xlink:href="#m71acf3592d" y="51.782217"/>
     <use style="fill:#081d58;stroke:#081d58;stroke-linejoin:miter;" x="109.813532" xlink:href="#m71acf3592d" y="53.215015"/>
     <use style="fill:#081d58;stroke:#081d58;stroke-linejoin:miter;" x="117.932602" xlink:href="#m71acf3592d" y="56.725659"/>
     <use style="fill:#081d58;stroke:#081d58;stroke-linejoin:miter;" x="126.051672" xlink:href="#m71acf3592d" y="59.216817"/>
     <use style="fill:#081d58;stroke:#081d58;stroke-linejoin:miter;" x="134.170742" xlink:href="#m71acf3592d" y="65.809346"/>
     <use style="fill:#081d58;stroke:#081d58;stroke-linejoin:miter;" x="142.289812" xlink:href="#m71acf3592d" y="71.374581"/>
     <use style="fill:#081d58;stroke:#081d58;stroke-linejoin:miter;" x="150.408882" xlink:href="#m71acf3592d" y="87.107777"/>
     <use style="fill:#081d58;stroke:#081d58;stroke-linejoin:miter;" x="158.527952" xlink:href="#m71acf3592d" y="110.463954"/>
     <use style="fill:#081d58;stroke:#081d58;stroke-linejoin:miter;" x="166.647022" xlink:href="#m71acf3592d" y="161.631021"/>
     <use style="fill:#081d58;stroke:#081d58;stroke-linejoin:miter;" x="174.766092" xlink:href="#m71acf3592d" y="210.840014"/>
     <use style="fill:#081d58;stroke:#081d58;stroke-linejoin:miter;" x="182.885162" xlink:href="#m71acf3592d" y="219.617207"/>
     <use style="fill:#081d58;stroke:#081d58;stroke-linejoin:miter;" x="191.004232" xlink:href="#m71acf3592d" y="225.552726"/>
     <use style="fill:#081d58;stroke:#081d58;stroke-linejoin:miter;" x="199.123302" xlink:href="#m71acf3592d" y="227.450996"/>
     <use style="fill:#081d58;stroke:#081d58;stroke-linejoin:miter;" x="207.242372" xlink:href="#m71acf3592d" y="229.458906"/>
     <use style="fill:#081d58;stroke:#081d58;stroke-linejoin:miter;" x="215.361442" xlink:href="#m71acf3592d" y="230.517266"/>
     <use style="fill:#081d58;stroke:#081d58;stroke-linejoin:miter;" x="223.480512" xlink:href="#m71acf3592d" y="234.635084"/>
     <use style="fill:#081d58;stroke:#081d58;stroke-linejoin:miter;" x="231.599582" xlink:href="#m71acf3592d" y="234.788248"/>
     <use style="fill:#081d58;stroke:#081d58;stroke-linejoin:miter;" x="239.718652" xlink:href="#m71acf3592d" y="236.642496"/>
     <use style="fill:#081d58;stroke:#081d58;stroke-linejoin:miter;" x="247.837722" xlink:href="#m71acf3592d" y="235.034108"/>
     <use style="fill:#081d58;stroke:#081d58;stroke-linejoin:miter;" x="255.956792" xlink:href="#m71acf3592d" y="236.242974"/>
     <use style="fill:#081d58;stroke:#081d58;stroke-linejoin:miter;" x="264.075862" xlink:href="#m71acf3592d" y="237.414794"/>
     <use style="fill:#081d58;stroke:#081d58;stroke-linejoin:miter;" x="272.194932" xlink:href="#m71acf3592d" y="236.35278"/>
     <use style="fill:#081d58;stroke:#081d58;stroke-linejoin:miter;" x="280.314002" xlink:href="#m71acf3592d" y="239.306087"/>
     <use style="fill:#081d58;stroke:#081d58;stroke-linejoin:miter;" x="288.433072" xlink:href="#m71acf3592d" y="239.746807"/>
     <use style="fill:#081d58;stroke:#081d58;stroke-linejoin:miter;" x="296.552142" xlink:href="#m71acf3592d" y="242.116364"/>
     <use style="fill:#081d58;stroke:#081d58;stroke-linejoin:miter;" x="304.671212" xlink:href="#m71acf3592d" y="238.947929"/>
     <use style="fill:#081d58;stroke:#081d58;stroke-linejoin:miter;" x="312.790282" xlink:href="#m71acf3592d" y="239.885519"/>
     <use style="fill:#081d58;stroke:#081d58;stroke-linejoin:miter;" x="320.909352" xlink:href="#m71acf3592d" y="238.060509"/>
     <use style="fill:#081d58;stroke:#081d58;stroke-linejoin:miter;" x="329.028422" xlink:href="#m71acf3592d" y="240.017751"/>
     <use style="fill:#081d58;stroke:#081d58;stroke-linejoin:miter;" x="337.147492" xlink:href="#m71acf3592d" y="238.421823"/>
     <use style="fill:#081d58;stroke:#081d58;stroke-linejoin:miter;" x="345.266562" xlink:href="#m71acf3592d" y="238.511528"/>
     <use style="fill:#081d58;stroke:#081d58;stroke-linejoin:miter;" x="353.385632" xlink:href="#m71acf3592d" y="238.334941"/>
     <use style="fill:#081d58;stroke:#081d58;stroke-linejoin:miter;" x="361.504702" xlink:href="#m71acf3592d" y="239.022019"/>
     <use style="fill:#081d58;stroke:#081d58;stroke-linejoin:miter;" x="369.623772" xlink:href="#m71acf3592d" y="239.728368"/>
    </g>
   </g>
   <g id="patch_3">
    <path d="M 54 252 
L 54 34.56 
" style="fill:none;stroke:#000000;stroke-linecap:square;stroke-linejoin:miter;stroke-width:0.8;"/>
   </g>
   <g id="patch_4">
    <path d="M 388.8 252 
L 388.8 34.56 
" style="fill:none;stroke:#000000;stroke-linecap:square;stroke-linejoin:miter;stroke-width:0.8;"/>
   </g>
   <g id="patch_5">
    <path d="M 54 252 
L 388.8 252 
" style="fill:none;stroke:#000000;stroke-linecap:square;stroke-linejoin:miter;stroke-width:0.8;"/>
   </g>
   <g id="patch_6">
    <path d="M 54 34.56 
L 388.8 34.56 
" style="fill:none;stroke:#000000;stroke-linecap:square;stroke-linejoin:miter;stroke-width:0.8;"/>
   </g>
   <g id="legend_1">
    <g id="patch_7">
     <path d="M 280.085938 71.91625 
L 381.8 71.91625 
Q 383.8 71.91625 383.8 69.91625 
L 383.8 41.56 
Q 383.8 39.56 381.8 39.56 
L 280.085938 39.56 
Q 278.085938 39.56 278.085938 41.56 
L 278.085938 69.91625 
Q 278.085938 71.91625 280.085938 71.91625 
z
" style="fill:#ffffff;opacity:0.8;stroke:#cccccc;stroke-linejoin:miter;"/>
    </g>
    <g id="line2d_15">
     <path d="M 282.085938 47.658437 
L 302.085938 47.658437 
" style="fill:none;stroke:#40b5c4;stroke-dasharray:5.55,2.4;stroke-dashoffset:0;stroke-width:1.5;"/>
    </g>
    <g id="line2d_16">
     <g>
      <use style="fill:#40b5c4;stroke:#40b5c4;" x="292.085938" xlink:href="#mbfd160b1b5" y="47.658437"/>
     </g>
    </g>
    <g id="text_15">
     <text style="font-family:DejaVu Sans;font-size:10px;font-style:normal;font-weight:normal;text-anchor:start;" transform="rotate(-0, 310.085938, 51.158437)" x="310.085938" y="51.158437">original</text>
    </g>
    <g id="line2d_17">
     <path d="M 282.085938 62.336562 
L 302.085938 62.336562 
" style="fill:none;stroke:#081d58;stroke-dasharray:5.55,2.4;stroke-dashoffset:0;stroke-width:1.5;"/>
    </g>
    <g id="line2d_18">
     <g>
      <use style="fill:#081d58;stroke:#081d58;stroke-linejoin:miter;" x="292.085938" xlink:href="#m71acf3592d" y="62.336562"/>
     </g>
    </g>
    <g id="text_16">
     <text style="font-family:DejaVu Sans;font-size:10px;font-style:normal;font-weight:normal;text-anchor:start;" transform="rotate(-0, 310.085938, 65.836562)" x="310.085938" y="65.836562">reconstructed</text>
    </g>
   </g>
  </g>
  <g id="text_17">
   <text style="font-family:DejaVu Sans;font-size:12px;font-style:normal;font-weight:normal;text-anchor:middle;" transform="rotate(-0, 216, 14.878125)" x="216" y="14.878125">Reconstruction of the weight curve</text>
  </g>
 </g>
 <defs>
  <clipPath id="pd22c429143">
   <rect height="217.44" width="334.8" x="54" y="34.56"/>
  </clipPath>
 </defs>
</svg>
