<?xml version="1.0" encoding="utf-8" standalone="no"?>
<!DOCTYPE svg PUBLIC "-//W3C//DTD SVG 1.1//EN"
  "http://www.w3.org/Graphics/SVG/1.1/DTD/svg11.dtd">
<!-- Created with matplotlib (https://matplotlib.org/) -->
<svg height="288pt" version="1.1" viewBox="0 0 432 288" width="432pt" xmlns="http://www.w3.org/2000/svg" xmlns:xlink="http://www.w3.org/1999/xlink">
 <defs>
  <style type="text/css">
*{stroke-linecap:butt;stroke-linejoin:round;}
  </style>
 </defs>
 <g id="figure_1">
  <g id="patch_1">
   <path d="M 0 288 
L 432 288 
L 432 0 
L 0 0 
z
" style="fill:#ffffff;"/>
  </g>
  <g id="axes_1">
   <g id="patch_2">
    <path d="M 54 252 
L 388.8 252 
L 388.8 34.56 
L 54 34.56 
z
" style="fill:#ffffff;"/>
   </g>
   <g id="matplotlib.axis_1">
    <g id="xtick_1">
     <g id="line2d_1">
      <defs>
       <path d="M 0 0 
L 0 3.5 
" id="m418bad4faa" style="stroke:#000000;stroke-width:0.8;"/>
      </defs>
      <g>
       <use style="stroke:#000000;stroke-width:0.8;" x="69.218182" xlink:href="#m418bad4faa" y="252"/>
      </g>
     </g>
     <g id="text_1">
      <text style="font-family:DejaVu Sans;font-size:10px;font-style:normal;font-weight:normal;text-anchor:middle;" transform="rotate(-0, 69.218182, 266.598437)" x="69.218182" y="266.598437">0</text>
     </g>
    </g>
    <g id="xtick_2">
     <g id="line2d_2">
      <g>
       <use style="stroke:#000000;stroke-width:0.8;" x="119.962369" xlink:href="#m418bad4faa" y="252"/>
      </g>
     </g>
     <g id="text_2">
      <text style="font-family:DejaVu Sans;font-size:10px;font-style:normal;font-weight:normal;text-anchor:middle;" transform="rotate(-0, 119.962369, 266.598437)" x="119.962369" y="266.598437">500</text>
     </g>
    </g>
    <g id="xtick_3">
     <g id="line2d_3">
      <g>
       <use style="stroke:#000000;stroke-width:0.8;" x="170.706557" xlink:href="#m418bad4faa" y="252"/>
      </g>
     </g>
     <g id="text_3">
      <text style="font-family:DejaVu Sans;font-size:10px;font-style:normal;font-weight:normal;text-anchor:middle;" transform="rotate(-0, 170.706557, 266.598437)" x="170.706557" y="266.598437">1000</text>
     </g>
    </g>
    <g id="xtick_4">
     <g id="line2d_4">
      <g>
       <use style="stroke:#000000;stroke-width:0.8;" x="221.450744" xlink:href="#m418bad4faa" y="252"/>
      </g>
     </g>
     <g id="text_4">
      <text style="font-family:DejaVu Sans;font-size:10px;font-style:normal;font-weight:normal;text-anchor:middle;" transform="rotate(-0, 221.450744, 266.598437)" x="221.450744" y="266.598437">1500</text>
     </g>
    </g>
    <g id="xtick_5">
     <g id="line2d_5">
      <g>
       <use style="stroke:#000000;stroke-width:0.8;" x="272.194932" xlink:href="#m418bad4faa" y="252"/>
      </g>
     </g>
     <g id="text_5">
      <text style="font-family:DejaVu Sans;font-size:10px;font-style:normal;font-weight:normal;text-anchor:middle;" transform="rotate(-0, 272.194932, 266.598437)" x="272.194932" y="266.598437">2000</text>
     </g>
    </g>
    <g id="xtick_6">
     <g id="line2d_6">
      <g>
       <use style="stroke:#000000;stroke-width:0.8;" x="322.939119" xlink:href="#m418bad4faa" y="252"/>
      </g>
     </g>
     <g id="text_6">
      <text style="font-family:DejaVu Sans;font-size:10px;font-style:normal;font-weight:normal;text-anchor:middle;" transform="rotate(-0, 322.939119, 266.598437)" x="322.939119" y="266.598437">2500</text>
     </g>
    </g>
    <g id="xtick_7">
     <g id="line2d_7">
      <g>
       <use style="stroke:#000000;stroke-width:0.8;" x="373.683307" xlink:href="#m418bad4faa" y="252"/>
      </g>
     </g>
     <g id="text_7">
      <text style="font-family:DejaVu Sans;font-size:10px;font-style:normal;font-weight:normal;text-anchor:middle;" transform="rotate(-0, 373.683307, 266.598437)" x="373.683307" y="266.598437">3000</text>
     </g>
    </g>
    <g id="text_8">
     <text style="font-family:DejaVu Sans;font-size:10px;font-style:normal;font-weight:normal;text-anchor:middle;" transform="rotate(-0, 221.4, 280.276563)" x="221.4" y="280.276563">Time</text>
    </g>
   </g>
   <g id="matplotlib.axis_2">
    <g id="ytick_1">
     <g id="line2d_8">
      <defs>
       <path d="M 0 0 
L -3.5 0 
" id="me313adc22d" style="stroke:#000000;stroke-width:0.8;"/>
      </defs>
      <g>
       <use style="stroke:#000000;stroke-width:0.8;" x="54" xlink:href="#me313adc22d" y="241.726287"/>
      </g>
     </g>
     <g id="text_9">
      <text style="font-family:DejaVu Sans;font-size:10px;font-style:normal;font-weight:normal;text-anchor:end;" transform="rotate(-0, 47, 245.525506)" x="47" y="245.525506">70</text>
     </g>
    </g>
    <g id="ytick_2">
     <g id="line2d_9">
      <g>
       <use style="stroke:#000000;stroke-width:0.8;" x="54" xlink:href="#me313adc22d" y="200.774654"/>
      </g>
     </g>
     <g id="text_10">
      <text style="font-family:DejaVu Sans;font-size:10px;font-style:normal;font-weight:normal;text-anchor:end;" transform="rotate(-0, 47, 204.573873)" x="47" y="204.573873">72</text>
     </g>
    </g>
    <g id="ytick_3">
     <g id="line2d_10">
      <g>
       <use style="stroke:#000000;stroke-width:0.8;" x="54" xlink:href="#me313adc22d" y="159.82302"/>
      </g>
     </g>
     <g id="text_11">
      <text style="font-family:DejaVu Sans;font-size:10px;font-style:normal;font-weight:normal;text-anchor:end;" transform="rotate(-0, 47, 163.622239)" x="47" y="163.622239">74</text>
     </g>
    </g>
    <g id="ytick_4">
     <g id="line2d_11">
      <g>
       <use style="stroke:#000000;stroke-width:0.8;" x="54" xlink:href="#me313adc22d" y="118.871387"/>
      </g>
     </g>
     <g id="text_12">
      <text style="font-family:DejaVu Sans;font-size:10px;font-style:normal;font-weight:normal;text-anchor:end;" transform="rotate(-0, 47, 122.670606)" x="47" y="122.670606">76</text>
     </g>
    </g>
    <g id="ytick_5">
     <g id="line2d_12">
      <g>
       <use style="stroke:#000000;stroke-width:0.8;" x="54" xlink:href="#me313adc22d" y="77.919754"/>
      </g>
     </g>
     <g id="text_13">
      <text style="font-family:DejaVu Sans;font-size:10px;font-style:normal;font-weight:normal;text-anchor:end;" transform="rotate(-0, 47, 81.718973)" x="47" y="81.718973">78</text>
     </g>
    </g>
    <g id="ytick_6">
     <g id="line2d_13">
      <g>
       <use style="stroke:#000000;stroke-width:0.8;" x="54" xlink:href="#me313adc22d" y="36.96812"/>
      </g>
     </g>
     <g id="text_14">
      <text style="font-family:DejaVu Sans;font-size:10px;font-style:normal;font-weight:normal;text-anchor:end;" transform="rotate(-0, 47, 40.767339)" x="47" y="40.767339">80</text>
     </g>
    </g>
    <g id="text_15">
     <text style="font-family:DejaVu Sans;font-size:10px;font-style:normal;font-weight:normal;text-anchor:middle;" transform="rotate(-90, 28.195312, 143.28)" x="28.195312" y="143.28">weight (\%)</text>
    </g>
   </g>
   <g id="line2d_14">
    <path clip-path="url(#p59980cb4f4)" d="M 69.218182 44.443636 
L 85.151857 45.229089 
L 88.70395 45.660309 
L 93.372415 46.606087 
L 97.837904 47.862074 
L 106.971857 50.731555 
L 114.684974 52.721804 
L 118.744509 53.743957 
L 126.559114 55.843547 
L 130.111207 57.069025 
L 133.155858 58.34733 
L 135.896044 59.751562 
L 138.331765 61.248344 
L 140.665998 62.964217 
L 142.594277 64.658386 
L 144.522556 66.663174 
L 146.349347 68.89688 
L 148.176138 71.479086 
L 149.698463 74.077467 
L 151.322277 77.30937 
L 153.047579 81.25506 
L 154.468417 85.010939 
L 156.295207 90.485353 
L 158.223487 96.964516 
L 160.354742 104.943327 
L 162.283022 113.053593 
L 164.211301 122.129909 
L 166.342557 133.310728 
L 169.387208 150.650059 
L 172.533347 168.197629 
L 174.25865 176.569372 
L 175.679487 182.403342 
L 176.694371 185.692577 
L 177.709255 188.242225 
L 178.62265 189.885819 
L 179.536045 191.07915 
L 180.956883 192.477853 
L 182.885162 194.0678 
L 184.914929 195.466913 
L 187.452139 196.931343 
L 189.786371 198.045023 
L 191.308697 198.555075 
L 196.07865 200.468745 
L 200.747116 202.121553 
L 205.618558 203.647001 
L 210.185535 204.862241 
L 214.549535 205.83259 
L 219.319488 206.702403 
L 225.611768 207.607434 
L 234.035303 208.51656 
L 242.96628 209.218676 
L 254.738931 209.821279 
L 266.816048 210.125754 
L 277.370839 210.164863 
L 297.26256 210.234481 
L 305.787584 210.244309 
L 373.581818 209.119368 
L 373.581818 209.119368 
" style="fill:none;stroke:#40b5c4;stroke-dasharray:5.55,2.4;stroke-dashoffset:0;stroke-width:1.5;"/>
    <defs>
     <path d="M 0 3 
C 0.795609 3 1.55874 2.683901 2.12132 2.12132 
C 2.683901 1.55874 3 0.795609 3 0 
C 3 -0.795609 2.683901 -1.55874 2.12132 -2.12132 
C 1.55874 -2.683901 0.795609 -3 0 -3 
C -0.795609 -3 -1.55874 -2.683901 -2.12132 -2.12132 
C -2.683901 -1.55874 -3 -0.795609 -3 0 
C -3 0.795609 -2.683901 1.55874 -2.12132 2.12132 
C -1.55874 2.683901 -0.795609 3 0 3 
z
" id="m925147a7d6" style="stroke:#40b5c4;"/>
    </defs>
    <g clip-path="url(#p59980cb4f4)">
     <use style="fill:#40b5c4;stroke:#40b5c4;" x="69.218182" xlink:href="#m925147a7d6" y="44.443636"/>
     <use style="fill:#40b5c4;stroke:#40b5c4;" x="77.337252" xlink:href="#m925147a7d6" y="44.779235"/>
     <use style="fill:#40b5c4;stroke:#40b5c4;" x="85.456322" xlink:href="#m925147a7d6" y="45.256526"/>
     <use style="fill:#40b5c4;stroke:#40b5c4;" x="93.575392" xlink:href="#m925147a7d6" y="46.651134"/>
     <use style="fill:#40b5c4;stroke:#40b5c4;" x="101.694462" xlink:href="#m925147a7d6" y="49.125022"/>
     <use style="fill:#40b5c4;stroke:#40b5c4;" x="109.813532" xlink:href="#m925147a7d6" y="51.501036"/>
     <use style="fill:#40b5c4;stroke:#40b5c4;" x="117.932602" xlink:href="#m925147a7d6" y="53.545751"/>
     <use style="fill:#40b5c4;stroke:#40b5c4;" x="126.051672" xlink:href="#m925147a7d6" y="55.686293"/>
     <use style="fill:#40b5c4;stroke:#40b5c4;" x="134.170742" xlink:href="#m925147a7d6" y="58.836293"/>
     <use style="fill:#40b5c4;stroke:#40b5c4;" x="142.289812" xlink:href="#m925147a7d6" y="64.370906"/>
     <use style="fill:#40b5c4;stroke:#40b5c4;" x="150.408882" xlink:href="#m925147a7d6" y="75.435628"/>
     <use style="fill:#40b5c4;stroke:#40b5c4;" x="158.527952" xlink:href="#m925147a7d6" y="98.049939"/>
     <use style="fill:#40b5c4;stroke:#40b5c4;" x="166.647022" xlink:href="#m925147a7d6" y="134.991179"/>
     <use style="fill:#40b5c4;stroke:#40b5c4;" x="174.766092" xlink:href="#m925147a7d6" y="178.783831"/>
     <use style="fill:#40b5c4;stroke:#40b5c4;" x="182.885162" xlink:href="#m925147a7d6" y="194.0678"/>
     <use style="fill:#40b5c4;stroke:#40b5c4;" x="191.004232" xlink:href="#m925147a7d6" y="198.421778"/>
     <use style="fill:#40b5c4;stroke:#40b5c4;" x="199.123302" xlink:href="#m925147a7d6" y="201.568296"/>
     <use style="fill:#40b5c4;stroke:#40b5c4;" x="207.242372" xlink:href="#m925147a7d6" y="204.103407"/>
     <use style="fill:#40b5c4;stroke:#40b5c4;" x="215.361442" xlink:href="#m925147a7d6" y="205.992097"/>
     <use style="fill:#40b5c4;stroke:#40b5c4;" x="223.480512" xlink:href="#m925147a7d6" y="207.325687"/>
     <use style="fill:#40b5c4;stroke:#40b5c4;" x="231.599582" xlink:href="#m925147a7d6" y="208.280679"/>
     <use style="fill:#40b5c4;stroke:#40b5c4;" x="239.718652" xlink:href="#m925147a7d6" y="208.992008"/>
     <use style="fill:#40b5c4;stroke:#40b5c4;" x="247.837722" xlink:href="#m925147a7d6" y="209.506975"/>
     <use style="fill:#40b5c4;stroke:#40b5c4;" x="255.956792" xlink:href="#m925147a7d6" y="209.865302"/>
     <use style="fill:#40b5c4;stroke:#40b5c4;" x="264.075862" xlink:href="#m925147a7d6" y="210.083779"/>
     <use style="fill:#40b5c4;stroke:#40b5c4;" x="272.194932" xlink:href="#m925147a7d6" y="210.165273"/>
     <use style="fill:#40b5c4;stroke:#40b5c4;" x="280.314002" xlink:href="#m925147a7d6" y="210.157697"/>
     <use style="fill:#40b5c4;stroke:#40b5c4;" x="288.433072" xlink:href="#m925147a7d6" y="210.142954"/>
     <use style="fill:#40b5c4;stroke:#40b5c4;" x="296.552142" xlink:href="#m925147a7d6" y="210.223834"/>
     <use style="fill:#40b5c4;stroke:#40b5c4;" x="304.671212" xlink:href="#m925147a7d6" y="210.256185"/>
     <use style="fill:#40b5c4;stroke:#40b5c4;" x="312.790282" xlink:href="#m925147a7d6" y="210.136607"/>
     <use style="fill:#40b5c4;stroke:#40b5c4;" x="320.909352" xlink:href="#m925147a7d6" y="210.014161"/>
     <use style="fill:#40b5c4;stroke:#40b5c4;" x="329.028422" xlink:href="#m925147a7d6" y="209.876154"/>
     <use style="fill:#40b5c4;stroke:#40b5c4;" x="337.147492" xlink:href="#m925147a7d6" y="209.720129"/>
     <use style="fill:#40b5c4;stroke:#40b5c4;" x="345.266562" xlink:href="#m925147a7d6" y="209.554274"/>
     <use style="fill:#40b5c4;stroke:#40b5c4;" x="353.385632" xlink:href="#m925147a7d6" y="209.378182"/>
     <use style="fill:#40b5c4;stroke:#40b5c4;" x="361.504702" xlink:href="#m925147a7d6" y="209.212328"/>
     <use style="fill:#40b5c4;stroke:#40b5c4;" x="369.623772" xlink:href="#m925147a7d6" y="209.121825"/>
    </g>
   </g>
   <g id="line2d_15">
    <path clip-path="url(#p59980cb4f4)" d="M 69.218182 80.646853 
L 69.31967 80.99272 
L 69.421159 81.9155 
L 69.522647 81.315154 
L 69.624135 81.675705 
L 69.725624 79.873417 
L 69.827112 82.182789 
L 69.9286 80.518285 
L 70.131577 81.97455 
L 70.233066 80.217409 
L 70.334554 82.454452 
L 70.537531 80.597176 
L 70.639019 81.757251 
L 70.740507 80.206318 
L 70.841996 82.33807 
L 70.943484 80.506413 
L 71.044973 80.987252 
L 71.146461 82.011262 
L 71.247949 80.627794 
L 71.349438 82.71065 
L 71.450926 81.042709 
L 71.552414 81.125661 
L 71.653903 81.450751 
L 71.755391 80.484855 
L 71.85688 82.042349 
L 72.059856 81.057706 
L 72.161345 81.428724 
L 72.262833 80.853373 
L 72.364321 81.863792 
L 72.46581 81.223922 
L 72.668787 82.084372 
L 72.770275 81.024744 
L 72.871763 81.639619 
L 73.07474 80.797291 
L 73.176228 82.093276 
L 73.277717 80.248028 
L 73.480694 81.779122 
L 73.582182 80.752613 
L 73.68367 82.537404 
L 73.785159 80.939137 
L 73.886647 81.949399 
L 73.988135 81.287816 
L 74.089624 79.879197 
L 74.191112 82.441018 
L 74.292601 80.936637 
L 74.394089 81.285941 
L 74.495577 81.037711 
L 74.597066 80.301298 
L 74.698554 81.911907 
L 74.800042 80.824629 
L 74.901531 81.921436 
L 75.104508 80.423617 
L 75.205996 82.190288 
L 75.307484 80.382688 
L 75.408973 80.679659 
L 75.510461 81.458718 
L 75.611949 80.272398 
L 75.713438 81.773498 
L 75.814926 79.991049 
L 76.017903 81.218767 
L 76.119391 80.780576 
L 76.22088 81.929091 
L 76.423856 80.308172 
L 76.525345 81.252198 
L 76.626833 79.840611 
L 76.728322 81.529173 
L 76.931298 79.308689 
L 77.032787 81.48715 
L 77.134275 79.682206 
L 77.235763 81.549325 
L 77.337252 81.006467 
L 77.43874 79.576134 
L 77.540229 81.32687 
L 77.641717 79.306658 
L 77.743205 80.831815 
L 77.844694 79.48584 
L 78.04767 80.721213 
L 78.149159 79.113572 
L 78.250647 80.464078 
L 78.453624 79.699859 
L 78.555112 80.689657 
L 78.656601 79.526457 
L 78.758089 80.393311 
L 78.961066 78.905646 
L 79.062554 80.362536 
L 79.164043 78.966259 
L 79.265531 79.501931 
L 79.367019 79.325248 
L 79.468508 78.633046 
L 79.569996 79.88279 
L 79.671484 79.490058 
L 79.772973 79.798432 
L 79.97595 77.869295 
L 80.077438 79.719074 
L 80.280415 78.604614 
L 80.381903 79.343682 
L 80.483391 77.568419 
L 80.58488 79.421166 
L 80.686368 78.214225 
L 80.787857 79.198243 
L 80.889345 78.907365 
L 80.990833 78.094718 
L 81.092322 80.04885 
L 81.19381 78.174702 
L 81.295298 78.284367 
L 81.396787 79.121383 
L 81.498275 78.207039 
L 81.599764 79.029839 
L 81.701252 78.128461 
L 81.904229 79.116697 
L 82.005717 78.5201 
L 82.107205 79.832488 
L 82.310182 77.710265 
L 82.411671 79.768907 
L 82.513159 77.911162 
L 82.614647 79.633935 
L 82.817624 77.728074 
L 82.919112 79.474592 
L 83.020601 78.126899 
L 83.122089 80.122741 
L 83.325066 78.400905 
L 83.426554 79.709388 
L 83.528043 78.563997 
L 83.629531 79.359928 
L 83.731019 78.417621 
L 83.832508 78.577119 
L 83.933996 79.577384 
L 84.035485 78.140802 
L 84.136973 79.73079 
L 84.238461 78.794575 
L 84.441438 79.852015 
L 84.542926 78.447615 
L 84.644415 79.786247 
L 84.847392 78.274994 
L 85.050368 79.620812 
L 85.151857 78.995784 
L 85.253345 79.18512 
L 85.354833 78.624297 
L 85.456322 80.510474 
L 85.55781 79.211365 
L 85.760787 79.764846 
L 85.862275 78.081752 
L 85.963764 80.496884 
L 86.065252 79.139973 
L 86.16674 79.588163 
L 86.268229 79.548484 
L 86.369717 78.378098 
L 86.471206 80.700904 
L 86.572694 79.009687 
L 86.674182 80.283802 
L 86.877159 78.595866 
L 86.978647 80.517504 
L 87.080136 80.298955 
L 87.181624 79.726572 
L 87.283113 80.091341 
L 87.384601 78.928923 
L 87.486089 80.45283 
L 87.689066 79.505367 
L 87.790554 80.888054 
L 87.892043 78.117682 
L 87.993531 81.195335 
L 88.196508 79.799057 
L 88.297996 81.367018 
L 88.399485 79.53708 
L 88.500973 80.860872 
L 88.70395 79.411636 
L 88.805438 80.927264 
L 88.906927 79.719074 
L 89.008415 81.322027 
L 89.109903 80.888678 
L 89.211392 79.748599 
L 89.31288 81.375766 
L 89.414368 80.218347 
L 89.515857 81.182525 
L 89.617345 80.254277 
L 89.718834 80.558121 
L 89.820322 81.739286 
L 89.92181 80.882898 
L 90.023299 81.781933 
L 90.226275 80.442363 
L 90.327764 81.710229 
L 90.429252 80.839314 
L 90.530741 81.803492 
L 90.733717 80.15789 
L 90.835206 82.258399 
L 90.936694 80.812132 
L 91.038182 82.54912 
L 91.241159 81.275006 
L 91.342648 81.772404 
L 91.444136 80.955696 
L 91.545624 81.811615 
L 91.748601 80.214441 
L 91.850089 81.662427 
L 91.951578 80.840407 
L 92.053066 81.014122 
L 92.154555 82.15342 
L 92.256043 80.553122 
L 92.357531 82.18935 
L 92.45902 80.190384 
L 92.661996 81.306718 
L 92.763485 80.039946 
L 92.864973 82.403681 
L 92.966462 79.917783 
L 93.169438 81.456063 
L 93.270927 80.434709 
L 93.372415 82.395089 
L 93.473903 80.124616 
L 93.67688 81.108321 
L 93.778369 79.861545 
L 93.879857 81.603689 
L 93.981345 81.141127 
L 94.082834 79.857639 
L 94.184322 81.006311 
L 94.28581 80.21241 
L 94.387299 82.0361 
L 94.590276 80.444082 
L 94.691764 81.830049 
L 94.793252 79.353055 
L 94.894741 81.851607 
L 94.996229 80.268493 
L 95.097717 81.026619 
L 95.300694 80.231469 
L 95.402183 81.097073 
L 95.605159 80.688407 
L 95.706648 81.739755 
L 95.808136 80.106963 
L 95.909624 81.369674 
L 96.112601 79.984957 
L 96.21409 82.358691 
L 96.315578 79.663772 
L 96.417066 81.888474 
L 96.620043 80.232094 
L 96.721531 82.035632 
L 96.82302 80.125709 
L 96.924508 81.686953 
L 97.127485 80.255527 
L 97.228973 81.60197 
L 97.330462 81.356395 
L 97.43195 81.778028 
L 97.634927 80.21366 
L 97.736415 81.863011 
L 97.837904 81.076921 
L 97.939392 81.129723 
L 98.04088 81.610875 
L 98.142369 79.754848 
L 98.243857 82.471636 
L 98.345345 80.6606 
L 98.446834 82.154357 
L 98.548322 82.011886 
L 98.649811 80.490479 
L 98.751299 82.240277 
L 98.852787 81.321559 
L 98.954276 81.33968 
L 99.055764 81.959553 
L 99.157252 80.874931 
L 99.258741 82.172947 
L 99.360229 81.115663 
L 99.461718 81.343742 
L 99.563206 82.488664 
L 99.664694 82.4368 
L 99.766183 81.879414 
L 99.867671 82.103899 
L 99.969159 81.652897 
L 100.172136 82.005013 
L 100.273625 82.255743 
L 100.375113 81.463249 
L 100.679578 83.621401 
L 100.781066 82.248088 
L 100.882555 82.75361 
L 101.085532 82.024228 
L 101.288508 82.700183 
L 101.389997 81.852856 
L 101.592973 82.907797 
L 101.694462 83.008558 
L 101.79595 83.617652 
L 101.897439 82.800632 
L 101.998927 82.817503 
L 102.100415 82.612701 
L 102.201904 83.159465 
L 102.303392 82.923419 
L 102.40488 83.3513 
L 102.506369 82.758765 
L 102.709346 83.699979 
L 102.810834 83.321775 
L 102.912322 83.881817 
L 103.013811 83.389261 
L 103.115299 83.97133 
L 103.318276 83.21086 
L 103.419764 83.490178 
L 103.521253 84.229871 
L 103.622741 83.447218 
L 103.724229 84.376403 
L 103.825718 84.04444 
L 103.927206 84.203001 
L 104.028694 84.108646 
L 104.130183 84.173476 
L 104.231671 84.78835 
L 104.33316 83.168057 
L 104.434648 84.63635 
L 104.536136 83.939461 
L 104.637625 85.688167 
L 104.739113 83.795897 
L 104.840601 85.100162 
L 104.94209 84.020851 
L 105.043578 84.450763 
L 105.145067 83.60328 
L 105.246555 83.644522 
L 105.348043 83.38973 
L 105.449532 83.702635 
L 105.55102 83.61734 
L 105.652508 83.73341 
L 105.753997 82.849684 
L 105.855485 83.129314 
L 105.956974 82.66316 
L 106.15995 83.201019 
L 106.261439 82.801569 
L 106.362927 82.881396 
L 106.464415 83.298499 
L 106.565904 84.307667 
L 106.768881 83.504394 
L 106.971857 83.236636 
L 107.073346 83.773089 
L 107.276322 83.397541 
L 107.377811 83.191489 
L 107.479299 83.432378 
L 107.580788 84.818657 
L 107.783764 84.006791 
L 107.986741 83.834952 
L 108.088229 83.788555 
L 108.189718 84.320009 
L 108.392695 83.476119 
L 108.595671 84.859586 
L 109.001625 84.272518 
L 109.204602 84.889892 
L 109.30609 84.062561 
L 109.509067 84.849119 
L 109.610555 85.311369 
L 109.712043 84.888955 
L 109.813532 85.254193 
L 109.91502 84.64916 
L 110.016509 85.023302 
L 110.219485 84.928634 
L 110.625439 85.690041 
L 110.726927 85.208577 
L 110.828416 85.391352 
L 110.929904 85.310744 
L 111.031392 85.705507 
L 111.132881 85.461807 
L 111.234369 86.083711 
L 111.437346 85.556631 
L 111.538834 85.617556 
L 111.640323 85.561474 
L 111.843299 86.415674 
L 111.944788 85.889688 
L 112.046276 85.952956 
L 112.249253 86.563925 
L 112.350741 86.234774 
L 112.45223 86.493471 
L 112.655206 86.01888 
L 112.756695 86.366309 
L 112.858183 86.28492 
L 113.06116 86.637192 
L 113.264137 86.825903 
L 113.365625 86.027472 
L 113.467113 86.341783 
L 113.568602 86.126358 
L 113.67009 86.582359 
L 113.974555 85.760808 
L 114.177532 86.71202 
L 114.27902 86.591107 
L 114.380509 85.875472 
L 114.583485 86.041532 
L 114.684974 86.611103 
L 114.887951 85.590218 
L 114.989439 86.032628 
L 115.090927 85.790021 
L 115.192416 86.647502 
L 115.395392 85.81486 
L 115.496881 85.919682 
L 115.598369 85.77065 
L 115.801346 86.444731 
L 115.902834 85.410723 
L 116.105811 85.868911 
L 116.207299 86.590951 
L 116.511765 85.45259 
L 116.613253 85.835324 
L 116.714741 85.672857 
L 116.81623 86.763572 
L 116.917718 85.132968 
L 117.019206 85.820327 
L 117.120695 85.277157 
L 117.222183 86.617508 
L 117.323672 85.78096 
L 117.42516 86.181503 
L 117.526648 85.220918 
L 117.729625 85.554913 
L 117.932602 85.847978 
L 118.03409 85.936553 
L 118.135579 85.342456 
L 118.237067 86.325224 
L 118.338555 85.643801 
L 118.440044 86.048249 
L 118.541532 85.187019 
L 118.744509 85.519451 
L 118.845997 85.750966 
L 118.947486 85.450715 
L 119.048974 85.555381 
L 119.150462 86.007789 
L 119.251951 85.882502 
L 119.353439 86.022473 
L 119.556416 85.521951 
L 119.657904 85.707381 
L 119.759393 85.466493 
L 119.860881 85.638489 
L 120.063858 85.436031 
L 120.165346 86.190252 
L 120.266834 86.053248 
L 120.368323 86.174474 
L 120.469811 85.621305 
L 120.5713 85.937334 
L 120.672788 85.717379 
L 120.875765 86.05153 
L 120.977253 84.821937 
L 121.078741 86.760448 
L 121.281718 85.416503 
L 121.383207 86.469101 
L 121.484695 85.32121 
L 121.586183 86.85496 
L 121.687672 85.259817 
L 121.890648 86.717488 
L 121.992137 84.74086 
L 122.093625 86.905574 
L 122.296602 85.684105 
L 122.39809 86.840119 
L 122.499579 85.496956 
L 122.601067 87.135371 
L 122.702555 85.612557 
L 122.804044 85.824857 
L 122.905532 86.93838 
L 123.007021 85.244351 
L 123.108509 87.090068 
L 123.311486 85.518514 
L 123.412974 87.463898 
L 123.514462 85.722066 
L 123.615951 87.125998 
L 123.717439 85.664265 
L 123.818928 86.042313 
L 123.920416 87.233476 
L 124.021904 85.690979 
L 124.123393 87.302993 
L 124.326369 85.913433 
L 124.427858 87.350639 
L 124.529346 86.429578 
L 124.630835 87.366105 
L 124.732323 86.024504 
L 124.833811 86.3196 
L 124.9353 87.527635 
L 125.036788 85.600685 
L 125.138276 88.029563 
L 125.341253 86.375058 
L 125.442742 87.84835 
L 125.54423 86.400834 
L 125.645718 87.716658 
L 125.747207 86.330379 
L 125.848695 86.804501 
L 125.950183 88.009567 
L 126.051672 86.001696 
L 126.15316 88.278262 
L 126.356137 86.737796 
L 126.457625 88.169066 
L 126.559114 87.177081 
L 126.660602 87.757588 
L 126.863579 86.868394 
L 126.965067 88.620536 
L 127.066556 86.824185 
L 127.168044 88.613194 
L 127.371021 87.022425 
L 127.472509 88.851583 
L 127.573997 87.702443 
L 127.675486 88.278731 
L 127.878463 87.345016 
L 127.979951 88.816902 
L 128.081439 87.581061 
L 128.182928 88.921256 
L 128.284416 87.966139 
L 128.385904 87.99254 
L 128.487393 89.17636 
L 128.588881 88.468849 
L 128.69037 88.615381 
L 128.791858 88.502279 
L 128.893346 87.538882 
L 128.994835 89.248221 
L 129.2993 88.458851 
L 129.603765 89.526601 
L 129.705253 88.811747 
L 130.111207 89.983852 
L 130.314184 89.252438 
L 130.51716 89.921677 
L 130.923114 89.979946 
L 131.024602 90.802122 
L 131.126091 90.673554 
L 131.227579 90.072896 
L 131.532044 90.899602 
L 131.633532 90.973024 
L 131.836509 90.558265 
L 131.937998 90.729168 
L 132.039486 91.94392 
L 132.242463 90.99302 
L 132.343951 91.056445 
L 132.445439 90.710578 
L 132.648416 91.386534 
L 132.749905 90.7865 
L 132.851393 90.830085 
L 132.952881 90.944124 
L 133.05437 91.7349 
L 133.358835 90.977086 
L 133.460323 91.189543 
L 133.561812 91.1244 
L 133.6633 91.492137 
L 133.764788 90.818837 
L 133.866277 91.137678 
L 133.967765 90.932876 
L 134.069253 91.734275 
L 134.27223 91.411529 
L 134.373719 91.407311 
L 134.475207 91.197041 
L 134.678184 91.661009 
L 134.779672 90.963026 
L 134.88116 91.500104 
L 134.982649 91.318735 
L 135.084137 92.083423 
L 135.388602 91.470579 
L 135.490091 91.602427 
L 135.591579 91.635389 
L 135.693067 92.089515 
L 135.794556 91.099874 
L 136.099021 92.787029 
L 136.301998 92.145597 
L 136.403486 92.122165 
L 136.504974 91.796762 
L 136.707951 92.637216 
L 136.80944 91.984068 
L 137.012416 92.369927 
L 137.113905 93.221315 
L 137.316881 92.709545 
L 137.519858 92.725479 
L 137.621347 92.564418 
L 137.722835 93.583897 
L 137.824323 92.46272 
L 138.128788 93.988033 
L 138.331765 93.551404 
L 138.433254 93.576243 
L 138.534742 93.722775 
L 138.63623 93.605768 
L 138.737719 94.441378 
L 138.839207 93.218972 
L 139.143672 95.088434 
L 139.346649 94.658678 
L 139.448137 94.340305 
L 139.549626 94.952368 
L 139.651114 94.660396 
L 139.752602 95.4054 
L 139.854091 94.967052 
L 140.158556 96.95274 
L 140.260044 96.398322 
L 140.361533 96.740909 
L 140.463021 96.609217 
L 140.767486 97.812877 
L 140.868975 97.323133 
L 141.17344 98.695822 
L 141.274928 98.218263 
L 141.376416 98.555694 
L 141.477905 98.233885 
L 141.78237 99.026223 
L 141.883858 98.275126 
L 141.985347 99.351938 
L 142.086835 99.254301 
L 142.188323 100.234882 
L 142.289812 99.476443 
L 142.492789 99.701866 
L 142.594277 100.151149 
L 142.695765 99.614853 
L 142.797254 100.461398 
L 142.898742 100.053982 
L 143.203207 101.440261 
L 143.304696 100.964577 
L 143.609161 101.514152 
L 143.710649 101.125169 
L 143.812137 101.994054 
L 143.913626 101.396676 
L 144.116603 102.259937 
L 144.218091 102.809356 
L 144.319579 102.410375 
L 144.624044 102.961044 
L 144.725533 103.054462 
L 144.827021 103.53577 
L 144.92851 103.076177 
L 145.029998 103.900227 
L 145.131486 103.510463 
L 145.232975 104.597585 
L 145.435951 103.980055 
L 145.53744 104.584462 
L 145.638928 103.601226 
L 145.841905 104.489013 
L 145.943393 104.099405 
L 146.14637 104.272182 
L 146.247858 104.792701 
L 146.349347 104.677724 
L 146.653812 104.120963 
L 146.856789 104.636639 
L 146.958277 103.824305 
L 147.059765 103.926628 
L 147.161254 103.509369 
L 147.262742 104.267808 
L 147.364231 103.599976 
L 147.465719 103.963183 
L 147.567207 103.037435 
L 147.668696 103.506401 
L 147.770184 103.264732 
L 147.871672 104.249374 
L 147.973161 103.632938 
L 148.074649 103.900696 
L 148.277626 105.188401 
L 148.379114 104.697408 
L 148.886556 106.067441 
L 148.988044 105.686112 
L 149.393998 107.137222 
L 149.495486 107.114414 
L 149.90144 108.146391 
L 150.002928 107.875821 
L 150.205905 108.464763 
L 150.307393 109.431753 
L 150.408882 109.025742 
L 150.51037 109.546573 
L 150.611858 109.378795 
L 150.916324 110.083807 
L 151.017812 110.030537 
L 151.220789 110.374373 
L 151.322277 111.371513 
L 151.423765 111.129063 
L 151.525254 111.453215 
L 151.626742 111.37495 
L 151.931207 111.909997 
L 152.032696 111.951238 
L 152.235672 112.162914 
L 152.438649 113.377353 
L 152.540138 113.291121 
L 152.641626 113.005554 
L 152.946091 114.071743 
L 153.047579 113.634645 
L 153.149068 113.661358 
L 153.352045 115.115904 
L 153.453533 115.083567 
L 153.65651 114.821746 
L 153.960975 116.544363 
L 154.062463 116.017595 
L 154.26544 117.070661 
L 154.366928 118.516928 
L 154.468417 118.160439 
L 154.87437 119.189916 
L 154.975859 119.952729 
L 155.077347 119.604206 
L 155.381812 121.86312 
L 155.4833 121.735021 
L 155.584789 122.316308 
L 155.686277 121.812817 
L 155.889254 123.04366 
L 155.990742 123.228934 
L 156.599673 125.691869 
L 156.701161 125.429891 
L 156.802649 126.56419 
L 156.904138 126.242069 
L 157.005626 126.491393 
L 157.208603 128.062009 
L 157.310091 127.97359 
L 157.41158 128.170581 
L 157.513068 128.107156 
L 157.716045 129.584667 
L 157.817533 128.860909 
L 158.121998 131.781406 
L 158.223487 130.875966 
L 158.324975 131.298848 
L 158.426463 131.266199 
L 158.527952 131.371802 
L 158.62944 132.472515 
L 158.730928 131.999486 
L 158.933905 134.005795 
L 159.035394 133.761001 
L 159.441347 134.625981 
L 159.542835 135.335367 
L 159.644324 135.103852 
L 159.847301 136.280955 
L 159.948789 137.997792 
L 160.050277 137.935149 
L 160.151766 138.577205 
L 160.253254 138.414582 
L 160.557719 141.132152 
L 160.659208 140.461976 
L 160.963673 143.950482 
L 161.065161 143.431682 
L 161.166649 144.804214 
L 161.268138 143.971884 
L 161.572603 147.142174 
L 161.674091 146.192993 
L 161.978556 149.712898 
L 162.181533 150.071731 
L 162.99344 155.958029 
L 163.094929 155.478439 
L 163.399394 157.439757 
L 163.500882 157.745632 
L 163.60237 158.941638 
L 163.703859 158.865247 
L 164.312789 162.670251 
L 164.414277 162.905828 
L 164.617254 165.219105 
L 164.718743 164.973374 
L 164.921719 166.659749 
L 165.023208 168.206933 
L 165.124696 168.146945 
L 165.632138 172.430445 
L 165.733626 172.143784 
L 166.13958 175.987687 
L 166.241068 175.779448 
L 166.647022 179.334347 
L 166.74851 178.765713 
L 167.052975 182.437775 
L 167.154464 181.923037 
L 167.560417 184.933515 
L 167.661905 185.339838 
L 168.067859 188.148483 
L 168.270836 189.050018 
L 168.473812 190.232276 
L 168.575301 190.400367 
L 168.676789 191.644175 
L 168.778278 191.463431 
L 169.082743 194.276763 
L 169.184231 194.074304 
L 169.387208 195.50245 
L 169.590185 195.972197 
L 169.691673 197.527973 
L 169.793161 196.702673 
L 170.097626 200.206957 
L 170.199115 199.950916 
L 170.50358 200.525017 
L 170.706557 202.528514 
L 170.808045 202.146717 
L 171.011022 203.321946 
L 171.11251 205.35653 
L 171.213999 204.889438 
L 171.315487 204.991136 
L 171.924417 207.630909 
L 172.127394 209.837802 
L 172.228882 209.11998 
L 172.330371 209.930283 
L 172.431859 209.79328 
L 172.634836 210.926955 
L 172.939301 211.846142 
L 173.040789 211.279383 
L 173.142278 212.627857 
L 173.345254 211.977209 
L 173.548231 211.789435 
L 173.751208 212.436334 
L 173.852696 211.841924 
L 174.157161 212.762673 
L 174.563115 212.423368 
L 174.766092 212.900614 
L 174.86758 212.399466 
L 174.969068 212.491635 
L 175.172045 213.541733 
L 175.375022 212.825317 
L 175.47651 212.803759 
L 175.780975 213.413165 
L 175.882464 212.420868 
L 175.983952 212.872807 
L 176.085441 212.666131 
L 176.186929 213.754814 
L 176.491394 213.033243 
L 176.795859 213.112758 
L 177.100324 212.996844 
L 177.201813 213.979768 
L 177.303301 213.005124 
L 177.404789 213.53111 
L 177.709255 212.810164 
L 177.810743 213.510021 
L 177.912231 213.093075 
L 178.115208 213.194772 
L 178.216696 214.001483 
L 178.318185 213.853388 
L 178.419673 213.503928 
L 178.521162 213.776372 
L 178.62265 213.462374 
L 178.825627 214.228468 
L 178.927115 213.222736 
L 179.130092 214.13255 
L 179.23158 214.824752 
L 179.434557 214.442955 
L 179.536045 214.610108 
L 179.637534 214.266272 
L 179.84051 214.680875 
L 179.941999 214.289705 
L 180.246464 215.593345 
L 180.550929 215.09251 
L 180.652417 215.136563 
L 180.753906 215.637398 
L 180.956883 214.91239 
L 181.058371 215.913123 
L 181.159859 215.716289 
L 181.261348 216.173695 
L 181.565813 215.882036 
L 181.667301 215.775651 
L 181.870278 216.435673 
L 181.971766 215.896564 
L 182.276231 216.959628 
L 182.37772 216.76623 
L 182.479208 216.516281 
L 182.580697 216.743579 
L 182.682185 216.44364 
L 182.885162 216.929166 
L 182.98665 216.554867 
L 183.189627 216.775603 
L 183.291115 217.606371 
L 183.494092 217.169898 
L 183.59558 216.894485 
L 183.697069 217.245195 
L 183.798557 217.208484 
L 183.900045 217.466868 
L 184.001534 217.064294 
L 184.103022 217.171304 
L 184.305999 217.777118 
L 184.407487 217.837418 
L 184.508976 217.63121 
L 184.610464 217.800394 
L 184.711952 217.719004 
L 184.813441 217.473586 
L 184.914929 217.9224 
L 185.016418 217.890532 
L 185.117906 217.496237 
L 185.320883 218.589295 
L 185.422371 218.419799 
L 185.523859 218.023942 
L 185.625348 218.15454 
L 185.726836 218.052686 
L 185.828325 218.525246 
L 186.031301 217.865225 
L 186.335766 219.060918 
L 186.437255 219.066698 
L 186.640232 218.526339 
L 186.944697 218.88361 
L 187.046185 218.687088 
L 187.147673 218.774726 
L 187.249162 219.032642 
L 187.35065 219.617991 
L 187.655115 218.983121 
L 187.756604 219.007804 
L 187.95958 219.265407 
L 188.162557 219.366324 
L 188.264046 219.201514 
L 188.467022 219.521761 
L 188.568511 218.665061 
L 188.669999 219.383196 
L 188.771487 219.172145 
L 188.872976 220.193499 
L 188.974464 219.365231 
L 189.075953 219.602838 
L 189.278929 219.052794 
L 189.481906 219.911213 
L 189.583394 218.899857 
L 189.786371 219.839509 
L 189.88786 219.736561 
L 189.989348 219.820919 
L 190.293813 219.564096 
L 190.395301 219.495673 
L 190.49679 219.659858 
L 190.598278 219.493173 
L 190.801255 219.864504 
L 190.902743 220.409861 
L 191.004232 219.721876 
L 191.10572 220.015098 
L 191.207208 219.463023 
L 191.308697 219.989634 
L 191.410185 219.706723 
L 191.511674 220.266453 
L 191.613162 219.683291 
L 191.816139 220.092582 
L 191.917627 220.893668 
L 192.120604 220.252549 
L 192.222092 220.258486 
L 192.526557 220.723703 
L 192.628046 220.162724 
L 192.831022 221.004583 
L 192.932511 220.876172 
L 193.033999 221.069882 
L 193.236976 220.678087 
L 193.439953 221.189702 
L 193.541441 220.966154 
L 193.642929 220.978026 
L 193.845906 221.452148 
L 193.947395 221.755367 
L 194.048883 221.43387 
L 194.150371 221.696004 
L 194.353348 221.26703 
L 194.556325 221.793797 
L 194.657813 221.223913 
L 194.962278 222.722201 
L 195.063767 221.964075 
L 195.165255 222.322595 
L 195.266743 221.683351 
L 195.46972 222.148881 
L 195.672697 222.219335 
L 195.774185 222.742041 
L 195.875674 222.387738 
L 195.977162 223.109466 
L 196.180139 222.70986 
L 196.383116 222.568326 
L 196.687581 223.025264 
L 196.789069 223.090563 
L 196.890557 222.895915 
L 196.992046 224.068488 
L 197.093534 223.157581 
L 197.195023 223.443929 
L 197.296511 223.19976 
L 197.499488 223.434087 
L 197.600976 223.427682 
L 198.108418 224.176748 
L 198.311395 223.912583 
L 198.514371 224.251264 
L 198.61586 223.982725 
L 198.818837 224.462314 
L 198.920325 224.454972 
L 199.021813 225.177637 
L 199.123302 224.362178 
L 199.22479 225.051569 
L 199.326278 224.370146 
L 199.427767 224.662898 
L 199.630744 224.426384 
L 199.83372 224.721324 
L 199.935209 224.791153 
L 200.036697 225.125148 
L 200.138185 224.864107 
L 200.239674 225.083906 
L 200.341162 224.610409 
L 200.544139 224.785061 
L 200.747116 224.853641 
L 200.950092 225.191384 
L 201.051581 225.826723 
L 201.153069 225.017826 
L 201.254558 225.271836 
L 201.356046 224.710701 
L 201.457534 225.398373 
L 201.559023 224.986895 
L 201.863488 225.534908 
L 201.964976 225.401497 
L 202.066465 225.92186 
L 202.269441 225.25559 
L 202.37093 225.523816 
L 202.472418 225.43524 
L 202.573906 225.690345 
L 202.776883 225.291676 
L 202.97986 225.792355 
L 203.182837 225.541625 
L 203.385813 225.20685 
L 203.487302 225.44477 
L 203.690279 225.090467 
L 203.791767 225.112338 
L 204.096232 225.603175 
L 204.299209 224.831614 
L 204.502186 225.017201 
L 204.705162 224.799433 
L 204.806651 224.504962 
L 205.009627 225.274336 
L 205.314093 224.384049 
L 205.415581 224.742569 
L 205.618558 224.735227 
L 205.720046 224.252357 
L 205.923023 224.376394 
L 206.024511 224.966742 
L 206.227488 224.218926 
L 206.328976 224.353274 
L 206.531953 224.242984 
L 206.633441 224.419823 
L 206.836418 223.81151 
L 207.039395 224.516678 
L 207.34386 223.80448 
L 207.546837 224.010375 
L 207.749814 223.457051 
L 207.851302 223.91352 
L 207.95279 223.697939 
L 208.054279 224.23861 
L 208.155767 223.635608 
L 208.257255 223.684973 
L 208.460232 223.421433 
L 208.663209 223.756677 
L 208.764697 223.174921 
L 208.967674 223.594054 
L 209.069162 224.394828 
L 209.170651 223.650449 
L 209.272139 223.860718 
L 209.373628 223.699814 
L 209.576604 224.046149 
L 209.678093 224.460752 
L 209.779581 223.627485 
L 210.084046 225.116556 
L 210.185535 224.35015 
L 210.287023 224.61244 
L 210.388511 224.234861 
L 210.692976 224.998142 
L 210.794465 224.247514 
L 210.997442 225.020013 
L 211.09893 225.456486 
L 211.200418 225.082031 
L 211.301907 225.192009 
L 211.403395 225.079688 
L 211.504883 225.322295 
L 211.606372 225.169982 
L 211.809349 225.593958 
L 212.012325 225.528971 
L 212.113814 225.638949 
L 212.215302 225.513506 
L 212.31679 226.099792 
L 212.418279 225.52366 
L 212.722744 226.598597 
L 212.824232 226.159467 
L 212.925721 226.303032 
L 213.027209 225.989658 
L 213.331674 226.896348 
L 213.433163 225.964039 
L 213.737628 227.184727 
L 213.839116 226.767937 
L 213.940604 226.997734 
L 214.042093 226.654523 
L 214.346558 227.507005 
L 214.448046 226.363645 
L 214.549535 227.460139 
L 214.651023 227.135987 
L 214.752511 227.956444 
L 215.056977 227.080061 
L 215.158465 227.751798 
L 215.259953 227.492789 
L 215.361442 227.784292 
L 215.46293 227.588082 
L 215.767395 228.354488 
L 215.868884 228.095947 
L 215.970372 228.326525 
L 216.07186 227.912078 
L 216.274837 228.139532 
L 216.376325 228.246072 
L 216.477814 228.030491 
L 216.579302 228.322619 
L 216.680791 228.276066 
L 216.782279 228.770653 
L 216.985256 228.082825 
L 217.086744 228.394323 
L 217.188232 228.147499 
L 217.289721 228.398229 
L 217.492698 227.969254 
L 217.695674 228.581316 
L 217.898651 228.20858 
L 218.000139 228.28622 
L 218.101628 228.523672 
L 218.203116 228.040802 
L 218.304605 228.187334 
L 218.406093 228.597876 
L 218.60907 228.296062 
L 218.710558 228.448375 
L 218.812046 228.316214 
L 218.913535 227.906767 
L 219.218 228.730973 
L 219.420977 228.27716 
L 219.725442 228.452905 
L 219.928419 228.026117 
L 220.131395 228.64724 
L 220.232884 228.634274 
L 220.43586 228.273723 
L 220.638837 228.334023 
L 220.740326 228.568663 
L 220.841814 227.814598 
L 221.146279 229.13839 
L 221.247767 228.239355 
L 221.349256 228.553978 
L 221.450744 228.083762 
L 221.755209 228.540856 
L 221.856698 228.10282 
L 221.958186 228.27591 
L 222.059674 228.217485 
L 222.161163 228.940306 
L 222.465628 228.088917 
L 222.567116 228.319964 
L 222.770093 228.616466 
L 222.871581 228.161715 
L 223.074558 228.623183 
L 223.176047 227.835844 
L 223.277535 228.346521 
L 223.379023 228.127347 
L 223.480512 229.128861 
L 223.582 228.295125 
L 223.683488 228.51961 
L 223.987954 228.235606 
L 224.089442 228.607405 
L 224.19093 227.957694 
L 224.292419 228.367454 
L 224.393907 228.303404 
L 224.495395 229.040441 
L 224.596884 228.478369 
L 224.698372 228.511799 
L 224.799861 227.979721 
L 224.901349 228.524453 
L 225.002837 228.250603 
L 225.104326 228.31309 
L 225.205814 228.227795 
L 225.510279 228.833921 
L 225.713256 228.310278 
L 225.814744 228.249509 
L 225.916233 228.675047 
L 226.220698 228.204831 
L 226.322186 228.455248 
L 226.423675 228.400416 
L 226.626651 228.065484 
L 226.829628 228.940618 
L 226.931116 228.405571 
L 227.032605 228.454936 
L 227.134093 228.223265 
L 227.33707 228.385263 
L 227.438558 228.665987 
L 227.540047 227.576053 
L 227.641535 228.542106 
L 227.743023 228.253415 
L 227.844512 229.262427 
L 227.946 228.459623 
L 228.047489 228.857354 
L 228.148977 228.598032 
L 228.453442 228.992326 
L 228.55493 229.037786 
L 228.859396 229.862148 
L 228.960884 229.367093 
L 229.468326 229.907608 
L 229.569814 229.769043 
L 229.772791 230.598404 
L 229.874279 230.302996 
L 229.975768 230.346112 
L 230.178744 230.010712 
L 230.381721 230.437812 
L 230.48321 229.680779 
L 230.787675 230.622149 
L 230.990651 230.233948 
L 231.09214 229.950412 
L 231.193628 230.261754 
L 231.295117 229.972126 
L 231.396605 230.392509 
L 231.498093 229.635164 
L 231.802558 230.753685 
L 232.005535 230.211452 
L 232.107024 229.807628 
L 232.31 230.058046 
L 232.411489 229.990091 
L 232.614465 230.298153 
L 232.715954 230.157088 
L 232.817442 230.546696 
L 233.020419 230.033364 
L 233.324884 230.25863 
L 233.527861 229.798099 
L 233.730838 230.538104 
L 234.136791 230.232385 
L 234.238279 230.142091 
L 234.339768 230.455621 
L 234.441256 229.855431 
L 234.644233 230.275814 
L 234.745721 231.141575 
L 234.84721 230.269097 
L 234.948698 230.411724 
L 235.050186 230.035238 
L 235.354652 230.730096 
L 235.45614 229.843402 
L 235.760605 230.93646 
L 235.862093 230.451091 
L 235.963582 230.606528 
L 236.06507 230.155838 
L 236.268047 230.544353 
L 236.471024 230.25738 
L 236.674 230.703227 
L 236.775489 230.924275 
L 236.876977 230.626524 
L 236.978466 230.696353 
L 237.181442 230.598717 
L 237.282931 230.786178 
L 237.485907 230.484209 
L 237.587396 230.545759 
L 237.688884 231.402771 
L 237.891861 230.742594 
L 237.993349 230.929587 
L 238.094838 230.729784 
L 238.196326 230.814766 
L 238.297814 231.05628 
L 238.399303 230.599654 
L 238.60228 230.950989 
L 238.703768 231.725049 
L 238.805256 231.116892 
L 238.906745 231.369184 
L 239.008233 230.802113 
L 239.21121 231.236399 
L 239.414187 231.048625 
L 239.617163 231.619602 
L 239.718652 231.643816 
L 239.921628 231.399803 
L 240.124605 231.542586 
L 240.226094 231.650689 
L 240.327582 231.540868 
L 240.42907 231.63663 
L 240.530559 231.347939 
L 240.632047 232.318053 
L 240.733535 231.927352 
L 240.936512 231.9939 
L 241.038001 231.696617 
L 241.139489 231.874862 
L 241.240977 232.435373 
L 241.342466 231.69443 
L 241.545442 232.076227 
L 241.646931 232.99354 
L 241.748419 232.354296 
L 241.849908 232.397256 
L 241.951396 232.094817 
L 242.052884 232.357108 
L 242.154373 232.225416 
L 242.255861 232.606119 
L 242.357349 232.336955 
L 242.560326 232.958703 
L 242.661815 232.647829 
L 242.864791 232.937926 
L 242.96628 232.473959 
L 243.169256 232.949643 
L 243.270745 232.990416 
L 243.372233 232.732031 
L 243.676698 233.390334 
L 243.778187 233.021659 
L 243.879675 233.341906 
L 243.981163 233.149758 
L 244.18414 233.486096 
L 244.285629 232.74281 
L 244.590094 233.970372 
L 244.79307 233.403612 
L 244.894559 233.155069 
L 245.199024 233.897105 
L 245.300512 232.997445 
L 245.402001 233.578108 
L 245.503489 233.302696 
L 245.604977 234.087535 
L 245.706466 233.549208 
L 245.807954 233.70402 
L 245.909443 233.404706 
L 246.112419 233.779473 
L 246.315396 233.39627 
L 246.518373 233.86633 
L 246.619861 234.012082 
L 246.72135 233.893669 
L 246.924326 233.48797 
L 247.025815 233.880859 
L 247.127303 233.808374 
L 247.228791 233.563892 
L 247.634745 234.161895 
L 247.93921 233.633878 
L 248.040698 233.95803 
L 248.142187 233.762445 
L 248.54814 234.061291 
L 248.649629 234.242972 
L 248.852605 233.909759 
L 248.954094 233.86305 
L 249.157071 234.130495 
L 249.258559 233.68996 
L 249.461536 233.964435 
L 249.563024 234.48511 
L 249.664512 234.063165 
L 249.766001 234.157833 
L 249.867489 233.971153 
L 250.070466 234.031609 
L 250.171954 233.755416 
L 250.577908 234.564313 
L 250.679396 233.998647 
L 250.983861 234.106438 
L 251.08535 234.139556 
L 251.186838 233.957406 
L 251.288326 234.04192 
L 251.389815 233.815872 
L 251.491303 234.704128 
L 251.69428 234.240941 
L 251.795768 233.937097 
L 251.897257 234.18111 
L 251.998745 234.117529 
L 252.100233 234.438245 
L 252.201722 233.796032 
L 252.30321 234.148929 
L 252.404699 233.942565 
L 252.506187 234.827072 
L 252.709164 234.20548 
L 252.810652 233.952407 
L 252.91214 234.090347 
L 253.013629 234.51073 
L 253.115117 233.726359 
L 253.419582 234.45043 
L 253.622559 234.415749 
L 253.724047 233.925225 
L 254.028513 234.46324 
L 254.130001 233.851646 
L 254.231489 234.170956 
L 254.332978 234.011145 
L 254.434466 234.839257 
L 254.637443 234.274528 
L 254.84042 234.102845 
L 254.941908 234.154865 
L 255.043396 234.496983 
L 255.144885 233.820871 
L 255.44935 234.730841 
L 255.753815 233.822746 
L 255.956792 234.323581 
L 256.159768 234.055042 
L 256.464234 234.536506 
L 256.66721 233.932879 
L 256.768699 234.269061 
L 256.870187 234.193764 
L 256.971675 234.302023 
L 257.073164 233.907416 
L 257.174652 234.067071 
L 257.276141 233.88289 
L 257.377629 235.184967 
L 257.580606 234.135026 
L 257.783582 234.118154 
L 257.986559 234.252814 
L 258.189536 233.988649 
L 258.291024 234.46324 
L 258.392513 234.387162 
L 258.494001 234.116904 
L 258.595489 234.213759 
L 258.696978 234.058322 
L 258.798466 234.301554 
L 259.001443 234.091128 
L 259.102931 233.870861 
L 259.305908 234.528851 
L 259.508885 234.165332 
L 259.711862 234.163613 
L 259.81335 233.861644 
L 259.914838 234.427622 
L 260.117815 233.875235 
L 260.219303 234.068789 
L 260.320792 234.747869 
L 260.42228 234.100814 
L 260.523769 234.354668 
L 260.625257 233.797126 
L 260.828234 234.18564 
L 261.03121 233.985056 
L 261.132699 234.029422 
L 261.335676 234.449493 
L 261.741629 233.908978 
L 261.843117 234.257813 
L 261.944606 233.666527 
L 262.046094 234.106906 
L 262.147583 234.026923 
L 262.249071 234.435745 
L 262.553536 233.807436 
L 262.655024 233.933192 
L 262.756513 234.242816 
L 262.858001 233.652312 
L 263.060978 234.086442 
L 263.263955 234.180485 
L 263.365443 234.167675 
L 263.56842 233.923819 
L 263.771397 234.21126 
L 263.872885 233.618412 
L 264.17735 234.723655 
L 264.278838 233.950376 
L 264.380327 234.131745 
L 264.481815 233.800719 
L 264.78628 234.076131 
L 264.887769 233.668558 
L 264.989257 234.127215 
L 265.090745 233.941628 
L 265.192234 234.398722 
L 265.395211 233.811029 
L 265.496699 233.804937 
L 265.699676 234.265624 
L 265.801164 233.670745 
L 266.207118 234.279996 
L 266.308606 234.209698 
L 266.410094 233.68996 
L 266.714559 234.324206 
L 266.816048 233.302071 
L 267.120513 234.492609 
L 267.222001 233.887732 
L 267.32349 234.327174 
L 267.424978 233.876328 
L 267.627955 234.116592 
L 267.830932 233.766195 
L 267.93242 234.928301 
L 268.033908 233.869611 
L 268.135397 234.183297 
L 268.338373 233.820559 
L 268.54135 234.201731 
L 268.642839 234.016925 
L 268.744327 234.806138 
L 268.947304 234.071601 
L 269.048792 234.143461 
L 269.15028 234.025829 
L 269.251769 234.529945 
L 269.454746 233.961467 
L 269.657722 234.680695 
L 269.759211 234.255313 
L 269.860699 234.480892 
L 269.962187 234.048793 
L 270.165164 234.342171 
L 270.266653 233.998335 
L 270.368141 234.29015 
L 270.469629 234.19267 
L 270.571118 234.3806 
L 270.672606 234.809888 
L 270.875583 234.260781 
L 270.977071 234.087223 
L 271.180048 234.534631 
L 271.281536 234.066133 
L 271.484513 234.467301 
L 271.586001 234.868782 
L 271.68749 234.397784 
L 271.788978 234.481517 
L 271.890467 234.066758 
L 272.093443 234.459803 
L 272.194932 233.920226 
L 272.29642 235.249954 
L 272.397908 234.314989 
L 272.499397 234.647108 
L 272.600885 234.183141 
L 272.702374 234.56525 
L 273.006839 234.209229 
L 273.209815 234.754118 
L 273.412792 234.57353 
L 273.615769 234.518385 
L 273.717257 234.35748 
L 273.818746 234.760054 
L 273.920234 234.091441 
L 274.224699 235.033904 
L 274.326188 234.605554 
L 274.427676 234.665698 
L 274.529164 234.282183 
L 274.630653 234.620551 
L 275.036606 234.483236 
L 275.239583 235.071709 
L 275.44256 234.566031 
L 275.544048 234.426216 
L 275.747025 234.794734 
L 275.848513 234.179391 
L 276.152978 235.291352 
L 276.254467 234.485266 
L 276.355955 234.736934 
L 276.457443 234.344045 
L 276.66042 234.710845 
L 276.964885 234.44215 
L 277.066374 235.040778 
L 277.26935 234.516354 
L 277.573816 234.982821 
L 277.675304 234.535569 
L 277.776792 234.725217 
L 277.979769 234.58384 
L 278.081257 234.95642 
L 278.182746 234.242504 
L 278.487211 235.281666 
L 278.690188 234.736465 
L 278.791676 234.54916 
L 278.893164 234.697254 
L 279.096141 234.580559 
L 279.19763 234.704128 
L 279.299118 234.50495 
L 279.502095 235.071865 
L 279.705071 234.545723 
L 279.80656 234.499014 
L 280.009537 234.971417 
L 280.111025 234.26453 
L 280.41549 235.192622 
L 280.618467 234.670385 
L 280.719955 234.651795 
L 280.821444 234.830821 
L 280.922932 234.782237 
L 281.02442 234.54666 
L 281.125909 234.593526 
L 281.328885 235.312597 
L 281.430374 234.836445 
L 281.531862 234.860971 
L 281.633351 234.79614 
L 281.734839 235.08077 
L 281.836327 234.997974 
L 281.937816 234.750525 
L 282.242281 235.141695 
L 282.343769 235.494123 
L 282.445258 234.946422 
L 282.546746 235.012815 
L 282.648234 235.223241 
L 282.749723 235.05765 
L 282.851211 235.397111 
L 282.952699 234.641172 
L 283.054188 235.185123 
L 283.155676 235.078895 
L 283.257165 235.768598 
L 283.358653 235.231208 
L 283.460141 235.553798 
L 283.56163 235.019376 
L 283.764606 235.416326 
L 283.967583 235.101078 
L 284.17056 235.77594 
L 284.272048 235.540207 
L 284.373537 235.59379 
L 284.475025 235.191372 
L 284.576513 235.553017 
L 284.678002 235.502559 
L 284.77949 235.84577 
L 284.880979 234.925801 
L 285.185444 235.98371 
L 285.38842 235.586604 
L 285.591397 235.536614 
L 285.692886 235.866234 
L 285.794374 235.393206 
L 285.895862 235.454912 
L 286.098839 236.395345 
L 286.200327 235.605975 
L 286.301816 235.987928 
L 286.403304 235.345716 
L 286.606281 235.87139 
L 286.707769 235.557391 
L 286.910746 236.030263 
L 287.012234 236.011361 
L 287.113723 236.117902 
L 287.519676 235.828742 
L 287.621165 236.406593 
L 287.722653 235.423981 
L 287.824141 236.007768 
L 287.92563 235.803591 
L 288.027118 236.850564 
L 288.128607 236.044167 
L 288.230095 236.333326 
L 288.331583 235.8189 
L 288.53456 236.318017 
L 288.737537 235.85155 
L 288.940514 236.737619 
L 289.14349 236.208196 
L 289.244979 236.178358 
L 289.346467 236.362227 
L 289.447955 236.159299 
L 289.549444 236.427682 
L 289.650932 236.008705 
L 289.955397 236.679818 
L 290.158374 236.284899 
L 290.361351 236.515633 
L 290.462839 236.517976 
L 290.564328 236.172266 
L 290.868793 237.058647 
L 291.071769 236.648731 
L 291.274746 236.469549 
L 291.477723 236.5839 
L 291.6807 236.551251 
L 291.782188 237.217208 
L 291.985165 236.775111 
L 292.086653 236.594523 
L 292.391118 236.894149 
L 292.492607 236.504854 
L 292.695583 236.880871 
L 292.797072 237.280789 
L 292.89856 236.849783 
L 293.000049 237.0135 
L 293.101537 236.761052 
L 293.304514 237.021779 
L 293.406002 236.639358 
L 293.710467 237.480436 
L 293.811956 236.987412 
L 293.913444 237.149097 
L 294.014932 236.710593 
L 294.116421 237.24689 
L 294.319397 237.036152 
L 294.420886 236.872279 
L 294.522374 236.933672 
L 294.623862 237.67399 
L 294.725351 237.528239 
L 294.826839 237.064271 
L 294.928328 237.126602 
L 295.029816 236.998503 
L 295.232793 237.321718 
L 295.334281 236.638577 
L 295.537258 237.465283 
L 295.638746 237.70414 
L 295.841723 237.173936 
L 295.943211 237.418261 
L 296.146188 237.323593 
L 296.247676 236.984287 
L 296.349165 237.36046 
L 296.450653 237.236892 
L 296.552142 238.117181 
L 296.755118 237.425759 
L 296.958095 237.309221 
L 297.059583 237.536987 
L 297.161072 237.16097 
L 297.465537 237.982052 
L 297.668514 237.623063 
L 297.87149 237.405451 
L 298.074467 237.471219 
L 298.277444 237.48231 
L 298.378932 237.937374 
L 298.480421 237.863951 
L 298.581909 237.506837 
L 298.683397 237.732103 
L 298.886374 237.511055 
L 298.987863 237.816773 
L 299.089351 237.072082 
L 299.190839 237.849892 
L 299.292328 237.661805 
L 299.393816 238.213255 
L 299.596793 237.652276 
L 299.79977 237.725073 
L 299.901258 238.121867 
L 300.002746 237.330154 
L 300.104235 237.481217 
L 300.307211 238.505383 
L 300.4087 237.746788 
L 300.510188 237.885041 
L 300.611677 237.66368 
L 300.713165 237.920346 
L 300.916142 237.793184 
L 301.01763 237.428415 
L 301.220607 238.460548 
L 301.423584 237.889102 
L 301.525072 237.762253 
L 301.728049 237.901131 
L 301.829537 237.790216 
L 301.931025 237.958776 
L 302.032514 237.858327 
L 302.134002 238.342603 
L 302.235491 238.037041 
L 302.336979 238.309329 
L 302.539956 237.869263 
L 302.742932 238.213255 
L 302.844421 237.535581 
L 303.148886 238.50507 
L 303.351863 238.019388 
L 303.453351 238.193415 
L 303.554839 238.087968 
L 303.656328 238.316984 
L 303.757816 237.648214 
L 303.960793 238.039853 
L 304.062281 238.935607 
L 304.16377 238.144675 
L 304.265258 238.315109 
L 304.366746 237.783343 
L 304.569723 238.212318 
L 304.7727 238.014858 
L 304.874188 238.138739 
L 304.975677 238.756581 
L 305.178653 238.136864 
L 305.38163 238.162953 
L 305.686095 238.039072 
L 305.787584 238.056881 
L 305.889072 238.64801 
L 306.295026 238.155298 
L 306.396514 238.172013 
L 306.498002 238.352601 
L 306.599491 237.921127 
L 306.700979 238.398529 
L 307.005444 238.010171 
L 307.309909 238.688783 
L 307.512886 238.182324 
L 307.614374 238.24278 
L 307.715863 238.167639 
L 307.817351 238.704717 
L 307.91884 237.838956 
L 308.223305 238.941544 
L 308.426281 238.187635 
L 308.730747 238.549124 
L 308.832235 237.879104 
L 309.1367 238.944512 
L 309.238188 238.13374 
L 309.339677 238.574431 
L 309.441165 238.177168 
L 309.644142 238.420088 
L 309.74563 238.037197 
L 310.050095 238.981848 
L 310.253072 238.334636 
L 310.354561 238.262464 
L 310.557537 238.354007 
L 310.659026 238.371504 
L 310.862002 238.256683 
L 310.963491 239.076047 
L 311.064979 238.501477 
L 311.166468 238.538501 
L 311.673909 238.314797 
L 311.775398 238.481013 
L 311.876886 238.956228 
L 312.079863 238.595677 
L 312.181351 238.398061 
L 312.384328 238.459142 
L 312.688793 238.440865 
L 312.790282 238.834222 
L 312.89177 238.786107 
L 312.993258 238.708779 
L 313.196235 238.384157 
L 313.399212 238.781108 
L 313.5007 238.15686 
L 313.703677 238.754238 
L 313.805165 238.782982 
L 313.906654 238.545843 
L 314.008142 238.779077 
L 314.10963 238.445082 
L 314.312607 238.778296 
L 314.414096 238.227627 
L 314.515584 238.389937 
L 314.718561 239.14822 
L 314.921537 238.442895 
L 315.124514 238.712215 
L 315.226003 238.82563 
L 315.327491 238.240905 
L 315.631956 239.176496 
L 315.834933 238.636762 
L 315.936421 238.694719 
L 316.03791 238.614579 
L 316.139398 238.829379 
L 316.240886 238.441646 
L 316.342375 238.702686 
L 316.443863 238.598645 
L 316.545351 239.401293 
L 316.64684 238.814538 
L 316.748328 238.886555 
L 316.951305 238.529128 
L 317.052793 239.218674 
L 317.154282 238.470077 
L 317.25577 238.566151 
L 317.357258 238.837502 
L 317.458747 239.431287 
L 317.560235 238.826411 
L 317.661724 239.008874 
L 317.763212 238.369785 
L 317.966189 238.886086 
L 318.169165 238.702217 
L 318.270654 238.820943 
L 318.372142 239.47206 
L 318.473631 238.934357 
L 318.575119 239.043241 
L 318.676607 238.695344 
L 318.778096 238.73143 
L 318.879584 239.018247 
L 319.082561 238.843907 
L 319.184049 238.769704 
L 319.285538 239.69717 
L 319.387026 238.934201 
L 319.488514 239.161342 
L 319.590003 238.736585 
L 319.894468 239.044647 
L 320.097445 238.761737 
L 320.198933 239.755908 
L 320.300421 239.031525 
L 320.40191 239.122132 
L 320.604886 238.813132 
L 320.807863 239.150407 
L 320.909352 238.737523 
L 321.112328 239.66952 
L 321.315305 239.103542 
L 321.416793 239.108384 
L 321.61977 239.349585 
L 321.721259 238.910769 
L 322.025724 239.31303 
L 322.127212 238.770172 
L 322.431677 239.72732 
L 322.634654 239.098543 
L 322.939119 239.353334 
L 323.040607 239.016841 
L 323.142096 239.299908 
L 323.243584 239.228204 
L 323.345073 239.96774 
L 323.548049 239.197273 
L 323.751026 239.497211 
L 323.852514 239.3688 
L 323.954003 239.018247 
L 324.258468 240.004451 
L 324.461445 239.326934 
L 324.562933 239.303032 
L 324.664421 239.621561 
L 324.76591 239.577976 
L 324.968887 239.615468 
L 325.171863 239.390983 
L 325.37484 239.80871 
L 325.476328 238.945137 
L 325.679305 239.630465 
L 325.780794 239.96446 
L 326.085259 239.489869 
L 326.186747 239.571415 
L 326.288235 239.925561 
L 326.389724 239.178839 
L 326.491212 239.723415 
L 326.592701 239.580163 
L 326.694189 240.138799 
L 326.897166 239.445034 
L 326.998654 239.856981 
L 327.100142 239.668895 
L 327.201631 239.857763 
L 327.303119 239.217893 
L 327.404608 239.92025 
L 327.506096 239.606251 
L 327.607584 240.282363 
L 327.810561 239.288191 
L 327.912049 240.403432 
L 328.013538 239.766844 
L 328.115026 240.010075 
L 328.216515 239.318966 
L 328.419491 239.974301 
L 328.52098 239.530329 
L 328.723956 239.856981 
L 328.825445 240.373126 
L 328.926933 239.923218 
L 329.028422 240.112554 
L 329.12991 239.616406 
L 329.231398 239.777779 
L 329.332887 240.289862 
L 329.434375 239.52205 
L 329.637352 239.987736 
L 329.73884 240.552621 
L 329.840329 239.876821 
L 329.941817 239.910721 
L 330.043305 240.188008 
L 330.144794 239.89916 
L 330.246282 240.189257 
L 330.449259 239.694983 
L 330.652236 240.571211 
L 330.753724 239.98758 
L 330.855212 240.243153 
L 331.058189 239.989611 
L 331.159677 240.091152 
L 331.261166 239.900879 
L 331.464143 240.027259 
L 331.565631 240.753673 
L 331.667119 240.148953 
L 331.768608 240.172386 
L 331.870096 240.018823 
L 332.073073 240.248464 
L 332.174561 239.799962 
L 332.27605 240.237216 
L 332.377538 240.089746 
L 332.479026 240.818348 
L 332.783491 240.066158 
L 332.986468 240.356567 
L 333.087957 239.855888 
L 333.392422 240.938323 
L 333.595398 240.235498 
L 333.696887 240.12224 
L 333.899864 240.511691 
L 334.001352 239.909939 
L 334.305817 240.913641 
L 334.508794 240.210972 
L 334.813259 240.610109 
L 334.914747 239.976957 
L 335.219212 241.016276 
L 335.422189 240.445767 
L 335.523678 240.439675 
L 335.625166 240.690405 
L 335.726654 240.61089 
L 335.828143 240.083966 
L 335.929631 240.634635 
L 336.031119 240.48201 
L 336.132608 241.036584 
L 336.335585 240.041006 
L 336.538561 240.917234 
L 336.64005 240.56793 
L 336.843026 240.586832 
L 336.944515 240.452953 
L 337.046003 240.957538 
L 337.147492 240.376407 
L 337.350468 241.003935 
L 337.451957 240.956601 
L 337.654933 240.631511 
L 337.85791 240.568399 
L 337.959399 240.896144 
L 338.060887 240.53903 
L 338.365352 241.144843 
L 338.568329 240.600267 
L 338.771306 240.785229 
L 338.872794 240.598393 
L 339.177259 241.110475 
L 339.278747 240.8963 
L 339.380236 241.16234 
L 339.481724 240.482791 
L 339.684701 240.911766 
L 339.887678 240.706652 
L 340.090654 241.077982 
L 340.293631 241.097353 
L 340.39512 240.643383 
L 340.699585 240.922233 
L 340.902561 240.803976 
L 341.00405 241.398542 
L 341.410003 240.736646 
L 341.511492 241.101415 
L 341.61298 241.062673 
L 341.714468 240.619951 
L 341.815957 240.881303 
L 341.917445 241.754406 
L 342.120422 240.913328 
L 342.22191 240.857246 
L 342.424887 240.975503 
L 342.627864 240.770857 
L 342.729352 241.044551 
L 342.830841 241.784869 
L 342.932329 241.014401 
L 343.033817 241.213736 
L 343.135306 240.697903 
L 343.338282 241.179368 
L 343.439771 240.846467 
L 343.541259 240.898019 
L 343.744236 241.519454 
L 343.845724 240.983001 
L 343.947213 241.427129 
L 344.048701 240.798039 
L 344.150189 240.856309 
L 344.251678 241.523047 
L 344.353166 240.724148 
L 344.454655 241.104383 
L 344.556143 241.044864 
L 344.657631 241.867352 
L 344.75912 240.99175 
L 344.860608 241.060954 
L 345.165073 241.35855 
L 345.266562 240.845842 
L 345.469538 241.125472 
L 345.571027 241.754719 
L 345.774003 241.075951 
L 346.078469 241.321682 
L 346.179957 240.837094 
L 346.484422 241.7266 
L 346.687399 240.958944 
L 346.788887 240.987532 
L 346.991864 241.514143 
L 347.093352 240.668534 
L 347.296329 241.434003 
L 347.397817 241.466965 
L 347.600794 241.158591 
L 347.702283 241.202957 
L 347.803771 240.980814 
L 348.006748 241.109694 
L 348.311213 241.459467 
L 348.51419 241.069546 
L 348.615678 241.191553 
L 348.818655 240.993937 
L 348.920143 241.224983 
L 349.021631 241.119536 
L 349.12312 241.521329 
L 349.326097 241.331368 
L 349.427585 240.779918 
L 349.529073 241.281378 
L 349.630562 241.002997 
L 349.73205 241.349801 
L 349.935027 240.914422 
L 350.036515 241.886879 
L 350.138004 241.16109 
L 350.239492 241.402135 
L 350.34098 240.86037 
L 350.442469 241.036116 
L 350.543957 241.495709 
L 350.746934 240.832095 
L 350.949911 241.759718 
L 351.051399 241.221078 
L 351.152887 241.420412 
L 351.254376 240.736177 
L 351.355864 241.396354 
L 351.558841 240.830845 
L 351.660329 241.355738 
L 351.761818 241.212798 
L 351.863306 241.825642 
L 352.066283 241.025493 
L 352.269259 241.244354 
L 352.370748 241.264819 
L 352.472236 240.871149 
L 352.776701 241.565226 
L 352.979678 241.003622 
L 353.081166 241.141094 
L 353.284143 241.528671 
L 353.385632 240.87443 
L 353.690097 241.782682 
L 353.791585 241.199988 
L 353.893073 241.294344 
L 354.09605 241.069078 
L 354.299027 241.365736 
L 354.400515 241.231232 
L 354.603492 241.675985 
L 354.806469 241.122973 
L 354.907957 241.354176 
L 355.110934 241.02893 
L 355.212422 241.446032 
L 355.313911 241.177805 
L 355.415399 241.779714 
L 355.516887 241.351051 
L 355.618376 241.634118 
L 355.719864 241.048144 
L 355.821353 241.414007 
L 356.227306 241.229982 
L 356.328794 241.935932 
L 356.430283 241.239512 
L 356.531771 241.753781 
L 356.63326 241.235294 
L 356.734748 241.298093 
L 356.836236 241.652708 
L 356.937725 240.96941 
L 357.24219 242.116364 
L 357.445167 241.306998 
L 357.546655 241.618809 
L 357.648143 241.336211 
L 357.749632 241.637087 
L 357.85112 241.231232 
L 358.155585 241.820799 
L 358.358562 241.34449 
L 358.561539 241.600688 
L 358.663027 241.773465 
L 358.764515 241.190615 
L 358.967492 241.663331 
L 359.068981 240.98222 
L 359.170469 241.660051 
L 359.271957 241.375421 
L 359.373446 241.839701 
L 359.576422 241.399323 
L 359.677911 241.341678 
L 359.779399 241.075795 
L 359.880888 241.466496 
L 359.982376 240.846935 
L 360.083864 241.422755 
L 360.185353 241.165464 
L 360.286841 241.533514 
L 360.489818 240.976909 
L 360.794283 241.042364 
L 360.895771 240.677751 
L 361.098748 241.576005 
L 361.301725 240.950508 
L 361.504702 240.714463 
L 361.60619 240.920358 
L 361.707678 240.60839 
L 361.809167 240.78273 
L 361.910655 240.53325 
L 362.012143 241.25404 
L 362.113632 240.741332 
L 362.21512 240.898956 
L 362.316609 240.482322 
L 362.519585 240.660411 
L 362.621074 240.140517 
L 362.722562 240.433895 
L 363.027027 239.56501 
L 363.128516 238.856405 
L 363.230004 239.104479 
L 363.331492 238.540844 
L 363.432981 238.759393 
L 363.635957 237.650245 
L 363.737446 237.570105 
L 363.838934 237.121759 
L 363.940423 237.340308 
L 364.041911 236.180858 
L 364.143399 236.19273 
L 364.244888 236.176483 
L 364.346376 235.786563 
L 364.447864 235.988241 
L 364.549353 234.819729 
L 364.650841 234.839882 
L 364.75233 235.021719 
L 365.056795 233.244426 
L 365.158283 233.358778 
L 365.259771 233.882577 
L 365.564237 231.965 
L 365.665725 232.139496 
L 365.868702 231.585234 
L 365.97019 231.676778 
L 366.071678 230.509985 
L 366.173167 230.842573 
L 366.274655 230.305964 
L 366.376144 230.492645 
L 366.57912 229.610325 
L 366.680609 229.528935 
L 366.883585 228.782994 
L 366.985074 228.228107 
L 367.086562 228.304029 
L 367.289539 227.577459 
L 367.391027 227.655412 
L 367.594004 226.726539 
L 367.695492 226.627653 
L 367.898469 225.911081 
L 367.999958 225.087811 
L 368.101446 225.15108 
L 368.202934 225.108588 
L 368.405911 224.649463 
L 368.608888 223.736837 
L 368.710376 223.501885 
L 368.811865 223.629672 
L 369.014841 221.968761 
L 369.11633 222.615192 
L 369.522283 220.870079 
L 369.623772 221.046606 
L 369.72526 220.329409 
L 369.826748 220.346593 
L 370.029725 219.297901 
L 370.131213 219.372573 
L 370.232702 219.114969 
L 370.435679 218.129233 
L 370.537167 217.983013 
L 371.146097 215.930932 
L 371.247586 216.029037 
L 371.450562 215.021899 
L 371.653539 214.165199 
L 371.755027 214.482166 
L 371.958004 213.141346 
L 372.059493 213.341305 
L 372.363958 211.624312 
L 372.465446 211.736477 
L 372.566934 211.778031 
L 372.8714 210.121807 
L 372.972888 210.218349 
L 373.074376 210.115714 
L 373.48033 208.556658 
L 373.581818 208.499482 
L 373.581818 208.499482 
" style="fill:none;stroke:#081d58;stroke-dasharray:5.55,2.4;stroke-dashoffset:0;stroke-width:1.5;"/>
    <defs>
     <path d="M -0 4.242641 
L 4.242641 0 
L 0 -4.242641 
L -4.242641 -0 
z
" id="me98c664262" style="stroke:#081d58;stroke-linejoin:miter;"/>
    </defs>
    <g clip-path="url(#p59980cb4f4)">
     <use style="fill:#081d58;stroke:#081d58;stroke-linejoin:miter;" x="69.218182" xlink:href="#me98c664262" y="80.646853"/>
     <use style="fill:#081d58;stroke:#081d58;stroke-linejoin:miter;" x="77.337252" xlink:href="#me98c664262" y="81.006467"/>
     <use style="fill:#081d58;stroke:#081d58;stroke-linejoin:miter;" x="85.456322" xlink:href="#me98c664262" y="80.510474"/>
     <use style="fill:#081d58;stroke:#081d58;stroke-linejoin:miter;" x="93.575392" xlink:href="#me98c664262" y="81.062237"/>
     <use style="fill:#081d58;stroke:#081d58;stroke-linejoin:miter;" x="101.694462" xlink:href="#me98c664262" y="83.008558"/>
     <use style="fill:#081d58;stroke:#081d58;stroke-linejoin:miter;" x="109.813532" xlink:href="#me98c664262" y="85.254193"/>
     <use style="fill:#081d58;stroke:#081d58;stroke-linejoin:miter;" x="117.932602" xlink:href="#me98c664262" y="85.847978"/>
     <use style="fill:#081d58;stroke:#081d58;stroke-linejoin:miter;" x="126.051672" xlink:href="#me98c664262" y="86.001696"/>
     <use style="fill:#081d58;stroke:#081d58;stroke-linejoin:miter;" x="134.170742" xlink:href="#me98c664262" y="91.46808"/>
     <use style="fill:#081d58;stroke:#081d58;stroke-linejoin:miter;" x="142.289812" xlink:href="#me98c664262" y="99.476443"/>
     <use style="fill:#081d58;stroke:#081d58;stroke-linejoin:miter;" x="150.408882" xlink:href="#me98c664262" y="109.025742"/>
     <use style="fill:#081d58;stroke:#081d58;stroke-linejoin:miter;" x="158.527952" xlink:href="#me98c664262" y="131.371802"/>
     <use style="fill:#081d58;stroke:#081d58;stroke-linejoin:miter;" x="166.647022" xlink:href="#me98c664262" y="179.334347"/>
     <use style="fill:#081d58;stroke:#081d58;stroke-linejoin:miter;" x="174.766092" xlink:href="#me98c664262" y="212.900614"/>
     <use style="fill:#081d58;stroke:#081d58;stroke-linejoin:miter;" x="182.885162" xlink:href="#me98c664262" y="216.929166"/>
     <use style="fill:#081d58;stroke:#081d58;stroke-linejoin:miter;" x="191.004232" xlink:href="#me98c664262" y="219.721876"/>
     <use style="fill:#081d58;stroke:#081d58;stroke-linejoin:miter;" x="199.123302" xlink:href="#me98c664262" y="224.362178"/>
     <use style="fill:#081d58;stroke:#081d58;stroke-linejoin:miter;" x="207.242372" xlink:href="#me98c664262" y="224.074893"/>
     <use style="fill:#081d58;stroke:#081d58;stroke-linejoin:miter;" x="215.361442" xlink:href="#me98c664262" y="227.784292"/>
     <use style="fill:#081d58;stroke:#081d58;stroke-linejoin:miter;" x="223.480512" xlink:href="#me98c664262" y="229.128861"/>
     <use style="fill:#081d58;stroke:#081d58;stroke-linejoin:miter;" x="231.599582" xlink:href="#me98c664262" y="230.051953"/>
     <use style="fill:#081d58;stroke:#081d58;stroke-linejoin:miter;" x="239.718652" xlink:href="#me98c664262" y="231.643816"/>
     <use style="fill:#081d58;stroke:#081d58;stroke-linejoin:miter;" x="247.837722" xlink:href="#me98c664262" y="233.905854"/>
     <use style="fill:#081d58;stroke:#081d58;stroke-linejoin:miter;" x="255.956792" xlink:href="#me98c664262" y="234.323581"/>
     <use style="fill:#081d58;stroke:#081d58;stroke-linejoin:miter;" x="264.075862" xlink:href="#me98c664262" y="233.926943"/>
     <use style="fill:#081d58;stroke:#081d58;stroke-linejoin:miter;" x="272.194932" xlink:href="#me98c664262" y="233.920226"/>
     <use style="fill:#081d58;stroke:#081d58;stroke-linejoin:miter;" x="280.314002" xlink:href="#me98c664262" y="234.855503"/>
     <use style="fill:#081d58;stroke:#081d58;stroke-linejoin:miter;" x="288.433072" xlink:href="#me98c664262" y="236.101655"/>
     <use style="fill:#081d58;stroke:#081d58;stroke-linejoin:miter;" x="296.552142" xlink:href="#me98c664262" y="238.117181"/>
     <use style="fill:#081d58;stroke:#081d58;stroke-linejoin:miter;" x="304.671212" xlink:href="#me98c664262" y="237.978771"/>
     <use style="fill:#081d58;stroke:#081d58;stroke-linejoin:miter;" x="312.790282" xlink:href="#me98c664262" y="238.834222"/>
     <use style="fill:#081d58;stroke:#081d58;stroke-linejoin:miter;" x="320.909352" xlink:href="#me98c664262" y="238.737523"/>
     <use style="fill:#081d58;stroke:#081d58;stroke-linejoin:miter;" x="329.028422" xlink:href="#me98c664262" y="240.112554"/>
     <use style="fill:#081d58;stroke:#081d58;stroke-linejoin:miter;" x="337.147492" xlink:href="#me98c664262" y="240.376407"/>
     <use style="fill:#081d58;stroke:#081d58;stroke-linejoin:miter;" x="345.266562" xlink:href="#me98c664262" y="240.845842"/>
     <use style="fill:#081d58;stroke:#081d58;stroke-linejoin:miter;" x="353.385632" xlink:href="#me98c664262" y="240.87443"/>
     <use style="fill:#081d58;stroke:#081d58;stroke-linejoin:miter;" x="361.504702" xlink:href="#me98c664262" y="240.714463"/>
     <use style="fill:#081d58;stroke:#081d58;stroke-linejoin:miter;" x="369.623772" xlink:href="#me98c664262" y="221.046606"/>
    </g>
   </g>
   <g id="patch_3">
    <path d="M 54 252 
L 54 34.56 
" style="fill:none;stroke:#000000;stroke-linecap:square;stroke-linejoin:miter;stroke-width:0.8;"/>
   </g>
   <g id="patch_4">
    <path d="M 388.8 252 
L 388.8 34.56 
" style="fill:none;stroke:#000000;stroke-linecap:square;stroke-linejoin:miter;stroke-width:0.8;"/>
   </g>
   <g id="patch_5">
    <path d="M 54 252 
L 388.8 252 
" style="fill:none;stroke:#000000;stroke-linecap:square;stroke-linejoin:miter;stroke-width:0.8;"/>
   </g>
   <g id="patch_6">
    <path d="M 54 34.56 
L 388.8 34.56 
" style="fill:none;stroke:#000000;stroke-linecap:square;stroke-linejoin:miter;stroke-width:0.8;"/>
   </g>
   <g id="legend_1">
    <g id="patch_7">
     <path d="M 280.085938 71.91625 
L 381.8 71.91625 
Q 383.8 71.91625 383.8 69.91625 
L 383.8 41.56 
Q 383.8 39.56 381.8 39.56 
L 280.085938 39.56 
Q 278.085938 39.56 278.085938 41.56 
L 278.085938 69.91625 
Q 278.085938 71.91625 280.085938 71.91625 
z
" style="fill:#ffffff;opacity:0.8;stroke:#cccccc;stroke-linejoin:miter;"/>
    </g>
    <g id="line2d_16">
     <path d="M 282.085938 47.658437 
L 302.085938 47.658437 
" style="fill:none;stroke:#40b5c4;stroke-dasharray:5.55,2.4;stroke-dashoffset:0;stroke-width:1.5;"/>
    </g>
    <g id="line2d_17">
     <g>
      <use style="fill:#40b5c4;stroke:#40b5c4;" x="292.085938" xlink:href="#m925147a7d6" y="47.658437"/>
     </g>
    </g>
    <g id="text_16">
     <text style="font-family:DejaVu Sans;font-size:10px;font-style:normal;font-weight:normal;text-anchor:start;" transform="rotate(-0, 310.085938, 51.158437)" x="310.085938" y="51.158437">original</text>
    </g>
    <g id="line2d_18">
     <path d="M 282.085938 62.336562 
L 302.085938 62.336562 
" style="fill:none;stroke:#081d58;stroke-dasharray:5.55,2.4;stroke-dashoffset:0;stroke-width:1.5;"/>
    </g>
    <g id="line2d_19">
     <g>
      <use style="fill:#081d58;stroke:#081d58;stroke-linejoin:miter;" x="292.085938" xlink:href="#me98c664262" y="62.336562"/>
     </g>
    </g>
    <g id="text_17">
     <text style="font-family:DejaVu Sans;font-size:10px;font-style:normal;font-weight:normal;text-anchor:start;" transform="rotate(-0, 310.085938, 65.836562)" x="310.085938" y="65.836562">reconstructed</text>
    </g>
   </g>
  </g>
  <g id="text_18">
   <text style="font-family:DejaVu Sans;font-size:12px;font-style:normal;font-weight:normal;text-anchor:middle;" transform="rotate(-0, 216, 14.878125)" x="216" y="14.878125">Reconstruction of the weight curve</text>
  </g>
 </g>
 <defs>
  <clipPath id="p59980cb4f4">
   <rect height="217.44" width="334.8" x="54" y="34.56"/>
  </clipPath>
 </defs>
</svg>
