<?xml version="1.0" encoding="utf-8" standalone="no"?>
<!DOCTYPE svg PUBLIC "-//W3C//DTD SVG 1.1//EN"
  "http://www.w3.org/Graphics/SVG/1.1/DTD/svg11.dtd">
<!-- Created with matplotlib (https://matplotlib.org/) -->
<svg height="288pt" version="1.1" viewBox="0 0 432 288" width="432pt" xmlns="http://www.w3.org/2000/svg" xmlns:xlink="http://www.w3.org/1999/xlink">
 <defs>
  <style type="text/css">
*{stroke-linecap:butt;stroke-linejoin:round;}
  </style>
 </defs>
 <g id="figure_1">
  <g id="patch_1">
   <path d="M 0 288 
L 432 288 
L 432 0 
L 0 0 
z
" style="fill:#ffffff;"/>
  </g>
  <g id="axes_1">
   <g id="patch_2">
    <path d="M 54 252 
L 388.8 252 
L 388.8 34.56 
L 54 34.56 
z
" style="fill:#ffffff;"/>
   </g>
   <g id="matplotlib.axis_1">
    <g id="xtick_1">
     <g id="line2d_1">
      <defs>
       <path d="M 0 0 
L 0 3.5 
" id="m4ac000133b" style="stroke:#000000;stroke-width:0.8;"/>
      </defs>
      <g>
       <use style="stroke:#000000;stroke-width:0.8;" x="69.218182" xlink:href="#m4ac000133b" y="252"/>
      </g>
     </g>
     <g id="text_1">
      <text style="font-family:DejaVu Sans;font-size:10px;font-style:normal;font-weight:normal;text-anchor:middle;" transform="rotate(-0, 69.218182, 266.598437)" x="69.218182" y="266.598437">0</text>
     </g>
    </g>
    <g id="xtick_2">
     <g id="line2d_2">
      <g>
       <use style="stroke:#000000;stroke-width:0.8;" x="119.962369" xlink:href="#m4ac000133b" y="252"/>
      </g>
     </g>
     <g id="text_2">
      <text style="font-family:DejaVu Sans;font-size:10px;font-style:normal;font-weight:normal;text-anchor:middle;" transform="rotate(-0, 119.962369, 266.598437)" x="119.962369" y="266.598437">500</text>
     </g>
    </g>
    <g id="xtick_3">
     <g id="line2d_3">
      <g>
       <use style="stroke:#000000;stroke-width:0.8;" x="170.706557" xlink:href="#m4ac000133b" y="252"/>
      </g>
     </g>
     <g id="text_3">
      <text style="font-family:DejaVu Sans;font-size:10px;font-style:normal;font-weight:normal;text-anchor:middle;" transform="rotate(-0, 170.706557, 266.598437)" x="170.706557" y="266.598437">1000</text>
     </g>
    </g>
    <g id="xtick_4">
     <g id="line2d_4">
      <g>
       <use style="stroke:#000000;stroke-width:0.8;" x="221.450744" xlink:href="#m4ac000133b" y="252"/>
      </g>
     </g>
     <g id="text_4">
      <text style="font-family:DejaVu Sans;font-size:10px;font-style:normal;font-weight:normal;text-anchor:middle;" transform="rotate(-0, 221.450744, 266.598437)" x="221.450744" y="266.598437">1500</text>
     </g>
    </g>
    <g id="xtick_5">
     <g id="line2d_5">
      <g>
       <use style="stroke:#000000;stroke-width:0.8;" x="272.194932" xlink:href="#m4ac000133b" y="252"/>
      </g>
     </g>
     <g id="text_5">
      <text style="font-family:DejaVu Sans;font-size:10px;font-style:normal;font-weight:normal;text-anchor:middle;" transform="rotate(-0, 272.194932, 266.598437)" x="272.194932" y="266.598437">2000</text>
     </g>
    </g>
    <g id="xtick_6">
     <g id="line2d_6">
      <g>
       <use style="stroke:#000000;stroke-width:0.8;" x="322.939119" xlink:href="#m4ac000133b" y="252"/>
      </g>
     </g>
     <g id="text_6">
      <text style="font-family:DejaVu Sans;font-size:10px;font-style:normal;font-weight:normal;text-anchor:middle;" transform="rotate(-0, 322.939119, 266.598437)" x="322.939119" y="266.598437">2500</text>
     </g>
    </g>
    <g id="xtick_7">
     <g id="line2d_7">
      <g>
       <use style="stroke:#000000;stroke-width:0.8;" x="373.683307" xlink:href="#m4ac000133b" y="252"/>
      </g>
     </g>
     <g id="text_7">
      <text style="font-family:DejaVu Sans;font-size:10px;font-style:normal;font-weight:normal;text-anchor:middle;" transform="rotate(-0, 373.683307, 266.598437)" x="373.683307" y="266.598437">3000</text>
     </g>
    </g>
    <g id="text_8">
     <text style="font-family:DejaVu Sans;font-size:10px;font-style:normal;font-weight:normal;text-anchor:middle;" transform="rotate(-0, 221.4, 280.276563)" x="221.4" y="280.276563">Time</text>
    </g>
   </g>
   <g id="matplotlib.axis_2">
    <g id="ytick_1">
     <g id="line2d_8">
      <defs>
       <path d="M 0 0 
L -3.5 0 
" id="m73a2d26668" style="stroke:#000000;stroke-width:0.8;"/>
      </defs>
      <g>
       <use style="stroke:#000000;stroke-width:0.8;" x="54" xlink:href="#m73a2d26668" y="248.320527"/>
      </g>
     </g>
     <g id="text_9">
      <text style="font-family:DejaVu Sans;font-size:10px;font-style:normal;font-weight:normal;text-anchor:end;" transform="rotate(-0, 47, 252.119746)" x="47" y="252.119746">−12</text>
     </g>
    </g>
    <g id="ytick_2">
     <g id="line2d_9">
      <g>
       <use style="stroke:#000000;stroke-width:0.8;" x="54" xlink:href="#m73a2d26668" y="214.740271"/>
      </g>
     </g>
     <g id="text_10">
      <text style="font-family:DejaVu Sans;font-size:10px;font-style:normal;font-weight:normal;text-anchor:end;" transform="rotate(-0, 47, 218.53949)" x="47" y="218.53949">−10</text>
     </g>
    </g>
    <g id="ytick_3">
     <g id="line2d_10">
      <g>
       <use style="stroke:#000000;stroke-width:0.8;" x="54" xlink:href="#m73a2d26668" y="181.160015"/>
      </g>
     </g>
     <g id="text_11">
      <text style="font-family:DejaVu Sans;font-size:10px;font-style:normal;font-weight:normal;text-anchor:end;" transform="rotate(-0, 47, 184.959234)" x="47" y="184.959234">−8</text>
     </g>
    </g>
    <g id="ytick_4">
     <g id="line2d_11">
      <g>
       <use style="stroke:#000000;stroke-width:0.8;" x="54" xlink:href="#m73a2d26668" y="147.579759"/>
      </g>
     </g>
     <g id="text_12">
      <text style="font-family:DejaVu Sans;font-size:10px;font-style:normal;font-weight:normal;text-anchor:end;" transform="rotate(-0, 47, 151.378978)" x="47" y="151.378978">−6</text>
     </g>
    </g>
    <g id="ytick_5">
     <g id="line2d_12">
      <g>
       <use style="stroke:#000000;stroke-width:0.8;" x="54" xlink:href="#m73a2d26668" y="113.999503"/>
      </g>
     </g>
     <g id="text_13">
      <text style="font-family:DejaVu Sans;font-size:10px;font-style:normal;font-weight:normal;text-anchor:end;" transform="rotate(-0, 47, 117.798722)" x="47" y="117.798722">−4</text>
     </g>
    </g>
    <g id="ytick_6">
     <g id="line2d_13">
      <g>
       <use style="stroke:#000000;stroke-width:0.8;" x="54" xlink:href="#m73a2d26668" y="80.419247"/>
      </g>
     </g>
     <g id="text_14">
      <text style="font-family:DejaVu Sans;font-size:10px;font-style:normal;font-weight:normal;text-anchor:end;" transform="rotate(-0, 47, 84.218466)" x="47" y="84.218466">−2</text>
     </g>
    </g>
    <g id="ytick_7">
     <g id="line2d_14">
      <g>
       <use style="stroke:#000000;stroke-width:0.8;" x="54" xlink:href="#m73a2d26668" y="46.838992"/>
      </g>
     </g>
     <g id="text_15">
      <text style="font-family:DejaVu Sans;font-size:10px;font-style:normal;font-weight:normal;text-anchor:end;" transform="rotate(-0, 47, 50.63821)" x="47" y="50.63821">0</text>
     </g>
    </g>
    <g id="text_16">
     <text style="font-family:DejaVu Sans;font-size:10px;font-style:normal;font-weight:normal;text-anchor:middle;" transform="rotate(-90, 19.815625, 143.28)" x="19.815625" y="143.28">temperature (°C)</text>
    </g>
   </g>
   <g id="line2d_15">
    <path clip-path="url(#pc6e911729f)" d="M 69.218182 45.865823 
L 71.653903 44.93487 
L 72.770275 44.731409 
L 73.582182 44.790744 
L 74.292601 45.040574 
L 75.104508 45.595288 
L 75.814926 46.346556 
L 76.626833 47.538719 
L 77.540229 49.318074 
L 78.555112 51.835193 
L 79.671484 55.240542 
L 80.990833 60.04883 
L 82.513159 66.494623 
L 84.542926 76.169632 
L 89.008415 99.015103 
L 91.545624 111.338889 
L 93.67688 120.661675 
L 95.503671 127.717172 
L 97.127485 133.101027 
L 98.548322 137.083646 
L 99.867671 140.202815 
L 101.085532 142.53315 
L 102.201904 144.214212 
L 103.216787 145.375937 
L 104.231671 146.224913 
L 105.246555 146.811779 
L 106.261439 147.127383 
L 107.276322 147.193586 
L 108.291206 147.047646 
L 109.509067 146.634693 
L 110.929904 145.92113 
L 112.553718 144.872687 
L 115.090927 142.881713 
L 119.860881 139.072907 
L 122.39809 137.351079 
L 124.326369 136.294694 
L 126.356137 135.429046 
L 128.385904 134.798963 
L 130.111207 134.474594 
L 132.039486 134.356912 
L 133.764788 134.465091 
L 135.490091 134.797871 
L 137.215393 135.379381 
L 138.940695 136.175837 
L 140.564509 137.150353 
L 141.985347 138.259442 
L 143.406184 139.649832 
L 144.92851 141.486823 
L 146.450835 143.696337 
L 148.988044 147.859919 
L 150.307393 150.034375 
L 152.235672 152.504572 
L 153.859486 155.351171 
L 154.671393 157.219761 
L 155.990742 160.911826 
L 158.02051 167.282739 
L 161.369626 178.649354 
L 163.60237 186.96856 
L 165.835115 196.204725 
L 169.184231 210.114641 
L 170.402092 214.154715 
L 171.315487 216.469318 
L 172.025906 217.756449 
L 172.634836 218.471205 
L 173.142278 218.755462 
L 173.64972 218.75882 
L 174.157161 218.494879 
L 175.679487 217.168123 
L 176.085441 216.407195 
L 176.592882 215.029061 
L 177.201813 212.614036 
L 177.912231 208.814279 
L 178.825627 202.597801 
L 180.043487 192.516622 
L 182.174743 172.505359 
L 184.407487 152.295888 
L 186.13279 138.612135 
L 187.756604 127.422892 
L 189.380418 117.772766 
L 190.395301 112.832455 
L 193.033999 101.891706 
L 194.657813 96.246629 
L 196.281627 91.384914 
L 198.00693 86.930006 
L 199.732232 83.110285 
L 201.356046 79.981092 
L 203.182837 76.929285 
L 205.009627 74.288047 
L 206.937907 71.877522 
L 208.967674 69.692706 
L 211.200418 67.638098 
L 213.433163 65.889037 
L 215.868884 64.262829 
L 218.60907 62.721004 
L 221.552233 61.327363 
L 225.002837 59.964741 
L 229.468326 58.447951 
L 246.72135 53.04475 
L 256.362745 50.398301 
L 264.075862 48.469755 
L 270.063676 47.254721 
L 275.950002 46.250507 
L 282.749723 45.263672 
L 288.331583 44.680156 
L 292.594095 44.463813 
L 296.856607 44.484164 
L 302.844421 44.805705 
L 309.035212 45.374542 
L 319.792979 46.38067 
L 333.392422 47.460561 
L 337.756422 48.154912 
L 342.526375 49.163635 
L 350.543957 50.832898 
L 355.212422 51.521115 
L 358.764515 51.862764 
L 365.767213 52.241304 
L 371.653539 52.344574 
L 373.581818 52.310701 
L 373.581818 52.310701 
" style="fill:none;stroke:#40b5c4;stroke-dasharray:5.55,2.4;stroke-dashoffset:0;stroke-width:1.5;"/>
    <defs>
     <path d="M 0 3 
C 0.795609 3 1.55874 2.683901 2.12132 2.12132 
C 2.683901 1.55874 3 0.795609 3 0 
C 3 -0.795609 2.683901 -1.55874 2.12132 -2.12132 
C 1.55874 -2.683901 0.795609 -3 0 -3 
C -0.795609 -3 -1.55874 -2.683901 -2.12132 -2.12132 
C -2.683901 -1.55874 -3 -0.795609 -3 0 
C -3 0.795609 -2.683901 1.55874 -2.12132 2.12132 
C -1.55874 2.683901 -0.795609 3 0 3 
z
" id="mcf562b3d56" style="stroke:#40b5c4;"/>
    </defs>
    <g clip-path="url(#pc6e911729f)">
     <use style="fill:#40b5c4;stroke:#40b5c4;" x="69.218182" xlink:href="#mcf562b3d56" y="45.865823"/>
     <use style="fill:#40b5c4;stroke:#40b5c4;" x="77.337252" xlink:href="#mcf562b3d56" y="48.882525"/>
     <use style="fill:#40b5c4;stroke:#40b5c4;" x="85.456322" xlink:href="#mcf562b3d56" y="80.773922"/>
     <use style="fill:#40b5c4;stroke:#40b5c4;" x="93.575392" xlink:href="#mcf562b3d56" y="120.241636"/>
     <use style="fill:#40b5c4;stroke:#40b5c4;" x="101.694462" xlink:href="#mcf562b3d56" y="143.502075"/>
     <use style="fill:#40b5c4;stroke:#40b5c4;" x="109.813532" xlink:href="#mcf562b3d56" y="146.50059"/>
     <use style="fill:#40b5c4;stroke:#40b5c4;" x="117.932602" xlink:href="#mcf562b3d56" y="140.546257"/>
     <use style="fill:#40b5c4;stroke:#40b5c4;" x="126.051672" xlink:href="#mcf562b3d56" y="135.544125"/>
     <use style="fill:#40b5c4;stroke:#40b5c4;" x="134.170742" xlink:href="#mcf562b3d56" y="134.522648"/>
     <use style="fill:#40b5c4;stroke:#40b5c4;" x="142.289812" xlink:href="#mcf562b3d56" y="138.531576"/>
     <use style="fill:#40b5c4;stroke:#40b5c4;" x="150.408882" xlink:href="#mcf562b3d56" y="150.156372"/>
     <use style="fill:#40b5c4;stroke:#40b5c4;" x="158.527952" xlink:href="#mcf562b3d56" y="168.952618"/>
     <use style="fill:#40b5c4;stroke:#40b5c4;" x="166.647022" xlink:href="#mcf562b3d56" y="199.703234"/>
     <use style="fill:#40b5c4;stroke:#40b5c4;" x="174.766092" xlink:href="#mcf562b3d56" y="217.928884"/>
     <use style="fill:#40b5c4;stroke:#40b5c4;" x="182.885162" xlink:href="#mcf562b3d56" y="165.828848"/>
     <use style="fill:#40b5c4;stroke:#40b5c4;" x="191.004232" xlink:href="#mcf562b3d56" y="110.157385"/>
     <use style="fill:#40b5c4;stroke:#40b5c4;" x="199.123302" xlink:href="#mcf562b3d56" y="84.401866"/>
     <use style="fill:#40b5c4;stroke:#40b5c4;" x="207.242372" xlink:href="#mcf562b3d56" y="71.528052"/>
     <use style="fill:#40b5c4;stroke:#40b5c4;" x="215.361442" xlink:href="#mcf562b3d56" y="64.578702"/>
     <use style="fill:#40b5c4;stroke:#40b5c4;" x="223.480512" xlink:href="#mcf562b3d56" y="60.534321"/>
     <use style="fill:#40b5c4;stroke:#40b5c4;" x="231.599582" xlink:href="#mcf562b3d56" y="57.782253"/>
     <use style="fill:#40b5c4;stroke:#40b5c4;" x="239.718652" xlink:href="#mcf562b3d56" y="55.161385"/>
     <use style="fill:#40b5c4;stroke:#40b5c4;" x="247.837722" xlink:href="#mcf562b3d56" y="52.729608"/>
     <use style="fill:#40b5c4;stroke:#40b5c4;" x="255.956792" xlink:href="#mcf562b3d56" y="50.507193"/>
     <use style="fill:#40b5c4;stroke:#40b5c4;" x="264.075862" xlink:href="#mcf562b3d56" y="48.469755"/>
     <use style="fill:#40b5c4;stroke:#40b5c4;" x="272.194932" xlink:href="#mcf562b3d56" y="46.865413"/>
     <use style="fill:#40b5c4;stroke:#40b5c4;" x="280.314002" xlink:href="#mcf562b3d56" y="45.591452"/>
     <use style="fill:#40b5c4;stroke:#40b5c4;" x="288.433072" xlink:href="#mcf562b3d56" y="44.672447"/>
     <use style="fill:#40b5c4;stroke:#40b5c4;" x="296.552142" xlink:href="#mcf562b3d56" y="44.475076"/>
     <use style="fill:#40b5c4;stroke:#40b5c4;" x="304.671212" xlink:href="#mcf562b3d56" y="44.93988"/>
     <use style="fill:#40b5c4;stroke:#40b5c4;" x="312.790282" xlink:href="#mcf562b3d56" y="45.767388"/>
     <use style="fill:#40b5c4;stroke:#40b5c4;" x="320.909352" xlink:href="#mcf562b3d56" y="46.461279"/>
     <use style="fill:#40b5c4;stroke:#40b5c4;" x="329.028422" xlink:href="#mcf562b3d56" y="47.00221"/>
     <use style="fill:#40b5c4;stroke:#40b5c4;" x="337.147492" xlink:href="#mcf562b3d56" y="48.042571"/>
     <use style="fill:#40b5c4;stroke:#40b5c4;" x="345.266562" xlink:href="#mcf562b3d56" y="49.777551"/>
     <use style="fill:#40b5c4;stroke:#40b5c4;" x="353.385632" xlink:href="#mcf562b3d56" y="51.277892"/>
     <use style="fill:#40b5c4;stroke:#40b5c4;" x="361.504702" xlink:href="#mcf562b3d56" y="52.049245"/>
     <use style="fill:#40b5c4;stroke:#40b5c4;" x="369.623772" xlink:href="#mcf562b3d56" y="52.342455"/>
    </g>
   </g>
   <g id="line2d_16">
    <path clip-path="url(#pc6e911729f)" d="M 69.218182 46.644573 
L 69.31967 46.773136 
L 69.421159 46.587489 
L 69.624135 46.722409 
L 69.827112 46.551254 
L 70.030089 46.704123 
L 70.131577 46.639353 
L 70.233066 46.74449 
L 70.334554 46.448407 
L 70.436042 46.612116 
L 70.639019 46.492649 
L 70.740507 46.567042 
L 71.146461 46.295585 
L 71.247949 46.782183 
L 71.349438 46.358113 
L 71.552414 46.54621 
L 71.653903 46.222665 
L 71.755391 46.547875 
L 71.85688 46.214419 
L 71.958368 46.626896 
L 72.161345 46.170817 
L 72.262833 46.537595 
L 72.364321 46.118665 
L 72.567298 46.714931 
L 72.668787 46.29922 
L 72.770275 46.615303 
L 72.871763 46.280085 
L 73.07474 46.730447 
L 73.176228 46.3825 
L 73.785159 46.932843 
L 73.886647 46.65362 
L 74.089624 46.996396 
L 74.191112 46.790926 
L 74.394089 47.152372 
L 74.495577 46.949832 
L 74.597066 47.17836 
L 74.698554 47.070373 
L 74.901531 47.625968 
L 75.003019 47.453676 
L 75.104508 47.710433 
L 75.205996 47.549541 
L 75.611949 48.37006 
L 75.713438 47.966998 
L 75.916415 48.477007 
L 76.017903 48.449465 
L 76.119391 49.237511 
L 76.22088 48.691123 
L 76.626833 49.594346 
L 76.728322 49.455615 
L 76.82981 49.921557 
L 76.931298 49.743004 
L 77.032787 49.948778 
L 77.134275 50.441397 
L 77.235763 50.33815 
L 77.337252 50.967514 
L 77.43874 50.89288 
L 78.352136 52.820779 
L 78.555112 53.273287 
L 78.961066 54.448095 
L 79.062554 54.288564 
L 79.265531 55.002745 
L 79.367019 55.190089 
L 79.671484 56.590157 
L 79.772973 56.430723 
L 80.178926 57.811545 
L 80.280415 58.052322 
L 80.483391 58.748281 
L 80.58488 58.904609 
L 80.787857 60.130656 
L 80.889345 60.36 
L 80.990833 61.140761 
L 81.092322 61.101371 
L 81.904229 64.74792 
L 82.005717 65.627364 
L 82.107205 65.527864 
L 82.513159 67.423113 
L 82.614647 67.61177 
L 82.817624 68.439847 
L 85.354833 80.691973 
L 85.862275 83.349201 
L 86.471206 86.62833 
L 87.384601 91.80335 
L 87.486089 92.048979 
L 87.790554 94.042176 
L 87.993531 94.938897 
L 88.500973 97.675162 
L 88.906927 99.938118 
L 89.008415 100.126295 
L 89.414368 102.4839 
L 89.515857 102.493411 
L 89.92181 105.008193 
L 90.023299 105.060409 
L 90.226275 106.096486 
L 91.038182 109.430217 
L 91.139671 109.591509 
L 91.748601 111.601183 
L 91.951578 112.210451 
L 92.560508 114.214869 
L 93.67688 117.67537 
L 94.488787 120.279965 
L 94.894741 121.375047 
L 96.21409 125.343187 
L 96.315578 125.4334 
L 96.620043 126.383475 
L 98.548322 131.473261 
L 99.157252 132.782764 
L 99.258741 132.789057 
L 99.563206 133.661119 
L 99.664694 133.704929 
L 100.476601 135.289316 
L 101.897439 137.909106 
L 105.55102 143.720663 
L 105.753997 143.893885 
L 106.058462 143.610779 
L 106.565904 143.31865 
L 106.768881 143.046569 
L 107.479299 142.455571 
L 108.189718 141.911544 
L 108.291206 141.897029 
L 108.494183 141.639687 
L 108.595671 141.536015 
L 108.69716 141.611393 
L 109.001625 141.267761 
L 109.30609 141.101177 
L 109.509067 140.916731 
L 109.712043 140.794285 
L 109.813532 140.775959 
L 110.117997 140.422079 
L 110.219485 140.431126 
L 110.625439 140.08566 
L 110.726927 140.010915 
L 110.828416 140.081577 
L 111.234369 139.631503 
L 111.335857 139.644905 
L 111.741811 139.299776 
L 111.944788 139.343906 
L 112.350741 138.922093 
L 112.553718 138.874937 
L 112.756695 138.691116 
L 117.729625 135.400377 
L 117.831113 135.52444 
L 118.03409 135.241407 
L 118.338555 135.004505 
L 118.440044 135.007195 
L 118.64302 134.803358 
L 119.048974 134.581924 
L 119.251951 134.456339 
L 119.353439 134.491294 
L 119.759393 134.217403 
L 120.977253 133.722335 
L 121.078741 133.433152 
L 121.383207 133.499843 
L 121.687672 133.241933 
L 121.78916 133.237177 
L 121.890648 133.12048 
L 121.992137 133.236697 
L 122.093625 132.907148 
L 122.296602 132.99592 
L 122.499579 132.932895 
L 122.601067 132.774502 
L 122.702555 132.829376 
L 122.905532 132.6473 
L 123.007021 132.741388 
L 123.108509 132.444696 
L 123.209997 132.558335 
L 123.412974 132.499074 
L 123.514462 132.478898 
L 123.717439 132.26065 
L 123.818928 132.283612 
L 123.920416 132.130679 
L 124.021904 132.267824 
L 124.224881 132.029769 
L 124.732323 131.866844 
L 124.9353 131.690308 
L 125.036788 131.773027 
L 125.138276 131.522867 
L 125.341253 131.526614 
L 125.54423 131.525733 
L 125.747207 131.375794 
L 126.457625 131.049271 
L 126.559114 131.097388 
L 126.76209 130.907098 
L 126.863579 130.911325 
L 127.168044 130.668626 
L 127.573997 130.65548 
L 127.776974 130.486838 
L 129.400788 129.836242 
L 129.502277 129.916079 
L 129.705253 129.77943 
L 130.009718 129.624207 
L 130.415672 129.597066 
L 131.126091 129.439313 
L 131.329067 129.363495 
L 131.735021 129.350797 
L 132.039486 129.318708 
L 132.140974 129.386328 
L 132.242463 129.239031 
L 132.546928 129.614087 
L 132.648416 129.426167 
L 132.749905 129.57657 
L 132.851393 129.414558 
L 133.155858 129.704493 
L 133.257346 129.474172 
L 133.460323 129.704365 
L 133.561812 129.861317 
L 133.6633 129.747294 
L 133.764788 129.916592 
L 133.866277 129.763066 
L 134.982649 130.288638 
L 135.084137 130.258791 
L 135.185626 130.550391 
L 135.287114 130.362871 
L 135.388602 130.568821 
L 135.490091 130.439522 
L 135.794556 130.701179 
L 135.896044 130.648082 
L 136.099021 130.884744 
L 136.80944 131.256038 
L 136.910928 131.191092 
L 137.215393 131.559888 
L 138.0273 131.413215 
L 138.128788 131.487464 
L 138.433254 131.343033 
L 138.63623 131.356579 
L 138.737719 131.466808 
L 138.839207 131.156281 
L 138.940695 131.361287 
L 139.042184 131.266222 
L 139.245161 131.346027 
L 139.651114 131.296021 
L 139.752602 131.380422 
L 140.158556 132.420165 
L 140.564509 133.216906 
L 140.868975 133.712391 
L 140.970463 133.787905 
L 141.071951 134.133835 
L 141.17344 133.986602 
L 141.680882 134.571588 
L 141.78237 134.269796 
L 142.086835 134.979349 
L 142.188323 134.857295 
L 142.492789 135.1653 
L 142.594277 135.340723 
L 142.695765 135.156702 
L 143.101719 135.744642 
L 143.203207 135.753577 
L 143.609161 136.235723 
L 143.710649 136.152668 
L 143.913626 136.449055 
L 144.015114 136.764874 
L 144.218091 136.708271 
L 144.319579 136.731272 
L 144.522556 137.013818 
L 144.624044 137.018005 
L 144.92851 137.539862 
L 145.334463 137.774283 
L 145.53744 138.098556 
L 145.638928 138.077476 
L 145.943393 138.875017 
L 146.044882 138.756782 
L 146.14637 139.011578 
L 146.247858 138.956095 
L 146.450835 139.410213 
L 146.552324 139.417642 
L 147.059765 141.365628 
L 147.364231 142.40606 
L 147.668696 143.490687 
L 147.770184 143.741552 
L 147.973161 144.306858 
L 148.683579 146.229673 
L 148.988044 146.871727 
L 149.799951 148.998554 
L 150.104417 149.639055 
L 151.1193 152.356697 
L 151.220789 152.423428 
L 151.728231 153.902974 
L 151.829719 153.966134 
L 152.540138 155.933167 
L 152.844603 156.57209 
L 153.859486 159.336801 
L 154.366928 161.542361 
L 154.468417 161.65315 
L 154.772882 162.83706 
L 155.077347 163.786583 
L 155.381812 165.257602 
L 155.686277 166.150288 
L 156.295207 168.749639 
L 156.701161 170.025717 
L 156.904138 170.655393 
L 157.41158 172.932928 
L 157.513068 172.9269 
L 157.716045 173.93602 
L 157.919021 174.685724 
L 162.790463 194.517904 
L 164.211301 202.74764 
L 165.835115 214.687238 
L 167.966371 227.564901 
L 168.067859 227.768962 
L 168.473812 229.706052 
L 169.691673 234.420221 
L 169.793161 234.512084 
L 170.199115 236.214833 
L 170.402092 236.538554 
L 170.50358 236.700871 
L 170.808045 237.550596 
L 171.315487 238.96016 
L 171.924417 240.360998 
L 172.127394 241.051529 
L 172.228882 241.040224 
L 172.431859 241.47752 
L 172.736324 242.088726 
L 172.837813 242.116364 
L 174.461627 228.387646 
L 178.724138 189.008098 
L 181.159859 164.598799 
L 182.37772 153.255716 
L 184.610464 134.362867 
L 187.553627 112.113993 
L 188.568511 108.073158 
L 188.872976 107.025424 
L 189.481906 104.743381 
L 190.598278 100.626359 
L 194.86079 87.440843 
L 199.427767 75.476122 
L 200.544139 74.178068 
L 203.994744 70.29545 
L 204.096232 70.274762 
L 204.400697 69.830901 
L 205.009627 69.236348 
L 205.415581 68.774969 
L 206.836418 67.175034 
L 207.039395 67.089497 
L 207.95279 66.1163 
L 208.155767 65.894273 
L 208.561721 65.483013 
L 209.069162 65.084771 
L 209.475116 64.726607 
L 210.591488 63.849069 
L 212.215302 62.581101 
L 213.331674 61.782502 
L 213.534651 61.563326 
L 214.143581 61.117687 
L 215.259953 60.247066 
L 216.477814 59.484175 
L 217.086744 59.397228 
L 217.594186 59.288136 
L 218.000139 59.216161 
L 218.710558 59.095124 
L 219.928419 58.8355 
L 220.334372 58.785029 
L 221.044791 58.652912 
L 221.247767 58.601784 
L 221.755209 58.527311 
L 222.059674 58.445312 
L 222.262651 58.44227 
L 222.668605 58.351816 
L 224.089442 58.078646 
L 224.393907 57.994437 
L 224.596884 57.966112 
L 227.438558 57.387282 
L 227.641535 57.33457 
L 229.671303 56.262529 
L 230.077256 56.179185 
L 230.280233 56.123895 
L 230.787675 56.095329 
L 231.09214 55.963532 
L 231.599582 55.869843 
L 232.512977 55.645415 
L 232.817442 55.637233 
L 233.223396 55.481849 
L 233.832326 55.38704 
L 234.136791 55.264354 
L 234.948698 55.08127 
L 235.151675 54.992978 
L 235.354652 54.991296 
L 235.557628 54.901691 
L 236.775489 54.610059 
L 237.079954 54.462426 
L 237.790373 54.289349 
L 238.094838 54.14519 
L 240.42907 53.335911 
L 240.632047 53.295016 
L 242.458838 52.542869 
L 242.763303 52.445274 
L 244.488605 51.918517 
L 244.691582 51.929214 
L 246.416884 51.889151 
L 247.127303 51.862666 
L 247.431768 51.844252 
L 247.837722 51.83314 
L 248.243675 51.803677 
L 253.622559 51.435106 
L 253.825536 51.385307 
L 254.535954 51.346173 
L 255.347861 51.246128 
L 255.550838 51.244367 
L 257.276141 51.005879 
L 257.377629 51.12421 
L 257.580606 51.000595 
L 260.219303 50.684 
L 260.320792 50.737705 
L 260.625257 50.605347 
L 260.929722 50.584595 
L 266.714559 49.841047 
L 266.917536 49.775557 
L 267.32349 49.75567 
L 267.729443 49.662286 
L 267.830932 49.640349 
L 267.93242 49.737992 
L 268.135397 49.639292 
L 268.642839 49.55353 
L 268.744327 49.619789 
L 269.048792 49.512891 
L 270.469629 49.328846 
L 271.180048 49.265117 
L 271.383025 49.204462 
L 271.788978 49.177946 
L 272.194932 49.065635 
L 272.29642 49.179002 
L 272.499397 49.094233 
L 272.803862 49.035308 
L 273.412792 48.961715 
L 275.44256 48.698857 
L 276.05149 48.62725 
L 276.152978 48.682076 
L 276.457443 48.548918 
L 276.761909 48.534123 
L 278.385723 48.343256 
L 278.588699 48.335826 
L 279.908048 48.184734 
L 280.41549 48.162701 
L 280.719955 48.092151 
L 281.734839 48.095641 
L 283.155676 48.062528 
L 283.358653 48.073865 
L 283.764606 48.085009 
L 284.069072 48.069221 
L 284.373537 48.09452 
L 284.678002 48.076875 
L 284.77949 48.117066 
L 284.982467 48.072968 
L 285.692886 48.11476 
L 285.895862 48.072391 
L 286.301816 48.125905 
L 286.504793 48.103423 
L 287.621165 48.17202 
L 287.824141 48.130868 
L 287.92563 48.113127 
L 288.027118 48.221722 
L 288.331583 48.12014 
L 288.940514 48.224733 
L 289.244979 48.167056 
L 289.955397 48.238631 
L 290.564328 48.205198 
L 291.071769 48.266076 
L 291.6807 48.279078 
L 291.883676 48.313569 
L 294.522374 48.467191 
L 294.725351 48.537197 
L 295.029816 48.505877 
L 295.232793 48.552985 
L 295.334281 48.487591 
L 295.638746 48.623471 
L 295.943211 48.613544 
L 297.364049 48.737799 
L 297.567025 48.788334 
L 300.205723 49.134008 
L 300.4087 49.144192 
L 301.728049 49.337877 
L 302.641444 49.480066 
L 303.148886 49.602528 
L 303.351863 49.59007 
L 304.265258 49.773027 
L 304.468235 49.790801 
L 305.99056 50.101119 
L 306.599491 50.155145 
L 306.903956 50.251731 
L 307.208421 50.310016 
L 307.411398 50.334963 
L 312.079863 51.181086 
L 312.688793 51.264959 
L 312.993258 51.339064 
L 313.297723 51.37602 
L 313.805165 51.48279 
L 314.211119 51.534702 
L 314.820049 51.641056 
L 315.124514 51.690214 
L 316.139398 51.865613 
L 316.443863 51.885212 
L 316.64684 51.94513 
L 317.661724 52.132314 
L 317.8647 52.152457 
L 320.807863 52.659183 
L 321.01084 52.689638 
L 321.213817 52.728836 
L 322.330189 52.919511 
L 322.533166 52.960599 
L 323.040607 53.01392 
L 323.446561 53.114573 
L 324.15698 53.249429 
L 324.359956 53.286353 
L 325.070375 53.398824 
L 329.332887 54.24738 
L 329.535863 54.238349 
L 330.246282 54.409297 
L 330.449259 54.407856 
L 330.855212 54.530798 
L 331.362654 54.604039 
L 333.899864 55.157616 
L 334.10284 55.17555 
L 334.813259 55.35034 
L 335.016236 55.384382 
L 336.437073 55.710489 
L 337.046003 55.862126 
L 337.24898 55.87548 
L 337.553445 55.945678 
L 340.902561 56.776621 
L 341.105538 56.875161 
L 341.815957 57.027534 
L 342.018934 57.099301 
L 342.729352 57.293979 
L 342.830841 57.400364 
L 343.033817 57.395977 
L 343.236794 57.438858 
L 345.165073 57.996887 
L 345.36805 58.016903 
L 346.078469 58.23688 
L 346.382934 58.294076 
L 346.58591 58.373689 
L 346.788887 58.371159 
L 347.296329 58.530706 
L 349.935027 59.069808 
L 350.138004 59.128509 
L 350.543957 59.255391 
L 350.848422 59.286167 
L 351.152887 59.361681 
L 351.355864 59.397388 
L 351.761818 59.457627 
L 351.964794 59.508193 
L 352.472236 59.563596 
L 352.87819 59.700021 
L 353.081166 59.701558 
L 353.284143 59.791643 
L 353.48712 59.795967 
L 353.994562 59.883874 
L 354.400515 59.959196 
L 354.907957 60.071379 
L 355.313911 60.130272 
L 355.618376 60.224424 
L 355.821353 60.227691 
L 357.140701 60.442672 
L 357.24219 60.522445 
L 357.445167 60.486194 
L 357.749632 60.558249 
L 358.054097 60.589985 
L 358.257074 60.62723 
L 358.561539 60.691471 
L 359.779399 60.9469 
L 360.083864 61.077913 
L 360.591306 61.180135 
L 361.301725 61.385669 
L 361.910655 61.513608 
L 362.113632 61.590563 
L 362.519585 61.705916 
L 362.722562 61.736211 
L 363.940423 61.768396 
L 364.143399 61.697973 
L 364.447864 61.769965 
L 364.650841 61.695315 
L 364.853818 61.706492 
L 367.289539 61.683915 
L 367.391027 61.782935 
L 367.594004 61.732688 
L 367.898469 61.781462 
L 367.999958 61.67735 
L 368.304423 61.872572 
L 368.405911 61.89342 
L 368.608888 61.8466 
L 368.710376 61.86037 
L 368.811865 61.991992 
L 369.014841 61.746875 
L 369.11633 62.016554 
L 369.319306 61.984242 
L 370.029725 61.939631 
L 370.232702 62.090179 
L 370.435679 62.046946 
L 371.146097 62.061613 
L 371.247586 62.199351 
L 371.349074 62.024721 
L 371.552051 62.121691 
L 371.653539 62.044448 
L 371.755027 62.253377 
L 371.958004 62.074423 
L 372.160981 62.178535 
L 372.262469 62.232336 
L 372.363958 62.037274 
L 372.566934 62.267339 
L 372.668423 62.135494 
L 372.769911 62.240503 
L 372.8714 62.107664 
L 373.175865 62.222697 
L 373.48033 62.181577 
L 373.581818 62.301862 
L 373.581818 62.301862 
" style="fill:none;stroke:#081d58;stroke-dasharray:5.55,2.4;stroke-dashoffset:0;stroke-width:1.5;"/>
    <defs>
     <path d="M -0 4.242641 
L 4.242641 0 
L 0 -4.242641 
L -4.242641 -0 
z
" id="mc527f606ae" style="stroke:#081d58;stroke-linejoin:miter;"/>
    </defs>
    <g clip-path="url(#pc6e911729f)">
     <use style="fill:#081d58;stroke:#081d58;stroke-linejoin:miter;" x="69.218182" xlink:href="#mc527f606ae" y="46.644573"/>
     <use style="fill:#081d58;stroke:#081d58;stroke-linejoin:miter;" x="77.337252" xlink:href="#mc527f606ae" y="50.967514"/>
     <use style="fill:#081d58;stroke:#081d58;stroke-linejoin:miter;" x="85.456322" xlink:href="#mc527f606ae" y="81.338807"/>
     <use style="fill:#081d58;stroke:#081d58;stroke-linejoin:miter;" x="93.575392" xlink:href="#mc527f606ae" y="117.409534"/>
     <use style="fill:#081d58;stroke:#081d58;stroke-linejoin:miter;" x="101.694462" xlink:href="#mc527f606ae" y="137.495652"/>
     <use style="fill:#081d58;stroke:#081d58;stroke-linejoin:miter;" x="109.813532" xlink:href="#mc527f606ae" y="140.775959"/>
     <use style="fill:#081d58;stroke:#081d58;stroke-linejoin:miter;" x="117.932602" xlink:href="#mc527f606ae" y="135.268772"/>
     <use style="fill:#081d58;stroke:#081d58;stroke-linejoin:miter;" x="126.051672" xlink:href="#mc527f606ae" y="131.278791"/>
     <use style="fill:#081d58;stroke:#081d58;stroke-linejoin:miter;" x="134.170742" xlink:href="#mc527f606ae" y="129.945846"/>
     <use style="fill:#081d58;stroke:#081d58;stroke-linejoin:miter;" x="142.289812" xlink:href="#mc527f606ae" y="134.928494"/>
     <use style="fill:#081d58;stroke:#081d58;stroke-linejoin:miter;" x="150.408882" xlink:href="#mc527f606ae" y="150.516474"/>
     <use style="fill:#081d58;stroke:#081d58;stroke-linejoin:miter;" x="158.527952" xlink:href="#mc527f606ae" y="177.037701"/>
     <use style="fill:#081d58;stroke:#081d58;stroke-linejoin:miter;" x="166.647022" xlink:href="#mc527f606ae" y="220.318481"/>
     <use style="fill:#081d58;stroke:#081d58;stroke-linejoin:miter;" x="174.766092" xlink:href="#mc527f606ae" y="225.607828"/>
     <use style="fill:#081d58;stroke:#081d58;stroke-linejoin:miter;" x="182.885162" xlink:href="#mc527f606ae" y="148.774158"/>
     <use style="fill:#081d58;stroke:#081d58;stroke-linejoin:miter;" x="191.004232" xlink:href="#mc527f606ae" y="99.24701"/>
     <use style="fill:#081d58;stroke:#081d58;stroke-linejoin:miter;" x="199.123302" xlink:href="#mc527f606ae" y="75.928054"/>
     <use style="fill:#081d58;stroke:#081d58;stroke-linejoin:miter;" x="207.242372" xlink:href="#mc527f606ae" y="66.836438"/>
     <use style="fill:#081d58;stroke:#081d58;stroke-linejoin:miter;" x="215.361442" xlink:href="#mc527f606ae" y="60.173793"/>
     <use style="fill:#081d58;stroke:#081d58;stroke-linejoin:miter;" x="223.480512" xlink:href="#mc527f606ae" y="58.236319"/>
     <use style="fill:#081d58;stroke:#081d58;stroke-linejoin:miter;" x="231.599582" xlink:href="#mc527f606ae" y="55.869843"/>
     <use style="fill:#081d58;stroke:#081d58;stroke-linejoin:miter;" x="239.718652" xlink:href="#mc527f606ae" y="53.629961"/>
     <use style="fill:#081d58;stroke:#081d58;stroke-linejoin:miter;" x="247.837722" xlink:href="#mc527f606ae" y="51.83314"/>
     <use style="fill:#081d58;stroke:#081d58;stroke-linejoin:miter;" x="255.956792" xlink:href="#mc527f606ae" y="51.195113"/>
     <use style="fill:#081d58;stroke:#081d58;stroke-linejoin:miter;" x="264.075862" xlink:href="#mc527f606ae" y="50.159693"/>
     <use style="fill:#081d58;stroke:#081d58;stroke-linejoin:miter;" x="272.194932" xlink:href="#mc527f606ae" y="49.065635"/>
     <use style="fill:#081d58;stroke:#081d58;stroke-linejoin:miter;" x="280.314002" xlink:href="#mc527f606ae" y="48.147265"/>
     <use style="fill:#081d58;stroke:#081d58;stroke-linejoin:miter;" x="288.433072" xlink:href="#mc527f606ae" y="48.146176"/>
     <use style="fill:#081d58;stroke:#081d58;stroke-linejoin:miter;" x="296.552142" xlink:href="#mc527f606ae" y="48.735621"/>
     <use style="fill:#081d58;stroke:#081d58;stroke-linejoin:miter;" x="304.671212" xlink:href="#mc527f606ae" y="49.807966"/>
     <use style="fill:#081d58;stroke:#081d58;stroke-linejoin:miter;" x="312.790282" xlink:href="#mc527f606ae" y="51.323948"/>
     <use style="fill:#081d58;stroke:#081d58;stroke-linejoin:miter;" x="320.909352" xlink:href="#mc527f606ae" y="52.634748"/>
     <use style="fill:#081d58;stroke:#081d58;stroke-linejoin:miter;" x="329.028422" xlink:href="#mc527f606ae" y="54.175677"/>
     <use style="fill:#081d58;stroke:#081d58;stroke-linejoin:miter;" x="337.147492" xlink:href="#mc527f606ae" y="55.825073"/>
     <use style="fill:#081d58;stroke:#081d58;stroke-linejoin:miter;" x="345.266562" xlink:href="#mc527f606ae" y="57.967425"/>
     <use style="fill:#081d58;stroke:#081d58;stroke-linejoin:miter;" x="353.385632" xlink:href="#mc527f606ae" y="59.737554"/>
     <use style="fill:#081d58;stroke:#081d58;stroke-linejoin:miter;" x="361.504702" xlink:href="#mc527f606ae" y="61.414139"/>
     <use style="fill:#081d58;stroke:#081d58;stroke-linejoin:miter;" x="369.623772" xlink:href="#mc527f606ae" y="62.047266"/>
    </g>
   </g>
   <g id="patch_3">
    <path d="M 54 252 
L 54 34.56 
" style="fill:none;stroke:#000000;stroke-linecap:square;stroke-linejoin:miter;stroke-width:0.8;"/>
   </g>
   <g id="patch_4">
    <path d="M 388.8 252 
L 388.8 34.56 
" style="fill:none;stroke:#000000;stroke-linecap:square;stroke-linejoin:miter;stroke-width:0.8;"/>
   </g>
   <g id="patch_5">
    <path d="M 54 252 
L 388.8 252 
" style="fill:none;stroke:#000000;stroke-linecap:square;stroke-linejoin:miter;stroke-width:0.8;"/>
   </g>
   <g id="patch_6">
    <path d="M 54 34.56 
L 388.8 34.56 
" style="fill:none;stroke:#000000;stroke-linecap:square;stroke-linejoin:miter;stroke-width:0.8;"/>
   </g>
   <g id="legend_1">
    <g id="patch_7">
     <path d="M 61 247 
L 162.714063 247 
Q 164.714063 247 164.714063 245 
L 164.714063 216.64375 
Q 164.714063 214.64375 162.714063 214.64375 
L 61 214.64375 
Q 59 214.64375 59 216.64375 
L 59 245 
Q 59 247 61 247 
z
" style="fill:#ffffff;opacity:0.8;stroke:#cccccc;stroke-linejoin:miter;"/>
    </g>
    <g id="line2d_17">
     <path d="M 63 222.742188 
L 83 222.742188 
" style="fill:none;stroke:#40b5c4;stroke-dasharray:5.55,2.4;stroke-dashoffset:0;stroke-width:1.5;"/>
    </g>
    <g id="line2d_18">
     <g>
      <use style="fill:#40b5c4;stroke:#40b5c4;" x="73" xlink:href="#mcf562b3d56" y="222.742188"/>
     </g>
    </g>
    <g id="text_17">
     <text style="font-family:DejaVu Sans;font-size:10px;font-style:normal;font-weight:normal;text-anchor:start;" transform="rotate(-0, 91, 226.242188)" x="91" y="226.242188">original</text>
    </g>
    <g id="line2d_19">
     <path d="M 63 237.420312 
L 83 237.420312 
" style="fill:none;stroke:#081d58;stroke-dasharray:5.55,2.4;stroke-dashoffset:0;stroke-width:1.5;"/>
    </g>
    <g id="line2d_20">
     <g>
      <use style="fill:#081d58;stroke:#081d58;stroke-linejoin:miter;" x="73" xlink:href="#mc527f606ae" y="237.420312"/>
     </g>
    </g>
    <g id="text_18">
     <text style="font-family:DejaVu Sans;font-size:10px;font-style:normal;font-weight:normal;text-anchor:start;" transform="rotate(-0, 91, 240.920312)" x="91" y="240.920312">reconstructed</text>
    </g>
   </g>
  </g>
  <g id="text_19">
   <text style="font-family:DejaVu Sans;font-size:12px;font-style:normal;font-weight:normal;text-anchor:middle;" transform="rotate(-0, 216, 14.878125)" x="216" y="14.878125">Reconstruction of the temperature curve</text>
  </g>
 </g>
 <defs>
  <clipPath id="pc6e911729f">
   <rect height="217.44" width="334.8" x="54" y="34.56"/>
  </clipPath>
 </defs>
</svg>
