<?xml version="1.0" encoding="utf-8" standalone="no"?>
<!DOCTYPE svg PUBLIC "-//W3C//DTD SVG 1.1//EN"
  "http://www.w3.org/Graphics/SVG/1.1/DTD/svg11.dtd">
<!-- Created with matplotlib (https://matplotlib.org/) -->
<svg height="288pt" version="1.1" viewBox="0 0 432 288" width="432pt" xmlns="http://www.w3.org/2000/svg" xmlns:xlink="http://www.w3.org/1999/xlink">
 <defs>
  <style type="text/css">
*{stroke-linecap:butt;stroke-linejoin:round;}
  </style>
 </defs>
 <g id="figure_1">
  <g id="patch_1">
   <path d="M 0 288 
L 432 288 
L 432 0 
L 0 0 
z
" style="fill:#ffffff;"/>
  </g>
  <g id="axes_1">
   <g id="patch_2">
    <path d="M 54 252 
L 388.8 252 
L 388.8 34.56 
L 54 34.56 
z
" style="fill:#ffffff;"/>
   </g>
   <g id="matplotlib.axis_1">
    <g id="xtick_1">
     <g id="line2d_1">
      <defs>
       <path d="M 0 0 
L 0 3.5 
" id="m62cd5bc0d2" style="stroke:#000000;stroke-width:0.8;"/>
      </defs>
      <g>
       <use style="stroke:#000000;stroke-width:0.8;" x="69.218182" xlink:href="#m62cd5bc0d2" y="252"/>
      </g>
     </g>
     <g id="text_1">
      <text style="font-family:DejaVu Sans;font-size:10px;font-style:normal;font-weight:normal;text-anchor:middle;" transform="rotate(-0, 69.218182, 266.598437)" x="69.218182" y="266.598437">0</text>
     </g>
    </g>
    <g id="xtick_2">
     <g id="line2d_2">
      <g>
       <use style="stroke:#000000;stroke-width:0.8;" x="119.962369" xlink:href="#m62cd5bc0d2" y="252"/>
      </g>
     </g>
     <g id="text_2">
      <text style="font-family:DejaVu Sans;font-size:10px;font-style:normal;font-weight:normal;text-anchor:middle;" transform="rotate(-0, 119.962369, 266.598437)" x="119.962369" y="266.598437">500</text>
     </g>
    </g>
    <g id="xtick_3">
     <g id="line2d_3">
      <g>
       <use style="stroke:#000000;stroke-width:0.8;" x="170.706557" xlink:href="#m62cd5bc0d2" y="252"/>
      </g>
     </g>
     <g id="text_3">
      <text style="font-family:DejaVu Sans;font-size:10px;font-style:normal;font-weight:normal;text-anchor:middle;" transform="rotate(-0, 170.706557, 266.598437)" x="170.706557" y="266.598437">1000</text>
     </g>
    </g>
    <g id="xtick_4">
     <g id="line2d_4">
      <g>
       <use style="stroke:#000000;stroke-width:0.8;" x="221.450744" xlink:href="#m62cd5bc0d2" y="252"/>
      </g>
     </g>
     <g id="text_4">
      <text style="font-family:DejaVu Sans;font-size:10px;font-style:normal;font-weight:normal;text-anchor:middle;" transform="rotate(-0, 221.450744, 266.598437)" x="221.450744" y="266.598437">1500</text>
     </g>
    </g>
    <g id="xtick_5">
     <g id="line2d_5">
      <g>
       <use style="stroke:#000000;stroke-width:0.8;" x="272.194932" xlink:href="#m62cd5bc0d2" y="252"/>
      </g>
     </g>
     <g id="text_5">
      <text style="font-family:DejaVu Sans;font-size:10px;font-style:normal;font-weight:normal;text-anchor:middle;" transform="rotate(-0, 272.194932, 266.598437)" x="272.194932" y="266.598437">2000</text>
     </g>
    </g>
    <g id="xtick_6">
     <g id="line2d_6">
      <g>
       <use style="stroke:#000000;stroke-width:0.8;" x="322.939119" xlink:href="#m62cd5bc0d2" y="252"/>
      </g>
     </g>
     <g id="text_6">
      <text style="font-family:DejaVu Sans;font-size:10px;font-style:normal;font-weight:normal;text-anchor:middle;" transform="rotate(-0, 322.939119, 266.598437)" x="322.939119" y="266.598437">2500</text>
     </g>
    </g>
    <g id="xtick_7">
     <g id="line2d_7">
      <g>
       <use style="stroke:#000000;stroke-width:0.8;" x="373.683307" xlink:href="#m62cd5bc0d2" y="252"/>
      </g>
     </g>
     <g id="text_7">
      <text style="font-family:DejaVu Sans;font-size:10px;font-style:normal;font-weight:normal;text-anchor:middle;" transform="rotate(-0, 373.683307, 266.598437)" x="373.683307" y="266.598437">3000</text>
     </g>
    </g>
    <g id="text_8">
     <text style="font-family:DejaVu Sans;font-size:10px;font-style:normal;font-weight:normal;text-anchor:middle;" transform="rotate(-0, 221.4, 280.276563)" x="221.4" y="280.276563">Time</text>
    </g>
   </g>
   <g id="matplotlib.axis_2">
    <g id="ytick_1">
     <g id="line2d_8">
      <defs>
       <path d="M 0 0 
L -3.5 0 
" id="m43bbdc33a0" style="stroke:#000000;stroke-width:0.8;"/>
      </defs>
      <g>
       <use style="stroke:#000000;stroke-width:0.8;" x="54" xlink:href="#m43bbdc33a0" y="249.749072"/>
      </g>
     </g>
     <g id="text_9">
      <text style="font-family:DejaVu Sans;font-size:10px;font-style:normal;font-weight:normal;text-anchor:end;" transform="rotate(-0, 47, 253.548291)" x="47" y="253.548291">−12</text>
     </g>
    </g>
    <g id="ytick_2">
     <g id="line2d_9">
      <g>
       <use style="stroke:#000000;stroke-width:0.8;" x="54" xlink:href="#m43bbdc33a0" y="216.509083"/>
      </g>
     </g>
     <g id="text_10">
      <text style="font-family:DejaVu Sans;font-size:10px;font-style:normal;font-weight:normal;text-anchor:end;" transform="rotate(-0, 47, 220.308302)" x="47" y="220.308302">−10</text>
     </g>
    </g>
    <g id="ytick_3">
     <g id="line2d_10">
      <g>
       <use style="stroke:#000000;stroke-width:0.8;" x="54" xlink:href="#m43bbdc33a0" y="183.269094"/>
      </g>
     </g>
     <g id="text_11">
      <text style="font-family:DejaVu Sans;font-size:10px;font-style:normal;font-weight:normal;text-anchor:end;" transform="rotate(-0, 47, 187.068313)" x="47" y="187.068313">−8</text>
     </g>
    </g>
    <g id="ytick_4">
     <g id="line2d_11">
      <g>
       <use style="stroke:#000000;stroke-width:0.8;" x="54" xlink:href="#m43bbdc33a0" y="150.029105"/>
      </g>
     </g>
     <g id="text_12">
      <text style="font-family:DejaVu Sans;font-size:10px;font-style:normal;font-weight:normal;text-anchor:end;" transform="rotate(-0, 47, 153.828324)" x="47" y="153.828324">−6</text>
     </g>
    </g>
    <g id="ytick_5">
     <g id="line2d_12">
      <g>
       <use style="stroke:#000000;stroke-width:0.8;" x="54" xlink:href="#m43bbdc33a0" y="116.789116"/>
      </g>
     </g>
     <g id="text_13">
      <text style="font-family:DejaVu Sans;font-size:10px;font-style:normal;font-weight:normal;text-anchor:end;" transform="rotate(-0, 47, 120.588335)" x="47" y="120.588335">−4</text>
     </g>
    </g>
    <g id="ytick_6">
     <g id="line2d_13">
      <g>
       <use style="stroke:#000000;stroke-width:0.8;" x="54" xlink:href="#m43bbdc33a0" y="83.549127"/>
      </g>
     </g>
     <g id="text_14">
      <text style="font-family:DejaVu Sans;font-size:10px;font-style:normal;font-weight:normal;text-anchor:end;" transform="rotate(-0, 47, 87.348346)" x="47" y="87.348346">−2</text>
     </g>
    </g>
    <g id="ytick_7">
     <g id="line2d_14">
      <g>
       <use style="stroke:#000000;stroke-width:0.8;" x="54" xlink:href="#m43bbdc33a0" y="50.309138"/>
      </g>
     </g>
     <g id="text_15">
      <text style="font-family:DejaVu Sans;font-size:10px;font-style:normal;font-weight:normal;text-anchor:end;" transform="rotate(-0, 47, 54.108357)" x="47" y="54.108357">0</text>
     </g>
    </g>
    <g id="text_16">
     <text style="font-family:DejaVu Sans;font-size:10px;font-style:normal;font-weight:normal;text-anchor:middle;" transform="rotate(-90, 19.815625, 143.28)" x="19.815625" y="143.28">temperature (°C)</text>
    </g>
   </g>
   <g id="line2d_15">
    <path clip-path="url(#p3449970864)" d="M 69.218182 45.902422 
L 71.755391 45.495031 
L 72.871763 45.528459 
L 73.785159 45.796365 
L 74.597066 46.288551 
L 75.408973 47.066996 
L 76.22088 48.167779 
L 77.134275 49.815434 
L 78.149159 52.17098 
L 79.265531 55.37696 
L 80.483391 59.559919 
L 82.005717 65.669198 
L 83.933996 74.470904 
L 87.080136 90.115288 
L 90.936694 109.005508 
L 93.06795 118.366753 
L 94.996229 125.934634 
L 96.620043 131.468178 
L 98.142369 135.894298 
L 99.563206 139.401084 
L 100.781066 141.869353 
L 101.998927 143.845586 
L 103.115299 145.235267 
L 104.231671 146.259425 
L 105.246555 146.918823 
L 106.261439 147.31526 
L 107.276322 147.467632 
L 108.392695 147.394903 
L 109.610555 147.06355 
L 111.234369 146.338918 
L 112.959671 145.302213 
L 115.293904 143.601621 
L 120.063858 140.036217 
L 122.702555 138.334961 
L 124.732323 137.287536 
L 126.863579 136.423529 
L 128.994835 135.791238 
L 130.821625 135.485015 
L 132.749905 135.384796 
L 134.576695 135.516509 
L 136.200509 135.846998 
L 138.128788 136.484275 
L 140.057068 137.380392 
L 141.477905 138.271041 
L 142.898742 139.427876 
L 144.319579 140.866934 
L 145.740417 142.627524 
L 147.161254 144.766949 
L 148.480603 147.18564 
L 149.799951 150.102699 
L 151.1193 153.601988 
L 153.352045 159.735548 
L 155.990742 167.14986 
L 157.41158 172.154473 
L 159.542835 180.60933 
L 161.877068 190.770445 
L 164.312789 202.291093 
L 166.342557 212.948831 
L 170.097626 233.306745 
L 170.909533 236.229039 
L 171.619952 238.042945 
L 172.127394 238.837048 
L 172.533347 239.128729 
L 172.837813 239.136208 
L 173.142278 238.954219 
L 173.548231 238.407421 
L 174.055673 237.21394 
L 174.664603 235.023092 
L 175.375022 231.430514 
L 176.186929 226.051453 
L 177.201813 217.642068 
L 178.521162 204.536305 
L 182.682185 161.498214 
L 184.407487 146.641319 
L 186.031301 134.583081 
L 187.655115 124.217024 
L 189.177441 115.855222 
L 190.801255 108.186807 
L 192.425069 101.625 
L 194.048883 95.998301 
L 195.672697 91.156631 
L 197.296511 86.982918 
L 198.920325 83.341444 
L 200.747116 79.795369 
L 202.573906 76.732968 
L 204.502186 73.931901 
L 206.531953 71.39225 
L 208.561721 69.204959 
L 210.692976 67.235024 
L 212.824232 65.544917 
L 215.259953 63.897962 
L 217.695674 62.507199 
L 220.43586 61.176625 
L 223.582 59.900025 
L 227.235582 58.670528 
L 233.629349 56.807978 
L 237.384419 55.60872 
L 244.691582 53.261026 
L 257.073164 49.607916 
L 260.726745 48.847202 
L 265.801164 48.101764 
L 285.794374 45.637418 
L 289.752421 45.449613 
L 293.406002 45.46314 
L 297.465537 45.706969 
L 302.438467 46.257244 
L 307.106933 46.987859 
L 316.03791 48.493344 
L 321.721259 49.243017 
L 331.464143 50.47864 
L 336.132608 51.283609 
L 342.526375 52.661523 
L 349.224608 54.078656 
L 353.994562 54.859381 
L 358.764515 55.413993 
L 364.549353 55.812316 
L 371.146097 56.068585 
L 373.581818 56.09288 
L 373.581818 56.09288 
" style="fill:none;stroke:#40b5c4;stroke-dasharray:5.55,2.4;stroke-dashoffset:0;stroke-width:1.5;"/>
    <defs>
     <path d="M 0 3 
C 0.795609 3 1.55874 2.683901 2.12132 2.12132 
C 2.683901 1.55874 3 0.795609 3 0 
C 3 -0.795609 2.683901 -1.55874 2.12132 -2.12132 
C 1.55874 -2.683901 0.795609 -3 0 -3 
C -0.795609 -3 -1.55874 -2.683901 -2.12132 -2.12132 
C -2.683901 -1.55874 -3 -0.795609 -3 0 
C -3 0.795609 -2.683901 1.55874 -2.12132 2.12132 
C -1.55874 2.683901 -0.795609 3 0 3 
z
" id="m179f2e4718" style="stroke:#40b5c4;"/>
    </defs>
    <g clip-path="url(#p3449970864)">
     <use style="fill:#40b5c4;stroke:#40b5c4;" x="69.218182" xlink:href="#m179f2e4718" y="45.902422"/>
     <use style="fill:#40b5c4;stroke:#40b5c4;" x="77.337252" xlink:href="#m179f2e4718" y="50.241996"/>
     <use style="fill:#40b5c4;stroke:#40b5c4;" x="85.456322" xlink:href="#m179f2e4718" y="81.945198"/>
     <use style="fill:#40b5c4;stroke:#40b5c4;" x="93.575392" xlink:href="#m179f2e4718" y="120.452495"/>
     <use style="fill:#40b5c4;stroke:#40b5c4;" x="101.694462" xlink:href="#m179f2e4718" y="143.39663"/>
     <use style="fill:#40b5c4;stroke:#40b5c4;" x="109.813532" xlink:href="#m179f2e4718" y="146.985901"/>
     <use style="fill:#40b5c4;stroke:#40b5c4;" x="117.932602" xlink:href="#m179f2e4718" y="141.578885"/>
     <use style="fill:#40b5c4;stroke:#40b5c4;" x="126.051672" xlink:href="#m179f2e4718" y="136.725697"/>
     <use style="fill:#40b5c4;stroke:#40b5c4;" x="134.170742" xlink:href="#m179f2e4718" y="135.467165"/>
     <use style="fill:#40b5c4;stroke:#40b5c4;" x="142.289812" xlink:href="#m179f2e4718" y="138.89926"/>
     <use style="fill:#40b5c4;stroke:#40b5c4;" x="150.408882" xlink:href="#m179f2e4718" y="151.643073"/>
     <use style="fill:#40b5c4;stroke:#40b5c4;" x="158.527952" xlink:href="#m179f2e4718" y="176.484131"/>
     <use style="fill:#40b5c4;stroke:#40b5c4;" x="166.647022" xlink:href="#m179f2e4718" y="214.669815"/>
     <use style="fill:#40b5c4;stroke:#40b5c4;" x="174.766092" xlink:href="#m179f2e4718" y="234.577344"/>
     <use style="fill:#40b5c4;stroke:#40b5c4;" x="182.885162" xlink:href="#m179f2e4718" y="159.637938"/>
     <use style="fill:#40b5c4;stroke:#40b5c4;" x="191.004232" xlink:href="#m179f2e4718" y="107.309736"/>
     <use style="fill:#40b5c4;stroke:#40b5c4;" x="199.123302" xlink:href="#m179f2e4718" y="82.921723"/>
     <use style="fill:#40b5c4;stroke:#40b5c4;" x="207.242372" xlink:href="#m179f2e4718" y="70.590701"/>
     <use style="fill:#40b5c4;stroke:#40b5c4;" x="215.361442" xlink:href="#m179f2e4718" y="63.834924"/>
     <use style="fill:#40b5c4;stroke:#40b5c4;" x="223.480512" xlink:href="#m179f2e4718" y="59.937485"/>
     <use style="fill:#40b5c4;stroke:#40b5c4;" x="231.599582" xlink:href="#m179f2e4718" y="57.382508"/>
     <use style="fill:#40b5c4;stroke:#40b5c4;" x="239.718652" xlink:href="#m179f2e4718" y="54.828833"/>
     <use style="fill:#40b5c4;stroke:#40b5c4;" x="247.837722" xlink:href="#m179f2e4718" y="52.323532"/>
     <use style="fill:#40b5c4;stroke:#40b5c4;" x="255.956792" xlink:href="#m179f2e4718" y="49.89263"/>
     <use style="fill:#40b5c4;stroke:#40b5c4;" x="264.075862" xlink:href="#m179f2e4718" y="48.328296"/>
     <use style="fill:#40b5c4;stroke:#40b5c4;" x="272.194932" xlink:href="#m179f2e4718" y="47.294135"/>
     <use style="fill:#40b5c4;stroke:#40b5c4;" x="280.314002" xlink:href="#m179f2e4718" y="46.21461"/>
     <use style="fill:#40b5c4;stroke:#40b5c4;" x="288.433072" xlink:href="#m179f2e4718" y="45.496154"/>
     <use style="fill:#40b5c4;stroke:#40b5c4;" x="296.552142" xlink:href="#m179f2e4718" y="45.633389"/>
     <use style="fill:#40b5c4;stroke:#40b5c4;" x="304.671212" xlink:href="#m179f2e4718" y="46.575573"/>
     <use style="fill:#40b5c4;stroke:#40b5c4;" x="312.790282" xlink:href="#m179f2e4718" y="47.989202"/>
     <use style="fill:#40b5c4;stroke:#40b5c4;" x="320.909352" xlink:href="#m179f2e4718" y="49.145423"/>
     <use style="fill:#40b5c4;stroke:#40b5c4;" x="329.028422" xlink:href="#m179f2e4718" y="50.132483"/>
     <use style="fill:#40b5c4;stroke:#40b5c4;" x="337.147492" xlink:href="#m179f2e4718" y="51.483792"/>
     <use style="fill:#40b5c4;stroke:#40b5c4;" x="345.266562" xlink:href="#m179f2e4718" y="53.274616"/>
     <use style="fill:#40b5c4;stroke:#40b5c4;" x="353.385632" xlink:href="#m179f2e4718" y="54.773316"/>
     <use style="fill:#40b5c4;stroke:#40b5c4;" x="361.504702" xlink:href="#m179f2e4718" y="55.633919"/>
     <use style="fill:#40b5c4;stroke:#40b5c4;" x="369.623772" xlink:href="#m179f2e4718" y="56.03361"/>
    </g>
   </g>
   <g id="line2d_16">
    <path clip-path="url(#p3449970864)" d="M 69.218182 45.031452 
L 69.31967 45.159409 
L 69.421159 45.019231 
L 69.624135 45.117074 
L 69.725624 44.896092 
L 70.030089 45.059903 
L 70.740507 44.822992 
L 70.841996 44.851506 
L 70.943484 44.656138 
L 71.044973 44.71285 
L 71.146461 44.62672 
L 71.247949 45.012875 
L 71.450926 44.694606 
L 71.552414 44.800073 
L 71.653903 44.514867 
L 71.755391 44.76563 
L 71.85688 44.521539 
L 71.958368 44.8665 
L 72.161345 44.472547 
L 72.262833 44.760828 
L 72.364321 44.443636 
L 72.567298 44.95637 
L 72.668787 44.594767 
L 72.770275 44.843438 
L 72.871763 44.561656 
L 73.07474 44.950125 
L 73.277717 44.698822 
L 73.68367 45.097055 
L 73.785159 45.194105 
L 73.886647 44.99021 
L 74.089624 45.24053 
L 74.191112 45.176876 
L 74.394089 45.489756 
L 74.495577 45.306054 
L 74.901531 46.045697 
L 75.003019 45.88837 
L 75.104508 46.10309 
L 75.205996 46.039278 
L 75.510461 46.398725 
L 75.611949 46.795595 
L 75.713438 46.507774 
L 76.017903 46.999316 
L 76.119391 47.721762 
L 76.22088 47.296092 
L 77.235763 49.095027 
L 77.337252 49.683508 
L 77.43874 49.603719 
L 77.641717 49.965497 
L 77.743205 50.086496 
L 77.946182 50.853512 
L 78.04767 50.756494 
L 78.352136 51.742051 
L 78.656601 52.602376 
L 78.758089 52.681848 
L 80.58488 58.32669 
L 80.787857 59.454009 
L 80.889345 59.680966 
L 80.990833 60.453736 
L 81.092322 60.414903 
L 81.904229 64.034392 
L 82.005717 64.994826 
L 82.107205 64.916574 
L 82.513159 66.819343 
L 82.614647 67.005994 
L 82.817624 67.825775 
L 84.745903 77.012661 
L 85.050368 78.814829 
L 85.151857 78.901957 
L 86.16674 84.597248 
L 86.369717 85.546952 
L 90.429252 106.487182 
L 90.632229 107.262821 
L 91.038182 109.594222 
L 91.139671 109.722814 
L 91.444136 111.144485 
L 92.256043 114.85909 
L 92.357531 114.916118 
L 92.763485 116.87924 
L 92.966462 117.29337 
L 93.270927 119.06788 
L 93.372415 119.134862 
L 93.778369 120.864991 
L 93.879857 120.927393 
L 94.082834 121.788273 
L 94.184322 122.086476 
L 94.488787 123.651527 
L 94.691764 124.162343 
L 95.097717 125.831561 
L 95.199206 125.870663 
L 95.605159 127.530481 
L 99.157252 136.931565 
L 99.258741 136.937683 
L 99.563206 137.800989 
L 99.664694 137.831579 
L 100.172136 138.816074 
L 100.476601 139.355452 
L 101.592973 141.302727 
L 102.303392 142.504938 
L 102.912322 143.558872 
L 103.318276 144.117745 
L 106.464415 148.509005 
L 106.565904 148.587162 
L 106.768881 148.349886 
L 107.377811 147.903136 
L 107.783764 147.662865 
L 108.291206 147.435084 
L 108.494183 147.198823 
L 108.595671 147.103057 
L 108.69716 147.203499 
L 109.001625 146.902284 
L 109.103113 146.891998 
L 109.407578 146.565375 
L 109.509067 146.619012 
L 109.712043 146.502799 
L 109.813532 146.484778 
L 110.117997 146.134333 
L 110.219485 146.143352 
L 110.625439 145.801244 
L 110.726927 145.727335 
L 110.828416 145.797472 
L 111.234369 145.351784 
L 111.335857 145.364892 
L 111.741811 145.023465 
L 111.944788 145.067291 
L 112.350741 144.649769 
L 112.553718 144.602916 
L 112.756695 144.421005 
L 120.977253 139.344642 
L 121.078741 139.045504 
L 121.18023 139.088869 
L 121.383207 139.081547 
L 121.687672 138.770854 
L 121.78916 138.760646 
L 121.890648 138.633402 
L 121.992137 138.741943 
L 122.093625 138.415638 
L 122.296602 138.503749 
L 122.499579 138.441331 
L 122.601067 138.284415 
L 122.702555 138.338829 
L 122.905532 138.15855 
L 123.007021 138.251637 
L 123.108509 137.957968 
L 123.209997 138.070329 
L 123.412974 138.011921 
L 123.514462 137.991792 
L 123.717439 137.775692 
L 123.818928 137.798563 
L 123.920416 137.647069 
L 124.021904 137.782856 
L 124.224881 137.547134 
L 124.732323 137.385939 
L 124.9353 137.211255 
L 125.036788 137.293057 
L 125.138276 137.045448 
L 125.341253 137.049204 
L 125.54423 137.04819 
L 125.747207 136.900008 
L 126.457625 136.576666 
L 126.559114 136.624248 
L 126.76209 136.435949 
L 126.863579 136.44015 
L 127.168044 136.199942 
L 127.573997 136.186866 
L 127.776974 136.020123 
L 129.400788 135.375992 
L 129.502277 135.454973 
L 129.705253 135.319788 
L 130.111207 135.107271 
L 131.024602 134.913614 
L 131.532044 134.956711 
L 131.735021 134.834998 
L 132.039486 134.753814 
L 132.140974 134.797101 
L 132.242463 134.661297 
L 132.546928 134.948706 
L 132.648416 134.762722 
L 132.749905 134.91157 
L 132.851393 134.751135 
L 133.155858 135.038117 
L 133.257346 134.810177 
L 133.460323 135.038022 
L 133.561812 135.193416 
L 133.6633 135.080516 
L 133.764788 135.248209 
L 133.866277 135.096191 
L 134.982649 135.61639 
L 135.084137 135.586925 
L 135.185626 135.875555 
L 135.287114 135.689792 
L 135.388602 135.893687 
L 135.490091 135.76573 
L 135.794556 136.024831 
L 135.896044 135.97224 
L 136.099021 136.206298 
L 136.80944 136.573988 
L 136.910928 136.509732 
L 137.215393 136.874711 
L 137.722835 136.817651 
L 137.925812 136.799566 
L 138.534742 136.69001 
L 138.737719 136.823182 
L 138.839207 136.515818 
L 139.854091 138.370037 
L 140.260044 138.712098 
L 140.361533 138.684154 
L 140.665998 139.032126 
L 140.767486 138.981691 
L 141.274928 139.507802 
L 141.477905 139.628057 
L 141.680882 139.974095 
L 141.78237 139.675338 
L 142.086835 140.37786 
L 142.188323 140.256845 
L 142.492789 140.561879 
L 142.594277 140.735469 
L 142.695765 140.553399 
L 143.101719 141.135192 
L 143.203207 141.144226 
L 143.609161 141.62163 
L 143.710649 141.539241 
L 143.913626 141.832674 
L 144.015114 142.145284 
L 144.116603 142.04768 
L 144.624044 142.708818 
L 145.029998 143.521014 
L 145.232975 143.66922 
L 145.53744 144.238935 
L 145.638928 144.199072 
L 145.943393 145.060729 
L 146.044882 144.938073 
L 146.14637 145.211336 
L 146.247858 145.162233 
L 146.450835 145.63966 
L 146.552324 145.645786 
L 146.856789 146.334139 
L 147.059765 146.548115 
L 147.161254 146.524443 
L 147.668696 147.279333 
L 147.770184 147.499483 
L 147.973161 148.059093 
L 148.785068 150.117303 
L 149.495486 151.843795 
L 149.698463 152.476165 
L 150.51037 154.532108 
L 151.1193 156.027276 
L 151.220789 156.09341 
L 151.728231 157.558003 
L 151.829719 157.620564 
L 152.540138 159.567546 
L 152.844603 160.200058 
L 154.26544 163.945816 
L 154.569905 165.201204 
L 154.671393 165.319129 
L 154.975859 166.564421 
L 155.077347 166.808417 
L 155.381812 168.264498 
L 155.686277 169.148084 
L 156.295207 171.721167 
L 156.701161 172.984306 
L 157.005626 174.172997 
L 157.41158 176.023349 
L 157.513068 176.061096 
L 157.716045 177.107319 
L 157.919021 177.878892 
L 159.644324 184.890603 
L 159.745812 184.881679 
L 160.050277 186.569711 
L 160.354742 187.510539 
L 163.500882 200.231545 
L 165.226184 210.240447 
L 165.327673 210.563978 
L 166.13958 216.104114 
L 166.241068 216.407991 
L 166.647022 219.477324 
L 166.74851 219.828244 
L 167.052975 222.093567 
L 167.154464 222.283752 
L 167.560417 224.830746 
L 167.864882 226.349023 
L 168.372324 229.159461 
L 168.473812 229.249854 
L 169.691673 234.124335 
L 169.793161 234.179651 
L 170.199115 235.858981 
L 170.50358 236.290277 
L 170.706557 237.084524 
L 170.808045 237.050985 
L 171.011022 237.590632 
L 171.11251 238.403281 
L 171.315487 238.341624 
L 171.924417 239.580718 
L 172.127394 240.243726 
L 172.228882 240.173067 
L 172.431859 240.534369 
L 172.939301 241.774922 
L 173.040789 241.562293 
L 173.243766 241.96555 
L 173.446743 242.116364 
L 174.055673 238.389364 
L 174.766092 234.09983 
L 176.389906 220.198549 
L 182.174743 164.692528 
L 186.843208 127.952299 
L 187.95958 120.060379 
L 188.771487 114.645352 
L 191.207208 105.910208 
L 193.033999 100.190476 
L 195.571209 92.662949 
L 198.717348 84.277236 
L 201.356046 78.015241 
L 201.559023 77.838956 
L 202.37093 76.934457 
L 202.573906 76.724031 
L 202.878372 76.398534 
L 203.284325 75.957871 
L 204.806651 74.253213 
L 205.009627 74.127316 
L 205.415581 73.670834 
L 206.836418 72.087318 
L 207.039395 72.002441 
L 207.95279 71.038995 
L 208.155767 70.819392 
L 208.561721 70.412188 
L 208.866186 70.131388 
L 212.113814 67.005487 
L 213.230186 66.157412 
L 213.331674 66.128105 
L 213.534651 65.911229 
L 214.143581 65.470027 
L 215.259953 64.608227 
L 217.391209 62.964005 
L 218.000139 62.484921 
L 218.406093 62.214519 
L 219.015023 61.700914 
L 219.522465 61.294899 
L 219.928419 61.084996 
L 220.334372 61.035211 
L 221.044791 60.904321 
L 221.247767 60.853728 
L 221.755209 60.779898 
L 222.059674 60.698857 
L 222.262651 60.695766 
L 222.668605 60.606198 
L 224.089442 60.335843 
L 224.393907 60.252472 
L 224.596884 60.224322 
L 227.438558 59.651469 
L 227.641535 59.599338 
L 228.148977 59.46214 
L 229.975768 59.075224 
L 230.990651 58.614146 
L 233.629349 57.179383 
L 235.557628 56.415981 
L 236.775489 56.127319 
L 237.079954 55.981182 
L 237.790373 55.809874 
L 238.094838 55.667113 
L 240.42907 54.86594 
L 240.733535 54.778479 
L 241.139489 54.624099 
L 241.240977 54.673932 
L 241.443954 54.619059 
L 242.864791 54.65282 
L 243.067768 54.637128 
L 247.837722 54.532328 
L 248.243675 54.503068 
L 253.013629 54.202361 
L 253.216606 54.145237 
L 253.622559 54.138358 
L 253.825536 54.089191 
L 254.535954 54.050422 
L 255.347861 53.951296 
L 255.550838 53.949521 
L 257.276141 53.713481 
L 257.377629 53.830613 
L 257.580606 53.708283 
L 260.219303 53.394863 
L 260.320792 53.447993 
L 260.625257 53.316818 
L 260.929722 53.296339 
L 266.714559 52.560548 
L 266.917536 52.495658 
L 267.32349 52.475877 
L 267.729443 52.383503 
L 267.830932 52.361978 
L 267.93242 52.458347 
L 268.135397 52.36052 
L 268.642839 52.275881 
L 268.744327 52.341278 
L 269.048792 52.235749 
L 270.266653 52.061842 
L 270.774094 52.028271 
L 271.484513 51.941666 
L 271.788978 51.903912 
L 272.194932 51.793056 
L 272.29642 51.905085 
L 272.499397 51.821396 
L 272.803862 51.762846 
L 273.412792 51.690031 
L 275.44256 51.429678 
L 276.05149 51.358987 
L 276.152978 51.413067 
L 276.457443 51.281353 
L 276.761909 51.266739 
L 278.385723 51.077743 
L 278.588699 51.07023 
L 279.908048 50.920891 
L 280.516978 50.839612 
L 286.910746 50.394225 
L 287.92563 50.375871 
L 288.027118 50.483492 
L 288.331583 50.383003 
L 288.940514 50.486631 
L 289.244979 50.429444 
L 289.955397 50.500325 
L 290.564328 50.467135 
L 291.071769 50.527651 
L 291.6807 50.540204 
L 291.883676 50.574408 
L 294.522374 50.726506 
L 294.725351 50.795548 
L 295.029816 50.764768 
L 295.232793 50.811335 
L 295.334281 50.746699 
L 295.638746 50.881266 
L 295.943211 50.871153 
L 297.364049 50.99434 
L 297.567025 51.044648 
L 299.79977 51.314575 
L 300.002746 51.299961 
L 300.916142 51.471871 
L 301.119118 51.51026 
L 301.322095 51.547475 
L 302.032514 51.629674 
L 302.336979 51.710668 
L 302.641444 51.729022 
L 303.148886 51.849958 
L 303.453351 51.862575 
L 303.960793 51.930571 
L 304.062281 52.030839 
L 304.366746 51.964871 
L 304.7727 52.048876 
L 305.483119 52.173585 
L 307.208421 52.483168 
L 307.411398 52.504534 
L 313.399212 53.522678 
L 313.602189 53.541318 
L 314.312607 53.669387 
L 314.515584 53.661049 
L 314.820049 53.742836 
L 315.124514 53.791559 
L 316.139398 53.965085 
L 316.443863 53.984359 
L 316.64684 54.043765 
L 317.661724 54.229211 
L 317.8647 54.24915 
L 320.807863 54.750456 
L 321.01084 54.780603 
L 321.213817 54.819689 
L 322.330189 55.0084 
L 322.533166 55.049008 
L 323.142096 55.151019 
L 324.15698 55.33488 
L 324.359956 55.371398 
L 325.070375 55.482919 
L 330.246282 56.482931 
L 330.449259 56.4816 
L 330.855212 56.603202 
L 331.362654 56.675573 
L 333.899864 57.223795 
L 334.10284 57.241388 
L 334.813259 57.414408 
L 335.016236 57.447978 
L 336.437073 57.770971 
L 337.046003 57.921293 
L 337.24898 57.934226 
L 337.553445 58.00384 
L 340.902561 58.826679 
L 341.105538 58.924221 
L 341.815957 59.074701 
L 342.018934 59.145678 
L 342.729352 59.338636 
L 342.830841 59.443754 
L 343.033817 59.439474 
L 343.236794 59.481889 
L 345.165073 60.034074 
L 345.36805 60.054298 
L 346.078469 60.289894 
L 346.281445 60.318075 
L 346.991864 60.561532 
L 347.194841 60.58014 
L 347.499306 60.674987 
L 349.021631 61.071682 
L 349.326097 61.155751 
L 349.427585 61.115777 
L 349.73205 61.240834 
L 349.935027 61.250154 
L 350.138004 61.308355 
L 350.543957 61.433793 
L 350.848422 61.464193 
L 351.152887 61.538942 
L 351.355864 61.574224 
L 351.761818 61.634074 
L 351.964794 61.683938 
L 352.472236 61.739065 
L 352.87819 61.873981 
L 353.081166 61.875566 
L 353.284143 61.964389 
L 353.48712 61.968986 
L 353.994562 62.055908 
L 354.400515 62.130371 
L 354.907957 62.241607 
L 355.313911 62.299713 
L 355.618376 62.393165 
L 355.821353 62.396272 
L 357.140701 62.609075 
L 357.24219 62.68804 
L 357.445167 62.652219 
L 357.749632 62.723702 
L 358.054097 62.754895 
L 358.257074 62.791477 
L 358.561539 62.855416 
L 363.128516 63.451886 
L 363.432981 63.468148 
L 364.041911 63.545211 
L 364.244888 63.516586 
L 364.549353 63.586738 
L 364.853818 63.546099 
L 365.36126 63.597548 
L 368.913353 64.211136 
L 369.014841 64.136989 
L 369.11633 64.334227 
L 369.319306 64.227842 
L 369.420795 64.368241 
L 369.522283 64.272412 
L 369.72526 64.31993 
L 370.33419 64.37623 
L 370.435679 64.568935 
L 370.537167 64.420705 
L 370.740144 64.522906 
L 370.841632 64.438584 
L 370.94312 64.6453 
L 371.146097 64.533272 
L 371.247586 64.662133 
L 371.349074 64.555431 
L 371.552051 64.63969 
L 371.653539 64.56231 
L 371.755027 64.804657 
L 371.958004 64.735329 
L 372.262469 64.922074 
L 372.363958 64.804625 
L 372.566934 64.991815 
L 372.668423 64.841905 
L 372.8714 65.011469 
L 372.972888 64.961002 
L 373.074376 65.152693 
L 373.175865 65.05271 
L 373.378841 65.105713 
L 373.48033 65.062538 
L 373.581818 65.301081 
L 373.581818 65.301081 
" style="fill:none;stroke:#081d58;stroke-dasharray:5.55,2.4;stroke-dashoffset:0;stroke-width:1.5;"/>
    <defs>
     <path d="M -0 4.242641 
L 4.242641 0 
L 0 -4.242641 
L -4.242641 -0 
z
" id="m910d2fe83b" style="stroke:#081d58;stroke-linejoin:miter;"/>
    </defs>
    <g clip-path="url(#p3449970864)">
     <use style="fill:#081d58;stroke:#081d58;stroke-linejoin:miter;" x="69.218182" xlink:href="#m910d2fe83b" y="45.031452"/>
     <use style="fill:#081d58;stroke:#081d58;stroke-linejoin:miter;" x="77.337252" xlink:href="#m910d2fe83b" y="49.683508"/>
     <use style="fill:#081d58;stroke:#081d58;stroke-linejoin:miter;" x="85.456322" xlink:href="#m910d2fe83b" y="80.845856"/>
     <use style="fill:#081d58;stroke:#081d58;stroke-linejoin:miter;" x="93.575392" xlink:href="#m910d2fe83b" y="119.946877"/>
     <use style="fill:#081d58;stroke:#081d58;stroke-linejoin:miter;" x="101.694462" xlink:href="#m910d2fe83b" y="141.449467"/>
     <use style="fill:#081d58;stroke:#081d58;stroke-linejoin:miter;" x="109.813532" xlink:href="#m910d2fe83b" y="146.484778"/>
     <use style="fill:#081d58;stroke:#081d58;stroke-linejoin:miter;" x="117.932602" xlink:href="#m910d2fe83b" y="141.12286"/>
     <use style="fill:#081d58;stroke:#081d58;stroke-linejoin:miter;" x="126.051672" xlink:href="#m910d2fe83b" y="136.803909"/>
     <use style="fill:#081d58;stroke:#081d58;stroke-linejoin:miter;" x="134.170742" xlink:href="#m910d2fe83b" y="135.277104"/>
     <use style="fill:#081d58;stroke:#081d58;stroke-linejoin:miter;" x="142.289812" xlink:href="#m910d2fe83b" y="140.327488"/>
     <use style="fill:#081d58;stroke:#081d58;stroke-linejoin:miter;" x="150.408882" xlink:href="#m910d2fe83b" y="154.205842"/>
     <use style="fill:#081d58;stroke:#081d58;stroke-linejoin:miter;" x="158.527952" xlink:href="#m910d2fe83b" y="180.30163"/>
     <use style="fill:#081d58;stroke:#081d58;stroke-linejoin:miter;" x="166.647022" xlink:href="#m910d2fe83b" y="219.477324"/>
     <use style="fill:#081d58;stroke:#081d58;stroke-linejoin:miter;" x="174.766092" xlink:href="#m910d2fe83b" y="234.09983"/>
     <use style="fill:#081d58;stroke:#081d58;stroke-linejoin:miter;" x="182.885162" xlink:href="#m910d2fe83b" y="158.553839"/>
     <use style="fill:#081d58;stroke:#081d58;stroke-linejoin:miter;" x="191.004232" xlink:href="#m910d2fe83b" y="106.570728"/>
     <use style="fill:#081d58;stroke:#081d58;stroke-linejoin:miter;" x="199.123302" xlink:href="#m910d2fe83b" y="83.248075"/>
     <use style="fill:#081d58;stroke:#081d58;stroke-linejoin:miter;" x="207.242372" xlink:href="#m910d2fe83b" y="71.752041"/>
     <use style="fill:#081d58;stroke:#081d58;stroke-linejoin:miter;" x="215.361442" xlink:href="#m910d2fe83b" y="64.53565"/>
     <use style="fill:#081d58;stroke:#081d58;stroke-linejoin:miter;" x="223.480512" xlink:href="#m910d2fe83b" y="60.491855"/>
     <use style="fill:#081d58;stroke:#081d58;stroke-linejoin:miter;" x="231.599582" xlink:href="#m910d2fe83b" y="58.28483"/>
     <use style="fill:#081d58;stroke:#081d58;stroke-linejoin:miter;" x="239.718652" xlink:href="#m910d2fe83b" y="55.157153"/>
     <use style="fill:#081d58;stroke:#081d58;stroke-linejoin:miter;" x="247.837722" xlink:href="#m910d2fe83b" y="54.532328"/>
     <use style="fill:#081d58;stroke:#081d58;stroke-linejoin:miter;" x="255.956792" xlink:href="#m910d2fe83b" y="53.900766"/>
     <use style="fill:#081d58;stroke:#081d58;stroke-linejoin:miter;" x="264.075862" xlink:href="#m910d2fe83b" y="52.875869"/>
     <use style="fill:#081d58;stroke:#081d58;stroke-linejoin:miter;" x="272.194932" xlink:href="#m910d2fe83b" y="51.793056"/>
     <use style="fill:#081d58;stroke:#081d58;stroke-linejoin:miter;" x="280.314002" xlink:href="#m910d2fe83b" y="50.883738"/>
     <use style="fill:#081d58;stroke:#081d58;stroke-linejoin:miter;" x="288.433072" xlink:href="#m910d2fe83b" y="50.408775"/>
     <use style="fill:#081d58;stroke:#081d58;stroke-linejoin:miter;" x="296.552142" xlink:href="#m910d2fe83b" y="50.992153"/>
     <use style="fill:#081d58;stroke:#081d58;stroke-linejoin:miter;" x="304.671212" xlink:href="#m910d2fe83b" y="52.028683"/>
     <use style="fill:#081d58;stroke:#081d58;stroke-linejoin:miter;" x="312.790282" xlink:href="#m910d2fe83b" y="53.429004"/>
     <use style="fill:#081d58;stroke:#081d58;stroke-linejoin:miter;" x="320.909352" xlink:href="#m910d2fe83b" y="54.726427"/>
     <use style="fill:#081d58;stroke:#081d58;stroke-linejoin:miter;" x="329.028422" xlink:href="#m910d2fe83b" y="56.251869"/>
     <use style="fill:#081d58;stroke:#081d58;stroke-linejoin:miter;" x="337.147492" xlink:href="#m910d2fe83b" y="57.884521"/>
     <use style="fill:#081d58;stroke:#081d58;stroke-linejoin:miter;" x="345.266562" xlink:href="#m910d2fe83b" y="60.005448"/>
     <use style="fill:#081d58;stroke:#081d58;stroke-linejoin:miter;" x="353.385632" xlink:href="#m910d2fe83b" y="61.91126"/>
     <use style="fill:#081d58;stroke:#081d58;stroke-linejoin:miter;" x="361.504702" xlink:href="#m910d2fe83b" y="63.221489"/>
     <use style="fill:#081d58;stroke:#081d58;stroke-linejoin:miter;" x="369.623772" xlink:href="#m910d2fe83b" y="64.364754"/>
    </g>
   </g>
   <g id="patch_3">
    <path d="M 54 252 
L 54 34.56 
" style="fill:none;stroke:#000000;stroke-linecap:square;stroke-linejoin:miter;stroke-width:0.8;"/>
   </g>
   <g id="patch_4">
    <path d="M 388.8 252 
L 388.8 34.56 
" style="fill:none;stroke:#000000;stroke-linecap:square;stroke-linejoin:miter;stroke-width:0.8;"/>
   </g>
   <g id="patch_5">
    <path d="M 54 252 
L 388.8 252 
" style="fill:none;stroke:#000000;stroke-linecap:square;stroke-linejoin:miter;stroke-width:0.8;"/>
   </g>
   <g id="patch_6">
    <path d="M 54 34.56 
L 388.8 34.56 
" style="fill:none;stroke:#000000;stroke-linecap:square;stroke-linejoin:miter;stroke-width:0.8;"/>
   </g>
   <g id="legend_1">
    <g id="patch_7">
     <path d="M 61 247 
L 162.714063 247 
Q 164.714063 247 164.714063 245 
L 164.714063 216.64375 
Q 164.714063 214.64375 162.714063 214.64375 
L 61 214.64375 
Q 59 214.64375 59 216.64375 
L 59 245 
Q 59 247 61 247 
z
" style="fill:#ffffff;opacity:0.8;stroke:#cccccc;stroke-linejoin:miter;"/>
    </g>
    <g id="line2d_17">
     <path d="M 63 222.742188 
L 83 222.742188 
" style="fill:none;stroke:#40b5c4;stroke-dasharray:5.55,2.4;stroke-dashoffset:0;stroke-width:1.5;"/>
    </g>
    <g id="line2d_18">
     <g>
      <use style="fill:#40b5c4;stroke:#40b5c4;" x="73" xlink:href="#m179f2e4718" y="222.742188"/>
     </g>
    </g>
    <g id="text_17">
     <text style="font-family:DejaVu Sans;font-size:10px;font-style:normal;font-weight:normal;text-anchor:start;" transform="rotate(-0, 91, 226.242188)" x="91" y="226.242188">original</text>
    </g>
    <g id="line2d_19">
     <path d="M 63 237.420312 
L 83 237.420312 
" style="fill:none;stroke:#081d58;stroke-dasharray:5.55,2.4;stroke-dashoffset:0;stroke-width:1.5;"/>
    </g>
    <g id="line2d_20">
     <g>
      <use style="fill:#081d58;stroke:#081d58;stroke-linejoin:miter;" x="73" xlink:href="#m910d2fe83b" y="237.420312"/>
     </g>
    </g>
    <g id="text_18">
     <text style="font-family:DejaVu Sans;font-size:10px;font-style:normal;font-weight:normal;text-anchor:start;" transform="rotate(-0, 91, 240.920312)" x="91" y="240.920312">reconstructed</text>
    </g>
   </g>
  </g>
  <g id="text_19">
   <text style="font-family:DejaVu Sans;font-size:12px;font-style:normal;font-weight:normal;text-anchor:middle;" transform="rotate(-0, 216, 14.878125)" x="216" y="14.878125">Reconstruction of the temperature curve</text>
  </g>
 </g>
 <defs>
  <clipPath id="p3449970864">
   <rect height="217.44" width="334.8" x="54" y="34.56"/>
  </clipPath>
 </defs>
</svg>
