<?xml version="1.0" encoding="utf-8" standalone="no"?>
<!DOCTYPE svg PUBLIC "-//W3C//DTD SVG 1.1//EN"
  "http://www.w3.org/Graphics/SVG/1.1/DTD/svg11.dtd">
<!-- Created with matplotlib (https://matplotlib.org/) -->
<svg height="288pt" version="1.1" viewBox="0 0 432 288" width="432pt" xmlns="http://www.w3.org/2000/svg" xmlns:xlink="http://www.w3.org/1999/xlink">
 <defs>
  <style type="text/css">
*{stroke-linecap:butt;stroke-linejoin:round;}
  </style>
 </defs>
 <g id="figure_1">
  <g id="patch_1">
   <path d="M 0 288 
L 432 288 
L 432 0 
L 0 0 
z
" style="fill:#ffffff;"/>
  </g>
  <g id="axes_1">
   <g id="patch_2">
    <path d="M 54 252 
L 388.8 252 
L 388.8 34.56 
L 54 34.56 
z
" style="fill:#ffffff;"/>
   </g>
   <g id="matplotlib.axis_1">
    <g id="xtick_1">
     <g id="line2d_1">
      <defs>
       <path d="M 0 0 
L 0 3.5 
" id="m04ae12c7ef" style="stroke:#000000;stroke-width:0.8;"/>
      </defs>
      <g>
       <use style="stroke:#000000;stroke-width:0.8;" x="69.218182" xlink:href="#m04ae12c7ef" y="252"/>
      </g>
     </g>
     <g id="text_1">
      <text style="font-family:DejaVu Sans;font-size:10px;font-style:normal;font-weight:normal;text-anchor:middle;" transform="rotate(-0, 69.218182, 266.598437)" x="69.218182" y="266.598437">0</text>
     </g>
    </g>
    <g id="xtick_2">
     <g id="line2d_2">
      <g>
       <use style="stroke:#000000;stroke-width:0.8;" x="119.962369" xlink:href="#m04ae12c7ef" y="252"/>
      </g>
     </g>
     <g id="text_2">
      <text style="font-family:DejaVu Sans;font-size:10px;font-style:normal;font-weight:normal;text-anchor:middle;" transform="rotate(-0, 119.962369, 266.598437)" x="119.962369" y="266.598437">500</text>
     </g>
    </g>
    <g id="xtick_3">
     <g id="line2d_3">
      <g>
       <use style="stroke:#000000;stroke-width:0.8;" x="170.706557" xlink:href="#m04ae12c7ef" y="252"/>
      </g>
     </g>
     <g id="text_3">
      <text style="font-family:DejaVu Sans;font-size:10px;font-style:normal;font-weight:normal;text-anchor:middle;" transform="rotate(-0, 170.706557, 266.598437)" x="170.706557" y="266.598437">1000</text>
     </g>
    </g>
    <g id="xtick_4">
     <g id="line2d_4">
      <g>
       <use style="stroke:#000000;stroke-width:0.8;" x="221.450744" xlink:href="#m04ae12c7ef" y="252"/>
      </g>
     </g>
     <g id="text_4">
      <text style="font-family:DejaVu Sans;font-size:10px;font-style:normal;font-weight:normal;text-anchor:middle;" transform="rotate(-0, 221.450744, 266.598437)" x="221.450744" y="266.598437">1500</text>
     </g>
    </g>
    <g id="xtick_5">
     <g id="line2d_5">
      <g>
       <use style="stroke:#000000;stroke-width:0.8;" x="272.194932" xlink:href="#m04ae12c7ef" y="252"/>
      </g>
     </g>
     <g id="text_5">
      <text style="font-family:DejaVu Sans;font-size:10px;font-style:normal;font-weight:normal;text-anchor:middle;" transform="rotate(-0, 272.194932, 266.598437)" x="272.194932" y="266.598437">2000</text>
     </g>
    </g>
    <g id="xtick_6">
     <g id="line2d_6">
      <g>
       <use style="stroke:#000000;stroke-width:0.8;" x="322.939119" xlink:href="#m04ae12c7ef" y="252"/>
      </g>
     </g>
     <g id="text_6">
      <text style="font-family:DejaVu Sans;font-size:10px;font-style:normal;font-weight:normal;text-anchor:middle;" transform="rotate(-0, 322.939119, 266.598437)" x="322.939119" y="266.598437">2500</text>
     </g>
    </g>
    <g id="xtick_7">
     <g id="line2d_7">
      <g>
       <use style="stroke:#000000;stroke-width:0.8;" x="373.683307" xlink:href="#m04ae12c7ef" y="252"/>
      </g>
     </g>
     <g id="text_7">
      <text style="font-family:DejaVu Sans;font-size:10px;font-style:normal;font-weight:normal;text-anchor:middle;" transform="rotate(-0, 373.683307, 266.598437)" x="373.683307" y="266.598437">3000</text>
     </g>
    </g>
    <g id="text_8">
     <text style="font-family:DejaVu Sans;font-size:10px;font-style:normal;font-weight:normal;text-anchor:middle;" transform="rotate(-0, 221.4, 280.276563)" x="221.4" y="280.276563">Time</text>
    </g>
   </g>
   <g id="matplotlib.axis_2">
    <g id="ytick_1">
     <g id="line2d_8">
      <defs>
       <path d="M 0 0 
L -3.5 0 
" id="m1e6e7186e9" style="stroke:#000000;stroke-width:0.8;"/>
      </defs>
      <g>
       <use style="stroke:#000000;stroke-width:0.8;" x="54" xlink:href="#m1e6e7186e9" y="220.291557"/>
      </g>
     </g>
     <g id="text_9">
      <text style="font-family:DejaVu Sans;font-size:10px;font-style:normal;font-weight:normal;text-anchor:end;" transform="rotate(-0, 47, 224.090776)" x="47" y="224.090776">65</text>
     </g>
    </g>
    <g id="ytick_2">
     <g id="line2d_9">
      <g>
       <use style="stroke:#000000;stroke-width:0.8;" x="54" xlink:href="#m1e6e7186e9" y="173.625047"/>
      </g>
     </g>
     <g id="text_10">
      <text style="font-family:DejaVu Sans;font-size:10px;font-style:normal;font-weight:normal;text-anchor:end;" transform="rotate(-0, 47, 177.424266)" x="47" y="177.424266">70</text>
     </g>
    </g>
    <g id="ytick_3">
     <g id="line2d_10">
      <g>
       <use style="stroke:#000000;stroke-width:0.8;" x="54" xlink:href="#m1e6e7186e9" y="126.958537"/>
      </g>
     </g>
     <g id="text_11">
      <text style="font-family:DejaVu Sans;font-size:10px;font-style:normal;font-weight:normal;text-anchor:end;" transform="rotate(-0, 47, 130.757756)" x="47" y="130.757756">75</text>
     </g>
    </g>
    <g id="ytick_4">
     <g id="line2d_11">
      <g>
       <use style="stroke:#000000;stroke-width:0.8;" x="54" xlink:href="#m1e6e7186e9" y="80.292027"/>
      </g>
     </g>
     <g id="text_12">
      <text style="font-family:DejaVu Sans;font-size:10px;font-style:normal;font-weight:normal;text-anchor:end;" transform="rotate(-0, 47, 84.091246)" x="47" y="84.091246">80</text>
     </g>
    </g>
    <g id="text_13">
     <text style="font-family:DejaVu Sans;font-size:10px;font-style:normal;font-weight:normal;text-anchor:middle;" transform="rotate(-90, 28.195312, 143.28)" x="28.195312" y="143.28">weight (\%)</text>
    </g>
   </g>
   <g id="line2d_12">
    <path clip-path="url(#pd0b76c9494)" d="M 69.218182 178.57235 
L 85.55781 178.818003 
L 91.139671 179.092122 
L 96.315578 179.578014 
L 113.162648 181.434781 
L 126.356137 182.781203 
L 131.430556 183.512467 
L 135.388602 184.279478 
L 138.940695 185.179021 
L 141.680882 186.083792 
L 144.319579 187.163935 
L 146.653812 188.360931 
L 148.683579 189.643793 
L 150.51037 191.052935 
L 152.438649 192.831769 
L 154.366928 194.914775 
L 156.396696 197.432247 
L 158.527952 200.434397 
L 160.659208 203.832559 
L 162.587487 207.329094 
L 164.617254 211.513493 
L 166.74851 216.435036 
L 172.127394 229.15222 
L 173.345254 231.304293 
L 174.360138 232.646049 
L 175.273534 233.482406 
L 176.288417 234.099897 
L 177.912231 234.781508 
L 180.652417 235.653705 
L 184.204511 236.538222 
L 188.467022 237.363846 
L 194.962278 238.37483 
L 203.791767 239.529359 
L 211.504883 240.32605 
L 218.913535 240.882501 
L 229.265349 241.401433 
L 242.96628 241.819751 
L 255.855303 242.040951 
L 270.266653 242.116364 
L 302.844421 242.005577 
L 373.581818 241.376139 
L 373.581818 241.376139 
" style="fill:none;stroke:#40b5c4;stroke-dasharray:5.55,2.4;stroke-dashoffset:0;stroke-width:1.5;"/>
    <defs>
     <path d="M 0 3 
C 0.795609 3 1.55874 2.683901 2.12132 2.12132 
C 2.683901 1.55874 3 0.795609 3 0 
C 3 -0.795609 2.683901 -1.55874 2.12132 -2.12132 
C 1.55874 -2.683901 0.795609 -3 0 -3 
C -0.795609 -3 -1.55874 -2.683901 -2.12132 -2.12132 
C -2.683901 -1.55874 -3 -0.795609 -3 0 
C -3 0.795609 -2.683901 1.55874 -2.12132 2.12132 
C -1.55874 2.683901 -0.795609 3 0 3 
z
" id="mbb358c3e80" style="stroke:#40b5c4;"/>
    </defs>
    <g clip-path="url(#pd0b76c9494)">
     <use style="fill:#40b5c4;stroke:#40b5c4;" x="69.218182" xlink:href="#mbb358c3e80" y="178.57235"/>
     <use style="fill:#40b5c4;stroke:#40b5c4;" x="77.337252" xlink:href="#mbb358c3e80" y="178.668577"/>
     <use style="fill:#40b5c4;stroke:#40b5c4;" x="85.456322" xlink:href="#mbb358c3e80" y="178.814643"/>
     <use style="fill:#40b5c4;stroke:#40b5c4;" x="93.575392" xlink:href="#mbb358c3e80" y="179.293908"/>
     <use style="fill:#40b5c4;stroke:#40b5c4;" x="101.694462" xlink:href="#mbb358c3e80" y="180.223691"/>
     <use style="fill:#40b5c4;stroke:#40b5c4;" x="109.813532" xlink:href="#mbb358c3e80" y="181.111288"/>
     <use style="fill:#40b5c4;stroke:#40b5c4;" x="117.932602" xlink:href="#mbb358c3e80" y="181.883339"/>
     <use style="fill:#40b5c4;stroke:#40b5c4;" x="126.051672" xlink:href="#mbb358c3e80" y="182.744243"/>
     <use style="fill:#40b5c4;stroke:#40b5c4;" x="134.170742" xlink:href="#mbb358c3e80" y="184.020292"/>
     <use style="fill:#40b5c4;stroke:#40b5c4;" x="142.289812" xlink:href="#mbb358c3e80" y="186.310778"/>
     <use style="fill:#40b5c4;stroke:#40b5c4;" x="150.408882" xlink:href="#mbb358c3e80" y="190.967442"/>
     <use style="fill:#40b5c4;stroke:#40b5c4;" x="158.527952" xlink:href="#mbb358c3e80" y="200.434397"/>
     <use style="fill:#40b5c4;stroke:#40b5c4;" x="166.647022" xlink:href="#mbb358c3e80" y="216.190691"/>
     <use style="fill:#40b5c4;stroke:#40b5c4;" x="174.766092" xlink:href="#mbb358c3e80" y="233.058581"/>
     <use style="fill:#40b5c4;stroke:#40b5c4;" x="182.885162" xlink:href="#mbb358c3e80" y="236.23629"/>
     <use style="fill:#40b5c4;stroke:#40b5c4;" x="191.004232" xlink:href="#mbb358c3e80" y="237.782538"/>
     <use style="fill:#40b5c4;stroke:#40b5c4;" x="199.123302" xlink:href="#mbb358c3e80" y="238.945188"/>
     <use style="fill:#40b5c4;stroke:#40b5c4;" x="207.242372" xlink:href="#mbb358c3e80" y="239.914078"/>
     <use style="fill:#40b5c4;stroke:#40b5c4;" x="215.361442" xlink:href="#mbb358c3e80" y="240.638995"/>
     <use style="fill:#40b5c4;stroke:#40b5c4;" x="223.480512" xlink:href="#mbb358c3e80" y="241.141594"/>
     <use style="fill:#40b5c4;stroke:#40b5c4;" x="231.599582" xlink:href="#mbb358c3e80" y="241.488606"/>
     <use style="fill:#40b5c4;stroke:#40b5c4;" x="239.718652" xlink:href="#mbb358c3e80" y="241.740418"/>
     <use style="fill:#40b5c4;stroke:#40b5c4;" x="247.837722" xlink:href="#mbb358c3e80" y="241.917751"/>
     <use style="fill:#40b5c4;stroke:#40b5c4;" x="255.956792" xlink:href="#mbb358c3e80" y="242.042257"/>
     <use style="fill:#40b5c4;stroke:#40b5c4;" x="264.075862" xlink:href="#mbb358c3e80" y="242.106097"/>
     <use style="fill:#40b5c4;stroke:#40b5c4;" x="272.194932" xlink:href="#mbb358c3e80" y="242.115057"/>
     <use style="fill:#40b5c4;stroke:#40b5c4;" x="280.314002" xlink:href="#mbb358c3e80" y="242.088924"/>
     <use style="fill:#40b5c4;stroke:#40b5c4;" x="288.433072" xlink:href="#mbb358c3e80" y="242.050191"/>
     <use style="fill:#40b5c4;stroke:#40b5c4;" x="296.552142" xlink:href="#mbb358c3e80" y="242.034697"/>
     <use style="fill:#40b5c4;stroke:#40b5c4;" x="304.671212" xlink:href="#mbb358c3e80" y="241.987844"/>
     <use style="fill:#40b5c4;stroke:#40b5c4;" x="312.790282" xlink:href="#mbb358c3e80" y="241.903564"/>
     <use style="fill:#40b5c4;stroke:#40b5c4;" x="320.909352" xlink:href="#mbb358c3e80" y="241.824231"/>
     <use style="fill:#40b5c4;stroke:#40b5c4;" x="329.028422" xlink:href="#mbb358c3e80" y="241.754045"/>
     <use style="fill:#40b5c4;stroke:#40b5c4;" x="337.147492" xlink:href="#mbb358c3e80" y="241.679938"/>
     <use style="fill:#40b5c4;stroke:#40b5c4;" x="345.266562" xlink:href="#mbb358c3e80" y="241.635605"/>
     <use style="fill:#40b5c4;stroke:#40b5c4;" x="353.385632" xlink:href="#mbb358c3e80" y="241.539379"/>
     <use style="fill:#40b5c4;stroke:#40b5c4;" x="361.504702" xlink:href="#mbb358c3e80" y="241.452579"/>
     <use style="fill:#40b5c4;stroke:#40b5c4;" x="369.623772" xlink:href="#mbb358c3e80" y="241.392286"/>
    </g>
   </g>
   <g id="line2d_13">
    <path clip-path="url(#pd0b76c9494)" d="M 69.218182 46.225318 
L 69.31967 46.328569 
L 69.421159 46.835993 
L 69.522647 46.490209 
L 69.624135 46.664169 
L 69.725624 45.890216 
L 69.827112 46.971643 
L 69.9286 46.145637 
L 70.131577 46.834213 
L 70.233066 45.973671 
L 70.334554 47.138126 
L 70.537531 46.26498 
L 70.639019 46.79334 
L 70.740507 46.041603 
L 70.841996 47.056736 
L 70.943484 46.257717 
L 71.044973 46.460587 
L 71.146461 46.99329 
L 71.247949 46.139513 
L 71.349438 47.288445 
L 71.552414 46.471482 
L 71.653903 46.762863 
L 71.755391 46.172909 
L 71.85688 47.039433 
L 72.059856 46.479457 
L 72.161345 46.773615 
L 72.262833 46.346869 
L 72.364321 46.997634 
L 72.46581 46.451188 
L 72.567298 46.591823 
L 72.668787 47.02099 
L 72.770275 46.392655 
L 72.871763 46.824101 
L 73.07474 46.237993 
L 73.176228 46.990727 
L 73.277717 46.095934 
L 73.480694 46.749049 
L 73.582182 46.217343 
L 73.68367 47.034875 
L 73.785159 46.221259 
L 73.886647 46.812423 
L 74.089624 45.706643 
L 74.191112 46.984104 
L 74.292601 46.199754 
L 74.495577 46.269894 
L 74.597066 45.831256 
L 74.698554 46.626358 
L 74.800042 45.956082 
L 74.901531 46.463578 
L 75.003019 46.278581 
L 75.104508 45.741606 
L 75.205996 46.652776 
L 75.307484 45.742887 
L 75.408973 45.855751 
L 75.510461 46.245541 
L 75.611949 45.562377 
L 75.713438 46.414516 
L 75.814926 45.498575 
L 76.017903 46.069587 
L 76.119391 45.661568 
L 76.22088 46.382829 
L 76.423856 45.51424 
L 76.525345 45.963702 
L 76.626833 45.220367 
L 76.728322 46.080339 
L 76.931298 45.013225 
L 77.032787 46.058692 
L 77.134275 45.177358 
L 77.235763 46.100349 
L 77.337252 45.812386 
L 77.43874 45.157847 
L 77.540229 46.003151 
L 77.641717 45.050466 
L 77.743205 45.802702 
L 77.844694 45.141541 
L 78.04767 45.778491 
L 78.149159 44.990723 
L 78.250647 45.672606 
L 78.453624 45.286448 
L 78.555112 45.788603 
L 78.656601 45.233825 
L 78.758089 45.678872 
L 78.961066 44.963237 
L 79.062554 45.705432 
L 79.164043 45.011302 
L 79.265531 45.301188 
L 79.367019 45.23525 
L 79.468508 44.892457 
L 79.569996 45.529692 
L 79.671484 45.304534 
L 79.772973 45.500996 
L 79.97595 44.588045 
L 80.077438 45.502633 
L 80.280415 44.947714 
L 80.381903 45.261454 
L 80.483391 44.443636 
L 80.58488 45.341847 
L 80.686368 44.703971 
L 80.787857 45.155924 
L 80.889345 45.021556 
L 80.990833 44.613609 
L 81.092322 45.545358 
L 81.19381 44.664095 
L 81.295298 44.694785 
L 81.396787 45.088776 
L 81.498275 44.667726 
L 81.599764 45.043417 
L 81.701252 44.647859 
L 81.904229 45.114482 
L 82.005717 44.896587 
L 82.107205 45.455209 
L 82.310182 44.529655 
L 82.411671 45.468596 
L 82.513159 44.665875 
L 82.614647 45.432708 
L 82.817624 44.610262 
L 82.919112 45.411203 
L 83.020601 44.858633 
L 83.122089 45.739398 
L 83.325066 45.021129 
L 83.426554 45.611296 
L 83.528043 45.123383 
L 83.629531 45.48946 
L 83.731019 45.099599 
L 83.832508 45.184763 
L 83.933996 45.623401 
L 84.035485 45.025188 
L 84.136973 45.74246 
L 84.238461 45.3479 
L 84.441438 45.856107 
L 84.542926 45.250203 
L 84.644415 45.864723 
L 84.847392 45.189036 
L 85.050368 45.801776 
L 85.151857 45.516946 
L 85.253345 45.60325 
L 85.354833 45.347544 
L 85.456322 46.207302 
L 85.55781 45.615141 
L 85.760787 45.8675 
L 85.862275 45.100098 
L 85.963764 46.201107 
L 86.065252 45.582457 
L 86.268229 45.768807 
L 86.369717 45.235463 
L 86.471206 46.294033 
L 86.572694 45.523212 
L 86.674182 46.103909 
L 86.877159 45.334441 
L 86.978647 46.210435 
L 87.080136 46.110959 
L 87.181624 45.849912 
L 87.283113 46.016182 
L 87.384601 45.486541 
L 87.486089 46.181027 
L 87.689066 45.749154 
L 87.790554 46.379411 
L 87.892043 45.116547 
L 87.993531 46.519333 
L 88.196508 45.882952 
L 88.297996 46.597804 
L 88.399485 45.76368 
L 88.500973 46.367092 
L 88.70395 45.706358 
L 88.805438 46.397426 
L 88.906927 45.846565 
L 89.008415 46.577083 
L 89.109903 46.379767 
L 89.211392 45.85981 
L 89.31288 46.601792 
L 89.414368 46.074144 
L 89.515857 46.513779 
L 89.617345 46.09038 
L 89.718834 46.228949 
L 89.820322 46.767278 
L 89.92181 46.377061 
L 90.023299 46.786788 
L 90.226275 46.178962 
L 90.327764 46.765213 
L 90.429252 46.404761 
L 90.530741 46.839767 
L 90.733717 46.150621 
L 90.835206 47.090915 
L 90.936694 46.472479 
L 91.038182 47.292575 
L 91.241159 46.793838 
L 91.342648 47.021915 
L 91.444136 46.719711 
L 91.545624 47.166467 
L 91.748601 46.557857 
L 91.850089 47.20912 
L 91.951578 46.914463 
L 92.053066 47.063002 
L 92.154555 47.659792 
L 92.256043 46.963597 
L 92.357531 47.703656 
L 92.45902 46.858708 
L 92.661996 47.381869 
L 92.763485 46.848525 
L 92.864973 47.910584 
L 92.966462 46.784652 
L 93.169438 47.516807 
L 93.270927 47.112847 
L 93.372415 47.965841 
L 93.473903 46.979689 
L 93.67688 47.414126 
L 93.778369 46.900008 
L 93.879857 47.645265 
L 93.981345 47.495089 
L 94.082834 46.899795 
L 94.184322 47.40907 
L 94.28581 47.11185 
L 94.387299 47.909089 
L 94.590276 47.223005 
L 94.691764 47.841228 
L 94.793252 46.76094 
L 94.894741 47.848634 
L 94.996229 47.180138 
L 95.097717 47.540875 
L 95.300694 47.187188 
L 95.503671 47.541801 
L 95.605159 47.428296 
L 95.706648 47.886659 
L 95.808136 47.192956 
L 95.909624 47.710064 
L 96.112601 47.150516 
L 96.21409 48.211009 
L 96.315578 47.001479 
L 96.417066 48.026083 
L 96.620043 47.295067 
L 96.721531 48.082052 
L 96.82302 47.258467 
L 96.924508 47.98108 
L 97.127485 47.338789 
L 97.228973 47.917491 
L 97.330462 47.882386 
L 97.43195 48.030426 
L 97.634927 47.360792 
L 97.736415 48.066529 
L 97.939392 47.774863 
L 98.04088 48.006928 
L 98.142369 47.155857 
L 98.243857 48.363891 
L 98.345345 47.600049 
L 98.446834 48.284067 
L 98.548322 48.197622 
L 98.649811 47.550061 
L 98.751299 48.286488 
L 98.954276 47.917278 
L 99.055764 48.184377 
L 99.157252 47.74873 
L 99.258741 48.255086 
L 99.360229 47.844789 
L 99.461718 47.93451 
L 99.563206 48.490071 
L 99.664694 48.422352 
L 99.766183 48.195485 
L 99.867671 48.293111 
L 99.969159 48.099854 
L 100.273625 48.369232 
L 100.375113 48.041108 
L 100.679578 49.022275 
L 100.781066 48.408752 
L 100.882555 48.633126 
L 101.085532 48.306711 
L 101.288508 48.627857 
L 101.389997 48.249105 
L 101.592973 48.729043 
L 101.694462 48.770628 
L 101.79595 49.077176 
L 101.998927 48.714872 
L 102.100415 48.621163 
L 102.201904 48.861916 
L 102.303392 48.772194 
L 102.40488 48.976489 
L 102.506369 48.697498 
L 102.709346 49.131365 
L 102.810834 48.967588 
L 102.912322 49.239885 
L 103.013811 49.010668 
L 103.115299 49.267656 
L 103.318276 48.939817 
L 103.419764 49.064074 
L 103.521253 49.405157 
L 103.622741 49.018999 
L 103.724229 49.464117 
L 103.825718 49.327043 
L 104.028694 49.380235 
L 104.130183 49.392981 
L 104.231671 49.671972 
L 104.33316 48.942879 
L 104.434648 49.607529 
L 104.536136 49.302619 
L 104.637625 50.08234 
L 104.739113 49.221727 
L 104.840601 49.94847 
L 104.94209 49.452297 
L 105.043578 49.884882 
L 105.145067 49.425309 
L 105.55102 50.053928 
L 105.652508 50.14251 
L 105.753997 49.828842 
L 105.855485 49.940495 
L 105.956974 49.747808 
L 106.15995 50.044031 
L 106.261439 49.80869 
L 106.464415 50.091953 
L 106.565904 50.735811 
L 106.768881 50.258863 
L 106.971857 50.081201 
L 107.073346 50.404198 
L 107.174834 50.369449 
L 107.377811 50.154331 
L 107.479299 50.337405 
L 107.580788 51.066071 
L 107.783764 50.724631 
L 108.088229 50.701275 
L 108.189718 50.987814 
L 108.392695 50.583783 
L 108.595671 51.256622 
L 109.001625 51.020427 
L 109.204602 51.311808 
L 109.30609 50.947297 
L 109.509067 51.314087 
L 109.610555 51.527638 
L 109.712043 51.345916 
L 109.813532 51.518737 
L 109.91502 51.249359 
L 110.016509 51.426309 
L 110.219485 51.39569 
L 110.625439 51.762266 
L 110.726927 51.551421 
L 111.031392 51.796517 
L 111.132881 51.690774 
L 111.234369 51.975675 
L 111.538834 51.78548 
L 111.640323 51.766325 
L 111.843299 52.165514 
L 112.046276 51.969053 
L 112.249253 52.251319 
L 112.350741 52.110969 
L 112.45223 52.2343 
L 112.655206 52.028796 
L 112.959671 52.382198 
L 113.264137 52.608495 
L 113.365625 52.290412 
L 113.467113 52.480037 
L 113.568602 52.418585 
L 113.67009 52.687322 
L 113.771578 52.570969 
L 113.873067 52.632635 
L 113.974555 52.427629 
L 114.27902 52.931279 
L 114.380509 52.640254 
L 114.583485 52.804814 
L 114.684974 53.12183 
L 114.887951 52.722499 
L 114.989439 52.956842 
L 115.090927 52.881932 
L 115.192416 53.304263 
L 115.395392 52.994725 
L 115.496881 53.083876 
L 115.598369 53.054966 
L 115.801346 53.437991 
L 115.902834 53.005904 
L 116.105811 53.281691 
L 116.207299 53.642143 
L 116.511765 53.22978 
L 116.81623 53.946911 
L 116.917718 53.23327 
L 117.019206 53.587171 
L 117.120695 53.366855 
L 117.222183 54.013774 
L 117.323672 53.672691 
L 117.42516 53.895926 
L 117.526648 53.486127 
L 117.831113 53.90974 
L 118.03409 53.99818 
L 118.135579 53.756288 
L 118.237067 54.209666 
L 118.338555 53.898988 
L 118.440044 54.083415 
L 118.541532 53.690991 
L 118.744509 53.84252 
L 118.845997 53.948121 
L 119.048974 53.858685 
L 119.150462 54.064474 
L 119.556416 53.819378 
L 119.657904 53.896638 
L 119.759393 53.781567 
L 119.962369 53.796592 
L 120.063858 53.748171 
L 120.165346 54.089183 
L 120.469811 53.811189 
L 120.5713 53.951753 
L 120.774276 53.882468 
L 120.875765 53.984081 
L 120.977253 53.417626 
L 121.078741 54.295756 
L 121.281718 53.671623 
L 121.383207 54.150137 
L 121.484695 53.615796 
L 121.586183 54.313273 
L 121.687672 53.574923 
L 121.890648 54.231954 
L 121.992137 53.323062 
L 122.093625 54.303802 
L 122.296602 53.736777 
L 122.39809 54.262716 
L 122.499579 53.640505 
L 122.601067 54.383911 
L 122.702555 53.682019 
L 122.804044 53.771811 
L 122.905532 54.277028 
L 123.007021 53.49752 
L 123.108509 54.332784 
L 123.311486 53.603619 
L 123.412974 54.492644 
L 123.514462 53.688285 
L 123.615951 54.324595 
L 123.717439 53.647697 
L 123.818928 53.817598 
L 123.920416 54.35614 
L 124.021904 53.647412 
L 124.123393 54.376149 
L 124.326369 53.729728 
L 124.427858 54.386047 
L 124.529346 53.958446 
L 124.630835 54.379496 
L 124.732323 53.760561 
L 124.833811 53.888307 
L 124.9353 54.438883 
L 125.036788 53.56061 
L 125.138276 54.667459 
L 125.341253 53.913443 
L 125.442742 54.585214 
L 125.54423 53.925263 
L 125.645718 54.525044 
L 125.747207 53.892935 
L 125.848695 54.109264 
L 125.950183 54.658629 
L 126.051672 53.743257 
L 126.15316 54.781035 
L 126.356137 54.078716 
L 126.457625 54.731261 
L 126.559114 54.279164 
L 126.660602 54.543415 
L 126.863579 54.138245 
L 126.965067 54.936979 
L 127.066556 54.118164 
L 127.168044 54.933632 
L 127.371021 54.208598 
L 127.472509 55.042366 
L 127.573997 54.51835 
L 127.675486 54.781106 
L 127.878463 54.355428 
L 127.979951 55.026487 
L 128.081439 54.463165 
L 128.182928 55.074124 
L 128.385904 54.650867 
L 128.487393 55.190264 
L 128.588881 54.867908 
L 128.791858 54.883004 
L 128.893346 54.443938 
L 128.994835 55.222877 
L 129.2993 54.863422 
L 129.603765 55.349982 
L 129.705253 55.024208 
L 130.111207 55.564815 
L 130.314184 55.236691 
L 130.51716 55.550217 
L 130.923114 55.587815 
L 131.024602 55.962366 
L 131.126091 55.903691 
L 131.227579 55.629898 
L 131.633532 56.040125 
L 131.836509 55.850998 
L 131.937998 55.929183 
L 132.039486 56.548403 
L 132.242463 56.132837 
L 132.343951 56.249332 
L 132.445439 56.115035 
L 132.648416 56.546196 
L 132.851393 56.346245 
L 132.952881 56.41731 
L 133.05437 56.777834 
L 133.358835 56.432406 
L 133.6633 56.66732 
L 133.764788 56.360344 
L 133.866277 56.50575 
L 133.967765 56.412468 
L 134.069253 56.77762 
L 134.27223 56.630505 
L 134.576695 56.606509 
L 134.678184 56.744224 
L 134.779672 56.426211 
L 134.88116 56.670951 
L 134.982649 56.588137 
L 135.084137 56.936769 
L 135.490091 56.717521 
L 135.591579 56.732403 
L 135.693067 56.939617 
L 135.794556 56.488233 
L 136.099021 57.257487 
L 136.301998 56.96518 
L 136.403486 56.954428 
L 136.504974 56.805961 
L 136.707951 57.189057 
L 136.80944 56.891552 
L 137.012416 57.067363 
L 137.113905 57.455444 
L 137.316881 57.220744 
L 137.519858 57.226441 
L 137.621347 57.152598 
L 137.722835 57.617369 
L 137.824323 57.106242 
L 138.128788 57.801583 
L 138.331765 57.65753 
L 138.63623 57.829781 
L 138.737719 58.222561 
L 138.839207 57.655038 
L 139.143672 58.482896 
L 139.448137 58.116462 
L 139.549626 58.386766 
L 139.651114 58.24606 
L 139.752602 58.525905 
L 139.854091 58.270413 
L 139.955579 58.567989 
L 140.057068 58.477057 
L 140.158556 58.965184 
L 140.260044 58.667038 
L 140.361533 58.766444 
L 140.463021 58.647812 
L 140.767486 59.005131 
L 140.868975 58.748286 
L 141.17344 59.374199 
L 141.274928 59.156518 
L 141.376416 59.310398 
L 141.477905 59.163781 
L 141.78237 59.524803 
L 141.883858 59.182438 
L 141.985347 59.673128 
L 142.086835 59.628695 
L 142.188323 60.075522 
L 142.289812 59.729952 
L 142.594277 60.037568 
L 142.695765 59.793326 
L 142.797254 60.178915 
L 142.898742 59.973481 
L 143.203207 60.377868 
L 143.406184 60.117178 
L 143.507672 60.056794 
L 143.609161 60.145091 
L 143.710649 59.903342 
L 143.812137 60.215231 
L 143.913626 59.889172 
L 144.015114 60.20163 
L 144.116603 60.129497 
L 144.218091 60.299896 
L 144.319579 60.055299 
L 144.421068 60.098949 
L 144.522556 60.012717 
L 144.827021 60.201559 
L 144.92851 59.936453 
L 145.029998 60.225484 
L 145.131486 59.983023 
L 145.232975 60.385203 
L 145.435951 60.040559 
L 145.53744 60.295197 
L 145.638928 59.864534 
L 145.841905 60.222565 
L 145.943393 60.024893 
L 146.349347 60.250692 
L 146.450835 60.110698 
L 146.653812 60.252614 
L 146.856789 60.907224 
L 146.958277 60.666045 
L 147.262742 61.517757 
L 147.364231 61.369076 
L 147.465719 61.718277 
L 147.567207 61.428605 
L 147.871672 62.308587 
L 147.973161 62.051884 
L 148.176138 62.566429 
L 148.277626 62.915203 
L 148.379114 62.712832 
L 148.886556 63.337107 
L 148.988044 63.16329 
L 149.393998 63.824807 
L 149.495486 63.814268 
L 149.90144 64.284807 
L 150.002928 64.161405 
L 150.205905 64.429857 
L 150.307393 64.870773 
L 150.408882 64.685705 
L 150.51037 64.923111 
L 150.611858 64.846705 
L 151.1193 65.245752 
L 151.220789 65.300368 
L 151.322277 65.754956 
L 151.423765 65.644371 
L 151.626742 65.756451 
L 151.931207 66.000551 
L 152.235672 66.115622 
L 152.438649 66.669046 
L 152.641626 66.51538 
L 152.946091 67.169136 
L 153.047579 67.008848 
L 153.149068 67.081479 
L 153.453533 67.871811 
L 153.65651 67.856644 
L 153.960975 68.487542 
L 154.062463 68.254978 
L 154.26544 68.593356 
L 154.366928 69.153901 
L 154.468417 69.026297 
L 154.87437 69.656412 
L 154.975859 70.044564 
L 155.077347 69.919025 
L 155.381812 71.060979 
L 155.4833 71.035486 
L 155.584789 71.339329 
L 155.686277 71.134678 
L 155.889254 71.760663 
L 156.193719 72.171459 
L 156.396696 73.004372 
L 156.498184 72.97596 
L 156.599673 73.171995 
L 156.701161 73.072945 
L 156.802649 73.615118 
L 156.904138 73.502183 
L 157.005626 73.630286 
L 157.208603 74.382165 
L 157.513068 74.479648 
L 157.716045 75.190726 
L 157.817533 74.86602 
L 158.121998 76.251716 
L 158.223487 75.84498 
L 158.426463 76.060738 
L 158.527952 76.103961 
L 158.62944 76.627051 
L 158.730928 76.417487 
L 158.933905 77.36241 
L 159.035394 77.24328 
L 159.441347 77.663546 
L 159.542835 77.993094 
L 159.644324 77.870689 
L 159.847301 78.208426 
L 159.948789 78.812336 
L 160.050277 78.693989 
L 160.151766 78.849578 
L 160.253254 78.673695 
L 160.557719 79.475491 
L 160.659208 79.083067 
L 160.963673 80.208714 
L 161.065161 79.975296 
L 161.166649 80.597222 
L 161.268138 80.208429 
L 161.572603 81.656717 
L 161.674091 81.192516 
L 161.978556 82.797033 
L 162.181533 82.933467 
L 162.99344 85.514381 
L 163.094929 85.250984 
L 163.399394 86.13004 
L 163.500882 86.234074 
L 163.60237 86.794619 
L 163.703859 86.706678 
L 164.211301 88.024301 
L 164.414277 88.14927 
L 164.617254 88.979905 
L 164.718743 88.713304 
L 165.226184 89.956301 
L 165.327673 89.981651 
L 165.53065 90.461233 
L 165.632138 90.951069 
L 165.733626 90.738586 
L 166.13958 92.079351 
L 166.241068 91.915075 
L 166.647022 93.055391 
L 166.74851 92.663537 
L 167.052975 93.994261 
L 167.154464 93.660014 
L 167.458929 94.396868 
L 167.966371 95.458287 
L 168.169347 95.883893 
L 168.981254 97.729946 
L 169.082743 98.247126 
L 169.184231 98.150426 
L 169.387208 98.797204 
L 169.590185 99.015953 
L 169.691673 99.721049 
L 169.793161 99.331687 
L 170.097626 100.905585 
L 170.199115 100.776343 
L 170.50358 101.016455 
L 170.706557 101.916802 
L 170.808045 101.735935 
L 171.011022 102.265789 
L 171.11251 103.189207 
L 171.213999 102.985554 
L 171.315487 103.04195 
L 171.924417 104.281245 
L 172.127394 105.301719 
L 172.228882 104.981072 
L 172.330371 105.354697 
L 172.431859 105.299867 
L 172.634836 105.832926 
L 172.837813 106.260598 
L 172.939301 106.78383 
L 173.040789 106.5544 
L 173.142278 107.417505 
L 173.243766 107.253515 
L 173.64972 108.056023 
L 173.751208 108.445598 
L 173.852696 108.40793 
L 175.273534 112.279478 
L 175.375022 112.234404 
L 175.780975 113.74272 
L 175.882464 113.542058 
L 176.389906 115.293903 
L 176.998836 116.579411 
L 177.100324 116.556055 
L 177.201813 117.031294 
L 177.303301 116.595504 
L 177.404789 116.866804 
L 177.709255 116.566523 
L 177.810743 116.898136 
L 177.912231 116.7026 
L 178.115208 116.748742 
L 178.216696 117.129346 
L 178.62265 116.781783 
L 178.825627 117.080569 
L 178.927115 116.576919 
L 179.130092 116.943851 
L 179.23158 117.237866 
L 179.434557 116.985222 
L 179.536045 117.024315 
L 179.637534 116.840885 
L 179.84051 116.959018 
L 179.941999 116.73208 
L 180.246464 117.120588 
L 180.652417 116.614516 
L 180.753906 116.780572 
L 180.956883 116.503433 
L 181.058371 116.894077 
L 181.159859 116.826715 
L 181.362836 116.997968 
L 181.76879 117.132337 
L 181.870278 117.300671 
L 181.971766 117.10421 
L 182.37772 117.540712 
L 182.479208 117.452984 
L 182.580697 117.581798 
L 182.682185 117.48282 
L 182.885162 117.735464 
L 183.088138 117.660767 
L 183.189627 117.749207 
L 183.291115 118.108876 
L 183.494092 117.978851 
L 183.59558 117.886495 
L 183.798557 118.061736 
L 183.900045 118.190052 
L 184.001534 118.044006 
L 184.204511 118.282337 
L 184.407487 118.439136 
L 184.508976 118.376046 
L 184.711952 118.443764 
L 184.813441 118.358743 
L 185.016418 118.560117 
L 185.117906 118.418486 
L 185.422371 118.851142 
L 185.523859 118.692136 
L 185.929813 118.840176 
L 186.031301 118.680672 
L 186.335766 119.215297 
L 186.437255 119.222845 
L 186.640232 119.021043 
L 186.944697 119.184108 
L 187.147673 119.171433 
L 187.35065 119.521275 
L 187.452139 119.388046 
L 187.858092 119.421015 
L 188.162557 119.559941 
L 188.264046 119.510808 
L 188.467022 119.679783 
L 188.568511 119.363266 
L 188.669999 119.652297 
L 188.771487 119.592483 
L 188.872976 120.025851 
L 188.974464 119.717808 
L 189.075953 119.82234 
L 189.278929 119.620539 
L 189.481906 120.006412 
L 189.583394 119.609003 
L 189.786371 120.038669 
L 190.395301 119.888706 
L 190.902743 120.286827 
L 191.004232 120.016594 
L 191.10572 120.144412 
L 191.207208 119.927585 
L 191.308697 120.145978 
L 191.410185 120.043012 
L 191.511674 120.276217 
L 191.613162 120.023217 
L 191.816139 120.17731 
L 191.917627 120.504508 
L 192.120604 120.218895 
L 192.425069 120.292096 
L 192.526557 120.403749 
L 192.628046 120.162214 
L 192.932511 120.435223 
L 193.033999 120.508638 
L 193.338464 120.39556 
L 193.439953 120.532991 
L 193.642929 120.429099 
L 194.150371 120.683381 
L 194.353348 120.481864 
L 194.556325 120.690074 
L 194.657813 120.434796 
L 194.962278 121.037567 
L 195.063767 120.708802 
L 195.165255 120.840821 
L 195.266743 120.572012 
L 195.46972 120.743694 
L 195.672697 120.745687 
L 195.774185 120.968852 
L 195.875674 120.797384 
L 195.977162 121.077585 
L 196.281627 120.832062 
L 196.383116 120.802796 
L 196.687581 120.967641 
L 196.789069 120.986297 
L 196.890557 120.884613 
L 196.992046 121.356505 
L 197.093534 120.973694 
L 197.195023 121.069681 
L 197.296511 120.964437 
L 197.499488 121.042266 
L 197.702464 121.063557 
L 198.108418 121.25774 
L 198.311395 121.135263 
L 198.514371 121.236663 
L 198.61586 121.113331 
L 199.021813 121.545988 
L 199.123302 121.18874 
L 199.22479 121.477415 
L 199.326278 121.210886 
L 199.529255 121.316486 
L 199.630744 121.281879 
L 199.83372 121.468229 
L 200.239674 121.712115 
L 200.341162 121.509672 
L 200.645627 121.649452 
L 200.950092 121.876746 
L 201.051581 122.186 
L 201.153069 121.828254 
L 201.254558 121.96305 
L 201.356046 121.71831 
L 201.457534 122.053768 
L 201.559023 121.888211 
L 202.066465 122.443985 
L 202.269441 122.187923 
L 202.573906 122.463069 
L 202.776883 122.343867 
L 202.97986 122.648421 
L 203.182837 122.706954 
L 203.385813 122.486567 
L 203.487302 122.742558 
L 203.791767 122.551437 
L 204.096232 122.835768 
L 204.299209 122.61823 
L 204.502186 122.702895 
L 204.705162 122.603561 
L 204.806651 122.469477 
L 205.009627 122.81996 
L 205.314093 122.414291 
L 205.517069 122.552291 
L 205.618558 122.574295 
L 205.821534 122.391363 
L 205.923023 122.410802 
L 206.024511 122.679682 
L 206.328976 122.400335 
L 206.531953 122.349991 
L 206.633441 122.430669 
L 206.836418 122.153316 
L 207.039395 122.474747 
L 207.34386 122.150183 
L 207.546837 122.243678 
L 207.749814 121.991533 
L 207.851302 122.199743 
L 207.95279 122.10162 
L 208.054279 122.347784 
L 208.257255 122.095638 
L 208.561721 122.039384 
L 208.663209 122.128465 
L 208.764697 121.845273 
L 208.967674 121.966397 
L 209.069162 122.20957 
L 209.170651 121.889777 
L 209.272139 121.934923 
L 209.475116 121.858731 
L 209.678093 122.018734 
L 209.779581 121.577462 
L 210.084046 122.13701 
L 210.185535 121.737251 
L 210.287023 121.794929 
L 210.388511 121.617551 
L 210.591488 121.664762 
L 210.692976 121.70179 
L 210.794465 121.395811 
L 210.895953 121.711118 
L 210.997442 121.650592 
L 211.09893 121.812446 
L 211.301907 121.595619 
L 211.606372 121.422728 
L 211.809349 121.546059 
L 212.215302 121.32026 
L 212.31679 121.459186 
L 212.418279 121.223988 
L 212.722744 121.570839 
L 212.925721 121.363127 
L 213.128697 121.149505 
L 213.230186 121.217864 
L 213.331674 121.439034 
L 213.433163 120.947703 
L 213.737628 121.391254 
L 213.940604 121.11796 
L 214.042093 120.966858 
L 214.143581 121.07844 
L 214.24507 121.011647 
L 214.346558 121.201201 
L 214.448046 120.688152 
L 214.549535 121.123229 
L 214.651023 120.893087 
L 214.752511 121.211028 
L 215.056977 120.754517 
L 215.158465 121.060923 
L 215.259953 120.942576 
L 215.361442 121.075591 
L 215.46293 120.986013 
L 215.767395 121.335427 
L 215.868884 121.217508 
L 215.970372 121.322468 
L 216.07186 121.133697 
L 216.376325 121.346892 
L 216.477814 121.279102 
L 216.782279 121.684985 
L 216.985256 121.429991 
L 217.086744 121.614418 
L 217.188232 121.519214 
L 217.289721 121.653155 
L 217.492698 121.522347 
L 217.797163 121.790585 
L 218.000139 121.802548 
L 218.101628 121.929938 
L 218.203116 121.741381 
L 218.710558 122.06687 
L 218.812046 122.031409 
L 218.913535 121.871904 
L 219.218 122.320796 
L 219.420977 122.186 
L 219.82693 122.247951 
L 219.928419 122.208146 
L 220.131395 122.533137 
L 220.232884 122.575078 
L 220.43586 122.452174 
L 220.638837 122.535914 
L 220.740326 122.672205 
L 220.841814 122.356542 
L 221.146279 123.044264 
L 221.247767 122.660171 
L 221.349256 122.832991 
L 221.450744 122.653762 
L 221.755209 122.94087 
L 221.856698 122.780226 
L 222.059674 122.879988 
L 222.161163 123.234174 
L 222.567116 123.081505 
L 222.770093 123.256319 
L 222.871581 123.083428 
L 223.074558 123.344901 
L 223.176047 123.01984 
L 223.277535 123.252403 
L 223.379023 123.152499 
L 223.480512 123.609081 
L 223.582 123.228905 
L 223.784977 123.296409 
L 223.987954 123.201632 
L 224.089442 123.371248 
L 224.19093 123.075025 
L 224.495395 123.568635 
L 224.799861 123.085137 
L 224.901349 123.333366 
L 225.104326 123.237236 
L 225.205814 123.198214 
L 225.510279 123.474499 
L 225.713256 123.235883 
L 225.814744 123.208041 
L 225.916233 123.402152 
L 226.322186 123.30175 
L 226.72814 123.287793 
L 226.829628 123.523134 
L 227.032605 123.301679 
L 227.235582 123.235669 
L 227.438558 123.398022 
L 227.540047 122.901137 
L 227.641535 123.341626 
L 227.743023 123.192589 
L 227.844512 123.575115 
L 227.946 123.190595 
L 228.047489 123.322898 
L 228.250465 123.212954 
L 228.55493 123.198926 
L 228.859396 123.425936 
L 229.062372 123.1844 
L 229.366837 123.254468 
L 229.569814 123.105644 
L 229.772791 123.4191 
L 229.975768 123.302391 
L 230.178744 123.130496 
L 230.381721 123.344403 
L 230.48321 123.008874 
L 230.787675 123.465384 
L 230.990651 123.228833 
L 231.09214 123.138329 
L 231.193628 123.279818 
L 231.295117 123.149152 
L 231.396605 123.336926 
L 231.498093 123.006381 
L 231.802558 123.499493 
L 232.005535 123.264864 
L 232.107024 123.078016 
L 232.31 123.190951 
L 232.512977 123.168948 
L 232.614465 123.291994 
L 232.715954 123.231183 
L 232.817442 123.407778 
L 233.020419 123.220929 
L 233.324884 123.426719 
L 233.527861 123.287152 
L 233.730838 123.733623 
L 234.238279 123.737753 
L 234.339768 123.921468 
L 234.441256 123.662202 
L 234.745721 124.397917 
L 234.84721 124.01062 
L 234.948698 124.136301 
L 235.050186 123.980001 
L 235.354652 124.44292 
L 235.45614 124.002502 
L 235.760605 124.696419 
L 235.862093 124.487496 
L 235.963582 124.61866 
L 236.06507 124.417357 
L 236.268047 124.67292 
L 236.471024 124.622292 
L 236.775489 125.072821 
L 236.876977 124.932614 
L 237.282931 125.162044 
L 237.485907 125.080939 
L 237.587396 125.147589 
L 237.688884 125.598617 
L 237.891861 125.332942 
L 238.094838 125.401301 
L 238.297814 125.6318 
L 238.399303 125.426224 
L 238.703768 126.022444 
L 238.805256 125.750004 
L 238.906745 125.895267 
L 239.008233 125.665766 
L 239.21121 125.899825 
L 239.414187 125.824202 
L 239.617163 126.145917 
L 239.718652 126.196475 
L 239.921628 126.101413 
L 240.42907 126.253298 
L 240.530559 126.111239 
L 240.632047 126.539837 
L 240.835024 126.38019 
L 240.936512 126.358828 
L 241.038001 126.221184 
L 241.139489 126.292106 
L 241.240977 126.536419 
L 241.342466 126.18914 
L 241.545442 126.342948 
L 241.646931 126.745698 
L 241.849908 126.459657 
L 241.951396 126.315178 
L 242.052884 126.422487 
L 242.154373 126.355908 
L 242.255861 126.515911 
L 242.357349 126.379122 
L 242.560326 126.64558 
L 242.661815 126.495332 
L 242.864791 126.607484 
L 242.96628 126.388877 
L 243.169256 126.580781 
L 243.270745 126.589255 
L 243.372233 126.46806 
L 243.676698 126.735871 
L 243.778187 126.556856 
L 243.879675 126.689515 
L 243.981163 126.596376 
L 244.18414 126.743063 
L 244.285629 126.4044 
L 244.590094 126.963806 
L 244.79307 126.705466 
L 244.894559 126.592175 
L 245.199024 126.930481 
L 245.300512 126.520326 
L 245.402001 126.785004 
L 245.503489 126.659537 
L 245.604977 127.017141 
L 245.706466 126.771831 
L 245.807954 126.84254 
L 245.909443 126.706035 
L 246.112419 126.876791 
L 246.315396 126.70219 
L 246.619861 126.982819 
L 246.924326 126.743918 
L 247.127303 126.890106 
L 247.228791 126.778667 
L 247.634745 127.051178 
L 247.93921 126.810497 
L 248.040698 126.958323 
L 248.243675 126.899079 
L 248.54814 127.005178 
L 248.649629 127.088063 
L 248.852605 126.936249 
L 249.055582 126.95932 
L 249.157071 127.036865 
L 249.258559 126.835989 
L 249.563024 127.198506 
L 249.766001 127.049398 
L 249.968978 127.006032 
L 250.374931 127.011373 
L 250.577908 127.23475 
L 250.780885 127.012085 
L 251.389815 126.893382 
L 251.491303 127.298125 
L 251.795768 126.948853 
L 252.100233 127.177001 
L 252.201722 126.88441 
L 252.30321 127.045267 
L 252.404699 126.951202 
L 252.506187 127.354308 
L 252.709164 127.071045 
L 252.810652 126.955546 
L 253.013629 127.210184 
L 253.115117 126.852651 
L 253.419582 127.182627 
L 253.622559 127.166819 
L 253.724047 126.943298 
L 254.028513 127.188537 
L 254.130001 126.909689 
L 254.231489 127.055237 
L 254.332978 126.982534 
L 254.434466 127.359862 
L 254.637443 127.102732 
L 254.84042 127.024475 
L 254.941908 127.047831 
L 255.043396 127.203918 
L 255.144885 126.895589 
L 255.44935 127.310444 
L 255.753815 126.896586 
L 255.956792 127.124877 
L 256.159768 127.002472 
L 256.464234 127.221933 
L 256.66721 126.946859 
L 256.870187 127.065775 
L 256.971675 127.115122 
L 257.073164 126.935252 
L 257.174652 127.007955 
L 257.276141 126.924001 
L 257.377629 127.517586 
L 257.580606 127.038859 
L 258.189536 126.972137 
L 258.392513 127.153788 
L 258.595489 127.074819 
L 258.696978 127.003967 
L 258.899955 127.07902 
L 259.102931 126.918305 
L 259.305908 127.218373 
L 259.610373 127.031026 
L 259.711862 127.052032 
L 259.81335 126.914175 
L 259.914838 127.172302 
L 260.117815 126.920654 
L 260.219303 127.008738 
L 260.320792 127.318419 
L 260.42228 127.023478 
L 260.523769 127.139048 
L 260.625257 126.884837 
L 260.828234 127.062144 
L 261.03121 126.970428 
L 261.234187 127.083933 
L 261.335676 127.182128 
L 261.741629 126.935822 
L 261.843117 127.09497 
L 261.944606 126.825521 
L 262.147583 126.989654 
L 262.249071 127.176076 
L 262.553536 126.889466 
L 262.756513 127.088206 
L 262.858001 126.818899 
L 263.060978 127.016856 
L 263.263955 127.05958 
L 263.771397 127.073608 
L 263.872885 126.803305 
L 264.17735 127.307026 
L 264.278838 126.954763 
L 264.380327 127.037363 
L 264.481815 126.886475 
L 264.78628 127.011871 
L 264.887769 126.826305 
L 264.989257 127.035085 
L 265.090745 126.950704 
L 265.192234 127.159342 
L 265.395211 126.891175 
L 265.496699 126.888326 
L 265.699676 127.098602 
L 265.801164 126.827444 
L 266.308606 127.072825 
L 266.410094 126.83606 
L 266.714559 127.125233 
L 266.816048 126.65911 
L 267.120513 127.201924 
L 267.222001 126.926209 
L 267.32349 127.126658 
L 267.424978 126.92101 
L 267.627955 127.030456 
L 267.830932 126.870667 
L 267.93242 127.400521 
L 268.033908 126.91802 
L 268.135397 127.060862 
L 268.338373 126.895376 
L 268.54135 127.069336 
L 268.642839 126.985097 
L 268.744327 127.344766 
L 268.947304 127.009949 
L 269.251769 127.218942 
L 269.454746 126.959676 
L 269.657722 127.287586 
L 269.759211 127.09376 
L 269.860699 127.196512 
L 269.962187 126.999624 
L 270.165164 127.133422 
L 270.266653 126.976624 
L 270.469629 127.064992 
L 270.672606 127.346404 
L 270.875583 127.096323 
L 270.977071 127.017069 
L 271.180048 127.221079 
L 271.281536 127.007385 
L 271.484513 127.190388 
L 271.586001 127.373178 
L 271.788978 127.196868 
L 271.890467 127.007741 
L 272.093443 127.186828 
L 272.194932 126.941162 
L 272.29642 127.547138 
L 272.397908 127.120819 
L 272.499397 127.272277 
L 272.600885 127.06072 
L 272.803862 127.197509 
L 273.006839 127.072682 
L 273.209815 127.321196 
L 273.412792 127.238667 
L 273.615769 127.213531 
L 273.717257 127.140187 
L 273.818746 127.323831 
L 273.920234 127.018921 
L 274.224699 127.448729 
L 274.427676 127.280466 
L 274.529164 127.105936 
L 274.732141 127.237243 
L 275.036606 127.19758 
L 275.239583 127.46589 
L 275.44256 127.235463 
L 275.544048 127.171589 
L 275.747025 127.339425 
L 275.848513 127.059011 
L 276.152978 127.566008 
L 276.254467 127.198506 
L 276.355955 127.31315 
L 276.457443 127.133921 
L 276.66042 127.301329 
L 276.964885 127.17871 
L 277.066374 127.45172 
L 277.26935 127.212605 
L 277.573816 127.425373 
L 277.675304 127.221363 
L 277.878281 127.261026 
L 277.979769 127.243295 
L 278.081257 127.413125 
L 278.182746 127.08785 
L 278.487211 127.561664 
L 278.690188 127.313007 
L 278.791676 127.22763 
L 278.994653 127.234893 
L 279.299118 127.207407 
L 279.502095 127.465819 
L 279.705071 127.225992 
L 279.80656 127.20463 
L 280.009537 127.419961 
L 280.111025 127.097961 
L 280.41549 127.521076 
L 280.618467 127.280038 
L 281.125909 127.199788 
L 281.328885 127.50363 
L 281.531862 127.282388 
L 281.633351 127.244007 
L 281.836327 127.316568 
L 282.039304 127.244292 
L 282.343769 127.493305 
L 282.546746 127.257893 
L 282.648234 127.343199 
L 282.749723 127.259958 
L 282.851211 127.402515 
L 282.952699 127.053741 
L 283.054188 127.289153 
L 283.155676 127.232401 
L 283.257165 127.53254 
L 283.358653 127.282246 
L 283.460141 127.418252 
L 283.56163 127.168243 
L 283.764606 127.328531 
L 283.967583 127.168243 
L 284.17056 127.453286 
L 284.272048 127.337645 
L 284.373537 127.352528 
L 284.475025 127.162404 
L 284.77949 127.429004 
L 284.880979 127.00589 
L 285.185444 127.453642 
L 285.489909 127.231119 
L 285.591397 127.215952 
L 285.692886 127.355305 
L 285.895862 127.151794 
L 286.098839 127.556252 
L 286.200327 127.191528 
L 286.301816 127.354593 
L 286.403304 127.056233 
L 286.606281 127.27484 
L 286.707769 127.124308 
L 286.910746 127.318348 
L 287.519676 127.1728 
L 287.621165 127.423806 
L 287.722653 126.972066 
L 287.824141 127.226419 
L 287.92563 127.12502 
L 288.027118 127.586658 
L 288.128607 127.214955 
L 288.230095 127.33558 
L 288.331583 127.095041 
L 288.53456 127.301757 
L 288.737537 127.073394 
L 288.940514 127.453215 
L 289.14349 127.197651 
L 289.447955 127.147949 
L 289.549444 127.259175 
L 289.650932 127.061645 
L 289.955397 127.336292 
L 290.158374 127.140543 
L 290.361351 127.227203 
L 290.462839 127.2188 
L 290.564328 127.053385 
L 290.868793 127.424732 
L 291.071769 127.222788 
L 291.274746 127.123881 
L 291.477723 127.16867 
L 291.6807 127.153716 
L 291.782188 127.457416 
L 291.985165 127.255828 
L 292.086653 127.173726 
L 292.391118 127.310159 
L 292.492607 127.132781 
L 292.797072 127.486398 
L 292.89856 127.290007 
L 293.000049 127.364562 
L 293.101537 127.249419 
L 293.304514 127.368407 
L 293.406002 127.193877 
L 293.710467 127.57733 
L 293.811956 127.352528 
L 293.913444 127.426512 
L 294.014932 127.22649 
L 294.116421 127.470732 
L 294.420886 127.300261 
L 294.522374 127.328246 
L 294.623862 127.665484 
L 294.725351 127.59919 
L 294.928328 127.416329 
L 295.029816 127.357797 
L 295.232793 127.504912 
L 295.334281 127.193735 
L 295.537258 127.570351 
L 295.638746 127.679299 
L 295.841723 127.43762 
L 296.0447 127.528054 
L 296.146188 127.505695 
L 296.247676 127.351103 
L 296.349165 127.522785 
L 296.450653 127.466388 
L 296.552142 127.867429 
L 296.755118 127.552549 
L 296.958095 127.499429 
L 297.059583 127.603178 
L 297.161072 127.431639 
L 297.465537 127.805905 
L 297.770002 127.545215 
L 298.277444 127.578255 
L 298.480421 127.752215 
L 298.581909 127.589435 
L 298.683397 127.691973 
L 298.886374 127.591215 
L 298.987863 127.73071 
L 299.089351 127.391407 
L 299.190839 127.745664 
L 299.292328 127.660073 
L 299.393816 127.911292 
L 299.596793 127.6558 
L 299.79977 127.688698 
L 299.901258 127.86985 
L 300.002746 127.508828 
L 300.205723 127.780413 
L 300.307211 128.04445 
L 300.4087 127.698738 
L 300.510188 127.761757 
L 300.611677 127.660785 
L 300.814653 127.73484 
L 300.916142 127.719744 
L 301.01763 127.553546 
L 301.220607 128.024227 
L 301.423584 127.763751 
L 301.62656 127.742531 
L 302.336979 127.955227 
L 302.539956 127.754636 
L 302.742932 127.911648 
L 302.844421 127.602537 
L 303.148886 128.044878 
L 303.351863 127.827339 
L 303.656328 127.969967 
L 303.757816 127.66641 
L 303.960793 127.849983 
L 304.062281 128.261562 
L 304.16377 127.902178 
L 304.265258 127.982429 
L 304.366746 127.741676 
L 304.569723 127.942196 
L 304.7727 127.855964 
L 304.874188 127.91528 
L 304.975677 128.199683 
L 305.178653 127.921119 
L 305.483119 127.904884 
L 305.787584 127.897834 
L 305.889072 128.17006 
L 306.396514 127.963844 
L 306.498002 128.048296 
L 306.599491 127.853187 
L 306.700979 128.074286 
L 307.005444 127.903104 
L 307.309909 128.220048 
L 307.512886 127.992967 
L 307.715863 127.990261 
L 307.817351 128.238419 
L 307.91884 127.844856 
L 308.223305 128.355484 
L 308.426281 128.015113 
L 308.730747 128.187079 
L 308.832235 127.882809 
L 309.1367 128.376704 
L 309.238188 128.008491 
L 309.339677 128.212144 
L 309.441165 128.032345 
L 309.644142 128.148342 
L 309.74563 127.975308 
L 310.050095 128.41359 
L 310.253072 128.122422 
L 310.557537 128.137874 
L 310.862002 128.099707 
L 310.963491 128.476323 
L 311.166468 128.235144 
L 311.673909 128.143998 
L 311.775398 128.221899 
L 311.876886 128.441503 
L 312.181351 128.193131 
L 312.587305 128.222896 
L 312.688793 128.223751 
L 312.89177 128.386104 
L 313.297723 128.294317 
L 313.399212 128.394862 
L 313.5007 128.111528 
L 313.703677 128.389094 
L 313.805165 128.404475 
L 313.906654 128.298376 
L 314.008142 128.407395 
L 314.10963 128.256364 
L 314.312607 128.413519 
L 314.414096 128.163794 
L 314.617072 128.422491 
L 314.718561 128.591181 
L 314.921537 128.273026 
L 315.124514 128.401057 
L 315.226003 128.454961 
L 315.327491 128.189714 
L 315.631956 128.624079 
L 315.834933 128.381475 
L 316.139398 128.476537 
L 316.240886 128.301296 
L 316.545351 128.746485 
L 316.748328 128.515559 
L 316.951305 128.356339 
L 317.052793 128.673568 
L 317.154282 128.333766 
L 317.25577 128.379837 
L 317.458747 128.779596 
L 317.560235 128.505162 
L 317.661724 128.590896 
L 317.763212 128.300797 
L 317.966189 128.541336 
L 318.270654 128.517624 
L 318.372142 128.816125 
L 318.473631 128.571101 
L 318.575119 128.620732 
L 318.778096 128.478673 
L 318.879584 128.609268 
L 319.082561 128.5298 
L 319.184049 128.495834 
L 319.285538 128.918664 
L 319.387026 128.570958 
L 319.488514 128.674494 
L 319.590003 128.481023 
L 319.894468 128.621231 
L 320.097445 128.49263 
L 320.198933 128.945581 
L 320.300421 128.615392 
L 320.40191 128.65655 
L 320.604886 128.515701 
L 320.807863 128.669652 
L 320.909352 128.481166 
L 321.112328 128.906203 
L 321.315305 128.648289 
L 322.025724 128.743565 
L 322.127212 128.496262 
L 322.431677 128.932407 
L 322.634654 128.645797 
L 322.939119 128.762008 
L 323.040607 128.608556 
L 323.345073 129.041924 
L 323.548049 128.690729 
L 323.751026 128.82759 
L 324.055491 128.746485 
L 324.15698 128.817122 
L 324.258468 129.058729 
L 324.461445 128.750116 
L 324.562933 128.738865 
L 324.76591 128.864475 
L 325.273352 128.876153 
L 325.37484 128.969577 
L 325.476328 128.5758 
L 325.679305 128.88833 
L 325.780794 129.040714 
L 326.085259 128.824172 
L 326.186747 128.861485 
L 326.288235 129.023054 
L 326.389724 128.68254 
L 326.491212 128.930769 
L 326.592701 128.865401 
L 326.694189 129.120039 
L 326.897166 128.803664 
L 326.998654 128.991794 
L 327.100142 128.905847 
L 327.201631 128.991794 
L 327.303119 128.700413 
L 327.404608 129.020491 
L 327.506096 128.877293 
L 327.607584 129.185692 
L 327.810561 128.732314 
L 327.912049 129.240664 
L 328.013538 128.950565 
L 328.115026 129.061435 
L 328.216515 128.746271 
L 328.419491 129.044915 
L 328.52098 128.842686 
L 328.723956 128.991652 
L 328.825445 129.226708 
L 328.926933 129.021772 
L 329.028422 129.107862 
L 329.12991 128.881992 
L 329.231398 128.955621 
L 329.332887 129.188968 
L 329.434375 128.838983 
L 329.73884 129.308596 
L 329.941817 129.016218 
L 330.043305 129.14254 
L 330.144794 129.010878 
L 330.246282 129.14311 
L 330.449259 128.918023 
L 330.652236 129.317355 
L 330.753724 129.051039 
L 330.855212 129.167748 
L 331.058189 129.05232 
L 331.159677 129.098392 
L 331.362654 129.047194 
L 331.464143 129.069197 
L 331.565631 129.400382 
L 331.768608 129.135348 
L 331.870096 129.065565 
L 332.073073 129.170169 
L 332.174561 128.96559 
L 332.27605 129.165042 
L 332.377538 129.09768 
L 332.479026 129.429791 
L 332.783491 129.086999 
L 332.986468 129.219444 
L 333.087957 128.991224 
L 333.392422 129.484478 
L 333.595398 129.164116 
L 333.696887 129.112633 
L 333.899864 129.290011 
L 334.001352 129.01572 
L 334.305817 129.473085 
L 334.508794 129.153008 
L 334.813259 129.335014 
L 334.914747 129.046197 
L 335.219212 129.520225 
L 335.422189 129.260033 
L 335.523678 129.257184 
L 335.726654 129.335156 
L 335.828143 129.094903 
L 335.929631 129.34598 
L 336.031119 129.276268 
L 336.132608 129.529197 
L 336.335585 129.075605 
L 336.538561 129.475008 
L 336.741538 129.343559 
L 336.944515 129.263308 
L 337.046003 129.493237 
L 337.147492 129.228416 
L 337.451957 129.492739 
L 337.654933 129.344698 
L 337.85791 129.31593 
L 337.959399 129.465324 
L 338.060887 129.302615 
L 338.365352 129.578686 
L 338.568329 129.330457 
L 338.771306 129.414695 
L 338.872794 129.329602 
L 339.177259 129.563163 
L 339.278747 129.465252 
L 339.380236 129.58659 
L 339.481724 129.277051 
L 339.684701 129.472444 
L 339.887678 129.378807 
L 340.090654 129.548067 
L 340.293631 129.556968 
L 340.39512 129.349968 
L 340.699585 129.477144 
L 340.902561 129.423311 
L 341.00405 129.694184 
L 341.410003 129.392621 
L 341.61298 129.541088 
L 341.714468 129.339429 
L 341.815957 129.458488 
L 341.917445 129.85668 
L 342.120422 129.473156 
L 342.627864 129.408073 
L 342.729352 129.533113 
L 342.830841 129.870352 
L 342.932329 129.519156 
L 343.033817 129.610373 
L 343.135306 129.374819 
L 343.338282 129.594352 
L 343.541259 129.466249 
L 343.744236 129.749513 
L 343.845724 129.504844 
L 343.947213 129.707358 
L 344.150189 129.447095 
L 344.251678 129.750937 
L 344.353166 129.386995 
L 344.657631 129.90802 
L 344.75912 129.508831 
L 344.860608 129.540519 
L 345.165073 129.676169 
L 345.266562 129.442324 
L 345.469538 129.569856 
L 345.571027 129.856537 
L 345.774003 129.550132 
L 346.078469 129.667054 
L 346.179957 129.439475 
L 346.484422 129.862163 
L 346.788887 129.530692 
L 346.991864 129.768383 
L 347.093352 129.392692 
L 347.397817 129.769735 
L 347.600794 129.619701 
L 347.702283 129.654522 
L 347.803771 129.550773 
L 348.311213 129.783763 
L 348.615678 129.661714 
L 348.818655 129.583813 
L 349.12312 129.83603 
L 349.427585 129.507621 
L 349.529073 129.725729 
L 349.630562 129.600475 
L 349.73205 129.772157 
L 349.935027 129.571067 
L 350.036515 130.02651 
L 350.138004 129.694469 
L 350.239492 129.798717 
L 350.34098 129.561098 
L 350.543957 129.849773 
L 350.645445 129.694256 
L 350.746934 129.559104 
L 350.949911 129.986633 
L 351.051399 129.745383 
L 351.152887 129.838166 
L 351.254376 129.518587 
L 351.355864 129.827627 
L 351.558841 129.568859 
L 351.660329 129.808686 
L 351.761818 129.743816 
L 351.863306 130.023305 
L 352.066283 129.658438 
L 352.269259 129.758057 
L 352.370748 129.767314 
L 352.472236 129.588156 
L 352.776701 129.904531 
L 353.081166 129.711061 
L 353.284143 129.887584 
L 353.385632 129.589509 
L 353.690097 130.00351 
L 353.791585 129.737977 
L 353.893073 129.780915 
L 354.09605 129.678305 
L 354.299027 129.813386 
L 354.400515 129.752076 
L 354.603492 129.955017 
L 354.806469 129.7028 
L 354.907957 129.808045 
L 355.110934 129.659791 
L 355.212422 129.849986 
L 355.313911 129.727581 
L 355.415399 130.002085 
L 355.516887 129.806692 
L 355.618376 129.935791 
L 355.719864 129.668763 
L 355.922841 129.800355 
L 356.227306 129.751578 
L 356.328794 130.073222 
L 356.430283 129.755708 
L 356.531771 129.990336 
L 356.734748 129.782766 
L 356.836236 129.944265 
L 356.937725 129.632875 
L 357.24219 130.155609 
L 357.445167 129.786754 
L 357.546655 129.928884 
L 357.648143 129.799785 
L 357.749632 129.937002 
L 357.85112 129.752147 
L 358.155585 130.020813 
L 358.358562 129.803701 
L 358.663027 129.999379 
L 358.764515 129.733562 
L 358.967492 129.95694 
L 359.068981 129.652172 
L 359.170469 129.981435 
L 359.271957 129.870565 
L 359.373446 130.127268 
L 359.576422 129.912222 
L 359.677911 129.930308 
L 359.779399 129.8089 
L 359.880888 130.008779 
L 359.982376 129.729503 
L 360.083864 130.015615 
L 360.185353 129.911723 
L 360.286841 130.113169 
L 360.489818 129.876119 
L 360.794283 129.961426 
L 360.895771 129.794017 
L 361.098748 130.248819 
L 361.301725 129.993042 
L 361.504702 129.910584 
L 361.60619 130.016683 
L 361.707678 129.889364 
L 361.809167 129.992544 
L 361.910655 129.893423 
L 362.012143 130.25181 
L 362.113632 130.010915 
L 362.21512 130.111318 
L 362.316609 129.927745 
L 362.519585 130.048655 
L 362.722562 129.978729 
L 362.82405 129.992686 
L 362.925539 130.263986 
L 363.230004 129.973674 
L 363.635957 130.097005 
L 363.737446 130.022166 
L 363.838934 130.130045 
L 363.940423 130.064107 
L 364.041911 130.2412 
L 364.143399 129.951457 
L 364.549353 130.28777 
L 364.650841 130.041819 
L 364.75233 130.206736 
L 364.853818 130.042033 
L 365.056795 130.120931 
L 365.158283 130.170705 
L 365.259771 130.565336 
L 365.36126 130.155324 
L 365.462748 130.243051 
L 365.564237 130.130472 
L 365.767213 130.292612 
L 365.868702 129.98941 
L 365.97019 130.562346 
L 366.071678 130.151336 
L 366.173167 130.302082 
L 366.274655 130.180816 
L 366.477632 130.212859 
L 366.57912 130.583067 
L 366.782097 130.220763 
L 366.985074 130.362822 
L 367.086562 130.536141 
L 367.188051 130.080058 
L 367.391027 130.414448 
L 367.492516 130.519123 
L 367.695492 130.359262 
L 368.507399 130.625222 
L 368.710376 130.280079 
L 368.811865 130.650287 
L 368.913353 130.505593 
L 369.014841 130.160807 
L 369.11633 130.870175 
L 369.319306 130.31141 
L 369.420795 130.831296 
L 369.522283 130.383116 
L 369.623772 130.680123 
L 369.826748 130.413807 
L 369.928237 130.812141 
L 370.029725 130.293751 
L 370.131213 130.70533 
L 370.232702 130.677702 
L 370.33419 130.329355 
L 370.435679 131.064856 
L 370.537167 130.396503 
L 370.638655 130.783801 
L 370.740144 130.694222 
L 370.841632 130.307423 
L 370.94312 131.093268 
L 371.146097 130.522683 
L 371.247586 130.974993 
L 371.349074 130.505593 
L 371.450562 130.970863 
L 371.653539 130.351215 
L 371.755027 131.070909 
L 371.856516 130.64281 
L 372.059493 130.858782 
L 372.160981 130.642668 
L 372.262469 131.066993 
L 372.363958 130.634194 
L 372.465446 130.733101 
L 372.566934 131.031745 
L 372.668423 130.44172 
L 372.769911 131.08807 
L 372.972888 130.56911 
L 373.074376 131.122178 
L 373.175865 130.686033 
L 373.277353 130.992367 
L 373.48033 130.458098 
L 373.581818 131.169033 
L 373.581818 131.169033 
" style="fill:none;stroke:#081d58;stroke-dasharray:5.55,2.4;stroke-dashoffset:0;stroke-width:1.5;"/>
    <defs>
     <path d="M -0 4.242641 
L 4.242641 0 
L 0 -4.242641 
L -4.242641 -0 
z
" id="mf7ef5131f1" style="stroke:#081d58;stroke-linejoin:miter;"/>
    </defs>
    <g clip-path="url(#pd0b76c9494)">
     <use style="fill:#081d58;stroke:#081d58;stroke-linejoin:miter;" x="69.218182" xlink:href="#mf7ef5131f1" y="46.225318"/>
     <use style="fill:#081d58;stroke:#081d58;stroke-linejoin:miter;" x="77.337252" xlink:href="#mf7ef5131f1" y="45.812386"/>
     <use style="fill:#081d58;stroke:#081d58;stroke-linejoin:miter;" x="85.456322" xlink:href="#mf7ef5131f1" y="46.207302"/>
     <use style="fill:#081d58;stroke:#081d58;stroke-linejoin:miter;" x="93.575392" xlink:href="#mf7ef5131f1" y="47.397464"/>
     <use style="fill:#081d58;stroke:#081d58;stroke-linejoin:miter;" x="101.694462" xlink:href="#mf7ef5131f1" y="48.770628"/>
     <use style="fill:#081d58;stroke:#081d58;stroke-linejoin:miter;" x="109.813532" xlink:href="#mf7ef5131f1" y="51.518737"/>
     <use style="fill:#081d58;stroke:#081d58;stroke-linejoin:miter;" x="117.932602" xlink:href="#mf7ef5131f1" y="53.918143"/>
     <use style="fill:#081d58;stroke:#081d58;stroke-linejoin:miter;" x="126.051672" xlink:href="#mf7ef5131f1" y="53.743257"/>
     <use style="fill:#081d58;stroke:#081d58;stroke-linejoin:miter;" x="134.170742" xlink:href="#mf7ef5131f1" y="56.656354"/>
     <use style="fill:#081d58;stroke:#081d58;stroke-linejoin:miter;" x="142.289812" xlink:href="#mf7ef5131f1" y="59.729952"/>
     <use style="fill:#081d58;stroke:#081d58;stroke-linejoin:miter;" x="150.408882" xlink:href="#mf7ef5131f1" y="64.685705"/>
     <use style="fill:#081d58;stroke:#081d58;stroke-linejoin:miter;" x="158.527952" xlink:href="#mf7ef5131f1" y="76.103961"/>
     <use style="fill:#081d58;stroke:#081d58;stroke-linejoin:miter;" x="166.647022" xlink:href="#mf7ef5131f1" y="93.055391"/>
     <use style="fill:#081d58;stroke:#081d58;stroke-linejoin:miter;" x="174.766092" xlink:href="#mf7ef5131f1" y="111.101422"/>
     <use style="fill:#081d58;stroke:#081d58;stroke-linejoin:miter;" x="182.885162" xlink:href="#mf7ef5131f1" y="117.735464"/>
     <use style="fill:#081d58;stroke:#081d58;stroke-linejoin:miter;" x="191.004232" xlink:href="#mf7ef5131f1" y="120.016594"/>
     <use style="fill:#081d58;stroke:#081d58;stroke-linejoin:miter;" x="199.123302" xlink:href="#mf7ef5131f1" y="121.18874"/>
     <use style="fill:#081d58;stroke:#081d58;stroke-linejoin:miter;" x="207.242372" xlink:href="#mf7ef5131f1" y="122.273372"/>
     <use style="fill:#081d58;stroke:#081d58;stroke-linejoin:miter;" x="215.361442" xlink:href="#mf7ef5131f1" y="121.075591"/>
     <use style="fill:#081d58;stroke:#081d58;stroke-linejoin:miter;" x="223.480512" xlink:href="#mf7ef5131f1" y="123.609081"/>
     <use style="fill:#081d58;stroke:#081d58;stroke-linejoin:miter;" x="231.599582" xlink:href="#mf7ef5131f1" y="123.189313"/>
     <use style="fill:#081d58;stroke:#081d58;stroke-linejoin:miter;" x="239.718652" xlink:href="#mf7ef5131f1" y="126.196475"/>
     <use style="fill:#081d58;stroke:#081d58;stroke-linejoin:miter;" x="247.837722" xlink:href="#mf7ef5131f1" y="126.934469"/>
     <use style="fill:#081d58;stroke:#081d58;stroke-linejoin:miter;" x="255.956792" xlink:href="#mf7ef5131f1" y="127.124877"/>
     <use style="fill:#081d58;stroke:#081d58;stroke-linejoin:miter;" x="264.075862" xlink:href="#mf7ef5131f1" y="126.944153"/>
     <use style="fill:#081d58;stroke:#081d58;stroke-linejoin:miter;" x="272.194932" xlink:href="#mf7ef5131f1" y="126.941162"/>
     <use style="fill:#081d58;stroke:#081d58;stroke-linejoin:miter;" x="280.314002" xlink:href="#mf7ef5131f1" y="127.367125"/>
     <use style="fill:#081d58;stroke:#081d58;stroke-linejoin:miter;" x="288.433072" xlink:href="#mf7ef5131f1" y="127.213744"/>
     <use style="fill:#081d58;stroke:#081d58;stroke-linejoin:miter;" x="296.552142" xlink:href="#mf7ef5131f1" y="127.867429"/>
     <use style="fill:#081d58;stroke:#081d58;stroke-linejoin:miter;" x="304.671212" xlink:href="#mf7ef5131f1" y="127.837379"/>
     <use style="fill:#081d58;stroke:#081d58;stroke-linejoin:miter;" x="312.790282" xlink:href="#mf7ef5131f1" y="128.405828"/>
     <use style="fill:#081d58;stroke:#081d58;stroke-linejoin:miter;" x="320.909352" xlink:href="#mf7ef5131f1" y="128.481166"/>
     <use style="fill:#081d58;stroke:#081d58;stroke-linejoin:miter;" x="329.028422" xlink:href="#mf7ef5131f1" y="129.107862"/>
     <use style="fill:#081d58;stroke:#081d58;stroke-linejoin:miter;" x="337.147492" xlink:href="#mf7ef5131f1" y="129.228416"/>
     <use style="fill:#081d58;stroke:#081d58;stroke-linejoin:miter;" x="345.266562" xlink:href="#mf7ef5131f1" y="129.442324"/>
     <use style="fill:#081d58;stroke:#081d58;stroke-linejoin:miter;" x="353.385632" xlink:href="#mf7ef5131f1" y="129.589509"/>
     <use style="fill:#081d58;stroke:#081d58;stroke-linejoin:miter;" x="361.504702" xlink:href="#mf7ef5131f1" y="129.910584"/>
     <use style="fill:#081d58;stroke:#081d58;stroke-linejoin:miter;" x="369.623772" xlink:href="#mf7ef5131f1" y="130.680123"/>
    </g>
   </g>
   <g id="patch_3">
    <path d="M 54 252 
L 54 34.56 
" style="fill:none;stroke:#000000;stroke-linecap:square;stroke-linejoin:miter;stroke-width:0.8;"/>
   </g>
   <g id="patch_4">
    <path d="M 388.8 252 
L 388.8 34.56 
" style="fill:none;stroke:#000000;stroke-linecap:square;stroke-linejoin:miter;stroke-width:0.8;"/>
   </g>
   <g id="patch_5">
    <path d="M 54 252 
L 388.8 252 
" style="fill:none;stroke:#000000;stroke-linecap:square;stroke-linejoin:miter;stroke-width:0.8;"/>
   </g>
   <g id="patch_6">
    <path d="M 54 34.56 
L 388.8 34.56 
" style="fill:none;stroke:#000000;stroke-linecap:square;stroke-linejoin:miter;stroke-width:0.8;"/>
   </g>
   <g id="legend_1">
    <g id="patch_7">
     <path d="M 280.085938 71.91625 
L 381.8 71.91625 
Q 383.8 71.91625 383.8 69.91625 
L 383.8 41.56 
Q 383.8 39.56 381.8 39.56 
L 280.085938 39.56 
Q 278.085938 39.56 278.085938 41.56 
L 278.085938 69.91625 
Q 278.085938 71.91625 280.085938 71.91625 
z
" style="fill:#ffffff;opacity:0.8;stroke:#cccccc;stroke-linejoin:miter;"/>
    </g>
    <g id="line2d_14">
     <path d="M 282.085938 47.658437 
L 302.085938 47.658437 
" style="fill:none;stroke:#40b5c4;stroke-dasharray:5.55,2.4;stroke-dashoffset:0;stroke-width:1.5;"/>
    </g>
    <g id="line2d_15">
     <g>
      <use style="fill:#40b5c4;stroke:#40b5c4;" x="292.085938" xlink:href="#mbb358c3e80" y="47.658437"/>
     </g>
    </g>
    <g id="text_14">
     <text style="font-family:DejaVu Sans;font-size:10px;font-style:normal;font-weight:normal;text-anchor:start;" transform="rotate(-0, 310.085938, 51.158437)" x="310.085938" y="51.158437">original</text>
    </g>
    <g id="line2d_16">
     <path d="M 282.085938 62.336562 
L 302.085938 62.336562 
" style="fill:none;stroke:#081d58;stroke-dasharray:5.55,2.4;stroke-dashoffset:0;stroke-width:1.5;"/>
    </g>
    <g id="line2d_17">
     <g>
      <use style="fill:#081d58;stroke:#081d58;stroke-linejoin:miter;" x="292.085938" xlink:href="#mf7ef5131f1" y="62.336562"/>
     </g>
    </g>
    <g id="text_15">
     <text style="font-family:DejaVu Sans;font-size:10px;font-style:normal;font-weight:normal;text-anchor:start;" transform="rotate(-0, 310.085938, 65.836562)" x="310.085938" y="65.836562">reconstructed</text>
    </g>
   </g>
  </g>
  <g id="text_16">
   <text style="font-family:DejaVu Sans;font-size:12px;font-style:normal;font-weight:normal;text-anchor:middle;" transform="rotate(-0, 216, 14.878125)" x="216" y="14.878125">Reconstruction of the weight curve</text>
  </g>
 </g>
 <defs>
  <clipPath id="pd0b76c9494">
   <rect height="217.44" width="334.8" x="54" y="34.56"/>
  </clipPath>
 </defs>
</svg>
