<?xml version="1.0" encoding="utf-8" standalone="no"?>
<!DOCTYPE svg PUBLIC "-//W3C//DTD SVG 1.1//EN"
  "http://www.w3.org/Graphics/SVG/1.1/DTD/svg11.dtd">
<!-- Created with matplotlib (https://matplotlib.org/) -->
<svg height="288pt" version="1.1" viewBox="0 0 432 288" width="432pt" xmlns="http://www.w3.org/2000/svg" xmlns:xlink="http://www.w3.org/1999/xlink">
 <defs>
  <style type="text/css">
*{stroke-linecap:butt;stroke-linejoin:round;}
  </style>
 </defs>
 <g id="figure_1">
  <g id="patch_1">
   <path d="M 0 288 
L 432 288 
L 432 0 
L 0 0 
z
" style="fill:#ffffff;"/>
  </g>
  <g id="axes_1">
   <g id="patch_2">
    <path d="M 54 252 
L 388.8 252 
L 388.8 34.56 
L 54 34.56 
z
" style="fill:#ffffff;"/>
   </g>
   <g id="matplotlib.axis_1">
    <g id="xtick_1">
     <g id="line2d_1">
      <defs>
       <path d="M 0 0 
L 0 3.5 
" id="m746c3dce1e" style="stroke:#000000;stroke-width:0.8;"/>
      </defs>
      <g>
       <use style="stroke:#000000;stroke-width:0.8;" x="69.218182" xlink:href="#m746c3dce1e" y="252"/>
      </g>
     </g>
     <g id="text_1">
      <!-- $\mathdefault{10^{0}}$ -->
      <g transform="translate(60.418182 266.598437)">
       <text>
        <tspan style="font-family:DejaVu Sans;font-size:10px;font-style:book;font-weight:book;" x="0 6.362305" y="-0.9765625">10</tspan>
        <tspan style="font-family:DejaVu Sans;font-size:7px;font-style:book;font-weight:book;" x="12.820312" y="-4.8046875">0</tspan>
       </text>
      </g>
     </g>
    </g>
    <g id="xtick_2">
     <g id="line2d_2">
      <g>
       <use style="stroke:#000000;stroke-width:0.8;" x="221.732848" xlink:href="#m746c3dce1e" y="252"/>
      </g>
     </g>
     <g id="text_2">
      <!-- $\mathdefault{10^{1}}$ -->
      <g transform="translate(212.932848 266.598437)">
       <text>
        <tspan style="font-family:DejaVu Sans;font-size:10px;font-style:book;font-weight:book;" x="0 6.362305" y="-0.06406250000000036">10</tspan>
        <tspan style="font-family:DejaVu Sans;font-size:7px;font-style:book;font-weight:book;" x="12.820312" y="-3.8921875000000004">1</tspan>
       </text>
      </g>
     </g>
    </g>
    <g id="xtick_3">
     <g id="line2d_3">
      <g>
       <use style="stroke:#000000;stroke-width:0.8;" x="374.247515" xlink:href="#m746c3dce1e" y="252"/>
      </g>
     </g>
     <g id="text_3">
      <!-- $\mathdefault{10^{2}}$ -->
      <g transform="translate(365.447515 266.598437)">
       <text>
        <tspan style="font-family:DejaVu Sans;font-size:10px;font-style:book;font-weight:book;" x="0 6.362305" y="-0.9765625">10</tspan>
        <tspan style="font-family:DejaVu Sans;font-size:7px;font-style:book;font-weight:book;" x="12.820312" y="-4.8046875">2</tspan>
       </text>
      </g>
     </g>
    </g>
    <g id="xtick_4">
     <g id="line2d_4">
      <defs>
       <path d="M 0 0 
L 0 2 
" id="m8070e5eb6e" style="stroke:#000000;stroke-width:0.6;"/>
      </defs>
      <g>
       <use style="stroke:#000000;stroke-width:0.6;" x="54.437983" xlink:href="#m8070e5eb6e" y="252"/>
      </g>
     </g>
    </g>
    <g id="xtick_5">
     <g id="line2d_5">
      <g>
       <use style="stroke:#000000;stroke-width:0.6;" x="62.239493" xlink:href="#m8070e5eb6e" y="252"/>
      </g>
     </g>
    </g>
    <g id="xtick_6">
     <g id="line2d_6">
      <g>
       <use style="stroke:#000000;stroke-width:0.6;" x="115.129671" xlink:href="#m8070e5eb6e" y="252"/>
      </g>
     </g>
    </g>
    <g id="xtick_7">
     <g id="line2d_7">
      <g>
       <use style="stroke:#000000;stroke-width:0.6;" x="141.986171" xlink:href="#m8070e5eb6e" y="252"/>
      </g>
     </g>
    </g>
    <g id="xtick_8">
     <g id="line2d_8">
      <g>
       <use style="stroke:#000000;stroke-width:0.6;" x="161.041161" xlink:href="#m8070e5eb6e" y="252"/>
      </g>
     </g>
    </g>
    <g id="xtick_9">
     <g id="line2d_9">
      <g>
       <use style="stroke:#000000;stroke-width:0.6;" x="175.821359" xlink:href="#m8070e5eb6e" y="252"/>
      </g>
     </g>
    </g>
    <g id="xtick_10">
     <g id="line2d_10">
      <g>
       <use style="stroke:#000000;stroke-width:0.6;" x="187.89766" xlink:href="#m8070e5eb6e" y="252"/>
      </g>
     </g>
    </g>
    <g id="xtick_11">
     <g id="line2d_11">
      <g>
       <use style="stroke:#000000;stroke-width:0.6;" x="198.108028" xlink:href="#m8070e5eb6e" y="252"/>
      </g>
     </g>
    </g>
    <g id="xtick_12">
     <g id="line2d_12">
      <g>
       <use style="stroke:#000000;stroke-width:0.6;" x="206.95265" xlink:href="#m8070e5eb6e" y="252"/>
      </g>
     </g>
    </g>
    <g id="xtick_13">
     <g id="line2d_13">
      <g>
       <use style="stroke:#000000;stroke-width:0.6;" x="214.75416" xlink:href="#m8070e5eb6e" y="252"/>
      </g>
     </g>
    </g>
    <g id="xtick_14">
     <g id="line2d_14">
      <g>
       <use style="stroke:#000000;stroke-width:0.6;" x="267.644338" xlink:href="#m8070e5eb6e" y="252"/>
      </g>
     </g>
    </g>
    <g id="xtick_15">
     <g id="line2d_15">
      <g>
       <use style="stroke:#000000;stroke-width:0.6;" x="294.500838" xlink:href="#m8070e5eb6e" y="252"/>
      </g>
     </g>
    </g>
    <g id="xtick_16">
     <g id="line2d_16">
      <g>
       <use style="stroke:#000000;stroke-width:0.6;" x="313.555827" xlink:href="#m8070e5eb6e" y="252"/>
      </g>
     </g>
    </g>
    <g id="xtick_17">
     <g id="line2d_17">
      <g>
       <use style="stroke:#000000;stroke-width:0.6;" x="328.336026" xlink:href="#m8070e5eb6e" y="252"/>
      </g>
     </g>
    </g>
    <g id="xtick_18">
     <g id="line2d_18">
      <g>
       <use style="stroke:#000000;stroke-width:0.6;" x="340.412327" xlink:href="#m8070e5eb6e" y="252"/>
      </g>
     </g>
    </g>
    <g id="xtick_19">
     <g id="line2d_19">
      <g>
       <use style="stroke:#000000;stroke-width:0.6;" x="350.622694" xlink:href="#m8070e5eb6e" y="252"/>
      </g>
     </g>
    </g>
    <g id="xtick_20">
     <g id="line2d_20">
      <g>
       <use style="stroke:#000000;stroke-width:0.6;" x="359.467317" xlink:href="#m8070e5eb6e" y="252"/>
      </g>
     </g>
    </g>
    <g id="xtick_21">
     <g id="line2d_21">
      <g>
       <use style="stroke:#000000;stroke-width:0.6;" x="367.268827" xlink:href="#m8070e5eb6e" y="252"/>
      </g>
     </g>
    </g>
    <g id="text_4">
     <text style="font-family:DejaVu Sans;font-size:10px;font-style:normal;font-weight:normal;text-anchor:middle;" transform="rotate(-0, 221.4, 280.276563)" x="221.4" y="280.276563">Epochs</text>
    </g>
   </g>
   <g id="matplotlib.axis_2">
    <g id="ytick_1">
     <g id="line2d_22">
      <defs>
       <path d="M 0 0 
L -3.5 0 
" id="mc83829b291" style="stroke:#000000;stroke-width:0.8;"/>
      </defs>
      <g>
       <use style="stroke:#000000;stroke-width:0.8;" x="54" xlink:href="#mc83829b291" y="252"/>
      </g>
     </g>
     <g id="text_5">
      <text style="font-family:DejaVu Sans;font-size:10px;font-style:normal;font-weight:normal;text-anchor:end;" transform="rotate(-0, 47, 255.799219)" x="47" y="255.799219">−0.2</text>
     </g>
    </g>
    <g id="ytick_2">
     <g id="line2d_23">
      <g>
       <use style="stroke:#000000;stroke-width:0.8;" x="54" xlink:href="#mc83829b291" y="215.76"/>
      </g>
     </g>
     <g id="text_6">
      <text style="font-family:DejaVu Sans;font-size:10px;font-style:normal;font-weight:normal;text-anchor:end;" transform="rotate(-0, 47, 219.559219)" x="47" y="219.559219">0.0</text>
     </g>
    </g>
    <g id="ytick_3">
     <g id="line2d_24">
      <g>
       <use style="stroke:#000000;stroke-width:0.8;" x="54" xlink:href="#mc83829b291" y="179.52"/>
      </g>
     </g>
     <g id="text_7">
      <text style="font-family:DejaVu Sans;font-size:10px;font-style:normal;font-weight:normal;text-anchor:end;" transform="rotate(-0, 47, 183.319219)" x="47" y="183.319219">0.2</text>
     </g>
    </g>
    <g id="ytick_4">
     <g id="line2d_25">
      <g>
       <use style="stroke:#000000;stroke-width:0.8;" x="54" xlink:href="#mc83829b291" y="143.28"/>
      </g>
     </g>
     <g id="text_8">
      <text style="font-family:DejaVu Sans;font-size:10px;font-style:normal;font-weight:normal;text-anchor:end;" transform="rotate(-0, 47, 147.079219)" x="47" y="147.079219">0.4</text>
     </g>
    </g>
    <g id="ytick_5">
     <g id="line2d_26">
      <g>
       <use style="stroke:#000000;stroke-width:0.8;" x="54" xlink:href="#mc83829b291" y="107.04"/>
      </g>
     </g>
     <g id="text_9">
      <text style="font-family:DejaVu Sans;font-size:10px;font-style:normal;font-weight:normal;text-anchor:end;" transform="rotate(-0, 47, 110.839219)" x="47" y="110.839219">0.6</text>
     </g>
    </g>
    <g id="ytick_6">
     <g id="line2d_27">
      <g>
       <use style="stroke:#000000;stroke-width:0.8;" x="54" xlink:href="#mc83829b291" y="70.8"/>
      </g>
     </g>
     <g id="text_10">
      <text style="font-family:DejaVu Sans;font-size:10px;font-style:normal;font-weight:normal;text-anchor:end;" transform="rotate(-0, 47, 74.599219)" x="47" y="74.599219">0.8</text>
     </g>
    </g>
    <g id="ytick_7">
     <g id="line2d_28">
      <g>
       <use style="stroke:#000000;stroke-width:0.8;" x="54" xlink:href="#mc83829b291" y="34.56"/>
      </g>
     </g>
     <g id="text_11">
      <text style="font-family:DejaVu Sans;font-size:10px;font-style:normal;font-weight:normal;text-anchor:end;" transform="rotate(-0, 47, 38.359219)" x="47" y="38.359219">1.0</text>
     </g>
    </g>
    <g id="text_12">
     <text style="font-family:DejaVu Sans;font-size:10px;font-style:normal;font-weight:normal;text-anchor:middle;" transform="rotate(-90, 16.6375, 143.28)" x="16.6375" y="143.28">Mean squared error</text>
    </g>
   </g>
   <g id="line2d_29">
    <path clip-path="url(#p7efb453003)" d="M 91.830674 -1 
L 115.129671 167.000974 
L 141.986171 188.41778 
L 161.041161 185.923812 
L 175.821359 185.415439 
L 187.89766 194.708201 
L 198.108028 193.429646 
L 206.95265 186.758288 
L 214.75416 198.84694 
L 221.732848 189.295455 
L 228.04584 200.725424 
L 233.80915 194.890207 
L 239.110881 195.726482 
L 244.019517 201.905067 
L 248.589348 198.062212 
L 252.86414 199.574551 
L 256.879689 191.963876 
L 260.665649 203.679729 
L 264.246861 202.404725 
L 267.644338 194.740901 
L 270.876017 199.59081 
L 273.957329 202.163251 
L 276.901649 201.146252 
L 279.720639 203.952156 
L 282.424536 201.955768 
L 285.02237 202.319926 
L 287.522149 203.795964 
L 289.931006 201.379583 
L 292.255325 205.361167 
L 294.500838 201.357216 
L 296.672713 202.509225 
L 298.775629 204.88164 
L 300.813829 202.244274 
L 302.791178 204.307068 
L 304.711205 203.10613 
L 306.577139 204.051688 
L 308.391945 204.047937 
L 310.15835 204.735473 
L 311.87887 203.547842 
L 313.555827 206.823063 
L 315.191374 202.474717 
L 316.787506 203.038295 
L 318.346079 202.353795 
L 319.868819 205.505121 
L 321.357337 205.319427 
L 322.813138 204.884946 
L 324.237629 207.435685 
L 325.632129 205.760734 
L 326.997873 207.724877 
L 328.336026 203.294628 
L 329.647678 209.080915 
L 330.93386 203.793426 
L 332.195541 204.375626 
L 333.433639 208.568218 
L 334.649017 206.952915 
L 335.842496 206.899915 
L 337.01485 209.545417 
L 338.166814 207.085158 
L 339.299086 206.489051 
L 340.412327 210.186236 
L 341.507166 207.610507 
L 342.584203 206.473838 
L 343.644006 210.041971 
L 344.687118 203.884527 
L 345.714058 206.401891 
L 346.725319 208.736727 
L 347.721372 207.141132 
L 348.702668 207.912305 
L 349.669638 207.991862 
L 350.622694 207.921393 
L 351.562232 208.939586 
L 352.488628 207.261388 
L 353.402247 208.815388 
L 354.303434 209.021676 
L 355.192525 207.536236 
L 356.06984 208.60639 
L 356.935686 208.357764 
L 357.790359 208.753793 
L 358.634145 206.72277 
L 359.467317 209.670546 
L 360.290138 209.41662 
L 361.102863 204.207049 
L 361.905737 210.749326 
L 362.698996 207.219139 
L 363.482866 209.00191 
L 364.257568 208.08922 
L 365.023314 210.519577 
L 365.780308 207.343662 
L 366.528749 209.082267 
L 367.268827 207.91856 
L 368.000727 204.540066 
L 368.724628 211.011337 
L 369.440702 207.186931 
L 370.149119 210.840689 
L 370.850038 205.790445 
L 371.543618 208.598997 
L 372.23001 210.402742 
L 372.909363 210.266707 
L 373.581818 208.812473 
" style="fill:none;stroke:#40b5c4;stroke-linecap:square;"/>
   </g>
   <g id="line2d_30">
    <path clip-path="url(#p7efb453003)" d="M -1 138.872888 
L 69.218182 139.307248 
L 115.129671 194.202914 
L 141.986171 181.686684 
L 161.041161 176.423773 
L 175.821359 201.295246 
L 187.89766 188.509437 
L 198.108028 196.442053 
L 206.95265 204.858072 
L 214.75416 206.985386 
L 221.732848 201.377081 
L 228.04584 210.747834 
L 233.80915 194.556428 
L 239.110881 202.886026 
L 244.019517 211.853 
L 248.589348 192.219148 
L 252.86414 194.855388 
L 256.879689 204.543053 
L 260.665649 209.655042 
L 264.246861 209.332756 
L 267.644338 205.109697 
L 270.876017 202.969626 
L 273.957329 208.076293 
L 276.901649 195.711972 
L 279.720639 209.731107 
L 282.424536 159.949666 
L 285.02237 187.115583 
L 287.522149 204.675908 
L 289.931006 171.599916 
L 292.255325 189.479877 
L 294.500838 212.426099 
L 296.672713 209.501587 
L 298.775629 213.881555 
L 300.813829 205.080257 
L 302.791178 189.093213 
L 304.711205 210.857659 
L 306.577139 186.056913 
L 308.391945 213.439829 
L 310.15835 192.774576 
L 311.87887 136.826108 
L 313.555827 204.485764 
L 315.191374 208.274699 
L 316.787506 178.266812 
L 318.346079 211.714766 
L 319.868819 212.08014 
L 321.357337 180.349265 
L 322.813138 212.503914 
L 324.237629 117.698138 
L 325.632129 197.730509 
L 326.997873 214.919172 
L 328.336026 214.39358 
L 329.647678 211.476921 
L 330.93386 205.968875 
L 332.195541 203.607979 
L 333.433639 207.173748 
L 334.649017 160.924237 
L 335.842496 210.270746 
L 337.01485 211.904642 
L 338.166814 210.425597 
L 339.299086 213.111741 
L 340.412327 199.643623 
L 341.507166 212.443684 
L 342.584203 212.389834 
L 343.644006 212.660646 
L 344.687118 207.935413 
L 345.714058 197.952206 
L 346.725319 207.07668 
L 347.721372 153.904817 
L 348.702668 213.963153 
L 349.669638 185.892761 
L 350.622694 197.402134 
L 351.562232 214.82968 
L 352.488628 180.724251 
L 353.402247 160.720574 
L 354.303434 206.095008 
L 355.192525 206.9442 
L 356.06984 179.138682 
L 356.935686 170.720494 
L 357.790359 214.456931 
L 358.634145 211.264854 
L 359.467317 161.143921 
L 360.290138 214.556759 
L 361.102863 209.423007 
L 361.905737 164.92894 
L 362.698996 211.169201 
L 363.482866 198.097927 
L 364.257568 207.321676 
L 365.023314 209.114134 
L 365.780308 213.858421 
L 366.528749 204.226719 
L 367.268827 193.152896 
L 368.000727 206.476098 
L 368.724628 183.458827 
L 369.440702 211.148166 
L 370.149119 211.681669 
L 370.850038 209.537862 
L 371.543618 209.698595 
L 372.23001 179.34336 
L 372.909363 212.608321 
L 373.581818 187.987229 
" style="fill:none;stroke:#081d58;stroke-linecap:square;"/>
   </g>
   <g id="patch_3">
    <path d="M 54 252 
L 54 34.56 
" style="fill:none;stroke:#000000;stroke-linecap:square;stroke-linejoin:miter;stroke-width:0.8;"/>
   </g>
   <g id="patch_4">
    <path d="M 388.8 252 
L 388.8 34.56 
" style="fill:none;stroke:#000000;stroke-linecap:square;stroke-linejoin:miter;stroke-width:0.8;"/>
   </g>
   <g id="patch_5">
    <path d="M 54 252 
L 388.8 252 
" style="fill:none;stroke:#000000;stroke-linecap:square;stroke-linejoin:miter;stroke-width:0.8;"/>
   </g>
   <g id="patch_6">
    <path d="M 54 34.56 
L 388.8 34.56 
" style="fill:none;stroke:#000000;stroke-linecap:square;stroke-linejoin:miter;stroke-width:0.8;"/>
   </g>
   <g id="legend_1">
    <g id="patch_7">
     <path d="M 304.03125 71.91625 
L 381.8 71.91625 
Q 383.8 71.91625 383.8 69.91625 
L 383.8 41.56 
Q 383.8 39.56 381.8 39.56 
L 304.03125 39.56 
Q 302.03125 39.56 302.03125 41.56 
L 302.03125 69.91625 
Q 302.03125 71.91625 304.03125 71.91625 
z
" style="fill:#ffffff;opacity:0.8;stroke:#cccccc;stroke-linejoin:miter;"/>
    </g>
    <g id="line2d_31">
     <path d="M 306.03125 47.658437 
L 326.03125 47.658437 
" style="fill:none;stroke:#40b5c4;stroke-linecap:square;"/>
    </g>
    <g id="line2d_32"/>
    <g id="text_13">
     <text style="font-family:DejaVu Sans;font-size:10px;font-style:normal;font-weight:normal;text-anchor:start;" transform="rotate(-0, 334.03125, 51.158437)" x="334.03125" y="51.158437">train loss</text>
    </g>
    <g id="line2d_33">
     <path d="M 306.03125 62.336562 
L 326.03125 62.336562 
" style="fill:none;stroke:#081d58;stroke-linecap:square;"/>
    </g>
    <g id="line2d_34"/>
    <g id="text_14">
     <text style="font-family:DejaVu Sans;font-size:10px;font-style:normal;font-weight:normal;text-anchor:start;" transform="rotate(-0, 334.03125, 65.836562)" x="334.03125" y="65.836562">test loss</text>
    </g>
   </g>
  </g>
  <g id="text_15">
   <text style="font-family:DejaVu Sans;font-size:12px;font-style:normal;font-weight:normal;text-anchor:middle;" transform="rotate(-0, 216, 14.878125)" x="216" y="14.878125">Loss atg20pc reconstruction from atg pig and cala</text>
  </g>
 </g>
 <defs>
  <clipPath id="p7efb453003">
   <rect height="217.44" width="334.8" x="54" y="34.56"/>
  </clipPath>
 </defs>
</svg>
